OFF
252 500 0
-0.084618 -0.3230615 0.80288
0.030527125 -0.311155875 0.771749125
-0.0630945 -0.3398945 0.7221635
0.067768 -0.3281565 0.7057495
0.022109 -0.3397085 0.6821895
0.14710275 -0.31977425 0.6641885
0.06557025 -0.34000175 0.62639925
0.126903 -0.333291 0.595996
-0.125645 -0.26310125 0.87392875
-0.151361 -0.300644 0.822773
-0.03419775 -0.28752 0.84894775
0.129588 -0.2920265 0.7332675
0.215464 -0.28560925 0.58588675
0.221688 -0.277111 0.64458
-0.05121625 -0.2425235 0.897364
0.016962 -0.275887 0.835715
0.07576525 -0.2682915 0.80343725
0.242205375 -0.23421175 0.695377
0.27731125 -0.199577 0.630604
-0.118175 -0.209386 0.914221
0.013533 -0.2303625 0.891671
0.0652355 -0.22807775 0.86013375
0.1425015 -0.22480525 0.8095065
0.191518 -0.23032325 0.76767725
-0.0543125 -0.18926925 0.9403185
0.27863425 -0.18007425 0.7257815
0.02157525 -0.16469075 0.95559275
0.08384425 -0.1636245 0.92591225
0.155858 -0.16801025 0.869622
0.2317985 -0.177748 0.80127
0.32164525 -0.12301 0.69021
0.02292475 -0.107596 1.0039855
-0.0450385 -0.1046685 1.0022575
0.132391 -0.14706 0.911874
0.24228175 -0.12703125 0.85491525
0.294756 -0.1179545 0.812005625
0.354122625 -0.049407125 0.7302485
0.094303 -0.092509 0.98581025
0.1592865 -0.09043325 0.9432045
0.21733375 -0.088457 0.903402
-0.002569 -0.067442 1.027537
0.039578 -0.02254575 1.03137725
0.279586 -0.069425 0.870891
0.32941075 -0.041816 0.8232345
0.121809 -0.0057775 0.996469
0.171407 -0.0244285 0.961117
0.2556735 -0.000141750000000001 0.901735
0.310938 -0.003282 0.856239
-0.118024 -0.33626 0.7134065
-0.1609385 -0.31952575 0.758733
-0.206270625 -0.28765275 0.678162625
-0.04906725 -0.33544725 0.648334
-0.037884 -0.3201825 0.5864125
0.01375775 -0.321418 0.55334925
0.07559475 -0.32444075 0.532575
-0.19883475 -0.278619 0.805743
0.19927325 -0.275672 0.5223485
-0.1685665 -0.223819 0.883197
-0.234519 -0.220513 0.8227095
0.2520305 -0.234667 0.568507
-0.21685725 -0.17965325 0.86394925
0.278263 -0.1741015 0.5705065
-0.1281395 -0.1605675 0.937561
-0.181463 -0.164909 0.901416
-0.17603425 -0.11420375 0.9205945
0.307527 -0.12894175 0.6211125
-0.1061165 -0.1087145 0.97438575
-0.132779 -0.035275125 0.981125625
0.3445975 -0.032547 0.65119825
-0.068816 -0.021663 1.02380625
-0.032032 0.03520925 1.031554
0.349687 0.0019825 0.791948
0.35683125 0.0415485 0.72855975
0.081583 0.0505025 1.0118085
0.187184375 0.034508375 0.94696425
0.31009475 0.06870525 0.8376345
0.2343315 0.081395625 0.89582525
-0.24369575 -0.252767 0.7422205
-0.12400075 -0.30649925 0.61688625
0.11853375 -0.289878 0.4825415
0.16620925 -0.2179925 0.44559225
0.22888125 -0.2140255 0.4975805
0.2691655 -0.12033875 0.52978825
-0.171188 -0.055659 0.9379405
0.28376025 -0.0588635 0.548232
0.321499 -0.060029 0.608405
-0.093702 0.06556625 1.001132
0.3461965 0.0410505 0.65979025
-0.00635125 0.093397 1.013792
0.3394475 0.0832095 0.7611655
0.04881425 0.137753 0.97377475
0.106867 0.10282 0.97376
0.1356525 0.12649175 0.93090575
0.182421 0.12838 0.896027
0.304025 0.114795 0.8040635
-0.25332575 -0.22841675 0.65457
-0.201166 -0.266476 0.621483
-0.1124345 -0.2786915 0.567243
-0.07229075 -0.26189925 0.5183125
-0.007588 -0.283021 0.498409
0.05012475 -0.26740225 0.4577805
0.109127 -0.2380815 0.434188
-0.27156175 -0.170175 0.77995
0.18875425 -0.15346425 0.43481025
-0.256040125 -0.0973245 0.823712125
-0.2131885 -0.0230905 0.884313
-0.1762815 0.064162875 0.9317515
0.30022575 0.0122155 0.57117475
-0.03646375 0.1458055 0.975194
0.31957925 0.12666425 0.6998795
0.226482 0.1661015 0.82189425
0.28853625 0.1532635 0.76408825
-0.2278055 -0.217371 0.5793335
-0.179869 -0.2394775 0.566899
-0.138475 -0.2272815 0.5226925
-0.024934 -0.244785 0.463844
0.0248995 -0.225772 0.423702
-0.2916345 -0.16507625 0.71829675
0.0998585 -0.1783035 0.3941745
0.2301785 -0.074799 0.47209825
0.2552495 -0.0147975 0.507555
0.31622375 0.10161925 0.620423
-0.1182605 0.107624 0.9675705
-0.01439325 0.202814 0.927579
0.08031375 0.1822945 0.90558975
0.14942175 0.19381725 0.842611
-0.28247425 -0.178817 0.616144
-0.06686275 -0.20975175 0.4505855
-0.000811000000000001 -0.18438425 0.39043875
-0.309695 -0.102861 0.727236
0.16162525 -0.1037925 0.39565675
-0.29522625 -0.03739975 0.76829425
-0.2606365 -0.0102245 0.817212
0.195894 -0.01487225 0.4236135
-0.2282935 0.05185625 0.8629515
0.26911425 0.05508025 0.52716225
0.28312775 0.14614725 0.5661015
-0.14504775 0.15768275 0.927964
-0.0904525 0.2037705 0.925786
0.29016175 0.177461 0.6597375
0.0543195 0.2273175 0.8688295
0.17385625 0.231572 0.77909325
0.229519 0.2154455 0.753499
0.2518435 0.221536 0.7046695
-0.3237745 -0.1195755 0.5984205
-0.23699625 -0.1724185 0.52829825
-0.160126 -0.1766615 0.476005
-0.072783875 -0.157945875 0.39261625
0.071053 -0.13026325 0.354751
-0.3296935 -0.0980555 0.6666685
0.13311375 -0.042666 0.35245575
0.230335 0.05804775 0.47231975
-0.2066295 0.1369895 0.8866155
0.2617185 0.22664075 0.619285
-0.0465345 0.260529 0.8801805
0.03270275 0.269485 0.8324615
0.0970355 0.2565195 0.8028595
-0.2997595 -0.12008425 0.53102425
-0.22181375 -0.122893125 0.458474875
-0.139279 -0.151349 0.430263
-0.00694725 -0.109096625 0.32858
-0.3551965 -0.044769 0.62882125
0.05482775 -0.06043675 0.312366
-0.336569 -0.033063 0.703032
-0.34267825 0.018997 0.6905165
-0.300186 0.032382 0.76128
0.1669 0.039128 0.3854615
-0.278839125 0.111009875 0.786450375
0.22908925 0.12357125 0.4717025
-0.248487 0.1736235 0.824815
0.256238 0.170644 0.515406
-0.194017 0.201685 0.877959
-0.148548625 0.23494225 0.885079375
0.13781025 0.28700925 0.7347925
0.21522 0.2660765 0.687306
-0.185684 -0.108407 0.418271
-0.14284775 -0.0889775 0.37627
0.1091175 0.04802875 0.33457375
-0.316247 0.0878925 0.72048175
0.168076375 0.103256 0.40167025
0.18768025 0.1726305 0.439403
0.236449375 0.224190875 0.5180755
-0.220771 0.2391335 0.826793
0.214047125 0.28759275 0.608257625
0.2178935 0.2725855 0.54783
-0.08165925 0.30970775 0.826223
-0.009697 0.302372 0.818298
-0.01110425 0.3250245 0.76902375
0.061193 0.31767575 0.73483425
0.169757 0.308007 0.671535
-0.350285 -0.032745 0.5515565
-0.3139 -0.0621665 0.494812
-0.2718395 -0.0416205 0.4468995
-0.2099475 -0.043733 0.403685
-0.082364125 -0.03493 0.316920125
-0.348011625 0.0459325 0.55561775
-0.0190485 0.010432 0.2960095
0.05431025 0.00679875 0.30255925
-0.356342 0.042346 0.639581
-0.3304625 0.106852 0.6416885
-0.28068475 0.18081225 0.74201275
-0.181175 0.2905795 0.806355
0.182822 0.267877 0.49103
-0.1214945 0.329826 0.773564
0.1617515 0.3180365 0.563959
0.078839 0.33492325 0.6652795
-0.3160745 0.0099325 0.482627
-0.24360475 0.000215750000000001 0.42157225
-0.15786025 0.00326325 0.3611075
-0.29935625 0.068435 0.4815335
-0.10648425 0.052766 0.334096
-0.064113 0.036428 0.30692
-0.31847625 0.1093905 0.5513915
-0.0098975 0.085324375 0.31514975
-0.2983655 0.1504325 0.5896145
0.055375 0.10463225 0.33337875
-0.296552 0.1661725 0.665089
0.0294785 0.148556 0.358306
0.114904 0.159988 0.3877125
0.05474575 0.190325 0.392506
-0.244847 0.246222 0.6743775
0.09504375 0.2348625 0.430421125
-0.246229 0.2485385 0.74380625
0.154904 0.2241715 0.4417955
0.134611 0.291606375 0.491653875
-0.181581 0.31147025 0.7182155
-0.119493 0.3335665 0.689761
-0.0546075 0.34009475 0.70532775
0.004386 0.340105 0.691152
0.00158175 0.33412225 0.606022
0.1039675 0.33791175 0.599411
-0.23584725 0.0971625 0.44676875
-0.1801795 0.06935 0.3904735
-0.26658 0.147363 0.520659
-0.14931 0.11358 0.3967635
-0.06991525 0.13941475 0.3703745
-0.207573875 0.170874875 0.502446
-0.14332025 0.1648065 0.449558
-0.24421525 0.21287425 0.5987025
-0.0731275 0.20542975 0.449677
-0.024556 0.19489725 0.407379
-0.1622905 0.2385565 0.553297
-0.146419 0.2098275 0.506888
-0.209212 0.256892 0.616761
-0.076046 0.2461225 0.5015795
0.000458 0.2438625 0.449555
-0.17244825 0.29162425 0.6317495
-0.1136705 0.27672 0.565658
-0.04452325 0.29251675 0.5392715
0.010517875 0.2846535 0.492088875
-0.0868415 0.31867475 0.617547
0.050375 0.3282145 0.547787
3 1 0 2
3 1 2 4
3 3 1 4
3 3 4 6
3 5 3 6
3 7 5 6
3 8 9 0
3 10 8 0
3 0 1 10
3 1 3 11
3 3 5 11
3 5 7 12
3 13 5 12
3 14 8 10
3 15 1 16
3 15 10 1
3 1 11 16
3 11 5 17
3 17 5 13
3 17 13 18
3 8 14 19
3 10 15 20
3 14 10 20
3 15 16 21
3 20 15 21
3 16 11 22
3 22 11 23
3 11 17 23
3 19 14 24
3 24 14 20
3 21 16 22
3 23 17 25
3 17 18 25
3 24 20 26
3 20 21 27
3 26 20 27
3 21 22 28
3 27 21 28
3 22 23 29
3 28 22 29
3 23 25 29
3 26 31 32
3 24 26 32
3 27 28 33
3 34 28 29
3 34 29 35
3 35 29 25
3 35 30 36
3 35 25 30
3 37 31 26
3 26 27 37
3 27 33 38
3 37 27 38
3 33 28 38
3 28 34 39
3 38 28 39
3 41 31 37
3 40 31 41
3 39 34 42
3 42 35 43
3 42 34 35
3 35 36 43
3 41 37 44
3 37 38 45
3 44 37 45
3 38 39 45
3 45 39 46
3 39 42 46
3 46 42 47
3 47 42 43
3 48 49 50
3 2 48 51
3 6 51 52
3 6 52 53
3 6 53 54
3 7 6 54
3 48 0 49
3 2 0 48
3 4 2 51
3 4 51 6
3 12 7 56
3 57 58 55
3 55 8 57
3 55 9 8
3 49 9 55
3 9 49 0
3 12 56 59
3 58 57 60
3 59 18 13
3 12 59 13
3 57 62 63
3 60 57 63
3 19 62 57
3 8 19 57
3 18 59 61
3 63 62 64
3 19 24 62
3 65 30 18
3 65 18 61
3 64 62 66
3 24 66 62
3 30 25 18
3 24 32 66
3 30 65 68
3 67 66 69
3 69 66 32
3 36 30 68
3 69 40 41
3 69 32 40
3 32 31 40
3 69 41 70
3 72 71 36
3 36 71 43
3 73 41 44
3 44 45 74
3 74 45 46
3 71 47 43
3 75 46 47
3 73 44 74
3 74 46 76
3 76 46 75
3 48 50 78
3 51 48 78
3 51 78 52
3 55 58 77
3 49 55 77
3 49 77 50
3 54 79 7
3 80 56 79
3 56 7 79
3 56 80 81
3 59 56 81
3 81 61 59
3 63 64 60
3 82 61 81
3 82 65 61
3 66 83 64
3 85 65 84
3 84 65 82
3 66 67 83
3 85 68 65
3 86 67 69
3 72 36 68
3 72 68 87
3 69 70 86
3 41 73 70
3 47 71 75
3 71 72 89
3 89 75 71
3 88 73 90
3 70 73 88
3 90 73 91
3 73 74 91
3 91 74 92
3 92 74 93
3 74 76 93
3 76 75 94
3 75 89 94
3 50 77 95
3 50 96 78
3 52 78 97
3 52 97 98
3 53 52 98
3 53 98 99
3 53 99 100
3 54 53 100
3 79 54 100
3 101 79 100
3 77 58 102
3 80 79 101
3 58 60 102
3 103 81 80
3 60 104 102
3 82 81 103
3 64 104 60
3 64 105 104
3 64 83 105
3 67 106 83
3 107 85 84
3 68 85 107
3 87 68 107
3 86 88 108
3 86 70 88
3 89 72 109
3 109 72 87
3 90 91 92
3 93 76 110
3 76 94 110
3 111 94 89
3 50 95 96
3 96 95 112
3 96 112 113
3 78 96 113
3 97 113 114
3 97 78 113
3 97 114 98
3 99 98 115
3 99 115 100
3 100 116 101
3 77 102 117
3 95 77 117
3 80 101 118
3 80 118 103
3 82 103 119
3 84 82 119
3 120 84 119
3 107 84 120
3 83 106 105
3 121 87 107
3 86 122 106
3 67 86 106
3 122 86 108
3 109 87 121
3 88 90 108
3 108 90 123
3 123 90 124
3 124 90 92
3 124 92 125
3 92 93 125
3 93 110 125
3 110 94 111
3 111 89 109
3 95 126 112
3 98 114 127
3 98 127 115
3 115 127 116
3 100 115 116
3 116 128 118
3 101 116 118
3 95 117 126
3 103 118 130
3 102 129 117
3 104 131 129
3 102 104 129
3 119 103 130
3 104 132 131
3 104 105 132
3 120 119 133
3 105 134 132
3 107 120 135
3 105 106 134
3 121 107 135
3 136 121 135
3 122 137 106
3 137 108 138
3 137 122 108
3 139 109 121
3 138 108 123
3 140 124 125
3 125 110 141
3 110 111 142
3 141 110 142
3 142 111 143
3 111 109 139
3 143 111 139
3 112 126 145
3 113 112 145
3 113 145 114
3 114 145 146
3 114 146 127
3 127 147 128
3 116 127 128
3 118 128 148
3 117 129 149
3 126 149 144
3 126 117 149
3 118 148 130
3 119 130 133
3 133 130 150
3 120 133 151
3 135 120 151
3 106 152 134
3 106 137 152
3 139 121 136
3 153 139 136
3 123 124 140
3 154 123 140
3 140 125 156
3 155 140 156
3 156 125 141
3 126 144 157
3 126 157 145
3 146 145 158
3 146 158 159
3 127 146 159
3 147 127 159
3 128 147 160
3 128 160 148
3 148 162 150
3 130 148 150
3 149 163 161
3 149 129 163
3 131 164 163
3 129 131 163
3 131 165 164
3 132 167 165
3 131 132 165
3 151 133 166
3 132 134 167
3 134 169 167
3 135 151 168
3 134 152 169
3 136 135 168
3 170 136 168
3 137 171 152
3 171 137 172
3 172 137 138
3 138 123 154
3 172 138 154
3 154 140 155
3 156 141 173
3 141 142 174
3 173 141 174
3 142 143 174
3 143 139 153
3 174 143 153
3 145 157 158
3 159 158 175
3 159 175 176
3 147 159 176
3 144 161 190
3 144 149 161
3 162 148 160
3 161 163 164
3 166 150 177
3 166 133 150
3 164 165 178
3 165 167 178
3 151 166 179
3 168 151 179
3 180 168 179
3 181 170 168
3 152 171 169
3 169 171 182
3 181 136 170
3 182 171 172
3 183 153 184
3 153 136 181
3 184 153 181
3 172 154 185
3 154 155 186
3 185 154 186
3 186 155 187
3 155 156 188
3 187 155 188
3 156 173 188
3 173 174 189
3 189 174 183
3 183 174 153
3 157 190 191
3 191 158 157
3 192 158 191
3 158 192 193
3 158 193 175
3 175 193 176
3 147 176 194
3 147 194 160
3 157 144 190
3 160 194 196
3 197 162 196
3 162 160 196
3 164 198 161
3 190 161 195
3 161 198 195
3 177 150 197
3 197 150 162
3 164 199 198
3 164 178 199
3 179 166 177
3 167 200 178
3 169 200 167
3 180 181 168
3 181 202 184
3 182 172 201
3 201 172 185
3 185 203 201
3 204 183 184
3 187 185 186
3 205 188 173
3 205 173 189
3 191 206 192
3 193 192 207
3 176 193 208
3 194 176 208
3 195 206 190
3 206 191 190
3 192 206 207
3 193 207 208
3 194 208 210
3 211 194 210
3 211 196 194
3 206 195 209
3 197 196 213
3 198 199 195
3 212 199 214
3 212 195 199
3 215 197 213
3 215 177 197
3 214 199 216
3 215 179 177
3 178 216 199
3 218 217 219
3 218 215 217
3 218 179 215
3 178 200 216
3 216 200 220
3 218 219 221
3 218 180 179
3 220 200 222
3 223 218 221
3 223 180 218
3 200 169 222
3 224 223 221
3 223 181 180
3 169 182 222
3 225 222 201
3 201 222 182
3 204 184 224
3 224 202 223
3 224 184 202
3 202 181 223
3 201 203 225
3 226 225 203
3 226 203 227
3 227 228 229
3 229 228 205
3 229 205 230
3 230 204 224
3 204 230 183
3 203 185 227
3 227 185 187
3 187 188 228
3 227 187 228
3 228 188 205
3 230 205 189
3 189 183 230
3 207 206 209
3 207 209 231
3 207 231 232
3 208 207 232
3 208 232 210
3 211 210 213
3 209 212 233
3 209 195 212
3 209 233 231
3 232 231 234
3 232 234 210
3 210 234 235
3 210 235 213
3 213 196 211
3 231 233 236
3 231 236 237
3 234 231 237
3 234 237 235
3 213 235 217
3 217 215 213
3 233 214 238
3 233 212 214
3 233 238 236
3 237 239 235
3 235 239 240
3 235 240 217
3 217 240 219
3 216 238 214
3 236 238 241
3 236 241 242
3 236 242 237
3 237 242 239
3 216 220 238
3 238 243 241
3 242 241 244
3 242 244 239
3 239 244 245
3 239 245 240
3 240 245 219
3 219 245 221
3 238 220 243
3 243 220 246
3 241 243 246
3 241 246 247
3 244 241 247
3 244 247 248
3 244 248 249
3 245 244 249
3 221 245 249
3 222 225 220
3 246 220 225
3 246 250 247
3 247 250 248
3 221 249 224
3 250 246 226
3 226 246 225
3 248 250 229
3 248 229 251
3 249 248 251
3 251 224 249
3 226 227 250
3 227 229 250
3 229 230 251
3 230 224 251
