OFF
910 1816 0
-0.016940 -0.052388 1.577161
-0.026227 -0.098928 1.560763
-0.022018 -0.076550 1.572383
0.004915 -0.070821 1.574697
-0.000449 -0.094730 1.565817
0.030960 -0.064528 1.574567
0.024997 -0.090434 1.566328
0.049909 -0.083021 1.564541
-0.038073 -0.033568 1.577544
-0.065134 -0.040485 1.573271
-0.044186 -0.059493 1.573961
-0.011133 -0.027567 1.578416
0.010280 -0.045088 1.577852
0.035952 -0.036871 1.577485
0.055820 -0.055587 1.572657
0.060579 -0.027959 1.575553
0.080780 -0.046235 1.566737
-0.053173 -0.012234 1.577211
-0.077054 -0.013565 1.572821
-0.090119 -0.030495 1.565582
-0.028599 -0.005833 1.578424
-0.004058 -0.002093 1.578532
0.015771 -0.018215 1.578482
0.038989 -0.008178 1.578158
0.063961 -0.000989 1.576020
0.085573 -0.019996 1.569278
-0.064811 0.012643 1.575675
-0.089452 0.007209 1.568425
-0.039936 0.016667 1.578011
-0.012420 0.021346 1.578477
0.016429 0.011873 1.578507
0.040348 0.018950 1.577945
0.065625 0.024971 1.574865
0.088849 0.006291 1.568739
-0.060857 0.038984 1.574406
-0.085011 0.032687 1.567774
-0.035732 0.042399 1.577122
-0.010574 0.045399 1.577830
0.014470 0.038440 1.578110
0.041297 0.044410 1.576508
0.066554 0.050325 1.571079
0.089848 0.031307 1.565577
-0.079658 0.059059 1.563050
-0.029339 0.068264 1.573912
-0.055234 0.064795 1.570425
-0.002161 0.066892 1.575515
0.023293 0.065369 1.575036
0.049391 0.071037 1.569863
0.088424 0.055160 1.559283
0.055967 0.095487 1.553293
-0.047033 0.088716 1.562185
-0.019895 0.091089 1.566650
0.006232 0.089098 1.568626
0.032928 0.090503 1.564886
-0.041700 -0.109774 1.545215
-0.060456 -0.111705 1.529007
-0.042957 -0.124864 1.517037
-0.010639 -0.113987 1.549009
-0.023894 -0.123785 1.530934
0.015388 -0.112176 1.550494
0.002871 -0.126951 1.529073
0.040986 -0.106273 1.549703
0.029780 -0.123061 1.529838
0.056717 -0.114470 1.527443
-0.067708 -0.068670 1.564806
-0.086440 -0.078988 1.545669
-0.065638 -0.093877 1.548929
-0.047317 -0.085594 1.563950
0.073068 -0.072189 1.560479
0.065115 -0.097111 1.545900
0.085606 -0.084519 1.541051
-0.107766 -0.037039 1.549644
-0.121884 -0.039573 1.526579
-0.105828 -0.060451 1.538538
-0.087914 -0.055175 1.559627
0.103714 -0.036318 1.554107
0.096132 -0.061592 1.549384
0.113704 -0.052896 1.532239
-0.105547 -0.008951 1.557839
-0.120876 -0.017363 1.538140
0.107594 -0.009933 1.555907
0.120880 -0.026027 1.535498
-0.107291 0.020072 1.554845
-0.122172 0.006660 1.537744
0.109917 0.017490 1.552636
0.123119 0.000555 1.536431
-0.101339 0.046904 1.552241
-0.119540 0.033189 1.534756
0.107972 0.043736 1.546467
0.123093 0.029424 1.529944
-0.111203 0.058705 1.531574
-0.071644 0.083702 1.553814
-0.093305 0.073646 1.543189
0.072506 0.076095 1.558542
0.095480 0.071686 1.542415
0.112940 0.059902 1.527246
-0.083431 0.095923 1.528766
-0.036115 0.108318 1.549372
-0.061168 0.104112 1.540347
-0.008613 0.110775 1.552839
0.015695 0.108199 1.554668
0.036840 0.112375 1.544059
0.059320 0.111448 1.530571
0.079385 0.092983 1.537898
-0.047027 0.120038 1.524836
-0.020560 0.122930 1.533697
0.010899 0.123906 1.534166
0.036138 0.125488 1.520841
-0.068866 -0.117374 1.504619
-0.045110 -0.131215 1.494359
-0.016144 -0.134308 1.507372
0.012909 -0.134622 1.507489
0.041129 -0.128816 1.507546
0.066942 -0.118781 1.503706
0.082232 -0.101236 1.521244
0.088868 -0.106232 1.495412
-0.100971 -0.081685 1.522593
-0.081663 -0.099339 1.525575
0.102590 -0.077849 1.525151
0.103245 -0.089712 1.502152
0.116579 -0.079591 1.483001
-0.130870 -0.037889 1.504064
-0.117829 -0.062331 1.513509
0.118251 -0.065896 1.507052
-0.132115 -0.011823 1.515389
0.132872 -0.014812 1.512338
0.127237 -0.040806 1.512563
0.137013 -0.028224 1.489289
-0.132090 0.014966 1.514563
0.132466 0.009895 1.514846
0.140041 0.001468 1.488538
-0.127346 0.041161 1.511927
0.125538 0.046833 1.511452
0.134854 0.027044 1.499282
-0.102104 0.083258 1.517846
-0.118761 0.063571 1.509224
0.100211 0.084291 1.519932
0.131067 0.050813 1.485995
-0.113312 0.080720 1.492758
-0.071079 0.112954 1.513045
-0.092558 0.101774 1.499167
0.080120 0.105902 1.514961
0.097900 0.096858 1.498590
0.116951 0.071319 1.501394
-0.075556 0.118815 1.484830
-0.053870 0.127134 1.497161
-0.005775 0.132033 1.516731
-0.030420 0.131725 1.507647
0.016418 0.134610 1.506261
0.058861 0.122415 1.505500
0.038236 0.133826 1.492504
0.079037 0.115489 1.489029
-0.008356 0.139132 1.491610
0.014754 0.141129 1.478952
-0.024128 -0.139115 1.482817
-0.043141 -0.137378 1.465493
-0.016981 -0.144045 1.457197
0.000156 -0.141096 1.483320
0.012701 -0.144045 1.460822
0.027273 -0.138008 1.485471
-0.093208 -0.100133 1.502062
-0.085808 -0.116670 1.459009
-0.084872 -0.112626 1.483697
-0.064625 -0.126672 1.477180
0.053671 -0.130540 1.483075
0.064745 -0.129557 1.458954
0.078884 -0.118343 1.477067
-0.110678 -0.082623 1.496996
-0.119491 -0.078020 1.474149
-0.104003 -0.098093 1.472526
0.101978 -0.100409 1.471561
0.118035 -0.084726 1.454987
-0.126989 -0.058945 1.488759
0.130142 -0.052519 1.487138
0.128874 -0.064116 1.465861
0.138823 -0.040717 1.460287
-0.138601 -0.017473 1.490180
-0.143711 -0.010751 1.464613
-0.137309 -0.037747 1.476005
0.142536 -0.016558 1.469018
-0.139552 0.005674 1.490321
-0.142598 0.018594 1.466847
0.144727 0.006073 1.458790
-0.136033 0.031544 1.490432
-0.128412 0.057284 1.485806
0.140272 0.026701 1.473626
0.143632 0.028222 1.444264
-0.123885 0.073359 1.465617
0.125149 0.069561 1.471118
0.136395 0.048978 1.458220
-0.107023 0.093913 1.476110
-0.092278 0.110057 1.468125
0.111781 0.086477 1.482100
0.113524 0.090523 1.455862
-0.075745 0.124075 1.454337
-0.033070 0.137653 1.480783
-0.056131 0.132052 1.469070
0.059154 0.129318 1.477174
0.096475 0.105700 1.471594
0.078584 0.121416 1.460633
0.097630 0.109045 1.444427
-0.034333 0.141373 1.453296
-0.010088 0.143668 1.465284
0.013163 0.145097 1.451307
0.036967 0.139314 1.464440
-0.040839 -0.140985 1.439616
-0.019880 -0.146373 1.426714
0.001686 -0.146800 1.439273
0.026405 -0.144920 1.432807
0.037593 -0.139580 1.461223
0.049524 -0.138151 1.439874
-0.104084 -0.102807 1.445155
-0.084516 -0.120625 1.433079
-0.064627 -0.130746 1.449813
0.072540 -0.128227 1.432561
0.088340 -0.115771 1.451951
-0.120366 -0.082274 1.450290
-0.119525 -0.086824 1.426476
0.106069 -0.101340 1.440613
0.122244 -0.082881 1.427112
-0.132123 -0.059031 1.459968
0.132590 -0.062668 1.441135
0.141747 -0.040662 1.430567
-0.146496 -0.013649 1.435199
-0.141294 -0.035626 1.451089
0.145353 -0.018175 1.443081
-0.145983 0.008940 1.445599
0.147380 0.005441 1.430319
-0.137216 0.043711 1.465363
-0.143118 0.033076 1.438281
0.145417 0.029135 1.416245
-0.134279 0.057638 1.446967
-0.124711 0.077951 1.436010
0.127805 0.071452 1.443785
0.138327 0.051189 1.430103
-0.111062 0.094364 1.450886
-0.095090 0.111850 1.439298
0.114914 0.092517 1.429606
-0.077147 0.126070 1.425348
-0.056269 0.135552 1.439792
0.058164 0.133859 1.448792
0.078888 0.124390 1.432950
0.098354 0.110912 1.417563
-0.034644 0.143713 1.424893
-0.011228 0.146482 1.438017
0.012091 0.147424 1.423396
0.035733 0.142637 1.436314
-0.041156 -0.142756 1.410625
-0.017492 -0.148000 1.398568
0.005171 -0.148358 1.413324
0.028964 -0.146016 1.403439
0.050747 -0.139386 1.415648
-0.102013 -0.107505 1.418290
-0.082673 -0.123670 1.406111
-0.062767 -0.133975 1.422873
0.073475 -0.129374 1.405504
0.092124 -0.115790 1.422563
-0.131001 -0.070161 1.409813
-0.116008 -0.093419 1.401049
0.109679 -0.100175 1.411290
0.124634 -0.081713 1.398501
-0.133909 -0.061180 1.433947
0.134887 -0.061947 1.413685
0.143523 -0.039772 1.401450
-0.147851 -0.016136 1.406867
-0.142964 -0.037243 1.426421
0.147303 -0.017571 1.415428
-0.147829 0.009473 1.419598
0.148772 0.006396 1.402095
-0.144656 0.034077 1.409587
0.146203 0.030358 1.388382
-0.136989 0.056105 1.421404
-0.126434 0.078190 1.408594
0.128814 0.073487 1.416346
0.139315 0.052547 1.402490
-0.111651 0.097089 1.422682
-0.095873 0.113528 1.410076
0.115330 0.094151 1.402893
0.129202 0.074823 1.389079
-0.077743 0.127227 1.396380
-0.057013 0.137175 1.411055
0.057869 0.136282 1.420939
0.098485 0.112165 1.390571
0.079089 0.126014 1.405631
-0.035150 0.144892 1.396537
-0.011743 0.148132 1.410029
0.011665 0.148672 1.395404
0.035203 0.144437 1.408423
0.057747 0.137560 1.393355
-0.061891 -0.135712 1.394424
-0.060121 -0.137128 1.366049
-0.039324 -0.144192 1.382437
-0.015689 -0.148844 1.370454
0.006890 -0.149219 1.386039
0.030863 -0.146380 1.374949
0.052700 -0.139691 1.389198
-0.099820 -0.111007 1.389745
-0.081041 -0.125688 1.377771
0.075127 -0.129302 1.378137
0.095175 -0.115576 1.366653
0.093755 -0.116003 1.394582
0.111323 -0.099712 1.382795
-0.126654 -0.079304 1.383577
-0.114193 -0.096723 1.371674
0.125974 -0.080826 1.370121
-0.141560 -0.045704 1.406196
-0.145798 -0.032805 1.383146
-0.137179 -0.059205 1.384661
0.136426 -0.060876 1.385459
0.144585 -0.038548 1.372696
-0.149204 -0.009692 1.379400
0.148443 -0.016403 1.387351
-0.148758 0.011159 1.393816
0.149421 0.007608 1.373956
-0.144941 0.036535 1.381627
0.146438 0.031515 1.360505
-0.137527 0.057747 1.394402
-0.127195 0.078563 1.380308
0.139613 0.053740 1.374926
-0.113051 0.097285 1.394783
-0.113812 0.097282 1.366491
0.115381 0.095194 1.375970
0.129175 0.075810 1.361763
-0.096955 0.113767 1.381529
-0.078460 0.127497 1.367884
-0.057442 0.137979 1.382407
0.079025 0.126953 1.378329
0.098384 0.112908 1.363470
-0.035473 0.145436 1.368220
-0.012133 0.148974 1.381978
0.011382 0.149276 1.367489
0.034977 0.145345 1.380637
0.057581 0.138216 1.365804
-0.058681 -0.137984 1.337680
-0.037627 -0.145047 1.354190
-0.014064 -0.149262 1.342379
0.008538 -0.149568 1.358379
0.032533 -0.146326 1.346935
0.054416 -0.139539 1.362128
-0.098184 -0.113120 1.360852
-0.079507 -0.127059 1.349279
0.076505 -0.128878 1.350613
0.096337 -0.114896 1.338757
0.112536 -0.098941 1.354539
-0.129358 -0.075576 1.357804
-0.115217 -0.095905 1.345230
0.126918 -0.079810 1.341823
-0.147038 -0.028888 1.354151
-0.140667 -0.051397 1.363159
0.137364 -0.059817 1.357156
0.145185 -0.037359 1.344166
-0.149778 -0.004317 1.355230
0.149039 -0.015126 1.359106
-0.148760 0.016969 1.366306
0.149648 0.008778 1.345785
-0.145081 0.037587 1.351178
0.146398 0.032494 1.332538
-0.138011 0.058069 1.365928
-0.127761 0.078341 1.351731
0.139559 0.054703 1.347293
-0.114267 0.097085 1.338164
0.115191 0.095902 1.348846
0.128951 0.076539 1.334348
-0.097577 0.113735 1.353120
-0.078949 0.127467 1.339553
-0.057927 0.138200 1.354056
0.078846 0.127456 1.350985
0.098138 0.113374 1.336236
-0.035817 0.145593 1.340070
-0.012399 0.149337 1.353935
0.011138 0.149522 1.339611
0.034749 0.145774 1.352903
0.057356 0.138538 1.338254
-0.057960 -0.138345 1.309721
-0.036249 -0.145530 1.326002
-0.012748 -0.149450 1.314397
0.010029 -0.149630 1.330619
0.033941 -0.146097 1.319145
0.055867 -0.139159 1.334765
-0.098309 -0.113238 1.333386
-0.079089 -0.127437 1.321483
0.077713 -0.128279 1.323006
0.097366 -0.114099 1.310883
0.113504 -0.098028 1.326394
-0.128178 -0.077851 1.329865
-0.114195 -0.097244 1.317401
0.127662 -0.078742 1.313550
-0.145909 -0.034680 1.327344
-0.139213 -0.055680 1.339731
0.138007 -0.058697 1.328815
0.145552 -0.036223 1.315683
-0.149714 -0.008659 1.331225
0.149314 -0.013963 1.330786
-0.149074 0.016185 1.336029
0.149671 0.009771 1.317531
-0.145571 0.036118 1.321165
0.146264 0.033260 1.304461
-0.138280 0.057991 1.336499
-0.127955 0.078245 1.323047
0.139360 0.055452 1.319562
-0.114538 0.096850 1.309716
0.114895 0.096408 1.321566
0.128669 0.077094 1.306858
-0.098004 0.113530 1.324790
-0.079324 0.127304 1.311338
-0.058305 0.138180 1.325860
0.078576 0.127750 1.323577
0.097820 0.113711 1.308896
-0.036121 0.145580 1.312027
-0.012680 0.149440 1.325969
0.010875 0.149600 1.311780
0.034506 0.145955 1.325189
0.057080 0.138710 1.310681
-0.057130 -0.138695 1.281718
-0.035373 -0.145769 1.298068
-0.011812 -0.149534 1.286596
0.011251 -0.149576 1.302889
0.035101 -0.145835 1.291530
0.057117 -0.138697 1.307314
-0.097410 -0.114065 1.305391
-0.078242 -0.127977 1.293472
0.078809 -0.127629 1.295392
0.098323 -0.113282 1.283039
0.114362 -0.097063 1.298295
-0.127424 -0.079137 1.301678
-0.113480 -0.098094 1.289349
0.128319 -0.077681 1.285251
-0.145348 -0.037065 1.298977
-0.138317 -0.058022 1.313249
0.138502 -0.057592 1.300412
0.145815 -0.035188 1.287132
-0.149340 -0.014019 1.308582
0.149439 -0.012946 1.302356
-0.149561 0.011431 1.307159
0.149628 0.010567 1.289141
-0.146015 0.034345 1.293172
0.146137 0.033823 1.276273
-0.138566 0.057433 1.307763
-0.128276 0.077752 1.294548
0.139148 0.056017 1.291764
-0.114901 0.096425 1.281383
0.114566 0.096823 1.294195
0.128398 0.077551 1.279366
-0.098323 0.113281 1.296493
-0.079638 0.127113 1.283215
-0.058622 0.138070 1.297778
0.078254 0.127970 1.296107
0.097464 0.114021 1.281485
-0.036391 0.145519 1.284066
-0.012949 0.149440 1.298060
0.010607 0.149625 1.283973
0.034228 0.146042 1.297483
0.056764 0.138845 1.283078
-0.056434 -0.138977 1.253727
-0.034553 -0.145966 1.270165
-0.011003 -0.149596 1.258878
0.012191 -0.149504 1.275292
0.036046 -0.145605 1.264117
0.058203 -0.138248 1.279923
-0.096727 -0.114647 1.277330
-0.077559 -0.128393 1.265446
0.079817 -0.127001 1.267836
0.099211 -0.112503 1.255240
0.115162 -0.096114 1.270219
-0.127035 -0.079764 1.273566
-0.113071 -0.098565 1.261325
0.128924 -0.076670 1.256893
-0.145682 -0.035735 1.272317
-0.137896 -0.059031 1.285618
0.138933 -0.056548 1.271899
0.146030 -0.034281 1.258425
-0.149566 -0.011404 1.285189
0.149512 -0.012097 1.273763
-0.149519 0.012012 1.277707
0.149584 0.011159 1.260571
-0.146022 0.034316 1.264274
0.146044 0.034206 1.248010
-0.139012 0.056353 1.279598
-0.128719 0.077016 1.266350
0.138974 0.056448 1.263972
-0.115340 0.095897 1.253230
0.114221 0.097230 1.266800
0.128132 0.077985 1.251990
-0.098698 0.112955 1.268347
-0.079967 0.126906 1.255251
-0.058895 0.137954 1.269794
0.077889 0.128193 1.268583
0.097060 0.114364 1.254028
-0.036612 0.145462 1.256173
-0.013195 0.149419 1.270191
0.010351 0.149642 1.256168
0.033932 0.146112 1.269769
0.056415 0.138986 1.255435
-0.055780 -0.139205 1.225743
-0.033852 -0.146122 1.242302
-0.010296 -0.149623 1.231244
0.012993 -0.149432 1.247813
0.036853 -0.145388 1.236908
0.059149 -0.137844 1.252711
-0.096262 -0.115034 1.249339
-0.076998 -0.128715 1.237471
0.080725 -0.126414 1.240372
0.099958 -0.111799 1.227484
0.115882 -0.095231 1.242169
-0.127071 -0.079697 1.245924
-0.112921 -0.098708 1.233555
0.129428 -0.075762 1.228456
-0.145629 -0.035924 1.245177
-0.138098 -0.058556 1.258652
0.139308 -0.055599 1.243219
0.146180 -0.033520 1.229493
-0.149529 -0.011874 1.259252
0.149559 -0.011426 1.244949
-0.149565 0.011367 1.248812
0.149532 0.011562 1.231785
-0.146138 0.033751 1.235575
0.145930 0.034467 1.219750
-0.139136 0.056040 1.251008
-0.128951 0.076603 1.238002
0.138813 0.056804 1.236314
-0.115634 0.095486 1.225039
0.113813 0.097691 1.239435
0.127798 0.078462 1.224874
-0.099103 0.112587 1.240404
-0.080269 0.126679 1.227491
-0.059136 0.137842 1.241944
0.077463 0.128440 1.240994
0.096544 0.114757 1.226521
-0.036761 0.145396 1.228359
-0.013381 0.149394 1.242340
0.010165 0.149626 1.228324
0.033628 0.146174 1.242022
0.056015 0.139116 1.227718
-0.054880 -0.139388 1.197701
-0.033135 -0.146215 1.214451
-0.009536 -0.149551 1.203661
0.013702 -0.149320 1.220456
0.037553 -0.145117 1.209912
0.059972 -0.137451 1.225760
-0.095889 -0.115285 1.221527
-0.076356 -0.128990 1.209571
0.081465 -0.125849 1.212960
0.100355 -0.111244 1.199701
0.116389 -0.094498 1.214165
-0.126849 -0.079944 1.218129
-0.112545 -0.098969 1.205785
0.129633 -0.075116 1.199949
-0.145458 -0.036377 1.217796
-0.137974 -0.058791 1.231313
0.139544 -0.054809 1.214322
0.146168 -0.032907 1.200322
-0.149455 -0.012520 1.232179
0.149532 -0.010896 1.215863
-0.149574 0.010559 1.220190
0.149374 0.011900 1.202736
-0.146200 0.033002 1.206976
0.145652 0.034730 1.191603
-0.139320 0.055464 1.222483
-0.129175 0.076045 1.209759
0.138568 0.057153 1.208957
-0.115843 0.094967 1.196887
0.113225 0.098251 1.212111
0.127249 0.079056 1.198199
-0.099381 0.112238 1.212610
-0.080413 0.126415 1.199914
-0.059311 0.137690 1.214250
0.076891 0.128696 1.213297
0.095695 0.115268 1.198922
-0.036847 0.145228 1.200640
-0.013465 0.149317 1.214500
0.010110 0.149486 1.200424
0.033406 0.146152 1.214183
0.055716 0.139077 1.199800
-0.053209 -0.139540 1.169461
-0.032050 -0.146196 1.186520
-0.008247 -0.149259 1.176024
0.014480 -0.149052 1.193165
0.038253 -0.144642 1.183071
0.060656 -0.136988 1.199136
-0.095211 -0.115600 1.193811
-0.075205 -0.129313 1.181693
0.081910 -0.125245 1.185410
0.099913 -0.111063 1.171591
0.116298 -0.094202 1.186236
-0.126411 -0.080220 1.190122
-0.111939 -0.099137 1.178109
0.129036 -0.075278 1.171501
-0.145102 -0.036891 1.190229
-0.137673 -0.059184 1.203724
0.139423 -0.054367 1.185231
0.145857 -0.032256 1.171152
-0.149275 -0.013236 1.204505
0.149315 -0.010267 1.186507
-0.149419 0.009734 1.191647
0.148910 0.012441 1.173281
-0.146046 0.032098 1.178355
0.144909 0.035489 1.163806
-0.139418 0.054698 1.194020
-0.129233 0.075343 1.181704
0.138026 0.057694 1.182104
-0.115777 0.094302 1.168702
0.112006 0.099235 1.184866
0.125716 0.080738 1.172411
-0.099504 0.111772 1.185090
-0.080272 0.126019 1.172560
-0.059302 0.137420 1.186664
0.076411 0.128669 1.185204
0.094874 0.115371 1.170679
-0.036819 0.144813 1.172909
-0.013576 0.149053 1.186704
0.009841 0.149089 1.172592
0.033405 0.145888 1.186249
0.055857 0.138557 1.171628
-0.029763 -0.146025 1.158424
-0.026721 -0.145293 1.130565
-0.005147 -0.148557 1.148191
0.015887 -0.148397 1.165721
0.039708 -0.143561 1.156160
0.061279 -0.136276 1.172880
-0.094157 -0.115818 1.166397
-0.073498 -0.129468 1.154025
-0.050626 -0.139420 1.141217
0.081615 -0.124641 1.157115
0.096669 -0.112593 1.142685
0.114848 -0.094968 1.158417
-0.125701 -0.080247 1.161758
-0.111067 -0.098950 1.150776
0.113190 -0.095121 1.132529
0.127929 -0.075292 1.143574
-0.137108 -0.059556 1.175920
-0.136244 -0.059413 1.147928
0.138647 -0.054460 1.156383
0.144682 -0.032968 1.142528
-0.148853 -0.013845 1.176444
-0.144446 -0.037193 1.162613
0.148683 -0.009341 1.156889
-0.148904 0.008861 1.162961
0.147754 0.014162 1.143377
-0.145446 0.030961 1.149609
0.141729 0.043397 1.139204
-0.139235 0.053728 1.165609
-0.128900 0.074486 1.153983
0.135892 0.061024 1.156569
-0.099235 0.111165 1.158010
-0.115007 0.093600 1.140324
-0.098386 0.110287 1.131595
0.110515 0.099895 1.156766
0.123362 0.082776 1.146206
-0.079610 0.125386 1.145389
-0.058992 0.136878 1.159092
0.076974 0.127534 1.156489
0.096200 0.112883 1.140965
-0.036501 0.143950 1.144990
-0.013729 0.148406 1.158789
0.008988 0.148214 1.144567
0.032831 0.145373 1.158622
0.055173 0.137838 1.144204
-0.020710 -0.144066 1.104374
-0.000056 -0.147122 1.121752
0.020826 -0.146690 1.137987
0.046591 -0.140053 1.128523
0.062247 -0.134913 1.146672
-0.092759 -0.115636 1.139561
-0.070856 -0.129359 1.126942
-0.047566 -0.138418 1.112628
0.074447 -0.127294 1.126526
0.093409 -0.113189 1.117132
-0.124960 -0.079067 1.132911
-0.111045 -0.096836 1.124688
0.110135 -0.095784 1.108376
0.125799 -0.075334 1.115660
-0.134585 -0.058957 1.119312
0.136777 -0.055186 1.126891
0.142242 -0.035001 1.113983
-0.147934 -0.014404 1.147907
-0.143240 -0.037202 1.134935
0.147184 -0.010842 1.128283
-0.147735 0.007685 1.133947
0.146087 0.007221 1.111565
-0.144226 0.028668 1.120777
0.144385 0.027841 1.120749
-0.138540 0.052417 1.137311
-0.127649 0.073911 1.127075
0.130965 0.068183 1.129326
0.137127 0.050935 1.111733
0.124376 0.075919 1.105970
-0.113132 0.092646 1.111149
-0.095564 0.110163 1.107154
0.113266 0.094362 1.125913
-0.077325 0.124877 1.118646
-0.057767 0.136025 1.131416
0.076022 0.126565 1.129183
0.073731 0.125167 1.101841
0.053755 0.136549 1.117057
0.094521 0.111917 1.114052
-0.036778 0.141978 1.116047
-0.014533 0.146998 1.130311
0.007551 0.146498 1.116389
0.031683 0.144338 1.131268
-0.034316 -0.138662 1.083779
0.006945 -0.144470 1.096504
0.027445 -0.143667 1.111557
0.035521 -0.138818 1.086670
0.055126 -0.134812 1.105315
-0.092348 -0.113773 1.114555
-0.073644 -0.125212 1.101793
-0.056020 -0.132164 1.088401
0.056577 -0.129832 1.076579
0.076043 -0.123231 1.097871
0.079976 -0.115888 1.072246
-0.123660 -0.076344 1.102371
-0.108875 -0.095980 1.100711
0.096695 -0.106418 1.090086
0.117631 -0.082525 1.089417
-0.134152 -0.052045 1.090856
0.132241 -0.058396 1.095893
0.138947 -0.035411 1.087329
-0.146165 -0.014335 1.118489
-0.141404 -0.036029 1.107996
0.144087 -0.013712 1.097324
-0.145378 0.005259 1.103685
0.142454 0.006518 1.082274
-0.136910 0.051041 1.109973
-0.140960 0.030208 1.092812
-0.131370 0.055255 1.081752
0.141167 0.029444 1.093148
-0.126097 0.072083 1.101634
0.119479 0.077084 1.079779
0.132777 0.054154 1.087380
-0.116751 0.081779 1.081909
-0.100764 0.101481 1.084830
0.108623 0.095853 1.098396
-0.078701 0.120454 1.090794
-0.057631 0.133416 1.102394
0.051033 0.134410 1.089981
0.067413 0.123949 1.073741
0.089556 0.111676 1.085742
-0.036267 0.138622 1.086655
-0.015299 0.144394 1.101253
0.006242 0.143314 1.087745
0.029828 0.142453 1.104325
-0.009772 -0.141387 1.077136
0.016766 -0.139746 1.071950
-0.092121 -0.109818 1.086999
-0.073842 -0.119975 1.072614
-0.050707 -0.128965 1.061957
-0.025305 -0.134938 1.056828
0.002936 -0.135993 1.052231
0.034764 -0.132509 1.055717
0.061038 -0.121531 1.052140
0.086163 -0.104875 1.051219
-0.123317 -0.068494 1.073566
-0.110051 -0.089207 1.076806
0.103424 -0.094770 1.069624
0.121668 -0.069795 1.069566
-0.133244 -0.041913 1.066807
0.120985 -0.057175 1.045082
0.131913 -0.045961 1.066852
-0.141820 -0.021302 1.087484
-0.136999 -0.016686 1.059647
0.129266 -0.031387 1.042750
0.138460 -0.017689 1.066373
-0.141782 0.004303 1.077824
-0.135319 0.008046 1.050637
0.137312 0.007804 1.057762
-0.136793 0.028983 1.067495
0.135862 0.031984 1.066328
-0.127799 0.050594 1.057436
0.113591 0.074429 1.051469
0.126736 0.056869 1.063382
-0.117506 0.071738 1.058309
-0.101551 0.093497 1.059750
0.103796 0.094802 1.071077
0.096705 0.093207 1.046601
0.082695 0.110091 1.058369
-0.082500 0.112638 1.066525
-0.059291 0.128269 1.074870
-0.062535 0.119944 1.049666
-0.040581 0.123505 1.034776
0.043469 0.131490 1.061596
0.061097 0.119415 1.046065
-0.037967 0.132695 1.059677
-0.013321 0.139988 1.071309
0.027725 0.139056 1.077521
-0.092144 -0.103052 1.060569
-0.069838 -0.114808 1.046820
-0.043337 -0.123821 1.037746
-0.015364 -0.128532 1.033450
0.015089 -0.128298 1.032830
0.041733 -0.121763 1.031760
0.048036 -0.106256 1.010750
0.067511 -0.108925 1.030492
-0.107602 -0.082519 1.050781
-0.101734 -0.074247 1.025885
-0.087386 -0.096590 1.035392
0.089710 -0.091600 1.030629
0.107204 -0.082055 1.048801
0.088662 -0.075965 1.010940
-0.127535 -0.034315 1.040094
-0.120477 -0.060442 1.048109
0.106609 -0.067590 1.026447
0.115787 -0.042610 1.021085
-0.128120 -0.011061 1.031488
0.119355 -0.017820 1.016602
0.131192 -0.006821 1.038223
-0.124945 0.014067 1.025465
0.129167 0.021897 1.037291
0.120325 0.008421 1.016511
-0.127774 0.032883 1.039730
0.125074 0.045007 1.042476
0.114716 0.036645 1.016211
-0.103191 0.080212 1.036503
-0.116412 0.055952 1.032781
-0.100876 0.063498 1.014357
0.112297 0.060758 1.029467
-0.083960 0.102632 1.041552
-0.084895 0.088543 1.019851
-0.063127 0.108493 1.025051
0.077191 0.102215 1.030355
0.096738 0.080845 1.026134
-0.039514 0.109771 1.010825
-0.015015 0.133006 1.045193
-0.018363 0.121379 1.020012
0.011594 0.137044 1.057765
0.007192 0.128705 1.032191
0.032555 0.127904 1.039851
0.026928 0.116598 1.015054
0.050800 0.114051 1.023771
-0.061283 -0.108623 1.023517
-0.033553 -0.115219 1.015565
-0.005278 -0.118385 1.013351
0.021984 -0.115032 1.011423
-0.077263 -0.090080 1.013599
-0.063492 -0.076061 0.993955
-0.050346 -0.097172 1.002506
-0.022900 -0.100537 0.996896
0.002668 -0.101364 0.995592
0.030377 -0.095499 0.994739
0.069772 -0.092193 1.009467
0.052521 -0.082122 0.992909
-0.114922 -0.050265 1.024879
-0.100508 -0.050700 1.005823
-0.086506 -0.068849 1.003646
0.073586 -0.066271 0.993922
0.097184 -0.052881 1.003729
0.078197 -0.040162 0.987799
-0.114932 -0.025163 1.012161
-0.093870 -0.032045 0.994030
0.101301 -0.028936 0.998730
0.102427 -0.004553 0.996442
-0.114531 0.002503 1.008149
-0.096850 -0.008602 0.992751
0.103734 0.018942 0.998813
-0.113368 0.034742 1.013450
-0.098477 0.018500 0.994729
0.097921 0.058930 1.007819
0.092600 0.038589 0.994813
0.069392 0.037449 0.984430
-0.079861 0.071860 1.000577
-0.094296 0.044916 0.997970
-0.071741 0.052595 0.988271
0.080555 0.081079 1.007827
0.074515 0.060840 0.992112
-0.062679 0.092207 1.004635
-0.053163 0.070856 0.988101
-0.039114 0.091264 0.994100
0.039000 0.099077 0.999711
0.030236 0.076360 0.985511
0.014050 0.098311 0.994112
0.062436 0.097153 1.009297
0.055622 0.077782 0.991767
-0.014501 0.101551 0.996483
0.002830 0.115445 1.009290
-0.036312 -0.078445 0.987169
-0.012742 -0.077071 0.984207
0.011643 -0.080471 0.985227
0.032260 -0.067827 0.983361
-0.073714 -0.049707 0.988250
-0.048086 -0.057464 0.983314
-0.021677 -0.050440 0.979887
0.005189 -0.055547 0.979977
0.028856 -0.041778 0.979521
0.053880 -0.053756 0.983631
-0.071254 -0.023117 0.983309
-0.047072 -0.034483 0.980264
-0.022173 -0.022239 0.978676
0.002446 -0.030339 0.978659
0.028206 -0.016509 0.978701
0.054069 -0.027729 0.980572
0.079291 -0.014135 0.984969
-0.074455 0.002274 0.983201
-0.047155 -0.008695 0.979318
-0.022039 0.005111 0.978571
0.002172 -0.003619 0.978532
0.026750 0.008360 0.978623
0.054245 -0.002036 0.979827
0.079726 0.012401 0.985017
-0.075473 0.026966 0.984840
-0.049300 0.015729 0.979600
-0.024718 0.030154 0.978875
0.002265 0.024834 0.978589
0.028013 0.033654 0.979078
0.051478 0.022732 0.980029
-0.051163 0.040650 0.981270
-0.032834 0.056287 0.981239
-0.007029 0.051317 0.979604
0.017103 0.054290 0.980099
0.046962 0.053161 0.982355
-0.021660 0.076967 0.984779
0.002445 0.078318 0.984279
3 0 10 2
3 3 2 4
3 3 0 2
3 3 4 6
3 5 3 6
3 5 6 7
3 8 9 10
3 8 10 0
3 2 10 67
3 11 8 0
3 0 3 12
3 11 0 12
3 3 5 12
3 12 5 13
3 5 7 14
3 13 5 14
3 13 14 15
3 15 14 16
3 9 18 19
3 17 18 9
3 8 17 9
3 20 17 8
3 20 11 21
3 20 8 11
3 11 12 22
3 21 11 22
3 12 13 22
3 22 13 23
3 13 15 23
3 23 15 24
3 15 16 25
3 24 15 25
3 18 26 27
3 18 17 26
3 17 20 28
3 26 17 28
3 20 21 29
3 28 20 29
3 21 22 30
3 29 21 30
3 30 23 31
3 30 22 23
3 23 24 31
3 31 24 32
3 24 25 33
3 32 24 33
3 26 34 35
3 27 26 35
3 26 28 34
3 34 28 36
3 28 29 36
3 36 29 37
3 29 30 38
3 37 29 38
3 38 31 39
3 38 30 31
3 39 32 40
3 39 31 32
3 40 32 41
3 41 32 33
3 34 42 35
3 34 36 44
3 44 36 43
3 42 34 44
3 36 37 43
3 43 37 45
3 37 38 45
3 45 38 46
3 46 39 47
3 46 38 39
3 93 47 40
3 48 93 40
3 47 39 40
3 40 41 48
3 43 50 44
3 43 45 51
3 50 43 51
3 45 46 52
3 51 45 52
3 52 46 53
3 53 46 47
3 47 49 53
3 54 55 56
3 57 54 58
3 58 54 56
3 57 58 60
3 59 57 60
3 59 60 62
3 61 59 62
3 61 62 63
3 64 65 66
3 64 66 67
3 54 66 55
3 67 66 54
3 1 67 54
3 57 4 1
3 57 1 54
3 4 57 59
3 4 2 1
3 4 59 6
3 6 59 61
3 6 61 7
3 69 61 63
3 7 61 69
3 68 7 69
3 68 69 70
3 71 72 73
3 71 73 74
3 74 73 65
3 74 65 64
3 9 74 64
3 10 9 64
3 10 64 67
3 2 67 1
3 7 68 14
3 76 68 70
3 76 75 16
3 16 14 68
3 76 16 68
3 75 76 77
3 72 71 79
3 79 71 78
3 19 78 71
3 19 18 78
3 19 71 74
3 19 74 9
3 25 16 75
3 80 25 75
3 75 77 81
3 80 75 81
3 78 82 83
3 79 78 83
3 27 82 78
3 18 27 78
3 33 25 80
3 84 33 80
3 80 81 85
3 84 80 85
3 82 86 87
3 83 82 87
3 35 86 82
3 27 35 82
3 41 33 84
3 88 41 84
3 84 85 89
3 88 84 89
3 86 90 87
3 35 42 86
3 92 42 91
3 90 86 92
3 92 86 42
3 42 44 91
3 49 47 93
3 48 41 88
3 95 94 88
3 94 48 88
3 94 93 48
3 88 89 95
3 91 96 92
3 98 50 97
3 98 91 50
3 91 44 50
3 96 91 98
3 97 51 99
3 97 50 51
3 99 52 100
3 99 51 52
3 100 53 101
3 100 52 53
3 101 49 102
3 103 102 49
3 101 53 49
3 103 49 93
3 93 94 103
3 97 104 98
3 97 99 105
3 104 97 105
3 99 100 106
3 105 99 106
3 100 101 106
3 106 101 107
3 101 102 107
3 56 108 109
3 56 55 108
3 56 109 110
3 58 56 110
3 58 110 60
3 60 110 111
3 62 111 112
3 62 60 111
3 62 112 63
3 114 63 113
3 63 112 113
3 114 113 115
3 66 65 117
3 117 65 116
3 55 117 108
3 55 66 117
3 63 114 69
3 70 114 118
3 119 114 115
3 70 69 114
3 118 114 119
3 123 119 120
3 72 121 122
3 73 72 122
3 73 122 116
3 65 73 116
3 70 118 76
3 123 118 119
3 123 77 118
3 77 76 118
3 72 124 121
3 72 79 124
3 81 77 126
3 126 77 123
3 125 81 126
3 125 126 127
3 83 128 124
3 79 83 124
3 129 85 125
3 125 85 81
3 125 127 130
3 129 125 130
3 87 131 128
3 83 87 128
3 89 85 129
3 133 89 129
3 132 89 133
3 129 130 133
3 87 90 131
3 135 90 134
3 131 90 135
3 90 92 134
3 143 95 132
3 95 89 132
3 137 143 132
3 136 94 95
3 134 138 135
3 140 96 139
3 134 92 96
3 134 96 140
3 138 134 140
3 96 98 139
3 102 103 141
3 103 94 136
3 141 103 136
3 141 136 142
3 142 136 143
3 136 95 143
3 139 144 140
3 139 104 145
3 139 98 104
3 139 145 144
3 147 105 146
3 147 104 105
3 145 104 147
3 146 105 106
3 148 146 106
3 106 107 148
3 150 107 149
3 148 107 150
3 107 102 149
3 149 102 141
3 149 141 151
3 141 142 151
3 146 152 147
3 152 148 153
3 152 146 148
3 148 150 153
3 154 155 156
3 157 156 158
3 157 154 156
3 157 158 159
3 160 169 162
3 108 160 162
3 163 108 162
3 109 108 163
3 154 109 155
3 155 109 163
3 110 109 154
3 111 110 157
3 157 110 154
3 111 157 159
3 112 111 159
3 112 159 164
3 166 164 165
3 113 112 164
3 115 113 166
3 166 113 164
3 167 168 169
3 116 167 160
3 160 167 169
3 117 116 160
3 162 169 161
3 117 160 108
3 115 166 170
3 119 115 170
3 120 170 171
3 120 119 170
3 167 172 168
3 167 122 172
3 122 121 172
3 122 167 116
3 123 120 173
3 174 120 171
3 173 120 174
3 173 174 175
3 176 177 178
3 124 176 121
3 121 176 178
3 121 178 172
3 123 173 126
3 127 173 175
3 179 127 175
3 127 126 173
3 177 180 181
3 177 176 180
3 124 180 176
3 124 128 180
3 130 127 179
3 182 130 179
3 180 183 181
3 131 184 183
3 180 128 183
3 128 131 183
3 137 133 185
3 186 185 182
3 182 185 130
3 185 133 130
3 135 138 184
3 131 135 184
3 137 132 133
3 189 137 185
3 188 137 189
3 185 186 189
3 187 138 190
3 187 184 138
3 190 140 191
3 190 138 140
3 142 143 192
3 143 137 188
3 192 143 188
3 192 188 193
3 191 144 194
3 191 140 144
3 196 145 195
3 196 144 145
3 194 144 196
3 145 147 195
3 197 149 151
3 150 149 197
3 199 151 198
3 197 151 199
3 151 142 198
3 198 142 192
3 198 192 193
3 198 193 200
3 195 201 196
3 201 195 202
3 195 147 152
3 195 152 202
3 202 153 203
3 202 152 153
3 204 150 197
3 204 153 150
3 203 153 204
3 197 199 240
3 156 205 206
3 156 155 205
3 158 156 207
3 207 156 206
3 158 207 208
3 209 158 208
3 159 158 209
3 209 208 210
3 161 211 212
3 213 161 212
3 163 161 213
3 163 162 161
3 155 213 205
3 155 163 213
3 159 209 164
3 164 209 165
3 210 165 209
3 214 165 210
3 165 214 215
3 166 165 215
3 211 216 217
3 169 168 216
3 169 216 211
3 161 169 211
3 170 215 218
3 170 166 215
3 170 218 171
3 171 218 219
3 168 220 216
3 168 172 220
3 174 171 221
3 221 171 219
3 175 221 222
3 175 174 221
3 177 223 224
3 178 177 224
3 178 224 220
3 172 178 220
3 225 175 222
3 225 179 175
3 177 226 223
3 177 181 226
3 182 179 225
3 227 182 225
3 181 183 228
3 229 181 228
3 226 181 229
3 183 184 228
3 186 182 227
3 230 186 227
3 228 231 229
3 228 187 231
3 231 187 232
3 184 187 228
3 233 189 234
3 233 188 189
3 234 186 230
3 234 189 186
3 187 190 235
3 232 187 235
3 235 191 236
3 235 190 191
3 193 188 233
3 237 193 233
3 191 194 236
3 236 194 238
3 238 194 239
3 239 194 196
3 199 198 200
3 240 199 241
3 241 200 242
3 241 199 200
3 200 193 237
3 242 200 237
3 239 201 243
3 239 196 201
3 201 202 244
3 243 201 244
3 244 203 245
3 244 202 203
3 203 204 246
3 245 203 246
3 204 197 240
3 246 204 240
3 206 247 248
3 206 205 247
3 206 248 249
3 207 206 249
3 207 249 208
3 208 249 250
3 208 250 251
3 210 208 251
3 211 252 212
3 212 252 253
3 212 253 254
3 213 212 254
3 205 254 247
3 205 213 254
3 214 251 255
3 214 210 251
3 214 255 256
3 215 214 256
3 217 257 258
3 217 216 261
3 217 258 252
3 211 217 252
3 218 256 259
3 218 215 256
3 218 259 219
3 219 259 260
3 217 261 257
3 216 220 261
3 219 260 262
3 221 219 262
3 222 262 263
3 222 221 262
3 223 264 265
3 224 223 265
3 224 265 261
3 220 224 261
3 225 222 266
3 266 222 263
3 226 267 223
3 223 267 264
3 227 225 266
3 268 227 266
3 229 269 267
3 226 229 267
3 230 227 268
3 270 230 268
3 229 231 271
3 269 229 271
3 271 232 272
3 271 231 232
3 233 234 273
3 274 230 270
3 274 234 230
3 273 234 274
3 232 235 275
3 272 232 275
3 275 236 276
3 275 235 236
3 277 237 273
3 273 237 233
3 277 273 278
3 273 274 278
3 236 238 276
3 276 238 279
3 238 239 280
3 279 238 280
3 240 241 281
3 241 242 283
3 283 242 282
3 281 241 283
3 242 237 277
3 282 242 277
3 280 243 284
3 280 239 243
3 243 244 285
3 284 243 285
3 244 245 285
3 285 245 286
3 245 246 287
3 286 245 287
3 246 240 281
3 287 246 281
3 287 281 288
3 281 283 288
3 289 290 291
3 247 289 291
3 292 248 291
3 248 247 291
3 248 292 293
3 249 248 293
3 249 293 250
3 250 293 294
3 250 294 295
3 251 250 295
3 252 296 253
3 253 296 297
3 253 297 289
3 289 297 290
3 254 253 289
3 254 289 247
3 251 295 255
3 255 295 298
3 256 255 300
3 300 298 299
3 300 255 298
3 300 299 301
3 257 302 258
3 258 302 303
3 258 303 296
3 252 258 296
3 256 300 259
3 259 300 301
3 304 260 301
3 260 259 301
3 305 306 307
3 261 305 257
3 307 257 305
3 302 257 307
3 260 304 308
3 262 260 308
3 263 308 309
3 263 262 308
3 305 264 306
3 305 265 264
3 306 264 310
3 265 305 261
3 266 263 311
3 311 263 309
3 267 312 264
3 264 312 310
3 268 266 311
3 313 268 311
3 269 314 312
3 267 269 312
3 270 268 313
3 315 270 313
3 269 271 316
3 314 269 316
3 271 272 316
3 316 272 317
3 318 270 315
3 318 274 270
3 317 272 319
3 319 272 275
3 317 319 320
3 275 276 319
3 277 278 321
3 321 278 322
3 278 274 318
3 322 278 318
3 319 323 320
3 276 279 323
3 323 279 324
3 319 276 323
3 279 280 325
3 324 279 325
3 326 282 327
3 326 283 282
3 282 277 321
3 327 282 321
3 325 284 328
3 325 280 284
3 284 285 329
3 328 284 329
3 285 286 329
3 329 286 330
3 286 287 331
3 330 286 331
3 287 288 331
3 331 288 332
3 288 283 326
3 332 288 326
3 290 333 334
3 291 290 334
3 292 334 335
3 292 291 334
3 292 335 336
3 293 292 336
3 293 336 294
3 294 336 337
3 294 337 338
3 295 294 338
3 296 339 297
3 297 339 340
3 297 340 290
3 290 340 333
3 295 338 298
3 298 338 341
3 298 341 299
3 299 341 342
3 299 342 343
3 301 299 343
3 302 344 303
3 303 344 345
3 303 345 339
3 296 303 339
3 346 304 343
3 343 304 301
3 306 347 348
3 307 306 348
3 307 348 344
3 302 307 344
3 304 346 349
3 308 304 349
3 308 349 309
3 309 349 350
3 310 351 347
3 306 310 347
3 311 309 352
3 352 309 350
3 312 353 310
3 310 353 351
3 313 311 352
3 354 313 352
3 314 355 353
3 312 314 353
3 315 313 354
3 356 315 354
3 314 316 357
3 355 314 357
3 316 317 357
3 357 317 358
3 318 315 359
3 359 315 356
3 320 360 358
3 317 320 358
3 321 322 361
3 361 322 362
3 322 318 359
3 362 322 359
3 320 323 363
3 360 320 363
3 363 324 364
3 363 323 324
3 324 325 365
3 364 324 365
3 326 327 366
3 366 327 367
3 327 321 361
3 367 327 361
3 325 328 365
3 365 328 368
3 328 329 369
3 368 328 369
3 329 330 369
3 369 330 370
3 330 331 371
3 370 330 371
3 331 332 371
3 371 332 372
3 332 326 366
3 372 332 366
3 333 373 374
3 334 333 374
3 334 374 335
3 335 374 375
3 335 375 376
3 336 335 376
3 336 376 337
3 337 376 377
3 337 377 378
3 338 337 378
3 339 379 340
3 340 379 380
3 340 380 333
3 333 380 373
3 338 378 341
3 341 378 381
3 341 381 342
3 342 381 382
3 342 382 383
3 343 342 383
3 344 384 345
3 345 384 385
3 345 385 379
3 339 345 379
3 346 343 383
3 386 346 383
3 347 387 388
3 348 347 388
3 348 388 344
3 344 388 384
3 346 386 389
3 349 346 389
3 349 389 350
3 350 389 390
3 351 391 347
3 347 391 387
3 352 350 392
3 392 350 390
3 353 393 351
3 351 393 391
3 354 352 392
3 394 354 392
3 355 395 393
3 353 355 393
3 356 354 394
3 396 356 394
3 355 357 397
3 395 355 397
3 357 358 397
3 397 358 398
3 359 356 399
3 399 356 396
3 360 400 398
3 358 360 398
3 361 362 401
3 401 362 402
3 362 359 399
3 402 362 399
3 360 363 403
3 400 360 403
3 363 364 403
3 403 364 404
3 364 365 405
3 404 364 405
3 366 367 406
3 406 367 407
3 367 361 401
3 407 367 401
3 365 368 405
3 405 368 408
3 368 369 409
3 408 368 409
3 369 370 409
3 409 370 410
3 370 371 411
3 410 370 411
3 371 372 411
3 411 372 412
3 372 366 406
3 412 372 406
3 373 413 414
3 374 373 414
3 374 414 375
3 375 414 415
3 375 415 416
3 376 375 416
3 376 416 377
3 377 416 417
3 377 417 418
3 378 377 418
3 379 419 380
3 380 419 420
3 380 420 373
3 373 420 413
3 378 418 381
3 381 418 421
3 381 421 382
3 382 421 422
3 382 422 423
3 383 382 423
3 384 424 385
3 385 424 425
3 385 425 419
3 379 385 419
3 386 383 423
3 426 386 423
3 387 427 428
3 388 387 428
3 388 428 384
3 384 428 424
3 386 426 429
3 389 386 429
3 389 429 390
3 390 429 430
3 391 431 387
3 387 431 427
3 392 390 432
3 432 390 430
3 393 433 391
3 391 433 431
3 394 392 432
3 434 394 432
3 395 435 433
3 393 395 433
3 396 394 434
3 436 396 434
3 395 397 437
3 435 395 437
3 397 398 437
3 437 398 438
3 399 396 439
3 439 396 436
3 400 440 438
3 398 400 438
3 401 402 441
3 441 402 442
3 402 399 439
3 442 402 439
3 400 403 443
3 440 400 443
3 403 404 443
3 443 404 444
3 404 405 445
3 444 404 445
3 406 407 446
3 446 407 447
3 407 401 441
3 447 407 441
3 405 408 445
3 445 408 448
3 408 409 449
3 448 408 449
3 409 410 449
3 449 410 450
3 410 411 451
3 450 410 451
3 411 412 451
3 451 412 452
3 412 406 446
3 452 412 446
3 413 453 454
3 414 413 454
3 414 454 415
3 415 454 455
3 415 455 456
3 416 415 456
3 416 456 417
3 417 456 457
3 417 457 458
3 418 417 458
3 419 459 420
3 420 459 460
3 420 460 413
3 413 460 453
3 418 458 421
3 421 458 461
3 421 461 422
3 422 461 462
3 422 462 463
3 423 422 463
3 424 464 425
3 425 464 465
3 425 465 459
3 419 425 459
3 426 423 463
3 466 426 463
3 427 467 468
3 428 427 468
3 428 468 424
3 424 468 464
3 426 466 469
3 429 426 469
3 429 469 430
3 430 469 470
3 431 471 427
3 427 471 467
3 432 430 472
3 472 430 470
3 433 473 471
3 431 433 471
3 434 432 472
3 474 434 472
3 435 475 473
3 433 435 473
3 436 434 474
3 476 436 474
3 435 437 477
3 475 435 477
3 437 438 477
3 477 438 478
3 439 436 479
3 479 436 476
3 440 480 478
3 438 440 478
3 441 442 481
3 481 442 482
3 442 439 479
3 482 442 479
3 440 443 483
3 480 440 483
3 443 444 483
3 483 444 484
3 444 445 485
3 484 444 485
3 446 447 486
3 486 447 487
3 447 441 481
3 487 447 481
3 445 448 485
3 485 448 488
3 448 449 489
3 488 448 489
3 449 450 489
3 489 450 490
3 450 451 491
3 490 450 491
3 451 452 491
3 491 452 492
3 452 446 486
3 492 452 486
3 453 493 494
3 454 453 494
3 454 494 455
3 455 494 495
3 455 495 496
3 456 455 496
3 456 496 457
3 457 496 497
3 457 497 498
3 458 457 498
3 459 499 460
3 460 499 500
3 460 500 453
3 453 500 493
3 458 498 461
3 461 498 501
3 461 501 462
3 462 501 502
3 462 502 503
3 463 462 503
3 464 504 465
3 465 504 505
3 465 505 499
3 459 465 499
3 466 463 503
3 506 466 503
3 467 507 508
3 468 467 508
3 468 508 464
3 464 508 504
3 466 506 509
3 469 466 509
3 469 509 470
3 470 509 510
3 471 511 467
3 467 511 507
3 472 470 512
3 512 470 510
3 473 513 511
3 471 473 511
3 474 472 512
3 514 474 512
3 475 515 513
3 473 475 513
3 476 474 514
3 516 476 514
3 475 477 517
3 515 475 517
3 477 478 517
3 517 478 518
3 479 476 519
3 519 476 516
3 480 520 518
3 478 480 518
3 481 482 521
3 521 482 522
3 482 479 519
3 522 482 519
3 480 483 523
3 520 480 523
3 483 484 523
3 523 484 524
3 484 485 525
3 524 484 525
3 486 487 526
3 526 487 527
3 487 481 521
3 527 487 521
3 485 488 525
3 525 488 528
3 488 489 529
3 528 488 529
3 489 490 529
3 529 490 530
3 490 491 531
3 530 490 531
3 491 492 531
3 531 492 532
3 492 486 526
3 532 492 526
3 493 533 534
3 494 493 534
3 494 534 495
3 495 534 535
3 495 535 536
3 496 495 536
3 496 536 497
3 497 536 537
3 497 537 538
3 498 497 538
3 499 539 500
3 500 539 540
3 500 540 493
3 493 540 533
3 498 538 501
3 501 538 541
3 501 541 502
3 502 541 542
3 502 542 543
3 503 502 543
3 504 544 505
3 505 544 545
3 505 545 539
3 499 505 539
3 506 503 543
3 546 506 543
3 507 547 548
3 508 507 548
3 508 548 504
3 504 548 544
3 506 546 549
3 509 506 549
3 509 549 510
3 510 549 550
3 511 551 507
3 507 551 547
3 512 510 552
3 552 510 550
3 513 553 551
3 511 513 551
3 514 512 552
3 554 514 552
3 515 555 553
3 513 515 553
3 516 514 554
3 556 516 554
3 515 517 557
3 555 515 557
3 517 518 557
3 557 518 558
3 519 516 559
3 559 516 556
3 520 560 558
3 518 520 558
3 521 522 561
3 561 522 562
3 522 519 559
3 562 522 559
3 520 523 563
3 560 520 563
3 523 524 563
3 563 524 564
3 524 525 565
3 564 524 565
3 526 527 566
3 566 527 567
3 527 521 561
3 567 527 561
3 525 528 565
3 565 528 568
3 528 529 569
3 568 528 569
3 529 530 569
3 569 530 570
3 530 531 571
3 570 530 571
3 531 532 571
3 571 532 572
3 532 526 566
3 572 532 566
3 533 573 574
3 534 533 574
3 534 574 535
3 535 574 575
3 535 575 576
3 536 535 576
3 536 576 537
3 537 576 577
3 537 577 578
3 538 537 578
3 539 579 540
3 540 579 580
3 533 580 573
3 533 540 580
3 538 578 541
3 541 578 581
3 542 581 582
3 542 541 581
3 542 582 583
3 543 542 583
3 544 584 545
3 545 584 585
3 545 585 579
3 539 545 579
3 546 543 583
3 586 546 583
3 547 587 588
3 548 547 588
3 548 588 544
3 544 588 584
3 546 586 589
3 549 546 589
3 549 589 550
3 550 589 590
3 547 591 587
3 547 551 591
3 552 550 592
3 592 550 590
3 553 593 591
3 551 553 591
3 554 552 592
3 594 554 592
3 555 595 593
3 553 555 593
3 556 554 594
3 596 556 594
3 555 557 597
3 595 555 597
3 557 558 597
3 597 558 598
3 559 556 599
3 599 556 596
3 558 560 598
3 598 560 600
3 561 562 601
3 601 562 602
3 562 559 599
3 602 562 599
3 560 563 603
3 600 560 603
3 563 564 603
3 603 564 604
3 564 565 605
3 604 564 605
3 566 567 606
3 606 567 607
3 567 561 601
3 607 567 601
3 565 568 605
3 605 568 608
3 568 569 609
3 608 568 609
3 569 570 609
3 609 570 610
3 570 571 611
3 610 570 611
3 571 572 611
3 611 572 612
3 572 566 606
3 612 572 606
3 573 613 574
3 575 613 615
3 615 613 614
3 575 574 613
3 575 615 616
3 576 575 616
3 576 616 577
3 577 616 617
3 577 617 618
3 578 577 618
3 579 619 580
3 580 619 620
3 580 620 573
3 613 573 621
3 573 620 621
3 613 621 614
3 578 618 581
3 581 618 622
3 581 622 582
3 624 582 623
3 582 622 623
3 582 624 583
3 584 625 585
3 585 625 626
3 585 626 619
3 579 585 619
3 624 623 627
3 586 583 624
3 627 628 624
3 628 586 624
3 587 629 588
3 584 629 625
3 625 629 630
3 584 588 629
3 586 628 631
3 589 586 631
3 589 631 590
3 590 631 632
3 591 633 587
3 629 587 634
3 587 633 634
3 629 634 630
3 635 590 632
3 635 592 590
3 593 636 633
3 591 593 633
3 594 592 635
3 637 594 635
3 595 638 636
3 593 595 636
3 596 594 637
3 639 596 637
3 595 597 640
3 638 595 640
3 597 598 640
3 640 598 641
3 599 596 642
3 642 596 639
3 600 643 644
3 641 600 644
3 598 600 641
3 643 645 644
3 646 602 647
3 646 601 602
3 602 599 642
3 647 602 642
3 600 603 643
3 645 643 648
3 643 603 604
3 643 604 648
3 604 605 649
3 648 604 649
3 606 607 650
3 650 607 651
3 607 601 646
3 651 607 646
3 605 608 649
3 649 608 652
3 608 609 653
3 652 608 653
3 609 610 653
3 653 610 654
3 610 611 655
3 654 610 655
3 655 612 656
3 655 611 612
3 612 606 650
3 656 612 650
3 614 657 658
3 615 614 658
3 615 658 659
3 616 615 659
3 617 659 660
3 617 616 659
3 617 660 661
3 618 617 661
3 620 662 663
3 620 619 662
3 621 663 664
3 621 620 663
3 614 664 657
3 614 621 664
3 622 661 665
3 622 618 661
3 622 665 623
3 623 665 666
3 625 667 626
3 626 667 668
3 626 668 662
3 619 626 662
3 627 666 669
3 627 623 666
3 627 669 670
3 628 627 670
3 630 671 667
3 625 630 667
3 628 670 672
3 631 628 672
3 631 672 632
3 632 672 673
3 634 674 675
3 634 633 674
3 630 675 671
3 630 634 675
3 676 632 673
3 676 635 632
3 636 677 674
3 633 636 674
3 637 635 676
3 678 637 676
3 638 679 677
3 636 638 677
3 639 637 680
3 680 637 678
3 638 640 681
3 679 638 681
3 681 641 682
3 681 640 641
3 683 684 685
3 642 639 683
3 684 683 639
3 684 639 680
3 641 644 682
3 682 644 686
3 686 645 687
3 686 644 645
3 688 647 683
3 688 646 647
3 688 683 685
3 647 642 683
3 645 648 689
3 687 645 689
3 648 649 690
3 689 648 690
3 691 692 693
3 650 651 691
3 692 691 694
3 691 651 694
3 651 646 688
3 694 651 688
3 649 652 690
3 690 652 695
3 652 653 696
3 695 652 696
3 653 654 696
3 696 654 697
3 654 655 698
3 697 654 698
3 693 656 691
3 698 655 656
3 698 656 693
3 656 650 691
3 657 699 741
3 658 657 700
3 659 658 701
3 701 658 700
3 703 701 702
3 703 660 701
3 660 659 701
3 660 703 665
3 663 704 705
3 663 662 704
3 664 705 706
3 664 663 705
3 664 706 699
3 657 664 699
3 703 702 707
3 665 703 708
3 708 703 707
3 665 661 660
3 712 708 709
3 666 665 708
3 668 710 711
3 668 667 710
3 668 711 704
3 662 668 704
3 666 708 712
3 669 666 712
3 669 712 713
3 670 669 713
3 671 714 710
3 667 671 710
3 670 713 715
3 672 670 715
3 672 715 673
3 673 715 716
3 675 717 718
3 675 674 717
3 671 718 714
3 671 675 718
3 719 673 716
3 719 676 673
3 674 677 717
3 717 677 720
3 678 676 719
3 721 678 719
3 720 679 723
3 723 679 722
3 677 679 720
3 722 724 723
3 680 678 725
3 725 678 721
3 679 681 722
3 722 682 726
3 722 681 682
3 722 726 724
3 685 684 728
3 727 685 728
3 684 680 725
3 728 684 725
3 726 686 729
3 726 682 686
3 686 687 730
3 729 686 730
3 731 685 727
3 731 688 685
3 687 689 732
3 730 687 732
3 689 690 733
3 732 689 733
3 734 692 735
3 734 693 692
3 692 694 736
3 735 692 736
3 694 688 731
3 736 694 731
3 690 695 733
3 733 695 737
3 695 696 738
3 737 695 738
3 696 697 738
3 738 697 739
3 697 698 740
3 739 697 740
3 740 693 734
3 740 698 693
3 657 741 700
3 700 741 742
3 702 700 742
3 701 700 702
3 705 743 744
3 705 704 743
3 706 744 745
3 706 705 744
3 706 745 699
3 741 699 746
3 699 745 746
3 742 741 747
3 747 741 746
3 748 742 747
3 748 702 742
3 707 702 748
3 707 748 749
3 709 707 749
3 709 749 750
3 709 708 707
3 710 751 752
3 711 710 752
3 711 752 743
3 704 711 743
3 709 750 753
3 712 709 753
3 712 753 713
3 713 753 754
3 714 755 751
3 710 714 751
3 713 754 715
3 757 754 756
3 715 754 757
3 715 757 716
3 717 758 718
3 714 758 755
3 755 758 759
3 714 718 758
3 757 756 760
3 761 716 757
3 760 761 757
3 761 719 716
3 717 720 758
3 758 720 762
3 758 762 759
3 759 762 763
3 764 721 761
3 761 721 719
3 720 723 762
3 723 724 765
3 762 723 765
3 762 765 763
3 766 721 764
3 766 725 721
3 724 767 765
3 724 726 729
3 727 728 769
3 768 727 769
3 728 725 766
3 769 728 766
3 767 724 770
3 770 724 729
3 770 729 771
3 771 729 730
3 772 773 774
3 731 727 772
3 773 772 768
3 772 727 768
3 730 732 775
3 771 730 775
3 732 733 776
3 775 732 776
3 775 776 777
3 776 781 777
3 779 735 780
3 779 734 735
3 774 780 735
3 772 774 736
3 774 735 736
3 736 731 772
3 733 737 776
3 737 738 782
3 778 777 781
3 776 737 781
3 738 739 782
3 781 737 782
3 739 740 783
3 823 739 783
3 783 734 779
3 783 740 734
3 743 784 744
3 744 784 785
3 745 744 785
3 745 785 786
3 746 786 787
3 746 745 786
3 746 787 747
3 747 787 788
3 748 788 789
3 748 747 788
3 748 789 749
3 791 789 790
3 749 789 791
3 749 791 750
3 751 792 752
3 752 792 784
3 794 792 793
3 743 752 784
3 784 792 794
3 784 794 785
3 791 790 838
3 750 791 795
3 796 750 795
3 753 750 796
3 800 795 797
3 753 796 754
3 751 755 799
3 792 751 799
3 799 755 798
3 792 799 793
3 796 795 800
3 756 754 796
3 800 756 796
3 801 756 800
3 759 802 798
3 755 759 798
3 756 801 760
3 804 760 803
3 760 801 803
3 760 804 761
3 763 805 802
3 759 763 802
3 804 803 807
3 806 804 807
3 764 761 804
3 806 764 804
3 763 808 805
3 763 765 808
3 809 806 810
3 810 806 807
3 766 764 806
3 809 766 806
3 767 770 812
3 808 767 812
3 765 767 808
3 811 813 812
3 814 768 809
3 810 814 809
3 809 768 769
3 769 766 809
3 812 770 811
3 811 771 815
3 811 770 771
3 811 815 816
3 813 811 816
3 815 817 816
3 818 774 773
3 819 818 773
3 819 768 814
3 819 773 768
3 771 775 815
3 817 777 778
3 817 815 777
3 815 775 777
3 817 778 820
3 822 778 821
3 820 778 822
3 821 823 824
3 822 821 824
3 824 823 825
3 826 824 825
3 825 780 827
3 826 825 827
3 825 779 780
3 827 780 818
3 818 780 774
3 778 781 821
3 781 782 821
3 821 782 823
3 823 783 779
3 823 782 739
3 823 779 825
3 785 828 786
3 787 786 829
3 829 786 828
3 787 829 830
3 788 787 830
3 789 788 831
3 831 788 830
3 789 831 790
3 793 832 794
3 834 832 833
3 834 828 832
3 785 794 828
3 828 794 832
3 829 834 835
3 829 828 834
3 830 835 836
3 830 829 835
3 831 836 837
3 831 830 836
3 790 831 837
3 839 790 837
3 838 790 839
3 838 795 791
3 795 838 797
3 798 840 799
3 793 840 841
3 793 799 840
3 793 841 842
3 832 793 842
3 832 842 833
3 838 839 843
3 797 838 843
3 844 797 843
3 800 797 844
3 844 843 845
3 800 844 801
3 798 802 846
3 840 798 846
3 841 846 847
3 841 840 846
3 844 845 848
3 848 801 844
3 848 803 801
3 849 803 848
3 805 850 802
3 802 850 846
3 846 850 851
3 847 846 851
3 807 803 849
3 852 807 849
3 805 853 850
3 805 808 853
3 850 853 854
3 851 850 854
3 862 856 857
3 856 810 852
3 852 810 807
3 855 810 856
3 808 812 853
3 859 813 858
3 859 853 813
3 853 812 813
3 854 853 859
3 858 860 859
3 855 856 862
3 861 855 862
3 814 810 855
3 861 819 855
3 813 816 858
3 816 817 863
3 864 858 863
3 858 816 863
3 860 858 864
3 863 865 864
3 866 867 868
3 866 869 870
3 867 866 870
3 818 819 861
3 869 818 861
3 869 861 870
3 870 861 862
3 819 814 855
3 817 820 863
3 820 822 871
3 865 820 871
3 863 820 865
3 822 824 872
3 871 822 872
3 872 826 868
3 868 826 866
3 872 824 826
3 866 827 869
3 866 826 827
3 827 818 869
3 833 873 834
3 835 873 874
3 835 834 873
3 835 874 836
3 836 874 875
3 836 875 837
3 837 875 876
3 837 876 839
3 841 877 842
3 833 877 878
3 833 842 877
3 833 878 873
3 873 878 879
3 874 873 879
3 874 879 880
3 875 874 880
3 875 880 876
3 876 880 881
3 839 876 882
3 882 876 881
3 843 839 882
3 843 882 845
3 847 883 877
3 841 847 877
3 877 883 884
3 878 877 884
3 878 884 879
3 879 884 885
3 879 885 886
3 880 879 886
3 880 886 881
3 881 886 887
3 881 887 888
3 882 881 888
3 845 882 888
3 889 845 888
3 848 845 889
3 848 889 849
3 851 890 883
3 847 851 883
3 883 890 891
3 884 883 891
3 884 891 885
3 885 891 892
3 885 892 893
3 886 885 893
3 886 893 887
3 887 893 894
3 887 894 895
3 888 887 895
3 888 895 889
3 889 895 896
3 896 849 889
3 896 852 849
3 854 897 890
3 851 854 890
3 890 897 898
3 891 890 898
3 891 898 892
3 892 898 899
3 892 899 900
3 893 892 900
3 894 900 901
3 894 893 900
3 894 901 902
3 895 894 902
3 857 856 896
3 895 902 896
3 902 857 896
3 856 852 896
3 854 859 897
3 897 860 903
3 897 859 860
3 897 903 898
3 899 903 904
3 899 898 903
3 899 904 905
3 900 899 905
3 900 905 906
3 901 900 906
3 901 906 907
3 902 901 907
3 907 857 902
3 907 862 857
3 860 864 903
3 864 865 908
3 904 864 908
3 903 864 904
3 904 908 905
3 905 908 909
3 905 909 906
3 906 909 867
3 909 868 867
3 867 870 907
3 906 867 907
3 870 862 907
3 865 871 908
3 871 872 868
3 908 871 909
3 871 868 909
