OFF
910 1816 0
0.298755 -0.052215 1.155143
0.282357 -0.098755 1.164430
0.293977 -0.076377 1.160221
0.296291 -0.070648 1.133288
0.287411 -0.094557 1.138652
0.296161 -0.064355 1.107243
0.287922 -0.090261 1.113206
0.286135 -0.082848 1.088294
0.299138 -0.033395 1.176276
0.294865 -0.040312 1.203337
0.295555 -0.059320 1.182389
0.300010 -0.027394 1.149336
0.299446 -0.044915 1.127923
0.299079 -0.036698 1.102251
0.294251 -0.055414 1.082383
0.297147 -0.027786 1.077624
0.288331 -0.046062 1.057423
0.298805 -0.012061 1.191376
0.294415 -0.013392 1.215257
0.287176 -0.030322 1.228322
0.300018 -0.005660 1.166802
0.300126 -0.001920 1.142261
0.300076 -0.018042 1.122432
0.299752 -0.008005 1.099214
0.297614 -0.000816 1.074242
0.290872 -0.019823 1.052630
0.297269 0.012816 1.203014
0.290019 0.007382 1.227655
0.299605 0.016840 1.178139
0.300071 0.021519 1.150623
0.300101 0.012046 1.121774
0.299539 0.019123 1.097855
0.296459 0.025144 1.072578
0.290333 0.006464 1.049354
0.296000 0.039157 1.199060
0.289368 0.032860 1.223214
0.298716 0.042572 1.173935
0.299424 0.045572 1.148777
0.299704 0.038613 1.123733
0.298102 0.044583 1.096906
0.292673 0.050498 1.071649
0.287171 0.031480 1.048355
0.284644 0.059232 1.217861
0.295506 0.068437 1.167542
0.292019 0.064968 1.193437
0.297109 0.067065 1.140364
0.296630 0.065542 1.114910
0.291457 0.071210 1.088812
0.280877 0.055333 1.049779
0.274887 0.095660 1.082236
0.283779 0.088889 1.185236
0.288244 0.091262 1.158098
0.290220 0.089271 1.131971
0.286480 0.090676 1.105275
0.266809 -0.109601 1.179903
0.250601 -0.111532 1.198659
0.238631 -0.124691 1.181160
0.270603 -0.113814 1.148842
0.252528 -0.123612 1.162097
0.272088 -0.112003 1.122815
0.250667 -0.126778 1.135332
0.271297 -0.106100 1.097217
0.251432 -0.122888 1.108423
0.249037 -0.114297 1.081486
0.286400 -0.068497 1.205911
0.267263 -0.078815 1.224643
0.270523 -0.093704 1.203841
0.285544 -0.085421 1.185520
0.282073 -0.072016 1.065135
0.267494 -0.096938 1.073088
0.262645 -0.084346 1.052597
0.271238 -0.036866 1.245969
0.248173 -0.039400 1.260087
0.260132 -0.060278 1.244031
0.281221 -0.055002 1.226117
0.275701 -0.036145 1.034489
0.270978 -0.061419 1.042071
0.253833 -0.052723 1.024499
0.279433 -0.008778 1.243750
0.259734 -0.017190 1.259079
0.277501 -0.009760 1.030609
0.257092 -0.025854 1.017323
0.276439 0.020245 1.245494
0.259338 0.006833 1.260375
0.274230 0.017663 1.028286
0.258025 0.000728 1.015084
0.273835 0.047077 1.239542
0.256350 0.033362 1.257743
0.268061 0.043909 1.030231
0.251538 0.029597 1.015110
0.253168 0.058878 1.249406
0.275408 0.083875 1.209847
0.264783 0.073819 1.231508
0.280136 0.076268 1.065697
0.264009 0.071859 1.042723
0.248840 0.060075 1.025263
0.250360 0.096096 1.221634
0.270966 0.108491 1.174318
0.261941 0.104285 1.199371
0.274433 0.110948 1.146816
0.276262 0.108372 1.122508
0.265653 0.112548 1.101363
0.252165 0.111621 1.078883
0.259492 0.093156 1.058818
0.246430 0.120211 1.185230
0.255291 0.123103 1.158763
0.255760 0.124079 1.127304
0.242435 0.125661 1.102065
0.226213 -0.117201 1.207069
0.215953 -0.131042 1.183313
0.228966 -0.134135 1.154347
0.229083 -0.134449 1.125294
0.229140 -0.128643 1.097074
0.225300 -0.118608 1.071261
0.242838 -0.101063 1.055971
0.217006 -0.106059 1.049335
0.244187 -0.081512 1.239174
0.247169 -0.099166 1.219866
0.246745 -0.077676 1.035613
0.223746 -0.089539 1.034958
0.204595 -0.079418 1.021624
0.225658 -0.037716 1.269073
0.235103 -0.062158 1.256032
0.228646 -0.065723 1.019952
0.236983 -0.011650 1.270318
0.233932 -0.014639 1.005331
0.234157 -0.040633 1.010966
0.210883 -0.028051 1.001190
0.236157 0.015139 1.270293
0.236440 0.010068 1.005737
0.210132 0.001641 0.998162
0.233521 0.041334 1.265549
0.233046 0.047006 1.012665
0.220876 0.027217 1.003349
0.239440 0.083431 1.240307
0.230818 0.063744 1.256964
0.241526 0.084464 1.037992
0.207589 0.050986 1.007136
0.214352 0.080893 1.251515
0.234639 0.113127 1.209282
0.220761 0.101947 1.230761
0.236555 0.106075 1.058083
0.220184 0.097031 1.040303
0.222988 0.071492 1.021252
0.206424 0.118988 1.213759
0.218755 0.127307 1.192073
0.238325 0.132206 1.143978
0.229241 0.131898 1.168623
0.227855 0.134783 1.121785
0.227094 0.122588 1.079342
0.214098 0.133999 1.099967
0.210623 0.115662 1.059166
0.213204 0.139305 1.146559
0.200546 0.141302 1.123449
0.204411 -0.138942 1.162331
0.187087 -0.137205 1.181344
0.178791 -0.143872 1.155184
0.204914 -0.140923 1.138047
0.182416 -0.143872 1.125502
0.207065 -0.137835 1.110930
0.223656 -0.099960 1.231411
0.180603 -0.116497 1.224011
0.205291 -0.112453 1.223075
0.198774 -0.126499 1.202828
0.204669 -0.130367 1.084532
0.180548 -0.129384 1.073458
0.198661 -0.118170 1.059319
0.218590 -0.082450 1.248881
0.195743 -0.077847 1.257694
0.194120 -0.097920 1.242206
0.193155 -0.100236 1.036225
0.176581 -0.084553 1.020168
0.210353 -0.058772 1.265192
0.208732 -0.052346 1.008061
0.187455 -0.063943 1.009329
0.181881 -0.040544 0.999380
0.211774 -0.017300 1.276804
0.186207 -0.010578 1.281914
0.197599 -0.037574 1.275512
0.190612 -0.016385 0.995667
0.211915 0.005847 1.277755
0.188441 0.018767 1.280801
0.180384 0.006246 0.993476
0.212026 0.031717 1.274236
0.207400 0.057457 1.266615
0.195220 0.026874 0.997931
0.165858 0.028395 0.994571
0.187211 0.073532 1.262088
0.192712 0.069734 1.013054
0.179814 0.049151 1.001808
0.197704 0.094086 1.245226
0.189719 0.110230 1.230481
0.203694 0.086650 1.026422
0.177456 0.090696 1.024679
0.175931 0.124248 1.213948
0.202377 0.137826 1.171273
0.190664 0.132225 1.194334
0.198768 0.129491 1.079049
0.193188 0.105873 1.041728
0.182227 0.121589 1.059619
0.166021 0.109218 1.040573
0.174890 0.141546 1.172536
0.186878 0.143841 1.148291
0.172901 0.145270 1.125040
0.186034 0.139487 1.101236
0.161210 -0.140812 1.179042
0.148308 -0.146200 1.158083
0.160867 -0.146627 1.136517
0.154401 -0.144747 1.111798
0.182817 -0.139407 1.100610
0.161468 -0.137978 1.088679
0.166749 -0.102634 1.242287
0.154673 -0.120452 1.222719
0.171407 -0.130573 1.202830
0.154155 -0.128054 1.065663
0.173545 -0.115598 1.049863
0.171884 -0.082101 1.258569
0.148070 -0.086651 1.257728
0.162207 -0.101167 1.032134
0.148706 -0.082708 1.015959
0.181562 -0.058858 1.270326
0.162729 -0.062495 1.005613
0.152161 -0.040489 0.996456
0.156793 -0.013476 1.284699
0.172683 -0.035453 1.279497
0.164675 -0.018002 0.992850
0.167193 0.009113 1.284186
0.151913 0.005614 0.990823
0.186957 0.043884 1.275419
0.159875 0.033249 1.281321
0.137839 0.029308 0.992786
0.168561 0.057811 1.272482
0.157604 0.078124 1.262914
0.165379 0.071625 1.010398
0.151697 0.051362 0.999876
0.172480 0.094537 1.249265
0.160892 0.112023 1.233293
0.151200 0.092690 1.023289
0.146942 0.126243 1.215350
0.161386 0.135725 1.194472
0.170386 0.134032 1.080039
0.154544 0.124563 1.059315
0.139157 0.111085 1.039849
0.146487 0.143886 1.172847
0.159611 0.146655 1.149431
0.144990 0.147597 1.126112
0.157908 0.142810 1.102470
0.132219 -0.142583 1.179359
0.120162 -0.147827 1.155695
0.134918 -0.148185 1.133032
0.125033 -0.145843 1.109239
0.137242 -0.139213 1.087456
0.139884 -0.107332 1.240216
0.127705 -0.123497 1.220876
0.144467 -0.133802 1.200970
0.127098 -0.129201 1.064728
0.144157 -0.115617 1.046079
0.131407 -0.069988 1.269204
0.122643 -0.093246 1.254211
0.132884 -0.100002 1.028524
0.120095 -0.081540 1.013569
0.155541 -0.061007 1.272112
0.135279 -0.061774 1.003316
0.123044 -0.039599 0.994680
0.128461 -0.015963 1.286054
0.148015 -0.037070 1.281167
0.137022 -0.017398 0.990900
0.141192 0.009646 1.286032
0.123689 0.006569 0.989431
0.131181 0.034250 1.282859
0.109976 0.030531 0.992000
0.142998 0.056278 1.275192
0.130188 0.078363 1.264637
0.137940 0.073660 1.009389
0.124084 0.052720 0.998888
0.144276 0.097262 1.249854
0.131670 0.113701 1.234076
0.124487 0.094324 1.022873
0.110673 0.074996 1.009001
0.117974 0.127400 1.215946
0.132649 0.137348 1.195216
0.142533 0.136455 1.080334
0.112165 0.112338 1.039718
0.127225 0.126187 1.059114
0.118131 0.145065 1.173353
0.131623 0.148305 1.149946
0.116998 0.148845 1.126538
0.130017 0.144610 1.103000
0.114949 0.137733 1.080456
0.116018 -0.135539 1.200094
0.087643 -0.136955 1.198324
0.104031 -0.144019 1.177527
0.092048 -0.148671 1.153892
0.107633 -0.149046 1.131313
0.096543 -0.146207 1.107340
0.110792 -0.139518 1.085503
0.111339 -0.110834 1.238023
0.099365 -0.125515 1.219244
0.099731 -0.129129 1.063076
0.088247 -0.115403 1.043028
0.116176 -0.115830 1.044448
0.104389 -0.099539 1.026880
0.105171 -0.079131 1.264857
0.093268 -0.096550 1.252396
0.091715 -0.080653 1.012229
0.127790 -0.045531 1.279763
0.104740 -0.032632 1.284001
0.106255 -0.059032 1.275382
0.107053 -0.060703 1.001777
0.094290 -0.038375 0.993618
0.100994 -0.009519 1.287407
0.108945 -0.016230 0.989760
0.115410 0.011332 1.286961
0.095550 0.007781 0.988782
0.103221 0.036708 1.283144
0.082099 0.031688 0.991765
0.115996 0.057920 1.275730
0.101902 0.078736 1.265398
0.096520 0.053913 0.998590
0.116377 0.097458 1.251254
0.088085 0.097455 1.252015
0.097564 0.095367 1.022822
0.083357 0.075983 1.009028
0.103123 0.113940 1.235158
0.089478 0.127670 1.216663
0.104001 0.138152 1.195645
0.099923 0.127126 1.059178
0.085064 0.113081 1.039819
0.089814 0.145609 1.173676
0.103572 0.149147 1.150336
0.089083 0.149449 1.126821
0.102231 0.145518 1.103226
0.087398 0.138389 1.080622
0.059274 -0.137811 1.196884
0.075784 -0.144874 1.175830
0.063973 -0.149089 1.152267
0.079973 -0.149395 1.129665
0.068529 -0.146153 1.105670
0.083722 -0.139366 1.083787
0.082446 -0.112947 1.236387
0.070873 -0.126886 1.217710
0.072207 -0.128705 1.061698
0.060351 -0.114723 1.041866
0.076133 -0.098768 1.025667
0.079398 -0.075403 1.267561
0.066824 -0.095732 1.253420
0.063417 -0.079637 1.011285
0.075745 -0.028715 1.285241
0.084753 -0.051224 1.278870
0.078750 -0.059644 1.000839
0.065760 -0.037186 0.993018
0.076824 -0.004144 1.287981
0.080700 -0.014953 0.989164
0.087900 0.017142 1.286963
0.067379 0.008951 0.988555
0.072772 0.037760 1.283284
0.054132 0.032667 0.991805
0.087522 0.058242 1.276214
0.073325 0.078514 1.265964
0.068887 0.054876 0.998644
0.059758 0.097258 1.252470
0.070440 0.096075 1.023012
0.055942 0.076712 1.009252
0.074714 0.113908 1.235780
0.061147 0.127640 1.217152
0.075650 0.138373 1.196130
0.072579 0.127629 1.059357
0.057830 0.113547 1.040065
0.061664 0.145766 1.174020
0.075529 0.149510 1.150602
0.061205 0.149695 1.127065
0.074497 0.145947 1.103454
0.059848 0.138711 1.080847
0.031315 -0.138172 1.196163
0.047596 -0.145357 1.174452
0.035991 -0.149277 1.150951
0.052213 -0.149457 1.128174
0.040739 -0.145924 1.104262
0.056359 -0.138986 1.082336
0.054980 -0.113065 1.236512
0.043077 -0.127264 1.217292
0.044600 -0.128106 1.060490
0.032477 -0.113926 1.040837
0.047988 -0.097855 1.024699
0.051459 -0.077678 1.266381
0.038995 -0.097071 1.252398
0.035144 -0.078569 1.010541
0.048938 -0.034507 1.284112
0.061325 -0.055507 1.277416
0.050409 -0.058524 1.000196
0.037277 -0.036050 0.992651
0.052819 -0.008486 1.287917
0.052380 -0.013790 0.988889
0.057623 0.016358 1.287277
0.039125 0.009944 0.988532
0.042759 0.036291 1.283774
0.026055 0.033433 0.991939
0.058093 0.058164 1.276483
0.044641 0.078418 1.266158
0.041156 0.055625 0.998843
0.031310 0.097023 1.252741
0.043160 0.096581 1.023308
0.028452 0.077267 1.009534
0.046384 0.113703 1.236207
0.032932 0.127477 1.217527
0.047454 0.138353 1.196508
0.045171 0.127923 1.059627
0.030490 0.113884 1.040383
0.033621 0.145753 1.174324
0.047563 0.149613 1.150883
0.033374 0.149773 1.127328
0.046783 0.146128 1.103697
0.032275 0.138883 1.081123
0.003312 -0.138522 1.195333
0.019662 -0.145596 1.173576
0.008190 -0.149361 1.150015
0.024483 -0.149403 1.126952
0.013124 -0.145662 1.103102
0.028908 -0.138524 1.081086
0.026985 -0.113892 1.235613
0.015066 -0.127804 1.216445
0.016986 -0.127456 1.059394
0.004633 -0.113109 1.039880
0.019889 -0.096890 1.023841
0.023272 -0.078964 1.265627
0.010943 -0.097921 1.251683
0.006845 -0.077508 1.009884
0.020571 -0.036892 1.283551
0.034843 -0.057849 1.276520
0.022006 -0.057419 0.999701
0.008726 -0.035015 0.992388
0.030176 -0.013846 1.287543
0.023950 -0.012773 0.988764
0.028753 0.011604 1.287764
0.010735 0.010740 0.988575
0.014766 0.034518 1.284218
-0.002133 0.033996 0.992066
0.029357 0.057606 1.276769
0.016142 0.077925 1.266479
0.013358 0.056190 0.999055
0.002977 0.096598 1.253104
0.015789 0.096996 1.023637
0.000960 0.077724 1.009805
0.018087 0.113454 1.236526
0.004809 0.127286 1.217841
0.019372 0.138243 1.196825
0.017701 0.128143 1.059949
0.003079 0.114194 1.040739
0.005660 0.145692 1.174594
0.019654 0.149613 1.151152
0.005567 0.149798 1.127596
0.019077 0.146215 1.103975
0.004672 0.139018 1.081439
-0.024679 -0.138804 1.194637
-0.008241 -0.145793 1.172756
-0.019528 -0.149423 1.149206
-0.003114 -0.149331 1.126012
-0.014289 -0.145432 1.102157
0.001517 -0.138075 1.080000
-0.001076 -0.114474 1.234930
-0.012960 -0.128220 1.215762
-0.010570 -0.126828 1.058386
-0.023166 -0.112330 1.038992
-0.008187 -0.095941 1.023041
-0.004840 -0.079591 1.265238
-0.017081 -0.098392 1.251274
-0.021513 -0.076497 1.009279
-0.006089 -0.035562 1.283885
0.007212 -0.058858 1.276099
-0.006507 -0.056375 0.999270
-0.019981 -0.034108 0.992173
0.006783 -0.011231 1.287769
-0.004643 -0.011924 0.988691
-0.000699 0.012185 1.287722
-0.017835 0.011332 0.988619
-0.014132 0.034489 1.284225
-0.030396 0.034379 0.992159
0.001192 0.056526 1.277215
-0.012056 0.077189 1.266922
-0.014434 0.056621 0.999229
-0.025176 0.096070 1.253543
-0.011606 0.097403 1.023982
-0.026416 0.078158 1.010071
-0.010059 0.113128 1.236901
-0.023155 0.127079 1.218170
-0.008612 0.138127 1.197098
-0.009823 0.128366 1.060314
-0.024378 0.114537 1.041143
-0.022233 0.145635 1.174815
-0.008215 0.149592 1.151398
-0.022238 0.149815 1.127852
-0.008637 0.146285 1.104271
-0.022971 0.139159 1.081788
-0.052663 -0.139032 1.193983
-0.036104 -0.145949 1.172055
-0.047162 -0.149450 1.148499
-0.030593 -0.149259 1.125210
-0.041498 -0.145215 1.101350
-0.025695 -0.137671 1.079054
-0.029067 -0.114861 1.234465
-0.040935 -0.128542 1.215201
-0.038034 -0.126241 1.057478
-0.050922 -0.111626 1.038245
-0.036237 -0.095058 1.022321
-0.032482 -0.079524 1.265274
-0.044851 -0.098535 1.251124
-0.049950 -0.075589 1.008775
-0.033229 -0.035751 1.283832
-0.019754 -0.058383 1.276301
-0.035187 -0.055426 0.998895
-0.048913 -0.033347 0.992023
-0.019154 -0.011701 1.287732
-0.033457 -0.011253 0.988644
-0.029594 0.011540 1.287768
-0.046621 0.011735 0.988671
-0.042831 0.033924 1.284341
-0.058656 0.034640 0.992273
-0.027398 0.056213 1.277339
-0.040404 0.076776 1.267154
-0.042092 0.056977 0.999390
-0.053367 0.095659 1.253837
-0.038971 0.097864 1.024390
-0.053532 0.078635 1.010405
-0.038002 0.112760 1.237306
-0.050915 0.126852 1.218472
-0.036462 0.138015 1.197339
-0.037412 0.128613 1.060740
-0.051885 0.114930 1.041659
-0.050047 0.145569 1.174964
-0.036066 0.149567 1.151584
-0.050082 0.149799 1.128038
-0.036384 0.146347 1.104575
-0.050688 0.139289 1.082188
-0.080705 -0.139215 1.193083
-0.063955 -0.146042 1.171338
-0.074745 -0.149378 1.147739
-0.057950 -0.149147 1.124501
-0.068494 -0.144944 1.100650
-0.052646 -0.137278 1.078231
-0.056879 -0.115112 1.234092
-0.068835 -0.128817 1.214559
-0.065446 -0.125676 1.056738
-0.078705 -0.111071 1.037848
-0.064241 -0.094325 1.021814
-0.060277 -0.079771 1.265052
-0.072621 -0.098796 1.250748
-0.078457 -0.074943 1.008570
-0.060610 -0.036204 1.283661
-0.047093 -0.058618 1.276177
-0.064084 -0.054636 0.998659
-0.078084 -0.032734 0.992035
-0.046227 -0.012347 1.287658
-0.062543 -0.010723 0.988671
-0.058216 0.010732 1.287777
-0.075670 0.012073 0.988829
-0.071430 0.033175 1.284403
-0.086803 0.034903 0.992551
-0.055923 0.055637 1.277523
-0.068647 0.076218 1.267378
-0.069449 0.057326 0.999635
-0.081519 0.095140 1.254046
-0.066295 0.098424 1.024978
-0.080207 0.079229 1.010954
-0.065796 0.112411 1.237584
-0.078492 0.126588 1.218616
-0.064156 0.137863 1.197514
-0.065109 0.128869 1.061312
-0.079484 0.115441 1.042508
-0.077766 0.145401 1.175050
-0.063906 0.149490 1.151668
-0.077982 0.149659 1.128093
-0.064223 0.146325 1.104797
-0.078606 0.139250 1.082487
-0.108945 -0.139367 1.191412
-0.091886 -0.146023 1.170253
-0.102382 -0.149086 1.146450
-0.085241 -0.148879 1.123723
-0.095335 -0.144469 1.099950
-0.079270 -0.136815 1.077547
-0.084595 -0.115427 1.233414
-0.096713 -0.129140 1.213408
-0.092996 -0.125072 1.056293
-0.106815 -0.110890 1.038290
-0.092170 -0.094029 1.021905
-0.088284 -0.080047 1.264614
-0.100297 -0.098964 1.250142
-0.106905 -0.075105 1.009167
-0.088177 -0.036718 1.283305
-0.074682 -0.059011 1.275876
-0.093175 -0.054194 0.998780
-0.107254 -0.032083 0.992346
-0.073901 -0.013063 1.287478
-0.091899 -0.010094 0.988888
-0.086759 0.009907 1.287622
-0.105125 0.012614 0.989293
-0.100051 0.032271 1.284249
-0.114600 0.035662 0.993294
-0.084386 0.054871 1.277621
-0.096702 0.075516 1.267436
-0.096302 0.057867 1.000177
-0.109704 0.094475 1.253980
-0.093540 0.099408 1.026197
-0.105995 0.080911 1.012487
-0.093316 0.111945 1.237707
-0.105846 0.126192 1.218475
-0.091742 0.137593 1.197505
-0.093202 0.128842 1.061792
-0.107727 0.115544 1.043329
-0.105497 0.144986 1.175022
-0.091702 0.149226 1.151779
-0.105814 0.149262 1.128362
-0.092157 0.146061 1.104798
-0.106778 0.138730 1.082346
-0.119982 -0.145852 1.167966
-0.147841 -0.145120 1.164924
-0.130215 -0.148384 1.143350
-0.112685 -0.148224 1.122316
-0.122246 -0.143388 1.098495
-0.105526 -0.136103 1.076924
-0.112009 -0.115645 1.232360
-0.124381 -0.129295 1.211701
-0.137189 -0.139247 1.188829
-0.121291 -0.124468 1.056588
-0.135721 -0.112420 1.041534
-0.119989 -0.094795 1.023355
-0.116648 -0.080074 1.263904
-0.127630 -0.098777 1.249270
-0.145877 -0.094948 1.025013
-0.134832 -0.075119 1.010274
-0.102486 -0.059383 1.275311
-0.130478 -0.059240 1.274447
-0.122023 -0.054287 0.999556
-0.135878 -0.032795 0.993521
-0.101962 -0.013672 1.287056
-0.115793 -0.037020 1.282649
-0.121517 -0.009168 0.989520
-0.115445 0.009034 1.287107
-0.135029 0.014335 0.990449
-0.128797 0.031134 1.283649
-0.139202 0.043570 0.996474
-0.112797 0.053901 1.277438
-0.124423 0.074659 1.267103
-0.121837 0.061197 1.002311
-0.120396 0.111338 1.237438
-0.138082 0.093773 1.253210
-0.146811 0.110460 1.236589
-0.121640 0.100068 1.027688
-0.132200 0.082949 1.014841
-0.133017 0.125559 1.217813
-0.119314 0.137051 1.197195
-0.121917 0.127707 1.061229
-0.137441 0.113056 1.042003
-0.133416 0.144123 1.174704
-0.119617 0.148579 1.151932
-0.133839 0.148387 1.129215
-0.119784 0.145546 1.105372
-0.134202 0.138011 1.083030
-0.174032 -0.143893 1.158913
-0.156654 -0.146949 1.138259
-0.140419 -0.146517 1.117377
-0.149883 -0.139880 1.091612
-0.131734 -0.134740 1.075956
-0.138845 -0.115463 1.230962
-0.151464 -0.129186 1.209059
-0.165778 -0.138245 1.185769
-0.151880 -0.127121 1.063756
-0.161274 -0.113016 1.044794
-0.145495 -0.078894 1.263163
-0.153718 -0.096663 1.249248
-0.170030 -0.095611 1.028068
-0.162746 -0.075161 1.012404
-0.159094 -0.058784 1.272788
-0.151515 -0.055013 1.001426
-0.164423 -0.034828 0.995961
-0.130499 -0.014231 1.286137
-0.143471 -0.037029 1.281443
-0.150123 -0.010669 0.991019
-0.144459 0.007858 1.285938
-0.166841 0.007394 0.992116
-0.157629 0.028841 1.282429
-0.157657 0.028014 0.993818
-0.141095 0.052590 1.276743
-0.151331 0.074084 1.265852
-0.149080 0.068356 1.007238
-0.166673 0.051108 1.001076
-0.172436 0.076092 1.013827
-0.167257 0.092819 1.251335
-0.171252 0.110336 1.233767
-0.152493 0.094535 1.024937
-0.159760 0.125050 1.215528
-0.146990 0.136198 1.195970
-0.149223 0.126738 1.062181
-0.176565 0.125340 1.064472
-0.161349 0.136722 1.084448
-0.164354 0.112090 1.043682
-0.162359 0.142151 1.174981
-0.148095 0.147171 1.152736
-0.162017 0.146671 1.130652
-0.147138 0.144511 1.106520
-0.194627 -0.138489 1.172519
-0.181902 -0.144297 1.131258
-0.166849 -0.143494 1.110758
-0.191736 -0.138645 1.102682
-0.173091 -0.134639 1.083077
-0.163851 -0.113600 1.230551
-0.176613 -0.125039 1.211847
-0.190005 -0.131991 1.194223
-0.201827 -0.129659 1.081626
-0.180535 -0.123058 1.062160
-0.206160 -0.115715 1.058227
-0.176035 -0.076171 1.261863
-0.177695 -0.095807 1.247078
-0.188320 -0.106245 1.041508
-0.188989 -0.082352 1.020572
-0.187550 -0.051872 1.272355
-0.182513 -0.058223 1.005962
-0.191077 -0.035238 0.999256
-0.159917 -0.014162 1.284368
-0.170410 -0.035856 1.279607
-0.181082 -0.013539 0.994116
-0.174721 0.005432 1.283581
-0.196132 0.006691 0.995749
-0.168433 0.051214 1.275113
-0.185594 0.030381 1.279163
-0.196654 0.055428 1.269573
-0.185258 0.029617 0.997036
-0.176772 0.072256 1.264300
-0.198627 0.077257 1.018724
-0.191026 0.054327 1.005426
-0.196497 0.081952 1.254954
-0.193576 0.101654 1.238967
-0.180010 0.096026 1.029580
-0.187612 0.120627 1.216904
-0.176012 0.133589 1.195834
-0.188425 0.134583 1.087170
-0.204665 0.124122 1.070790
-0.192664 0.111849 1.048647
-0.191751 0.138795 1.174470
-0.177153 0.144567 1.153502
-0.190661 0.143487 1.131961
-0.174081 0.142626 1.108375
-0.201270 -0.141214 1.147975
-0.206456 -0.139573 1.121437
-0.191407 -0.109645 1.230324
-0.205792 -0.119802 1.212045
-0.216449 -0.128792 1.188910
-0.221578 -0.134765 1.163508
-0.226175 -0.135820 1.135267
-0.222689 -0.132336 1.103439
-0.226266 -0.121358 1.077165
-0.227187 -0.104702 1.052040
-0.204840 -0.068321 1.261520
-0.201600 -0.089034 1.248254
-0.208782 -0.094597 1.034779
-0.208840 -0.069622 1.016535
-0.211599 -0.041740 1.271447
-0.233324 -0.057002 1.017218
-0.211554 -0.045788 1.006290
-0.190922 -0.021129 1.280023
-0.218759 -0.016513 1.275202
-0.235656 -0.031214 1.008937
-0.212033 -0.017516 0.999743
-0.200582 0.004476 1.279985
-0.227769 0.008219 1.273522
-0.220644 0.007977 1.000891
-0.210911 0.029156 1.274996
-0.212078 0.032157 1.002341
-0.220970 0.050767 1.266002
-0.226937 0.074602 1.024612
-0.215024 0.057042 1.011467
-0.220097 0.071911 1.255709
-0.218656 0.093670 1.239754
-0.207329 0.094975 1.034407
-0.231805 0.093380 1.041498
-0.220037 0.110264 1.055508
-0.211881 0.112811 1.220703
-0.203536 0.128442 1.197494
-0.228740 0.120117 1.200738
-0.243630 0.123678 1.178784
-0.216810 0.131663 1.094734
-0.232341 0.119588 1.077106
-0.218729 0.132868 1.176170
-0.207097 0.140161 1.151524
-0.200885 0.139229 1.110478
-0.217837 -0.102879 1.230347
-0.231586 -0.114635 1.208041
-0.240660 -0.123648 1.181540
-0.244956 -0.128359 1.153567
-0.245576 -0.128125 1.123114
-0.246646 -0.121590 1.096470
-0.267656 -0.106083 1.090167
-0.247914 -0.108752 1.070692
-0.227625 -0.082346 1.245805
-0.252521 -0.074074 1.239937
-0.243014 -0.096417 1.225589
-0.247777 -0.091427 1.048493
-0.229605 -0.081882 1.030999
-0.267466 -0.075792 1.049541
-0.238312 -0.034142 1.265738
-0.230297 -0.060269 1.258680
-0.251959 -0.067417 1.031594
-0.257321 -0.042437 1.022416
-0.246918 -0.010888 1.266323
-0.261804 -0.017647 1.018848
-0.240183 -0.006648 1.007011
-0.252941 0.014240 1.263148
-0.241115 0.022070 1.009036
-0.261895 0.008594 1.017878
-0.238676 0.033056 1.265977
-0.235930 0.045180 1.013129
-0.262195 0.036818 1.023487
-0.241903 0.080385 1.241394
-0.245625 0.056125 1.254615
-0.264049 0.063671 1.239079
-0.248939 0.060931 1.025906
-0.236854 0.102805 1.222163
-0.258555 0.088716 1.223098
-0.253355 0.108666 1.201330
-0.248051 0.102388 1.061012
-0.252272 0.081018 1.041465
-0.267581 0.109944 1.177717
-0.233213 0.133179 1.153218
-0.258394 0.121552 1.156566
-0.220641 0.137217 1.126609
-0.246215 0.128878 1.131011
-0.238555 0.128077 1.105648
-0.263352 0.116771 1.111275
-0.254635 0.114224 1.087403
-0.254889 -0.108450 1.199486
-0.262841 -0.115046 1.171756
-0.265055 -0.118212 1.143481
-0.266983 -0.114859 1.116219
-0.264807 -0.089907 1.215466
-0.284451 -0.075888 1.201695
-0.275900 -0.096999 1.188549
-0.281510 -0.100364 1.161103
-0.282814 -0.101191 1.135535
-0.283667 -0.095326 1.107826
-0.268939 -0.092020 1.068431
-0.285497 -0.081949 1.085682
-0.253527 -0.050092 1.253125
-0.272583 -0.050527 1.238711
-0.274760 -0.068676 1.224709
-0.284484 -0.066098 1.064617
-0.274677 -0.052708 1.041019
-0.290607 -0.039989 1.060006
-0.266245 -0.024990 1.253135
-0.284376 -0.031872 1.232073
-0.279676 -0.028763 1.036902
-0.281964 -0.004380 1.035776
-0.270257 0.002676 1.252734
-0.285655 -0.008429 1.235053
-0.279593 0.019115 1.034469
-0.264956 0.034915 1.251571
-0.283677 0.018673 1.236680
-0.270587 0.059103 1.040282
-0.283593 0.038762 1.045603
-0.293976 0.037622 1.068811
-0.277829 0.072033 1.218064
-0.280436 0.045089 1.232499
-0.290135 0.052768 1.209944
-0.270579 0.081252 1.057648
-0.286294 0.061013 1.063688
-0.273771 0.092380 1.200882
-0.290305 0.071029 1.191366
-0.284306 0.091437 1.177317
-0.278695 0.099250 1.099203
-0.292895 0.076533 1.107967
-0.284294 0.098484 1.124153
-0.269109 0.097326 1.075767
-0.286639 0.077955 1.082581
-0.281923 0.101724 1.152704
-0.269116 0.115618 1.135373
-0.291237 -0.078272 1.174515
-0.294199 -0.076898 1.150945
-0.293179 -0.080298 1.126560
-0.295045 -0.067654 1.105943
-0.290156 -0.049534 1.211917
-0.295092 -0.057291 1.186289
-0.298519 -0.050267 1.159880
-0.298429 -0.055374 1.133014
-0.298885 -0.041605 1.109347
-0.294775 -0.053583 1.084323
-0.295097 -0.022944 1.209457
-0.298142 -0.034310 1.185275
-0.299730 -0.022066 1.160376
-0.299747 -0.030166 1.135757
-0.299705 -0.016336 1.109997
-0.297834 -0.027556 1.084134
-0.293437 -0.013962 1.058912
-0.295205 0.002447 1.212658
-0.299088 -0.008522 1.185358
-0.299835 0.005284 1.160242
-0.299874 -0.003446 1.136031
-0.299783 0.008533 1.111453
-0.298579 -0.001863 1.083958
-0.293389 0.012574 1.058477
-0.293566 0.027139 1.213676
-0.298806 0.015902 1.187503
-0.299531 0.030327 1.162921
-0.299817 0.025007 1.135938
-0.299328 0.033827 1.110190
-0.298377 0.022905 1.086725
-0.297136 0.040823 1.189366
-0.297167 0.056460 1.171037
-0.298802 0.051490 1.145232
-0.298307 0.054463 1.121100
-0.296051 0.053334 1.091241
-0.293627 0.077140 1.159863
-0.294127 0.078491 1.135758
3 0 10 2
3 3 2 4
3 3 0 2
3 3 4 6
3 5 3 6
3 5 6 7
3 8 9 10
3 8 10 0
3 2 10 67
3 11 8 0
3 0 3 12
3 11 0 12
3 3 5 12
3 12 5 13
3 5 7 14
3 13 5 14
3 13 14 15
3 15 14 16
3 9 18 19
3 17 18 9
3 8 17 9
3 20 17 8
3 20 11 21
3 20 8 11
3 11 12 22
3 21 11 22
3 12 13 22
3 22 13 23
3 13 15 23
3 23 15 24
3 15 16 25
3 24 15 25
3 18 26 27
3 18 17 26
3 17 20 28
3 26 17 28
3 20 21 29
3 28 20 29
3 21 22 30
3 29 21 30
3 30 23 31
3 30 22 23
3 23 24 31
3 31 24 32
3 24 25 33
3 32 24 33
3 26 34 35
3 27 26 35
3 26 28 34
3 34 28 36
3 28 29 36
3 36 29 37
3 29 30 38
3 37 29 38
3 38 31 39
3 38 30 31
3 39 32 40
3 39 31 32
3 40 32 41
3 41 32 33
3 34 42 35
3 34 36 44
3 44 36 43
3 42 34 44
3 36 37 43
3 43 37 45
3 37 38 45
3 45 38 46
3 46 39 47
3 46 38 39
3 93 47 40
3 48 93 40
3 47 39 40
3 40 41 48
3 43 50 44
3 43 45 51
3 50 43 51
3 45 46 52
3 51 45 52
3 52 46 53
3 53 46 47
3 47 49 53
3 54 55 56
3 57 54 58
3 58 54 56
3 57 58 60
3 59 57 60
3 59 60 62
3 61 59 62
3 61 62 63
3 64 65 66
3 64 66 67
3 54 66 55
3 67 66 54
3 1 67 54
3 57 4 1
3 57 1 54
3 4 57 59
3 4 2 1
3 4 59 6
3 6 59 61
3 6 61 7
3 69 61 63
3 7 61 69
3 68 7 69
3 68 69 70
3 71 72 73
3 71 73 74
3 74 73 65
3 74 65 64
3 9 74 64
3 10 9 64
3 10 64 67
3 2 67 1
3 7 68 14
3 76 68 70
3 76 75 16
3 16 14 68
3 76 16 68
3 75 76 77
3 72 71 79
3 79 71 78
3 19 78 71
3 19 18 78
3 19 71 74
3 19 74 9
3 25 16 75
3 80 25 75
3 75 77 81
3 80 75 81
3 78 82 83
3 79 78 83
3 27 82 78
3 18 27 78
3 33 25 80
3 84 33 80
3 80 81 85
3 84 80 85
3 82 86 87
3 83 82 87
3 35 86 82
3 27 35 82
3 41 33 84
3 88 41 84
3 84 85 89
3 88 84 89
3 86 90 87
3 35 42 86
3 92 42 91
3 90 86 92
3 92 86 42
3 42 44 91
3 49 47 93
3 48 41 88
3 95 94 88
3 94 48 88
3 94 93 48
3 88 89 95
3 91 96 92
3 98 50 97
3 98 91 50
3 91 44 50
3 96 91 98
3 97 51 99
3 97 50 51
3 99 52 100
3 99 51 52
3 100 53 101
3 100 52 53
3 101 49 102
3 103 102 49
3 101 53 49
3 103 49 93
3 93 94 103
3 97 104 98
3 97 99 105
3 104 97 105
3 99 100 106
3 105 99 106
3 100 101 106
3 106 101 107
3 101 102 107
3 56 108 109
3 56 55 108
3 56 109 110
3 58 56 110
3 58 110 60
3 60 110 111
3 62 111 112
3 62 60 111
3 62 112 63
3 114 63 113
3 63 112 113
3 114 113 115
3 66 65 117
3 117 65 116
3 55 117 108
3 55 66 117
3 63 114 69
3 70 114 118
3 119 114 115
3 70 69 114
3 118 114 119
3 123 119 120
3 72 121 122
3 73 72 122
3 73 122 116
3 65 73 116
3 70 118 76
3 123 118 119
3 123 77 118
3 77 76 118
3 72 124 121
3 72 79 124
3 81 77 126
3 126 77 123
3 125 81 126
3 125 126 127
3 83 128 124
3 79 83 124
3 129 85 125
3 125 85 81
3 125 127 130
3 129 125 130
3 87 131 128
3 83 87 128
3 89 85 129
3 133 89 129
3 132 89 133
3 129 130 133
3 87 90 131
3 135 90 134
3 131 90 135
3 90 92 134
3 143 95 132
3 95 89 132
3 137 143 132
3 136 94 95
3 134 138 135
3 140 96 139
3 134 92 96
3 134 96 140
3 138 134 140
3 96 98 139
3 102 103 141
3 103 94 136
3 141 103 136
3 141 136 142
3 142 136 143
3 136 95 143
3 139 144 140
3 139 104 145
3 139 98 104
3 139 145 144
3 147 105 146
3 147 104 105
3 145 104 147
3 146 105 106
3 148 146 106
3 106 107 148
3 150 107 149
3 148 107 150
3 107 102 149
3 149 102 141
3 149 141 151
3 141 142 151
3 146 152 147
3 152 148 153
3 152 146 148
3 148 150 153
3 154 155 156
3 157 156 158
3 157 154 156
3 157 158 159
3 160 169 162
3 108 160 162
3 163 108 162
3 109 108 163
3 154 109 155
3 155 109 163
3 110 109 154
3 111 110 157
3 157 110 154
3 111 157 159
3 112 111 159
3 112 159 164
3 166 164 165
3 113 112 164
3 115 113 166
3 166 113 164
3 167 168 169
3 116 167 160
3 160 167 169
3 117 116 160
3 162 169 161
3 117 160 108
3 115 166 170
3 119 115 170
3 120 170 171
3 120 119 170
3 167 172 168
3 167 122 172
3 122 121 172
3 122 167 116
3 123 120 173
3 174 120 171
3 173 120 174
3 173 174 175
3 176 177 178
3 124 176 121
3 121 176 178
3 121 178 172
3 123 173 126
3 127 173 175
3 179 127 175
3 127 126 173
3 177 180 181
3 177 176 180
3 124 180 176
3 124 128 180
3 130 127 179
3 182 130 179
3 180 183 181
3 131 184 183
3 180 128 183
3 128 131 183
3 137 133 185
3 186 185 182
3 182 185 130
3 185 133 130
3 135 138 184
3 131 135 184
3 137 132 133
3 189 137 185
3 188 137 189
3 185 186 189
3 187 138 190
3 187 184 138
3 190 140 191
3 190 138 140
3 142 143 192
3 143 137 188
3 192 143 188
3 192 188 193
3 191 144 194
3 191 140 144
3 196 145 195
3 196 144 145
3 194 144 196
3 145 147 195
3 197 149 151
3 150 149 197
3 199 151 198
3 197 151 199
3 151 142 198
3 198 142 192
3 198 192 193
3 198 193 200
3 195 201 196
3 201 195 202
3 195 147 152
3 195 152 202
3 202 153 203
3 202 152 153
3 204 150 197
3 204 153 150
3 203 153 204
3 197 199 240
3 156 205 206
3 156 155 205
3 158 156 207
3 207 156 206
3 158 207 208
3 209 158 208
3 159 158 209
3 209 208 210
3 161 211 212
3 213 161 212
3 163 161 213
3 163 162 161
3 155 213 205
3 155 163 213
3 159 209 164
3 164 209 165
3 210 165 209
3 214 165 210
3 165 214 215
3 166 165 215
3 211 216 217
3 169 168 216
3 169 216 211
3 161 169 211
3 170 215 218
3 170 166 215
3 170 218 171
3 171 218 219
3 168 220 216
3 168 172 220
3 174 171 221
3 221 171 219
3 175 221 222
3 175 174 221
3 177 223 224
3 178 177 224
3 178 224 220
3 172 178 220
3 225 175 222
3 225 179 175
3 177 226 223
3 177 181 226
3 182 179 225
3 227 182 225
3 181 183 228
3 229 181 228
3 226 181 229
3 183 184 228
3 186 182 227
3 230 186 227
3 228 231 229
3 228 187 231
3 231 187 232
3 184 187 228
3 233 189 234
3 233 188 189
3 234 186 230
3 234 189 186
3 187 190 235
3 232 187 235
3 235 191 236
3 235 190 191
3 193 188 233
3 237 193 233
3 191 194 236
3 236 194 238
3 238 194 239
3 239 194 196
3 199 198 200
3 240 199 241
3 241 200 242
3 241 199 200
3 200 193 237
3 242 200 237
3 239 201 243
3 239 196 201
3 201 202 244
3 243 201 244
3 244 203 245
3 244 202 203
3 203 204 246
3 245 203 246
3 204 197 240
3 246 204 240
3 206 247 248
3 206 205 247
3 206 248 249
3 207 206 249
3 207 249 208
3 208 249 250
3 208 250 251
3 210 208 251
3 211 252 212
3 212 252 253
3 212 253 254
3 213 212 254
3 205 254 247
3 205 213 254
3 214 251 255
3 214 210 251
3 214 255 256
3 215 214 256
3 217 257 258
3 217 216 261
3 217 258 252
3 211 217 252
3 218 256 259
3 218 215 256
3 218 259 219
3 219 259 260
3 217 261 257
3 216 220 261
3 219 260 262
3 221 219 262
3 222 262 263
3 222 221 262
3 223 264 265
3 224 223 265
3 224 265 261
3 220 224 261
3 225 222 266
3 266 222 263
3 226 267 223
3 223 267 264
3 227 225 266
3 268 227 266
3 229 269 267
3 226 229 267
3 230 227 268
3 270 230 268
3 229 231 271
3 269 229 271
3 271 232 272
3 271 231 232
3 233 234 273
3 274 230 270
3 274 234 230
3 273 234 274
3 232 235 275
3 272 232 275
3 275 236 276
3 275 235 236
3 277 237 273
3 273 237 233
3 277 273 278
3 273 274 278
3 236 238 276
3 276 238 279
3 238 239 280
3 279 238 280
3 240 241 281
3 241 242 283
3 283 242 282
3 281 241 283
3 242 237 277
3 282 242 277
3 280 243 284
3 280 239 243
3 243 244 285
3 284 243 285
3 244 245 285
3 285 245 286
3 245 246 287
3 286 245 287
3 246 240 281
3 287 246 281
3 287 281 288
3 281 283 288
3 289 290 291
3 247 289 291
3 292 248 291
3 248 247 291
3 248 292 293
3 249 248 293
3 249 293 250
3 250 293 294
3 250 294 295
3 251 250 295
3 252 296 253
3 253 296 297
3 253 297 289
3 289 297 290
3 254 253 289
3 254 289 247
3 251 295 255
3 255 295 298
3 256 255 300
3 300 298 299
3 300 255 298
3 300 299 301
3 257 302 258
3 258 302 303
3 258 303 296
3 252 258 296
3 256 300 259
3 259 300 301
3 304 260 301
3 260 259 301
3 305 306 307
3 261 305 257
3 307 257 305
3 302 257 307
3 260 304 308
3 262 260 308
3 263 308 309
3 263 262 308
3 305 264 306
3 305 265 264
3 306 264 310
3 265 305 261
3 266 263 311
3 311 263 309
3 267 312 264
3 264 312 310
3 268 266 311
3 313 268 311
3 269 314 312
3 267 269 312
3 270 268 313
3 315 270 313
3 269 271 316
3 314 269 316
3 271 272 316
3 316 272 317
3 318 270 315
3 318 274 270
3 317 272 319
3 319 272 275
3 317 319 320
3 275 276 319
3 277 278 321
3 321 278 322
3 278 274 318
3 322 278 318
3 319 323 320
3 276 279 323
3 323 279 324
3 319 276 323
3 279 280 325
3 324 279 325
3 326 282 327
3 326 283 282
3 282 277 321
3 327 282 321
3 325 284 328
3 325 280 284
3 284 285 329
3 328 284 329
3 285 286 329
3 329 286 330
3 286 287 331
3 330 286 331
3 287 288 331
3 331 288 332
3 288 283 326
3 332 288 326
3 290 333 334
3 291 290 334
3 292 334 335
3 292 291 334
3 292 335 336
3 293 292 336
3 293 336 294
3 294 336 337
3 294 337 338
3 295 294 338
3 296 339 297
3 297 339 340
3 297 340 290
3 290 340 333
3 295 338 298
3 298 338 341
3 298 341 299
3 299 341 342
3 299 342 343
3 301 299 343
3 302 344 303
3 303 344 345
3 303 345 339
3 296 303 339
3 346 304 343
3 343 304 301
3 306 347 348
3 307 306 348
3 307 348 344
3 302 307 344
3 304 346 349
3 308 304 349
3 308 349 309
3 309 349 350
3 310 351 347
3 306 310 347
3 311 309 352
3 352 309 350
3 312 353 310
3 310 353 351
3 313 311 352
3 354 313 352
3 314 355 353
3 312 314 353
3 315 313 354
3 356 315 354
3 314 316 357
3 355 314 357
3 316 317 357
3 357 317 358
3 318 315 359
3 359 315 356
3 320 360 358
3 317 320 358
3 321 322 361
3 361 322 362
3 322 318 359
3 362 322 359
3 320 323 363
3 360 320 363
3 363 324 364
3 363 323 324
3 324 325 365
3 364 324 365
3 326 327 366
3 366 327 367
3 327 321 361
3 367 327 361
3 325 328 365
3 365 328 368
3 328 329 369
3 368 328 369
3 329 330 369
3 369 330 370
3 330 331 371
3 370 330 371
3 331 332 371
3 371 332 372
3 332 326 366
3 372 332 366
3 333 373 374
3 334 333 374
3 334 374 335
3 335 374 375
3 335 375 376
3 336 335 376
3 336 376 337
3 337 376 377
3 337 377 378
3 338 337 378
3 339 379 340
3 340 379 380
3 340 380 333
3 333 380 373
3 338 378 341
3 341 378 381
3 341 381 342
3 342 381 382
3 342 382 383
3 343 342 383
3 344 384 345
3 345 384 385
3 345 385 379
3 339 345 379
3 346 343 383
3 386 346 383
3 347 387 388
3 348 347 388
3 348 388 344
3 344 388 384
3 346 386 389
3 349 346 389
3 349 389 350
3 350 389 390
3 351 391 347
3 347 391 387
3 352 350 392
3 392 350 390
3 353 393 351
3 351 393 391
3 354 352 392
3 394 354 392
3 355 395 393
3 353 355 393
3 356 354 394
3 396 356 394
3 355 357 397
3 395 355 397
3 357 358 397
3 397 358 398
3 359 356 399
3 399 356 396
3 360 400 398
3 358 360 398
3 361 362 401
3 401 362 402
3 362 359 399
3 402 362 399
3 360 363 403
3 400 360 403
3 363 364 403
3 403 364 404
3 364 365 405
3 404 364 405
3 366 367 406
3 406 367 407
3 367 361 401
3 407 367 401
3 365 368 405
3 405 368 408
3 368 369 409
3 408 368 409
3 369 370 409
3 409 370 410
3 370 371 411
3 410 370 411
3 371 372 411
3 411 372 412
3 372 366 406
3 412 372 406
3 373 413 414
3 374 373 414
3 374 414 375
3 375 414 415
3 375 415 416
3 376 375 416
3 376 416 377
3 377 416 417
3 377 417 418
3 378 377 418
3 379 419 380
3 380 419 420
3 380 420 373
3 373 420 413
3 378 418 381
3 381 418 421
3 381 421 382
3 382 421 422
3 382 422 423
3 383 382 423
3 384 424 385
3 385 424 425
3 385 425 419
3 379 385 419
3 386 383 423
3 426 386 423
3 387 427 428
3 388 387 428
3 388 428 384
3 384 428 424
3 386 426 429
3 389 386 429
3 389 429 390
3 390 429 430
3 391 431 387
3 387 431 427
3 392 390 432
3 432 390 430
3 393 433 391
3 391 433 431
3 394 392 432
3 434 394 432
3 395 435 433
3 393 395 433
3 396 394 434
3 436 396 434
3 395 397 437
3 435 395 437
3 397 398 437
3 437 398 438
3 399 396 439
3 439 396 436
3 400 440 438
3 398 400 438
3 401 402 441
3 441 402 442
3 402 399 439
3 442 402 439
3 400 403 443
3 440 400 443
3 403 404 443
3 443 404 444
3 404 405 445
3 444 404 445
3 406 407 446
3 446 407 447
3 407 401 441
3 447 407 441
3 405 408 445
3 445 408 448
3 408 409 449
3 448 408 449
3 409 410 449
3 449 410 450
3 410 411 451
3 450 410 451
3 411 412 451
3 451 412 452
3 412 406 446
3 452 412 446
3 413 453 454
3 414 413 454
3 414 454 415
3 415 454 455
3 415 455 456
3 416 415 456
3 416 456 417
3 417 456 457
3 417 457 458
3 418 417 458
3 419 459 420
3 420 459 460
3 420 460 413
3 413 460 453
3 418 458 421
3 421 458 461
3 421 461 422
3 422 461 462
3 422 462 463
3 423 422 463
3 424 464 425
3 425 464 465
3 425 465 459
3 419 425 459
3 426 423 463
3 466 426 463
3 427 467 468
3 428 427 468
3 428 468 424
3 424 468 464
3 426 466 469
3 429 426 469
3 429 469 430
3 430 469 470
3 431 471 427
3 427 471 467
3 432 430 472
3 472 430 470
3 433 473 471
3 431 433 471
3 434 432 472
3 474 434 472
3 435 475 473
3 433 435 473
3 436 434 474
3 476 436 474
3 435 437 477
3 475 435 477
3 437 438 477
3 477 438 478
3 439 436 479
3 479 436 476
3 440 480 478
3 438 440 478
3 441 442 481
3 481 442 482
3 442 439 479
3 482 442 479
3 440 443 483
3 480 440 483
3 443 444 483
3 483 444 484
3 444 445 485
3 484 444 485
3 446 447 486
3 486 447 487
3 447 441 481
3 487 447 481
3 445 448 485
3 485 448 488
3 448 449 489
3 488 448 489
3 449 450 489
3 489 450 490
3 450 451 491
3 490 450 491
3 451 452 491
3 491 452 492
3 452 446 486
3 492 452 486
3 453 493 494
3 454 453 494
3 454 494 455
3 455 494 495
3 455 495 496
3 456 455 496
3 456 496 457
3 457 496 497
3 457 497 498
3 458 457 498
3 459 499 460
3 460 499 500
3 460 500 453
3 453 500 493
3 458 498 461
3 461 498 501
3 461 501 462
3 462 501 502
3 462 502 503
3 463 462 503
3 464 504 465
3 465 504 505
3 465 505 499
3 459 465 499
3 466 463 503
3 506 466 503
3 467 507 508
3 468 467 508
3 468 508 464
3 464 508 504
3 466 506 509
3 469 466 509
3 469 509 470
3 470 509 510
3 471 511 467
3 467 511 507
3 472 470 512
3 512 470 510
3 473 513 511
3 471 473 511
3 474 472 512
3 514 474 512
3 475 515 513
3 473 475 513
3 476 474 514
3 516 476 514
3 475 477 517
3 515 475 517
3 477 478 517
3 517 478 518
3 479 476 519
3 519 476 516
3 480 520 518
3 478 480 518
3 481 482 521
3 521 482 522
3 482 479 519
3 522 482 519
3 480 483 523
3 520 480 523
3 483 484 523
3 523 484 524
3 484 485 525
3 524 484 525
3 486 487 526
3 526 487 527
3 487 481 521
3 527 487 521
3 485 488 525
3 525 488 528
3 488 489 529
3 528 488 529
3 489 490 529
3 529 490 530
3 490 491 531
3 530 490 531
3 491 492 531
3 531 492 532
3 492 486 526
3 532 492 526
3 493 533 534
3 494 493 534
3 494 534 495
3 495 534 535
3 495 535 536
3 496 495 536
3 496 536 497
3 497 536 537
3 497 537 538
3 498 497 538
3 499 539 500
3 500 539 540
3 500 540 493
3 493 540 533
3 498 538 501
3 501 538 541
3 501 541 502
3 502 541 542
3 502 542 543
3 503 502 543
3 504 544 505
3 505 544 545
3 505 545 539
3 499 505 539
3 506 503 543
3 546 506 543
3 507 547 548
3 508 507 548
3 508 548 504
3 504 548 544
3 506 546 549
3 509 506 549
3 509 549 510
3 510 549 550
3 511 551 507
3 507 551 547
3 512 510 552
3 552 510 550
3 513 553 551
3 511 513 551
3 514 512 552
3 554 514 552
3 515 555 553
3 513 515 553
3 516 514 554
3 556 516 554
3 515 517 557
3 555 515 557
3 517 518 557
3 557 518 558
3 519 516 559
3 559 516 556
3 520 560 558
3 518 520 558
3 521 522 561
3 561 522 562
3 522 519 559
3 562 522 559
3 520 523 563
3 560 520 563
3 523 524 563
3 563 524 564
3 524 525 565
3 564 524 565
3 526 527 566
3 566 527 567
3 527 521 561
3 567 527 561
3 525 528 565
3 565 528 568
3 528 529 569
3 568 528 569
3 529 530 569
3 569 530 570
3 530 531 571
3 570 530 571
3 531 532 571
3 571 532 572
3 532 526 566
3 572 532 566
3 533 573 574
3 534 533 574
3 534 574 535
3 535 574 575
3 535 575 576
3 536 535 576
3 536 576 537
3 537 576 577
3 537 577 578
3 538 537 578
3 539 579 540
3 540 579 580
3 533 580 573
3 533 540 580
3 538 578 541
3 541 578 581
3 542 581 582
3 542 541 581
3 542 582 583
3 543 542 583
3 544 584 545
3 545 584 585
3 545 585 579
3 539 545 579
3 546 543 583
3 586 546 583
3 547 587 588
3 548 547 588
3 548 588 544
3 544 588 584
3 546 586 589
3 549 546 589
3 549 589 550
3 550 589 590
3 547 591 587
3 547 551 591
3 552 550 592
3 592 550 590
3 553 593 591
3 551 553 591
3 554 552 592
3 594 554 592
3 555 595 593
3 553 555 593
3 556 554 594
3 596 556 594
3 555 557 597
3 595 555 597
3 557 558 597
3 597 558 598
3 559 556 599
3 599 556 596
3 558 560 598
3 598 560 600
3 561 562 601
3 601 562 602
3 562 559 599
3 602 562 599
3 560 563 603
3 600 560 603
3 563 564 603
3 603 564 604
3 564 565 605
3 604 564 605
3 566 567 606
3 606 567 607
3 567 561 601
3 607 567 601
3 565 568 605
3 605 568 608
3 568 569 609
3 608 568 609
3 569 570 609
3 609 570 610
3 570 571 611
3 610 570 611
3 571 572 611
3 611 572 612
3 572 566 606
3 612 572 606
3 573 613 574
3 575 613 615
3 615 613 614
3 575 574 613
3 575 615 616
3 576 575 616
3 576 616 577
3 577 616 617
3 577 617 618
3 578 577 618
3 579 619 580
3 580 619 620
3 580 620 573
3 613 573 621
3 573 620 621
3 613 621 614
3 578 618 581
3 581 618 622
3 581 622 582
3 624 582 623
3 582 622 623
3 582 624 583
3 584 625 585
3 585 625 626
3 585 626 619
3 579 585 619
3 624 623 627
3 586 583 624
3 627 628 624
3 628 586 624
3 587 629 588
3 584 629 625
3 625 629 630
3 584 588 629
3 586 628 631
3 589 586 631
3 589 631 590
3 590 631 632
3 591 633 587
3 629 587 634
3 587 633 634
3 629 634 630
3 635 590 632
3 635 592 590
3 593 636 633
3 591 593 633
3 594 592 635
3 637 594 635
3 595 638 636
3 593 595 636
3 596 594 637
3 639 596 637
3 595 597 640
3 638 595 640
3 597 598 640
3 640 598 641
3 599 596 642
3 642 596 639
3 600 643 644
3 641 600 644
3 598 600 641
3 643 645 644
3 646 602 647
3 646 601 602
3 602 599 642
3 647 602 642
3 600 603 643
3 645 643 648
3 643 603 604
3 643 604 648
3 604 605 649
3 648 604 649
3 606 607 650
3 650 607 651
3 607 601 646
3 651 607 646
3 605 608 649
3 649 608 652
3 608 609 653
3 652 608 653
3 609 610 653
3 653 610 654
3 610 611 655
3 654 610 655
3 655 612 656
3 655 611 612
3 612 606 650
3 656 612 650
3 614 657 658
3 615 614 658
3 615 658 659
3 616 615 659
3 617 659 660
3 617 616 659
3 617 660 661
3 618 617 661
3 620 662 663
3 620 619 662
3 621 663 664
3 621 620 663
3 614 664 657
3 614 621 664
3 622 661 665
3 622 618 661
3 622 665 623
3 623 665 666
3 625 667 626
3 626 667 668
3 626 668 662
3 619 626 662
3 627 666 669
3 627 623 666
3 627 669 670
3 628 627 670
3 630 671 667
3 625 630 667
3 628 670 672
3 631 628 672
3 631 672 632
3 632 672 673
3 634 674 675
3 634 633 674
3 630 675 671
3 630 634 675
3 676 632 673
3 676 635 632
3 636 677 674
3 633 636 674
3 637 635 676
3 678 637 676
3 638 679 677
3 636 638 677
3 639 637 680
3 680 637 678
3 638 640 681
3 679 638 681
3 681 641 682
3 681 640 641
3 683 684 685
3 642 639 683
3 684 683 639
3 684 639 680
3 641 644 682
3 682 644 686
3 686 645 687
3 686 644 645
3 688 647 683
3 688 646 647
3 688 683 685
3 647 642 683
3 645 648 689
3 687 645 689
3 648 649 690
3 689 648 690
3 691 692 693
3 650 651 691
3 692 691 694
3 691 651 694
3 651 646 688
3 694 651 688
3 649 652 690
3 690 652 695
3 652 653 696
3 695 652 696
3 653 654 696
3 696 654 697
3 654 655 698
3 697 654 698
3 693 656 691
3 698 655 656
3 698 656 693
3 656 650 691
3 657 699 741
3 658 657 700
3 659 658 701
3 701 658 700
3 703 701 702
3 703 660 701
3 660 659 701
3 660 703 665
3 663 704 705
3 663 662 704
3 664 705 706
3 664 663 705
3 664 706 699
3 657 664 699
3 703 702 707
3 665 703 708
3 708 703 707
3 665 661 660
3 712 708 709
3 666 665 708
3 668 710 711
3 668 667 710
3 668 711 704
3 662 668 704
3 666 708 712
3 669 666 712
3 669 712 713
3 670 669 713
3 671 714 710
3 667 671 710
3 670 713 715
3 672 670 715
3 672 715 673
3 673 715 716
3 675 717 718
3 675 674 717
3 671 718 714
3 671 675 718
3 719 673 716
3 719 676 673
3 674 677 717
3 717 677 720
3 678 676 719
3 721 678 719
3 720 679 723
3 723 679 722
3 677 679 720
3 722 724 723
3 680 678 725
3 725 678 721
3 679 681 722
3 722 682 726
3 722 681 682
3 722 726 724
3 685 684 728
3 727 685 728
3 684 680 725
3 728 684 725
3 726 686 729
3 726 682 686
3 686 687 730
3 729 686 730
3 731 685 727
3 731 688 685
3 687 689 732
3 730 687 732
3 689 690 733
3 732 689 733
3 734 692 735
3 734 693 692
3 692 694 736
3 735 692 736
3 694 688 731
3 736 694 731
3 690 695 733
3 733 695 737
3 695 696 738
3 737 695 738
3 696 697 738
3 738 697 739
3 697 698 740
3 739 697 740
3 740 693 734
3 740 698 693
3 657 741 700
3 700 741 742
3 702 700 742
3 701 700 702
3 705 743 744
3 705 704 743
3 706 744 745
3 706 705 744
3 706 745 699
3 741 699 746
3 699 745 746
3 742 741 747
3 747 741 746
3 748 742 747
3 748 702 742
3 707 702 748
3 707 748 749
3 709 707 749
3 709 749 750
3 709 708 707
3 710 751 752
3 711 710 752
3 711 752 743
3 704 711 743
3 709 750 753
3 712 709 753
3 712 753 713
3 713 753 754
3 714 755 751
3 710 714 751
3 713 754 715
3 757 754 756
3 715 754 757
3 715 757 716
3 717 758 718
3 714 758 755
3 755 758 759
3 714 718 758
3 757 756 760
3 761 716 757
3 760 761 757
3 761 719 716
3 717 720 758
3 758 720 762
3 758 762 759
3 759 762 763
3 764 721 761
3 761 721 719
3 720 723 762
3 723 724 765
3 762 723 765
3 762 765 763
3 766 721 764
3 766 725 721
3 724 767 765
3 724 726 729
3 727 728 769
3 768 727 769
3 728 725 766
3 769 728 766
3 767 724 770
3 770 724 729
3 770 729 771
3 771 729 730
3 772 773 774
3 731 727 772
3 773 772 768
3 772 727 768
3 730 732 775
3 771 730 775
3 732 733 776
3 775 732 776
3 775 776 777
3 776 781 777
3 779 735 780
3 779 734 735
3 774 780 735
3 772 774 736
3 774 735 736
3 736 731 772
3 733 737 776
3 737 738 782
3 778 777 781
3 776 737 781
3 738 739 782
3 781 737 782
3 739 740 783
3 823 739 783
3 783 734 779
3 783 740 734
3 743 784 744
3 744 784 785
3 745 744 785
3 745 785 786
3 746 786 787
3 746 745 786
3 746 787 747
3 747 787 788
3 748 788 789
3 748 747 788
3 748 789 749
3 791 789 790
3 749 789 791
3 749 791 750
3 751 792 752
3 752 792 784
3 794 792 793
3 743 752 784
3 784 792 794
3 784 794 785
3 791 790 838
3 750 791 795
3 796 750 795
3 753 750 796
3 800 795 797
3 753 796 754
3 751 755 799
3 792 751 799
3 799 755 798
3 792 799 793
3 796 795 800
3 756 754 796
3 800 756 796
3 801 756 800
3 759 802 798
3 755 759 798
3 756 801 760
3 804 760 803
3 760 801 803
3 760 804 761
3 763 805 802
3 759 763 802
3 804 803 807
3 806 804 807
3 764 761 804
3 806 764 804
3 763 808 805
3 763 765 808
3 809 806 810
3 810 806 807
3 766 764 806
3 809 766 806
3 767 770 812
3 808 767 812
3 765 767 808
3 811 813 812
3 814 768 809
3 810 814 809
3 809 768 769
3 769 766 809
3 812 770 811
3 811 771 815
3 811 770 771
3 811 815 816
3 813 811 816
3 815 817 816
3 818 774 773
3 819 818 773
3 819 768 814
3 819 773 768
3 771 775 815
3 817 777 778
3 817 815 777
3 815 775 777
3 817 778 820
3 822 778 821
3 820 778 822
3 821 823 824
3 822 821 824
3 824 823 825
3 826 824 825
3 825 780 827
3 826 825 827
3 825 779 780
3 827 780 818
3 818 780 774
3 778 781 821
3 781 782 821
3 821 782 823
3 823 783 779
3 823 782 739
3 823 779 825
3 785 828 786
3 787 786 829
3 829 786 828
3 787 829 830
3 788 787 830
3 789 788 831
3 831 788 830
3 789 831 790
3 793 832 794
3 834 832 833
3 834 828 832
3 785 794 828
3 828 794 832
3 829 834 835
3 829 828 834
3 830 835 836
3 830 829 835
3 831 836 837
3 831 830 836
3 790 831 837
3 839 790 837
3 838 790 839
3 838 795 791
3 795 838 797
3 798 840 799
3 793 840 841
3 793 799 840
3 793 841 842
3 832 793 842
3 832 842 833
3 838 839 843
3 797 838 843
3 844 797 843
3 800 797 844
3 844 843 845
3 800 844 801
3 798 802 846
3 840 798 846
3 841 846 847
3 841 840 846
3 844 845 848
3 848 801 844
3 848 803 801
3 849 803 848
3 805 850 802
3 802 850 846
3 846 850 851
3 847 846 851
3 807 803 849
3 852 807 849
3 805 853 850
3 805 808 853
3 850 853 854
3 851 850 854
3 862 856 857
3 856 810 852
3 852 810 807
3 855 810 856
3 808 812 853
3 859 813 858
3 859 853 813
3 853 812 813
3 854 853 859
3 858 860 859
3 855 856 862
3 861 855 862
3 814 810 855
3 861 819 855
3 813 816 858
3 816 817 863
3 864 858 863
3 858 816 863
3 860 858 864
3 863 865 864
3 866 867 868
3 866 869 870
3 867 866 870
3 818 819 861
3 869 818 861
3 869 861 870
3 870 861 862
3 819 814 855
3 817 820 863
3 820 822 871
3 865 820 871
3 863 820 865
3 822 824 872
3 871 822 872
3 872 826 868
3 868 826 866
3 872 824 826
3 866 827 869
3 866 826 827
3 827 818 869
3 833 873 834
3 835 873 874
3 835 834 873
3 835 874 836
3 836 874 875
3 836 875 837
3 837 875 876
3 837 876 839
3 841 877 842
3 833 877 878
3 833 842 877
3 833 878 873
3 873 878 879
3 874 873 879
3 874 879 880
3 875 874 880
3 875 880 876
3 876 880 881
3 839 876 882
3 882 876 881
3 843 839 882
3 843 882 845
3 847 883 877
3 841 847 877
3 877 883 884
3 878 877 884
3 878 884 879
3 879 884 885
3 879 885 886
3 880 879 886
3 880 886 881
3 881 886 887
3 881 887 888
3 882 881 888
3 845 882 888
3 889 845 888
3 848 845 889
3 848 889 849
3 851 890 883
3 847 851 883
3 883 890 891
3 884 883 891
3 884 891 885
3 885 891 892
3 885 892 893
3 886 885 893
3 886 893 887
3 887 893 894
3 887 894 895
3 888 887 895
3 888 895 889
3 889 895 896
3 896 849 889
3 896 852 849
3 854 897 890
3 851 854 890
3 890 897 898
3 891 890 898
3 891 898 892
3 892 898 899
3 892 899 900
3 893 892 900
3 894 900 901
3 894 893 900
3 894 901 902
3 895 894 902
3 857 856 896
3 895 902 896
3 902 857 896
3 856 852 896
3 854 859 897
3 897 860 903
3 897 859 860
3 897 903 898
3 899 903 904
3 899 898 903
3 899 904 905
3 900 899 905
3 900 905 906
3 901 900 906
3 901 906 907
3 902 901 907
3 907 857 902
3 907 862 857
3 860 864 903
3 864 865 908
3 904 864 908
3 903 864 904
3 904 908 905
3 905 908 909
3 905 909 906
3 906 909 867
3 909 868 867
3 867 870 907
3 906 867 907
3 870 862 907
3 865 871 908
3 871 872 868
3 908 871 909
3 871 868 909
