OFF
702 1400 0
-0.25050448979544 -0.353939156653995 2.1113850377505
-0.29611187138829 -0.339625859050811 2.09456038946393
-0.267845532553271 -0.35695705822658 2.06587227575819
-0.20354726035876 -0.360281998600093 2.11557905511788
-0.221772245876394 -0.367469200283686 2.07034616949424
-0.156678369276731 -0.36458331332278 2.11833794464037
-0.175329185341797 -0.371287971593296 2.07211401956273
-0.111244933232925 -0.368328148637831 2.12233976356637
-0.129953704670645 -0.374891745679405 2.07359914285667
-0.0662981250084879 -0.371906089869641 2.12671045744462
-0.0851431410451271 -0.37826840035972 2.07790262711171
-0.0187462696384557 -0.374868252879664 2.13402317452992
-0.0392998239451924 -0.381521789613986 2.08606991207276
0.029325375862509 -0.370398530473824 2.14253426150188
0.00805473634040706 -0.383102327673582 2.09486252008175
0.0544911957864351 -0.3742366696926 2.1040787141271
-0.31897173953568 -0.313156288068818 2.12458168899132
-0.348955830532539 -0.294444441618918 2.09834243306575
-0.327504195707062 -0.322347583972839 2.06801191511615
-0.278305990694032 -0.329867529862574 2.14317371596146
-0.231484431458353 -0.339074229911573 2.15449016889282
-0.183720123064615 -0.344039178211847 2.15788652238495
-0.136895928855817 -0.347735947390829 2.16290009788893
-0.0916277314627333 -0.35093106385386 2.16839928997217
-0.0472656585082282 -0.355917719996751 2.17053645928969
0.00140633189314894 -0.356583118682671 2.17763494250493
0.07511313472924 -0.354077886494299 2.14911265431895
0.0464756508335703 -0.344418522170424 2.18604264325727
0.0923359887332088 -0.323612512263139 2.18491439174765
-0.306159985618997 -0.294816024022278 2.16734518166067
-0.346582006941065 -0.27309888221369 2.14076108180937
-0.260002983820841 -0.308807949581138 2.18392892822652
-0.209971018876311 -0.315059985717556 2.19148612294005
-0.162313565894562 -0.319139711156112 2.19633610651099
-0.114649330177264 -0.321445136987219 2.20326764524515
-0.0699011911470423 -0.32402676659468 2.20928494463124
-0.0275579659188679 -0.332786690875309 2.20757708372539
0.0137124524485476 -0.32472214627771 2.21863827910436
0.0592193844006618 -0.310884769227144 2.22079963947832
0.1037619473781 -0.287686798165263 2.21559080160283
-0.324777394543817 -0.25915193714562 2.1903289211558
-0.358227896659604 -0.236432703283868 2.16530917787301
-0.283596273238185 -0.274884968701752 2.21043912135532
-0.234444760025748 -0.285597901581987 2.22087111675559
-0.185639872519291 -0.287663522706704 2.22850844455078
-0.13812675257904 -0.292139540081407 2.23286570642088
-0.0865979009267752 -0.292954893478827 2.24232349787747
-0.0316413488000808 -0.301755962494237 2.24311561310387
0.0187355744737735 -0.294448094003016 2.25276934883546
0.0690313839709686 -0.278274575804826 2.2523189566567
0.113467486791585 -0.251208948498876 2.24597173729299
-0.309028500507418 -0.237551802279189 2.23426698785636
-0.349769510452911 -0.218263997836981 2.20443748275787
-0.259570428401228 -0.255071600977662 2.24796748036954
-0.212112741873073 -0.257464414774185 2.25854899030577
-0.166540014277813 -0.258459372888524 2.26659305146161
-0.122508526326919 -0.265803398619823 2.26688539011508
-0.0890817904057803 -0.254688391927607 2.2866655804299
-0.0540650247948097 -0.272701566477176 2.27263314091308
-0.0117638338691735 -0.269385031507488 2.28359337339546
0.0360669005113328 -0.262382889336842 2.28524533666487
0.0838918808334452 -0.242786527455715 2.28215475011642
-0.312553235868708 -0.199671699662327 2.27692113832696
-0.340653903322802 -0.200008423689427 2.24204226623275
-0.279371750644531 -0.225404269162777 2.27259431267503
-0.232235611022432 -0.228234362820422 2.28872979622573
-0.187481483363788 -0.227121279322095 2.29908695242999
-0.138505995452115 -0.231799754391662 2.30350135271055
-0.093102932721482 -0.22643684536126 2.31896204633696
-0.0455533363620455 -0.23895570355398 2.31390033846262
0.0024789137519575 -0.238538084292438 2.31920351488229
0.050154923355611 -0.230462222347134 2.31612341421629
0.0973509838702402 -0.207343376091375 2.31034868316609
-0.302133478262072 -0.177353930733872 2.31365035849939
-0.346472906069523 -0.162966036605243 2.27943950089174
-0.263194436513978 -0.20119350535454 2.31025781024685
-0.217250476236365 -0.195644169822113 2.32995767030112
-0.167151728979203 -0.199897381756597 2.33509853992632
-0.121332813397273 -0.19972378710658 2.34456240033281
-0.0697441648486613 -0.203528332815097 2.35052903672861
-0.0247258995580238 -0.209643874095636 2.35207105231472
0.0216171401314398 -0.206293763291153 2.35339885912992
0.0654449237321725 -0.197971600067619 2.34479331673399
0.101547634268354 -0.171845596380808 2.34527458515954
-0.297696526400309 -0.139872409817948 2.35187567862893
-0.33153790659127 -0.146883838272554 2.31829969834842
-0.263947074103238 -0.169359605827618 2.34546138005972
-0.229450705104993 -0.158239579810614 2.36392629135975
-0.186618301307347 -0.166423594988234 2.36497099490042
-0.141475886266379 -0.16663741133854 2.37262688386495
-0.0942176963037187 -0.169887606805622 2.37826063402616
-0.0455510421417614 -0.173884516975817 2.38356262712044
0.00277097389876613 -0.176595053899123 2.3850039932663
0.0542705310971674 -0.169875363532056 2.37767942886018
0.10127547942283 -0.13777200570344 2.37182600900256
-0.339295381241531 -0.108842470896768 2.33769147014037
-0.260630381958207 -0.121766286943352 2.37888748087623
-0.304451983743811 -0.097078207435309 2.3696379861793
-0.211135160750051 -0.122466401414319 2.3880232828817
-0.165036290163844 -0.127101620839957 2.39276811728896
-0.118331909944623 -0.128083848361214 2.39926351538569
-0.0724696575978247 -0.13259171308376 2.40404160018212
-0.0257386050076083 -0.136990288733278 2.40870691957803
0.0209382565882743 -0.138093336552309 2.40649873909
0.0651886809077764 -0.130787270418917 2.3966606470901
0.0465883351452801 -0.0932131961094486 2.41568706667714
-0.277798684477374 -0.0709887966833496 2.38921106797112
-0.235238401533138 -0.0803240382909455 2.39853108346651
-0.186171189836649 -0.0821385332640209 2.40457268832984
-0.140388017735417 -0.0832333930474072 2.41029085056991
-0.0940713366472573 -0.084641211355305 2.41599285351533
-0.0494228901077385 -0.0912753009588815 2.42049121663312
-0.00166197378065978 -0.0954004658090607 2.42312472200745
-0.245886480246276 -0.362031538782645 2.02618871798088
-0.269877924717465 -0.346104984820663 1.99169550055945
-0.246475742978111 -0.336774757277546 1.95461418066881
-0.196209695055171 -0.368105707865033 2.02636770690616
-0.217996881538824 -0.356759938769745 1.98596217194171
-0.150129693431659 -0.370538195734275 2.02549630737485
-0.169851812790125 -0.356463883009606 1.98034717931751
-0.104682322970296 -0.373381392995149 2.02780317743695
-0.124524624824831 -0.357819315831667 1.98089277167798
-0.0593038227630561 -0.377171911106216 2.03522631265
-0.0769026691808987 -0.361538904966269 1.98675518341011
-0.0143335704538027 -0.381348756285876 2.04531827888989
-0.0311226388130091 -0.366511599234808 1.99562491983386
0.0317254903955822 -0.380169034920486 2.05387886509486
0.0131527990613674 -0.371101323956077 2.0066124961369
0.0610282119512919 -0.364416607401384 2.01597911784394
-0.297606656345487 -0.342714937253906 2.03530620336044
-0.336365231399203 -0.311581306330538 2.02130588260222
-0.306737536911433 -0.32493511063646 1.98794181264818
0.0990550553738244 -0.353987399188334 2.10951618925077
0.0748096045808573 -0.368735020724587 2.06382731292546
0.114306618681078 -0.347162460112116 2.06714498496896
-0.37454823601378 -0.25844052293508 2.09099844980792
-0.385065698389985 -0.242959932833826 2.04230911331334
-0.361917406946315 -0.2860127244227 2.05254753353542
0.119975404077642 -0.327737347918264 2.14480824513349
0.1404614822177 -0.323192362170019 2.10063235409565
0.157384847101654 -0.293574930758059 2.12982679796023
-0.376849831152046 -0.231877315469109 2.12422985666859
-0.392926286978243 -0.213017766801762 2.07905435850717
0.133675157314621 -0.293731932238776 2.17524328362059
0.164444156968471 -0.256248768500878 2.16287679189904
-0.380792917577806 -0.195565786848457 2.16047027117602
-0.393619197112083 -0.185545105703434 2.11729406813895
0.141300186146791 -0.255208141534924 2.20577188783229
0.170625982008662 -0.21597525666578 2.18973627948984
-0.375325900330414 -0.178910084876795 2.19939727471146
-0.39608407172675 -0.148037808610331 2.15910052689718
0.149720382261764 -0.215836851118168 2.23379646144733
0.174808290647789 -0.175823816026421 2.21860669964666
-0.3674960049709 -0.163332962785014 2.23936884584641
-0.391579543790812 -0.133158702384389 2.20542624977326
0.126546624842997 -0.211753505457965 2.27341269085291
0.158768052206993 -0.172461396870621 2.26166457545566
-0.381515084065342 -0.124342004051802 2.25409562728055
-0.400085521025669 -0.0882535533274698 2.2251211385634
0.133738957483023 -0.173741211602052 2.30442609293986
0.163642241603127 -0.134251215816307 2.28989909763201
-0.365977298317909 -0.119313943410122 2.29596786916285
-0.390547543330764 -0.0800709694643731 2.27308965837395
0.136993136149686 -0.13836262075379 2.335064804822
0.160393102172199 -0.09937911311902 2.32378925926379
-0.369119897687719 -0.0754288970225606 2.31631167968995
-0.337049659810324 -0.0662763596759269 2.35443410711274
-0.357086015826762 -0.0318057481463744 2.33698794193637
0.0937520317740407 -0.0923255900487698 2.39487874041597
0.11676890298551 -0.051939009082135 2.38320650153647
0.130513763611123 -0.0981877094681956 2.36394574134942
-0.311733470418466 -0.0398011204357347 2.37532961983318
-0.259306409598772 -0.0301798183823225 2.39775668853609
-0.291474482039804 -0.0011651694681377 2.38223859455471
-0.209646029607338 -0.0389951479702176 2.40590998752259
-0.162409347323578 -0.0360905391261471 2.41118598593863
-0.115786810110845 -0.0374819484992033 2.41644908823707
-0.0689500637503347 -0.0389380546266008 2.42171800181645
-0.0259145284491167 -0.0497129011880514 2.42689415114919
-0.000710456987341831 -0.0128043149731446 2.42325933583524
0.0247855832693576 -0.0529043884587029 2.42479210316318
0.073473284392107 -0.0513106488968548 2.40987522186745
-0.258172157242774 0.0281583070377359 2.38624221138485
-0.226385182186164 0.00384993868533201 2.39930639256066
-0.182298595724426 0.00927083718594433 2.40225142729691
-0.136204087299557 0.00932506599800205 2.40658163633409
-0.0895036360699458 0.00731739755499423 2.41151918961215
-0.0410837828493674 0.0056001230008963 2.41651523376763
0.0146435227005263 0.0252894033521657 2.4098819120961
-0.334674847564371 -0.292752856675023 1.97292290095515
-0.318548391122219 -0.27738822276048 1.93456035269137
-0.287682938055539 -0.313646363652284 1.94669942658762
-0.238933151439108 -0.312717560973286 1.91970026262952
-0.196784476469065 -0.33719281511988 1.94462983520366
-0.146295584235001 -0.332213748032651 1.93805295517451
-0.0962723486862119 -0.337466508953979 1.94583002904157
-0.044184194752632 -0.341539393711812 1.95207796514408
0.00116982632748611 -0.347242571102389 1.96050084645132
0.0453201473766249 -0.351036762056388 1.97633083556258
0.0876274777160366 -0.332684215307899 1.97604845922425
0.100515234637188 -0.348043823738526 2.0234391744478
0.126921582919976 -0.320966020646793 2.00656262210161
-0.364623797292308 -0.272157874777413 2.00712594239639
-0.382572417800332 -0.225400288942683 1.99591150385642
-0.359031915094215 -0.250903249674465 1.96473407318523
0.143627364894616 -0.319750690484393 2.05117836177062
0.159312806641003 -0.28978192489461 2.02090943383708
0.169403755663249 -0.288467699238403 2.07614450986451
-0.396909507885668 -0.193864918401361 2.03360749073442
0.188921523027418 -0.246077353381867 2.07498271415034
-0.40002927623883 -0.164110318571991 2.06730883096617
0.181081449178171 -0.255459003336174 2.11718687502547
-0.401080381682095 -0.143513617808656 2.1108376318802
0.186505790748335 -0.21429694460577 2.14245170365352
-0.403349015374917 -0.10430130853655 2.12780019680171
0.188896661006211 -0.174930151564367 2.16787096318336
-0.403243504612314 -0.098219606326944 2.17528422425003
0.189363904382036 -0.138579572124676 2.1964601339308
-0.406624306565051 -0.0512583981295807 2.1954239243918
0.181568456300308 -0.127659795608346 2.24233201518761
-0.402759315138225 -0.0420755578322039 2.24614999435926
0.18159609825916 -0.0899194434508393 2.27650419411945
-0.385897522742998 -0.0352612841471182 2.29440858225162
-0.392578496816552 0.00301606563771849 2.26679471477751
0.149962162347462 -0.0557595702916955 2.34909754824009
0.174211858184812 -0.0578632236236883 2.3079091725929
-0.368788439962668 0.00738565154313137 2.31308695650227
-0.333885432351307 0.00181630202455597 2.35409231312335
-0.341116431285642 0.0442265776325451 2.32784858133333
0.0491454577098735 -0.010565201013759 2.41411529447593
0.0955733525702378 -0.00972876476164801 2.39241541765067
0.134413959618611 -0.0104776684137042 2.36026158224284
-0.304253921436567 0.0396263199449652 2.36105028694968
-0.263860226044218 0.0664123123725791 2.36513195269028
-0.211263248175447 0.0502479987914048 2.38411719389289
-0.162229627537208 0.0524816383270014 2.38665744949622
-0.11487339831592 0.051469339832517 2.39070114826083
-0.0674860633603294 0.0483207555277504 2.39592980245502
-0.021495591806308 0.0490406623346078 2.39879421678053
0.032067552863027 0.0608338116508749 2.3864096687736
0.0659711808316922 0.0288546716554194 2.39371411377054
-0.307475131037172 -0.24440293819061 1.90026503027076
-0.275849242883403 -0.283797499078186 1.90833884795264
-0.227436133426497 -0.280034674032391 1.88811846078057
-0.189975866466694 -0.308870159369047 1.91041299952215
-0.146389624835109 -0.296418869907445 1.90142674333971
-0.10610862199655 -0.304253404020794 1.91022287314473
-0.0590397499732311 -0.313187746730638 1.92037882021015
-0.00285545184999954 -0.314197127150723 1.92403270370137
0.0447681034810553 -0.324080402863898 1.94096785769557
0.0899197485292353 -0.300163562040347 1.94074700601662
0.127964747398652 -0.296576134802344 1.97299017510463
-0.371000861417469 -0.198240133491095 1.95272355114129
-0.343078762400102 -0.235057980341037 1.93033171890723
0.160598694795117 -0.260645626025417 1.98426673186438
0.180893617469334 -0.254306150769827 2.03264649293377
-0.390065838091882 -0.177682517491127 1.99316445234047
0.19726367376174 -0.206927772037043 2.04824882287633
-0.395483060233817 -0.137847324782689 2.02358187961739
0.196363593639495 -0.205944311074227 2.09803408220385
-0.399391604502397 -0.115749695273116 2.07192179778818
0.196924949424751 -0.164220977717372 2.12128828479768
-0.398653960518702 -0.0728585196910084 2.09328985112811
0.196546108153593 -0.125933003526149 2.14938758480006
-0.403508615990478 -0.0588072961264197 2.14472535631264
0.193474014179417 -0.096298996386428 2.19533644104759
-0.402500558860736 -0.0140970747499358 2.16484607524336
0.19039435957076 -0.075981200483558 2.23530570809292
-0.403869885495477 -0.00515827821844915 2.21648467579698
0.185424835812931 -0.0334674304335927 2.27193711320874
-0.388953267578485 0.0393368726201766 2.23678326965878
0.164204284614646 -0.0152613424633007 2.3201041166204
-0.370145283860138 0.0451410881762296 2.28452381902962
-0.337390446874082 0.0818447891996942 2.29782426226272
0.108229251477161 0.0307624484403247 2.36600433074971
0.143443045575115 0.0276969839733532 2.32963447911641
-0.303388151438009 0.0789119566441545 2.33464549449739
-0.259926492570246 0.105422498341464 2.33419569634552
-0.224199331810628 0.0863511958257568 2.35983840215849
-0.179311595887734 0.0903706630325848 2.3590753732667
-0.135192791134527 0.0908996527621202 2.36085645243801
-0.08844227930589 0.0870150981893645 2.36657629811178
-0.0451340643893358 0.0869216051844145 2.36885333429937
-0.00250797768419679 0.0850756656272858 2.37208360245502
0.0752124500005999 0.067660292012035 2.36338212537733
-0.304223789111847 -0.209041343021704 1.8724804937658
-0.265592115954003 -0.248089876533186 1.87577991017301
-0.218714272632047 -0.244695769191401 1.85746103349253
-0.17892625426235 -0.271156866188688 1.87799925950922
-0.125129305292232 -0.261738596304485 1.8726081763254
-0.0791619114479995 -0.274243180203879 1.88571901148843
-0.0334321145318192 -0.286030042375313 1.89819929750905
0.00991752902958935 -0.273839971495853 1.88988939419719
0.0476590376844695 -0.291098316469073 1.9113878713116
0.0941606638736324 -0.264819507520499 1.90930759512615
0.130894860469706 -0.26409134569984 1.94201307977023
-0.366183333135149 -0.159836521111804 1.92361094175171
-0.341705997876263 -0.200133065254987 1.90650718372195
0.16638225278025 -0.226009014847961 1.95432157784617
0.186542172413558 -0.219093664761781 2.00086510326662
-0.385357934626963 -0.144430875021349 1.96841781792229
0.203403179468998 -0.172003302210004 2.02068356793518
-0.388949791802902 -0.0997117411934086 1.99141472372952
0.202617551491436 -0.162472236706259 2.07285962113053
-0.393310809402632 -0.08549732352265 2.03858823931587
0.202933755541097 -0.117204688122566 2.0994419998093
-0.392660926120402 -0.0405630513963417 2.0620473738523
0.200235500861406 -0.0813861147411826 2.14612900074753
-0.397265260267672 -0.0252417028668191 2.1120520146799
0.198309676829008 -0.05136862127665 2.18234141722176
-0.396401277146748 0.0205800561944856 2.13421700772512
0.194678574810258 -0.0334110561025784 2.22530018216151
-0.397765424408251 0.0309492808411069 2.18635319001225
0.190972937496929 0.00905058977606044 2.24202697343716
-0.382755515276371 0.0750846226756397 2.20642510297543
0.172834545231345 0.0159266142092929 2.2871965351797
-0.364134545146062 0.0809854220536299 2.25411638285034
-0.330425687674311 0.118236960476074 2.26765694292407
0.114903602119954 0.0685038272281288 2.33403646456048
0.150866979947969 0.0623122506436943 2.29812709665184
-0.29714661315164 0.115092040774583 2.30397676858425
-0.248585658256211 0.140142279857433 2.30654804346964
-0.208272998948559 0.121188523521759 2.33103956078305
-0.157328136436598 0.128041478209096 2.32771573998604
-0.104622430856777 0.121459050035759 2.33606329481821
-0.0562435656636769 0.123056998001436 2.33713957448765
-0.0101472971423052 0.120960504686349 2.34128449393022
0.0377413949151728 0.100053159249409 2.35360220759001
0.0790459330956491 0.105951292670944 2.33224429435301
-0.298752840174196 -0.174293123101722 1.84327518369873
-0.260741731783538 -0.212359264758492 1.8459386326433
-0.212808376784965 -0.21090002786081 1.82860798997613
-0.167854932368153 -0.237769783283074 1.84977819624845
-0.120668935292583 -0.222613487093523 1.83910653022112
-0.0785708168125491 -0.237224168353862 1.85383723453387
-0.0338940482159585 -0.250880447998345 1.86787501812098
0.0124169249102161 -0.236261779580051 1.85762156671266
0.0556433246768526 -0.253878942811875 1.88012305377192
0.101067272234083 -0.228569965356924 1.87882361600783
0.136932362471942 -0.229983097470125 1.91309291503569
-0.359784249085133 -0.123425475740309 1.89229359789442
-0.336409469491655 -0.166338412165146 1.87837320356257
0.172651814132048 -0.191156709666629 1.92511246378903
0.19304748211649 -0.183290492882324 1.97165487685465
-0.379033296322275 -0.111092954904697 1.93791952412394
0.209449642303748 -0.137280452721305 1.99231392113489
-0.38270226638707 -0.0665857779191874 1.95849189845079
0.208488244663458 -0.1265261331102 2.04504751752542
-0.387085951108303 -0.0474555924374138 2.00904758183751
0.2097541516422 -0.0814742789855889 2.0632137161772
-0.38723619131532 -0.00341290245112551 2.03888367534272
0.20568469157642 -0.06720383229857 2.10788203617164
-0.391209911250822 0.0111546021276575 2.08291913481826
0.205106308204012 -0.0253085893661569 2.14006276388729
-0.390109858659171 0.055282364932692 2.10193348001125
0.201169270400103 -0.00286104824730887 2.18887464708235
-0.391864041602141 0.0654829526712926 2.15529365239655
0.198059915302299 0.041950741732702 2.20894417649046
-0.376662119221428 0.110047332562327 2.17687390327226
0.178296278780018 0.0544520284410453 2.25678636735847
-0.3574903888092 0.116830398156279 2.22453676772824
-0.322174881811626 0.153974227029122 2.2397877107866
0.120269414967036 0.104863435658089 2.3038197972507
0.156215477078407 0.0992101002715831 2.26801963821902
-0.287403317867846 0.150551094908726 2.27640689772992
-0.239089731433812 0.174968359216609 2.2779997607498
-0.197633934964412 0.155148974439781 2.30230288795919
-0.152800587631975 0.169554502633151 2.29215930582864
-0.115590103274523 0.153157793543676 2.30818090218852
-0.0679089003065572 0.156541616126996 2.30768212843992
-0.0175301648792706 0.15719344393842 2.30967534851099
0.0326286454597643 0.136696865918684 2.32501790582239
0.0803070479375744 0.141365614262977 2.30457936587792
-0.292573959501054 -0.139471686828268 1.8134115689731
-0.255204832462812 -0.176982840478413 1.81603237690862
-0.208928336563531 -0.176090608352736 1.79930607728445
-0.164572574023815 -0.203086891767702 1.82004676983073
-0.114912186398621 -0.185628795003487 1.80751508968452
-0.0728318179155504 -0.199409504790316 1.82152902814237
-0.0308306834046378 -0.214643910928331 1.8367928125492
0.0154101845309376 -0.199007725338949 1.82565835599402
0.0589844027590458 -0.218551625593517 1.84912046980861
0.104231160571599 -0.194434860701928 1.84786291280554
0.143099370359243 -0.195375698258489 1.88379952848642
-0.354846138072201 -0.0864120097491863 1.86371703498094
-0.330278945002406 -0.132082748712487 1.8488454307562
0.178563056031685 -0.156442624467853 1.8953378840772
0.199180795099445 -0.148059740943972 1.94182643700756
-0.373150400294895 -0.0738918969530385 1.90807129634391
0.215302661256659 -0.102948417316997 1.96157526930801
-0.375894980951401 -0.026259197341198 1.92536203654519
0.214882323011368 -0.0908391778567896 2.01250101035764
-0.380555960630119 -0.0205017437092765 1.96966862764754
0.215559602702737 -0.0431190699021717 2.03752365126582
-0.38194650520498 0.00926720365069207 2.00105527799231
0.211008452436771 -0.0295558929238791 2.08593458720504
-0.384358195218315 0.0472226128552437 2.04664296352683
0.211569630174086 0.0139474006940925 2.10923280612701
-0.384225537562106 0.0892898013837543 2.07274118186167
0.207138448286481 0.0274085636237924 2.15652861753414
-0.385951473146881 0.0997669777344008 2.12605206097724
0.204585180670891 0.0747525244130695 2.17772512862126
-0.369707108626835 0.14557702176988 2.15009696380107
0.185205849472119 0.0886216677173026 2.22551125032302
-0.350219232467268 0.15232259487049 2.19670843290829
-0.315152514550605 0.189058922048469 2.21104113778301
0.124955617751045 0.140412065833253 2.27476088355565
0.162481539532627 0.134023667142274 2.23795843197144
-0.279432906122134 0.185524452125863 2.2479385773972
-0.232961576483032 0.210520937133194 2.24766213779769
-0.190919208326922 0.192702914263467 2.27027038885433
-0.140387691371248 0.206217747897613 2.26118249377352
-0.100864493126463 0.188360020833285 2.27858148149118
-0.0526007222551004 0.191513612298723 2.278310440635
-0.00452676250368199 0.192697823155022 2.27972762392126
0.035846866494078 0.170021473991005 2.29706220981602
0.0873670699411056 0.174506555738429 2.27560762120435
-0.293886847739242 -0.102661040255518 1.78910522884608
-0.24886741147557 -0.140726598446215 1.78505188107765
-0.200996580618897 -0.142186898604421 1.77000690857718
-0.159544569607494 -0.170024718914167 1.79180028375206
-0.109785682131636 -0.150277082017317 1.77734893156082
-0.0661387868570276 -0.161332143028799 1.78904414891322
-0.0262343179510127 -0.176112220411322 1.80380865411643
0.0172338483367878 -0.161295901275543 1.79325175671033
0.0616931776154921 -0.183554463687465 1.81829756361373
0.108262558245671 -0.15986345598438 1.8171117610442
0.145385740939775 -0.163455103594765 1.8528090077602
-0.349541120115321 -0.0487855243424478 1.83502131464822
-0.32760047145346 -0.0957471840117727 1.82270103423748
0.179056492227539 -0.127255117906105 1.86170990989753
0.205025568956268 -0.112820583081111 1.91081608154879
-0.367105729242943 -0.0354059764657598 1.87739257105878
0.222178927991953 -0.0648842785023977 1.94214220446769
-0.369714869919674 0.0121194970850687 1.90035062275527
0.220607940289962 -0.0524495181034223 1.98753401717064
-0.374916657938128 0.0250454597177553 1.95008516679087
0.221610985907508 -0.00581517739457947 2.00773523255835
-0.378467884559291 0.050914342364875 1.99775898896903
0.217145352331368 0.00673399682497376 2.05602207457739
-0.377662031082913 0.0932338501928596 2.01815563073604
0.217856387427234 0.0506541062853163 2.07781801112721
-0.378940833542043 0.127713043394316 2.05170969216603
0.213340069552926 0.0643615624901269 2.12648155587327
-0.379587793922327 0.135327078510137 2.10144884511942
0.2104593293499 0.109931825684503 2.14834593112796
-0.363446356619473 0.180754913974639 2.12088431624333
0.191530985938227 0.122709083919751 2.19548071112829
-0.343388608569672 0.187895655759617 2.16780782659721
-0.309119103778446 0.224080021588569 2.18115042900157
0.131641487030565 0.175319877842322 2.24438802352047
0.168726646999536 0.168901076572121 2.20782050534751
-0.273685132671564 0.220417126505642 2.21797618668838
-0.227484999335214 0.245614076643905 2.21747727844692
-0.183787316847846 0.228351483889581 2.23990089783879
-0.135183604264932 0.240520117991736 2.23184953694479
-0.0875298665769949 0.225433217331559 2.24729844686877
-0.0375226847276897 0.226349310918767 2.24904478733672
0.0089879076230729 0.22674671596838 2.25106094640974
0.0481402016249245 0.203044330041637 2.26754337598709
0.0943345552463221 0.209450336467745 2.24529676653374
-0.256593631944138 -0.10270957452701 1.76355268975338
-0.215068106124084 -0.106076978252605 1.74984769261668
-0.168666932489539 -0.103174918285958 1.74363236766244
-0.153690753732018 -0.137187583090441 1.76465638860803
-0.116506098066349 -0.109168471242424 1.7503764380383
-0.0697249643824144 -0.121092546197452 1.76011375310523
-0.0228266614272413 -0.132283924023011 1.76993356228313
0.0250585080943255 -0.121380600697747 1.7674656513537
0.0646008328930722 -0.149349567789748 1.789599310367
0.108965881046937 -0.123095675438294 1.78992014631186
0.149375866056668 -0.127462782114972 1.82262376600124
-0.337308776449984 -0.011342394819348 1.81043724084079
-0.320545430506091 -0.0578415728394107 1.79516540197889
0.198020261775136 -0.0898830220875405 1.86521127030081
0.215709478536615 -0.0676506442930857 1.8989894750632
-0.357536342402651 0.00423820427659173 1.85016511826259
0.221093137676461 -0.0244523310280246 1.91050941804568
-0.354718092027703 0.0482089457755054 1.87213622091721
0.22393899367824 -0.0135641616575497 1.95607627899064
-0.364409652020399 0.060909361328147 1.91728091014749
0.220344801986394 0.0296477438005259 1.97575623813095
-0.371356872843978 0.0773586701465871 1.96342635499554
0.220552530779921 0.0440106385359198 2.02365553395635
-0.36544180785818 0.122665112333588 1.97916225412999
0.217356345958766 0.086064380446625 2.04654698211711
-0.368519279680781 0.149222674009336 2.0155392014046
0.217195655695483 0.100649164624608 2.09414879773501
-0.372471783144522 0.169645169986031 2.07053526983182
0.211173212488002 0.141835598528877 2.11713908594682
-0.354780124076382 0.210511005199699 2.08624001566567
0.195703961392027 0.15758149253663 2.1655838838866
-0.337340460829766 0.221516660484978 2.1358779144587
-0.301852270256116 0.254049114114609 2.14832733868812
0.136591690742451 0.210256860826466 2.21262299356335
0.168492189174127 0.203045785317424 2.17549576361263
-0.266416312764446 0.254608993530706 2.18730792295373
-0.217865598504855 0.277408265989888 2.18225805590444
-0.180558806452286 0.263115952837473 2.20713959179955
-0.138772995977174 0.271980536661039 2.19660920274819
-0.0946214843895449 0.26206261766495 2.21054195901946
-0.0499533616397344 0.257770901063481 2.21688606089605
0.000119880505856262 0.257262306844859 2.21853029018353
0.0520957043961177 0.239354833186319 2.23514498088475
0.0974478044927548 0.240798171324414 2.21254696502398
-0.282070869838662 -0.0620802970780222 1.76263667816012
-0.236691755651351 -0.0626920338292512 1.74028071898316
-0.18902300998131 -0.0638887229096612 1.73062858105989
-0.137152969542696 -0.0677945008093897 1.73354165467629
-0.086625057853185 -0.0743624428874637 1.74006337739012
-0.0404688831019132 -0.0842995859603688 1.74719299960162
0.00364275553174569 -0.08381748463695 1.75117299512516
0.0506523384771693 -0.0734971556961072 1.75335824244529
0.0711949871307865 -0.108698700080908 1.76822244714043
0.103122076506987 -0.0730198185654028 1.76788796430588
0.139680479543121 -0.090638971781735 1.79423854276987
-0.302132862556897 -0.0203760605795402 1.77175602847976
-0.2770647056792 0.021671150940497 1.75857573181601
-0.259616361920209 -0.021255189455749 1.74436238589558
0.149784608883196 -0.0495709663127621 1.79230983307698
0.176035708682806 -0.0837048134258621 1.82682669169086
0.179226315346096 -0.0361735841767341 1.82055735582595
-0.334386679279806 0.0426409350322013 1.82315548424414
-0.314556415370702 0.0209286214661677 1.78874480070101
0.203427987302872 -0.0427282383898687 1.85818909734349
0.208624946725744 -0.000847194476708113 1.87589437812356
-0.331235581753131 0.0799267853115155 1.85015531130518
0.214421200600623 0.0243844421189054 1.91962077761774
-0.341146158533826 0.0991932092882577 1.88988257762218
0.209319943671813 0.0611951811734831 1.9478015251948
-0.353638169494495 0.109209370222736 1.9297519503197
0.211882648593107 0.0814168465408859 1.99036585521719
-0.34271662985041 0.148356600912793 1.94413760272416
0.206919968177939 0.11810362924556 2.01822585932482
-0.346627470262292 0.176086133311548 1.98113005582232
0.209280830836661 0.138144885922486 2.06057209669387
-0.360130316420955 0.190402553709313 2.03403734172521
0.201649557046107 0.17336609068017 2.08771762429514
-0.326458985727134 0.24737424856063 2.09875056039864
-0.338374848657485 0.232598700955179 2.0499458074274
-0.307569972749389 0.265586946637771 2.05671698436141
0.192168255614777 0.187892648072028 2.13226229825858
0.178735727035177 0.214512554900135 2.08922876903518
0.16547912476342 0.226369530158868 2.13472395222991
-0.258739470090208 0.280356680850156 2.15094311320234
-0.292550538427378 0.274558734062878 2.10956321644134
-0.250771067654887 0.296495074396907 2.10883759207555
0.132760945215536 0.241897523353015 2.17421561018998
0.100294180098007 0.274561883856336 2.13895732406158
0.0880155798801325 0.266764528018834 2.17767630462193
-0.211588602012657 0.298054258658375 2.14262542480619
-0.167587476924621 0.29219952300565 2.16224194321349
-0.114668033974858 0.289975609719864 2.1645688404145
-0.07018274751467 0.285035010984007 2.17325143493954
-0.0263583419001207 0.281808646049073 2.17820973624523
0.0163824215970509 0.281112476504063 2.17759310212079
0.0496239451148685 0.266317519465542 2.20054567952383
-0.210792865405593 -0.0211905398888601 1.72834853905852
-0.159499832573974 -0.0249215637761881 1.72538774850756
-0.108719675416415 -0.0289444238491863 1.73104929227995
-0.0608342249317703 -0.0337528483554174 1.736599015665
-0.0159949649156987 -0.0372867314547738 1.74175821525905
0.0280762667695817 -0.0330901601604608 1.74663623812842
0.0766681288470887 -0.0316999081636104 1.75442753713601
-0.23285279900426 0.0199119669796338 1.73776821202248
-0.205724760374175 0.0573862733046944 1.7426437213846
-0.181452589032799 0.0183261124032495 1.72840559160123
-0.130646918048105 0.0150658057456771 1.73151803056345
-0.0829715944320599 0.0139929612109397 1.73745389896745
-0.0356930189473579 0.0105989837191464 1.74290903177267
0.00908034195226634 0.0120879209304007 1.74904449897028
0.0560195176169625 0.0113483443703642 1.75514556014278
0.104173569243407 0.0124035145390784 1.76980045727217
0.15130732072177 0.00307294933442556 1.79703678970768
0.120186226851794 -0.0280274725312649 1.77188203307772
-0.295177140713081 0.0608828933659334 1.78749667742822
-0.263308241608872 0.0994031402063583 1.7906650372939
-0.252622026767004 0.0621514933428562 1.75986827797883
0.127141360349323 0.0454964038876199 1.79491412415457
0.185222532920919 0.00543854656842586 1.8346623603507
0.163232290410557 0.0456711688421714 1.82680990695615
-0.303079390567227 0.0910770184879728 1.81918592193416
-0.269889871542708 0.129412931105141 1.82739556387093
0.19360965518791 0.0407043899607006 1.87006321187874
0.165606789698857 0.0798032473852088 1.86170535153652
-0.307761951586011 0.122770203248342 1.85950570628441
-0.276971776387761 0.158804527242247 1.86599078566429
0.192497336917242 0.0703195597938205 1.90387126875606
0.163584771042776 0.111172635060158 1.89781210042718
-0.318920215281882 0.146187407709568 1.9002468585572
-0.281889116882775 0.186066008290152 1.90055849310246
0.191001575436926 0.102014599705408 1.94160081677345
0.162465899386575 0.141567531959435 1.93414053202971
-0.315886452718383 0.183524000228823 1.93608881204413
-0.280042609853562 0.219027089188528 1.93544138019344
0.190232674778044 0.129548579132321 1.97579407987739
0.161711558335537 0.171312322573827 1.97025686635207
-0.31320091156367 0.217486491829234 1.96920517589946
-0.279537058554641 0.253612733565025 1.97506934307253
0.189083867863684 0.160688171999726 2.01376084532726
0.16040876976995 0.201268022667079 2.00575847104646
-0.336737117692028 0.215752631687897 2.00558416626606
-0.30760742486223 0.252523467898383 2.01125831651286
0.187294487429541 0.188667051585374 2.04743747521794
0.157101837915751 0.22854897268398 2.04300120259084
-0.274442054244609 0.288594961112967 2.06836427359324
-0.269372955531091 0.282338141906217 2.02001517227122
-0.236923249692927 0.30273268739768 2.05464420994502
0.134870074101274 0.256175100118254 2.12787422216528
0.148580727331701 0.247256544269156 2.08566030002386
0.108553101303341 0.274602781631481 2.08692481639669
-0.212409801170102 0.308553452881257 2.09476371545922
-0.1868554120383 0.311079748269158 2.05902085459564
-0.171875634505509 0.308204435273749 2.11332320307382
-0.142921937740843 0.309511227123462 2.07239392767441
-0.129397633161943 0.304204946519928 2.12239325012795
-0.0987945030677599 0.306226620061444 2.07745570479524
-0.0825933047570229 0.301273472752704 2.12507267004959
-0.0539268107558124 0.302819909147334 2.08076267415525
-0.0382856196538982 0.297809146182462 2.13099698336145
-0.0103424738701461 0.299512750509166 2.08434654998719
0.00624315487091785 0.295117795917826 2.13289820456665
0.0338832266085919 0.296329273725483 2.09213085359976
0.0519754765323689 0.287981715574456 2.14758620796353
0.0716570694695129 0.289483147532654 2.10444056101587
-0.175068585434744 0.0901796200379627 1.75697549964533
-0.152436367553131 0.0564519574043366 1.74060468402632
-0.106723639502978 0.0588134992208677 1.74821532496263
-0.0579693374037685 0.0547248529806635 1.75361178674249
-0.0130760385406993 0.0564916292262731 1.76110658846696
0.032320690277781 0.0557149782937583 1.76758065395245
0.0783686736356495 0.0516930682114034 1.77466363616074
-0.220140936203152 0.0978326987624081 1.7690456785689
-0.177660310003857 0.124413595022224 1.7850483432764
-0.13155198276879 0.100026597387445 1.76859154507793
-0.0805757308990681 0.0932370451364438 1.77222095763998
-0.0362802354110834 0.096392613290256 1.78221749359503
0.00824839718603133 0.096326979582539 1.78996574605914
0.0534528917544674 0.0935120229329262 1.79562718014186
0.0969315660133963 0.0837312523770531 1.80235773249805
0.131576236230757 0.0857078777930979 1.82749194445098
-0.225201951325911 0.130973804174519 1.80235205181773
-0.185433595745263 0.155366999260698 1.82072579658843
-0.139488792700961 0.13989485624832 1.80663139270516
-0.100232163462751 0.124584622347024 1.79677667460968
-0.0574678351378536 0.129538857413539 1.81107070104824
-0.0137620279930949 0.130102138514465 1.82056426335258
0.0343748736465557 0.126502989905439 1.82607476785079
0.0842602068133257 0.118803007187096 1.83180575999679
0.129068029935391 0.115985731539365 1.86050507890834
-0.23216027272044 0.160710127323217 1.83906300971816
-0.187231079495285 0.18515453767841 1.85528263870663
-0.141143570295775 0.171238973854128 1.84302942226206
-0.0944838822016219 0.15555261648777 1.83407607241235
-0.0475757281913015 0.161878375873136 1.85096897567208
0.00264312445110976 0.158050782764427 1.85663253288234
0.0504709340460864 0.154046500397081 1.86161879912766
0.092616259333408 0.146184861442778 1.86889280011598
0.127798504344431 0.148043043640679 1.89829692606633
-0.235749436597072 0.189640468724715 1.87347984969599
-0.189860226944697 0.213481511264406 1.88822506363479
-0.140876215554032 0.20283600278075 1.88011201894099
-0.0982527316939829 0.185941616918076 1.86892686275276
-0.0604266307529936 0.194094386622938 1.88612563418392
-0.0156838536174335 0.188462211556488 1.88856750441358
0.0323486052893377 0.184967325922809 1.89417868635474
0.0814404328208135 0.178639790278057 1.90156164425007
0.12665986112303 0.176826151190456 1.93223409666719
-0.239072238246744 0.217777947769811 1.90690244300027
-0.196301833688894 0.241442888110371 1.92117759545605
-0.146273409813726 0.232670077663489 1.91398307056349
-0.0969957603816397 0.221162571301747 1.91045723835211
-0.0454429515094074 0.221280643430972 1.92101371121739
0.00275308291876139 0.216808934705868 1.92551383749079
0.0491836440349958 0.213474413435973 1.93105433181281
0.0907245855782354 0.206234005138623 1.93951776659951
0.125753205667318 0.208348386491101 1.96974754827506
-0.243819652870872 0.248018978908901 1.94343418288535
-0.206080103920376 0.269769137432563 1.95595793548626
-0.159086452124238 0.263944656881158 1.94811541502599
-0.11243647645452 0.254392602405293 1.94627908082306
-0.0677561777798571 0.250148637809458 1.95033456597927
-0.0187605614834811 0.248009617495046 1.95773020164044
0.0300728643820227 0.244527722048375 1.96351810422573
0.0792024398070351 0.238817513998886 1.97201874129536
0.124080985240935 0.236562881635637 2.00346217607345
-0.239705056431813 0.279929158580556 1.98491330966578
-0.18322552825798 0.290368105200983 1.98592588643669
-0.134463959697009 0.284617960685808 1.98385771368559
-0.0897972943519489 0.280095902091676 1.98682060062633
-0.044900066705002 0.276189623249996 1.99097658032181
0.0014978975526737 0.273288046453264 1.99728465885938
0.0465947707333455 0.270447246787193 2.00355396692197
0.0873326615721941 0.263533553284041 2.01301738671328
0.119250485597886 0.2607790900669 2.04613904933535
-0.214847720859152 0.300106055537933 2.01754072503076
-0.160703460147503 0.303716048210574 2.02333563761789
-0.114907772683045 0.300392449893633 2.02890476994576
-0.0698146559824241 0.296621571010052 2.03259402131556
-0.0240286969344806 0.292805896409381 2.03642862682354
0.023140670688287 0.289726728318809 2.0433564933738
0.0701120732911955 0.284448303545087 2.05302371274773
3 0 1 2
3 0 2 4
3 3 0 4
3 3 4 6
3 5 3 6
3 5 6 8
3 7 5 8
3 7 8 10
3 9 7 10
3 9 10 12
3 11 9 12
3 13 11 14
3 14 11 12
3 13 14 15
3 16 17 18
3 16 18 1
3 0 19 1
3 19 16 1
3 0 3 20
3 19 0 20
3 3 5 21
3 20 3 21
3 5 7 22
3 21 5 22
3 7 9 23
3 22 7 23
3 9 11 24
3 23 9 24
3 24 11 25
3 25 11 13
3 13 15 26
3 27 13 26
3 25 13 27
3 27 26 28
3 17 16 30
3 30 16 29
3 29 19 31
3 29 16 19
3 31 20 32
3 31 19 20
3 32 21 33
3 32 20 21
3 21 22 33
3 33 22 34
3 22 23 34
3 34 23 35
3 23 24 35
3 35 24 36
3 24 25 36
3 36 25 37
3 37 27 38
3 37 25 27
3 38 28 39
3 38 27 28
3 30 40 41
3 30 29 40
3 29 31 42
3 40 29 42
3 31 32 43
3 42 31 43
3 32 33 44
3 43 32 44
3 33 34 45
3 44 33 45
3 34 35 46
3 45 34 46
3 35 36 47
3 46 35 47
3 36 37 47
3 47 37 48
3 37 38 48
3 48 38 49
3 49 39 50
3 49 38 39
3 40 51 52
3 41 40 52
3 51 42 53
3 51 40 42
3 42 43 53
3 53 43 54
3 43 44 54
3 54 44 55
3 44 45 55
3 55 45 56
3 45 46 56
3 56 46 57
3 46 47 58
3 57 46 58
3 47 48 59
3 58 47 59
3 48 49 60
3 59 48 60
3 49 50 61
3 60 49 61
3 51 62 63
3 52 51 63
3 51 53 64
3 62 51 64
3 53 54 65
3 64 53 65
3 54 55 66
3 65 54 66
3 55 56 67
3 66 55 67
3 56 57 67
3 67 57 68
3 57 58 69
3 68 57 69
3 58 59 69
3 69 59 70
3 59 60 70
3 70 60 71
3 71 61 72
3 71 60 61
3 62 73 74
3 63 62 74
3 62 64 75
3 73 62 75
3 64 65 75
3 75 65 76
3 65 66 76
3 76 66 77
3 66 67 77
3 77 67 78
3 67 68 78
3 78 68 79
3 79 69 80
3 79 68 69
3 80 70 81
3 80 69 70
3 81 71 82
3 81 70 71
3 82 72 83
3 82 71 72
3 74 73 85
3 85 73 84
3 84 73 86
3 86 73 75
3 75 76 86
3 86 76 87
3 76 77 88
3 87 76 88
3 77 78 89
3 88 77 89
3 78 79 90
3 89 78 90
3 79 80 91
3 90 79 91
3 80 81 92
3 91 80 92
3 81 82 93
3 92 81 93
3 93 83 94
3 93 82 83
3 84 95 85
3 84 86 96
3 97 84 96
3 95 84 97
3 96 87 98
3 96 86 87
3 87 88 98
3 98 88 99
3 88 89 99
3 99 89 100
3 89 90 100
3 100 90 101
3 101 91 102
3 101 90 91
3 102 92 103
3 102 91 92
3 92 93 103
3 105 103 104
3 103 93 104
3 93 94 104
3 96 106 97
3 96 98 107
3 106 96 107
3 98 99 108
3 107 98 108
3 99 100 109
3 108 99 109
3 100 101 110
3 109 100 110
3 101 102 111
3 110 101 111
3 111 102 112
3 112 102 103
3 103 105 112
3 117 114 115
3 116 113 117
3 117 113 114
3 116 117 119
3 118 116 119
3 118 119 121
3 120 118 121
3 120 121 123
3 122 120 123
3 122 123 125
3 124 122 125
3 124 125 127
3 126 124 127
3 126 127 128
3 129 130 131
3 114 129 131
3 114 113 129
3 113 2 129
3 129 2 1
3 4 113 116
3 4 2 113
3 6 116 118
3 6 4 116
3 8 118 120
3 8 6 118
3 10 120 122
3 10 8 120
3 12 122 124
3 12 10 122
3 14 124 126
3 14 12 124
3 133 126 128
3 15 14 126
3 15 126 133
3 132 15 133
3 132 133 134
3 135 136 137
3 137 17 135
3 137 18 17
3 18 137 130
3 129 18 130
3 18 129 1
3 15 132 26
3 139 132 134
3 139 138 132
3 138 28 26
3 132 138 26
3 138 139 140
3 136 135 142
3 142 135 141
3 17 30 135
3 135 30 141
3 143 39 28
3 138 143 28
3 143 140 144
3 143 138 140
3 141 145 146
3 142 141 146
3 41 145 141
3 30 41 141
3 147 39 143
3 147 50 39
3 147 144 148
3 147 143 144
3 145 149 150
3 146 145 150
3 52 149 145
3 41 52 145
3 151 50 147
3 151 155 50
3 151 148 152
3 151 147 148
3 149 153 154
3 150 149 154
3 63 153 149
3 52 63 149
3 155 61 50
3 155 72 61
3 155 151 156
3 156 151 152
3 154 157 158
3 154 153 157
3 74 157 153
3 63 74 153
3 159 72 155
3 159 83 72
3 159 156 160
3 159 155 156
3 158 157 162
3 162 157 161
3 74 85 161
3 157 74 161
3 163 83 159
3 163 94 83
3 163 160 164
3 163 159 160
3 161 165 162
3 165 95 166
3 165 161 95
3 161 85 95
3 165 166 167
3 95 97 166
3 105 104 168
3 170 94 163
3 170 168 94
3 169 168 170
3 94 168 104
3 163 164 170
3 166 171 167
3 173 171 172
3 172 171 106
3 171 97 106
3 171 166 97
3 172 107 174
3 172 106 107
3 174 108 175
3 174 107 108
3 175 109 176
3 175 108 109
3 176 110 177
3 176 109 110
3 177 111 178
3 177 110 111
3 178 112 180
3 178 111 112
3 181 105 168
3 181 180 105
3 179 178 180
3 180 112 105
3 168 169 181
3 172 182 173
3 182 172 183
3 183 172 174
3 174 175 184
3 183 174 184
3 175 176 185
3 184 175 185
3 176 177 186
3 185 176 186
3 177 178 187
3 186 177 187
3 187 179 188
3 187 178 179
3 179 180 229
3 189 190 191
3 114 131 191
3 115 114 191
3 115 191 192
3 115 192 193
3 117 115 193
3 119 193 194
3 119 117 193
3 119 194 121
3 121 194 195
3 121 195 123
3 123 195 196
3 123 196 125
3 125 196 197
3 127 197 198
3 127 125 197
3 128 198 199
3 200 128 199
3 128 127 198
3 200 199 201
3 202 203 204
3 131 130 189
3 190 189 204
3 189 130 202
3 189 202 204
3 131 189 191
3 128 200 133
3 134 200 205
3 206 205 201
3 134 133 200
3 205 200 201
3 205 206 207
3 136 208 203
3 202 137 136
3 202 136 203
3 137 202 130
3 134 205 139
3 139 205 207
3 140 139 207
3 211 207 209
3 136 142 208
3 208 142 210
3 211 140 207
3 211 144 140
3 146 212 210
3 142 146 210
3 148 144 213
3 213 144 211
3 150 214 212
3 146 150 212
3 215 148 213
3 215 152 148
3 154 216 150
3 150 216 214
3 219 152 217
3 217 152 215
3 158 218 216
3 154 158 216
3 219 156 152
3 219 160 156
3 158 220 218
3 158 162 220
3 221 160 219
3 221 164 160
3 162 165 222
3 223 220 222
3 220 162 222
3 165 167 222
3 169 170 224
3 225 164 221
3 224 170 164
3 224 164 225
3 222 226 223
3 167 171 227
3 226 167 227
3 226 227 228
3 226 222 167
3 171 173 227
3 180 181 229
3 181 169 230
3 231 169 224
3 230 169 231
3 230 229 181
3 224 225 271
3 227 232 228
3 232 182 233
3 232 173 182
3 227 173 232
3 182 183 234
3 233 182 234
3 183 184 234
3 234 184 235
3 184 185 235
3 235 185 236
3 185 186 236
3 236 186 237
3 186 187 237
3 237 187 238
3 238 188 239
3 238 187 188
3 188 179 229
3 240 239 188
3 240 188 229
3 229 230 240
3 191 190 242
3 242 190 241
3 192 242 243
3 192 191 242
3 192 243 244
3 193 192 244
3 194 244 245
3 194 193 244
3 194 245 246
3 195 194 246
3 195 246 247
3 196 195 247
3 196 247 248
3 197 196 248
3 197 248 249
3 198 197 249
3 199 198 249
3 250 199 249
3 201 199 251
3 251 199 250
3 204 252 253
3 204 203 252
3 190 253 241
3 190 204 253
3 206 251 254
3 206 201 251
3 207 206 255
3 255 206 254
3 203 256 252
3 203 208 256
3 257 209 255
3 255 209 207
3 210 258 208
3 208 258 256
3 211 209 259
3 259 209 257
3 212 260 210
3 210 260 258
3 213 211 259
3 261 213 259
3 214 262 260
3 212 214 260
3 215 213 261
3 263 215 261
3 216 264 214
3 214 264 262
3 217 215 263
3 265 217 263
3 218 266 264
3 216 218 264
3 219 217 265
3 267 219 265
3 218 268 266
3 218 220 268
3 221 219 267
3 269 221 267
3 223 270 268
3 220 223 268
3 225 221 269
3 271 225 269
3 223 226 272
3 270 223 272
3 272 228 273
3 272 226 228
3 274 231 275
3 274 230 231
3 275 231 271
3 271 231 224
3 273 228 276
3 276 228 232
3 276 233 277
3 276 232 233
3 233 234 278
3 277 233 278
3 234 235 279
3 278 234 279
3 235 236 280
3 279 235 280
3 236 237 281
3 280 236 281
3 237 238 282
3 281 237 282
3 238 239 283
3 282 238 283
3 327 239 284
3 284 239 240
3 240 230 274
3 284 240 274
3 241 285 286
3 242 241 286
3 242 286 243
3 243 286 287
3 243 287 288
3 244 243 288
3 245 288 289
3 245 244 288
3 245 289 246
3 246 289 290
3 246 290 247
3 247 290 291
3 247 291 248
3 248 291 292
3 248 292 293
3 249 248 293
3 249 293 250
3 250 293 294
3 250 294 295
3 251 250 295
3 252 296 297
3 253 252 297
3 241 297 285
3 241 253 297
3 254 295 298
3 254 251 295
3 254 298 299
3 255 254 299
3 256 300 252
3 252 300 296
3 257 255 299
3 301 257 299
3 258 302 300
3 256 258 300
3 259 257 303
3 303 257 301
3 260 304 258
3 258 304 302
3 261 259 303
3 305 261 303
3 262 306 304
3 260 262 304
3 263 261 305
3 307 263 305
3 264 308 262
3 262 308 306
3 265 263 307
3 309 265 307
3 266 310 308
3 264 266 308
3 267 265 309
3 311 267 309
3 266 312 310
3 266 268 312
3 269 267 311
3 313 269 311
3 270 314 312
3 268 270 312
3 271 269 315
3 315 269 313
3 270 272 316
3 314 270 316
3 316 273 317
3 316 272 273
3 318 275 319
3 318 274 275
3 275 271 315
3 319 275 315
3 273 276 320
3 317 273 320
3 276 277 320
3 320 277 321
3 277 278 322
3 321 277 322
3 322 279 323
3 322 278 279
3 279 280 323
3 323 280 324
3 280 281 324
3 324 281 325
3 281 282 325
3 325 282 326
3 282 283 326
3 326 283 327
3 283 239 327
3 327 284 328
3 284 274 318
3 328 284 318
3 285 329 330
3 286 285 330
3 286 330 287
3 287 330 331
3 287 331 332
3 288 287 332
3 288 332 289
3 289 332 333
3 289 333 334
3 290 289 334
3 290 334 335
3 291 290 335
3 291 335 292
3 292 335 336
3 292 336 337
3 293 292 337
3 293 337 294
3 294 337 338
3 294 338 339
3 295 294 339
3 296 340 341
3 297 296 341
3 285 341 329
3 285 297 341
3 298 339 342
3 298 295 339
3 298 342 343
3 299 298 343
3 300 344 296
3 296 344 340
3 301 299 343
3 345 301 343
3 302 346 344
3 300 302 344
3 303 301 347
3 347 301 345
3 304 348 302
3 302 348 346
3 305 303 347
3 349 305 347
3 306 350 348
3 304 306 348
3 307 305 351
3 351 305 349
3 308 352 306
3 306 352 350
3 309 307 353
3 353 307 351
3 310 354 352
3 308 310 352
3 311 309 355
3 355 309 353
3 312 356 310
3 310 356 354
3 313 311 355
3 357 313 355
3 314 358 356
3 312 314 356
3 315 313 359
3 359 313 357
3 314 316 360
3 358 314 360
3 360 317 361
3 360 316 317
3 362 319 363
3 362 318 319
3 319 315 359
3 363 319 359
3 317 320 364
3 361 317 364
3 320 321 364
3 364 321 365
3 321 322 366
3 365 321 366
3 322 323 366
3 366 323 367
3 323 324 368
3 367 323 368
3 324 325 369
3 368 324 369
3 325 326 370
3 369 325 370
3 326 327 371
3 370 326 371
3 327 328 371
3 371 328 372
3 328 318 362
3 372 328 362
3 329 373 374
3 330 329 374
3 330 374 331
3 331 374 375
3 331 375 376
3 332 331 376
3 332 376 333
3 333 376 377
3 333 377 378
3 334 333 378
3 334 378 379
3 335 334 379
3 335 379 336
3 336 379 380
3 336 380 381
3 337 336 381
3 337 381 338
3 338 381 382
3 338 382 383
3 339 338 383
3 340 384 385
3 341 340 385
3 329 385 373
3 329 341 385
3 342 383 386
3 342 339 383
3 342 386 387
3 343 342 387
3 344 388 340
3 340 388 384
3 345 343 387
3 389 345 387
3 346 390 388
3 344 346 388
3 347 345 391
3 391 345 389
3 348 392 346
3 346 392 390
3 349 347 391
3 393 349 391
3 350 394 348
3 348 394 392
3 351 349 395
3 395 349 393
3 352 396 350
3 350 396 394
3 353 351 395
3 397 353 395
3 354 398 396
3 352 354 396
3 355 353 399
3 399 353 397
3 356 400 354
3 354 400 398
3 357 355 399
3 401 357 399
3 358 402 400
3 356 358 400
3 359 357 403
3 403 357 401
3 358 360 404
3 402 358 404
3 404 361 405
3 404 360 361
3 406 363 407
3 406 362 363
3 363 359 403
3 407 363 403
3 361 364 408
3 405 361 408
3 364 365 408
3 408 365 409
3 365 366 410
3 409 365 410
3 366 367 410
3 410 367 411
3 367 368 412
3 411 367 412
3 368 369 412
3 412 369 413
3 369 370 413
3 413 370 414
3 370 371 415
3 414 370 415
3 371 372 415
3 415 372 416
3 372 362 406
3 416 372 406
3 373 417 418
3 374 373 418
3 374 418 375
3 375 418 419
3 375 419 420
3 376 375 420
3 376 420 377
3 377 420 421
3 377 421 422
3 378 377 422
3 378 422 423
3 379 378 423
3 380 423 424
3 380 379 423
3 380 424 425
3 381 380 425
3 382 425 426
3 382 381 425
3 382 426 427
3 383 382 427
3 384 428 429
3 385 384 429
3 373 429 417
3 373 385 429
3 386 427 430
3 386 383 427
3 386 430 431
3 387 386 431
3 384 432 428
3 384 388 432
3 389 387 431
3 433 389 431
3 390 434 432
3 388 390 432
3 435 389 433
3 435 391 389
3 390 436 434
3 390 392 436
3 393 391 435
3 437 393 435
3 394 438 436
3 392 394 436
3 395 393 439
3 439 393 437
3 396 440 438
3 394 396 438
3 397 395 439
3 441 397 439
3 398 442 440
3 396 398 440
3 399 397 443
3 443 397 441
3 400 444 398
3 398 444 442
3 401 399 443
3 445 401 443
3 402 446 444
3 400 402 444
3 403 401 447
3 447 401 445
3 402 404 448
3 446 402 448
3 448 405 449
3 448 404 405
3 450 407 451
3 450 406 407
3 407 403 447
3 451 407 447
3 405 408 452
3 449 405 452
3 408 409 452
3 452 409 453
3 409 410 454
3 453 409 454
3 410 411 454
3 454 411 455
3 411 412 456
3 455 411 456
3 412 413 456
3 456 413 457
3 457 414 458
3 457 413 414
3 414 415 459
3 458 414 459
3 415 416 459
3 459 416 460
3 416 406 450
3 460 416 450
3 418 461 462
3 418 417 461
3 419 462 463
3 419 418 462
3 419 463 464
3 420 419 464
3 420 464 421
3 421 464 465
3 421 465 466
3 422 421 466
3 422 466 467
3 423 422 467
3 424 467 468
3 424 423 467
3 424 468 469
3 425 424 469
3 426 469 470
3 426 425 469
3 427 426 471
3 471 426 470
3 429 428 473
3 473 428 472
3 417 473 505
3 417 429 473
3 430 427 471
3 520 430 471
3 431 474 475
3 431 430 474
3 428 476 472
3 428 432 476
3 433 431 475
3 477 433 475
3 434 478 476
3 432 434 476
3 479 433 477
3 479 435 433
3 434 480 478
3 434 436 480
3 437 435 479
3 481 437 479
3 438 482 436
3 436 482 480
3 439 437 483
3 483 437 481
3 440 484 482
3 438 440 482
3 441 439 483
3 485 441 483
3 442 486 440
3 440 486 484
3 443 441 487
3 487 441 485
3 444 488 442
3 442 488 486
3 445 443 487
3 489 445 487
3 444 446 488
3 488 446 490
3 491 445 489
3 491 447 445
3 490 446 492
3 492 446 448
3 492 449 493
3 492 448 449
3 494 451 495
3 494 450 451
3 451 447 491
3 495 451 491
3 449 452 496
3 493 449 496
3 496 453 497
3 496 452 453
3 453 454 498
3 497 453 498
3 498 455 499
3 498 454 455
3 455 456 500
3 499 455 500
3 456 457 501
3 500 456 501
3 457 458 502
3 501 457 502
3 458 459 503
3 502 458 503
3 503 460 504
3 503 459 460
3 504 460 494
3 494 460 450
3 461 505 506
3 462 461 506
3 507 463 462
3 507 462 506
3 465 463 508
3 508 463 507
3 464 463 465
3 465 508 509
3 465 509 466
3 466 509 510
3 466 510 467
3 467 510 511
3 467 511 468
3 468 511 512
3 468 512 513
3 469 468 513
3 469 513 470
3 515 470 514
3 470 513 514
3 470 515 471
3 472 516 473
3 518 516 517
3 518 505 516
3 461 417 505
3 505 473 516
3 505 518 506
3 515 514 519
3 474 430 520
3 521 520 519
3 520 471 515
3 520 515 519
3 474 520 524
3 476 522 472
3 516 472 523
3 472 522 523
3 516 523 517
3 520 521 524
3 477 475 524
3 524 475 474
3 525 477 524
3 478 526 522
3 476 478 522
3 527 477 525
3 527 479 477
3 478 528 526
3 478 480 528
3 481 479 527
3 529 481 527
3 482 530 480
3 480 530 528
3 483 481 531
3 531 481 529
3 484 532 530
3 482 484 530
3 485 483 531
3 533 485 531
3 486 534 484
3 484 534 532
3 535 485 533
3 535 487 485
3 486 536 534
3 486 488 536
3 537 489 535
3 535 489 487
3 490 538 539
3 536 490 539
3 488 490 536
3 538 540 539
3 541 542 543
3 541 489 537
3 542 541 537
3 541 491 489
3 490 492 538
3 545 493 544
3 538 492 493
3 538 493 545
3 540 538 545
3 544 546 545
3 547 548 549
3 543 495 541
3 547 494 495
3 547 495 543
3 608 547 543
3 495 491 541
3 493 496 544
3 544 497 550
3 546 544 550
3 544 496 497
3 550 497 551
3 551 497 498
3 498 499 551
3 551 499 552
3 499 500 552
3 552 500 553
3 500 501 553
3 553 501 554
3 554 502 555
3 554 501 502
3 502 503 556
3 555 502 556
3 503 504 556
3 549 504 547
3 556 504 549
3 504 494 547
3 506 557 507
3 507 557 558
3 508 507 558
3 508 558 559
3 509 508 559
3 509 559 560
3 510 509 560
3 510 560 561
3 511 510 561
3 511 561 562
3 512 511 562
3 514 512 563
3 563 512 562
3 513 512 514
3 517 564 518
3 518 564 557
3 566 564 565
3 557 564 566
3 557 506 518
3 558 566 567
3 558 557 566
3 559 567 568
3 559 558 567
3 560 568 569
3 560 559 568
3 561 569 570
3 561 560 569
3 562 570 571
3 562 561 570
3 563 562 571
3 572 563 571
3 574 514 563
3 572 574 563
3 573 519 574
3 574 519 514
3 519 573 521
3 522 575 523
3 577 575 576
3 577 517 575
3 564 517 577
3 575 517 523
3 564 577 565
3 573 574 572
3 521 573 579
3 580 573 578
3 579 573 580
3 579 524 521
3 524 579 525
3 522 581 575
3 522 526 581
3 576 581 582
3 576 575 581
3 583 580 584
3 583 579 580
3 583 525 579
3 583 527 525
3 526 585 581
3 526 528 585
3 582 585 586
3 582 581 585
3 587 584 588
3 587 583 584
3 587 527 583
3 587 529 527
3 528 589 585
3 528 530 589
3 586 589 590
3 586 585 589
3 591 588 592
3 591 587 588
3 591 529 587
3 591 531 529
3 532 593 589
3 530 532 589
3 590 593 594
3 590 589 593
3 595 592 596
3 595 591 592
3 595 531 591
3 595 533 531
3 534 597 593
3 532 534 593
3 594 597 598
3 594 593 597
3 599 596 600
3 599 595 596
3 599 533 595
3 599 535 533
3 534 601 597
3 534 536 601
3 602 597 601
3 602 598 597
3 603 599 600
3 604 603 600
3 603 535 599
3 603 537 535
3 536 539 601
3 606 540 605
3 606 602 540
3 602 601 539
3 540 602 539
3 605 607 606
3 608 609 610
3 608 543 609
3 604 542 603
3 609 543 542
3 609 542 604
3 542 537 603
3 540 545 605
3 605 546 607
3 612 607 611
3 605 545 546
3 607 546 611
3 612 613 614
3 612 611 613
3 614 615 616
3 614 613 615
3 616 617 618
3 616 615 617
3 618 619 620
3 618 617 619
3 620 621 622
3 620 619 621
3 622 623 624
3 622 621 623
3 610 548 608
3 624 623 548
3 624 548 610
3 548 623 549
3 548 547 608
3 546 550 611
3 611 550 613
3 613 550 551
3 551 552 615
3 613 551 615
3 552 553 617
3 615 552 617
3 553 554 619
3 617 553 619
3 554 555 621
3 619 554 621
3 621 555 623
3 623 555 556
3 556 549 623
3 565 625 626
3 567 566 626
3 626 566 565
3 567 626 627
3 568 567 627
3 568 627 628
3 569 568 628
3 569 628 629
3 570 569 629
3 570 629 630
3 571 570 630
3 572 571 631
3 631 571 630
3 572 631 578
3 576 632 577
3 625 632 633
3 565 577 632
3 565 632 625
3 625 633 634
3 626 625 634
3 626 634 627
3 627 634 635
3 627 635 628
3 628 635 636
3 628 636 629
3 629 636 637
3 629 637 630
3 630 637 638
3 631 638 639
3 631 630 638
3 640 578 639
3 578 573 572
3 578 631 639
3 578 640 580
3 576 641 632
3 576 582 641
3 633 641 642
3 633 632 641
3 633 642 643
3 634 633 643
3 634 643 644
3 635 634 644
3 635 644 645
3 636 635 645
3 636 645 646
3 637 636 646
3 637 646 647
3 638 637 647
3 638 647 648
3 639 638 648
3 640 648 649
3 640 639 648
3 584 580 640
3 649 584 640
3 582 650 641
3 582 586 650
3 642 650 651
3 642 641 650
3 642 651 652
3 643 642 652
3 643 652 653
3 644 643 653
3 644 653 645
3 645 653 654
3 645 654 646
3 646 654 655
3 646 655 647
3 647 655 656
3 647 656 648
3 648 656 657
3 648 657 649
3 649 657 658
3 588 584 649
3 658 588 649
3 586 659 650
3 586 590 659
3 650 659 651
3 651 659 660
3 651 660 661
3 652 651 661
3 652 661 662
3 653 652 662
3 653 662 654
3 654 662 663
3 654 663 664
3 655 654 664
3 655 664 665
3 656 655 665
3 656 665 666
3 657 656 666
3 657 666 658
3 658 666 667
3 592 588 658
3 667 592 658
3 590 668 659
3 590 594 668
3 660 668 669
3 660 659 668
3 660 669 670
3 661 660 670
3 661 670 671
3 662 661 671
3 662 671 663
3 663 671 672
3 663 672 664
3 664 672 673
3 664 673 665
3 665 673 674
3 665 674 666
3 666 674 675
3 666 675 667
3 667 675 676
3 596 592 667
3 676 596 667
3 594 677 668
3 594 598 677
3 668 677 669
3 669 677 678
3 669 678 679
3 670 669 679
3 670 679 680
3 671 670 680
3 671 680 681
3 672 671 681
3 672 681 682
3 673 672 682
3 673 682 683
3 674 673 683
3 674 683 684
3 675 674 684
3 676 684 685
3 676 675 684
3 600 596 676
3 685 600 676
3 598 686 677
3 598 602 606
3 678 686 687
3 678 677 686
3 678 687 679
3 679 687 688
3 679 688 680
3 680 688 689
3 680 689 681
3 681 689 690
3 681 690 682
3 682 690 691
3 683 691 692
3 683 682 691
3 684 692 693
3 684 683 692
3 685 693 694
3 685 684 693
3 694 604 685
3 685 604 600
3 598 606 686
3 606 607 695
3 686 606 695
3 686 695 687
3 688 687 696
3 696 687 695
3 688 696 697
3 689 688 697
3 689 697 698
3 690 689 698
3 690 698 699
3 691 690 699
3 691 699 700
3 692 691 700
3 692 700 701
3 693 692 701
3 610 609 694
3 701 610 694
3 701 694 693
3 609 604 694
3 607 612 695
3 695 612 696
3 696 612 614
3 614 616 697
3 696 614 697
3 616 618 698
3 697 616 698
3 618 620 699
3 698 618 699
3 620 622 700
3 699 620 700
3 622 624 701
3 700 622 701
3 624 610 701
