OFF
702 1400 0
-0.252868416070617 -0.345580591727803 2.14220366907703
-0.298400517893695 -0.331478232796227 2.1250012358149
-0.2701604038685 -0.349545974473436 2.09674496368765
-0.205940448264883 -0.352000191150938 2.14660337393877
-0.224132102428622 -0.360124365285219 2.10151588764354
-0.159091403194285 -0.356410357163739 2.14952281613081
-0.177705799390925 -0.364072582139689 2.10343321649432
-0.113677391598289 -0.360231313019714 2.15367050272763
-0.132345902939182 -0.367808239430828 2.10506161555177
-0.0687498758251147 -0.363875439950191 2.15818258244387
-0.0875538004476841 -0.371252126897632 2.10950183846365
-0.0212189452771376 -0.366848071640535 2.16562592121602
-0.0417335954258276 -0.37449067323698 2.11780361160936
0.0268575721731848 -0.362365966779834 2.17410290929355
0.00560317964102765 -0.376048416027084 2.12669549553066
0.0520597895304764 -0.367149843369959 2.13577743872832
-0.321202292438859 -0.304264561122943 2.1543948632986
-0.351082597606724 -0.286031117451716 2.12770429648252
-0.329693919451547 -0.314679723909669 2.09803141148979
-0.280622951945206 -0.320706914933855 2.17341060215505
-0.233850600787543 -0.329830839530962 2.18499442747878
-0.186109431272452 -0.334893573775241 2.18856717716259
-0.139305829794368 -0.338649069352683 2.19372724951174
-0.094057005586624 -0.341886559888414 2.199359490704
-0.0497164643014927 -0.346986552204771 2.2016690850222
-0.00105666259701914 -0.347671857214903 2.20884877332493
0.0726964330522769 -0.346070559703973 2.18038113161672
0.0440460382744396 -0.335488157764532 2.21704719950334
0.0899841700152953 -0.314880083791177 2.21552111586587
-0.308379478985597 -0.285025261131024 2.19675814244415
-0.348686107070059 -0.263756808033825 2.16964141225201
-0.262296259317596 -0.298813692465613 2.21371336206414
-0.212297681746446 -0.305078991155564 2.22147769958819
-0.164662023007446 -0.30922402681463 2.22648389783502
-0.117015790467002 -0.311548971069957 2.23353171614366
-0.0722854438356245 -0.314159714071348 2.23966757478101
-0.0299725644285434 -0.323110103597567 2.23821411387312
0.0113126584036178 -0.314952554839144 2.24915116690183
0.0568673723171185 -0.30123693591726 2.25106824171746
0.101501935222433 -0.278323391672975 2.24540758323839
-0.326895666924028 -0.248791332931627 2.21891757656304
-0.360229200853603 -0.226511745821388 2.193352312102
-0.28579935664356 -0.264223863468334 2.23943009636352
-0.236701452047444 -0.274881811510514 2.25016641872273
-0.187914624016418 -0.27695549239452 2.25791611995971
-0.140424107285076 -0.281507143764811 2.26243832289562
-0.0889111311291747 -0.282300364356875 2.27198406863148
-0.0339884710097086 -0.291282411765031 2.27304854679436
0.016402255881337 -0.283945907021005 2.28260806014667
0.066757863295598 -0.267970290312069 2.28186882425064
0.111301718426653 -0.241214984971215 2.27498397020852
-0.311125274856817 -0.22627761462272 2.26238681185599
-0.351755558257767 -0.207508852569694 2.23207901900076
-0.2617502044392 -0.243669172632065 2.27654251280165
-0.214315656575395 -0.245999599934916 2.28724105001673
-0.168757555578506 -0.246982038294885 2.29536906394549
-0.124753848407589 -0.254478599161363 2.29588620743757
-0.0913125112318729 -0.243048903250266 2.31546131909191
-0.0563438687605574 -0.261497362144526 2.30188169839986
-0.0140452413965534 -0.258092628978719 2.31282476785914
0.0338087457641721 -0.251230324474865 2.31438771978338
0.0817096368620433 -0.23188238750819 2.31092942046675
-0.314566689752757 -0.187446168737344 2.30418367728828
-0.342622369862288 -0.188455377566187 2.26928157242151
-0.281474558364553 -0.21338963072423 2.30047623405596
-0.234370492928561 -0.216032603674069 2.31673663477022
-0.189626270311209 -0.214853130815564 2.32712917864287
-0.140674218109151 -0.219611262162822 2.3317150532911
-0.0952721402174371 -0.214071976924162 2.34711633856732
-0.0477623543219159 -0.226873917347811 2.34240068627404
0.0002640706081012 -0.226514045838744 2.34776054988596
0.0479735327509791 -0.218682908299188 2.34456853408495
0.0952620278866322 -0.195870743103292 2.33834759799137
-0.304113239265943 -0.16435575633551 2.34042244107836
-0.348354186003216 -0.150569896714928 2.30583822733406
-0.265257853501654 -0.188406976348438 2.33761504246077
-0.219319787721781 -0.182589064369432 2.35725105808535
-0.169243876327793 -0.186909997757616 2.36255534519262
-0.12343715689527 -0.18669352154019 2.37207718361161
-0.0718707919405384 -0.190552992484089 2.37819914950408
-0.0268774374145241 -0.196797209808039 2.37993974293958
0.0194758387208599 -0.193587778862621 2.38125769040569
0.0633453010407267 -0.185619154772584 2.3725307389404
0.0995433575459527 -0.159621006478454 2.37248188690997
-0.299588653833888 -0.126050323688984 2.37781158398684
-0.333411313458928 -0.133682606722719 2.34435233196917
-0.265939639248715 -0.15579593325439 2.37210141638604
-0.231426923556105 -0.144394362595082 2.39036296188531
-0.188626378702949 -0.152709595350211 2.39164927036349
-0.143495196883215 -0.152918145642287 2.39937124701004
-0.0962567757855685 -0.156214982053367 2.40514202441694
-0.0476122147721751 -0.160270864373423 2.41059969346334
0.000697543208836068 -0.163125250726765 2.41216862410617
0.0522311264239671 -0.156758254155824 2.40476868966897
0.0993617167191862 -0.124964907686784 2.39826916247665
-0.34105415296819 -0.0951915234566803 2.36288307321831
-0.262491718352736 -0.107483847082082 2.40446625589089
-0.306209822989921 -0.0828474909756817 2.39460905092544
-0.213011507714443 -0.108161583723883 2.41368468250471
-0.166936327355593 -0.11285861433081 2.41859591864005
-0.120244492474834 -0.113866882689956 2.42517695574555
-0.0744055031887726 -0.11843498721876 2.43011827249781
-0.0276971688909988 -0.122899511543724 2.43494564017381
0.0189781843353537 -0.124221923619752 2.43282790282079
0.0632681664806855 -0.117298079093686 2.42289187909169
0.0447812991952504 -0.0792426698669303 2.44105255450741
-0.279486426448166 -0.0564270428963821 2.41363485568007
-0.236973158810868 -0.0657082800806774 2.42321962589788
-0.187920978258475 -0.0675673252634585 2.42936878674013
-0.142149734076038 -0.0687021067399731 2.43517399319575
-0.0958461167228402 -0.0701520760133116 2.44097074626233
-0.0512283886908912 -0.0768476479265054 2.44567795945299
-0.00348651079940709 -0.0810877552446162 2.44846938369977
-0.24816786467447 -0.355581455805667 2.05721476922965
-0.272054942434618 -0.34033795674567 2.02234257644673
-0.248569645799385 -0.331919818237019 1.98509589435283
-0.198514075363628 -0.361831630243097 2.05759828008505
-0.220205989600539 -0.351307221607348 2.01692011755765
-0.152442239163733 -0.364451251394716 2.05684569906483
-0.172052791355996 -0.351311973389847 2.01136737839195
-0.107008735303388 -0.3674085225514 2.05927884030155
-0.126731664121612 -0.352820566392929 2.01200644908903
-0.0616543408907324 -0.371198903198476 2.06684793318059
-0.0791315111924168 -0.356582924150614 2.01801677181085
-0.0167131353790288 -0.37531470093959 2.07709320853605
-0.0333818536233467 -0.36152449460585 2.02705894006568
0.029338626018177 -0.374113307905067 2.08568997490436
0.0108618400782153 -0.366030621449399 2.03820780518785
0.0587491585966032 -0.359314351400773 2.0474906193491
-0.299828503561689 -0.33587810917468 2.06582829181356
-0.338453605207813 -0.304921934696568 2.05108529752789
-0.308831323245422 -0.319122197821813 2.01806774957965
0.0966907400510825 -0.34694769350235 2.1408260097493
0.0724514130370853 -0.362618505005894 2.09544222037766
0.112023228810903 -0.341122002834395 2.09833501016502
-0.376532467807215 -0.250106051150561 2.11952620458797
-0.386928581983664 -0.235673175793916 2.07049019647179
-0.363952596002341 -0.278572060698843 2.08171522436039
0.117661085059342 -0.319996310794455 2.1755552912041
0.138222029197152 -0.316509235322317 2.13131804984783
0.155215871665156 -0.286312253170228 2.15987080211585
-0.378780016602652 -0.222802538023545 2.15215586024559
-0.394727267911149 -0.204893146048966 2.10654994509411
0.131445870818384 -0.285373103544835 2.20524630505219
0.162369050000705 -0.248286754262591 2.19209302762131
-0.382637097429084 -0.185680297686216 2.18757485070037
-0.395369400310244 -0.176574968717318 2.14416870535538
0.139172502527013 -0.246208390252753 2.23492194464408
0.168663775910415 -0.207449043689035 2.21805955628481
-0.377160109759464 -0.168183567525469 2.22612973793596
-0.397751217832374 -0.138138948284816 2.18512785835692
0.147700721272242 -0.206254955062201 2.26207645512592
0.172955898122335 -0.166681369823261 2.24603643076163
-0.369325613946667 -0.151750560191372 2.26575621189362
-0.393253018213897 -0.12225039454874 2.2311177619703
0.124489923401609 -0.201207414977306 2.30155966140783
0.156871368184556 -0.162304142508081 2.28898644308656
-0.383220357195209 -0.112390934694581 2.27959324639561
-0.40161946588485 -0.0768877986337765 2.24979796941629
0.131781338145211 -0.162541712014934 2.33173073907274
0.161849052464327 -0.123493898007644 2.31637168513456
-0.367719403838277 -0.106490231517255 2.32136513846479
-0.392114694581475 -0.0676759465068109 2.29758612373157
0.135125419887487 -0.126502981574023 2.36158022919416
0.15868371046302 -0.0878654932575215 2.34947396442128
-0.370727129196269 -0.0621526542713064 2.34072428839785
-0.338673707476698 -0.0522722796599496 2.37867879963968
-0.35855989303361 -0.0181249753586186 2.36044288633795
0.0919753556052172 -0.0789901379487954 2.42029572832412
0.115156247039534 -0.0389573497371237 2.40776115281037
0.128756015163262 -0.0856726502065825 2.38955216126693
-0.313287733616244 -0.0254318213270884 2.39901626058342
-0.260855212169654 -0.015506048303603 2.42129740271392
-0.292895666467718 0.0132738637456454 2.40509333137949
-0.211238447164714 -0.0243193826251193 2.4297141378043
-0.163998385181338 -0.021470849539962 2.43499044978044
-0.117388274584518 -0.0229152871311294 2.44034847480814
-0.0705642025119753 -0.0244250586396871 2.44571404742784
-0.0275755235085675 -0.0352393779414438 2.45118863550199
-0.00223086581907207 0.00148695368231115 2.44676984278629
0.0231152144808679 -0.0386620420015134 2.44922904936754
0.0718280932672782 -0.0375781753682057 2.43434865060065
-0.259490840390971 0.0425571978286115 2.40849097744223
-0.227810903736664 0.0184292216246717 2.42213662740407
-0.183708567518903 0.0237531063591444 2.42502222395758
-0.137619924742842 0.0237351341948599 2.42941472234255
-0.0909337417697818 0.0216670732040267 2.43446108272842
-0.0425271772215583 0.0198843495975399 2.43956187484157
0.0132809945706134 0.0392175609623225 2.43257072325259
-0.336630036118501 -0.28717984881362 2.00229827249768
-0.320396485989992 -0.272730726553113 1.96362639126433
-0.28968087098685 -0.308822638323478 1.9766114206728
-0.240892417898088 -0.308672319887544 1.9496665979127
-0.198867128556902 -0.332741270123994 1.97519292052887
-0.148351601988315 -0.328094143298678 1.96857774957357
-0.0983583621354295 -0.333355501161374 1.97653969358571
-0.0462938553705409 -0.337478815867188 1.98294955217742
-0.000972305683447985 -0.343159059669242 1.9915606121766
0.0431428149853993 -0.346761764988289 2.00753283593403
0.0855178110656857 -0.328574747257563 2.00690196173262
0.0982863605377729 -0.342924197464256 2.05464030232113
0.124814534519315 -0.316324872253191 2.03720319956519
-0.366547998619417 -0.265720423648758 2.03599322025528
-0.384309416146347 -0.219158378713018 2.02371737153366
-0.360821925737702 -0.245433869865428 1.9931473729075
0.141465808462452 -0.314179220369156 2.08180427196332
0.157301476756788 -0.284948163325006 2.05089885325149
0.16732432356437 -0.28244343342518 2.10610516570759
-0.398579938289898 -0.186740750630419 2.06068314977852
0.186999654967418 -0.24016098674131 2.10402899842003
-0.401634515775154 -0.156233219965509 2.09371055700519
0.179069399463629 -0.248573534926044 2.1464201931388
-0.402667151634636 -0.134670388704177 2.13676939332455
0.184612025120699 -0.206880179491071 2.17077165180966
-0.404813673408785 -0.0950827115613399 2.15285319787159
0.187114384580645 -0.166967117027225 2.19531314833881
-0.40474839804078 -0.0879475094895389 2.20019045304678
0.187677837306112 -0.129992016015687 2.22308810202397
-0.407982721237803 -0.0405382172895844 2.21927685096668
0.179862166255076 -0.118026929352034 2.26869503140047
-0.404150845273187 -0.0302443406217614 2.2697916974847
0.179983776142541 -0.0795367082469111 2.30202010976968
-0.387327739345905 -0.022420766241789 2.31791051360564
-0.393831206476536 0.0152575105262005 2.28944353320596
0.148380173031409 -0.0436563741641303 2.37379205271748
0.172676268960348 -0.046763599962602 2.33269460432407
-0.370086302190659 0.0205679946847783 2.33566052151606
-0.33525817620719 0.015783945446135 2.37682836551307
-0.342298244350373 0.0576265632878452 2.34963856864564
0.0476449797566264 0.00334007520965761 2.43764814761961
0.0941042276530907 0.00352432249663958 2.41600009831183
0.132984195922932 0.00191899662086581 2.38392528357863
-0.305496765957963 0.0536307478162365 2.38298590595838
-0.265010075528116 0.0803530637288949 2.38652790303656
-0.212498101029759 0.0644226411972157 2.40594131773481
-0.163459977500601 0.0665330015744457 2.40849999255142
-0.116113175079596 0.0654377939629001 2.41263151948393
-0.0687447011977499 0.0622330669442604 2.41799522425217
-0.022755708205516 0.0628484037853286 2.42090735287781
0.030866814285601 0.0741675630609236 2.40833883737345
0.0646427241805295 0.042235005223587 2.41639960419397
-0.309156538445432 -0.240556557199003 1.92862208249286
-0.27768668689241 -0.27987723042491 1.93761362636987
-0.229233409529752 -0.27674170641685 1.91738245045219
-0.191909080732343 -0.305211218476153 1.94036471831087
-0.148265443145485 -0.293122095336308 1.93116505152904
-0.108025217911585 -0.300906321454494 1.9401895244148
-0.0610030214423214 -0.309784656117141 1.95060742568252
-0.0048276927176598 -0.31091786965089 1.95436153526579
0.0427367433714035 -0.320596241844424 1.97157882695794
0.0879764520181772 -0.296855367817408 1.9708897964881
0.125991841183075 -0.29269120218354 2.00309854432491
-0.37258090662667 -0.19300733799656 1.97995278133915
-0.344765131553769 -0.230415577546251 1.95842378038958
0.158743043010414 -0.256638414097748 2.01361956928001
0.178997343750988 -0.249299369428621 2.06187488856043
-0.39162334617212 -0.171486391547851 2.01990011868608
0.195521250333141 -0.201646036774997 2.07644343729623
-0.396933887238463 -0.130965422172865 2.04941719764885
0.19455912299322 -0.199552958298691 2.12619323849657
-0.400824757001239 -0.107784664761326 2.09724860213708
0.195243520485499 -0.157325390943603 2.14851528500544
-0.399957281683163 -0.0644321191549627 2.11765926212202
0.194968679326952 -0.118421183426111 2.17575625137548
-0.404827984921976 -0.0492234632000093 2.16876296835751
0.191945174427797 -0.0877621632553044 2.22103088479521
-0.403681751024864 -0.00408104599467837 2.18788655906932
0.188887673148421 -0.0665498713630113 2.26053442602384
-0.405086256008125 0.00600825849201491 2.23931180099123
0.184026498271526 -0.0232145220012206 2.29620504594428
-0.390032594877761 0.0508887898081298 2.25863748458471
0.162809644458379 -0.00386490196146176 2.34392580629644
-0.371266350532109 0.0576839362695793 2.30626356233343
-0.338394081274627 0.0945542636445319 2.31879095943448
0.106944055350691 0.0433719759356789 2.38871349033102
0.14219426526039 0.0393702203483707 2.35247010295426
-0.304451426955383 0.0923163530952343 2.35571586592234
-0.260891833418598 0.118651356513714 2.35473794115084
-0.225269039848053 0.100024302582252 2.38084813833632
-0.180365831928233 0.103861764898877 2.38005885544792
-0.136247765656518 0.104268993084863 2.38188953828476
-0.0895194695844247 0.10034172728693 2.3877597754649
-0.0462149346606349 0.100140616320184 2.39009898973754
-0.00360023686899572 0.0982111835334289 2.39342918706633
0.0740669104917641 0.0803228210046259 2.38522574096849
-0.305738283141667 -0.205833382575567 1.90006318229084
-0.267255126877282 -0.244939836923222 1.90428363265611
-0.220340970881726 -0.24212506210295 1.88595953890128
-0.180677843467013 -0.268268331757787 1.9071364263836
-0.126839494242955 -0.259168859792924 1.90161274402587
-0.0809358196698099 -0.271546826476639 1.91506259590088
-0.0352662640372239 -0.283220400560862 1.92786577290592
0.00813892261502143 -0.27137653185674 1.91934776469958
0.045788195358595 -0.288290562775856 1.9412772946751
0.0923890301072809 -0.262234582385225 1.93867870397844
0.129082482609884 -0.26091389096408 1.97141135530107
-0.367583517089982 -0.155278160147869 1.95000073158157
-0.343232272246468 -0.196034088624323 1.93383097219581
0.164693674211371 -0.222697316630571 1.98292024490579
0.184817517060673 -0.214822863979348 2.02932679756186
-0.3867603219345 -0.138810433202702 1.99442729515805
0.201825747500802 -0.167365556303263 2.04811752377009
-0.390217728595548 -0.0935783680997063 2.01641971818732
0.20100640981452 -0.156674320053347 2.10006774129807
-0.394588573992266 -0.0783030945934248 2.06325955643241
0.20145432499078 -0.11082856548436 2.12563803570379
-0.393804089810936 -0.0328611716396591 2.08571525450291
0.198826468852355 -0.0739715075695844 2.1715137208538
-0.398417906438701 -0.0164154315444157 2.13536057701012
0.196963482484679 -0.0431496990426574 2.20704741218925
-0.397414346993899 0.0298842059057421 2.15650303257764
0.193341898309569 -0.0242285763308599 2.24959138682007
-0.398809058864889 0.0414146164008459 2.20839395310919
0.18977066664562 0.0186076234062234 2.26536525639881
-0.383663133854876 0.0859300506681742 2.22750113836978
0.171598158527669 0.0265521678914862 2.31034541264159
-0.365083480819581 0.092821344701412 2.27507555058512
-0.331255496723515 0.130241221450118 2.28783216730382
0.113799579830825 0.0803688393135856 2.35592420881558
0.149787242564585 0.0732492609061389 2.32021170955746
-0.298036177719065 0.127782775528649 2.32425949146484
-0.249386692915372 0.152706362869818 2.3263414845922
-0.209176484162079 0.13415448183945 2.35130458981274
-0.158202378239593 0.140745660454114 2.34790066871014
-0.105532340442617 0.134157850739517 2.35646625769336
-0.0571493781537069 0.135602533570035 2.35757452872031
-0.0110666548688107 0.133430260111146 2.36182957932723
0.0367283907968863 0.112627014528657 2.37467592406216
0.0780825191808281 0.11789799687957 2.35325009570802
-0.300100823403009 -0.171763117845582 1.87010060037733
-0.262233768700682 -0.209899297644069 1.8736625409367
-0.214272541543643 -0.209000793803087 1.85637091147507
-0.169446366994545 -0.2355574462425 1.8781959393446
-0.122190811919203 -0.220814618292587 1.86725621226571
-0.0801662796373662 -0.235248004296198 1.88236691347259
-0.0355586865236858 -0.248752055104257 1.89676726910632
0.0108193187787318 -0.234534225405965 1.88625637443273
0.0539507954352335 -0.251804732067871 1.90920432244711
0.0994693565116365 -0.226697043417021 1.90740641862717
0.135283757027289 -0.227479167866543 1.94174886310991
-0.361009016687221 -0.119595827611218 1.91789098824411
-0.337774158314213 -0.162892698950305 1.90496040045264
0.171130128753604 -0.188525995825667 1.95295266563462
0.191493222941163 -0.179701803915635 1.99933730625243
-0.380272669677573 -0.106181969103495 1.96320458562284
0.208037520835519 -0.133304184258568 2.01899176789199
-0.383804771078656 -0.0612154153977318 1.9827776803582
0.207046186207629 -0.1213769694678 2.07147196098415
-0.388184633829111 -0.0409503630061319 2.03288957779636
0.208454105108533 -0.0759373915755625 2.08863428539968
-0.388211964498001 0.0037448685810018 2.06173934582675
0.204378326338403 -0.0606628516924879 2.13296871247139
-0.3921900745261 0.0193019745332298 2.10543460215962
0.203911850758297 -0.0180608435679422 2.16420965433122
-0.390952532306044 0.0638371533979254 2.12346516570442
0.199993154250985 0.00548033116592951 2.21250509117398
-0.392739512896723 0.0752276006648529 2.17658297398402
0.197022449193509 0.0507381989318733 2.23156948043097
-0.377401985206102 0.120204788349617 2.19718885807835
0.177241908918496 0.0643719218250636 2.27909432184575
-0.358268288043421 0.127975480608197 2.2447160276628
-0.322836319928933 0.165319820965962 2.25918724740328
0.119339175400784 0.116027988418385 2.32491456479887
0.155311361548866 0.109449005303407 2.28929926227453
-0.288125942885937 0.162584433390318 2.2959221317143
-0.239724866012669 0.18685436329259 2.29703967502302
-0.198374469601218 0.167428708944498 2.32183527414392
-0.153475009002097 0.181441293986545 2.3114368880986
-0.116346356732112 0.165268886007935 2.32787100400996
-0.06865239370435 0.168466530923239 2.32736394907988
-0.0182742719747483 0.16897840674575 2.32941275925649
0.0317883975769405 0.14864476233805 2.34527724955588
0.0795105991148717 0.152683815606912 2.32480681433666
-0.293754299148965 -0.137636874358773 1.83947924164896
-0.256527119860839 -0.175216808872744 1.84298531953962
-0.210225625418559 -0.174865678830302 1.82630816240464
-0.165997027721674 -0.201556189968253 1.84770575752564
-0.116256166646279 -0.184562529771145 1.83485879284197
-0.0742453807516261 -0.19818202159853 1.84923443737978
-0.032320832964413 -0.213226771048948 1.86489181109991
0.0139919788090646 -0.198011008300747 1.85347742019961
0.0574629052173088 -0.217187682215421 1.87742906003448
0.102799830128726 -0.193270325272158 1.87569927177429
0.141616867744859 -0.193554189275501 1.91170233089342
-0.35589687428916 -0.0832449693376685 1.88850591285067
-0.331478517426509 -0.129324443266504 1.87468730526632
0.177208503308285 -0.15450411920808 1.92242233050395
0.1977956415125 -0.145165400276471 1.96874195402657
-0.374213380744422 -0.0696752841474747 1.93254531539104
0.214057537104084 -0.0996854761967306 1.98750600802536
-0.37680525511393 -0.0216603196334457 1.94876942898684
0.21361463467803 -0.08644584567504 2.038149442813
-0.381503436607559 -0.0149024914868024 1.9929305642575
0.214434716447546 -0.0381841417591065 2.06210639107487
-0.382825697118045 0.0155616156144312 2.02364595887757
0.209869708017378 -0.0235317447700516 2.11019754844821
-0.385157667700462 0.0545294855265747 2.06837551774766
0.210560427391095 0.0204763102215823 2.13252404579106
-0.384904450043807 0.0971656013217204 2.09353263323655
0.206116481655681 0.0350014947697852 2.17950279010316
-0.386662099415093 0.108831368160395 2.14659505367469
0.20370970249104 0.0828139082964383 2.19963839061094
-0.370280799514836 0.155104876592699 2.16963875771599
0.18431857822539 0.0978124901726234 2.24707731853324
-0.350829710143272 0.162813561248994 2.21611606862281
-0.315646819228396 0.199731002711819 2.22967798484844
0.124194650857291 0.150904581828483 2.29507945696937
0.161745298588722 0.143562670940383 2.25848065800737
-0.279989182243059 0.196887026043385 2.26669485499343
-0.233425747992111 0.221701212477576 2.26592810707729
-0.191479174761358 0.204236596780981 2.28898559756882
-0.140886262481476 0.217361356241792 2.27967041173406
-0.101452114010959 0.199750465364127 2.2975172838942
-0.0531767362215176 0.202720870628707 2.29724383764556
-0.00510065111706387 0.203760612760056 2.29870169474748
0.0351662530680387 0.181327783368801 2.31659245188212
0.0867308898529957 0.185146594504432 2.29511568283401
-0.29489948874044 -0.10137102780574 1.81435908118786
-0.250015296773616 -0.139681527944672 1.81121569438534
-0.202130365166812 -0.141650788277763 1.79627395888533
-0.160809985994804 -0.169148614131962 1.81873860881302
-0.110959657895191 -0.149909023247037 1.80392170775573
-0.0673692560682152 -0.160860820416043 1.81592083094585
-0.0275390252678672 -0.175454792409143 1.83106601618261
0.0159973234898583 -0.161035718886365 1.82024337641264
0.0603412631741651 -0.18289439969181 1.84583988185226
0.106999137477594 -0.159405930045422 1.84419314412082
0.144061710632242 -0.162338875436612 1.88001335561501
-0.350415411984741 -0.0462852364257225 1.85898860099672
-0.328631701367956 -0.0935889974782457 1.84774569238507
0.177853835260879 -0.126073271146125 1.88815477892598
0.203811113339818 -0.110645808953096 1.93696438823619
-0.367986488537479 -0.0319031132939024 1.90102742790708
0.221099629177463 -0.0620880612081787 1.9672415306719
-0.37045079543204 0.0161301249077182 1.92292002045332
0.219514585886742 -0.0486417904765458 2.01234356355489
-0.375670530477948 0.030177266605245 1.97234770657335
0.220662791245219 -0.00157393463404786 2.03150486590741
-0.379189311991489 0.057112209267304 2.01942987582512
0.216179726616559 0.0120616461513829 2.07949461311636
-0.378254452424701 0.0998713913361859 2.03888216423524
0.217023819731731 0.0564524723673993 2.10031014795629
-0.379450476768801 0.135092315928548 2.07165991788962
0.212493841755895 0.0712545994349048 2.14865069412424
-0.380134996130496 0.143812336453357 2.12121663388544
0.20975217653292 0.117309806660273 2.16949294966997
-0.363851950011859 0.189601655461454 2.13966039827542
0.190808872975711 0.131200655160369 2.21630559300793
-0.343829948824284 0.197710261903761 2.18644168987803
-0.309444992389308 0.234056788149279 2.19902489808773
0.131049149878553 0.185104007531064 2.26394776991613
0.168158617230775 0.177738534244384 2.22758390431994
-0.274073369137482 0.231083869382978 2.23597255783148
-0.227780097044843 0.256094516252828 2.23497856180107
-0.184175932190685 0.239175037213722 2.25784144233736
-0.135517136803425 0.250984022208645 2.24958974858089
-0.0879397298823947 0.236070200307963 2.26543684206788
-0.0379318595506646 0.236842145157494 2.26723244086331
0.0085771810785784 0.237114307297448 2.26930441975244
0.047620103520831 0.213641223486126 2.28636432164415
0.0938670534663439 0.219382328936784 2.26404558095518
-0.257573028006952 -0.102123780494194 1.78886619499383
-0.216042147000856 -0.105946690339673 1.77529759402797
-0.169622437119202 -0.103353070331499 1.76908431785865
-0.154799422803232 -0.13694452852858 1.79087993523422
-0.117492981341887 -0.109385803903154 1.77603297067876
-0.0707689839599875 -0.121261365742129 1.78609837860218
-0.0239252275195906 -0.13240301091013 1.79623014229382
0.0240030026838489 -0.121732286539637 1.79358762550577
0.0634127781679419 -0.149346684181396 1.81639271421808
0.107873791854379 -0.123254437181489 1.81619220120044
0.148224234335757 -0.127041194666199 1.84904136419296
-0.338012776715272 -0.0094427364975571 1.83359569445935
-0.321400731483963 -0.0563308191140827 1.81938442963954
0.196950532392929 -0.0887021287787263 1.89085135134339
0.214676964786116 -0.0657892416050796 1.92415191177378
-0.358235193071983 0.00709085570507301 1.87293915570227
0.220204543073658 -0.0223655075062941 1.93471658574854
-0.355283945349403 0.0515284945160782 1.89393163980451
0.223030380557302 -0.0104776842646403 1.98003417886745
-0.364988193972642 0.0652645337242779 1.93876933200124
0.219569462012634 0.0331738175803265 1.99874396797653
-0.371935632422664 0.0827607306684786 1.98452806788274
0.219766917604668 0.048596967663728 2.04631250684198
-0.365874447033265 0.128383825124907 1.99926155025777
0.216695499155582 0.0911605272923134 2.06825928303928
-0.368902037020949 0.15575444503614 2.03503500511666
0.216525748470846 0.10680024466698 2.1155249685431
-0.372851818320711 0.177408600973421 2.08955807295338
0.210624767420335 0.148509240757513 2.13758587468408
-0.355030448675748 0.218548489632402 2.10437558539995
0.195149738984851 0.165384449660625 2.18564708746942
-0.33761585341821 0.230590928502623 2.15378103891546
-0.302024497157215 0.263262163228948 2.16555415039715
0.136169940672135 0.219307995346344 2.23142117857642
0.168092605554099 0.211156953493372 2.19450808337234
-0.266638172042443 0.264558835641318 2.20456226664912
-0.217997167208786 0.287062669626235 2.19907501398941
-0.180776142828055 0.273190701788385 2.22432024382308
-0.138944100241707 0.281666286857116 2.21365400888301
-0.0948478481352701 0.271899233075664 2.22786555350686
-0.0502042488523036 0.267586393213654 2.23436602313502
-0.000135433070712204 0.266931500721902 2.23609128805767
0.0517520970639822 0.249207939896169 2.25317260642534
0.0971389793125842 0.249982903207975 2.2306116472122
-0.282899169950715 -0.0614320751841137 1.78701185759144
-0.237493164756826 -0.0627063838436184 1.76473860082974
-0.189816459869006 -0.0642914948893121 1.75518222186003
-0.137965049844079 -0.0683210721851551 1.75825402576714
-0.0874703272219054 -0.0749270243700166 1.76499086278766
-0.0413605233255052 -0.084871836039588 1.77240419526991
0.00274730328207524 -0.0844625828151987 1.77643428121861
0.0497916671372189 -0.0742680795583256 1.77845549788449
0.0701848546068222 -0.109205370602248 1.79412704284158
0.102243594216118 -0.0736596418190617 1.79304450834536
0.13870204008594 -0.0908222184613731 1.81983129736073
-0.302819386473072 -0.0194624153204143 1.79517409188285
-0.27757911728295 0.0221895668176152 1.78109780326747
-0.260270312281696 -0.0211055606252207 1.76786633278467
0.148959945310684 -0.0498444242995523 1.81700460494174
0.175039547883301 -0.083298328375759 1.85230820135505
0.178413522368575 -0.0359301666901165 1.84498864865728
-0.334908586598941 0.0447989072116508 1.84511525870654
-0.315113075149083 0.0222547935047666 1.81122337571651
0.202541214963348 -0.0417351520744665 1.88279061926384
0.207869081885154 0.000509810762824092 1.89956810843652
-0.331655757721643 0.082663908255664 1.87128423859174
0.213700568957405 0.0266857727949725 1.94273108825972
-0.341547683235854 0.102844677039333 1.91055963413298
0.208697798205695 0.0641321866036021 1.97007969414153
-0.354055291830744 0.113790121310306 1.95017904445101
0.211278835622685 0.085285435013786 2.01218769486051
-0.343008581537873 0.153207260815762 1.96370649797755
0.206414606755007 0.122600288376491 2.03921858546816
-0.346866027769348 0.181766280177594 2.00006809513254
0.208793426477783 0.143569063876764 2.08111227391577
-0.360385819991637 0.197304380506822 2.05262520983098
0.201256167517396 0.179412581827398 2.10745769517425
-0.326590214247809 0.25557696304026 2.11610352387044
-0.338496040186152 0.239763922100716 2.06762252188027
-0.307578792595441 0.272781736100017 2.07370210493524
0.191769695539511 0.194960194667706 2.15165523480465
0.178492117380706 0.220665924139914 2.10802201017549
0.165219283871531 0.233579554588725 2.15322385858094
-0.25881855163486 0.289463656508339 2.16764506011527
-0.292596133694574 0.282870978661783 2.12635690280581
-0.250735204452326 0.30463295744529 2.12520251188344
0.132506467371391 0.250100945983698 2.19231483141358
0.100206811078242 0.282091969362861 2.15629393953819
0.0878484979926514 0.275202067043333 2.1951593943883
-0.211591867725336 0.306799571558478 2.15900220541995
-0.167638528892251 0.301221552809313 2.1788056002112
-0.114730754521965 0.298856549791299 2.18125546855617
-0.0702754658144284 0.293947638267801 2.19010801443767
-0.0264698239078874 0.290672160586184 2.19519817092968
0.0162688608478522 0.289806281858206 2.19465703011814
0.0494253406210874 0.275403777646251 2.21797925493636
-0.211425825709903 -0.0215752745024806 1.75192341014133
-0.160143026121683 -0.0255585921779354 1.74911811449009
-0.109385548230248 -0.0296401490694759 1.75493878227322
-0.0615255016241503 -0.0344989789024614 1.76066105940005
-0.0167064111198179 -0.0380811397514897 1.76596031963297
0.0273735095607925 -0.03393825089873 1.77080561061956
0.0759598433159549 -0.0325527347734962 1.77863214997605
-0.233346580986205 0.0198067844011339 1.76039646561231
-0.206087113509272 0.0572808213607793 1.76447601127589
-0.181940256128074 0.0178254064952296 1.75114340735169
-0.131151092271338 0.0144494572985982 1.75439869255508
-0.0834879171527163 0.0133346102956887 1.76042371245311
-0.0362294047973882 0.00988998371851619 1.76601914047116
0.00854100501074809 0.0113513090708557 1.77218271669168
0.0554690477656001 0.0105760071992464 1.7783644513355
0.103607285293514 0.0117806836733409 1.7930597201081
0.150670368176929 0.00288563606977184 1.82056266790718
0.119468112365036 -0.0286522898362582 1.79606166860522
-0.295585096854374 0.0621003715982781 1.8091148427869
-0.26357869949661 0.100564815165695 1.8114710601423
-0.252989186971244 0.0625990511624461 1.78152471221597
0.12666369592666 0.0453394513603958 1.81746394224366
0.184544400095053 0.00596300720607461 1.85817384953578
0.162712916084742 0.0460912396407519 1.84939848899754
-0.303417845465163 0.0930200689016392 1.8401141868101
-0.270098167992525 0.131407451999506 1.84751638256656
0.193014688439568 0.0419761105878975 1.89279399423754
0.165167117047188 0.0809816029970176 1.88353012428658
-0.308036792384444 0.125618511556647 1.87971312888972
-0.277122645150435 0.161675325611246 1.88543897468104
0.191966891173817 0.0723392831635557 1.92593400205333
0.163213057041107 0.113152965550972 1.9189279976537
-0.319162439870078 0.149976102515549 1.91990817252328
-0.281985109458558 0.189716195377773 1.91938541849463
0.190538143307284 0.104870362311504 1.96294777273404
0.162158254307443 0.144351711724473 1.95457041904162
-0.316038422782284 0.188088795817711 1.95491579472889
-0.280063194510275 0.223437508436639 1.9535297817559
0.189825585021215 0.133160179636783 1.99651962060381
0.161465863971226 0.174894470234267 1.99001575303969
-0.313271460160489 0.222768935010028 1.98727299463016
-0.279482499346098 0.258893341691458 1.99238006492517
0.188741429661926 0.165139957496834 2.03378337907204
0.160226618345625 0.205636425193339 2.02484105472645
-0.33686186596416 0.221930115534023 2.02364852687238
-0.307604405024556 0.258711297993285 2.02854495181984
0.187010720133283 0.193866807834805 2.06682740576655
0.156971093141947 0.233750332181669 2.06146368262916
-0.274381723499496 0.295921743941221 2.08488162646114
-0.269271932988124 0.28857333264437 2.03669065179428
-0.236793018193848 0.309613828708415 2.07090335066714
0.134729317996954 0.263337162064879 2.14567061005714
0.148462696458062 0.253432478968551 2.1036845475863
0.108534461853379 0.280946149988677 2.10428499187984
-0.212311237952128 0.316235279336804 2.11091789826888
-0.186700584183326 0.317873097577132 2.07516355531664
-0.171803151554771 0.3161507557098 2.12953731966646
-0.14279086725744 0.316441679807824 2.08862970950625
-0.129352176349169 0.312198662158307 2.13875349689206
-0.0986825497040914 0.313109167431464 2.09382503489302
-0.0825625416513515 0.309156459080178 2.14156295809951
-0.05383211508263 0.309612873043611 2.09726973790191
-0.0382757750693964 0.305662785749618 2.14762485205889
-0.0102650245744486 0.306226950013417 2.10098726878753
0.0062402344843855 0.30285166335507 2.14964778391401
0.0339383390301368 0.303055696836399 2.10890233602212
0.0519265374903167 0.295876752818474 2.16455478467395
0.0716704299559202 0.296346885680996 2.12141403903368
-0.175329257892531 0.0902723788840103 1.77811844397871
-0.152799881154026 0.0561066986104792 1.76253288681121
-0.107088842481625 0.0584697633217553 1.77015319583779
-0.0583570968144735 0.0543239476892169 1.77570747148571
-0.013467519561505 0.0560928172706253 1.7832240390836
0.0319174594899915 0.0552943774943259 1.78977734881372
0.0779409281333308 0.0512626566266918 1.79701245281305
-0.220388990085696 0.0983564997135364 1.78995242733572
-0.177831866850928 0.125131113905527 1.80541994888414
-0.131792032824406 0.100216032977061 1.78957374662182
-0.0808459743618221 0.0933226011184674 1.79342454320667
-0.0365523794405003 0.0965377007782758 1.80341052563822
0.00796544874452691 0.096481591330851 1.81122069019592
0.0531517572246227 0.0936280030852995 1.81700659600802
0.0965851837217886 0.0838404380304266 1.82401373208575
0.13120371376785 0.0862486248128663 1.84914631744562
-0.225371801359805 0.132247991316416 1.82250699122066
-0.18553811619704 0.156898072428164 1.84038982087756
-0.139632076181072 0.140948690694309 1.82670709200646
-0.100419155289836 0.125279851969056 1.8172500312485
-0.0576557582092361 0.130394277651436 1.83149032387423
-0.0139607344752312 0.131008723181769 1.84103023721634
0.0341552684932222 0.127357071866184 1.84668678483916
0.0840042898247945 0.119604138745781 1.85265734346587
0.128763529399778 0.117261745144179 1.88147491841388
-0.232268940167288 0.162818171309187 1.85853829916916
-0.187271426439167 0.187452716796352 1.87427363815275
-0.14121937530395 0.173099921949659 1.86239724979904
-0.0946060271148354 0.157048038258502 1.85386006205565
-0.0476972113858823 0.163576263519851 1.87067391369185
0.00249968306405682 0.159692019874574 1.87649146892458
0.0503057952840898 0.155624814799102 1.88163247819121
0.0924122368442566 0.147772845868783 1.88913841344657
0.127562268241414 0.150155562594245 1.91854323927134
-0.235796890336394 0.192519271340331 1.89229868793387
-0.189839645477684 0.216514322232997 1.90657473023049
-0.140884528087292 0.205512192540988 1.89876887726409
-0.0983088597889676 0.188217729231728 1.88802162753238
-0.0604756997466986 0.196612486698334 1.90508794972824
-0.0157572374792129 0.190872520700156 1.90771704743871
0.0322545748820067 0.18732772531141 1.91347178430872
0.0813129739286136 0.180986508878936 1.92106228904427
0.126484910289624 0.179689850012752 1.95183078203924
-0.239060089873554 0.22140463772498 1.92508306864489
-0.196221654936639 0.245224579522111 1.93888871060523
-0.146216445112078 0.236111272260623 1.93196099755117
-0.0969769193552052 0.224348250487404 1.92876078646422
-0.0454379964956198 0.224512551458184 1.93938423217005
0.00273525689980901 0.219965887642947 1.94405012495183
0.0491458678274424 0.216585698280527 1.94972838420956
0.0906486499817775 0.209383448444832 1.95840880676575
0.125644912342044 0.212041212551506 1.9886331751589
-0.24374424289268 0.252467335247719 1.9609270843533
-0.205941369289389 0.274352436010713 1.97301726391884
-0.158959190782341 0.268183396978585 1.9653719470417
-0.112342342912415 0.258422485281386 1.96381368021227
-0.0676833726823846 0.254106471682902 1.96802505642569
-0.0187057689059767 0.251953341190453 1.97553502369617
0.030106819008281 0.248422533836915 1.98146727070258
0.0792037656492347 0.242723193110006 1.9901615121194
0.124032179886544 0.241004035129518 2.02171011859903
-0.23956682965592 0.285276340616157 2.00169258219624
-0.183050609052613 0.295528762165248 2.00255204836666
-0.134307871051861 0.289555926680535 2.00068047216928
-0.0896621172690939 0.284937654257649 2.00380568176169
-0.0447851081497032 0.280960681742548 2.00811032740474
0.00159348867800306 0.278030507226774 2.01454631401133
0.0466712794625029 0.27516498701156 2.02094036662959
0.0873709015966326 0.268314530205324 2.03061214111439
0.119234638174447 0.266180330231311 2.06383151158962
-0.214678388309758 0.30608249669954 2.03389835640511
-0.160528886472354 0.309622527432857 2.03968745479502
-0.114753141870759 0.306256214694047 2.04539321291416
-0.0696791306213819 0.30240351799939 2.04922851147751
-0.0239126391266636 0.298506736014088 2.05321109410978
0.0232358832164281 0.295409972505658 2.06027174207125
0.0701747254272926 0.290176121371605 2.07011965835898
3 0 1 2
3 0 2 4
3 3 0 4
3 3 4 6
3 5 3 6
3 5 6 8
3 7 5 8
3 7 8 10
3 9 7 10
3 9 10 12
3 11 9 12
3 13 11 14
3 14 11 12
3 13 14 15
3 16 17 18
3 16 18 1
3 0 19 1
3 19 16 1
3 0 3 20
3 19 0 20
3 3 5 21
3 20 3 21
3 5 7 22
3 21 5 22
3 7 9 23
3 22 7 23
3 9 11 24
3 23 9 24
3 24 11 25
3 25 11 13
3 13 15 26
3 27 13 26
3 25 13 27
3 27 26 28
3 17 16 30
3 30 16 29
3 29 19 31
3 29 16 19
3 31 20 32
3 31 19 20
3 32 21 33
3 32 20 21
3 21 22 33
3 33 22 34
3 22 23 34
3 34 23 35
3 23 24 35
3 35 24 36
3 24 25 36
3 36 25 37
3 37 27 38
3 37 25 27
3 38 28 39
3 38 27 28
3 30 40 41
3 30 29 40
3 29 31 42
3 40 29 42
3 31 32 43
3 42 31 43
3 32 33 44
3 43 32 44
3 33 34 45
3 44 33 45
3 34 35 46
3 45 34 46
3 35 36 47
3 46 35 47
3 36 37 47
3 47 37 48
3 37 38 48
3 48 38 49
3 49 39 50
3 49 38 39
3 40 51 52
3 41 40 52
3 51 42 53
3 51 40 42
3 42 43 53
3 53 43 54
3 43 44 54
3 54 44 55
3 44 45 55
3 55 45 56
3 45 46 56
3 56 46 57
3 46 47 58
3 57 46 58
3 47 48 59
3 58 47 59
3 48 49 60
3 59 48 60
3 49 50 61
3 60 49 61
3 51 62 63
3 52 51 63
3 51 53 64
3 62 51 64
3 53 54 65
3 64 53 65
3 54 55 66
3 65 54 66
3 55 56 67
3 66 55 67
3 56 57 67
3 67 57 68
3 57 58 69
3 68 57 69
3 58 59 69
3 69 59 70
3 59 60 70
3 70 60 71
3 71 61 72
3 71 60 61
3 62 73 74
3 63 62 74
3 62 64 75
3 73 62 75
3 64 65 75
3 75 65 76
3 65 66 76
3 76 66 77
3 66 67 77
3 77 67 78
3 67 68 78
3 78 68 79
3 79 69 80
3 79 68 69
3 80 70 81
3 80 69 70
3 81 71 82
3 81 70 71
3 82 72 83
3 82 71 72
3 74 73 85
3 85 73 84
3 84 73 86
3 86 73 75
3 75 76 86
3 86 76 87
3 76 77 88
3 87 76 88
3 77 78 89
3 88 77 89
3 78 79 90
3 89 78 90
3 79 80 91
3 90 79 91
3 80 81 92
3 91 80 92
3 81 82 93
3 92 81 93
3 93 83 94
3 93 82 83
3 84 95 85
3 84 86 96
3 97 84 96
3 95 84 97
3 96 87 98
3 96 86 87
3 87 88 98
3 98 88 99
3 88 89 99
3 99 89 100
3 89 90 100
3 100 90 101
3 101 91 102
3 101 90 91
3 102 92 103
3 102 91 92
3 92 93 103
3 105 103 104
3 103 93 104
3 93 94 104
3 96 106 97
3 96 98 107
3 106 96 107
3 98 99 108
3 107 98 108
3 99 100 109
3 108 99 109
3 100 101 110
3 109 100 110
3 101 102 111
3 110 101 111
3 111 102 112
3 112 102 103
3 103 105 112
3 117 114 115
3 116 113 117
3 117 113 114
3 116 117 119
3 118 116 119
3 118 119 121
3 120 118 121
3 120 121 123
3 122 120 123
3 122 123 125
3 124 122 125
3 124 125 127
3 126 124 127
3 126 127 128
3 129 130 131
3 114 129 131
3 114 113 129
3 113 2 129
3 129 2 1
3 4 113 116
3 4 2 113
3 6 116 118
3 6 4 116
3 8 118 120
3 8 6 118
3 10 120 122
3 10 8 120
3 12 122 124
3 12 10 122
3 14 124 126
3 14 12 124
3 133 126 128
3 15 14 126
3 15 126 133
3 132 15 133
3 132 133 134
3 135 136 137
3 137 17 135
3 137 18 17
3 18 137 130
3 129 18 130
3 18 129 1
3 15 132 26
3 139 132 134
3 139 138 132
3 138 28 26
3 132 138 26
3 138 139 140
3 136 135 142
3 142 135 141
3 17 30 135
3 135 30 141
3 143 39 28
3 138 143 28
3 143 140 144
3 143 138 140
3 141 145 146
3 142 141 146
3 41 145 141
3 30 41 141
3 147 39 143
3 147 50 39
3 147 144 148
3 147 143 144
3 145 149 150
3 146 145 150
3 52 149 145
3 41 52 145
3 151 50 147
3 151 155 50
3 151 148 152
3 151 147 148
3 149 153 154
3 150 149 154
3 63 153 149
3 52 63 149
3 155 61 50
3 155 72 61
3 155 151 156
3 156 151 152
3 154 157 158
3 154 153 157
3 74 157 153
3 63 74 153
3 159 72 155
3 159 83 72
3 159 156 160
3 159 155 156
3 158 157 162
3 162 157 161
3 74 85 161
3 157 74 161
3 163 83 159
3 163 94 83
3 163 160 164
3 163 159 160
3 161 165 162
3 165 95 166
3 165 161 95
3 161 85 95
3 165 166 167
3 95 97 166
3 105 104 168
3 170 94 163
3 170 168 94
3 169 168 170
3 94 168 104
3 163 164 170
3 166 171 167
3 173 171 172
3 172 171 106
3 171 97 106
3 171 166 97
3 172 107 174
3 172 106 107
3 174 108 175
3 174 107 108
3 175 109 176
3 175 108 109
3 176 110 177
3 176 109 110
3 177 111 178
3 177 110 111
3 178 112 180
3 178 111 112
3 181 105 168
3 181 180 105
3 179 178 180
3 180 112 105
3 168 169 181
3 172 182 173
3 182 172 183
3 183 172 174
3 174 175 184
3 183 174 184
3 175 176 185
3 184 175 185
3 176 177 186
3 185 176 186
3 177 178 187
3 186 177 187
3 187 179 188
3 187 178 179
3 179 180 229
3 189 190 191
3 114 131 191
3 115 114 191
3 115 191 192
3 115 192 193
3 117 115 193
3 119 193 194
3 119 117 193
3 119 194 121
3 121 194 195
3 121 195 123
3 123 195 196
3 123 196 125
3 125 196 197
3 127 197 198
3 127 125 197
3 128 198 199
3 200 128 199
3 128 127 198
3 200 199 201
3 202 203 204
3 131 130 189
3 190 189 204
3 189 130 202
3 189 202 204
3 131 189 191
3 128 200 133
3 134 200 205
3 206 205 201
3 134 133 200
3 205 200 201
3 205 206 207
3 136 208 203
3 202 137 136
3 202 136 203
3 137 202 130
3 134 205 139
3 139 205 207
3 140 139 207
3 211 207 209
3 136 142 208
3 208 142 210
3 211 140 207
3 211 144 140
3 146 212 210
3 142 146 210
3 148 144 213
3 213 144 211
3 150 214 212
3 146 150 212
3 215 148 213
3 215 152 148
3 154 216 150
3 150 216 214
3 219 152 217
3 217 152 215
3 158 218 216
3 154 158 216
3 219 156 152
3 219 160 156
3 158 220 218
3 158 162 220
3 221 160 219
3 221 164 160
3 162 165 222
3 223 220 222
3 220 162 222
3 165 167 222
3 169 170 224
3 225 164 221
3 224 170 164
3 224 164 225
3 222 226 223
3 167 171 227
3 226 167 227
3 226 227 228
3 226 222 167
3 171 173 227
3 180 181 229
3 181 169 230
3 231 169 224
3 230 169 231
3 230 229 181
3 224 225 271
3 227 232 228
3 232 182 233
3 232 173 182
3 227 173 232
3 182 183 234
3 233 182 234
3 183 184 234
3 234 184 235
3 184 185 235
3 235 185 236
3 185 186 236
3 236 186 237
3 186 187 237
3 237 187 238
3 238 188 239
3 238 187 188
3 188 179 229
3 240 239 188
3 240 188 229
3 229 230 240
3 191 190 242
3 242 190 241
3 192 242 243
3 192 191 242
3 192 243 244
3 193 192 244
3 194 244 245
3 194 193 244
3 194 245 246
3 195 194 246
3 195 246 247
3 196 195 247
3 196 247 248
3 197 196 248
3 197 248 249
3 198 197 249
3 199 198 249
3 250 199 249
3 201 199 251
3 251 199 250
3 204 252 253
3 204 203 252
3 190 253 241
3 190 204 253
3 206 251 254
3 206 201 251
3 207 206 255
3 255 206 254
3 203 256 252
3 203 208 256
3 257 209 255
3 255 209 207
3 210 258 208
3 208 258 256
3 211 209 259
3 259 209 257
3 212 260 210
3 210 260 258
3 213 211 259
3 261 213 259
3 214 262 260
3 212 214 260
3 215 213 261
3 263 215 261
3 216 264 214
3 214 264 262
3 217 215 263
3 265 217 263
3 218 266 264
3 216 218 264
3 219 217 265
3 267 219 265
3 218 268 266
3 218 220 268
3 221 219 267
3 269 221 267
3 223 270 268
3 220 223 268
3 225 221 269
3 271 225 269
3 223 226 272
3 270 223 272
3 272 228 273
3 272 226 228
3 274 231 275
3 274 230 231
3 275 231 271
3 271 231 224
3 273 228 276
3 276 228 232
3 276 233 277
3 276 232 233
3 233 234 278
3 277 233 278
3 234 235 279
3 278 234 279
3 235 236 280
3 279 235 280
3 236 237 281
3 280 236 281
3 237 238 282
3 281 237 282
3 238 239 283
3 282 238 283
3 327 239 284
3 284 239 240
3 240 230 274
3 284 240 274
3 241 285 286
3 242 241 286
3 242 286 243
3 243 286 287
3 243 287 288
3 244 243 288
3 245 288 289
3 245 244 288
3 245 289 246
3 246 289 290
3 246 290 247
3 247 290 291
3 247 291 248
3 248 291 292
3 248 292 293
3 249 248 293
3 249 293 250
3 250 293 294
3 250 294 295
3 251 250 295
3 252 296 297
3 253 252 297
3 241 297 285
3 241 253 297
3 254 295 298
3 254 251 295
3 254 298 299
3 255 254 299
3 256 300 252
3 252 300 296
3 257 255 299
3 301 257 299
3 258 302 300
3 256 258 300
3 259 257 303
3 303 257 301
3 260 304 258
3 258 304 302
3 261 259 303
3 305 261 303
3 262 306 304
3 260 262 304
3 263 261 305
3 307 263 305
3 264 308 262
3 262 308 306
3 265 263 307
3 309 265 307
3 266 310 308
3 264 266 308
3 267 265 309
3 311 267 309
3 266 312 310
3 266 268 312
3 269 267 311
3 313 269 311
3 270 314 312
3 268 270 312
3 271 269 315
3 315 269 313
3 270 272 316
3 314 270 316
3 316 273 317
3 316 272 273
3 318 275 319
3 318 274 275
3 275 271 315
3 319 275 315
3 273 276 320
3 317 273 320
3 276 277 320
3 320 277 321
3 277 278 322
3 321 277 322
3 322 279 323
3 322 278 279
3 279 280 323
3 323 280 324
3 280 281 324
3 324 281 325
3 281 282 325
3 325 282 326
3 282 283 326
3 326 283 327
3 283 239 327
3 327 284 328
3 284 274 318
3 328 284 318
3 285 329 330
3 286 285 330
3 286 330 287
3 287 330 331
3 287 331 332
3 288 287 332
3 288 332 289
3 289 332 333
3 289 333 334
3 290 289 334
3 290 334 335
3 291 290 335
3 291 335 292
3 292 335 336
3 292 336 337
3 293 292 337
3 293 337 294
3 294 337 338
3 294 338 339
3 295 294 339
3 296 340 341
3 297 296 341
3 285 341 329
3 285 297 341
3 298 339 342
3 298 295 339
3 298 342 343
3 299 298 343
3 300 344 296
3 296 344 340
3 301 299 343
3 345 301 343
3 302 346 344
3 300 302 344
3 303 301 347
3 347 301 345
3 304 348 302
3 302 348 346
3 305 303 347
3 349 305 347
3 306 350 348
3 304 306 348
3 307 305 351
3 351 305 349
3 308 352 306
3 306 352 350
3 309 307 353
3 353 307 351
3 310 354 352
3 308 310 352
3 311 309 355
3 355 309 353
3 312 356 310
3 310 356 354
3 313 311 355
3 357 313 355
3 314 358 356
3 312 314 356
3 315 313 359
3 359 313 357
3 314 316 360
3 358 314 360
3 360 317 361
3 360 316 317
3 362 319 363
3 362 318 319
3 319 315 359
3 363 319 359
3 317 320 364
3 361 317 364
3 320 321 364
3 364 321 365
3 321 322 366
3 365 321 366
3 322 323 366
3 366 323 367
3 323 324 368
3 367 323 368
3 324 325 369
3 368 324 369
3 325 326 370
3 369 325 370
3 326 327 371
3 370 326 371
3 327 328 371
3 371 328 372
3 328 318 362
3 372 328 362
3 329 373 374
3 330 329 374
3 330 374 331
3 331 374 375
3 331 375 376
3 332 331 376
3 332 376 333
3 333 376 377
3 333 377 378
3 334 333 378
3 334 378 379
3 335 334 379
3 335 379 336
3 336 379 380
3 336 380 381
3 337 336 381
3 337 381 338
3 338 381 382
3 338 382 383
3 339 338 383
3 340 384 385
3 341 340 385
3 329 385 373
3 329 341 385
3 342 383 386
3 342 339 383
3 342 386 387
3 343 342 387
3 344 388 340
3 340 388 384
3 345 343 387
3 389 345 387
3 346 390 388
3 344 346 388
3 347 345 391
3 391 345 389
3 348 392 346
3 346 392 390
3 349 347 391
3 393 349 391
3 350 394 348
3 348 394 392
3 351 349 395
3 395 349 393
3 352 396 350
3 350 396 394
3 353 351 395
3 397 353 395
3 354 398 396
3 352 354 396
3 355 353 399
3 399 353 397
3 356 400 354
3 354 400 398
3 357 355 399
3 401 357 399
3 358 402 400
3 356 358 400
3 359 357 403
3 403 357 401
3 358 360 404
3 402 358 404
3 404 361 405
3 404 360 361
3 406 363 407
3 406 362 363
3 363 359 403
3 407 363 403
3 361 364 408
3 405 361 408
3 364 365 408
3 408 365 409
3 365 366 410
3 409 365 410
3 366 367 410
3 410 367 411
3 367 368 412
3 411 367 412
3 368 369 412
3 412 369 413
3 369 370 413
3 413 370 414
3 370 371 415
3 414 370 415
3 371 372 415
3 415 372 416
3 372 362 406
3 416 372 406
3 373 417 418
3 374 373 418
3 374 418 375
3 375 418 419
3 375 419 420
3 376 375 420
3 376 420 377
3 377 420 421
3 377 421 422
3 378 377 422
3 378 422 423
3 379 378 423
3 380 423 424
3 380 379 423
3 380 424 425
3 381 380 425
3 382 425 426
3 382 381 425
3 382 426 427
3 383 382 427
3 384 428 429
3 385 384 429
3 373 429 417
3 373 385 429
3 386 427 430
3 386 383 427
3 386 430 431
3 387 386 431
3 384 432 428
3 384 388 432
3 389 387 431
3 433 389 431
3 390 434 432
3 388 390 432
3 435 389 433
3 435 391 389
3 390 436 434
3 390 392 436
3 393 391 435
3 437 393 435
3 394 438 436
3 392 394 436
3 395 393 439
3 439 393 437
3 396 440 438
3 394 396 438
3 397 395 439
3 441 397 439
3 398 442 440
3 396 398 440
3 399 397 443
3 443 397 441
3 400 444 398
3 398 444 442
3 401 399 443
3 445 401 443
3 402 446 444
3 400 402 444
3 403 401 447
3 447 401 445
3 402 404 448
3 446 402 448
3 448 405 449
3 448 404 405
3 450 407 451
3 450 406 407
3 407 403 447
3 451 407 447
3 405 408 452
3 449 405 452
3 408 409 452
3 452 409 453
3 409 410 454
3 453 409 454
3 410 411 454
3 454 411 455
3 411 412 456
3 455 411 456
3 412 413 456
3 456 413 457
3 457 414 458
3 457 413 414
3 414 415 459
3 458 414 459
3 415 416 459
3 459 416 460
3 416 406 450
3 460 416 450
3 418 461 462
3 418 417 461
3 419 462 463
3 419 418 462
3 419 463 464
3 420 419 464
3 420 464 421
3 421 464 465
3 421 465 466
3 422 421 466
3 422 466 467
3 423 422 467
3 424 467 468
3 424 423 467
3 424 468 469
3 425 424 469
3 426 469 470
3 426 425 469
3 427 426 471
3 471 426 470
3 429 428 473
3 473 428 472
3 417 473 505
3 417 429 473
3 430 427 471
3 520 430 471
3 431 474 475
3 431 430 474
3 428 476 472
3 428 432 476
3 433 431 475
3 477 433 475
3 434 478 476
3 432 434 476
3 479 433 477
3 479 435 433
3 434 480 478
3 434 436 480
3 437 435 479
3 481 437 479
3 438 482 436
3 436 482 480
3 439 437 483
3 483 437 481
3 440 484 482
3 438 440 482
3 441 439 483
3 485 441 483
3 442 486 440
3 440 486 484
3 443 441 487
3 487 441 485
3 444 488 442
3 442 488 486
3 445 443 487
3 489 445 487
3 444 446 488
3 488 446 490
3 491 445 489
3 491 447 445
3 490 446 492
3 492 446 448
3 492 449 493
3 492 448 449
3 494 451 495
3 494 450 451
3 451 447 491
3 495 451 491
3 449 452 496
3 493 449 496
3 496 453 497
3 496 452 453
3 453 454 498
3 497 453 498
3 498 455 499
3 498 454 455
3 455 456 500
3 499 455 500
3 456 457 501
3 500 456 501
3 457 458 502
3 501 457 502
3 458 459 503
3 502 458 503
3 503 460 504
3 503 459 460
3 504 460 494
3 494 460 450
3 461 505 506
3 462 461 506
3 507 463 462
3 507 462 506
3 465 463 508
3 508 463 507
3 464 463 465
3 465 508 509
3 465 509 466
3 466 509 510
3 466 510 467
3 467 510 511
3 467 511 468
3 468 511 512
3 468 512 513
3 469 468 513
3 469 513 470
3 515 470 514
3 470 513 514
3 470 515 471
3 472 516 473
3 518 516 517
3 518 505 516
3 461 417 505
3 505 473 516
3 505 518 506
3 515 514 519
3 474 430 520
3 521 520 519
3 520 471 515
3 520 515 519
3 474 520 524
3 476 522 472
3 516 472 523
3 472 522 523
3 516 523 517
3 520 521 524
3 477 475 524
3 524 475 474
3 525 477 524
3 478 526 522
3 476 478 522
3 527 477 525
3 527 479 477
3 478 528 526
3 478 480 528
3 481 479 527
3 529 481 527
3 482 530 480
3 480 530 528
3 483 481 531
3 531 481 529
3 484 532 530
3 482 484 530
3 485 483 531
3 533 485 531
3 486 534 484
3 484 534 532
3 535 485 533
3 535 487 485
3 486 536 534
3 486 488 536
3 537 489 535
3 535 489 487
3 490 538 539
3 536 490 539
3 488 490 536
3 538 540 539
3 541 542 543
3 541 489 537
3 542 541 537
3 541 491 489
3 490 492 538
3 545 493 544
3 538 492 493
3 538 493 545
3 540 538 545
3 544 546 545
3 547 548 549
3 543 495 541
3 547 494 495
3 547 495 543
3 608 547 543
3 495 491 541
3 493 496 544
3 544 497 550
3 546 544 550
3 544 496 497
3 550 497 551
3 551 497 498
3 498 499 551
3 551 499 552
3 499 500 552
3 552 500 553
3 500 501 553
3 553 501 554
3 554 502 555
3 554 501 502
3 502 503 556
3 555 502 556
3 503 504 556
3 549 504 547
3 556 504 549
3 504 494 547
3 506 557 507
3 507 557 558
3 508 507 558
3 508 558 559
3 509 508 559
3 509 559 560
3 510 509 560
3 510 560 561
3 511 510 561
3 511 561 562
3 512 511 562
3 514 512 563
3 563 512 562
3 513 512 514
3 517 564 518
3 518 564 557
3 566 564 565
3 557 564 566
3 557 506 518
3 558 566 567
3 558 557 566
3 559 567 568
3 559 558 567
3 560 568 569
3 560 559 568
3 561 569 570
3 561 560 569
3 562 570 571
3 562 561 570
3 563 562 571
3 572 563 571
3 574 514 563
3 572 574 563
3 573 519 574
3 574 519 514
3 519 573 521
3 522 575 523
3 577 575 576
3 577 517 575
3 564 517 577
3 575 517 523
3 564 577 565
3 573 574 572
3 521 573 579
3 580 573 578
3 579 573 580
3 579 524 521
3 524 579 525
3 522 581 575
3 522 526 581
3 576 581 582
3 576 575 581
3 583 580 584
3 583 579 580
3 583 525 579
3 583 527 525
3 526 585 581
3 526 528 585
3 582 585 586
3 582 581 585
3 587 584 588
3 587 583 584
3 587 527 583
3 587 529 527
3 528 589 585
3 528 530 589
3 586 589 590
3 586 585 589
3 591 588 592
3 591 587 588
3 591 529 587
3 591 531 529
3 532 593 589
3 530 532 589
3 590 593 594
3 590 589 593
3 595 592 596
3 595 591 592
3 595 531 591
3 595 533 531
3 534 597 593
3 532 534 593
3 594 597 598
3 594 593 597
3 599 596 600
3 599 595 596
3 599 533 595
3 599 535 533
3 534 601 597
3 534 536 601
3 602 597 601
3 602 598 597
3 603 599 600
3 604 603 600
3 603 535 599
3 603 537 535
3 536 539 601
3 606 540 605
3 606 602 540
3 602 601 539
3 540 602 539
3 605 607 606
3 608 609 610
3 608 543 609
3 604 542 603
3 609 543 542
3 609 542 604
3 542 537 603
3 540 545 605
3 605 546 607
3 612 607 611
3 605 545 546
3 607 546 611
3 612 613 614
3 612 611 613
3 614 615 616
3 614 613 615
3 616 617 618
3 616 615 617
3 618 619 620
3 618 617 619
3 620 621 622
3 620 619 621
3 622 623 624
3 622 621 623
3 610 548 608
3 624 623 548
3 624 548 610
3 548 623 549
3 548 547 608
3 546 550 611
3 611 550 613
3 613 550 551
3 551 552 615
3 613 551 615
3 552 553 617
3 615 552 617
3 553 554 619
3 617 553 619
3 554 555 621
3 619 554 621
3 621 555 623
3 623 555 556
3 556 549 623
3 565 625 626
3 567 566 626
3 626 566 565
3 567 626 627
3 568 567 627
3 568 627 628
3 569 568 628
3 569 628 629
3 570 569 629
3 570 629 630
3 571 570 630
3 572 571 631
3 631 571 630
3 572 631 578
3 576 632 577
3 625 632 633
3 565 577 632
3 565 632 625
3 625 633 634
3 626 625 634
3 626 634 627
3 627 634 635
3 627 635 628
3 628 635 636
3 628 636 629
3 629 636 637
3 629 637 630
3 630 637 638
3 631 638 639
3 631 630 638
3 640 578 639
3 578 573 572
3 578 631 639
3 578 640 580
3 576 641 632
3 576 582 641
3 633 641 642
3 633 632 641
3 633 642 643
3 634 633 643
3 634 643 644
3 635 634 644
3 635 644 645
3 636 635 645
3 636 645 646
3 637 636 646
3 637 646 647
3 638 637 647
3 638 647 648
3 639 638 648
3 640 648 649
3 640 639 648
3 584 580 640
3 649 584 640
3 582 650 641
3 582 586 650
3 642 650 651
3 642 641 650
3 642 651 652
3 643 642 652
3 643 652 653
3 644 643 653
3 644 653 645
3 645 653 654
3 645 654 646
3 646 654 655
3 646 655 647
3 647 655 656
3 647 656 648
3 648 656 657
3 648 657 649
3 649 657 658
3 588 584 649
3 658 588 649
3 586 659 650
3 586 590 659
3 650 659 651
3 651 659 660
3 651 660 661
3 652 651 661
3 652 661 662
3 653 652 662
3 653 662 654
3 654 662 663
3 654 663 664
3 655 654 664
3 655 664 665
3 656 655 665
3 656 665 666
3 657 656 666
3 657 666 658
3 658 666 667
3 592 588 658
3 667 592 658
3 590 668 659
3 590 594 668
3 660 668 669
3 660 659 668
3 660 669 670
3 661 660 670
3 661 670 671
3 662 661 671
3 662 671 663
3 663 671 672
3 663 672 664
3 664 672 673
3 664 673 665
3 665 673 674
3 665 674 666
3 666 674 675
3 666 675 667
3 667 675 676
3 596 592 667
3 676 596 667
3 594 677 668
3 594 598 677
3 668 677 669
3 669 677 678
3 669 678 679
3 670 669 679
3 670 679 680
3 671 670 680
3 671 680 681
3 672 671 681
3 672 681 682
3 673 672 682
3 673 682 683
3 674 673 683
3 674 683 684
3 675 674 684
3 676 684 685
3 676 675 684
3 600 596 676
3 685 600 676
3 598 686 677
3 598 602 606
3 678 686 687
3 678 677 686
3 678 687 679
3 679 687 688
3 679 688 680
3 680 688 689
3 680 689 681
3 681 689 690
3 681 690 682
3 682 690 691
3 683 691 692
3 683 682 691
3 684 692 693
3 684 683 692
3 685 693 694
3 685 684 693
3 694 604 685
3 685 604 600
3 598 606 686
3 606 607 695
3 686 606 695
3 686 695 687
3 688 687 696
3 696 687 695
3 688 696 697
3 689 688 697
3 689 697 698
3 690 689 698
3 690 698 699
3 691 690 699
3 691 699 700
3 692 691 700
3 692 700 701
3 693 692 701
3 610 609 694
3 701 610 694
3 701 694 693
3 609 604 694
3 607 612 695
3 695 612 696
3 696 612 614
3 614 616 697
3 696 614 697
3 616 618 698
3 697 616 698
3 618 620 699
3 698 618 699
3 620 622 700
3 699 620 700
3 622 624 701
3 700 622 701
3 624 610 701
