OFF
702 1400 0
-0.252107478899392 -0.348067947488124 2.13461140087046
-0.297661686233696 -0.333869171179626 2.1175473603324
-0.269438760794735 -0.351729008783662 2.08914213327075
-0.205172567577571 -0.354495512855933 2.1389245580268
-0.223401245336507 -0.362318241748298 2.09379873252923
-0.158318853293182 -0.358903557825175 2.14177136822526
-0.176971394760356 -0.36625766156407 2.09564700929191
-0.112899333999259 -0.362731522945619 2.14585173673136
-0.131608310593777 -0.369983043982957 2.09720878575765
-0.0679660626777746 -0.366385396580355 2.15029814357411
-0.086810610645736 -0.373436252943208 2.10158483571647
-0.0204270369640042 -0.369386706619282 2.15767800551291
-0.040981408894582 -0.376710176370644 2.10982282699124
0.0276550441921109 -0.364940302707795 2.16614222933749
0.00636411460788386 -0.378306676463871 2.11866109762128
0.0528247827623716 -0.369448829947707 2.12776207337857
-0.32044949879745 -0.306868873198078 2.14714786189009
-0.350362426944827 -0.288466535034781 2.12061018788174
-0.328987295500932 -0.316900480730669 2.0907218490701
-0.279845320703752 -0.323422383290049 2.16601355093053
-0.233058265579971 -0.332603649778262 2.17749221202478
-0.185311532495349 -0.337668316382245 2.18098702488621
-0.138501538115729 -0.34143712468723 2.1860789513527
-0.0932461337116022 -0.344691917512652 2.1916479974005
-0.0489011531197044 -0.349786763904111 2.19388249634918
-0.000234559188530575 -0.35049845782162 2.20101341465653
0.0734919859943884 -0.348666822162484 2.17249094032131
0.0448698731975314 -0.338350129254836 2.20925469138799
0.0907970161256862 -0.317710408872791 2.20782883129392
-0.307597293832186 -0.287915092402571 2.18963077198447
-0.347938336657629 -0.26647980181114 2.1626972055289
-0.261492338695279 -0.301797990078522 2.20644926507817
-0.211483845443753 -0.308092931913113 2.21412526494862
-0.163841752360074 -0.312249821579863 2.21905989359772
-0.116188083924433 -0.314600687332905 2.22604859153347
-0.0714509924427495 -0.317232452508714 2.23212601761849
-0.0291352882151276 -0.32615270192049 2.23057292034139
0.0121560193295988 -0.318051046428927 2.2415285332655
0.0577060665209822 -0.304327458468592 2.24349872928562
0.102324826713362 -0.281354525465357 2.23795541275814
-0.326110264894888 -0.251843021419773 2.21205537647248
-0.359477283083469 -0.229403995829272 2.18667389777734
-0.284988232078119 -0.267396773922124 2.23242428380969
-0.235875678450568 -0.278105107795894 2.24304282287252
-0.187080896651548 -0.28020900172111 2.25073408483253
-0.13958419449603 -0.284769240006153 2.25518206641226
-0.0880622357585709 -0.285603761093404 2.26467567033335
-0.0331344635025287 -0.294567027618558 2.26562886086384
0.0172614783232811 -0.287272639686854 2.27519311233436
0.0676089611579735 -0.271268591870008 2.27451826221288
0.112134118944905 -0.244445619404087 2.2677772622024
-0.310311004533656 -0.229621110664492 2.25566405966083
-0.350977428442124 -0.21066367648017 2.22552262104812
-0.260915058730648 -0.247086260933839 2.26965537133256
-0.213469767849018 -0.249467795824042 2.28029485373182
-0.167903876458156 -0.250484594294617 2.28837483050322
-0.123896237737579 -0.257963794026834 2.2888007560892
-0.0904425147100422 -0.246653123181576 2.30842378127971
-0.0554776026270843 -0.264991350934696 2.29468616809889
-0.0131706753553977 -0.261641962065249 2.30561422158656
0.0346815104578252 -0.25476800900376 2.30718113294501
0.0825702487944371 -0.235374193267973 2.30381267354435
-0.313732643421177 -0.191079421113855 2.29772987761206
-0.341819431459196 -0.19186199231614 2.26284698018336
-0.280631820092716 -0.216981196631492 2.29381439105073
-0.233511831776424 -0.219713644675052 2.31001375359256
-0.188758773981561 -0.218584527810849 2.32037379679308
-0.139800383456857 -0.223350989949756 2.32488271139739
-0.0943869645552752 -0.217896272425456 2.34028074329759
-0.0468755181707448 -0.230643115669768 2.3354343775711
0.00115556603784425 -0.230297451144112 2.34075326869455
0.0488584723784135 -0.222422081663026 2.33757211478453
0.0961307034352273 -0.199545424594718 2.33146544373638
-0.303257134766989 -0.168233650307963 2.33411702160167
-0.347535773687271 -0.154231315829385 2.29966827854017
-0.264393125345541 -0.192246697570794 2.33110936356881
-0.218440015323852 -0.186542206913465 2.35074345541628
-0.168357319231968 -0.19087588851957 2.35597275602964
-0.122542105457724 -0.19070326156381 2.36545453860226
-0.0709684310524254 -0.194580408091752 2.37150332526879
-0.025970620474799 -0.20081523473258 2.37316038500787
0.0203823320746321 -0.197593092210982 2.37445854852635
0.0642401666733635 -0.189544014916833 2.36574700015518
0.100426069903238 -0.163529089143463 2.36584416210354
-0.298716522499346 -0.130183919180329 2.37176442326964
-0.332565901033829 -0.137602039974495 2.33828403123621
-0.265058860865961 -0.159873727630922 2.36581962953565
-0.230534935776542 -0.148581650111745 2.38412796052788
-0.187729381818485 -0.156885354740773 2.3853184918285
-0.142591136802959 -0.157125694542369 2.39299814434005
-0.0953459835439779 -0.160439846201656 2.39870352095466
-0.0466946215179914 -0.164510211543966 2.4040893122611
0.00161785899156699 -0.167352545148696 2.40559501730957
0.0531417565012633 -0.160910564427767 2.39819253503661
0.100251653976348 -0.129051099162714 2.3918691413345
-0.340209863502739 -0.0992428082478104 2.35708573427376
-0.261604113891822 -0.111783562474991 2.39851258601897
-0.305342575200801 -0.0871006578534159 2.38886435163307
-0.212115269598933 -0.112501311078465 2.40768150572068
-0.166033483340158 -0.117210265434916 2.41251878864288
-0.119335246892742 -0.118241728731765 2.41905062568681
-0.0734896843133176 -0.122822078077893 2.4239190875223
-0.0267749284832647 -0.127297656976471 2.42867353073482
0.0198990986780108 -0.128583489372352 2.4265046583093
0.0641768443574757 -0.121570660365705 2.41657650763215
0.0456887273687889 -0.0836496596755743 2.43501494037118
-0.278614257913403 -0.0607989816509448 2.40804715981969
-0.236088020400139 -0.0701258272992585 2.41752957418619
-0.187029434768136 -0.0720039672128049 2.42362156985695
-0.141252431954344 -0.0731570432216783 2.42937755579368
-0.094942917320494 -0.0746249905788913 2.43512244238383
-0.0503178378941467 -0.0813317236904249 2.43974328767045
-0.0025714862121133 -0.0855684135531376 2.44246244637541
-0.247479207133802 -0.357482345210015 2.04955157616456
-0.27140492614952 -0.342010835129255 2.01480652007881
-0.247957270476188 -0.33332588259985 1.97759740044415
-0.197822189782978 -0.3637116071766 2.04984734156406
-0.219555807119034 -0.352918144506068 2.00926204535879
-0.151749840397981 -0.366304283163279 2.04903522249959
-0.171407657682306 -0.352862047293921 2.00366597576297
-0.106312782429967 -0.36925679313064 2.05140700455196
-0.126085273893169 -0.354353638205167 2.00425378714737
-0.0609497976074728 -0.373077722568621 2.05890896104505
-0.0784779556760522 -0.358134775772244 2.01019517796712
-0.0159974277808131 -0.377242645887612 2.06908517211372
-0.0327178391863142 -0.363116803899753 2.01916190689033
0.0300615324676508 -0.376078653229682 2.07764845226345
0.0115380186000131 -0.367678584920161 2.03023963276337
0.0594305913311529 -0.361003695333202 2.03952518730763
-0.29914118565332 -0.337863000374906 2.05834688933068
-0.337794008001675 -0.306824453761182 2.04385181966495
-0.308195023581786 -0.320783535380783 2.0107107621132
0.0974508849957365 -0.349260818782568 2.13290909947656
0.0731777788454336 -0.364630819930461 2.08744057159705
0.112742195705035 -0.343136057529945 2.09044532614694
-0.375836393180492 -0.252498117292234 2.11270212627843
-0.386283599056683 -0.237733525230311 2.06377585640604
-0.363277514671841 -0.280697699456089 2.07468508751435
0.118440120886079 -0.322538840491046 2.16780384468164
0.13895939121002 -0.318738175465389 2.12357308465272
0.155965026557995 -0.28873010571637 2.15231733958044
-0.378067103313394 -0.225420530573494 2.14552065706199
-0.394063955421996 -0.207205690755898 2.10005329541614
0.132235673094115 -0.288113984656387 2.1977196455574
0.163129683693495 -0.250923557703848 2.18479365340309
-0.38190938601799 -0.18854437538675 2.18119738234979
-0.394685205946085 -0.179146990722487 2.13786633582843
0.139970948466936 -0.249150479793513 2.22765674618033
0.169428918672539 -0.210262282324703 2.21103452063762
-0.376405639840601 -0.171310414902701 2.21986664241576
-0.397047822376569 -0.140994461438385 2.1790907883879
0.148505161659649 -0.209380569673461 2.25507747542345
0.173727403233686 -0.169685800120318 2.23928701032251
-0.368542922110424 -0.155146404595594 2.2595980271599
-0.392515386033307 -0.125420191319279 2.22518471754404
0.125327766858699 -0.204615402282735 2.29461535507043
0.157679722395118 -0.165611393991849 2.28228057885786
-0.382443437520725 -0.115889343967783 2.27371774370069
-0.400886016563223 -0.0801909780264112 2.24418375737346
0.132628506001996 -0.166154505487371 2.32504484516898
0.162664143443745 -0.12698790615538 2.30992738039359
-0.366907426284589 -0.11026851769063 2.31551520159986
-0.391342278465423 -0.0713032487185231 2.29202549564529
0.135982844762504 -0.130320169259424 2.35513826294733
0.159512196926569 -0.0915893055073265 2.34327656050814
-0.369918246048639 -0.0660664388863294 2.33518129037539
-0.337835081065441 -0.0564320034505684 2.37317387844852
-0.357753642676849 -0.0221695697990439 2.355191002021
0.0928638537774461 -0.0832322597017901 2.41421778211364
0.116014770430977 -0.0431033638020727 2.4019377082144
0.129619774295684 -0.0896860213677074 2.38339585695935
-0.312443193839628 -0.0297199704660297 2.39367240393073
-0.259995147607913 -0.0199228320504436 2.41597393067985
-0.292063636457129 0.00895264681123247 2.39999692468884
-0.210366691252848 -0.0287704120528912 2.42428514653036
-0.163123202550942 -0.025935941424289 2.42953829953864
-0.11650759452113 -0.0273951980087809 2.43484423020456
-0.0696779879114243 -0.0289197379950133 2.44015706632198
-0.026679346673928 -0.0397511616218093 2.44551843302703
-0.00135578119983486 -0.00298339301147476 2.44132927319525
0.0240111830346347 -0.0431363906738717 2.44348965331242
0.0727100634974184 -0.0419273407056631 2.42857312443182
-0.258669370357448 0.0382276809948722 2.40356559730067
-0.226965878091298 0.0140214383100328 2.41701653697836
-0.182863428646571 0.0193461513625933 2.41989887281639
-0.136770825488791 0.0193197153847917 2.42424957313686
-0.0900791372135895 0.0172390276934271 2.42923949244907
-0.041667151679692 0.0154441073193431 2.43428425136466
0.0141256723293246 0.0348512006667756 2.42737579148543
-0.336022850503673 -0.288746682017323 1.99518624664979
-0.319831032287053 -0.27402451274487 1.9565999480873
-0.289086895365421 -0.310190322085865 1.96930893579895
-0.240322926660057 -0.309831860057 1.94232178913473
-0.198263360673979 -0.334055842706127 1.9676441908707
-0.147756009134657 -0.329339563317126 1.96101555238242
-0.0977531416121649 -0.334631948537088 1.96889605796339
-0.0456809423681121 -0.338774676114657 1.97523046796794
-0.00034898024159527 -0.344492599389494 1.98376140889981
0.0437822503295574 -0.348184185338274 1.99966870189574
0.0861481956451363 -0.329973294477628 1.9991246057838
0.0989666222030162 -0.344644428231181 2.04675167281469
0.125466629295404 -0.317913410803047 2.02947385465498
-0.365920277996192 -0.267533404748566 2.02905483991624
-0.383714451316412 -0.220896479125418 2.0171152835061
-0.360242424337725 -0.246950212083518 1.98634426783454
0.142157267634833 -0.316066445788538 2.07407358242385
0.157951359800905 -0.286616248291634 2.04335550123308
0.16802300682581 -0.28448621295121 2.09856866035891
-0.397966582007583 -0.188740360958111 2.0543158212599
0.187676785541339 -0.242181230474307 2.09676536508915
-0.401005450398932 -0.158461946229619 2.08755484018991
0.179788816922175 -0.250888613722172 2.13910488252898
-0.402009138532887 -0.137195998347034 2.13076175496967
0.185334092237263 -0.209360970013307 2.16373727696536
-0.404159510933077 -0.0977207941000965 2.14711915862071
0.187840102859668 -0.169616315657229 2.18855021252076
-0.404054706280085 -0.0909110155690059 2.19450425152282
0.188411500813359 -0.13283268596561 2.21657808645169
-0.407293799134713 -0.0436355272040326 2.21391890826283
0.18063155080186 -0.121184961149648 2.26227319455344
-0.403420988552035 -0.0336872092728123 2.26449982558874
0.180765425265079 -0.0829245940391157 2.29586187038615
-0.386557974707875 -0.0261865481758904 2.31265607670114
-0.393104727576402 0.0116833851591274 2.28445457365468
0.149210117208763 -0.0475531960798349 2.36790716612347
0.173470446034382 -0.0503664912524339 2.32676743824949
-0.369320471704351 0.0166873462702157 2.33068552947231
-0.334452875712839 0.0116369324058362 2.37178809551837
-0.341537009874975 0.0536620787980966 2.3448928469625
0.0485109202259053 -0.00104413013899657 2.43217554704534
0.0949504635627151 -0.000689235284917791 2.41048738056426
0.133802125600353 -0.00205579382900966 2.37836723706117
-0.304703507824244 0.0494545497381553 2.37817873113115
-0.264226059389249 0.0761709719311147 2.38186776439203
-0.21168913158266 0.0601322715908042 2.40112387526725
-0.162649698862706 0.0622481090172522 2.40365276187799
-0.115298671967652 0.0611468493630292 2.40773395939316
-0.0679238772903052 0.0579276634598571 2.41303278882994
-0.0219325583448094 0.058544647087008 2.41590759697267
0.0316732960174856 0.0699751741432646 2.4033688053122
0.0654713347423418 0.0380039000567262 2.41117947190581
-0.308637737298501 -0.241605272367424 1.92180744562415
-0.277141477417297 -0.280971969302291 1.93050017516866
-0.228707995635079 -0.277674664297671 1.91024733094474
-0.191349644060137 -0.30628383787761 1.93299973801907
-0.147719978175967 -0.294111217363155 1.92384400573559
-0.107467985222377 -0.301938308470012 1.93277847393852
-0.0604322544677097 -0.310865861286771 1.94309270134916
-0.00425302978666804 -0.311998372000691 1.94678826662661
0.0433314668567076 -0.321772410868667 1.96389573415994
0.0885594878209065 -0.298006045817698 1.96332906589183
0.126602074656664 -0.294045391286961 1.99553136904754
-0.372037722983265 -0.19443979668601 1.97352087800799
-0.344224052854274 -0.23168610080869 1.95171023395155
0.159346016498878 -0.258050321068892 2.00627035915974
0.179640572264313 -0.251033499225825 2.0545566857078
-0.391054002385665 -0.173202838688314 2.01363232442536
0.19615549611882 -0.203473619967071 2.06943745816667
-0.396356667279531 -0.13288816416513 2.04343194722689
0.195237427137109 -0.20172290776644 2.11920131595659
-0.400215020336 -0.110038470884193 2.09142501199315
0.19592239143952 -0.159649408860531 2.14181239993589
-0.39934923156765 -0.066826799757417 2.11213232116744
0.195654115480741 -0.1209334440992 2.16932031242683
-0.404180748268031 -0.0519719666888666 2.16334370796647
0.192657334836839 -0.090587687466465 2.2148072763963
-0.403038198432185 -0.00696149076517373 2.18277602748822
0.189625727258186 -0.06964879412096 2.25445839885146
-0.404400846902627 0.00277353625198419 2.23427063540129
0.184776689409985 -0.0265618795848382 2.29043035012886
-0.389350572320621 0.0475272977221437 2.25389069962846
0.163594042776318 -0.00755063743371309 2.33830207250716
-0.370544388802914 0.0540038569339539 2.30154540418399
-0.337677943710002 0.0908027170147396 2.31429622724406
0.10774705506747 0.0393510277660814 2.38346368326601
0.142966301871936 0.0356150307891521 2.34716187262089
-0.303700843506038 0.0883271201414561 2.35117425358565
-0.260154404663152 0.114688746467294 2.35033804035943
-0.224499333363859 0.0958995016499753 2.37628747439637
-0.179598647710316 0.0997634574436447 2.37548408192299
-0.135479136611751 0.100178886986903 2.37727772757311
-0.0887437249096115 0.0962333970438846 2.38307868931587
-0.0454370015332281 0.0960366240347227 2.38537740738999
-0.00281841419168435 0.0941044354258733 2.38865582975312
0.0748495864683554 0.0763094694166095 2.38025959969426
-0.305261481815494 -0.206685063783516 1.89348476853723
-0.266756339050588 -0.245801456587092 1.89740166573916
-0.219860102472448 -0.242838723280356 1.87905504184919
-0.180165669446481 -0.269108201525983 1.9000159885704
-0.126336579548534 -0.259945617045071 1.89450641232636
-0.0804149982412824 -0.272394080479246 1.9078294766274
-0.0347284486681634 -0.284133834629124 1.92051093338927
0.00866349746530611 -0.27221125922283 1.91203537296938
0.0463404661071965 -0.289257838593945 1.93381418447741
0.0929268073931964 -0.263162658830276 1.93135268377943
0.129649254808538 -0.262049634111612 1.96406052957831
-0.36708499302736 -0.156503338772691 1.94382431802244
-0.342729443567797 -0.197135711918057 1.92735290602776
0.165253072855375 -0.223896269450801 1.97579965077825
0.185415248389503 -0.216331409727871 2.02224105213634
-0.386229233293865 -0.140350323405488 1.98838027817555
0.202418408732899 -0.168996335882636 2.04134211672455
-0.389687766587493 -0.0952720848075726 2.0106861293668
0.20164112251479 -0.158662723066731 2.09336529636888
-0.394023316142329 -0.0803211003995161 2.05763375755277
0.20209086216793 -0.112993555040138 2.11924962796162
-0.393239639048055 -0.03503419338347 2.08040048889769
0.199487391756667 -0.0764538514536659 2.16537986574153
-0.397816164632434 -0.0189321629582422 2.13016179663534
0.197642236285815 -0.0458778270827965 2.20112619358035
-0.396814999950951 0.0272215655911979 2.15162101370552
0.194050363661452 -0.027251207189243 2.2438024400928
-0.398168103982715 0.0383944690667871 2.2035911835956
0.190473490860433 0.01547390095732 2.25987352530288
-0.383025593556866 0.0827846870724755 2.22299016254839
0.172338011552189 0.0231006052280929 2.30492358708116
-0.364406092731137 0.0893576586708478 2.27059403183826
-0.330583981380717 0.126704930357228 2.28357698355902
0.114555691432095 0.0765755606974882 2.35092325123303
0.15051432114285 0.0697185143091399 2.31513022491291
-0.297330563946778 0.124011881679804 2.31995657639326
-0.248690810402988 0.148943497357198 2.32216591745204
-0.208449399550026 0.130239467911401 2.34696466611108
-0.157481466290247 0.136877902497296 2.34356014639819
-0.104800638957899 0.13025621030597 2.35203275267387
-0.0564173704077426 0.131716043895885 2.35310728666275
-0.0103298093020192 0.129536299429323 2.35730574332999
0.0374865139869583 0.108667795359911 2.36996570995826
0.0788187760371166 0.114105371780759 2.34853932000371
-0.299666989962303 -0.1724070581863 1.86375195502788
-0.261778995714807 -0.210548964748337 1.86701758172341
-0.213833862825454 -0.209509058261232 1.84968928418094
-0.168975606429854 -0.236193930171191 1.87129085818137
-0.121736834042763 -0.221354008578556 1.86041008612764
-0.0796919338308117 -0.235871083413547 1.87538333361783
-0.0350650492795562 -0.249452746573179 1.8896503092983
0.0112968060963129 -0.235141171113913 1.87919554301776
0.0544570634151107 -0.252548632471872 1.90198535377271
0.0999622973327319 -0.227407734019518 1.90031898013182
0.135808128231562 -0.228408951482522 1.93462292256945
-0.360556154191586 -0.120598107482704 1.9119546277593
-0.337312877021792 -0.163794147771978 1.89870585492044
0.171646507579412 -0.189516799305991 1.94606181385302
0.192047472822468 -0.181001959533041 1.99248761458701
-0.379785019469842 -0.107505024425147 1.95737669233323
0.208587975476789 -0.134732702487593 2.01244553004441
-0.383320313854934 -0.0626757013493103 1.97726151609843
0.2076385973298 -0.123166863310474 2.06500732138815
-0.387664239513759 -0.0427575451138738 2.02751542314108
0.209040918592579 -0.0778456332932253 2.08248022780923
-0.387686241985541 0.00173836786612775 2.05667167175038
0.204998168069542 -0.0628780271309927 2.12692223382809
-0.391632033771119 0.0169929715791239 2.10047637610669
0.204540158738213 -0.0204919262184533 2.1584556101282
-0.390398882624349 0.0614037774960646 2.11881143937512
0.200654231362057 0.00271497405393897 2.20691519801517
-0.392143079560999 0.072428105462105 2.1720078595079
0.197679737098841 0.0478393644860847 2.2262928241083
-0.376807824736577 0.117269857691751 2.19290850168571
0.177935884073272 0.0611368682333546 2.27392805672866
-0.357634731792116 0.124722792385669 2.24047067305531
-0.322207050146017 0.161983503205527 2.25516622082944
0.120050632511672 0.112449561904757 2.32015440796727
0.155993622221541 0.106132422790019 2.28446230501548
-0.287462168265868 0.159012108665126 2.29185011842252
-0.23907139151933 0.183296592707342 2.29309076489518
-0.197689538873334 0.163720499032318 2.31771497846662
-0.152806030149506 0.177825364813499 2.30737264120984
-0.115655000796344 0.161557908007904 2.32366173670587
-0.0679630084760728 0.164781437361061 2.32313365145465
-0.0175832963880142 0.165302963241868 2.32514049217578
0.0325031631138502 0.144884378195495 2.34081971375314
0.0802049327014046 0.149086490611737 2.32033448447795
-0.293364056288051 -0.138068214126764 1.83336012568589
-0.256116246366957 -0.175653806274382 1.83657429074
-0.209830034587282 -0.175166265196427 1.81985818614639
-0.165569679376635 -0.201982337072088 1.84103195675502
-0.115848375358987 -0.184877359544146 1.82825721920182
-0.073818265364228 -0.198575514935303 1.84250103321732
-0.0318725704606349 -0.213707742375155 1.85801682893534
0.0144228095327757 -0.198392079750988 1.84666550479899
0.0579243113772308 -0.217712400197004 1.87044557778332
0.103248524437032 -0.193762358879359 1.86883930184412
0.142098262280128 -0.194275323872285 1.90480453492329
-0.355487517253666 -0.0840437784208392 1.8828154531068
-0.331060251965817 -0.130015695403517 1.86865849211601
0.177681422618838 -0.155283071488982 1.91576053055977
0.198306133633736 -0.146253164543179 1.9621246495539
-0.373770462296372 -0.0707856702094122 1.92696357003402
0.214563854945305 -0.100895595819983 1.981186126996
-0.376369979129501 -0.0228845525248755 1.94351959397718
0.214160635834259 -0.0880044920327502 2.03191972851901
-0.381031328253692 -0.0164325585826028 1.98773034626112
0.214979958035459 -0.0399081702331497 2.05620701962938
-0.382339953100992 0.0138191373154155 2.01865554726778
0.210451667850066 -0.0255887376941883 2.10440183155721
-0.384649557153318 0.0524776180443914 2.06365392508131
0.211142130052114 0.018265179007767 2.12702959620257
-0.384393396282474 0.0949399709021688 2.08910320641478
0.206733954753092 0.0324651032879684 2.17411103838491
-0.386108440185494 0.106240006337393 2.14224610559776
0.204323167722736 0.0801368836479367 2.19457689639784
-0.369727809936919 0.152361788601249 2.16559247616076
0.184968018018837 0.0947999878836521 2.24213524577113
-0.350238246395456 0.159760080997547 2.21210410168151
-0.31506026635252 0.196600034085727 2.2258876587536
0.124862880892024 0.147532632584332 2.2905553119301
0.162383795948007 0.140460085894031 2.25387306959576
-0.279367819281039 0.193518561720777 2.26285193480648
-0.232816642883113 0.21835937157724 2.26221373292289
-0.190841098954242 0.200756494660672 2.2851128183006
-0.14026274815552 0.213968795611786 2.27584241889935
-0.10080427607392 0.196254268538156 2.29353227193841
-0.0525305521644575 0.199249232348094 2.29323570375047
-0.00445365589486868 0.200301587994152 2.29465730941922
0.0358398536121194 0.177765327666193 2.31235715857227
0.0873832479925046 0.181755929111559 2.29086064048556
-0.294548848160216 -0.101631150565978 1.8084908230361
-0.249649708569258 -0.139897989814798 1.80504375647209
-0.201777410534555 -0.14174196307855 1.79004565777662
-0.160423931056099 -0.169374033457677 1.81228353266582
-0.110595987626153 -0.150009590217893 1.7975542415235
-0.0669896542335746 -0.161023039207734 1.80943849915297
-0.0271389484738307 -0.175701967259145 1.82444710540777
0.0163808760638922 -0.161188349688833 1.81368454747629
0.0607581268436222 -0.183201504934826 1.83909022820617
0.107403563236968 -0.159680288931443 1.83756286204295
0.144499903964306 -0.162841842807134 1.87332862962499
-0.350049963449215 -0.0468795064374947 1.85354789629774
-0.328254442289743 -0.0940946223925216 1.84196053530654
0.178282515193526 -0.126617119103734 1.88168859889214
0.204276785582602 -0.111513192937407 1.93057964262514
-0.367589667624946 -0.0327948810138908 1.89570039645022
0.221570116400669 -0.063156503672779 1.9611741570449
-0.370056494700356 0.015085618238397 1.9179247737088
0.220019645096696 -0.0500212242420265 2.00636893995191
-0.375238019926953 0.0287903171427242 1.9674525134439
0.22116330511175 -0.00308561356683907 2.02585220018517
-0.378726708965994 0.0553994304512112 2.01472182440487
0.216717339759099 0.0102177623600257 2.07393854284119
-0.377794127516914 0.0980243694648477 2.03446664661031
0.217559629963377 0.0544648962900484 2.09505787337486
-0.378976861645583 0.133018657696996 2.06748673245372
0.213066526318213 0.0689323581514517 2.14350306546781
-0.379620579392219 0.141397612385614 2.11710280012125
0.210322310214966 0.114841960190463 2.16466378794126
-0.363342141358622 0.187066779583326 2.13584610275589
0.191414929249661 0.128401871972622 2.21158785144276
-0.343281577129093 0.194863164474767 2.1826639350361
-0.308902151533085 0.231138565197209 2.19546560391616
0.131673293111663 0.181948403306581 2.25965321127347
0.168753251625351 0.174850472488622 2.2232061326563
-0.273495720729197 0.227928494597488 2.23236004309708
-0.227215003407234 0.252967194483763 2.23149619231735
-0.183582298378416 0.235911559732121 2.25420292358996
-0.13493648895206 0.247799898022771 2.24598869307568
-0.0873378270032228 0.232799955273303 2.26169000522445
-0.0373287162604936 0.233583109509413 2.26344576180322
0.00918204917951163 0.233862944865517 2.26547761301783
0.0482513092907052 0.210291587333195 2.28234058213502
0.0944753635172606 0.216207717246188 2.26002011899661
-0.257245131680062 -0.102191116952761 1.78295971008711
-0.215724776026894 -0.105901125831851 1.76932770548208
-0.169311920303564 -0.103242996400081 1.76309053444632
-0.154453563724311 -0.136976444214218 1.78464141592098
-0.117173396422848 -0.109298769347788 1.76995054549193
-0.0704347898158419 -0.121221196560058 1.77989195981805
-0.0235767054545733 -0.13241012404731 1.78990466383232
0.0243441456783553 -0.121698907962906 1.78729231226928
0.0637873848188882 -0.149450787120757 1.80987153992017
0.108236059914819 -0.12333682875835 1.8098102385106
0.148617976070979 -0.127330209046321 1.84259619604477
-0.337687452522412 -0.00985754449404027 1.82839759764261
-0.321066474199629 -0.0566390315382298 1.81384947283122
0.197364263981006 -0.0892563937221652 1.88462469973756
0.215110173806182 -0.0665645262043416 1.91806593120458
-0.357881935380904 0.00639577111918914 1.86787197326345
0.220627117890674 -0.0232118140109474 1.92892377695985
-0.354932353263897 0.0506894936060514 1.88916666998803
0.22348844494092 -0.0116343477099889 1.97431942682371
-0.36460239972087 0.0641125248859126 1.93410643287993
0.220024163509312 0.0318859205788301 1.99333186436422
-0.371516552388887 0.0812905947755481 1.97999057094255
0.220257503394883 0.0469819235121516 2.04100507156632
-0.365463250866813 0.126814220027935 1.99503175784928
0.217186157771587 0.0893922155032225 2.0632465907207
-0.368471187373046 0.153936941253652 2.03099517703164
0.217051916727985 0.10470668864534 2.11061877129877
-0.372381685010859 0.175214058742587 2.08566930663228
0.211151510684221 0.146260319664965 2.13297109711967
-0.354566044369006 0.216259549156394 2.10075310572967
0.195712145330102 0.162797575765218 2.18116108065501
-0.337112338858406 0.227970412087532 2.15022442219039
-0.301525538146747 0.260576743695023 2.16218966883269
0.136748733276401 0.216377504309808 2.22735783488236
0.168641760192941 0.208495353370711 2.19036081953417
-0.266104526009742 0.261622011186996 2.2011738427121
-0.217478978470725 0.284185940118573 2.19579749872186
-0.180228671447457 0.270158365524969 2.22091322197828
-0.138410246637436 0.2787267577065 2.21026775821045
-0.0942966116042225 0.268883059399277 2.22437206952979
-0.0496451458449392 0.264546691379314 2.23080247915461
0.000425510196949183 0.263903554150862 2.23247804325075
0.0523367169470131 0.246087489129259 2.24939035444403
0.0977027941574318 0.247038853836097 2.2267943266353
-0.28259186245337 -0.0614995695910076 1.78140789617699
-0.237205448888434 -0.0625993962232445 1.75908546391499
-0.189536681534179 -0.0640963337247103 1.74947542010434
-0.137680643965738 -0.0681224885953168 1.7524726919736
-0.0871767775470988 -0.0747507814098645 1.75911842753356
-0.0410556625305949 -0.0847245695595206 1.76642165234046
0.00305559876612899 -0.0843222333796621 1.77041467142513
0.0500970268701737 -0.0741196911819604 1.77246346585994
0.0705206363627928 -0.109154232468275 1.78787614940793
0.102561849141686 -0.0735868002518949 1.78700899879192
0.139052503679306 -0.0909158580165542 1.81364431869623
-0.30252419837015 -0.0195963807988575 1.78987631975816
-0.277316053513406 0.022163235221539 1.77606383957861
-0.25999909980313 -0.0210317863305017 1.76251954818648
0.149288788474231 -0.0499147777705745 1.81109004458018
0.175415890315245 -0.083598192114528 1.84613937318321
0.178761209394534 -0.0361792666502386 1.83914247064924
-0.334598061848367 0.0443051169931645 1.84028683794154
-0.314822753993184 0.022003759933712 1.80622298992727
0.202925805685256 -0.0422325059642101 1.87688187932126
0.208249210244426 -0.000101323476629365 1.8939444705693
-0.331339156632854 0.0819909286777218 1.86671246645767
0.214107590439688 0.025780164857999 1.93728103711618
-0.341204911709713 0.101896670368911 1.90613452422343
0.209112162706103 0.0630354027727146 1.96489083276331
-0.35368174228323 0.112563710018491 1.9458394818604
0.211721475799315 0.0839000142884158 2.00714086079266
-0.342641124031545 0.151892164390198 1.95962752448266
0.2068643634783 0.121025943394573 2.03443191974803
-0.346478936651928 0.180198824295053 1.99618798707987
0.209271350784614 0.141707463759215 2.07646655533006
-0.359958375505317 0.195369030688457 2.04886281233045
0.201741273537021 0.177365542983479 2.10306446118149
-0.326132428989097 0.253219956503036 2.1127095735692
-0.338074777761414 0.237734824469432 2.06413180601343
-0.307167397995431 0.270724648369131 2.07041025845556
0.192287581712315 0.192604606455447 2.14737633972868
0.178958561310704 0.218603301289152 2.10393279034471
0.165720643890278 0.231199759253077 2.14923426768412
-0.258329907278834 0.286783608434266 2.16442161786033
-0.292141778100387 0.280458886906338 2.12311961216883
-0.250292035738426 0.302248009185165 2.1220770429597
0.133035544488716 0.247436723205159 2.18846734266848
0.100688423190538 0.279659289329433 2.15269629290631
0.0883684998453465 0.272496656736902 2.1915246127272
-0.211119132921869 0.304200758707569 2.15585550894362
-0.167145297692556 0.298507503478667 2.17558045236874
-0.114234233375512 0.296150654940065 2.17796628991637
-0.0697686719024478 0.291201978011258 2.18674479289464
-0.0259569220567096 0.287912243851474 2.19177280787198
0.0167816534264748 0.287070244982645 2.19118718207591
0.0499659240543422 0.272523445383006 2.21437996658542
-0.211168850885793 -0.021368916707332 1.74652972593044
-0.159886764653167 -0.0253086956441176 1.74365087015794
-0.10912214633355 -0.0294062336279521 1.74939756932656
-0.0612546853906804 -0.0342817154362836 1.75504315202629
-0.0164291555792602 -0.0378790847843074 1.76027724410605
0.0276532013818154 -0.0337488164964984 1.76511113163339
0.0762459498761812 -0.0323942179569116 1.77290318255468
-0.233101169918604 0.01994360644643 1.75530672954858
-0.205855451059551 0.0574015674121273 1.75961911521613
-0.181702325691203 0.0180500847703864 1.74599391210434
-0.130908671628697 0.0146757810868853 1.7491801107218
-0.0832395491637274 0.0135420201783232 1.75515433540974
-0.0359743946465786 0.010081296266401 1.7606833331015
0.00880089138398799 0.0115213312647634 1.76681642352024
0.0557348658129904 0.0107256841099462 1.77295035561171
0.103885819669272 0.0118520366166915 1.78761013237539
0.150977909188969 0.00279038806423357 1.81500884420972
0.11976815891424 -0.0285931316341179 1.79031984495636
-0.295315224351564 0.061872084590055 1.80437071635736
-0.263324598531073 0.100334507790019 1.80696233982541
-0.252744541752096 0.0625804155503636 1.77674625662932
0.126948701602049 0.0452531764136376 1.81222359119814
0.184884536365897 0.00562519861104074 1.85260971810446
0.1630264591645 0.0458024921844769 1.84413002311162
-0.3031342887802 0.0925743405866293 1.83558886284593
-0.269825780300234 0.130925649836693 1.84322462945093
0.193369409169622 0.0414035418664437 1.88746887624695
0.165495327649757 0.0804586438055442 1.87849839415565
-0.307732549912476 0.124897723203497 1.8754150386448
-0.27683000396069 0.160928904367638 1.88136064934637
0.192337489012615 0.0715377738820094 1.92081769103281
0.163558348047854 0.112385080565215 1.91411826366485
-0.318833136309798 0.148973287094508 1.91578653857935
-0.281674779260287 0.188733549437507 1.91550336231466
0.190927116629852 0.103813062377714 1.95805541724241
0.16252129891696 0.143337667346439 1.94997518035676
-0.315695157671924 0.186845988402518 1.9510524154535
-0.279737641331584 0.222220340188097 1.94987690731472
0.19023179036463 0.131871178854313 1.99182151109661
0.161846788665314 0.173635807128667 1.98563017952458
-0.312915036062976 0.221304261535508 1.98364466696412
-0.279138269540143 0.257408640500001 1.98896938863294
0.18916649296817 0.163593623701734 2.0293051197057
0.160624769547302 0.204137141572102 2.02066702339564
-0.33647211410106 0.220204384952588 2.02003483810703
-0.307227341203586 0.256964836107717 2.02515752002635
0.18745233498796 0.192091910018311 2.06254732669376
0.157389320913469 0.231997189607967 2.05748490873113
-0.273970988048221 0.293802929807013 2.08171858960966
-0.268901403097177 0.286788252342023 2.03347366494927
-0.236401322137205 0.307608457440244 2.06780083993154
0.135210018316834 0.260994195597864 2.14191319706477
0.148909991936022 0.251384732889396 2.09984769074084
0.10896952639975 0.278874808859181 2.10067320931806
-0.211886414514097 0.313966322180912 2.10783784846327
-0.186308898855443 0.315861862030223 2.07207252033097
-0.171361456338474 0.313772944023036 2.12641970603328
-0.142386350046859 0.314358636161252 2.08548891046187
-0.12890032315074 0.309777619080772 2.13557021470872
-0.0982718029932682 0.311011288613024 2.0906214268669
-0.0821067549226953 0.306738232350037 2.1383165008898
-0.0534166476727933 0.307512542328431 2.09400156807876
-0.0378128996076798 0.30322385700951 2.14431429659308
-0.00984464017750167 0.30412168522426 2.09765644658965
0.00670622526035658 0.300419878779606 2.14627771098399
0.034367339670759 0.300916948727057 2.10550966197448
0.0524092413919307 0.293364227871723 2.16109521542108
0.0721138559789658 0.294140102079134 2.11794092905007
-0.175100605430254 0.0903130910890371 1.77346019897364
-0.152569459102585 0.0562659368222665 1.75761990704149
-0.106852645476693 0.0585981229068008 1.76521504370665
-0.0581139695751753 0.0544372036247214 1.77069674263078
-0.0132184345177639 0.0561755344319052 1.77818479791327
0.0321728240997402 0.0553534694119139 1.78469152890677
0.0782046927291896 0.0512938158370142 1.79185724257206
-0.220153362195216 0.0982944665702062 1.78539009378901
-0.177594711911132 0.124982213472686 1.80100285706994
-0.13155765833956 0.10019830958265 1.78494429214596
-0.0806049349344745 0.0933025884672783 1.78870167393437
-0.0363038192615243 0.0964698652331249 1.79866956087295
0.00822108136864716 0.0963810676181168 1.80643899996834
0.0534139306357405 0.093509082586004 1.81216440153479
0.0968582288416797 0.083694067306105 1.81906493422791
0.13149836990955 0.0859458087662069 1.84418224141229
-0.225122465067862 0.131959102490809 1.81818127470667
-0.18528407721571 0.156504486125561 1.83619714450427
-0.139383028763939 0.140671139070993 1.82236373461814
-0.100171401555693 0.125086136896939 1.81276385602952
-0.0573975153973084 0.130122739388486 1.82700038342392
-0.0136941649413024 0.13069220686664 1.83650487997613
0.0344286313434954 0.127024447230778 1.84209279971297
0.0842866366038155 0.119254161995718 1.84796497553014
0.129073026667873 0.116734892655348 1.87672539117423
-0.232001202933555 0.162277712483232 1.85442801848459
-0.187000925775006 0.186824751142556 1.87029168498107
-0.140952973748135 0.172575609370985 1.85827541239325
-0.0943399123138026 0.156604737755171 1.849586077692
-0.047418937666733 0.163039375238548 1.86640207910811
0.00278500292473668 0.159138903031483 1.87214752736304
0.0505976352311971 0.155058996054899 1.87721734491298
0.0927145005376732 0.147175478064356 1.88463116321726
0.127890021562101 0.149372643202988 1.91401995383569
-0.23551240527572 0.19174445583592 1.88839488644882
-0.189553420977997 0.215662495123702 1.90279403103972
-0.140600277948082 0.204737335813517 1.89486860369858
-0.0980263169048595 0.187537198053271 1.88396436272918
-0.0601816327423003 0.195832311634543 1.90105384125575
-0.0154581445472426 0.19009548932357 1.90360309711557
0.0325605003678333 0.186533859257397 1.90929003203621
0.0816286935413494 0.180163752936029 1.9167925295631
0.126829059745285 0.178676981984329 1.94751063053252
-0.238759361207696 0.220402316442789 1.92137992523329
-0.195919529568039 0.244147013462652 1.93531029039436
-0.145916378183535 0.235105092368527 1.9282750148812
-0.0966743042696036 0.223387544696216 1.92494963336895
-0.0451258686481588 0.22350312910889 1.93552746812968
0.0030536975599491 0.218947212616862 1.94011855459327
0.0494709960972529 0.215549955626686 1.94573158910604
0.0909849632537076 0.208307786176014 1.95432487588006
0.12600732922371 0.210774288097459 1.98453521821733
-0.243425513002132 0.251215762167916 1.95744076991247
-0.20562189305804 0.27303507907732 1.969646959274
-0.158643790185592 0.266940862876993 1.96191705698423
-0.112023837659728 0.257212858974007 1.96024970442715
-0.0673590714676789 0.252889054385125 1.96439103994686
-0.0183736940705796 0.250707450007891 1.9718418556475
0.0304458801518622 0.247158965226525 1.97770567031851
0.0795533214503273 0.241423153058327 1.98631625426439
0.124411068312528 0.239508370461405 2.01781185637092
-0.239226460541452 0.283745831663203 1.99842698669402
-0.182714259091473 0.294018737575268 1.99930591353904
-0.133970462755429 0.288081874814588 1.99734937365671
-0.0893197555879485 0.283463276099717 2.00040250342055
-0.0444370238656575 0.279477966388683 2.0046392393873
0.00194873717106442 0.276525491646421 2.01101310445808
0.0470336248142258 0.273637344816284 2.01734665410192
0.0877451660929368 0.266739769334102 2.02693441093965
0.119639947320717 0.264392364023383 2.06010957803402
-0.214318556696746 0.304341916180016 2.03075252094543
-0.160165489145357 0.307867600468251 2.03651696819338
-0.114383038167918 0.304483731626476 2.04215816887763
-0.0693037870429472 0.300626012814864 2.04592624538726
-0.0235319022147622 0.296723524008094 2.04984067489722
0.0236244268248805 0.2936005346014 2.05683734708266
0.0705745925905239 0.288321256318253 2.06660672354115
3 0 1 2
3 0 2 4
3 3 0 4
3 3 4 6
3 5 3 6
3 5 6 8
3 7 5 8
3 7 8 10
3 9 7 10
3 9 10 12
3 11 9 12
3 13 11 14
3 14 11 12
3 13 14 15
3 16 17 18
3 16 18 1
3 0 19 1
3 19 16 1
3 0 3 20
3 19 0 20
3 3 5 21
3 20 3 21
3 5 7 22
3 21 5 22
3 7 9 23
3 22 7 23
3 9 11 24
3 23 9 24
3 24 11 25
3 25 11 13
3 13 15 26
3 27 13 26
3 25 13 27
3 27 26 28
3 17 16 30
3 30 16 29
3 29 19 31
3 29 16 19
3 31 20 32
3 31 19 20
3 32 21 33
3 32 20 21
3 21 22 33
3 33 22 34
3 22 23 34
3 34 23 35
3 23 24 35
3 35 24 36
3 24 25 36
3 36 25 37
3 37 27 38
3 37 25 27
3 38 28 39
3 38 27 28
3 30 40 41
3 30 29 40
3 29 31 42
3 40 29 42
3 31 32 43
3 42 31 43
3 32 33 44
3 43 32 44
3 33 34 45
3 44 33 45
3 34 35 46
3 45 34 46
3 35 36 47
3 46 35 47
3 36 37 47
3 47 37 48
3 37 38 48
3 48 38 49
3 49 39 50
3 49 38 39
3 40 51 52
3 41 40 52
3 51 42 53
3 51 40 42
3 42 43 53
3 53 43 54
3 43 44 54
3 54 44 55
3 44 45 55
3 55 45 56
3 45 46 56
3 56 46 57
3 46 47 58
3 57 46 58
3 47 48 59
3 58 47 59
3 48 49 60
3 59 48 60
3 49 50 61
3 60 49 61
3 51 62 63
3 52 51 63
3 51 53 64
3 62 51 64
3 53 54 65
3 64 53 65
3 54 55 66
3 65 54 66
3 55 56 67
3 66 55 67
3 56 57 67
3 67 57 68
3 57 58 69
3 68 57 69
3 58 59 69
3 69 59 70
3 59 60 70
3 70 60 71
3 71 61 72
3 71 60 61
3 62 73 74
3 63 62 74
3 62 64 75
3 73 62 75
3 64 65 75
3 75 65 76
3 65 66 76
3 76 66 77
3 66 67 77
3 77 67 78
3 67 68 78
3 78 68 79
3 79 69 80
3 79 68 69
3 80 70 81
3 80 69 70
3 81 71 82
3 81 70 71
3 82 72 83
3 82 71 72
3 74 73 85
3 85 73 84
3 84 73 86
3 86 73 75
3 75 76 86
3 86 76 87
3 76 77 88
3 87 76 88
3 77 78 89
3 88 77 89
3 78 79 90
3 89 78 90
3 79 80 91
3 90 79 91
3 80 81 92
3 91 80 92
3 81 82 93
3 92 81 93
3 93 83 94
3 93 82 83
3 84 95 85
3 84 86 96
3 97 84 96
3 95 84 97
3 96 87 98
3 96 86 87
3 87 88 98
3 98 88 99
3 88 89 99
3 99 89 100
3 89 90 100
3 100 90 101
3 101 91 102
3 101 90 91
3 102 92 103
3 102 91 92
3 92 93 103
3 105 103 104
3 103 93 104
3 93 94 104
3 96 106 97
3 96 98 107
3 106 96 107
3 98 99 108
3 107 98 108
3 99 100 109
3 108 99 109
3 100 101 110
3 109 100 110
3 101 102 111
3 110 101 111
3 111 102 112
3 112 102 103
3 103 105 112
3 117 114 115
3 116 113 117
3 117 113 114
3 116 117 119
3 118 116 119
3 118 119 121
3 120 118 121
3 120 121 123
3 122 120 123
3 122 123 125
3 124 122 125
3 124 125 127
3 126 124 127
3 126 127 128
3 129 130 131
3 114 129 131
3 114 113 129
3 113 2 129
3 129 2 1
3 4 113 116
3 4 2 113
3 6 116 118
3 6 4 116
3 8 118 120
3 8 6 118
3 10 120 122
3 10 8 120
3 12 122 124
3 12 10 122
3 14 124 126
3 14 12 124
3 133 126 128
3 15 14 126
3 15 126 133
3 132 15 133
3 132 133 134
3 135 136 137
3 137 17 135
3 137 18 17
3 18 137 130
3 129 18 130
3 18 129 1
3 15 132 26
3 139 132 134
3 139 138 132
3 138 28 26
3 132 138 26
3 138 139 140
3 136 135 142
3 142 135 141
3 17 30 135
3 135 30 141
3 143 39 28
3 138 143 28
3 143 140 144
3 143 138 140
3 141 145 146
3 142 141 146
3 41 145 141
3 30 41 141
3 147 39 143
3 147 50 39
3 147 144 148
3 147 143 144
3 145 149 150
3 146 145 150
3 52 149 145
3 41 52 145
3 151 50 147
3 151 155 50
3 151 148 152
3 151 147 148
3 149 153 154
3 150 149 154
3 63 153 149
3 52 63 149
3 155 61 50
3 155 72 61
3 155 151 156
3 156 151 152
3 154 157 158
3 154 153 157
3 74 157 153
3 63 74 153
3 159 72 155
3 159 83 72
3 159 156 160
3 159 155 156
3 158 157 162
3 162 157 161
3 74 85 161
3 157 74 161
3 163 83 159
3 163 94 83
3 163 160 164
3 163 159 160
3 161 165 162
3 165 95 166
3 165 161 95
3 161 85 95
3 165 166 167
3 95 97 166
3 105 104 168
3 170 94 163
3 170 168 94
3 169 168 170
3 94 168 104
3 163 164 170
3 166 171 167
3 173 171 172
3 172 171 106
3 171 97 106
3 171 166 97
3 172 107 174
3 172 106 107
3 174 108 175
3 174 107 108
3 175 109 176
3 175 108 109
3 176 110 177
3 176 109 110
3 177 111 178
3 177 110 111
3 178 112 180
3 178 111 112
3 181 105 168
3 181 180 105
3 179 178 180
3 180 112 105
3 168 169 181
3 172 182 173
3 182 172 183
3 183 172 174
3 174 175 184
3 183 174 184
3 175 176 185
3 184 175 185
3 176 177 186
3 185 176 186
3 177 178 187
3 186 177 187
3 187 179 188
3 187 178 179
3 179 180 229
3 189 190 191
3 114 131 191
3 115 114 191
3 115 191 192
3 115 192 193
3 117 115 193
3 119 193 194
3 119 117 193
3 119 194 121
3 121 194 195
3 121 195 123
3 123 195 196
3 123 196 125
3 125 196 197
3 127 197 198
3 127 125 197
3 128 198 199
3 200 128 199
3 128 127 198
3 200 199 201
3 202 203 204
3 131 130 189
3 190 189 204
3 189 130 202
3 189 202 204
3 131 189 191
3 128 200 133
3 134 200 205
3 206 205 201
3 134 133 200
3 205 200 201
3 205 206 207
3 136 208 203
3 202 137 136
3 202 136 203
3 137 202 130
3 134 205 139
3 139 205 207
3 140 139 207
3 211 207 209
3 136 142 208
3 208 142 210
3 211 140 207
3 211 144 140
3 146 212 210
3 142 146 210
3 148 144 213
3 213 144 211
3 150 214 212
3 146 150 212
3 215 148 213
3 215 152 148
3 154 216 150
3 150 216 214
3 219 152 217
3 217 152 215
3 158 218 216
3 154 158 216
3 219 156 152
3 219 160 156
3 158 220 218
3 158 162 220
3 221 160 219
3 221 164 160
3 162 165 222
3 223 220 222
3 220 162 222
3 165 167 222
3 169 170 224
3 225 164 221
3 224 170 164
3 224 164 225
3 222 226 223
3 167 171 227
3 226 167 227
3 226 227 228
3 226 222 167
3 171 173 227
3 180 181 229
3 181 169 230
3 231 169 224
3 230 169 231
3 230 229 181
3 224 225 271
3 227 232 228
3 232 182 233
3 232 173 182
3 227 173 232
3 182 183 234
3 233 182 234
3 183 184 234
3 234 184 235
3 184 185 235
3 235 185 236
3 185 186 236
3 236 186 237
3 186 187 237
3 237 187 238
3 238 188 239
3 238 187 188
3 188 179 229
3 240 239 188
3 240 188 229
3 229 230 240
3 191 190 242
3 242 190 241
3 192 242 243
3 192 191 242
3 192 243 244
3 193 192 244
3 194 244 245
3 194 193 244
3 194 245 246
3 195 194 246
3 195 246 247
3 196 195 247
3 196 247 248
3 197 196 248
3 197 248 249
3 198 197 249
3 199 198 249
3 250 199 249
3 201 199 251
3 251 199 250
3 204 252 253
3 204 203 252
3 190 253 241
3 190 204 253
3 206 251 254
3 206 201 251
3 207 206 255
3 255 206 254
3 203 256 252
3 203 208 256
3 257 209 255
3 255 209 207
3 210 258 208
3 208 258 256
3 211 209 259
3 259 209 257
3 212 260 210
3 210 260 258
3 213 211 259
3 261 213 259
3 214 262 260
3 212 214 260
3 215 213 261
3 263 215 261
3 216 264 214
3 214 264 262
3 217 215 263
3 265 217 263
3 218 266 264
3 216 218 264
3 219 217 265
3 267 219 265
3 218 268 266
3 218 220 268
3 221 219 267
3 269 221 267
3 223 270 268
3 220 223 268
3 225 221 269
3 271 225 269
3 223 226 272
3 270 223 272
3 272 228 273
3 272 226 228
3 274 231 275
3 274 230 231
3 275 231 271
3 271 231 224
3 273 228 276
3 276 228 232
3 276 233 277
3 276 232 233
3 233 234 278
3 277 233 278
3 234 235 279
3 278 234 279
3 235 236 280
3 279 235 280
3 236 237 281
3 280 236 281
3 237 238 282
3 281 237 282
3 238 239 283
3 282 238 283
3 327 239 284
3 284 239 240
3 240 230 274
3 284 240 274
3 241 285 286
3 242 241 286
3 242 286 243
3 243 286 287
3 243 287 288
3 244 243 288
3 245 288 289
3 245 244 288
3 245 289 246
3 246 289 290
3 246 290 247
3 247 290 291
3 247 291 248
3 248 291 292
3 248 292 293
3 249 248 293
3 249 293 250
3 250 293 294
3 250 294 295
3 251 250 295
3 252 296 297
3 253 252 297
3 241 297 285
3 241 253 297
3 254 295 298
3 254 251 295
3 254 298 299
3 255 254 299
3 256 300 252
3 252 300 296
3 257 255 299
3 301 257 299
3 258 302 300
3 256 258 300
3 259 257 303
3 303 257 301
3 260 304 258
3 258 304 302
3 261 259 303
3 305 261 303
3 262 306 304
3 260 262 304
3 263 261 305
3 307 263 305
3 264 308 262
3 262 308 306
3 265 263 307
3 309 265 307
3 266 310 308
3 264 266 308
3 267 265 309
3 311 267 309
3 266 312 310
3 266 268 312
3 269 267 311
3 313 269 311
3 270 314 312
3 268 270 312
3 271 269 315
3 315 269 313
3 270 272 316
3 314 270 316
3 316 273 317
3 316 272 273
3 318 275 319
3 318 274 275
3 275 271 315
3 319 275 315
3 273 276 320
3 317 273 320
3 276 277 320
3 320 277 321
3 277 278 322
3 321 277 322
3 322 279 323
3 322 278 279
3 279 280 323
3 323 280 324
3 280 281 324
3 324 281 325
3 281 282 325
3 325 282 326
3 282 283 326
3 326 283 327
3 283 239 327
3 327 284 328
3 284 274 318
3 328 284 318
3 285 329 330
3 286 285 330
3 286 330 287
3 287 330 331
3 287 331 332
3 288 287 332
3 288 332 289
3 289 332 333
3 289 333 334
3 290 289 334
3 290 334 335
3 291 290 335
3 291 335 292
3 292 335 336
3 292 336 337
3 293 292 337
3 293 337 294
3 294 337 338
3 294 338 339
3 295 294 339
3 296 340 341
3 297 296 341
3 285 341 329
3 285 297 341
3 298 339 342
3 298 295 339
3 298 342 343
3 299 298 343
3 300 344 296
3 296 344 340
3 301 299 343
3 345 301 343
3 302 346 344
3 300 302 344
3 303 301 347
3 347 301 345
3 304 348 302
3 302 348 346
3 305 303 347
3 349 305 347
3 306 350 348
3 304 306 348
3 307 305 351
3 351 305 349
3 308 352 306
3 306 352 350
3 309 307 353
3 353 307 351
3 310 354 352
3 308 310 352
3 311 309 355
3 355 309 353
3 312 356 310
3 310 356 354
3 313 311 355
3 357 313 355
3 314 358 356
3 312 314 356
3 315 313 359
3 359 313 357
3 314 316 360
3 358 314 360
3 360 317 361
3 360 316 317
3 362 319 363
3 362 318 319
3 319 315 359
3 363 319 359
3 317 320 364
3 361 317 364
3 320 321 364
3 364 321 365
3 321 322 366
3 365 321 366
3 322 323 366
3 366 323 367
3 323 324 368
3 367 323 368
3 324 325 369
3 368 324 369
3 325 326 370
3 369 325 370
3 326 327 371
3 370 326 371
3 327 328 371
3 371 328 372
3 328 318 362
3 372 328 362
3 329 373 374
3 330 329 374
3 330 374 331
3 331 374 375
3 331 375 376
3 332 331 376
3 332 376 333
3 333 376 377
3 333 377 378
3 334 333 378
3 334 378 379
3 335 334 379
3 335 379 336
3 336 379 380
3 336 380 381
3 337 336 381
3 337 381 338
3 338 381 382
3 338 382 383
3 339 338 383
3 340 384 385
3 341 340 385
3 329 385 373
3 329 341 385
3 342 383 386
3 342 339 383
3 342 386 387
3 343 342 387
3 344 388 340
3 340 388 384
3 345 343 387
3 389 345 387
3 346 390 388
3 344 346 388
3 347 345 391
3 391 345 389
3 348 392 346
3 346 392 390
3 349 347 391
3 393 349 391
3 350 394 348
3 348 394 392
3 351 349 395
3 395 349 393
3 352 396 350
3 350 396 394
3 353 351 395
3 397 353 395
3 354 398 396
3 352 354 396
3 355 353 399
3 399 353 397
3 356 400 354
3 354 400 398
3 357 355 399
3 401 357 399
3 358 402 400
3 356 358 400
3 359 357 403
3 403 357 401
3 358 360 404
3 402 358 404
3 404 361 405
3 404 360 361
3 406 363 407
3 406 362 363
3 363 359 403
3 407 363 403
3 361 364 408
3 405 361 408
3 364 365 408
3 408 365 409
3 365 366 410
3 409 365 410
3 366 367 410
3 410 367 411
3 367 368 412
3 411 367 412
3 368 369 412
3 412 369 413
3 369 370 413
3 413 370 414
3 370 371 415
3 414 370 415
3 371 372 415
3 415 372 416
3 372 362 406
3 416 372 406
3 373 417 418
3 374 373 418
3 374 418 375
3 375 418 419
3 375 419 420
3 376 375 420
3 376 420 377
3 377 420 421
3 377 421 422
3 378 377 422
3 378 422 423
3 379 378 423
3 380 423 424
3 380 379 423
3 380 424 425
3 381 380 425
3 382 425 426
3 382 381 425
3 382 426 427
3 383 382 427
3 384 428 429
3 385 384 429
3 373 429 417
3 373 385 429
3 386 427 430
3 386 383 427
3 386 430 431
3 387 386 431
3 384 432 428
3 384 388 432
3 389 387 431
3 433 389 431
3 390 434 432
3 388 390 432
3 435 389 433
3 435 391 389
3 390 436 434
3 390 392 436
3 393 391 435
3 437 393 435
3 394 438 436
3 392 394 436
3 395 393 439
3 439 393 437
3 396 440 438
3 394 396 438
3 397 395 439
3 441 397 439
3 398 442 440
3 396 398 440
3 399 397 443
3 443 397 441
3 400 444 398
3 398 444 442
3 401 399 443
3 445 401 443
3 402 446 444
3 400 402 444
3 403 401 447
3 447 401 445
3 402 404 448
3 446 402 448
3 448 405 449
3 448 404 405
3 450 407 451
3 450 406 407
3 407 403 447
3 451 407 447
3 405 408 452
3 449 405 452
3 408 409 452
3 452 409 453
3 409 410 454
3 453 409 454
3 410 411 454
3 454 411 455
3 411 412 456
3 455 411 456
3 412 413 456
3 456 413 457
3 457 414 458
3 457 413 414
3 414 415 459
3 458 414 459
3 415 416 459
3 459 416 460
3 416 406 450
3 460 416 450
3 418 461 462
3 418 417 461
3 419 462 463
3 419 418 462
3 419 463 464
3 420 419 464
3 420 464 421
3 421 464 465
3 421 465 466
3 422 421 466
3 422 466 467
3 423 422 467
3 424 467 468
3 424 423 467
3 424 468 469
3 425 424 469
3 426 469 470
3 426 425 469
3 427 426 471
3 471 426 470
3 429 428 473
3 473 428 472
3 417 473 505
3 417 429 473
3 430 427 471
3 520 430 471
3 431 474 475
3 431 430 474
3 428 476 472
3 428 432 476
3 433 431 475
3 477 433 475
3 434 478 476
3 432 434 476
3 479 433 477
3 479 435 433
3 434 480 478
3 434 436 480
3 437 435 479
3 481 437 479
3 438 482 436
3 436 482 480
3 439 437 483
3 483 437 481
3 440 484 482
3 438 440 482
3 441 439 483
3 485 441 483
3 442 486 440
3 440 486 484
3 443 441 487
3 487 441 485
3 444 488 442
3 442 488 486
3 445 443 487
3 489 445 487
3 444 446 488
3 488 446 490
3 491 445 489
3 491 447 445
3 490 446 492
3 492 446 448
3 492 449 493
3 492 448 449
3 494 451 495
3 494 450 451
3 451 447 491
3 495 451 491
3 449 452 496
3 493 449 496
3 496 453 497
3 496 452 453
3 453 454 498
3 497 453 498
3 498 455 499
3 498 454 455
3 455 456 500
3 499 455 500
3 456 457 501
3 500 456 501
3 457 458 502
3 501 457 502
3 458 459 503
3 502 458 503
3 503 460 504
3 503 459 460
3 504 460 494
3 494 460 450
3 461 505 506
3 462 461 506
3 507 463 462
3 507 462 506
3 465 463 508
3 508 463 507
3 464 463 465
3 465 508 509
3 465 509 466
3 466 509 510
3 466 510 467
3 467 510 511
3 467 511 468
3 468 511 512
3 468 512 513
3 469 468 513
3 469 513 470
3 515 470 514
3 470 513 514
3 470 515 471
3 472 516 473
3 518 516 517
3 518 505 516
3 461 417 505
3 505 473 516
3 505 518 506
3 515 514 519
3 474 430 520
3 521 520 519
3 520 471 515
3 520 515 519
3 474 520 524
3 476 522 472
3 516 472 523
3 472 522 523
3 516 523 517
3 520 521 524
3 477 475 524
3 524 475 474
3 525 477 524
3 478 526 522
3 476 478 522
3 527 477 525
3 527 479 477
3 478 528 526
3 478 480 528
3 481 479 527
3 529 481 527
3 482 530 480
3 480 530 528
3 483 481 531
3 531 481 529
3 484 532 530
3 482 484 530
3 485 483 531
3 533 485 531
3 486 534 484
3 484 534 532
3 535 485 533
3 535 487 485
3 486 536 534
3 486 488 536
3 537 489 535
3 535 489 487
3 490 538 539
3 536 490 539
3 488 490 536
3 538 540 539
3 541 542 543
3 541 489 537
3 542 541 537
3 541 491 489
3 490 492 538
3 545 493 544
3 538 492 493
3 538 493 545
3 540 538 545
3 544 546 545
3 547 548 549
3 543 495 541
3 547 494 495
3 547 495 543
3 608 547 543
3 495 491 541
3 493 496 544
3 544 497 550
3 546 544 550
3 544 496 497
3 550 497 551
3 551 497 498
3 498 499 551
3 551 499 552
3 499 500 552
3 552 500 553
3 500 501 553
3 553 501 554
3 554 502 555
3 554 501 502
3 502 503 556
3 555 502 556
3 503 504 556
3 549 504 547
3 556 504 549
3 504 494 547
3 506 557 507
3 507 557 558
3 508 507 558
3 508 558 559
3 509 508 559
3 509 559 560
3 510 509 560
3 510 560 561
3 511 510 561
3 511 561 562
3 512 511 562
3 514 512 563
3 563 512 562
3 513 512 514
3 517 564 518
3 518 564 557
3 566 564 565
3 557 564 566
3 557 506 518
3 558 566 567
3 558 557 566
3 559 567 568
3 559 558 567
3 560 568 569
3 560 559 568
3 561 569 570
3 561 560 569
3 562 570 571
3 562 561 570
3 563 562 571
3 572 563 571
3 574 514 563
3 572 574 563
3 573 519 574
3 574 519 514
3 519 573 521
3 522 575 523
3 577 575 576
3 577 517 575
3 564 517 577
3 575 517 523
3 564 577 565
3 573 574 572
3 521 573 579
3 580 573 578
3 579 573 580
3 579 524 521
3 524 579 525
3 522 581 575
3 522 526 581
3 576 581 582
3 576 575 581
3 583 580 584
3 583 579 580
3 583 525 579
3 583 527 525
3 526 585 581
3 526 528 585
3 582 585 586
3 582 581 585
3 587 584 588
3 587 583 584
3 587 527 583
3 587 529 527
3 528 589 585
3 528 530 589
3 586 589 590
3 586 585 589
3 591 588 592
3 591 587 588
3 591 529 587
3 591 531 529
3 532 593 589
3 530 532 589
3 590 593 594
3 590 589 593
3 595 592 596
3 595 591 592
3 595 531 591
3 595 533 531
3 534 597 593
3 532 534 593
3 594 597 598
3 594 593 597
3 599 596 600
3 599 595 596
3 599 533 595
3 599 535 533
3 534 601 597
3 534 536 601
3 602 597 601
3 602 598 597
3 603 599 600
3 604 603 600
3 603 535 599
3 603 537 535
3 536 539 601
3 606 540 605
3 606 602 540
3 602 601 539
3 540 602 539
3 605 607 606
3 608 609 610
3 608 543 609
3 604 542 603
3 609 543 542
3 609 542 604
3 542 537 603
3 540 545 605
3 605 546 607
3 612 607 611
3 605 545 546
3 607 546 611
3 612 613 614
3 612 611 613
3 614 615 616
3 614 613 615
3 616 617 618
3 616 615 617
3 618 619 620
3 618 617 619
3 620 621 622
3 620 619 621
3 622 623 624
3 622 621 623
3 610 548 608
3 624 623 548
3 624 548 610
3 548 623 549
3 548 547 608
3 546 550 611
3 611 550 613
3 613 550 551
3 551 552 615
3 613 551 615
3 552 553 617
3 615 552 617
3 553 554 619
3 617 553 619
3 554 555 621
3 619 554 621
3 621 555 623
3 623 555 556
3 556 549 623
3 565 625 626
3 567 566 626
3 626 566 565
3 567 626 627
3 568 567 627
3 568 627 628
3 569 568 628
3 569 628 629
3 570 569 629
3 570 629 630
3 571 570 630
3 572 571 631
3 631 571 630
3 572 631 578
3 576 632 577
3 625 632 633
3 565 577 632
3 565 632 625
3 625 633 634
3 626 625 634
3 626 634 627
3 627 634 635
3 627 635 628
3 628 635 636
3 628 636 629
3 629 636 637
3 629 637 630
3 630 637 638
3 631 638 639
3 631 630 638
3 640 578 639
3 578 573 572
3 578 631 639
3 578 640 580
3 576 641 632
3 576 582 641
3 633 641 642
3 633 632 641
3 633 642 643
3 634 633 643
3 634 643 644
3 635 634 644
3 635 644 645
3 636 635 645
3 636 645 646
3 637 636 646
3 637 646 647
3 638 637 647
3 638 647 648
3 639 638 648
3 640 648 649
3 640 639 648
3 584 580 640
3 649 584 640
3 582 650 641
3 582 586 650
3 642 650 651
3 642 641 650
3 642 651 652
3 643 642 652
3 643 652 653
3 644 643 653
3 644 653 645
3 645 653 654
3 645 654 646
3 646 654 655
3 646 655 647
3 647 655 656
3 647 656 648
3 648 656 657
3 648 657 649
3 649 657 658
3 588 584 649
3 658 588 649
3 586 659 650
3 586 590 659
3 650 659 651
3 651 659 660
3 651 660 661
3 652 651 661
3 652 661 662
3 653 652 662
3 653 662 654
3 654 662 663
3 654 663 664
3 655 654 664
3 655 664 665
3 656 655 665
3 656 665 666
3 657 656 666
3 657 666 658
3 658 666 667
3 592 588 658
3 667 592 658
3 590 668 659
3 590 594 668
3 660 668 669
3 660 659 668
3 660 669 670
3 661 660 670
3 661 670 671
3 662 661 671
3 662 671 663
3 663 671 672
3 663 672 664
3 664 672 673
3 664 673 665
3 665 673 674
3 665 674 666
3 666 674 675
3 666 675 667
3 667 675 676
3 596 592 667
3 676 596 667
3 594 677 668
3 594 598 677
3 668 677 669
3 669 677 678
3 669 678 679
3 670 669 679
3 670 679 680
3 671 670 680
3 671 680 681
3 672 671 681
3 672 681 682
3 673 672 682
3 673 682 683
3 674 673 683
3 674 683 684
3 675 674 684
3 676 684 685
3 676 675 684
3 600 596 676
3 685 600 676
3 598 686 677
3 598 602 606
3 678 686 687
3 678 677 686
3 678 687 679
3 679 687 688
3 679 688 680
3 680 688 689
3 680 689 681
3 681 689 690
3 681 690 682
3 682 690 691
3 683 691 692
3 683 682 691
3 684 692 693
3 684 683 692
3 685 693 694
3 685 684 693
3 694 604 685
3 685 604 600
3 598 606 686
3 606 607 695
3 686 606 695
3 686 695 687
3 688 687 696
3 696 687 695
3 688 696 697
3 689 688 697
3 689 697 698
3 690 689 698
3 690 698 699
3 691 690 699
3 691 699 700
3 692 691 700
3 692 700 701
3 693 692 701
3 610 609 694
3 701 610 694
3 701 694 693
3 609 604 694
3 607 612 695
3 695 612 696
3 696 612 614
3 614 616 697
3 696 614 697
3 616 618 698
3 697 616 698
3 618 620 699
3 698 618 699
3 620 622 700
3 699 620 700
3 622 624 701
3 700 622 701
3 624 610 701
