OFF
702 1400 0
-0.255160784311705 -0.335166520261238 2.16254564391534
-0.300639556544112 -0.321496302682841 2.14486008592041
-0.272364770516517 -0.340383187617752 2.11718001553485
-0.208250148780386 -0.341517480417031 2.16722115470533
-0.226359866341866 -0.350879803623068 2.12234126008614
-0.161412842273106 -0.34590118391583 2.17036051670703
-0.179942660618779 -0.354829307412822 2.12446508038816
-0.116012326127444 -0.349659740701522 2.17470814152942
-0.134590995905262 -0.358573132696005 2.12629190959797
-0.0710988242753789 -0.353230733743393 2.17941404825176
-0.0898125043407829 -0.361945813746518 2.13092009517564
-0.023587055772099 -0.356051523697665 2.18703665854776
-0.0440135522208604 -0.365006272784039 2.13940469199557
0.0244776979383307 -0.351392208647309 2.19548475626365
0.00330290340374281 -0.366371900577392 2.14843522486218
0.0497521534164811 -0.357278928646245 2.15736091389516
-0.323466672656343 -0.293441840400058 2.17343210196798
-0.353269007491849 -0.275927126848213 2.14617897169732
-0.331856243749531 -0.305422063219401 2.11736507598058
-0.282947344179678 -0.30939428182808 2.19298551165237
-0.236210475843831 -0.318246988713429 2.20491776043287
-0.188483217114166 -0.32326578272274 2.20873031414971
-0.141695103007436 -0.326932227549251 2.21409098254738
-0.0964620665950972 -0.330065744789903 2.21990588277202
-0.0521328892342188 -0.335153036640484 2.22244974698514
-0.00348879398288546 -0.335696163900458 2.22974706696981
0.0703243783224228 -0.334983130349035 2.20139927916579
0.0416125516632722 -0.32334246736122 2.23769471773731
0.0875799753762574 -0.302841244616238 2.2356873774195
-0.310706019471423 -0.27303856495329 2.21526623528441
-0.350929901213924 -0.252489274239693 2.18748036819819
-0.264675224495263 -0.286402577810836 2.23269702758442
-0.214700675520713 -0.292508750484702 2.24073790900795
-0.16708068892075 -0.296569908088305 2.24595741091312
-0.119451982816817 -0.298754489852927 2.25316674801016
-0.0747376529717023 -0.301246761241794 2.25946642576594
-0.0324333464924134 -0.310285918776154 2.25835239283312
0.00883978997869733 -0.30187539097571 2.26914246155185
0.0544079548111411 -0.288166954436855 2.27076925578082
0.0990832157628594 -0.265475445727674 2.26456165870973
-0.32922124666651 -0.236175345411042 2.23636307618286
-0.362473938408227 -0.214580337712628 2.21011424063849
-0.288186723567257 -0.251077045692385 2.25738545541886
-0.239124532435261 -0.261489756185133 2.26851836031927
-0.190356349572445 -0.263404894004234 2.27642463620573
-0.142881033243706 -0.267885893745004 2.28117142562695
-0.0913887507369435 -0.268474065360351 2.29084283035401
-0.0364798925432052 -0.277489671806002 2.29227287100975
0.0139004921407049 -0.269949563681534 2.30172789943766
0.0642778561005186 -0.254062307871339 2.30064609525857
0.108869817772976 -0.227564745527959 2.29310694722575
-0.313511107029044 -0.212471538874907 2.27921711057017
-0.354055304424176 -0.194509986227926 2.24831081104897
-0.264187341652453 -0.229519724316066 2.29395730325002
-0.216777796300338 -0.231607222842356 2.30481563094854
-0.171237712340494 -0.232417011612075 2.31306277330688
-0.127244759454603 -0.239949749452149 2.31388134768496
-0.0938289836661106 -0.228016734907206 2.33319805209651
-0.0588562044061822 -0.246881093813239 2.32021350882766
-0.016575744900862 -0.243222577707982 2.33114487918671
0.031283663854083 -0.236377484418942 2.33261451196104
0.079216186328523 -0.217192442070039 2.32871511376284
-0.316988469596552 -0.172479881476097 2.31990221563419
-0.344973943446172 -0.174432588783672 2.28498378496237
-0.283921961530742 -0.198557354105667 2.31699206433438
-0.236854676624708 -0.200801009313439 2.33341812962351
-0.192130342757196 -0.199385285594626 2.34386663518456
-0.143193889025534 -0.204072680652378 2.34868589848318
-0.0978163854902775 -0.198159298824229 2.36402037057264
-0.0503134288175323 -0.211146242485764 2.35976417359888
-0.0022976509696763 -0.210694830697676 2.36521178243789
0.0454281988373524 -0.203014360670647 2.36190087646507
0.0927584012849068 -0.180443125941282 2.35514158670464
-0.30657972583583 -0.148395752669179 2.35550140896684
-0.350732186045813 -0.135530582748391 2.32045248895046
-0.267749406565835 -0.172563527997725 2.35344991803117
-0.221844225707909 -0.166253609893552 2.37301075648252
-0.171784827971218 -0.170485215969747 2.37853823667297
-0.125997447955618 -0.170057804912349 2.38814557579965
-0.07444868504881 -0.173807031970882 2.394480583001
-0.0294669925472271 -0.18005483949622 2.3964890918557
0.0168875485135095 -0.176866219702391 2.39781305101628
0.0607849101097788 -0.169198746822229 2.38895755100113
0.0970161439669207 -0.143256304962457 2.38825555417673
-0.302082764025432 -0.10906312831449 2.39181184888223
-0.33584660616475 -0.117588842767801 2.35850928515131
-0.268460129490189 -0.138998054513477 2.38700746282669
-0.233970326525649 -0.127131270455704 2.40501413741123
-0.191183151147511 -0.135459337237432 2.40662200924677
-0.146068166585873 -0.135506400859323 2.41444070108228
-0.09884589827214 -0.138697782686612 2.42039988620596
-0.0502178222898906 -0.142658399563141 2.42607028206709
-0.00191505813972175 -0.145526561622531 2.42781911106223
0.0496416426404845 -0.139432237097183 2.42035093275424
0.0968259738302147 -0.107890969720525 2.41306117161603
-0.343478211010131 -0.0785842945219575 2.37593824615367
-0.265016776958152 -0.0898022010608099 2.41801294607408
-0.308683141230367 -0.0653985020556168 2.40737831814875
-0.215556436936858 -0.0902816298740747 2.42734969465112
-0.169497434415642 -0.0948953249466452 2.43248649195372
-0.122820487585765 -0.0957756668356115 2.43919035142416
-0.0769975724437587 -0.1002593557925 2.44435311330384
-0.0303049494637947 -0.104643757867631 2.44940087782832
0.0163729132620289 -0.106081870524177 2.44741816571199
0.0606919338283337 -0.0994931610404695 2.43738422170264
0.0422165338548967 -0.0609212724222861 2.45443290403436
-0.281965029213476 -0.0384878415739675 2.42571189632362
-0.239483342556128 -0.0475486300810741 2.43564142397485
-0.190446259147325 -0.049294392849329 2.44194232931575
-0.144688474395662 -0.0503218178738997 2.44787229368658
-0.0983987030137983 -0.0516651922710281 2.45380374777845
-0.0537992819643294 -0.058280583796188 2.45878957078183
-0.00606866624246369 -0.0624989709604415 2.4617980581998
-0.25029911637906 -0.347550869522498 2.07788031664799
-0.274095317112508 -0.333261505296331 2.04254504421851
-0.250523134311165 -0.325919081335305 2.00512605773629
-0.200654233536986 -0.35384834090386 2.07854214426729
-0.222249420800468 -0.344441589079303 2.03753999634591
-0.154584335001419 -0.356544160260389 2.07795914262109
-0.17408500724599 -0.344660621708315 2.03208979197721
-0.109159716176102 -0.359487443628515 2.08056873829658
-0.128767244877868 -0.346205936284075 2.03286519819872
-0.0638257785144736 -0.363119484562444 2.08833543770791
-0.081184330081892 -0.349856384142525 2.03907763121257
-0.0189109196024557 -0.367001314875096 2.09878552159931
-0.035459613772524 -0.354598362710501 2.04834990443378
0.0271246515395771 -0.36561559695608 2.10744106551496
0.00875538833802494 -0.358844196800165 2.05971270717989
0.0566321464449995 -0.351928782994538 2.06890331554187
-0.301952080772323 -0.327550945112969 2.08583082248104
-0.340507393827838 -0.29697303760569 2.0701458454754
-0.310835765648687 -0.312129077910812 2.0376008849213
0.0943984292877559 -0.336997632155079 2.16193428644323
0.0702320305973881 -0.353904557603453 2.11695708453803
0.109825249393334 -0.332383666200442 2.11932872966246
-0.378656217751917 -0.240214364798215 2.13694449006751
-0.388933548353518 -0.227148664892938 2.08750178449136
-0.366035350429258 -0.26974410100262 2.09997226417128
0.1153320534599 -0.309109168280532 2.19593829137997
0.135987901820878 -0.306888204179196 2.15166359331268
0.152961815248587 -0.275923660951671 2.1793942875099
-0.380935674411272 -0.212004456856834 2.16879151354345
-0.396766707035119 -0.19536072069978 2.12266857895775
0.129100239924423 -0.273684333164639 2.22467609227861
0.160097576994724 -0.237018858640831 2.2105531643423
-0.384817833545583 -0.173899556821315 2.20314829044029
-0.397449665050423 -0.165998691480679 2.15947764623045
0.13681611794783 -0.233712827922722 2.25325866013077
0.166391277875175 -0.195477212159698 2.23537822681682
-0.379397416602358 -0.155335939331105 2.24120907703015
-0.399866223991762 -0.126427070767674 2.19933865491097
0.145339745811859 -0.193024538916287 2.27930066166222
0.170678178145221 -0.153946797563791 2.26221063633529
-0.371623048611047 -0.137808469070557 2.28037573991584
-0.395441857542732 -0.109261448528322 2.24487454810152
0.122054671726566 -0.186844241840605 2.31857853876752
0.154511402329163 -0.148348080634349 2.30498756363796
-0.385495826718106 -0.0980596367794869 2.29307549944461
-0.403788603833881 -0.0633830211369608 2.26225886377533
0.12933368343031 -0.147357136316678 2.34766942613726
0.159482574847052 -0.108791740212733 2.33128485013764
-0.370072856061589 -0.0910095457922095 2.33469781333031
-0.394369881423658 -0.0528471805016546 2.30978980443788
0.132662678679275 -0.110500171822536 2.37650424872922
0.156294986069357 -0.0722458533851262 2.36336912888547
-0.373063593077103 -0.0461432370042728 2.35280067724322
-0.341075312050653 -0.035242186493655 2.39053004968351
-0.360880543697322 -0.00159512242612516 2.37130311076809
0.0894532456482096 -0.0613080267093113 2.43377541033167
0.112710812242456 -0.0216705003325267 2.42017226577447
0.126288173099769 -0.0688942717127195 2.40330777489032
-0.315696766511513 -0.00787329406878295 2.41016021381307
-0.263297317977994 0.00260908105940933 2.43226354331464
-0.295267791005253 0.0309626143996244 2.41519275017142
-0.213709167499312 -0.00602537689147778 2.44102716864882
-0.166476402962411 -0.00308766599092552 2.44631988759719
-0.119879234491583 -0.00443817907470739 2.45181326969858
-0.0730682039989546 -0.00585404957184898 2.45731647239824
-0.0301046543075696 -0.0165630782425777 2.46318138858224
-0.00470415354145845 0.0199940892353337 2.45778797557908
0.0205855772643917 -0.0201010772974849 2.46142397261884
0.0693301444010238 -0.0194939961882932 2.44662045205145
-0.261832638256973 0.0602889361620936 2.41783802361349
-0.230211509586494 0.0365142514083327 2.43222030338634
-0.186108410670049 0.0418631669160741 2.43504735925018
-0.140028912286602 0.0419121358802324 2.43953453974248
-0.0933558299271252 0.0399294181283801 2.44473401311793
-0.0449621181776297 0.0382313545566985 2.44998348149227
0.0108848717304863 0.0572930388578992 2.44256949398189
-0.338561362436966 -0.280607341685582 2.02088472707685
-0.32223029134643 -0.267267409896269 1.9818570187289
-0.291587399965527 -0.303018660559083 1.99591217340122
-0.242743765403366 -0.303682940671862 1.96907530848205
-0.200801547693055 -0.327078289692778 1.99535344528302
-0.150266701444484 -0.322679925790019 1.98871579444766
-0.100296613116344 -0.327777008523442 1.99692606180546
-0.0482506356578112 -0.331782514734941 2.00355727786102
-0.0029540867034422 -0.337274435536758 2.01241842049225
0.0411236268107659 -0.340481879168954 2.02857709511939
0.0835230034393467 -0.322371331347687 2.02752503612798
0.0961755240595635 -0.335392895044796 2.07567318603883
0.122773248713608 -0.309325010894287 2.05755283482415
-0.368520791106666 -0.258175652224151 2.05390279568619
-0.386197610204932 -0.211954299219446 2.04029011645021
-0.362681175820494 -0.239104751810811 2.01051733198308
0.139335955111795 -0.305950611596542 2.10211082615171
0.155272121533135 -0.277616432567158 2.07043148129544
0.165185179122507 -0.273577823021667 2.12556666957996
-0.400502349957064 -0.178496124870441 2.07630322744961
0.184918668398718 -0.231394169842004 2.12234747101454
-0.403585557356953 -0.147071330316136 2.10845638621122
0.176890962507519 -0.238605792015996 2.16494115308998
-0.404678770735935 -0.124309062871018 2.15089186051356
0.182436961997266 -0.196253180943693 2.18812624207015
-0.406807667546194 -0.0842836214608341 2.16585556140242
0.184940043024949 -0.15567113219991 2.21154485251411
-0.406830141569622 -0.0758247474509301 2.21297432669188
0.185493857160353 -0.117932913279559 2.23827393309357
-0.410042997117229 -0.0278952997421918 2.23071800220079
0.177600164640384 -0.104684942046012 2.28351131693255
-0.406301351564183 -0.0161945361863916 2.28093243349067
0.177702714997208 -0.0652761264865551 2.31574495615658
-0.389566764297078 -0.00704607817241751 2.32884803615793
-0.395963876021695 0.0298275509683429 2.29932297843449
0.145998147812964 -0.0273600950162244 2.38641738978668
0.170374296196142 -0.0316474005584742 2.34547379694007
-0.372306826790333 0.0364021773248385 2.34542232810384
-0.337569141219772 0.0327312422073886 2.38678045067444
-0.344500150483433 0.0738040189360378 2.35841426652172
0.0451925760240039 0.0215300849181699 2.4487217497969
0.0916962178066163 0.0210509929832069 2.4271737690824
0.130639651966 0.018500072245796 2.39523751251928
-0.307772110736869 0.0706994443411186 2.39193698973986
-0.267258678330055 0.0974611715561577 2.39481305720888
-0.214806910824054 0.0820170642442307 2.4147744733118
-0.165771471609061 0.0841385440343353 2.41737505430322
-0.118434658194497 0.0831018549900355 2.42163416988984
-0.0710813870047305 0.0799909802115346 2.42718413274926
-0.0250977008265409 0.0806316451603765 2.43017357465187
0.0285648292043827 0.0915287963106517 2.41740443864005
0.0622833908312941 0.0597935385264998 2.42642709435695
-0.310877689189624 -0.236100542230045 1.94598836930987
-0.279476513448034 -0.27519211467349 1.95614365792934
-0.230977980192716 -0.272683815044502 1.93593344313449
-0.193737120639521 -0.300543559694952 1.95978205484987
-0.150059356716867 -0.288770181102196 1.95033809571036
-0.109847648730524 -0.296347479397125 1.95966086919097
-0.0628582367683404 -0.304987670779792 1.97042129252461
-0.00669219900106507 -0.306083685016533 1.97432257735372
0.0408245177272005 -0.315333716639798 1.99190325277688
0.0860958062316178 -0.291676618279879 1.99064339749198
0.124050497840614 -0.286657809066918 2.02280185617628
-0.374346210786893 -0.1870542799148 1.99583443524452
-0.346534212248694 -0.225085013383204 1.97542003689026
0.156826093350045 -0.250364277969906 2.03237664889009
0.176990967727897 -0.241700514650736 2.08044941831806
-0.393442862542005 -0.164399131006102 2.0351233334305
0.193545839904628 -0.193677804379115 2.09371130805444
-0.398762063902374 -0.123060460859217 2.0634822685899
0.192484594380995 -0.190190209929245 2.14338081408069
-0.402721202933617 -0.0985436766872818 2.11063714266457
0.193177214028261 -0.147354548722362 2.16451221280376
-0.401840159265383 -0.0546372668479791 2.12982676751963
0.19289629151112 -0.107701925124796 2.19065171688033
-0.406795999506918 -0.0379965517452324 2.18047399849398
0.189819291056579 -0.0757825274948452 2.23504308602056
-0.405631280116316 0.00766261746416824 2.19832748837267
0.186708045182678 -0.0534678262433223 2.27393027759012
-0.407128124139164 0.0191907824454833 2.24944679075577
0.181829210143042 -0.00914398686347857 2.30836239751158
-0.392056765711991 0.0645768858467328 2.26753857408995
0.16053947396937 0.0115611786430695 2.35547796717811
-0.373379350121243 0.0726811445858875 2.31499449428058
-0.340485749284224 0.10984797148156 2.3265522106416
0.104642698395248 0.0601026534552014 2.39880808400786
0.139961855340529 0.0550438505475705 2.36276449732706
-0.306621601623429 0.108604349884013 2.36359588288843
-0.263026521231801 0.134848508282439 2.36197106086561
-0.22748102958726 0.116917078041362 2.38866703041641
-0.182571439360906 0.1206761968861 2.38786397549168
-0.138456727348472 0.121080808832975 2.38977433651317
-0.0917455907269205 0.117262654490632 2.3958495458051
-0.0484462246486574 0.117074408817646 2.39828359074864
-0.00584092727321345 0.115187132844196 2.40175522119413
0.0718199474690184 0.0969812810106764 2.39421789313391
-0.307356690988968 -0.202195518093016 1.91647488059812
-0.268932195433974 -0.241215204815051 1.9218695519003
-0.22197709051561 -0.238972209474955 1.90357145101497
-0.182390776086603 -0.264560070108324 1.92555507869866
-0.128529667390134 -0.255684574455257 1.91989064131269
-0.0826694444536182 -0.267736691804055 1.93377755362695
-0.0370411175739473 -0.2791025305823 1.94699782140142
0.00639648834426658 -0.267554916858811 1.93824162774282
0.0439791936939991 -0.283893624645636 1.96071479733351
0.0906184663493867 -0.257977502116215 1.95748409675678
0.127246523928231 -0.255784755825471 1.99024317804282
-0.369239395735929 -0.1501854005735 1.96484740208302
-0.34490715564522 -0.191408099058615 1.94987672501839
0.16288284137907 -0.217304091314632 2.00075076569876
0.182921724350585 -0.208156780768485 2.04696022429791
-0.388486026951098 -0.132455795177269 2.00875507459433
0.199952029834142 -0.160212287996041 2.06444912517617
-0.391930690194124 -0.086621008833145 2.02946417165168
0.199040045534059 -0.148068429439185 2.11607754692222
-0.396377864770468 -0.0700338002900959 2.07584839168433
0.19949415541313 -0.101524689034428 2.14035403368106
-0.395581329555725 -0.0239814248318198 2.09702352803104
0.196819483609412 -0.0633933309497151 2.18517336539582
-0.400275721003294 -0.00614529449875673 2.14617882135413
0.194923136911711 -0.0315855991241751 2.21982549208837
-0.399256329411158 0.0407273892695903 2.16601765559746
0.191238664461417 -0.0114752743752169 2.26181494356436
-0.400742493818692 0.0537091312583649 2.21756209187618
0.187689842299591 0.031790461937219 2.27637484011642
-0.385578890703751 0.0987240457408244 2.23544588553718
0.169435493655132 0.0410145284760834 2.32107680479419
-0.367087837450921 0.106923193730012 2.28284707813665
-0.33323829214229 0.144644612767931 2.29462051358111
0.111612513525511 0.0961577329501137 2.36500932637291
0.147664055483632 0.0879963128125432 2.32958531738494
-0.300096741075332 0.143167479930587 2.33117147428609
-0.25141984653491 0.168080325368957 2.3326555036202
-0.211284510048897 0.150186303025834 2.35821227433832
-0.160295174995735 0.156617385684367 2.35473108550755
-0.107651224630317 0.150208027617139 2.36358749855627
-0.0592688267319795 0.151624244614716 2.36475553794891
-0.0131977162276811 0.149515915394093 2.3691656782866
0.0345443535531327 0.12902261724636 2.38268934251166
0.0759489284218749 0.133640706907349 2.36121033560208
-0.301614456089362 -0.16898518724102 1.88558117785697
-0.263803474529111 -0.207052684269876 1.89028912915328
-0.21580585983303 -0.206697548421827 1.87307895974633
-0.171058367054702 -0.232686757193606 1.89573279987268
-0.123761748782055 -0.218313881833368 1.8844826245918
-0.0817866785289745 -0.23236934003128 1.90007925269199
-0.0372259153714368 -0.2455188826136 1.91494515026642
0.00919160817131547 -0.231657712209666 1.90413652282391
0.052253962733305 -0.248330895877545 1.92764910590095
0.0978081162384606 -0.22333893508601 1.92524309587954
0.133551146685637 -0.223201993960086 1.95966842837728
-0.362553672058019 -0.115424949159717 1.93176416396441
-0.339347685946173 -0.159095457207191 1.92010025606643
0.169424207966582 -0.183993857777752 1.96985089862969
0.189703598611242 -0.173898087259926 2.01601233909392
-0.381892863910833 -0.100723046882402 1.97664391175679
0.206266853089906 -0.126988095281057 2.03439336242282
-0.38540761040252 -0.0552213746694266 1.99494192019821
0.205183365508852 -0.113593683127419 2.0865165591947
-0.389864128539632 -0.0335546448417317 2.04445707015928
0.206614161345995 -0.0676927507132468 2.10240177498744
-0.38989344168197 0.0119315069498956 2.07204298549535
0.202467177893834 -0.0511768456196803 2.14628220766748
-0.393941088224183 0.0287118360701985 2.11527678527149
0.201991156885977 -0.00771554931170365 2.176316093051
-0.392683599392966 0.0737332640882756 2.13205488498667
0.198003701757521 0.017174548117329 2.22392465910346
-0.394564720341571 0.0866099576833891 2.18482883017778
0.195051762650998 0.0629524799522582 2.2417071683029
-0.379211992215504 0.132128209319348 2.20419819088206
0.175191441239641 0.077936756893953 2.28879005057419
-0.360165677366672 0.141204410492865 2.25152867088107
-0.324715757343075 0.178896417695686 2.2650214869453
0.117261054889683 0.130927099809384 2.33302424915458
0.153297611421094 0.123308804908931 2.29768221829658
-0.290084135341966 0.177149254241388 2.30189074951504
-0.241654508953924 0.201381974799343 2.30242850901033
-0.200379760630661 0.182608439502126 2.3278446965548
-0.155441269657846 0.196269400523877 2.31715120755221
-0.118366992598609 0.18051865710614 2.33410926838839
-0.0706680494713179 0.183642718779576 2.33361206601508
-0.0202936129448964 0.184150421957413 2.33575056341483
0.0297104981104409 0.164208356308019 2.35228274189199
0.0774796004290749 0.167614015599193 2.33180652306467
-0.295161739372476 -0.135738224940804 1.8540288654254
-0.257989807104012 -0.173250481334002 1.85866405794779
-0.211653876199837 -0.173423261793662 1.84208000222682
-0.167503254821167 -0.199557526633173 1.86430908563517
-0.117714562556617 -0.182991180664846 1.85109452726784
-0.0757506958488724 -0.196253647102004 1.86593355418802
-0.033877508651545 -0.210904786638105 1.88209356189938
0.0124779438933013 -0.196071315604828 1.87035369620733
0.055875260647741 -0.214622203078021 1.89492369393773
0.101246119869626 -0.190817975455459 1.8926187488709
0.139989016875583 -0.190140092324529 1.92869632722708
-0.357335023772556 -0.0799180982320257 1.90138274200507
-0.332947277211471 -0.126396441562138 1.88891159915605
0.17560845631321 -0.15084834373109 1.93839194028759
0.196112680068653 -0.140240343658907 1.98447443801347
-0.375724265840616 -0.0650972921862404 1.94498640269217
0.212394183620399 -0.094272294456267 2.00199053231551
-0.378288044895073 -0.0166434047477296 1.95985328942262
0.211864559913293 -0.0796181237818465 2.05224206210888
-0.383067944967987 -0.00864495808572514 2.00379785023835
0.212697219940857 -0.0307050498704849 2.07483891690817
-0.384414165272378 0.0226695282921442 2.03364473106001
0.208052527580072 -0.0147051697324304 2.12249101156771
-0.3867879131771 0.0628783887185966 2.07725985771454
0.208753732503204 0.0299103955495023 2.14357698148207
-0.386531751463061 0.106202411769695 2.10121286080067
0.204232216213071 0.0457517919973581 2.19012091885333
-0.388383076545918 0.11935272869818 2.15392378632962
0.201845270053221 0.0941125964479575 2.20890380899093
-0.371989912684833 0.166233835584812 2.17569585239391
0.182376281338794 0.110458313217658 2.25586337737397
-0.352624137589897 0.175218246017885 2.22197928625682
-0.317421978397585 0.212458343871263 2.23457460161889
0.122222076112756 0.164947967201693 2.30223374868286
0.159838128197664 0.156537560270348 2.26593327255933
-0.281843814773741 0.210609382057371 2.27173075275657
-0.2352472755787 0.235335579604756 2.27036589016544
-0.193370292881021 0.218472876867801 2.29399094575359
-0.142741716279046 0.231269779266199 2.2844169554014
-0.103366676349831 0.214117900173292 2.30283232026759
-0.0550870881720118 0.217020649700942 2.30257621177522
-0.00701279869444787 0.218042255919166 2.30410440743098
0.0331887502698121 0.196070550742784 2.32270048848362
0.0848020546048645 0.1992231714485 2.3012325008671
-0.296209239777692 -0.100189209509571 1.82790003476325
-0.251367644159991 -0.138627415967203 1.82592479382122
-0.203454793143805 -0.141072970492663 1.81114378940461
-0.16221559553521 -0.167980786006067 1.83445607592687
-0.112310539315078 -0.14922473112183 1.81920965356472
-0.0687587937927635 -0.159889075982282 1.83160163325551
-0.028978294161409 -0.174101416839619 1.84723266509716
0.0145984758143707 -0.160044355423035 1.83610086296056
0.0588620145956606 -0.181231163233728 1.86239204614713
0.105553102030931 -0.15785493636606 1.86018488563117
0.142538532652913 -0.159828078474514 1.89615026733256
-0.351746008952023 -0.0438067680039097 1.87085284309446
-0.329999733697711 -0.0914335260951228 1.86098520516612
0.176360188438708 -0.123389768226883 1.9033426008346
0.20223721307116 -0.106632185959465 1.9517546640908
-0.36938469297862 -0.0282308152856782 1.91243550399692
0.219525705460995 -0.0572661372235584 1.980695193856
-0.371832479812725 0.0204000342429022 1.93296838501113
0.217865546151258 -0.042559305820734 2.02539934254664
-0.377135404056617 0.0358331493470844 1.981972078052
0.219034617363502 0.00502559881668031 2.04323658056571
-0.38071613127714 0.0640811919307238 2.02827359102691
0.214470778250022 0.020006121123618 2.09081596783539
-0.379766499981099 0.107367532604956 2.04652198957133
0.215328936579809 0.0649617775613726 2.11038116536906
-0.380984632905862 0.14349460561029 2.07829738707073
0.210718955407555 0.0811182749422794 2.15827842767049
-0.381759417913206 0.153600785333389 2.12758876831123
0.20799343548014 0.127742775578355 2.17781623559671
-0.365455713659945 0.199869106292208 2.14477607392537
0.188972133753522 0.142963098437387 2.22418173840528
-0.345519139941487 0.209261104113907 2.1913533503516
-0.311113639071839 0.245904056788658 2.20298468119483
0.129183903702371 0.198253162726732 2.27017031590264
0.166358265922771 0.189826323922955 2.234104422509
-0.275821511314094 0.24392461260072 2.24007466713494
-0.229494417770493 0.26884115417144 2.23847657891551
-0.185958754296799 0.252515900134265 2.2618952756454
-0.137268144346403 0.264029705385582 2.25341720179027
-0.08974233552689 0.249507870445746 2.26977494952739
-0.0397372992906864 0.250268895585727 2.271652277616
0.00676771402277948 0.250542343185291 2.27381259984304
0.0457456570809116 0.227509000808765 2.29160475550004
0.0920454663013869 0.232566044042246 2.26923019769698
-0.258831687663931 -0.101701550410348 1.80251598510637
-0.217278044226054 -0.105953802467542 1.78914629107547
-0.170842446053593 -0.103591884048802 1.78295939405443
-0.156106944941022 -0.136577395577047 1.80571851948098
-0.118735059272504 -0.109491038009233 1.79018283059095
-0.0720469497993246 -0.12113679198357 1.80067426448673
-0.0252382806534685 -0.132047204470362 1.81121171209808
0.0227088365520367 -0.121513132578477 1.80837097538762
0.0620365906745575 -0.148525605611039 1.83202285667312
0.106531188100423 -0.12250342064505 1.83118381763588
0.146809467755394 -0.125417304583799 1.86421009078965
-0.339244429818135 -0.00770547757046175 1.84446340935292
-0.322663200843192 -0.0549936030116866 1.83160617699384
0.195499011153331 -0.0859810325711398 1.90503067303003
0.213186500911371 -0.0621655602934299 1.93771293297712
-0.359526184963089 0.00994879456351045 1.88328596491873
0.218747870614372 -0.0184695880621142 1.94706816246584
-0.356561180457695 0.0549536363393903 1.90303111520965
0.221496149078542 -0.00531992486268513 1.9920406348042
-0.366339610781762 0.069952607757899 1.94744601150339
0.218052673173469 0.0388429332908474 2.00951267568105
-0.373358324220191 0.0887327091011777 1.99268196151227
0.218172484058429 0.055592814502128 2.05663067183708
-0.367269071569675 0.134743350987782 2.00614383561437
0.215110495364148 0.0987583958581128 2.07736971753441
-0.370334913991643 0.163109390282843 2.04112991331614
0.214863997119702 0.115716719556667 2.12417814729819
-0.37436860459402 0.18628776977 2.09501646295957
0.20897112981241 0.158034719805765 2.14504933513731
-0.356525095941965 0.227804994839601 2.10871243139938
0.193419347518198 0.176268992032895 2.19258650731678
-0.339196268903976 0.241205992746453 2.15779717757971
-0.303587405133373 0.274150928241693 2.16872422746434
0.134414888025409 0.231525940906682 2.23670879381832
0.166402583971862 0.222304771433539 2.20010510608627
-0.268279341952109 0.276497118672649 2.20775424876653
-0.21959852845781 0.298779055898924 2.20173980714842
-0.182446971712303 0.285574653784439 2.22744123460264
-0.140582408922398 0.293697025126807 2.21662877127615
-0.0965278292572723 0.284278341051688 2.23120015387432
-0.0519031650003264 0.280094965948745 2.23791181258904
-0.00183886072138215 0.279427669910541 2.23975894281257
0.0499909472449711 0.26212653708785 2.25743812939518
0.095424848350472 0.262213652432708 2.23495881512067
-0.284102025101531 -0.0610469614960701 1.79946945265111
-0.238652205352525 -0.0630002726255049 1.77733518967684
-0.190958109055963 -0.0649106583593651 1.76792621790506
-0.139118278122412 -0.0689157486042271 1.77121762716423
-0.0886459179749626 -0.075391839525627 1.77824199172795
-0.0425641095146928 -0.0851811752721948 1.78602701758994
0.00153586527553992 -0.0847128914724333 1.79013583527679
0.0485889684701279 -0.0745230818352165 1.79196849545171
0.0689054391817359 -0.109032302351939 1.80865526983002
0.101011669207845 -0.0735699604660911 1.80664385180239
0.137393295536125 -0.0900195473901929 1.83397684896216
-0.303985316511742 -0.0188408079183249 1.80641097747412
-0.278663157016186 0.0223695615830792 1.79122564277121
-0.261382589186172 -0.0213004141108627 1.77924858969615
0.14770925646929 -0.0491495905516183 1.83002438112061
0.173673850158751 -0.0816327765023829 1.86630572333709
0.177123249482041 -0.0344924844874738 1.85766877885089
-0.336094587625512 0.0468338599975473 1.85446498026975
-0.316258562064943 0.0233247242700945 1.82125938290562
0.201166116583233 -0.0392652392535677 1.89566869648892
0.206513559013219 0.00342677417115575 1.91126690289868
-0.332846983373506 0.0854133466379477 1.87956938197912
0.212290123474346 0.0307949116867692 1.95369149964341
-0.342793483384284 0.106698865017327 1.91824319946404
0.207279204221603 0.0689990926586065 1.97996961050613
-0.355368150230892 0.118765520558298 1.95751423554348
0.209801076335 0.0913208893094359 2.02147362178604
-0.344298840482862 0.158532777267255 1.96995482916058
0.204929180720129 0.129384489269932 2.04743811758636
-0.348194223316752 0.18810424143767 2.00549378982906
0.207249038777701 0.151516126205801 2.088732649502
-0.361801680708653 0.205125539979405 2.05756662486116
0.199703645439179 0.188093017507196 2.11404761217416
-0.328061679435188 0.26511290232938 2.11945735008199
-0.339888457277178 0.247961979958122 2.07141381048829
-0.308941596769631 0.281099500788719 2.07663014137581
0.190146613131875 0.204884645014389 2.15777229975608
0.176991160426379 0.229373679780773 2.11340837137587
0.163642360818584 0.243565119353723 2.15820289840629
-0.260352421238751 0.300348059666091 2.17017003338651
-0.294053840417311 0.292642092507783 2.12901261849556
-0.252162895080734 0.314312150291808 2.12733600570636
0.130870742890515 0.261215339523058 2.19674741397401
0.098685714073696 0.292223698403132 2.15977710663657
0.0862391208749053 0.286440714763747 2.19879455984626
-0.213086063972887 0.31737740354955 2.16114310263933
-0.169180491922281 0.31230298396852 2.18118644921181
-0.116280902606129 0.309943096977962 2.183811723783
-0.071850121726364 0.305230027795214 2.19289084071655
-0.0280592027505076 0.302045105736736 2.19816193137517
0.0146793597911044 0.301112325527523 2.19773420838303
0.047769641237153 0.287328659008296 2.22151979772002
-0.212506223536838 -0.0222762382901678 1.76342677152997
-0.161222917279931 -0.0263990915895921 1.76084092214695
-0.110482706060568 -0.0303777750225197 1.76687928993592
-0.0626407084553123 -0.03513265226601 1.77283505617866
-0.0178371631072789 -0.0386195118807925 1.77832587062403
0.0262380032695172 -0.03439618260236 1.78314489320788
0.0748099503567627 -0.032851086954666 1.79103062948253
-0.234391433833969 0.0193536935321098 1.77069129675347
-0.207092562865844 0.0568940927329535 1.77377590008404
-0.182968854806791 0.0170511524143686 1.76160439125189
-0.132190808115453 0.0137058692375121 1.76505868346289
-0.0845415222432736 0.0127022254652414 1.77121175310736
-0.0372989925814838 0.00935817322652719 1.77699984111461
0.00746054098248862 0.0109370958417939 1.78321320546177
0.0543748093536476 0.0102781510693966 1.7895118837347
0.102484376677116 0.0118355105740096 1.80426777223123
0.149479696092982 0.0036573470587749 1.83210704978146
0.11828740888357 -0.0285167546071249 1.80843451494385
-0.296675469534953 0.0630717402689581 1.8180758083191
-0.264624892305224 0.101548078376641 1.81941989018583
-0.254022595185701 0.0627451460525049 1.79057124195341
0.125533619703495 0.0460368726065849 1.82776999019098
0.183280601515317 0.00774623118783276 1.86968764389876
0.161518353685671 0.0476393588699431 1.85974588257896
-0.304532158503042 0.0948575279509582 1.84818021168295
-0.271178727849302 0.133396642011962 1.85457317195337
0.191725994572187 0.0447050231638018 1.90330262345836
0.163947243381592 0.0834694934758271 1.89289148611803
-0.309190507998538 0.128558475850067 1.88684046567435
-0.278242145243234 0.164723891745545 1.89161803669666
0.19064914691484 0.0759862266212345 1.93557655962018
0.161961823704731 0.116622553175009 1.92736984308714
-0.320367277000947 0.154046448035625 1.92631396197928
-0.283138262953494 0.193710953599646 1.92475522517779
0.18918619070491 0.109543504492014 1.97166118947877
0.160873916922903 0.148809136554902 1.96212177660404
-0.317266252663384 0.193121376770893 1.96024630758626
-0.28124317588007 0.228373503184949 1.95794520190617
0.188441051149422 0.138763861732684 2.00442559032436
0.160147987475146 0.180334025693389 1.99669583617539
-0.314521239885386 0.228691262808812 1.99162471790447
-0.280696719568207 0.264903401447026 1.99578784636268
0.1873214712961 0.171776640903534 2.04077627439452
0.158876727212599 0.212041323728726 2.03064338852667
-0.338187075260988 0.228900890913882 2.02796029966715
-0.308892772369459 0.26576916554148 2.03188503215273
0.185559821232872 0.201420308384572 2.07299869753941
0.155582161446623 0.241174432236369 2.0664570020011
-0.275737963815162 0.304503242696942 2.08722592753438
-0.270538964303899 0.295801013218585 2.0392705237389
-0.238103291177542 0.317752416475678 2.07294772892111
0.133205919239281 0.273136501098983 2.14975534309923
0.147012523138753 0.262042381551829 2.10809197701778
0.107118293058993 0.289610706012177 2.10783813101689
-0.213695004145206 0.325462781021073 2.11281188568786
-0.18800917788742 0.326066783542661 2.07707906344544
-0.173225240393822 0.32585071388836 2.13151062337247
-0.144128968564025 0.324959794364041 2.09067138887905
-0.130798289978153 0.32210671871316 2.14092224600379
-0.100035662802343 0.321720438447949 2.09604983496094
-0.0840184226450729 0.319087430214728 2.14391321512143
-0.0551968692455118 0.318267401994316 2.09968448358464
-0.039748647146561 0.315711043664107 2.1501627748797
-0.0116418334280304 0.314933902848228 2.10358608894409
0.00475950590108157 0.312903473994254 2.15235631855069
0.0325411590997933 0.311931843749524 2.11167888218587
0.0504062726206402 0.30629338618515 2.16754795303175
0.0702389774935009 0.305530318096941 2.12445215516793
-0.176320601637682 0.0902174997104371 1.78655249859795
-0.153803008241721 0.0556010476935779 1.77197733635464
-0.10810467822015 0.058121031544643 1.779623548203
-0.0593897302893625 0.0540731177694563 1.78539321397922
-0.0145134054335236 0.0559972340475461 1.79295066579724
0.0308570139138141 0.055327453573998 1.79961820960017
0.0768603991974701 0.0514439925470371 1.80705920697254
-0.221394098038324 0.0986849758045234 1.79806151279628
-0.178834572769678 0.125830653687081 1.81286123938848
-0.132794250173538 0.100425209168739 1.7978152503858
-0.0818650173288709 0.0935803245686949 1.80196370873388
-0.0375878798208948 0.0970200298998819 1.8119478353023
0.00691376701667187 0.0971285658577419 1.81984913226485
0.0520844634642377 0.0943831822570765 1.82580674901377
0.0954909341223985 0.0847429093680597 1.83317576296596
0.130061013703657 0.0878122704196922 1.8583029883098
-0.226400247033529 0.133481498586368 1.82964318019258
-0.186571805491772 0.158574483448706 1.84691112517898
-0.140658259833232 0.14219200158481 1.83377624908362
-0.101446101856355 0.126216526289653 1.82484358285845
-0.058705438234418 0.131675895830064 1.83902393445415
-0.0150292768130493 0.132504199252296 1.84863379532386
0.033070351677031 0.128953871664656 1.85449056432534
0.0828971163391303 0.121310564056309 1.86077974886008
0.12759427276132 0.119722124008785 1.88974472817969
-0.233332070865547 0.16505778004613 1.86478930157938
-0.188335441647449 0.190068762861168 1.87992178530264
-0.142277543427544 0.17533268185908 1.8685481024222
-0.0956673507109603 0.158991072957328 1.8605610799842
-0.0487847417245253 0.165930754862573 1.87728298521892
0.00139514589206505 0.162149902888463 1.88331154616962
0.0491854089810118 0.158170115430987 1.88866397969864
0.0912663484655157 0.150480272126791 1.89647459702753
0.126359153963466 0.153643248947555 1.92587419579885
-0.236891178602734 0.195697578851958 1.89769676435385
-0.190932651412016 0.220027254551956 1.91139044409281
-0.141975747441752 0.20875105381747 1.90399784186883
-0.0994002868562671 0.191110340344833 1.89382804574943
-0.0615914414012584 0.199933953910785 1.91073113286386
-0.0168858147173458 0.194215433321756 1.91361309349362
0.0311095589498298 0.190774798186062 1.91956480193836
0.0801441909134956 0.184589011842266 1.92743208993975
0.125251385891651 0.184100063874178 1.95831877333385
-0.240184580638353 0.225494291151974 1.92965201306423
-0.197344115320042 0.249639544659249 1.94287389452565
-0.147336507928276 0.240274752211862 1.93630834410178
-0.0981055911296172 0.228366678780299 1.93354147812889
-0.0465883449341463 0.22876582134982 1.94426338060207
0.00156941843720544 0.224293001983491 1.94915508418927
0.047963961901023 0.221016716007918 1.95502240061079
0.0894396698973871 0.214009985042326 1.96398757949223
0.124377381005122 0.217471054898818 1.99419837014724
-0.244902413277305 0.257554951204103 1.96460172066261
-0.207096454191256 0.279724187491391 1.97615255396686
-0.160106643138899 0.273286078531057 1.96878089063497
-0.113499200776921 0.263428536287733 1.96759376157882
-0.068854485981642 0.259177821390535 1.97201735160401
-0.0198951388166142 0.257176314560432 1.97968661144987
0.028900662727335 0.253753660671719 1.9858170344403
0.0779724030867626 0.248240381143264 1.99476971755421
0.122733941503828 0.247351380458173 2.02644733037967
-0.240766546319387 0.291488351577928 2.00444047531905
-0.184239162950979 0.301691958771313 2.00512993218073
-0.135500360682454 0.2956096317427 2.00352789586823
-0.0908670256904983 0.291026354788459 2.00687419021521
-0.0460040307433502 0.287116895628977 2.01138196632462
0.000357522711719724 0.284311720665482 2.01799403443201
0.0454184422279721 0.281571584466535 2.02455966638644
0.0860894131560624 0.274945267988223 2.03450427677075
0.117882363344174 0.273704006978862 2.06783664366005
-0.215917517324209 0.313158514925265 2.03610231851392
-0.161775499639755 0.316793402273761 2.04190262385244
-0.116015859209639 0.313532531668551 2.04779571825204
-0.0709547437608364 0.309733906598245 2.0518312602336
-0.0252015077045637 0.305894497216199 2.05601670453212
0.0219284782896508 0.302939365891269 2.06325945760243
0.0688403540999932 0.297926352557482 2.07334782547193
3 0 1 2
3 0 2 4
3 3 0 4
3 3 4 6
3 5 3 6
3 5 6 8
3 7 5 8
3 7 8 10
3 9 7 10
3 9 10 12
3 11 9 12
3 13 11 14
3 14 11 12
3 13 14 15
3 16 17 18
3 16 18 1
3 0 19 1
3 19 16 1
3 0 3 20
3 19 0 20
3 3 5 21
3 20 3 21
3 5 7 22
3 21 5 22
3 7 9 23
3 22 7 23
3 9 11 24
3 23 9 24
3 24 11 25
3 25 11 13
3 13 15 26
3 27 13 26
3 25 13 27
3 27 26 28
3 17 16 30
3 30 16 29
3 29 19 31
3 29 16 19
3 31 20 32
3 31 19 20
3 32 21 33
3 32 20 21
3 21 22 33
3 33 22 34
3 22 23 34
3 34 23 35
3 23 24 35
3 35 24 36
3 24 25 36
3 36 25 37
3 37 27 38
3 37 25 27
3 38 28 39
3 38 27 28
3 30 40 41
3 30 29 40
3 29 31 42
3 40 29 42
3 31 32 43
3 42 31 43
3 32 33 44
3 43 32 44
3 33 34 45
3 44 33 45
3 34 35 46
3 45 34 46
3 35 36 47
3 46 35 47
3 36 37 47
3 47 37 48
3 37 38 48
3 48 38 49
3 49 39 50
3 49 38 39
3 40 51 52
3 41 40 52
3 51 42 53
3 51 40 42
3 42 43 53
3 53 43 54
3 43 44 54
3 54 44 55
3 44 45 55
3 55 45 56
3 45 46 56
3 56 46 57
3 46 47 58
3 57 46 58
3 47 48 59
3 58 47 59
3 48 49 60
3 59 48 60
3 49 50 61
3 60 49 61
3 51 62 63
3 52 51 63
3 51 53 64
3 62 51 64
3 53 54 65
3 64 53 65
3 54 55 66
3 65 54 66
3 55 56 67
3 66 55 67
3 56 57 67
3 67 57 68
3 57 58 69
3 68 57 69
3 58 59 69
3 69 59 70
3 59 60 70
3 70 60 71
3 71 61 72
3 71 60 61
3 62 73 74
3 63 62 74
3 62 64 75
3 73 62 75
3 64 65 75
3 75 65 76
3 65 66 76
3 76 66 77
3 66 67 77
3 77 67 78
3 67 68 78
3 78 68 79
3 79 69 80
3 79 68 69
3 80 70 81
3 80 69 70
3 81 71 82
3 81 70 71
3 82 72 83
3 82 71 72
3 74 73 85
3 85 73 84
3 84 73 86
3 86 73 75
3 75 76 86
3 86 76 87
3 76 77 88
3 87 76 88
3 77 78 89
3 88 77 89
3 78 79 90
3 89 78 90
3 79 80 91
3 90 79 91
3 80 81 92
3 91 80 92
3 81 82 93
3 92 81 93
3 93 83 94
3 93 82 83
3 84 95 85
3 84 86 96
3 97 84 96
3 95 84 97
3 96 87 98
3 96 86 87
3 87 88 98
3 98 88 99
3 88 89 99
3 99 89 100
3 89 90 100
3 100 90 101
3 101 91 102
3 101 90 91
3 102 92 103
3 102 91 92
3 92 93 103
3 105 103 104
3 103 93 104
3 93 94 104
3 96 106 97
3 96 98 107
3 106 96 107
3 98 99 108
3 107 98 108
3 99 100 109
3 108 99 109
3 100 101 110
3 109 100 110
3 101 102 111
3 110 101 111
3 111 102 112
3 112 102 103
3 103 105 112
3 117 114 115
3 116 113 117
3 117 113 114
3 116 117 119
3 118 116 119
3 118 119 121
3 120 118 121
3 120 121 123
3 122 120 123
3 122 123 125
3 124 122 125
3 124 125 127
3 126 124 127
3 126 127 128
3 129 130 131
3 114 129 131
3 114 113 129
3 113 2 129
3 129 2 1
3 4 113 116
3 4 2 113
3 6 116 118
3 6 4 116
3 8 118 120
3 8 6 118
3 10 120 122
3 10 8 120
3 12 122 124
3 12 10 122
3 14 124 126
3 14 12 124
3 133 126 128
3 15 14 126
3 15 126 133
3 132 15 133
3 132 133 134
3 135 136 137
3 137 17 135
3 137 18 17
3 18 137 130
3 129 18 130
3 18 129 1
3 15 132 26
3 139 132 134
3 139 138 132
3 138 28 26
3 132 138 26
3 138 139 140
3 136 135 142
3 142 135 141
3 17 30 135
3 135 30 141
3 143 39 28
3 138 143 28
3 143 140 144
3 143 138 140
3 141 145 146
3 142 141 146
3 41 145 141
3 30 41 141
3 147 39 143
3 147 50 39
3 147 144 148
3 147 143 144
3 145 149 150
3 146 145 150
3 52 149 145
3 41 52 145
3 151 50 147
3 151 155 50
3 151 148 152
3 151 147 148
3 149 153 154
3 150 149 154
3 63 153 149
3 52 63 149
3 155 61 50
3 155 72 61
3 155 151 156
3 156 151 152
3 154 157 158
3 154 153 157
3 74 157 153
3 63 74 153
3 159 72 155
3 159 83 72
3 159 156 160
3 159 155 156
3 158 157 162
3 162 157 161
3 74 85 161
3 157 74 161
3 163 83 159
3 163 94 83
3 163 160 164
3 163 159 160
3 161 165 162
3 165 95 166
3 165 161 95
3 161 85 95
3 165 166 167
3 95 97 166
3 105 104 168
3 170 94 163
3 170 168 94
3 169 168 170
3 94 168 104
3 163 164 170
3 166 171 167
3 173 171 172
3 172 171 106
3 171 97 106
3 171 166 97
3 172 107 174
3 172 106 107
3 174 108 175
3 174 107 108
3 175 109 176
3 175 108 109
3 176 110 177
3 176 109 110
3 177 111 178
3 177 110 111
3 178 112 180
3 178 111 112
3 181 105 168
3 181 180 105
3 179 178 180
3 180 112 105
3 168 169 181
3 172 182 173
3 182 172 183
3 183 172 174
3 174 175 184
3 183 174 184
3 175 176 185
3 184 175 185
3 176 177 186
3 185 176 186
3 177 178 187
3 186 177 187
3 187 179 188
3 187 178 179
3 179 180 229
3 189 190 191
3 114 131 191
3 115 114 191
3 115 191 192
3 115 192 193
3 117 115 193
3 119 193 194
3 119 117 193
3 119 194 121
3 121 194 195
3 121 195 123
3 123 195 196
3 123 196 125
3 125 196 197
3 127 197 198
3 127 125 197
3 128 198 199
3 200 128 199
3 128 127 198
3 200 199 201
3 202 203 204
3 131 130 189
3 190 189 204
3 189 130 202
3 189 202 204
3 131 189 191
3 128 200 133
3 134 200 205
3 206 205 201
3 134 133 200
3 205 200 201
3 205 206 207
3 136 208 203
3 202 137 136
3 202 136 203
3 137 202 130
3 134 205 139
3 139 205 207
3 140 139 207
3 211 207 209
3 136 142 208
3 208 142 210
3 211 140 207
3 211 144 140
3 146 212 210
3 142 146 210
3 148 144 213
3 213 144 211
3 150 214 212
3 146 150 212
3 215 148 213
3 215 152 148
3 154 216 150
3 150 216 214
3 219 152 217
3 217 152 215
3 158 218 216
3 154 158 216
3 219 156 152
3 219 160 156
3 158 220 218
3 158 162 220
3 221 160 219
3 221 164 160
3 162 165 222
3 223 220 222
3 220 162 222
3 165 167 222
3 169 170 224
3 225 164 221
3 224 170 164
3 224 164 225
3 222 226 223
3 167 171 227
3 226 167 227
3 226 227 228
3 226 222 167
3 171 173 227
3 180 181 229
3 181 169 230
3 231 169 224
3 230 169 231
3 230 229 181
3 224 225 271
3 227 232 228
3 232 182 233
3 232 173 182
3 227 173 232
3 182 183 234
3 233 182 234
3 183 184 234
3 234 184 235
3 184 185 235
3 235 185 236
3 185 186 236
3 236 186 237
3 186 187 237
3 237 187 238
3 238 188 239
3 238 187 188
3 188 179 229
3 240 239 188
3 240 188 229
3 229 230 240
3 191 190 242
3 242 190 241
3 192 242 243
3 192 191 242
3 192 243 244
3 193 192 244
3 194 244 245
3 194 193 244
3 194 245 246
3 195 194 246
3 195 246 247
3 196 195 247
3 196 247 248
3 197 196 248
3 197 248 249
3 198 197 249
3 199 198 249
3 250 199 249
3 201 199 251
3 251 199 250
3 204 252 253
3 204 203 252
3 190 253 241
3 190 204 253
3 206 251 254
3 206 201 251
3 207 206 255
3 255 206 254
3 203 256 252
3 203 208 256
3 257 209 255
3 255 209 207
3 210 258 208
3 208 258 256
3 211 209 259
3 259 209 257
3 212 260 210
3 210 260 258
3 213 211 259
3 261 213 259
3 214 262 260
3 212 214 260
3 215 213 261
3 263 215 261
3 216 264 214
3 214 264 262
3 217 215 263
3 265 217 263
3 218 266 264
3 216 218 264
3 219 217 265
3 267 219 265
3 218 268 266
3 218 220 268
3 221 219 267
3 269 221 267
3 223 270 268
3 220 223 268
3 225 221 269
3 271 225 269
3 223 226 272
3 270 223 272
3 272 228 273
3 272 226 228
3 274 231 275
3 274 230 231
3 275 231 271
3 271 231 224
3 273 228 276
3 276 228 232
3 276 233 277
3 276 232 233
3 233 234 278
3 277 233 278
3 234 235 279
3 278 234 279
3 235 236 280
3 279 235 280
3 236 237 281
3 280 236 281
3 237 238 282
3 281 237 282
3 238 239 283
3 282 238 283
3 327 239 284
3 284 239 240
3 240 230 274
3 284 240 274
3 241 285 286
3 242 241 286
3 242 286 243
3 243 286 287
3 243 287 288
3 244 243 288
3 245 288 289
3 245 244 288
3 245 289 246
3 246 289 290
3 246 290 247
3 247 290 291
3 247 291 248
3 248 291 292
3 248 292 293
3 249 248 293
3 249 293 250
3 250 293 294
3 250 294 295
3 251 250 295
3 252 296 297
3 253 252 297
3 241 297 285
3 241 253 297
3 254 295 298
3 254 251 295
3 254 298 299
3 255 254 299
3 256 300 252
3 252 300 296
3 257 255 299
3 301 257 299
3 258 302 300
3 256 258 300
3 259 257 303
3 303 257 301
3 260 304 258
3 258 304 302
3 261 259 303
3 305 261 303
3 262 306 304
3 260 262 304
3 263 261 305
3 307 263 305
3 264 308 262
3 262 308 306
3 265 263 307
3 309 265 307
3 266 310 308
3 264 266 308
3 267 265 309
3 311 267 309
3 266 312 310
3 266 268 312
3 269 267 311
3 313 269 311
3 270 314 312
3 268 270 312
3 271 269 315
3 315 269 313
3 270 272 316
3 314 270 316
3 316 273 317
3 316 272 273
3 318 275 319
3 318 274 275
3 275 271 315
3 319 275 315
3 273 276 320
3 317 273 320
3 276 277 320
3 320 277 321
3 277 278 322
3 321 277 322
3 322 279 323
3 322 278 279
3 279 280 323
3 323 280 324
3 280 281 324
3 324 281 325
3 281 282 325
3 325 282 326
3 282 283 326
3 326 283 327
3 283 239 327
3 327 284 328
3 284 274 318
3 328 284 318
3 285 329 330
3 286 285 330
3 286 330 287
3 287 330 331
3 287 331 332
3 288 287 332
3 288 332 289
3 289 332 333
3 289 333 334
3 290 289 334
3 290 334 335
3 291 290 335
3 291 335 292
3 292 335 336
3 292 336 337
3 293 292 337
3 293 337 294
3 294 337 338
3 294 338 339
3 295 294 339
3 296 340 341
3 297 296 341
3 285 341 329
3 285 297 341
3 298 339 342
3 298 295 339
3 298 342 343
3 299 298 343
3 300 344 296
3 296 344 340
3 301 299 343
3 345 301 343
3 302 346 344
3 300 302 344
3 303 301 347
3 347 301 345
3 304 348 302
3 302 348 346
3 305 303 347
3 349 305 347
3 306 350 348
3 304 306 348
3 307 305 351
3 351 305 349
3 308 352 306
3 306 352 350
3 309 307 353
3 353 307 351
3 310 354 352
3 308 310 352
3 311 309 355
3 355 309 353
3 312 356 310
3 310 356 354
3 313 311 355
3 357 313 355
3 314 358 356
3 312 314 356
3 315 313 359
3 359 313 357
3 314 316 360
3 358 314 360
3 360 317 361
3 360 316 317
3 362 319 363
3 362 318 319
3 319 315 359
3 363 319 359
3 317 320 364
3 361 317 364
3 320 321 364
3 364 321 365
3 321 322 366
3 365 321 366
3 322 323 366
3 366 323 367
3 323 324 368
3 367 323 368
3 324 325 369
3 368 324 369
3 325 326 370
3 369 325 370
3 326 327 371
3 370 326 371
3 327 328 371
3 371 328 372
3 328 318 362
3 372 328 362
3 329 373 374
3 330 329 374
3 330 374 331
3 331 374 375
3 331 375 376
3 332 331 376
3 332 376 333
3 333 376 377
3 333 377 378
3 334 333 378
3 334 378 379
3 335 334 379
3 335 379 336
3 336 379 380
3 336 380 381
3 337 336 381
3 337 381 338
3 338 381 382
3 338 382 383
3 339 338 383
3 340 384 385
3 341 340 385
3 329 385 373
3 329 341 385
3 342 383 386
3 342 339 383
3 342 386 387
3 343 342 387
3 344 388 340
3 340 388 384
3 345 343 387
3 389 345 387
3 346 390 388
3 344 346 388
3 347 345 391
3 391 345 389
3 348 392 346
3 346 392 390
3 349 347 391
3 393 349 391
3 350 394 348
3 348 394 392
3 351 349 395
3 395 349 393
3 352 396 350
3 350 396 394
3 353 351 395
3 397 353 395
3 354 398 396
3 352 354 396
3 355 353 399
3 399 353 397
3 356 400 354
3 354 400 398
3 357 355 399
3 401 357 399
3 358 402 400
3 356 358 400
3 359 357 403
3 403 357 401
3 358 360 404
3 402 358 404
3 404 361 405
3 404 360 361
3 406 363 407
3 406 362 363
3 363 359 403
3 407 363 403
3 361 364 408
3 405 361 408
3 364 365 408
3 408 365 409
3 365 366 410
3 409 365 410
3 366 367 410
3 410 367 411
3 367 368 412
3 411 367 412
3 368 369 412
3 412 369 413
3 369 370 413
3 413 370 414
3 370 371 415
3 414 370 415
3 371 372 415
3 415 372 416
3 372 362 406
3 416 372 406
3 373 417 418
3 374 373 418
3 374 418 375
3 375 418 419
3 375 419 420
3 376 375 420
3 376 420 377
3 377 420 421
3 377 421 422
3 378 377 422
3 378 422 423
3 379 378 423
3 380 423 424
3 380 379 423
3 380 424 425
3 381 380 425
3 382 425 426
3 382 381 425
3 382 426 427
3 383 382 427
3 384 428 429
3 385 384 429
3 373 429 417
3 373 385 429
3 386 427 430
3 386 383 427
3 386 430 431
3 387 386 431
3 384 432 428
3 384 388 432
3 389 387 431
3 433 389 431
3 390 434 432
3 388 390 432
3 435 389 433
3 435 391 389
3 390 436 434
3 390 392 436
3 393 391 435
3 437 393 435
3 394 438 436
3 392 394 436
3 395 393 439
3 439 393 437
3 396 440 438
3 394 396 438
3 397 395 439
3 441 397 439
3 398 442 440
3 396 398 440
3 399 397 443
3 443 397 441
3 400 444 398
3 398 444 442
3 401 399 443
3 445 401 443
3 402 446 444
3 400 402 444
3 403 401 447
3 447 401 445
3 402 404 448
3 446 402 448
3 448 405 449
3 448 404 405
3 450 407 451
3 450 406 407
3 407 403 447
3 451 407 447
3 405 408 452
3 449 405 452
3 408 409 452
3 452 409 453
3 409 410 454
3 453 409 454
3 410 411 454
3 454 411 455
3 411 412 456
3 455 411 456
3 412 413 456
3 456 413 457
3 457 414 458
3 457 413 414
3 414 415 459
3 458 414 459
3 415 416 459
3 459 416 460
3 416 406 450
3 460 416 450
3 418 461 462
3 418 417 461
3 419 462 463
3 419 418 462
3 419 463 464
3 420 419 464
3 420 464 421
3 421 464 465
3 421 465 466
3 422 421 466
3 422 466 467
3 423 422 467
3 424 467 468
3 424 423 467
3 424 468 469
3 425 424 469
3 426 469 470
3 426 425 469
3 427 426 471
3 471 426 470
3 429 428 473
3 473 428 472
3 417 473 505
3 417 429 473
3 430 427 471
3 520 430 471
3 431 474 475
3 431 430 474
3 428 476 472
3 428 432 476
3 433 431 475
3 477 433 475
3 434 478 476
3 432 434 476
3 479 433 477
3 479 435 433
3 434 480 478
3 434 436 480
3 437 435 479
3 481 437 479
3 438 482 436
3 436 482 480
3 439 437 483
3 483 437 481
3 440 484 482
3 438 440 482
3 441 439 483
3 485 441 483
3 442 486 440
3 440 486 484
3 443 441 487
3 487 441 485
3 444 488 442
3 442 488 486
3 445 443 487
3 489 445 487
3 444 446 488
3 488 446 490
3 491 445 489
3 491 447 445
3 490 446 492
3 492 446 448
3 492 449 493
3 492 448 449
3 494 451 495
3 494 450 451
3 451 447 491
3 495 451 491
3 449 452 496
3 493 449 496
3 496 453 497
3 496 452 453
3 453 454 498
3 497 453 498
3 498 455 499
3 498 454 455
3 455 456 500
3 499 455 500
3 456 457 501
3 500 456 501
3 457 458 502
3 501 457 502
3 458 459 503
3 502 458 503
3 503 460 504
3 503 459 460
3 504 460 494
3 494 460 450
3 461 505 506
3 462 461 506
3 507 463 462
3 507 462 506
3 465 463 508
3 508 463 507
3 464 463 465
3 465 508 509
3 465 509 466
3 466 509 510
3 466 510 467
3 467 510 511
3 467 511 468
3 468 511 512
3 468 512 513
3 469 468 513
3 469 513 470
3 515 470 514
3 470 513 514
3 470 515 471
3 472 516 473
3 518 516 517
3 518 505 516
3 461 417 505
3 505 473 516
3 505 518 506
3 515 514 519
3 474 430 520
3 521 520 519
3 520 471 515
3 520 515 519
3 474 520 524
3 476 522 472
3 516 472 523
3 472 522 523
3 516 523 517
3 520 521 524
3 477 475 524
3 524 475 474
3 525 477 524
3 478 526 522
3 476 478 522
3 527 477 525
3 527 479 477
3 478 528 526
3 478 480 528
3 481 479 527
3 529 481 527
3 482 530 480
3 480 530 528
3 483 481 531
3 531 481 529
3 484 532 530
3 482 484 530
3 485 483 531
3 533 485 531
3 486 534 484
3 484 534 532
3 535 485 533
3 535 487 485
3 486 536 534
3 486 488 536
3 537 489 535
3 535 489 487
3 490 538 539
3 536 490 539
3 488 490 536
3 538 540 539
3 541 542 543
3 541 489 537
3 542 541 537
3 541 491 489
3 490 492 538
3 545 493 544
3 538 492 493
3 538 493 545
3 540 538 545
3 544 546 545
3 547 548 549
3 543 495 541
3 547 494 495
3 547 495 543
3 608 547 543
3 495 491 541
3 493 496 544
3 544 497 550
3 546 544 550
3 544 496 497
3 550 497 551
3 551 497 498
3 498 499 551
3 551 499 552
3 499 500 552
3 552 500 553
3 500 501 553
3 553 501 554
3 554 502 555
3 554 501 502
3 502 503 556
3 555 502 556
3 503 504 556
3 549 504 547
3 556 504 549
3 504 494 547
3 506 557 507
3 507 557 558
3 508 507 558
3 508 558 559
3 509 508 559
3 509 559 560
3 510 509 560
3 510 560 561
3 511 510 561
3 511 561 562
3 512 511 562
3 514 512 563
3 563 512 562
3 513 512 514
3 517 564 518
3 518 564 557
3 566 564 565
3 557 564 566
3 557 506 518
3 558 566 567
3 558 557 566
3 559 567 568
3 559 558 567
3 560 568 569
3 560 559 568
3 561 569 570
3 561 560 569
3 562 570 571
3 562 561 570
3 563 562 571
3 572 563 571
3 574 514 563
3 572 574 563
3 573 519 574
3 574 519 514
3 519 573 521
3 522 575 523
3 577 575 576
3 577 517 575
3 564 517 577
3 575 517 523
3 564 577 565
3 573 574 572
3 521 573 579
3 580 573 578
3 579 573 580
3 579 524 521
3 524 579 525
3 522 581 575
3 522 526 581
3 576 581 582
3 576 575 581
3 583 580 584
3 583 579 580
3 583 525 579
3 583 527 525
3 526 585 581
3 526 528 585
3 582 585 586
3 582 581 585
3 587 584 588
3 587 583 584
3 587 527 583
3 587 529 527
3 528 589 585
3 528 530 589
3 586 589 590
3 586 585 589
3 591 588 592
3 591 587 588
3 591 529 587
3 591 531 529
3 532 593 589
3 530 532 589
3 590 593 594
3 590 589 593
3 595 592 596
3 595 591 592
3 595 531 591
3 595 533 531
3 534 597 593
3 532 534 593
3 594 597 598
3 594 593 597
3 599 596 600
3 599 595 596
3 599 533 595
3 599 535 533
3 534 601 597
3 534 536 601
3 602 597 601
3 602 598 597
3 603 599 600
3 604 603 600
3 603 535 599
3 603 537 535
3 536 539 601
3 606 540 605
3 606 602 540
3 602 601 539
3 540 602 539
3 605 607 606
3 608 609 610
3 608 543 609
3 604 542 603
3 609 543 542
3 609 542 604
3 542 537 603
3 540 545 605
3 605 546 607
3 612 607 611
3 605 545 546
3 607 546 611
3 612 613 614
3 612 611 613
3 614 615 616
3 614 613 615
3 616 617 618
3 616 615 617
3 618 619 620
3 618 617 619
3 620 621 622
3 620 619 621
3 622 623 624
3 622 621 623
3 610 548 608
3 624 623 548
3 624 548 610
3 548 623 549
3 548 547 608
3 546 550 611
3 611 550 613
3 613 550 551
3 551 552 615
3 613 551 615
3 552 553 617
3 615 552 617
3 553 554 619
3 617 553 619
3 554 555 621
3 619 554 621
3 621 555 623
3 623 555 556
3 556 549 623
3 565 625 626
3 567 566 626
3 626 566 565
3 567 626 627
3 568 567 627
3 568 627 628
3 569 568 628
3 569 628 629
3 570 569 629
3 570 629 630
3 571 570 630
3 572 571 631
3 631 571 630
3 572 631 578
3 576 632 577
3 625 632 633
3 565 577 632
3 565 632 625
3 625 633 634
3 626 625 634
3 626 634 627
3 627 634 635
3 627 635 628
3 628 635 636
3 628 636 629
3 629 636 637
3 629 637 630
3 630 637 638
3 631 638 639
3 631 630 638
3 640 578 639
3 578 573 572
3 578 631 639
3 578 640 580
3 576 641 632
3 576 582 641
3 633 641 642
3 633 632 641
3 633 642 643
3 634 633 643
3 634 643 644
3 635 634 644
3 635 644 645
3 636 635 645
3 636 645 646
3 637 636 646
3 637 646 647
3 638 637 647
3 638 647 648
3 639 638 648
3 640 648 649
3 640 639 648
3 584 580 640
3 649 584 640
3 582 650 641
3 582 586 650
3 642 650 651
3 642 641 650
3 642 651 652
3 643 642 652
3 643 652 653
3 644 643 653
3 644 653 645
3 645 653 654
3 645 654 646
3 646 654 655
3 646 655 647
3 647 655 656
3 647 656 648
3 648 656 657
3 648 657 649
3 649 657 658
3 588 584 649
3 658 588 649
3 586 659 650
3 586 590 659
3 650 659 651
3 651 659 660
3 651 660 661
3 652 651 661
3 652 661 662
3 653 652 662
3 653 662 654
3 654 662 663
3 654 663 664
3 655 654 664
3 655 664 665
3 656 655 665
3 656 665 666
3 657 656 666
3 657 666 658
3 658 666 667
3 592 588 658
3 667 592 658
3 590 668 659
3 590 594 668
3 660 668 669
3 660 659 668
3 660 669 670
3 661 660 670
3 661 670 671
3 662 661 671
3 662 671 663
3 663 671 672
3 663 672 664
3 664 672 673
3 664 673 665
3 665 673 674
3 665 674 666
3 666 674 675
3 666 675 667
3 667 675 676
3 596 592 667
3 676 596 667
3 594 677 668
3 594 598 677
3 668 677 669
3 669 677 678
3 669 678 679
3 670 669 679
3 670 679 680
3 671 670 680
3 671 680 681
3 672 671 681
3 672 681 682
3 673 672 682
3 673 682 683
3 674 673 683
3 674 683 684
3 675 674 684
3 676 684 685
3 676 675 684
3 600 596 676
3 685 600 676
3 598 686 677
3 598 602 606
3 678 686 687
3 678 677 686
3 678 687 679
3 679 687 688
3 679 688 680
3 680 688 689
3 680 689 681
3 681 689 690
3 681 690 682
3 682 690 691
3 683 691 692
3 683 682 691
3 684 692 693
3 684 683 692
3 685 693 694
3 685 684 693
3 694 604 685
3 685 604 600
3 598 606 686
3 606 607 695
3 686 606 695
3 686 695 687
3 688 687 696
3 696 687 695
3 688 696 697
3 689 688 697
3 689 697 698
3 690 689 698
3 690 698 699
3 691 690 699
3 691 699 700
3 692 691 700
3 692 700 701
3 693 692 701
3 610 609 694
3 701 610 694
3 701 694 693
3 609 604 694
3 607 612 695
3 695 612 696
3 696 612 614
3 614 616 697
3 696 614 697
3 616 618 698
3 697 616 698
3 618 620 699
3 698 618 699
3 620 622 700
3 699 620 700
3 622 624 701
3 700 622 701
3 624 610 701
