OFF
702 1400 0
-0.198330921052522 -0.321677101896303 2.34880533882683
-0.247502046897366 -0.310223319698688 2.35316237801877
-0.234020788301356 -0.330561296353103 2.31673455052011
-0.154185212713529 -0.326767518527983 2.33183339386568
-0.190248192045357 -0.339766657784418 2.30084462481455
-0.110904354664838 -0.33001139671565 2.31342007499393
-0.147825358030293 -0.342660713561452 2.28169798606803
-0.0683818802576379 -0.332570075155552 2.29670099033208
-0.106495288521255 -0.345392008307868 2.26276409031501
-0.0261385851700068 -0.334924553851012 2.28051208523593
-0.0644174662935639 -0.347557079905237 2.24655675470569
0.0197044621573896 -0.336265732569837 2.26567815651215
-0.0196919213223907 -0.349106224980416 2.23328556091735
0.0660349616772749 -0.330077050228864 2.25089691346157
0.0265449198902572 -0.34889612956886 2.21970716592404
0.0714318722751736 -0.33828229355635 2.20583666194279
-0.256201011963379 -0.280574500554898 2.38736421591031
-0.295992627786352 -0.265695282595259 2.37583539788301
-0.288587703808505 -0.296825276883916 2.34214877048474
-0.210470975979171 -0.294260506016962 2.3870654494875
-0.163047111620686 -0.301312168270178 2.37675356358944
-0.118636370046209 -0.305122506784821 2.35856613831238
-0.0744238564626752 -0.307487931448697 2.34210510511925
-0.0314136385311154 -0.30931811453509 2.32672878692047
0.00940253521041981 -0.313355476811158 2.30897583178752
0.0559880795089154 -0.312428057838777 2.29320494641407
0.108643043097974 -0.312402609591026 2.23421389575533
0.0990658674973464 -0.298661082447113 2.2788981326322
0.137964893405132 -0.277489830455774 2.25489860212544
-0.226840509038555 -0.256894036027659 2.41747101077086
-0.276291447763916 -0.23922761332678 2.41006894422601
-0.177310360432216 -0.268050795814465 2.41261770920457
-0.128920992011308 -0.272589783645319 2.39721435641055
-0.0840133733483702 -0.275343310909099 2.38026964636193
-0.0382869667238414 -0.276078459524093 2.36497926122217
0.00445047347133028 -0.277243338731432 2.35023399377812
0.0420015687630585 -0.285530158281755 2.33038844895991
0.0831719968283532 -0.275557833602231 2.32058115838572
0.123716664418959 -0.260898477793254 2.30037574932693
0.159442713683221 -0.2378785645292 2.27311679176647
-0.235559686902227 -0.218932459169794 2.44256447423939
-0.278167763360166 -0.199976536006645 2.43327404741458
-0.188756016165263 -0.231452341552821 2.44327309025747
-0.139550294038377 -0.240074120734971 2.43127615132681
-0.092507371289943 -0.240467312984574 2.41606689657388
-0.0479223252540901 -0.243677170027019 2.39879299959757
0.00227833437931793 -0.242564718991892 2.38382659060727
0.0521897675634344 -0.250399128429741 2.36046466110075
0.100890654476552 -0.241219373836451 2.34535209436036
0.144365165612205 -0.224495927534768 2.32041723477963
0.17921727409357 -0.197781111786167 2.29179815437998
-0.203280855293872 -0.191829339930883 2.47203726088268
-0.254306384623029 -0.176979924342785 2.46216108351634
-0.151862376658623 -0.206795521696486 2.46349904115048
-0.104673550572445 -0.207168275193723 2.45154071064665
-0.0604005958014075 -0.206495823756433 2.43804909669923
-0.0205448854538199 -0.213105472658283 2.41905891499701
0.0173470325129836 -0.199140672701233 2.42021342439785
0.0434741039920909 -0.218241717821334 2.39375432575021
0.0858456238704974 -0.212977835626875 2.38388200578798
0.128703828174035 -0.20512962354821 2.36287919597489
0.168554425257714 -0.185373048251707 2.33637626195566
-0.189871027756436 -0.149012901103675 2.50744392095634
-0.230550352086228 -0.154076269467756 2.48939256405773
-0.16048278598394 -0.174597585975516 2.4912065362984
-0.111054081422284 -0.174720937118106 2.48435329853424
-0.0666164883276872 -0.171682303373832 2.47306132762889
-0.0206893115865784 -0.175064676854108 2.45519438997212
0.026325880157003 -0.167167800640766 2.44768153183521
0.0672667416498331 -0.179523859900857 2.42289281523297
0.112400763973277 -0.177753566820425 2.40571197624542
0.152920254818518 -0.16942841136336 2.38048161544225
0.19076077845364 -0.146518481485422 2.35152429196428
-0.165627927726223 -0.122168240165119 2.53288652406646
-0.221488469496449 -0.112775548250532 2.5212780639733
-0.130822818694842 -0.145675190785366 2.51466260209969
-0.0814336477799633 -0.137060383493866 2.51063494910182
-0.0342089794034548 -0.1399144817406 2.49285609511944
0.0108404866310094 -0.137903153683444 2.48038741501864
0.0597322004214737 -0.140188120734722 2.46261543636668
0.100943422783104 -0.145409723219515 2.44415488691789
0.142583549530246 -0.141246831845473 2.42392041581312
0.177175413755587 -0.13341771813964 2.39552505908008
0.207739231050884 -0.106910655631344 2.37683190243062
-0.147089871317011 -0.0801799790936911 2.56079803509268
-0.191834907120581 -0.0917881027477575 2.54720101960511
-0.117874202754876 -0.109740275803013 2.54284540147183
-0.0796210710257997 -0.0959178466593207 2.54234965205374
-0.0404370948643876 -0.103285185472884 2.52465720575629
0.0032241253409277 -0.101892035212284 2.51093667473398
0.048070998517783 -0.10373123814454 2.49478072447307
0.0940748652196794 -0.106331920473813 2.47776865966904
0.137947797606136 -0.108139488962386 2.45736424149619
0.180059002669422 -0.10163001344494 2.4267818771238
0.217072500526487 -0.0698182492064485 2.39690938296245
-0.192660460062741 -0.051754675486071 2.56393445983786
-0.103190141947494 -0.0583299308056645 2.56597078688394
-0.148084031778415 -0.0356180776801942 2.57514126061523
-0.0549533982302929 -0.0571726211637231 2.55163177886548
-0.0114427528268919 -0.0605130129433098 2.53536002108279
0.0331412343053605 -0.0600032869560095 2.51998268809527
0.076447271341378 -0.0632166434950032 2.5038346657709
0.120468862124163 -0.066322887700456 2.4871806950465
0.161125214519881 -0.0670115155003324 2.46412838527875
0.195609862132035 -0.0603370852362195 2.43455596960611
0.184995307180829 -0.0209703622121143 2.45594243510491
-0.117353670923133 -0.00692002321961237 2.5776368242553
-0.0746134134341518 -0.0144085316455804 2.56750865856107
-0.0280713586958247 -0.0147463962702038 2.5507423938241
0.0153506530067025 -0.0144581032157923 2.53510779335526
0.0592622157912203 -0.0144745621796558 2.51924891193431
0.101508543593393 -0.0198498559978814 2.50362571771548
0.145515344887661 -0.0229215081058979 2.4846777928377
-0.231946328648223 -0.34019200719841 2.27217356854303
-0.2699173976322 -0.3290115031334 2.2509080841595
-0.26638450924051 -0.324006642960429 2.20649851745073
-0.187201447174584 -0.345473593807479 2.25038570543531
-0.225549519839561 -0.339538362934846 2.22336324099607
-0.146383964305786 -0.347324386751386 2.22892526411333
-0.185213351337359 -0.339239430773346 2.19648448384242
-0.10467317304969 -0.349198210429425 2.210606760364
-0.144504044222442 -0.339857017431689 2.17650800419903
-0.0606588904565393 -0.351379230195089 2.19694420842112
-0.0991979551029612 -0.342128331578024 2.16043774300805
-0.0157820877250524 -0.353618925164074 2.18586838998431
-0.0540941641931366 -0.345297269041563 2.14799519608569
0.0290057281395464 -0.350717715808324 2.1723870325099
-0.00940513799845689 -0.347845796560206 2.13807034091003
0.0369818659728591 -0.339356298599268 2.12390529647182
-0.275249171758481 -0.320649605170842 2.30174034976049
-0.318214615356973 -0.292057304875931 2.30373787728983
-0.305897412083039 -0.309008319702202 2.2621417821141
0.112165416150542 -0.31686903333366 2.18829279227306
0.0710583687792775 -0.337513664823079 2.16042134645332
0.106234967393501 -0.315123759553888 2.14316749198626
-0.324577152743846 -0.231254609721574 2.37723270027055
-0.356896752094421 -0.222078904473278 2.33733073159713
-0.328700706458958 -0.26319046352206 2.34033643153247
0.144842928614281 -0.286147984448738 2.20728365124764
0.142921221877051 -0.286812219651997 2.15841943656234
0.169065596239452 -0.25356353966371 2.17348280415512
-0.313529848597431 -0.200816061382675 2.40492167965075
-0.349455090515253 -0.187933439539359 2.37030411633979
0.168370239053482 -0.248438829018098 2.22445421798858
0.187624136703256 -0.212332305240025 2.19564006544239
-0.303266528408477 -0.160356481074269 2.43500704660823
-0.334787142246299 -0.1559487681066 2.40159844029666
0.186216654775688 -0.206323397714948 2.2439994241021
0.202415205432299 -0.168956296638606 2.21241352524239
-0.282055206634628 -0.138929529874628 2.46523249748815
-0.320788532055949 -0.11359179909108 2.43581216597156
0.203587321796033 -0.163665674994064 2.26087999155514
0.216337596605525 -0.125481420789022 2.23188743714737
-0.258195358958579 -0.118408962120265 2.49542015160228
-0.296986495089214 -0.0930251314764924 2.47320503151387
0.200469290800949 -0.155044378764243 2.3060363146011
0.221169565690362 -0.117045299882629 2.27692142120182
-0.266759947640537 -0.0781023209324653 2.51077365380428
-0.298817233495344 -0.0461548610300335 2.48983448881602
0.218183581664629 -0.113382698127667 2.32626014974018
0.235556671332002 -0.0755652232807952 2.29571978116651
-0.234451269027379 -0.0677008426896505 2.54023460009995
-0.26933070575784 -0.0319556886031645 2.52708814332638
0.232404162595937 -0.0744378836147533 2.3482155940657
0.245481385298916 -0.0368148467445407 2.32355989395316
-0.231142958751249 -0.0216842733886308 2.55510652959418
-0.186080254760899 -0.00741438534645498 2.57330849581604
-0.214150293949049 0.0243344981835746 2.5634025079515
0.217588457541465 -0.0219807166067987 2.41600680815896
0.230049151995608 0.0169797264802751 2.39102864947624
0.23683390115844 -0.0310935857669421 2.37254178407458
-0.155973154487983 0.0218108291662806 2.57754164356224
-0.0998658698616093 0.0348979718668294 2.57255778182755
-0.13749706212497 0.061295751245388 2.57043726544729
-0.0513622550306456 0.0278841331740599 2.55811669197528
-0.00712103648482074 0.0321070530444179 2.5410152711469
0.0368645533272825 0.0320569614582208 2.52462739081678
0.081048013750564 0.0319465156319017 2.50815401436434
0.122448829242572 0.0225232754937983 2.49429320050309
0.140710213528943 0.0590602737288496 2.47579264805411
0.166880614861464 0.01983421407135 2.46972307839547
0.203429946321501 0.0202764088667914 2.43423369367853
-0.108065574109979 0.0913708639418276 2.55580117414804
-0.0722021472452842 0.0693331171386689 2.55543550440559
-0.0319881500413325 0.0757181073520447 2.53744237224758
0.0110079088138446 0.076979128287452 2.520319110084
0.054959212973655 0.0762783987696269 2.50367176342471
0.100448091255311 0.0758980646760601 2.48626461047961
0.14573827107336 0.0954230178819514 2.45302642287324
-0.339755266573987 -0.279344261864684 2.2582114046663
-0.34369564602337 -0.268616700483832 2.21534868754973
-0.30824216639934 -0.302638919690416 2.21582352626734
-0.277021454586811 -0.304352148969439 2.16968578441367
-0.226585469985498 -0.324934959399172 2.17512562155367
-0.184917992373324 -0.320074613230178 2.1458446884477
-0.13650670149137 -0.323595019474414 2.1305361246673
-0.0870251266869346 -0.32610411731114 2.11281384888458
-0.0424510528786008 -0.330059384609789 2.10024538856816
0.00424774535842823 -0.331220600956009 2.09457889857748
0.0405321577162245 -0.312430590773381 2.07319706408681
0.0743708614787264 -0.321612616998331 2.11086036533721
0.0884320506889054 -0.296452347016733 2.08111873724713
-0.352482415584253 -0.255109362405365 2.29994424831812
-0.376742298917261 -0.210367155637113 2.29332749404009
-0.368023568502385 -0.239190210962493 2.25769318923892
0.123277677605997 -0.289477005828361 2.11287171041596
0.121571719292103 -0.263263233510427 2.07585420321876
0.155291493554997 -0.254970666634069 2.11999803883893
-0.374751816967051 -0.174617418844661 2.32992002708819
0.169220643106573 -0.212771143673966 2.10570071430916
-0.364442765510345 -0.140966094607489 2.35806538788083
0.181853859526156 -0.216965991751441 2.14757526984714
-0.347241263538881 -0.115153772850636 2.39491532396553
0.195192163769262 -0.172916921903037 2.16318998122483
-0.344350921549896 -0.074179558437225 2.40688362302557
0.206022306580453 -0.130674120560827 2.18050624962919
-0.323337777974094 -0.0622621548147013 2.44821344742588
0.216772404726249 -0.0910593352166641 2.20181417768406
-0.320546125592074 -0.0132221907130188 2.46269381402633
0.229689451366716 -0.0746563107220139 2.24480639457871
-0.294942119095518 0.00222843120051485 2.50486145591925
0.24246095663607 -0.0329774573894503 2.27110914340915
-0.258707680229109 0.0152124957881838 2.53918528409764
-0.279715621103136 0.0496733357846653 2.51381929259385
0.244547838669949 0.00944714834708761 2.34616376118498
0.247780674233923 0.00261101121107656 2.29892213338413
-0.238025170370445 0.0600890695612526 2.54350852528182
-0.188125561582842 0.0601503398606132 2.56450143253152
-0.209293494828362 0.0988735448644165 2.54016865058316
0.180849743535123 0.0608748637773583 2.44481257788249
0.212390423834734 0.0596925976960413 2.40442790957692
0.232585070893039 0.0555320571087693 2.35840738289358
-0.161222744774438 0.0989582527519209 2.55326659213238
-0.125264783586453 0.126628567457965 2.53574007724003
-0.0687693936478603 0.113707570508942 2.53031004487091
-0.0241108061168692 0.116952046967775 2.5100413022053
0.019954005735342 0.117137741782887 2.49220183562513
0.0647268181864393 0.115351058643844 2.47561826090255
0.106925429019165 0.117089484049428 2.45717641365512
0.148249617182457 0.128036079926996 2.42065314191863
0.18394031839745 0.0977048236786503 2.41502597192126
-0.351527568006369 -0.239975819092331 2.17655208798005
-0.317006839175489 -0.277602449138652 2.17341031247214
-0.283235557330712 -0.275669024284192 2.13312862348207
-0.237857892159136 -0.300972647173194 2.13882049885557
-0.203937859972012 -0.289097319270663 2.10976958023616
-0.163566870419399 -0.29519490112362 2.10005805553149
-0.116463121153197 -0.302116480265356 2.08857881334172
-0.0647110375681491 -0.301847692985932 2.06638208684873
-0.0140009775824139 -0.308863010976566 2.06074677570085
0.024459478108866 -0.284503135010426 2.03754925661079
0.0725862937357294 -0.276396189955593 2.04841206405159
-0.387723942820524 -0.188600163403776 2.24704168879382
-0.370371790771053 -0.227497756209764 2.21836292131417
0.104234032245967 -0.238874489545051 2.03982839575131
0.143613463587551 -0.226296541948057 2.07274844641137
-0.387951407420874 -0.163471276971709 2.28935058534691
0.161928087777582 -0.177117239670642 2.07419516071784
-0.381861658115508 -0.120258268168356 2.31458864350436
0.183432447133019 -0.169987862516409 2.11854698025329
-0.365146764496832 -0.0924023899460902 2.35683780937521
0.191497145571139 -0.125701723222505 2.13453472901737
-0.357853490489259 -0.0471885905159995 2.37095557337473
0.201139523250375 -0.0842376618630501 2.15559272790782
-0.340033492604105 -0.0269466257415145 2.41720842511861
0.217003543181159 -0.0491882456978927 2.19456426661387
-0.333185764037602 0.0199214501820331 2.4299110027194
0.230817929838896 -0.0241230790403899 2.22921595564489
-0.311816686682679 0.0351667859227129 2.47529012211536
0.239913773239292 0.0225238088844521 2.25947004843847
-0.292486575945622 0.0820459256236579 2.48185136672233
0.241401307312317 0.046245156019111 2.30983788125366
-0.254681722182783 0.0939919755723981 2.51493722694376
-0.222070238573816 0.132533281187133 2.50800890078705
0.208992152081512 0.0967804242996434 2.37110823818129
0.224222113104552 0.0897464056203731 2.32324650666794
-0.175035599051722 0.134679104156048 2.52543585903606
-0.138362612930294 0.161559475610959 2.50253466582733
-0.0936992031447124 0.14633329944501 2.51096297186643
-0.0543411759061068 0.150880157657526 2.4894706723552
-0.0142832096590783 0.152267728499865 2.47094083173771
0.0301940735877859 0.149802395035707 2.4551576077043
0.0697960383361843 0.150621978323337 2.43749952781715
0.109340077821609 0.149810943093878 2.4211766433897
0.175855324529037 0.13258485642655 2.37996427007076
-0.363564378556838 -0.208284555279293 2.14682376653896
-0.324973595959922 -0.246057284193448 2.13623826995471
-0.2916896254443 -0.244276509894514 2.09837483704627
-0.245192303926467 -0.267407952672885 2.10120860391357
-0.200352672735944 -0.257948039389609 2.07101263035134
-0.152655039071055 -0.268062005035455 2.06301867290307
-0.105502039211097 -0.277545414211698 2.05450036675674
-0.0714707029955847 -0.265848931724044 2.02618245068223
-0.0270010893281242 -0.27976031755758 2.02984076579404
0.0116626976727664 -0.25326758702797 2.00413957144757
0.0590275980346109 -0.247959394961797 2.01630384108044
-0.399173103444489 -0.154032342665973 2.21511094281998
-0.382271871585555 -0.195776594426316 2.19303707237052
0.0935316645502376 -0.208133322610268 2.00711300782463
0.13192579947928 -0.195213408209581 2.03841013868242
-0.39717973179156 -0.133476000952554 2.26186689122031
0.152592384083771 -0.145790492958016 2.04339361887422
-0.393136913203604 -0.0863097670263756 2.27920361640374
0.174681899165776 -0.129882445467241 2.08892148173284
-0.376803932284055 -0.066426613063532 2.32144462301783
0.183778823515542 -0.0816710838095085 2.10759725134167
-0.368790386101185 -0.0189279327671589 2.33724021103088
0.199879751088917 -0.040388517318741 2.14641009289201
-0.351478340363934 0.00240064800670719 2.38198160609813
0.212362501880604 -0.0061479389856844 2.17620709856524
-0.343917095340609 0.0506227019561264 2.39644286723251
0.227192513023416 0.0169376961647669 2.21399914472848
-0.322418727625669 0.0673490061402969 2.4421113920054
0.228472284823531 0.061085758955474 2.22607471514844
-0.303082512923206 0.113844425856438 2.44846703574935
0.232141529259345 0.073239081433255 2.27356580580786
-0.265473044415326 0.125877480955468 2.48158427599576
-0.231941851051886 0.165005973492024 2.47437795256143
0.19795938061332 0.130364536972701 2.33587631476383
0.21428012970999 0.120296761632583 2.28840573526848
-0.185762011116163 0.166868732465122 2.49171201064138
-0.143088660383195 0.192748624993848 2.46931762355616
-0.0948666939786357 0.177563220716555 2.47463130900157
-0.0514607642944706 0.184692402724314 2.44782664856437
-0.000311997309764389 0.17996241421866 2.43194167838244
0.0431494801338809 0.182385296603826 2.41074130026404
0.0862125986829825 0.181489462302207 2.39367651445437
0.135846196742981 0.162968063410027 2.38497974972861
0.162627363313227 0.166775767251514 2.34670072389732
-0.374220395396364 -0.17734555925343 2.11489340424808
-0.336536076370831 -0.214231372836769 2.10392534526405
-0.30173406535322 -0.214232591795716 2.06665730135718
-0.250323906273003 -0.237616044910664 2.06774505995534
-0.21414231982738 -0.22321320495549 2.03528636168348
-0.169017167183069 -0.235272490225092 2.03070253428555
-0.121972778035875 -0.246433125681816 2.02423471703631
-0.0863453885076434 -0.232524648236666 1.99259947822638
-0.0365151104777095 -0.246587986033951 1.99468967402079
0.00160684871087173 -0.220976479876133 1.97026970534857
0.0490485914898881 -0.217611808601852 1.98443468065055
-0.4100666697024 -0.121691605141903 2.18071769582898
-0.392535810434584 -0.165653557278313 2.16223274114448
0.0835780175148885 -0.177079902332497 1.97480553315161
0.122115849772121 -0.163213252123997 2.00589585881585
-0.407558947793336 -0.104084025568188 2.22855101587247
0.142826255832728 -0.114764783204095 2.0119436439577
-0.404659759154839 -0.0574295325601115 2.24379980983782
0.164925177563045 -0.0975765300300315 2.05791769615219
-0.38716700229643 -0.0322503866799457 2.28853315177912
0.171100545416247 -0.0506078344030442 2.06873847786966
-0.376938536535022 0.0151419154636371 2.31042657030385
0.186563462613212 -0.0309751538432784 2.10862482905397
-0.361695310586747 0.0349923381221713 2.34967869271739
0.197612846214039 0.014570657048607 2.13300997568552
-0.35522257515689 0.0811468001126871 2.36142110402943
0.214490265424087 0.0428317605214692 2.1756533228959
-0.33350985127813 0.0978517181604965 2.40836724849073
0.217640817688214 0.0897343473811746 2.1901713112999
-0.313354433980396 0.144962452214722 2.41592552325592
0.220674564046329 0.107776405457584 2.24018170270411
-0.275328230134198 0.157875380959788 2.44867575938137
-0.2395899702754 0.197132245853942 2.44226360974594
0.186643752039915 0.162775537393644 2.30293176046874
0.202960929073643 0.153255076034148 2.25550980860937
-0.191927074707714 0.198777766668463 2.4592130932883
-0.149869967725008 0.223904834551842 2.43613122042605
-0.100654663748425 0.207853862345739 2.44084855142264
-0.0662791926610902 0.221542967692471 2.41000416917352
-0.0248035002351778 0.207800363275481 2.40896902346917
0.0172052358291328 0.211789927591417 2.38650693056027
0.062925409478701 0.213416760243515 2.36530707381605
0.115911858406235 0.195710635336781 2.35821204733006
0.148868076376273 0.198505195790644 2.31797724500693
-0.384546811092292 -0.146405156909266 2.08205131057766
-0.347491819761054 -0.182754940737502 2.07127969180041
-0.313854661824368 -0.18326799355478 2.03535814349374
-0.263161100437352 -0.206838887397335 2.03635067226603
-0.225770838181057 -0.190346599254148 2.00088301137322
-0.181041025059691 -0.20167143442707 1.99558699669859
-0.135719536169274 -0.214284955734258 1.99158358940119
-0.100620899227028 -0.199477052417221 1.95909519186993
-0.0499158525254721 -0.215328032779941 1.96207713360876
-0.0118504204249526 -0.190896821859105 1.93789847146747
0.0389826728164639 -0.186813313154231 1.95212467412899
-0.421071374040222 -0.0884349240574328 2.14935065582386
-0.402715229326977 -0.135233614749529 2.12976845763847
0.0730606697899139 -0.146238879653952 1.94217498295746
0.111736345546333 -0.131863036171342 1.97306311470652
-0.418306661154414 -0.0707849828551822 2.19561009463602
0.1318502137682 -0.0844230903610859 1.97852629250643
-0.41627516232927 -0.0214223996445516 2.20721116714235
0.153524838271618 -0.0661065533329763 2.02251443397585
-0.400912808088984 -0.0102896594235036 2.24792980152965
0.162072748195312 -0.0156497245593922 2.0393916859752
-0.390104874096047 0.023114356031018 2.27323999661618
0.17883754447474 0.00373778043846931 2.0828814285896
-0.374390566583426 0.0663850773833119 2.31072828308077
0.186798747739034 0.0497954320134006 2.09872347564757
-0.365453337912043 0.11135842440179 2.32939126651405
0.203176300220849 0.0689453395912473 2.14118273696316
-0.343756739989429 0.128332076875863 2.3762522595709
0.207153458232099 0.118508014421343 2.15618224891654
-0.32165139856649 0.176999206976547 2.38538796935932
0.210409672250192 0.137905897240436 2.20582642534646
-0.283813536754751 0.189749305085357 2.41706825246619
-0.248681338947095 0.228484490763663 2.4099990985797
0.175299234829654 0.19451540673279 2.27140449143699
0.192623905799093 0.184164464398928 2.22245410170819
-0.200041322988106 0.230067806737394 2.42677544836256
-0.160505158689707 0.255511218264672 2.40281694919371
-0.11166755637868 0.241244581345899 2.40556055021024
-0.0716810028476356 0.254263640101814 2.37315292121923
-0.0274254355032642 0.239275695554719 2.37243691403977
0.0152204312612362 0.243073513254485 2.34993542943045
0.0585921702491277 0.24512367768079 2.32921815516496
0.103909524312864 0.225359133512313 2.32855875204527
0.139843497486411 0.22790152046045 2.28569813452092
-0.399185813110737 -0.112911752636137 2.05732405765501
-0.35827821507726 -0.150526971343392 2.03722854236585
-0.322302744484288 -0.153142725744619 2.00231402582149
-0.273664094848363 -0.177460455141426 2.00564486003793
-0.23720719088657 -0.15893285135314 1.96819649989513
-0.192312749794196 -0.167817730454438 1.95985431598691
-0.149114449093869 -0.180072828409732 1.9563149190453
-0.116169029758465 -0.166047203711922 1.92568267993924
-0.0637761655939022 -0.184382603537535 1.92994517942529
-0.0244710518845518 -0.160345688475557 1.90527309121617
0.0248836233826505 -0.158947339351834 1.92035568708019
-0.431845247705662 -0.0545794295139147 2.11764783070598
-0.414592533075567 -0.102381165977991 2.10165043463938
0.0563685000199407 -0.121437439125783 1.90917112436337
0.100568108764562 -0.100655078271798 1.93931499438958
-0.429372397853304 -0.0363116253631994 2.161727571065
0.126608228019937 -0.0489631649858937 1.95425859803825
-0.424665902435174 0.0136485266125143 2.17829206636195
0.144748510970786 -0.0310258597797412 1.99384004754941
-0.407841673066875 0.0325582730970057 2.22331462485273
0.151494862701764 0.0177612102336518 2.00641643315221
-0.39136874129856 0.0640786531744253 2.26442072877576
0.168350192222424 0.0361285031587964 2.04986275850144
-0.384411738173944 0.108605916266162 2.27770741711723
0.17574089225696 0.0824158156593974 2.06426437960711
-0.372856026631132 0.146953495604957 2.30439550111729
0.192640257262577 0.101978269938806 2.10794680072789
-0.351605578526516 0.160659649803307 2.34790337646698
0.196748584213247 0.149859055389916 2.12387006958988
-0.331637000097052 0.208375106281532 2.35304758287622
0.20018927204764 0.1680994629027 2.1728463618035
-0.293178684375062 0.221564232754677 2.3847039277174
-0.259163303305447 0.259617524281678 2.37717842556472
0.165189530282374 0.22548581091101 2.23787249547784
0.182229324212835 0.215127388844373 2.18933341843576
-0.210801019923657 0.261060381754709 2.39403450003098
-0.171620240589145 0.286671190019097 2.36998162999879
-0.121429737588806 0.272956868106598 2.37175195569009
-0.0826012252656354 0.284740572460265 2.341277181081
-0.0321722883873219 0.27237860255261 2.33485330917028
0.0130877341845283 0.274231650181299 2.31357647340268
0.0553906791575585 0.275552591709151 2.29418126809083
0.0993082609650073 0.254646693678293 2.29342950701883
0.130009990340182 0.25891939145634 2.25208927571722
-0.377451089539601 -0.115582237285227 2.01777423013295
-0.346392910799797 -0.120016576149868 1.98712685143264
-0.308059981335271 -0.117231727840341 1.96023907968486
-0.282920503897183 -0.148156710797202 1.97556255374455
-0.258157855387615 -0.12158398587129 1.94312202719513
-0.211291719422367 -0.131527996038165 1.93171346468761
-0.164334833582095 -0.140733106338492 1.92024859545406
-0.123549503732038 -0.129523692166378 1.89517134666277
-0.0764497048746741 -0.153957188027072 1.89968473337579
-0.0386080376228276 -0.127222859048146 1.87708138913988
0.0123822755350304 -0.126916887127157 1.8881022600332
-0.43458884384701 -0.0202957476465746 2.08645333274829
-0.423305711115263 -0.0680795602085427 2.070149635045
0.0722470151324456 -0.0836474417824278 1.89977184329453
0.101644298681793 -0.05714723707139 1.91930880823774
-0.435827946339282 -0.000210258151274968 2.12917629465109
0.10862842330624 -0.0127809255724628 1.92257064027057
-0.426485249670355 0.0461796561640467 2.14276996464008
0.130888183366883 0.00370782840136618 1.9604601377525
-0.41570693540987 0.0642317469730243 2.18579576870144
0.133542504408382 0.0489677115834735 1.97501985386067
-0.402293950403011 0.0861673606117507 2.22807065965929
0.154260512372611 0.0691545753749191 2.01581119011311
-0.393087653446666 0.133155288308538 2.23460204282927
0.158792702503507 0.113668924069497 2.03315140977478
-0.381317348261621 0.163966568078276 2.26542706777333
0.179033541797994 0.134033735300117 2.073823974105
-0.361534393343388 0.19098422187732 2.31375872660993
0.181152954305641 0.177658657823724 2.09262609466179
-0.341546199728844 0.233733749218739 2.31537128920181
0.188057858457396 0.199057132162454 2.14088121822012
-0.304467120312898 0.251055729850735 2.35021778336766
-0.269515129819934 0.285392724669526 2.34172722859226
0.152906292789785 0.256287455431167 2.20389463214663
0.165131662704069 0.244998159284309 2.1572988733593
-0.220474759823795 0.29129232459136 2.36005052877001
-0.181079856530622 0.313994677103471 2.33115200593688
-0.13568219441137 0.303438883750242 2.3376930515559
-0.103811565556772 0.311538041684497 2.30846651303064
-0.0575407720212691 0.304065924851576 2.30175652602395
-0.0146094442654887 0.301243625739061 2.28751421670118
0.0307620687817033 0.301671422526476 2.26626487481215
0.0857594535786549 0.286718205231519 2.25920082590052
0.115896372250857 0.286011196811644 2.21844750945831
-0.403364172458089 -0.0757544369329765 2.02432597545468
-0.372952263565243 -0.0784700989832832 1.98398780353128
-0.334751414242031 -0.0801592534864297 1.95390879069758
-0.28697438269479 -0.0829187992168856 1.93331795880823
-0.238586804051239 -0.0878922681979479 1.91680591988784
-0.193586643031499 -0.0961969596491062 1.90316816343384
-0.152543599196282 -0.0945836447286661 1.88659181833886
-0.110406599870977 -0.083389048683175 1.86608963086441
-0.0829954376492143 -0.116175606412469 1.87355712977073
-0.0571779796675673 -0.0803520675996687 1.85504857954945
-0.0115565475143408 -0.0940376535072456 1.86357465981267
-0.420018556804942 -0.0335382193184518 2.03718334285047
-0.406523500031035 0.00691294563141708 2.00976642466357
-0.394401709850733 -0.0371848447077682 1.99371707290015
-0.00626478651026563 -0.0533821451187157 1.85301429395035
0.0349888336968337 -0.0825919691710967 1.87516329588356
0.031725332851699 -0.0361619738123355 1.86323402976116
-0.430004552259978 0.0348839770086824 2.09077473606378
-0.426305575323433 0.00936748460714583 2.05357278377434
0.0706458816467081 -0.0376519360852559 1.886207999399
0.0803345953623169 0.0061708260404869 1.89516353066228
-0.417643057269271 0.0752689256678721 2.10935978573789
0.103402861533527 0.0367060259874295 1.92859535258473
-0.409948621393542 0.0991615377327028 2.14701093524589
0.108978033404779 0.0766457455779987 1.95202490920949
-0.403849627401406 0.113856143069733 2.18692097838384
0.128990648658885 0.102019089787979 1.98641813574165
-0.39036513634173 0.154638562703418 2.19062171394364
0.134553671123049 0.14179810849735 2.00951381721207
-0.379141514361553 0.186676774206345 2.22224838843433
0.15430098239246 0.166962500796634 2.04382455195845
-0.368380879117538 0.207238304548511 2.27370613661799
0.157267518969866 0.205160047008373 2.06765303065804
-0.31324958460414 0.272270982858586 2.30974256697805
-0.344773743743705 0.251392134972044 2.27351399247568
-0.316576308763167 0.285409862049252 2.26208103682025
0.167837132915787 0.224952760221506 2.10986293103339
0.134692535279552 0.245838945222826 2.07513340721542
0.142511524051551 0.263045710434881 2.12017702724668
-0.231761111254551 0.312446348544602 2.32171774585555
-0.280070249860139 0.301076034235477 2.30107692550611
-0.244703059871629 0.323359270922705 2.27917092242345
0.130045218851408 0.282867959296571 2.16837307043201
0.0830240950362918 0.310437471007919 2.14854546431929
0.0900283057401846 0.307318254923193 2.18918945231791
-0.194728686999197 0.329661694615888 2.29109383404766
-0.146318536132178 0.326922872190714 2.28905891936743
-0.0979866280925383 0.325774725019273 2.26729803458945
-0.0541223158327599 0.322595608551584 2.25527501485805
-0.0126389221826732 0.32064641040575 2.240079575152
0.0251988854753708 0.320501337145054 2.22018191148559
0.0661437157677469 0.309148727190654 2.22691612031453
-0.358118655749107 -0.0383937013841688 1.95735418065277
-0.313507397907843 -0.0417158264853933 1.93181086067215
-0.265457772940921 -0.0442669605419974 1.9141590591334
-0.21998221580873 -0.0476535052520883 1.89780541237057
-0.177483392264208 -0.0498681661003702 1.88235840024335
-0.136329679441819 -0.0444587360509317 1.86620941366609
-0.0896463292139304 -0.0414070663727519 1.85087454083728
-0.376375903570963 0.00323360684938749 1.97144769303258
-0.352615448940089 0.0414140479876383 1.95954309659999
-0.334694619940921 0.00124849369824474 1.93996936554001
-0.287820611592886 -0.000861416539343724 1.91997164816583
-0.242617051008382 -0.000496775761389163 1.90366744139009
-0.197822348922217 -0.00250046600938848 1.88735912610611
-0.155290896041546 0.000388443609945376 1.87228449658925
-0.110691793109789 0.00109349827803276 1.85642640563864
-0.0612906232544264 0.00465649610663648 1.8473974773858
-0.0064255730727652 -0.000541590898008452 1.85104081926599
-0.0432970041007942 -0.0349679340902022 1.84615768775449
-0.412370069201219 0.0491372452671609 2.03951484128041
-0.385226756855792 0.088213000460514 2.02383681200413
-0.386972890022181 0.0475930633784733 1.99560044367504
-0.0318371601311863 0.0409359988813287 1.85574290766045
0.040526497824648 0.00695965565499372 1.86866907991744
0.0146292082874293 0.0455854584762878 1.86754061368579
-0.407255162164892 0.0829058298050199 2.06800798758472
-0.376657291515985 0.122442352840989 2.05620890931653
0.0614666565459216 0.0464571734363103 1.892516504534
0.0300655503796572 0.0838079543718114 1.8937911229252
-0.395497691041735 0.119277657714512 2.10251771600021
-0.367652618577487 0.156282028369203 2.09052221097078
0.0736212338952461 0.0800125908980514 1.91985842206784
0.0423216287889913 0.119375383039681 1.92339806329364
-0.388745953074727 0.147396069224289 2.14120211557667
-0.358382761524492 0.187540851322822 2.12050972040006
0.0870527982270599 0.116111797654462 1.95062808248453
0.0555491201904115 0.154016532671654 1.95289180495862
-0.372518724102635 0.188924893943849 2.16765781899388
-0.343341318996955 0.224592252706884 2.1471106022683
0.0998303078241772 0.147654986089912 1.97837070285142
0.0690509267127914 0.187991685588067 1.98209970472801
-0.357593162634633 0.226763286453711 2.1922106230931
-0.3274740706902 0.263823770290693 2.17835026104113
0.11371591271065 0.183237515253589 2.00925019240764
0.0817734075658745 0.2220919752349 2.01099112021678
-0.362086486330119 0.229206537817526 2.2352714031016
-0.336135695552766 0.266817057399166 2.22323667602414
0.125321584946586 0.215143285088173 2.03695335484832
0.0936784025051094 0.253724896905118 2.04261131071435
-0.283428171415253 0.310163074201488 2.25494195147896
-0.300209244426255 0.298040077976981 2.21051327044812
-0.257156135090663 0.323037010163164 2.22428549985432
0.110109813582303 0.291324639660303 2.12493476888854
0.103966609092496 0.277446395793152 2.08228276707431
0.0669930469117989 0.304153196400179 2.09875483573635
-0.217695871478362 0.334138529815565 2.24803437454461
-0.211173994969664 0.332589693523782 2.2045369342987
-0.173229409954531 0.336681050618972 2.24606855448319
-0.165926441800359 0.333329285496828 2.19656439129761
-0.131043843058679 0.334454474679561 2.235202894482
-0.12412262563761 0.331339527311865 2.1813288230904
-0.0879509523104276 0.332558958848839 2.21660644929226
-0.0824396877529336 0.329022031408884 2.16421703063485
-0.0455865331846742 0.330500346487387 2.20207069636086
-0.041782202993105 0.326818932059111 2.14792313078677
-0.00488668937131362 0.328713569107034 2.1837950319636
0.00132567076775604 0.325268172802254 2.13504101700273
0.0429390414628631 0.324118127128226 2.17674608068017
0.0409743476576075 0.320550005244359 2.12947479200011
-0.321139156413045 0.0761727341295861 1.95488678191588
-0.306006236545173 0.0410100086752864 1.93361817613416
-0.262035540672058 0.0449611048512825 1.91933115459564
-0.215904810379033 0.0422823797622825 1.90237235288297
-0.17267485373117 0.0456170798204241 1.8884169790884
-0.129279324237537 0.0463091036188684 1.87359372637418
-0.0848056342352368 0.0438661087145688 1.85934999643863
-0.356387431892341 0.0846051684818803 1.98525500154808
-0.31319914735242 0.113578966040543 1.97734778588589
-0.277842112668181 0.0880149922560747 1.9443645622156
-0.230339729787225 0.0824699099264685 1.92511294948863
-0.186613957578764 0.0874837377050687 1.91349840525392
-0.143468139102908 0.089026421449151 1.90012315497909
-0.100468039617597 0.0875925991059503 1.88487986977735
-0.0580427390211222 0.0793546603013286 1.87208967210296
-0.0160278282917725 0.0849333354256642 1.87837572756421
-0.348219082473286 0.121539381812759 2.01358172381518
-0.30622955361094 0.148596781290763 2.00923187687466
-0.270573106347151 0.1321682971741 1.97748779025757
-0.238979274923315 0.11632827201679 1.95251730590148
-0.194810299719255 0.123636751228637 1.94521393852518
-0.151656465496861 0.126007648443045 1.93369143761154
-0.106058224824107 0.123819739578639 1.917063318886
-0.0585200152624385 0.117615772172814 1.9002612389523
-0.00551957322145014 0.119027483484435 1.9055799959154
-0.339974993768053 0.15548949543011 2.04613608401146
-0.294360624693504 0.182405998694624 2.03752974030799
-0.257857294541735 0.167752077562708 2.00718814810701
-0.219238877324858 0.151758257049432 1.97968966940268
-0.170306134900004 0.16080977260324 1.97265993896958
-0.122769033614854 0.158444461193109 1.95524474981361
-0.0776536593782846 0.155785148067439 1.93833535715172
-0.0363044098124001 0.149499266175869 1.92643274608593
0.00811642651425168 0.155497143224727 1.93626435831117
-0.329705439870597 0.188404791362218 2.075213311896
-0.283856922320943 0.214553979953811 2.06492887800295
-0.2431393901072 0.203699563438281 2.03659434201716
-0.209035231169052 0.186171959674588 2.00908109396418
-0.168180270776337 0.196941928892614 2.00625987448452
-0.126843439624842 0.192307370489531 1.98867046031687
-0.0813001864056561 0.190233860999711 1.97216805620084
-0.0338212268010861 0.185584698572671 1.95704565597486
0.020363135715096 0.188242604604429 1.96381881729299
-0.319590635982422 0.22041413877533 2.10337216310641
-0.276718931335076 0.246284985081221 2.09410754562658
-0.234787939938369 0.23741761844586 2.06591661878046
-0.191687714488701 0.226280406939175 2.04159637998551
-0.141036522272137 0.228455433330933 2.02749421170415
-0.0957793362101933 0.225277486323984 2.01003589527399
-0.0517056626094106 0.223331019621611 1.9941823254013
-0.0104031288525298 0.217800052133445 1.98354220468269
0.0342342200542652 0.224152162731339 1.99414750088436
-0.309492870532197 0.254874997849967 2.1347108014583
-0.271756518512493 0.278555855753784 2.12638181381368
-0.233023575815052 0.272489367139046 2.09869084279633
-0.191639648386971 0.263463368302644 2.0768565579756
-0.149729308320807 0.260405144066433 2.06057902913798
-0.102620056362165 0.259911964133816 2.0450768872069
-0.056284905601597 0.257884890178676 2.02836546389302
-0.0083127288735579 0.253987227076417 2.0141506487231
0.045945019457508 0.256298120261754 2.02180658215598
-0.289394257972664 0.291733761485387 2.16622563519497
-0.239358130499936 0.303038618938103 2.14036987826336
-0.196460691860952 0.297786860471898 2.11697627101207
-0.155034284225163 0.294317179485416 2.09976718125563
-0.11290893185468 0.291609609417807 2.08344492699981
-0.0685492760913677 0.290187309937989 2.06824031931825
-0.0253700561940152 0.28880157489274 2.05358641047315
0.0156440513668129 0.28370694785615 2.04416202835298
0.059147206036625 0.285541160105091 2.05924480966812
-0.253987738872341 0.316156313933238 2.18170012624089
-0.203409916621618 0.321243917456436 2.16184529776606
-0.159889574310347 0.319302595868209 2.14630446102537
-0.11780887289791 0.316674407808941 2.12946621666432
-0.075042673865418 0.314029861695075 2.11244633963289
-0.0297051495808026 0.312519354946218 2.0974579069562
0.0168392736136799 0.309163193965325 2.08521117621028
3 0 1 2
3 0 2 4
3 3 0 4
3 3 4 6
3 5 3 6
3 5 6 8
3 7 5 8
3 7 8 10
3 9 7 10
3 9 10 12
3 11 9 12
3 13 11 14
3 14 11 12
3 13 14 15
3 16 17 18
3 16 18 1
3 0 19 1
3 19 16 1
3 0 3 20
3 19 0 20
3 3 5 21
3 20 3 21
3 5 7 22
3 21 5 22
3 7 9 23
3 22 7 23
3 9 11 24
3 23 9 24
3 24 11 25
3 25 11 13
3 13 15 26
3 27 13 26
3 25 13 27
3 27 26 28
3 17 16 30
3 30 16 29
3 29 19 31
3 29 16 19
3 31 20 32
3 31 19 20
3 32 21 33
3 32 20 21
3 21 22 33
3 33 22 34
3 22 23 34
3 34 23 35
3 23 24 35
3 35 24 36
3 24 25 36
3 36 25 37
3 37 27 38
3 37 25 27
3 38 28 39
3 38 27 28
3 30 40 41
3 30 29 40
3 29 31 42
3 40 29 42
3 31 32 43
3 42 31 43
3 32 33 44
3 43 32 44
3 33 34 45
3 44 33 45
3 34 35 46
3 45 34 46
3 35 36 47
3 46 35 47
3 36 37 47
3 47 37 48
3 37 38 48
3 48 38 49
3 49 39 50
3 49 38 39
3 40 51 52
3 41 40 52
3 51 42 53
3 51 40 42
3 42 43 53
3 53 43 54
3 43 44 54
3 54 44 55
3 44 45 55
3 55 45 56
3 45 46 56
3 56 46 57
3 46 47 58
3 57 46 58
3 47 48 59
3 58 47 59
3 48 49 60
3 59 48 60
3 49 50 61
3 60 49 61
3 51 62 63
3 52 51 63
3 51 53 64
3 62 51 64
3 53 54 65
3 64 53 65
3 54 55 66
3 65 54 66
3 55 56 67
3 66 55 67
3 56 57 67
3 67 57 68
3 57 58 69
3 68 57 69
3 58 59 69
3 69 59 70
3 59 60 70
3 70 60 71
3 71 61 72
3 71 60 61
3 62 73 74
3 63 62 74
3 62 64 75
3 73 62 75
3 64 65 75
3 75 65 76
3 65 66 76
3 76 66 77
3 66 67 77
3 77 67 78
3 67 68 78
3 78 68 79
3 79 69 80
3 79 68 69
3 80 70 81
3 80 69 70
3 81 71 82
3 81 70 71
3 82 72 83
3 82 71 72
3 74 73 85
3 85 73 84
3 84 73 86
3 86 73 75
3 75 76 86
3 86 76 87
3 76 77 88
3 87 76 88
3 77 78 89
3 88 77 89
3 78 79 90
3 89 78 90
3 79 80 91
3 90 79 91
3 80 81 92
3 91 80 92
3 81 82 93
3 92 81 93
3 93 83 94
3 93 82 83
3 84 95 85
3 84 86 96
3 97 84 96
3 95 84 97
3 96 87 98
3 96 86 87
3 87 88 98
3 98 88 99
3 88 89 99
3 99 89 100
3 89 90 100
3 100 90 101
3 101 91 102
3 101 90 91
3 102 92 103
3 102 91 92
3 92 93 103
3 105 103 104
3 103 93 104
3 93 94 104
3 96 106 97
3 96 98 107
3 106 96 107
3 98 99 108
3 107 98 108
3 99 100 109
3 108 99 109
3 100 101 110
3 109 100 110
3 101 102 111
3 110 101 111
3 111 102 112
3 112 102 103
3 103 105 112
3 117 114 115
3 116 113 117
3 117 113 114
3 116 117 119
3 118 116 119
3 118 119 121
3 120 118 121
3 120 121 123
3 122 120 123
3 122 123 125
3 124 122 125
3 124 125 127
3 126 124 127
3 126 127 128
3 129 130 131
3 114 129 131
3 114 113 129
3 113 2 129
3 129 2 1
3 4 113 116
3 4 2 113
3 6 116 118
3 6 4 116
3 8 118 120
3 8 6 118
3 10 120 122
3 10 8 120
3 12 122 124
3 12 10 122
3 14 124 126
3 14 12 124
3 133 126 128
3 15 14 126
3 15 126 133
3 132 15 133
3 132 133 134
3 135 136 137
3 137 17 135
3 137 18 17
3 18 137 130
3 129 18 130
3 18 129 1
3 15 132 26
3 139 132 134
3 139 138 132
3 138 28 26
3 132 138 26
3 138 139 140
3 136 135 142
3 142 135 141
3 17 30 135
3 135 30 141
3 143 39 28
3 138 143 28
3 143 140 144
3 143 138 140
3 141 145 146
3 142 141 146
3 41 145 141
3 30 41 141
3 147 39 143
3 147 50 39
3 147 144 148
3 147 143 144
3 145 149 150
3 146 145 150
3 52 149 145
3 41 52 145
3 151 50 147
3 151 155 50
3 151 148 152
3 151 147 148
3 149 153 154
3 150 149 154
3 63 153 149
3 52 63 149
3 155 61 50
3 155 72 61
3 155 151 156
3 156 151 152
3 154 157 158
3 154 153 157
3 74 157 153
3 63 74 153
3 159 72 155
3 159 83 72
3 159 156 160
3 159 155 156
3 158 157 162
3 162 157 161
3 74 85 161
3 157 74 161
3 163 83 159
3 163 94 83
3 163 160 164
3 163 159 160
3 161 165 162
3 165 95 166
3 165 161 95
3 161 85 95
3 165 166 167
3 95 97 166
3 105 104 168
3 170 94 163
3 170 168 94
3 169 168 170
3 94 168 104
3 163 164 170
3 166 171 167
3 173 171 172
3 172 171 106
3 171 97 106
3 171 166 97
3 172 107 174
3 172 106 107
3 174 108 175
3 174 107 108
3 175 109 176
3 175 108 109
3 176 110 177
3 176 109 110
3 177 111 178
3 177 110 111
3 178 112 180
3 178 111 112
3 181 105 168
3 181 180 105
3 179 178 180
3 180 112 105
3 168 169 181
3 172 182 173
3 182 172 183
3 183 172 174
3 174 175 184
3 183 174 184
3 175 176 185
3 184 175 185
3 176 177 186
3 185 176 186
3 177 178 187
3 186 177 187
3 187 179 188
3 187 178 179
3 179 180 229
3 189 190 191
3 114 131 191
3 115 114 191
3 115 191 192
3 115 192 193
3 117 115 193
3 119 193 194
3 119 117 193
3 119 194 121
3 121 194 195
3 121 195 123
3 123 195 196
3 123 196 125
3 125 196 197
3 127 197 198
3 127 125 197
3 128 198 199
3 200 128 199
3 128 127 198
3 200 199 201
3 202 203 204
3 131 130 189
3 190 189 204
3 189 130 202
3 189 202 204
3 131 189 191
3 128 200 133
3 134 200 205
3 206 205 201
3 134 133 200
3 205 200 201
3 205 206 207
3 136 208 203
3 202 137 136
3 202 136 203
3 137 202 130
3 134 205 139
3 139 205 207
3 140 139 207
3 211 207 209
3 136 142 208
3 208 142 210
3 211 140 207
3 211 144 140
3 146 212 210
3 142 146 210
3 148 144 213
3 213 144 211
3 150 214 212
3 146 150 212
3 215 148 213
3 215 152 148
3 154 216 150
3 150 216 214
3 219 152 217
3 217 152 215
3 158 218 216
3 154 158 216
3 219 156 152
3 219 160 156
3 158 220 218
3 158 162 220
3 221 160 219
3 221 164 160
3 162 165 222
3 223 220 222
3 220 162 222
3 165 167 222
3 169 170 224
3 225 164 221
3 224 170 164
3 224 164 225
3 222 226 223
3 167 171 227
3 226 167 227
3 226 227 228
3 226 222 167
3 171 173 227
3 180 181 229
3 181 169 230
3 231 169 224
3 230 169 231
3 230 229 181
3 224 225 271
3 227 232 228
3 232 182 233
3 232 173 182
3 227 173 232
3 182 183 234
3 233 182 234
3 183 184 234
3 234 184 235
3 184 185 235
3 235 185 236
3 185 186 236
3 236 186 237
3 186 187 237
3 237 187 238
3 238 188 239
3 238 187 188
3 188 179 229
3 240 239 188
3 240 188 229
3 229 230 240
3 191 190 242
3 242 190 241
3 192 242 243
3 192 191 242
3 192 243 244
3 193 192 244
3 194 244 245
3 194 193 244
3 194 245 246
3 195 194 246
3 195 246 247
3 196 195 247
3 196 247 248
3 197 196 248
3 197 248 249
3 198 197 249
3 199 198 249
3 250 199 249
3 201 199 251
3 251 199 250
3 204 252 253
3 204 203 252
3 190 253 241
3 190 204 253
3 206 251 254
3 206 201 251
3 207 206 255
3 255 206 254
3 203 256 252
3 203 208 256
3 257 209 255
3 255 209 207
3 210 258 208
3 208 258 256
3 211 209 259
3 259 209 257
3 212 260 210
3 210 260 258
3 213 211 259
3 261 213 259
3 214 262 260
3 212 214 260
3 215 213 261
3 263 215 261
3 216 264 214
3 214 264 262
3 217 215 263
3 265 217 263
3 218 266 264
3 216 218 264
3 219 217 265
3 267 219 265
3 218 268 266
3 218 220 268
3 221 219 267
3 269 221 267
3 223 270 268
3 220 223 268
3 225 221 269
3 271 225 269
3 223 226 272
3 270 223 272
3 272 228 273
3 272 226 228
3 274 231 275
3 274 230 231
3 275 231 271
3 271 231 224
3 273 228 276
3 276 228 232
3 276 233 277
3 276 232 233
3 233 234 278
3 277 233 278
3 234 235 279
3 278 234 279
3 235 236 280
3 279 235 280
3 236 237 281
3 280 236 281
3 237 238 282
3 281 237 282
3 238 239 283
3 282 238 283
3 327 239 284
3 284 239 240
3 240 230 274
3 284 240 274
3 241 285 286
3 242 241 286
3 242 286 243
3 243 286 287
3 243 287 288
3 244 243 288
3 245 288 289
3 245 244 288
3 245 289 246
3 246 289 290
3 246 290 247
3 247 290 291
3 247 291 248
3 248 291 292
3 248 292 293
3 249 248 293
3 249 293 250
3 250 293 294
3 250 294 295
3 251 250 295
3 252 296 297
3 253 252 297
3 241 297 285
3 241 253 297
3 254 295 298
3 254 251 295
3 254 298 299
3 255 254 299
3 256 300 252
3 252 300 296
3 257 255 299
3 301 257 299
3 258 302 300
3 256 258 300
3 259 257 303
3 303 257 301
3 260 304 258
3 258 304 302
3 261 259 303
3 305 261 303
3 262 306 304
3 260 262 304
3 263 261 305
3 307 263 305
3 264 308 262
3 262 308 306
3 265 263 307
3 309 265 307
3 266 310 308
3 264 266 308
3 267 265 309
3 311 267 309
3 266 312 310
3 266 268 312
3 269 267 311
3 313 269 311
3 270 314 312
3 268 270 312
3 271 269 315
3 315 269 313
3 270 272 316
3 314 270 316
3 316 273 317
3 316 272 273
3 318 275 319
3 318 274 275
3 275 271 315
3 319 275 315
3 273 276 320
3 317 273 320
3 276 277 320
3 320 277 321
3 277 278 322
3 321 277 322
3 322 279 323
3 322 278 279
3 279 280 323
3 323 280 324
3 280 281 324
3 324 281 325
3 281 282 325
3 325 282 326
3 282 283 326
3 326 283 327
3 283 239 327
3 327 284 328
3 284 274 318
3 328 284 318
3 285 329 330
3 286 285 330
3 286 330 287
3 287 330 331
3 287 331 332
3 288 287 332
3 288 332 289
3 289 332 333
3 289 333 334
3 290 289 334
3 290 334 335
3 291 290 335
3 291 335 292
3 292 335 336
3 292 336 337
3 293 292 337
3 293 337 294
3 294 337 338
3 294 338 339
3 295 294 339
3 296 340 341
3 297 296 341
3 285 341 329
3 285 297 341
3 298 339 342
3 298 295 339
3 298 342 343
3 299 298 343
3 300 344 296
3 296 344 340
3 301 299 343
3 345 301 343
3 302 346 344
3 300 302 344
3 303 301 347
3 347 301 345
3 304 348 302
3 302 348 346
3 305 303 347
3 349 305 347
3 306 350 348
3 304 306 348
3 307 305 351
3 351 305 349
3 308 352 306
3 306 352 350
3 309 307 353
3 353 307 351
3 310 354 352
3 308 310 352
3 311 309 355
3 355 309 353
3 312 356 310
3 310 356 354
3 313 311 355
3 357 313 355
3 314 358 356
3 312 314 356
3 315 313 359
3 359 313 357
3 314 316 360
3 358 314 360
3 360 317 361
3 360 316 317
3 362 319 363
3 362 318 319
3 319 315 359
3 363 319 359
3 317 320 364
3 361 317 364
3 320 321 364
3 364 321 365
3 321 322 366
3 365 321 366
3 322 323 366
3 366 323 367
3 323 324 368
3 367 323 368
3 324 325 369
3 368 324 369
3 325 326 370
3 369 325 370
3 326 327 371
3 370 326 371
3 327 328 371
3 371 328 372
3 328 318 362
3 372 328 362
3 329 373 374
3 330 329 374
3 330 374 331
3 331 374 375
3 331 375 376
3 332 331 376
3 332 376 333
3 333 376 377
3 333 377 378
3 334 333 378
3 334 378 379
3 335 334 379
3 335 379 336
3 336 379 380
3 336 380 381
3 337 336 381
3 337 381 338
3 338 381 382
3 338 382 383
3 339 338 383
3 340 384 385
3 341 340 385
3 329 385 373
3 329 341 385
3 342 383 386
3 342 339 383
3 342 386 387
3 343 342 387
3 344 388 340
3 340 388 384
3 345 343 387
3 389 345 387
3 346 390 388
3 344 346 388
3 347 345 391
3 391 345 389
3 348 392 346
3 346 392 390
3 349 347 391
3 393 349 391
3 350 394 348
3 348 394 392
3 351 349 395
3 395 349 393
3 352 396 350
3 350 396 394
3 353 351 395
3 397 353 395
3 354 398 396
3 352 354 396
3 355 353 399
3 399 353 397
3 356 400 354
3 354 400 398
3 357 355 399
3 401 357 399
3 358 402 400
3 356 358 400
3 359 357 403
3 403 357 401
3 358 360 404
3 402 358 404
3 404 361 405
3 404 360 361
3 406 363 407
3 406 362 363
3 363 359 403
3 407 363 403
3 361 364 408
3 405 361 408
3 364 365 408
3 408 365 409
3 365 366 410
3 409 365 410
3 366 367 410
3 410 367 411
3 367 368 412
3 411 367 412
3 368 369 412
3 412 369 413
3 369 370 413
3 413 370 414
3 370 371 415
3 414 370 415
3 371 372 415
3 415 372 416
3 372 362 406
3 416 372 406
3 373 417 418
3 374 373 418
3 374 418 375
3 375 418 419
3 375 419 420
3 376 375 420
3 376 420 377
3 377 420 421
3 377 421 422
3 378 377 422
3 378 422 423
3 379 378 423
3 380 423 424
3 380 379 423
3 380 424 425
3 381 380 425
3 382 425 426
3 382 381 425
3 382 426 427
3 383 382 427
3 384 428 429
3 385 384 429
3 373 429 417
3 373 385 429
3 386 427 430
3 386 383 427
3 386 430 431
3 387 386 431
3 384 432 428
3 384 388 432
3 389 387 431
3 433 389 431
3 390 434 432
3 388 390 432
3 435 389 433
3 435 391 389
3 390 436 434
3 390 392 436
3 393 391 435
3 437 393 435
3 394 438 436
3 392 394 436
3 395 393 439
3 439 393 437
3 396 440 438
3 394 396 438
3 397 395 439
3 441 397 439
3 398 442 440
3 396 398 440
3 399 397 443
3 443 397 441
3 400 444 398
3 398 444 442
3 401 399 443
3 445 401 443
3 402 446 444
3 400 402 444
3 403 401 447
3 447 401 445
3 402 404 448
3 446 402 448
3 448 405 449
3 448 404 405
3 450 407 451
3 450 406 407
3 407 403 447
3 451 407 447
3 405 408 452
3 449 405 452
3 408 409 452
3 452 409 453
3 409 410 454
3 453 409 454
3 410 411 454
3 454 411 455
3 411 412 456
3 455 411 456
3 412 413 456
3 456 413 457
3 457 414 458
3 457 413 414
3 414 415 459
3 458 414 459
3 415 416 459
3 459 416 460
3 416 406 450
3 460 416 450
3 418 461 462
3 418 417 461
3 419 462 463
3 419 418 462
3 419 463 464
3 420 419 464
3 420 464 421
3 421 464 465
3 421 465 466
3 422 421 466
3 422 466 467
3 423 422 467
3 424 467 468
3 424 423 467
3 424 468 469
3 425 424 469
3 426 469 470
3 426 425 469
3 427 426 471
3 471 426 470
3 429 428 473
3 473 428 472
3 417 473 505
3 417 429 473
3 430 427 471
3 520 430 471
3 431 474 475
3 431 430 474
3 428 476 472
3 428 432 476
3 433 431 475
3 477 433 475
3 434 478 476
3 432 434 476
3 479 433 477
3 479 435 433
3 434 480 478
3 434 436 480
3 437 435 479
3 481 437 479
3 438 482 436
3 436 482 480
3 439 437 483
3 483 437 481
3 440 484 482
3 438 440 482
3 441 439 483
3 485 441 483
3 442 486 440
3 440 486 484
3 443 441 487
3 487 441 485
3 444 488 442
3 442 488 486
3 445 443 487
3 489 445 487
3 444 446 488
3 488 446 490
3 491 445 489
3 491 447 445
3 490 446 492
3 492 446 448
3 492 449 493
3 492 448 449
3 494 451 495
3 494 450 451
3 451 447 491
3 495 451 491
3 449 452 496
3 493 449 496
3 496 453 497
3 496 452 453
3 453 454 498
3 497 453 498
3 498 455 499
3 498 454 455
3 455 456 500
3 499 455 500
3 456 457 501
3 500 456 501
3 457 458 502
3 501 457 502
3 458 459 503
3 502 458 503
3 503 460 504
3 503 459 460
3 504 460 494
3 494 460 450
3 461 505 506
3 462 461 506
3 507 463 462
3 507 462 506
3 465 463 508
3 508 463 507
3 464 463 465
3 465 508 509
3 465 509 466
3 466 509 510
3 466 510 467
3 467 510 511
3 467 511 468
3 468 511 512
3 468 512 513
3 469 468 513
3 469 513 470
3 515 470 514
3 470 513 514
3 470 515 471
3 472 516 473
3 518 516 517
3 518 505 516
3 461 417 505
3 505 473 516
3 505 518 506
3 515 514 519
3 474 430 520
3 521 520 519
3 520 471 515
3 520 515 519
3 474 520 524
3 476 522 472
3 516 472 523
3 472 522 523
3 516 523 517
3 520 521 524
3 477 475 524
3 524 475 474
3 525 477 524
3 478 526 522
3 476 478 522
3 527 477 525
3 527 479 477
3 478 528 526
3 478 480 528
3 481 479 527
3 529 481 527
3 482 530 480
3 480 530 528
3 483 481 531
3 531 481 529
3 484 532 530
3 482 484 530
3 485 483 531
3 533 485 531
3 486 534 484
3 484 534 532
3 535 485 533
3 535 487 485
3 486 536 534
3 486 488 536
3 537 489 535
3 535 489 487
3 490 538 539
3 536 490 539
3 488 490 536
3 538 540 539
3 541 542 543
3 541 489 537
3 542 541 537
3 541 491 489
3 490 492 538
3 545 493 544
3 538 492 493
3 538 493 545
3 540 538 545
3 544 546 545
3 547 548 549
3 543 495 541
3 547 494 495
3 547 495 543
3 608 547 543
3 495 491 541
3 493 496 544
3 544 497 550
3 546 544 550
3 544 496 497
3 550 497 551
3 551 497 498
3 498 499 551
3 551 499 552
3 499 500 552
3 552 500 553
3 500 501 553
3 553 501 554
3 554 502 555
3 554 501 502
3 502 503 556
3 555 502 556
3 503 504 556
3 549 504 547
3 556 504 549
3 504 494 547
3 506 557 507
3 507 557 558
3 508 507 558
3 508 558 559
3 509 508 559
3 509 559 560
3 510 509 560
3 510 560 561
3 511 510 561
3 511 561 562
3 512 511 562
3 514 512 563
3 563 512 562
3 513 512 514
3 517 564 518
3 518 564 557
3 566 564 565
3 557 564 566
3 557 506 518
3 558 566 567
3 558 557 566
3 559 567 568
3 559 558 567
3 560 568 569
3 560 559 568
3 561 569 570
3 561 560 569
3 562 570 571
3 562 561 570
3 563 562 571
3 572 563 571
3 574 514 563
3 572 574 563
3 573 519 574
3 574 519 514
3 519 573 521
3 522 575 523
3 577 575 576
3 577 517 575
3 564 517 577
3 575 517 523
3 564 577 565
3 573 574 572
3 521 573 579
3 580 573 578
3 579 573 580
3 579 524 521
3 524 579 525
3 522 581 575
3 522 526 581
3 576 581 582
3 576 575 581
3 583 580 584
3 583 579 580
3 583 525 579
3 583 527 525
3 526 585 581
3 526 528 585
3 582 585 586
3 582 581 585
3 587 584 588
3 587 583 584
3 587 527 583
3 587 529 527
3 528 589 585
3 528 530 589
3 586 589 590
3 586 585 589
3 591 588 592
3 591 587 588
3 591 529 587
3 591 531 529
3 532 593 589
3 530 532 589
3 590 593 594
3 590 589 593
3 595 592 596
3 595 591 592
3 595 531 591
3 595 533 531
3 534 597 593
3 532 534 593
3 594 597 598
3 594 593 597
3 599 596 600
3 599 595 596
3 599 533 595
3 599 535 533
3 534 601 597
3 534 536 601
3 602 597 601
3 602 598 597
3 603 599 600
3 604 603 600
3 603 535 599
3 603 537 535
3 536 539 601
3 606 540 605
3 606 602 540
3 602 601 539
3 540 602 539
3 605 607 606
3 608 609 610
3 608 543 609
3 604 542 603
3 609 543 542
3 609 542 604
3 542 537 603
3 540 545 605
3 605 546 607
3 612 607 611
3 605 545 546
3 607 546 611
3 612 613 614
3 612 611 613
3 614 615 616
3 614 613 615
3 616 617 618
3 616 615 617
3 618 619 620
3 618 617 619
3 620 621 622
3 620 619 621
3 622 623 624
3 622 621 623
3 610 548 608
3 624 623 548
3 624 548 610
3 548 623 549
3 548 547 608
3 546 550 611
3 611 550 613
3 613 550 551
3 551 552 615
3 613 551 615
3 552 553 617
3 615 552 617
3 553 554 619
3 617 553 619
3 554 555 621
3 619 554 621
3 621 555 623
3 623 555 556
3 556 549 623
3 565 625 626
3 567 566 626
3 626 566 565
3 567 626 627
3 568 567 627
3 568 627 628
3 569 568 628
3 569 628 629
3 570 569 629
3 570 629 630
3 571 570 630
3 572 571 631
3 631 571 630
3 572 631 578
3 576 632 577
3 625 632 633
3 565 577 632
3 565 632 625
3 625 633 634
3 626 625 634
3 626 634 627
3 627 634 635
3 627 635 628
3 628 635 636
3 628 636 629
3 629 636 637
3 629 637 630
3 630 637 638
3 631 638 639
3 631 630 638
3 640 578 639
3 578 573 572
3 578 631 639
3 578 640 580
3 576 641 632
3 576 582 641
3 633 641 642
3 633 632 641
3 633 642 643
3 634 633 643
3 634 643 644
3 635 634 644
3 635 644 645
3 636 635 645
3 636 645 646
3 637 636 646
3 637 646 647
3 638 637 647
3 638 647 648
3 639 638 648
3 640 648 649
3 640 639 648
3 584 580 640
3 649 584 640
3 582 650 641
3 582 586 650
3 642 650 651
3 642 641 650
3 642 651 652
3 643 642 652
3 643 652 653
3 644 643 653
3 644 653 645
3 645 653 654
3 645 654 646
3 646 654 655
3 646 655 647
3 647 655 656
3 647 656 648
3 648 656 657
3 648 657 649
3 649 657 658
3 588 584 649
3 658 588 649
3 586 659 650
3 586 590 659
3 650 659 651
3 651 659 660
3 651 660 661
3 652 651 661
3 652 661 662
3 653 652 662
3 653 662 654
3 654 662 663
3 654 663 664
3 655 654 664
3 655 664 665
3 656 655 665
3 656 665 666
3 657 656 666
3 657 666 658
3 658 666 667
3 592 588 658
3 667 592 658
3 590 668 659
3 590 594 668
3 660 668 669
3 660 659 668
3 660 669 670
3 661 660 670
3 661 670 671
3 662 661 671
3 662 671 663
3 663 671 672
3 663 672 664
3 664 672 673
3 664 673 665
3 665 673 674
3 665 674 666
3 666 674 675
3 666 675 667
3 667 675 676
3 596 592 667
3 676 596 667
3 594 677 668
3 594 598 677
3 668 677 669
3 669 677 678
3 669 678 679
3 670 669 679
3 670 679 680
3 671 670 680
3 671 680 681
3 672 671 681
3 672 681 682
3 673 672 682
3 673 682 683
3 674 673 683
3 674 683 684
3 675 674 684
3 676 684 685
3 676 675 684
3 600 596 676
3 685 600 676
3 598 686 677
3 598 602 606
3 678 686 687
3 678 677 686
3 678 687 679
3 679 687 688
3 679 688 680
3 680 688 689
3 680 689 681
3 681 689 690
3 681 690 682
3 682 690 691
3 683 691 692
3 683 682 691
3 684 692 693
3 684 683 692
3 685 693 694
3 685 684 693
3 694 604 685
3 685 604 600
3 598 606 686
3 606 607 695
3 686 606 695
3 686 695 687
3 688 687 696
3 696 687 695
3 688 696 697
3 689 688 697
3 689 697 698
3 690 689 698
3 690 698 699
3 691 690 699
3 691 699 700
3 692 691 700
3 692 700 701
3 693 692 701
3 610 609 694
3 701 610 694
3 701 694 693
3 609 604 694
3 607 612 695
3 695 612 696
3 696 612 614
3 614 616 697
3 696 614 697
3 616 618 698
3 697 616 698
3 618 620 699
3 698 618 699
3 620 622 700
3 699 620 700
3 622 624 701
3 700 622 701
3 624 610 701
