OFF
702 1400 0
-0.261253493168787 -0.325322066440524 2.18929397275643
-0.306588140423655 -0.311610298821799 2.17127371412769
-0.278476594733726 -0.331367715872148 2.14403863170774
-0.214408663647758 -0.332015448750171 2.19414818766748
-0.232577321593578 -0.342186299212356 2.14946851022545
-0.167617382367995 -0.336775106352459 2.19742345661935
-0.186201311454432 -0.346530138722361 2.15171860397576
-0.122257657623931 -0.340869631763447 2.20189175493095
-0.140888636088458 -0.350664721029071 2.15366634762596
-0.0773833715157688 -0.344764156731014 2.20671371714149
-0.0961474111765417 -0.354361408436877 2.15840614525774
-0.0299057010157921 -0.347869508414668 2.21443749761587
-0.0503853324285324 -0.357671157767518 2.16699547096057
0.018195741090005 -0.343484064454794 2.22282315618378
-0.00309001138650286 -0.359289044895188 2.17609478328478
0.0434379805398097 -0.350445358797244 2.18485937531784
-0.329165399991164 -0.28272024918032 2.19920438843273
-0.358781354910643 -0.265524060504693 2.17154821785111
-0.337631964968601 -0.295846005959033 2.14340605663447
-0.288812970102659 -0.298625423617229 2.2191377530816
-0.242170541459862 -0.307659134412026 2.23130162424079
-0.194495850092349 -0.313047421180173 2.2352646096958
-0.14774837896661 -0.317040871149577 2.24074489305436
-0.10255112967406 -0.320476781745935 2.24666627403864
-0.058274182643656 -0.325928994665015 2.24935942924244
-0.00964229570924541 -0.326775246301465 2.25670907551737
0.0641929636253608 -0.327386620256633 2.22841648643686
0.0355696023247234 -0.314680367299133 2.26442325260147
0.0817318134076363 -0.294666723981716 2.26200706943379
-0.316238233953132 -0.261527417728363 2.24059248940721
-0.356245960893196 -0.241209954519614 2.2123281851552
-0.270348500511804 -0.27494390856926 2.25835181327385
-0.220439777742918 -0.281347989403428 2.26656788315232
-0.172864144520966 -0.285747055025894 2.27191640352524
-0.125263200744867 -0.28822655163999 2.27921317213643
-0.0805788363628315 -0.291005834988975 2.28560471450425
-0.0383619579400226 -0.300469674777352 2.28472568225587
0.00298241982154322 -0.292218085462875 2.29536466981551
0.0486781996369378 -0.278911835648221 2.29673023231243
0.0935719656351181 -0.256788285969136 2.29006569226095
-0.334414851782225 -0.224036023392868 2.26086052345286
-0.367442743741024 -0.202705837849754 2.23411601428828
-0.293538194414187 -0.23886346668047 2.28223992929046
-0.244584904480401 -0.249496398274916 2.29364084505923
-0.195842424483177 -0.251702103550881 2.30162946940613
-0.148415148764393 -0.256529874427653 2.30651446431461
-0.096937197198158 -0.257396245834029 2.3162410812049
-0.0421177932558181 -0.266900809728733 2.31791592465372
0.00832599193802654 -0.259635376831002 2.3272471611273
0.0588533183660758 -0.244256091543454 2.32586120835843
0.103700972505416 -0.21835596607785 2.31778197398479
-0.31850752068107 -0.199549336523705 2.30319852267826
-0.358858179870492 -0.181884214057884 2.27187095626708
-0.269358340788216 -0.216739276545126 2.31835147011167
-0.221978023554472 -0.219039654137002 2.32929403483684
-0.176453174985381 -0.220102115215571 2.337596426132
-0.132534629271764 -0.228033687988513 2.33861799490035
-0.0990192634668516 -0.215998913354113 2.35769757643303
-0.0642194890794585 -0.235475504770623 2.3451598023331
-0.0219132582644368 -0.231981065489735 2.35604504841844
0.0260082926078318 -0.225561462140974 2.35740585106435
0.0741242025905879 -0.206923805264508 2.35312860666095
-0.321630012033787 -0.158644272631179 2.34299460642654
-0.349609849195768 -0.161095250532761 2.30810308836391
-0.288811861211359 -0.185092960418704 2.34068518963559
-0.241778943319831 -0.187424160342529 2.35719727792035
-0.197050026721916 -0.186205728165539 2.36765103442253
-0.14816369697338 -0.191252160798079 2.37261427493682
-0.102741952154216 -0.185436486895533 2.38785484515719
-0.0553622520618391 -0.198965358281831 2.38392540891652
-0.00734794903200719 -0.198851912597055 2.38940345342493
0.0404511646660143 -0.191700676405024 2.38596644766273
0.0879989666004048 -0.169734739984052 2.37875528497161
-0.311015430995819 -0.133885896586195 2.37806657896878
-0.355020077177525 -0.12137213708847 2.34270592185306
-0.272416080481898 -0.158461499227046 2.37657877228024
-0.226465681750711 -0.152161796017629 2.39603646209476
-0.176452577599502 -0.156747740868284 2.40169873654829
-0.130669537584071 -0.156545898294849 2.41133410475719
-0.0791630663361597 -0.160646085577832 2.41779443453457
-0.0342443521230945 -0.167276430021896 2.41997835600707
0.0121376155026842 -0.164501118543679 2.42127232909802
0.0561119417147886 -0.157447941943606 2.41228902736427
0.092589454301652 -0.131873309764444 2.41105021326369
-0.306167369667219 -0.0938114952604858 2.41351040368819
-0.339989076541197 -0.102743162540303 2.3803733691538
-0.272828668385868 -0.124163347595007 2.40939220727031
-0.238239093983324 -0.112233724559494 2.42716445639307
-0.19553437709168 -0.120931617643565 2.42899151307052
-0.150427050590085 -0.121236913872564 2.43684847680284
-0.103241307300298 -0.124746452826531 2.44291710074249
-0.0546569684906322 -0.129044723619765 2.44871507794283
-0.00638492403617966 -0.13233370445492 2.45056821319244
0.0452324712540153 -0.126895757219076 2.4430130092034
0.0927203257106588 -0.0959725872038888 2.43507484125882
-0.347259728434481 -0.0632950818620102 2.39693692583241
-0.268936587813208 -0.074334771760161 2.43931533217542
-0.312361161160775 -0.0497553083496345 2.4281107075484
-0.219489228222295 -0.0750804168573089 2.44870322884486
-0.173479724102983 -0.0800188102150186 2.45397981711186
-0.126817721813012 -0.0811964549587538 2.46074182821422
-0.0810430712018875 -0.0860020620846958 2.466041321641
-0.0343977296886669 -0.0907192130054359 2.47122442411983
0.0122655855685105 -0.0926448653591082 2.46931417381632
0.0566520365147037 -0.0866999878574883 2.45917671294626
0.0385342082785981 -0.0475895169134017 2.47536015904216
-0.285399629370611 -0.0227049333777314 2.44587342871965
-0.243012854553684 -0.0319500405170994 2.45603592957331
-0.19399881386091 -0.0340241653522333 2.4624160914941
-0.148256825289818 -0.0353570602192919 2.46840681914902
-0.101985889329302 -0.0370108474765607 2.47440641997286
-0.057454895382036 -0.0439397756329764 2.47957466209875
-0.00976868257598017 -0.0485455391677028 2.48271624044056
-0.256454455424807 -0.339604821965288 2.10492456067864
-0.280089998433612 -0.325867395401907 2.06926406720064
-0.25642422088206 -0.319571664911382 2.03171364388118
-0.206872351375406 -0.346358737561878 2.10576725644135
-0.228349828124292 -0.337647691841703 2.0645501374013
-0.160829891517407 -0.349505269989311 2.10528340945346
-0.180186118367838 -0.33844476666954 2.05914780732855
-0.11543714400579 -0.352823077466229 2.10799625461909
-0.134885679429242 -0.340404187753367 2.05999618164849
-0.0701450384047616 -0.356715551795938 2.11587997574669
-0.0873438520168707 -0.34437054538944 2.06632836353115
-0.0252761415280511 -0.360794940539791 2.12645154571258
-0.0416725647050047 -0.349343363295795 2.07574195425665
0.0207648463657949 -0.35965828910335 2.13511456610219
0.00249243423077489 -0.353759982955984 2.08723339214666
0.0504269222045134 -0.347101020372087 2.09631178831568
-0.307919506253741 -0.318944483878722 2.11239016335519
-0.346171040000265 -0.288351936311485 2.0960055579164
-0.316623924057395 -0.304499501636715 2.06382622281566
0.0882726745364091 -0.330494765801197 2.1890259958114
0.0639757060974109 -0.348152521412851 2.14440908605251
0.103770848178906 -0.326962825501164 2.14634296709431
-0.383820650875115 -0.229782140921334 2.161511469817
-0.393940328609676 -0.217705962775242 2.1117854683999
-0.371457717229144 -0.260233964301405 2.12520607869537
0.109448995576133 -0.302068327706701 2.22242893631793
0.130154229527673 -0.301015083118742 2.17813413295625
0.14740449388057 -0.269613232281568 2.20519444002684
-0.3858518632667 -0.200860577285108 2.19273077579993
-0.401493042335144 -0.185081738123452 2.14624053602791
0.123535564714768 -0.266154858656035 2.25039560241615
0.154890544352201 -0.230104568120944 2.23549960210493
-0.3893929654775 -0.161976577990799 2.22624104107809
-0.401920104849491 -0.154914829737211 2.18239683397205
0.131613576387309 -0.225641786487584 2.27810220633818
0.16156389531131 -0.188090615171889 2.25941396880303
-0.383820765404499 -0.14263568314437 2.26389064483279
-0.403985305478921 -0.114457846267492 2.22137914240666
0.140507810902274 -0.184475509827016 2.30325385034604
0.166229108941132 -0.146024785044013 2.28533370584724
-0.37590533396337 -0.124328817384807 2.30267060233872
-0.399427366701049 -0.096341227271455 2.26653182210842
0.117256902786468 -0.177214372832371 2.34236668121182
0.150088322573799 -0.139336156571008 2.32796366063955
-0.389406660877248 -0.0841808850209278 2.31448437529532
-0.407347525886225 -0.0500153989144197 2.28289951621956
0.124893112674853 -0.137170260889768 2.37059171689415
0.155419298100932 -0.0992620814593747 2.3533922489778
-0.373944539834452 -0.0763674195013325 2.35595558686952
-0.397860016246775 -0.0385305011709833 2.33019635411243
0.128554565509679 -0.099723536768822 2.39861495101779
0.152559358433592 -0.0619930716209426 2.38466532301541
-0.376519062496841 -0.0310886750918179 2.37306847650741
-0.344453090401955 -0.0196684178144565 2.41057767174443
-0.363923790829541 0.0137362296869047 2.3906009690343
0.0857786688056763 -0.0488787362095661 2.45475706633471
0.109422240990048 -0.00977214751994801 2.44030889487866
0.12255959978857 -0.0574813514774567 2.42449491291523
-0.318827546098288 0.00788123223751351 2.42962546561025
-0.266345047796489 0.0183460835600909 2.45153924731944
-0.298032349349044 0.0466218138614601 2.4338236052695
-0.216847299698665 0.00943395965770846 2.46053294743635
-0.169592154646877 0.0120370559773966 2.46580098508665
-0.123013615391625 0.0103636034378419 2.47136304221012
-0.0762218538207154 0.00862299086974008 2.47693653500898
-0.0333662855788933 -0.00236356020923886 2.48307193271895
-0.00761466567934047 0.0338230792271464 2.47690086831724
0.0172890353221492 -0.00642176955216226 2.48143641251381
0.0660469094350257 -0.00660349185739828 2.46666541786224
-0.264320713471605 0.0756793491571867 2.43585469069473
-0.232937291552099 0.0519255612082448 2.45078183950818
-0.188787044809153 0.0569149350924999 2.45352926317046
-0.142712139556536 0.0566234411544858 2.45805424883302
-0.0960635272173359 0.0543107998603311 2.46333638543403
-0.0476916816539566 0.0522674423629948 2.46866376020315
0.00833947063523652 0.0706293793506171 2.46088233718368
-0.344036554395991 -0.273089122728646 2.0463993958018
-0.327553286492759 -0.260763901990289 2.00710295200619
-0.297262090002979 -0.296488690113719 2.02196461469088
-0.248409360057135 -0.298206094049759 1.99519111053922
-0.206709532691532 -0.321418211428061 2.02201189465332
-0.156130670200782 -0.317647806760679 2.01532329115288
-0.106216893348251 -0.323039330835152 2.0236865930409
-0.054215869983294 -0.327393966719615 2.03044910672377
-0.00897961376107247 -0.333121446365565 2.03946772579227
0.0350548515425229 -0.336393551526429 2.055731012122
0.0776257444632016 -0.318714986043967 2.05431916672732
0.0901217767893298 -0.330798031904172 2.10275201630119
0.116978882704509 -0.305388022963535 2.08408793377625
-0.373802364409849 -0.24965487601333 2.07889206494584
-0.391028495076857 -0.203576748204402 2.06425461288385
-0.367752534725233 -0.231595928178001 2.03510424958737
0.133543691432047 -0.301195710185913 2.12857564028484
0.149770270512783 -0.273715706255692 2.09629692427365
0.159685108191018 -0.268564225923713 2.15133896556213
-0.40503711824756 -0.169202595021159 2.09951358683086
0.179822217318883 -0.226651089658417 2.14721340155473
-0.407841578341717 -0.137052699345369 2.13096781882937
0.171698047591412 -0.232850663405576 2.18994788950758
-0.408745538180328 -0.113356444925826 2.17289341718043
0.177632546884679 -0.19005480141167 2.21220426028848
-0.410502372251158 -0.0729941948678626 2.18697471010068
0.18050722317013 -0.148994901456809 2.234730251098
-0.410475168943057 -0.0635047997693228 2.23389679165771
0.181403414411163 -0.110686900112299 2.26062653461994
-0.413242343314792 -0.015169548517669 2.25058327275577
0.173606682162776 -0.0963760560352398 2.30555593176756
-0.409422304816746 -0.00240718476994311 2.30053250965128
0.174063943267828 -0.0562729920899767 2.3369184560997
-0.392632752654285 0.00762949132834828 2.34825065866276
-0.398658388279961 0.0439063940082538 2.31791924515697
0.142675998812718 -0.0165169197017472 2.40671565911777
0.167037085624475 -0.0219325038224426 2.36589698334329
-0.374970047674908 0.0512642460333473 2.363883973623
-0.340296192030089 0.0481700304138078 2.40534270527777
-0.346816406629691 0.0886753651714346 2.37607741972051
0.0423004028686321 0.0346847814586864 2.46784643541864
0.0888115322166714 0.0332907144177289 2.44635445726735
0.127749873745593 0.0296697186194885 2.41451553937735
-0.310141727527274 0.0859566631159121 2.40969195275115
-0.269376751972144 0.11238799104989 2.41201610520661
-0.217087847978036 0.0968863202311682 2.4323565874753
-0.16803612486649 0.0985972476187914 2.43495258136251
-0.120714168371144 0.0972034342001822 2.43927443416041
-0.0733963908454927 0.0937641627134201 2.44493228389978
-0.0274106631720299 0.0940322815776438 2.44794684383728
0.0263617700651867 0.104135447529359 2.4349885519552
0.0597701185964692 0.0722859175946272 2.44473360158817
-0.315880282657467 -0.23050018974624 1.97056989944183
-0.284860133788685 -0.269657041673267 1.98160647827421
-0.236326587083452 -0.268054246394656 1.96138821997865
-0.199368890988377 -0.29573796435081 1.98587380211321
-0.155574597549932 -0.284590860929492 1.976212031233
-0.115443146761987 -0.292344583902501 1.98573345191022
-0.0685453874426896 -0.301193928165613 1.99672134210543
-0.0123949406219449 -0.302738969700875 2.0006944060975
0.0350197925277516 -0.312053518905408 2.01851472751602
0.0805155130812065 -0.288861889217834 2.01677610025395
0.118495177469116 -0.283501109335947 2.04884977572216
-0.378910845859806 -0.179771050301188 2.01927433336278
-0.351449468198011 -0.218503197158411 1.99972221972392
0.151609187341467 -0.247320196303965 2.05765548968219
0.171824142685306 -0.237797297030924 2.10554436191659
-0.397816371642897 -0.156079409257545 2.05804084778598
0.18882763207646 -0.18965527918944 2.11776523261696
-0.402759654414685 -0.114080336270343 2.08548261485105
0.187767009787483 -0.185069946508786 2.16734546245273
-0.406515778508063 -0.0884993379506001 2.13208555138686
0.18885431090958 -0.141789967181673 2.18753384452546
-0.405228569618549 -0.0441932687581816 2.1503093295624
0.188934453845387 -0.101573080999699 2.21279802454255
-0.410058780444405 -0.0264000556549087 2.20057548505334
0.186132862887301 -0.0686605523689748 2.25647669300022
-0.408470309184675 0.0196262863902034 2.21742529223335
0.183209028965795 -0.0454702886954573 2.29486291809403
-0.409890762870178 0.0322858173260234 2.26827842186971
0.178730571218528 -0.000357983717746079 2.32831138602312
-0.394399050056885 0.0779119670261557 2.28538450700487
0.157608307939281 0.0215766552258246 2.37494351291411
-0.375676416750658 0.0868761662084813 2.332667647331
-0.342437381547827 0.123972462544889 2.3434367764465
0.102148618346362 0.0715862357280525 2.41715119005049
0.137441628498662 0.0654025642987446 2.38125773497795
-0.308611029027907 0.123218623929578 2.38052815479161
-0.264766520949086 0.149004537590342 2.37836651212786
-0.229411280223853 0.131324849931293 2.40547976635046
-0.184467355116788 0.134637638525304 2.40463348406778
-0.140352057652558 0.134663918592326 2.4065727738864
-0.093683478037594 0.130535196362277 2.41277068357183
-0.0503894893962749 0.129988030130319 2.4152458140007
-0.00780642828774648 0.127771669338483 2.41879490465434
0.0696821861346011 0.10866628448802 2.4117256242369
-0.312016587845461 -0.197285236917733 1.94032369510145
-0.273969620871553 -0.236541444424195 1.94660531633294
-0.226983221395433 -0.23514727158866 1.92830318671983
-0.187657277832909 -0.260622964796074 1.95087648967972
-0.133710236817113 -0.252387051208226 1.94506565522901
-0.0879762203089231 -0.264568069659946 1.95925305941397
-0.0424671038180289 -0.276075408408769 1.97275874177874
0.0010844362381171 -0.265136644400124 1.96378930931615
0.0384947706308388 -0.281336016957194 1.98664764859051
0.0853812596220351 -0.25594223084551 1.98289034051258
0.122006996580954 -0.253380909745029 2.01562526332349
-0.373432163610829 -0.143640486062668 1.98749137540382
-0.349484417743741 -0.185411237653562 1.97344859329281
0.15800184735327 -0.215020284895634 2.02531810810935
0.178096656266743 -0.205053615717156 2.07133341366324
-0.392537688558859 -0.12477032205732 2.03098334308604
0.19557202869408 -0.156901675139079 2.08778240521565
-0.395558593618703 -0.0784619321460389 2.05068022612484
0.194741946162486 -0.143621037239964 2.13913154900582
-0.399877866358923 -0.0608204884219144 2.09668600905834
0.195624050714264 -0.096562834115919 2.16238281147253
-0.398655997971643 -0.0143247443624796 2.11684772959513
0.193283746135059 -0.0574345703354155 2.20635358337842
-0.403212386462951 0.00462835347565811 2.16559634110617
0.19166810051684 -0.0248583777603332 2.24029882141776
-0.401758967100798 0.0519127611007341 2.18440430098234
0.188147995955335 -0.00379840889379435 2.28183436173225
-0.403155155376562 0.0660346700978219 2.23565062344138
0.185002477429818 0.0398078817605335 2.29543972073434
-0.387574606071819 0.11128429986895 2.25255698171093
0.166807529870128 0.0501828955606302 2.33991300783962
-0.36903738538154 0.120343936368518 2.29978316696419
-0.334837300978145 0.157990291410879 2.31075664101871
0.109484303207809 0.106823866119716 2.38257662960506
0.145479660227475 0.0975450688179134 2.34737121719932
-0.30173541523037 0.156999090258986 2.3473599159708
-0.252824071511305 0.181473817139019 2.34833995308398
-0.212878089064598 0.163762851138938 2.37431744275699
-0.161827445524607 0.169630247733264 2.37074039923507
-0.109252872398248 0.162915522820683 2.37978076222168
-0.0608599455112306 0.163896209821409 2.38095944509436
-0.0148139561820282 0.161446425104902 2.38545466861914
0.0327215371925594 0.140800754849229 2.39946549155459
0.0741824109404662 0.144552481894182 2.37792636895779
-0.30593747626386 -0.16481618168744 1.90871475553002
-0.268494459975291 -0.203129680313576 1.91428842723178
-0.220484323382673 -0.20360891058548 1.89711623483522
-0.176001707170434 -0.229520295792517 1.92037285811908
-0.128562738489737 -0.215848486454113 1.90885148797807
-0.0867339329455249 -0.229957804336797 1.92478872147796
-0.0423104298985996 -0.243202103553359 1.93997779351353
0.00424431228375589 -0.230023804183566 1.9289083143002
0.0471301705214427 -0.246586956307344 1.9528178971477
0.0929222312587155 -0.222088659767197 1.94990438894195
0.12864227378569 -0.221537609045403 1.98434943794718
-0.366393378058772 -0.109678726404849 1.95366028161576
-0.343597361751652 -0.153813387770431 1.94297612892727
0.164881011149359 -0.182459100423513 1.99370150975913
0.185225396003082 -0.171547584814753 2.03964823635683
-0.38562098147548 -0.0938132140859606 1.99819034808448
0.202223283120602 -0.124405849033103 2.05701139695717
-0.388713557180732 -0.047890020692168 2.01548396002715
0.201233308887121 -0.109862537297219 2.10882764825702
-0.392995778828286 -0.0251017952905127 2.0645086188409
0.20309144628337 -0.0636401743524888 2.12370458823883
-0.392609342267514 0.0209762588741087 2.09109126694425
0.199073318854514 -0.0461277489208366 2.16720900838743
-0.396525189264091 0.0387379143391531 2.13394350222365
0.198992140889734 -0.00201606495420274 2.19628301553756
-0.394849328550122 0.0841022441072031 2.14973223125935
0.195210964506109 0.0239483534253519 2.2433313310586
-0.396642266713894 0.0981498434068945 2.2022097261658
0.192684145105717 0.070131069740065 2.26010400283482
-0.380868777416394 0.143933425458591 2.22059043009403
0.17293667942012 0.0863321256575357 2.30683003531303
-0.361767907485714 0.153863027313725 2.26772718484963
-0.325968933867906 0.191502423618729 2.28042165828126
0.115485316055014 0.140828484219093 2.34984233797193
0.151470815412313 0.132094596506166 2.31470697102602
-0.291379830733022 0.190234055980866 2.31735036707076
-0.242721608910802 0.21401046702543 2.3173990490963
-0.201644564127341 0.195406307850675 2.34325624769279
-0.156570772546623 0.208401062780198 2.33230498334297
-0.119659604151965 0.192673451186339 2.34963621660243
-0.0719327129974153 0.19533150558621 2.34911204627788
-0.0215571439439935 0.195406238785507 2.35128258687709
0.0282435653409317 0.175356042037255 2.36829108460837
0.0760564497447979 0.177857056669676 2.34778659242273
-0.299147132382988 -0.13233170613827 1.87644717809887
-0.262337791664777 -0.170085631965659 1.88193538896496
-0.215994710988984 -0.171063081438397 1.86539928555438
-0.17211004303175 -0.197123107104359 1.88823391488294
-0.122156897051814 -0.181325238801106 1.87470273560025
-0.0803312312610015 -0.194658289366654 1.88986516577394
-0.0386103573442834 -0.209349800450818 1.90637860656286
0.00789220473583528 -0.195219297389816 1.8943567559055
0.0510944018173436 -0.213639630995656 1.91936493043265
0.0966917799695098 -0.190324767923915 1.91657832737618
0.135415624547931 -0.189225283190756 1.95266597413221
-0.360816259139321 -0.0748975931246799 1.92251272849669
-0.336864789868439 -0.12186823389511 1.91108407982849
0.171401869737519 -0.150071441559309 1.96152925392326
0.191976015703867 -0.13865171388984 2.00738602868676
-0.379091981966483 -0.0589502255410781 1.96576523320217
0.208683748622162 -0.0924679259249364 2.02390486202764
-0.381203213103235 -0.010159917057875 1.97956468946686
0.208260862179177 -0.0767115117829343 2.07382277510944
-0.385935521116368 -0.00115508521289898 2.02331929246258
0.209545206986479 -0.0273250697682994 2.09534322521047
-0.38700260770085 0.030817445455636 2.05247172409136
0.205021988215564 -0.0102411172804925 2.14262927512315
-0.389021391539223 0.071993359642822 2.09519332298072
0.206134883183062 0.0348171804012191 2.16273324875569
-0.388367727058365 0.115827559907319 2.11819155245428
0.201734052461461 0.0517172335311099 2.2089149870314
-0.390128219058276 0.13014703943881 2.17060007355405
0.199796180511444 0.100498630465184 2.22663169796954
-0.373302922451318 0.177335841052976 2.19135394695896
0.180453098000791 0.118054308199774 2.27320495616848
-0.353882793290473 0.187147687719738 2.23744619548693
-0.31833528930879 0.224317992135403 2.24925307057388
0.12079091370305 0.174117545637852 2.31831813944992
0.158348911089471 0.16455572453294 2.2822432826175
-0.282800847752332 0.222945129537966 2.2864716501486
-0.235969669504592 0.247190631795316 2.28460576584961
-0.194271010855128 0.230451767649129 2.30863091868848
-0.143516373203017 0.242553062862218 2.2988227495439
-0.104318872249436 0.225434746850309 2.31764363063142
-0.0560136324530947 0.227871307216484 2.31736584870264
-0.00793280128592111 0.228468323820712 2.3189129800636
0.0320450741413645 0.206527648437004 2.3380208537817
0.0837002238261697 0.208717352931087 2.31653370880456
-0.299838272697058 -0.0973555444863386 1.84954483641336
-0.255364100927031 -0.136253074829688 1.84845114150237
-0.207467039773508 -0.139478147442766 1.83376882014313
-0.166501754634914 -0.166260037532632 1.85770081618876
-0.116410024247143 -0.148318726965553 1.84209038544856
-0.0729701571963096 -0.159123151629865 1.85475080835932
-0.0333373411433085 -0.173367655321188 1.87072397167461
0.0103788587348989 -0.159973552693468 1.85932464015882
0.0544209604221 -0.180999578607845 1.88611209090021
0.10133435923264 -0.158123022880068 1.88343377126335
0.138275602670733 -0.159659529760881 1.91946580879737
-0.354862926566953 -0.0395189342490763 1.89120381103781
-0.333565476663762 -0.0875554460076697 1.88240091278283
0.172438574323743 -0.123396057535586 1.92588737130199
0.198442404900853 -0.105828608692348 1.97394307202997
-0.372379591780765 -0.0228680780384637 1.93241990731391
0.216181975158116 -0.0560069863343884 2.00181001647511
-0.374376877496201 0.0262222215366671 1.95188021888374
0.214632758660737 -0.0403087452553501 2.04617974809779
-0.379564594284105 0.0427754624913036 2.00052938935382
0.216243962430366 0.00764238465006388 2.06297111791109
-0.382906168513676 0.0720643467433223 2.04619774559684
0.21179191709783 0.0237049069099357 2.11020688232756
-0.381555670610472 0.115729241440039 2.06349416905772
0.213066003567455 0.0690683725888709 2.1287831338672
-0.382450036339256 0.152554032838651 2.09446932016941
0.208578827039281 0.086313940500901 2.1763108910644
-0.383160825565896 0.163745045363523 2.14352675021159
0.20628533673957 0.133379299418357 2.19482008740612
-0.366427812152938 0.210221601722398 2.15971031416216
0.187379576305733 0.149792621080474 2.24082446863698
-0.346433215780152 0.220441924176013 2.20608789925273
-0.311687395519435 0.257001712121599 2.2169434143388
0.128091237127161 0.206644187276414 2.28553873012608
0.165207253680935 0.197075286478033 2.24969837664441
-0.276440177911694 0.255499678043842 2.25409845548454
-0.229876463727503 0.279932924081893 2.25199499751799
-0.186513937407416 0.263711037353762 2.27580350381552
-0.137710139049766 0.274572075986253 2.26711742007833
-0.0903357986151956 0.259960338899021 2.28383062182674
-0.0403270245346323 0.260286115206989 2.28573418526312
0.00617704920105486 0.260163985020122 2.28792832272537
0.0449217765511262 0.237156007523936 2.30625466396151
0.091282437659268 0.241280319271954 2.28381483305259
-0.262460147224803 -0.0997797381770603 1.82423243678135
-0.220940166559348 -0.104719503916908 1.8109951572657
-0.174480087731847 -0.102936048340052 1.8047982634835
-0.160074900342174 -0.135553638745153 1.82828741260461
-0.122436111771091 -0.109171396028649 1.81219439864983
-0.0758681351030919 -0.121028470969535 1.82297895519588
-0.0291726199108739 -0.132150553950883 1.83379350747923
0.0188746629812973 -0.122138332924509 1.83076422690479
0.0579273701230976 -0.148999205696169 1.85503637165636
0.102668719404375 -0.123426545465648 1.85366596652463
0.142895621950741 -0.125999299732517 1.88678306931167
-0.342000166901152 -0.00412538946234689 1.8640405773163
-0.325862328949935 -0.0518397048804917 1.85223690515726
0.19193226448271 -0.0861432576555874 1.92677200178246
0.209824616004603 -0.0617867056830701 1.95893994019989
-0.362138139848629 0.0145678671199886 1.90244940365757
0.215796402936319 -0.0179511276154827 1.96734035669686
-0.358756952780033 0.0599643855510203 1.92120631394013
0.218640391738803 -0.00384570886523215 2.01201628796384
-0.368421091936972 0.0760256505590112 1.96527342227161
0.215606855684069 0.0407202710166426 2.02851352637434
-0.375290111450572 0.0958586814501299 2.01008093475104
0.215855428399964 0.0584969338932233 2.07525330499574
-0.36877108851431 0.142093248494629 2.02253675143097
0.213191698303655 0.102133893397793 2.09503894403446
-0.371589227587624 0.17124718736115 2.05689025414512
0.213076170803876 0.120115642548364 2.14146434604545
-0.375437098371032 0.19563841421375 2.11025250776187
0.207573519192192 0.162935116517046 2.16139821135768
-0.357207374993592 0.237274047339589 2.12305100649386
0.192165099334611 0.182354168022343 2.20851095263991
-0.339783813504376 0.25158201486907 2.17184535933521
-0.303869498306521 0.284417946496607 2.18207883044822
0.133661407454792 0.239124260410582 2.25136077704635
0.165583771484103 0.228798859228263 2.21499566493041
-0.26856635944078 0.287282680635913 2.221078678942
-0.219671258194303 0.308962866008849 2.21461969502098
-0.182664278551137 0.295971764865716 2.24063646895203
-0.140717030639604 0.303456175920562 2.22968494482018
-0.0967639042615677 0.293940034964964 2.24449739002378
-0.0521856045160596 0.289480014243206 2.25133778891282
-0.00213117042504915 0.288376651009997 2.25324250789584
0.0495195899774294 0.270974387030138 2.27134145778861
0.0949670418234706 0.27013613983979 2.24890503669813
-0.287339507250515 -0.0589628918904702 1.82027397522061
-0.241895828878956 -0.0618335718211249 1.79822724236065
-0.194215943397535 -0.0644038041595926 1.78890374670694
-0.142418854765645 -0.0688292611576339 1.79232706872197
-0.0920152032339375 -0.0756301745031976 1.79953540278306
-0.0460340094392883 -0.0856849053229299 1.80757300182517
-0.0019342882533528 -0.0855466467094074 1.81170881188833
0.0452126612508168 -0.0757676474030482 1.81335857217925
0.0651880250341482 -0.110094747373362 1.83081505439508
0.0976323975768893 -0.0749923521609884 1.82805497438498
0.133837451206912 -0.0911846198283788 1.85577336065538
-0.306823841223759 -0.0164273100422153 1.8262718457135
-0.281099725221598 0.024197334779898 1.81020919353571
-0.264228645101022 -0.019887232363183 1.7992068211837
0.14454541344212 -0.0505111968266971 1.85093532075314
0.170175071004715 -0.0824371628481155 1.88794216653637
0.174079683743735 -0.0355324795177756 1.87827743798152
-0.338336784444441 0.0505875875761855 1.87284750876584
-0.318704069384987 0.0261684932012996 1.84018218466972
0.198050909762678 -0.0396999609633303 1.91639363937345
0.203795092739366 0.00327081220401792 1.93105734318015
-0.3347378316929 0.0896753557283926 1.8971034075942
0.20980454066388 0.0315059648825681 1.97287710819457
-0.34450628450858 0.11189714317781 1.93529293241633
0.205140994723223 0.0703229018185618 1.99830749576862
-0.356991118724123 0.124940816870398 1.97427924011804
0.207848366446082 0.0935239709474621 2.03931464059279
-0.345551151708206 0.164863974724934 1.9858551338458
0.203322703176003 0.132192169512686 2.06443468921309
-0.349187658276908 0.195243011392748 2.02073425621308
0.20582639397381 0.155200465677073 2.10523639629749
-0.362666398615795 0.213530330692751 2.07240983226885
0.198613600577238 0.192393602673902 2.12973732372388
-0.328396440757771 0.274535756391808 2.13300060070503
-0.340354661649597 0.25644936204842 2.08533413658446
-0.309096540418598 0.289397054051611 2.08984999959954
0.189188404343786 0.210229775954791 2.17307530387588
0.176296363768506 0.233864747807325 2.12817407564841
0.163054065367808 0.249161031290647 2.17263532062271
-0.260387540081945 0.310227575966366 2.18298779556854
-0.294133836635235 0.301942669239197 2.14197989176379
-0.252036985382111 0.323170881168978 2.13986521239409
0.130426944999731 0.267963079051523 2.2107554322501
0.0985635213599203 0.298458773501712 2.17308670677457
0.0860366485926641 0.293651127814662 2.212210692239
-0.212954953576478 0.326604111215802 2.17363090550691
-0.16911298858367 0.321552344547752 2.19381868626907
-0.116240057434703 0.318746929370328 2.19654090602487
-0.0718622434785937 0.313811100726137 2.20575963148299
-0.0281071781018864 0.31032561377954 2.21113720943455
0.0146208140288105 0.308976743307751 2.21076708657737
0.0475624393422568 0.295403226795997 2.23487765314503
-0.215353408041274 -0.0216749814695353 1.7834525697738
-0.164110073366211 -0.0263416827906283 1.78100214385997
-0.113414110436644 -0.030670062988227 1.78717023185455
-0.0656235786063508 -0.035748627238983 1.79327023157002
-0.0208589580592557 -0.0395407925668878 1.79887497406191
0.0232513089084956 -0.035632758681664 1.80363852307348
0.0718305838653749 -0.0343778001237013 1.81153062828576
-0.23684527875081 0.020310685978865 1.78978425219769
-0.209191576665817 0.0576480153524075 1.79206926910049
-0.185441033883143 0.0173199642784917 1.78079457065184
-0.134699494063326 0.0135678068477932 1.7843653592663
-0.0870660108457008 0.0122455643380804 1.79058025768074
-0.0398613508814852 0.00857945561921819 1.796481188245
0.00490710835451433 0.00986788144706534 1.80269727660673
0.051808800019241 0.00890043014484956 1.80904955887098
0.0999213111202382 0.0103226282545621 1.8238094948496
0.146818143039834 0.00230944840808815 1.85186201496194
0.115335945322071 -0.0300772751750331 1.82887306397652
-0.298740617417229 0.0656479010645496 1.83614549279416
-0.266325352407985 0.103837505721614 1.83667402048279
-0.256074703862163 0.0643124043921251 1.80869168077926
0.123280287707016 0.044809843290047 1.84657669120565
0.180631771219934 0.00689896291025885 1.88937329514448
0.159257615333388 0.0467700335379171 1.87854098827373
-0.306313548649079 0.0981592392427386 1.86553941332921
-0.272598214320294 0.136509853864146 1.87111535981915
0.189407212822999 0.0445035328460735 1.92217774245903
0.162006370980357 0.083293273619182 1.91089568439902
-0.310675649133325 0.132742256570432 1.90344793928154
-0.279386852879945 0.168707348171486 1.90745880753445
0.188607571485947 0.0764934198090751 1.95375760870046
0.160314604338836 0.117211449504303 1.94463764089618
-0.32163475256362 0.159194540006347 1.94234380737868
-0.284028042423903 0.198459038307673 1.93994867176405
0.18744104307337 0.110845928613787 1.98909704844255
0.159510909962996 0.150160874509648 1.97867506208474
-0.318183457768205 0.198972490513346 1.9754145452552
-0.281824232160776 0.233821082526084 1.97237284951799
0.186953112775864 0.140783148878916 2.0212127025667
0.15906298134946 0.182441448727068 2.01254946380862
-0.315119912843464 0.235193813683575 2.00600844926061
-0.28095424036287 0.271164759192535 2.00940649298313
0.186124575751306 0.174593875867756 2.05683036036287
0.158071899300275 0.214895841282269 2.04579303946234
-0.33880658417085 0.236425124995459 2.04231018040227
-0.309164506000814 0.27308993352129 2.04545158112896
0.184624576258132 0.204952086544715 2.08839401084905
0.155031819933015 0.244836945815756 2.08095687403361
-0.27567814444057 0.312710160336918 2.09995925014475
-0.270530829648961 0.30290984833291 2.05221055192102
-0.237909405848971 0.325284229270098 2.08542682702735
0.132906666393803 0.278828653546302 2.16351549004326
0.146634233396291 0.266693073137772 2.12211718735655
0.107004977076273 0.294627857934066 2.12122478223159
-0.213454923364336 0.333633681960746 2.12513362894056
-0.187740988788101 0.333209744317788 2.08941843720814
-0.17299561743884 0.334045955298708 2.14385446374358
-0.143882292479726 0.331983126739316 2.10306979880491
-0.130612516908389 0.330105293265993 2.1533826447961
-0.0998254440686891 0.328442694928552 2.1085561612319
-0.0838655589192149 0.3267069556092 2.15647961217224
-0.0550240324691667 0.324643325047577 2.11230447367855
-0.0396341294200574 0.323046944426298 2.16284003421815
-0.0115053553379793 0.320981534051722 2.11631594640738
0.00484376268978023 0.319864420230672 2.16513315920599
0.0326416526911922 0.317736968781262 2.12451088193354
0.0504153871306791 0.313154506076086 2.18050555098007
0.0702682736128993 0.311258247553488 2.1374540312515
-0.178111549974583 0.0909489076182425 1.80413935754969
-0.155915609145464 0.0558084647829833 1.79034567765445
-0.110200362454461 0.0580601476785548 1.79797446426299
-0.061530053763638 0.0536759534117172 1.80387367552981
-0.0166424003995088 0.0553378211250001 1.81142606622186
0.0287151666536795 0.054382323253394 1.81814602402179
0.0746745052877478 0.0502249871946947 1.82571021057515
-0.223109787575348 0.100095430462268 1.81542099615801
-0.180302998722015 0.127152451375506 1.82965930270643
-0.134497227494504 0.100986068920859 1.8152134918088
-0.0836383491491888 0.093749084099596 1.81955508761602
-0.0393369954023496 0.0969850003769126 1.82949984322104
0.00515845135377484 0.0968429103532987 1.83743545116234
0.0502969721171848 0.0937987441774429 1.84349095622674
0.0936046462112159 0.0839093918917325 1.85110705752165
0.128185885162414 0.0871994039758512 1.87619096802393
-0.227804561209632 0.135621877276592 1.84622833162007
-0.187749937187833 0.160706895383904 1.86297686976607
-0.141986122227113 0.143603992862421 1.85024390771548
-0.102922272087966 0.127063896963765 1.84169741662443
-0.0601408179084155 0.132425502424246 1.85579180483993
-0.0164650773916994 0.133048282431352 1.86541907986349
0.0315946292834615 0.129169300775227 1.87139393765334
0.0813420643272425 0.121191538543439 1.87789228254553
0.126002958757405 0.119812757328425 1.9069238590108
-0.234457986800574 0.168025463490924 1.8806681502804
-0.189234787969816 0.192932484565775 1.89528801877128
-0.14331208080738 0.177512738980739 1.88427987873919
-0.096854649268273 0.160556891629278 1.87669324118471
-0.0499189908769761 0.167414649001554 1.89329972968163
0.000218567697206684 0.163289164562711 1.89945319280131
0.0479651583376613 0.158972737896304 1.90493297765533
0.0899656769303619 0.151055559527799 1.91294669250086
0.12506769867722 0.15452782242351 1.94230035134719
-0.237746310308297 0.199411651806215 1.91289329165395
-0.19156680960001 0.223596865661678 1.92609046374114
-0.142714844858761 0.211695661347038 1.91898915444067
-0.100302916765782 0.193431660720176 1.90924523297455
-0.0624227549324553 0.202263188585296 1.9259837143886
-0.0177756198255993 0.196183752619276 1.92902904147862
0.0301808206902193 0.192417505696422 1.93509632210249
0.0791490242251496 0.185938979653666 1.94313976961429
0.124229161917294 0.185697590738949 1.9740688536138
-0.240776355939424 0.229931594072533 1.94418515047592
-0.19771622325885 0.253951789832239 1.9569119746751
-0.147795914012346 0.243969569401788 1.95059655014374
-0.0986790214516794 0.231535447810863 1.9481339469589
-0.0471673805219562 0.23167889514532 1.9588891984478
0.000942293686684303 0.2268559797872 1.96391948521764
0.0472996005122827 0.223267429493075 1.96989740506186
0.088700671727002 0.21606423679523 1.97904991194421
0.123649915816143 0.219853763750594 2.00920790188141
-0.2452111416283 0.262794032726619 1.97841990957541
-0.20720303490784 0.28485009202348 1.98951501668708
-0.160271934874818 0.277804788637001 1.9823269321103
-0.113759876006945 0.267480218741867 1.98139648364209
-0.069160662913199 0.262902537917062 1.9859508567806
-0.0202276952402832 0.260603473129394 1.99370458019736
0.0285291904505927 0.256851497132921 1.99995083250164
0.0775402014844808 0.251068721572066 2.00906471160161
0.122270361567928 0.250448020877587 2.04079300036033
-0.240777986005149 0.29755152209867 2.01750918550593
-0.184156305338955 0.307229039194845 2.01802393048049
-0.135476697941726 0.300649216652079 2.01659780707865
-0.0908913274232707 0.295715565542291 2.02008242017897
-0.0460706442268416 0.29147880955334 2.02471367146728
0.000257677946290044 0.288377872937259 2.03142581320636
0.0452860766327953 0.285353324162057 2.03808897712717
0.0858854317590416 0.278559567133061 2.0482116472672
0.117643146948695 0.277746469299087 2.08159076485358
-0.215744215738462 0.319672816408957 2.04871016658462
-0.16157381694019 0.322918221056459 2.05447638455745
-0.115851254038605 0.319351692642575 2.06047918788452
-0.0708310912730007 0.315213502308125 2.06463606198827
-0.0251193272677164 0.311031233998932 2.06894429611783
0.0219755466907671 0.30778688937104 2.07629092308331
0.0688308165579766 0.302549695962568 2.08652738008138
3 0 1 2
3 0 2 4
3 3 0 4
3 3 4 6
3 5 3 6
3 5 6 8
3 7 5 8
3 7 8 10
3 9 7 10
3 9 10 12
3 11 9 12
3 13 11 14
3 14 11 12
3 13 14 15
3 16 17 18
3 16 18 1
3 0 19 1
3 19 16 1
3 0 3 20
3 19 0 20
3 3 5 21
3 20 3 21
3 5 7 22
3 21 5 22
3 7 9 23
3 22 7 23
3 9 11 24
3 23 9 24
3 24 11 25
3 25 11 13
3 13 15 26
3 27 13 26
3 25 13 27
3 27 26 28
3 17 16 30
3 30 16 29
3 29 19 31
3 29 16 19
3 31 20 32
3 31 19 20
3 32 21 33
3 32 20 21
3 21 22 33
3 33 22 34
3 22 23 34
3 34 23 35
3 23 24 35
3 35 24 36
3 24 25 36
3 36 25 37
3 37 27 38
3 37 25 27
3 38 28 39
3 38 27 28
3 30 40 41
3 30 29 40
3 29 31 42
3 40 29 42
3 31 32 43
3 42 31 43
3 32 33 44
3 43 32 44
3 33 34 45
3 44 33 45
3 34 35 46
3 45 34 46
3 35 36 47
3 46 35 47
3 36 37 47
3 47 37 48
3 37 38 48
3 48 38 49
3 49 39 50
3 49 38 39
3 40 51 52
3 41 40 52
3 51 42 53
3 51 40 42
3 42 43 53
3 53 43 54
3 43 44 54
3 54 44 55
3 44 45 55
3 55 45 56
3 45 46 56
3 56 46 57
3 46 47 58
3 57 46 58
3 47 48 59
3 58 47 59
3 48 49 60
3 59 48 60
3 49 50 61
3 60 49 61
3 51 62 63
3 52 51 63
3 51 53 64
3 62 51 64
3 53 54 65
3 64 53 65
3 54 55 66
3 65 54 66
3 55 56 67
3 66 55 67
3 56 57 67
3 67 57 68
3 57 58 69
3 68 57 69
3 58 59 69
3 69 59 70
3 59 60 70
3 70 60 71
3 71 61 72
3 71 60 61
3 62 73 74
3 63 62 74
3 62 64 75
3 73 62 75
3 64 65 75
3 75 65 76
3 65 66 76
3 76 66 77
3 66 67 77
3 77 67 78
3 67 68 78
3 78 68 79
3 79 69 80
3 79 68 69
3 80 70 81
3 80 69 70
3 81 71 82
3 81 70 71
3 82 72 83
3 82 71 72
3 74 73 85
3 85 73 84
3 84 73 86
3 86 73 75
3 75 76 86
3 86 76 87
3 76 77 88
3 87 76 88
3 77 78 89
3 88 77 89
3 78 79 90
3 89 78 90
3 79 80 91
3 90 79 91
3 80 81 92
3 91 80 92
3 81 82 93
3 92 81 93
3 93 83 94
3 93 82 83
3 84 95 85
3 84 86 96
3 97 84 96
3 95 84 97
3 96 87 98
3 96 86 87
3 87 88 98
3 98 88 99
3 88 89 99
3 99 89 100
3 89 90 100
3 100 90 101
3 101 91 102
3 101 90 91
3 102 92 103
3 102 91 92
3 92 93 103
3 105 103 104
3 103 93 104
3 93 94 104
3 96 106 97
3 96 98 107
3 106 96 107
3 98 99 108
3 107 98 108
3 99 100 109
3 108 99 109
3 100 101 110
3 109 100 110
3 101 102 111
3 110 101 111
3 111 102 112
3 112 102 103
3 103 105 112
3 117 114 115
3 116 113 117
3 117 113 114
3 116 117 119
3 118 116 119
3 118 119 121
3 120 118 121
3 120 121 123
3 122 120 123
3 122 123 125
3 124 122 125
3 124 125 127
3 126 124 127
3 126 127 128
3 129 130 131
3 114 129 131
3 114 113 129
3 113 2 129
3 129 2 1
3 4 113 116
3 4 2 113
3 6 116 118
3 6 4 116
3 8 118 120
3 8 6 118
3 10 120 122
3 10 8 120
3 12 122 124
3 12 10 122
3 14 124 126
3 14 12 124
3 133 126 128
3 15 14 126
3 15 126 133
3 132 15 133
3 132 133 134
3 135 136 137
3 137 17 135
3 137 18 17
3 18 137 130
3 129 18 130
3 18 129 1
3 15 132 26
3 139 132 134
3 139 138 132
3 138 28 26
3 132 138 26
3 138 139 140
3 136 135 142
3 142 135 141
3 17 30 135
3 135 30 141
3 143 39 28
3 138 143 28
3 143 140 144
3 143 138 140
3 141 145 146
3 142 141 146
3 41 145 141
3 30 41 141
3 147 39 143
3 147 50 39
3 147 144 148
3 147 143 144
3 145 149 150
3 146 145 150
3 52 149 145
3 41 52 145
3 151 50 147
3 151 155 50
3 151 148 152
3 151 147 148
3 149 153 154
3 150 149 154
3 63 153 149
3 52 63 149
3 155 61 50
3 155 72 61
3 155 151 156
3 156 151 152
3 154 157 158
3 154 153 157
3 74 157 153
3 63 74 153
3 159 72 155
3 159 83 72
3 159 156 160
3 159 155 156
3 158 157 162
3 162 157 161
3 74 85 161
3 157 74 161
3 163 83 159
3 163 94 83
3 163 160 164
3 163 159 160
3 161 165 162
3 165 95 166
3 165 161 95
3 161 85 95
3 165 166 167
3 95 97 166
3 105 104 168
3 170 94 163
3 170 168 94
3 169 168 170
3 94 168 104
3 163 164 170
3 166 171 167
3 173 171 172
3 172 171 106
3 171 97 106
3 171 166 97
3 172 107 174
3 172 106 107
3 174 108 175
3 174 107 108
3 175 109 176
3 175 108 109
3 176 110 177
3 176 109 110
3 177 111 178
3 177 110 111
3 178 112 180
3 178 111 112
3 181 105 168
3 181 180 105
3 179 178 180
3 180 112 105
3 168 169 181
3 172 182 173
3 182 172 183
3 183 172 174
3 174 175 184
3 183 174 184
3 175 176 185
3 184 175 185
3 176 177 186
3 185 176 186
3 177 178 187
3 186 177 187
3 187 179 188
3 187 178 179
3 179 180 229
3 189 190 191
3 114 131 191
3 115 114 191
3 115 191 192
3 115 192 193
3 117 115 193
3 119 193 194
3 119 117 193
3 119 194 121
3 121 194 195
3 121 195 123
3 123 195 196
3 123 196 125
3 125 196 197
3 127 197 198
3 127 125 197
3 128 198 199
3 200 128 199
3 128 127 198
3 200 199 201
3 202 203 204
3 131 130 189
3 190 189 204
3 189 130 202
3 189 202 204
3 131 189 191
3 128 200 133
3 134 200 205
3 206 205 201
3 134 133 200
3 205 200 201
3 205 206 207
3 136 208 203
3 202 137 136
3 202 136 203
3 137 202 130
3 134 205 139
3 139 205 207
3 140 139 207
3 211 207 209
3 136 142 208
3 208 142 210
3 211 140 207
3 211 144 140
3 146 212 210
3 142 146 210
3 148 144 213
3 213 144 211
3 150 214 212
3 146 150 212
3 215 148 213
3 215 152 148
3 154 216 150
3 150 216 214
3 219 152 217
3 217 152 215
3 158 218 216
3 154 158 216
3 219 156 152
3 219 160 156
3 158 220 218
3 158 162 220
3 221 160 219
3 221 164 160
3 162 165 222
3 223 220 222
3 220 162 222
3 165 167 222
3 169 170 224
3 225 164 221
3 224 170 164
3 224 164 225
3 222 226 223
3 167 171 227
3 226 167 227
3 226 227 228
3 226 222 167
3 171 173 227
3 180 181 229
3 181 169 230
3 231 169 224
3 230 169 231
3 230 229 181
3 224 225 271
3 227 232 228
3 232 182 233
3 232 173 182
3 227 173 232
3 182 183 234
3 233 182 234
3 183 184 234
3 234 184 235
3 184 185 235
3 235 185 236
3 185 186 236
3 236 186 237
3 186 187 237
3 237 187 238
3 238 188 239
3 238 187 188
3 188 179 229
3 240 239 188
3 240 188 229
3 229 230 240
3 191 190 242
3 242 190 241
3 192 242 243
3 192 191 242
3 192 243 244
3 193 192 244
3 194 244 245
3 194 193 244
3 194 245 246
3 195 194 246
3 195 246 247
3 196 195 247
3 196 247 248
3 197 196 248
3 197 248 249
3 198 197 249
3 199 198 249
3 250 199 249
3 201 199 251
3 251 199 250
3 204 252 253
3 204 203 252
3 190 253 241
3 190 204 253
3 206 251 254
3 206 201 251
3 207 206 255
3 255 206 254
3 203 256 252
3 203 208 256
3 257 209 255
3 255 209 207
3 210 258 208
3 208 258 256
3 211 209 259
3 259 209 257
3 212 260 210
3 210 260 258
3 213 211 259
3 261 213 259
3 214 262 260
3 212 214 260
3 215 213 261
3 263 215 261
3 216 264 214
3 214 264 262
3 217 215 263
3 265 217 263
3 218 266 264
3 216 218 264
3 219 217 265
3 267 219 265
3 218 268 266
3 218 220 268
3 221 219 267
3 269 221 267
3 223 270 268
3 220 223 268
3 225 221 269
3 271 225 269
3 223 226 272
3 270 223 272
3 272 228 273
3 272 226 228
3 274 231 275
3 274 230 231
3 275 231 271
3 271 231 224
3 273 228 276
3 276 228 232
3 276 233 277
3 276 232 233
3 233 234 278
3 277 233 278
3 234 235 279
3 278 234 279
3 235 236 280
3 279 235 280
3 236 237 281
3 280 236 281
3 237 238 282
3 281 237 282
3 238 239 283
3 282 238 283
3 327 239 284
3 284 239 240
3 240 230 274
3 284 240 274
3 241 285 286
3 242 241 286
3 242 286 243
3 243 286 287
3 243 287 288
3 244 243 288
3 245 288 289
3 245 244 288
3 245 289 246
3 246 289 290
3 246 290 247
3 247 290 291
3 247 291 248
3 248 291 292
3 248 292 293
3 249 248 293
3 249 293 250
3 250 293 294
3 250 294 295
3 251 250 295
3 252 296 297
3 253 252 297
3 241 297 285
3 241 253 297
3 254 295 298
3 254 251 295
3 254 298 299
3 255 254 299
3 256 300 252
3 252 300 296
3 257 255 299
3 301 257 299
3 258 302 300
3 256 258 300
3 259 257 303
3 303 257 301
3 260 304 258
3 258 304 302
3 261 259 303
3 305 261 303
3 262 306 304
3 260 262 304
3 263 261 305
3 307 263 305
3 264 308 262
3 262 308 306
3 265 263 307
3 309 265 307
3 266 310 308
3 264 266 308
3 267 265 309
3 311 267 309
3 266 312 310
3 266 268 312
3 269 267 311
3 313 269 311
3 270 314 312
3 268 270 312
3 271 269 315
3 315 269 313
3 270 272 316
3 314 270 316
3 316 273 317
3 316 272 273
3 318 275 319
3 318 274 275
3 275 271 315
3 319 275 315
3 273 276 320
3 317 273 320
3 276 277 320
3 320 277 321
3 277 278 322
3 321 277 322
3 322 279 323
3 322 278 279
3 279 280 323
3 323 280 324
3 280 281 324
3 324 281 325
3 281 282 325
3 325 282 326
3 282 283 326
3 326 283 327
3 283 239 327
3 327 284 328
3 284 274 318
3 328 284 318
3 285 329 330
3 286 285 330
3 286 330 287
3 287 330 331
3 287 331 332
3 288 287 332
3 288 332 289
3 289 332 333
3 289 333 334
3 290 289 334
3 290 334 335
3 291 290 335
3 291 335 292
3 292 335 336
3 292 336 337
3 293 292 337
3 293 337 294
3 294 337 338
3 294 338 339
3 295 294 339
3 296 340 341
3 297 296 341
3 285 341 329
3 285 297 341
3 298 339 342
3 298 295 339
3 298 342 343
3 299 298 343
3 300 344 296
3 296 344 340
3 301 299 343
3 345 301 343
3 302 346 344
3 300 302 344
3 303 301 347
3 347 301 345
3 304 348 302
3 302 348 346
3 305 303 347
3 349 305 347
3 306 350 348
3 304 306 348
3 307 305 351
3 351 305 349
3 308 352 306
3 306 352 350
3 309 307 353
3 353 307 351
3 310 354 352
3 308 310 352
3 311 309 355
3 355 309 353
3 312 356 310
3 310 356 354
3 313 311 355
3 357 313 355
3 314 358 356
3 312 314 356
3 315 313 359
3 359 313 357
3 314 316 360
3 358 314 360
3 360 317 361
3 360 316 317
3 362 319 363
3 362 318 319
3 319 315 359
3 363 319 359
3 317 320 364
3 361 317 364
3 320 321 364
3 364 321 365
3 321 322 366
3 365 321 366
3 322 323 366
3 366 323 367
3 323 324 368
3 367 323 368
3 324 325 369
3 368 324 369
3 325 326 370
3 369 325 370
3 326 327 371
3 370 326 371
3 327 328 371
3 371 328 372
3 328 318 362
3 372 328 362
3 329 373 374
3 330 329 374
3 330 374 331
3 331 374 375
3 331 375 376
3 332 331 376
3 332 376 333
3 333 376 377
3 333 377 378
3 334 333 378
3 334 378 379
3 335 334 379
3 335 379 336
3 336 379 380
3 336 380 381
3 337 336 381
3 337 381 338
3 338 381 382
3 338 382 383
3 339 338 383
3 340 384 385
3 341 340 385
3 329 385 373
3 329 341 385
3 342 383 386
3 342 339 383
3 342 386 387
3 343 342 387
3 344 388 340
3 340 388 384
3 345 343 387
3 389 345 387
3 346 390 388
3 344 346 388
3 347 345 391
3 391 345 389
3 348 392 346
3 346 392 390
3 349 347 391
3 393 349 391
3 350 394 348
3 348 394 392
3 351 349 395
3 395 349 393
3 352 396 350
3 350 396 394
3 353 351 395
3 397 353 395
3 354 398 396
3 352 354 396
3 355 353 399
3 399 353 397
3 356 400 354
3 354 400 398
3 357 355 399
3 401 357 399
3 358 402 400
3 356 358 400
3 359 357 403
3 403 357 401
3 358 360 404
3 402 358 404
3 404 361 405
3 404 360 361
3 406 363 407
3 406 362 363
3 363 359 403
3 407 363 403
3 361 364 408
3 405 361 408
3 364 365 408
3 408 365 409
3 365 366 410
3 409 365 410
3 366 367 410
3 410 367 411
3 367 368 412
3 411 367 412
3 368 369 412
3 412 369 413
3 369 370 413
3 413 370 414
3 370 371 415
3 414 370 415
3 371 372 415
3 415 372 416
3 372 362 406
3 416 372 406
3 373 417 418
3 374 373 418
3 374 418 375
3 375 418 419
3 375 419 420
3 376 375 420
3 376 420 377
3 377 420 421
3 377 421 422
3 378 377 422
3 378 422 423
3 379 378 423
3 380 423 424
3 380 379 423
3 380 424 425
3 381 380 425
3 382 425 426
3 382 381 425
3 382 426 427
3 383 382 427
3 384 428 429
3 385 384 429
3 373 429 417
3 373 385 429
3 386 427 430
3 386 383 427
3 386 430 431
3 387 386 431
3 384 432 428
3 384 388 432
3 389 387 431
3 433 389 431
3 390 434 432
3 388 390 432
3 435 389 433
3 435 391 389
3 390 436 434
3 390 392 436
3 393 391 435
3 437 393 435
3 394 438 436
3 392 394 436
3 395 393 439
3 439 393 437
3 396 440 438
3 394 396 438
3 397 395 439
3 441 397 439
3 398 442 440
3 396 398 440
3 399 397 443
3 443 397 441
3 400 444 398
3 398 444 442
3 401 399 443
3 445 401 443
3 402 446 444
3 400 402 444
3 403 401 447
3 447 401 445
3 402 404 448
3 446 402 448
3 448 405 449
3 448 404 405
3 450 407 451
3 450 406 407
3 407 403 447
3 451 407 447
3 405 408 452
3 449 405 452
3 408 409 452
3 452 409 453
3 409 410 454
3 453 409 454
3 410 411 454
3 454 411 455
3 411 412 456
3 455 411 456
3 412 413 456
3 456 413 457
3 457 414 458
3 457 413 414
3 414 415 459
3 458 414 459
3 415 416 459
3 459 416 460
3 416 406 450
3 460 416 450
3 418 461 462
3 418 417 461
3 419 462 463
3 419 418 462
3 419 463 464
3 420 419 464
3 420 464 421
3 421 464 465
3 421 465 466
3 422 421 466
3 422 466 467
3 423 422 467
3 424 467 468
3 424 423 467
3 424 468 469
3 425 424 469
3 426 469 470
3 426 425 469
3 427 426 471
3 471 426 470
3 429 428 473
3 473 428 472
3 417 473 505
3 417 429 473
3 430 427 471
3 520 430 471
3 431 474 475
3 431 430 474
3 428 476 472
3 428 432 476
3 433 431 475
3 477 433 475
3 434 478 476
3 432 434 476
3 479 433 477
3 479 435 433
3 434 480 478
3 434 436 480
3 437 435 479
3 481 437 479
3 438 482 436
3 436 482 480
3 439 437 483
3 483 437 481
3 440 484 482
3 438 440 482
3 441 439 483
3 485 441 483
3 442 486 440
3 440 486 484
3 443 441 487
3 487 441 485
3 444 488 442
3 442 488 486
3 445 443 487
3 489 445 487
3 444 446 488
3 488 446 490
3 491 445 489
3 491 447 445
3 490 446 492
3 492 446 448
3 492 449 493
3 492 448 449
3 494 451 495
3 494 450 451
3 451 447 491
3 495 451 491
3 449 452 496
3 493 449 496
3 496 453 497
3 496 452 453
3 453 454 498
3 497 453 498
3 498 455 499
3 498 454 455
3 455 456 500
3 499 455 500
3 456 457 501
3 500 456 501
3 457 458 502
3 501 457 502
3 458 459 503
3 502 458 503
3 503 460 504
3 503 459 460
3 504 460 494
3 494 460 450
3 461 505 506
3 462 461 506
3 507 463 462
3 507 462 506
3 465 463 508
3 508 463 507
3 464 463 465
3 465 508 509
3 465 509 466
3 466 509 510
3 466 510 467
3 467 510 511
3 467 511 468
3 468 511 512
3 468 512 513
3 469 468 513
3 469 513 470
3 515 470 514
3 470 513 514
3 470 515 471
3 472 516 473
3 518 516 517
3 518 505 516
3 461 417 505
3 505 473 516
3 505 518 506
3 515 514 519
3 474 430 520
3 521 520 519
3 520 471 515
3 520 515 519
3 474 520 524
3 476 522 472
3 516 472 523
3 472 522 523
3 516 523 517
3 520 521 524
3 477 475 524
3 524 475 474
3 525 477 524
3 478 526 522
3 476 478 522
3 527 477 525
3 527 479 477
3 478 528 526
3 478 480 528
3 481 479 527
3 529 481 527
3 482 530 480
3 480 530 528
3 483 481 531
3 531 481 529
3 484 532 530
3 482 484 530
3 485 483 531
3 533 485 531
3 486 534 484
3 484 534 532
3 535 485 533
3 535 487 485
3 486 536 534
3 486 488 536
3 537 489 535
3 535 489 487
3 490 538 539
3 536 490 539
3 488 490 536
3 538 540 539
3 541 542 543
3 541 489 537
3 542 541 537
3 541 491 489
3 490 492 538
3 545 493 544
3 538 492 493
3 538 493 545
3 540 538 545
3 544 546 545
3 547 548 549
3 543 495 541
3 547 494 495
3 547 495 543
3 608 547 543
3 495 491 541
3 493 496 544
3 544 497 550
3 546 544 550
3 544 496 497
3 550 497 551
3 551 497 498
3 498 499 551
3 551 499 552
3 499 500 552
3 552 500 553
3 500 501 553
3 553 501 554
3 554 502 555
3 554 501 502
3 502 503 556
3 555 502 556
3 503 504 556
3 549 504 547
3 556 504 549
3 504 494 547
3 506 557 507
3 507 557 558
3 508 507 558
3 508 558 559
3 509 508 559
3 509 559 560
3 510 509 560
3 510 560 561
3 511 510 561
3 511 561 562
3 512 511 562
3 514 512 563
3 563 512 562
3 513 512 514
3 517 564 518
3 518 564 557
3 566 564 565
3 557 564 566
3 557 506 518
3 558 566 567
3 558 557 566
3 559 567 568
3 559 558 567
3 560 568 569
3 560 559 568
3 561 569 570
3 561 560 569
3 562 570 571
3 562 561 570
3 563 562 571
3 572 563 571
3 574 514 563
3 572 574 563
3 573 519 574
3 574 519 514
3 519 573 521
3 522 575 523
3 577 575 576
3 577 517 575
3 564 517 577
3 575 517 523
3 564 577 565
3 573 574 572
3 521 573 579
3 580 573 578
3 579 573 580
3 579 524 521
3 524 579 525
3 522 581 575
3 522 526 581
3 576 581 582
3 576 575 581
3 583 580 584
3 583 579 580
3 583 525 579
3 583 527 525
3 526 585 581
3 526 528 585
3 582 585 586
3 582 581 585
3 587 584 588
3 587 583 584
3 587 527 583
3 587 529 527
3 528 589 585
3 528 530 589
3 586 589 590
3 586 585 589
3 591 588 592
3 591 587 588
3 591 529 587
3 591 531 529
3 532 593 589
3 530 532 589
3 590 593 594
3 590 589 593
3 595 592 596
3 595 591 592
3 595 531 591
3 595 533 531
3 534 597 593
3 532 534 593
3 594 597 598
3 594 593 597
3 599 596 600
3 599 595 596
3 599 533 595
3 599 535 533
3 534 601 597
3 534 536 601
3 602 597 601
3 602 598 597
3 603 599 600
3 604 603 600
3 603 535 599
3 603 537 535
3 536 539 601
3 606 540 605
3 606 602 540
3 602 601 539
3 540 602 539
3 605 607 606
3 608 609 610
3 608 543 609
3 604 542 603
3 609 543 542
3 609 542 604
3 542 537 603
3 540 545 605
3 605 546 607
3 612 607 611
3 605 545 546
3 607 546 611
3 612 613 614
3 612 611 613
3 614 615 616
3 614 613 615
3 616 617 618
3 616 615 617
3 618 619 620
3 618 617 619
3 620 621 622
3 620 619 621
3 622 623 624
3 622 621 623
3 610 548 608
3 624 623 548
3 624 548 610
3 548 623 549
3 548 547 608
3 546 550 611
3 611 550 613
3 613 550 551
3 551 552 615
3 613 551 615
3 552 553 617
3 615 552 617
3 553 554 619
3 617 553 619
3 554 555 621
3 619 554 621
3 621 555 623
3 623 555 556
3 556 549 623
3 565 625 626
3 567 566 626
3 626 566 565
3 567 626 627
3 568 567 627
3 568 627 628
3 569 568 628
3 569 628 629
3 570 569 629
3 570 629 630
3 571 570 630
3 572 571 631
3 631 571 630
3 572 631 578
3 576 632 577
3 625 632 633
3 565 577 632
3 565 632 625
3 625 633 634
3 626 625 634
3 626 634 627
3 627 634 635
3 627 635 628
3 628 635 636
3 628 636 629
3 629 636 637
3 629 637 630
3 630 637 638
3 631 638 639
3 631 630 638
3 640 578 639
3 578 573 572
3 578 631 639
3 578 640 580
3 576 641 632
3 576 582 641
3 633 641 642
3 633 632 641
3 633 642 643
3 634 633 643
3 634 643 644
3 635 634 644
3 635 644 645
3 636 635 645
3 636 645 646
3 637 636 646
3 637 646 647
3 638 637 647
3 638 647 648
3 639 638 648
3 640 648 649
3 640 639 648
3 584 580 640
3 649 584 640
3 582 650 641
3 582 586 650
3 642 650 651
3 642 641 650
3 642 651 652
3 643 642 652
3 643 652 653
3 644 643 653
3 644 653 645
3 645 653 654
3 645 654 646
3 646 654 655
3 646 655 647
3 647 655 656
3 647 656 648
3 648 656 657
3 648 657 649
3 649 657 658
3 588 584 649
3 658 588 649
3 586 659 650
3 586 590 659
3 650 659 651
3 651 659 660
3 651 660 661
3 652 651 661
3 652 661 662
3 653 652 662
3 653 662 654
3 654 662 663
3 654 663 664
3 655 654 664
3 655 664 665
3 656 655 665
3 656 665 666
3 657 656 666
3 657 666 658
3 658 666 667
3 592 588 658
3 667 592 658
3 590 668 659
3 590 594 668
3 660 668 669
3 660 659 668
3 660 669 670
3 661 660 670
3 661 670 671
3 662 661 671
3 662 671 663
3 663 671 672
3 663 672 664
3 664 672 673
3 664 673 665
3 665 673 674
3 665 674 666
3 666 674 675
3 666 675 667
3 667 675 676
3 596 592 667
3 676 596 667
3 594 677 668
3 594 598 677
3 668 677 669
3 669 677 678
3 669 678 679
3 670 669 679
3 670 679 680
3 671 670 680
3 671 680 681
3 672 671 681
3 672 681 682
3 673 672 682
3 673 682 683
3 674 673 683
3 674 683 684
3 675 674 684
3 676 684 685
3 676 675 684
3 600 596 676
3 685 600 676
3 598 686 677
3 598 602 606
3 678 686 687
3 678 677 686
3 678 687 679
3 679 687 688
3 679 688 680
3 680 688 689
3 680 689 681
3 681 689 690
3 681 690 682
3 682 690 691
3 683 691 692
3 683 682 691
3 684 692 693
3 684 683 692
3 685 693 694
3 685 684 693
3 694 604 685
3 685 604 600
3 598 606 686
3 606 607 695
3 686 606 695
3 686 695 687
3 688 687 696
3 696 687 695
3 688 696 697
3 689 688 697
3 689 697 698
3 690 689 698
3 690 698 699
3 691 690 699
3 691 699 700
3 692 691 700
3 692 700 701
3 693 692 701
3 610 609 694
3 701 610 694
3 701 694 693
3 609 604 694
3 607 612 695
3 695 612 696
3 696 612 614
3 614 616 697
3 696 614 697
3 616 618 698
3 697 616 698
3 618 620 699
3 698 618 699
3 620 622 700
3 699 620 700
3 622 624 701
3 700 622 701
3 624 610 701
