OFF
702 1400 0
-0.250573903713596 -0.353729408907007 2.1125109439215
-0.296179036745905 -0.339416637943174 2.09567975375436
-0.267916065296786 -0.356767021153366 2.06699991952671
-0.203617714002427 -0.360078258586272 2.11670751127576
-0.221844533877717 -0.36728487826479 2.07147845449759
-0.15674952934215 -0.36438628195602 2.11946793376079
-0.175402109549182 -0.371110779177155 2.07324760251205
-0.111316687358832 -0.368136958366131 2.12347102666322
-0.130027231697767 -0.374721639755405 2.07473393048851
-0.0663704395468967 -0.371720472765444 2.12784291757883
-0.0852171946435308 -0.378103877652905 2.07903851316314
-0.0188189997165671 -0.374687190893021 2.13515649014045
-0.0393743320584125 -0.381361100966672 2.08720682108377
0.0292535280338408 -0.370221516540228 2.14366471846725
0.00798007048807488 -0.382945422102955 2.09599959777844
0.054418179801615 -0.374083178977838 2.10521076166663
-0.319033943640858 -0.312928151860823 2.12568814459573
-0.34901515133826 -0.294224224047984 2.09943994977442
-0.327568729108765 -0.322146192609845 2.06912307404184
-0.27837083370299 -0.329637132589769 2.14428797392775
-0.231550714562907 -0.338846263762669 2.15560840628472
-0.183787218702056 -0.343817757108444 2.15900661199707
-0.136963596978561 -0.34752010262792 2.16402141920666
-0.0916958791240716 -0.350720284838911 2.16952161302714
-0.0473346389542042 -0.355713527203727 2.17166068999573
0.00133732927730881 -0.356383781427434 2.17875886840615
0.075044188115012 -0.353905492331705 2.15023437122501
0.0464088565581768 -0.344222767674573 2.18715991138145
0.0922727680795728 -0.323425234903838 2.18602068242826
-0.306218463796465 -0.294568769306979 2.16844231606004
-0.346637087768487 -0.272857917903536 2.14184791460887
-0.260063658296532 -0.30856038325351 2.18503243704919
-0.210032673234129 -0.314817279947107 2.19259209586763
-0.16237586096328 -0.318902807022463 2.19744349130581
-0.114711932509206 -0.321212997588502 2.20437555650122
-0.0699641603671619 -0.32379934487149 2.21039355833369
-0.0276224693628479 -0.332567424547439 2.2086895141173
0.0136494850144891 -0.324504483169957 2.21974614620932
0.0591588317260061 -0.310673880397947 2.22190000944866
0.103705327311918 -0.287486194947899 2.21667901869174
-0.324829417972926 -0.258890010952698 2.19140850590377
-0.358276329406047 -0.236177489973703 2.16637786988781
-0.28365074686887 -0.27462011319452 2.2115260135915
-0.234500945250241 -0.28533632011735 2.22196270943054
-0.18569631437558 -0.28740655072525 2.22960042907832
-0.138183909985643 -0.291888590561322 2.23395930244135
-0.086655075389656 -0.292708115450058 2.24341682627881
-0.0317000318992153 -0.301518268766227 2.24421261363066
0.0186782782099996 -0.294214276435961 2.25386204473199
0.068976871047476 -0.278049661770782 2.25340292786663
0.113417558699435 -0.250994870095999 2.24704162788509
-0.309076220262849 -0.237270678824335 2.23533558679052
-0.349814294603035 -0.217990728289177 2.20549699646833
-0.259620990994702 -0.254792173114052 2.24904417073965
-0.212163578805361 -0.257187895326466 2.25962625297199
-0.16659091775018 -0.258186702601393 2.26767021408435
-0.122560693496475 -0.265538177432924 2.26796564084311
-0.0891317805749778 -0.254419072058971 2.28773984761785
-0.0541183073768202 -0.27244528454797 2.27371593775279
-0.0118164008405383 -0.269130580319587 2.28467396190288
0.0360155624527888 -0.262135866455461 2.28632180730363
0.0838438818925103 -0.24254929931607 2.2832208212885
-0.31259386016657 -0.199368696728152 2.27797088259914
-0.340695043935061 -0.199717971255703 2.24309254991086
-0.279416871336933 -0.225109145141554 2.27365645996394
-0.232281008448533 -0.227939321256421 2.28979273744435
-0.187526553253026 -0.226828792178648 2.30014875247528
-0.138551815087195 -0.231513513455262 2.3045648461279
-0.0931476246023105 -0.226150725645217 2.3200222695651
-0.045600255082423 -0.238680309832 2.31496618581919
0.00243213608965835 -0.238268331429417 2.32026852578264
0.0501094976052241 -0.230202231691405 2.3171837742642
0.0973094695978266 -0.207094411074078 2.31139689520766
-0.302169769805416 -0.177034407208375 2.31468882950238
-0.346507164827247 -0.162655931036624 2.2804713784042
-0.26323488570111 -0.200882388216337 2.31130766466935
-0.217289709773843 -0.195331152664949 2.33100415394702
-0.167191629366357 -0.199590442264447 2.33614649004967
-0.121372560076796 -0.199420031185357 2.34560966412091
-0.0697844901442898 -0.203230499738707 2.35157752362351
-0.0247672602127544 -0.209353037158735 2.35312200147432
0.0215763741549233 -0.206010259202699 2.35444753160663
0.065405479555249 -0.19769995055163 2.34583726645791
0.10151270275043 -0.171579938578414 2.34630503098458
-0.297725849600633 -0.139534589426275 2.35289539033325
-0.331568880308411 -0.14655692720435 2.31932335377537
-0.263981568848828 -0.169030803077883 2.34649536050816
-0.229483039295957 -0.157907518990137 2.36495427195475
-0.186652034186671 -0.166098401001086 2.36600249817606
-0.141509556032714 -0.166316186014467 2.37365790311684
-0.0942518533704379 -0.169571723398739 2.37929265647644
-0.045585819704612 -0.173574383845384 2.38459600688779
0.00273574698471613 -0.176292537523996 2.38603809366336
0.0542363662775791 -0.169585386000896 2.37870950547069
0.101246774924044 -0.137493061344542 2.37283945844842
-0.33931953751312 -0.108504553889368 2.33869624865436
-0.260656227115087 -0.121421389419422 2.37989767327915
-0.304473691052002 -0.0967303674337849 2.37063643726867
-0.211161007287542 -0.122125485187125 2.3890331767887
-0.165062874597181 -0.126766289748867 2.39377972052932
-0.118358579103407 -0.127753334158257 2.4002749976415
-0.0724970422423342 -0.132266726629307 2.40505473133103
-0.0257666877807515 -0.136671036170282 2.40972163376863
0.0209099537981249 -0.137783237623055 2.40751339400684
0.0651615084211786 -0.130489713650139 2.39767108073712
0.0465678948517446 -0.0929029450587527 2.41667899820033
-0.277815634245129 -0.0706357948983957 2.39019615448229
-0.235256839759445 -0.0799737283527097 2.39952026943912
-0.186189862361468 -0.081793674074741 2.40556213765973
-0.140406804621997 -0.0828935795113402 2.41128024722976
-0.0940902921030378 -0.0843065435259681 2.41698234664791
-0.0494429314941354 -0.0909460907166388 2.42148343515642
-0.00168269286416378 -0.0950781806672003 2.42411837398847
-0.245958410521251 -0.361865084105923 2.02731861108192
-0.269947560797519 -0.34595159942694 1.99281776686914
-0.24654425750582 -0.336643907197967 1.95573149176086
-0.196282671545501 -0.367947732886287 2.02749998094677
-0.218068431821771 -0.35661836187214 1.98708907612383
-0.150203101687016 -0.370388604427118 2.02662919292535
-0.169923386558161 -0.35633341260592 1.98147330756729
-0.10475619203727 -0.373238490785064 2.02893688723669
-0.12459642591598 -0.357696392558049 1.98201898383788
-0.0593782487807759 -0.377033133890438 2.03636131950544
-0.0769750355438696 -0.361421272237579 1.98788262813133
-0.0144085849651261 -0.381212702319624 2.04645478051013
-0.0311957470417968 -0.366397439012351 1.99675424587973
0.0316507912725314 -0.380036656663443 2.05501417547779
0.013079042902563 -0.370989320314759 2.00774353186597
0.0609557313928765 -0.3643081915123 2.01710619249885
-0.297675133740178 -0.342535014957563 2.03642713545289
-0.336428521602181 -0.311401685687752 2.02241179265314
-0.306803569887138 -0.324777241887374 1.98905400096615
0.0989856033273742 -0.353838886766176 2.11063755317952
0.0747370080591673 -0.368605114100299 2.06495635570358
0.114237786573101 -0.347037715272475 2.0682627505068
-0.374601442145858 -0.258219558707377 2.09207834224481
-0.385116874135215 -0.242761443539553 2.04338142716248
-0.361975875234528 -0.285813115365128 2.0536410193523
0.119910944069257 -0.327574843812176 2.14591623728971
0.14039722503454 -0.323055428555882 2.10173781699255
0.157326082724817 -0.293426358006805 2.13091726233855
-0.376898017974478 -0.231639381434609 2.12529652474494
-0.392971814236728 -0.212799596410824 2.08011183468318
0.133616963424282 -0.293556614663943 2.17633413039653
0.164392266041013 -0.256084932799923 2.1639485408615
-0.380834363862532 -0.195309100238576 2.16151887329203
-0.393659482341634 -0.185307744913167 2.11833784466079
0.141249039138832 -0.255018916487269 2.20684341471346
0.170581391573175 -0.215799094990982 2.19078785506993
-0.375363961622039 -0.178634926185281 2.20043749234471
-0.396117336972406 -0.147779173971872 2.16012562098016
0.149676395395002 -0.215635104949259 2.23484823560683
0.174771006119535 -0.175633980329562 2.21963818860679
-0.367530853629592 -0.163039218435684 2.24040118601744
-0.391609633209637 -0.132877738754923 2.20644385722964
0.126503863664628 -0.21152800078832 2.2744627259559
0.1587319141536 -0.172247316429795 2.26269459135409
-0.381543012718792 -0.124038500680942 2.25510869924279
-0.400107604963994 -0.0879613043889097 2.22611645504756
0.133703161332626 -0.173501482916823 2.3054570688858
0.1636130662074 -0.134023897638501 2.29090998629255
-0.366003809228092 -0.118992234522865 2.29697822482807
-0.390567585099961 -0.0797564394728615 2.27408076263876
0.13696384583173 -0.138108175211022 2.33607808685123
0.160370388090149 -0.0991343342299335 2.32478279120722
-0.369138570637499 -0.0750965042351582 2.31730018308545
-0.3370662530798 -0.0659304844666219 2.35541762132678
-0.35709689185028 -0.0314651237098504 2.33795452539987
0.0937314702671137 -0.0920338549985783 2.39586961564087
0.116755154541212 -0.0516570726708556 2.38417693184687
0.130491783547052 -0.0979177453960297 2.36493906433069
-0.311745222180455 -0.0394491931760566 2.37629959431255
-0.259316207510749 -0.0298257496983341 2.39872117602292
-0.291479478352384 -0.000813296175430779 2.38318903108576
-0.209657241738637 -0.0386455780355181 2.40687822251947
-0.162419989723712 -0.0357464867089574 2.41215215431261
-0.115797624025563 -0.0371433134867413 2.41741534095769
-0.0689610602669494 -0.0386048710646641 2.42268436835672
-0.0259273162614809 -0.0493845582977755 2.42786532956369
-0.000716926051812714 -0.0124821383359913 2.42421177465916
0.0247722165087877 -0.0525858400281235 2.42576421149004
0.073459995678022 -0.0510079407095064 2.41084590101907
-0.258172042955863 0.0285064282848488 2.38717758519469
-0.226389089903542 0.00419909635379771 2.40025347501786
-0.182301530242099 0.00961385768601983 2.40319522939472
-0.136206956211158 0.00966229463832028 2.40752480867771
-0.0895067870860592 0.00764903304533068 2.41246275272817
-0.0410871651321374 0.0059258978601826 2.41745902033239
0.0146434488599539 0.0256022530298129 2.41081515005196
-0.334735526011624 -0.292597664612808 1.97401940291732
-0.318606923789765 -0.2772549508061 1.9356489845535
-0.287747566276065 -0.31351235609975 1.94780574005049
-0.238997975198075 -0.312605431153101 1.9208054792949
-0.196853195149171 -0.337075517687862 1.94574670692328
-0.146363531240177 -0.332108441891489 1.93916668447728
-0.0963411003018872 -0.337365952323379 1.94694572407626
-0.0442535675827423 -0.341444705741578 1.95319501057838
0.00109957974978724 -0.347151504944836 1.96162014321161
0.0452494537809677 -0.350945415519511 1.97745144620859
0.0875599456832708 -0.332600310691878 1.9771593625762
0.100445675975526 -0.347938500886356 2.02455756523615
0.126856473001814 -0.320873675314289 2.00766716304467
-0.364680472789185 -0.271980457914978 2.00821255813101
-0.382621174570268 -0.225225376220118 1.99697503178803
-0.359085481584339 -0.250747946304424 1.96581001888953
0.143563051062815 -0.319638972088822 2.05228207268749
0.159253264312792 -0.289688015309887 2.02199799455728
0.169345166221951 -0.288347978342293 2.07723227631944
-0.396952328733907 -0.193668733283761 2.03465547075742
0.188870230570575 -0.245961584959417 2.07604908057311
-0.400066521053989 -0.163896788536005 2.06834200532436
0.181029093429513 -0.255320828868206 2.11825801838006
-0.40111350105147 -0.143278196323867 2.11186054047979
0.186460867812558 -0.21414710905903 2.14350224049379
-0.403375147330802 -0.104057039899363 2.1288035729956
0.188858863266824 -0.174768054346412 2.16890182863497
-0.40326796304181 -0.0979516708071419 2.17628455947204
0.189332753238911 -0.138403299755507 2.19747285728005
-0.406640399060757 -0.0509798398595004 2.19640087602663
0.181539792195337 -0.127459298191578 2.24333938764743
-0.402773156569413 -0.0417723644737339 2.24712230859249
0.181574393915149 -0.089701910329901 2.27749273627658
-0.385909554340922 -0.034936928297446 2.29537727109542
-0.392584288389053 0.00332779438226292 2.26774440078429
0.149947305815782 -0.0555003737656039 2.35006945494721
0.174196096782478 -0.0576287557023592 2.30888181698404
-0.368792869383825 0.0077163670619732 2.31403414631776
-0.333890283826382 0.00216145138961526 2.35504181998109
-0.34111431175905 0.0445598776521393 2.32877703077787
0.0491392539162029 -0.0102561866384336 2.4150659662183
0.0955670070234675 -0.00943858416757403 2.39336506834262
0.134407061486059 -0.0102102271164655 2.361211103105
-0.304252159435893 0.039969823029898 2.36198054540613
-0.26385379025298 0.0667508793531776 2.36604832152711
-0.211259351947934 0.0505869646266221 2.38504093635734
-0.16222531332542 0.0528134121049699 2.38757943689742
-0.114869206265955 0.0517949613209278 2.39162302146721
-0.0674823464111394 0.0486408107362588 2.39685262653731
-0.0214917136914202 0.0493542123720709 2.39971608059595
0.0320733017019004 0.0611319421291011 2.38732495172551
0.0659715086477584 0.029150601410636 2.394644904779
-0.307528424713045 -0.244288688253683 1.90133706798604
-0.275909226629391 -0.283684672116928 1.90943012235343
-0.227495734683182 -0.279940285735325 1.88920722826778
-0.190040149386806 -0.308771108452277 1.91151565861528
-0.146451878662674 -0.296331822376712 1.90252262318724
-0.106172112257717 -0.304168916667405 1.91132213371004
-0.0591046486110028 -0.313106312085728 1.92148192125712
-0.00292047740429914 -0.314123562188266 1.92513557381924
0.0447015949908475 -0.324006604570389 1.94207503355279
0.0898573622378877 -0.300097666430672 1.94184166182709
0.127903403377168 -0.29650071939716 1.97408254040795
-0.371045501003913 -0.198088763748838 1.95377338522139
-0.343130048120285 -0.23492259182914 1.93139955653132
0.160543696767671 -0.260570220403109 1.98534074654483
0.180840348911986 -0.25421011440188 2.03371707419985
-0.390106399310374 -0.177507688993731 1.99420427587044
0.19721878314141 -0.206826783557367 2.04929555500742
-0.395516349613067 -0.137656394511291 2.02460189949132
0.196319527348239 -0.205818333627583 2.09908032932405
-0.39942044621016 -0.115533980943981 2.07293083993819
0.196888386402707 -0.164083503286465 2.12231370920676
-0.398675122303451 -0.0726322797990031 2.09427748595439
0.19651651950941 -0.125781452611179 2.15039391180719
-0.403526677430033 -0.0585545637032415 2.1457060391071
0.193450141816459 -0.096123999467877 2.19632802039653
-0.402510642988649 -0.0138344858607071 2.1658044399582
0.19037451776445 -0.0757857376917344 2.23628718775042
-0.403877748579804 -0.00486969603815626 2.21743859311036
0.185412809619834 -0.0332528438243272 2.27289744645684
-0.388953188321087 0.0396330006342678 2.23771479445494
0.164196032767295 -0.0150190709834974 2.32105563950827
-0.370143575850927 0.045457784674004 2.28545219691478
-0.337382232879389 0.0821624645049013 2.29873390200911
0.108229543385574 0.0310372657536097 2.36693362152191
0.143442329893762 0.0279475849514918 2.33056484351289
-0.303379959691116 0.0792421336913012 2.33555614842305
-0.259913734182977 0.105744949683069 2.33509255853744
-0.224189526661276 0.0866802775372243 2.36074430759902
-0.179301108064905 0.0906916199108883 2.35997868740712
-0.135182189297755 0.0912138869923316 2.3617589261308
-0.0884322730599963 0.0873241211172394 2.36748009805616
-0.0451240449771501 0.0872242927798873 2.36975661483123
-0.00249823486684493 0.0853726112997056 2.37298724652429
0.0752190729906115 0.0679394919649894 2.36429344237128
-0.304271348137943 -0.208941518357519 1.87353485335275
-0.265646368245709 -0.247995065034529 1.87685324291263
-0.218768181012805 -0.24461818294477 1.85853206306229
-0.17898445784217 -0.271075895299485 1.87908296609932
-0.125185955868265 -0.261669596505088 1.87368648276716
-0.0792205474131923 -0.27417556864367 1.88680295334531
-0.0334926203634681 -0.285964092695857 1.89928851994863
0.00985901612633987 -0.273785646972499 1.89097197069917
0.0475978297621554 -0.291039776546691 1.91247856092166
0.0941039611307314 -0.264770031014641 1.91038456908546
0.130838712857547 -0.264031892259714 1.94308920655093
-0.366221730795375 -0.159700509719388 1.924641559986
-0.341751572175117 -0.200009802554803 1.90755758509114
0.166332835889627 -0.225949548991239 1.95537824322455
0.186494560190408 -0.219014460899123 2.00191804996431
-0.385393085247587 -0.144269207413662 1.96944099640675
0.203363950932338 -0.171917127802458 2.02171280222792
-0.388976925684474 -0.0995379888853858 1.99241563942244
0.202580653226452 -0.162359901693449 2.07388410489332
-0.39333487083865 -0.0852992898255731 2.03958211565416
0.202905015709118 -0.117079154170402 2.10044389571957
-0.392676927690187 -0.0403534342103524 2.06301882461317
0.200213553881132 -0.0812368319380018 2.1471130590313
-0.397277961208388 -0.0250063502521545 2.11301587675171
0.198293384234471 -0.0512009469887226 2.18331052279386
-0.396405782145982 0.0208263096974463 2.1351579988864
0.194665944939753 -0.0332213292633568 2.22626037220702
-0.397767455064656 0.0312217747455704 2.18728902011461
0.190967852488421 0.0092492936066734 2.24296602904095
-0.382749668642158 0.07536453329747 2.20733871885042
0.172831240612312 0.0161509775994724 2.28813239220779
-0.364127053743909 0.0812859088311669 2.2550268060855
-0.330411592638694 0.118538381179855 2.26854834225462
0.114909984142176 0.0687615417040867 2.33494684592152
0.150871821153947 0.0625458496059695 2.29904010115845
-0.297132583532499 0.115405837902832 2.304869297398
-0.248567274256417 0.140448978763682 2.30742744198777
-0.208257563115817 0.121500487494695 2.33192788415502
-0.157311562903547 0.128342994657463 2.32859997984467
-0.104606883847167 0.121755638967986 2.33695012856097
-0.0562277295709884 0.123345777659038 2.33802497899937
-0.0101317688907706 0.121243400054174 2.3421703415136
0.0377534777996306 0.100333940478015 2.35449785706347
0.0790587519693513 0.10621429383018 2.33313646478165
-0.298794789076945 -0.174208815241783 1.84431214230251
-0.260790212837746 -0.212280180378837 1.84699408254794
-0.212856834724152 -0.210837857601967 1.82966208795336
-0.167907747769018 -0.237704804177499 1.85084510753526
-0.120719277189835 -0.222561973465059 1.84016526613138
-0.0786234860528744 -0.237172567154531 1.8549027067706
-0.033948889310465 -0.250829549850398 1.86894671700799
0.0123644700882621 -0.236223987269084 1.85868536978223
0.0555881260450706 -0.253837380939496 1.88119507715791
0.101016421764721 -0.228536891356815 1.87988242149681
0.136881718325815 -0.229939116246252 1.91415195262789
-0.35981677756262 -0.123306195020355 1.89330597383105
-0.336449584072045 -0.166230101647164 1.87940668175314
0.172608025258045 -0.191112900296147 1.92615166583196
0.193005661921227 -0.183226986862566 1.97268988282482
-0.379063097118745 -0.110947596140984 1.9389259941213
0.209416030494051 -0.137209477552704 1.99332575947741
-0.382724118888957 -0.0664295305249272 1.95947621269441
0.208457181477278 -0.126428689071299 2.04605399737971
-0.387103838694283 -0.0472733733391643 2.0100224045124
0.209731098995775 -0.081367997962049 2.06419770441308
-0.387246088970234 -0.00321578076127974 2.03983652683891
0.205664688093796 -0.0670745698298436 2.1088589536075
-0.391216716821301 0.0113743730222146 2.08386476616371
0.205093955044483 -0.0251631805990875 2.14101878663777
-0.390108801945033 0.0555114246239764 2.1028570827557
0.20116143148027 -0.00269061513068769 2.18981951787906
-0.391860523534917 0.0657389306227175 2.15621218314468
0.198060070603707 0.0421317160687437 2.20986673233798
-0.376650630020916 0.110311446434322 2.17777000308355
0.178299220026447 0.0546602750847636 2.25770293952924
-0.357477103027161 0.117114978874343 2.22542922761519
-0.32215498850952 0.154260317693981 2.24066117929503
0.120281671787939 0.105105146758423 2.30471197533323
0.156226287368783 0.0994277532458812 2.26891417117363
-0.287383534061108 0.150849453891979 2.27728161496511
-0.239065715300008 0.17525917468963 2.27886166678395
-0.197613018817432 0.155444763922967 2.30317413573084
-0.152777320513368 0.169837496021671 2.29302278339128
-0.115569454549977 0.153442361847339 2.309052070676
-0.0678876751274372 0.156817709595727 2.3085509861744
-0.017508801800087 0.157461840650505 2.31054322271936
0.0326466737733263 0.136964265661612 2.32589534698864
0.0803256121592348 0.141614593142351 2.305453857862
-0.29261029431739 -0.13940334628411 1.81443108090561
-0.255247604243417 -0.176919634012685 1.81707011169417
-0.208971175068617 -0.176043728643499 1.80034276454604
-0.164619797456363 -0.203037314336563 1.82109634137816
-0.114956563750798 -0.185594038041665 1.80855530557539
-0.0728783888614526 -0.199375014847526 1.82257556667346
-0.0308796822780609 -0.214609050686486 1.83784639973454
0.0153637358730963 -0.19898639844389 1.82670354082831
0.0589348905460689 -0.218526109692621 1.85017483139317
0.104185791411583 -0.194417781049016 1.84890465350352
0.143054310875562 -0.195347397831783 1.88484122625769
-0.354872657383841 -0.0863078405972449 1.86471088686424
-0.330313538678161 -0.131990229565165 1.84986174508487
0.178524863900272 -0.156414691815026 1.89635969648311
0.199144660062887 -0.148012176890153 1.94284379272203
-0.373174176301142 -0.0737624471004475 1.90905913652903
0.215274567607555 -0.102893789666113 1.96256990946867
-0.375910312660739 -0.0261206557026223 1.92632615023226
0.214856987935527 -0.0907590766558742 2.0134896093242
-0.38056971645877 -0.0203402978328949 1.97062992476835
0.215542828623516 -0.043026610420016 2.03848843446846
-0.381954712988991 0.00944454152098793 2.00200173998958
0.210994654735324 -0.0294385019131549 2.08689265823549
-0.384359255995399 0.0474231014838266 2.04757051839189
0.211563643373007 0.0140763104280416 2.11016916656128
-0.384218998348683 0.0895032795530295 2.07364774773967
0.207135405599827 0.0275618279593479 2.15745831525458
-0.385942425516023 0.100007344663875 2.12695341652777
0.204590583829238 0.0749167958435276 2.17863124088719
-0.369689842585237 0.145826574027978 2.15097525312611
0.185214273794777 0.0888131169993786 2.22641069158288
-0.350200190142105 0.152592034985137 2.19758309701191
-0.3151269470724 0.189329457051118 2.21189701714301
0.124973624707022 0.140638468421033 2.27563527162688
0.16249795995232 0.134225239199618 2.23883552106588
-0.279407463700879 0.185807230711338 2.248795748602
-0.232931826369429 0.210795557495099 2.24850623317331
-0.190892235250834 0.192981561729981 2.27112282019394
-0.14035850717621 0.206483142989227 2.26202752463085
-0.100838161280906 0.1886272791422 2.279434901676
-0.0525738506851167 0.191772408902467 2.27916165727214
-0.00449966873505166 0.192949033190705 2.28057762164895
0.0358702758164016 0.170274369081066 2.29792298940024
0.0873909700698139 0.174739860410564 2.27646549316157
-0.293917152131236 -0.102604602812612 1.7901063990254
-0.248904336347424 -0.140679943967616 1.78607145154833
-0.201033955954052 -0.142156006918287 1.77102658397964
-0.159586461153612 -0.169990103359756 1.79283330101945
-0.109824357884545 -0.150258261812259 1.77837145005275
-0.0661792165291896 -0.161315017088616 1.79007161025806
-0.0262771037106529 -0.176094611585916 1.80484296493907
0.0171934789977772 -0.161291059261789 1.7942781102985
0.0616492972400014 -0.183544795005682 1.81933443632318
0.108222748401583 -0.15986241586673 1.8181362079565
0.145345780372054 -0.163442660698253 1.8538347568523
-0.349561526084475 -0.048696589577626 1.83599633191278
-0.32762914088866 -0.0956681733134883 1.82369919188076
0.179022892885246 -0.127244048712304 1.86271716069724
0.204995104990907 -0.112789500779901 1.91181578673105
-0.367123269736789 -0.0352928778792196 1.87836113850501
0.222157144960861 -0.0648405359705401 1.94311777001934
-0.369723910091982 0.0122444910697807 1.90129551471518
0.220588899233648 -0.0523828639945664 1.98850339487213
-0.374922814240584 0.0251961578031934 1.95102367276954
0.221600255141953 -0.00573862606998347 2.00868133244418
-0.378468951393932 0.0510894300799843 1.99868463145786
0.217137421389787 0.00683540316635264 2.05696196699536
-0.37765552938502 0.0934189672250534 2.019060150291
0.217856319532035 0.050766256072833 2.07873598326178
-0.378927942758511 0.127915113633179 2.05259702529742
0.213343006245634 0.0644987637831737 2.12739274337961
-0.379572935611467 0.135554070127542 2.10233238246812
0.210470414702746 0.110080423955654 2.14923442213259
-0.363423406442142 0.180988809458285 2.12174497993874
0.191544895527837 0.122884457492367 2.19636306997178
-0.343363809845401 0.188149496387275 2.16866466046921
-0.309087888124985 0.22433460082786 2.18198876399778
0.131665116269182 0.17552997161962 2.24524491527464
0.168748687553178 0.169086533049024 2.20868011901906
-0.273654065167382 0.220683962865126 2.21881588133099
-0.227449592478759 0.245872690564866 2.2183038008346
-0.183754593666972 0.228613747178912 2.24073545752862
-0.135148888532476 0.240769978705376 2.2326773927204
-0.0874975509768422 0.225682565527585 2.24813320385284
-0.0374901888811039 0.226590903270462 2.24987843385791
0.00902049784001083 0.22698129034125 2.25189378684567
0.0481689192115474 0.20328037523469 2.26838752614967
0.0943640846736012 0.209667314671775 2.24613712054527
-0.256624281276047 -0.102672316683846 1.76455340013662
-0.215099517189227 -0.106053719891776 1.75084954196167
-0.168697925358689 -0.103162765396841 1.74463216400143
-0.153727337725327 -0.137167521850331 1.76567295292321
-0.116538036952179 -0.109161951803212 1.75137854183564
-0.069758832889719 -0.12108923823361 1.76112119253707
-0.0228623320789543 -0.132283806700043 1.77094597032368
0.0250246851532431 -0.121389976686618 1.76847199533556
0.0645624756207539 -0.149354720708822 1.79061908653779
0.108932056261779 -0.123108325465518 1.79092624687349
0.149341717362555 -0.127466089545024 1.823631512993
-0.337323046743055 -0.0112678384937987 1.81139342394006
-0.320567923219493 -0.057777519792695 1.79614456276339
0.197993155070825 -0.0898734830267687 1.86619963093451
0.215686650942517 -0.0676273107182584 1.89996651042401
-0.357547402247606 0.00433606494103875 1.85111378872969
0.221077913418538 -0.0244241858489557 1.91146483340791
-0.354721277820133 0.0483172737358969 1.87306291829475
0.223926246835884 -0.0135137793259371 1.95702622025298
-0.364410053139247 0.0610418784524726 1.91820139327588
0.220339768261432 0.0297085568893742 1.97668466888265
-0.371353829467157 0.0775154016778645 1.9643387178716
0.220550604589027 0.0440953068638119 2.02457679151483
-0.365430742051244 0.122828666500455 1.9800519379611
0.217361975320373 0.0861610129837327 2.04744730128221
-0.36850315416346 0.149404900886689 2.01641567343562
0.217204426961958 0.100769567537696 2.0950418378737
-0.372451411397569 0.169855508951649 2.07140159947663
0.21118939103388 0.141968502637941 2.1180116572328
-0.354752496512881 0.210726120279213 2.08708572749242
0.195723493454326 0.15774122826147 2.1664487968414
-0.33731028226906 0.221753525808769 2.13671790242521
-0.301816316503264 0.254286062786962 2.14915063362069
0.136620929015147 0.210450250771147 2.21346239729688
0.168519694807968 0.203215153292061 2.17633835226724
-0.266379750375044 0.254859273260668 2.18813047082909
-0.217825170254107 0.277647648008182 2.18306859739661
-0.180520517071907 0.263361312369108 2.20795677213811
-0.138733316507529 0.272213433658986 2.19742141667843
-0.0945833332607593 0.262294849314168 2.21135854170136
-0.0499158680994087 0.257998592094384 2.21770420005656
0.000157307182876501 0.257482179898712 2.21934802869536
0.0521302596424454 0.239574030018475 2.23597097095906
0.0974823108854963 0.240998271869227 2.21337164547801
-0.282094522074153 -0.0620391066961914 1.76361745473987
-0.236715808068893 -0.0626698233663031 1.74126121067449
-0.189047396470452 -0.0638795503658826 1.73160904815679
-0.137177992268806 -0.0677928228146448 1.7345233920809
-0.0866511285804457 -0.074366227475547 1.74104773013023
-0.04049657497577 -0.084307775254398 1.74818170534142
0.00361519849863781 -0.0838312984752075 1.75216088362612
0.0506265897860975 -0.0735179906326599 1.7543403685566
0.0711633611443583 -0.108715659415031 1.76922186231446
0.103096600435953 -0.0730424575123688 1.76886916505375
0.139652310033338 -0.0906547708598593 1.79522805145628
-0.302149200378558 -0.0203268661735219 1.77271626305117
-0.277073963832148 0.021709440357733 1.7595146665056
-0.259633212251862 -0.0212269939888396 1.74532250698292
0.14976349830347 -0.0495894762687803 1.79327872441501
0.176009163332997 -0.08371062958711 1.82781226248143
0.179207886891202 -0.0361830846390138 1.82151917613172
-0.334391469971385 0.0427213238429352 1.82408469955796
-0.314565404337158 0.0209884276482874 1.78968459180435
0.203408922621875 -0.0427231415860479 1.85915386640137
0.20861333948356 -0.000834168313717756 1.87683818593365
-0.331233585449023 0.0800200933522117 1.85106588312053
0.214414520850521 0.0244182764013495 1.92055191818863
-0.341140316120185 0.0993080410481871 1.8907836634599
0.20931998461056 0.0612439474453422 1.94871436692199
-0.353630074782235 0.109346243203345 1.93064819811235
0.211886737545464 0.0814863997928495 1.99126857117175
-0.342701593034194 0.148498760182786 1.9450141785821
0.206930752216264 0.11818793060522 2.01911033649734
-0.346607163458464 0.176247415920578 1.98199284608658
0.209295628902322 0.138249900318791 2.06144654074939
-0.360106844041142 0.190592554878809 2.03489316046593
0.201670788022716 0.173485957357512 2.0885745955806
-0.326424834976886 0.247590713273961 2.09957751252233
-0.338343888357371 0.232792878618014 2.05078029164851
-0.307533233228063 0.26577918309508 2.05753461007816
0.192192578390684 0.188036368087906 2.1331121417046
0.178764076203723 0.214637122537745 2.09006551474366
0.165510117769995 0.226519076922455 2.13555495094414
-0.258698944394488 0.280587493193117 2.1517527218251
-0.292511556536583 0.274774738942955 2.11037616405195
-0.250728311798974 0.296703506818392 2.1096390516709
0.132795136676139 0.242072411409187 2.17503928571595
0.100333543178091 0.274724780759394 2.13976513443792
0.0880541072045187 0.266948857970599 2.17848816006808
-0.211545133474371 0.298272785439007 2.14342559057315
-0.167544761064779 0.292420244983148 2.16304445218716
-0.114625671945416 0.290188363483949 2.16537176711008
-0.0701411242558914 0.285244422245952 2.17405624388727
-0.0263172106614288 0.282012970831842 2.17901558144619
0.0164234239946784 0.281309120512874 2.17839873631034
0.0496626966289821 0.266519880163126 2.20135825663677
-0.210809915893542 -0.0211787550656628 1.72930799207569
-0.159517566384105 -0.0249201039804137 1.72634839293056
-0.1087380295028 -0.0289488995795781 1.73201127930946
-0.0608533362354243 -0.0337628159098841 1.73756277498668
-0.0160146186613394 -0.0373018603079809 1.74272315094776
0.0280574004394039 -0.0331104591515777 1.74759850413803
0.0766496040689703 -0.0317247035661441 1.75538847389921
-0.232862634900786 0.0199322503856485 1.7387074492499
-0.205728068053351 0.0574043035829386 1.74356391063465
-0.181462822382747 0.0183328586398274 1.72934494957546
-0.130657673650361 0.0150653404067146 1.73245835075043
-0.0829824577638691 0.0139872323933611 1.73839413075714
-0.0357043967317721 0.010587820389946 1.7438503382382
0.00906930102699967 0.0120720939519565 1.749984477053
0.0560084286358509 0.0113274632623035 1.75608529318332
0.104162854272129 0.012381636286348 1.77073903307714
0.151295353625213 0.0030565272554284 1.79797940066447
0.120168564458728 -0.0280510691938727 1.77284056727203
-0.295179254063549 0.0609387282435084 1.78841628548468
-0.263303668831372 0.0994550523980521 1.79156501391507
-0.252624285220701 0.062186205219749 1.76078670074335
0.127136683967196 0.045483085984819 1.7958358893544
0.185211468161248 0.00543504173544761 1.83560334355522
0.163228063057605 0.0456675350271265 1.8277311095277
-0.303075878451205 0.0911500195853397 1.82009056780866
-0.269879638825511 0.129484296406812 1.82828065238015
0.193605139355268 0.0407170919534783 1.8709864897593
0.165608909136644 0.0798166056951573 1.86260949294003
-0.307752441966738 0.12286411999929 1.86039459907873
-0.276955965844904 0.158896362188549 1.86686130073351
0.192498374438539 0.0703493136480431 1.90477978428445
0.163592776686981 0.111204348552256 1.89870061603536
-0.318906130170962 0.146303568587691 1.90112421104981
-0.28186814896331 0.18617593076471 1.90141546950241
0.191008576672856 0.102063427393813 1.94249353698738
0.162479626034054 0.141617555545519 1.93501389611316
-0.315865455585007 0.183657511191504 1.93694749615899
-0.280015497303733 0.219154088772121 1.93628188644288
0.19024487541203 0.129614591876657 1.97667307134675
0.161730891045115 0.171380487660515 1.97111539846188
-0.313173620293294 0.217636053843029 1.97004687959797
-0.27950345871224 0.253759408295541 1.97589258573187
0.189101939508972 0.160773317130433 2.01462431398887
0.160433736849271 0.201354117199839 2.00660207321779
-0.336709646794788 0.215924400743253 2.00642703779151
-0.307573536627903 0.252693036992357 2.0120824647183
0.18731782844214 0.188769300048327 2.04828700660491
0.157132000881965 0.228654211280588 2.04383123501045
-0.274401193058691 0.28878728929995 2.06916998820182
-0.269333809533092 0.282505479039033 2.02082394771193
-0.236880130652952 0.302911697354906 2.05544238393007
0.134906119108666 0.25632650637486 2.12869075394978
0.14861467853456 0.247384529416501 2.08648110671668
0.108591787100658 0.274738298968634 2.0877325049582
-0.212365150823539 0.308748245539465 2.09555866069217
-0.186810796284686 0.311252302928663 2.05981421027404
-0.171830800920358 0.308401493185887 2.11411779056756
-0.142877417370211 0.309682873704663 2.07318749016597
-0.129353370876175 0.304399201347679 2.12318927660257
-0.0987504834081376 0.306393179511216 2.07825032862087
-0.0825495136323969 0.301460990239465 2.12586954703438
-0.0538833359570994 0.302980378448251 2.08155841077091
-0.0382423489033918 0.297991975716894 2.13179500886608
-0.0102995230986043 0.299667489167389 2.08514336646498
0.00628598568376747 0.295293892457262 2.13369699062679
0.033925729913681 0.296480266333929 2.09292867934303
0.052017268793562 0.288157250400993 2.14838795439002
0.0716985530866509 0.289633764979545 2.10524130675346
-0.175066048091573 0.0901995061615213 1.75787892861205
-0.15243986401694 0.0564597778305794 1.74152464344347
-0.106726629194731 0.0588172296690688 1.74913350826805
-0.0579729621756716 0.0547228651676653 1.75453137196811
-0.0130792606516763 0.0564856350964167 1.76202470498171
0.0323174186434335 0.0557043821912017 1.76849856402211
0.0783648006513001 0.0516780619783322 1.77558295000574
-0.220136919270012 0.0978663801619169 1.76994587732656
-0.17765149793343 0.124447926745869 1.78593472597361
-0.131547594674309 0.100044769319226 1.76948949222993
-0.0805724670744912 0.0932482344332901 1.77312162517444
-0.036276296445679 0.096401147117263 1.78311600715785
0.00825242605043953 0.0963316966831511 1.79086370968834
0.0534565087942091 0.0935117661514899 1.79652595668851
0.0969335836740127 0.0837268537044789 1.8032608190702
0.131578924859502 0.0857100396545457 1.82839358932397
-0.22519177933463 0.131024967891498 1.80323578105887
-0.185418974786769 0.155420464244589 1.8215968361779
-0.139477026792559 0.139933366815427 1.80750955167318
-0.1002231688234 0.124611447098601 1.797661959037
-0.0574577985445095 0.129565434258592 1.81195295375843
-0.0137517700469957 0.130125911086126 1.82144566294498
0.0343845824622497 0.126521207543193 1.82695733324292
0.084268661956715 0.11881547882065 1.83269151390317
0.129076375802339 0.116004789454633 1.86139164920279
-0.232144488215749 0.160780799410726 1.83993199218228
-0.187210865591791 0.185225546207054 1.85613883882039
-0.141125918715402 0.17129592154983 1.8438919632062
-0.0944690550315697 0.155597050925537 1.83494582961062
-0.0475595883596638 0.161923143723832 1.85183496255061
0.00265867772593158 0.158089712897701 1.85749977229655
0.0504858614138606 0.154079667474914 1.86248741053406
0.0926299255483477 0.146214387462929 1.86976478159518
0.12781287723567 0.148081167387318 1.89916751737404
-0.235728208832477 0.18972892372646 1.87433444369583
-0.189834693267918 0.213569401711123 1.88906716389912
-0.14085262570006 0.202911397454522 1.88095879050836
-0.0982322039287758 0.186004081527428 1.86978150617005
-0.0604044709994674 0.194158903724064 1.88697571453712
-0.0156626340028553 0.188520228840257 1.88941980940502
0.0323692950848589 0.185019856495556 1.89503210648922
0.0814601274330521 0.17868753557623 1.90241757845357
0.126679645531368 0.17688139586017 1.93309034100086
-0.239045717073179 0.217883643896568 1.90774304067648
-0.1962710431162 0.241548323261463 1.92200582804189
-0.146244227951072 0.232763294782465 1.91481502655268
-0.0969686107246001 0.221245530300249 1.91129429122005
-0.045415643440893 0.221359974718322 1.92185003040403
0.00277967804863669 0.216882196983971 1.92635175708194
0.0492097361039451 0.213542430066521 1.93189330748934
0.0907495393096479 0.206299078200321 1.94035981021325
0.12577892113017 0.2084224955984 1.97058807582386
-0.243787434508916 0.248143712531245 1.94425975316521
-0.206043969424229 0.269893604596055 1.95677216174909
-0.159051426211538 0.264057105903125 1.94893193372876
-0.11240312316608 0.254496089092485 1.94709975510055
-0.0677235039373186 0.250246440165859 1.95115677304152
-0.018728160115522 0.248102656914928 1.95855283470682
0.0301047404836438 0.244615224730849 1.96434183546977
0.0792334419142081 0.23890078232837 1.97284467804007
0.124112011213911 0.236654092784967 2.00428864728231
-0.239666788020458 0.280073868515533 1.98572290355608
-0.183185446604467 0.290503575394443 1.98672953520185
-0.134424897898846 0.284743988094969 1.98466359399588
-0.0897589743395254 0.280215702552022 1.9876281527547
-0.0448623665677106 0.276303752038306 1.99178549394373
0.00153517940822456 0.273397318042587 1.99809441293509
0.0466316443011748 0.270551866283063 2.00436454813643
0.0873684663240447 0.263635866512648 2.01383088325899
0.119286250254365 0.260892419192986 2.04695349877742
-0.214805543158519 0.300262749653317 2.01833992546672
-0.160660584313134 0.303866291916245 2.02413232926746
-0.114865397639252 0.300537571758545 2.02970252052235
-0.0697728835968611 0.296760754577989 2.0333930633444
-0.0239875330336387 0.292939094668561 2.03722897358052
0.0231813938104822 0.289855245489618 2.04415775901633
0.0701520122763493 0.284573540526177 2.05382699655675
3 0 1 2
3 0 2 4
3 3 0 4
3 3 4 6
3 5 3 6
3 5 6 8
3 7 5 8
3 7 8 10
3 9 7 10
3 9 10 12
3 11 9 12
3 13 11 14
3 14 11 12
3 13 14 15
3 16 17 18
3 16 18 1
3 0 19 1
3 19 16 1
3 0 3 20
3 19 0 20
3 3 5 21
3 20 3 21
3 5 7 22
3 21 5 22
3 7 9 23
3 22 7 23
3 9 11 24
3 23 9 24
3 24 11 25
3 25 11 13
3 13 15 26
3 27 13 26
3 25 13 27
3 27 26 28
3 17 16 30
3 30 16 29
3 29 19 31
3 29 16 19
3 31 20 32
3 31 19 20
3 32 21 33
3 32 20 21
3 21 22 33
3 33 22 34
3 22 23 34
3 34 23 35
3 23 24 35
3 35 24 36
3 24 25 36
3 36 25 37
3 37 27 38
3 37 25 27
3 38 28 39
3 38 27 28
3 30 40 41
3 30 29 40
3 29 31 42
3 40 29 42
3 31 32 43
3 42 31 43
3 32 33 44
3 43 32 44
3 33 34 45
3 44 33 45
3 34 35 46
3 45 34 46
3 35 36 47
3 46 35 47
3 36 37 47
3 47 37 48
3 37 38 48
3 48 38 49
3 49 39 50
3 49 38 39
3 40 51 52
3 41 40 52
3 51 42 53
3 51 40 42
3 42 43 53
3 53 43 54
3 43 44 54
3 54 44 55
3 44 45 55
3 55 45 56
3 45 46 56
3 56 46 57
3 46 47 58
3 57 46 58
3 47 48 59
3 58 47 59
3 48 49 60
3 59 48 60
3 49 50 61
3 60 49 61
3 51 62 63
3 52 51 63
3 51 53 64
3 62 51 64
3 53 54 65
3 64 53 65
3 54 55 66
3 65 54 66
3 55 56 67
3 66 55 67
3 56 57 67
3 67 57 68
3 57 58 69
3 68 57 69
3 58 59 69
3 69 59 70
3 59 60 70
3 70 60 71
3 71 61 72
3 71 60 61
3 62 73 74
3 63 62 74
3 62 64 75
3 73 62 75
3 64 65 75
3 75 65 76
3 65 66 76
3 76 66 77
3 66 67 77
3 77 67 78
3 67 68 78
3 78 68 79
3 79 69 80
3 79 68 69
3 80 70 81
3 80 69 70
3 81 71 82
3 81 70 71
3 82 72 83
3 82 71 72
3 74 73 85
3 85 73 84
3 84 73 86
3 86 73 75
3 75 76 86
3 86 76 87
3 76 77 88
3 87 76 88
3 77 78 89
3 88 77 89
3 78 79 90
3 89 78 90
3 79 80 91
3 90 79 91
3 80 81 92
3 91 80 92
3 81 82 93
3 92 81 93
3 93 83 94
3 93 82 83
3 84 95 85
3 84 86 96
3 97 84 96
3 95 84 97
3 96 87 98
3 96 86 87
3 87 88 98
3 98 88 99
3 88 89 99
3 99 89 100
3 89 90 100
3 100 90 101
3 101 91 102
3 101 90 91
3 102 92 103
3 102 91 92
3 92 93 103
3 105 103 104
3 103 93 104
3 93 94 104
3 96 106 97
3 96 98 107
3 106 96 107
3 98 99 108
3 107 98 108
3 99 100 109
3 108 99 109
3 100 101 110
3 109 100 110
3 101 102 111
3 110 101 111
3 111 102 112
3 112 102 103
3 103 105 112
3 117 114 115
3 116 113 117
3 117 113 114
3 116 117 119
3 118 116 119
3 118 119 121
3 120 118 121
3 120 121 123
3 122 120 123
3 122 123 125
3 124 122 125
3 124 125 127
3 126 124 127
3 126 127 128
3 129 130 131
3 114 129 131
3 114 113 129
3 113 2 129
3 129 2 1
3 4 113 116
3 4 2 113
3 6 116 118
3 6 4 116
3 8 118 120
3 8 6 118
3 10 120 122
3 10 8 120
3 12 122 124
3 12 10 122
3 14 124 126
3 14 12 124
3 133 126 128
3 15 14 126
3 15 126 133
3 132 15 133
3 132 133 134
3 135 136 137
3 137 17 135
3 137 18 17
3 18 137 130
3 129 18 130
3 18 129 1
3 15 132 26
3 139 132 134
3 139 138 132
3 138 28 26
3 132 138 26
3 138 139 140
3 136 135 142
3 142 135 141
3 17 30 135
3 135 30 141
3 143 39 28
3 138 143 28
3 143 140 144
3 143 138 140
3 141 145 146
3 142 141 146
3 41 145 141
3 30 41 141
3 147 39 143
3 147 50 39
3 147 144 148
3 147 143 144
3 145 149 150
3 146 145 150
3 52 149 145
3 41 52 145
3 151 50 147
3 151 155 50
3 151 148 152
3 151 147 148
3 149 153 154
3 150 149 154
3 63 153 149
3 52 63 149
3 155 61 50
3 155 72 61
3 155 151 156
3 156 151 152
3 154 157 158
3 154 153 157
3 74 157 153
3 63 74 153
3 159 72 155
3 159 83 72
3 159 156 160
3 159 155 156
3 158 157 162
3 162 157 161
3 74 85 161
3 157 74 161
3 163 83 159
3 163 94 83
3 163 160 164
3 163 159 160
3 161 165 162
3 165 95 166
3 165 161 95
3 161 85 95
3 165 166 167
3 95 97 166
3 105 104 168
3 170 94 163
3 170 168 94
3 169 168 170
3 94 168 104
3 163 164 170
3 166 171 167
3 173 171 172
3 172 171 106
3 171 97 106
3 171 166 97
3 172 107 174
3 172 106 107
3 174 108 175
3 174 107 108
3 175 109 176
3 175 108 109
3 176 110 177
3 176 109 110
3 177 111 178
3 177 110 111
3 178 112 180
3 178 111 112
3 181 105 168
3 181 180 105
3 179 178 180
3 180 112 105
3 168 169 181
3 172 182 173
3 182 172 183
3 183 172 174
3 174 175 184
3 183 174 184
3 175 176 185
3 184 175 185
3 176 177 186
3 185 176 186
3 177 178 187
3 186 177 187
3 187 179 188
3 187 178 179
3 179 180 229
3 189 190 191
3 114 131 191
3 115 114 191
3 115 191 192
3 115 192 193
3 117 115 193
3 119 193 194
3 119 117 193
3 119 194 121
3 121 194 195
3 121 195 123
3 123 195 196
3 123 196 125
3 125 196 197
3 127 197 198
3 127 125 197
3 128 198 199
3 200 128 199
3 128 127 198
3 200 199 201
3 202 203 204
3 131 130 189
3 190 189 204
3 189 130 202
3 189 202 204
3 131 189 191
3 128 200 133
3 134 200 205
3 206 205 201
3 134 133 200
3 205 200 201
3 205 206 207
3 136 208 203
3 202 137 136
3 202 136 203
3 137 202 130
3 134 205 139
3 139 205 207
3 140 139 207
3 211 207 209
3 136 142 208
3 208 142 210
3 211 140 207
3 211 144 140
3 146 212 210
3 142 146 210
3 148 144 213
3 213 144 211
3 150 214 212
3 146 150 212
3 215 148 213
3 215 152 148
3 154 216 150
3 150 216 214
3 219 152 217
3 217 152 215
3 158 218 216
3 154 158 216
3 219 156 152
3 219 160 156
3 158 220 218
3 158 162 220
3 221 160 219
3 221 164 160
3 162 165 222
3 223 220 222
3 220 162 222
3 165 167 222
3 169 170 224
3 225 164 221
3 224 170 164
3 224 164 225
3 222 226 223
3 167 171 227
3 226 167 227
3 226 227 228
3 226 222 167
3 171 173 227
3 180 181 229
3 181 169 230
3 231 169 224
3 230 169 231
3 230 229 181
3 224 225 271
3 227 232 228
3 232 182 233
3 232 173 182
3 227 173 232
3 182 183 234
3 233 182 234
3 183 184 234
3 234 184 235
3 184 185 235
3 235 185 236
3 185 186 236
3 236 186 237
3 186 187 237
3 237 187 238
3 238 188 239
3 238 187 188
3 188 179 229
3 240 239 188
3 240 188 229
3 229 230 240
3 191 190 242
3 242 190 241
3 192 242 243
3 192 191 242
3 192 243 244
3 193 192 244
3 194 244 245
3 194 193 244
3 194 245 246
3 195 194 246
3 195 246 247
3 196 195 247
3 196 247 248
3 197 196 248
3 197 248 249
3 198 197 249
3 199 198 249
3 250 199 249
3 201 199 251
3 251 199 250
3 204 252 253
3 204 203 252
3 190 253 241
3 190 204 253
3 206 251 254
3 206 201 251
3 207 206 255
3 255 206 254
3 203 256 252
3 203 208 256
3 257 209 255
3 255 209 207
3 210 258 208
3 208 258 256
3 211 209 259
3 259 209 257
3 212 260 210
3 210 260 258
3 213 211 259
3 261 213 259
3 214 262 260
3 212 214 260
3 215 213 261
3 263 215 261
3 216 264 214
3 214 264 262
3 217 215 263
3 265 217 263
3 218 266 264
3 216 218 264
3 219 217 265
3 267 219 265
3 218 268 266
3 218 220 268
3 221 219 267
3 269 221 267
3 223 270 268
3 220 223 268
3 225 221 269
3 271 225 269
3 223 226 272
3 270 223 272
3 272 228 273
3 272 226 228
3 274 231 275
3 274 230 231
3 275 231 271
3 271 231 224
3 273 228 276
3 276 228 232
3 276 233 277
3 276 232 233
3 233 234 278
3 277 233 278
3 234 235 279
3 278 234 279
3 235 236 280
3 279 235 280
3 236 237 281
3 280 236 281
3 237 238 282
3 281 237 282
3 238 239 283
3 282 238 283
3 327 239 284
3 284 239 240
3 240 230 274
3 284 240 274
3 241 285 286
3 242 241 286
3 242 286 243
3 243 286 287
3 243 287 288
3 244 243 288
3 245 288 289
3 245 244 288
3 245 289 246
3 246 289 290
3 246 290 247
3 247 290 291
3 247 291 248
3 248 291 292
3 248 292 293
3 249 248 293
3 249 293 250
3 250 293 294
3 250 294 295
3 251 250 295
3 252 296 297
3 253 252 297
3 241 297 285
3 241 253 297
3 254 295 298
3 254 251 295
3 254 298 299
3 255 254 299
3 256 300 252
3 252 300 296
3 257 255 299
3 301 257 299
3 258 302 300
3 256 258 300
3 259 257 303
3 303 257 301
3 260 304 258
3 258 304 302
3 261 259 303
3 305 261 303
3 262 306 304
3 260 262 304
3 263 261 305
3 307 263 305
3 264 308 262
3 262 308 306
3 265 263 307
3 309 265 307
3 266 310 308
3 264 266 308
3 267 265 309
3 311 267 309
3 266 312 310
3 266 268 312
3 269 267 311
3 313 269 311
3 270 314 312
3 268 270 312
3 271 269 315
3 315 269 313
3 270 272 316
3 314 270 316
3 316 273 317
3 316 272 273
3 318 275 319
3 318 274 275
3 275 271 315
3 319 275 315
3 273 276 320
3 317 273 320
3 276 277 320
3 320 277 321
3 277 278 322
3 321 277 322
3 322 279 323
3 322 278 279
3 279 280 323
3 323 280 324
3 280 281 324
3 324 281 325
3 281 282 325
3 325 282 326
3 282 283 326
3 326 283 327
3 283 239 327
3 327 284 328
3 284 274 318
3 328 284 318
3 285 329 330
3 286 285 330
3 286 330 287
3 287 330 331
3 287 331 332
3 288 287 332
3 288 332 289
3 289 332 333
3 289 333 334
3 290 289 334
3 290 334 335
3 291 290 335
3 291 335 292
3 292 335 336
3 292 336 337
3 293 292 337
3 293 337 294
3 294 337 338
3 294 338 339
3 295 294 339
3 296 340 341
3 297 296 341
3 285 341 329
3 285 297 341
3 298 339 342
3 298 295 339
3 298 342 343
3 299 298 343
3 300 344 296
3 296 344 340
3 301 299 343
3 345 301 343
3 302 346 344
3 300 302 344
3 303 301 347
3 347 301 345
3 304 348 302
3 302 348 346
3 305 303 347
3 349 305 347
3 306 350 348
3 304 306 348
3 307 305 351
3 351 305 349
3 308 352 306
3 306 352 350
3 309 307 353
3 353 307 351
3 310 354 352
3 308 310 352
3 311 309 355
3 355 309 353
3 312 356 310
3 310 356 354
3 313 311 355
3 357 313 355
3 314 358 356
3 312 314 356
3 315 313 359
3 359 313 357
3 314 316 360
3 358 314 360
3 360 317 361
3 360 316 317
3 362 319 363
3 362 318 319
3 319 315 359
3 363 319 359
3 317 320 364
3 361 317 364
3 320 321 364
3 364 321 365
3 321 322 366
3 365 321 366
3 322 323 366
3 366 323 367
3 323 324 368
3 367 323 368
3 324 325 369
3 368 324 369
3 325 326 370
3 369 325 370
3 326 327 371
3 370 326 371
3 327 328 371
3 371 328 372
3 328 318 362
3 372 328 362
3 329 373 374
3 330 329 374
3 330 374 331
3 331 374 375
3 331 375 376
3 332 331 376
3 332 376 333
3 333 376 377
3 333 377 378
3 334 333 378
3 334 378 379
3 335 334 379
3 335 379 336
3 336 379 380
3 336 380 381
3 337 336 381
3 337 381 338
3 338 381 382
3 338 382 383
3 339 338 383
3 340 384 385
3 341 340 385
3 329 385 373
3 329 341 385
3 342 383 386
3 342 339 383
3 342 386 387
3 343 342 387
3 344 388 340
3 340 388 384
3 345 343 387
3 389 345 387
3 346 390 388
3 344 346 388
3 347 345 391
3 391 345 389
3 348 392 346
3 346 392 390
3 349 347 391
3 393 349 391
3 350 394 348
3 348 394 392
3 351 349 395
3 395 349 393
3 352 396 350
3 350 396 394
3 353 351 395
3 397 353 395
3 354 398 396
3 352 354 396
3 355 353 399
3 399 353 397
3 356 400 354
3 354 400 398
3 357 355 399
3 401 357 399
3 358 402 400
3 356 358 400
3 359 357 403
3 403 357 401
3 358 360 404
3 402 358 404
3 404 361 405
3 404 360 361
3 406 363 407
3 406 362 363
3 363 359 403
3 407 363 403
3 361 364 408
3 405 361 408
3 364 365 408
3 408 365 409
3 365 366 410
3 409 365 410
3 366 367 410
3 410 367 411
3 367 368 412
3 411 367 412
3 368 369 412
3 412 369 413
3 369 370 413
3 413 370 414
3 370 371 415
3 414 370 415
3 371 372 415
3 415 372 416
3 372 362 406
3 416 372 406
3 373 417 418
3 374 373 418
3 374 418 375
3 375 418 419
3 375 419 420
3 376 375 420
3 376 420 377
3 377 420 421
3 377 421 422
3 378 377 422
3 378 422 423
3 379 378 423
3 380 423 424
3 380 379 423
3 380 424 425
3 381 380 425
3 382 425 426
3 382 381 425
3 382 426 427
3 383 382 427
3 384 428 429
3 385 384 429
3 373 429 417
3 373 385 429
3 386 427 430
3 386 383 427
3 386 430 431
3 387 386 431
3 384 432 428
3 384 388 432
3 389 387 431
3 433 389 431
3 390 434 432
3 388 390 432
3 435 389 433
3 435 391 389
3 390 436 434
3 390 392 436
3 393 391 435
3 437 393 435
3 394 438 436
3 392 394 436
3 395 393 439
3 439 393 437
3 396 440 438
3 394 396 438
3 397 395 439
3 441 397 439
3 398 442 440
3 396 398 440
3 399 397 443
3 443 397 441
3 400 444 398
3 398 444 442
3 401 399 443
3 445 401 443
3 402 446 444
3 400 402 444
3 403 401 447
3 447 401 445
3 402 404 448
3 446 402 448
3 448 405 449
3 448 404 405
3 450 407 451
3 450 406 407
3 407 403 447
3 451 407 447
3 405 408 452
3 449 405 452
3 408 409 452
3 452 409 453
3 409 410 454
3 453 409 454
3 410 411 454
3 454 411 455
3 411 412 456
3 455 411 456
3 412 413 456
3 456 413 457
3 457 414 458
3 457 413 414
3 414 415 459
3 458 414 459
3 415 416 459
3 459 416 460
3 416 406 450
3 460 416 450
3 418 461 462
3 418 417 461
3 419 462 463
3 419 418 462
3 419 463 464
3 420 419 464
3 420 464 421
3 421 464 465
3 421 465 466
3 422 421 466
3 422 466 467
3 423 422 467
3 424 467 468
3 424 423 467
3 424 468 469
3 425 424 469
3 426 469 470
3 426 425 469
3 427 426 471
3 471 426 470
3 429 428 473
3 473 428 472
3 417 473 505
3 417 429 473
3 430 427 471
3 520 430 471
3 431 474 475
3 431 430 474
3 428 476 472
3 428 432 476
3 433 431 475
3 477 433 475
3 434 478 476
3 432 434 476
3 479 433 477
3 479 435 433
3 434 480 478
3 434 436 480
3 437 435 479
3 481 437 479
3 438 482 436
3 436 482 480
3 439 437 483
3 483 437 481
3 440 484 482
3 438 440 482
3 441 439 483
3 485 441 483
3 442 486 440
3 440 486 484
3 443 441 487
3 487 441 485
3 444 488 442
3 442 488 486
3 445 443 487
3 489 445 487
3 444 446 488
3 488 446 490
3 491 445 489
3 491 447 445
3 490 446 492
3 492 446 448
3 492 449 493
3 492 448 449
3 494 451 495
3 494 450 451
3 451 447 491
3 495 451 491
3 449 452 496
3 493 449 496
3 496 453 497
3 496 452 453
3 453 454 498
3 497 453 498
3 498 455 499
3 498 454 455
3 455 456 500
3 499 455 500
3 456 457 501
3 500 456 501
3 457 458 502
3 501 457 502
3 458 459 503
3 502 458 503
3 503 460 504
3 503 459 460
3 504 460 494
3 494 460 450
3 461 505 506
3 462 461 506
3 507 463 462
3 507 462 506
3 465 463 508
3 508 463 507
3 464 463 465
3 465 508 509
3 465 509 466
3 466 509 510
3 466 510 467
3 467 510 511
3 467 511 468
3 468 511 512
3 468 512 513
3 469 468 513
3 469 513 470
3 515 470 514
3 470 513 514
3 470 515 471
3 472 516 473
3 518 516 517
3 518 505 516
3 461 417 505
3 505 473 516
3 505 518 506
3 515 514 519
3 474 430 520
3 521 520 519
3 520 471 515
3 520 515 519
3 474 520 524
3 476 522 472
3 516 472 523
3 472 522 523
3 516 523 517
3 520 521 524
3 477 475 524
3 524 475 474
3 525 477 524
3 478 526 522
3 476 478 522
3 527 477 525
3 527 479 477
3 478 528 526
3 478 480 528
3 481 479 527
3 529 481 527
3 482 530 480
3 480 530 528
3 483 481 531
3 531 481 529
3 484 532 530
3 482 484 530
3 485 483 531
3 533 485 531
3 486 534 484
3 484 534 532
3 535 485 533
3 535 487 485
3 486 536 534
3 486 488 536
3 537 489 535
3 535 489 487
3 490 538 539
3 536 490 539
3 488 490 536
3 538 540 539
3 541 542 543
3 541 489 537
3 542 541 537
3 541 491 489
3 490 492 538
3 545 493 544
3 538 492 493
3 538 493 545
3 540 538 545
3 544 546 545
3 547 548 549
3 543 495 541
3 547 494 495
3 547 495 543
3 608 547 543
3 495 491 541
3 493 496 544
3 544 497 550
3 546 544 550
3 544 496 497
3 550 497 551
3 551 497 498
3 498 499 551
3 551 499 552
3 499 500 552
3 552 500 553
3 500 501 553
3 553 501 554
3 554 502 555
3 554 501 502
3 502 503 556
3 555 502 556
3 503 504 556
3 549 504 547
3 556 504 549
3 504 494 547
3 506 557 507
3 507 557 558
3 508 507 558
3 508 558 559
3 509 508 559
3 509 559 560
3 510 509 560
3 510 560 561
3 511 510 561
3 511 561 562
3 512 511 562
3 514 512 563
3 563 512 562
3 513 512 514
3 517 564 518
3 518 564 557
3 566 564 565
3 557 564 566
3 557 506 518
3 558 566 567
3 558 557 566
3 559 567 568
3 559 558 567
3 560 568 569
3 560 559 568
3 561 569 570
3 561 560 569
3 562 570 571
3 562 561 570
3 563 562 571
3 572 563 571
3 574 514 563
3 572 574 563
3 573 519 574
3 574 519 514
3 519 573 521
3 522 575 523
3 577 575 576
3 577 517 575
3 564 517 577
3 575 517 523
3 564 577 565
3 573 574 572
3 521 573 579
3 580 573 578
3 579 573 580
3 579 524 521
3 524 579 525
3 522 581 575
3 522 526 581
3 576 581 582
3 576 575 581
3 583 580 584
3 583 579 580
3 583 525 579
3 583 527 525
3 526 585 581
3 526 528 585
3 582 585 586
3 582 581 585
3 587 584 588
3 587 583 584
3 587 527 583
3 587 529 527
3 528 589 585
3 528 530 589
3 586 589 590
3 586 585 589
3 591 588 592
3 591 587 588
3 591 529 587
3 591 531 529
3 532 593 589
3 530 532 589
3 590 593 594
3 590 589 593
3 595 592 596
3 595 591 592
3 595 531 591
3 595 533 531
3 534 597 593
3 532 534 593
3 594 597 598
3 594 593 597
3 599 596 600
3 599 595 596
3 599 533 595
3 599 535 533
3 534 601 597
3 534 536 601
3 602 597 601
3 602 598 597
3 603 599 600
3 604 603 600
3 603 535 599
3 603 537 535
3 536 539 601
3 606 540 605
3 606 602 540
3 602 601 539
3 540 602 539
3 605 607 606
3 608 609 610
3 608 543 609
3 604 542 603
3 609 543 542
3 609 542 604
3 542 537 603
3 540 545 605
3 605 546 607
3 612 607 611
3 605 545 546
3 607 546 611
3 612 613 614
3 612 611 613
3 614 615 616
3 614 613 615
3 616 617 618
3 616 615 617
3 618 619 620
3 618 617 619
3 620 621 622
3 620 619 621
3 622 623 624
3 622 621 623
3 610 548 608
3 624 623 548
3 624 548 610
3 548 623 549
3 548 547 608
3 546 550 611
3 611 550 613
3 613 550 551
3 551 552 615
3 613 551 615
3 552 553 617
3 615 552 617
3 553 554 619
3 617 553 619
3 554 555 621
3 619 554 621
3 621 555 623
3 623 555 556
3 556 549 623
3 565 625 626
3 567 566 626
3 626 566 565
3 567 626 627
3 568 567 627
3 568 627 628
3 569 568 628
3 569 628 629
3 570 569 629
3 570 629 630
3 571 570 630
3 572 571 631
3 631 571 630
3 572 631 578
3 576 632 577
3 625 632 633
3 565 577 632
3 565 632 625
3 625 633 634
3 626 625 634
3 626 634 627
3 627 634 635
3 627 635 628
3 628 635 636
3 628 636 629
3 629 636 637
3 629 637 630
3 630 637 638
3 631 638 639
3 631 630 638
3 640 578 639
3 578 573 572
3 578 631 639
3 578 640 580
3 576 641 632
3 576 582 641
3 633 641 642
3 633 632 641
3 633 642 643
3 634 633 643
3 634 643 644
3 635 634 644
3 635 644 645
3 636 635 645
3 636 645 646
3 637 636 646
3 637 646 647
3 638 637 647
3 638 647 648
3 639 638 648
3 640 648 649
3 640 639 648
3 584 580 640
3 649 584 640
3 582 650 641
3 582 586 650
3 642 650 651
3 642 641 650
3 642 651 652
3 643 642 652
3 643 652 653
3 644 643 653
3 644 653 645
3 645 653 654
3 645 654 646
3 646 654 655
3 646 655 647
3 647 655 656
3 647 656 648
3 648 656 657
3 648 657 649
3 649 657 658
3 588 584 649
3 658 588 649
3 586 659 650
3 586 590 659
3 650 659 651
3 651 659 660
3 651 660 661
3 652 651 661
3 652 661 662
3 653 652 662
3 653 662 654
3 654 662 663
3 654 663 664
3 655 654 664
3 655 664 665
3 656 655 665
3 656 665 666
3 657 656 666
3 657 666 658
3 658 666 667
3 592 588 658
3 667 592 658
3 590 668 659
3 590 594 668
3 660 668 669
3 660 659 668
3 660 669 670
3 661 660 670
3 661 670 671
3 662 661 671
3 662 671 663
3 663 671 672
3 663 672 664
3 664 672 673
3 664 673 665
3 665 673 674
3 665 674 666
3 666 674 675
3 666 675 667
3 667 675 676
3 596 592 667
3 676 596 667
3 594 677 668
3 594 598 677
3 668 677 669
3 669 677 678
3 669 678 679
3 670 669 679
3 670 679 680
3 671 670 680
3 671 680 681
3 672 671 681
3 672 681 682
3 673 672 682
3 673 682 683
3 674 673 683
3 674 683 684
3 675 674 684
3 676 684 685
3 676 675 684
3 600 596 676
3 685 600 676
3 598 686 677
3 598 602 606
3 678 686 687
3 678 677 686
3 678 687 679
3 679 687 688
3 679 688 680
3 680 688 689
3 680 689 681
3 681 689 690
3 681 690 682
3 682 690 691
3 683 691 692
3 683 682 691
3 684 692 693
3 684 683 692
3 685 693 694
3 685 684 693
3 694 604 685
3 685 604 600
3 598 606 686
3 606 607 695
3 686 606 695
3 686 695 687
3 688 687 696
3 696 687 695
3 688 696 697
3 689 688 697
3 689 697 698
3 690 689 698
3 690 698 699
3 691 690 699
3 691 699 700
3 692 691 700
3 692 700 701
3 693 692 701
3 610 609 694
3 701 610 694
3 701 694 693
3 609 604 694
3 607 612 695
3 695 612 696
3 696 612 614
3 614 616 697
3 696 614 697
3 616 618 698
3 697 616 698
3 618 620 699
3 698 618 699
3 620 622 700
3 699 620 700
3 622 624 701
3 700 622 701
3 624 610 701
