OFF
702 1400 0
-0.252526069548842 -0.346701629225573 2.13905354020361
-0.29806837816255 -0.332554446533165 2.12191504896309
-0.269837926808303 -0.35053044557636 2.09359068985764
-0.2055950100204 -0.353126542326715 2.14341232044361
-0.223805648057015 -0.361115426516861 2.09830832617818
-0.158743889309614 -0.35753750092824 2.14629704978256
-0.177377802182082 -0.365061435249708 2.10019255612535
-0.113327348183518 -0.361363272408652 2.15041247463563
-0.132016530096262 -0.368794183921296 2.10178899187757
-0.0683971685630853 -0.365013419086963 2.15489305344896
-0.0872218307866892 -0.372243895040731 2.10619839013101
-0.0208623648723221 -0.368000619641041 2.16230576286795
-0.0413973183655609 -0.375499941897365 2.11446948608216
0.0272172066991824 -0.363536197225257 2.17077475637332
0.00594374072963143 -0.377076740957872 2.12333516510118
0.0524029163942618 -0.368198010571599 2.13242340108463
-0.320861554562407 -0.305435106380229 2.15140237987442
-0.350757071586855 -0.287125007958233 2.12478141408394
-0.329376870081128 -0.315678664607205 2.09501105996198
-0.280270782969013 -0.321928701127458 2.17034922108257
-0.233491624873089 -0.331080008501378 2.18188385515499
-0.185747971802113 -0.336145382684874 2.18541948251367
-0.138941394466759 -0.339908560449437 2.19054686159678
-0.0936894700968479 -0.343155455593816 2.19614869975414
-0.0493470096081296 -0.348254801378972 2.19842259934952
-0.000683848803376672 -0.348953680315503 2.20557817184393
0.0730560892588902 -0.347252167588011 2.17708227240188
0.0444204516210765 -0.33678736182564 2.21379359195637
0.0903543318663852 -0.316166709664416 2.21231003472612
-0.308022906432328 -0.286323719600542 2.19381872859221
-0.348345461565383 -0.264979131392628 2.16678562808975
-0.261929645994539 -0.300156121385907 2.2107107222301
-0.211926482249979 -0.306436529590107 2.21843320578937
-0.164287850113285 -0.310588628479891 2.22340513981491
-0.116638035054153 -0.312926910380962 2.23042426701005
-0.0719044686206551 -0.315548697214603 2.23653187848581
-0.0295907069604955 -0.324487222353589 2.2350318359841
0.0116980489730449 -0.316356106965421 2.24597523358288
0.0572512577131955 -0.302638514253129 2.24791383144111
0.101879301861307 -0.27969993657242 2.24230338587055
-0.326535324417689 -0.250161211579622 2.21609765771756
-0.359884259140373 -0.227809044122156 2.19061597025743
-0.285427080527289 -0.265649492929964 2.2365441393479
-0.236322487788584 -0.276331810199993 2.24722551471385
-0.18753180334861 -0.278420786256809 2.2549467776878
-0.140038461894 -0.282978038345753 2.25943353596898
-0.0885210384552619 -0.283791599716769 2.26895353455771
-0.033596353523025 -0.292767319122745 2.26996562656918
0.0167974241763238 -0.285451431063553 2.27952485797625
0.0671499347357537 -0.269464861452263 2.27881192780724
0.111686054639307 -0.242680798408294 2.27198912781069
-0.310749162942265 -0.227778304469552 2.25962867849784
-0.351396384967757 -0.208923655417269 2.22939700277972
-0.261364696299772 -0.245204648948342 2.2737086185028
-0.213924914146661 -0.247559658178101 2.28437852580291
-0.168362973595662 -0.24855911988183 2.29248290804526
-0.124357744158903 -0.256049578762074 2.29295716006845
-0.0909095315921302 -0.24467421439756 2.31255216296874
-0.0559438503257845 -0.263074814907309 2.29890017686924
-0.0136408671325286 -0.259696334838517 2.3098345419343
0.0342126370358905 -0.252830537067068 2.31139694033568
0.0821086201337036 -0.233463742761551 2.3079764215999
-0.314178378119099 -0.189075954612707 2.30154611025158
-0.342249662999998 -0.189982891417291 2.26665374656312
-0.281083450360778 -0.215002156176535 2.29774409182143
-0.233971581674922 -0.217686841645069 2.31397502558575
-0.189222868472438 -0.21653149588897 2.32435093156574
-0.140267927297587 -0.221295168222892 2.32890006724869
-0.0948598463319641 -0.215795292800573 2.34429777809668
-0.0473499892979343 -0.228574431932537 2.33952138838771
0.000678791558135577 -0.228222662710829 2.34486063972982
0.0483854534235961 -0.220373464159911 2.34167113290856
0.0956671936357188 -0.197534083396483 2.33549890252915
-0.303712526622758 -0.166095083872202 2.33785086621364
-0.347971485465463 -0.152210813393381 2.30332912336322
-0.264854264694224 -0.190130813010948 2.33495209429052
-0.218908329101083 -0.184365219299744 2.35458512840724
-0.168829279451775 -0.188693705736473 2.35985350770159
-0.123018297107674 -0.188498494241852 2.36935527612335
-0.0714485039582835 -0.19236777138589 2.37544207379633
-0.0264532901560139 -0.198609476418741 2.37714316761236
0.0199000227001532 -0.195396043826767 2.37845002614913
0.063764158654332 -0.187393035399904 2.36972776674501
0.0999577026977833 -0.161388563630513 2.36974238076715
-0.299177644743194 -0.127903827694606 2.37535538392706
-0.33301411317794 -0.135439239991956 2.3418881378591
-0.265526083371974 -0.157625913754081 2.36953872659211
-0.231007081535299 -0.146274455580822 2.38781959942522
-0.188204525204042 -0.154586153051374 2.38906104280595
-0.143069820922989 -0.154810558095516 2.39676195839035
-0.0958282270117523 -0.158116878055608 2.40250125129517
-0.047180503954515 -0.162181034524159 2.40792447197531
0.00113045035592522 -0.165031820751252 2.40946281280295
0.0526595827348463 -0.158633173012058 2.40205918549025
0.0997817423951959 -0.126811825641826 2.3956360090574
-0.340655214332767 -0.0970065563623505 2.36054041011125
-0.262071864522522 -0.109412814327478 2.40205017197401
-0.305798672464621 -0.0847539181322805 2.3922883939275
-0.212587374299477 -0.11011024103005 2.4112441256589
-0.166509168050646 -0.114814312164883 2.41612010819052
-0.119814188810893 -0.115834657415197 2.42267692970473
-0.0739721822521342 -0.120409936510899 2.42758349519019
-0.0272609001828954 -0.124881134858997 2.43237603749882
0.0194137181578989 -0.12618892049715 2.43023316945206
0.0636980074469611 -0.11922690176996 2.4202984461844
0.045212787625989 -0.0812306402853556 2.43858421459494
-0.279071234874872 -0.0583873546681491 2.41138314862553
-0.236552036597655 -0.0676905777461228 2.42092017789173
-0.187496760444113 -0.0695599593980227 2.42704144726493
-0.141722700783131 -0.070704595545015 2.43282246925449
-0.095416217448743 -0.0721642994447196 2.43859382981568
-0.0507952107522425 -0.0788665296137618 2.44326031309027
-0.00305134455753241 -0.0831068820149842 2.44601714393294
-0.247862223686729 -0.356440717620298 2.05403222368819
-0.271767697680153 -0.341094390097353 2.01921778527956
-0.248300698778903 -0.332557861218156 1.98198651914123
-0.198207188269693 -0.362683402926128 2.05437411827026
-0.219919310061848 -0.352037937709058 2.01373825892664
-0.152135245740706 -0.365292687432405 2.05359269010911
-0.171768627501612 -0.352017266974126 2.00816378337247
-0.106700136677766 -0.368249511355534 2.05599622058039
-0.126446956280803 -0.353519931451374 2.00877775016454
-0.0613416708959545 -0.372055221651694 2.06353315603599
-0.0788434419332072 -0.357292443026177 2.01475499469494
-0.0163951276849782 -0.376194635093065 2.07374544866523
-0.0330888482944337 -0.362253791187218 2.0237612857393
0.0296603083384251 -0.375011628898882 2.08232506252826
0.0111606591312384 -0.366786427179092 2.03487628050091
0.0590510106570725 -0.360090356884334 2.04415804058936
-0.299522361546355 -0.336772893145186 2.06272952710596
-0.338159466895183 -0.305778323483955 2.04809908494658
-0.308549668098262 -0.319872005011136 2.0150247219109
0.0970326585760631 -0.348003691764125 2.13751381105713
0.0727755166300147 -0.363539319966676 2.09209307828055
0.112344926497976 -0.342044916858543 2.09503397605613
-0.376216835895174 -0.251179432074638 2.11672514666276
-0.386637612669528 -0.236597895705978 2.06773837925003
-0.363649151139368 -0.279527041449652 2.07882127558604
0.118014054564144 -0.321155405608147 2.17231619521221
0.138554391169322 -0.317528964531985 2.12808058580907
0.155555932103017 -0.287416824390112 2.15671823056132
-0.378454341172513 -0.223976610035174 2.14943948260624
-0.394425303285961 -0.205930069243792 2.10389597179915
0.131806290098413 -0.286621113881049 2.20210713403386
0.162717118480758 -0.249489181278609 2.18905380913462
-0.382301811276063 -0.18696395025857 2.18497401053421
-0.395055311443817 -0.177727624794154 2.14160177827224
0.13953958167648 -0.247546344157761 2.23189937736061
0.169016538538508 -0.20873028450713 2.21514274224634
-0.376810409475712 -0.169584711296211 2.22357995372119
-0.397425239938828 -0.139417942484642 2.18267980909496
0.148073184082377 -0.207674977120284 2.25917256306637
0.173314276266132 -0.16804794409157 2.24324270096049
-0.368960831701474 -0.153272069765663 2.26325314804761
-0.392908986573181 -0.123669867648044 2.22871623780613
0.124879371654566 -0.202752709310257 2.29868155851892
0.157248414239983 -0.163805389201103 2.28621320929305
-0.382856108158328 -0.113957526091988 2.27721722628136
-0.401274813938153 -0.0783662885728273 2.24753939802101
0.1321777564553 -0.164178544225575 2.32896790212987
0.1622317841938 -0.125078533372724 2.31371521944778
-0.367337286201903 -0.108182391703196 2.31900003145139
-0.391750024228545 -0.0692995334434787 2.29535130995112
0.135529116599443 -0.128231038601092 2.35892637771795
0.159075263022757 -0.0895524696350931 2.34692814883389
-0.370343908001112 -0.0639049786502678 2.33849656377631
-0.338275032497909 -0.0541355933234638 2.37646674818851
-0.358175354045312 -0.0199359263676505 2.35834473716817
0.0923974090107468 -0.0809061782758271 2.4178069482882
0.115565721894301 -0.0408310667687847 2.40538486477424
0.129165315592839 -0.0874878803074327 2.38702640172161
-0.312884496797008 -0.0273532809319987 2.39687504625051
-0.260443619047096 -0.0174868363075482 2.41916287210436
-0.292496362969186 0.0113371119856641 2.40306170479092
-0.210821533141349 -0.0263173373324485 2.42753010002117
-0.163579582353659 -0.0234767985835927 2.4327937955281
-0.116966805152233 -0.0249295706463452 2.43812630871645
-0.070140051813489 -0.0264476622711324 2.44346607224784
-0.0271470362455883 -0.0372712595142016 2.44888801784865
-0.00181071697810019 -0.000527127553406392 2.44457054990741
0.0235434003122937 -0.0406790742733972 2.44689503888781
0.072249357675263 -0.0395410575662278 2.43199603793704
-0.259095057450873 0.0406156876095779 2.40653414746245
-0.227404790728277 0.0164514446591881 2.42009135007528
-0.18330207352029 0.0217741169208523 2.42297335820628
-0.137211446819965 0.0217506769440429 2.42734496419709
-0.0905226305713783 0.0196752544535948 2.43236386535091
-0.0421134575725527 0.017885300145179 2.43743729694536
0.0136882103322333 0.0372495899787643 2.43048032639167
-0.336361020272175 -0.287886231065004 1.99936593970009
-0.320147452163116 -0.27331563306187 1.96073127178377
-0.289419741254529 -0.309441894692446 1.97359156306809
-0.240643503858338 -0.309200371572659 1.94662529606554
-0.198602523585926 -0.333340262276334 1.97205862283474
-0.148090796102626 -0.328664062412658 1.96543493500335
-0.0980930539568895 -0.333941142104049 1.97335810862628
-0.0460249433471978 -0.338075058927473 1.97973176262017
-0.000698525018480903 -0.343773827933546 1.98830487310037
0.0434244345484705 -0.347417876455093 2.00424603486561
0.0857960021180224 -0.329221637113209 2.00365185937655
0.0985886127290877 -0.343715352296556 2.05134015010852
0.125104308941719 -0.317058007585883 2.03397281017589
-0.366267445873785 -0.26653555282321 2.03314011858501
-0.384042446825146 -0.219939131370847 2.02101529726621
-0.360564248467818 -0.246116564774275 1.99035417140132
0.141775378618017 -0.31504639206057 2.07857273443397
0.157592026107017 -0.285717840932448 2.04775005215397
0.167639402991727 -0.283380859503533 2.10295926153553
-0.398301845783931 -0.187637621500655 2.05808686555567
0.187306497196417 -0.241088816607651 2.10100402568359
-0.401346752671241 -0.157232158520374 2.09120915204079
0.179396862910656 -0.249632842837771 2.14337277136062
-0.402363638649571 -0.135801796835306 2.13433444572042
0.184943304847203 -0.20801347790551 2.16784960878868
-0.404509718404342 -0.0962640565182816 2.15054067718581
0.187449874074876 -0.168175509766598 2.19251239077429
-0.404424269076198 -0.0892741993301232 2.19789958017038
0.18801950587779 -0.131285752968397 2.22040047046757
-0.407658142064534 -0.0419242879274169 2.21713289435829
0.180222393858135 -0.119462092862912 2.26604744326822
-0.403805200770057 -0.0317848709139617 2.26767736937791
0.180352431114159 -0.0810743385359635 2.2994904719296
-0.386961688218023 -0.0241061291057457 2.31581237413694
-0.393484528529742 0.0136582302138713 2.28746414108007
0.148775094527322 -0.0454200068249213 2.37138649645335
0.173053140138001 -0.0483968251154115 2.3302687332823
-0.36971964475913 0.0188309361771379 2.33368648570242
-0.334872081864909 0.0139265848825869 2.37482371415443
-0.341931664184639 0.0558512513751967 2.3477656854392
0.0480606782969158 0.00136266383006936 2.4354320612003
0.0945101000395721 0.00162144971732492 2.41376369830327
0.133375837019487 0.000121362076076437 2.38166654936327
-0.305114421441384 0.0517594818545863 2.38108397348007
-0.264630745207474 0.0784778401085156 2.38468970555591
-0.212107249520711 0.0624970289803483 2.40403040291997
-0.163068338896115 0.0646080542530305 2.40657339604836
-0.115719484822284 0.0635084039363725 2.41068015645969
-0.0683480381081624 0.060295465243432 2.41601260272445
-0.0223578398618948 0.0609098585901817 2.41890583536018
0.0312570398698864 0.0722768762108583 2.40634791161627
0.0650421009142484 0.0403255983558457 2.41429535111969
-0.308928886192693 -0.241032199587221 1.92582083025613
-0.277448187474519 -0.280374816456599 1.93467740222755
-0.229004605070566 -0.277168770667759 1.91443406576166
-0.191664975831709 -0.305702209997182 1.9373119634216
-0.148027589354906 -0.293577310073057 1.92812974297641
-0.107781944890797 -0.301382204463312 1.93711210008496
-0.0607535111036759 -0.310284300288629 1.94748145683681
-0.00457629586446875 -0.31141926203719 1.95120669760717
0.0429975901112554 -0.321142171009258 1.96837271101418
0.0882328852641189 -0.297391424792874 1.96773613611814
0.126262115732508 -0.293319545231248 1.99994034318519
-0.37233824087721 -0.193651819544565 1.97732590471978
-0.344525749139999 -0.230988951155931 1.95566960038587
0.159011850053074 -0.257293529641791 2.0105572080087
0.17928670234961 -0.25009913747724 2.05882567804594
-0.391366328177292 -0.172256923043788 2.01734772000122
0.195808971812852 -0.202487880441172 2.07353299014671
-0.39667051357584 -0.131827684605345 2.04699145547004
0.194868979517916 -0.200547708092289 2.12328941216179
-0.400543754222379 -0.10879455308432 2.09489555233272
0.195556184007921 -0.158388748648714 2.14574068147165
-0.399674530349555 -0.0655047210216673 2.11543881533659
0.195286947685474 -0.119568400971033 2.1731010774298
-0.40452474903961 -0.0504538694734804 2.16659116624379
0.192278625250071 -0.0890490420389202 2.21847098218502
-0.403377657466369 -0.00537017456041232 2.18585273520657
0.189235326926126 -0.0679586557367087 2.2580408362653
-0.404760649539359 0.00456096554732566 2.23730933823365
0.184382804564572 -0.0247338634500827 2.29384652030441
-0.389705995788479 0.0493845744988742 2.25676591378023
0.16318419295042 -0.00553452525602795 2.34163603723587
-0.370919390393246 0.056036743923064 2.30440414762318
-0.338047822476847 0.0928741565547089 2.3170298301126
0.107330711698443 0.0415549164154602 2.386593755551
0.142565219295962 0.037670576285326 2.35032233634643
-0.304088089086167 0.0905288034523144 2.35393235809997
-0.260533487112275 0.116874261440059 2.35301561314536
-0.224895676872322 0.0981733351850811 2.37905241009711
-0.179993493289946 0.102021013019366 2.37825463141969
-0.135874674648082 0.102430293232928 2.38006662958557
-0.0891430519441865 0.0984931527980103 2.38590367675486
-0.0458374296323001 0.0982923940657355 2.38822270373004
-0.00322089803226613 0.0963601594334667 2.39152771457862
0.0744456174992133 0.0785105752260165 2.38323431178968
-0.305529536876725 -0.206220920437701 1.89736712444823
-0.267037728649413 -0.245333452556609 1.90145011595438
-0.220132349731539 -0.242454276785717 1.88311356291268
-0.180455139921599 -0.268655535481188 1.90419217416843
-0.126620864895526 -0.25952978434745 1.89867213769553
-0.0807089779895627 -0.271940998113717 1.91206319170864
-0.0350316239603485 -0.28364587808115 1.92480984220349
0.00836766216551628 -0.271768365560801 1.91630863181353
0.046029765314773 -0.288743090014112 1.93816912542893
0.0926249234508765 -0.262671149385648 1.93562949216066
0.129332944971053 -0.26144456888838 1.96834946773152
-0.367360906177736 -0.155829999815925 1.94748757132625
-0.343009943233189 -0.196531859706766 1.93118177005493
0.164942742054273 -0.223257312489143 1.9799595435879
0.185086208102836 -0.215521861964265 2.0263809585354
-0.386520461360544 -0.139502073255299 1.99197313848491
0.202094744397165 -0.168119506563366 2.04530960723443
-0.389975728033096 -0.0943383387818867 2.01410588042161
0.201297053071788 -0.157587947395421 2.09729276698873
-0.394328028491251 -0.0792076932338899 2.06099436262164
0.201748619742592 -0.111820830901416 2.12300348326358
-0.393541231544501 -0.0338347862799939 2.08358910577393
0.199135148300518 -0.0751052398979582 2.1689932862452
-0.398135436578664 -0.0175423346062974 2.13328676182091
0.197282911464391 -0.0443929874126366 2.20462227142554
-0.397130306226068 0.0286923524708438 2.15457080304557
0.193677300503221 -0.0256031915244612 2.24722576510948
-0.398503543286371 0.040063163872616 2.2064975022382
0.190105810326123 0.0171837596927023 2.26313267959517
-0.383356661468657 0.0845223643266654 2.22573441797817
0.171952272803261 0.024987019280581 2.30814521683992
-0.36475668731512 0.091270807021882 2.27332136598577
-0.330929395850387 0.128657228979102 2.28617752246415
0.114165024535714 0.0786534584749095 2.35391511660894
0.15013776292897 0.0716498087443797 2.31816467812293
-0.297693184634297 0.126092743275439 2.32258212016932
-0.249047064793131 0.151018283447586 2.32471864644474
-0.208822371576825 0.132396849190934 2.34960651581677
-0.157850948172345 0.139007313077816 2.34619982353224
-0.105175906549941 0.132402400262523 2.35472135800558
-0.0567926980729048 0.133852089826373 2.35581220659092
-0.0107076812776089 0.13167477966591 2.36003975439579
0.0370967574335839 0.110840508552098 2.37280058417539
0.0784402830008116 0.116184435250479 2.3513723632713
-0.299911505445947 -0.172057852861661 1.8675067369317
-0.262036263903204 -0.210198200599737 1.87093447882651
-0.214083016418071 -0.209238274221087 1.85362402920852
-0.169242395667604 -0.235854005421645 1.87534717673305
-0.121994336866448 -0.221069443084311 1.86443141995598
-0.0799604861120078 -0.235541839911025 1.87947875715708
-0.0353440563979532 -0.249082275911736 1.89381743863348
0.0110267372360741 -0.234824178477488 1.88332929679109
0.0541715656813151 -0.252157549877936 1.90620463310173
0.099684975963617 -0.227036542820679 1.90446326039489
0.135515036376972 -0.227917863125866 1.93878696271989
-0.360807083278114 -0.120048117406701 1.91548455858287
-0.337570603514576 -0.163301046396608 1.9024106167904
0.1713597484975 -0.188993034994609 1.95009410811334
0.191742292064963 -0.180307740815946 1.99649641878588
-0.380052558530563 -0.106776783093356 1.9608478190681
0.208287469291256 -0.13396780073788 2.01628575503325
-0.383583568102405 -0.0618711445632796 1.98056046297017
0.207317807416024 -0.122201925782641 2.06880275995914
-0.387944267353151 -0.041760790310752 2.03073631139231
0.20872564583074 -0.0768150051003701 2.08610386616595
-0.387966265014181 0.00284565818915789 2.059723168023
0.204667279182289 -0.0616773503866887 2.13048681373499
-0.39192730071377 0.0182678568404668 2.10346777130096
0.204207579111905 -0.0191715325989899 2.16185860479071
-0.390689290296065 0.0627476876932373 2.12163441288697
0.200306659360371 0.00422058514902693 2.21022785082944
-0.39245421709862 0.0739747018249226 2.17478774140051
0.197336765769546 0.049419195708222 2.22943243248532
-0.377115134612111 0.118891085926834 2.19552467981199
0.177575365245093 0.0629035150733242 2.27700783480177
-0.357961289503769 0.126519164094354 2.24306683494863
-0.322529225856765 0.163825065292407 2.25763662985164
0.119684444172403 0.11440860030891 2.32301259413416
0.155641656649813 0.107945242235103 2.28736101854115
-0.287801769914838 0.160982954412173 2.2943472625695
-0.239404381292175 0.185257757829193 2.29551744912388
-0.198039425520293 0.165763266946981 2.32023461573403
-0.153147090125534 0.179815518117767 2.30985901966259
-0.1160082203031 0.163599193129014 2.32622663760692
-0.068315043916223 0.166806675596819 2.32570786082548
-0.0179360899733577 0.167321022208625 2.32773547917852
0.0321372560854422 0.146947478963271 2.3435148574966
0.0798494986516295 0.151057657087456 2.3230353669245
-0.293584717131173 -0.137836661051543 1.83698742737668
-0.256349472171302 -0.175420705941674 1.84036130355625
-0.210055584898934 -0.17501032586598 1.82366439248244
-0.165812711111194 -0.201758706884053 1.84495996826508
-0.116080597419197 -0.184717035534055 1.83214277066478
-0.0740609658739857 -0.198373287843777 1.84645755961391
-0.0321267469111177 -0.213458740870273 1.86204973495796
0.0141782724551582 -0.198199952765014 1.85066119435577
0.0576633333868628 -0.217442504635138 1.87453421237385
0.102995343724948 -0.193512064363312 1.87285738259588
0.141828705814102 -0.193899702275831 1.90884186508072
-0.355714501516428 -0.0836063313538141 1.88620891352975
-0.331294444796645 -0.129638917750465 1.87223787904989
0.17741844631292 -0.154876535640082 1.91966562242026
0.198024915686419 -0.145676478302738 1.96600439472757
-0.374013433405093 -0.0701750946439481 1.9302980359204
0.21428744636791 -0.100251545088105 1.98490063782718
-0.376606256434985 -0.0222106150012632 1.94667064882556
0.213865159611064 -0.0871675264734347 2.0355846747302
-0.38128563448572 -0.0155892080294746 1.99085444008177
0.214687746414751 -0.0389794544428332 2.05968930154589
-0.382599262565183 0.0147802306558883 2.02166380937432
0.210141956254381 -0.024475557714766 2.10782727230204
-0.384917730979726 0.0536101936836135 2.06651383818675
0.210835177404165 0.0194638683841288 2.13028845569778
-0.384660494797086 0.0961689211449765 2.09180161182177
0.206409968859311 0.033843989371498 2.17731357352563
-0.386396162937222 0.107671428686148 2.14490038474895
0.204004044678988 0.0815939431524428 2.19759694907696
-0.370012429705838 0.153876825004843 2.1680786396754
0.18463178575514 0.0964434465337916 2.24509045257496
-0.350541656456177 0.161446174074 2.21457060747339
-0.315359007488973 0.198327926576676 2.22822990514866
0.12452040991775 0.149377465394646 2.29328250871676
0.162055770719104 0.142154476991569 2.25664438630252
-0.279684145468253 0.195376526206999 2.26522176113969
-0.233125345215216 0.220201048597514 2.26451016639507
-0.191165337028852 0.202673026685329 2.28749498390242
-0.140578907613993 0.21583512145021 2.27819728572192
-0.101133654815508 0.198176384311972 2.2959721956611
-0.0528589188892225 0.201156012171952 2.29568606620893
-0.00478235960830378 0.202199636363667 2.29712539461301
0.0354965007049399 0.179718993635077 2.31492900976207
0.0870507610232908 0.183612688416649 2.29344077861161
-0.29474752342706 -0.101494067768293 1.8119792418774
-0.249858147408984 -0.139786929490377 1.8086979842159
-0.201979638029338 -0.14170198103198 1.79372864761817
-0.160644360613004 -0.169261454608311 1.81609010810513
-0.110804058233375 -0.149967796561493 1.80130982922145
-0.0672063458940006 -0.160948796284008 1.8132555846964
-0.0273667530608415 -0.175582265888788 1.82833790382225
0.0161622086691211 -0.161122462829713 1.81753991964907
0.0605214893538232 -0.183051906694748 1.84304916724492
0.107174560490397 -0.159550376882187 1.84145347429354
0.144253832757064 -0.162586827505325 1.87724776971596
-0.350252764751828 -0.0465552033423094 1.8568027351043
-0.328465978019464 -0.0938204365936543 1.84540481855897
0.17804337701458 -0.126340510422835 1.88548522756562
0.204020060919492 -0.111058448614223 1.93433024078276
-0.36780731164612 -0.0323052612230285 1.89889344902
0.221313886674282 -0.0625908721952295 1.96474850218659
-0.370270007169071 0.0156601123232352 1.92093451206897
0.219746917791713 -0.0492834012468524 2.0098923141045
-0.375469815070152 0.029554539673491 1.9704074427018
0.220895665633063 -0.00227439222847341 2.02919750476678
-0.378971954110382 0.0563442035265185 2.01757366529577
0.216431948866027 0.0112130186795017 2.07723090719283
-0.378035676969486 0.0990436287204919 2.03715670926804
0.217277794455581 0.0555398794349736 2.09818224120295
-0.379222957146467 0.134163553050163 2.0700429741648
0.212767121678471 0.070192746018469 2.14657004340541
-0.37988657232336 0.14273127716723 2.11962653135214
0.210026934233909 0.11618327416582 2.16755482719024
-0.36360308933529 0.188466590796279 2.1382034266802
0.191102403915515 0.129927049958904 2.21441844609849
-0.343561335889863 0.196435025864763 2.18500034362344
-0.309176965351267 0.232748731628135 2.19767954566441
0.131354929549506 0.183673494110391 2.26225286853625
0.168449220322454 0.176426145448585 2.22584980528017
-0.273788126076744 0.229668552491746 2.23460192491182
-0.227499624608913 0.254690185034248 2.23366380830358
-0.183882207059464 0.237708182970061 2.2564549417157
-0.135229186371164 0.249550908206465 2.24821756459195
-0.0876420457404723 0.234596782959038 2.26399730760883
-0.0376335025268838 0.235371910309302 2.26577268144144
0.0088764226093154 0.235645800244835 2.26782447995211
0.0479311051248949 0.212127245785847 2.28479460307384
0.0941669667967411 0.217944885621407 2.26247270756281
-0.257432464669808 -0.102162062596815 1.78646730884887
-0.215907064378039 -0.105936075571697 1.77286827926313
-0.169490617026664 -0.103315319049575 1.76664202986813
-0.154651952397506 -0.136970951309065 1.78832772107771
-0.117356984296226 -0.109360288480461 1.7735485842122
-0.0706263917646691 -0.121258567049489 1.78355638245873
-0.0237761368251682 -0.132423115293979 1.79363273520168
0.0241490515630912 -0.121735992211471 1.79100134352251
0.0635738995716801 -0.149413414487277 1.81370374620739
0.108030315012481 -0.123312941581589 1.8135632568682
0.148396260087995 -0.127193507420393 1.84638241189893
-0.337867970610074 -0.0096327655438882 1.83151745626289
-0.321254262630834 -0.0564741092265947 1.81715480973869
0.197134842650696 -0.0889745012970919 1.88828789199075
0.214872377223613 -0.0661608697533152 1.92165062886978
-0.358075447049786 0.00677644890215928 1.87092062002168
0.220397239030638 -0.0227688123606717 1.93234606706776
-0.355122375163636 0.0511499453330387 1.89204809445508
0.223241516798082 -0.0110196760489644 1.977698661535
-0.364808717959861 0.0647465826173744 1.93693212361682
0.219781526620475 0.032573579514866 1.9965439345847
-0.371738483260907 0.0821010118420072 1.98274749065846
0.219997830606414 0.0478506584990805 2.04415950459384
-0.365678508855069 0.127679714023017 1.99761822825601
0.216928991925982 0.0903461073862245 2.06623823322648
-0.368694645234667 0.154939855573414 2.03347690659184
0.216777915362517 0.105840618506344 2.1135517820473
-0.372623508118686 0.176425839588514 2.08806797449989
0.210879713479815 0.147480665340079 2.13574329452922
-0.354802539234266 0.217523144802992 2.10300366672116
0.19542350749231 0.164205557678223 2.18386307245628
-0.337367683613 0.229416884143848 2.15243798752116
-0.301776645510161 0.262058012555573 2.16429526865014
0.136455109614868 0.217978065622181 2.22982912782527
0.168362485726193 0.209945936000337 2.19287676853079
-0.266372909410085 0.263241081494356 2.20329119556619
-0.217738274693506 0.285770115400577 2.19785108764104
-0.180503445473484 0.271827186158794 2.22303679775838
-0.138677693407826 0.280342752255243 2.21237774080201
-0.0945733348592122 0.270539786308915 2.2265393157734
-0.0499260571856753 0.266214776238378 2.23300635019668
0.00014364587582423 0.265563299514372 2.234706982553
0.0520419521499518 0.247796409345695 2.25171037188016
0.0974184936348459 0.248648524512624 2.22913140131877
-0.282766463741406 -0.0614692622597853 1.78474934325814
-0.23737031560496 -0.062667289279229 1.7624517738248
-0.189697664030605 -0.0642147622875233 1.75286904122085
-0.137844175728529 -0.0682447315850974 1.75590504062253
-0.0873452728294453 -0.0748625510084127 1.76259875872754
-0.0412304061019155 -0.0848220536592524 1.76996069914092
0.00287916706429342 -0.0844175022323483 1.77397210067129
0.0499226802520058 -0.0742210691340125 1.77600335718603
0.0703289804010815 -0.109202758452758 1.79155835794568
0.102381093127236 -0.0736482979930759 1.79057047525489
0.13885460880906 -0.0908866856219788 1.81728797932551
-0.302690229201536 -0.0195283233550553 1.79304938287729
-0.277463515343996 0.0221710656044071 1.77908963451433
-0.26015322461364 -0.0210802266026087 1.76571749335242
0.149104163687766 -0.0498986231111813 1.81458247005749
0.175205499622545 -0.0834562125706189 1.84977141349277
0.178567990269652 -0.0360652173498798 1.8425957932662
-0.334767931596877 0.0445737973313197 1.84320208584079
-0.314983857742543 0.0221372795228521 1.80923221449343
0.202713775200056 -0.0419820282040278 1.88036886312306
0.208041938409344 0.00021215579477233 1.89727355795883
-0.33150980371154 0.0823588479961219 1.8694857168103
0.213888425628314 0.0262565006958672 1.94051405683281
-0.341387450638544 0.102417227657876 1.90882734629524
0.208891560490209 0.063617908718222 1.96797975171532
-0.353879031172544 0.113238815381188 1.94848581767159
0.211487988087583 0.0846422370700574 2.01015132481955
-0.342833006921408 0.152616161583028 1.96212922810828
0.20662954385278 0.121873084733499 2.03729883949178
-0.346678938563831 0.181062747056884 1.998580069123
0.209023688702744 0.142713563798802 2.07925562635358
-0.360177644862645 0.19643707509564 2.05119073928234
0.201492158616966 0.178474722399722 2.10571436523295
-0.326363394420397 0.254520386087132 2.11483238168175
-0.338288412705362 0.238854182704938 2.06630844408915
-0.307374117056793 0.271858554509241 2.07247539928245
0.192022990375726 0.19388492786251 2.1499637081141
0.17872124781654 0.219722177626165 2.10641560746046
0.16546662712968 0.232494671370343 2.1516628780301
-0.258574280790937 0.288260478384664 2.16644709325787
-0.292369391167745 0.281788708465962 2.12515415083742
-0.250512743982702 0.303561409706539 2.12404766852153
0.132768639943348 0.24889028757022 2.19081915846363
0.100447179095017 0.280986123365749 2.15491124125563
0.0881076307185971 0.273974789380009 2.19376093853381
-0.21135450199367 0.305631059282581 2.15783617166921
-0.167391250994282 0.29999991706509 2.17760249484504
-0.114481966932387 0.297636607228152 2.18002119484139
-0.0700218333833953 0.292708274826984 2.18883854929436
-0.0262133297132287 0.289424805851739 2.19389884055768
0.0165252547535711 0.288568026590749 2.19333574103527
0.0496947618356058 0.274099759991926 2.21659866240298
-0.211315871858505 -0.0214924982853647 1.74975114467998
-0.160033659444145 -0.0254582647474091 1.7469104716511
-0.109272851183521 -0.0295488425226627 1.75269565619377
-0.0614093842366626 -0.0344168915000265 1.75838137294552
-0.0165872846138967 -0.0380075078461862 1.76364936769319
0.0274941069913733 -0.0338718459254615 1.76848744526805
0.0760837350193963 -0.0325019120890497 1.77629625634158
-0.23323993389568 0.0198595402547709 1.75836110358611
-0.205985091266278 0.057325617700711 1.76254336374795
-0.181837457252662 0.0179155198254477 1.74907878919074
-0.131046244814242 0.0145384274901421 1.75230075542181
-0.0833801584821696 0.0134133799971033 1.75830079649849
-0.036118527103883 0.00995981237632605 1.76386427806596
0.00865441237602793 0.0114099965235207 1.77001209021887
0.0555853787039703 0.0106238835805508 1.77617021972112
0.103730047697377 0.0117918140940581 1.79084737434424
0.150807096376564 0.00282056246047929 1.81830162559581
0.119599207291984 -0.0286474251894599 1.79371801485313
-0.29546371076831 0.0619925390779246 1.80723719847792
-0.263462888977394 0.100455134659365 1.80969703522953
-0.252880367762603 0.0625833255841484 1.77962949312665
0.126791700088086 0.0452795141572525 1.8153440915016
0.184697600514537 0.00578834715667919 1.85590677442242
0.162855226615973 0.045939532276019 1.84726451077289
-0.30328777640268 0.0928155616489708 1.83833485495769
-0.269971379638609 0.131185834713188 1.84583981609259
0.193177328300228 0.0416964718913923 1.89063348768061
0.165318840563011 0.0807253755295716 1.88150198732212
-0.307894441791497 0.125291480409263 1.87803577034601
-0.276983930851059 0.161335923314978 1.88385832116311
0.19213927722349 0.0719575808536685 1.92386702466263
0.16337523581091 0.112787576773331 1.91699933947651
-0.319006115429521 0.149523624639211 1.91831042362795
-0.281835883138379 0.189271601201466 1.91789288365514
0.19072165316246 0.104374627658476 1.96098113342839
0.162331166637429 0.143876571906671 1.95273784637257
-0.315872845359405 0.187529209888586 1.95343347296198
-0.279904347661325 0.222888268022549 1.95213973951872
0.190019394067189 0.132561123761689 1.99463999173622
0.161649533893517 0.174310250562951 1.98827708924927
-0.313097235887002 0.222110331783961 1.98589573601485
-0.279312203167281 0.258224766654581 1.99109842340726
0.188946570643979 0.16442616437698 2.03200223894498
0.160420731182559 0.20494493306671 2.02319716132525
-0.33667104572079 0.221155742201177 2.02227917261241
-0.30741772092623 0.257926808189602 2.02727527865
0.187225846340064 0.193051134705403 2.06513508016886
0.157176915338312 0.232945711622779 2.05990739346865
-0.274175989582206 0.294969906909019 2.08371091366473
-0.2690867228856 0.28777036253846 2.03549530340884
-0.236595972092293 0.308711377708576 2.0697577630627
0.13496811451324 0.26227002266326 2.14421479313744
0.148684215016296 0.252496669887639 2.10219232253523
0.108751508955669 0.28000142226654 2.10289526510108
-0.212097243316619 0.315214213236142 2.10978138871653
-0.18650304273384 0.316966242200975 2.07402067890765
-0.17158072765884 0.315079575619191 2.12838216538485
-0.142586994760743 0.315501128717845 2.08746254183308
-0.129124908052971 0.311106591703829 2.13756699213348
-0.0984757580817719 0.312160355103719 2.09262768968295
-0.0823334834897152 0.308063916870995 2.14034596752069
-0.0536231677649415 0.308661303643279 2.09604138559029
-0.0380433781446172 0.304559353791495 2.14637710440705
-0.0100538170876767 0.305271562224673 2.099728826529
0.00647402600994097 0.301749777665652 2.14837129053999
0.034153667631178 0.302083714137387 2.10761415527323
0.0521682679459404 0.294737083334931 2.1632361720773
0.0718925693843596 0.29534308776774 2.12008816006755
-0.175226763236452 0.0902804879374673 1.7762731235597
-0.152698541201884 0.0561667347277639 1.76057257672499
-0.106984469855789 0.0585143455055134 1.76817945818854
-0.0582495029524482 0.0543599747383926 1.773698969531
-0.0133568373080411 0.0561135687875407 1.7812006568912
0.0320312375104705 0.0553029089307918 1.78773098558629
0.0780586680645596 0.0512570012615426 1.79493289066206
-0.220282533966528 0.0983204031032415 1.78815221969728
-0.177723041653362 0.125054808889029 1.80368264426734
-0.131686079188982 0.100196500942193 1.78773923452935
-0.0807370959197484 0.0933001416803565 1.7915458396787
-0.0364395454606962 0.096492274349907 1.80152163911272
0.00808181883016661 0.0964199320095191 1.80931148720277
0.0532712307199841 0.0935564547251948 1.8150681960624
0.0967095095520757 0.0837549794063681 1.82202563357056
0.131338984570567 0.0860920209475063 1.84714985554416
-0.225256472151614 0.132110927221391 1.82081292482977
-0.185418958825234 0.156712921397262 1.8387533535744
-0.139516359149542 0.140813605255698 1.82500099209559
-0.100305015440992 0.125180694028635 1.81547816262443
-0.0575360666486996 0.130258817099674 1.82971477385315
-0.0138368402545059 0.130851573221789 1.83923679263746
0.0342823449971568 0.127190943362474 1.84486037065766
0.084135398100048 0.119428388538769 1.85078458443919
0.128908067496453 0.117005323366474 1.87957461381206
-0.23214259240328 0.162569149052592 1.85694102541313
-0.187142219498282 0.187163098556575 1.87273159387049
-0.141093067421041 0.172854841796102 1.86079039981615
-0.094480815232116 0.156837350713586 1.85218292055114
-0.0475655285120192 0.163322087077109 1.86899554649912
0.00263466091776825 0.159428733660996 1.8747784774507
0.0504437940449071 0.155354080774428 1.87988538380244
0.0925549796464488 0.147486430326518 1.88734815973784
0.127717892191102 0.149784978862618 1.91674428335992
-0.235660401321563 0.192165852662529 1.89079402795116
-0.189700846921682 0.21612495748634 1.90512291002221
-0.140747366471747 0.205155358712127 1.89726120718055
-0.098173578642846 0.187901376315147 1.88644168545617
-0.0603341544641155 0.196250282342044 1.90351661008195
-0.0156135181315322 0.190510050781203 1.90610787611166
0.0324015024861745 0.186955956785284 1.9118300180139
0.0814644223118084 0.180600001315917 1.91937886118719
0.126650490173818 0.179216748520967 1.95012282324277
-0.238913760215346 0.220949868819472 1.92366840324234
-0.196073197863773 0.24473476698029 1.93752775827353
-0.146069553948433 0.235651468527468 1.93054951555742
-0.0968294512675948 0.223906891698318 1.92729096801524
-0.0452857590345641 0.224047543403161 1.93789158927461
0.00289038311790439 0.219494956483975 1.94252174366171
0.0493041395038182 0.216105423999742 1.94816863685066
0.0908120847427503 0.208883778967625 1.95680816172602
0.125821551392208 0.211454830891538 1.98702473782135
-0.243587064615326 0.251901565762003 1.9596097250233
-0.205782504845564 0.273756022499417 1.97174996024866
-0.15880272443387 0.267618655521716 1.96406452148109
-0.112184902346284 0.257870682437347 1.96245524134494
-0.067523288273144 0.253549528697177 1.96663317668858
-0.0185419228047006 0.251381872560415 1.9741143767741
0.0302739511259278 0.24784136087768 1.980013709229
0.0793758068749791 0.242123896379789 1.98866823692926
0.124218778313686 0.240315691813361 2.02019116678664
-0.23939687971337 0.2845859950519 2.00047386408778
-0.182882046206954 0.294845560237509 2.00133927551845
-0.134139129565901 0.288886977082807 1.99942735681938
-0.0894911709300185 0.284266898113977 2.00251820880067
-0.0446115343215491 0.28028453544929 2.00679035550914
0.00177047294831199 0.277342683938589 2.01319636841168
0.0468516442089319 0.274465388891224 2.01956123353052
0.0875568170920892 0.267592352130875 2.02919354832205
0.119435939501808 0.265361723271022 2.06239181547978
-0.214497468543307 0.305297512175028 2.03273211757185
-0.160345966158558 0.308829172929979 2.03850759926488
-0.11456706598425 0.305453322153228 2.04418232052357
-0.0694906609450116 0.30159670985578 2.04798541496438
-0.0237217015347433 0.297695680775161 2.05193534466165
0.0234305423686144 0.294585457310122 2.05896515674134
0.0703747352916693 0.28932956310492 2.06877575753369
3 0 1 2
3 0 2 4
3 3 0 4
3 3 4 6
3 5 3 6
3 5 6 8
3 7 5 8
3 7 8 10
3 9 7 10
3 9 10 12
3 11 9 12
3 13 11 14
3 14 11 12
3 13 14 15
3 16 17 18
3 16 18 1
3 0 19 1
3 19 16 1
3 0 3 20
3 19 0 20
3 3 5 21
3 20 3 21
3 5 7 22
3 21 5 22
3 7 9 23
3 22 7 23
3 9 11 24
3 23 9 24
3 24 11 25
3 25 11 13
3 13 15 26
3 27 13 26
3 25 13 27
3 27 26 28
3 17 16 30
3 30 16 29
3 29 19 31
3 29 16 19
3 31 20 32
3 31 19 20
3 32 21 33
3 32 20 21
3 21 22 33
3 33 22 34
3 22 23 34
3 34 23 35
3 23 24 35
3 35 24 36
3 24 25 36
3 36 25 37
3 37 27 38
3 37 25 27
3 38 28 39
3 38 27 28
3 30 40 41
3 30 29 40
3 29 31 42
3 40 29 42
3 31 32 43
3 42 31 43
3 32 33 44
3 43 32 44
3 33 34 45
3 44 33 45
3 34 35 46
3 45 34 46
3 35 36 47
3 46 35 47
3 36 37 47
3 47 37 48
3 37 38 48
3 48 38 49
3 49 39 50
3 49 38 39
3 40 51 52
3 41 40 52
3 51 42 53
3 51 40 42
3 42 43 53
3 53 43 54
3 43 44 54
3 54 44 55
3 44 45 55
3 55 45 56
3 45 46 56
3 56 46 57
3 46 47 58
3 57 46 58
3 47 48 59
3 58 47 59
3 48 49 60
3 59 48 60
3 49 50 61
3 60 49 61
3 51 62 63
3 52 51 63
3 51 53 64
3 62 51 64
3 53 54 65
3 64 53 65
3 54 55 66
3 65 54 66
3 55 56 67
3 66 55 67
3 56 57 67
3 67 57 68
3 57 58 69
3 68 57 69
3 58 59 69
3 69 59 70
3 59 60 70
3 70 60 71
3 71 61 72
3 71 60 61
3 62 73 74
3 63 62 74
3 62 64 75
3 73 62 75
3 64 65 75
3 75 65 76
3 65 66 76
3 76 66 77
3 66 67 77
3 77 67 78
3 67 68 78
3 78 68 79
3 79 69 80
3 79 68 69
3 80 70 81
3 80 69 70
3 81 71 82
3 81 70 71
3 82 72 83
3 82 71 72
3 74 73 85
3 85 73 84
3 84 73 86
3 86 73 75
3 75 76 86
3 86 76 87
3 76 77 88
3 87 76 88
3 77 78 89
3 88 77 89
3 78 79 90
3 89 78 90
3 79 80 91
3 90 79 91
3 80 81 92
3 91 80 92
3 81 82 93
3 92 81 93
3 93 83 94
3 93 82 83
3 84 95 85
3 84 86 96
3 97 84 96
3 95 84 97
3 96 87 98
3 96 86 87
3 87 88 98
3 98 88 99
3 88 89 99
3 99 89 100
3 89 90 100
3 100 90 101
3 101 91 102
3 101 90 91
3 102 92 103
3 102 91 92
3 92 93 103
3 105 103 104
3 103 93 104
3 93 94 104
3 96 106 97
3 96 98 107
3 106 96 107
3 98 99 108
3 107 98 108
3 99 100 109
3 108 99 109
3 100 101 110
3 109 100 110
3 101 102 111
3 110 101 111
3 111 102 112
3 112 102 103
3 103 105 112
3 117 114 115
3 116 113 117
3 117 113 114
3 116 117 119
3 118 116 119
3 118 119 121
3 120 118 121
3 120 121 123
3 122 120 123
3 122 123 125
3 124 122 125
3 124 125 127
3 126 124 127
3 126 127 128
3 129 130 131
3 114 129 131
3 114 113 129
3 113 2 129
3 129 2 1
3 4 113 116
3 4 2 113
3 6 116 118
3 6 4 116
3 8 118 120
3 8 6 118
3 10 120 122
3 10 8 120
3 12 122 124
3 12 10 122
3 14 124 126
3 14 12 124
3 133 126 128
3 15 14 126
3 15 126 133
3 132 15 133
3 132 133 134
3 135 136 137
3 137 17 135
3 137 18 17
3 18 137 130
3 129 18 130
3 18 129 1
3 15 132 26
3 139 132 134
3 139 138 132
3 138 28 26
3 132 138 26
3 138 139 140
3 136 135 142
3 142 135 141
3 17 30 135
3 135 30 141
3 143 39 28
3 138 143 28
3 143 140 144
3 143 138 140
3 141 145 146
3 142 141 146
3 41 145 141
3 30 41 141
3 147 39 143
3 147 50 39
3 147 144 148
3 147 143 144
3 145 149 150
3 146 145 150
3 52 149 145
3 41 52 145
3 151 50 147
3 151 155 50
3 151 148 152
3 151 147 148
3 149 153 154
3 150 149 154
3 63 153 149
3 52 63 149
3 155 61 50
3 155 72 61
3 155 151 156
3 156 151 152
3 154 157 158
3 154 153 157
3 74 157 153
3 63 74 153
3 159 72 155
3 159 83 72
3 159 156 160
3 159 155 156
3 158 157 162
3 162 157 161
3 74 85 161
3 157 74 161
3 163 83 159
3 163 94 83
3 163 160 164
3 163 159 160
3 161 165 162
3 165 95 166
3 165 161 95
3 161 85 95
3 165 166 167
3 95 97 166
3 105 104 168
3 170 94 163
3 170 168 94
3 169 168 170
3 94 168 104
3 163 164 170
3 166 171 167
3 173 171 172
3 172 171 106
3 171 97 106
3 171 166 97
3 172 107 174
3 172 106 107
3 174 108 175
3 174 107 108
3 175 109 176
3 175 108 109
3 176 110 177
3 176 109 110
3 177 111 178
3 177 110 111
3 178 112 180
3 178 111 112
3 181 105 168
3 181 180 105
3 179 178 180
3 180 112 105
3 168 169 181
3 172 182 173
3 182 172 183
3 183 172 174
3 174 175 184
3 183 174 184
3 175 176 185
3 184 175 185
3 176 177 186
3 185 176 186
3 177 178 187
3 186 177 187
3 187 179 188
3 187 178 179
3 179 180 229
3 189 190 191
3 114 131 191
3 115 114 191
3 115 191 192
3 115 192 193
3 117 115 193
3 119 193 194
3 119 117 193
3 119 194 121
3 121 194 195
3 121 195 123
3 123 195 196
3 123 196 125
3 125 196 197
3 127 197 198
3 127 125 197
3 128 198 199
3 200 128 199
3 128 127 198
3 200 199 201
3 202 203 204
3 131 130 189
3 190 189 204
3 189 130 202
3 189 202 204
3 131 189 191
3 128 200 133
3 134 200 205
3 206 205 201
3 134 133 200
3 205 200 201
3 205 206 207
3 136 208 203
3 202 137 136
3 202 136 203
3 137 202 130
3 134 205 139
3 139 205 207
3 140 139 207
3 211 207 209
3 136 142 208
3 208 142 210
3 211 140 207
3 211 144 140
3 146 212 210
3 142 146 210
3 148 144 213
3 213 144 211
3 150 214 212
3 146 150 212
3 215 148 213
3 215 152 148
3 154 216 150
3 150 216 214
3 219 152 217
3 217 152 215
3 158 218 216
3 154 158 216
3 219 156 152
3 219 160 156
3 158 220 218
3 158 162 220
3 221 160 219
3 221 164 160
3 162 165 222
3 223 220 222
3 220 162 222
3 165 167 222
3 169 170 224
3 225 164 221
3 224 170 164
3 224 164 225
3 222 226 223
3 167 171 227
3 226 167 227
3 226 227 228
3 226 222 167
3 171 173 227
3 180 181 229
3 181 169 230
3 231 169 224
3 230 169 231
3 230 229 181
3 224 225 271
3 227 232 228
3 232 182 233
3 232 173 182
3 227 173 232
3 182 183 234
3 233 182 234
3 183 184 234
3 234 184 235
3 184 185 235
3 235 185 236
3 185 186 236
3 236 186 237
3 186 187 237
3 237 187 238
3 238 188 239
3 238 187 188
3 188 179 229
3 240 239 188
3 240 188 229
3 229 230 240
3 191 190 242
3 242 190 241
3 192 242 243
3 192 191 242
3 192 243 244
3 193 192 244
3 194 244 245
3 194 193 244
3 194 245 246
3 195 194 246
3 195 246 247
3 196 195 247
3 196 247 248
3 197 196 248
3 197 248 249
3 198 197 249
3 199 198 249
3 250 199 249
3 201 199 251
3 251 199 250
3 204 252 253
3 204 203 252
3 190 253 241
3 190 204 253
3 206 251 254
3 206 201 251
3 207 206 255
3 255 206 254
3 203 256 252
3 203 208 256
3 257 209 255
3 255 209 207
3 210 258 208
3 208 258 256
3 211 209 259
3 259 209 257
3 212 260 210
3 210 260 258
3 213 211 259
3 261 213 259
3 214 262 260
3 212 214 260
3 215 213 261
3 263 215 261
3 216 264 214
3 214 264 262
3 217 215 263
3 265 217 263
3 218 266 264
3 216 218 264
3 219 217 265
3 267 219 265
3 218 268 266
3 218 220 268
3 221 219 267
3 269 221 267
3 223 270 268
3 220 223 268
3 225 221 269
3 271 225 269
3 223 226 272
3 270 223 272
3 272 228 273
3 272 226 228
3 274 231 275
3 274 230 231
3 275 231 271
3 271 231 224
3 273 228 276
3 276 228 232
3 276 233 277
3 276 232 233
3 233 234 278
3 277 233 278
3 234 235 279
3 278 234 279
3 235 236 280
3 279 235 280
3 236 237 281
3 280 236 281
3 237 238 282
3 281 237 282
3 238 239 283
3 282 238 283
3 327 239 284
3 284 239 240
3 240 230 274
3 284 240 274
3 241 285 286
3 242 241 286
3 242 286 243
3 243 286 287
3 243 287 288
3 244 243 288
3 245 288 289
3 245 244 288
3 245 289 246
3 246 289 290
3 246 290 247
3 247 290 291
3 247 291 248
3 248 291 292
3 248 292 293
3 249 248 293
3 249 293 250
3 250 293 294
3 250 294 295
3 251 250 295
3 252 296 297
3 253 252 297
3 241 297 285
3 241 253 297
3 254 295 298
3 254 251 295
3 254 298 299
3 255 254 299
3 256 300 252
3 252 300 296
3 257 255 299
3 301 257 299
3 258 302 300
3 256 258 300
3 259 257 303
3 303 257 301
3 260 304 258
3 258 304 302
3 261 259 303
3 305 261 303
3 262 306 304
3 260 262 304
3 263 261 305
3 307 263 305
3 264 308 262
3 262 308 306
3 265 263 307
3 309 265 307
3 266 310 308
3 264 266 308
3 267 265 309
3 311 267 309
3 266 312 310
3 266 268 312
3 269 267 311
3 313 269 311
3 270 314 312
3 268 270 312
3 271 269 315
3 315 269 313
3 270 272 316
3 314 270 316
3 316 273 317
3 316 272 273
3 318 275 319
3 318 274 275
3 275 271 315
3 319 275 315
3 273 276 320
3 317 273 320
3 276 277 320
3 320 277 321
3 277 278 322
3 321 277 322
3 322 279 323
3 322 278 279
3 279 280 323
3 323 280 324
3 280 281 324
3 324 281 325
3 281 282 325
3 325 282 326
3 282 283 326
3 326 283 327
3 283 239 327
3 327 284 328
3 284 274 318
3 328 284 318
3 285 329 330
3 286 285 330
3 286 330 287
3 287 330 331
3 287 331 332
3 288 287 332
3 288 332 289
3 289 332 333
3 289 333 334
3 290 289 334
3 290 334 335
3 291 290 335
3 291 335 292
3 292 335 336
3 292 336 337
3 293 292 337
3 293 337 294
3 294 337 338
3 294 338 339
3 295 294 339
3 296 340 341
3 297 296 341
3 285 341 329
3 285 297 341
3 298 339 342
3 298 295 339
3 298 342 343
3 299 298 343
3 300 344 296
3 296 344 340
3 301 299 343
3 345 301 343
3 302 346 344
3 300 302 344
3 303 301 347
3 347 301 345
3 304 348 302
3 302 348 346
3 305 303 347
3 349 305 347
3 306 350 348
3 304 306 348
3 307 305 351
3 351 305 349
3 308 352 306
3 306 352 350
3 309 307 353
3 353 307 351
3 310 354 352
3 308 310 352
3 311 309 355
3 355 309 353
3 312 356 310
3 310 356 354
3 313 311 355
3 357 313 355
3 314 358 356
3 312 314 356
3 315 313 359
3 359 313 357
3 314 316 360
3 358 314 360
3 360 317 361
3 360 316 317
3 362 319 363
3 362 318 319
3 319 315 359
3 363 319 359
3 317 320 364
3 361 317 364
3 320 321 364
3 364 321 365
3 321 322 366
3 365 321 366
3 322 323 366
3 366 323 367
3 323 324 368
3 367 323 368
3 324 325 369
3 368 324 369
3 325 326 370
3 369 325 370
3 326 327 371
3 370 326 371
3 327 328 371
3 371 328 372
3 328 318 362
3 372 328 362
3 329 373 374
3 330 329 374
3 330 374 331
3 331 374 375
3 331 375 376
3 332 331 376
3 332 376 333
3 333 376 377
3 333 377 378
3 334 333 378
3 334 378 379
3 335 334 379
3 335 379 336
3 336 379 380
3 336 380 381
3 337 336 381
3 337 381 338
3 338 381 382
3 338 382 383
3 339 338 383
3 340 384 385
3 341 340 385
3 329 385 373
3 329 341 385
3 342 383 386
3 342 339 383
3 342 386 387
3 343 342 387
3 344 388 340
3 340 388 384
3 345 343 387
3 389 345 387
3 346 390 388
3 344 346 388
3 347 345 391
3 391 345 389
3 348 392 346
3 346 392 390
3 349 347 391
3 393 349 391
3 350 394 348
3 348 394 392
3 351 349 395
3 395 349 393
3 352 396 350
3 350 396 394
3 353 351 395
3 397 353 395
3 354 398 396
3 352 354 396
3 355 353 399
3 399 353 397
3 356 400 354
3 354 400 398
3 357 355 399
3 401 357 399
3 358 402 400
3 356 358 400
3 359 357 403
3 403 357 401
3 358 360 404
3 402 358 404
3 404 361 405
3 404 360 361
3 406 363 407
3 406 362 363
3 363 359 403
3 407 363 403
3 361 364 408
3 405 361 408
3 364 365 408
3 408 365 409
3 365 366 410
3 409 365 410
3 366 367 410
3 410 367 411
3 367 368 412
3 411 367 412
3 368 369 412
3 412 369 413
3 369 370 413
3 413 370 414
3 370 371 415
3 414 370 415
3 371 372 415
3 415 372 416
3 372 362 406
3 416 372 406
3 373 417 418
3 374 373 418
3 374 418 375
3 375 418 419
3 375 419 420
3 376 375 420
3 376 420 377
3 377 420 421
3 377 421 422
3 378 377 422
3 378 422 423
3 379 378 423
3 380 423 424
3 380 379 423
3 380 424 425
3 381 380 425
3 382 425 426
3 382 381 425
3 382 426 427
3 383 382 427
3 384 428 429
3 385 384 429
3 373 429 417
3 373 385 429
3 386 427 430
3 386 383 427
3 386 430 431
3 387 386 431
3 384 432 428
3 384 388 432
3 389 387 431
3 433 389 431
3 390 434 432
3 388 390 432
3 435 389 433
3 435 391 389
3 390 436 434
3 390 392 436
3 393 391 435
3 437 393 435
3 394 438 436
3 392 394 436
3 395 393 439
3 439 393 437
3 396 440 438
3 394 396 438
3 397 395 439
3 441 397 439
3 398 442 440
3 396 398 440
3 399 397 443
3 443 397 441
3 400 444 398
3 398 444 442
3 401 399 443
3 445 401 443
3 402 446 444
3 400 402 444
3 403 401 447
3 447 401 445
3 402 404 448
3 446 402 448
3 448 405 449
3 448 404 405
3 450 407 451
3 450 406 407
3 407 403 447
3 451 407 447
3 405 408 452
3 449 405 452
3 408 409 452
3 452 409 453
3 409 410 454
3 453 409 454
3 410 411 454
3 454 411 455
3 411 412 456
3 455 411 456
3 412 413 456
3 456 413 457
3 457 414 458
3 457 413 414
3 414 415 459
3 458 414 459
3 415 416 459
3 459 416 460
3 416 406 450
3 460 416 450
3 418 461 462
3 418 417 461
3 419 462 463
3 419 418 462
3 419 463 464
3 420 419 464
3 420 464 421
3 421 464 465
3 421 465 466
3 422 421 466
3 422 466 467
3 423 422 467
3 424 467 468
3 424 423 467
3 424 468 469
3 425 424 469
3 426 469 470
3 426 425 469
3 427 426 471
3 471 426 470
3 429 428 473
3 473 428 472
3 417 473 505
3 417 429 473
3 430 427 471
3 520 430 471
3 431 474 475
3 431 430 474
3 428 476 472
3 428 432 476
3 433 431 475
3 477 433 475
3 434 478 476
3 432 434 476
3 479 433 477
3 479 435 433
3 434 480 478
3 434 436 480
3 437 435 479
3 481 437 479
3 438 482 436
3 436 482 480
3 439 437 483
3 483 437 481
3 440 484 482
3 438 440 482
3 441 439 483
3 485 441 483
3 442 486 440
3 440 486 484
3 443 441 487
3 487 441 485
3 444 488 442
3 442 488 486
3 445 443 487
3 489 445 487
3 444 446 488
3 488 446 490
3 491 445 489
3 491 447 445
3 490 446 492
3 492 446 448
3 492 449 493
3 492 448 449
3 494 451 495
3 494 450 451
3 451 447 491
3 495 451 491
3 449 452 496
3 493 449 496
3 496 453 497
3 496 452 453
3 453 454 498
3 497 453 498
3 498 455 499
3 498 454 455
3 455 456 500
3 499 455 500
3 456 457 501
3 500 456 501
3 457 458 502
3 501 457 502
3 458 459 503
3 502 458 503
3 503 460 504
3 503 459 460
3 504 460 494
3 494 460 450
3 461 505 506
3 462 461 506
3 507 463 462
3 507 462 506
3 465 463 508
3 508 463 507
3 464 463 465
3 465 508 509
3 465 509 466
3 466 509 510
3 466 510 467
3 467 510 511
3 467 511 468
3 468 511 512
3 468 512 513
3 469 468 513
3 469 513 470
3 515 470 514
3 470 513 514
3 470 515 471
3 472 516 473
3 518 516 517
3 518 505 516
3 461 417 505
3 505 473 516
3 505 518 506
3 515 514 519
3 474 430 520
3 521 520 519
3 520 471 515
3 520 515 519
3 474 520 524
3 476 522 472
3 516 472 523
3 472 522 523
3 516 523 517
3 520 521 524
3 477 475 524
3 524 475 474
3 525 477 524
3 478 526 522
3 476 478 522
3 527 477 525
3 527 479 477
3 478 528 526
3 478 480 528
3 481 479 527
3 529 481 527
3 482 530 480
3 480 530 528
3 483 481 531
3 531 481 529
3 484 532 530
3 482 484 530
3 485 483 531
3 533 485 531
3 486 534 484
3 484 534 532
3 535 485 533
3 535 487 485
3 486 536 534
3 486 488 536
3 537 489 535
3 535 489 487
3 490 538 539
3 536 490 539
3 488 490 536
3 538 540 539
3 541 542 543
3 541 489 537
3 542 541 537
3 541 491 489
3 490 492 538
3 545 493 544
3 538 492 493
3 538 493 545
3 540 538 545
3 544 546 545
3 547 548 549
3 543 495 541
3 547 494 495
3 547 495 543
3 608 547 543
3 495 491 541
3 493 496 544
3 544 497 550
3 546 544 550
3 544 496 497
3 550 497 551
3 551 497 498
3 498 499 551
3 551 499 552
3 499 500 552
3 552 500 553
3 500 501 553
3 553 501 554
3 554 502 555
3 554 501 502
3 502 503 556
3 555 502 556
3 503 504 556
3 549 504 547
3 556 504 549
3 504 494 547
3 506 557 507
3 507 557 558
3 508 507 558
3 508 558 559
3 509 508 559
3 509 559 560
3 510 509 560
3 510 560 561
3 511 510 561
3 511 561 562
3 512 511 562
3 514 512 563
3 563 512 562
3 513 512 514
3 517 564 518
3 518 564 557
3 566 564 565
3 557 564 566
3 557 506 518
3 558 566 567
3 558 557 566
3 559 567 568
3 559 558 567
3 560 568 569
3 560 559 568
3 561 569 570
3 561 560 569
3 562 570 571
3 562 561 570
3 563 562 571
3 572 563 571
3 574 514 563
3 572 574 563
3 573 519 574
3 574 519 514
3 519 573 521
3 522 575 523
3 577 575 576
3 577 517 575
3 564 517 577
3 575 517 523
3 564 577 565
3 573 574 572
3 521 573 579
3 580 573 578
3 579 573 580
3 579 524 521
3 524 579 525
3 522 581 575
3 522 526 581
3 576 581 582
3 576 575 581
3 583 580 584
3 583 579 580
3 583 525 579
3 583 527 525
3 526 585 581
3 526 528 585
3 582 585 586
3 582 581 585
3 587 584 588
3 587 583 584
3 587 527 583
3 587 529 527
3 528 589 585
3 528 530 589
3 586 589 590
3 586 585 589
3 591 588 592
3 591 587 588
3 591 529 587
3 591 531 529
3 532 593 589
3 530 532 589
3 590 593 594
3 590 589 593
3 595 592 596
3 595 591 592
3 595 531 591
3 595 533 531
3 534 597 593
3 532 534 593
3 594 597 598
3 594 593 597
3 599 596 600
3 599 595 596
3 599 533 595
3 599 535 533
3 534 601 597
3 534 536 601
3 602 597 601
3 602 598 597
3 603 599 600
3 604 603 600
3 603 535 599
3 603 537 535
3 536 539 601
3 606 540 605
3 606 602 540
3 602 601 539
3 540 602 539
3 605 607 606
3 608 609 610
3 608 543 609
3 604 542 603
3 609 543 542
3 609 542 604
3 542 537 603
3 540 545 605
3 605 546 607
3 612 607 611
3 605 545 546
3 607 546 611
3 612 613 614
3 612 611 613
3 614 615 616
3 614 613 615
3 616 617 618
3 616 615 617
3 618 619 620
3 618 617 619
3 620 621 622
3 620 619 621
3 622 623 624
3 622 621 623
3 610 548 608
3 624 623 548
3 624 548 610
3 548 623 549
3 548 547 608
3 546 550 611
3 611 550 613
3 613 550 551
3 551 552 615
3 613 551 615
3 552 553 617
3 615 552 617
3 553 554 619
3 617 553 619
3 554 555 621
3 619 554 621
3 621 555 623
3 623 555 556
3 556 549 623
3 565 625 626
3 567 566 626
3 626 566 565
3 567 626 627
3 568 567 627
3 568 627 628
3 569 568 628
3 569 628 629
3 570 569 629
3 570 629 630
3 571 570 630
3 572 571 631
3 631 571 630
3 572 631 578
3 576 632 577
3 625 632 633
3 565 577 632
3 565 632 625
3 625 633 634
3 626 625 634
3 626 634 627
3 627 634 635
3 627 635 628
3 628 635 636
3 628 636 629
3 629 636 637
3 629 637 630
3 630 637 638
3 631 638 639
3 631 630 638
3 640 578 639
3 578 573 572
3 578 631 639
3 578 640 580
3 576 641 632
3 576 582 641
3 633 641 642
3 633 632 641
3 633 642 643
3 634 633 643
3 634 643 644
3 635 634 644
3 635 644 645
3 636 635 645
3 636 645 646
3 637 636 646
3 637 646 647
3 638 637 647
3 638 647 648
3 639 638 648
3 640 648 649
3 640 639 648
3 584 580 640
3 649 584 640
3 582 650 641
3 582 586 650
3 642 650 651
3 642 641 650
3 642 651 652
3 643 642 652
3 643 652 653
3 644 643 653
3 644 653 645
3 645 653 654
3 645 654 646
3 646 654 655
3 646 655 647
3 647 655 656
3 647 656 648
3 648 656 657
3 648 657 649
3 649 657 658
3 588 584 649
3 658 588 649
3 586 659 650
3 586 590 659
3 650 659 651
3 651 659 660
3 651 660 661
3 652 651 661
3 652 661 662
3 653 652 662
3 653 662 654
3 654 662 663
3 654 663 664
3 655 654 664
3 655 664 665
3 656 655 665
3 656 665 666
3 657 656 666
3 657 666 658
3 658 666 667
3 592 588 658
3 667 592 658
3 590 668 659
3 590 594 668
3 660 668 669
3 660 659 668
3 660 669 670
3 661 660 670
3 661 670 671
3 662 661 671
3 662 671 663
3 663 671 672
3 663 672 664
3 664 672 673
3 664 673 665
3 665 673 674
3 665 674 666
3 666 674 675
3 666 675 667
3 667 675 676
3 596 592 667
3 676 596 667
3 594 677 668
3 594 598 677
3 668 677 669
3 669 677 678
3 669 678 679
3 670 669 679
3 670 679 680
3 671 670 680
3 671 680 681
3 672 671 681
3 672 681 682
3 673 672 682
3 673 682 683
3 674 673 683
3 674 683 684
3 675 674 684
3 676 684 685
3 676 675 684
3 600 596 676
3 685 600 676
3 598 686 677
3 598 602 606
3 678 686 687
3 678 677 686
3 678 687 679
3 679 687 688
3 679 688 680
3 680 688 689
3 680 689 681
3 681 689 690
3 681 690 682
3 682 690 691
3 683 691 692
3 683 682 691
3 684 692 693
3 684 683 692
3 685 693 694
3 685 684 693
3 694 604 685
3 685 604 600
3 598 606 686
3 606 607 695
3 686 606 695
3 686 695 687
3 688 687 696
3 696 687 695
3 688 696 697
3 689 688 697
3 689 697 698
3 690 689 698
3 690 698 699
3 691 690 699
3 691 699 700
3 692 691 700
3 692 700 701
3 693 692 701
3 610 609 694
3 701 610 694
3 701 694 693
3 609 604 694
3 607 612 695
3 695 612 696
3 696 612 614
3 614 616 697
3 696 614 697
3 616 618 698
3 697 616 698
3 618 620 699
3 698 618 699
3 620 622 700
3 699 620 700
3 622 624 701
3 700 622 701
3 624 610 701
