OFF
702 1400 0
-0.261018483847069 -0.325640316355957 2.18316706680678
-0.306347480079294 -0.311913562687887 2.16514400190885
-0.278227884385275 -0.33164950166234 2.13790165812566
-0.214175214211018 -0.332338159013849 2.18803017440731
-0.232330395831805 -0.342472993565532 2.14333683691808
-0.167384989055993 -0.337101012137771 2.19131586932042
-0.185955124805415 -0.346819202440145 2.14559756371429
-0.122026675463188 -0.341199671397805 2.19579469029105
-0.140643093973238 -0.350955898954064 2.14755578454341
-0.0771539057142318 -0.345098607626515 2.20062718750693
-0.0959033580323442 -0.354656930239087 2.15230623519218
-0.0296786253437955 -0.348210727187826 2.20836292635882
-0.050143935206324 -0.357974119688572 2.16090683312405
0.0184203151462666 -0.343832591341465 2.21676673330831
-0.00285140504292872 -0.359599874785558 2.17001923934354
0.0436740235679396 -0.35076378248754 2.17880507200049
-0.328932891904121 -0.283045619071092 2.19309093714405
-0.358540222118264 -0.265826919400319 2.16543953860368
-0.337382632688853 -0.296126571463006 2.13727953499188
-0.288586721381178 -0.298967250259377 2.21302383413465
-0.241948105319182 -0.308011273461023 2.22519465901014
-0.194274686965349 -0.31340331726054 2.22916783546287
-0.147528933825006 -0.317401728754151 2.23465914440244
-0.102333529991063 -0.320842935389716 2.24059152564256
-0.0580574701290818 -0.326297846500652 2.24329378707885
-0.00942783237974164 -0.327150581190484 2.25065755275388
0.0644160266501689 -0.327740196474698 2.22238695436284
0.0357818611312573 -0.315062439483104 2.25839517465624
0.0819450458009588 -0.295047432875621 2.25600907246784
-0.316018067810185 -0.261886106162458 2.23449993328127
-0.356016946994285 -0.241545518468931 2.20623973906223
-0.27013390245857 -0.275317380932376 2.25226246896851
-0.220227759376503 -0.281728652720072 2.2604885944682
-0.172653808950176 -0.286132584339252 2.26584806758848
-0.12505511783659 -0.288618508491177 2.27315733358338
-0.0803727340894447 -0.291403458420192 2.27956024593369
-0.0381557037789724 -0.300867108419198 2.2786864808274
0.00318553334884987 -0.292624550643893 2.28934465651848
0.0488810552835557 -0.279319958980908 2.29073478377742
0.0937771132001351 -0.25719162806124 2.28410163035986
-0.334200402764918 -0.224410736500662 2.25479246031231
-0.367219897656001 -0.203058729747147 2.22805499600218
-0.29333043192441 -0.239255801639616 2.27617242080143
-0.244380741692716 -0.249898462294226 2.2875797127856
-0.195640721679141 -0.252111163386446 2.29558140097952
-0.148214992830878 -0.256943427004086 2.30047696024692
-0.0967400142219723 -0.257818220373479 2.31021854568121
-0.0419212367028958 -0.267324794657954 2.31190245799714
0.00851979358605724 -0.260067456945149 2.32125486232497
0.0590477241958907 -0.24468768562698 2.31989660627817
0.103898146161337 -0.218781646347999 2.31185177020792
-0.318305663270247 -0.199958166656534 2.29715489980078
-0.358646574284556 -0.182267460871982 2.26582921555638
-0.269161303728269 -0.217160841543148 2.31230902926949
-0.221784346543615 -0.219470564436578 2.32326416637858
-0.176262039567449 -0.220540233603324 2.33157955797739
-0.132343902062138 -0.228473160380993 2.33260813845782
-0.0988341998654332 -0.216454083763184 2.3517075529238
-0.0640308453363013 -0.235921052218208 2.33916477242303
-0.0217278872859569 -0.232435851999449 2.3500656886059
0.0261933243314631 -0.226017928057233 2.35144621690707
0.0743107576712159 -0.207377440617339 2.34719854651054
-0.321439774538815 -0.159084955677246 2.3369827852179
-0.349409021085595 -0.16150764056385 2.30208080162748
-0.28862124008966 -0.185532187252075 2.33466217029142
-0.241593377609852 -0.187877189593079 2.35118669850257
-0.196867629909462 -0.186667679800497 2.36165503937889
-0.147982873538578 -0.191718685662438 2.36662911309586
-0.102565699230383 -0.185915778515515 2.38188815934729
-0.055184967968425 -0.199442078600004 2.37796230630541
-0.00717233297106928 -0.19933360948944 2.38345505170846
0.0406279104133901 -0.192180208226011 2.38003832216827
0.0881781686070381 -0.170209085176211 2.37285922775128
-0.310835570282321 -0.134354811538596 2.37207780759955
-0.354829302579314 -0.121812191641507 2.33671379568492
-0.27223606395693 -0.158929687556937 2.37058206226049
-0.226291513370096 -0.152646135797494 2.39005877516745
-0.176280189859058 -0.157237227784968 2.39573259434301
-0.13050008193558 -0.157043664630753 2.40538205369678
-0.0789956284396404 -0.161149656778396 2.41185477148516
-0.0340776605976496 -0.167782298987324 2.41404705095508
0.0123039444096429 -0.165008593345224 2.41535736197102
0.0562810872472564 -0.157948761991215 2.4063930959613
0.0927592823501678 -0.132373592730807 2.40518586966297
-0.305997814666173 -0.094308874229989 2.40755519584436
-0.33980954245045 -0.103213580223543 2.37440072601886
-0.272658226188016 -0.124657826583112 2.40342283378677
-0.238073918837755 -0.112742867476313 2.42121515900261
-0.195369864442093 -0.12144274466725 2.42304824384378
-0.150264934859507 -0.121754887307472 2.4309186874985
-0.103081082816337 -0.125269864593486 2.43699885781248
-0.0544985624244315 -0.129573373808459 2.4428081753117
-0.00622712369125135 -0.132864429605687 2.44467336574927
0.0453926338464213 -0.127421064722364 2.43713822908834
0.0928832734097802 -0.0964921278614637 2.42923928653141
-0.34708476106517 -0.0637786910875863 2.39099366340025
-0.268774653970722 -0.0748532839061314 2.43338704678445
-0.312195520091253 -0.0502643209034259 2.42218890011661
-0.219330162707962 -0.0756070547926609 2.44278939086545
-0.173322325898258 -0.0805502371604011 2.44807602326906
-0.126662397843797 -0.0817338699932119 2.4548512890402
-0.0808894199072885 -0.0865442816414145 2.46016086148991
-0.0342457146245723 -0.091266154550217 2.46535437886566
0.0124181566967362 -0.0931908479845437 2.46345678763144
0.0568077621894863 -0.0872383959022644 2.45333760053928
0.0386854793613071 -0.0481406789742317 2.46954685595435
-0.28523907047571 -0.0232285135958894 2.43998148827445
-0.242855501491652 -0.0324822777521259 2.45014947913372
-0.193843429701036 -0.0345621133391958 2.45654289353623
-0.148103282457984 -0.0359003671454107 2.46254647179708
-0.101834194404896 -0.0375595268290209 2.46855882714917
-0.0573048586344635 -0.044493138447973 2.47373506900612
-0.00961965945923002 -0.0491020014305786 2.47688746898485
-0.256193941204531 -0.339855543263574 2.09878770514023
-0.279818465324108 -0.326089266144852 2.06313103603873
-0.256141185289457 -0.319763748505907 2.02559287175542
-0.20661217704304 -0.346610739368238 2.09964007960126
-0.228077004294392 -0.337866416876348 2.05842341740953
-0.160569609863205 -0.349757447474641 2.09916772424401
-0.179911662220557 -0.338659754256944 2.05303510833237
-0.11517772992655 -0.353077983275241 2.10189172494395
-0.134611507110004 -0.34062040946278 2.05389569889917
-0.0698880724840344 -0.356977326563178 2.10978610874906
-0.0870716566581445 -0.344592420767369 2.06023916949586
-0.0250224440014727 -0.361065732079559 2.12036806188628
-0.0414032960939565 -0.349573337411291 2.06966267233534
0.0210159189377826 -0.359936584638981 2.12904600109619
0.00275815048039162 -0.353999701955622 2.08116400870906
0.0506899533294555 -0.347348601075764 2.09026232337302
-0.307661013537376 -0.319200561292777 2.10625419261907
-0.345907191613651 -0.288594430114792 2.08988245804775
-0.316350477657391 -0.304716575596781 2.05769919191198
0.0885076870690721 -0.330817082967787 2.18300131655197
0.0642240862072898 -0.348438795440803 2.13836288441436
0.104018892414446 -0.327251143139172 2.14032584923324
-0.383576033057006 -0.230076664635066 2.15542380478837
-0.393680431837993 -0.217960534078928 2.10570441542546
-0.371202416708505 -0.260499547868144 2.11909779627868
0.109674182843803 -0.302417670441683 2.21643345998895
0.130392909005272 -0.301329198256313 2.17214581773349
0.147635314308653 -0.269949245156051 2.19923651868011
-0.385616399130541 -0.201180093141808 2.1866656484475
-0.401243239274411 -0.185363827048466 2.14018330517629
0.123752671433328 -0.26652678782875 2.24443317081423
0.155112616031953 -0.230464960912129 2.22957559580325
-0.389167232510857 -0.162322905821665 2.22020597135698
-0.401680943092709 -0.155225885567373 2.17636362473886
0.131822737230336 -0.226036021618117 2.27217467545453
0.161779193324301 -0.188470259473352 2.25352563939973
-0.383606258524868 -0.143012244119559 2.2578727498621
-0.403757521407768 -0.114800115962116 2.21537769797306
0.140709811245127 -0.184890014515905 2.29736199275909
0.166437023696523 -0.146425262633683 2.279480483032
-0.375702409707506 -0.124736545342507 2.29666976651394
-0.399213106834165 -0.0967197275134477 2.26054626031158
0.117447087968982 -0.177659925647552 2.33647354984562
0.150283344573645 -0.139770586579556 2.3221108679518
-0.389206849115618 -0.0845979236436045 2.308511586365
-0.407137690489921 -0.0504069280531341 2.2769486468767
0.125075188591738 -0.137638529379794 2.36473297594857
0.155607062362578 -0.0997169588488438 2.34757317019478
-0.373757256135424 -0.0768178700151335 2.34999374713665
-0.397664437486146 -0.0389600366882493 2.32425755455387
0.128728562562109 -0.10021430973799 2.39278731033445
0.152738052954186 -0.062472976745844 2.37887521631203
-0.376336442883564 -0.0315528166067034 2.36714211701982
-0.344281750512507 -0.0201630021505625 2.40467020508265
-0.363745969157374 0.0132578752886615 2.38471434266738
0.0859361924817163 -0.049413973057367 2.44895711584451
0.109584630405327 -0.0102961131874641 2.43454747095049
0.122726228301173 -0.0579927952857768 2.4186992759253
-0.318661673418757 0.00737106706169268 2.42374785882532
-0.266185721012331 0.0178177181289883 2.44568598706172
-0.297867289944907 0.0461080185443767 2.42798335817848
-0.216690819368983 0.00889778620556302 2.45468760840439
-0.169437248497095 0.0114960826786904 2.4599721103008
-0.122860424239292 0.0098176044371108 2.46554699997238
-0.0760703819627124 0.00807195441504352 2.4711333364066
-0.0332168148990929 -0.0029200330168401 2.47727297330313
-0.00746288345590748 0.0332712224499351 2.4711387349675
0.0174389526551808 -0.00697755174796035 2.47564961867951
0.0662013176744988 -0.00714803945736891 2.46089332220432
-0.26415592473727 0.075163504396696 2.43004797841547
-0.232777332468089 0.0513973822873199 2.44496564485787
-0.188627863983578 0.0563840127108019 2.44773050028895
-0.14255434148699 0.0560883295299897 2.45226927261337
-0.0959073666361657 0.0537708861062785 2.45756375117547
-0.0475371691741848 0.0517226690367696 2.46290420802158
0.00849656924200407 0.0700901466416722 2.4551545482523
-0.343757425819106 -0.273291911319198 2.04028918982978
-0.327262051298403 -0.260935418719622 2.00100764973703
-0.296975808269127 -0.296672471319652 2.0158499084477
-0.248114953067173 -0.298369026899965 1.98908990560583
-0.206423568989731 -0.321603132261364 2.01590477643831
-0.155842627971195 -0.317827990861064 2.00923458812859
-0.105931463451364 -0.323226824213924 2.01760875821896
-0.0539325528831956 -0.327587513002178 2.02438360648409
-0.00869911224891987 -0.333322769425958 2.03341140090682
0.035330362199751 -0.336608440655876 2.04968546104382
0.0779018951693129 -0.318929271630764 2.04830073283834
0.0903830419022776 -0.331051263162077 2.0967276885195
0.117246131945075 -0.305626640936786 2.0780921405787
-0.373532841670581 -0.24988333509679 2.07279156025274
-0.390753963358529 -0.203793285851353 2.05818578155518
-0.367469469125765 -0.231789391629054 2.02902006800986
0.133797451034009 -0.301470168719951 2.12258823007122
0.150034183027326 -0.273964516091141 2.09033647663609
0.159932330828705 -0.268857249520964 2.14538564160054
-0.404772903579253 -0.169447215688541 2.09346801438502
0.180071198024763 -0.22694106877237 2.14129978140828
-0.407586550038649 -0.137322491899221 2.12494713467231
0.171933948548977 -0.233174772783797 2.18402681517224
-0.408502984689758 -0.113659817875078 2.16689142414725
0.177862188190157 -0.190396825383516 2.20631926494734
-0.410263619314034 -0.0733088388466257 2.18100450896826
0.180730502058615 -0.149355017941028 2.22887901289376
-0.410250582119981 -0.0638570333538647 2.22793418294922
0.181619272217156 -0.111067783700997 2.2548062458324
-0.413022254083426 -0.01553513015498 2.24465853420015
0.173809038577161 -0.0967928386819142 2.29974471727047
-0.40921726383525 -0.00281282840313417 2.29461913844336
0.174257236605798 -0.0567149156878527 2.33113949334881
-0.392442114262875 0.00718541480723457 2.34235041920902
-0.39845808291414 0.0434866762143737 2.31204624227848
0.142848529313263 -0.0170143813858106 2.40095896470419
0.167221972552504 -0.0223975651367117 2.36014337955136
-0.374783643766448 0.0508074162151712 2.35802405678595
-0.340122444295731 0.0476795667548961 2.39949084681128
-0.346633265569322 0.088208410938335 2.37025603406179
0.0424549487204255 0.0341395655948734 2.46210018613496
0.0889725999565814 0.0327621448161369 2.44062125374833
0.127920585925889 0.0291661770623559 2.40879129696469
-0.309968850948454 0.0854623338780013 2.40387953804766
-0.269204267126135 0.111891292013161 2.40623726803286
-0.216921742105209 0.0963726919123149 2.42658123830285
-0.167870790773183 0.0980809381224013 2.42919352950196
-0.120550168511592 0.0966830832481909 2.4335286655467
-0.0732341563811335 0.0932387008331952 2.43919815827971
-0.0272493450602636 0.0935038412717363 2.44222692656596
0.026527150717226 0.103616725025309 2.42929309685159
0.0599321493627876 0.0717589897544389 2.439022797253
-0.315577566153289 -0.230642594992304 1.96450240539434
-0.284561247891248 -0.269808655202297 1.97551705428094
-0.236021531033909 -0.268190259702747 1.9553148573604
-0.199071621031174 -0.295894035512108 1.97978950198896
-0.155274255301501 -0.284739732966745 1.97014999168668
-0.115145797223927 -0.292501572267773 1.97967741090604
-0.068251490388977 -0.301360290124216 1.99067248063794
-0.0121022738788481 -0.302909201870878 1.99466139361013
0.0353069218174375 -0.312238603871355 2.01248867673866
0.0808034479563415 -0.289046146491421 2.01078247306619
0.118773413788513 -0.283711525919389 2.04287198917435
-0.378622339624958 -0.179951713317745 2.0132282755555
-0.351155478052182 -0.218668522368474 1.99365350037745
0.15188517681604 -0.247538084006832 2.05171675968623
0.172085671282357 -0.238053796191667 2.09961939449848
-0.397539378016906 -0.156290901515665 2.05200800021084
0.189086018891358 -0.189921791527602 2.11188399894345
-0.402490507611561 -0.11431376323888 2.07948189570872
0.188010362662073 -0.18537616281697 2.16146756082943
-0.406260507230462 -0.0887700576764035 2.12610416341431
0.189092039536076 -0.142112382303435 2.18169093532077
-0.404978312372955 -0.0444786163603989 2.14436381750463
0.189164976728047 -0.101915747500541 2.20698734573191
-0.409823607068852 -0.026725614718351 2.19464273763034
0.18635048822454 -0.0690381832370176 2.25069150976192
-0.408239711042575 0.0192871958050121 2.21152989091676
0.183415250666442 -0.0458786398805582 2.28909540725941
-0.409675489057491 0.0319060049524088 2.26239271037453
0.178927155412123 -0.000793087886229985 2.32257863669378
-0.39418843492416 0.0775182475823473 2.27954005207926
0.157790964730606 0.021104448916045 2.3692218888903
-0.375480084790866 0.0864443389874614 2.32683605351191
-0.342243882982075 0.123531589614305 2.33764500976435
0.102319033073462 0.0710808832241271 2.41145273227608
0.137622890996519 0.0649255331624946 2.37556507762484
-0.308428829340916 0.122747625196316 2.37474606489809
-0.264583355699636 0.148534724803254 2.372618421593
-0.229236580524341 0.130832890862164 2.39972826328987
-0.184292360155586 0.134145805490666 2.39889831262324
-0.140177654618268 0.134169991461359 2.40085104824143
-0.0935110130096563 0.130035733873588 2.40705985087731
-0.050217786220932 0.129486054567703 2.40954771761023
-0.00763583382683522 0.127266329670591 2.4131079907301
0.0698546989545628 0.108165664040713 2.40604699060613
-0.311704267536674 -0.197403471906825 1.93428399444448
-0.273659685582364 -0.236665164893354 1.94054574633619
-0.226667701535888 -0.235256907695123 1.92225903944185
-0.187348935677598 -0.260751156685588 1.94482389503176
-0.13340002978945 -0.252511252199756 1.93903607752115
-0.0876704794587441 -0.264704191836096 1.95322763711043
-0.0421656135702073 -0.27622290314649 1.96673794633021
0.00138878558218612 -0.265277491559182 1.95779053342712
0.0387919670358968 -0.281495627723672 1.98064727294724
0.0856799023573859 -0.256099414636795 1.97692457646032
0.122295705955828 -0.253564765037172 2.00967268515757
-0.373133550935173 -0.143795768556783 1.98147593855236
-0.349182034182478 -0.185555551472351 1.9674069895479
0.158288065945321 -0.215212357935226 2.0194072089196
0.178368989511685 -0.205282798092203 2.06543659665228
-0.392252084523587 -0.124960215047917 2.02497719167733
0.195839933483266 -0.157144263350399 2.08192947195206
-0.395278427683948 -0.0786675808665821 2.04471024295251
0.194994383100212 -0.143904751998908 2.13328898257788
-0.399611489554629 -0.0610629421093963 2.09072882600386
0.195869976649993 -0.0968651998603696 2.15657820039517
-0.398395198681187 -0.0145833781878392 2.11092815587326
0.193516760267085 -0.0577721420800216 2.20057958719192
-0.402966195279377 0.00433072006683475 2.15969054502015
0.19189117524528 -0.0252231314804594 2.2345504158737
-0.401517931970116 0.0516000288728088 2.17853681694306
0.188358683035502 -0.00419639765140372 2.27610173952614
-0.402929546673816 0.0656809003536167 2.22979400788511
0.185209547831005 0.0393990191909218 2.28974106659193
-0.387353599791609 0.110916782074854 2.24674134822585
0.167001190897323 0.0497386279900503 2.33421711094905
-0.36883064378581 0.119938358661887 2.29398041462953
-0.334633448403551 0.157575492352723 2.30499444883711
0.109665663150172 0.106346107837693 2.37690864367223
0.145671621334261 0.097095073143065 2.3417067658626
-0.301542715804424 0.156554565340804 2.34160699014592
-0.252631378634724 0.181027899896566 2.34262151712612
-0.212693516672139 0.163295641150374 2.36859696672022
-0.161641716398887 0.169165275554549 2.36504016059375
-0.109069977676686 0.162442666829575 2.37409114135031
-0.0606773999707019 0.163421816276544 2.37528533661523
-0.0146328102629734 0.16096786720473 2.3797926091386
0.0328981689168082 0.140310397850774 2.39380135526741
0.0743656409439713 0.144078869163707 2.37227786350515
-0.305615146482751 -0.164909181732388 1.90270292548141
-0.268174288407562 -0.203227591647159 1.90825729945127
-0.220158933675584 -0.203693654620657 1.89109934024084
-0.175683708599328 -0.229624206031284 1.91434873621057
-0.128241071527073 -0.215943753441841 1.90285275888898
-0.0864172876778203 -0.230066345705006 1.91879141404867
-0.0419985683632244 -0.243323352075115 1.93398339056768
0.00455969879702613 -0.230136760439824 1.92293863959363
0.0474380795405247 -0.246719585241656 1.94684799724722
0.0932313191036257 -0.222219523939523 1.94396804993725
0.128940883712026 -0.221696502844719 1.97842439826978
-0.366084061743243 -0.109807006171797 1.94767420395678
-0.34328532504444 -0.153933374368151 1.9369616390567
0.165177242614086 -0.182625942218507 1.98781879845684
0.185507774329293 -0.17175148437291 2.03378044006962
-0.385325025816497 -0.0939769334424803 1.9922111114933
0.202500942664167 -0.124623880532954 2.05118652955712
-0.388422312842987 -0.0480675696725324 2.00954056218609
0.201495373595555 -0.110122067959801 2.10301411031236
-0.392719180555423 -0.0253185695685984 2.05858215405599
0.203349538515583 -0.0639116595690041 2.1179286362118
-0.39234028060857 0.0207381714433173 2.08520182030468
0.199318381648226 -0.0464340390745222 2.16144584569451
-0.396268955571177 0.0384655430606022 2.12806707592716
0.199228885260859 -0.00234565756446014 2.19055515262923
-0.39459735512187 0.0838171904090333 2.14389264775637
0.195433702413337 0.0235811114776786 2.23762309866673
-0.396406095278293 0.0978227708664462 2.1963808304273
0.19290233332378 0.069750408442996 2.25443198944694
-0.380637650695654 0.143591421329955 2.21480300231862
0.173140842723859 0.0859142719887981 2.30116497276217
-0.361551007808986 0.153483027722607 2.26195350666682
-0.325755447132742 0.191111804502704 2.27468902063003
0.115677046403407 0.140376862791907 2.34420342933829
0.151673132153433 0.131670681523239 2.30907203045647
-0.291177599586044 0.189813432183492 2.31162722623558
-0.242519109244111 0.213589200277954 2.31170976206038
-0.20145015911695 0.194963831139493 2.33756454935226
-0.156372880671386 0.207966801848764 2.32663741547943
-0.119467177426673 0.192224860018642 2.34396727700311
-0.0717400970342879 0.194882748533916 2.34345976063967
-0.0213651899941663 0.194955125659478 2.3456456909338
0.0284300998420342 0.174890700618533 2.36265327712071
0.0762492523318485 0.177407553298978 2.34216534660684
-0.298814592529877 -0.132398952368487 1.87046344769965
-0.26200737726546 -0.170157713441041 1.87593261626028
-0.215659277942391 -0.171122484554625 1.85940983937995
-0.171781874450709 -0.197201331016499 1.88223694051097
-0.121824423000502 -0.181393241029259 1.8687336229721
-0.080003533779482 -0.194738945541372 1.88389809595466
-0.0382878639066064 -0.209444191058624 1.90041245898611
0.0082185244325574 -0.195304632515393 1.88841608378985
0.051412887356126 -0.213745522090489 1.91342264131595
0.0970113915063909 -0.190428993146546 1.91066859188565
0.135724264712257 -0.189358890807263 1.94676889081973
-0.360497045973145 -0.0750010021240094 1.9165562205708
-0.336542663851577 -0.121962766608331 1.90509723987036
0.171708281113999 -0.150212602561792 1.95567448266989
0.192268607411219 -0.138829863579816 2.00154664950142
-0.378785739709298 -0.0590880624502667 1.95981592206497
0.208971867013341 -0.0926595273576111 2.01810755638458
-0.380900584375603 -0.0103087975968942 1.97365381368191
0.20853397801354 -0.0769430990822368 2.06803794394055
-0.385646100123505 -0.00133895961163273 2.01741417366448
0.209812366515155 -0.0275739272886535 2.08959833744936
-0.386721674762702 0.0306102217577485 2.04659188107994
0.205274962295096 -0.0105278026280463 2.13689667837162
-0.388752965655402 0.0717519259785709 2.08934583341321
0.206382280062287 0.0345143629698668 2.15703707674436
-0.388105773884181 0.115567681780043 2.11237936625897
0.201967597759127 0.0513774714238778 2.20323099637054
-0.389882043621298 0.129845197234798 2.16479880280936
0.200024920001452 0.100144684748504 2.22098618684207
-0.373062497140835 0.177017152927865 2.18559558903423
0.180667875323638 0.117663287098396 2.26756760410312
-0.353656278572013 0.186791836943289 2.23170159037091
-0.318111923026318 0.223952236063726 2.24354905402568
0.120992637619431 0.173691100490818 2.31270752284928
0.158561497301783 0.164157719388551 2.27663644977227
-0.282588826575263 0.222549125036377 2.28077733429719
-0.235756791416395 0.246795540218712 2.27894512424251
-0.194065647488784 0.230036925424817 2.30296954979646
-0.143307881852616 0.24214545142433 2.29318652384622
-0.104116316213582 0.225011584342632 2.31200561443498
-0.055810964851671 0.2274477744417 2.31174448495848
-0.00773059959181473 0.228042962300022 2.31330672626254
0.0322411952182712 0.206086497939139 2.33240918396907
0.0839029081284559 0.208292780632021 2.3109395209567
-0.299497125332152 -0.0974012437544565 1.84358892281564
-0.255023089994696 -0.13629843057471 1.84247760455655
-0.207121601436763 -0.139512328096169 1.82780728153162
-0.166163923267637 -0.166313882001295 1.85173028228957
-0.116067228878074 -0.148360686583383 1.83614947321157
-0.0726313466473268 -0.159175781593068 1.84881445662128
-0.0330035647459742 -0.173433561489881 1.86478826499602
0.0107162632199739 -0.160030867655327 1.85341297086333
0.0547499579133477 -0.18107888425855 1.88019697229555
0.1016644444416 -0.158200765385032 1.87755125564412
0.138594701851297 -0.159766587422466 1.91359329135245
-0.354533760281317 -0.0395973480246943 1.88527746603719
-0.333234209318456 -0.0876270539470159 1.87644257329331
0.172756153186468 -0.123508689409857 1.92005429664436
0.198745568473345 -0.105980059186242 1.96813196559294
-0.372062768236189 -0.0229792980178969 1.92650155437265
0.216477255419913 -0.0561809926175158 1.99604420747554
-0.374065386687184 0.0260954218917516 1.94600057419748
0.214914724232551 -0.0405182792956013 2.04042602623823
-0.379267710115242 0.0426097514259537 1.99466140783179
0.216521393672036 0.00741936500217025 2.05725629092695
-0.382622830925224 0.0718620852818494 2.04035219190619
0.212055165921767 0.0234440991708066 2.10450354982636
-0.381277072530727 0.115513094375815 2.05768399727731
0.213324143790538 0.0687926544513423 2.12311652017332
-0.382180422758719 0.152313072739399 2.08868836291838
0.208822710192491 0.0860002004266166 2.17065670872018
-0.382906007490241 0.163464793668038 2.13775452307105
0.206524152307164 0.133050745835034 2.18920290146743
-0.366177361843352 0.209928166442942 2.15398040289931
0.187604589094323 0.149427442809833 2.23521465998665
-0.346196758021085 0.220111090509275 2.2003722427244
-0.311453803959003 0.256661745253084 2.21126761370656
0.128303327367427 0.206243899675829 2.27995640233976
0.165430134784697 0.196703256453621 2.24411969234976
-0.276217913657842 0.255129517203403 2.24843216469118
-0.229653267992713 0.279563869688872 2.24636245004975
-0.186298184328517 0.263322385297281 2.27017114962004
-0.137491614285157 0.274189780192815 2.26150862147942
-0.0901225379929612 0.259564079346101 2.27822452979953
-0.0401143416424028 0.259887717853017 2.2801435724986
0.00638906071352947 0.259763260200256 2.28235176375276
0.0451279325323603 0.236740135216905 2.30067145903421
0.0914954702861139 0.240881852563504 2.27824904888108
-0.262111327228459 -0.0998056186329837 1.81828596576328
-0.22058737923776 -0.104735288106546 1.80505736980048
-0.17412539520298 -0.102947438558634 1.79887604594988
-0.159727748872425 -0.135584010666799 1.82234344237916
-0.122083747465385 -0.109189346626849 1.80628302201465
-0.0755191975122182 -0.121055627276908 1.81707224850189
-0.0288271093411251 -0.132186941793957 1.82789209828576
0.0192212135053284 -0.122172886257814 1.82488546106754
0.0582662092980455 -0.149053671851051 1.84914796508994
0.103008280736323 -0.123480470405953 1.8478116611348
0.143225071775552 -0.126080244799245 1.88093893300574
-0.34166230932002 -0.00418221353412759 1.85814650836582
-0.325521452955127 -0.0518872562617068 1.84630953070394
0.192250020681112 -0.0862568490065949 1.92097470018147
0.210132874060597 -0.0619262917703554 1.9531675824473
-0.361811746000206 0.0144805170353857 1.89656416610495
0.216102630697803 -0.018097529983381 1.96160492722592
-0.358435722214205 0.0598619545201618 1.91535846285188
0.218933192286536 -0.004027937596053 2.00629300657765
-0.368113079224974 0.0758880335176873 1.95943547964352
0.215895170970965 0.0405248502969912 2.02282501481753
-0.374995496749075 0.0956852498431628 2.00425677227087
0.216129732587153 0.0582640642264391 2.06957909172013
-0.368479709522778 0.14190974461335 2.01675160396492
0.213460505273977 0.101885193384368 2.08939886774151
-0.371307953300369 0.171036190305285 2.05112758986335
0.213331064831022 0.119829749810825 2.13583862162576
-0.375171771002027 0.195384711457595 2.1045081911944
0.207822861204208 0.162633309752789 2.15580510506928
-0.356945443408803 0.237009855765754 2.117345584769
0.192400337194717 0.182014804909903 2.20292869527261
-0.339536560762067 0.251278519189745 2.16615668338484
-0.303624967235853 0.284105802769137 2.17642738327366
0.133884289167543 0.23875127185747 2.24580617475297
0.16581759491761 0.228454612494189 2.2094425197685
-0.268333664669441 0.286938863094713 2.21544025589742
-0.219436339573868 0.30862361615505 2.20901352109582
-0.182437435541091 0.295611225301665 2.23503114131083
-0.140486766728582 0.30310389242957 2.22409838216715
-0.096538264658741 0.293575350579937 2.23891657524313
-0.0519621023348769 0.289109305567604 2.24576696533599
-0.00190826349389089 0.288003803506745 2.24768603268083
0.0497367773156748 0.270586414221123 2.2657867547452
0.0951910452037692 0.269765582682187 2.24336350129388
-0.286988991121531 -0.0589853096730301 1.81435263007493
-0.241538639716774 -0.0618388854077046 1.79231743550555
-0.193855949840704 -0.0644022328098039 1.78300639467873
-0.142059958609385 -0.068831065380389 1.78644193370876
-0.0916585848633901 -0.0756383683860583 1.79366015650288
-0.0456799601083087 -0.0857000978931422 1.80170369166832
-0.00158149798449564 -0.0855656927104731 1.80585303168349
0.0455650647120959 -0.0757885958608521 1.80752497279773
0.0655347026039145 -0.110129912873148 1.8249600303064
0.0979803352698048 -0.0750257156222664 1.82223794337147
0.134176757013056 -0.0912406251957013 1.84995436699556
-0.306474638641479 -0.0164543071909016 1.8203786414086
-0.28074514741714 0.0241828760820103 1.80435636557211
-0.263871249182544 -0.0198930703906034 1.79332381813683
0.144886679695206 -0.0505634710371845 1.84515216857123
0.17050469005899 -0.0825193846910236 1.8821412266229
0.17441280734465 -0.0356070224796673 1.87251526235785
-0.33800095011326 0.0505236463908448 1.86699837865567
-0.318358588030591 0.0261304853123136 1.83431948067226
0.198372382047773 -0.0398053287733748 1.9106354065248
0.20411261820678 0.00315361406821723 1.92533527430556
-0.334408909974636 0.08959192807049 1.89128667464864
0.210109677726416 0.0313551849447005 1.96717947024976
-0.344188717879325 0.111783236960717 1.92949101315994
0.205438858863338 0.0701517959484297 1.9926395231125
-0.356685259791552 0.12479583007871 1.96848395556728
0.20813402917704 0.0933199762960334 2.03366606175959
-0.345248336731306 0.164709562225371 1.98009530652393
0.203601185638989 0.131968095879269 2.05881569859871
-0.348895093216136 0.195060694315139 2.01499764418217
0.20609273524375 0.154943670383214 2.09963658317732
-0.362389340026849 0.213306778991092 2.0666837481755
0.198872932407109 0.192117257740876 2.12416509970324
-0.328137090960499 0.27426322979941 2.12733379133089
-0.340081021905771 0.256215170316008 2.07964921760459
-0.308823880712 0.289158851302448 2.08420098401516
0.189434761528415 0.209918825570547 2.16751448306991
0.176556670520793 0.233589915288235 2.12262828046179
0.16330102529348 0.24885074114099 2.16709773204262
-0.26014297764473 0.309914162956491 2.177370255289
-0.293876891951508 0.301662521225221 2.1363454601124
-0.251779144092711 0.322891904362689 2.1342605973304
0.13066253094511 0.267622647183741 2.20522296153955
0.0988109390474783 0.298148896311161 2.16756898123471
0.0862721022625529 0.293310066008568 2.20668528896414
-0.212707348989358 0.326297606843034 2.16804092189984
-0.168871590585441 0.321229133378993 2.18823799086783
-0.115999524056772 0.31842089053172 2.19097405301967
-0.0716245770394605 0.313477135083966 2.20020232665473
-0.0278711921509239 0.309986805393794 2.20559042645424
0.0148568944377184 0.308637708189161 2.20523222650182
0.0477910174618141 0.295044478915165 2.22934193632044
-0.21499124127194 -0.0216687982010466 1.77758301449145
-0.163747219274435 -0.0263341631534384 1.77514444598099
-0.113053187860403 -0.0306681041135149 1.78132449264325
-0.065264575700043 -0.0357521387378086 1.78743496592489
-0.0205017085060658 -0.0395493410500757 1.79305029175463
0.0236071536362531 -0.0356456647755189 1.79783039343277
0.0721840395593833 -0.0343976238290129 1.80573828498533
-0.236484533631513 0.0203120472657649 1.78394178618397
-0.208831079762495 0.0576471953730722 1.78626512664967
-0.185077591184454 0.0173278975965541 1.77496535593601
-0.134337185508305 0.0135722591874812 1.77854857961868
-0.0867056118018137 0.0122444549856277 1.7847769127219
-0.0395027939305511 0.00857304208138543 1.79068927006047
0.00526378692331408 0.00985593953803786 1.79692001245364
0.0521635315615523 0.0088828253489334 1.80328579085404
0.100271565528655 0.0102926101414136 1.81806150256817
0.147159761620277 0.00225638707968916 1.84612186546988
0.115684172720577 -0.0301115253314777 1.8230973990361
-0.298393434266535 0.0656128693784022 1.83032049022022
-0.265977872893414 0.1038016411503 1.8308894738925
-0.255719183538672 0.0642988417112032 1.80287860287432
0.123624026392367 0.044761290517119 1.84086342491621
0.180962027312935 0.00681543786437604 1.88364709864684
0.159591647997237 0.04669543470168 1.8728402292963
-0.305974920273266 0.0981007443749649 1.85973813815709
-0.272260823819978 0.136446466967853 1.8653550633985
0.189727936613312 0.0443936106777423 1.91648432723189
0.162330995508208 0.0831927121331431 1.90522500658911
-0.310348142101182 0.13265343800981 1.89767302502156
-0.279060135954444 0.168614921768338 1.90172222324426
0.188919068661007 0.0763582005984206 1.94808956366256
0.160629367451938 0.117083869380607 1.93899360561817
-0.321318764716252 0.159074690315159 1.93658673299259
-0.283710855765233 0.198340633719823 1.9342344953614
0.187742197854111 0.110682404549202 1.98345615311149
0.15981571006328 0.150006028497979 1.97305716348731
-0.317877056912738 0.198826094943567 1.96969037272396
-0.281516488706413 0.233676666682355 1.96668765825321
0.187244853211387 0.140593895425765 2.0155956278248
0.159357859999218 0.182259463266313 2.0069572744453
-0.314822387892035 0.23502286215905 2.00031421249499
-0.280657319076419 0.270990655460311 2.00375146661157
0.186405882597308 0.174376090729942 2.05124010409728
0.158357050595842 0.21468722828692 2.04022653350387
-0.33852009126744 0.236225384409195 2.03660970815174
-0.308878530112379 0.272887301522963 2.03978949852754
0.184896641857396 0.204709026460718 2.08282760460526
0.155306629376258 0.244600193009037 2.0754134139697
-0.275408282869209 0.312463442688931 2.09433907565599
-0.270246554368656 0.30270131912372 2.04658411099907
-0.237634972250225 0.325048685696265 2.07982822422239
0.133156759568892 0.278526028646532 2.15799249506664
0.14689677917583 0.266423445383326 2.11658866417434
0.107268131826199 0.294359421733853 2.1157065759807
-0.213192474833214 0.33336602947294 2.1195491419424
-0.187467677110421 0.332970385949218 2.08384144916726
-0.172738863262957 0.333762810792176 2.13828261296374
-0.143613152175615 0.331732296042395 2.09750517055366
-0.130358711803847 0.329813998197735 2.14782053220207
-0.0995580180337916 0.328186930667061 2.10300210261631
-0.0836127393220965 0.326412607951447 2.15092900258603
-0.0547577948964719 0.324384010418495 2.10676100450774
-0.0393832915447095 0.322746960950491 2.15729995128867
-0.0112403846046927 0.320718473930692 2.11078278642047
0.00509386239367578 0.319562055810186 2.15960406191719
0.0329040883876345 0.317466804234063 2.11898855502638
0.0506607257464331 0.312839271488983 2.17498494180625
0.0705266906735045 0.310977256042488 2.13193796066943
-0.177754327883196 0.0909380274928402 1.79837134444904
-0.155554612257581 0.0558083731346422 1.78455627558148
-0.109841662357825 0.0580533841260144 1.79220077544158
-0.0611732039300346 0.0536638693193934 1.79811128430503
-0.0162878311533253 0.0553191366560063 1.80567866395324
0.0290676771915407 0.054357700296529 1.81241165741124
0.0750246617007287 0.0501937431457744 1.81998649765173
-0.222755886945435 0.100076061884632 1.80964661147126
-0.179953108314325 0.127121144121285 1.82391961375771
-0.134143257125564 0.100965780296578 1.80946678779665
-0.0832857893723024 0.0937246967337073 1.81381806261692
-0.0389874253625016 0.0969521029466442 1.82377888874691
0.00550560252906579 0.0968031109614815 1.83172792110491
0.0506422417232288 0.0937535419023707 1.83779472230568
0.0939474771652437 0.0838575612756185 1.84541607873001
0.12852112008475 0.087127055409359 1.87051313944205
-0.227459609425423 0.135577877082151 1.84048096493476
-0.187409783139812 0.16064898009124 1.85726178068967
-0.141642300631344 0.143555721753592 1.84452905037604
-0.102576049968815 0.127021998459113 1.83598120133701
-0.0597988228069945 0.132371787799247 1.85009289876723
-0.0161260067653159 0.132986320560697 1.85973396081842
0.0319318327215495 0.129101965090305 1.86572033504948
0.0816771919497565 0.121118390344375 1.87222742652976
0.126329232382831 0.119715806928978 1.90127147937929
-0.234123126778427 0.167953946939811 1.87494470266093
-0.188904080230043 0.192848694769588 1.88959827989473
-0.142978210235903 0.177437209238258 1.87859176759524
-0.09651867562851 0.160486875137139 1.87100568877117
-0.0495879909999251 0.167330752717546 1.88763194827103
0.000547642972602236 0.163199726009599 1.89379736265378
0.0482925118535723 0.158878326077377 1.89928821843087
0.0902904945355545 0.150954216252267 1.90730837024511
0.125383622976024 0.154402534539085 1.93667548221162
-0.237420880418031 0.199314352018278 1.9071939730286
-0.191245107728278 0.223488420770012 1.9204245672137
-0.142391127018581 0.211592309972895 1.9133285941501
-0.0999764548427377 0.193335600655087 1.90358295317063
-0.062101282814244 0.202153253342404 1.92034003077676
-0.0174551496056323 0.196070832747028 1.92339407419817
0.0304993969531743 0.192299139205374 1.92947293010756
0.079465072485967 0.185813572035933 1.93752608744539
0.124535792342926 0.185546855448009 1.96846868581458
-0.240460082566192 0.229809255752406 1.9385093458916
-0.197403536597633 0.253818721455421 1.95126851086871
-0.14748142755551 0.243840951312568 1.94496028459163
-0.098363937166791 0.231408204397678 1.94250266967788
-0.0468555701173472 0.231542405059924 1.95327370848953
0.00125251302984762 0.226714872212478 1.95831477112645
0.0476079553027577 0.2231209664216 1.96430392197187
0.0890061526348384 0.215909937172253 1.97346325490714
0.123946262448325 0.219674876991944 2.00363490531569
-0.244904892201412 0.262644314972212 1.97276906688198
-0.206899898960192 0.284691013819505 1.98389340455537
-0.159966698133704 0.277650895443195 1.9767139614413
-0.113454482268293 0.267326504160839 1.9757893977938
-0.0688567122896931 0.262744630013436 1.98035367508963
-0.0199261342417628 0.260438755268832 1.98812044562555
0.0288288031588013 0.256681179476662 1.99437852817799
0.0778369687743787 0.250890504588119 2.00350268706149
0.122557463255672 0.250243840440315 2.03524407954557
-0.24048321557934 0.297370426984372 2.01188751968074
-0.183861577952719 0.307046834727044 2.01242724801724
-0.135181617826244 0.300467560084204 2.01101066894818
-0.0905973691311847 0.295530572850873 2.01450489723995
-0.0457781483619431 0.29128955913364 2.01914639315056
0.000548091666438488 0.288182679082148 2.02587014739789
0.0455744240917569 0.285152242011001 2.03254458943319
0.0861706150345673 0.27834988098976 2.04267416926019
0.117918160505533 0.277509656374634 2.07606228798774
-0.215458676355002 0.319466414321628 2.04311382775905
-0.161289995956622 0.322706535107658 2.04889912880481
-0.115569304886715 0.319134639036432 2.05491298759485
-0.0705504590033964 0.314992568490079 2.0590802461569
-0.024840058506281 0.310806290262632 2.06339903985373
0.0222525384524174 0.307555484606139 2.07075739750128
0.0691046279133399 0.30230951889016 2.08100391485365
3 0 1 2
3 0 2 4
3 3 0 4
3 3 4 6
3 5 3 6
3 5 6 8
3 7 5 8
3 7 8 10
3 9 7 10
3 9 10 12
3 11 9 12
3 13 11 14
3 14 11 12
3 13 14 15
3 16 17 18
3 16 18 1
3 0 19 1
3 19 16 1
3 0 3 20
3 19 0 20
3 3 5 21
3 20 3 21
3 5 7 22
3 21 5 22
3 7 9 23
3 22 7 23
3 9 11 24
3 23 9 24
3 24 11 25
3 25 11 13
3 13 15 26
3 27 13 26
3 25 13 27
3 27 26 28
3 17 16 30
3 30 16 29
3 29 19 31
3 29 16 19
3 31 20 32
3 31 19 20
3 32 21 33
3 32 20 21
3 21 22 33
3 33 22 34
3 22 23 34
3 34 23 35
3 23 24 35
3 35 24 36
3 24 25 36
3 36 25 37
3 37 27 38
3 37 25 27
3 38 28 39
3 38 27 28
3 30 40 41
3 30 29 40
3 29 31 42
3 40 29 42
3 31 32 43
3 42 31 43
3 32 33 44
3 43 32 44
3 33 34 45
3 44 33 45
3 34 35 46
3 45 34 46
3 35 36 47
3 46 35 47
3 36 37 47
3 47 37 48
3 37 38 48
3 48 38 49
3 49 39 50
3 49 38 39
3 40 51 52
3 41 40 52
3 51 42 53
3 51 40 42
3 42 43 53
3 53 43 54
3 43 44 54
3 54 44 55
3 44 45 55
3 55 45 56
3 45 46 56
3 56 46 57
3 46 47 58
3 57 46 58
3 47 48 59
3 58 47 59
3 48 49 60
3 59 48 60
3 49 50 61
3 60 49 61
3 51 62 63
3 52 51 63
3 51 53 64
3 62 51 64
3 53 54 65
3 64 53 65
3 54 55 66
3 65 54 66
3 55 56 67
3 66 55 67
3 56 57 67
3 67 57 68
3 57 58 69
3 68 57 69
3 58 59 69
3 69 59 70
3 59 60 70
3 70 60 71
3 71 61 72
3 71 60 61
3 62 73 74
3 63 62 74
3 62 64 75
3 73 62 75
3 64 65 75
3 75 65 76
3 65 66 76
3 76 66 77
3 66 67 77
3 77 67 78
3 67 68 78
3 78 68 79
3 79 69 80
3 79 68 69
3 80 70 81
3 80 69 70
3 81 71 82
3 81 70 71
3 82 72 83
3 82 71 72
3 74 73 85
3 85 73 84
3 84 73 86
3 86 73 75
3 75 76 86
3 86 76 87
3 76 77 88
3 87 76 88
3 77 78 89
3 88 77 89
3 78 79 90
3 89 78 90
3 79 80 91
3 90 79 91
3 80 81 92
3 91 80 92
3 81 82 93
3 92 81 93
3 93 83 94
3 93 82 83
3 84 95 85
3 84 86 96
3 97 84 96
3 95 84 97
3 96 87 98
3 96 86 87
3 87 88 98
3 98 88 99
3 88 89 99
3 99 89 100
3 89 90 100
3 100 90 101
3 101 91 102
3 101 90 91
3 102 92 103
3 102 91 92
3 92 93 103
3 105 103 104
3 103 93 104
3 93 94 104
3 96 106 97
3 96 98 107
3 106 96 107
3 98 99 108
3 107 98 108
3 99 100 109
3 108 99 109
3 100 101 110
3 109 100 110
3 101 102 111
3 110 101 111
3 111 102 112
3 112 102 103
3 103 105 112
3 117 114 115
3 116 113 117
3 117 113 114
3 116 117 119
3 118 116 119
3 118 119 121
3 120 118 121
3 120 121 123
3 122 120 123
3 122 123 125
3 124 122 125
3 124 125 127
3 126 124 127
3 126 127 128
3 129 130 131
3 114 129 131
3 114 113 129
3 113 2 129
3 129 2 1
3 4 113 116
3 4 2 113
3 6 116 118
3 6 4 116
3 8 118 120
3 8 6 118
3 10 120 122
3 10 8 120
3 12 122 124
3 12 10 122
3 14 124 126
3 14 12 124
3 133 126 128
3 15 14 126
3 15 126 133
3 132 15 133
3 132 133 134
3 135 136 137
3 137 17 135
3 137 18 17
3 18 137 130
3 129 18 130
3 18 129 1
3 15 132 26
3 139 132 134
3 139 138 132
3 138 28 26
3 132 138 26
3 138 139 140
3 136 135 142
3 142 135 141
3 17 30 135
3 135 30 141
3 143 39 28
3 138 143 28
3 143 140 144
3 143 138 140
3 141 145 146
3 142 141 146
3 41 145 141
3 30 41 141
3 147 39 143
3 147 50 39
3 147 144 148
3 147 143 144
3 145 149 150
3 146 145 150
3 52 149 145
3 41 52 145
3 151 50 147
3 151 155 50
3 151 148 152
3 151 147 148
3 149 153 154
3 150 149 154
3 63 153 149
3 52 63 149
3 155 61 50
3 155 72 61
3 155 151 156
3 156 151 152
3 154 157 158
3 154 153 157
3 74 157 153
3 63 74 153
3 159 72 155
3 159 83 72
3 159 156 160
3 159 155 156
3 158 157 162
3 162 157 161
3 74 85 161
3 157 74 161
3 163 83 159
3 163 94 83
3 163 160 164
3 163 159 160
3 161 165 162
3 165 95 166
3 165 161 95
3 161 85 95
3 165 166 167
3 95 97 166
3 105 104 168
3 170 94 163
3 170 168 94
3 169 168 170
3 94 168 104
3 163 164 170
3 166 171 167
3 173 171 172
3 172 171 106
3 171 97 106
3 171 166 97
3 172 107 174
3 172 106 107
3 174 108 175
3 174 107 108
3 175 109 176
3 175 108 109
3 176 110 177
3 176 109 110
3 177 111 178
3 177 110 111
3 178 112 180
3 178 111 112
3 181 105 168
3 181 180 105
3 179 178 180
3 180 112 105
3 168 169 181
3 172 182 173
3 182 172 183
3 183 172 174
3 174 175 184
3 183 174 184
3 175 176 185
3 184 175 185
3 176 177 186
3 185 176 186
3 177 178 187
3 186 177 187
3 187 179 188
3 187 178 179
3 179 180 229
3 189 190 191
3 114 131 191
3 115 114 191
3 115 191 192
3 115 192 193
3 117 115 193
3 119 193 194
3 119 117 193
3 119 194 121
3 121 194 195
3 121 195 123
3 123 195 196
3 123 196 125
3 125 196 197
3 127 197 198
3 127 125 197
3 128 198 199
3 200 128 199
3 128 127 198
3 200 199 201
3 202 203 204
3 131 130 189
3 190 189 204
3 189 130 202
3 189 202 204
3 131 189 191
3 128 200 133
3 134 200 205
3 206 205 201
3 134 133 200
3 205 200 201
3 205 206 207
3 136 208 203
3 202 137 136
3 202 136 203
3 137 202 130
3 134 205 139
3 139 205 207
3 140 139 207
3 211 207 209
3 136 142 208
3 208 142 210
3 211 140 207
3 211 144 140
3 146 212 210
3 142 146 210
3 148 144 213
3 213 144 211
3 150 214 212
3 146 150 212
3 215 148 213
3 215 152 148
3 154 216 150
3 150 216 214
3 219 152 217
3 217 152 215
3 158 218 216
3 154 158 216
3 219 156 152
3 219 160 156
3 158 220 218
3 158 162 220
3 221 160 219
3 221 164 160
3 162 165 222
3 223 220 222
3 220 162 222
3 165 167 222
3 169 170 224
3 225 164 221
3 224 170 164
3 224 164 225
3 222 226 223
3 167 171 227
3 226 167 227
3 226 227 228
3 226 222 167
3 171 173 227
3 180 181 229
3 181 169 230
3 231 169 224
3 230 169 231
3 230 229 181
3 224 225 271
3 227 232 228
3 232 182 233
3 232 173 182
3 227 173 232
3 182 183 234
3 233 182 234
3 183 184 234
3 234 184 235
3 184 185 235
3 235 185 236
3 185 186 236
3 236 186 237
3 186 187 237
3 237 187 238
3 238 188 239
3 238 187 188
3 188 179 229
3 240 239 188
3 240 188 229
3 229 230 240
3 191 190 242
3 242 190 241
3 192 242 243
3 192 191 242
3 192 243 244
3 193 192 244
3 194 244 245
3 194 193 244
3 194 245 246
3 195 194 246
3 195 246 247
3 196 195 247
3 196 247 248
3 197 196 248
3 197 248 249
3 198 197 249
3 199 198 249
3 250 199 249
3 201 199 251
3 251 199 250
3 204 252 253
3 204 203 252
3 190 253 241
3 190 204 253
3 206 251 254
3 206 201 251
3 207 206 255
3 255 206 254
3 203 256 252
3 203 208 256
3 257 209 255
3 255 209 207
3 210 258 208
3 208 258 256
3 211 209 259
3 259 209 257
3 212 260 210
3 210 260 258
3 213 211 259
3 261 213 259
3 214 262 260
3 212 214 260
3 215 213 261
3 263 215 261
3 216 264 214
3 214 264 262
3 217 215 263
3 265 217 263
3 218 266 264
3 216 218 264
3 219 217 265
3 267 219 265
3 218 268 266
3 218 220 268
3 221 219 267
3 269 221 267
3 223 270 268
3 220 223 268
3 225 221 269
3 271 225 269
3 223 226 272
3 270 223 272
3 272 228 273
3 272 226 228
3 274 231 275
3 274 230 231
3 275 231 271
3 271 231 224
3 273 228 276
3 276 228 232
3 276 233 277
3 276 232 233
3 233 234 278
3 277 233 278
3 234 235 279
3 278 234 279
3 235 236 280
3 279 235 280
3 236 237 281
3 280 236 281
3 237 238 282
3 281 237 282
3 238 239 283
3 282 238 283
3 327 239 284
3 284 239 240
3 240 230 274
3 284 240 274
3 241 285 286
3 242 241 286
3 242 286 243
3 243 286 287
3 243 287 288
3 244 243 288
3 245 288 289
3 245 244 288
3 245 289 246
3 246 289 290
3 246 290 247
3 247 290 291
3 247 291 248
3 248 291 292
3 248 292 293
3 249 248 293
3 249 293 250
3 250 293 294
3 250 294 295
3 251 250 295
3 252 296 297
3 253 252 297
3 241 297 285
3 241 253 297
3 254 295 298
3 254 251 295
3 254 298 299
3 255 254 299
3 256 300 252
3 252 300 296
3 257 255 299
3 301 257 299
3 258 302 300
3 256 258 300
3 259 257 303
3 303 257 301
3 260 304 258
3 258 304 302
3 261 259 303
3 305 261 303
3 262 306 304
3 260 262 304
3 263 261 305
3 307 263 305
3 264 308 262
3 262 308 306
3 265 263 307
3 309 265 307
3 266 310 308
3 264 266 308
3 267 265 309
3 311 267 309
3 266 312 310
3 266 268 312
3 269 267 311
3 313 269 311
3 270 314 312
3 268 270 312
3 271 269 315
3 315 269 313
3 270 272 316
3 314 270 316
3 316 273 317
3 316 272 273
3 318 275 319
3 318 274 275
3 275 271 315
3 319 275 315
3 273 276 320
3 317 273 320
3 276 277 320
3 320 277 321
3 277 278 322
3 321 277 322
3 322 279 323
3 322 278 279
3 279 280 323
3 323 280 324
3 280 281 324
3 324 281 325
3 281 282 325
3 325 282 326
3 282 283 326
3 326 283 327
3 283 239 327
3 327 284 328
3 284 274 318
3 328 284 318
3 285 329 330
3 286 285 330
3 286 330 287
3 287 330 331
3 287 331 332
3 288 287 332
3 288 332 289
3 289 332 333
3 289 333 334
3 290 289 334
3 290 334 335
3 291 290 335
3 291 335 292
3 292 335 336
3 292 336 337
3 293 292 337
3 293 337 294
3 294 337 338
3 294 338 339
3 295 294 339
3 296 340 341
3 297 296 341
3 285 341 329
3 285 297 341
3 298 339 342
3 298 295 339
3 298 342 343
3 299 298 343
3 300 344 296
3 296 344 340
3 301 299 343
3 345 301 343
3 302 346 344
3 300 302 344
3 303 301 347
3 347 301 345
3 304 348 302
3 302 348 346
3 305 303 347
3 349 305 347
3 306 350 348
3 304 306 348
3 307 305 351
3 351 305 349
3 308 352 306
3 306 352 350
3 309 307 353
3 353 307 351
3 310 354 352
3 308 310 352
3 311 309 355
3 355 309 353
3 312 356 310
3 310 356 354
3 313 311 355
3 357 313 355
3 314 358 356
3 312 314 356
3 315 313 359
3 359 313 357
3 314 316 360
3 358 314 360
3 360 317 361
3 360 316 317
3 362 319 363
3 362 318 319
3 319 315 359
3 363 319 359
3 317 320 364
3 361 317 364
3 320 321 364
3 364 321 365
3 321 322 366
3 365 321 366
3 322 323 366
3 366 323 367
3 323 324 368
3 367 323 368
3 324 325 369
3 368 324 369
3 325 326 370
3 369 325 370
3 326 327 371
3 370 326 371
3 327 328 371
3 371 328 372
3 328 318 362
3 372 328 362
3 329 373 374
3 330 329 374
3 330 374 331
3 331 374 375
3 331 375 376
3 332 331 376
3 332 376 333
3 333 376 377
3 333 377 378
3 334 333 378
3 334 378 379
3 335 334 379
3 335 379 336
3 336 379 380
3 336 380 381
3 337 336 381
3 337 381 338
3 338 381 382
3 338 382 383
3 339 338 383
3 340 384 385
3 341 340 385
3 329 385 373
3 329 341 385
3 342 383 386
3 342 339 383
3 342 386 387
3 343 342 387
3 344 388 340
3 340 388 384
3 345 343 387
3 389 345 387
3 346 390 388
3 344 346 388
3 347 345 391
3 391 345 389
3 348 392 346
3 346 392 390
3 349 347 391
3 393 349 391
3 350 394 348
3 348 394 392
3 351 349 395
3 395 349 393
3 352 396 350
3 350 396 394
3 353 351 395
3 397 353 395
3 354 398 396
3 352 354 396
3 355 353 399
3 399 353 397
3 356 400 354
3 354 400 398
3 357 355 399
3 401 357 399
3 358 402 400
3 356 358 400
3 359 357 403
3 403 357 401
3 358 360 404
3 402 358 404
3 404 361 405
3 404 360 361
3 406 363 407
3 406 362 363
3 363 359 403
3 407 363 403
3 361 364 408
3 405 361 408
3 364 365 408
3 408 365 409
3 365 366 410
3 409 365 410
3 366 367 410
3 410 367 411
3 367 368 412
3 411 367 412
3 368 369 412
3 412 369 413
3 369 370 413
3 413 370 414
3 370 371 415
3 414 370 415
3 371 372 415
3 415 372 416
3 372 362 406
3 416 372 406
3 373 417 418
3 374 373 418
3 374 418 375
3 375 418 419
3 375 419 420
3 376 375 420
3 376 420 377
3 377 420 421
3 377 421 422
3 378 377 422
3 378 422 423
3 379 378 423
3 380 423 424
3 380 379 423
3 380 424 425
3 381 380 425
3 382 425 426
3 382 381 425
3 382 426 427
3 383 382 427
3 384 428 429
3 385 384 429
3 373 429 417
3 373 385 429
3 386 427 430
3 386 383 427
3 386 430 431
3 387 386 431
3 384 432 428
3 384 388 432
3 389 387 431
3 433 389 431
3 390 434 432
3 388 390 432
3 435 389 433
3 435 391 389
3 390 436 434
3 390 392 436
3 393 391 435
3 437 393 435
3 394 438 436
3 392 394 436
3 395 393 439
3 439 393 437
3 396 440 438
3 394 396 438
3 397 395 439
3 441 397 439
3 398 442 440
3 396 398 440
3 399 397 443
3 443 397 441
3 400 444 398
3 398 444 442
3 401 399 443
3 445 401 443
3 402 446 444
3 400 402 444
3 403 401 447
3 447 401 445
3 402 404 448
3 446 402 448
3 448 405 449
3 448 404 405
3 450 407 451
3 450 406 407
3 407 403 447
3 451 407 447
3 405 408 452
3 449 405 452
3 408 409 452
3 452 409 453
3 409 410 454
3 453 409 454
3 410 411 454
3 454 411 455
3 411 412 456
3 455 411 456
3 412 413 456
3 456 413 457
3 457 414 458
3 457 413 414
3 414 415 459
3 458 414 459
3 415 416 459
3 459 416 460
3 416 406 450
3 460 416 450
3 418 461 462
3 418 417 461
3 419 462 463
3 419 418 462
3 419 463 464
3 420 419 464
3 420 464 421
3 421 464 465
3 421 465 466
3 422 421 466
3 422 466 467
3 423 422 467
3 424 467 468
3 424 423 467
3 424 468 469
3 425 424 469
3 426 469 470
3 426 425 469
3 427 426 471
3 471 426 470
3 429 428 473
3 473 428 472
3 417 473 505
3 417 429 473
3 430 427 471
3 520 430 471
3 431 474 475
3 431 430 474
3 428 476 472
3 428 432 476
3 433 431 475
3 477 433 475
3 434 478 476
3 432 434 476
3 479 433 477
3 479 435 433
3 434 480 478
3 434 436 480
3 437 435 479
3 481 437 479
3 438 482 436
3 436 482 480
3 439 437 483
3 483 437 481
3 440 484 482
3 438 440 482
3 441 439 483
3 485 441 483
3 442 486 440
3 440 486 484
3 443 441 487
3 487 441 485
3 444 488 442
3 442 488 486
3 445 443 487
3 489 445 487
3 444 446 488
3 488 446 490
3 491 445 489
3 491 447 445
3 490 446 492
3 492 446 448
3 492 449 493
3 492 448 449
3 494 451 495
3 494 450 451
3 451 447 491
3 495 451 491
3 449 452 496
3 493 449 496
3 496 453 497
3 496 452 453
3 453 454 498
3 497 453 498
3 498 455 499
3 498 454 455
3 455 456 500
3 499 455 500
3 456 457 501
3 500 456 501
3 457 458 502
3 501 457 502
3 458 459 503
3 502 458 503
3 503 460 504
3 503 459 460
3 504 460 494
3 494 460 450
3 461 505 506
3 462 461 506
3 507 463 462
3 507 462 506
3 465 463 508
3 508 463 507
3 464 463 465
3 465 508 509
3 465 509 466
3 466 509 510
3 466 510 467
3 467 510 511
3 467 511 468
3 468 511 512
3 468 512 513
3 469 468 513
3 469 513 470
3 515 470 514
3 470 513 514
3 470 515 471
3 472 516 473
3 518 516 517
3 518 505 516
3 461 417 505
3 505 473 516
3 505 518 506
3 515 514 519
3 474 430 520
3 521 520 519
3 520 471 515
3 520 515 519
3 474 520 524
3 476 522 472
3 516 472 523
3 472 522 523
3 516 523 517
3 520 521 524
3 477 475 524
3 524 475 474
3 525 477 524
3 478 526 522
3 476 478 522
3 527 477 525
3 527 479 477
3 478 528 526
3 478 480 528
3 481 479 527
3 529 481 527
3 482 530 480
3 480 530 528
3 483 481 531
3 531 481 529
3 484 532 530
3 482 484 530
3 485 483 531
3 533 485 531
3 486 534 484
3 484 534 532
3 535 485 533
3 535 487 485
3 486 536 534
3 486 488 536
3 537 489 535
3 535 489 487
3 490 538 539
3 536 490 539
3 488 490 536
3 538 540 539
3 541 542 543
3 541 489 537
3 542 541 537
3 541 491 489
3 490 492 538
3 545 493 544
3 538 492 493
3 538 493 545
3 540 538 545
3 544 546 545
3 547 548 549
3 543 495 541
3 547 494 495
3 547 495 543
3 608 547 543
3 495 491 541
3 493 496 544
3 544 497 550
3 546 544 550
3 544 496 497
3 550 497 551
3 551 497 498
3 498 499 551
3 551 499 552
3 499 500 552
3 552 500 553
3 500 501 553
3 553 501 554
3 554 502 555
3 554 501 502
3 502 503 556
3 555 502 556
3 503 504 556
3 549 504 547
3 556 504 549
3 504 494 547
3 506 557 507
3 507 557 558
3 508 507 558
3 508 558 559
3 509 508 559
3 509 559 560
3 510 509 560
3 510 560 561
3 511 510 561
3 511 561 562
3 512 511 562
3 514 512 563
3 563 512 562
3 513 512 514
3 517 564 518
3 518 564 557
3 566 564 565
3 557 564 566
3 557 506 518
3 558 566 567
3 558 557 566
3 559 567 568
3 559 558 567
3 560 568 569
3 560 559 568
3 561 569 570
3 561 560 569
3 562 570 571
3 562 561 570
3 563 562 571
3 572 563 571
3 574 514 563
3 572 574 563
3 573 519 574
3 574 519 514
3 519 573 521
3 522 575 523
3 577 575 576
3 577 517 575
3 564 517 577
3 575 517 523
3 564 577 565
3 573 574 572
3 521 573 579
3 580 573 578
3 579 573 580
3 579 524 521
3 524 579 525
3 522 581 575
3 522 526 581
3 576 581 582
3 576 575 581
3 583 580 584
3 583 579 580
3 583 525 579
3 583 527 525
3 526 585 581
3 526 528 585
3 582 585 586
3 582 581 585
3 587 584 588
3 587 583 584
3 587 527 583
3 587 529 527
3 528 589 585
3 528 530 589
3 586 589 590
3 586 585 589
3 591 588 592
3 591 587 588
3 591 529 587
3 591 531 529
3 532 593 589
3 530 532 589
3 590 593 594
3 590 589 593
3 595 592 596
3 595 591 592
3 595 531 591
3 595 533 531
3 534 597 593
3 532 534 593
3 594 597 598
3 594 593 597
3 599 596 600
3 599 595 596
3 599 533 595
3 599 535 533
3 534 601 597
3 534 536 601
3 602 597 601
3 602 598 597
3 603 599 600
3 604 603 600
3 603 535 599
3 603 537 535
3 536 539 601
3 606 540 605
3 606 602 540
3 602 601 539
3 540 602 539
3 605 607 606
3 608 609 610
3 608 543 609
3 604 542 603
3 609 543 542
3 609 542 604
3 542 537 603
3 540 545 605
3 605 546 607
3 612 607 611
3 605 545 546
3 607 546 611
3 612 613 614
3 612 611 613
3 614 615 616
3 614 613 615
3 616 617 618
3 616 615 617
3 618 619 620
3 618 617 619
3 620 621 622
3 620 619 621
3 622 623 624
3 622 621 623
3 610 548 608
3 624 623 548
3 624 548 610
3 548 623 549
3 548 547 608
3 546 550 611
3 611 550 613
3 613 550 551
3 551 552 615
3 613 551 615
3 552 553 617
3 615 552 617
3 553 554 619
3 617 553 619
3 554 555 621
3 619 554 621
3 621 555 623
3 623 555 556
3 556 549 623
3 565 625 626
3 567 566 626
3 626 566 565
3 567 626 627
3 568 567 627
3 568 627 628
3 569 568 628
3 569 628 629
3 570 569 629
3 570 629 630
3 571 570 630
3 572 571 631
3 631 571 630
3 572 631 578
3 576 632 577
3 625 632 633
3 565 577 632
3 565 632 625
3 625 633 634
3 626 625 634
3 626 634 627
3 627 634 635
3 627 635 628
3 628 635 636
3 628 636 629
3 629 636 637
3 629 637 630
3 630 637 638
3 631 638 639
3 631 630 638
3 640 578 639
3 578 573 572
3 578 631 639
3 578 640 580
3 576 641 632
3 576 582 641
3 633 641 642
3 633 632 641
3 633 642 643
3 634 633 643
3 634 643 644
3 635 634 644
3 635 644 645
3 636 635 645
3 636 645 646
3 637 636 646
3 637 646 647
3 638 637 647
3 638 647 648
3 639 638 648
3 640 648 649
3 640 639 648
3 584 580 640
3 649 584 640
3 582 650 641
3 582 586 650
3 642 650 651
3 642 641 650
3 642 651 652
3 643 642 652
3 643 652 653
3 644 643 653
3 644 653 645
3 645 653 654
3 645 654 646
3 646 654 655
3 646 655 647
3 647 655 656
3 647 656 648
3 648 656 657
3 648 657 649
3 649 657 658
3 588 584 649
3 658 588 649
3 586 659 650
3 586 590 659
3 650 659 651
3 651 659 660
3 651 660 661
3 652 651 661
3 652 661 662
3 653 652 662
3 653 662 654
3 654 662 663
3 654 663 664
3 655 654 664
3 655 664 665
3 656 655 665
3 656 665 666
3 657 656 666
3 657 666 658
3 658 666 667
3 592 588 658
3 667 592 658
3 590 668 659
3 590 594 668
3 660 668 669
3 660 659 668
3 660 669 670
3 661 660 670
3 661 670 671
3 662 661 671
3 662 671 663
3 663 671 672
3 663 672 664
3 664 672 673
3 664 673 665
3 665 673 674
3 665 674 666
3 666 674 675
3 666 675 667
3 667 675 676
3 596 592 667
3 676 596 667
3 594 677 668
3 594 598 677
3 668 677 669
3 669 677 678
3 669 678 679
3 670 669 679
3 670 679 680
3 671 670 680
3 671 680 681
3 672 671 681
3 672 681 682
3 673 672 682
3 673 682 683
3 674 673 683
3 674 683 684
3 675 674 684
3 676 684 685
3 676 675 684
3 600 596 676
3 685 600 676
3 598 686 677
3 598 602 606
3 678 686 687
3 678 677 686
3 678 687 679
3 679 687 688
3 679 688 680
3 680 688 689
3 680 689 681
3 681 689 690
3 681 690 682
3 682 690 691
3 683 691 692
3 683 682 691
3 684 692 693
3 684 683 692
3 685 693 694
3 685 684 693
3 694 604 685
3 685 604 600
3 598 606 686
3 606 607 695
3 686 606 695
3 686 695 687
3 688 687 696
3 696 687 695
3 688 696 697
3 689 688 697
3 689 697 698
3 690 689 698
3 690 698 699
3 691 690 699
3 691 699 700
3 692 691 700
3 692 700 701
3 693 692 701
3 610 609 694
3 701 610 694
3 701 694 693
3 609 604 694
3 607 612 695
3 695 612 696
3 696 612 614
3 614 616 697
3 696 614 697
3 616 618 698
3 697 616 698
3 618 620 699
3 698 618 699
3 620 622 700
3 699 620 700
3 622 624 701
3 700 622 701
3 624 610 701
