OFF
702 1400 0
-0.154252381476702 -0.312462177822046 2.37191606933373
-0.202943521953643 -0.301100364248009 2.38016558843266
-0.192463313292657 -0.322122432356066 2.343143944454
-0.111662587044248 -0.31773539382596 2.35139521591148
-0.150132563382686 -0.331489177743987 2.32381416706528
-0.0700654822717607 -0.321194753233052 2.32947446231952
-0.109453911754173 -0.334616728318948 2.30122806715655
-0.0290853353080448 -0.323937515995601 2.30929178994294
-0.069847130667419 -0.3375811968623 2.27894260455868
0.0116600917891349 -0.32646640304889 2.28965674222361
-0.0292691419568554 -0.339921687820837 2.25929935329321
0.0561009740909337 -0.32794177634371 2.27104866752797
0.0141906254061249 -0.34157740065383 2.24234629917985
0.100992075604804 -0.32188605165235 2.25230253927881
0.0591211796045504 -0.341474998782264 2.22492512673713
0.102626923520514 -0.330981843904203 2.20711987927961
-0.208894841608969 -0.270797179398028 2.41438238207713
-0.249592829331619 -0.256298202736044 2.40594846643359
-0.244879808322053 -0.288076501462258 2.37238322441106
-0.163279718730959 -0.284321062717631 2.4105097417915
-0.116853364270532 -0.291408496804558 2.39638721611164
-0.0741084024092148 -0.295425542342581 2.37460771507007
-0.0314235581311089 -0.297963762436762 2.35453612537948
0.0101515699475233 -0.2999492502826 2.33563569836686
0.0493524402022923 -0.304197471550637 2.31459592326524
0.0944424206644296 -0.303421002136069 2.2949468869995
0.14195326432872 -0.304398930946115 2.23174678189239
0.136092040791243 -0.289790741362119 2.27679652930258
0.172723995524388 -0.268969001865299 2.24919419880758
-0.177234295047139 -0.246406397447586 2.44143644233159
-0.227225315931541 -0.229072211109959 2.4378710200638
-0.128228682592732 -0.257479995595641 2.43265641852616
-0.0812814122268191 -0.262154821756132 2.41333036177474
-0.0379425164066581 -0.265088337358519 2.39272614084068
0.00634056972024573 -0.265967466481155 2.37366109431404
0.0476933878445164 -0.267276007653624 2.35539908995578
0.0834874673685904 -0.275826932182376 2.33263360411146
0.123634717211385 -0.265906366694773 2.31920173657688
0.1622598211139 -0.251512426416602 2.29537022026364
0.195446373582256 -0.228919837951803 2.26475085626428
-0.184015212559962 -0.207976590917722 2.46641556194701
-0.227353186072524 -0.189366656004635 2.46036761954028
-0.137251800709437 -0.220310332994878 2.46343306224502
-0.0891831845220455 -0.228995209155377 2.44751308190878
-0.0435832530021979 -0.229526054386628 2.42841132649925
-0.000591026125168884 -0.232923630238427 2.40751534756824
0.0481678517416513 -0.231932823749471 2.3883600009342
0.0959804985216715 -0.240057914948782 2.3610425598957
0.143189868339066 -0.231009887260847 2.34170755148084
0.184326051454414 -0.214637403404283 2.31287683508206
0.216507882085019 -0.188381373571712 2.28090257537688
-0.149518125226602 -0.18016615912172 2.49252452676438
-0.201271106887222 -0.165704138846443 2.48668264994326
-0.0989203308095288 -0.195116113458221 2.47999018180885
-0.052901947496076 -0.195560214940418 2.46411450569444
-0.0099234657893347 -0.195000896544347 2.44693580856354
0.0282300277986217 -0.2018493673531 2.4247953144043
0.0660103571144667 -0.187727208717969 2.42248072388533
0.0899225872724224 -0.207265186693539 2.39430217964509
0.131286167463372 -0.20204904381133 2.38079799728483
0.172185705528449 -0.194472581996589 2.35611271540609
0.209562993445805 -0.175112437183579 2.32596439857475
-0.133407741912314 -0.136593852295866 2.52582035403057
-0.175432623111218 -0.142168439510577 2.51135902799858
-0.105352610233889 -0.16239547880342 2.50767970434345
-0.0566746439453743 -0.162478834489989 2.49669664612437
-0.013359820051557 -0.159508729210892 2.48164852040458
0.0309208534418926 -0.163085934459074 2.46005224682373
0.0770959195722899 -0.155172827458036 2.44845578393871
0.115873932614695 -0.167879905153365 2.4205612917955
0.159394597398063 -0.16629451597095 2.39961294066816
0.197605956565602 -0.158335207952092 2.37090318789266
0.232757344820341 -0.135879303764132 2.33841612939446
-0.10725513772468 -0.109152416884424 2.54859531154457
-0.163942591015732 -0.100198494446317 2.54154272008135
-0.0739803197946391 -0.132897367949342 2.52797863226184
-0.0251506497127461 -0.124187378954574 2.51964037654469
0.0204275085132368 -0.127229948867255 2.49801222151349
0.0642586014602953 -0.125308531360997 2.48176072128019
0.111495445375158 -0.127775926217814 2.45998788231547
0.151036782159462 -0.133221027789513 2.43823344779779
0.190806673838924 -0.129317963163922 2.41448928128616
0.222848130699843 -0.121940058786786 2.38313485663457
0.251592073652288 -0.0957063872373657 2.36141423011084
-0.0866601604210104 -0.0665412418402873 2.57400910154566
-0.132327312807343 -0.078583762776911 2.56445742753455
-0.0589000395756919 -0.096352971755853 2.55425309144507
-0.0208976952872414 -0.0824052411220344 2.55026686004831
0.0166995158409496 -0.0899874100264434 2.52949079797949
0.0590453775778529 -0.0887143880920582 2.51212118664494
0.102385174568451 -0.0907180316406512 2.49228972579749
0.146809955464471 -0.0934961354895256 2.47152315096326
0.188822103815955 -0.0955576384163762 2.44754042014345
0.228179424924418 -0.0895161710397268 2.41340085627538
0.262382617788313 -0.0581818206160347 2.37989483657085
-0.131956113419542 -0.0382231785805848 2.58040265604799
-0.0425975139144535 -0.0444324790382846 2.57503574666594
-0.0866818329586816 -0.0217021152950783 2.58749731091399
0.00425690424402413 -0.0433912259738914 2.55666976582945
0.0462634474348671 -0.0469029139034503 2.53686514619055
0.0893942631326635 -0.0465433197134109 2.51778485457168
0.13120664833575 -0.049926234961778 2.49811819605908
0.173688963640607 -0.0532097121696587 2.47788516334612
0.212267518044314 -0.0542177157942468 2.45151280560524
0.244109353873439 -0.0480184560206997 2.41901767707355
0.235120839567716 -0.00826566099800813 2.44043520408905
-0.0560030695991939 0.00715143799364244 2.58682859023425
-0.0142259365914454 -0.000385959764816786 2.57329175523918
0.030743776615563 -0.000894805160666453 2.55267985053723
0.07269629896199 -0.000766002466648459 2.53344539646027
0.115119403778191 -0.000944656376605931 2.51395237213016
0.155931408211652 -0.00648226227938492 2.49494065445425
0.198206042311863 -0.0097776259902225 2.47242280922637
-0.194089606165435 -0.33264529620612 2.29876647723374
-0.233772069438264 -0.322034692293237 2.28055264265108
-0.234009998218028 -0.317916742427284 2.23591268947237
-0.151306433699337 -0.338204925711661 2.27340112236737
-0.191820505984569 -0.332956341017248 2.24958773259244
-0.112427393672524 -0.340342055352905 2.24862420150359
-0.153887771452901 -0.333055578154552 2.21941056839597
-0.0723940783797571 -0.34243540562927 2.22690277306781
-0.114998365305028 -0.333930125269151 2.19609666493022
-0.0296725828866326 -0.344733349351228 2.20963220496825
-0.0711914911506536 -0.336362395145763 2.17632052491074
0.0141260442074476 -0.347034496396848 2.19486730070347
-0.0272766004012189 -0.339619423542547 2.16019336677647
0.0576066020146105 -0.344244822636914 2.17761125022571
0.0164332699591569 -0.34220672696446 2.14659704745534
0.0614202536661431 -0.333837999856291 2.12841436612017
-0.234857820965877 -0.312665247195482 2.33147712616521
-0.277654466367532 -0.284193852521284 2.33651358560325
-0.26878642910545 -0.301938460655806 2.29437367184835
0.141628067453108 -0.309780887658498 2.18578992618034
0.0984344248249818 -0.331133700000906 2.16189067333462
0.131917546545746 -0.308970520375644 2.14129770194313
-0.278141070549573 -0.221939841515896 2.40906108697381
-0.313747523234762 -0.213690294124587 2.37184492559174
-0.285181023630795 -0.254630442003355 2.37328398814811
0.175622439250591 -0.278563950040369 2.20135080282147
0.169605022227999 -0.280223750799909 2.15284429402301
0.196746023997359 -0.246582800214349 2.16499174402931
-0.264967700377719 -0.190907514743992 2.43511266555241
-0.303742601241098 -0.178857936150043 2.40339082196249
0.200309084796856 -0.240430286046501 2.21572913040418
0.216881897794081 -0.204844854277215 2.18468612900045
-0.252427301487246 -0.149810616112719 2.46341860138853
-0.286666685342238 -0.146193773684991 2.43269898143509
0.219511183007847 -0.197863758350282 2.23286357916049
0.232799903964134 -0.161085144053403 2.19929118397118
-0.228865078761404 -0.127699922902721 2.4913211316679
-0.270067415787761 -0.1031028504948 2.46476593521737
0.238012436796578 -0.154810691836022 2.24737261117382
0.248078711664356 -0.117175083748442 2.21665769456699
-0.202662104425262 -0.106486614230623 2.51898121417179
-0.243316837958673 -0.081697864198726 2.49960821300564
0.238654243101618 -0.145288754334567 2.29245102250214
0.256632990375435 -0.107812025314326 2.2609491523607
-0.210119865288929 -0.0659087668686651 2.53419724648543
-0.243992246763541 -0.0345076182838166 2.51539862840349
0.257784116904409 -0.10316262699586 2.31028168613904
0.272328673821173 -0.0659083329414712 2.2776431628942
-0.175505466586408 -0.0547965790917746 2.56062358761079
-0.211555295503353 -0.0194510540671475 2.54975049381039
0.273592600475099 -0.063730379756133 2.33018532298812
0.284352063846122 -0.0265669331478265 2.30377467382611
-0.171203232779325 -0.00847684389110749 2.57424771214081
-0.124846701315976 0.00632120769877026 2.58830752116621
-0.153817824288612 0.0377614872394689 2.58016932989867
0.264247825545613 -0.0099660965714522 2.39792737219063
0.27435876173091 0.0285257205476914 2.37122077324349
0.279820891815904 -0.0198869927507464 2.35318706341945
-0.0946457717718402 0.0357347168634163 2.58941184145101
-0.0392259091867136 0.0489210280099705 2.57946701368016
-0.0770416463718216 0.0751343162686027 2.57999570717992
0.00792918441152424 0.0417917580309294 2.56113915733231
0.0505538833926695 0.0458276360881413 2.54029632187083
0.0930064789831507 0.0456049199892553 2.52027071907915
0.135649378383374 0.0453208475376098 2.50014449393421
0.175788430916959 0.035768756252291 2.4830400748332
0.192236623179862 0.0719896786670212 2.46234701832362
0.218012078660395 0.0327436739878299 2.45487772454897
0.251447112661195 0.0325997481072074 2.41643785747446
-0.0491040176560172 0.105013285872992 2.56234135541844
-0.0132818031210797 0.0831024123797657 2.55939789596115
0.0252435792500307 0.0892673052690829 2.53796251668242
0.0666414109527288 0.0903369680019478 2.51726148506675
0.109041489894889 0.0894583772581674 2.49699319224265
0.152908137764847 0.0888902967255233 2.47583223375392
0.195140958504315 0.107902241046214 2.43852089329911
-0.303011630060736 -0.272482568835262 2.2927169999959
-0.310596654641477 -0.262638836213128 2.25013310618412
-0.275048752673294 -0.296516124100049 2.24829949769614
-0.247806767938601 -0.299049745204844 2.19974216811746
-0.196983619956529 -0.319335848416204 2.20132776002285
-0.15795034651805 -0.314918431390086 2.16855483384141
-0.110978667745321 -0.318572893894182 2.14930113894724
-0.0631486922943543 -0.321261234594451 2.12753264913652
-0.0197680484367638 -0.325308889019035 2.11134022429773
0.0262949310007143 -0.32641574329959 2.10178972232432
0.0605541483851356 -0.307931223451337 2.07706252152871
0.0974862297887265 -0.316226899304441 2.1119207323884
0.108864883003967 -0.29162294329077 2.08060791922055
-0.31231529133631 -0.247454329520738 2.33488298198001
-0.337282294661274 -0.202943144220397 2.32944316846024
-0.331436028781418 -0.232449654049283 2.29378120679266
0.146217988548052 -0.283880620898126 2.10917234386347
0.141268503379751 -0.258427596659971 2.0719162819983
0.178533972316353 -0.249121668540826 2.11289374643641
-0.332413586173746 -0.166453321862461 2.36502136003808
0.190988482834867 -0.207170023471491 2.09664015982543
-0.31995453422505 -0.132202331338089 2.39152591005575
0.207117800429706 -0.210471000937863 2.13737861795398
-0.299854492617414 -0.105587640743271 2.42627834861643
0.221487262057626 -0.166067069318382 2.15093810007005
-0.296185996244818 -0.064369460252676 2.43714500575692
0.233510028402569 -0.123443658732102 2.16643962804017
-0.271837721196332 -0.0515423262705785 2.47631587800874
0.245802388991389 -0.0833672275239131 2.18597680180634
-0.268099246121922 -0.00220962555583354 2.48953332342408
0.262199219773429 -0.0660510427685742 2.22739580355463
-0.239124743920625 0.0141835254996331 2.5290825296065
0.276914578815277 -0.0238026044604145 2.2516980756046
-0.200203592170919 0.0279903420706543 2.55997203327118
-0.223451177374493 0.06185469771587 2.53578377585282
0.285075915778666 0.0201392998762645 2.32545375009976
0.284363812058358 0.0123603633777001 2.27825272840274
-0.179469212789625 0.0730196646689385 2.5616480762337
-0.127983083909519 0.0736860561789154 2.57836367736847
-0.151325875274454 0.111832204897407 2.55513357383361
0.229620747211374 0.0733220790135568 2.42807033041897
0.257662179020846 0.0714368779810171 2.38520708485658
0.273940078375569 0.066418984401122 2.33774264047325
-0.10232564873933 0.112355665716735 2.56413713131259
-0.068114851504689 0.139795445874536 2.54310192676255
-0.0122078377105792 0.12697148680254 2.53319645452015
0.0305717868901289 0.129966546301543 2.50918247245511
0.0729800962023609 0.129950480465387 2.48769936892776
0.116209883694644 0.127990425024806 2.4674470708349
0.156699766833593 0.129507827866677 2.44548998858316
0.194750122522205 0.139862420298307 2.40540983495889
0.230002079996477 0.109552699619205 2.3974037980125
-0.321812718376124 -0.234817355649736 2.21157172186559
-0.287479045508397 -0.272374845643014 2.20628507701117
-0.257222801258314 -0.271134868474109 2.16327491289268
-0.211393798998882 -0.29615396840367 2.16563085508626
-0.180098331622205 -0.284746398024002 2.13359948095545
-0.14065441904834 -0.290893295345043 2.12064940650817
-0.0946458256563487 -0.297875452044916 2.10538823761753
-0.0449441220270149 -0.297868828414568 2.07891588068677
0.00514953868273656 -0.304813419217585 2.06917527406937
0.0413949648660816 -0.280789085911253 2.0423455220956
0.0902206995017764 -0.27229010784273 2.04895827757841
-0.352229762644596 -0.182157027165047 2.28382206852119
-0.337142834921329 -0.22156399897758 2.25456344935625
0.120835806042968 -0.234835643992386 2.03699938527374
0.162774977014483 -0.221451897314581 2.06623387478675
-0.349034459311695 -0.156178157434618 2.32549272684501
0.180885347996507 -0.172187519341356 2.06515789160627
-0.341074731313245 -0.112441580651669 2.34926589107486
0.20600242250173 -0.164084475237889 2.10739321604632
-0.321016709843594 -0.0836762713788173 2.38939770381937
0.215147093431895 -0.119455035604709 2.12176324445991
-0.312802777977252 -0.0381599945412629 2.40195121452922
0.226304859083737 -0.0775387798635924 2.141107879874
-0.291266771922996 -0.0169219820071903 2.44612997666481
0.245201463627776 -0.0416508500123698 2.17790304747383
-0.283624493708525 0.0302179754366571 2.45727822320339
0.261745660625898 -0.0158398794873367 2.21076522569201
-0.258598934125029 0.0464555617378261 2.50038720561593
0.273104096323851 0.0314422142021875 2.23921458782599
-0.239034711585218 0.093527425051252 2.50436687037756
0.278692964279154 0.0561831117562869 2.28879771190259
-0.198647243273468 0.106277071930507 2.5339115506402
-0.166938122249799 0.144787904318273 2.52350048740402
0.251279455656451 0.107830367935349 2.35156142590334
0.262470819117227 0.0998844036305596 2.30273735898798
-0.118617489852135 0.147455897116569 2.53686308610779
-0.0841416515674933 0.17399972928117 2.5104288567907
-0.0388478649757673 0.159108736780303 2.5153709409181
-0.00145970067008451 0.163361987245793 2.4905579967895
0.0368916054833573 0.16451909246727 2.46870028808453
0.0798977653086521 0.161895656976857 2.44928368286351
0.117870955077357 0.162500886536417 2.42834411099658
0.155907268471182 0.161502650233943 2.40877199356665
0.21881460127396 0.143686673828545 2.36246071756001
-0.336472908429238 -0.20377783898822 2.18233781451426
-0.29870835465913 -0.241617309769701 2.16929583542664
-0.268733676002154 -0.240482779057965 2.1287389015993
-0.222040678419993 -0.263383944608015 2.12811010811842
-0.179947796653716 -0.254374983271446 2.094067381667
-0.133037630901765 -0.264476181347834 2.08229189609119
-0.0867175697169087 -0.273959534698406 2.0700273159492
-0.0552486510098506 -0.262715537472342 2.03872039020123
-0.0105557664299761 -0.27638923793578 2.03890052505677
0.0256705753329741 -0.250282427335098 2.00951700604128
0.0738613031421612 -0.2445580297257 2.01754602654383
-0.366504712791205 -0.148284003217412 2.25228741940383
-0.351296999854709 -0.190405013085363 2.22970344400212
0.107259355589332 -0.204801643443017 2.00469620539806
0.148078541607472 -0.191112402793801 2.03238993985668
-0.360698526444558 -0.126778700179212 2.29829247964011
0.168828423824951 -0.14152439697283 2.03463480347394
-0.355463372306381 -0.0792570138205812 2.31428755800132
0.194580847629823 -0.124618625351239 2.07781820887524
-0.335744315351433 -0.0584642897428307 2.35460170111803
0.204959138725988 -0.0760066703048344 2.0947014164049
-0.326683797724278 -0.0106270610657701 2.36872079194664
0.224045421286418 -0.0338892620471461 2.13119476612342
-0.305786709830146 0.0116649179508601 2.4114149028645
0.238806116934238 0.000992134995803499 2.15915022754556
-0.297292846583081 0.0601967328380013 2.42422834182133
0.256636713074492 0.0248912075698311 2.1950948892547
-0.272121990285884 0.0779212980407007 2.46758535973817
0.258692541950775 0.0692789156205931 2.20614086619799
-0.252566927293949 0.124605384197166 2.47136729999645
0.266274983653759 0.0824039071859766 2.25290422223912
-0.212371974956735 0.137441946659459 2.50095795069496
-0.179772883775464 0.176537540659987 2.49018090388699
0.23714723481995 0.140654597693194 2.3167224624711
0.249474468947389 0.129687374892936 2.26825657558335
-0.132310321040258 0.178917560055564 2.50352847682305
-0.0918075324986398 0.20449306615666 2.47711427834901
-0.0432297628316444 0.189592674245439 2.47865324393419
-0.00226816050400548 0.196334837844267 2.4481560284259
0.0473892527001123 0.191469278836164 2.42812183060282
0.0889020894885112 0.193619739775544 2.40329671605066
0.130383093877875 0.192534428593758 2.38269113458621
0.179207875658486 0.174020349274594 2.37021958532241
0.202657170412266 0.177149469585138 2.32975537284233
-0.349938256013115 -0.173529998741423 2.15080889476033
-0.31311379688809 -0.210493758787051 2.13744442262566
-0.281566988077099 -0.211123310768918 2.09738834209916
-0.230123978408568 -0.234294007817495 2.0946118137765
-0.19687474561371 -0.220420241696455 2.05894497732901
-0.152231057719199 -0.23240664227183 2.05082188872773
-0.105838025175543 -0.243525768724164 2.04064256889091
-0.0730692046743249 -0.230131601039956 2.00585254677241
-0.0231656539795976 -0.243969577689494 2.00402251198978
0.0126331181815612 -0.218719838112881 1.97597850277094
0.0610788407808362 -0.21489778895208 1.98603287485708
-0.380421155443332 -0.116685412299615 2.21829697657177
-0.364272714504184 -0.160948757205477 2.19927956441923
0.0944615882866643 -0.174444495452485 1.97273022914287
0.135401563215247 -0.159812384347693 2.00018704305971
-0.373996277110867 -0.0981045889792549 2.26539067017453
0.156289712034148 -0.111176924539774 2.00350789433487
-0.370073427082024 -0.0511409176860514 2.27941199523014
0.182082213680635 -0.0929821551386801 2.04710960404053
-0.349017365190766 -0.0249986969368994 2.32200641226963
0.188895857919429 -0.045782107150893 2.056437657221
-0.337236828548974 0.0228635699007343 2.34201630878597
0.20755140732911 -0.0252905942360273 2.09448412012734
-0.318854639128171 0.0435591513787766 2.3794450724629
0.220369118113645 0.0207789581774671 2.11694403496832
-0.311662921052619 0.089964861542035 2.38968246199175
0.240620062270441 0.0499579706846751 2.15744683486984
-0.286170998050527 0.107694672301191 2.43429471162232
0.244730658236657 0.0971558041354441 2.17071401766635
-0.265701847239252 0.155021238599782 2.43919365175773
0.251860328365973 0.116216968037221 2.21992375816106
-0.22512714445422 0.168731568685143 2.46836614251283
-0.190262770168538 0.207979554627875 2.45819209085644
0.222931589494577 0.172351225351496 2.28420939926454
0.235256448128701 0.161932171959695 2.23578138923865
-0.141353581753088 0.210139959964691 2.47103608876685
-0.101518626063101 0.23494666208859 2.44400376593079
-0.0519965677402789 0.219172408065664 2.44488223931753
-0.0204076013676437 0.232358728226449 2.4109897814821
0.0209067068445923 0.218747981461535 2.40674251477918
0.0608576311765204 0.222434012251311 2.38075149769556
0.104625408910755 0.223796765505618 2.35575271122952
0.156921406712093 0.206142316640721 2.34457867528725
0.186364854742217 0.208241250436274 2.30166668355977
-0.363151793004502 -0.143298009995588 2.11834390174248
-0.326940762504786 -0.179724153094246 2.10521742822121
-0.296438810450456 -0.180842394621793 2.06661095587833
-0.245716862120303 -0.204205009663253 2.06380355636673
-0.211527168185661 -0.188298754386291 2.02499584939093
-0.167341155689974 -0.199566699871703 2.01618190877003
-0.122450117060346 -0.212094765075055 2.00863155924079
-0.0902846319393115 -0.197820536096219 1.97301818753874
-0.0394250059319141 -0.213424571705413 1.97203847783955
-0.00365602431061975 -0.189350199489823 1.94426306700189
0.0481703395647612 -0.184795968931927 1.95407888309033
-0.394198906645376 -0.084110238138791 2.18731257479916
-0.37730526941076 -0.131228942106285 2.16718893838799
0.0810761002147196 -0.144308274883626 1.94049402266783
0.122133738692427 -0.129170671261918 1.96772769177844
-0.387650427637686 -0.0655179805968033 2.23281581779544
0.142383691380383 -0.0815575069208024 1.97053633247483
-0.384913064557586 -0.0159237383706342 2.24322228085354
0.167580543444964 -0.0622764101539989 2.01217284793308
-0.366242710925352 -0.00391389226020834 2.2822751746087
0.177248733057276 -0.0114578393922219 2.02726585771743
-0.353523475248925 0.0300342755984469 2.30591811443961
0.197505631563931 0.00886616909170211 2.06879758292885
-0.334944284941204 0.0741112191674571 2.34108490476974
0.206525537558301 0.0552634244213626 2.08299597983579
-0.324709026373978 0.119485007802852 2.35803311222459
0.226311235985108 0.0753276344754889 2.12353837332295
-0.299241752375083 0.137481714901902 2.40255654873455
0.231271859022811 0.125197724932423 2.13716291654079
-0.276705302875151 0.186403314946137 2.40883208520953
0.238585244185834 0.14560782084785 2.18596217292017
-0.236407317960997 0.199928517748775 2.43695770390506
-0.202199295337057 0.238639449895597 2.42619044847556
0.208809811354864 0.203405437883205 2.25312407579496
0.222014555781605 0.192128792507415 2.20310509060241
-0.152330674723729 0.240737691675199 2.43878100102731
-0.115083050504493 0.265833821083049 2.41108111043606
-0.0661126670131338 0.251802222129657 2.40998957641444
-0.0290603488595117 0.264307284588553 2.37408102724657
0.015057384236917 0.249467965468108 2.36994259475662
0.0556408836057455 0.252963795766177 2.34386254624233
0.0971068722146009 0.254751068702535 2.31953367832496
0.142312707493435 0.235141142004059 2.31545718110022
0.174504027247217 0.236945584681771 2.26968372139776
-0.379994251415908 -0.110364942467945 2.09427545341527
-0.340721070348234 -0.148230996851042 2.07156102706807
-0.307793337712791 -0.15142266750383 2.03380287850471
-0.258918556447251 -0.175492071825827 2.03351272366702
-0.225836137427221 -0.157594383407477 1.99276982333994
-0.18175498948304 -0.166483932144089 1.98085880872393
-0.138942509748423 -0.178651934099422 1.97394221654368
-0.108762475306697 -0.165130041448955 1.94037472011863
-0.056100245544288 -0.183185959653427 1.94057813655025
-0.0191353559605698 -0.159511303978755 1.91221469524371
0.0313040411169723 -0.157629679942759 1.92306138886164
-0.407778038206656 -0.0509423373386554 2.15596233512617
-0.391677363312446 -0.0989953251719567 2.13952282539371
0.0615383736971078 -0.120240231127381 1.90852526951307
0.108003817676785 -0.0986925592950905 1.93442556276198
-0.401706822158782 -0.0317775081236167 2.1993063176596
0.134933070192181 -0.0466150722672091 1.94609619701307
-0.3958900538062 0.0185242786675898 2.2144207425757
0.156239847709726 -0.0278150696999762 1.98364734964904
-0.375442597393107 0.0384018606933225 2.25748403597095
0.163760329139039 0.0212405565217147 1.99464029429864
-0.35574116209026 0.0708068934029457 2.2964246436074
0.184109201034971 0.0405440171416742 2.03614140982168
-0.347928501717839 0.11561874691324 2.30819210981203
0.192438372857732 0.0871396761626474 2.04894820072136
-0.334374574535549 0.154540018172083 2.33304670374419
0.212844625294721 0.107642982141802 2.09065708916738
-0.309616301506458 0.169200455019779 2.37433199086989
0.218022493437126 0.155850704724353 2.10522429967261
-0.289539386821948 0.21708209237629 2.37682960409263
0.225469712959468 0.175090722059024 2.15336564003978
-0.24862749075972 0.231047988824067 2.40487046304887
-0.215567050163019 0.269063900381296 2.3937560551013
0.195754084465679 0.233654245279186 2.21995293682573
0.208709565655133 0.222377415011575 2.17036783733743
-0.165967731851162 0.271022322781281 2.40645218611442
-0.129083048313378 0.296282619556426 2.37868484823069
-0.0788492811821769 0.282788414439583 2.37649890722672
-0.0427819237380691 0.29409330917986 2.34263792633558
0.00699370156694658 0.281786223648065 2.33224153868372
0.0502952940518894 0.283371923361122 2.30720027646138
0.090811244075168 0.284453016545192 2.2842929182497
0.134620569046448 0.263695049263648 2.28026482330306
0.161716806530029 0.267241291781974 2.23641183098515
-0.361645913256032 -0.113756595140235 2.05309835136909
-0.333249800921192 -0.118697893018631 2.02004112782349
-0.297327131955421 -0.116319161681535 1.98997412560175
-0.270825302673313 -0.1468366841948 2.00373968473876
-0.249017467927801 -0.120836506605164 1.96880982154092
-0.203223677576068 -0.130839884337607 1.95369907913151
-0.157348109271738 -0.140105329690229 1.93850993283646
-0.118874283687965 -0.129258313350127 1.90987307746673
-0.0714329052453388 -0.153425092560377 1.91089279608796
-0.0357667330152054 -0.127017021272768 1.88465989258265
0.0159669802007308 -0.126303820606384 1.8913441660436
-0.413314962676434 -0.0173070309714964 2.12443451411039
-0.40318850597181 -0.0653698717388507 2.10819165112441
0.0763702928322132 -0.0825910234797873 1.89707498723366
0.107164354902495 -0.0555948431876974 1.91353968036316
-0.411066167078085 0.00363422970574348 2.16670294507967
0.114162506030779 -0.0111466608024485 1.91532072063035
-0.400860366071757 0.0503231749325182 2.17853856988068
0.139439639655219 0.00618574865507972 1.95086849191251
-0.386600595616005 0.0692810274814746 2.22013819282707
0.143067983743657 0.0517402763863916 1.96425161192815
-0.369799202486699 0.0921159098809664 2.26069096156998
0.167033070843379 0.072823160478696 2.00274661206652
-0.360325931430438 0.139259344788451 2.26549032607149
0.172770214856288 0.117695361273064 2.01875667076239
-0.346170582349236 0.170730394730754 2.29459799371969
0.196248903640512 0.138952027306685 2.05716994871557
-0.322539837532344 0.198791823562295 2.34054810013232
0.199709397373712 0.18295585101933 2.07485706249338
-0.30271380780343 0.241637189550512 2.33962425570605
0.210531185889622 0.205351195466502 2.12192580791334
-0.262930098192738 0.259794634405424 2.37087727067985
-0.228997760518906 0.294078891787499 2.35879643756501
0.180495971277123 0.263717451093007 2.18652378692447
0.188822357002703 0.251531866047864 2.13929820665428
-0.178623105696448 0.300525254849689 2.37280875545994
-0.141916815443812 0.322780433142165 2.34025364630547
-0.0960747361703063 0.312523301966519 2.34316101709834
-0.0668161280363723 0.320144539665909 2.31120206713132
-0.0212338531060365 0.312705456357394 2.30077330681649
0.0203632165905989 0.309750723485826 2.2830289838846
0.0637857717759177 0.309912432762247 2.25803403862986
0.118073569810953 0.295018204568976 2.24666703462555
0.144682726912799 0.293595627811082 2.20354516589636
-0.387127637748152 -0.073898290151889 2.06101442074497
-0.360198930851479 -0.0773197019032923 2.01832290140564
-0.324652308081674 -0.0794790797947689 1.98517656161098
-0.278760539746245 -0.0824820208121614 1.96069860952562
-0.231905911653089 -0.0876136769030839 1.94027679466952
-0.188167482361112 -0.0960299336475976 1.92306960958651
-0.148671641499857 -0.0946040430982664 1.90307073862328
-0.108466425414568 -0.0836743808687335 1.87887841614107
-0.0803512432943296 -0.116203839145156 1.88466327574077
-0.0563706967616792 -0.080669078319742 1.86334080726088
-0.0101222430886755 -0.0940143651528094 1.86826911632172
-0.402866344501043 -0.0314910166420939 2.0743862458714
-0.391937552655471 0.00844559778712123 2.04513339912569
-0.380973590003367 -0.0359238218293518 2.02900018097615
-0.00595224685747212 -0.0535620085876963 1.85649573941615
0.0371709593059872 -0.0821683817368506 1.87567170858162
0.0326704229045888 -0.0360013778925204 1.86313954096635
-0.40867642863077 0.0379650468052326 2.12725828625956
-0.407981355005281 0.0117145379306957 2.09039113658016
0.073391171484336 -0.0368854848737305 1.88278315002759
0.0835656314885184 0.00714424902516496 1.89001986823516
-0.395011280353551 0.0787622054088418 2.14393192654695
0.109199336820405 0.0384328583869279 1.92077968182635
-0.384307040684915 0.103439444200716 2.1803204336986
0.116511703901652 0.0788583829873413 1.94285940361922
-0.374953987919837 0.118960561801636 2.21927625495027
0.139208767554934 0.104994637447757 1.9749365746494
-0.361422666710995 0.159857984094809 2.22101892247939
0.146481825028718 0.145252695292695 1.99668788413955
-0.347751203238254 0.1925699520068 2.2509468603943
0.168908703008905 0.171177413926227 2.02870933896025
-0.33281382041468 0.214207269209232 2.30089852450735
0.173664457514439 0.209859777314065 2.05144052535283
-0.275195006476039 0.280154653462287 2.3308709783022
-0.309540795445381 0.258433203061227 2.29784441503037
-0.282584585396677 0.292314308981428 2.28340672229801
0.18763847824423 0.230540620536877 2.09221028612276
0.151582498686896 0.250599855524015 2.05998404943754
0.163067491369081 0.268742695794849 2.10385966168394
-0.193202656909932 0.320858360157178 2.33514872068874
-0.243014407855247 0.308898186649106 2.31887468915323
-0.209731725588672 0.330861273484736 2.29363306452658
0.154590249214338 0.289490941477113 2.15253034650097
0.105923784096599 0.316483477232365 2.13618482076928
0.116334975541096 0.314212659961114 2.17614946412596
-0.158966344685235 0.337584239891267 2.30118237803349
-0.110884562705734 0.334979782379758 2.29513723322576
-0.0645467525419871 0.333566229029609 2.2694149296906
-0.0218316323888454 0.330303033167589 2.25381019521452
0.0182379232937812 0.328196697257307 2.23522076901494
0.0542701435915728 0.327785780454099 2.21221755180968
0.0956956593435245 0.316719816370343 2.21570775704459
-0.34786853343654 -0.0377370880242444 1.98974526310063
-0.305544471496176 -0.0414141440942431 1.96061083198337
-0.259135216348294 -0.0441482614055252 1.93903384236139
-0.21517737497685 -0.0477006480031746 1.91898326941637
-0.174115726986806 -0.0500738111266539 1.90006306671843
-0.134493829206441 -0.0448435599686685 1.8804052573515
-0.0892810164650227 -0.0419341125163885 1.86114018843047
-0.365097416057328 0.00410062072874467 2.00449513462343
-0.342624137117756 0.0421179816369504 1.98987813392974
-0.326198732479986 0.00162961066152273 1.96966782197664
-0.281160386329991 -0.000715094206476115 1.94584382535233
-0.237489312989154 -0.000517070490126172 1.92579089163013
-0.19421343281597 -0.00268843824186746 1.90581529115547
-0.153115043230734 4.85438668532106e-05 1.88716197937347
-0.11001059925067 0.000593752030179874 1.8675975782779
-0.06156244093988 0.00415184216306798 1.85437607938788
-0.00655849576787271 -0.000773132517035495 1.85349379830163
-0.0435267743469583 -0.0354242712416608 1.85241422941272
-0.395487510714179 0.0512418008913422 2.07442375487026
-0.369965215120228 0.0900901580305998 2.05574509790045
-0.373862448927585 0.0489011332875806 2.02856796458272
-0.0317046801714837 0.0406989982765629 1.85949218336582
0.0416683779368014 0.00725292728996387 1.86695753669956
0.0155633970791998 0.0457541377810259 1.86724467803617
-0.388175556826793 0.0855982918164079 2.10170938888643
-0.358887465035517 0.124998294834945 2.08659542079844
0.064328630988176 0.0473003306700476 1.88816984994353
0.0329480690803853 0.0845555230153207 1.89133938219104
-0.373752857293946 0.122703228148652 2.13437862190414
-0.347210867090226 0.159557690028353 2.1193508128628
0.0785596508876041 0.0814458471632104 1.91372062335721
0.0474598900500838 0.120758824881458 1.91909820680832
-0.363923552727939 0.151622874166516 2.17179189024507
-0.335619836947827 0.191450204547145 2.14782554766238
0.094337667144164 0.118208590646589 1.94252837484154
0.0629350744268341 0.156037263705248 1.94668093685199
-0.345751092505134 0.193736900143966 2.19595883029592
-0.318593010417033 0.229086405203837 2.17232578913914
0.10923374879154 0.150352662801638 1.96846591230842
0.0786631122322199 0.190645053974696 1.97396904568089
-0.329016008625679 0.232118064272623 2.21841277715781
-0.300365075061906 0.26899911105019 2.20133468614871
0.125476162127067 0.186602701211565 1.99735514913318
0.0935873339345958 0.225368733906153 2.00100492592541
-0.329887938976686 0.235415888634782 2.26164186807977
-0.305240014202106 0.272868731468345 2.24672229204722
0.139199329125657 0.219104244516189 2.02334475006021
0.107939355211211 0.257677829008767 2.03087713615375
-0.250285310943919 0.31703763590513 2.27301436757691
-0.270675849473661 0.30395754324838 2.23040431874382
-0.226750890554519 0.329383474474386 2.24000698244938
0.131030670893036 0.296994817271147 2.11076361351418
0.121398829039158 0.282234245727783 2.06906360124541
0.0857990816382921 0.309135085058915 2.08805384540591
-0.18549399838664 0.34110581982841 2.2601271380166
-0.182642153789145 0.33870071734226 2.21627461768512
-0.141364102026286 0.343768734672411 2.25437768649859
-0.138229123274819 0.339442362077688 2.20451102173745
-0.100229564486441 0.341475229829544 2.24004827901192
-0.0978434397745118 0.337295820764298 2.18585546892862
-0.0588422977383848 0.339359563018885 2.21793411856954
-0.0577341263882774 0.334783208968021 2.16534739001698
-0.01783883136312 0.337160368854139 2.19992997192944
-0.0185785040333646 0.332397813336467 2.14573813170158
0.0211902644376754 0.335151259597705 2.17833453421755
0.0233020391965509 0.330742513104725 2.12930881126797
0.0682782177284786 0.330587004276474 2.16738014882878
0.062367218434234 0.32605600763574 2.12052189015664
-0.311835200859369 0.076888864797453 1.98190119163863
-0.298356754973246 0.0413578941413646 1.96013751231433
-0.255763682884439 0.0451779771943099 1.94212669843749
-0.211207599336513 0.0423233833520904 1.92140406554815
-0.169321499243739 0.0455312342069212 1.90379821010426
-0.127329328478782 0.0460800041421522 1.88536627737855
-0.0841975040208268 0.043510040952212 1.86748326373067
-0.344451190185432 0.0858066209902531 2.01495337011098
-0.302234346693092 0.114770385383599 2.00286736979201
-0.269638877995952 0.0886721881141341 1.96754104503698
-0.223893477481046 0.0829104053056828 1.94447572256798
-0.181325526735608 0.0878461874365766 1.92912688267403
-0.139465015628362 0.0892738352196913 1.91214164565338
-0.097890893131437 0.0876872797088974 1.89336673350387
-0.0566473149204748 0.079345605759351 1.87721920567216
-0.0142829597965042 0.0852021486741395 1.8798366764012
-0.334127407581287 0.123335739970175 2.04175348172144
-0.292795975445235 0.150451161526706 2.03335043463158
-0.259846476332752 0.133512679687188 1.9990519988333
-0.230379102384604 0.117284912388156 1.97183187555862
-0.187019422586325 0.124603699011315 1.96069522686364
-0.144999629646143 0.126896904374688 1.9455386837411
-0.100948960341011 0.124537789874548 1.92518054181839
-0.0549585323737947 0.118166956633666 1.90456565668145
-0.00170683971160455 0.11987754654326 1.90537810469384
-0.323357082477241 0.157967209106129 2.07281830143182
-0.278770607459638 0.18486873538887 2.05987256486863
-0.244868791270089 0.169735881663158 2.02686489407582
-0.208613386611585 0.153328585932309 1.99653838663021
-0.16049310441375 0.16241279469741 1.98523900977515
-0.114575655895858 0.159867396243391 1.96393716998801
-0.0710272740972215 0.157029540379863 1.94334878695733
-0.0307916935011264 0.150653582076249 1.92813727451425
0.0142657540029338 0.157009677612532 1.93407632342401
-0.31085518011086 0.191501040281043 2.10026917079791
-0.266172328936544 0.217602304340607 2.08564716575664
-0.227922769993427 0.206323995818436 2.05420908829418
-0.196158701768723 0.18836662674351 2.02427806367551
-0.155742990117106 0.199224890258642 2.01781681997718
-0.116006402102829 0.194384790010517 1.99690803630687
-0.0720005678440358 0.19214239579838 1.97667749216231
-0.0259362808873336 0.187359812983508 1.95771010768818
0.0286107334737987 0.190350042876162 1.95984717799013
-0.298579845324502 0.224109971828405 2.12683610927833
-0.256776065663843 0.249942829546514 2.1134860398703
-0.217315825826155 0.240658442641688 2.08204949714128
-0.17635321360371 0.229187239073002 2.05441587961481
-0.127078415471263 0.231259512509905 2.03606253891592
-0.0834321012208468 0.227892537477694 2.01492565689689
-0.0408367804698786 0.225784976972128 1.99546261618282
-0.000545665982870355 0.220189151050995 1.98149780717392
0.0447906594725501 0.226915843194177 1.98818239699014
-0.286067291048224 0.259234178052756 2.15652368330506
-0.249290395048972 0.282877882370958 2.14458121719568
-0.212989689244737 0.276392339969378 2.11385615400825
-0.17353958146743 0.267076002955966 2.08880163427604
-0.133129642340698 0.263840522403294 2.06912027836831
-0.0874876982117695 0.263204023808315 2.04972313794322
-0.042710588448999 0.261006687897579 2.02921682061933
0.00391744353910044 0.256995593058312 2.01109721137666
0.0586136025424432 0.259657011419305 2.0141144685067
-0.263587311352978 0.296795492254719 2.18549790663067
-0.215961460700589 0.307755612654673 2.15530538882485
-0.175154259757876 0.302186636011864 2.12849511244857
-0.135302631802516 0.298519186622748 2.10793456113578
-0.0946840615729121 0.295634158231374 2.08818359671163
-0.051752021451138 0.294064819449956 2.0693326233476
-0.00995014432231112 0.292538914396583 2.05112885947101
0.0301534127374632 0.287402894616544 2.03839083631306
0.0747597715484544 0.289699145056839 2.04972128557779
-0.227135703823047 0.321653974051122 2.19745109563034
-0.178432855521753 0.326521539812853 2.17331495265147
-0.136362649589787 0.324423451612521 2.15420991850479
-0.0958323513244413 0.321607186094374 2.13394707447802
-0.0546341653941922 0.318773368170492 2.11344593865507
-0.0107090961290824 0.317123749209396 2.09472982526745
0.0346587586207109 0.313688705853069 2.0786802834191
3 0 1 2
3 0 2 4
3 3 0 4
3 3 4 6
3 5 3 6
3 5 6 8
3 7 5 8
3 7 8 10
3 9 7 10
3 9 10 12
3 11 9 12
3 13 11 14
3 14 11 12
3 13 14 15
3 16 17 18
3 16 18 1
3 0 19 1
3 19 16 1
3 0 3 20
3 19 0 20
3 3 5 21
3 20 3 21
3 5 7 22
3 21 5 22
3 7 9 23
3 22 7 23
3 9 11 24
3 23 9 24
3 24 11 25
3 25 11 13
3 13 15 26
3 27 13 26
3 25 13 27
3 27 26 28
3 17 16 30
3 30 16 29
3 29 19 31
3 29 16 19
3 31 20 32
3 31 19 20
3 32 21 33
3 32 20 21
3 21 22 33
3 33 22 34
3 22 23 34
3 34 23 35
3 23 24 35
3 35 24 36
3 24 25 36
3 36 25 37
3 37 27 38
3 37 25 27
3 38 28 39
3 38 27 28
3 30 40 41
3 30 29 40
3 29 31 42
3 40 29 42
3 31 32 43
3 42 31 43
3 32 33 44
3 43 32 44
3 33 34 45
3 44 33 45
3 34 35 46
3 45 34 46
3 35 36 47
3 46 35 47
3 36 37 47
3 47 37 48
3 37 38 48
3 48 38 49
3 49 39 50
3 49 38 39
3 40 51 52
3 41 40 52
3 51 42 53
3 51 40 42
3 42 43 53
3 53 43 54
3 43 44 54
3 54 44 55
3 44 45 55
3 55 45 56
3 45 46 56
3 56 46 57
3 46 47 58
3 57 46 58
3 47 48 59
3 58 47 59
3 48 49 60
3 59 48 60
3 49 50 61
3 60 49 61
3 51 62 63
3 52 51 63
3 51 53 64
3 62 51 64
3 53 54 65
3 64 53 65
3 54 55 66
3 65 54 66
3 55 56 67
3 66 55 67
3 56 57 67
3 67 57 68
3 57 58 69
3 68 57 69
3 58 59 69
3 69 59 70
3 59 60 70
3 70 60 71
3 71 61 72
3 71 60 61
3 62 73 74
3 63 62 74
3 62 64 75
3 73 62 75
3 64 65 75
3 75 65 76
3 65 66 76
3 76 66 77
3 66 67 77
3 77 67 78
3 67 68 78
3 78 68 79
3 79 69 80
3 79 68 69
3 80 70 81
3 80 69 70
3 81 71 82
3 81 70 71
3 82 72 83
3 82 71 72
3 74 73 85
3 85 73 84
3 84 73 86
3 86 73 75
3 75 76 86
3 86 76 87
3 76 77 88
3 87 76 88
3 77 78 89
3 88 77 89
3 78 79 90
3 89 78 90
3 79 80 91
3 90 79 91
3 80 81 92
3 91 80 92
3 81 82 93
3 92 81 93
3 93 83 94
3 93 82 83
3 84 95 85
3 84 86 96
3 97 84 96
3 95 84 97
3 96 87 98
3 96 86 87
3 87 88 98
3 98 88 99
3 88 89 99
3 99 89 100
3 89 90 100
3 100 90 101
3 101 91 102
3 101 90 91
3 102 92 103
3 102 91 92
3 92 93 103
3 105 103 104
3 103 93 104
3 93 94 104
3 96 106 97
3 96 98 107
3 106 96 107
3 98 99 108
3 107 98 108
3 99 100 109
3 108 99 109
3 100 101 110
3 109 100 110
3 101 102 111
3 110 101 111
3 111 102 112
3 112 102 103
3 103 105 112
3 117 114 115
3 116 113 117
3 117 113 114
3 116 117 119
3 118 116 119
3 118 119 121
3 120 118 121
3 120 121 123
3 122 120 123
3 122 123 125
3 124 122 125
3 124 125 127
3 126 124 127
3 126 127 128
3 129 130 131
3 114 129 131
3 114 113 129
3 113 2 129
3 129 2 1
3 4 113 116
3 4 2 113
3 6 116 118
3 6 4 116
3 8 118 120
3 8 6 118
3 10 120 122
3 10 8 120
3 12 122 124
3 12 10 122
3 14 124 126
3 14 12 124
3 133 126 128
3 15 14 126
3 15 126 133
3 132 15 133
3 132 133 134
3 135 136 137
3 137 17 135
3 137 18 17
3 18 137 130
3 129 18 130
3 18 129 1
3 15 132 26
3 139 132 134
3 139 138 132
3 138 28 26
3 132 138 26
3 138 139 140
3 136 135 142
3 142 135 141
3 17 30 135
3 135 30 141
3 143 39 28
3 138 143 28
3 143 140 144
3 143 138 140
3 141 145 146
3 142 141 146
3 41 145 141
3 30 41 141
3 147 39 143
3 147 50 39
3 147 144 148
3 147 143 144
3 145 149 150
3 146 145 150
3 52 149 145
3 41 52 145
3 151 50 147
3 151 155 50
3 151 148 152
3 151 147 148
3 149 153 154
3 150 149 154
3 63 153 149
3 52 63 149
3 155 61 50
3 155 72 61
3 155 151 156
3 156 151 152
3 154 157 158
3 154 153 157
3 74 157 153
3 63 74 153
3 159 72 155
3 159 83 72
3 159 156 160
3 159 155 156
3 158 157 162
3 162 157 161
3 74 85 161
3 157 74 161
3 163 83 159
3 163 94 83
3 163 160 164
3 163 159 160
3 161 165 162
3 165 95 166
3 165 161 95
3 161 85 95
3 165 166 167
3 95 97 166
3 105 104 168
3 170 94 163
3 170 168 94
3 169 168 170
3 94 168 104
3 163 164 170
3 166 171 167
3 173 171 172
3 172 171 106
3 171 97 106
3 171 166 97
3 172 107 174
3 172 106 107
3 174 108 175
3 174 107 108
3 175 109 176
3 175 108 109
3 176 110 177
3 176 109 110
3 177 111 178
3 177 110 111
3 178 112 180
3 178 111 112
3 181 105 168
3 181 180 105
3 179 178 180
3 180 112 105
3 168 169 181
3 172 182 173
3 182 172 183
3 183 172 174
3 174 175 184
3 183 174 184
3 175 176 185
3 184 175 185
3 176 177 186
3 185 176 186
3 177 178 187
3 186 177 187
3 187 179 188
3 187 178 179
3 179 180 229
3 189 190 191
3 114 131 191
3 115 114 191
3 115 191 192
3 115 192 193
3 117 115 193
3 119 193 194
3 119 117 193
3 119 194 121
3 121 194 195
3 121 195 123
3 123 195 196
3 123 196 125
3 125 196 197
3 127 197 198
3 127 125 197
3 128 198 199
3 200 128 199
3 128 127 198
3 200 199 201
3 202 203 204
3 131 130 189
3 190 189 204
3 189 130 202
3 189 202 204
3 131 189 191
3 128 200 133
3 134 200 205
3 206 205 201
3 134 133 200
3 205 200 201
3 205 206 207
3 136 208 203
3 202 137 136
3 202 136 203
3 137 202 130
3 134 205 139
3 139 205 207
3 140 139 207
3 211 207 209
3 136 142 208
3 208 142 210
3 211 140 207
3 211 144 140
3 146 212 210
3 142 146 210
3 148 144 213
3 213 144 211
3 150 214 212
3 146 150 212
3 215 148 213
3 215 152 148
3 154 216 150
3 150 216 214
3 219 152 217
3 217 152 215
3 158 218 216
3 154 158 216
3 219 156 152
3 219 160 156
3 158 220 218
3 158 162 220
3 221 160 219
3 221 164 160
3 162 165 222
3 223 220 222
3 220 162 222
3 165 167 222
3 169 170 224
3 225 164 221
3 224 170 164
3 224 164 225
3 222 226 223
3 167 171 227
3 226 167 227
3 226 227 228
3 226 222 167
3 171 173 227
3 180 181 229
3 181 169 230
3 231 169 224
3 230 169 231
3 230 229 181
3 224 225 271
3 227 232 228
3 232 182 233
3 232 173 182
3 227 173 232
3 182 183 234
3 233 182 234
3 183 184 234
3 234 184 235
3 184 185 235
3 235 185 236
3 185 186 236
3 236 186 237
3 186 187 237
3 237 187 238
3 238 188 239
3 238 187 188
3 188 179 229
3 240 239 188
3 240 188 229
3 229 230 240
3 191 190 242
3 242 190 241
3 192 242 243
3 192 191 242
3 192 243 244
3 193 192 244
3 194 244 245
3 194 193 244
3 194 245 246
3 195 194 246
3 195 246 247
3 196 195 247
3 196 247 248
3 197 196 248
3 197 248 249
3 198 197 249
3 199 198 249
3 250 199 249
3 201 199 251
3 251 199 250
3 204 252 253
3 204 203 252
3 190 253 241
3 190 204 253
3 206 251 254
3 206 201 251
3 207 206 255
3 255 206 254
3 203 256 252
3 203 208 256
3 257 209 255
3 255 209 207
3 210 258 208
3 208 258 256
3 211 209 259
3 259 209 257
3 212 260 210
3 210 260 258
3 213 211 259
3 261 213 259
3 214 262 260
3 212 214 260
3 215 213 261
3 263 215 261
3 216 264 214
3 214 264 262
3 217 215 263
3 265 217 263
3 218 266 264
3 216 218 264
3 219 217 265
3 267 219 265
3 218 268 266
3 218 220 268
3 221 219 267
3 269 221 267
3 223 270 268
3 220 223 268
3 225 221 269
3 271 225 269
3 223 226 272
3 270 223 272
3 272 228 273
3 272 226 228
3 274 231 275
3 274 230 231
3 275 231 271
3 271 231 224
3 273 228 276
3 276 228 232
3 276 233 277
3 276 232 233
3 233 234 278
3 277 233 278
3 234 235 279
3 278 234 279
3 235 236 280
3 279 235 280
3 236 237 281
3 280 236 281
3 237 238 282
3 281 237 282
3 238 239 283
3 282 238 283
3 327 239 284
3 284 239 240
3 240 230 274
3 284 240 274
3 241 285 286
3 242 241 286
3 242 286 243
3 243 286 287
3 243 287 288
3 244 243 288
3 245 288 289
3 245 244 288
3 245 289 246
3 246 289 290
3 246 290 247
3 247 290 291
3 247 291 248
3 248 291 292
3 248 292 293
3 249 248 293
3 249 293 250
3 250 293 294
3 250 294 295
3 251 250 295
3 252 296 297
3 253 252 297
3 241 297 285
3 241 253 297
3 254 295 298
3 254 251 295
3 254 298 299
3 255 254 299
3 256 300 252
3 252 300 296
3 257 255 299
3 301 257 299
3 258 302 300
3 256 258 300
3 259 257 303
3 303 257 301
3 260 304 258
3 258 304 302
3 261 259 303
3 305 261 303
3 262 306 304
3 260 262 304
3 263 261 305
3 307 263 305
3 264 308 262
3 262 308 306
3 265 263 307
3 309 265 307
3 266 310 308
3 264 266 308
3 267 265 309
3 311 267 309
3 266 312 310
3 266 268 312
3 269 267 311
3 313 269 311
3 270 314 312
3 268 270 312
3 271 269 315
3 315 269 313
3 270 272 316
3 314 270 316
3 316 273 317
3 316 272 273
3 318 275 319
3 318 274 275
3 275 271 315
3 319 275 315
3 273 276 320
3 317 273 320
3 276 277 320
3 320 277 321
3 277 278 322
3 321 277 322
3 322 279 323
3 322 278 279
3 279 280 323
3 323 280 324
3 280 281 324
3 324 281 325
3 281 282 325
3 325 282 326
3 282 283 326
3 326 283 327
3 283 239 327
3 327 284 328
3 284 274 318
3 328 284 318
3 285 329 330
3 286 285 330
3 286 330 287
3 287 330 331
3 287 331 332
3 288 287 332
3 288 332 289
3 289 332 333
3 289 333 334
3 290 289 334
3 290 334 335
3 291 290 335
3 291 335 292
3 292 335 336
3 292 336 337
3 293 292 337
3 293 337 294
3 294 337 338
3 294 338 339
3 295 294 339
3 296 340 341
3 297 296 341
3 285 341 329
3 285 297 341
3 298 339 342
3 298 295 339
3 298 342 343
3 299 298 343
3 300 344 296
3 296 344 340
3 301 299 343
3 345 301 343
3 302 346 344
3 300 302 344
3 303 301 347
3 347 301 345
3 304 348 302
3 302 348 346
3 305 303 347
3 349 305 347
3 306 350 348
3 304 306 348
3 307 305 351
3 351 305 349
3 308 352 306
3 306 352 350
3 309 307 353
3 353 307 351
3 310 354 352
3 308 310 352
3 311 309 355
3 355 309 353
3 312 356 310
3 310 356 354
3 313 311 355
3 357 313 355
3 314 358 356
3 312 314 356
3 315 313 359
3 359 313 357
3 314 316 360
3 358 314 360
3 360 317 361
3 360 316 317
3 362 319 363
3 362 318 319
3 319 315 359
3 363 319 359
3 317 320 364
3 361 317 364
3 320 321 364
3 364 321 365
3 321 322 366
3 365 321 366
3 322 323 366
3 366 323 367
3 323 324 368
3 367 323 368
3 324 325 369
3 368 324 369
3 325 326 370
3 369 325 370
3 326 327 371
3 370 326 371
3 327 328 371
3 371 328 372
3 328 318 362
3 372 328 362
3 329 373 374
3 330 329 374
3 330 374 331
3 331 374 375
3 331 375 376
3 332 331 376
3 332 376 333
3 333 376 377
3 333 377 378
3 334 333 378
3 334 378 379
3 335 334 379
3 335 379 336
3 336 379 380
3 336 380 381
3 337 336 381
3 337 381 338
3 338 381 382
3 338 382 383
3 339 338 383
3 340 384 385
3 341 340 385
3 329 385 373
3 329 341 385
3 342 383 386
3 342 339 383
3 342 386 387
3 343 342 387
3 344 388 340
3 340 388 384
3 345 343 387
3 389 345 387
3 346 390 388
3 344 346 388
3 347 345 391
3 391 345 389
3 348 392 346
3 346 392 390
3 349 347 391
3 393 349 391
3 350 394 348
3 348 394 392
3 351 349 395
3 395 349 393
3 352 396 350
3 350 396 394
3 353 351 395
3 397 353 395
3 354 398 396
3 352 354 396
3 355 353 399
3 399 353 397
3 356 400 354
3 354 400 398
3 357 355 399
3 401 357 399
3 358 402 400
3 356 358 400
3 359 357 403
3 403 357 401
3 358 360 404
3 402 358 404
3 404 361 405
3 404 360 361
3 406 363 407
3 406 362 363
3 363 359 403
3 407 363 403
3 361 364 408
3 405 361 408
3 364 365 408
3 408 365 409
3 365 366 410
3 409 365 410
3 366 367 410
3 410 367 411
3 367 368 412
3 411 367 412
3 368 369 412
3 412 369 413
3 369 370 413
3 413 370 414
3 370 371 415
3 414 370 415
3 371 372 415
3 415 372 416
3 372 362 406
3 416 372 406
3 373 417 418
3 374 373 418
3 374 418 375
3 375 418 419
3 375 419 420
3 376 375 420
3 376 420 377
3 377 420 421
3 377 421 422
3 378 377 422
3 378 422 423
3 379 378 423
3 380 423 424
3 380 379 423
3 380 424 425
3 381 380 425
3 382 425 426
3 382 381 425
3 382 426 427
3 383 382 427
3 384 428 429
3 385 384 429
3 373 429 417
3 373 385 429
3 386 427 430
3 386 383 427
3 386 430 431
3 387 386 431
3 384 432 428
3 384 388 432
3 389 387 431
3 433 389 431
3 390 434 432
3 388 390 432
3 435 389 433
3 435 391 389
3 390 436 434
3 390 392 436
3 393 391 435
3 437 393 435
3 394 438 436
3 392 394 436
3 395 393 439
3 439 393 437
3 396 440 438
3 394 396 438
3 397 395 439
3 441 397 439
3 398 442 440
3 396 398 440
3 399 397 443
3 443 397 441
3 400 444 398
3 398 444 442
3 401 399 443
3 445 401 443
3 402 446 444
3 400 402 444
3 403 401 447
3 447 401 445
3 402 404 448
3 446 402 448
3 448 405 449
3 448 404 405
3 450 407 451
3 450 406 407
3 407 403 447
3 451 407 447
3 405 408 452
3 449 405 452
3 408 409 452
3 452 409 453
3 409 410 454
3 453 409 454
3 410 411 454
3 454 411 455
3 411 412 456
3 455 411 456
3 412 413 456
3 456 413 457
3 457 414 458
3 457 413 414
3 414 415 459
3 458 414 459
3 415 416 459
3 459 416 460
3 416 406 450
3 460 416 450
3 418 461 462
3 418 417 461
3 419 462 463
3 419 418 462
3 419 463 464
3 420 419 464
3 420 464 421
3 421 464 465
3 421 465 466
3 422 421 466
3 422 466 467
3 423 422 467
3 424 467 468
3 424 423 467
3 424 468 469
3 425 424 469
3 426 469 470
3 426 425 469
3 427 426 471
3 471 426 470
3 429 428 473
3 473 428 472
3 417 473 505
3 417 429 473
3 430 427 471
3 520 430 471
3 431 474 475
3 431 430 474
3 428 476 472
3 428 432 476
3 433 431 475
3 477 433 475
3 434 478 476
3 432 434 476
3 479 433 477
3 479 435 433
3 434 480 478
3 434 436 480
3 437 435 479
3 481 437 479
3 438 482 436
3 436 482 480
3 439 437 483
3 483 437 481
3 440 484 482
3 438 440 482
3 441 439 483
3 485 441 483
3 442 486 440
3 440 486 484
3 443 441 487
3 487 441 485
3 444 488 442
3 442 488 486
3 445 443 487
3 489 445 487
3 444 446 488
3 488 446 490
3 491 445 489
3 491 447 445
3 490 446 492
3 492 446 448
3 492 449 493
3 492 448 449
3 494 451 495
3 494 450 451
3 451 447 491
3 495 451 491
3 449 452 496
3 493 449 496
3 496 453 497
3 496 452 453
3 453 454 498
3 497 453 498
3 498 455 499
3 498 454 455
3 455 456 500
3 499 455 500
3 456 457 501
3 500 456 501
3 457 458 502
3 501 457 502
3 458 459 503
3 502 458 503
3 503 460 504
3 503 459 460
3 504 460 494
3 494 460 450
3 461 505 506
3 462 461 506
3 507 463 462
3 507 462 506
3 465 463 508
3 508 463 507
3 464 463 465
3 465 508 509
3 465 509 466
3 466 509 510
3 466 510 467
3 467 510 511
3 467 511 468
3 468 511 512
3 468 512 513
3 469 468 513
3 469 513 470
3 515 470 514
3 470 513 514
3 470 515 471
3 472 516 473
3 518 516 517
3 518 505 516
3 461 417 505
3 505 473 516
3 505 518 506
3 515 514 519
3 474 430 520
3 521 520 519
3 520 471 515
3 520 515 519
3 474 520 524
3 476 522 472
3 516 472 523
3 472 522 523
3 516 523 517
3 520 521 524
3 477 475 524
3 524 475 474
3 525 477 524
3 478 526 522
3 476 478 522
3 527 477 525
3 527 479 477
3 478 528 526
3 478 480 528
3 481 479 527
3 529 481 527
3 482 530 480
3 480 530 528
3 483 481 531
3 531 481 529
3 484 532 530
3 482 484 530
3 485 483 531
3 533 485 531
3 486 534 484
3 484 534 532
3 535 485 533
3 535 487 485
3 486 536 534
3 486 488 536
3 537 489 535
3 535 489 487
3 490 538 539
3 536 490 539
3 488 490 536
3 538 540 539
3 541 542 543
3 541 489 537
3 542 541 537
3 541 491 489
3 490 492 538
3 545 493 544
3 538 492 493
3 538 493 545
3 540 538 545
3 544 546 545
3 547 548 549
3 543 495 541
3 547 494 495
3 547 495 543
3 608 547 543
3 495 491 541
3 493 496 544
3 544 497 550
3 546 544 550
3 544 496 497
3 550 497 551
3 551 497 498
3 498 499 551
3 551 499 552
3 499 500 552
3 552 500 553
3 500 501 553
3 553 501 554
3 554 502 555
3 554 501 502
3 502 503 556
3 555 502 556
3 503 504 556
3 549 504 547
3 556 504 549
3 504 494 547
3 506 557 507
3 507 557 558
3 508 507 558
3 508 558 559
3 509 508 559
3 509 559 560
3 510 509 560
3 510 560 561
3 511 510 561
3 511 561 562
3 512 511 562
3 514 512 563
3 563 512 562
3 513 512 514
3 517 564 518
3 518 564 557
3 566 564 565
3 557 564 566
3 557 506 518
3 558 566 567
3 558 557 566
3 559 567 568
3 559 558 567
3 560 568 569
3 560 559 568
3 561 569 570
3 561 560 569
3 562 570 571
3 562 561 570
3 563 562 571
3 572 563 571
3 574 514 563
3 572 574 563
3 573 519 574
3 574 519 514
3 519 573 521
3 522 575 523
3 577 575 576
3 577 517 575
3 564 517 577
3 575 517 523
3 564 577 565
3 573 574 572
3 521 573 579
3 580 573 578
3 579 573 580
3 579 524 521
3 524 579 525
3 522 581 575
3 522 526 581
3 576 581 582
3 576 575 581
3 583 580 584
3 583 579 580
3 583 525 579
3 583 527 525
3 526 585 581
3 526 528 585
3 582 585 586
3 582 581 585
3 587 584 588
3 587 583 584
3 587 527 583
3 587 529 527
3 528 589 585
3 528 530 589
3 586 589 590
3 586 585 589
3 591 588 592
3 591 587 588
3 591 529 587
3 591 531 529
3 532 593 589
3 530 532 589
3 590 593 594
3 590 589 593
3 595 592 596
3 595 591 592
3 595 531 591
3 595 533 531
3 534 597 593
3 532 534 593
3 594 597 598
3 594 593 597
3 599 596 600
3 599 595 596
3 599 533 595
3 599 535 533
3 534 601 597
3 534 536 601
3 602 597 601
3 602 598 597
3 603 599 600
3 604 603 600
3 603 535 599
3 603 537 535
3 536 539 601
3 606 540 605
3 606 602 540
3 602 601 539
3 540 602 539
3 605 607 606
3 608 609 610
3 608 543 609
3 604 542 603
3 609 543 542
3 609 542 604
3 542 537 603
3 540 545 605
3 605 546 607
3 612 607 611
3 605 545 546
3 607 546 611
3 612 613 614
3 612 611 613
3 614 615 616
3 614 613 615
3 616 617 618
3 616 615 617
3 618 619 620
3 618 617 619
3 620 621 622
3 620 619 621
3 622 623 624
3 622 621 623
3 610 548 608
3 624 623 548
3 624 548 610
3 548 623 549
3 548 547 608
3 546 550 611
3 611 550 613
3 613 550 551
3 551 552 615
3 613 551 615
3 552 553 617
3 615 552 617
3 553 554 619
3 617 553 619
3 554 555 621
3 619 554 621
3 621 555 623
3 623 555 556
3 556 549 623
3 565 625 626
3 567 566 626
3 626 566 565
3 567 626 627
3 568 567 627
3 568 627 628
3 569 568 628
3 569 628 629
3 570 569 629
3 570 629 630
3 571 570 630
3 572 571 631
3 631 571 630
3 572 631 578
3 576 632 577
3 625 632 633
3 565 577 632
3 565 632 625
3 625 633 634
3 626 625 634
3 626 634 627
3 627 634 635
3 627 635 628
3 628 635 636
3 628 636 629
3 629 636 637
3 629 637 630
3 630 637 638
3 631 638 639
3 631 630 638
3 640 578 639
3 578 573 572
3 578 631 639
3 578 640 580
3 576 641 632
3 576 582 641
3 633 641 642
3 633 632 641
3 633 642 643
3 634 633 643
3 634 643 644
3 635 634 644
3 635 644 645
3 636 635 645
3 636 645 646
3 637 636 646
3 637 646 647
3 638 637 647
3 638 647 648
3 639 638 648
3 640 648 649
3 640 639 648
3 584 580 640
3 649 584 640
3 582 650 641
3 582 586 650
3 642 650 651
3 642 641 650
3 642 651 652
3 643 642 652
3 643 652 653
3 644 643 653
3 644 653 645
3 645 653 654
3 645 654 646
3 646 654 655
3 646 655 647
3 647 655 656
3 647 656 648
3 648 656 657
3 648 657 649
3 649 657 658
3 588 584 649
3 658 588 649
3 586 659 650
3 586 590 659
3 650 659 651
3 651 659 660
3 651 660 661
3 652 651 661
3 652 661 662
3 653 652 662
3 653 662 654
3 654 662 663
3 654 663 664
3 655 654 664
3 655 664 665
3 656 655 665
3 656 665 666
3 657 656 666
3 657 666 658
3 658 666 667
3 592 588 658
3 667 592 658
3 590 668 659
3 590 594 668
3 660 668 669
3 660 659 668
3 660 669 670
3 661 660 670
3 661 670 671
3 662 661 671
3 662 671 663
3 663 671 672
3 663 672 664
3 664 672 673
3 664 673 665
3 665 673 674
3 665 674 666
3 666 674 675
3 666 675 667
3 667 675 676
3 596 592 667
3 676 596 667
3 594 677 668
3 594 598 677
3 668 677 669
3 669 677 678
3 669 678 679
3 670 669 679
3 670 679 680
3 671 670 680
3 671 680 681
3 672 671 681
3 672 681 682
3 673 672 682
3 673 682 683
3 674 673 683
3 674 683 684
3 675 674 684
3 676 684 685
3 676 675 684
3 600 596 676
3 685 600 676
3 598 686 677
3 598 602 606
3 678 686 687
3 678 677 686
3 678 687 679
3 679 687 688
3 679 688 680
3 680 688 689
3 680 689 681
3 681 689 690
3 681 690 682
3 682 690 691
3 683 691 692
3 683 682 691
3 684 692 693
3 684 683 692
3 685 693 694
3 685 684 693
3 694 604 685
3 685 604 600
3 598 606 686
3 606 607 695
3 686 606 695
3 686 695 687
3 688 687 696
3 696 687 695
3 688 696 697
3 689 688 697
3 689 697 698
3 690 689 698
3 690 698 699
3 691 690 699
3 691 699 700
3 692 691 700
3 692 700 701
3 693 692 701
3 610 609 694
3 701 610 694
3 701 694 693
3 609 604 694
3 607 612 695
3 695 612 696
3 696 612 614
3 614 616 697
3 696 614 697
3 616 618 698
3 697 616 698
3 618 620 699
3 698 618 699
3 620 622 700
3 699 620 700
3 622 624 701
3 700 622 701
3 624 610 701
