OFF
702 1400 0
-0.252243924874548 -0.347622923381742 2.13607891534707
-0.29779425794754 -0.33343932630142 2.1189919242485
-0.269570354123403 -0.351338098665293 2.09061218773118
-0.205310367512447 -0.35405131312883 2.14040555614541
-0.223534781423139 -0.361927608629386 2.09528732686056
-0.158457568963101 -0.358461992167643 2.14326333666725
-0.17710566765171 -0.365870845623521 2.09714594366017
-0.113039033659674 -0.362290872922155 2.14735378652748
-0.131743258447589 -0.369600260306387 2.09871766956538
-0.0681067663228084 -0.365945144286624 2.15181000137455
-0.0869465277790717 -0.373053936572042 2.10310326275951
-0.0205690028074967 -0.368943557064222 2.15919916579128
-0.0411187248151134 -0.376323673020967 2.11135069308969
0.0275126705370905 -0.364492988174432 2.16766351726919
0.00622555053349515 -0.377915442506902 2.12019649987137
0.0526863176285364 -0.36905243116833 2.12929194053979
-0.320581984491713 -0.306399333658003 2.1485562355341
-0.350489373041438 -0.288025988055721 2.12199224216874
-0.329114482780811 -0.316499798333764 2.09214170609992
-0.27998220232842 -0.322934776280542 2.16744721283994
-0.233197704834389 -0.332107957680197 2.17894275020189
-0.185452050072952 -0.337174571653008 2.18244945224972
-0.138643150594645 -0.340943223999192 2.18755154928167
-0.0933888292998265 -0.344197064790294 2.19312994531023
-0.0490447830832018 -0.349294973917348 2.19537597217341
-0.000379120383475567 -0.350004229587847 2.20251348570337
0.0733510116084546 -0.348217680278213 2.17399742401847
0.0447259455249244 -0.337851626544197 2.21074498730772
0.090655975390813 -0.317219737410048 2.20929892393609
-0.307732266102607 -0.287394565253338 2.19101711334186
-0.348067322968748 -0.265987387706774 2.16405224067213
-0.261631114792054 -0.301262661025414 2.20785823009515
-0.211624352630589 -0.307554660837702 2.21554790762342
-0.163983387155318 -0.311711698901977 2.22049328608379
-0.116330849294764 -0.314060168180314 2.22749049349083
-0.0715948184462853 -0.316690282989108 2.23357643548994
-0.0292801083592395 -0.325618023005371 2.23203937548745
0.0120109809343403 -0.317508221091887 2.24298978246042
0.0575626050497434 -0.303788196993947 2.244948306701
0.102185042823737 -0.280828031956606 2.23938174235985
-0.326243113585984 -0.251292270226699 2.21339478319948
-0.359604195736106 -0.228880351477189 2.18798157150284
-0.28512552131032 -0.266826159672844 2.23378779842841
-0.236015625701099 -0.277527780304375 2.24442538175876
-0.187222024375428 -0.279628556744152 2.25212498038607
-0.139726445889881 -0.284189527592597 2.25658419536663
-0.0882057118312361 -0.285019055665397 2.26608488051217
-0.0332792336447673 -0.293988364502314 2.26705564156381
0.0171165466371845 -0.286688754003587 2.27661675919409
0.0674662172338074 -0.270692184265862 2.27592797443986
0.111995700571004 -0.243883456005392 2.26915894114266
-0.310446041187737 -0.22901836603068 2.25697772585497
-0.351106429338447 -0.210092979066079 2.22680801870236
-0.261054039697029 -0.246472651633773 2.27099649330534
-0.213610311776253 -0.248847234276144 2.28164449589991
-0.168045503135042 -0.249860008853673 2.28973108128219
-0.124038900847017 -0.257344468349373 2.29017145398885
-0.0905859899419427 -0.246013870932619 2.30978436532696
-0.0556218835835668 -0.264373727464801 2.29607361681793
-0.0133157977035573 -0.261016356373178 2.30700247818892
0.0345371095196442 -0.254146765158072 2.30856648452682
0.0824287984760117 -0.234763447494883 2.30517959919152
-0.313867535734957 -0.190424078901142 2.29899530386734
-0.341950333667712 -0.191246219308411 2.2641101041629
-0.280769667423515 -0.216335048846463 2.29511583679941
-0.233651940655139 -0.219053605245447 2.31132411225629
-0.188899950281658 -0.217917531022137 2.32168800510459
-0.139942717779675 -0.222684842425254 2.32620858059146
-0.0945303872944309 -0.21721700888925 2.34160517054903
-0.0470200530847251 -0.229976108677545 2.33678020144297
0.00101045186953065 -0.229630170638463 2.34210430303031
0.0487147687018751 -0.221765033475868 2.33891898813648
0.0959907307080488 -0.198902192411643 2.33278950089342
-0.303393285431238 -0.167534571597777 2.33535531361685
-0.347666036253312 -0.153569147554315 2.30088402701578
-0.264532088693942 -0.191556447476588 2.33238200882115
-0.218580531193559 -0.185833657783806 2.35201440904173
-0.168499020623492 -0.190167443469264 2.35725496527678
-0.122684897308082 -0.189989087616018 2.36674190935958
-0.0711124444259225 -0.193865518411246 2.37280155992766
-0.0261156507344387 -0.200104209087011 2.37447163870968
0.0202375734645621 -0.19688656153349 2.37577125079738
0.0640974903914822 -0.188854070187287 2.36705487850515
0.100286810477332 -0.162843808239721 2.36712402431411
-0.298852075375319 -0.129438771250367 2.37295602448936
-0.332698502849602 -0.136893957783457 2.33948088244358
-0.265197629939227 -0.159140361580177 2.36705201574366
-0.230674365186422 -0.147830129078147 2.3853503827079
-0.187870046024834 -0.156137986174925 2.38655624197513
-0.142732734443421 -0.156374742934401 2.39424149008039
-0.0954886881440141 -0.159688035376279 2.39995652397828
-0.0468384952730107 -0.163758122452534 2.40535307600767
0.00147343319463737 -0.166604946864183 2.40686798178233
0.0529990475018154 -0.160178936403759 2.39946356865025
0.100113885308999 -0.128333541574247 2.39310619800232
-0.340339615380792 -0.0985104284962534 2.35823409381508
-0.261740380505224 -0.111010137387724 2.39968570402028
-0.305474455849006 -0.0863334608784692 2.39000172264473
-0.212252707373429 -0.111723028122927 2.40886132148181
-0.166172110040422 -0.116432045767595 2.41370985571964
-0.119474776649813 -0.117461554502907 2.4202484538087
-0.0736303897003049 -0.122041897463629 2.42512797966538
-0.0269167823269335 -0.126517725918148 2.42989345915985
0.0197573291063145 -0.12781239244608 2.42773166719525
0.0640371632718496 -0.120817712899401 2.41780002819094
0.045551881252512 -0.0828714371945355 2.43618923898956
-0.278744923084115 -0.0600115303547709 2.4091550330029
-0.236221028102142 -0.0693322059174013 2.41865400513773
-0.187163405550755 -0.0712092469307923 2.42475408969778
-0.14138723077757 -0.0723612093378787 2.43051687988548
-0.0950785843910062 -0.0738281267242038 2.43626902385324
-0.0504549317843521 -0.0805349982473477 2.44090342741926
-0.00270945828895494 -0.0847745981691189 2.44363344888504
-0.247606913943214 -0.357143428578425 2.05103137762008
-0.271526516770885 -0.341711877204378 2.01626434726435
-0.248073351020234 -0.333076171453681 1.97904723905509
-0.19795075309689 -0.363378856504031 2.05134070364321
-0.219678185619335 -0.352632881550263 2.01073949768482
-0.151878650863111 -0.365978603518412 2.05053721423977
-0.171529372951325 -0.352590064576261 2.00514901994427
-0.106442261030572 -0.368934151385363 2.05291799516032
-0.126207255430432 -0.354086892205543 2.00574400605382
-0.0610806607254991 -0.372751744992626 2.06043001498276
-0.0786011334197666 -0.357866925128865 2.01169567575267
-0.0161300345193994 -0.376909961094288 2.07061666573417
-0.0328427263506042 -0.362843851950952 2.02067395370006
0.0299280736983662 -0.375741411681569 2.07918390710294
0.0114112297445806 -0.367397715535236 2.03176252896387
0.0593035920192407 -0.360717619001497 2.04104542415086
-0.299267337744038 -0.337506387954853 2.05979627911796
-0.337914367840545 -0.30648075581223 2.0452581805191
-0.308313335274173 -0.320484830564143 2.01213794055397
0.0973144760865825 -0.348863926813831 2.13441916567351
0.0730446793423057 -0.364287117988162 2.08896688536777
0.112611576090675 -0.342793854216083 2.09194962506941
-0.375957670317588 -0.252064053387842 2.11403658017259
-0.386397189506135 -0.237358783934016 2.06509080750117
-0.363398048224512 -0.280312422176953 2.07605602391504
0.118303139457923 -0.322101450362621 2.16928320522837
0.138828099995376 -0.318358352191252 2.12505017624532
0.155834317637202 -0.288316891241801 2.15375918633869
-0.378188662135715 -0.224945487001454 2.14682123764609
-0.394177778554606 -0.206784951511739 2.1013294389471
0.132099718693494 -0.287641330987826 2.19915790482638
0.163000147192147 -0.250471033342761 2.18618942332018
-0.382030270381606 -0.188024602383724 2.1824517443802
-0.394799767482386 -0.178679289441227 2.13910757434777
0.139836616892143 -0.248641741821956 2.22904756258885
0.169301662468219 -0.209778070605901 2.21238057600428
-0.376528789885947 -0.170743415809425 2.22110024490661
-0.397162192163709 -0.140475345304976 2.18028439474541
0.14837285443008 -0.208838974437202 2.25641994456797
0.173602180157851 -0.169167142414835 2.24058321967577
-0.368668603514957 -0.154531171728247 2.26081247356562
-0.392633111374438 -0.124844510605843 2.22635950307749
0.125191449066823 -0.204021717793849 2.29594915985004
0.15754999214607 -0.165037298843862 2.28356981564607
-0.382565601216727 -0.115254797908002 2.27488185334618
-0.401000009631516 -0.0795906646561146 2.24530144451214
0.132493687025877 -0.165524068351047 2.32633177906183
0.162536259969357 -0.126380205085344 2.31116927463243
-0.367033753484523 -0.109584177202621 2.31667413237998
-0.39146071353576 -0.0706448574104643 2.29313324306417
0.135849217909019 -0.129652874716886 2.35638112039825
0.1593850662465 -0.0909398517558336 2.3444741517978
-0.370041054702458 -0.065357343209718 2.33628502599421
-0.337961078053479 -0.0556800144437766 2.37426940404831
-0.357873013565365 -0.0214372904188529 2.35624170379222
0.0927295020726669 -0.0824860445742795 2.41539712191895
0.115887148256494 -0.0423754596641574 2.4030700036672
0.129488187738237 -0.0889828708904514 2.38458754420426
-0.312568075616708 -0.0289459195345006 2.39473776467216
-0.260121355558534 -0.0191280317669369 2.41703328451188
-0.292184163479405 0.00973182929096383 2.40101670731985
-0.210495041260371 -0.027971829825679 2.42536129904573
-0.163251796057845 -0.0251370654672156 2.43061648303547
-0.116637003631899 -0.0265958768534656 2.43592969660405
-0.0698082220440903 -0.0281199911996483 2.4412499217366
-0.0268116381288666 -0.0389504173795819 2.44662977111945
-0.00148273546904748 -0.00219120747893593 2.44239798490915
0.0238786826473612 -0.0423448339622093 2.44461114766107
0.0725794718643806 -0.0411606984327149 2.42969885250951
-0.258786458104013 0.0390068705991121 2.40455298941617
-0.227087734962326 0.0148131568888681 2.41803766787335
-0.182984922581012 0.0201356345869245 2.42091857870368
-0.136892834093093 0.0201085267128221 2.42527472401635
-0.0902020062511763 0.0180278827164079 2.43027270620886
-0.0417908499469755 0.0162328473481448 2.43532537563372
0.0140053416572203 0.0356240110872444 2.42839940477677
-0.33613511774898 -0.288463594519305 1.99657043057051
-0.319936832040318 -0.273791429653039 1.95796780371381
-0.289198953469808 -0.309945494703808 1.97072525213774
-0.240431771874113 -0.309626927025362 1.94374341124712
-0.198378370391245 -0.333825019151396 1.96910078132331
-0.147869620284647 -0.329123614994869 1.96247223241527
-0.0978683757078245 -0.334412804569504 1.97036517131104
-0.0457974665109899 -0.338554527563774 1.9767108329829
-0.000467259659807651 -0.344267833128806 1.98525418574101
0.0436616172622001 -0.347945495471498 2.00117123038804
0.0860300259889363 -0.329740871403407 2.00060952450082
0.0988409305757929 -0.344354606297087 2.0482562580208
0.125346487664723 -0.317648529405555 2.03094841097187
-0.366033722627615 -0.267204388057726 2.03040917286297
-0.383820347961634 -0.220579965438036 2.01840968880707
-0.360348144917522 -0.246674935743417 1.98767377063276
0.142032136289272 -0.315748443196098 2.0755477742787
0.157833713958814 -0.286338449716997 2.04479504401434
0.167899163406594 -0.284141257412274 2.10000670164559
-0.398072604931379 -0.188375853557374 2.05556863824386
0.187558729278381 -0.241841132139752 2.09815324388728
-0.40111138245572 -0.158055833692143 2.08876971843004
0.179664645433353 -0.250494953543809 2.14050260190313
-0.402117337149365 -0.136736177750463 2.13195010448301
0.185212503968499 -0.208937518985267 2.16508411985029
-0.404264425820158 -0.0972404319072321 2.14825827962698
0.187720841673809 -0.169162448316553 2.18984803321743
-0.404164283322106 -0.0903718975343166 2.19563490154168
0.188293799262627 -0.132344157599126 2.21783032787402
-0.407399423044987 -0.0430719381861787 2.21499052438461
0.180510023155983 -0.120638738829214 2.26351003913561
-0.403531235976398 -0.0330613989393556 2.26555951806444
0.180644999448875 -0.0823367567999803 2.29705124829737
-0.386672883968419 -0.0255032323433689 2.31370840963301
-0.39321133651785 0.0123325532207254 2.28545918721882
0.149085900826174 -0.0468718692435854 2.36904890758387
0.173350685402859 -0.0497393846431433 2.3279155515467
-0.369431845764788 0.0173907224734556 2.33168669497487
-0.334569738537326 0.0123867042910011 2.37279959012579
-0.341645177969504 0.0543793906654189 2.34585140412188
0.0483852947862839 -0.00026986537006838 2.43324771950568
0.0948274288497915 5.20138455062866e-05 2.41156458600524
0.133682678825739 -0.00135949949209222 2.37945072726163
-0.304816136487774 0.0502083022481178 2.37914680896928
-0.264335600239458 0.076923950301359 2.38280745742879
-0.211803046504315 0.0609022302740866 2.40208961974094
-0.162763632390661 0.0630147464499858 2.40462164181749
-0.115413230228195 0.0619123157735204 2.40870976555048
-0.0680394822955586 0.0586934676777851 2.4140181500271
-0.0220484200478357 0.0593079615938672 2.41689759434037
0.0315604112234215 0.070715869493894 2.40435093286911
0.0653533191180748 0.0387498586497485 2.41220522008918
-0.308735182098772 -0.241416843659259 1.92313643211695
-0.27724513123599 -0.28077687447244 1.93188168408844
-0.228808839349008 -0.277511069582663 1.91163045638094
-0.191456928643412 -0.306096918021639 1.93442272060952
-0.147824584820113 -0.29394140757443 1.92525702329545
-0.107574672401194 -0.301762709998219 1.93420592225929
-0.060541329217105 -0.310683654989422 1.94453674136484
-0.00436268827879746 -0.311818977315526 1.94824030917717
0.0432185121656299 -0.321578053832515 1.96536547755015
0.088449731367455 -0.297818364704102 1.96477464505476
0.126489061334986 -0.293822779107521 1.99697648036521
-0.372135017832303 -0.194178913986966 1.97478387347891
-0.344323698229736 -0.231455904199647 1.95302271281024
0.159236486883479 -0.257818727543235 2.00767466277636
0.179526301726566 -0.250744690267707 2.05595463299443
-0.391153204143392 -0.172889715954103 2.01486671316816
0.19604574784947 -0.203168564672699 2.07077834329787
-0.396454051791289 -0.132537412174162 2.04461568541705
0.195122070833034 -0.201356007483774 2.12053988309726
-0.400315024181449 -0.109627699645605 2.09257991793526
0.195809927536458 -0.159254585430059 2.14309884404874
-0.399445969631508 -0.066390491443855 2.1132337150706
0.195543526918623 -0.12050449554107 2.17055868223665
-0.404281536994949 -0.0514715128824877 2.16442606922588
0.19254540896475 -0.0901019474099914 2.21600761937353
-0.40313533470113 -0.00643711917646148 2.18380267906435
0.189511908952862 -0.0691134892523104 2.25563238325726
-0.40450274191969 0.00336195191603685 2.23528501204589
0.18466432953069 -0.0259813513821911 2.29155029393562
-0.38944887095982 0.048138033200115 2.25485131892699
0.163478572154611 -0.00690795665296306 2.33939590970034
-0.370647425440741 0.0546712207748566 2.3025001628847
-0.337777626750822 0.0914815408607947 2.31520919409306
0.107632468234274 0.0400570416748679 2.38449274916815
0.142855481372122 0.0362713831735334 2.34819973868125
-0.303805180265506 0.0890472149233807 2.35209425451096
-0.260255169472448 0.115402050363898 2.35123046065372
-0.224605619837049 0.0966403127849965 2.37720736906896
-0.17970433134336 0.100497357609379 2.37640446008954
-0.135584976625798 0.100909202994786 2.37820277282222
-0.0888507663019559 0.0969647584317361 2.38401411496461
-0.0455443392436229 0.0967651352251593 2.38631816357882
-0.00292639188943375 0.0948314035599397 2.38960398739676
0.0747402472793645 0.0770158114942474 2.38123896136138
-0.30535100101344 -0.206532237279257 1.89477086034246
-0.266851474036799 -0.245648810708016 1.89874079671064
-0.219952695084126 -0.242715010453642 1.88039602222809
-0.180264184395191 -0.268963695007929 1.90139419992197
-0.126433241249398 -0.25981503849776 1.89587958768778
-0.080514864585468 -0.27225301261849 1.90922347761244
-0.0348313509628559 -0.28398304289207 1.92192485383211
0.00856316035239241 -0.272076702397994 1.9134396100672
0.0462353263250998 -0.289101215187389 1.93524397523128
0.0928253950908282 -0.263015242278335 1.93275558281994
0.129544151019831 -0.261866483415071 1.96546633733738
-0.367173803553145 -0.156279972296809 1.94504086388602
-0.342821677309269 -0.196935951003596 1.92862272474678
0.165151619850515 -0.223703275077683 1.97716230903147
0.18530934316203 -0.216083471305491 2.02359666017768
-0.38632114227524 -0.140069183261492 1.98957450470635
0.20231650096929 -0.168726980514629 2.04264099553742
-0.389776351259647 -0.0949628569362495 2.01182401933734
0.201534472871405 -0.158328745532418 2.09465122615899
-0.394115438545273 -0.0799530810357667 2.0587525572002
0.201987194795283 -0.112627566155818 2.12047894464993
-0.393328463780005 -0.0346380733079059 2.08146319123676
0.199383127967198 -0.0760303297751738 2.16656351863357
-0.397908705510438 -0.0184737305624837 2.13120395045191
0.197537808387614 -0.0454097476740734 2.20227167689522
-0.396903975501803 0.0277064475923831 2.15260602161791
0.193943383638475 -0.0267297351410165 2.24492436469433
-0.398261704564549 0.0389439826398731 2.20456213385553
0.190370256526672 0.0160157447413942 2.26094202298964
-0.383115619738081 0.0833562343718246 2.22390781739288
0.172230496989263 0.0237007093709709 2.30598045920324
-0.364500838236223 0.0899857957816726 2.27150568460509
-0.330675328257595 0.127344689151918 2.28444627635494
0.114449828731794 0.0772402871480715 2.35190697082965
0.150411753708154 0.0703341153984133 2.31612670234604
-0.297426534710388 0.124692388616161 2.3208330883412
-0.24878375510906 0.149620321560426 2.32301721855317
-0.208547719749856 0.130941768192981 2.34784387565139
-0.15757851287211 0.137569264505305 2.34443711298227
-0.104899553203658 0.130951150845493 2.35292411556477
-0.056516219072927 0.132405946151394 2.35400252272904
-0.010429438584605 0.130225343289352 2.35820909477517
0.0373826480546044 0.109366263143754 2.3709005539775
0.0787181401043412 0.11477181707743 2.349472292413
-0.299748502784709 -0.172291874518951 1.86499621042613
-0.261865919463023 -0.210434689027595 1.86831359557632
-0.213918617128188 -0.20942258909184 1.85098965487185
-0.16906641306457 -0.236086552224196 1.8726295812976
-0.121824408839891 -0.221266357619201 1.86173596120575
-0.0797831794741267 -0.235770384307872 1.87673214336087
-0.0351597596532095 -0.249340216020276 1.89102119738076
0.0112052079535378 -0.235047723282134 1.88055413503474
0.0543604963322119 -0.252432585676742 1.90337059053234
0.0998692386778983 -0.227299764752073 1.90167838118286
0.135710912172566 -0.228263151266931 1.93598775050852
-0.360636493164894 -0.120415158635174 1.91312743032108
-0.337397355202383 -0.163630658796361 1.89993497700194
0.171553074900281 -0.189361559265518 1.94738260372194
0.191949714956703 -0.180791826971013 1.99380020400254
-0.379868961822718 -0.107263214099762 1.95853096034093
0.208493974070937 -0.134500028428861 2.0137026571954
-0.383400680645667 -0.0624087959610333 1.97835974914892
0.207539953261413 -0.122868877310474 2.06624995048398
-0.387747877277841 -0.0424277499930622 2.02858840127564
0.208946197834188 -0.0775261943458702 2.08366679381947
-0.387767436003126 0.00210429573760823 2.05768943406655
0.204900205751382 -0.0625029431457417 2.12808972524507
-0.391716356748489 0.0174137410116213 2.10147471973821
0.204444083187344 -0.020077701925834 2.15957044956392
-0.390479503441725 0.0618470922479649 2.11975482862206
0.200555528821339 0.0031897996068319 2.20800075853847
-0.392228488861832 0.0729376243925217 2.17293732848574
0.197584708511537 0.0483385819278227 2.22732204997094
-0.37688977631691 0.117803247235667 2.19378413666735
0.177837019386336 0.0616977599374463 2.27493843225815
-0.35772128183162 0.125312646451835 2.24133927957093
-0.322290413930203 0.16258689188812 2.2559927620549
0.119953108101314 0.113075372325542 2.32109430066777
0.155899452396548 0.106709234670678 2.28541428396139
-0.287550228350645 0.159656426794907 2.29268439904802
-0.239156397178947 0.183936059849341 2.29390060884373
-0.197780014506064 0.16438507629696 2.31855394665104
-0.152893433964396 0.178471193604905 2.30819939593828
-0.115746460473606 0.162219062751905 2.32451302117033
-0.0680539820679486 0.165435655622849 2.323986541514
-0.0176744374888392 0.165953037508193 2.325998653088
0.0324074903787795 0.145547322143977 2.34170907356414
0.0801122166036739 0.149717741833172 2.32122425273447
-0.29343747740495 -0.137991584036469 1.8345625529648
-0.256194999038346 -0.175578064110474 1.83782771127023
-0.209906762418865 -0.175117351402293 1.82111645325477
-0.165652426629112 -0.201912966314285 1.84232866910545
-0.115927370054528 -0.184830393590711 1.82953856719819
-0.0739007373860286 -0.198516404291082 1.84380429895847
-0.0319588580626405 -0.213634897085778 1.85934378027025
0.0143398716965712 -0.198339421273312 1.84797890753212
0.0578360362894006 -0.217635957905679 1.87178803720352
0.10316359377146 -0.193693894813527 1.87015738132259
0.14200904359695 -0.19416736411041 1.90612778733476
-0.355559619470934 -0.0838976686184241 1.88394353357353
-0.331136752717145 -0.129890325680404 1.86984647498296
0.177596057171082 -0.155166237347036 1.91703959112981
0.19821651811987 -0.146081544245954 1.96339489714238
-0.373845996684936 -0.0705824037574261 1.92807302338554
0.214477980912533 -0.100702507999603 1.98240201060537
-0.376441142533522 -0.0226604455363906 1.94456931479561
0.214070508304602 -0.0877484328349301 2.03311953586738
-0.3811068284496 -0.0161530053289414 1.9887714823429
0.214893320055374 -0.0396221311487479 2.05734724801346
-0.382415094498032 0.0141371979440559 2.01965898283464
0.210361262570247 -0.0252423342841313 2.10552372935118
-0.384724882911481 0.0528517672070647 2.06460910422785
0.211054849878715 0.0186395241469274 2.12809716325659
-0.384466111387081 0.0953456197731068 2.09000572763321
0.206643022158399 0.0328984160440195 2.17516043805801
-0.386185901155599 0.106711788948529 2.14313436803957
0.204236117141465 0.0805958619032067 2.19556686713684
-0.369801931449732 0.152860336802215 2.16642543784482
0.18487732034148 0.0953204928001803 2.24310471808116
-0.350316850313725 0.160313749034787 2.21293014067383
-0.315135632464372 0.197166138737733 2.22667212571307
0.124773453289495 0.148121068388096 2.2914522776471
0.162297739515157 0.140998087864507 2.25478324469401
-0.279447929113533 0.194125818924985 2.26364438881636
-0.232893404491559 0.218959689093229 2.26298084553311
-0.190922868061728 0.201379702807806 2.28590667875672
-0.140341688946194 0.214573835814849 2.27662584126893
-0.10088762784062 0.196876069484363 2.29434228894303
-0.0526134751441353 0.199864307567504 2.29404767802172
-0.00453660771755218 0.20091209607889 2.29547362601592
0.0357518541134557 0.178392502705871 2.31320614855518
0.0872982958483769 0.182349651444395 2.29171075341274
-0.29461454886388 -0.101585239914618 1.80964793561952
-0.249720049173567 -0.139862236282546 1.80625361144435
-0.201846235195751 -0.141731113961714 1.79126343624732
-0.160499007494589 -0.169341024153123 1.81354042613937
-0.110666784379368 -0.150001425880247 1.79879298215614
-0.0670632976410115 -0.161005866505119 1.81069601457614
-0.0272162881745174 -0.175671413546751 1.82572749841995
0.0163067113810995 -0.161176886458081 1.81495206013849
0.0606780792418902 -0.183164354742234 1.8403902392521
0.1073267942584 -0.159651192701087 1.83883918021542
0.144418521309404 -0.162773265384989 1.87461320005566
-0.350113733461401 -0.0467704439660172 1.85463054157031
-0.328323076142453 -0.0940027652985723 1.84310431377686
0.178204925628179 -0.126542648122022 1.88293220065385
0.204195449951227 -0.111381513146479 1.93180752640894
-0.367656526737539 -0.0326312356867439 1.89676347830994
0.221491564352448 -0.0629891898301098 1.9623440696099
-0.370119650616254 0.0152771174908526 1.91892815980029
0.21993752162221 -0.0497976583403737 2.00752234289638
-0.375305180548039 0.0290439205221712 1.96843825364613
0.221085081854961 -0.00283806834140976 2.02694750569213
-0.378795908509352 0.0557121037642906 2.01567411334895
0.216635228009703 0.0105255273211567 2.07501678778292
-0.377860025683537 0.0983613776779278 2.03536615986464
0.21748087212952 0.0547987116723542 2.09608131885834
-0.379042021725082 0.133396751448803 2.06834267587365
0.212983991317516 0.0693268436751884 2.14450800069254
-0.379690456554842 0.141837326535273 2.11794823654462
0.210243343445757 0.115263018369735 2.16561144023862
-0.363408198639701 0.187527563632507 2.13663679138932
0.191332244395217 0.128883611972051 2.21251642676054
-0.343352100282385 0.195379372683624 2.18344727405407
-0.308969396071661 0.231666097692417 2.19620797808222
0.131592027215993 0.18249758573662 2.26050831347643
0.168675325968773 0.175349570849331 2.22407442373373
-0.273567717739504 0.228497130777403 2.23311053026981
-0.227283599631581 0.253528646541581 2.23222106103505
-0.18365580743107 0.236495445229738 2.25495405623541
-0.135007468079106 0.248367181075392 2.2467308019339
-0.0874126261297518 0.233380458727624 2.26245629963944
-0.0374036189473427 0.234159206120119 2.26421695921142
0.00910694425417083 0.234435438062465 2.26625392646498
0.0481711184717422 0.210879871431598 2.28315070966173
0.0943985705976851 0.216762225470054 2.26082835678597
-0.257307911202199 -0.102181785104969 1.78412191998417
-0.215786445738161 -0.105914166215203 1.77049940604707
-0.169372508582998 -0.103269885784786 1.76426439604211
-0.154521126937335 -0.136978532537472 1.78585884790637
-0.117235588562549 -0.109324009454512 1.77113803898986
-0.0704997205097636 -0.121240249818456 1.78109972508917
-0.0236442863922644 -0.132422918332571 1.79113180506115
0.0242782822617007 -0.121721259942505 1.78851180023132
0.0637152138127032 -0.149450303921192 1.81113006678447
0.108167337281176 -0.123342293861023 1.8110415973448
0.148544879694749 -0.127300320937109 1.84383722724125
-0.337743392272224 -0.00978133404360138 1.82943579467714
-0.321126873169646 -0.0565830179768482 1.81494765953399
0.197291253844195 -0.0891808221934577 1.88582420074274
0.215036230565039 -0.0664498292677434 1.9192393453749
-0.357940364127565 0.0065235903976548 1.86888760710495
0.220557614586332 -0.0230844094193691 1.93004405827546
-0.354987442563087 0.0508433033495961 1.89012769404196
0.223415141250999 -0.0114510215400533 1.97542564895726
-0.364660992472128 0.0643233391398156 1.93504963660071
0.219954365201511 0.0320932514010199 1.9943836842502
-0.371578264517097 0.0815592191601354 1.98091161982626
0.220184101266662 0.047248344175304 2.04203815750659
-0.365520727767546 0.127100668644962 1.9958970409531
0.217115735853929 0.0896865951980559 2.06422669483611
-0.368529308988026 0.154268372647932 2.03182643708283
0.216977955109913 0.105059833021861 2.11157982753374
-0.372443417117094 0.17561380444985 2.08647367367119
0.211080403410172 0.146641933644421 2.13387990160905
-0.354624136657733 0.216675626847631 2.10150864341787
0.195637563806301 0.163240982868623 2.1820475216958
-0.337174692376163 0.228445545398847 2.15096744658335
-0.301584998521781 0.26106200771721 2.16289642181957
0.136675794344684 0.216885933601695 2.22817085427056
0.168572122743396 0.208953699972182 2.19118739150234
-0.266168423183338 0.262150965703208 2.20188343067895
-0.217539271623543 0.284701806575318 2.19648481682581
-0.180293760871987 0.270700491385068 2.22162229638918
-0.138472958348875 0.279250166949815 2.21097112645061
-0.0943622762813274 0.269418162990926 2.22509281953919
-0.0497121372395682 0.265083895766573 2.23153384905158
0.000358236661956085 0.264436245233058 2.23321609253812
0.0522651100882436 0.246634337113948 2.25015658802751
0.0976339631774191 0.247551700965085 2.22756472794611
-0.282649096278941 -0.0614888571593025 1.78251665735297
-0.237260209287677 -0.0626223463699092 1.76020093919505
-0.189590512427932 -0.0641374785915366 1.75059836034086
-0.137735357992211 -0.0681667397887364 1.75360671647872
-0.0872331457267 -0.0747934334472415 1.76026660217186
-0.041114202881334 -0.08476422729276 1.76758761124958
0.00299664225616746 -0.0843627461427157 1.77158531098086
0.050039173958165 -0.0741638639271733 1.77362697613951
0.0704563571389483 -0.109181949463185 1.78908550253613
0.102502359020698 -0.0736198389309493 1.78817800108272
0.138987603861967 -0.0909206498523034 1.81483908186232
-0.302576902561743 -0.0195725727867069 1.79093075772977
-0.27736163347723 0.0221665593811033 1.77706945343062
-0.260048784074489 -0.0210475083570589 1.76358078421977
0.149229592215235 -0.0499241174131715 1.81223515664475
0.175348141768122 -0.0835674712992346 1.84732930710534
0.178700531651762 -0.0361577018875181 1.8402739868861
-0.334648257864176 0.0443956256006023 1.84125820795474
-0.314871892967132 0.0220494306486411 1.80722437138541
0.202859901770121 -0.0421673071730263 1.87802371359765
0.208186857265884 -1.56944337573323e-05 1.89503465956267
-0.331387486154433 0.0821137564082638 1.86763745518117
0.214043563920055 0.0259187557502707 1.93833977863443
-0.341255242853413 0.10206967934997 1.90703363305764
0.209049807120326 0.063208868661204 1.96590275630585
-0.353735325880509 0.112787602101649 1.94672386304596
0.211656912972238 0.0841255259821809 2.00812717865351
-0.342691141983443 0.152131674553473 1.96046441103188
0.20680149193716 0.121285916624354 2.03537159652017
-0.346529513310801 0.180484166126398 1.9969892841071
0.209206273145553 0.142019242408352 2.07738082991325
-0.360013132831093 0.195721471523088 2.04964366832987
0.20167777508765 0.177711276458666 2.10393360180892
-0.326187053117803 0.253647092391494 2.11342259881824
-0.338125743043277 0.238103290397847 2.06486267283554
-0.307214752284761 0.271096807069974 2.07110383281851
0.1922208928339 0.193006535736348 2.148225433411
0.178900396554147 0.2189530792212 2.10474810413412
0.165658824353205 0.231607460730349 2.15003236690021
-0.258386176083781 0.287265933526911 2.1651009385761
-0.292194034023106 0.280894438794602 2.12380283714964
-0.250341298137998 0.302676741168776 2.12273815963441
0.132971262305897 0.247897378690926 2.18924143159501
0.100632585529548 0.280079809199336 2.15342664169019
0.0883071625977543 0.272966965567969 2.19226236805173
-0.211172101784449 0.304666229527142 2.1565187798639
-0.167201331951006 0.29899165547376 2.17625593625906
-0.114290859025562 0.296630802005611 2.1786509119808
-0.0698269804726023 0.29168716332332 2.18744077066036
-0.026016254839826 0.288397900213908 2.19247800975798
0.0167222777123296 0.287549548802991 2.19189845029433
0.0499019093154103 0.273027159179162 2.21511315889249
-0.211216704265055 -0.0214109005436968 1.74759712976894
-0.159934800325286 -0.0253609988686995 1.74472918825364
-0.109171397120303 -0.0294580891305515 1.75048692986251
-0.0613052419175157 -0.0343328666040902 1.7561441796083
-0.0164808010608143 -0.0379296425216413 1.76138799633688
0.0276015324312703 -0.0337991853722155 1.76622193651332
0.0761935444660977 -0.0324413204232891 1.77401801053732
-0.233144607689379 0.0199153647132272 1.75632030759172
-0.205894458192629 0.0573750584108025 1.7605894300412
-0.181744921158738 0.0180035262071226 1.74701588503691
-0.130952086463905 0.0146264898981277 1.75021223442818
-0.0832838151291977 0.0134938641630109 1.75619346155185
-0.036019766195901 0.0100337781745122 1.76173230081501
0.00875498934119269 0.0114755243880281 1.76786886112591
0.0556881384769697 0.0106813070264538 1.77400928977394
0.103837520006625 0.0118195027903109 1.78867331550751
0.150925199757205 0.00278564578995636 1.81608877872453
0.119714210319318 -0.0286243639685422 1.79143505830997
-0.295358891576738 0.0619128584996578 1.80532494049558
-0.263363500905156 0.100374254575062 1.80787261368965
-0.25278487510111 0.0625813197204323 1.77770462540452
0.126901916018936 0.0452481099670716 1.81324803578687
0.18482778832718 0.00566262901650685 1.85369009107888
0.162976001837054 0.0458322511506832 1.84515800049172
-0.30317757209173 0.0926548420216715 1.83650406245462
-0.269864905255848 0.131011207318058 1.84409616753369
0.193313286629075 0.0414830655244789 1.88850584133572
0.165445405591118 0.0805306801861484 1.87948364910279
-0.30777624567336 0.125028203984891 1.87628957469825
-0.276869648819639 0.161062663345785 1.88219412027684
0.192281425421905 0.0716587747486539 1.92181713193316
0.163508454706335 0.112501528859941 1.91506366335724
-0.318878395480758 0.149155286113406 1.91662987687384
-0.281714765302388 0.18891027414882 1.91630174996334
0.190870937904199 0.103980412293059 1.95901463080621
0.16247127811041 0.143498703856949 1.95088203826334
-0.31573956294121 0.187071287478191 1.95184911957998
-0.279777246827768 0.222439419646805 1.9506339604709
0.190175347988005 0.132080480858062 1.99274581481019
0.161796577821657 0.173841134181548 1.98649935014278
-0.312958723756872 0.2215695941598 1.98439893204538
-0.27917782388029 0.257676102723965 1.98968283598416
0.189109833735931 0.163849534737512 2.03018992215679
0.160574467984725 0.204386064352465 2.02149819084358
-0.33652021605508 0.220517957063898 2.02078767137639
-0.307271199556332 0.25728088337059 2.02586818948232
0.187395531603556 0.192389257123429 2.06339655402956
0.157338371566774 0.232292184397616 2.05828111118713
-0.274016627897793 0.294184726524254 2.08238743035919
-0.268942306994349 0.287109545627954 2.03415183945731
-0.236443510005083 0.30796803400513 2.06845698195621
0.135152985202877 0.261396809996286 2.14267076156942
0.14885662761068 0.251733374380143 2.10061881666967
0.108919689085227 0.279229711328113 2.10140554448659
-0.211932462328923 0.314372326867255 2.10848895376316
-0.186350500884456 0.316220135642167 2.0727243074433
-0.17140971048232 0.314196661826313 2.12707579818528
-0.14242972503374 0.314727769515799 2.08614771230257
-0.12895017817723 0.310207099708529 2.13623624427384
-0.098316222052545 0.311380982817773 2.09128955978436
-0.0821573334969035 0.307164961075384 2.13899179617129
-0.0534619251643669 0.307880526405817 2.09467930823745
-0.0378646457949441 0.30365219637239 2.14499915052059
-0.00989079409632818 0.304488468800206 2.09834350919427
0.00665387844249177 0.300844794453044 2.14697127201383
0.0343198412546697 0.301287654881684 2.106205888104
0.0523542253749001 0.293801511094148 2.16180288624775
0.072064005211918 0.294521263278073 2.11864998617638
-0.175136899212534 0.0902996754465639 1.77439329466797
-0.152608382176451 0.0562299335108014 1.75859789275522
-0.106892153013362 0.0585655196332603 1.76619550221955
-0.0581546694562239 0.0544049861529607 1.77168808436978
-0.0132597845562801 0.0561466927663138 1.77917925262939
0.0321306015695724 0.0553267230761906 1.78569233139855
0.0781610936582579 0.0512699003901678 1.79286848334564
-0.220190003050046 0.0983017736572349 1.7863079871035
-0.177629667776458 0.1250032622481 1.80189263642364
-0.131593997337482 0.100193398041746 1.78587023378558
-0.0806426244493793 0.0932956345749208 1.78964215239197
-0.0363422615454959 0.0964694401974519 1.79961130814632
0.00818171509900967 0.0963844176257481 1.8073860827361
0.0533735133674011 0.0935135865042737 1.81312035199565
0.0968157076183503 0.0837014183387081 1.8200381578294
0.131453197915798 0.0859797521477433 1.84515672255648
-0.225158516170029 0.132007710724232 1.81905680272807
-0.185319007610426 0.156570176589489 1.83704689437174
-0.139418423665371 0.140713640172079 1.82323852722184
-0.100207724847819 0.125111580282295 1.81366259408533
-0.0574348458936842 0.130160205929469 1.82789788892069
-0.013732536224289 0.130735708210347 1.83740680661331
0.0343891202622534 0.127068546829963 1.84300492544033
0.0842454116244209 0.119298987172565 1.84889259257943
0.129028094485167 0.116809496868245 1.87766137279025
-0.23203751070765 0.162372162050085 1.85526510441196
-0.187035860185739 0.186932933819603 1.87110359886028
-0.140988377071266 0.172662836030376 1.85911041988603
-0.0943764018353955 0.156675061962234 1.85044637816426
-0.0474565528431674 0.163124375019246 1.86725989821924
0.00274619876283164 0.159224422646064 1.87301607860846
0.0505576977429804 0.155144512443435 1.87809657041632
0.0926726534665171 0.14726465149255 1.88552510976125
0.127845015345513 0.149493636746364 1.91491528520461
-0.235548814553939 0.19188147615712 1.88919498432969
-0.189588367978715 0.215811306278874 1.90356985083168
-0.140635735777993 0.204869880030529 1.89566373236097
-0.0980627630150056 0.187650625249396 1.88478583624525
-0.0602189912385847 0.195961947120639 1.9018694591481
-0.0154965589688535 0.190222403154837 1.90443108342655
0.0325209485202213 0.186661507789007 1.91012807348537
0.0815874210685262 0.180294252138211 1.91764423155608
0.126783986452727 0.178839633166356 1.94836946355062
-0.238795863408444 0.220580655528682 1.92214407017642
-0.195954537287664 0.244336972714835 1.93605000613786
-0.145951752975695 0.235279749092799 1.92903182629469
-0.0967108340574806 0.223551602807304 1.92572676687073
-0.0451636251023211 0.223673520854354 1.93631050665981
0.00301480120430064 0.21911695939483 1.94091290128468
0.0494309926759751 0.215720556140904 1.94653559896476
0.0909429964027944 0.208483585580916 1.95514273952934
0.125962142336165 0.210982946598054 1.98535411398671
-0.243462184877361 0.251439420318008 1.95816611909962
-0.205657121845047 0.273268883328933 1.97034967702732
-0.158678915984021 0.267158898981919 1.96263285933099
-0.112060050723828 0.257422696702545 1.96098305175824
-0.0673963410164245 0.253098151854888 1.9651349949218
-0.0184121261264617 0.250919341688653 1.97259426625843
0.0304062916367725 0.247371705545881 1.97846821372949
0.0795119658988108 0.241640112822134 1.9870916752224
0.124365764309563 0.239758492033313 2.01859489838027
-0.239263653868934 0.284019749653806 1.99911244868778
-0.18275020243374 0.294286297575374 1.99998527264268
-0.134006959786065 0.288340595172909 1.99804182515659
-0.0893572202782208 0.283719908504306 2.00110592740558
-0.0444755116230047 0.279733947906254 2.00535287669878
0.00190911170347612 0.276783274415978 2.01173584895427
0.046992874865409 0.273897050050105 2.01807827318074
0.0877023814639219 0.26700601234354 2.02767936133951
0.119592960358074 0.264695559112614 2.0608611617226
-0.214356828563646 0.304652634411957 2.03141533796674
-0.16020397350605 0.308178336395107 2.03718177028118
-0.11442263112451 0.304795439797301 2.04283254291444
-0.0693443312650962 0.300936462816343 2.04661069794636
-0.0235734207856324 0.297032806216943 2.05053534277549
0.0235816749836018 0.293912289254508 2.0575414236972
0.070529997957292 0.288638951408507 2.06732285707478
3 0 1 2
3 0 2 4
3 3 0 4
3 3 4 6
3 5 3 6
3 5 6 8
3 7 5 8
3 7 8 10
3 9 7 10
3 9 10 12
3 11 9 12
3 13 11 14
3 14 11 12
3 13 14 15
3 16 17 18
3 16 18 1
3 0 19 1
3 19 16 1
3 0 3 20
3 19 0 20
3 3 5 21
3 20 3 21
3 5 7 22
3 21 5 22
3 7 9 23
3 22 7 23
3 9 11 24
3 23 9 24
3 24 11 25
3 25 11 13
3 13 15 26
3 27 13 26
3 25 13 27
3 27 26 28
3 17 16 30
3 30 16 29
3 29 19 31
3 29 16 19
3 31 20 32
3 31 19 20
3 32 21 33
3 32 20 21
3 21 22 33
3 33 22 34
3 22 23 34
3 34 23 35
3 23 24 35
3 35 24 36
3 24 25 36
3 36 25 37
3 37 27 38
3 37 25 27
3 38 28 39
3 38 27 28
3 30 40 41
3 30 29 40
3 29 31 42
3 40 29 42
3 31 32 43
3 42 31 43
3 32 33 44
3 43 32 44
3 33 34 45
3 44 33 45
3 34 35 46
3 45 34 46
3 35 36 47
3 46 35 47
3 36 37 47
3 47 37 48
3 37 38 48
3 48 38 49
3 49 39 50
3 49 38 39
3 40 51 52
3 41 40 52
3 51 42 53
3 51 40 42
3 42 43 53
3 53 43 54
3 43 44 54
3 54 44 55
3 44 45 55
3 55 45 56
3 45 46 56
3 56 46 57
3 46 47 58
3 57 46 58
3 47 48 59
3 58 47 59
3 48 49 60
3 59 48 60
3 49 50 61
3 60 49 61
3 51 62 63
3 52 51 63
3 51 53 64
3 62 51 64
3 53 54 65
3 64 53 65
3 54 55 66
3 65 54 66
3 55 56 67
3 66 55 67
3 56 57 67
3 67 57 68
3 57 58 69
3 68 57 69
3 58 59 69
3 69 59 70
3 59 60 70
3 70 60 71
3 71 61 72
3 71 60 61
3 62 73 74
3 63 62 74
3 62 64 75
3 73 62 75
3 64 65 75
3 75 65 76
3 65 66 76
3 76 66 77
3 66 67 77
3 77 67 78
3 67 68 78
3 78 68 79
3 79 69 80
3 79 68 69
3 80 70 81
3 80 69 70
3 81 71 82
3 81 70 71
3 82 72 83
3 82 71 72
3 74 73 85
3 85 73 84
3 84 73 86
3 86 73 75
3 75 76 86
3 86 76 87
3 76 77 88
3 87 76 88
3 77 78 89
3 88 77 89
3 78 79 90
3 89 78 90
3 79 80 91
3 90 79 91
3 80 81 92
3 91 80 92
3 81 82 93
3 92 81 93
3 93 83 94
3 93 82 83
3 84 95 85
3 84 86 96
3 97 84 96
3 95 84 97
3 96 87 98
3 96 86 87
3 87 88 98
3 98 88 99
3 88 89 99
3 99 89 100
3 89 90 100
3 100 90 101
3 101 91 102
3 101 90 91
3 102 92 103
3 102 91 92
3 92 93 103
3 105 103 104
3 103 93 104
3 93 94 104
3 96 106 97
3 96 98 107
3 106 96 107
3 98 99 108
3 107 98 108
3 99 100 109
3 108 99 109
3 100 101 110
3 109 100 110
3 101 102 111
3 110 101 111
3 111 102 112
3 112 102 103
3 103 105 112
3 117 114 115
3 116 113 117
3 117 113 114
3 116 117 119
3 118 116 119
3 118 119 121
3 120 118 121
3 120 121 123
3 122 120 123
3 122 123 125
3 124 122 125
3 124 125 127
3 126 124 127
3 126 127 128
3 129 130 131
3 114 129 131
3 114 113 129
3 113 2 129
3 129 2 1
3 4 113 116
3 4 2 113
3 6 116 118
3 6 4 116
3 8 118 120
3 8 6 118
3 10 120 122
3 10 8 120
3 12 122 124
3 12 10 122
3 14 124 126
3 14 12 124
3 133 126 128
3 15 14 126
3 15 126 133
3 132 15 133
3 132 133 134
3 135 136 137
3 137 17 135
3 137 18 17
3 18 137 130
3 129 18 130
3 18 129 1
3 15 132 26
3 139 132 134
3 139 138 132
3 138 28 26
3 132 138 26
3 138 139 140
3 136 135 142
3 142 135 141
3 17 30 135
3 135 30 141
3 143 39 28
3 138 143 28
3 143 140 144
3 143 138 140
3 141 145 146
3 142 141 146
3 41 145 141
3 30 41 141
3 147 39 143
3 147 50 39
3 147 144 148
3 147 143 144
3 145 149 150
3 146 145 150
3 52 149 145
3 41 52 145
3 151 50 147
3 151 155 50
3 151 148 152
3 151 147 148
3 149 153 154
3 150 149 154
3 63 153 149
3 52 63 149
3 155 61 50
3 155 72 61
3 155 151 156
3 156 151 152
3 154 157 158
3 154 153 157
3 74 157 153
3 63 74 153
3 159 72 155
3 159 83 72
3 159 156 160
3 159 155 156
3 158 157 162
3 162 157 161
3 74 85 161
3 157 74 161
3 163 83 159
3 163 94 83
3 163 160 164
3 163 159 160
3 161 165 162
3 165 95 166
3 165 161 95
3 161 85 95
3 165 166 167
3 95 97 166
3 105 104 168
3 170 94 163
3 170 168 94
3 169 168 170
3 94 168 104
3 163 164 170
3 166 171 167
3 173 171 172
3 172 171 106
3 171 97 106
3 171 166 97
3 172 107 174
3 172 106 107
3 174 108 175
3 174 107 108
3 175 109 176
3 175 108 109
3 176 110 177
3 176 109 110
3 177 111 178
3 177 110 111
3 178 112 180
3 178 111 112
3 181 105 168
3 181 180 105
3 179 178 180
3 180 112 105
3 168 169 181
3 172 182 173
3 182 172 183
3 183 172 174
3 174 175 184
3 183 174 184
3 175 176 185
3 184 175 185
3 176 177 186
3 185 176 186
3 177 178 187
3 186 177 187
3 187 179 188
3 187 178 179
3 179 180 229
3 189 190 191
3 114 131 191
3 115 114 191
3 115 191 192
3 115 192 193
3 117 115 193
3 119 193 194
3 119 117 193
3 119 194 121
3 121 194 195
3 121 195 123
3 123 195 196
3 123 196 125
3 125 196 197
3 127 197 198
3 127 125 197
3 128 198 199
3 200 128 199
3 128 127 198
3 200 199 201
3 202 203 204
3 131 130 189
3 190 189 204
3 189 130 202
3 189 202 204
3 131 189 191
3 128 200 133
3 134 200 205
3 206 205 201
3 134 133 200
3 205 200 201
3 205 206 207
3 136 208 203
3 202 137 136
3 202 136 203
3 137 202 130
3 134 205 139
3 139 205 207
3 140 139 207
3 211 207 209
3 136 142 208
3 208 142 210
3 211 140 207
3 211 144 140
3 146 212 210
3 142 146 210
3 148 144 213
3 213 144 211
3 150 214 212
3 146 150 212
3 215 148 213
3 215 152 148
3 154 216 150
3 150 216 214
3 219 152 217
3 217 152 215
3 158 218 216
3 154 158 216
3 219 156 152
3 219 160 156
3 158 220 218
3 158 162 220
3 221 160 219
3 221 164 160
3 162 165 222
3 223 220 222
3 220 162 222
3 165 167 222
3 169 170 224
3 225 164 221
3 224 170 164
3 224 164 225
3 222 226 223
3 167 171 227
3 226 167 227
3 226 227 228
3 226 222 167
3 171 173 227
3 180 181 229
3 181 169 230
3 231 169 224
3 230 169 231
3 230 229 181
3 224 225 271
3 227 232 228
3 232 182 233
3 232 173 182
3 227 173 232
3 182 183 234
3 233 182 234
3 183 184 234
3 234 184 235
3 184 185 235
3 235 185 236
3 185 186 236
3 236 186 237
3 186 187 237
3 237 187 238
3 238 188 239
3 238 187 188
3 188 179 229
3 240 239 188
3 240 188 229
3 229 230 240
3 191 190 242
3 242 190 241
3 192 242 243
3 192 191 242
3 192 243 244
3 193 192 244
3 194 244 245
3 194 193 244
3 194 245 246
3 195 194 246
3 195 246 247
3 196 195 247
3 196 247 248
3 197 196 248
3 197 248 249
3 198 197 249
3 199 198 249
3 250 199 249
3 201 199 251
3 251 199 250
3 204 252 253
3 204 203 252
3 190 253 241
3 190 204 253
3 206 251 254
3 206 201 251
3 207 206 255
3 255 206 254
3 203 256 252
3 203 208 256
3 257 209 255
3 255 209 207
3 210 258 208
3 208 258 256
3 211 209 259
3 259 209 257
3 212 260 210
3 210 260 258
3 213 211 259
3 261 213 259
3 214 262 260
3 212 214 260
3 215 213 261
3 263 215 261
3 216 264 214
3 214 264 262
3 217 215 263
3 265 217 263
3 218 266 264
3 216 218 264
3 219 217 265
3 267 219 265
3 218 268 266
3 218 220 268
3 221 219 267
3 269 221 267
3 223 270 268
3 220 223 268
3 225 221 269
3 271 225 269
3 223 226 272
3 270 223 272
3 272 228 273
3 272 226 228
3 274 231 275
3 274 230 231
3 275 231 271
3 271 231 224
3 273 228 276
3 276 228 232
3 276 233 277
3 276 232 233
3 233 234 278
3 277 233 278
3 234 235 279
3 278 234 279
3 235 236 280
3 279 235 280
3 236 237 281
3 280 236 281
3 237 238 282
3 281 237 282
3 238 239 283
3 282 238 283
3 327 239 284
3 284 239 240
3 240 230 274
3 284 240 274
3 241 285 286
3 242 241 286
3 242 286 243
3 243 286 287
3 243 287 288
3 244 243 288
3 245 288 289
3 245 244 288
3 245 289 246
3 246 289 290
3 246 290 247
3 247 290 291
3 247 291 248
3 248 291 292
3 248 292 293
3 249 248 293
3 249 293 250
3 250 293 294
3 250 294 295
3 251 250 295
3 252 296 297
3 253 252 297
3 241 297 285
3 241 253 297
3 254 295 298
3 254 251 295
3 254 298 299
3 255 254 299
3 256 300 252
3 252 300 296
3 257 255 299
3 301 257 299
3 258 302 300
3 256 258 300
3 259 257 303
3 303 257 301
3 260 304 258
3 258 304 302
3 261 259 303
3 305 261 303
3 262 306 304
3 260 262 304
3 263 261 305
3 307 263 305
3 264 308 262
3 262 308 306
3 265 263 307
3 309 265 307
3 266 310 308
3 264 266 308
3 267 265 309
3 311 267 309
3 266 312 310
3 266 268 312
3 269 267 311
3 313 269 311
3 270 314 312
3 268 270 312
3 271 269 315
3 315 269 313
3 270 272 316
3 314 270 316
3 316 273 317
3 316 272 273
3 318 275 319
3 318 274 275
3 275 271 315
3 319 275 315
3 273 276 320
3 317 273 320
3 276 277 320
3 320 277 321
3 277 278 322
3 321 277 322
3 322 279 323
3 322 278 279
3 279 280 323
3 323 280 324
3 280 281 324
3 324 281 325
3 281 282 325
3 325 282 326
3 282 283 326
3 326 283 327
3 283 239 327
3 327 284 328
3 284 274 318
3 328 284 318
3 285 329 330
3 286 285 330
3 286 330 287
3 287 330 331
3 287 331 332
3 288 287 332
3 288 332 289
3 289 332 333
3 289 333 334
3 290 289 334
3 290 334 335
3 291 290 335
3 291 335 292
3 292 335 336
3 292 336 337
3 293 292 337
3 293 337 294
3 294 337 338
3 294 338 339
3 295 294 339
3 296 340 341
3 297 296 341
3 285 341 329
3 285 297 341
3 298 339 342
3 298 295 339
3 298 342 343
3 299 298 343
3 300 344 296
3 296 344 340
3 301 299 343
3 345 301 343
3 302 346 344
3 300 302 344
3 303 301 347
3 347 301 345
3 304 348 302
3 302 348 346
3 305 303 347
3 349 305 347
3 306 350 348
3 304 306 348
3 307 305 351
3 351 305 349
3 308 352 306
3 306 352 350
3 309 307 353
3 353 307 351
3 310 354 352
3 308 310 352
3 311 309 355
3 355 309 353
3 312 356 310
3 310 356 354
3 313 311 355
3 357 313 355
3 314 358 356
3 312 314 356
3 315 313 359
3 359 313 357
3 314 316 360
3 358 314 360
3 360 317 361
3 360 316 317
3 362 319 363
3 362 318 319
3 319 315 359
3 363 319 359
3 317 320 364
3 361 317 364
3 320 321 364
3 364 321 365
3 321 322 366
3 365 321 366
3 322 323 366
3 366 323 367
3 323 324 368
3 367 323 368
3 324 325 369
3 368 324 369
3 325 326 370
3 369 325 370
3 326 327 371
3 370 326 371
3 327 328 371
3 371 328 372
3 328 318 362
3 372 328 362
3 329 373 374
3 330 329 374
3 330 374 331
3 331 374 375
3 331 375 376
3 332 331 376
3 332 376 333
3 333 376 377
3 333 377 378
3 334 333 378
3 334 378 379
3 335 334 379
3 335 379 336
3 336 379 380
3 336 380 381
3 337 336 381
3 337 381 338
3 338 381 382
3 338 382 383
3 339 338 383
3 340 384 385
3 341 340 385
3 329 385 373
3 329 341 385
3 342 383 386
3 342 339 383
3 342 386 387
3 343 342 387
3 344 388 340
3 340 388 384
3 345 343 387
3 389 345 387
3 346 390 388
3 344 346 388
3 347 345 391
3 391 345 389
3 348 392 346
3 346 392 390
3 349 347 391
3 393 349 391
3 350 394 348
3 348 394 392
3 351 349 395
3 395 349 393
3 352 396 350
3 350 396 394
3 353 351 395
3 397 353 395
3 354 398 396
3 352 354 396
3 355 353 399
3 399 353 397
3 356 400 354
3 354 400 398
3 357 355 399
3 401 357 399
3 358 402 400
3 356 358 400
3 359 357 403
3 403 357 401
3 358 360 404
3 402 358 404
3 404 361 405
3 404 360 361
3 406 363 407
3 406 362 363
3 363 359 403
3 407 363 403
3 361 364 408
3 405 361 408
3 364 365 408
3 408 365 409
3 365 366 410
3 409 365 410
3 366 367 410
3 410 367 411
3 367 368 412
3 411 367 412
3 368 369 412
3 412 369 413
3 369 370 413
3 413 370 414
3 370 371 415
3 414 370 415
3 371 372 415
3 415 372 416
3 372 362 406
3 416 372 406
3 373 417 418
3 374 373 418
3 374 418 375
3 375 418 419
3 375 419 420
3 376 375 420
3 376 420 377
3 377 420 421
3 377 421 422
3 378 377 422
3 378 422 423
3 379 378 423
3 380 423 424
3 380 379 423
3 380 424 425
3 381 380 425
3 382 425 426
3 382 381 425
3 382 426 427
3 383 382 427
3 384 428 429
3 385 384 429
3 373 429 417
3 373 385 429
3 386 427 430
3 386 383 427
3 386 430 431
3 387 386 431
3 384 432 428
3 384 388 432
3 389 387 431
3 433 389 431
3 390 434 432
3 388 390 432
3 435 389 433
3 435 391 389
3 390 436 434
3 390 392 436
3 393 391 435
3 437 393 435
3 394 438 436
3 392 394 436
3 395 393 439
3 439 393 437
3 396 440 438
3 394 396 438
3 397 395 439
3 441 397 439
3 398 442 440
3 396 398 440
3 399 397 443
3 443 397 441
3 400 444 398
3 398 444 442
3 401 399 443
3 445 401 443
3 402 446 444
3 400 402 444
3 403 401 447
3 447 401 445
3 402 404 448
3 446 402 448
3 448 405 449
3 448 404 405
3 450 407 451
3 450 406 407
3 407 403 447
3 451 407 447
3 405 408 452
3 449 405 452
3 408 409 452
3 452 409 453
3 409 410 454
3 453 409 454
3 410 411 454
3 454 411 455
3 411 412 456
3 455 411 456
3 412 413 456
3 456 413 457
3 457 414 458
3 457 413 414
3 414 415 459
3 458 414 459
3 415 416 459
3 459 416 460
3 416 406 450
3 460 416 450
3 418 461 462
3 418 417 461
3 419 462 463
3 419 418 462
3 419 463 464
3 420 419 464
3 420 464 421
3 421 464 465
3 421 465 466
3 422 421 466
3 422 466 467
3 423 422 467
3 424 467 468
3 424 423 467
3 424 468 469
3 425 424 469
3 426 469 470
3 426 425 469
3 427 426 471
3 471 426 470
3 429 428 473
3 473 428 472
3 417 473 505
3 417 429 473
3 430 427 471
3 520 430 471
3 431 474 475
3 431 430 474
3 428 476 472
3 428 432 476
3 433 431 475
3 477 433 475
3 434 478 476
3 432 434 476
3 479 433 477
3 479 435 433
3 434 480 478
3 434 436 480
3 437 435 479
3 481 437 479
3 438 482 436
3 436 482 480
3 439 437 483
3 483 437 481
3 440 484 482
3 438 440 482
3 441 439 483
3 485 441 483
3 442 486 440
3 440 486 484
3 443 441 487
3 487 441 485
3 444 488 442
3 442 488 486
3 445 443 487
3 489 445 487
3 444 446 488
3 488 446 490
3 491 445 489
3 491 447 445
3 490 446 492
3 492 446 448
3 492 449 493
3 492 448 449
3 494 451 495
3 494 450 451
3 451 447 491
3 495 451 491
3 449 452 496
3 493 449 496
3 496 453 497
3 496 452 453
3 453 454 498
3 497 453 498
3 498 455 499
3 498 454 455
3 455 456 500
3 499 455 500
3 456 457 501
3 500 456 501
3 457 458 502
3 501 457 502
3 458 459 503
3 502 458 503
3 503 460 504
3 503 459 460
3 504 460 494
3 494 460 450
3 461 505 506
3 462 461 506
3 507 463 462
3 507 462 506
3 465 463 508
3 508 463 507
3 464 463 465
3 465 508 509
3 465 509 466
3 466 509 510
3 466 510 467
3 467 510 511
3 467 511 468
3 468 511 512
3 468 512 513
3 469 468 513
3 469 513 470
3 515 470 514
3 470 513 514
3 470 515 471
3 472 516 473
3 518 516 517
3 518 505 516
3 461 417 505
3 505 473 516
3 505 518 506
3 515 514 519
3 474 430 520
3 521 520 519
3 520 471 515
3 520 515 519
3 474 520 524
3 476 522 472
3 516 472 523
3 472 522 523
3 516 523 517
3 520 521 524
3 477 475 524
3 524 475 474
3 525 477 524
3 478 526 522
3 476 478 522
3 527 477 525
3 527 479 477
3 478 528 526
3 478 480 528
3 481 479 527
3 529 481 527
3 482 530 480
3 480 530 528
3 483 481 531
3 531 481 529
3 484 532 530
3 482 484 530
3 485 483 531
3 533 485 531
3 486 534 484
3 484 534 532
3 535 485 533
3 535 487 485
3 486 536 534
3 486 488 536
3 537 489 535
3 535 489 487
3 490 538 539
3 536 490 539
3 488 490 536
3 538 540 539
3 541 542 543
3 541 489 537
3 542 541 537
3 541 491 489
3 490 492 538
3 545 493 544
3 538 492 493
3 538 493 545
3 540 538 545
3 544 546 545
3 547 548 549
3 543 495 541
3 547 494 495
3 547 495 543
3 608 547 543
3 495 491 541
3 493 496 544
3 544 497 550
3 546 544 550
3 544 496 497
3 550 497 551
3 551 497 498
3 498 499 551
3 551 499 552
3 499 500 552
3 552 500 553
3 500 501 553
3 553 501 554
3 554 502 555
3 554 501 502
3 502 503 556
3 555 502 556
3 503 504 556
3 549 504 547
3 556 504 549
3 504 494 547
3 506 557 507
3 507 557 558
3 508 507 558
3 508 558 559
3 509 508 559
3 509 559 560
3 510 509 560
3 510 560 561
3 511 510 561
3 511 561 562
3 512 511 562
3 514 512 563
3 563 512 562
3 513 512 514
3 517 564 518
3 518 564 557
3 566 564 565
3 557 564 566
3 557 506 518
3 558 566 567
3 558 557 566
3 559 567 568
3 559 558 567
3 560 568 569
3 560 559 568
3 561 569 570
3 561 560 569
3 562 570 571
3 562 561 570
3 563 562 571
3 572 563 571
3 574 514 563
3 572 574 563
3 573 519 574
3 574 519 514
3 519 573 521
3 522 575 523
3 577 575 576
3 577 517 575
3 564 517 577
3 575 517 523
3 564 577 565
3 573 574 572
3 521 573 579
3 580 573 578
3 579 573 580
3 579 524 521
3 524 579 525
3 522 581 575
3 522 526 581
3 576 581 582
3 576 575 581
3 583 580 584
3 583 579 580
3 583 525 579
3 583 527 525
3 526 585 581
3 526 528 585
3 582 585 586
3 582 581 585
3 587 584 588
3 587 583 584
3 587 527 583
3 587 529 527
3 528 589 585
3 528 530 589
3 586 589 590
3 586 585 589
3 591 588 592
3 591 587 588
3 591 529 587
3 591 531 529
3 532 593 589
3 530 532 589
3 590 593 594
3 590 589 593
3 595 592 596
3 595 591 592
3 595 531 591
3 595 533 531
3 534 597 593
3 532 534 593
3 594 597 598
3 594 593 597
3 599 596 600
3 599 595 596
3 599 533 595
3 599 535 533
3 534 601 597
3 534 536 601
3 602 597 601
3 602 598 597
3 603 599 600
3 604 603 600
3 603 535 599
3 603 537 535
3 536 539 601
3 606 540 605
3 606 602 540
3 602 601 539
3 540 602 539
3 605 607 606
3 608 609 610
3 608 543 609
3 604 542 603
3 609 543 542
3 609 542 604
3 542 537 603
3 540 545 605
3 605 546 607
3 612 607 611
3 605 545 546
3 607 546 611
3 612 613 614
3 612 611 613
3 614 615 616
3 614 613 615
3 616 617 618
3 616 615 617
3 618 619 620
3 618 617 619
3 620 621 622
3 620 619 621
3 622 623 624
3 622 621 623
3 610 548 608
3 624 623 548
3 624 548 610
3 548 623 549
3 548 547 608
3 546 550 611
3 611 550 613
3 613 550 551
3 551 552 615
3 613 551 615
3 552 553 617
3 615 552 617
3 553 554 619
3 617 553 619
3 554 555 621
3 619 554 621
3 621 555 623
3 623 555 556
3 556 549 623
3 565 625 626
3 567 566 626
3 626 566 565
3 567 626 627
3 568 567 627
3 568 627 628
3 569 568 628
3 569 628 629
3 570 569 629
3 570 629 630
3 571 570 630
3 572 571 631
3 631 571 630
3 572 631 578
3 576 632 577
3 625 632 633
3 565 577 632
3 565 632 625
3 625 633 634
3 626 625 634
3 626 634 627
3 627 634 635
3 627 635 628
3 628 635 636
3 628 636 629
3 629 636 637
3 629 637 630
3 630 637 638
3 631 638 639
3 631 630 638
3 640 578 639
3 578 573 572
3 578 631 639
3 578 640 580
3 576 641 632
3 576 582 641
3 633 641 642
3 633 632 641
3 633 642 643
3 634 633 643
3 634 643 644
3 635 634 644
3 635 644 645
3 636 635 645
3 636 645 646
3 637 636 646
3 637 646 647
3 638 637 647
3 638 647 648
3 639 638 648
3 640 648 649
3 640 639 648
3 584 580 640
3 649 584 640
3 582 650 641
3 582 586 650
3 642 650 651
3 642 641 650
3 642 651 652
3 643 642 652
3 643 652 653
3 644 643 653
3 644 653 645
3 645 653 654
3 645 654 646
3 646 654 655
3 646 655 647
3 647 655 656
3 647 656 648
3 648 656 657
3 648 657 649
3 649 657 658
3 588 584 649
3 658 588 649
3 586 659 650
3 586 590 659
3 650 659 651
3 651 659 660
3 651 660 661
3 652 651 661
3 652 661 662
3 653 652 662
3 653 662 654
3 654 662 663
3 654 663 664
3 655 654 664
3 655 664 665
3 656 655 665
3 656 665 666
3 657 656 666
3 657 666 658
3 658 666 667
3 592 588 658
3 667 592 658
3 590 668 659
3 590 594 668
3 660 668 669
3 660 659 668
3 660 669 670
3 661 660 670
3 661 670 671
3 662 661 671
3 662 671 663
3 663 671 672
3 663 672 664
3 664 672 673
3 664 673 665
3 665 673 674
3 665 674 666
3 666 674 675
3 666 675 667
3 667 675 676
3 596 592 667
3 676 596 667
3 594 677 668
3 594 598 677
3 668 677 669
3 669 677 678
3 669 678 679
3 670 669 679
3 670 679 680
3 671 670 680
3 671 680 681
3 672 671 681
3 672 681 682
3 673 672 682
3 673 682 683
3 674 673 683
3 674 683 684
3 675 674 684
3 676 684 685
3 676 675 684
3 600 596 676
3 685 600 676
3 598 686 677
3 598 602 606
3 678 686 687
3 678 677 686
3 678 687 679
3 679 687 688
3 679 688 680
3 680 688 689
3 680 689 681
3 681 689 690
3 681 690 682
3 682 690 691
3 683 691 692
3 683 682 691
3 684 692 693
3 684 683 692
3 685 693 694
3 685 684 693
3 694 604 685
3 685 604 600
3 598 606 686
3 606 607 695
3 686 606 695
3 686 695 687
3 688 687 696
3 696 687 695
3 688 696 697
3 689 688 697
3 689 697 698
3 690 689 698
3 690 698 699
3 691 690 699
3 691 699 700
3 692 691 700
3 692 700 701
3 693 692 701
3 610 609 694
3 701 610 694
3 701 694 693
3 609 604 694
3 607 612 695
3 695 612 696
3 696 612 614
3 614 616 697
3 696 614 697
3 616 618 698
3 697 616 698
3 618 620 699
3 698 618 699
3 620 622 700
3 699 620 700
3 622 624 701
3 700 622 701
3 624 610 701
