OFF
702 1400 0
-0.25785752670323 -0.329600773665525 2.17007516656917
-0.303257073981352 -0.315953534272615 2.15216967864244
-0.275042408052067 -0.335323315378585 2.12476332079603
-0.210980648394407 -0.336103499652557 2.1748788793788
-0.229090545872386 -0.345960949954057 2.13010520191212
-0.164166715642704 -0.340658606108332 2.17812116815304
-0.182693782169266 -0.350093073916936 2.13232602370421
-0.118787852332556 -0.344566550417744 2.18256213572254
-0.137361334341245 -0.354018535280841 2.13424616744889
-0.0738954824043381 -0.348280126747378 2.18735845421406
-0.0926029990790651 -0.357534207365267 2.13896208309202
-0.026404205293334 -0.351217776240995 2.19506416662879
-0.0468264188873644 -0.360692639187797 2.14753108667325
0.0216732655618107 -0.346667891438231 2.20349953653498
0.000474836949746232 -0.362156242657126 2.15662567281649
0.0469565195999688 -0.353159641979814 2.16547989464887
-0.325983308608111 -0.287430228543056 2.1803553039672
-0.355680128132791 -0.270133123792937 2.15284918574994
-0.334374548995733 -0.300093475538626 2.12443883675685
-0.28555527726387 -0.303312946406254 2.20015292384705
-0.238870350653699 -0.31222292962942 2.212244808248
-0.191169993670432 -0.317408429390538 2.21616929813795
-0.144404080607872 -0.321217510066301 2.22162342362519
-0.0991912336254498 -0.324480815228127 2.22752332914688
-0.0548880406546474 -0.329735748810803 2.2301767259573
-0.0062537934980814 -0.330405269012197 2.23752897834782
0.0675884591737829 -0.330391920492172 2.20924804063067
0.0388957351913484 -0.318154736959032 2.24536191352799
0.084957709017119 -0.297889586039151 2.24313664557368
-0.313169385361992 -0.266547845765669 2.22193597362969
-0.353273349727926 -0.246176082364713 2.19384768925576
-0.267216190496072 -0.279894691977934 2.23958332538006
-0.217277481425482 -0.286123190780598 2.24775203415367
-0.169681365789913 -0.290332535406806 2.25307091742212
-0.122069873062157 -0.292639889008552 2.2603553160652
-0.0773732686845833 -0.295253413460363 2.26673118440249
-0.0351094454610559 -0.304497783184144 2.26577585203078
0.00619132657077275 -0.296136093255872 2.276497919281
0.0518197643858178 -0.282614477343845 2.27799354747215
0.09660348863528 -0.260207489583607 2.27153888157369
-0.331536726400008 -0.229332426032119 2.24253792999915
-0.364666268167337 -0.207926836308663 2.21598004183239
-0.290590111552173 -0.244147914610601 2.26379138187605
-0.241586224895259 -0.254638589198146 2.2751063962028
-0.192834698132623 -0.256672710846436 2.28308534340353
-0.145384714851606 -0.261307291554632 2.28793681506587
-0.0939047464239243 -0.262004179849129 2.29766637674098
-0.039038790520098 -0.271249350959338 2.29926718213275
0.0113664308068046 -0.263816465577594 2.3086746170588
0.0618164616143059 -0.248172914341619 2.30743861817143
0.106535433540253 -0.221977001031967 2.29960342291161
-0.315759308895896 -0.205150049101156 2.28509886205978
-0.356192412433195 -0.187404523040965 2.25392340521968
-0.266527392181376 -0.222230302522785 2.30010656200572
-0.219138045203183 -0.224392588761845 2.31103817818087
-0.173609880080816 -0.225302445526403 2.31934050937509
-0.129652399192476 -0.233023295715199 2.32029991195656
-0.0962009082726633 -0.220994015606501 2.33949470688404
-0.0613020264485643 -0.240182342811537 2.32678904529167
-0.0190156684514298 -0.236574966352825 2.33771459408444
0.0288729487916456 -0.229928461133012 2.33914373225453
0.0768957971462274 -0.211012643172796 2.33504547240322
-0.319093136062901 -0.164622326228644 2.32526217568291
-0.347054373285347 -0.166897792030353 2.29034386986239
-0.286142747457279 -0.190884695280578 2.32272103863061
-0.239101598148608 -0.193129858629316 2.33922159714408
-0.194381129809739 -0.191782359549828 2.34969563837863
-0.14547103082504 -0.196629004126426 2.35462369363959
-0.100081552934428 -0.19072429349264 2.36992603447846
-0.0526341221831464 -0.203980111431788 2.36588481970237
-0.00462192846628502 -0.203676162822973 2.3713740825616
0.0431414189620184 -0.19625532819412 2.36801219115134
0.0905800279499831 -0.173987740266096 2.36101007688815
-0.308608512665818 -0.140129083125916 2.36055868383218
-0.352669106164411 -0.127516471643955 2.32530297129993
-0.269886503892873 -0.164496992347808 2.35885729888408
-0.223971523472217 -0.158143736831096 2.37838107450024
-0.173937086860792 -0.162530601605004 2.38401253962334
-0.128157284436292 -0.16218697480418 2.39365927091407
-0.0766320654605008 -0.166087853546367 2.40009347106137
-0.0316811348270925 -0.172513047076544 2.40222715104916
0.0146861525331765 -0.169517731358431 2.40355620620192
0.0586262034838105 -0.16216395945946 2.39464652959086
0.0949755910647296 -0.136397163054355 2.39364671885378
-0.303966985657314 -0.100352815152781 2.39636414129552
-0.337737915379672 -0.109153677326023 2.36314043402653
-0.270476225317007 -0.130499196586563 2.39197915061399
-0.235949788864906 -0.118557881395635 2.40986594964093
-0.193202428137627 -0.127058355919712 2.41162362103153
-0.148095489400108 -0.127209150827071 2.4194872924149
-0.100893830439267 -0.13053747113513 2.42553420115172
-0.052289603060287 -0.134645045013764 2.43130365231487
-0.00400203520657716 -0.137709302624171 2.43313747266333
0.047588820481308 -0.131945372319371 2.42564290190623
0.0949228186320207 -0.100714759548068 2.41799471780821
-0.345208574638759 -0.0698936919550304 2.38005810694287
-0.266838492649575 -0.0809241738058848 2.42235204448889
-0.31038350271467 -0.0564618487144474 2.41136050435333
-0.217389636261977 -0.0815074319702415 2.43174354984599
-0.17135692096001 -0.0862632540745268 2.43698529192667
-0.124690775770815 -0.0872686870967917 2.44374651198069
-0.078893578945613 -0.0918931109225688 2.44901230690959
-0.0322261244302921 -0.096423679480404 2.4541627036519
0.0144465638054552 -0.0980987209154423 2.45224525924863
0.0588044744529028 -0.0918407013242376 2.44217154777822
0.0404885280740868 -0.0529690937063195 2.45870372230086
-0.28356062030816 -0.0294386308022987 2.42937272018257
-0.24112989339124 -0.0385631891219604 2.43946048295599
-0.192107190955669 -0.0404498476814945 2.44583228100624
-0.146360139170365 -0.0416081528489801 2.45182064698468
-0.100082543576976 -0.0430847694927799 2.45781510162059
-0.0555183480244073 -0.0498374318120792 2.46293019891721
-0.00781024149988374 -0.0542329711575272 2.46604038696737
-0.252972636778002 -0.343096512801448 2.08558121152744
-0.276670449265194 -0.329155774310351 2.05004114863154
-0.253029997725315 -0.322402821405229 2.01255426800576
-0.203357526371111 -0.349609842860268 2.08637361600552
-0.224871211533295 -0.340634226645646 2.04523221482241
-0.157299826020841 -0.352521690038069 2.08587135267031
-0.176703190912998 -0.341141700416695 2.03983335421166
-0.111891522620025 -0.35563693246103 2.08856396272481
-0.13139366699148 -0.34288224501763 2.04067382104475
-0.0665818746665994 -0.359374032361527 2.09642202429688
-0.0838336894039664 -0.34666796095929 2.04698022736565
-0.0216949572588379 -0.363324436512621 2.1069660445772
-0.038139725244483 -0.351497273655799 2.05635841862363
0.0243382825163965 -0.362035976277502 2.11564896868249
0.00604483126844332 -0.355796720109875 2.06781907004248
0.0539438627620036 -0.348980531206182 2.07696765178
-0.304541634206089 -0.322761978009381 2.09322198694962
-0.342942846865369 -0.292214231103814 2.07710612143485
-0.313309829671896 -0.307922506453612 2.04478863527726
0.0916901773569026 -0.33302364847328 2.16983630397196
0.0674894722028293 -0.350398804635456 2.12505642608707
0.10717782878071 -0.329028792261069 2.12719028767245
-0.380896107377962 -0.234427589278363 2.14313030388341
-0.391067500658219 -0.221953370733423 2.09351323218997
-0.368374822757613 -0.264487977933572 2.10655397868043
0.112718353814862 -0.304794665876704 2.20349927660385
0.133425671526321 -0.303237783259835 2.15922028890411
0.150514052042744 -0.271995866295554 2.1865669148518
-0.383077274530677 -0.205799782937312 2.174609168967
-0.398789170388881 -0.189679935006235 2.12825997832445
0.126620363491245 -0.269065373965409 2.23179229568056
0.157797246819668 -0.232725692029085 2.21722938101032
-0.386818521503237 -0.167238317818425 2.20846857185564
-0.399373282993853 -0.159843436945896 2.16468723214573
0.134490936112138 -0.228764408644455 2.25986551193411
0.164256322903673 -0.190896684846617 2.24152376892749
-0.381349569652994 -0.148210760325703 2.24629257100328
-0.401647452327421 -0.119751133323471 2.20403298515783
0.1431748940505 -0.187783109981643 2.28538995066318
0.168706682885142 -0.149043959308018 2.26782347827999
-0.37353243947594 -0.130215676613359 2.28523804482221
-0.39718791627544 -0.102020645582683 2.24934847386396
0.119881249716793 -0.180991960500067 2.32456173641995
0.152525329818416 -0.142821524214576 2.31050861498398
-0.387236379277278 -0.0902441075895298 2.297411098535
-0.405342431964768 -0.0558847561850087 2.26613228416907
0.127312281970693 -0.141166822742056 2.3531490308739
0.157651487144949 -0.102952682198385 2.33629934681446
-0.371820645968065 -0.0827284572761103 2.3389545575497
-0.395920594394593 -0.0447803676024609 2.31353300273967
0.130781629349798 -0.103956979154737 2.38151020510859
0.154599853979082 -0.0659825028771243 2.36790720794068
-0.374624484309927 -0.0376196082652844 2.35647523349189
-0.342622462228974 -0.0263785668101281 2.39409302369458
-0.362256520935986 0.00710746138401622 2.37441468648153
0.087742383210947 -0.0538359437107098 2.43810007427983
0.111192596214131 -0.0144827185588066 2.42401090740421
0.124571068408982 -0.0619808340411369 2.40776942128505
-0.31713826788521 0.0011256110868266 2.41339448029407
-0.264712518647129 0.0116542533002955 2.43541329225036
-0.296537767792643 0.0399301439010796 2.41794693875118
-0.215172371684747 0.00290876505960919 2.44433685293977
-0.167931739407809 0.00570033427113437 2.4496384440606
-0.121346370870842 0.00420954411771178 2.45519526194437
-0.0745474488301487 0.00265256000073408 2.46076295458033
-0.0316385347628677 -0.00817462177674771 2.46680814831785
-0.00606712169600107 0.0281945643938606 2.46096982937732
0.0190367254147919 -0.0119646343867429 2.46514702359568
0.0677974354544403 -0.0117691738009527 2.450385568871
-0.262972199661303 0.0691362892331596 2.4202477581404
-0.231472958448938 0.0454057746407215 2.43496651709702
-0.187348684741673 0.0505907476067725 2.43776848089902
-0.141273675973999 0.0504886947459011 2.44230064487138
-0.0946149909960841 0.0483616292223992 2.44757179449839
-0.0462344486384481 0.0465120381049458 2.45289098700095
0.00970552362698235 0.0652233754915319 2.44528791807135
-0.340876184958225 -0.2764933765542 2.02764033055073
-0.3244480025756 -0.263731381964818 1.98846041222892
-0.293981103082241 -0.299437126469791 2.00300530595858
-0.245115797573296 -0.300668350387788 1.97622797918422
-0.203305031789257 -0.323913113564394 2.00284701946398
-0.152744506536058 -0.319829657725735 1.99620372408184
-0.102805831842592 -0.325046958705755 2.00452880728527
-0.0507848465288608 -0.32920253062893 2.01126298763479
-0.00552206661364199 -0.334785070846427 2.02023931144058
0.0385254152030529 -0.337983829326766 2.03648192757199
0.0810076194086013 -0.3200806572445 2.03523908235602
0.0935555940302454 -0.332538181325979 2.0835635085363
0.120288512034147 -0.306826652523514 2.06513556642014
-0.370764383026928 -0.253502732345624 2.06033691765215
-0.388218188718342 -0.207380919270982 2.04611259100397
-0.364797407144466 -0.235018889527364 2.01671534542592
0.136824507928055 -0.302953703703392 2.10966292331715
0.152919020402044 -0.275102421139905 2.07763729733117
0.162798519193876 -0.270398953227599 2.1327257803219
-0.402404575390227 -0.173397181741603 2.0816776186397
0.182726506066262 -0.228350120802503 2.12898339272838
-0.40537516360757 -0.141547203110555 2.11342039680804
0.174626096432723 -0.234976073777314 2.17165836689292
-0.40640480336668 -0.118235522757241 2.15555815677546
0.180342705135581 -0.192353912648775 2.1943017299751
-0.40836585852095 -0.0780114286565642 2.1700031220735
0.183008163169883 -0.151485351709676 2.21719835571415
-0.408394166348169 -0.0689463383791063 2.21700901993673
0.183708342299704 -0.113408882416185 2.24343984693184
-0.411405864236372 -0.0207782558997075 2.234130875125
0.175832430398914 -0.0995437049541641 2.28849500075111
-0.407658270265197 -0.00844876269134519 2.28419419528709
0.176083769951583 -0.0597238495490747 2.32021863077585
-0.390927312378473 0.00124017465812735 2.33200470893452
-0.397129057901147 0.0377590643547549 2.30200094840692
0.144485434847724 -0.0207573997327682 2.39036532638853
0.168880308683077 -0.0256821333411935 2.34950467877444
-0.373485701728881 0.0448196463739937 2.34803540963393
-0.338803930277523 0.0415243407927752 2.38947201852175
-0.345521575234305 0.082259332644192 2.36057243433617
0.0438445687850289 0.0293875298038875 2.45193438025421
0.0903657788964216 0.0284202030086877 2.43044077679544
0.129327208838038 0.0252816963942088 2.39857889522615
-0.308839535488367 0.0794203931647103 2.39416899132805
-0.268207634440236 0.106033079856495 2.39674067117979
-0.215845365977447 0.0906098310332318 2.416951627
-0.166803257965956 0.0925424007464288 2.4195736134784
-0.119475666721348 0.0913461559082535 2.42389296519717
-0.0721422559692919 0.0880924705943519 2.42952977994091
-0.0261589624274014 0.0885632014448469 2.43255661599639
0.0275645048685885 0.0990516900558349 2.41970179062403
0.0611300188610411 0.0672828063639489 2.42916596519944
-0.312920196916351 -0.233080863424343 1.95220478319173
-0.281706535645539 -0.272180285924322 1.96289390248375
-0.233178137564826 -0.270152308877318 1.94270147900819
-0.196086683110656 -0.297871039838841 1.96694398781724
-0.152347017055011 -0.28641832938421 1.9573928148221
-0.112178933199253 -0.294057064338243 1.96685250729378
-0.065239398975866 -0.302770789736501 1.97777017969111
-0.0090826117995168 -0.304070973625586 1.98174130609111
0.0383750422018225 -0.313309025172334 1.99948704029144
0.0837545265040833 -0.289875510419569 1.99796786558364
0.121701399940982 -0.28461495417169 2.030096900277
-0.376211999964911 -0.183109528614584 2.00135183533316
-0.348553934139835 -0.221525692542209 1.98145657572436
0.154632566580222 -0.248350006002459 2.0392362938051
0.174791424492497 -0.239159238466942 2.08721362547102
-0.395242414581224 -0.159863901391936 2.04032669306936
0.191551876291518 -0.191045208027675 2.09987259637634
-0.400400358402431 -0.118139709429216 2.06814568256567
0.19045982169992 -0.186913372326568 2.14949199516863
-0.404292354560538 -0.0929999015091126 2.11497699752313
0.191327227424185 -0.143812664675161 2.1700707757996
-0.403229836842807 -0.0488544094989931 2.13360056743558
0.191201932024403 -0.103825780397745 2.19569725694405
-0.408157594208504 -0.0315404372352888 2.18402436468249
0.188228299446535 -0.0713236413257642 2.23967086261879
-0.406802183763493 0.0143391554502755 2.20128962583117
0.185181949034317 -0.0484960434283125 2.2782643845415
-0.408294657468179 0.0265314598579448 2.25225473587198
0.180472225374045 -0.00371073174592815 2.31211805511879
-0.393034222426359 0.0720780622869897 2.26977566565623
0.159232535328306 0.0176958417535684 2.35894185064811
-0.374364770136269 0.0807081727628447 2.31714191913234
-0.341313494235756 0.117871341183597 2.32825294425512
0.103516225239148 0.0670441968047264 2.40158755341865
0.138845880155044 0.0613615619813473 2.36564735837205
-0.307490167653144 0.11695151002033 2.36534333700738
-0.263774774728818 0.142974738652535 2.36342424242196
-0.228336230317295 0.125227754039532 2.39038434375965
-0.183409287354581 0.128772667009024 2.3895777744422
-0.139295006618017 0.129001937422317 2.39152679372717
-0.092607430956789 0.125050713692163 2.39769727708841
-0.0493116734031585 0.124697621763828 2.40017675645864
-0.00671867248016909 0.12266216755235 2.40371491862666
0.0708657194763869 0.104009002738466 2.39649014263307
-0.309217439700097 -0.199575097788761 1.9222607125905
-0.270975734604008 -0.238695786170572 1.92819569539393
-0.223993750384074 -0.236901465928706 1.90991710202279
-0.184544790413726 -0.262383174825555 1.93226787062152
-0.130638608544341 -0.25382554260262 1.92654338016369
-0.0848466927900361 -0.265905488815755 1.94063008542214
-0.0392829257358093 -0.277306756146906 1.95404113385512
0.00421491280107811 -0.26606984260406 1.94518033622458
0.0417018540719168 -0.282287875913215 1.96789951523131
0.0884614247175655 -0.256627131770506 1.9643819379291
0.125068272255117 -0.254178627040795 1.99714660919177
-0.37090859050422 -0.146666350014105 1.96989776358425
-0.346749864966739 -0.188188295889251 1.95548339779362
0.160869192085939 -0.215727698306542 2.00719341364594
0.180906007944526 -0.206076857649189 2.0533012380346
-0.39011570466368 -0.128285636369498 2.01355428151205
0.198137560901316 -0.157988746790878 2.0701883491782
-0.393371512277461 -0.0821727740611226 2.03366805021687
0.197232260018769 -0.145176898948074 2.12165519222462
-0.397786847161826 -0.0649695172166243 2.07983038864118
0.197875053249271 -0.098326867327044 2.14533081576385
-0.396800951117988 -0.0186523027348959 2.10041158891338
0.195331570452544 -0.0596096578068375 2.18965276536257
-0.401460428666033 -0.000163428037384183 2.14932844183136
0.193547222278298 -0.0273499685578829 2.22389055691158
-0.400246695548371 0.0469557964412053 2.168563111661
0.189914719811933 -0.00668398605430207 2.26561389123416
-0.401722284047413 0.0606069697985913 2.21993461471034
0.186548858115935 0.0367813342854419 2.27961194709227
-0.386371096595853 0.105779320931347 2.23725244361485
0.168294619805258 0.0466630360720894 2.32417319760768
-0.367887522033406 0.114504451422355 2.28456256628759
-0.333877994533587 0.15222060685859 2.29588310568944
0.110681558594794 0.102628993266226 2.36733432938505
0.146728909996345 0.0938486919142274 2.33205434023962
-0.300777854915553 0.151064214472249 2.33248311348883
-0.251989673134627 0.175773268435403 2.33369482457537
-0.211960092944945 0.158028215734272 2.35951992117678
-0.160938812710519 0.164182797396583 2.35600710509817
-0.108332874937198 0.157649549108096 2.36499784537861
-0.0599456599893798 0.158861429551312 2.3661958388615
-0.0138887695332662 0.156601325326622 2.37067873785736
0.0337469568128647 0.136067778728517 2.38451279111661
0.0751922520350386 0.140221153640033 2.36301743601856
-0.303295329612884 -0.166791803957651 1.89094770469126
-0.265662159865904 -0.204966456365341 1.89618315217424
-0.217647277848106 -0.205050530986914 1.87901774785989
-0.17303964856184 -0.230948306428093 1.9020489916747
-0.125667657747556 -0.216936005277146 1.89066189403103
-0.0837715625763058 -0.230979478040408 1.90648008982413
-0.0392849992179947 -0.244138248956353 1.92155853213588
0.00720516624031695 -0.230627934101252 1.91061865680867
0.0501692012404285 -0.247191855697332 1.93438693808579
0.0958386901041154 -0.222439647577145 1.93170479899459
0.131549612748791 -0.222021283998365 1.96616116954899
-0.364033900705599 -0.112365557465604 1.93637638535009
-0.341015646999498 -0.15628738887031 1.92529890664878
0.167590885014196 -0.182848211839486 1.97587375314585
0.187872560939298 -0.172250707997949 2.02192159117325
-0.383348245932837 -0.0969993246382076 1.98104378947365
0.204631528859925 -0.125183394221545 2.03971360435639
-0.386673384328859 -0.0512502833198772 1.99875088983201
0.2035599442628 -0.111113959337632 2.09165890801802
-0.39107792273906 -0.02892760911649 2.04797848441881
0.205184376224387 -0.0650191836598953 2.10695321186034
-0.390926462544337 0.0169097495312672 2.07497639546775
0.201071257727341 -0.0479208334481549 2.15061318942866
-0.394938436078515 0.0342637201510485 2.11798648850518
0.20076451372841 -0.00407458667967883 2.18008449235942
-0.393492144717911 0.079491359375656 2.13418475324154
0.196845471859628 0.021444471693773 2.22736462645994
-0.395364318072052 0.0930551203350597 2.1867866210845
0.194084874483575 0.0674605566922269 2.24455327517188
-0.379823116253145 0.13874903918418 2.20558360098112
0.174248618421722 0.0831398763992997 2.29141947412136
-0.36078023424391 0.148347714081809 2.25281227827566
-0.325172098399252 0.186049354289445 2.26585403081596
0.116518085950676 0.136957545136538 2.33490987054745
0.152552843059604 0.128721442199231 2.29970484452123
-0.290583429995355 0.184620303885887 2.30277727793737
-0.242044715143977 0.208638228667391 2.30305130853178
-0.20087959986081 0.190006770904248 2.32874829534626
-0.155869468995953 0.203325080426547 2.31792465062756
-0.118883096919607 0.18762622450746 2.33512110283323
-0.071170004200064 0.190527438769907 2.3346313213108
-0.0207958122383994 0.1908343627574 2.33681337788094
0.029101609134553 0.170880497137754 2.3536508544485
0.0769049117254862 0.173805629467774 2.33318016683788
-0.296661960086558 -0.133983584784298 1.85897637943877
-0.259665241338253 -0.171601089561359 1.86413128721745
-0.213315012392704 -0.17219743668571 1.84759708337201
-0.169304508132946 -0.198243020881721 1.8702048779281
-0.119428657187527 -0.182074048470799 1.85682780527953
-0.077539450208031 -0.195334310745216 1.8718782414208
-0.0357484731505958 -0.209965691135026 1.88826733808516
0.0106849151480712 -0.195494879622134 1.87638372099003
0.053974382799098 -0.213924228091167 1.90123384013457
0.0994550872551079 -0.19035751005638 1.89866786775476
0.138166749826376 -0.189390567674488 1.93477237519356
-0.35862541738175 -0.0772769866459225 1.90554552323163
-0.334437416481236 -0.124022144246968 1.89369820968424
0.173955240359429 -0.150139012446719 1.94399681249711
0.194464148753167 -0.139031362458603 1.98995934334821
-0.376988083761532 -0.0618126022796582 1.94893636374662
0.210937901196822 -0.0929157673978527 2.00689834679051
-0.379345626088623 -0.0131601241597535 1.96317556523294
0.210427657514684 -0.0776133089141055 2.05695647182269
-0.384130418549447 -0.00457474425064709 2.00700870374621
0.211461341373589 -0.0284175142299572 2.07892247400959
-0.385362372691846 0.0271273596629967 2.03644855016971
0.206844630704834 -0.0117843053856078 2.12635994657234
-0.387594363074866 0.0679050036896838 2.07953994577908
0.207728752300153 0.0330955163723278 2.14687039291026
-0.387163842552331 0.111532348567294 2.10293337177891
0.203235537415226 0.0495554247389046 2.1932019641502
-0.389004917786822 0.125368760618448 2.15546873180939
0.201050723714467 0.0981644664423381 2.21135821747424
-0.372419356056309 0.172451640363092 2.17665170709698
0.181612098473597 0.11520173738301 2.25808397363334
-0.353056450562364 0.181943599164797 2.22283492628901
-0.317697283116536 0.219182934839707 2.23498482443794
0.121662576937657 0.170556169362139 2.30368884026926
0.159274113719084 0.161508525564755 2.26753722441802
-0.282162815412785 0.217651501433263 2.27219719161248
-0.235453137966132 0.242146657692083 2.27056057538207
-0.193675428932973 0.225400054991791 2.29444257699289
-0.14298025189324 0.237843020761931 2.28475514189617
-0.103700877821242 0.220751504157569 2.30342911366639
-0.0554083784859204 0.223431901017246 2.3031838350033
-0.00733140017452803 0.224255242603224 2.30474672817902
0.0327524026240432 0.202342931508308 2.32366428546544
0.0843996478651662 0.204984854231398 2.30220900645703
-0.297523362034995 -0.0987696831976765 1.83239095732945
-0.252855059070942 -0.137432951739096 1.83095555982158
-0.204939948734833 -0.140285783201499 1.81625509468861
-0.163845369721189 -0.167077700617384 1.8399530565181
-0.113841296794522 -0.148745921716449 1.82451621101548
-0.0703501228652744 -0.15944701889312 1.83708793561759
-0.0306493198999184 -0.173636971665821 1.85294036206323
0.0130013163638562 -0.159922073509334 1.84167198159731
0.0571434017297269 -0.180968852597223 1.8682779469731
0.103942283445529 -0.157834818658727 1.8658165794908
0.140884557533871 -0.159512135386984 1.90184127994445
-0.352843685209915 -0.041587583651509 1.87455878297074
-0.331304791847617 -0.089435545011716 1.86532690784162
0.17486466957943 -0.123137848627023 1.90859759277582
0.200772076315117 -0.105875531596767 1.95681567572173
-0.370450471305137 -0.0253975552784471 1.9159198181328
0.218257513350146 -0.056219667084272 1.98513541461902
-0.372696542174451 0.0235043224096107 1.93582237860205
0.216622197725482 -0.0409308814900731 2.02964481482687
-0.377975322989962 0.0395912108610888 1.98461797750248
0.217990725886361 0.00687403805178462 2.04686903426548
-0.381471154523275 0.0684492230154892 2.03054833693267
0.21345030387822 0.0224866812069616 2.09424701132969
-0.380341983196904 0.111962269593798 2.04823881142008
0.214494351471246 0.0676862631907856 2.11323258978048
-0.38142579461272 0.148500770891075 2.07954517521027
0.209912832942575 0.0844790752091635 2.16091322759592
-0.382200961198157 0.159244406386556 2.12870154649727
0.207380849934171 0.13136323279286 2.17984635429788
-0.365703334914462 0.205655909715797 2.14530794456318
0.188385351166598 0.14726553426911 2.22599303166829
-0.345768060925476 0.215556616059223 2.19178030343257
-0.311207350955231 0.252190055959787 2.20297319114774
0.128805796708691 0.203413725875502 2.27120619559131
0.165975353304509 0.194354674786753 2.23528891366684
-0.275959446791531 0.2505285963142 2.24012079324953
-0.229518128025923 0.275212295857395 2.23824825108111
-0.186079119980492 0.258992917332308 2.26191864630994
-0.137328748906982 0.27017580335383 2.25334162320021
-0.0898848093053139 0.255650647087851 2.26993241991171
-0.0398786171561414 0.256209179458508 2.27184969853803
0.00662510827054122 0.256299685456514 2.27405273260587
0.0454812495355381 0.233321026225189 2.29217887987784
0.0918245624827661 0.2378795956439 2.26978728219188
-0.260129234211578 -0.100778216586199 1.80706580082543
-0.218582798782892 -0.105390581755419 1.79379344460222
-0.172131154737714 -0.103318999608299 1.78762299535538
-0.157567084609653 -0.136075067434641 1.81081964674865
-0.120057922062279 -0.109360693064287 1.79497379047658
-0.0734330918260827 -0.121081800147519 1.80566089444301
-0.0266844050074475 -0.13206758795124 1.81638466043564
0.0213127326353386 -0.121788364258901 1.81345637725564
0.0604950940945587 -0.148671893482301 1.83749334542913
0.105108247402855 -0.122864572725802 1.83636372413787
0.145341821800789 -0.125535321975573 1.86946496036268
-0.340153399053495 -0.00588621406654158 1.84771919072299
-0.323775148639492 -0.0534106752905348 1.83548845547341
0.194171687984338 -0.0857975867779786 1.90982295450092
0.21193649890972 -0.0616435303792481 1.9422134960412
-0.360391190456166 0.0123583663559069 1.88629095269144
0.217687576210298 -0.0178563354654878 1.95101087135814
-0.357240264947381 0.0575998995711246 1.90545793825971
0.22045332291162 -0.00414109406087111 1.99581302246048
-0.366992164908283 0.0732138609730232 1.94966624644373
0.217194146734523 0.040258296341794 2.01271153368244
-0.37396796742916 0.092606669309036 1.99464960872393
0.217345797900417 0.0576129662258752 2.05961005041952
-0.367682353361059 0.138758820689469 2.00752400959327
0.214460503529703 0.1010555239996 2.07978851556112
-0.370652137724124 0.167586739310985 2.04213887196174
0.214247087548103 0.11861628959984 2.12637444225741
-0.374631091383344 0.191475311033063 2.09571845983676
0.208526969417559 0.161225875690842 2.14669312660769
-0.356611986194671 0.23308421421357 2.10889652321173
0.193013547444602 0.180141214557431 2.19397603101564
-0.339268569608541 0.247037661069047 2.15782192071621
-0.303520652004361 0.279958904044671 2.16835940243172
0.134219358153783 0.236228703753948 2.23732426819162
0.166199200121513 0.226391972949679 2.20087428809831
-0.268238979428134 0.282647591759817 2.20739119763248
-0.219451788363689 0.304629382592024 2.20113894229138
-0.182384781758711 0.291588897426877 2.22704532268317
-0.140473601921744 0.299381530953258 2.21617095997094
-0.0964759866149606 0.289951771123596 2.23090636857984
-0.0518771184372475 0.285653013365835 2.23771586848858
-0.00181812089757485 0.284782700174944 2.23962140181886
0.0499159006045033 0.26747602166412 2.25757360856749
0.0953708294994324 0.267067701152929 2.23514039117637
-0.285211699957746 -0.0600521429877947 1.80347083832914
-0.239750448628183 -0.0624963275376604 1.78140893164734
-0.192056706255374 -0.0647438554962294 1.77207294206125
-0.140238725349382 -0.0689410949733234 1.77546738304588
-0.0898029363020718 -0.0755548264388181 1.78262491958282
-0.0437734219818964 -0.0854518001457271 1.79058133308977
0.000324345399605436 -0.0851304802903365 1.79472779115871
0.047421523286218 -0.0751312407844899 1.79647605556133
0.0675652845392316 -0.109514379816751 1.81362605133013
0.0998342020661219 -0.0742267437444333 1.81119023461486
0.136115007218502 -0.0904876071067075 1.83876906486939
-0.304909511813091 -0.017670412258531 1.80984849875469
-0.279386094440143 0.0232257744485702 1.7941590824359
-0.262292898581142 -0.0206727064821224 1.78276256413848
0.146620286573403 -0.0497191168907181 1.83430098528368
0.172402905817747 -0.0818496216497453 1.87102346473199
0.1760745917402 -0.0348406017317414 1.86178371009046
-0.336765157608627 0.0487625884493335 1.85702082888474
-0.3170049734536 0.0247380581099101 1.82414049839477
0.20005980841146 -0.0392324143372603 1.89986590737831
0.205586532924385 0.00363229609585543 1.91491845233401
-0.333365868073864 0.0876471135622054 1.88162963311016
0.211447536650599 0.0315181460224401 1.95699288716317
-0.343251875231043 0.109473850784153 1.92001622867075
0.206585583384644 0.0700799424041045 1.9827718928899
-0.355808473195368 0.122102186695588 1.9591160710831
0.209169863851791 0.0929228134321315 2.0239875468901
-0.344570266433223 0.161975812965095 1.97105463594203
0.204446588583151 0.131339372459194 2.04945491256182
-0.348364624222429 0.192019924514694 2.00620598635937
0.206828189892903 0.153990318791147 2.09046335152831
-0.361943515666435 0.209772012505393 2.05804173394849
0.19942530026552 0.190924056780922 2.11529771272942
-0.327989442163999 0.270398056793738 2.11918858049464
-0.3398488869909 0.252683513053864 2.071358077492
-0.308756681675379 0.285744894029351 2.07617818398576
0.189903590392265 0.208320613787059 2.15879300868682
0.176901242489027 0.232295560830343 2.11410433266845
0.163574985510527 0.247123134869023 2.15869907432114
-0.260168450487385 0.305976292450512 2.16951092584491
-0.293865852691809 0.297893645579768 2.12842252980374
-0.251875312835388 0.319350255370482 2.12650884360811
0.130847708615048 0.265416681412632 2.19698040653233
0.0988386668337983 0.296091810987266 2.15958180101253
0.0863292694393688 0.290868325116097 2.19865803943414
-0.212816738093444 0.322673587628207 2.16031265274011
-0.16895352950214 0.317658842988571 2.18046348402011
-0.116067699823231 0.315093271001779 2.18317172007962
-0.07166734431167 0.310296240673331 2.19235510755238
-0.0278963218759222 0.306981066150672 2.19771047148153
0.0148379438166801 0.305849190047576 2.19733744842421
0.047842886707062 0.29222322197908 2.22133155578412
-0.213406627506059 -0.0220737168390196 1.76700340958142
-0.16214017826782 -0.0264618871993484 1.7645220429435
-0.11142426622425 -0.0305923576996199 1.77066177592102
-0.0636099860596595 -0.0354868800658352 1.77672601595161
-0.018827926625501 -0.0391057227008831 1.78230598367717
0.0252614284960023 -0.0350204473618772 1.78711421311996
0.0738324644276452 -0.0335940334119836 1.79502787300465
-0.235109258570525 0.0197450780643544 1.77370946488311
-0.20764299362244 0.0571980009033893 1.77633768987631
-0.183689158193633 0.0170926836277669 1.76470428515235
-0.13293010493249 0.0135620992591723 1.76825204022403
-0.085291673951183 0.0124218752776497 1.77446507441927
-0.0380702868459997 0.00893860319529449 1.78034288629638
0.0066901016410618 0.0103945766335987 1.78658007330931
0.0535949525591604 0.00960422579654306 1.79293353212364
0.101697214391353 0.0111334872737988 1.80771615191721
0.148628708581189 0.00310170035990968 1.83570531110571
0.117312798083733 -0.029232960201901 1.81241789001475
-0.297238487422885 0.0643516208877661 1.82046495557195
-0.26501467904449 0.102696444189237 1.82134549550375
-0.254561713654023 0.0634775051923654 1.79300945653382
0.12487954040489 0.0455299264263434 1.8307990406495
0.182412520390772 0.00752108010498058 1.87326385710105
0.160841124957161 0.0473810537395113 1.86278754640017
-0.304978940476628 0.0965578019094271 1.85014973706891
-0.271456751255434 0.135024522291716 1.85607922632595
0.190994181878382 0.0448711260323276 1.9064085848015
0.163401660176173 0.0836237661464641 1.89547146510309
-0.309520424759356 0.130774672816131 1.88836818829164
-0.278412546004654 0.166858008429174 1.89271058617981
0.190029165836309 0.076569990599 1.93827598154523
0.161534516512109 0.117226823292996 1.92951809023605
-0.320618342791251 0.156819347243411 1.92749905783647
-0.283208026808567 0.19629137155952 1.92546689065233
0.188684807590938 0.110595549892156 1.9739240623729
0.160560227300948 0.149862950800212 1.96385160907502
-0.317371674809296 0.196313638911692 1.96092854420158
-0.281186635742124 0.231369598305479 1.95820967979003
0.188041670626304 0.140238574518197 2.00630874916874
0.159945071870189 0.181833514351459 1.99801614996191
-0.314494542083272 0.232271932524438 1.99184908348757
-0.280509747102874 0.268381038763239 1.99557935891645
0.187037960823576 0.173721556683424 2.04223021561925
0.158786009025977 0.213980871421067 2.0315513429502
-0.33819331021426 0.23305679749851 2.02815531691995
-0.308735478370846 0.269839437042048 2.03163424668286
0.185380757074984 0.203785477671234 2.07406650492209
0.155590211861229 0.243587483121419 2.06698356711277
-0.275457013570086 0.309132465625599 2.08650488045209
-0.270252555720909 0.299789808533139 2.03867071354235
-0.237749125485411 0.32202595213484 2.07209483784876
0.133281183081642 0.2767208784766 2.14984108963275
0.147076371884778 0.265028591377286 2.10833782396277
0.107308082122625 0.292771860540252 2.10768921734497
-0.213343520281397 0.330138451121333 2.11188075227611
-0.187621652162027 0.330165750866382 2.07616876787068
-0.172889998339298 0.330583800448109 2.1306133251762
-0.143759716519398 0.329035090736051 2.08981800650701
-0.130489360596631 0.326769117093333 2.1401147130705
-0.0996866587731011 0.325665499905342 2.09528171957828
-0.0837265269806702 0.323576647391907 2.14319099595922
-0.054867453803023 0.322056409608678 2.09900527595366
-0.0394784425527019 0.320080459202307 2.14952769057063
-0.0113317003927177 0.318576101418174 2.10299294643857
0.00501441254218687 0.317099712006331 2.15180162123336
0.0328295711069985 0.315478340416568 2.11116781440724
0.050616377437715 0.310479060497058 2.16712265586748
0.0704858932117539 0.30907110382048 2.1240600706002
-0.176731944482556 0.0905434216478817 1.788714865501
-0.154358198492815 0.0556404239658655 1.77460910922224
-0.10865609368095 0.0580515721504934 1.78226784418287
-0.0599654852434369 0.0538575944676841 1.78813776770714
-0.0150880010131685 0.0556755123642539 1.79571460198561
0.0302726216858238 0.0548860740195673 1.80243549429687
0.0762508736067326 0.0508903486676381 1.80997178636986
-0.221777292465783 0.0993626023496181 1.80006890944227
-0.179108779089218 0.126503511953332 1.81456035236963
-0.133170259323424 0.10069800333956 1.7998886848464
-0.082276576183587 0.0936763997324276 1.80417575951874
-0.0379936659612899 0.0970437369213134 1.81415895362185
0.00650057109620589 0.097052370460914 1.82210260763832
0.0516527083970793 0.09417928348442 1.82814015800155
0.0950079819442463 0.0844381239232481 1.8356760049383
0.12956802775733 0.0876741871498056 1.86079611563055
-0.226654943256421 0.134585347899773 1.83119491078638
-0.186729130862427 0.159717923342754 1.84817807083634
-0.140878181359683 0.142959726411624 1.83530105168149
-0.101730646230421 0.126692991698844 1.82661396326895
-0.05897895854216 0.132140816050078 1.84076549405694
-0.0153085326706011 0.132894897501983 1.85040747800013
0.0327689421754018 0.12920236991007 1.85635747652239
0.0825545295353174 0.121414986817047 1.86279427897319
0.127216771934949 0.119997222747664 1.89182190391703
-0.233476230226753 0.166642789869963 1.86592461045966
-0.188380651986941 0.191642445457431 1.88077870113277
-0.142379524898483 0.176552526424556 1.86964167351438
-0.0958365869162479 0.159898347533023 1.86191224769931
-0.0489386598026486 0.166840312578142 1.87859019357882
0.00121784284417227 0.162910067936467 1.88471701406714
0.048984477987406 0.158783026444339 1.89016794009997
0.0910226825936794 0.151003809383717 1.89811891717231
0.126101859865787 0.154386140247139 1.92751036129883
-0.236926989458582 0.197719718165839 1.89843126229304
-0.19087126763897 0.222015239023008 1.91185640139673
-0.141959184615959 0.210423018052959 1.90465846666991
-0.0994547876611209 0.192460024709363 1.89475914959026
-0.0616221359155968 0.201329198042695 1.91158494916369
-0.0169456836881476 0.195445743429575 1.91458491752749
0.0310279467042265 0.191864593350719 1.92062833113973
0.0800265502174582 0.185558511686562 1.92862354800971
0.125102017334429 0.185263031162496 1.95955896905819
-0.240114982212068 0.227940169695748 1.92999690013757
-0.197177683432367 0.252059338436777 1.94294954302405
-0.147206999811115 0.242384238869865 1.93655502867227
-0.098028124419943 0.23021854318121 1.93399085382048
-0.0465196931744821 0.230522294613362 1.94475813800448
0.00161263081616665 0.2258946674819 1.94975508751307
0.0479862743457798 0.222484018555713 1.95571040234024
0.0894212732878421 0.215405463891588 1.96480644497087
0.12434595021648 0.219097011206125 1.99500502033221
-0.2447199162297 0.260469382337054 1.96452617520425
-0.206824478557677 0.282614008816363 1.97582832773099
-0.159857502334952 0.275868612357961 1.96858707223812
-0.113294239670783 0.265785492669639 1.96757348187779
-0.0686734773489969 0.261389839564433 1.97209599098241
-0.0197309581137947 0.259265437844956 1.97983924477175
0.0290430053299649 0.255700942019325 1.98606192534333
0.0780807529426559 0.250081116512606 1.99513382472262
0.122808006213756 0.249397374333643 2.02686491530356
-0.240467329748406 0.294894011683098 2.00392881257291
-0.183894836860279 0.304849389121203 2.00454324685551
-0.135182692566017 0.298526130138884 2.00306830173873
-0.0905738089064603 0.293784121675481 2.00651787568071
-0.0457332971931082 0.289729787679441 2.01112038772668
0.000608797690994367 0.286799947955972 2.0178142932345
0.0456506118094459 0.283940436763411 2.02445963097298
0.0862816907238864 0.277258523215943 2.03452932210988
0.118037339917928 0.276302635579666 2.06790662152268
-0.215549846352307 0.31685736272561 2.03533379256317
-0.161397344211187 0.320321271343282 2.0411408465447
-0.11565855105201 0.316929245498479 2.0471211050684
-0.0706189736317457 0.312978754949656 2.05125019300978
-0.0248876092267144 0.308986278268171 2.0555303866505
0.0222216359345282 0.305911137341324 2.06285762225596
0.0691007484298803 0.300815946954309 2.07305651472369
3 0 1 2
3 0 2 4
3 3 0 4
3 3 4 6
3 5 3 6
3 5 6 8
3 7 5 8
3 7 8 10
3 9 7 10
3 9 10 12
3 11 9 12
3 13 11 14
3 14 11 12
3 13 14 15
3 16 17 18
3 16 18 1
3 0 19 1
3 19 16 1
3 0 3 20
3 19 0 20
3 3 5 21
3 20 3 21
3 5 7 22
3 21 5 22
3 7 9 23
3 22 7 23
3 9 11 24
3 23 9 24
3 24 11 25
3 25 11 13
3 13 15 26
3 27 13 26
3 25 13 27
3 27 26 28
3 17 16 30
3 30 16 29
3 29 19 31
3 29 16 19
3 31 20 32
3 31 19 20
3 32 21 33
3 32 20 21
3 21 22 33
3 33 22 34
3 22 23 34
3 34 23 35
3 23 24 35
3 35 24 36
3 24 25 36
3 36 25 37
3 37 27 38
3 37 25 27
3 38 28 39
3 38 27 28
3 30 40 41
3 30 29 40
3 29 31 42
3 40 29 42
3 31 32 43
3 42 31 43
3 32 33 44
3 43 32 44
3 33 34 45
3 44 33 45
3 34 35 46
3 45 34 46
3 35 36 47
3 46 35 47
3 36 37 47
3 47 37 48
3 37 38 48
3 48 38 49
3 49 39 50
3 49 38 39
3 40 51 52
3 41 40 52
3 51 42 53
3 51 40 42
3 42 43 53
3 53 43 54
3 43 44 54
3 54 44 55
3 44 45 55
3 55 45 56
3 45 46 56
3 56 46 57
3 46 47 58
3 57 46 58
3 47 48 59
3 58 47 59
3 48 49 60
3 59 48 60
3 49 50 61
3 60 49 61
3 51 62 63
3 52 51 63
3 51 53 64
3 62 51 64
3 53 54 65
3 64 53 65
3 54 55 66
3 65 54 66
3 55 56 67
3 66 55 67
3 56 57 67
3 67 57 68
3 57 58 69
3 68 57 69
3 58 59 69
3 69 59 70
3 59 60 70
3 70 60 71
3 71 61 72
3 71 60 61
3 62 73 74
3 63 62 74
3 62 64 75
3 73 62 75
3 64 65 75
3 75 65 76
3 65 66 76
3 76 66 77
3 66 67 77
3 77 67 78
3 67 68 78
3 78 68 79
3 79 69 80
3 79 68 69
3 80 70 81
3 80 69 70
3 81 71 82
3 81 70 71
3 82 72 83
3 82 71 72
3 74 73 85
3 85 73 84
3 84 73 86
3 86 73 75
3 75 76 86
3 86 76 87
3 76 77 88
3 87 76 88
3 77 78 89
3 88 77 89
3 78 79 90
3 89 78 90
3 79 80 91
3 90 79 91
3 80 81 92
3 91 80 92
3 81 82 93
3 92 81 93
3 93 83 94
3 93 82 83
3 84 95 85
3 84 86 96
3 97 84 96
3 95 84 97
3 96 87 98
3 96 86 87
3 87 88 98
3 98 88 99
3 88 89 99
3 99 89 100
3 89 90 100
3 100 90 101
3 101 91 102
3 101 90 91
3 102 92 103
3 102 91 92
3 92 93 103
3 105 103 104
3 103 93 104
3 93 94 104
3 96 106 97
3 96 98 107
3 106 96 107
3 98 99 108
3 107 98 108
3 99 100 109
3 108 99 109
3 100 101 110
3 109 100 110
3 101 102 111
3 110 101 111
3 111 102 112
3 112 102 103
3 103 105 112
3 117 114 115
3 116 113 117
3 117 113 114
3 116 117 119
3 118 116 119
3 118 119 121
3 120 118 121
3 120 121 123
3 122 120 123
3 122 123 125
3 124 122 125
3 124 125 127
3 126 124 127
3 126 127 128
3 129 130 131
3 114 129 131
3 114 113 129
3 113 2 129
3 129 2 1
3 4 113 116
3 4 2 113
3 6 116 118
3 6 4 116
3 8 118 120
3 8 6 118
3 10 120 122
3 10 8 120
3 12 122 124
3 12 10 122
3 14 124 126
3 14 12 124
3 133 126 128
3 15 14 126
3 15 126 133
3 132 15 133
3 132 133 134
3 135 136 137
3 137 17 135
3 137 18 17
3 18 137 130
3 129 18 130
3 18 129 1
3 15 132 26
3 139 132 134
3 139 138 132
3 138 28 26
3 132 138 26
3 138 139 140
3 136 135 142
3 142 135 141
3 17 30 135
3 135 30 141
3 143 39 28
3 138 143 28
3 143 140 144
3 143 138 140
3 141 145 146
3 142 141 146
3 41 145 141
3 30 41 141
3 147 39 143
3 147 50 39
3 147 144 148
3 147 143 144
3 145 149 150
3 146 145 150
3 52 149 145
3 41 52 145
3 151 50 147
3 151 155 50
3 151 148 152
3 151 147 148
3 149 153 154
3 150 149 154
3 63 153 149
3 52 63 149
3 155 61 50
3 155 72 61
3 155 151 156
3 156 151 152
3 154 157 158
3 154 153 157
3 74 157 153
3 63 74 153
3 159 72 155
3 159 83 72
3 159 156 160
3 159 155 156
3 158 157 162
3 162 157 161
3 74 85 161
3 157 74 161
3 163 83 159
3 163 94 83
3 163 160 164
3 163 159 160
3 161 165 162
3 165 95 166
3 165 161 95
3 161 85 95
3 165 166 167
3 95 97 166
3 105 104 168
3 170 94 163
3 170 168 94
3 169 168 170
3 94 168 104
3 163 164 170
3 166 171 167
3 173 171 172
3 172 171 106
3 171 97 106
3 171 166 97
3 172 107 174
3 172 106 107
3 174 108 175
3 174 107 108
3 175 109 176
3 175 108 109
3 176 110 177
3 176 109 110
3 177 111 178
3 177 110 111
3 178 112 180
3 178 111 112
3 181 105 168
3 181 180 105
3 179 178 180
3 180 112 105
3 168 169 181
3 172 182 173
3 182 172 183
3 183 172 174
3 174 175 184
3 183 174 184
3 175 176 185
3 184 175 185
3 176 177 186
3 185 176 186
3 177 178 187
3 186 177 187
3 187 179 188
3 187 178 179
3 179 180 229
3 189 190 191
3 114 131 191
3 115 114 191
3 115 191 192
3 115 192 193
3 117 115 193
3 119 193 194
3 119 117 193
3 119 194 121
3 121 194 195
3 121 195 123
3 123 195 196
3 123 196 125
3 125 196 197
3 127 197 198
3 127 125 197
3 128 198 199
3 200 128 199
3 128 127 198
3 200 199 201
3 202 203 204
3 131 130 189
3 190 189 204
3 189 130 202
3 189 202 204
3 131 189 191
3 128 200 133
3 134 200 205
3 206 205 201
3 134 133 200
3 205 200 201
3 205 206 207
3 136 208 203
3 202 137 136
3 202 136 203
3 137 202 130
3 134 205 139
3 139 205 207
3 140 139 207
3 211 207 209
3 136 142 208
3 208 142 210
3 211 140 207
3 211 144 140
3 146 212 210
3 142 146 210
3 148 144 213
3 213 144 211
3 150 214 212
3 146 150 212
3 215 148 213
3 215 152 148
3 154 216 150
3 150 216 214
3 219 152 217
3 217 152 215
3 158 218 216
3 154 158 216
3 219 156 152
3 219 160 156
3 158 220 218
3 158 162 220
3 221 160 219
3 221 164 160
3 162 165 222
3 223 220 222
3 220 162 222
3 165 167 222
3 169 170 224
3 225 164 221
3 224 170 164
3 224 164 225
3 222 226 223
3 167 171 227
3 226 167 227
3 226 227 228
3 226 222 167
3 171 173 227
3 180 181 229
3 181 169 230
3 231 169 224
3 230 169 231
3 230 229 181
3 224 225 271
3 227 232 228
3 232 182 233
3 232 173 182
3 227 173 232
3 182 183 234
3 233 182 234
3 183 184 234
3 234 184 235
3 184 185 235
3 235 185 236
3 185 186 236
3 236 186 237
3 186 187 237
3 237 187 238
3 238 188 239
3 238 187 188
3 188 179 229
3 240 239 188
3 240 188 229
3 229 230 240
3 191 190 242
3 242 190 241
3 192 242 243
3 192 191 242
3 192 243 244
3 193 192 244
3 194 244 245
3 194 193 244
3 194 245 246
3 195 194 246
3 195 246 247
3 196 195 247
3 196 247 248
3 197 196 248
3 197 248 249
3 198 197 249
3 199 198 249
3 250 199 249
3 201 199 251
3 251 199 250
3 204 252 253
3 204 203 252
3 190 253 241
3 190 204 253
3 206 251 254
3 206 201 251
3 207 206 255
3 255 206 254
3 203 256 252
3 203 208 256
3 257 209 255
3 255 209 207
3 210 258 208
3 208 258 256
3 211 209 259
3 259 209 257
3 212 260 210
3 210 260 258
3 213 211 259
3 261 213 259
3 214 262 260
3 212 214 260
3 215 213 261
3 263 215 261
3 216 264 214
3 214 264 262
3 217 215 263
3 265 217 263
3 218 266 264
3 216 218 264
3 219 217 265
3 267 219 265
3 218 268 266
3 218 220 268
3 221 219 267
3 269 221 267
3 223 270 268
3 220 223 268
3 225 221 269
3 271 225 269
3 223 226 272
3 270 223 272
3 272 228 273
3 272 226 228
3 274 231 275
3 274 230 231
3 275 231 271
3 271 231 224
3 273 228 276
3 276 228 232
3 276 233 277
3 276 232 233
3 233 234 278
3 277 233 278
3 234 235 279
3 278 234 279
3 235 236 280
3 279 235 280
3 236 237 281
3 280 236 281
3 237 238 282
3 281 237 282
3 238 239 283
3 282 238 283
3 327 239 284
3 284 239 240
3 240 230 274
3 284 240 274
3 241 285 286
3 242 241 286
3 242 286 243
3 243 286 287
3 243 287 288
3 244 243 288
3 245 288 289
3 245 244 288
3 245 289 246
3 246 289 290
3 246 290 247
3 247 290 291
3 247 291 248
3 248 291 292
3 248 292 293
3 249 248 293
3 249 293 250
3 250 293 294
3 250 294 295
3 251 250 295
3 252 296 297
3 253 252 297
3 241 297 285
3 241 253 297
3 254 295 298
3 254 251 295
3 254 298 299
3 255 254 299
3 256 300 252
3 252 300 296
3 257 255 299
3 301 257 299
3 258 302 300
3 256 258 300
3 259 257 303
3 303 257 301
3 260 304 258
3 258 304 302
3 261 259 303
3 305 261 303
3 262 306 304
3 260 262 304
3 263 261 305
3 307 263 305
3 264 308 262
3 262 308 306
3 265 263 307
3 309 265 307
3 266 310 308
3 264 266 308
3 267 265 309
3 311 267 309
3 266 312 310
3 266 268 312
3 269 267 311
3 313 269 311
3 270 314 312
3 268 270 312
3 271 269 315
3 315 269 313
3 270 272 316
3 314 270 316
3 316 273 317
3 316 272 273
3 318 275 319
3 318 274 275
3 275 271 315
3 319 275 315
3 273 276 320
3 317 273 320
3 276 277 320
3 320 277 321
3 277 278 322
3 321 277 322
3 322 279 323
3 322 278 279
3 279 280 323
3 323 280 324
3 280 281 324
3 324 281 325
3 281 282 325
3 325 282 326
3 282 283 326
3 326 283 327
3 283 239 327
3 327 284 328
3 284 274 318
3 328 284 318
3 285 329 330
3 286 285 330
3 286 330 287
3 287 330 331
3 287 331 332
3 288 287 332
3 288 332 289
3 289 332 333
3 289 333 334
3 290 289 334
3 290 334 335
3 291 290 335
3 291 335 292
3 292 335 336
3 292 336 337
3 293 292 337
3 293 337 294
3 294 337 338
3 294 338 339
3 295 294 339
3 296 340 341
3 297 296 341
3 285 341 329
3 285 297 341
3 298 339 342
3 298 295 339
3 298 342 343
3 299 298 343
3 300 344 296
3 296 344 340
3 301 299 343
3 345 301 343
3 302 346 344
3 300 302 344
3 303 301 347
3 347 301 345
3 304 348 302
3 302 348 346
3 305 303 347
3 349 305 347
3 306 350 348
3 304 306 348
3 307 305 351
3 351 305 349
3 308 352 306
3 306 352 350
3 309 307 353
3 353 307 351
3 310 354 352
3 308 310 352
3 311 309 355
3 355 309 353
3 312 356 310
3 310 356 354
3 313 311 355
3 357 313 355
3 314 358 356
3 312 314 356
3 315 313 359
3 359 313 357
3 314 316 360
3 358 314 360
3 360 317 361
3 360 316 317
3 362 319 363
3 362 318 319
3 319 315 359
3 363 319 359
3 317 320 364
3 361 317 364
3 320 321 364
3 364 321 365
3 321 322 366
3 365 321 366
3 322 323 366
3 366 323 367
3 323 324 368
3 367 323 368
3 324 325 369
3 368 324 369
3 325 326 370
3 369 325 370
3 326 327 371
3 370 326 371
3 327 328 371
3 371 328 372
3 328 318 362
3 372 328 362
3 329 373 374
3 330 329 374
3 330 374 331
3 331 374 375
3 331 375 376
3 332 331 376
3 332 376 333
3 333 376 377
3 333 377 378
3 334 333 378
3 334 378 379
3 335 334 379
3 335 379 336
3 336 379 380
3 336 380 381
3 337 336 381
3 337 381 338
3 338 381 382
3 338 382 383
3 339 338 383
3 340 384 385
3 341 340 385
3 329 385 373
3 329 341 385
3 342 383 386
3 342 339 383
3 342 386 387
3 343 342 387
3 344 388 340
3 340 388 384
3 345 343 387
3 389 345 387
3 346 390 388
3 344 346 388
3 347 345 391
3 391 345 389
3 348 392 346
3 346 392 390
3 349 347 391
3 393 349 391
3 350 394 348
3 348 394 392
3 351 349 395
3 395 349 393
3 352 396 350
3 350 396 394
3 353 351 395
3 397 353 395
3 354 398 396
3 352 354 396
3 355 353 399
3 399 353 397
3 356 400 354
3 354 400 398
3 357 355 399
3 401 357 399
3 358 402 400
3 356 358 400
3 359 357 403
3 403 357 401
3 358 360 404
3 402 358 404
3 404 361 405
3 404 360 361
3 406 363 407
3 406 362 363
3 363 359 403
3 407 363 403
3 361 364 408
3 405 361 408
3 364 365 408
3 408 365 409
3 365 366 410
3 409 365 410
3 366 367 410
3 410 367 411
3 367 368 412
3 411 367 412
3 368 369 412
3 412 369 413
3 369 370 413
3 413 370 414
3 370 371 415
3 414 370 415
3 371 372 415
3 415 372 416
3 372 362 406
3 416 372 406
3 373 417 418
3 374 373 418
3 374 418 375
3 375 418 419
3 375 419 420
3 376 375 420
3 376 420 377
3 377 420 421
3 377 421 422
3 378 377 422
3 378 422 423
3 379 378 423
3 380 423 424
3 380 379 423
3 380 424 425
3 381 380 425
3 382 425 426
3 382 381 425
3 382 426 427
3 383 382 427
3 384 428 429
3 385 384 429
3 373 429 417
3 373 385 429
3 386 427 430
3 386 383 427
3 386 430 431
3 387 386 431
3 384 432 428
3 384 388 432
3 389 387 431
3 433 389 431
3 390 434 432
3 388 390 432
3 435 389 433
3 435 391 389
3 390 436 434
3 390 392 436
3 393 391 435
3 437 393 435
3 394 438 436
3 392 394 436
3 395 393 439
3 439 393 437
3 396 440 438
3 394 396 438
3 397 395 439
3 441 397 439
3 398 442 440
3 396 398 440
3 399 397 443
3 443 397 441
3 400 444 398
3 398 444 442
3 401 399 443
3 445 401 443
3 402 446 444
3 400 402 444
3 403 401 447
3 447 401 445
3 402 404 448
3 446 402 448
3 448 405 449
3 448 404 405
3 450 407 451
3 450 406 407
3 407 403 447
3 451 407 447
3 405 408 452
3 449 405 452
3 408 409 452
3 452 409 453
3 409 410 454
3 453 409 454
3 410 411 454
3 454 411 455
3 411 412 456
3 455 411 456
3 412 413 456
3 456 413 457
3 457 414 458
3 457 413 414
3 414 415 459
3 458 414 459
3 415 416 459
3 459 416 460
3 416 406 450
3 460 416 450
3 418 461 462
3 418 417 461
3 419 462 463
3 419 418 462
3 419 463 464
3 420 419 464
3 420 464 421
3 421 464 465
3 421 465 466
3 422 421 466
3 422 466 467
3 423 422 467
3 424 467 468
3 424 423 467
3 424 468 469
3 425 424 469
3 426 469 470
3 426 425 469
3 427 426 471
3 471 426 470
3 429 428 473
3 473 428 472
3 417 473 505
3 417 429 473
3 430 427 471
3 520 430 471
3 431 474 475
3 431 430 474
3 428 476 472
3 428 432 476
3 433 431 475
3 477 433 475
3 434 478 476
3 432 434 476
3 479 433 477
3 479 435 433
3 434 480 478
3 434 436 480
3 437 435 479
3 481 437 479
3 438 482 436
3 436 482 480
3 439 437 483
3 483 437 481
3 440 484 482
3 438 440 482
3 441 439 483
3 485 441 483
3 442 486 440
3 440 486 484
3 443 441 487
3 487 441 485
3 444 488 442
3 442 488 486
3 445 443 487
3 489 445 487
3 444 446 488
3 488 446 490
3 491 445 489
3 491 447 445
3 490 446 492
3 492 446 448
3 492 449 493
3 492 448 449
3 494 451 495
3 494 450 451
3 451 447 491
3 495 451 491
3 449 452 496
3 493 449 496
3 496 453 497
3 496 452 453
3 453 454 498
3 497 453 498
3 498 455 499
3 498 454 455
3 455 456 500
3 499 455 500
3 456 457 501
3 500 456 501
3 457 458 502
3 501 457 502
3 458 459 503
3 502 458 503
3 503 460 504
3 503 459 460
3 504 460 494
3 494 460 450
3 461 505 506
3 462 461 506
3 507 463 462
3 507 462 506
3 465 463 508
3 508 463 507
3 464 463 465
3 465 508 509
3 465 509 466
3 466 509 510
3 466 510 467
3 467 510 511
3 467 511 468
3 468 511 512
3 468 512 513
3 469 468 513
3 469 513 470
3 515 470 514
3 470 513 514
3 470 515 471
3 472 516 473
3 518 516 517
3 518 505 516
3 461 417 505
3 505 473 516
3 505 518 506
3 515 514 519
3 474 430 520
3 521 520 519
3 520 471 515
3 520 515 519
3 474 520 524
3 476 522 472
3 516 472 523
3 472 522 523
3 516 523 517
3 520 521 524
3 477 475 524
3 524 475 474
3 525 477 524
3 478 526 522
3 476 478 522
3 527 477 525
3 527 479 477
3 478 528 526
3 478 480 528
3 481 479 527
3 529 481 527
3 482 530 480
3 480 530 528
3 483 481 531
3 531 481 529
3 484 532 530
3 482 484 530
3 485 483 531
3 533 485 531
3 486 534 484
3 484 534 532
3 535 485 533
3 535 487 485
3 486 536 534
3 486 488 536
3 537 489 535
3 535 489 487
3 490 538 539
3 536 490 539
3 488 490 536
3 538 540 539
3 541 542 543
3 541 489 537
3 542 541 537
3 541 491 489
3 490 492 538
3 545 493 544
3 538 492 493
3 538 493 545
3 540 538 545
3 544 546 545
3 547 548 549
3 543 495 541
3 547 494 495
3 547 495 543
3 608 547 543
3 495 491 541
3 493 496 544
3 544 497 550
3 546 544 550
3 544 496 497
3 550 497 551
3 551 497 498
3 498 499 551
3 551 499 552
3 499 500 552
3 552 500 553
3 500 501 553
3 553 501 554
3 554 502 555
3 554 501 502
3 502 503 556
3 555 502 556
3 503 504 556
3 549 504 547
3 556 504 549
3 504 494 547
3 506 557 507
3 507 557 558
3 508 507 558
3 508 558 559
3 509 508 559
3 509 559 560
3 510 509 560
3 510 560 561
3 511 510 561
3 511 561 562
3 512 511 562
3 514 512 563
3 563 512 562
3 513 512 514
3 517 564 518
3 518 564 557
3 566 564 565
3 557 564 566
3 557 506 518
3 558 566 567
3 558 557 566
3 559 567 568
3 559 558 567
3 560 568 569
3 560 559 568
3 561 569 570
3 561 560 569
3 562 570 571
3 562 561 570
3 563 562 571
3 572 563 571
3 574 514 563
3 572 574 563
3 573 519 574
3 574 519 514
3 519 573 521
3 522 575 523
3 577 575 576
3 577 517 575
3 564 517 577
3 575 517 523
3 564 577 565
3 573 574 572
3 521 573 579
3 580 573 578
3 579 573 580
3 579 524 521
3 524 579 525
3 522 581 575
3 522 526 581
3 576 581 582
3 576 575 581
3 583 580 584
3 583 579 580
3 583 525 579
3 583 527 525
3 526 585 581
3 526 528 585
3 582 585 586
3 582 581 585
3 587 584 588
3 587 583 584
3 587 527 583
3 587 529 527
3 528 589 585
3 528 530 589
3 586 589 590
3 586 585 589
3 591 588 592
3 591 587 588
3 591 529 587
3 591 531 529
3 532 593 589
3 530 532 589
3 590 593 594
3 590 589 593
3 595 592 596
3 595 591 592
3 595 531 591
3 595 533 531
3 534 597 593
3 532 534 593
3 594 597 598
3 594 593 597
3 599 596 600
3 599 595 596
3 599 533 595
3 599 535 533
3 534 601 597
3 534 536 601
3 602 597 601
3 602 598 597
3 603 599 600
3 604 603 600
3 603 535 599
3 603 537 535
3 536 539 601
3 606 540 605
3 606 602 540
3 602 601 539
3 540 602 539
3 605 607 606
3 608 609 610
3 608 543 609
3 604 542 603
3 609 543 542
3 609 542 604
3 542 537 603
3 540 545 605
3 605 546 607
3 612 607 611
3 605 545 546
3 607 546 611
3 612 613 614
3 612 611 613
3 614 615 616
3 614 613 615
3 616 617 618
3 616 615 617
3 618 619 620
3 618 617 619
3 620 621 622
3 620 619 621
3 622 623 624
3 622 621 623
3 610 548 608
3 624 623 548
3 624 548 610
3 548 623 549
3 548 547 608
3 546 550 611
3 611 550 613
3 613 550 551
3 551 552 615
3 613 551 615
3 552 553 617
3 615 552 617
3 553 554 619
3 617 553 619
3 554 555 621
3 619 554 621
3 621 555 623
3 623 555 556
3 556 549 623
3 565 625 626
3 567 566 626
3 626 566 565
3 567 626 627
3 568 567 627
3 568 627 628
3 569 568 628
3 569 628 629
3 570 569 629
3 570 629 630
3 571 570 630
3 572 571 631
3 631 571 630
3 572 631 578
3 576 632 577
3 625 632 633
3 565 577 632
3 565 632 625
3 625 633 634
3 626 625 634
3 626 634 627
3 627 634 635
3 627 635 628
3 628 635 636
3 628 636 629
3 629 636 637
3 629 637 630
3 630 637 638
3 631 638 639
3 631 630 638
3 640 578 639
3 578 573 572
3 578 631 639
3 578 640 580
3 576 641 632
3 576 582 641
3 633 641 642
3 633 632 641
3 633 642 643
3 634 633 643
3 634 643 644
3 635 634 644
3 635 644 645
3 636 635 645
3 636 645 646
3 637 636 646
3 637 646 647
3 638 637 647
3 638 647 648
3 639 638 648
3 640 648 649
3 640 639 648
3 584 580 640
3 649 584 640
3 582 650 641
3 582 586 650
3 642 650 651
3 642 641 650
3 642 651 652
3 643 642 652
3 643 652 653
3 644 643 653
3 644 653 645
3 645 653 654
3 645 654 646
3 646 654 655
3 646 655 647
3 647 655 656
3 647 656 648
3 648 656 657
3 648 657 649
3 649 657 658
3 588 584 649
3 658 588 649
3 586 659 650
3 586 590 659
3 650 659 651
3 651 659 660
3 651 660 661
3 652 651 661
3 652 661 662
3 653 652 662
3 653 662 654
3 654 662 663
3 654 663 664
3 655 654 664
3 655 664 665
3 656 655 665
3 656 665 666
3 657 656 666
3 657 666 658
3 658 666 667
3 592 588 658
3 667 592 658
3 590 668 659
3 590 594 668
3 660 668 669
3 660 659 668
3 660 669 670
3 661 660 670
3 661 670 671
3 662 661 671
3 662 671 663
3 663 671 672
3 663 672 664
3 664 672 673
3 664 673 665
3 665 673 674
3 665 674 666
3 666 674 675
3 666 675 667
3 667 675 676
3 596 592 667
3 676 596 667
3 594 677 668
3 594 598 677
3 668 677 669
3 669 677 678
3 669 678 679
3 670 669 679
3 670 679 680
3 671 670 680
3 671 680 681
3 672 671 681
3 672 681 682
3 673 672 682
3 673 682 683
3 674 673 683
3 674 683 684
3 675 674 684
3 676 684 685
3 676 675 684
3 600 596 676
3 685 600 676
3 598 686 677
3 598 602 606
3 678 686 687
3 678 677 686
3 678 687 679
3 679 687 688
3 679 688 680
3 680 688 689
3 680 689 681
3 681 689 690
3 681 690 682
3 682 690 691
3 683 691 692
3 683 682 691
3 684 692 693
3 684 683 692
3 685 693 694
3 685 684 693
3 694 604 685
3 685 604 600
3 598 606 686
3 606 607 695
3 686 606 695
3 686 695 687
3 688 687 696
3 696 687 695
3 688 696 697
3 689 688 697
3 689 697 698
3 690 689 698
3 690 698 699
3 691 690 699
3 691 699 700
3 692 691 700
3 692 700 701
3 693 692 701
3 610 609 694
3 701 610 694
3 701 694 693
3 609 604 694
3 607 612 695
3 695 612 696
3 696 612 614
3 614 616 697
3 696 614 697
3 616 618 698
3 697 616 698
3 618 620 699
3 698 618 699
3 620 622 700
3 699 620 700
3 622 624 701
3 700 622 701
3 624 610 701
