OFF
702 1400 0
-0.251749665313946 -0.349373103947566 2.13027130353114
-0.297313671491545 -0.33512884247332 2.11327145382296
-0.269091739267011 -0.352874143264537 2.08479354860956
-0.204811232255458 -0.35579902771288 2.13454843198096
-0.223049072857395 -0.363463295843494 2.08939912333509
-0.157955133972941 -0.360200108021177 2.13736663652624
-0.176617278096043 -0.367392256553161 2.09122062902589
-0.112533115298173 -0.364026158411989 2.14142089538773
-0.13125240523521 -0.371106527847869 2.09275670326555
-0.0675973110764763 -0.367679638288205 2.14584195654354
-0.0864522652957367 -0.374559137116851 2.09710817849119
-0.0200552101789244 -0.370690330222758 2.15319814892291
-0.0406196582420414 -0.37784621462974 2.10532195107666
0.0280274844849253 -0.366257126199616 2.16166581075792
0.00672881109617396 -0.379457515538897 2.11414173546791
0.0531886333764771 -0.370615829811925 2.12326272210249
-0.320103548720662 -0.308245504724762 2.14297663573418
-0.350030360902435 -0.289757243191015 2.11651444459102
-0.328652711927867 -0.318073688716797 2.08651655556353
-0.27948822012007 -0.32485291147962 2.16177081891793
-0.2326947118526 -0.334058798084352 2.17320336359718
-0.184945179195249 -0.339118536495709 2.17666692581162
-0.138132437212922 -0.342888617734686 2.18173258278259
-0.0928743474749093 -0.346147009022229 2.18727765063458
-0.04852689247838 -0.351233574267083 2.18948170107426
0.000141864202983372 -0.351953336805507 2.19659703198565
0.0738601058225095 -0.349990014412835 2.16806185871287
0.045244005653357 -0.339818547147581 2.20487072925763
0.0911631383204546 -0.319156736898465 2.203508215283
-0.307246998324567 -0.289442578381116 2.18552521622552
-0.347603150270586 -0.267923798441867 2.15868100770606
-0.261132426685115 -0.303369860671005 2.20228052990589
-0.211119562685731 -0.309674331310273 2.20992014694719
-0.163474620742548 -0.31383160737841 2.21482686559859
-0.115818221910565 -0.316190385314138 2.22179424681516
-0.0710785393914161 -0.318827805804838 2.22785010936652
-0.0287599591808667 -0.327726637288486 2.22625312715343
0.0125312778074462 -0.319649840074795 2.23722734465373
0.0580767768869305 -0.305916684613458 2.23923565057551
0.10268556512836 -0.282907092340749 2.23376459536879
-0.325767302647161 -0.253459682034157 2.20808661660941
-0.359149386861876 -0.230940271393011 2.18279630560189
-0.284634087143471 -0.269072647902413 2.22838752952297
-0.235514746260545 -0.279801582193367 2.23895375071161
-0.186717137741073 -0.281915538685509 2.24662429187437
-0.139217567707532 -0.286474433376342 2.25104292908812
-0.08769276999318 -0.287324612035382 2.26051972125334
-0.0327614376635154 -0.296270961929235 2.2614255005116
0.0176343591980605 -0.288992962204943 2.2710029914513
0.0679757444122618 -0.272967904589522 2.27037334064505
0.112489188060834 -0.246103950078817 2.26371872633675
-0.309964603723093 -0.231391676592107 2.25177214095702
-0.350646078290122 -0.212339116069804 2.22171109921532
-0.260558473657482 -0.248889620868158 2.26568630625904
-0.21310946578622 -0.2512925067053 2.27630439048769
-0.1675410450891 -0.252321993731425 2.28436848086623
-0.123530534244201 -0.259786401792576 2.28475533286335
-0.0900757510681006 -0.248535236431784 2.30441073257091
-0.0551077379845078 -0.266810110122817 2.29059679965655
-0.0127991331843802 -0.263485070334561 2.30152579431632
0.0350509268963894 -0.256599174725443 2.30310513624479
0.0829315960915553 -0.237175424268299 2.2997949545879
-0.313389242949331 -0.193005475135371 2.29397965059562
-0.341485057320904 -0.193670773438954 2.25910158863734
-0.280279900542195 -0.218880484619169 2.28996059043429
-0.233154580347403 -0.221654750763066 2.30613731945783
-0.188399176813214 -0.220546983032071 2.31648953116095
-0.139437826103287 -0.225311781801718 2.32096795770878
-0.0940223136582138 -0.219896637016741 2.33637378070883
-0.0465074579724713 -0.232608058705221 2.33146816567902
0.00152491439886515 -0.232264073360964 2.33677552052529
0.0492240567244901 -0.224359445584937 2.3336105340921
0.0964862006301483 -0.201443083914279 2.32757507054566
-0.302912454747105 -0.170289155047693 2.33044738268359
-0.347205464088524 -0.156177233987976 2.2960618894999
-0.264040382057729 -0.194276637068572 2.32734152609807
-0.218084139230291 -0.18862702483145 2.34698415127282
-0.167998450506782 -0.192961266163275 2.35218424417289
-0.122180772374789 -0.192806374043338 2.36165441803741
-0.0706040552320103 -0.196686530445167 2.36767526615633
-0.0256035034458651 -0.202910713010059 2.36929753535143
0.020748600764553 -0.199676174919672 2.37059516380688
0.0646011302314822 -0.191579023555613 2.36190147787169
0.10077744538623 -0.165551226560306 2.36208423835837
-0.298375842210581 -0.132375788248806 2.36823258899064
-0.332231420562541 -0.139683858784657 2.33473426793574
-0.26470880429838 -0.162031171567983 2.3621702228345
-0.230184163500111 -0.150793391264541 2.38051058470667
-0.187375228458618 -0.159085542322661 2.38165933900699
-0.142234847866361 -0.159337269151069 2.3893260633786
-0.0949869511340069 -0.162654780856752 2.39500671478943
-0.0463326517965966 -0.166726810609276 2.40036464150414
0.0019812759119241 -0.169556741420896 2.40184709284476
0.053500810870397 -0.163068627484192 2.39445454462327
0.100597244945173 -0.131168785323898 2.38823528079315
-0.339884530122878 -0.101396531669144 2.35367827370029
-0.261263089508198 -0.114059707709587 2.39503805467458
-0.305013241829287 -0.0893578580169556 2.38549185131176
-0.21177153589811 -0.114792679380954 2.40419113256066
-0.165686722681611 -0.1195022380405 2.40899890023732
-0.118986365186165 -0.120540304228158 2.4155145066855
-0.0731378148040325 -0.125121460356341 2.42035398655283
-0.0264201404232742 -0.129597107500663 2.42507960102006
0.0202537775164323 -0.130857705627317 2.42289363200825
0.0645262758311421 -0.123792187270991 2.41297944760758
0.046029077725238 -0.0859457752203717 2.4315614637018
-0.278289519173376 -0.0631166685644549 2.40476369267495
-0.235757307556486 -0.0724624052847407 2.41420060367015
-0.186696405843569 -0.0743446583031935 2.42027264547583
-0.140917444215419 -0.0755018379967222 2.42601220577304
-0.0946058574697494 -0.0769736490482123 2.43173937281504
-0.0499770707449219 -0.0836807203362972 2.43632377945128
-0.00222843255826309 -0.0879096488728276 2.43901472329174
-0.247140638438744 -0.35847440661583 2.04517636405761
-0.271081351878875 -0.342884696899306 2.01049452777503
-0.247646846736009 -0.33405493382153 1.97331121439793
-0.197481246064753 -0.364686316518069 2.04543613013022
-0.219229690034315 -0.35375243547763 2.00489638842783
-0.151408160640383 -0.3672589379353 2.04460228210911
-0.171083061214194 -0.353658023611177 1.99928776509791
-0.105969383116911 -0.370203279211593 2.04695116559305
-0.125759974097184 -0.355134968896973 1.9998580674797
-0.060602987490495 -0.374034837844244 2.05442703017931
-0.078149676886344 -0.35892019301558 2.00577292604668
-0.0156463653617203 -0.378220327830646 2.06457598142288
-0.0323853294203247 -0.363918056423151 2.01470919794097
0.0304144476335306 -0.377070624736742 2.07313122274106
0.0118751681687875 -0.368503958930454 2.02575839050685
0.0597677505980835 -0.36184536055476 2.03505558432672
-0.298807509733466 -0.338906520210381 2.05405715694102
-0.337475666229333 -0.307829448554826 2.03968606141818
-0.307880381252323 -0.321656177042735 2.00648626894215
0.097808648181014 -0.350430264233617 2.12847174255999
0.0735290763347484 -0.36564273805859 2.08295371672312
0.113086351290003 -0.344144464212235 2.08602660815327
-0.375519724215143 -0.253769560766253 2.10874485382913
-0.385985453029786 -0.238829869061866 2.05987572957715
-0.362960585274187 -0.281825158924888 2.07062152054067
0.118797331934975 -0.32382840657296 2.16345847880787
0.139303380649323 -0.31985828354197 2.11923647375107
0.15630560735374 -0.289949321480737 2.14808584723666
-0.377751670061895 -0.226813098596475 2.14166286254817
-0.393767395115345 -0.208437897537739 2.09626672637929
0.132588157169357 -0.289508165123297 2.19349640929902
0.16346497295662 -0.252259238166265 2.18069841303441
-0.381598044522576 -0.190069192096928 2.17747533835843
-0.39438890976295 -0.180518012361445 2.13418237428732
0.140317035248977 -0.250651627971555 2.22357386188739
0.169756196229089 -0.21169194574632 2.20708625276127
-0.376090335574238 -0.172974838340285 2.21620595288729
-0.39675460763684 -0.142517496908978 2.17554681837782
0.148843880964529 -0.21097918523728 2.25113769920441
0.174047237984428 -0.171217549477247 2.23548592279999
-0.368222976336298 -0.156953441136987 2.25599414187945
-0.392215611941248 -0.127110356175625 2.22169623556263
0.12567529009413 -0.206367342511872 2.29069891355327
0.158009538637944 -0.167306470318492 2.27849837960596
-0.382134220567476 -0.117753472585519 2.27026114165181
-0.400597874637392 -0.0819540853766765 2.24086291458183
0.132969949192763 -0.168015373108915 2.32126702820807
0.162987076473565 -0.128782584334095 2.3062850351578
-0.366589121909654 -0.112279907752822 2.31207476163072
-0.391044640712139 -0.0732379810234307 2.28873432396648
0.136319088830417 -0.132290178186912 2.35149050826038
0.159830962195228 -0.0935074479184579 2.33976439002793
-0.369611016769089 -0.0681512206623897 2.331903301192
-0.337521265169083 -0.0586440192057321 2.36992236920678
-0.357457285528228 -0.0243233780671219 2.35207031092
0.0931984894481559 -0.0854347877829956 2.41075343506974
0.116331299129043 -0.0452526437644412 2.39861416567904
0.1299485567267 -0.0917620842244653 2.37989832726302
-0.312133772556864 -0.031997786243119 2.39051177613769
-0.259683393516747 -0.0222629110406543 2.41283507144417
-0.2917668140037 0.00665897011762336 2.39697238260767
-0.210049453708186 -0.0311224682137811 2.42110065834265
-0.162805613721533 -0.028289744723281 2.42635159406325
-0.116188054081454 -0.029751145118196 2.4316397585926
-0.0693564699224673 -0.0312777744842162 2.43693453270851
-0.0263523996831864 -0.0421128210853757 2.44224479136565
-0.00104353841746398 -0.00532058945654563 2.43818350213648
0.0243388333556021 -0.0454718267311198 2.44019016266948
0.0730332774333373 -0.0441901532487258 2.42526521633642
-0.25838241266554 0.0359331138198419 2.4006393045859
-0.22666638839716 0.0116895474013586 2.41399313088851
-0.182565140592537 0.0170200101986238 2.41688321470081
-0.136471370246478 0.0169947231223373 2.42122153855325
-0.0897775852205542 0.0149130805992633 2.42619139915078
-0.041363594031635 0.0131176399272023 2.43121668769497
0.0144202094615983 0.0325705518161264 2.42436447725817
-0.335724187232879 -0.289573028184731 1.99108651138327
-0.31954811691215 -0.274703736251022 1.95255005347172
-0.288787228060065 -0.3109044282099 1.96511841484972
-0.240030605978194 -0.310429134607295 1.93811980149354
-0.197955331263016 -0.334730054385522 1.96334219256921
-0.147451497952986 -0.329970838872725 1.95671743689859
-0.0974445754101448 -0.33527351025112 1.96456522920261
-0.0453691590719496 -0.339420106632629 1.97087059419224
-3.28104879094709e-05 -0.345152423817368 1.97936850139107
0.0441040285698217 -0.348885859411315 1.99525044666417
0.0864630967848424 -0.330657408514349 1.99476174752139
0.0992996644510985 -0.345498009214934 2.04233138952546
0.125785178524355 -0.318694120913027 2.0251444821488
-0.365620400702568 -0.26849492643676 2.02504046490679
-0.383434989932869 -0.221821208625236 2.01327641291754
-0.359961560716002 -0.2477534502737 1.98240400742515
0.142487046858023 -0.317004220392885 2.06974623363231
0.158262052288223 -0.287435944705781 2.03913195153116
0.168347660614235 -0.285504272302116 2.09434985815047
-0.397689060592705 -0.189806740020499 2.05059818194823
0.187985327529106 -0.243185696511613 2.09269619095178
-0.40073023471773 -0.159651309809118 2.0839486060491
0.18011188660415 -0.2520509041635 2.13500565006307
-0.401730236722292 -0.138544013934091 2.12723333165566
0.185648400567822 -0.210611641559147 2.15978839918292
-0.403890821991344 -0.0991297410022589 2.14373567895991
0.18814635704367 -0.170957142729832 2.18474597009919
-0.40377587489126 -0.0924933981302005 2.19114534925458
0.188711653708435 -0.134276131692729 2.21290813434445
-0.407027245342743 -0.0452904865889138 2.21073376805785
0.180939608310377 -0.122798610389595 2.25864763406916
-0.403144598416409 -0.0355259265726897 2.26134972709782
0.181068321472269 -0.0846613863924832 2.29237608402933
-0.386271493086861 -0.0281953211763623 2.30952862512446
-0.392839768476514 0.00977514795542845 2.28146765881327
0.149519195633295 -0.0495655997065616 2.36455874339911
0.173769571462273 -0.0522193195847218 2.32340254779065
-0.369045013831441 0.0146186803494537 2.32771029687955
-0.334164575952708 0.00943078073990903 2.36878483421144
-0.341271418630146 0.0515514549105127 2.34204546481776
0.0488199961813181 -0.00332936719432437 2.4290236819844
0.0952536099820979 -0.00287789583500909 2.40732461785684
0.134097192483825 -0.00411249588623534 2.3751893629933
-0.304427474356995 0.0472357714361738 2.37530593543298
-0.263958914081025 0.0739535034751924 2.3790819699775
-0.211410922891048 0.0578638938117668 2.39826528514399
-0.162371601339257 0.059988624915662 2.40078886523509
-0.115019082324971 0.0588899739161586 2.40485341969812
-0.06764168787121 0.0556689632955167 2.41012783979463
-0.0216498336732328 0.0562924556890226 2.41299266329133
0.0319484430105724 0.0677886521203118 2.40048154539006
0.065760375330517 0.0358015259135089 2.40816615929198
-0.308376093395571 -0.242153229564849 1.91787346724963
-0.27686297208216 -0.281539809464527 1.92641368211182
-0.228436123589022 -0.27815046257923 1.90616017007777
-0.191061129375141 -0.306828878770338 1.9287977831428
-0.147438410548248 -0.294606670895049 1.91967506941261
-0.107181143658641 -0.302451500105815 1.92857013159524
-0.0601393645691488 -0.311399320847371 1.93883911295039
-0.00395874015645391 -0.312524541422782 1.94251557704737
0.0436339321613559 -0.322343502340918 1.95957450872956
0.0888530174295563 -0.298558472149081 1.95908281036611
0.126902739463795 -0.294701613587061 1.99128928209386
-0.371779681742936 -0.195200825702093 1.9697760310224
-0.343958081534113 -0.232356749449333 1.94782181722846
0.159636249561273 -0.258733963398064 2.00215124198055
0.179941109939699 -0.251886399049844 2.05045753164877
-0.390793089334172 -0.174117861834074 2.00996999036095
0.196442437940336 -0.204375187952802 2.0655078874023
-0.396102686031763 -0.133914490107535 2.03991837664012
0.195537015845093 -0.202806962268229 2.11527806185479
-0.399956659184742 -0.11124203409055 2.08799577534361
0.196212477697666 -0.160816250413789 2.1380428037651
-0.399101301900958 -0.068106122967104 2.10886087300615
0.195937247807727 -0.122201325340272 2.16569230573303
-0.40392462546842 -0.053440612503661 2.16012756891695
0.192941408369092 -0.0920233653015596 2.21129082769328
-0.402793512239811 -0.00850113981122775 2.17972419571826
0.189912658082408 -0.0712308587476984 2.25101912685029
-0.404146000953814 0.00104484749051169 2.23125445000362
0.1850573131075 -0.0282776883344743 2.28714982609106
-0.38910701943775 0.0457320715923287 2.25103418427973
0.163880433739526 -0.00944963009127674 2.33509643862026
-0.370290500298536 0.0520411374109077 2.29870727438285
-0.337434246468745 0.0888052541333126 2.31158396304468
0.108028189835993 0.0372657421451731 2.38044425189444
0.143239115727139 0.0336756790970882 2.34411965113684
-0.303446383968229 0.0862072859856167 2.34844364981966
-0.259909911375811 0.112587923581128 2.34769235409627
-0.224240970848017 0.0937170377829929 2.37356336698364
-0.179341931870441 0.097600538547949 2.37276218866472
-0.135222099681349 0.0980257419554237 2.37454561673131
-0.0884836856939908 0.0940763575957496 2.38031967735845
-0.0451762800655102 0.0938872129916015 2.38260614976129
-0.00255610760351371 0.0919588239559963 2.38586615099397
0.0751162157867736 0.0742234757395451 2.37738420405969
-0.305020304165568 -0.20712834635848 1.88967789417469
-0.266499668941082 -0.246244548366241 1.8934413621751
-0.219609432684105 -0.243197317018217 1.87509324164801
-0.179899700134185 -0.269528631741867 1.89594734900694
-0.12607547239918 -0.26032600663047 1.89045703901666
-0.0801457382115268 -0.272806139111404 1.90372224631659
-0.0344514689345288 -0.284575305887046 1.91634850679419
0.00893380423225269 -0.272605718890891 1.9079051083442
0.0466228840205348 -0.289717937758932 1.92961136769778
0.093198923002596 -0.263596670460001 1.92723301229134
0.12992969275378 -0.262589761682051 1.95993495157938
-0.366848899456023 -0.157154101285303 1.94021720501066
-0.342482742416259 -0.197716893465779 1.92359071314867
0.165522548622367 -0.224466432845383 1.97180417524941
0.185694333491641 -0.21706413097197 2.01826759319474
-0.38598720254733 -0.141171359866147 1.98483707454783
0.202685108352497 -0.169792989106531 2.03753726009288
-0.389456429389745 -0.0961763462111482 2.00730868455473
0.201917901902727 -0.159650137805513 2.08959811784368
-0.393784960369982 -0.0813988960950816 2.05431187066611
0.202357685230826 -0.114075848298945 2.11564930826938
-0.393011931234366 -0.0361953309773214 2.07724399397817
0.199753039694228 -0.0777061919070974 2.16191366549573
-0.397581111806904 -0.0202772298927233 2.12706511765836
0.19790613820749 -0.0472618886245932 2.1977721536337
-0.396591264601577 0.0257980169217764 2.14869285032947
0.194318785226813 -0.0287929192807085 2.24051724228687
-0.397934613011248 0.0367801339415447 2.20070392359098
0.190730422661264 0.0138717551200486 2.25674554710824
-0.382803320421981 0.0811046603691374 2.22026121897014
0.172604162149984 0.0213268083674603 2.30182803988488
-0.364173533151138 0.0875102548326726 2.26788387664284
-0.330361753744869 0.124822283832341 2.28099444563544
0.114814381643857 0.0746116423136704 2.34803847402457
0.150765979235545 0.0678989626920215 2.31221103437418
-0.297097626757136 0.122008421563463 2.31735509870818
-0.248466498161973 0.146949798032033 2.31964274912156
-0.208211557421918 0.128170037241495 2.34436217732418
-0.157246991243858 0.13483976533564 2.34096843154225
-0.104561459936074 0.128206620791559 2.34940274344505
-0.0561784486534867 0.129680432360397 2.35046975407697
-0.0100889655664812 0.127502406706271 2.35464795536731
0.037738443749655 0.106605419277332 2.36721874788415
0.0790629691112216 0.112136688035446 2.34580141892915
-0.299446418250127 -0.172739679114864 1.86006925410106
-0.261543465442806 -0.210879246424009 1.86318518669936
-0.213603350637293 -0.209758167437618 1.84584806919556
-0.168729470670052 -0.236505305073636 1.86733990671508
-0.12149909186648 -0.221608163787192 1.85650096813408
-0.0794448333808523 -0.236164369186079 1.87140980657339
-0.0348091250460442 -0.249781627961152 1.88561511540152
0.011544645815583 -0.235414713205252 1.87520047900343
0.0547174170961773 -0.252889480903875 1.89791495260139
0.100212913750822 -0.227725799037064 1.89632851349031
0.136068274475401 -0.228839284502843 1.93061903336721
-0.360341838603117 -0.121130052365457 1.90847741001326
-0.337086145813128 -0.164268701105154 1.8950644480074
0.171895338501323 -0.189975987435524 1.94219067082004
0.192305557951636 -0.181623566396966 1.98864190178096
-0.379563404952092 -0.108210423818757 1.9539522010442
0.208834297791268 -0.135421541538309 2.00876463577199
-0.383109947659541 -0.0634554915257952 1.9740019092784
0.207894688109721 -0.124048507261682 2.06136865737671
-0.387447806470727 -0.043723007202388 2.02432953443954
0.209284934519143 -0.0787910149529438 2.07900695261308
-0.387478457767693 0.000665885323676424 2.05364845102607
0.205248527067647 -0.0639876642234957 2.12350451644602
-0.39141818275642 0.0157586000845106 2.09750974215117
0.204783283357243 -0.0217174312165004 2.15519293852451
-0.390196539812447 0.0601024563192947 2.11600690116942
0.200901728553627 0.00131051169734882 2.20373817194101
-0.391930598629627 0.0709313659293594 2.16924377656304
0.197915741419032 0.0463625733966068 2.22328161683894
-0.376606327322163 0.115701998861617 2.19030432647847
0.178179703068873 0.0594783303575879 2.27097044608208
-0.357423284199395 0.122987908124442 2.23788836011123
-0.322005445197989 0.160207703464788 2.25271077008037
0.120287850456488 0.110600049341966 2.31739967909522
0.156223635559651 0.104426898170536 2.28167514239236
-0.287249669804656 0.157114935889509 2.28937431069681
-0.238867537691084 0.181412638284288 2.29069097066797
-0.197471879747965 0.161761880366821 2.3152323700316
-0.152596348989961 0.175921127792296 2.30492979823949
-0.115434962734148 0.159607923656019 2.32114936997719
-0.0677443072541753 0.162851028564525 2.320620411148
-0.0173642569682824 0.163383866011581 2.322615757345
0.0327339286587684 0.142926584987857 2.3382068278661
0.0804286687074972 0.147221312668629 2.31772443848322
-0.293164289106144 -0.138287499438081 1.82980163701717
-0.255901739815929 -0.175870804865732 1.83286831462107
-0.20962017835992 -0.17530494260979 1.81614180514954
-0.165344265328492 -0.202181935028725 1.8372055208651
-0.115632697834172 -0.185011901758679 1.82448026001264
-0.0735937269394223 -0.198746529022438 1.83866267112768
-0.0316383015739489 -0.213919905323013 1.85411182900257
0.014648383489111 -0.19854565343587 1.84280433348925
0.0581633704271735 -0.217936765224336 1.86650197074252
0.103478302215781 -0.193964219438885 1.86497131841153
0.14233783298953 -0.194594423411658 1.90092410641186
-0.355294489873335 -0.0844674445355961 1.87947087607841
-0.330854026247727 -0.130378188701372 1.86513925743605
0.177909512057474 -0.155629353957704 1.91201328567526
0.19854327050633 -0.146761560604638 1.95840466103018
-0.373570537360028 -0.0713777789728177 1.92367208064026
0.214789326355307 -0.101468041695059 1.97762770135006
-0.376183326605344 -0.0235385429199924 1.94040400576087
0.2143948977137 -0.0887628583496116 2.02840825085679
-0.380835248585199 -0.0172501295294895 1.98463931403292
0.215202940306678 -0.0407554494705659 2.0528711968954
-0.382146787570909 0.0128876914181043 2.01567537813615
0.210682235182747 -0.0266141830044281 2.10111929804888
-0.384458651840639 0.0513803620435859 2.06081555980079
0.211362541679601 0.0171568755846423 2.12390723551725
-0.384211378849187 0.0937493786546921 2.0864200171564
0.206961698160651 0.0311827539987164 2.17104150508871
-0.385916400783052 0.104854200551874 2.13960437332283
0.204538767861371 0.0787784142752753 2.19168234840005
-0.369546573687925 0.150896290740498 2.16311504232518
0.18519090778297 0.0932601878469973 2.23929918980731
-0.350047320450037 0.158131520267394 2.20964825307684
-0.314879271214245 0.194933806102298 2.22355720484449
0.125079231298543 0.145792997083256 2.28792791009664
0.162592956143663 0.138868651782112 2.25121005645029
-0.279175815165677 0.191730286235946 2.26050046729725
-0.232633990624806 0.216590505856822 2.25994081668426
-0.190645831231079 0.198919485174381 2.28276416380442
-0.140074842915167 0.212184359846663 2.27352874222874
-0.100605105415681 0.194419823143107 2.29114315242124
-0.0523325721260633 0.197433732174519 2.29084471791737
-0.00425568985025516 0.198498684804997 2.2922573879188
0.0360508688724614 0.17591272017565 2.30986392430999
0.0875870413020853 0.180001062506889 2.28836845775802
-0.294369184596909 -0.101760100154537 1.80506617915934
-0.249456834199256 -0.139997434144413 1.80146714302377
-0.201587866425019 -0.141768770849452 1.78644967281383
-0.160218243126189 -0.169466727523466 1.80857527161245
-0.110401393032419 -0.150030050708578 1.79390371180687
-0.0667878209844244 -0.161070769996339 1.80573598972887
-0.0269276874867387 -0.175789769634148 1.82068017746888
0.0165838959738858 -0.161220740280382 1.80995924633217
0.0609760607784437 -0.183310293969158 1.8352723916483
0.107612395256591 -0.159766370037935 1.83381872787591
0.144719454238151 -0.163045064371782 1.86956282369892
-0.349878483931636 -0.0471942913927327 1.85033809523915
-0.328068618483332 -0.0943586055674829 1.83857220855126
0.17849091326452 -0.126838670375626 1.87804634325306
0.204492661726594 -0.111904158564594 1.92698543059519
-0.367412129048842 -0.0332705350084692 1.8925465240426
0.22177629990362 -0.0636533664906088 1.95775213200432
-0.369890706733881 0.0145273858496817 1.91494665358011
0.220233049389744 -0.0506841621287402 2.0029950988066
-0.375064063672189 0.0280488024031201 1.9645255972092
0.221364575234194 -0.00381975374161031 2.02264971182206
-0.378549954965358 0.0544834388526627 2.0118929084974
0.21692654130405 0.00930589047477399 2.07078560370888
-0.377627845372152 0.0970361692534523 2.03179336043538
0.217758127576223 0.0534757407024338 2.09206651607509
-0.378814686019734 0.131908929841195 2.0649416200619
0.213272621189405 0.0677641321361923 2.14056552815461
-0.379448244951503 0.140105995690101 2.11458819234588
0.210517098445359 0.113594959328167 2.1618948701582
-0.363181672486129 0.185712283151875 2.13349419496893
0.191617245155259 0.126976035231865 2.20887327318845
-0.34311148388265 0.193344693262605 2.18033491570765
-0.308742042751365 0.229585728465225 2.1932601318283
0.131868674207524 0.180324158448495 2.25715017181467
0.168941514753213 0.17337340517198 2.22066750459087
-0.273324574090396 0.226253760898399 2.23013316321688
-0.227053341978756 0.251312594905055 2.22934866140196
-0.183408275200008 0.234190130490659 2.25198121822298
-0.134769056828996 0.246126470113956 2.24379762624547
-0.0871606643160632 0.231086792419078 2.25943128103789
-0.0371513790587444 0.231882038146984 2.26117660086084
0.00935982094602826 0.232171662151798 2.26319710105927
0.0484422892216616 0.208553216836038 2.27996329989355
0.0946581906313627 0.214568120002188 2.25765235518494
-0.257072085315868 -0.102212802555286 1.77952327408265
-0.215554004996291 -0.105857514813028 1.76586674714
-0.169143802194431 -0.103159384649571 1.75962701152771
-0.154267228627246 -0.136965976594241 1.78105033185829
-0.117001214116338 -0.109220912579275 1.76645095449902
-0.0702555523863707 -0.121162333015803 1.77633624277937
-0.023390664835634 -0.132370475355875 1.78629547317842
0.0245255266045272 -0.121632021244592 1.78370960675308
0.0639850452092469 -0.149451742762172 1.8061766252061
0.108424052456783 -0.123321273436205 1.80619908980298
0.148816197810651 -0.12741966557373 1.83895947785927
-0.337536369163727 -0.0100759514738249 1.82532018346138
-0.320901997118183 -0.0567977199346297 1.81059651528578
0.197559642832343 -0.0894818761852931 1.88111409593056
0.215306101355998 -0.06690598349296 1.91463343971907
-0.35772630924496 0.00602529900233904 1.86485914892104
0.220809930261405 -0.0235912607007589 1.92564842032799
-0.35478740164353 0.0502418761528081 1.8863150367425
0.223679106778849 -0.0121789600153424 1.97108537845876
-0.364450400890206 0.0634967563835988 1.93130619644778
0.22020382755784 0.0312701455649593 1.99025789622789
-0.371358641524005 0.0805042141764804 1.97725473623708
0.220444325796922 0.0461916498878778 2.03798597293687
-0.36531813969671 0.125974723062587 1.99246083298519
0.217363254975478 0.0885191138521297 2.06038338354498
-0.36832648840842 0.152964521335364 2.02852408069284
0.217236011203794 0.10366005250853 2.10781133296961
-0.372230240478822 0.174039940336454 2.08327675735528
0.211326226318186 0.145129407895138 2.13031716595631
-0.354425735086554 0.215036545365165 2.09850594951562
0.195893626575101 0.161484459246291 2.17857145608134
-0.336963142161908 0.226572729783406 2.14801515670395
-0.301385194071335 0.259148229182656 2.16009020625059
0.136922768128708 0.214873106748673 2.22497967708756
0.168808820412095 0.207138230231599 2.187945585104
-0.26595415782356 0.260063927932097 2.19906852925465
-0.217338386956403 0.282665391854497 2.19376188355737
-0.180076192607605 0.268559786281842 2.21881619537672
-0.138263781170549 0.277182571732514 2.20819104982995
-0.0941427466087678 0.26730365776357 2.2222475130406
-0.0494879658062101 0.262960322335803 2.22865014053541
0.000583370213488477 0.26232960254834 2.23031003172225
0.0525056708904937 0.244470986725118 2.24714322400076
0.0978653558133119 0.245521849053836 2.22453877308797
-0.282434260009891 -0.0615252390700777 1.77812714141452
-0.237053407910307 -0.0625265480227203 1.7557887712838
-0.189386659672252 -0.0639706468617965 1.74616064395016
-0.137528339507768 -0.0679885375366579 1.74912937739099
-0.087020254465086 -0.0746224026748065 1.75573738530942
-0.0408935088607587 -0.0846057702301716 1.76299179811875
0.00321866588765099 -0.0842017128116484 1.76697453908049
0.0502568674435371 -0.0739893145658448 1.76904815921372
0.0706975342773082 -0.109072464201215 1.78432708172327
0.102725372986075 -0.0734902311830416 1.78358160061311
0.139229540474456 -0.0909031406450696 1.81014361706608
-0.302379811279008 -0.0196607107702307 1.78675417443882
-0.277190785374076 0.0221585128829325 1.77308793088006
-0.259861494746637 -0.020980230579659 1.7593810311278
0.149449995516051 -0.0498891978323241 1.80773670666152
0.175598900560674 -0.0836909868470564 1.84265557136773
0.178924832993693 -0.0362455346562511 1.83583138373395
-0.334463811241213 0.0440439734481032 1.8374067621029
-0.314689366564285 0.0218747647786975 1.80325626293098
0.203101744333696 -0.0424279081204371 1.8735419605448
0.208414142470934 -0.000357487686021882 1.8907572254136
-0.331211768883604 0.0816340199796995 1.86396927949597
0.214274537672807 0.0253673845223278 1.9341866713569
-0.341074345488512 0.101391688948997 1.90346655046007
0.209272723328056 0.0625194688581564 1.96193396579734
-0.353544508843975 0.111908715868052 1.94321359900046
0.211885614819125 0.0832302714820741 2.00425938191731
-0.342514736979482 0.151190529519623 1.95714255958123
0.207022078496188 0.120254265684088 2.03168743177079
-0.346353239592763 0.179361765917879 1.99380740055294
0.209432654319508 0.1407826917882 2.07379684053994
-0.359824209986314 0.194334088324928 2.04654097778222
0.201896510428102 0.176340392928797 2.1005270799299
-0.326002582384757 0.251963473711929 2.1105900577311
-0.33795218618143 0.236651816705382 2.06195911451778
-0.307055319343355 0.269629886138235 2.06835005545572
0.19244902719592 0.191413671242096 2.14489694883287
0.179098798734939 0.217566255675641 2.10155239175259
0.165868330868639 0.22999192281649 2.14690318641094
-0.258198652641494 0.285362746896822 2.16240657891972
-0.29201921660585 0.279176709055704 2.12109068882933
-0.250177806296728 0.300985000364067 2.12011675374251
0.133187717123636 0.246073078510982 2.18620411274581
0.100819140130587 0.278414366847828 2.1505598380701
0.088512236334187 0.271105108758208 2.18936495502811
-0.2109966056077 0.302828617439086 2.15389172818583
-0.167015402614089 0.297079495294692 2.1735840137516
-0.114102835809052 0.294733528263184 2.17594714637368
-0.0696331058267834 0.28976922524262 2.18469565972305
-0.0258188021161502 0.286477338305306 2.18969995595173
0.0169199235323578 0.285653318406886 2.1890998933312
0.0501157600382684 0.271034023240164 2.21223045961266
-0.211035397759001 -0.0212407500927017 1.74337710459282
-0.15975263048197 -0.0251509715051862 1.74047021864471
-0.108984968622471 -0.0292507119034758 1.74618838967977
-0.0611142034670237 -0.0341290938534203 1.75180336759446
-0.0162859512015729 -0.0377289926421984 1.75701234412884
0.027796166688019 -0.0336001166060635 1.76184960007062
0.0763904912333037 -0.0322560477510154 1.76963364155949
-0.232980631304684 0.0200312463976124 1.75231108524698
-0.205747600783813 0.0574832621861025 1.75675329956283
-0.181583580678729 0.0181908598046142 1.74297773937632
-0.130787834244129 0.0148237309433621 1.74613806647704
-0.0831167019980865 0.0136857682906003 1.7520954318663
-0.0358487969803314 0.0102223382752705 1.75759916376033
0.00892759077469349 0.0116565008241705 1.76372558321994
0.0558634928202955 0.0108557928210692 1.76984408784602
0.104017941681237 0.0119463178259319 1.78449509095546
0.151120692882384 0.0028018942925666 1.81184793591764
0.119915944126578 -0.0285026116050739 1.78705253169445
-0.295197061657023 0.0617568243263523 1.80154473827745
-0.263219955400853 0.100221350965524 1.8042686172957
-0.252634024530695 0.0625820231202342 1.77391174273709
0.127075057425868 0.0452656891366732 1.80922450516194
0.185036313721773 0.00551162592434439 1.84944992060678
0.163161131549518 0.0457115871522882 1.84112314408748
-0.303019127735456 0.0923417187550206 1.83287712530831
-0.269722750456755 0.130677158872086 1.84064435654894
0.19351728063673 0.0411652860405686 1.88443754041014
0.165626378219084 0.0802426312358617 1.87561747171329
-0.307618690236907 0.124517416586415 1.8728225611159
-0.276727869644312 0.160538039107939 1.87889179543977
0.192483137130576 0.0711768760156151 1.91789669850443
0.163687119968906 0.112037766593891 1.91135446939082
-0.318717384796854 0.148440947235749 1.91328485791595
-0.281573795239758 0.188215740010762 1.91313733327841
0.191070789355804 0.103315134478697 1.95525267885193
0.16264821517268 0.142858524299676 1.94732470910736
-0.315583976529031 0.186185482221362 1.94868828031192
-0.279639845711436 0.221577215252466 1.94763269619749
0.190374118120654 0.131249220400893 1.98912142500353
0.161972037041049 0.173025712728772 1.98309054097826
-0.312807878127788 0.220525264999004 1.98140569338891
-0.279043030162531 0.25662242184534 1.98685354686475
0.189307115207448 0.162833866844188 2.02672117093133
0.160748109907877 0.203398154087784 2.01823911093873
-0.336354826422519 0.219283483349212 2.0177978548298
-0.307122267945065 0.256035768807721 2.02304727569676
0.187591309811366 0.191209659678462 2.06006791558308
0.157512204968995 0.231122062586361 2.05515957818644
-0.273864417459827 0.292678918759844 2.07973395585787
-0.268805129489825 0.285842741842342 2.03146233440811
-0.236303573282756 0.306549207027326 2.06585684397957
0.135344746299032 0.259801651721702 2.13969932407051
0.14903703131112 0.250351287182889 2.09759528846546
0.10908663523705 0.277823362259065 2.0985320325788
-0.211780321715783 0.312769574226444 2.10591033766603
-0.186213063023664 0.314805475194939 2.0701453902284
-0.171250332502448 0.312523198182294 2.12448059168185
-0.142286379517343 0.313269424230034 2.08354451443741
-0.128785283403815 0.308510136746818 2.13360513029844
-0.0981692294314518 0.309919653973912 2.08865302004377
-0.0819898636256977 0.305478051054491 2.13632783688275
-0.0533118833426848 0.306425173973704 2.09200841128783
-0.0376931124507084 0.301958153646788 2.1423009569703
-0.00973765141033139 0.303037101627658 2.09563927389655
0.00682756811036586 0.29916349772735 2.14424226314675
0.0344776055638962 0.299820019847069 2.10346895623494
0.0525371441792773 0.292070590710894 2.15902169671696
0.0722299422013069 0.293011701780951 2.11586530362142
-0.17500121891916 0.0903552963643454 1.77070657484921
-0.152461728899309 0.0563746928803388 1.75473578609261
-0.106743752660019 0.0586959981530421 1.76232725705776
-0.0580020803842735 0.0545330963937853 1.76778073610389
-0.0131051918547315 0.0562606381303767 1.77526317112962
0.0322881038853879 0.0554315766001808 1.78175478547654
0.0783233816159385 0.0513627738344335 1.78889335797562
-0.220053732573124 0.0982762676448465 1.78267757582794
-0.177500774859214 0.124922454851322 1.79837660201289
-0.13145886031738 0.100214544268168 1.78221519857948
-0.0805025911154734 0.0933239902017934 1.78593377407033
-0.036199987337988 0.0964711719325065 1.79590141208989
0.00832701693577456 0.0963704304723989 1.80365864011043
0.0535224518964015 0.09349424896046 1.80936148015992
0.096972214743422 0.0836701355815052 1.81621449612773
0.13161823002877 0.085842763337487 1.84133066913401
-0.225026511527322 0.131818820275825 1.81559307177546
-0.185192382597229 0.156312855838289 1.83368807006906
-0.139289185208864 0.140547247134718 1.81978460256161
-0.100074369198436 0.125012009311992 1.81011732471003
-0.0572985450400938 0.130012315320598 1.82436082222275
-0.0135928705375793 0.130563179934292 1.83385572366814
0.0345327683805124 0.126892817603527 1.8394173915013
0.0843952075569308 0.119119559763828 1.84524783676178
0.129190206452426 0.116511633362973 1.87398693477895
-0.231906766116245 0.162002015027039 1.85195236814381
-0.186911323950305 0.186507494526433 1.86789381176716
-0.140861322813383 0.172319484115414 1.85581322859141
-0.0942446875649353 0.156397788300567 1.84705310904355
-0.0473216027415905 0.162788215058811 1.86388007791821
0.00288530831506484 0.158885336013366 1.86959786833984
0.050700797138154 0.154804610491936 1.87464001141871
0.0928225508171936 0.14690961105264 1.8820137317725
0.128005107215417 0.149012227619607 1.9114010174052
-0.235419779868573 0.191342940495894 1.88602779113469
-0.189465789523034 0.215225140092325 1.90050216572423
-0.140510732813184 0.204347193298281 1.89252379414343
-0.0979333351011293 0.187202850126865 1.88154535753842
-0.0600871540499733 0.195449377716577 1.89865502344852
-0.0153608702532134 0.189719829087675 1.90117137839978
0.0326606045504046 0.186155194638576 1.90683247687356
0.0817331499882187 0.179775846759142 1.91429856754317
0.126942266522285 0.178193400007575 1.94499900670106
-0.238668510703978 0.219878680039304 1.91911836075308
-0.195833733883449 0.243588098963493 1.93312415362649
-0.145829126833916 0.234590508618207 1.9260425416066
-0.0965836177306555 0.222903449773612 1.92266120788695
-0.0450324044841032 0.222999411731426 1.93322569401317
0.00315006616245933 0.218444567968922 1.93778726947482
0.0495701142918621 0.215043982836502 1.94337549525955
0.0910890480345824 0.207785787461974 1.95193118376327
0.126118569360504 0.210154675401128 1.98214104208152
-0.243336411910291 0.250558207079025 1.95529298235369
-0.205537595583059 0.272346704009016 1.96756890251439
-0.158559311210985 0.266298220486618 1.95980426121321
-0.111936215275146 0.256593652395073 1.95808892407021
-0.0672687501676799 0.252271263200708 1.96220253532137
-0.0182805815935629 0.250080547404896 1.96963229676141
0.0305418648284201 0.246528707431009 1.97547010903764
0.0796537200757018 0.24077960837799 1.98404658979892
0.12452058311258 0.238766180337756 2.01552304936408
-0.239138428201622 0.282939603093425 1.99639686968737
-0.182629792786547 0.293230154136881 1.99729837051826
-0.133884331011949 0.287318546603024 1.99530715939262
-0.0892311067213826 0.282705342879226 1.99833149698276
-0.0443457756664388 0.278721177840817 2.00254168902527
0.00204277389933308 0.275762575642476 2.0088923765641
0.0471304156735619 0.27286796664546 2.01520333013652
0.0878470619791503 0.265950425959501 2.0247549565155
0.119751569211256 0.263493429622661 2.05791283160239
-0.214229500230344 0.303426463116209 2.02879094954355
-0.160076200872851 0.306951083495235 2.03455386953966
-0.114290997659019 0.303563548192544 2.04017047903659
-0.0692093195496683 0.299708761262177 2.04391242953953
-0.0234349521748305 0.295808925534671 2.04780038410869
0.0237243946760698 0.292677815775149 2.05477304567156
0.0706791155156042 0.287380207331955 2.06451055544891
3 0 1 2
3 0 2 4
3 3 0 4
3 3 4 6
3 5 3 6
3 5 6 8
3 7 5 8
3 7 8 10
3 9 7 10
3 9 10 12
3 11 9 12
3 13 11 14
3 14 11 12
3 13 14 15
3 16 17 18
3 16 18 1
3 0 19 1
3 19 16 1
3 0 3 20
3 19 0 20
3 3 5 21
3 20 3 21
3 5 7 22
3 21 5 22
3 7 9 23
3 22 7 23
3 9 11 24
3 23 9 24
3 24 11 25
3 25 11 13
3 13 15 26
3 27 13 26
3 25 13 27
3 27 26 28
3 17 16 30
3 30 16 29
3 29 19 31
3 29 16 19
3 31 20 32
3 31 19 20
3 32 21 33
3 32 20 21
3 21 22 33
3 33 22 34
3 22 23 34
3 34 23 35
3 23 24 35
3 35 24 36
3 24 25 36
3 36 25 37
3 37 27 38
3 37 25 27
3 38 28 39
3 38 27 28
3 30 40 41
3 30 29 40
3 29 31 42
3 40 29 42
3 31 32 43
3 42 31 43
3 32 33 44
3 43 32 44
3 33 34 45
3 44 33 45
3 34 35 46
3 45 34 46
3 35 36 47
3 46 35 47
3 36 37 47
3 47 37 48
3 37 38 48
3 48 38 49
3 49 39 50
3 49 38 39
3 40 51 52
3 41 40 52
3 51 42 53
3 51 40 42
3 42 43 53
3 53 43 54
3 43 44 54
3 54 44 55
3 44 45 55
3 55 45 56
3 45 46 56
3 56 46 57
3 46 47 58
3 57 46 58
3 47 48 59
3 58 47 59
3 48 49 60
3 59 48 60
3 49 50 61
3 60 49 61
3 51 62 63
3 52 51 63
3 51 53 64
3 62 51 64
3 53 54 65
3 64 53 65
3 54 55 66
3 65 54 66
3 55 56 67
3 66 55 67
3 56 57 67
3 67 57 68
3 57 58 69
3 68 57 69
3 58 59 69
3 69 59 70
3 59 60 70
3 70 60 71
3 71 61 72
3 71 60 61
3 62 73 74
3 63 62 74
3 62 64 75
3 73 62 75
3 64 65 75
3 75 65 76
3 65 66 76
3 76 66 77
3 66 67 77
3 77 67 78
3 67 68 78
3 78 68 79
3 79 69 80
3 79 68 69
3 80 70 81
3 80 69 70
3 81 71 82
3 81 70 71
3 82 72 83
3 82 71 72
3 74 73 85
3 85 73 84
3 84 73 86
3 86 73 75
3 75 76 86
3 86 76 87
3 76 77 88
3 87 76 88
3 77 78 89
3 88 77 89
3 78 79 90
3 89 78 90
3 79 80 91
3 90 79 91
3 80 81 92
3 91 80 92
3 81 82 93
3 92 81 93
3 93 83 94
3 93 82 83
3 84 95 85
3 84 86 96
3 97 84 96
3 95 84 97
3 96 87 98
3 96 86 87
3 87 88 98
3 98 88 99
3 88 89 99
3 99 89 100
3 89 90 100
3 100 90 101
3 101 91 102
3 101 90 91
3 102 92 103
3 102 91 92
3 92 93 103
3 105 103 104
3 103 93 104
3 93 94 104
3 96 106 97
3 96 98 107
3 106 96 107
3 98 99 108
3 107 98 108
3 99 100 109
3 108 99 109
3 100 101 110
3 109 100 110
3 101 102 111
3 110 101 111
3 111 102 112
3 112 102 103
3 103 105 112
3 117 114 115
3 116 113 117
3 117 113 114
3 116 117 119
3 118 116 119
3 118 119 121
3 120 118 121
3 120 121 123
3 122 120 123
3 122 123 125
3 124 122 125
3 124 125 127
3 126 124 127
3 126 127 128
3 129 130 131
3 114 129 131
3 114 113 129
3 113 2 129
3 129 2 1
3 4 113 116
3 4 2 113
3 6 116 118
3 6 4 116
3 8 118 120
3 8 6 118
3 10 120 122
3 10 8 120
3 12 122 124
3 12 10 122
3 14 124 126
3 14 12 124
3 133 126 128
3 15 14 126
3 15 126 133
3 132 15 133
3 132 133 134
3 135 136 137
3 137 17 135
3 137 18 17
3 18 137 130
3 129 18 130
3 18 129 1
3 15 132 26
3 139 132 134
3 139 138 132
3 138 28 26
3 132 138 26
3 138 139 140
3 136 135 142
3 142 135 141
3 17 30 135
3 135 30 141
3 143 39 28
3 138 143 28
3 143 140 144
3 143 138 140
3 141 145 146
3 142 141 146
3 41 145 141
3 30 41 141
3 147 39 143
3 147 50 39
3 147 144 148
3 147 143 144
3 145 149 150
3 146 145 150
3 52 149 145
3 41 52 145
3 151 50 147
3 151 155 50
3 151 148 152
3 151 147 148
3 149 153 154
3 150 149 154
3 63 153 149
3 52 63 149
3 155 61 50
3 155 72 61
3 155 151 156
3 156 151 152
3 154 157 158
3 154 153 157
3 74 157 153
3 63 74 153
3 159 72 155
3 159 83 72
3 159 156 160
3 159 155 156
3 158 157 162
3 162 157 161
3 74 85 161
3 157 74 161
3 163 83 159
3 163 94 83
3 163 160 164
3 163 159 160
3 161 165 162
3 165 95 166
3 165 161 95
3 161 85 95
3 165 166 167
3 95 97 166
3 105 104 168
3 170 94 163
3 170 168 94
3 169 168 170
3 94 168 104
3 163 164 170
3 166 171 167
3 173 171 172
3 172 171 106
3 171 97 106
3 171 166 97
3 172 107 174
3 172 106 107
3 174 108 175
3 174 107 108
3 175 109 176
3 175 108 109
3 176 110 177
3 176 109 110
3 177 111 178
3 177 110 111
3 178 112 180
3 178 111 112
3 181 105 168
3 181 180 105
3 179 178 180
3 180 112 105
3 168 169 181
3 172 182 173
3 182 172 183
3 183 172 174
3 174 175 184
3 183 174 184
3 175 176 185
3 184 175 185
3 176 177 186
3 185 176 186
3 177 178 187
3 186 177 187
3 187 179 188
3 187 178 179
3 179 180 229
3 189 190 191
3 114 131 191
3 115 114 191
3 115 191 192
3 115 192 193
3 117 115 193
3 119 193 194
3 119 117 193
3 119 194 121
3 121 194 195
3 121 195 123
3 123 195 196
3 123 196 125
3 125 196 197
3 127 197 198
3 127 125 197
3 128 198 199
3 200 128 199
3 128 127 198
3 200 199 201
3 202 203 204
3 131 130 189
3 190 189 204
3 189 130 202
3 189 202 204
3 131 189 191
3 128 200 133
3 134 200 205
3 206 205 201
3 134 133 200
3 205 200 201
3 205 206 207
3 136 208 203
3 202 137 136
3 202 136 203
3 137 202 130
3 134 205 139
3 139 205 207
3 140 139 207
3 211 207 209
3 136 142 208
3 208 142 210
3 211 140 207
3 211 144 140
3 146 212 210
3 142 146 210
3 148 144 213
3 213 144 211
3 150 214 212
3 146 150 212
3 215 148 213
3 215 152 148
3 154 216 150
3 150 216 214
3 219 152 217
3 217 152 215
3 158 218 216
3 154 158 216
3 219 156 152
3 219 160 156
3 158 220 218
3 158 162 220
3 221 160 219
3 221 164 160
3 162 165 222
3 223 220 222
3 220 162 222
3 165 167 222
3 169 170 224
3 225 164 221
3 224 170 164
3 224 164 225
3 222 226 223
3 167 171 227
3 226 167 227
3 226 227 228
3 226 222 167
3 171 173 227
3 180 181 229
3 181 169 230
3 231 169 224
3 230 169 231
3 230 229 181
3 224 225 271
3 227 232 228
3 232 182 233
3 232 173 182
3 227 173 232
3 182 183 234
3 233 182 234
3 183 184 234
3 234 184 235
3 184 185 235
3 235 185 236
3 185 186 236
3 236 186 237
3 186 187 237
3 237 187 238
3 238 188 239
3 238 187 188
3 188 179 229
3 240 239 188
3 240 188 229
3 229 230 240
3 191 190 242
3 242 190 241
3 192 242 243
3 192 191 242
3 192 243 244
3 193 192 244
3 194 244 245
3 194 193 244
3 194 245 246
3 195 194 246
3 195 246 247
3 196 195 247
3 196 247 248
3 197 196 248
3 197 248 249
3 198 197 249
3 199 198 249
3 250 199 249
3 201 199 251
3 251 199 250
3 204 252 253
3 204 203 252
3 190 253 241
3 190 204 253
3 206 251 254
3 206 201 251
3 207 206 255
3 255 206 254
3 203 256 252
3 203 208 256
3 257 209 255
3 255 209 207
3 210 258 208
3 208 258 256
3 211 209 259
3 259 209 257
3 212 260 210
3 210 260 258
3 213 211 259
3 261 213 259
3 214 262 260
3 212 214 260
3 215 213 261
3 263 215 261
3 216 264 214
3 214 264 262
3 217 215 263
3 265 217 263
3 218 266 264
3 216 218 264
3 219 217 265
3 267 219 265
3 218 268 266
3 218 220 268
3 221 219 267
3 269 221 267
3 223 270 268
3 220 223 268
3 225 221 269
3 271 225 269
3 223 226 272
3 270 223 272
3 272 228 273
3 272 226 228
3 274 231 275
3 274 230 231
3 275 231 271
3 271 231 224
3 273 228 276
3 276 228 232
3 276 233 277
3 276 232 233
3 233 234 278
3 277 233 278
3 234 235 279
3 278 234 279
3 235 236 280
3 279 235 280
3 236 237 281
3 280 236 281
3 237 238 282
3 281 237 282
3 238 239 283
3 282 238 283
3 327 239 284
3 284 239 240
3 240 230 274
3 284 240 274
3 241 285 286
3 242 241 286
3 242 286 243
3 243 286 287
3 243 287 288
3 244 243 288
3 245 288 289
3 245 244 288
3 245 289 246
3 246 289 290
3 246 290 247
3 247 290 291
3 247 291 248
3 248 291 292
3 248 292 293
3 249 248 293
3 249 293 250
3 250 293 294
3 250 294 295
3 251 250 295
3 252 296 297
3 253 252 297
3 241 297 285
3 241 253 297
3 254 295 298
3 254 251 295
3 254 298 299
3 255 254 299
3 256 300 252
3 252 300 296
3 257 255 299
3 301 257 299
3 258 302 300
3 256 258 300
3 259 257 303
3 303 257 301
3 260 304 258
3 258 304 302
3 261 259 303
3 305 261 303
3 262 306 304
3 260 262 304
3 263 261 305
3 307 263 305
3 264 308 262
3 262 308 306
3 265 263 307
3 309 265 307
3 266 310 308
3 264 266 308
3 267 265 309
3 311 267 309
3 266 312 310
3 266 268 312
3 269 267 311
3 313 269 311
3 270 314 312
3 268 270 312
3 271 269 315
3 315 269 313
3 270 272 316
3 314 270 316
3 316 273 317
3 316 272 273
3 318 275 319
3 318 274 275
3 275 271 315
3 319 275 315
3 273 276 320
3 317 273 320
3 276 277 320
3 320 277 321
3 277 278 322
3 321 277 322
3 322 279 323
3 322 278 279
3 279 280 323
3 323 280 324
3 280 281 324
3 324 281 325
3 281 282 325
3 325 282 326
3 282 283 326
3 326 283 327
3 283 239 327
3 327 284 328
3 284 274 318
3 328 284 318
3 285 329 330
3 286 285 330
3 286 330 287
3 287 330 331
3 287 331 332
3 288 287 332
3 288 332 289
3 289 332 333
3 289 333 334
3 290 289 334
3 290 334 335
3 291 290 335
3 291 335 292
3 292 335 336
3 292 336 337
3 293 292 337
3 293 337 294
3 294 337 338
3 294 338 339
3 295 294 339
3 296 340 341
3 297 296 341
3 285 341 329
3 285 297 341
3 298 339 342
3 298 295 339
3 298 342 343
3 299 298 343
3 300 344 296
3 296 344 340
3 301 299 343
3 345 301 343
3 302 346 344
3 300 302 344
3 303 301 347
3 347 301 345
3 304 348 302
3 302 348 346
3 305 303 347
3 349 305 347
3 306 350 348
3 304 306 348
3 307 305 351
3 351 305 349
3 308 352 306
3 306 352 350
3 309 307 353
3 353 307 351
3 310 354 352
3 308 310 352
3 311 309 355
3 355 309 353
3 312 356 310
3 310 356 354
3 313 311 355
3 357 313 355
3 314 358 356
3 312 314 356
3 315 313 359
3 359 313 357
3 314 316 360
3 358 314 360
3 360 317 361
3 360 316 317
3 362 319 363
3 362 318 319
3 319 315 359
3 363 319 359
3 317 320 364
3 361 317 364
3 320 321 364
3 364 321 365
3 321 322 366
3 365 321 366
3 322 323 366
3 366 323 367
3 323 324 368
3 367 323 368
3 324 325 369
3 368 324 369
3 325 326 370
3 369 325 370
3 326 327 371
3 370 326 371
3 327 328 371
3 371 328 372
3 328 318 362
3 372 328 362
3 329 373 374
3 330 329 374
3 330 374 331
3 331 374 375
3 331 375 376
3 332 331 376
3 332 376 333
3 333 376 377
3 333 377 378
3 334 333 378
3 334 378 379
3 335 334 379
3 335 379 336
3 336 379 380
3 336 380 381
3 337 336 381
3 337 381 338
3 338 381 382
3 338 382 383
3 339 338 383
3 340 384 385
3 341 340 385
3 329 385 373
3 329 341 385
3 342 383 386
3 342 339 383
3 342 386 387
3 343 342 387
3 344 388 340
3 340 388 384
3 345 343 387
3 389 345 387
3 346 390 388
3 344 346 388
3 347 345 391
3 391 345 389
3 348 392 346
3 346 392 390
3 349 347 391
3 393 349 391
3 350 394 348
3 348 394 392
3 351 349 395
3 395 349 393
3 352 396 350
3 350 396 394
3 353 351 395
3 397 353 395
3 354 398 396
3 352 354 396
3 355 353 399
3 399 353 397
3 356 400 354
3 354 400 398
3 357 355 399
3 401 357 399
3 358 402 400
3 356 358 400
3 359 357 403
3 403 357 401
3 358 360 404
3 402 358 404
3 404 361 405
3 404 360 361
3 406 363 407
3 406 362 363
3 363 359 403
3 407 363 403
3 361 364 408
3 405 361 408
3 364 365 408
3 408 365 409
3 365 366 410
3 409 365 410
3 366 367 410
3 410 367 411
3 367 368 412
3 411 367 412
3 368 369 412
3 412 369 413
3 369 370 413
3 413 370 414
3 370 371 415
3 414 370 415
3 371 372 415
3 415 372 416
3 372 362 406
3 416 372 406
3 373 417 418
3 374 373 418
3 374 418 375
3 375 418 419
3 375 419 420
3 376 375 420
3 376 420 377
3 377 420 421
3 377 421 422
3 378 377 422
3 378 422 423
3 379 378 423
3 380 423 424
3 380 379 423
3 380 424 425
3 381 380 425
3 382 425 426
3 382 381 425
3 382 426 427
3 383 382 427
3 384 428 429
3 385 384 429
3 373 429 417
3 373 385 429
3 386 427 430
3 386 383 427
3 386 430 431
3 387 386 431
3 384 432 428
3 384 388 432
3 389 387 431
3 433 389 431
3 390 434 432
3 388 390 432
3 435 389 433
3 435 391 389
3 390 436 434
3 390 392 436
3 393 391 435
3 437 393 435
3 394 438 436
3 392 394 436
3 395 393 439
3 439 393 437
3 396 440 438
3 394 396 438
3 397 395 439
3 441 397 439
3 398 442 440
3 396 398 440
3 399 397 443
3 443 397 441
3 400 444 398
3 398 444 442
3 401 399 443
3 445 401 443
3 402 446 444
3 400 402 444
3 403 401 447
3 447 401 445
3 402 404 448
3 446 402 448
3 448 405 449
3 448 404 405
3 450 407 451
3 450 406 407
3 407 403 447
3 451 407 447
3 405 408 452
3 449 405 452
3 408 409 452
3 452 409 453
3 409 410 454
3 453 409 454
3 410 411 454
3 454 411 455
3 411 412 456
3 455 411 456
3 412 413 456
3 456 413 457
3 457 414 458
3 457 413 414
3 414 415 459
3 458 414 459
3 415 416 459
3 459 416 460
3 416 406 450
3 460 416 450
3 418 461 462
3 418 417 461
3 419 462 463
3 419 418 462
3 419 463 464
3 420 419 464
3 420 464 421
3 421 464 465
3 421 465 466
3 422 421 466
3 422 466 467
3 423 422 467
3 424 467 468
3 424 423 467
3 424 468 469
3 425 424 469
3 426 469 470
3 426 425 469
3 427 426 471
3 471 426 470
3 429 428 473
3 473 428 472
3 417 473 505
3 417 429 473
3 430 427 471
3 520 430 471
3 431 474 475
3 431 430 474
3 428 476 472
3 428 432 476
3 433 431 475
3 477 433 475
3 434 478 476
3 432 434 476
3 479 433 477
3 479 435 433
3 434 480 478
3 434 436 480
3 437 435 479
3 481 437 479
3 438 482 436
3 436 482 480
3 439 437 483
3 483 437 481
3 440 484 482
3 438 440 482
3 441 439 483
3 485 441 483
3 442 486 440
3 440 486 484
3 443 441 487
3 487 441 485
3 444 488 442
3 442 488 486
3 445 443 487
3 489 445 487
3 444 446 488
3 488 446 490
3 491 445 489
3 491 447 445
3 490 446 492
3 492 446 448
3 492 449 493
3 492 448 449
3 494 451 495
3 494 450 451
3 451 447 491
3 495 451 491
3 449 452 496
3 493 449 496
3 496 453 497
3 496 452 453
3 453 454 498
3 497 453 498
3 498 455 499
3 498 454 455
3 455 456 500
3 499 455 500
3 456 457 501
3 500 456 501
3 457 458 502
3 501 457 502
3 458 459 503
3 502 458 503
3 503 460 504
3 503 459 460
3 504 460 494
3 494 460 450
3 461 505 506
3 462 461 506
3 507 463 462
3 507 462 506
3 465 463 508
3 508 463 507
3 464 463 465
3 465 508 509
3 465 509 466
3 466 509 510
3 466 510 467
3 467 510 511
3 467 511 468
3 468 511 512
3 468 512 513
3 469 468 513
3 469 513 470
3 515 470 514
3 470 513 514
3 470 515 471
3 472 516 473
3 518 516 517
3 518 505 516
3 461 417 505
3 505 473 516
3 505 518 506
3 515 514 519
3 474 430 520
3 521 520 519
3 520 471 515
3 520 515 519
3 474 520 524
3 476 522 472
3 516 472 523
3 472 522 523
3 516 523 517
3 520 521 524
3 477 475 524
3 524 475 474
3 525 477 524
3 478 526 522
3 476 478 522
3 527 477 525
3 527 479 477
3 478 528 526
3 478 480 528
3 481 479 527
3 529 481 527
3 482 530 480
3 480 530 528
3 483 481 531
3 531 481 529
3 484 532 530
3 482 484 530
3 485 483 531
3 533 485 531
3 486 534 484
3 484 534 532
3 535 485 533
3 535 487 485
3 486 536 534
3 486 488 536
3 537 489 535
3 535 489 487
3 490 538 539
3 536 490 539
3 488 490 536
3 538 540 539
3 541 542 543
3 541 489 537
3 542 541 537
3 541 491 489
3 490 492 538
3 545 493 544
3 538 492 493
3 538 493 545
3 540 538 545
3 544 546 545
3 547 548 549
3 543 495 541
3 547 494 495
3 547 495 543
3 608 547 543
3 495 491 541
3 493 496 544
3 544 497 550
3 546 544 550
3 544 496 497
3 550 497 551
3 551 497 498
3 498 499 551
3 551 499 552
3 499 500 552
3 552 500 553
3 500 501 553
3 553 501 554
3 554 502 555
3 554 501 502
3 502 503 556
3 555 502 556
3 503 504 556
3 549 504 547
3 556 504 549
3 504 494 547
3 506 557 507
3 507 557 558
3 508 507 558
3 508 558 559
3 509 508 559
3 509 559 560
3 510 509 560
3 510 560 561
3 511 510 561
3 511 561 562
3 512 511 562
3 514 512 563
3 563 512 562
3 513 512 514
3 517 564 518
3 518 564 557
3 566 564 565
3 557 564 566
3 557 506 518
3 558 566 567
3 558 557 566
3 559 567 568
3 559 558 567
3 560 568 569
3 560 559 568
3 561 569 570
3 561 560 569
3 562 570 571
3 562 561 570
3 563 562 571
3 572 563 571
3 574 514 563
3 572 574 563
3 573 519 574
3 574 519 514
3 519 573 521
3 522 575 523
3 577 575 576
3 577 517 575
3 564 517 577
3 575 517 523
3 564 577 565
3 573 574 572
3 521 573 579
3 580 573 578
3 579 573 580
3 579 524 521
3 524 579 525
3 522 581 575
3 522 526 581
3 576 581 582
3 576 575 581
3 583 580 584
3 583 579 580
3 583 525 579
3 583 527 525
3 526 585 581
3 526 528 585
3 582 585 586
3 582 581 585
3 587 584 588
3 587 583 584
3 587 527 583
3 587 529 527
3 528 589 585
3 528 530 589
3 586 589 590
3 586 585 589
3 591 588 592
3 591 587 588
3 591 529 587
3 591 531 529
3 532 593 589
3 530 532 589
3 590 593 594
3 590 589 593
3 595 592 596
3 595 591 592
3 595 531 591
3 595 533 531
3 534 597 593
3 532 534 593
3 594 597 598
3 594 593 597
3 599 596 600
3 599 595 596
3 599 533 595
3 599 535 533
3 534 601 597
3 534 536 601
3 602 597 601
3 602 598 597
3 603 599 600
3 604 603 600
3 603 535 599
3 603 537 535
3 536 539 601
3 606 540 605
3 606 602 540
3 602 601 539
3 540 602 539
3 605 607 606
3 608 609 610
3 608 543 609
3 604 542 603
3 609 543 542
3 609 542 604
3 542 537 603
3 540 545 605
3 605 546 607
3 612 607 611
3 605 545 546
3 607 546 611
3 612 613 614
3 612 611 613
3 614 615 616
3 614 613 615
3 616 617 618
3 616 615 617
3 618 619 620
3 618 617 619
3 620 621 622
3 620 619 621
3 622 623 624
3 622 621 623
3 610 548 608
3 624 623 548
3 624 548 610
3 548 623 549
3 548 547 608
3 546 550 611
3 611 550 613
3 613 550 551
3 551 552 615
3 613 551 615
3 552 553 617
3 615 552 617
3 553 554 619
3 617 553 619
3 554 555 621
3 619 554 621
3 621 555 623
3 623 555 556
3 556 549 623
3 565 625 626
3 567 566 626
3 626 566 565
3 567 626 627
3 568 567 627
3 568 627 628
3 569 568 628
3 569 628 629
3 570 569 629
3 570 629 630
3 571 570 630
3 572 571 631
3 631 571 630
3 572 631 578
3 576 632 577
3 625 632 633
3 565 577 632
3 565 632 625
3 625 633 634
3 626 625 634
3 626 634 627
3 627 634 635
3 627 635 628
3 628 635 636
3 628 636 629
3 629 636 637
3 629 637 630
3 630 637 638
3 631 638 639
3 631 630 638
3 640 578 639
3 578 573 572
3 578 631 639
3 578 640 580
3 576 641 632
3 576 582 641
3 633 641 642
3 633 632 641
3 633 642 643
3 634 633 643
3 634 643 644
3 635 634 644
3 635 644 645
3 636 635 645
3 636 645 646
3 637 636 646
3 637 646 647
3 638 637 647
3 638 647 648
3 639 638 648
3 640 648 649
3 640 639 648
3 584 580 640
3 649 584 640
3 582 650 641
3 582 586 650
3 642 650 651
3 642 641 650
3 642 651 652
3 643 642 652
3 643 652 653
3 644 643 653
3 644 653 645
3 645 653 654
3 645 654 646
3 646 654 655
3 646 655 647
3 647 655 656
3 647 656 648
3 648 656 657
3 648 657 649
3 649 657 658
3 588 584 649
3 658 588 649
3 586 659 650
3 586 590 659
3 650 659 651
3 651 659 660
3 651 660 661
3 652 651 661
3 652 661 662
3 653 652 662
3 653 662 654
3 654 662 663
3 654 663 664
3 655 654 664
3 655 664 665
3 656 655 665
3 656 665 666
3 657 656 666
3 657 666 658
3 658 666 667
3 592 588 658
3 667 592 658
3 590 668 659
3 590 594 668
3 660 668 669
3 660 659 668
3 660 669 670
3 661 660 670
3 661 670 671
3 662 661 671
3 662 671 663
3 663 671 672
3 663 672 664
3 664 672 673
3 664 673 665
3 665 673 674
3 665 674 666
3 666 674 675
3 666 675 667
3 667 675 676
3 596 592 667
3 676 596 667
3 594 677 668
3 594 598 677
3 668 677 669
3 669 677 678
3 669 678 679
3 670 669 679
3 670 679 680
3 671 670 680
3 671 680 681
3 672 671 681
3 672 681 682
3 673 672 682
3 673 682 683
3 674 673 683
3 674 683 684
3 675 674 684
3 676 684 685
3 676 675 684
3 600 596 676
3 685 600 676
3 598 686 677
3 598 602 606
3 678 686 687
3 678 677 686
3 678 687 679
3 679 687 688
3 679 688 680
3 680 688 689
3 680 689 681
3 681 689 690
3 681 690 682
3 682 690 691
3 683 691 692
3 683 682 691
3 684 692 693
3 684 683 692
3 685 693 694
3 685 684 693
3 694 604 685
3 685 604 600
3 598 606 686
3 606 607 695
3 686 606 695
3 686 695 687
3 688 687 696
3 696 687 695
3 688 696 697
3 689 688 697
3 689 697 698
3 690 689 698
3 690 698 699
3 691 690 699
3 691 699 700
3 692 691 700
3 692 700 701
3 693 692 701
3 610 609 694
3 701 610 694
3 701 694 693
3 609 604 694
3 607 612 695
3 695 612 696
3 696 612 614
3 614 616 697
3 696 614 697
3 616 618 698
3 697 616 698
3 618 620 699
3 698 618 699
3 620 622 700
3 699 620 700
3 622 624 701
3 700 622 701
3 624 610 701
