OFF
702 1400 0
-0.251091229826283 -0.351897116814895 2.12091194615412
-0.29667672543462 -0.337589993999169 2.10402285615857
-0.268443766569341 -0.355110445328122 2.07541694657783
-0.204144197437618 -0.358298558518382 2.1251310119292
-0.222387683317799 -0.365678253329452 2.07993659596401
-0.157282254980379 -0.362665439629078 2.1279048953982
-0.175950894932365 -0.369566772363371 2.08171712514639
-0.111854649642305 -0.366467282778411 2.13191913491721
-0.130581361346522 -0.373239888321144 2.08321401070107
-0.0669133373160169 -0.370099589376502 2.13630148510501
-0.0857759626782385 -0.376671012684983 2.08752817594779
-0.0193655259111312 -0.373106000226424 2.14362243548094
-0.0399370588216375 -0.379961536054456 2.09570534888104
0.0287148055299981 -0.368675587033005 2.15210496390393
0.00741600174539818 -0.381578697900598 2.10449937404009
0.0538686790974112 -0.372746161506977 2.11366550504969
-0.319487587354419 -0.310933852589316 2.13391608095305
-0.349443707833405 -0.292301157845889 2.10758869987466
-0.328043543892986 -0.320389997137945 2.07739352808267
-0.278847521263276 -0.327621801846006 2.15258502778231
-0.232039995120703 -0.336851655077787 2.16394060560698
-0.184283668447785 -0.341880526324341 2.16735510435426
-0.137465083029712 -0.34563165851957 2.172380666184
-0.0922015757971154 -0.348876115286169 2.1778895672808
-0.0478476939241453 -0.353927160374828 2.18004545580086
0.000824102772415042 -0.354639790365876 2.18714068193007
0.0745310119791339 -0.352400097591789 2.15859658959084
0.0459151035720818 -0.342510041873895 2.1954822164655
0.0918103835445822 -0.321787433936359 2.19424512774071
-0.306638822163075 -0.292404290562325 2.17658676401702
-0.347027826912653 -0.270750394962066 2.14990108393066
-0.260503197914908 -0.306392164902473 2.19323329496723
-0.210480806701273 -0.312691390213504 2.20081464060972
-0.16282963406538 -0.316827690410324 2.20567839349264
-0.11516838618343 -0.319179445719296 2.21261491144489
-0.0704238265654199 -0.321806985652103 2.21863895232224
-0.0280957094458124 -0.330646824598369 2.2169687626585
0.0131898403566554 -0.322597542759838 2.22798451476137
0.0587204001145413 -0.308826627545819 2.23007146476121
0.103301374626122 -0.285730017067055 2.22474219970963
-0.325192682426443 -0.256595691126277 2.19939653746517
-0.35860826362536 -0.233943778924397 2.1742693203543
-0.284035377118925 -0.272298816576534 2.21957873895355
-0.23490057096629 -0.283043190258681 2.23005700066632
-0.186098168082144 -0.285153586939499 2.23769796327473
-0.138592067589217 -0.289688363199754 2.24207097702103
-0.0870633345141272 -0.29054412380237 2.25152584425792
-0.0321216256509388 -0.299434087455885 2.25235413009736
0.0182689385234091 -0.292163821269795 2.26196496907085
0.0685919492813226 -0.276077793933359 2.26142802420372
0.113072840526106 -0.249119022434798 2.25494130219964
-0.309401105746236 -0.234805467863727 2.24322528911431
-0.350113662470865 -0.215596366396784 2.21330628492338
-0.259970785468692 -0.252340989667062 2.25700558847042
-0.212515719487065 -0.254761755063695 2.26759249210529
-0.166943604832927 -0.255794029134484 2.27563532358387
-0.122924552154631 -0.263210964427638 2.27595809155398
-0.0894762880014758 -0.252054935413849 2.29567870561096
-0.054491998111388 -0.270196381957124 2.28173076425018
-0.0121837167435762 -0.266897286657048 2.29266886974899
0.0356590170844692 -0.259967958476558 2.29427988179918
0.0835166153413452 -0.240467996217498 2.29108619615737
-0.312855794748064 -0.196709249961157 2.28569228561065
-0.340961909347774 -0.197170722422061 2.25081923042078
-0.27971846159969 -0.222518946343448 2.28148821145959
-0.232584897979305 -0.225349010520413 2.29763122342135
-0.18782749280971 -0.224260463004234 2.30797681807751
-0.138859360593468 -0.228999884730772 2.31240777553056
-0.0934451183907129 -0.223637460206778 2.3278357680887
-0.0459174640674585 -0.236261550229403 2.32282964817105
0.00211617065753307 -0.23589896241393 2.32812432494892
0.0498053274858595 -0.227919039415281 2.32499804793961
0.0970395821789233 -0.204908834484779 2.3191029354176
-0.302393150409606 -0.174227996228837 2.32230944111282
-0.346713019675319 -0.159934293451853 2.28803381736659
-0.263494937657906 -0.198149844614365 2.3190295190797
-0.217538885797493 -0.19258097323988 2.33869563374472
-0.167446674612346 -0.196893448886457 2.34385080215907
-0.121626196979655 -0.196750589924767 2.35330761107271
-0.0700432118478308 -0.200612846243857 2.35928612242719
-0.0250351305939591 -0.206796810153143 2.36085235332126
0.021313692164884 -0.203518549035871 2.36215744868802
0.0651542656671457 -0.195313111583867 2.3535050913668
0.101301151340098 -0.169246133523424 2.35385252041405
-0.297887461867573 -0.136565691396851 2.36034857381199
-0.331745379068763 -0.143685635209215 2.32681212443364
-0.264188803044597 -0.166141233664529 2.35407552207416
-0.229671084342243 -0.154988490296321 2.37248070647823
-0.186852427781459 -0.163239660063722 2.37356013818016
-0.141709359483904 -0.163491992598964 2.38121100100562
-0.0944559366662169 -0.166794227937392 2.38685446658826
-0.0457953605842905 -0.170847187965542 2.39216968054306
0.00252220774690749 -0.173632277393444 2.39361800662465
0.0540320158852685 -0.167035936452324 2.3862535089678
0.101090333543562 -0.135041407873848 2.38023535682514
-0.339435809024267 -0.105535891844734 2.34601679121867
-0.260786958007244 -0.118389078027948 2.38726569753922
-0.304568072306407 -0.0936729201410662 2.37790018767406
-0.211291703074849 -0.119127752903125 2.39639827984687
-0.165200064338006 -0.123817423424705 2.40115983536491
-0.118496495553633 -0.124846529545649 2.40765380967924
-0.072641254767127 -0.129408282772489 2.41244801752924
-0.0259170461637244 -0.133862774438352 2.4171288062859
0.0207575724922209 -0.135055640182972 2.41491990867909
0.0650188948508023 -0.127873088262016 2.40503997953094
0.0464847680223698 -0.0901741017163352 2.42388304512909
-0.277867953942425 -0.0675322607354973 2.39734063137248
-0.235322196754212 -0.0768933088429404 2.40670099635531
-0.186257270613867 -0.0787609077347682 2.41274498032466
-0.140475208599313 -0.0799049257132933 2.41846240680519
-0.0941601696187544 -0.0813628798819329 2.42416514920438
-0.0495223661674528 -0.088050158135638 2.42869030186484
-0.00176811969375917 -0.0922430193932523 2.43133781432074
-0.246498918886188 -0.360417987137614 2.03575602438603
-0.270468273197436 -0.344621446802788 2.00118774493287
-0.247055583799507 -0.335514064402345 1.96405768834837
-0.196832446710049 -0.366575188646621 2.03595842288964
-0.218606122549071 -0.35539229926627 1.99550023147475
-0.150756745734628 -0.369089864643273 2.03509293559602
-0.170461414441551 -0.355205389563354 1.98987745795943
-0.105313921026971 -0.371998477042359 2.0374077916393
-0.125136505744428 -0.356634753636437 1.990423725242
-0.0599408462066263 -0.375829011384132 2.04484353860943
-0.0775200789118222 -0.360405861969574 1.99629811981803
-0.0149762953388193 -0.38003199569871 2.05495004636967
-0.0317472686775963 -0.365412090461609 2.00518623618468
0.0310859004363085 -0.378887891123506 2.06349859069574
0.0125218971833478 -0.370022350346625 2.01619047458489
0.0604098608087751 -0.363372415836938 2.02551761282911
-0.298185085213756 -0.340969162581997 2.0447848495457
-0.336892955473281 -0.309839566880521 2.03063606346935
-0.307292579540772 -0.323408074308374 1.99733442860206
0.0984674674612819 -0.352545664627699 2.11899698470406
0.0741906817447614 -0.367477748335739 2.07338472542643
0.113724569664053 -0.345955881610366 2.07659056395014
-0.374976256867252 -0.256290727572322 2.10007036758972
-0.38547440410661 -0.241033043878954 2.05130655758831
-0.362397471720378 -0.284073822413621 2.06175443219375
0.119437131630699 -0.326157035990255 2.15415617771609
0.139924632983264 -0.321864939811118 2.10995565915897
0.156902150909929 -0.292132334834121 2.13900121236995
-0.377228264409647 -0.229559858337263 2.13317047068574
-0.393279190352398 -0.210896507274117 2.08790450393948
0.13319863423281 -0.292024928313626 2.1844210645271
0.164029201296453 -0.254655381979883 2.17186550152321
-0.381104859568561 -0.193063163491959 2.16923161265799
-0.393920271767382 -0.18323418063778 2.12600814319722
0.140893071497636 -0.253363773212677 2.21475800424484
0.170282876894736 -0.214260211245658 2.19852491848728
-0.37560420879507 -0.176224669910198 2.20807514834882
-0.396315851214373 -0.145516742114466 2.1676291591189
0.149383754274677 -0.213868842067498 2.24258665239413
0.17453711620885 -0.173973796912629 2.22719611167916
-0.36774235906742 -0.160463577754495 2.24796825283969
-0.391779647914468 -0.13041664985633 2.21388022664623
0.126222518477452 -0.209550700223299 2.28218530368883
0.158508655911883 -0.17037163542428 2.27023898186831
-0.381693437254253 -0.12137670880093 2.26250412659505
-0.40020693519977 -0.0854004555746922 2.23335420380574
0.133483463983848 -0.1713979089014 2.31300961919949
0.163451404123608 -0.13203076487359 2.29828378150266
-0.366141270643272 -0.116168180206127 2.30434896096659
-0.390648376449086 -0.0769971916900727 2.28128045653527
0.136801756756199 -0.135873976231019 2.34347278016002
0.160265990567555 -0.0969862577842822 2.33200171697244
-0.369206820488661 -0.072177938646771 2.32447617899827
-0.337115782952523 -0.0628914650883933 2.36254867942448
-0.357096306722138 -0.0284736111748413 2.34493512490311
0.0936469628051775 -0.0894690311555848 2.40306433179774
0.116730417946926 -0.0491795700080213 2.39118970076524
0.130394371382336 -0.0955460116308772 2.37215578808946
-0.311751933915574 -0.0363561899459045 2.3833098095754
-0.259305523664521 -0.0267129000629663 2.4056821268897
-0.291426696405832 0.00227910214848884 2.39002517806517
-0.209658965389856 -0.0355718113819197 2.41387227967968
-0.162416697575444 -0.0327210568697603 2.41912760036093
-0.115795837066515 -0.0341652872609461 2.42439132584619
-0.0689608762514558 -0.0356745470321132 2.42966115367972
-0.0259428850114693 -0.046496450894604 2.43488475066527
-0.00067697801725318 -0.00964893815118712 2.43106433375302
0.024751462983568 -0.0497840064122547 2.43279176593612
0.0734396843811724 -0.0483462907302215 2.41786073567175
-0.258074291247729 0.0315656417645637 2.39387949077768
-0.226326606638693 0.0072683803619111 2.4070593616153
-0.182230505682583 0.0126292040153178 2.40997173628653
-0.1361353612787 0.0126268773451464 2.41429550951969
-0.089437674397414 0.0105646566292662 2.41923672350578
-0.0410200889150963 0.00879020737202754 2.42423476521189
0.014739480680854 0.0283522268882598 2.41749688038644
-0.335177572176754 -0.291253198582259 1.98216044897477
-0.319030578690746 -0.276105517470058 1.94372033918973
-0.288224743176025 -0.312355399519835 1.95603425971153
-0.239477264051759 -0.311642391769855 1.92902437035637
-0.197366503320078 -0.336065453559633 1.95406893742015
-0.146870195328159 -0.331204310371685 1.94746084653914
-0.0968548134772431 -0.336503173327419 1.95525713409691
-0.0447727375688808 -0.340633220304142 1.9615182008627
0.000572766286000392 -0.346371408663008 1.96996313215343
0.044718842993877 -0.350162017088057 1.98580581147449
0.0870570928571991 -0.331882653212618 1.9854271773236
0.0999255525958334 -0.347029778820682 2.03289146988936
0.126375251029741 -0.320080349930618 2.01587787519998
-0.365086845256572 -0.270438925290571 2.01626532141516
-0.382957989829694 -0.223707015811643 2.00482245153476
-0.359465023558529 -0.249403421240553 1.97376824504329
0.143089354633111 -0.318672924539842 2.06048485110628
0.158821159853214 -0.288880590159186 2.03006618728506
0.168922104654788 -0.287310635951943 2.08529275899563
-0.397236441291503 -0.191961649421506 2.04236411786177
0.188511329947999 -0.244959608813273 2.08391900985134
-0.400301160387438 -0.162035726820578 2.07591849391537
0.180661361533556 -0.254119425107163 2.12617003434015
-0.401311312778022 -0.141222538000107 2.11934516978713
0.186158831738564 -0.212842314862949 2.15123052350601
-0.403511273052102 -0.101923147861125 2.1361141475585
0.188619822342776 -0.173354553757279 2.17645471146336
-0.40338878697942 -0.0956071804362857 2.18356754205932
0.189152537711733 -0.136864056077431 2.2048639250993
-0.40668736839767 -0.0485414243187426 2.20347548973634
0.181382026472936 -0.125704682909562 2.2506823446005
-0.402799708228072 -0.0391147053830383 2.25415507100447
0.181478277390112 -0.0877961133043983 2.28466769209396
-0.385919617179657 -0.0320906843170265 2.30237717515041
-0.39253977770961 0.00606105425840605 2.27457546807639
0.149912362048876 -0.053224672339886 2.35709563115278
0.174152659175877 -0.055572733079472 2.3159149317906
-0.368735841558793 0.0106189938465286 2.32084240595258
-0.333836515342353 0.00519323014164529 2.36187014027775
-0.340999521099033 0.047485535450385 2.33541821140287
0.0491813601649516 -0.00753931980869366 2.42190273028213
0.0956075420270921 -0.00688857760322593 2.40019282762722
0.134442293228661 -0.00786195697499569 2.36803793102172
-0.304140157892963 0.0429869943116203 2.36863734340034
-0.263700670289334 0.0697244790087063 2.37258129667454
-0.211128412444458 0.0535652179231151 2.39163916865069
-0.162090728738033 0.0557284617993279 2.39416185563894
-0.114735708441134 0.0546560738013763 2.39820422260176
-0.0673530261934288 0.0514532290737624 2.40344207814233
-0.0213610000536479 0.052109507595604 2.40629680038091
0.0322202544173751 0.0637507574323086 2.39384704783113
0.0660708112478976 0.0317508021470131 2.4013048601781
-0.307906417637949 -0.243308793013729 1.90926104243534
-0.276346022690084 -0.282716416698749 1.91752514718023
-0.227929474159992 -0.279135375117399 1.89727999846193
-0.190514856106927 -0.307923695572587 1.91971172229923
-0.146908898700583 -0.29559066009104 1.91065829292208
-0.10663995565998 -0.303449754587861 1.91948766855588
-0.0595848203843692 -0.312413404185885 1.92968137661908
-0.00340179392110598 -0.313499726987225 1.93333274748487
0.0442073759058572 -0.32337975166478 1.95031019319259
0.089399350051692 -0.299540675159279 1.94996522193712
0.127454904557561 -0.295858376703797 1.98218523086536
-0.371346633047089 -0.196780104914114 1.96149933894825
-0.343489962738186 -0.23375525857811 1.93928592989369
0.160151126331698 -0.259927843187511 1.9932798493325
0.180463557285034 -0.253383820731775 2.04162501489086
-0.390371132258467 -0.175990791718614 2.00184073564712
0.196915870986115 -0.205956707139083 2.05699096699761
-0.395716726301986 -0.135996748251422 2.03206175262978
0.196024474878815 -0.204725845194851 2.10677088039503
-0.399581098042275 -0.113654057049914 2.08029245258247
0.196659631455204 -0.162889175679841 2.12981864091564
-0.398767945562167 -0.0706591751179496 2.10144829517266
0.196349468976346 -0.124462298492987 2.15772853267292
-0.403591590975036 -0.0563458911278247 2.15281441341561
0.193333947435768 -0.0945965563252763 2.20353086455253
-0.402505127006998 -0.0115386060955801 2.17271391615023
0.190294275436326 -0.0740764192141373 2.24339969671596
-0.403852061182421 -0.00234256976771516 2.22430791667533
0.185401782829955 -0.0313739007115675 2.27982132601277
-0.388857394870963 0.0422270079944203 2.24438450929741
0.16421882704118 -0.0128942789191894 2.32790063146181
-0.370032895589746 0.0482351352268828 2.29209331202783
-0.337214192122871 0.0849486421378567 2.30520795720226
0.108328138232009 0.0334502378135865 2.37358038621423
0.143531571638801 0.0301456386672531 2.33722144816792
-0.303211710462821 0.0821402168517597 2.34203871518211
-0.25970536837583 0.108574685729961 2.34145221340285
-0.224006878083839 0.0895698823772233 2.36718406520944
-0.179112520463517 0.0935096248062928 2.36639523731233
-0.134992633893716 0.0939728030242082 2.36816782891965
-0.0882479485578666 0.0900375008961152 2.37390058959955
-0.044939632866563 0.0898820250626393 2.37617231432926
-0.00231627204034844 0.0879799880489986 2.37940600573029
0.0753733806675773 0.0703904559664912 2.37078034377074
-0.304599228845796 -0.208090406971378 1.88130175251472
-0.266033147360929 -0.247187435242809 1.88478887571953
-0.2191522178384 -0.243963118660062 1.86644723916011
-0.179406086104215 -0.27038969369713 1.88711063510509
-0.125594055604657 -0.26108914512554 1.88166596121383
-0.0796460148045212 -0.27360653038365 1.89483230189486
-0.033934446385603 -0.285408916258374 1.90736458761402
0.00943456714440184 -0.273333355184126 1.89898882447408
0.0471498823708099 -0.290549100388518 1.92056727621257
0.0936955658018994 -0.264359554458658 1.91835105760409
0.130435552269911 -0.263531982597482 1.95104767308865
-0.36646830569069 -0.158528950835698 1.93219675916637
-0.342061528322265 -0.198950811465433 1.91528899906285
0.165988997466744 -0.225449384441513 1.96316321324692
0.186167140004124 -0.218338336003389 2.00966933906763
-0.385610521959266 -0.142869788162391 1.97692953916827
0.203110511481238 -0.171179241077274 2.02925273189774
-0.389123545032611 -0.0980316070728034 1.99970575989216
0.202348351988295 -0.161389276321611 2.08138117567837
-0.393453878448049 -0.0835770161259862 2.04680906901234
0.202744817074548 -0.115991587281341 2.10773959826467
-0.392724738348424 -0.0385285891176764 2.07004588746479
0.200113691777321 -0.0799383495371896 2.15424946884968
-0.397296117753978 -0.0229526878686572 2.11997485209066
0.19824371373574 -0.0497391533839383 2.19031343359042
-0.396351560550741 0.022976460112774 2.14191313288907
0.194649027326499 -0.0315635170763129 2.23318345818141
-0.397690827428238 0.0336053538921052 2.19399764308412
0.191017524408221 0.0109864307419931 2.24970080640121
-0.3826035101647 0.0778138502149252 2.2138493224001
0.172897149916574 0.0181161271740339 2.29483826037315
-0.363965867900444 0.0839186328322901 2.26150840399033
-0.330192185483853 0.121179542460798 2.27486033058088
0.115061763312544 0.0710219253083716 2.34142560911861
0.151009560428104 0.0645922635181711 2.30554249051387
-0.2969133528805 0.118157779346564 2.31119083161292
-0.248309764347053 0.14313826429548 2.31363190235922
-0.208025745755708 0.124237566041376 2.33821139079245
-0.157069842095064 0.130987867344521 2.33484700326365
-0.104374161081569 0.124357637066549 2.34321997656977
-0.0559925127910385 0.125879074505136 2.34428193222415
-0.00989926965697768 0.123725136882639 2.348431040936
0.0379557520725864 0.102797938562297 2.36084551860218
0.0792671883260816 0.108520661103298 2.33945325384615
-0.299073673334469 -0.173496158274043 1.85192444155272
-0.261126584927274 -0.211612899837192 1.85477083506463
-0.213193276285481 -0.210320331165296 1.83742683731673
-0.168282327546415 -0.237161171967574 1.85872353901873
-0.121072285431955 -0.222137577842047 1.84797088199349
-0.0789968458144346 -0.236746488512509 1.86276798799483
-0.0343412443340202 -0.250408793229117 1.87686712556607
0.0119929253442899 -0.235919274369861 1.86653544963964
0.0551926587430263 -0.253498153502416 1.88911794373842
0.100659135954321 -0.228272746978702 1.88768748726995
0.136526618535104 -0.229577246512715 1.92195858982418
-0.360012103655978 -0.122283900207115 1.90069910388509
-0.336711853796446 -0.165304530310175 1.88698773801516
0.172313339636089 -0.190752421075262 1.93378147828647
0.192728837221013 -0.182690923020811 1.98028176388213
-0.379233844382413 -0.109693649692129 1.94626611288739
0.209211655020253 -0.136607208219052 2.0007111229633
-0.382824680385225 -0.0650792670737411 1.96661888887449
0.208275872331299 -0.125590955073771 2.05339108444201
-0.387168895130889 -0.0456922322416999 2.01708004710203
0.209620487603183 -0.0804521314455577 2.07133436912547
-0.387240485114187 -0.00150252609473202 2.04669825661103
0.205581452736253 -0.0659543785584602 2.11593219781217
-0.391183367132008 0.0132889930111238 2.09066175254725
0.20507842113082 -0.0238997859576412 2.14790567657791
-0.390006048343388 0.057508207405284 2.1094577597784
0.20118621388442 -0.00120480867093856 2.19660661125792
-0.39173546277791 0.067975171453417 2.1627671298209
0.19815543600419 0.0437107529478954 2.21645496965114
-0.376455194667414 0.112619825080847 2.18412498401926
0.178419704512639 0.0564815834285931 2.26423745092123
-0.357265305679304 0.119605790257199 2.23175121970064
-0.321884916914279 0.156764722781183 2.24681382726088
0.120484763901016 0.107222723178827 2.31102900808889
0.156416170481342 0.101331863920718 2.27525244079464
-0.287114025067971 0.153463705929607 2.28344486209417
-0.238759012489124 0.177806810572413 2.2849106921829
-0.197333348065331 0.158037632254658 2.30930591675018
-0.152477146820209 0.172317054984512 2.29908535755025
-0.115292171075234 0.155936781192446 2.31518280996802
-0.0676053875557873 0.159237469315929 2.31466100302965
-0.0172253417755013 0.159813946706155 2.31664429574502
0.0329009158119129 0.139308611514599 2.33208125007423
0.0805842588843015 0.14379572890702 2.31161357409606
-0.292840156183174 -0.138833142680284 1.82188837841403
-0.255534116155363 -0.176394028870001 1.82468947535747
-0.209258537382412 -0.175662670748192 1.8079528336834
-0.164945544090934 -0.202631148583984 1.82882073115224
-0.115257486680636 -0.185319155957755 1.81619638518501
-0.0731984952583201 -0.199101616601012 1.83027263696433
-0.031221018542848 -0.214331446743063 1.84560591017804
0.0150446416589617 -0.198828657374336 1.8343882233452
0.058589071834171 -0.218330090811864 1.85794080304675
0.103876350336784 -0.194296374140935 1.85655813902097
0.142747981554112 -0.195125428596605 1.89249380666766
-0.355015467832383 -0.0854204299025853 1.87193941437784
-0.33052760169248 -0.131205539317635 1.85729031362844
0.178279049505047 -0.156195862789482 1.90383501481913
0.198917483549297 -0.147618346557869 1.95027885950815
-0.37329228715101 -0.0726504683648933 1.91623372212636
0.215118360322613 -0.102437357682343 1.96980249392916
-0.375953914951141 -0.0249283769659174 1.93328934354457
0.21472567145579 -0.0900760471443329 2.02066785801158
-0.380598908585501 -0.0189442875200697 1.97756757438819
0.215487137131486 -0.0422341463418312 2.04545440005819
-0.381934708544168 0.0109816260508933 2.00880698853784
0.210965745064636 -0.0284243540205076 2.09379835631768
-0.384275812842352 0.0491657563576571 2.05420696466538
0.211603738359258 0.015192469200752 2.11688134090896
-0.384068371533788 0.0913610480175931 2.08009706468134
0.207201984821485 0.0288945383393644 2.16411067421056
-0.385769078100832 0.102104305682393 2.13335577215646
0.204731732519077 0.0763468621961777 2.18507341962118
-0.369443916328536 0.148005016864303 2.15717195722258
0.185382609896821 0.0904846038764177 2.23279302518254
-0.349938093680949 0.154947762576969 2.20374695363492
-0.314807311899159 0.191695084406081 2.21789337999595
0.125226947916425 0.142619421224127 2.28179424235948
0.162736828123899 0.135985886885397 2.2450188158494
-0.279088525881747 0.188282502513428 2.25480308826177
-0.232575052024767 0.213198702463585 2.25439702201133
-0.190559672979069 0.19542149584124 2.27708742798727
-0.140006666926975 0.208805815129638 2.26792618640749
-0.10051125585949 0.190967435688207 2.2854079229492
-0.0522422623067152 0.194038035544764 2.28511490601611
-0.00416617026175843 0.195147940824876 2.28651984514434
0.0361715166288804 0.172489248855519 2.30396086840993
0.0876962014264879 0.17678118766771 2.28247755368106
-0.294094251269972 -0.102140828230082 1.79740069063424
-0.249139791249029 -0.140302011491329 1.79352943678994
-0.201273619063513 -0.141917545304234 1.77848551004837
-0.159865647079069 -0.169717439305928 1.80041061911606
-0.110075490790122 -0.15012558567817 1.78585530276255
-0.0664456948035169 -0.161196535856753 1.79759919114377
-0.0265641831582647 -0.175970964120805 1.81243122533871
0.0169274750575529 -0.161280489030111 1.80179550800286
0.0613526499046949 -0.183490222324022 1.82694505254773
0.107961839809301 -0.1598841390835 1.82563606955397
0.145083932185049 -0.163362199035684 1.86134569578578
-0.349650906245927 -0.0479451574702658 1.84305749234851
-0.327791402927736 -0.0950041275925744 1.83096640895165
0.178817076838261 -0.12717567893 1.87006322005855
0.20481743870745 -0.112542713942833 1.91909405070984
-0.367186900514501 -0.0343268174362167 1.88536447622504
0.222056214333748 -0.0644813458357717 1.95018074417479
-0.369712470595161 0.0133158115415167 1.90808785160939
0.220512647510349 -0.0518199055527255 1.99551079227118
-0.374885389875693 0.0264960357546697 1.95775863351191
0.221597363546883 -0.0050881213568701 2.01548128735748
-0.378386164090937 0.0526060346209282 2.00530457087882
0.217159756640404 0.00770692451448129 2.06370614832248
-0.377505905454596 0.0950243433914892 2.02549182833937
0.21794809975322 0.0517328846381241 2.08528479022432
-0.378721696379045 0.129670954646837 2.05887534701174
0.213461819515826 0.0656881429715306 2.13388063494874
-0.379348772352378 0.137531644664001 2.10857637067502
0.210661191301868 0.111370645753502 2.15552004062871
-0.363127833669211 0.183027560260936 2.12778508180392
0.191761118422311 0.124412537645291 2.2025936457491
-0.343051428019116 0.190366046858669 2.17467008819859
-0.308718930781532 0.226557872703794 2.18782925623564
0.131967527129625 0.17736543890813 2.25124844623344
0.169036627899823 0.170703408045764 2.21470815890729
-0.273286008852296 0.223016996347965 2.22466795567236
-0.227043423445184 0.248133018481168 2.22403846931788
-0.183371819675072 0.230907523502131 2.24654128285027
-0.134748744456101 0.242954040862275 2.23842346782761
-0.0871183972693726 0.227863070461079 2.25394038582772
-0.0371094926737624 0.228703218938231 2.25567554595966
0.00940198879327879 0.229031931033023 2.25768354722954
0.0485164880307356 0.205345072604729 2.27427765450293
0.0947184657997027 0.211563003641242 2.25199354714228
-0.256804774426493 -0.10237862705361 1.77184375571513
-0.215286932656382 -0.105883890852971 1.7581500495167
-0.168881797039057 -0.103091028754155 1.75191431053607
-0.153960164681214 -0.137024714604674 1.77310408652298
-0.116730217172663 -0.109139390216052 1.75868098261807
-0.0699679322189411 -0.121094312426368 1.76847086912672
-0.0230872280960993 -0.13231633817145 1.77833961418996
0.0248159537634789 -0.121506322351599 1.77581152603827
0.064314068597598 -0.149432451548241 1.7980778159098
0.108723473542882 -0.123252349864657 1.79826308663865
0.149130630650693 -0.127526201726308 1.83098251656537
-0.337358759029461 -0.0106446442717263 1.81828715329281
-0.32067618548959 -0.0572469625933158 1.80324294998588
0.19784448063969 -0.0898188650713106 1.87337743020647
0.215576013209647 -0.0674498685935935 1.90704306369673
-0.357554358743531 0.00516616401299767 1.85794027209288
0.221034304574458 -0.0242043495980533 1.91834878274433
-0.354658693101446 0.0492400575187678 1.87969354832271
0.223904985676854 -0.0130960832029781 1.96386093005364
-0.364322406362079 0.0621796599774205 1.92477624112414
0.220386612777101 0.0302185114016728 1.98332768955215
-0.371235306753 0.0788684069640615 1.9708407963722
0.220625372490457 0.0448174366994621 2.03115543057082
-0.365241452553721 0.124241950455953 1.98635193694365
0.217503501181255 0.0869890722825496 2.05383930759341
-0.368268901640844 0.15098402193488 2.02259767287273
0.217374175465037 0.101809037691852 2.10136852493523
-0.372179125277103 0.171684551892509 2.07749272163478
0.211424597814484 0.143118644227722 2.12415589963334
-0.354416204016892 0.212597481831522 2.09299308040834
0.195988814711578 0.159129752665049 2.17252438484435
-0.336950964007302 0.223818662752162 2.14257369949638
-0.301406081297112 0.256352154006279 2.15485757644697
0.13697229626177 0.212136686021232 2.2193105833567
0.168855324891747 0.20468839408918 2.18221519217835
-0.265963731624601 0.257044634067072 2.19383021837764
-0.21737526307511 0.279736559098438 2.18866135976225
-0.180089173462016 0.265504249499195 2.21360823655746
-0.138289924758521 0.274246046028628 2.20302864780074
-0.0941532756173967 0.264322420447137 2.21700436416562
-0.0494915765372971 0.25998656622155 2.2233636607787
0.000580965796957822 0.259401430271185 2.22500373916214
0.0525287899172991 0.241488374887672 2.24169978195645
0.0978800777221312 0.242743393823456 2.21908889628352
-0.282213431639383 -0.0617113476396152 1.77073045535049
-0.236838569217839 -0.0625102257348111 1.74837177043802
-0.189173275895401 -0.0638351748152195 1.7387193371997
-0.137309500981126 -0.0678142194881722 1.7416447857349
-0.0867918437089594 -0.0744352992991712 1.74819216657522
-0.0406515261204892 -0.0844151395039814 1.75536466093364
0.00346142516619201 -0.0839879763543431 1.75933637459685
0.0504886924710524 -0.0737364842002162 1.76146438363139
0.0709739086046083 -0.108898869566511 1.77649955231397
0.102961210741753 -0.0732761122764394 1.77598460956017
0.139493496414778 -0.0908266954522241 1.80241704251089
-0.302203619397112 -0.0199287152824795 1.77964636644915
-0.277066287334274 0.0220104368499123 1.76625522156983
-0.259692528750953 -0.0210150228466517 1.75225176011961
0.149666754006744 -0.0497858608521016 1.80028416902826
0.175864989045418 -0.0837931503504308 1.83496572075011
0.179135046209993 -0.0362989284789944 1.82846126750889
-0.334343627855974 0.043395825115915 1.83073821434679
-0.314554943878828 0.0214803196651035 1.79643256355442
0.203330911035674 -0.0427085508899346 1.86612171430505
0.208601148672852 -0.000749417843094465 1.88361922679127
-0.331125705485246 0.0808091928554439 1.85755312807037
0.214446207766631 0.0246880412969173 1.92721969712922
-0.340998101026979 0.10028832762177 1.89718606171176
0.209411151027064 0.0616460909565512 1.9552189584585
-0.353467542155678 0.110522392256367 1.93700713221461
0.212014033899102 0.0820733752640523 1.99768254819812
-0.342477821445591 0.149721673706707 1.95119780050371
0.207117298728511 0.118905651770269 2.02536166384582
-0.346336570217023 0.177640149114757 1.98805335659514
0.209518003940235 0.139151793970985 2.06760808146288
-0.359807738088902 0.192240518896596 2.04089107501107
0.201950101303714 0.174519496023845 2.0945803222705
-0.326031034531675 0.249474124557983 2.10531763689206
-0.337978736705487 0.234477877368407 2.05658804124429
-0.307117192241017 0.267447028344117 2.06319211023305
0.192499648308159 0.189281896395841 2.13905395938774
0.179106064720544 0.215711608528352 2.09589125400132
0.165875938117453 0.227815541482035 2.14132907544028
-0.258248508196732 0.28259938162898 2.1573376587455
-0.292075162977373 0.276654307675119 2.11599139038868
-0.25025877695687 0.298516119637125 2.11515188224566
0.133189620547741 0.243593698449032 2.18074789455574
0.100773140795651 0.276138369569991 2.14533300719024
0.0884868387728805 0.268553117458529 2.18409165745067
-0.211068967710799 0.300175908582353 2.14892640314402
-0.167075035608327 0.294343737713528 2.16856576296353
-0.114159099597791 0.292041865124282 2.17089659580002
-0.0696810035494674 0.287068996724618 2.17959758578943
-0.0258614151094155 0.283793061749081 2.18456594859628
0.0168780232620593 0.283021585086752 2.18394709041352
0.0500977285885494 0.26828398523227 2.20696805428453
-0.210871251372861 -0.0211120239209244 1.7362313123118
-0.159585016158611 -0.0249443526641972 1.73328218177008
-0.108810933280887 -0.0290250601533982 1.7389567898018
-0.0609328964725795 -0.033886978954985 1.74452384296745
-0.0160989465405505 -0.0374711516884 1.74969448589743
0.0279800028341496 -0.0333250654479923 1.75454587445224
0.0765752435608622 -0.031978515418774 1.76232376508734
-0.232860351854522 0.0200737486664904 1.74545077956241
-0.205668324179131 0.0575257535567314 1.75013753394067
-0.181464216554733 0.0183547597477193 1.73608928746216
-0.130663690449085 0.0150239619573334 1.7392110519422
-0.0829894117306519 0.0138998347235166 1.74514582216854
-0.0357158716338994 0.0104529026474984 1.7506113800526
0.00906080671305425 0.0118964150543623 1.75673347823416
0.0559995251362277 0.0111076119148098 1.76283189076507
0.104157357538913 0.0121537247109405 1.77747500888563
0.151279111044745 0.00287810937384559 1.8047508422671
0.120101947598989 -0.0282935064304391 1.77975413543146
-0.295108340814591 0.0613951138453927 1.79498453875934
-0.26317393232701 0.099876596889474 1.79795836933225
-0.252555039842719 0.0624552810973011 1.76734456504742
0.127184591901127 0.0453313644465588 1.80242186674791
0.185203578631234 0.00537216160306928 1.84235976989673
0.163280263206804 0.0456026355252582 1.83431160900141
-0.30295507536379 0.091758704657574 1.82652530716952
-0.269699649531349 0.130078522132628 1.83454109355525
0.19365528858051 0.0407981894783778 1.87758488830549
0.165717371222273 0.0799025846014453 1.86903772428792
-0.307578374909206 0.123658517220727 1.86668867863842
-0.276726422875684 0.15967231680373 1.87299161004504
0.192597796058059 0.070581816635013 1.91124640207062
0.163753468819605 0.111453297301391 1.90498935809611
-0.318691296786217 0.147295493286748 1.90731514946484
-0.281592803325263 0.187112473179093 1.90742489544472
0.191160929342391 0.10246530238126 1.9488191368887
0.162691096255458 0.14202910026423 1.94116736538939
-0.31558937657668 0.18480347277842 1.9429718466123
-0.279685667846573 0.220242271335608 1.94214430734029
0.190443390547312 0.130169089358649 1.98287608622638
0.161992125028112 0.171953141849346 1.97713644069632
-0.312841764660637 0.218924524289569 1.97591969926665
-0.279116071144369 0.25502231449301 1.98160089080321
0.189352572511117 0.161497720590254 2.02068873306796
0.160744976876919 0.202085981230558 2.01248982489522
-0.336375737613764 0.217410163551994 2.01230993200289
-0.307183135030925 0.254159267821954 2.01779852661318
0.187615234543721 0.189645575525784 2.05422699338831
0.157489412875741 0.229556095351773 2.04959779194007
-0.273948789899657 0.290456239458504 2.07472121908913
-0.268897091916845 0.283952134944061 2.02640293974315
-0.236408077898607 0.30446256774149 2.06092651516032
0.135316344122126 0.257638631363742 2.13433627129971
0.149005950367956 0.248488516364484 2.09216509691086
0.109024781918352 0.275908309931826 2.09329983702596
-0.211879168722819 0.31043995641918 2.10101352840953
-0.18632558656053 0.312746470910727 2.06525523560107
-0.171343033131802 0.310114070163606 2.11956913593111
-0.142392940838004 0.311169733776889 2.07863006441604
-0.128870573975279 0.306087606722311 2.12865319159768
-0.0982704076268592 0.307835556144801 2.08370214924864
-0.0820708899494663 0.303090264565286 2.13134084895639
-0.0534080716794471 0.304369357509298 2.08701995264257
-0.0377682887065703 0.299580325204481 2.13727632322526
-0.00982888199737471 0.30100624749637 2.09061433766575
0.00675614084131522 0.296823107475976 2.13918490721162
0.0343924717277551 0.297786479329297 2.09840840320739
0.0524784062564341 0.289682339835066 2.15390191145189
0.0721564245078856 0.290937372452758 2.11074676413637
-0.174954743742068 0.0903376019494908 1.76430309435269
-0.152381874759093 0.0564912733004696 1.74809606686892
-0.106664147681439 0.0588130760042926 1.75568888611197
-0.0579160655228145 0.0546686995375532 1.76109900908265
-0.0130187880847791 0.0563965582236651 1.7685790369578
0.0323774756452251 0.0555751316547836 1.77505083699703
0.0784195935789325 0.051510396419194 1.7821474892108
-0.220012392074821 0.0981264052613995 1.77634130463041
-0.177484642295834 0.1247141463012 1.79220684751858
-0.131419921892066 0.100168234581748 1.77586458779162
-0.0804547075160535 0.0933105042166606 1.7795207289058
-0.036152532421989 0.0964405029384966 1.78949568013055
0.0083770178032968 0.0963378450696412 1.79723825483769
0.0535774877424248 0.0934744519752618 1.80290752668415
0.0970405167222805 0.0836535385528523 1.80968053889776
0.131692022361454 0.0856956952325974 1.83480008479401
-0.225012686838875 0.131440119015555 1.80948424911605
-0.18520056715965 0.15585648582169 1.82773200863977
-0.139283969341315 0.140237251757996 1.81370810301213
-0.100054664187135 0.124812173800373 1.80392391898272
-0.0572800078682156 0.129764629565575 1.81818762722048
-0.0135719727814133 0.130300889454819 1.82767249322808
0.0345595532555677 0.126647611184745 1.83319432166011
0.0844326080052179 0.118891687239109 1.83895665831184
0.129239651821151 0.11614043143031 1.86766359783788
-0.231915559947509 0.161369120537594 1.84604880561193
-0.186942827242278 0.185817336066706 1.86214153802336
-0.14088063284867 0.171763512412552 1.84995109002735
-0.0942487881199435 0.155954250082423 1.84106913890312
-0.0473276273926992 0.162284040629388 1.85792436814036
0.00288548210909929 0.158399556506481 1.86360009956981
0.0507071578478441 0.154339083402635 1.86859973822788
0.0928401601999012 0.146442214136083 1.8759068901757
0.128029641781226 0.148386109583174 1.90529681165447
-0.235450966190088 0.190475123547526 1.88032280620255
-0.189519446188258 0.214311073951082 1.89494399441284
-0.140554642769792 0.20354281189723 1.88687713160686
-0.0979613530435868 0.18652133938462 1.87576990365376
-0.0601191011054179 0.194694983038578 1.89292317805448
-0.0153855637133225 0.188999289020567 1.89538690166787
0.0326417101673632 0.185450946160891 1.9010089051844
0.0817238131381001 0.179076951496831 1.90841651377236
0.126944436168331 0.17733836800865 1.93909155085812
-0.238721490919088 0.218782913964521 1.91360645309865
-0.195909135465991 0.242445716541631 1.92775886913812
-0.145896626232806 0.233552897617698 1.92060112656195
-0.0966389953153039 0.221944809436458 1.91712563894556
-0.0450845724122535 0.222027847585505 1.9276745605397
0.00310446901486748 0.217496930781563 1.93219032506533
0.0495301084953827 0.214111309643426 1.93774106225369
0.0910599457284715 0.206842559215992 1.94623464522066
0.12609635207604 0.209046988057043 1.97644896728376
-0.243412632632459 0.249211992974634 1.94998900755846
-0.205634608962537 0.270959896307558 1.96240017020411
-0.158651975436457 0.265017298155639 1.95458027991339
-0.112018471076381 0.25537742292078 1.95278495973161
-0.0673448381044111 0.25107799584449 1.95685543008544
-0.0183518648489508 0.248892684735801 1.96425504074736
0.0304764217150301 0.24535685035285 1.97005359232875
0.0795974735652363 0.239605631328748 1.97857581227816
0.124476577552836 0.237430444907093 2.01002404573096
-0.239238257116582 0.281319648306838 1.99130946843586
-0.182741023075957 0.291667951757826 1.99226297902583
-0.133989535416448 0.285825219086202 1.99021676424907
-0.0893301598719296 0.28124232844493 1.99319602512114
-0.0444390132987641 0.277280712061327 1.99736529208018
0.00195486939027741 0.274331875760333 2.00368146999925
0.0470477601345105 0.271445824306861 2.00995875032887
0.087775241056768 0.264510081099 2.01945079888973
0.119693034099232 0.261865274985951 2.05258142793481
-0.214342252578587 0.301615387456693 2.02383352824403
-0.160191150830245 0.305162399003937 2.02960335627652
-0.11440036158753 0.301788915632325 2.03518276139451
-0.069313163199501 0.297960060930364 2.03888461095788
-0.0235331786792006 0.294085957496948 2.04273194222881
0.023631893492545 0.290961289115069 2.04966867543236
0.0705956699469099 0.28565125859126 2.05935561705398
3 0 1 2
3 0 2 4
3 3 0 4
3 3 4 6
3 5 3 6
3 5 6 8
3 7 5 8
3 7 8 10
3 9 7 10
3 9 10 12
3 11 9 12
3 13 11 14
3 14 11 12
3 13 14 15
3 16 17 18
3 16 18 1
3 0 19 1
3 19 16 1
3 0 3 20
3 19 0 20
3 3 5 21
3 20 3 21
3 5 7 22
3 21 5 22
3 7 9 23
3 22 7 23
3 9 11 24
3 23 9 24
3 24 11 25
3 25 11 13
3 13 15 26
3 27 13 26
3 25 13 27
3 27 26 28
3 17 16 30
3 30 16 29
3 29 19 31
3 29 16 19
3 31 20 32
3 31 19 20
3 32 21 33
3 32 20 21
3 21 22 33
3 33 22 34
3 22 23 34
3 34 23 35
3 23 24 35
3 35 24 36
3 24 25 36
3 36 25 37
3 37 27 38
3 37 25 27
3 38 28 39
3 38 27 28
3 30 40 41
3 30 29 40
3 29 31 42
3 40 29 42
3 31 32 43
3 42 31 43
3 32 33 44
3 43 32 44
3 33 34 45
3 44 33 45
3 34 35 46
3 45 34 46
3 35 36 47
3 46 35 47
3 36 37 47
3 47 37 48
3 37 38 48
3 48 38 49
3 49 39 50
3 49 38 39
3 40 51 52
3 41 40 52
3 51 42 53
3 51 40 42
3 42 43 53
3 53 43 54
3 43 44 54
3 54 44 55
3 44 45 55
3 55 45 56
3 45 46 56
3 56 46 57
3 46 47 58
3 57 46 58
3 47 48 59
3 58 47 59
3 48 49 60
3 59 48 60
3 49 50 61
3 60 49 61
3 51 62 63
3 52 51 63
3 51 53 64
3 62 51 64
3 53 54 65
3 64 53 65
3 54 55 66
3 65 54 66
3 55 56 67
3 66 55 67
3 56 57 67
3 67 57 68
3 57 58 69
3 68 57 69
3 58 59 69
3 69 59 70
3 59 60 70
3 70 60 71
3 71 61 72
3 71 60 61
3 62 73 74
3 63 62 74
3 62 64 75
3 73 62 75
3 64 65 75
3 75 65 76
3 65 66 76
3 76 66 77
3 66 67 77
3 77 67 78
3 67 68 78
3 78 68 79
3 79 69 80
3 79 68 69
3 80 70 81
3 80 69 70
3 81 71 82
3 81 70 71
3 82 72 83
3 82 71 72
3 74 73 85
3 85 73 84
3 84 73 86
3 86 73 75
3 75 76 86
3 86 76 87
3 76 77 88
3 87 76 88
3 77 78 89
3 88 77 89
3 78 79 90
3 89 78 90
3 79 80 91
3 90 79 91
3 80 81 92
3 91 80 92
3 81 82 93
3 92 81 93
3 93 83 94
3 93 82 83
3 84 95 85
3 84 86 96
3 97 84 96
3 95 84 97
3 96 87 98
3 96 86 87
3 87 88 98
3 98 88 99
3 88 89 99
3 99 89 100
3 89 90 100
3 100 90 101
3 101 91 102
3 101 90 91
3 102 92 103
3 102 91 92
3 92 93 103
3 105 103 104
3 103 93 104
3 93 94 104
3 96 106 97
3 96 98 107
3 106 96 107
3 98 99 108
3 107 98 108
3 99 100 109
3 108 99 109
3 100 101 110
3 109 100 110
3 101 102 111
3 110 101 111
3 111 102 112
3 112 102 103
3 103 105 112
3 117 114 115
3 116 113 117
3 117 113 114
3 116 117 119
3 118 116 119
3 118 119 121
3 120 118 121
3 120 121 123
3 122 120 123
3 122 123 125
3 124 122 125
3 124 125 127
3 126 124 127
3 126 127 128
3 129 130 131
3 114 129 131
3 114 113 129
3 113 2 129
3 129 2 1
3 4 113 116
3 4 2 113
3 6 116 118
3 6 4 116
3 8 118 120
3 8 6 118
3 10 120 122
3 10 8 120
3 12 122 124
3 12 10 122
3 14 124 126
3 14 12 124
3 133 126 128
3 15 14 126
3 15 126 133
3 132 15 133
3 132 133 134
3 135 136 137
3 137 17 135
3 137 18 17
3 18 137 130
3 129 18 130
3 18 129 1
3 15 132 26
3 139 132 134
3 139 138 132
3 138 28 26
3 132 138 26
3 138 139 140
3 136 135 142
3 142 135 141
3 17 30 135
3 135 30 141
3 143 39 28
3 138 143 28
3 143 140 144
3 143 138 140
3 141 145 146
3 142 141 146
3 41 145 141
3 30 41 141
3 147 39 143
3 147 50 39
3 147 144 148
3 147 143 144
3 145 149 150
3 146 145 150
3 52 149 145
3 41 52 145
3 151 50 147
3 151 155 50
3 151 148 152
3 151 147 148
3 149 153 154
3 150 149 154
3 63 153 149
3 52 63 149
3 155 61 50
3 155 72 61
3 155 151 156
3 156 151 152
3 154 157 158
3 154 153 157
3 74 157 153
3 63 74 153
3 159 72 155
3 159 83 72
3 159 156 160
3 159 155 156
3 158 157 162
3 162 157 161
3 74 85 161
3 157 74 161
3 163 83 159
3 163 94 83
3 163 160 164
3 163 159 160
3 161 165 162
3 165 95 166
3 165 161 95
3 161 85 95
3 165 166 167
3 95 97 166
3 105 104 168
3 170 94 163
3 170 168 94
3 169 168 170
3 94 168 104
3 163 164 170
3 166 171 167
3 173 171 172
3 172 171 106
3 171 97 106
3 171 166 97
3 172 107 174
3 172 106 107
3 174 108 175
3 174 107 108
3 175 109 176
3 175 108 109
3 176 110 177
3 176 109 110
3 177 111 178
3 177 110 111
3 178 112 180
3 178 111 112
3 181 105 168
3 181 180 105
3 179 178 180
3 180 112 105
3 168 169 181
3 172 182 173
3 182 172 183
3 183 172 174
3 174 175 184
3 183 174 184
3 175 176 185
3 184 175 185
3 176 177 186
3 185 176 186
3 177 178 187
3 186 177 187
3 187 179 188
3 187 178 179
3 179 180 229
3 189 190 191
3 114 131 191
3 115 114 191
3 115 191 192
3 115 192 193
3 117 115 193
3 119 193 194
3 119 117 193
3 119 194 121
3 121 194 195
3 121 195 123
3 123 195 196
3 123 196 125
3 125 196 197
3 127 197 198
3 127 125 197
3 128 198 199
3 200 128 199
3 128 127 198
3 200 199 201
3 202 203 204
3 131 130 189
3 190 189 204
3 189 130 202
3 189 202 204
3 131 189 191
3 128 200 133
3 134 200 205
3 206 205 201
3 134 133 200
3 205 200 201
3 205 206 207
3 136 208 203
3 202 137 136
3 202 136 203
3 137 202 130
3 134 205 139
3 139 205 207
3 140 139 207
3 211 207 209
3 136 142 208
3 208 142 210
3 211 140 207
3 211 144 140
3 146 212 210
3 142 146 210
3 148 144 213
3 213 144 211
3 150 214 212
3 146 150 212
3 215 148 213
3 215 152 148
3 154 216 150
3 150 216 214
3 219 152 217
3 217 152 215
3 158 218 216
3 154 158 216
3 219 156 152
3 219 160 156
3 158 220 218
3 158 162 220
3 221 160 219
3 221 164 160
3 162 165 222
3 223 220 222
3 220 162 222
3 165 167 222
3 169 170 224
3 225 164 221
3 224 170 164
3 224 164 225
3 222 226 223
3 167 171 227
3 226 167 227
3 226 227 228
3 226 222 167
3 171 173 227
3 180 181 229
3 181 169 230
3 231 169 224
3 230 169 231
3 230 229 181
3 224 225 271
3 227 232 228
3 232 182 233
3 232 173 182
3 227 173 232
3 182 183 234
3 233 182 234
3 183 184 234
3 234 184 235
3 184 185 235
3 235 185 236
3 185 186 236
3 236 186 237
3 186 187 237
3 237 187 238
3 238 188 239
3 238 187 188
3 188 179 229
3 240 239 188
3 240 188 229
3 229 230 240
3 191 190 242
3 242 190 241
3 192 242 243
3 192 191 242
3 192 243 244
3 193 192 244
3 194 244 245
3 194 193 244
3 194 245 246
3 195 194 246
3 195 246 247
3 196 195 247
3 196 247 248
3 197 196 248
3 197 248 249
3 198 197 249
3 199 198 249
3 250 199 249
3 201 199 251
3 251 199 250
3 204 252 253
3 204 203 252
3 190 253 241
3 190 204 253
3 206 251 254
3 206 201 251
3 207 206 255
3 255 206 254
3 203 256 252
3 203 208 256
3 257 209 255
3 255 209 207
3 210 258 208
3 208 258 256
3 211 209 259
3 259 209 257
3 212 260 210
3 210 260 258
3 213 211 259
3 261 213 259
3 214 262 260
3 212 214 260
3 215 213 261
3 263 215 261
3 216 264 214
3 214 264 262
3 217 215 263
3 265 217 263
3 218 266 264
3 216 218 264
3 219 217 265
3 267 219 265
3 218 268 266
3 218 220 268
3 221 219 267
3 269 221 267
3 223 270 268
3 220 223 268
3 225 221 269
3 271 225 269
3 223 226 272
3 270 223 272
3 272 228 273
3 272 226 228
3 274 231 275
3 274 230 231
3 275 231 271
3 271 231 224
3 273 228 276
3 276 228 232
3 276 233 277
3 276 232 233
3 233 234 278
3 277 233 278
3 234 235 279
3 278 234 279
3 235 236 280
3 279 235 280
3 236 237 281
3 280 236 281
3 237 238 282
3 281 237 282
3 238 239 283
3 282 238 283
3 327 239 284
3 284 239 240
3 240 230 274
3 284 240 274
3 241 285 286
3 242 241 286
3 242 286 243
3 243 286 287
3 243 287 288
3 244 243 288
3 245 288 289
3 245 244 288
3 245 289 246
3 246 289 290
3 246 290 247
3 247 290 291
3 247 291 248
3 248 291 292
3 248 292 293
3 249 248 293
3 249 293 250
3 250 293 294
3 250 294 295
3 251 250 295
3 252 296 297
3 253 252 297
3 241 297 285
3 241 253 297
3 254 295 298
3 254 251 295
3 254 298 299
3 255 254 299
3 256 300 252
3 252 300 296
3 257 255 299
3 301 257 299
3 258 302 300
3 256 258 300
3 259 257 303
3 303 257 301
3 260 304 258
3 258 304 302
3 261 259 303
3 305 261 303
3 262 306 304
3 260 262 304
3 263 261 305
3 307 263 305
3 264 308 262
3 262 308 306
3 265 263 307
3 309 265 307
3 266 310 308
3 264 266 308
3 267 265 309
3 311 267 309
3 266 312 310
3 266 268 312
3 269 267 311
3 313 269 311
3 270 314 312
3 268 270 312
3 271 269 315
3 315 269 313
3 270 272 316
3 314 270 316
3 316 273 317
3 316 272 273
3 318 275 319
3 318 274 275
3 275 271 315
3 319 275 315
3 273 276 320
3 317 273 320
3 276 277 320
3 320 277 321
3 277 278 322
3 321 277 322
3 322 279 323
3 322 278 279
3 279 280 323
3 323 280 324
3 280 281 324
3 324 281 325
3 281 282 325
3 325 282 326
3 282 283 326
3 326 283 327
3 283 239 327
3 327 284 328
3 284 274 318
3 328 284 318
3 285 329 330
3 286 285 330
3 286 330 287
3 287 330 331
3 287 331 332
3 288 287 332
3 288 332 289
3 289 332 333
3 289 333 334
3 290 289 334
3 290 334 335
3 291 290 335
3 291 335 292
3 292 335 336
3 292 336 337
3 293 292 337
3 293 337 294
3 294 337 338
3 294 338 339
3 295 294 339
3 296 340 341
3 297 296 341
3 285 341 329
3 285 297 341
3 298 339 342
3 298 295 339
3 298 342 343
3 299 298 343
3 300 344 296
3 296 344 340
3 301 299 343
3 345 301 343
3 302 346 344
3 300 302 344
3 303 301 347
3 347 301 345
3 304 348 302
3 302 348 346
3 305 303 347
3 349 305 347
3 306 350 348
3 304 306 348
3 307 305 351
3 351 305 349
3 308 352 306
3 306 352 350
3 309 307 353
3 353 307 351
3 310 354 352
3 308 310 352
3 311 309 355
3 355 309 353
3 312 356 310
3 310 356 354
3 313 311 355
3 357 313 355
3 314 358 356
3 312 314 356
3 315 313 359
3 359 313 357
3 314 316 360
3 358 314 360
3 360 317 361
3 360 316 317
3 362 319 363
3 362 318 319
3 319 315 359
3 363 319 359
3 317 320 364
3 361 317 364
3 320 321 364
3 364 321 365
3 321 322 366
3 365 321 366
3 322 323 366
3 366 323 367
3 323 324 368
3 367 323 368
3 324 325 369
3 368 324 369
3 325 326 370
3 369 325 370
3 326 327 371
3 370 326 371
3 327 328 371
3 371 328 372
3 328 318 362
3 372 328 362
3 329 373 374
3 330 329 374
3 330 374 331
3 331 374 375
3 331 375 376
3 332 331 376
3 332 376 333
3 333 376 377
3 333 377 378
3 334 333 378
3 334 378 379
3 335 334 379
3 335 379 336
3 336 379 380
3 336 380 381
3 337 336 381
3 337 381 338
3 338 381 382
3 338 382 383
3 339 338 383
3 340 384 385
3 341 340 385
3 329 385 373
3 329 341 385
3 342 383 386
3 342 339 383
3 342 386 387
3 343 342 387
3 344 388 340
3 340 388 384
3 345 343 387
3 389 345 387
3 346 390 388
3 344 346 388
3 347 345 391
3 391 345 389
3 348 392 346
3 346 392 390
3 349 347 391
3 393 349 391
3 350 394 348
3 348 394 392
3 351 349 395
3 395 349 393
3 352 396 350
3 350 396 394
3 353 351 395
3 397 353 395
3 354 398 396
3 352 354 396
3 355 353 399
3 399 353 397
3 356 400 354
3 354 400 398
3 357 355 399
3 401 357 399
3 358 402 400
3 356 358 400
3 359 357 403
3 403 357 401
3 358 360 404
3 402 358 404
3 404 361 405
3 404 360 361
3 406 363 407
3 406 362 363
3 363 359 403
3 407 363 403
3 361 364 408
3 405 361 408
3 364 365 408
3 408 365 409
3 365 366 410
3 409 365 410
3 366 367 410
3 410 367 411
3 367 368 412
3 411 367 412
3 368 369 412
3 412 369 413
3 369 370 413
3 413 370 414
3 370 371 415
3 414 370 415
3 371 372 415
3 415 372 416
3 372 362 406
3 416 372 406
3 373 417 418
3 374 373 418
3 374 418 375
3 375 418 419
3 375 419 420
3 376 375 420
3 376 420 377
3 377 420 421
3 377 421 422
3 378 377 422
3 378 422 423
3 379 378 423
3 380 423 424
3 380 379 423
3 380 424 425
3 381 380 425
3 382 425 426
3 382 381 425
3 382 426 427
3 383 382 427
3 384 428 429
3 385 384 429
3 373 429 417
3 373 385 429
3 386 427 430
3 386 383 427
3 386 430 431
3 387 386 431
3 384 432 428
3 384 388 432
3 389 387 431
3 433 389 431
3 390 434 432
3 388 390 432
3 435 389 433
3 435 391 389
3 390 436 434
3 390 392 436
3 393 391 435
3 437 393 435
3 394 438 436
3 392 394 436
3 395 393 439
3 439 393 437
3 396 440 438
3 394 396 438
3 397 395 439
3 441 397 439
3 398 442 440
3 396 398 440
3 399 397 443
3 443 397 441
3 400 444 398
3 398 444 442
3 401 399 443
3 445 401 443
3 402 446 444
3 400 402 444
3 403 401 447
3 447 401 445
3 402 404 448
3 446 402 448
3 448 405 449
3 448 404 405
3 450 407 451
3 450 406 407
3 407 403 447
3 451 407 447
3 405 408 452
3 449 405 452
3 408 409 452
3 452 409 453
3 409 410 454
3 453 409 454
3 410 411 454
3 454 411 455
3 411 412 456
3 455 411 456
3 412 413 456
3 456 413 457
3 457 414 458
3 457 413 414
3 414 415 459
3 458 414 459
3 415 416 459
3 459 416 460
3 416 406 450
3 460 416 450
3 418 461 462
3 418 417 461
3 419 462 463
3 419 418 462
3 419 463 464
3 420 419 464
3 420 464 421
3 421 464 465
3 421 465 466
3 422 421 466
3 422 466 467
3 423 422 467
3 424 467 468
3 424 423 467
3 424 468 469
3 425 424 469
3 426 469 470
3 426 425 469
3 427 426 471
3 471 426 470
3 429 428 473
3 473 428 472
3 417 473 505
3 417 429 473
3 430 427 471
3 520 430 471
3 431 474 475
3 431 430 474
3 428 476 472
3 428 432 476
3 433 431 475
3 477 433 475
3 434 478 476
3 432 434 476
3 479 433 477
3 479 435 433
3 434 480 478
3 434 436 480
3 437 435 479
3 481 437 479
3 438 482 436
3 436 482 480
3 439 437 483
3 483 437 481
3 440 484 482
3 438 440 482
3 441 439 483
3 485 441 483
3 442 486 440
3 440 486 484
3 443 441 487
3 487 441 485
3 444 488 442
3 442 488 486
3 445 443 487
3 489 445 487
3 444 446 488
3 488 446 490
3 491 445 489
3 491 447 445
3 490 446 492
3 492 446 448
3 492 449 493
3 492 448 449
3 494 451 495
3 494 450 451
3 451 447 491
3 495 451 491
3 449 452 496
3 493 449 496
3 496 453 497
3 496 452 453
3 453 454 498
3 497 453 498
3 498 455 499
3 498 454 455
3 455 456 500
3 499 455 500
3 456 457 501
3 500 456 501
3 457 458 502
3 501 457 502
3 458 459 503
3 502 458 503
3 503 460 504
3 503 459 460
3 504 460 494
3 494 460 450
3 461 505 506
3 462 461 506
3 507 463 462
3 507 462 506
3 465 463 508
3 508 463 507
3 464 463 465
3 465 508 509
3 465 509 466
3 466 509 510
3 466 510 467
3 467 510 511
3 467 511 468
3 468 511 512
3 468 512 513
3 469 468 513
3 469 513 470
3 515 470 514
3 470 513 514
3 470 515 471
3 472 516 473
3 518 516 517
3 518 505 516
3 461 417 505
3 505 473 516
3 505 518 506
3 515 514 519
3 474 430 520
3 521 520 519
3 520 471 515
3 520 515 519
3 474 520 524
3 476 522 472
3 516 472 523
3 472 522 523
3 516 523 517
3 520 521 524
3 477 475 524
3 524 475 474
3 525 477 524
3 478 526 522
3 476 478 522
3 527 477 525
3 527 479 477
3 478 528 526
3 478 480 528
3 481 479 527
3 529 481 527
3 482 530 480
3 480 530 528
3 483 481 531
3 531 481 529
3 484 532 530
3 482 484 530
3 485 483 531
3 533 485 531
3 486 534 484
3 484 534 532
3 535 485 533
3 535 487 485
3 486 536 534
3 486 488 536
3 537 489 535
3 535 489 487
3 490 538 539
3 536 490 539
3 488 490 536
3 538 540 539
3 541 542 543
3 541 489 537
3 542 541 537
3 541 491 489
3 490 492 538
3 545 493 544
3 538 492 493
3 538 493 545
3 540 538 545
3 544 546 545
3 547 548 549
3 543 495 541
3 547 494 495
3 547 495 543
3 608 547 543
3 495 491 541
3 493 496 544
3 544 497 550
3 546 544 550
3 544 496 497
3 550 497 551
3 551 497 498
3 498 499 551
3 551 499 552
3 499 500 552
3 552 500 553
3 500 501 553
3 553 501 554
3 554 502 555
3 554 501 502
3 502 503 556
3 555 502 556
3 503 504 556
3 549 504 547
3 556 504 549
3 504 494 547
3 506 557 507
3 507 557 558
3 508 507 558
3 508 558 559
3 509 508 559
3 509 559 560
3 510 509 560
3 510 560 561
3 511 510 561
3 511 561 562
3 512 511 562
3 514 512 563
3 563 512 562
3 513 512 514
3 517 564 518
3 518 564 557
3 566 564 565
3 557 564 566
3 557 506 518
3 558 566 567
3 558 557 566
3 559 567 568
3 559 558 567
3 560 568 569
3 560 559 568
3 561 569 570
3 561 560 569
3 562 570 571
3 562 561 570
3 563 562 571
3 572 563 571
3 574 514 563
3 572 574 563
3 573 519 574
3 574 519 514
3 519 573 521
3 522 575 523
3 577 575 576
3 577 517 575
3 564 517 577
3 575 517 523
3 564 577 565
3 573 574 572
3 521 573 579
3 580 573 578
3 579 573 580
3 579 524 521
3 524 579 525
3 522 581 575
3 522 526 581
3 576 581 582
3 576 575 581
3 583 580 584
3 583 579 580
3 583 525 579
3 583 527 525
3 526 585 581
3 526 528 585
3 582 585 586
3 582 581 585
3 587 584 588
3 587 583 584
3 587 527 583
3 587 529 527
3 528 589 585
3 528 530 589
3 586 589 590
3 586 585 589
3 591 588 592
3 591 587 588
3 591 529 587
3 591 531 529
3 532 593 589
3 530 532 589
3 590 593 594
3 590 589 593
3 595 592 596
3 595 591 592
3 595 531 591
3 595 533 531
3 534 597 593
3 532 534 593
3 594 597 598
3 594 593 597
3 599 596 600
3 599 595 596
3 599 533 595
3 599 535 533
3 534 601 597
3 534 536 601
3 602 597 601
3 602 598 597
3 603 599 600
3 604 603 600
3 603 535 599
3 603 537 535
3 536 539 601
3 606 540 605
3 606 602 540
3 602 601 539
3 540 602 539
3 605 607 606
3 608 609 610
3 608 543 609
3 604 542 603
3 609 543 542
3 609 542 604
3 542 537 603
3 540 545 605
3 605 546 607
3 612 607 611
3 605 545 546
3 607 546 611
3 612 613 614
3 612 611 613
3 614 615 616
3 614 613 615
3 616 617 618
3 616 615 617
3 618 619 620
3 618 617 619
3 620 621 622
3 620 619 621
3 622 623 624
3 622 621 623
3 610 548 608
3 624 623 548
3 624 548 610
3 548 623 549
3 548 547 608
3 546 550 611
3 611 550 613
3 613 550 551
3 551 552 615
3 613 551 615
3 552 553 617
3 615 552 617
3 553 554 619
3 617 553 619
3 554 555 621
3 619 554 621
3 621 555 623
3 623 555 556
3 556 549 623
3 565 625 626
3 567 566 626
3 626 566 565
3 567 626 627
3 568 567 627
3 568 627 628
3 569 568 628
3 569 628 629
3 570 569 629
3 570 629 630
3 571 570 630
3 572 571 631
3 631 571 630
3 572 631 578
3 576 632 577
3 625 632 633
3 565 577 632
3 565 632 625
3 625 633 634
3 626 625 634
3 626 634 627
3 627 634 635
3 627 635 628
3 628 635 636
3 628 636 629
3 629 636 637
3 629 637 630
3 630 637 638
3 631 638 639
3 631 630 638
3 640 578 639
3 578 573 572
3 578 631 639
3 578 640 580
3 576 641 632
3 576 582 641
3 633 641 642
3 633 632 641
3 633 642 643
3 634 633 643
3 634 643 644
3 635 634 644
3 635 644 645
3 636 635 645
3 636 645 646
3 637 636 646
3 637 646 647
3 638 637 647
3 638 647 648
3 639 638 648
3 640 648 649
3 640 639 648
3 584 580 640
3 649 584 640
3 582 650 641
3 582 586 650
3 642 650 651
3 642 641 650
3 642 651 652
3 643 642 652
3 643 652 653
3 644 643 653
3 644 653 645
3 645 653 654
3 645 654 646
3 646 654 655
3 646 655 647
3 647 655 656
3 647 656 648
3 648 656 657
3 648 657 649
3 649 657 658
3 588 584 649
3 658 588 649
3 586 659 650
3 586 590 659
3 650 659 651
3 651 659 660
3 651 660 661
3 652 651 661
3 652 661 662
3 653 652 662
3 653 662 654
3 654 662 663
3 654 663 664
3 655 654 664
3 655 664 665
3 656 655 665
3 656 665 666
3 657 656 666
3 657 666 658
3 658 666 667
3 592 588 658
3 667 592 658
3 590 668 659
3 590 594 668
3 660 668 669
3 660 659 668
3 660 669 670
3 661 660 670
3 661 670 671
3 662 661 671
3 662 671 663
3 663 671 672
3 663 672 664
3 664 672 673
3 664 673 665
3 665 673 674
3 665 674 666
3 666 674 675
3 666 675 667
3 667 675 676
3 596 592 667
3 676 596 667
3 594 677 668
3 594 598 677
3 668 677 669
3 669 677 678
3 669 678 679
3 670 669 679
3 670 679 680
3 671 670 680
3 671 680 681
3 672 671 681
3 672 681 682
3 673 672 682
3 673 682 683
3 674 673 683
3 674 683 684
3 675 674 684
3 676 684 685
3 676 675 684
3 600 596 676
3 685 600 676
3 598 686 677
3 598 602 606
3 678 686 687
3 678 677 686
3 678 687 679
3 679 687 688
3 679 688 680
3 680 688 689
3 680 689 681
3 681 689 690
3 681 690 682
3 682 690 691
3 683 691 692
3 683 682 691
3 684 692 693
3 684 683 692
3 685 693 694
3 685 684 693
3 694 604 685
3 685 604 600
3 598 606 686
3 606 607 695
3 686 606 695
3 686 695 687
3 688 687 696
3 696 687 695
3 688 696 697
3 689 688 697
3 689 697 698
3 690 689 698
3 690 698 699
3 691 690 699
3 691 699 700
3 692 691 700
3 692 700 701
3 693 692 701
3 610 609 694
3 701 610 694
3 701 694 693
3 609 604 694
3 607 612 695
3 695 612 696
3 696 612 614
3 614 616 697
3 696 614 697
3 616 618 698
3 697 616 698
3 618 620 699
3 698 618 699
3 620 622 700
3 699 620 700
3 622 624 701
3 700 622 701
3 624 610 701
