OFF
702 1400 0
-0.254787089841936 -0.338234723223171 2.15750610012835
-0.300275264062786 -0.324418492436322 2.13995872690903
-0.27201234549556 -0.343067939839248 2.11210608269653
-0.207873778496003 -0.344621568969308 2.16210525678741
-0.226004239409364 -0.353604477881756 2.11715624521274
-0.161034668629783 -0.349028212665314 2.16518503101236
-0.179585745565099 -0.357568360474018 2.11922439511657
-0.115631816929229 -0.352820082071468 2.16947900829038
-0.134232948886245 -0.361324134366281 2.12099781578767
-0.0707158218605357 -0.356427468084593 2.17413307652596
-0.0894520152432309 -0.364732566818418 2.12557591105527
-0.0232002222765033 -0.359309207259084 2.18170886463678
-0.0436488036188457 -0.36786140182949 2.13401243903574
0.024868225289366 -0.354718066178655 2.19017325434821
0.00367205146899517 -0.369299980418574 2.14300852715217
0.050124908646033 -0.360279511398505 2.15198884389201
-0.323090738587269 -0.29660894919865 2.16877840095532
-0.352907314354321 -0.27886608234646 2.14168892057284
-0.331506205175006 -0.308114103666995 2.11261583880072
-0.282560954484388 -0.312723527261297 2.18817657541677
-0.235817770893587 -0.321673556584961 2.20001108448568
-0.188088342680619 -0.326720907695352 2.20375821862147
-0.141297416444734 -0.330429151686133 2.20906532268044
-0.0960613888592114 -0.333608454327556 2.21483190060813
-0.0517306419879562 -0.338713801367395 2.21731142928099
-0.00308303264339929 -0.339315117323465 2.22458070663024
0.0707165571063116 -0.33835627391188 2.1962048177792
0.0420212222927657 -0.327025851377186 2.23261130306856
0.0879862278140178 -0.306504900824952 2.23075591958689
-0.310311578134664 -0.276560067852051 2.21077790147469
-0.350550169143252 -0.255778998857164 2.18318639216343
-0.264271524506008 -0.290067903914876 2.2280728508175
-0.214292711993575 -0.296238268580616 2.23603787208168
-0.166669952686972 -0.300339952119254 2.24120007250148
-0.119037657828555 -0.302581993968652 2.24836793960867
-0.0743201510036583 -0.305124222062583 2.25462496044001
-0.0320157392684254 -0.314150437550949 2.25341418932479
0.00926194281630244 -0.305828580394033 2.26425549967788
0.0548299053461619 -0.292131007652929 2.2659767288548
0.0995005890439862 -0.269384342167714 2.2599404222628
-0.328819355560626 -0.239878395024064 2.23219528558881
-0.362086098364139 -0.218064152672372 2.20614629545739
-0.287773750705692 -0.25495468316001 2.25307103812937
-0.238705515183564 -0.265457709727573 2.26409190042168
-0.189933430349007 -0.267436139614469 2.27195842233885
-0.142455537003343 -0.271953653983396 2.27664443731795
-0.090958604976342 -0.272619923564125 2.28628597504034
-0.0360484310100609 -0.281643208688632 2.28761338023642
0.0143359231302183 -0.2741797398363 2.29710798104726
0.0647116374275698 -0.258280105137301 2.29613688760685
0.109298116471817 -0.231716241771898 2.28880138090716
-0.313090456735046 -0.216537525364146 2.27524122314688
-0.353650668280572 -0.198317674297185 2.2445076107253
-0.263758455129769 -0.23370634698501 2.28981287095239
-0.216343587132192 -0.235882257182507 2.30063052451427
-0.170799516675369 -0.236758509369707 2.30884880841836
-0.126805643706899 -0.244294614870196 2.30958254005846
-0.0933815037828684 -0.232523265363622 2.32898378172318
-0.0584135838367734 -0.251274255643977 2.31582313477291
-0.0161281741142787 -0.247705361644136 2.32676497987411
0.0317314442788854 -0.240869381423328 2.32826978241312
0.0796607391503911 -0.221648378004408 2.32451031600283
-0.31655124873618 -0.176892444100095 2.31626552004874
-0.344553238614404 -0.178551185317148 2.28134512839236
-0.283484281748598 -0.202941830252602 2.31311866601339
-0.236409006974752 -0.205321113632031 2.32950269584635
-0.19167979432536 -0.203990654947928 2.33994151749706
-0.142740714522356 -0.208715061941226 2.34469755803483
-0.0973563206808385 -0.202928474967395 2.36005998469315
-0.0498544781050216 -0.215875309304932 2.35567122136635
-0.00183613909397129 -0.215466489510373 2.36109958410252
0.045887580505578 -0.207754649058336 2.35783116515356
0.0932129507419939 -0.185123377473608 2.35124090131632
-0.306127233100644 -0.153110165946756 2.35206262770938
-0.350297321527961 -0.139951669151278 2.31714506215268
-0.267296181510211 -0.177256769656311 2.34978784515387
-0.221382122359992 -0.171109447003304 2.36937959580434
-0.171319793179893 -0.175384000535921 2.37484715633534
-0.125527865632334 -0.175034608872703 2.38443595766527
-0.0739758204640614 -0.178833534202497 2.39071439555276
-0.028992731543112 -0.185094768179229 2.39264843981766
0.0173622093848863 -0.181914008131907 2.39397729574783
0.0612547970841505 -0.174168451338919 2.38516619643906
0.097483850363517 -0.148218272731002 2.38466687219766
-0.301615741812094 -0.114086412745612 2.38870303141143
-0.335394861883596 -0.122332055783714 2.35534548335881
-0.267993278253425 -0.143977015148034 2.38362904705333
-0.233495731528827 -0.132260708348495 2.40171923298281
-0.190707202937347 -0.140598895369572 2.40323606625564
-0.145588490362888 -0.14070884983074 2.41103258308303
-0.0983631581685883 -0.14394708880865 2.41694200246737
-0.0497321016339628 -0.147951981726009 2.42255545256927
-0.00142830522911484 -0.150831241263741 2.42425689266325
0.0501243942542184 -0.144669961670503 2.41681608062725
0.0973030034667926 -0.113064494003031 2.40977147124932
-0.343020919991796 -0.0834772228794437 2.3731080860879
-0.26453862698132 -0.0950454973938598 2.41504879593617
-0.308211791691234 -0.0705558039887117 2.40464222079626
-0.215073804570605 -0.0956003437217187 2.42435757944578
-0.169012029394729 -0.10025396091994 2.42943313819528
-0.122331827417571 -0.10118759634407 2.43610705513112
-0.0765061364352413 -0.105711449905973 2.44120979203816
-0.02981079962347 -0.110134980098116 2.44619796301302
0.016866213899065 -0.111552732106376 2.44418089289521
0.06117997491472 -0.10487587891455 2.43418204670667
0.0427099722386693 -0.0664512801063705 2.45156588323883
-0.281486846921558 -0.04379951546431 2.42319052523243
-0.238999785145357 -0.0529409615683463 2.43302264879514
-0.189959577663423 -0.0547363939585512 2.43928516567424
-0.144198896405041 -0.0558106160618927 2.44518440652721
-0.0979062054405915 -0.0572007489013619 2.45108220535039
-0.0533039415026005 -0.0638548203584353 2.45599052264351
-0.00557159669428928 -0.068094977246113 2.45894040275435
-0.249964933123942 -0.349900574210983 2.07273652841587
-0.273779002140935 -0.33531397972301 2.03753499499618
-0.250225194056184 -0.32765285893652 2.00016836691709
-0.200319293315996 -0.356199704898402 2.07332129729543
-0.221934705927978 -0.346447345441074 2.0324106550415
-0.154249486902977 -0.358887029052144 2.07269351551831
-0.173772882456456 -0.346616556561436 2.02693584331007
-0.108823419525773 -0.36184891965215 2.07525642572262
-0.128454645759176 -0.348164988613766 2.02767653138783
-0.0634855242070376 -0.365543265457864 2.08297045852883
-0.0808685137263383 -0.351864396794946 2.03383512629758
-0.0185654097455186 -0.36951016954245 2.09336586134679
-0.0351390427821182 -0.356681373438865 2.04304508374448
0.027474186820593 -0.368194418680892 2.10201090690479
0.00908167621142796 -0.361020057635908 2.05435042036628
0.0569623222666947 -0.354179207061283 2.06357650803907
-0.30161551836484 -0.329972638270901 2.08088089232232
-0.340180479994049 -0.299265764107384 2.06547405261901
-0.310523305068247 -0.314143157580053 2.03278765372161
0.094771921429802 -0.340034361508552 2.15671270125854
0.0705852692106951 -0.356561231123596 2.11160531738229
0.11017808717899 -0.335058246426749 2.11414044192689
-0.378301461988507 -0.243078229581409 2.13276959720163
-0.388603305559894 -0.229594655728719 2.08344432550253
-0.36569613768044 -0.272292552799522 2.09554237305053
0.115719785221955 -0.312433573313303 2.19094191222733
0.136354352214565 -0.309835832868842 2.14667779547786
0.153339294680321 -0.279106195507995 2.17466188367287
-0.380567728136503 -0.21513946618045 2.16485568874253
-0.396421943362297 -0.198106542239298 2.11888304466381
0.12949916493386 -0.277252581848211 2.21997240716435
0.160487158404487 -0.240466382386371 2.20614602619107
-0.38443620166846 -0.177327461070522 2.19953608474805
-0.397089425682205 -0.169057641287642 2.1559400068417
0.137225840117649 -0.237524221820795 2.24888909940493
0.166789752633326 -0.199136192724395 2.23131933583625
-0.37899894610023 -0.159086736482166 2.2377502772474
-0.39948977750153 -0.129825516354893 2.19613617109159
0.145759002187379 -0.197057507385346 2.27527100809046
0.171086504890534 -0.15783440092322 2.25850078107105
-0.371207138648708 -0.141891319549068 2.27706040146668
-0.395044907066134 -0.113046176276475 2.2418138247895
0.122492229687278 -0.191212128872717 2.31461095247873
0.154939740341566 -0.152599708259021 2.30133132821105
-0.385076678197348 -0.10225260922776 2.29010325582346
-0.403386615764335 -0.0673173864188237 2.25959039305081
0.129782315481043 -0.151972492841697 2.34403204789125
0.159920649611661 -0.113267332249009 2.32796060986208
-0.369634353781095 -0.0955544372601476 2.33177648378718
-0.393945967605583 -0.0571841265887154 2.30720444347249
0.133122449818919 -0.115361029081485 2.37317667447901
0.156745772920286 -0.076994968774765 2.36035504325714
-0.372619639198712 -0.050843418776193 2.35026044307903
-0.340614136826171 -0.0402601832813341 2.38806562148545
-0.360430926784141 -0.00645283172425494 2.36913403102248
0.0899368513008147 -0.0666593677577631 2.4308833505221
0.113185112193603 -0.0269062099887496 2.41760561517857
0.126757778329539 -0.0739843095068938 2.40033495671625
-0.315228172366782 -0.0130567706402712 2.40791498770069
-0.262818929570873 -0.00275820576929089 2.43008141278815
-0.2947995551505 0.0257366154208566 2.41326681407521
-0.213225991257696 -0.0114629203910758 2.43874790422464
-0.16599091584223 -0.00856663659902933 2.4440428315793
-0.119391036300781 -0.00996017137065856 2.44950236723379
-0.0725772854382021 -0.0114191284093551 2.45497106721968
-0.0296101827161562 -0.0221742645237755 2.46072452442674
-0.00421485278183471 0.0144292137901708 2.45562909217349
0.0210794557201886 -0.0256934362369185 2.45891303038974
0.0698169120519307 -0.0249572338623731 2.44409196597536
-0.261365226032498 0.0550419685283002 2.41614465609261
-0.229735552349479 0.031148595102052 2.43030981878209
-0.18563148959374 0.0364766629222439 2.43316110230733
-0.13954985942912 0.0364910504155419 2.43762658239027
-0.0928741613416255 0.034467830783962 2.44278682466826
-0.0444778304196803 0.0327289603976573 2.44799865333708
0.0113642630809093 0.0518569963464354 2.44071990789479
-0.338259110612156 -0.282482935035112 2.01635251136643
-0.321947606561059 -0.268811428412697 1.97743150901212
-0.29129547597555 -0.304678237841975 1.99116850143888
-0.242464602510658 -0.305111339677501 1.96430370210116
-0.200508192977188 -0.328725455116508 1.99036259131565
-0.149976831317639 -0.324267192062606 1.98373838733524
-0.100002470273606 -0.329429939226133 1.99188134441275
-0.0479530511130444 -0.333487608091685 1.99845357116064
-0.0026518903712958 -0.339051047086435 2.00724625971432
0.0414337542119916 -0.342392041941735 2.02335616300555
0.0838313384798358 -0.324270045804391 2.02243746106849
0.0965077510908244 -0.337698333186322 2.07046746627674
0.123094977929658 -0.311475788151669 2.0525560685109
-0.368204376746254 -0.260334185849955 2.04957381264574
-0.385890968673956 -0.214000428273598 2.03636185526471
-0.362386812955335 -0.240895763948118 2.00634879077756
0.139678699336613 -0.308477975357056 2.097133166978
0.155597739974684 -0.279875080275023 2.06568755472303
0.165536812067126 -0.276303240455219 2.12085026741234
-0.400180901615668 -0.18084980419943 2.0726641019447
0.185265768997691 -0.23409233408729 2.1179793658066
-0.403251000571026 -0.149698925040008 2.10508395263836
0.17725889532716 -0.241665356277934 2.16051420585478
-0.404325585648908 -0.127297273264462 2.1477113696213
0.182812948335516 -0.199510385580794 2.18405483173226
-0.406450184884414 -0.0874002735962916 2.16301483333271
0.18532432031752 -0.15912812139464 2.20781541169083
-0.406450781260598 -0.0793411201677855 2.2102036152905
0.185888206762867 -0.12161779318751 2.23486316457107
-0.409658573966984 -0.0315640447321927 2.22835447058095
0.178015155344632 -0.10875435710867 2.2802149792383
-0.4058938045315 -0.0202890770922063 2.27866449448091
0.178130285438186 -0.0696201870249556 2.31278146868559
-0.389137010382416 -0.0115458618559937 2.32664794695339
-0.395550823743342 0.0255762395653098 2.2974395717463
0.146456744940443 -0.0323069705397457 2.38378786703015
0.170813662608772 -0.0362452237893611 2.34279779363377
-0.371872252182955 0.0317616309385391 2.34358172072551
-0.337114580120284 0.0277428505860187 2.38489068468326
-0.344062036184217 0.0690540851538793 2.35687699100108
0.0456774368930746 0.0160457500707054 2.4465524410593
0.0921708277759522 0.0157528215450178 2.42497901995622
0.131099203236275 0.0134756304898633 2.39300373686258
-0.307317788268765 0.0656682131806771 2.3903546906698
-0.266804888171951 0.0924076385456916 2.39343820650312
-0.214342507870601 0.0767988129816129 2.41324299672232
-0.165305984336775 0.0789018508715363 2.41583810526535
-0.117967071022623 0.0778326469486402 2.42006572672505
-0.0706109369022972 0.0746783908384086 2.42556655862293
-0.0246258754307798 0.0752971418539574 2.42853941543777
0.0290297833085108 0.0863061684906487 2.41583754609639
0.0627548979530418 0.0544980977290755 2.42457479838987
-0.310614329241841 -0.237340778582085 1.94182293909637
-0.279205537714719 -0.276514674610809 1.95163152950154
-0.230716829462132 -0.273831509182381 1.9314201992069
-0.193462619651104 -0.301889618029702 1.95501404696999
-0.149790201775211 -0.290033331296835 1.94564941933289
-0.10957351316178 -0.297686367480405 1.95488846734355
-0.0625783600802148 -0.306413936695082 1.96555287433332
-0.00641038993290821 -0.307538768022161 1.96941796851288
0.0411153647538474 -0.316933929715722 1.98689696105267
0.0863843677225688 -0.293263605429373 1.98581611906746
0.124354039910214 -0.288514728892133 2.01799787929895
-0.374062545768307 -0.188723573909431 1.99211320256185
-0.346257589646464 -0.226577806137219 1.97136391032074
0.157131623050095 -0.252301206217965 2.02786436474391
0.177318813292742 -0.244043743172107 2.07599923534884
-0.393142060603892 -0.16640371471549 2.03160182624262
0.193876601348457 -0.196133934393174 2.08965983897636
-0.398450667017731 -0.12530732117336 2.06031269337988
0.192838803304664 -0.193067581877199 2.13935762407256
-0.402389050558435 -0.101191435995958 2.10767557815474
0.193538463030431 -0.150412533863215 2.16085104074355
-0.401501969164983 -0.0574492037151779 2.12723627769989
0.193267195771524 -0.110982934686834 2.18732586410206
-0.406434828697814 -0.0412387832944235 2.17802510445945
0.190209106910017 -0.0794412102578856 2.23198767377837
-0.405264833436603 0.00426749276965768 2.19626443983298
0.187114828627658 -0.0574571820178176 2.27106410344193
-0.406738109045958 0.0153618046376614 2.247480334916
0.182249273809184 -0.0134271744585628 2.30587303134327
-0.391661343304304 0.0605940480838038 2.26594901485259
0.160980546952044 0.00687626196622785 2.35317255964135
-0.372961866229293 0.0682971439470137 2.31346302431552
-0.340065393807923 0.105367131105917 2.32531970847547
0.105101002955587 0.0550444995440944 2.39693922243839
0.140403320232254 0.0502940614153966 2.36083722516009
-0.306183490067045 0.103812084125149 2.36233536965802
-0.262591052761673 0.130072343476346 2.36091230269367
-0.227031557068124 0.111917928708621 2.38743837378348
-0.182122621997688 0.115687089111633 2.38664581672196
-0.138007032496021 0.116078802509121 2.38853852101334
-0.0912927320946807 0.112212791679296 2.39455889087548
-0.047992196525232 0.112007168439806 2.39697062313307
-0.00538511399361918 0.110093728501961 2.40040583182376
0.0722734483295794 0.0919582494898262 2.39267744778217
-0.307109817591237 -0.203186529466149 1.91259624288524
-0.268679983230303 -0.242247660775725 1.91764165077828
-0.221733772126059 -0.239846114448964 1.89934085188326
-0.18213515867099 -0.265616435902984 1.92108792369977
-0.128277388478108 -0.256689202123936 1.91547326512556
-0.0824096906052465 -0.268855161956031 1.92923566416089
-0.0367742555002784 -0.280329234281572 1.94233737061648
0.00665834852421347 -0.26870455235377 1.93365868432597
0.0442529301361992 -0.285230353349112 1.95597463825768
0.0908888165493579 -0.259284277027544 1.95294151956986
0.127532341991837 -0.257366552738336 1.98570055682216
-0.368973130792204 -0.151592966211297 1.96143738349914
-0.344645109201654 -0.192685455007026 1.94610621654869
0.163170936482187 -0.218973667701435 1.99651698055164
0.183231212114078 -0.210216889397333 2.04279276644778
-0.388200072046406 -0.134237637090575 2.0055029336162
0.200266455475819 -0.162421091041145 2.06067933931965
-0.391638109076624 -0.0885803023447207 2.02660145797891
0.199378238693563 -0.150715379529466 2.11240927588401
-0.3960643328815 -0.0723872118335891 2.07312673153563
0.199840625837139 -0.104379063637009 2.13707921353379
-0.395260965067605 -0.0265159281064579 2.09469110220534
0.197184628795645 -0.0666291995130103 2.18222143625637
-0.399933172422388 -0.00909746898014836 2.14399805382576
0.195302555358974 -0.0351164909757504 2.21714284543791
-0.39890764397009 0.037605437828177 2.16423301797316
0.191636686978396 -0.0153631001832686 2.25930301022905
-0.400370140333984 0.0501496715135493 2.2158863482301
0.188091739914778 0.0277773943868079 2.27423082800545
-0.385201202788952 0.0950125093795135 2.23414385554537
0.169858063783774 0.0366208316781096 2.31901806910852
-0.366688120873602 0.102810941014765 2.28160403253646
-0.332835640549346 0.140433743506738 2.29368067373117
0.112052134222724 0.0913853107501341 2.3634439942261
0.148087352230974 0.0835271698013848 2.32793490309541
-0.29967655179173 0.138649316066777 2.33020200596969
-0.251000723345419 0.163552338534546 2.33187397188892
-0.210851929456176 0.145445331398107 2.35725901555247
-0.159864717538377 0.15190951766352 2.35380817423831
-0.107216093373853 0.145429265694169 2.36258485590033
-0.0588332444152296 0.146839160464802 2.36374180723154
-0.0127598857491859 0.14469697971021 2.36811196693626
0.0349900846422457 0.124093362736735 2.3814386801555
0.0763840802946033 0.128896465429098 2.3599798675495
-0.30138467862184 -0.169715082269538 1.88198243534117
-0.26356875337454 -0.207818282960008 1.88634951180403
-0.215579379608264 -0.207313672223802 1.86912010547283
-0.170819240189317 -0.233490621417894 1.89153150447169
-0.123529014562963 -0.219019348938729 1.88038103708049
-0.0815455110956768 -0.233203361986915 1.89583795936344
-0.0369767279255322 -0.246475103745179 1.91057062481931
0.00943465003667686 -0.232519326689344 1.89985777055834
0.0525093998195806 -0.249387991309612 1.92320765454241
0.0980606262285238 -0.224373115642581 1.92099187973341
0.133820065457491 -0.224525313478162 1.95540010313784
-0.362305657707936 -0.116552823177232 1.92864681005459
-0.339102138712653 -0.160121148802093 1.91660208006667
0.169695197014439 -0.185402209201587 1.96589747502493
0.189995890059741 -0.17569657992253 2.01213316984157
-0.381624480943192 -0.102233335389506 1.97365877926614
0.206564581491421 -0.128942842546436 2.0309032862666
-0.385133727782097 -0.0568886698188119 1.99234351156033
0.205505008713176 -0.115990829333217 2.08313866243306
-0.389568162091755 -0.0356427814120147 2.04204266476398
0.206940124260601 -0.0702260941813888 2.09941171727377
-0.389587544074281 0.00960789433292969 2.07001317705754
0.202812902170603 -0.0540830580054127 2.1434325462737
-0.393615756512777 0.0260208338459333 2.1133895906033
0.20234812391304 -0.0108779493826265 2.173833988905
-0.392353459569475 0.0708985144290786 2.13054812436654
0.19838161421396 0.0136073876711024 2.22165372730007
-0.394210318432662 0.0833272515991135 2.18343021691705
0.195434909165263 0.0592327149304267 2.23982505259118
-0.378851582934821 0.128680829911214 2.20317741431809
0.175595987397045 0.0738158526737639 2.28704271879392
-0.359783335477566 0.137356924289813 2.2505740513216
-0.324329658303483 0.174935861275852 2.26436899937642
0.117682948360442 0.126424982237475 2.33175211182373
0.153703181498806 0.119109250976596 2.29632960697474
-0.289680327771004 0.17287882654135 2.30120562309185
-0.241252170590467 0.197109751327516 2.30192570579844
-0.199963969631362 0.178124540014013 2.32716217304214
-0.155031554928607 0.191879027915758 2.31656346059485
-0.117948074274904 0.175987882329561 2.33336973084035
-0.0702495956421816 0.179119625007402 2.33287630311162
-0.0198741808395 0.179612961704146 2.33499502710531
0.0301392266516657 0.159535224646153 2.35133374112302
0.0778983134573857 0.163117917623474 2.33086437065117
-0.294949374708809 -0.136201368754274 1.85071001386531
-0.257772572801363 -0.173748779944471 1.85500934530738
-0.211444546472059 -0.17377749863612 1.83840234673244
-0.167281470717683 -0.20009594290063 1.86038805907954
-0.1175002642007 -0.183414440036677 1.84729068572022
-0.0755283819813106 -0.196799068646563 1.86199676150328
-0.0336464505134792 -0.211583524912702 1.87801204215766
0.0127023431924404 -0.196647592927495 1.86637625478682
0.0561126928554209 -0.21540283221572 1.89076743879619
0.101480757524598 -0.191576517496857 1.8886427444438
0.140240812772201 -0.191201573409788 1.92470631038139
-0.357104023921549 -0.0807893201902021 1.89856498143582
-0.332718930398324 -0.12715844880232 1.88568868108919
0.175862084324266 -0.151990751777582 1.93471767222388
0.196387536434798 -0.141772225301786 1.98087866209977
-0.375473514682076 -0.0663400445394753 1.94230146487205
0.212674131218588 -0.095953086190099 1.99877603024183
-0.378033640573819 -0.0180141136432107 1.95757977140216
0.212167439946596 -0.0817254524761836 2.04915022173765
-0.38279314402288 -0.0103888209393139 2.00159282693229
0.213007407740896 -0.0330056219552403 2.07216049199063
-0.384127348468301 0.0206714341123211 2.03170472019102
0.208384312706549 -0.0174106010464688 2.11994870991261
-0.386483143581304 0.0605089562772527 2.07566024846841
0.20909240969218 0.0270246728220243 2.14141178322215
-0.386218630352599 0.103628397750504 2.09997951549656
0.20459197331563 0.0424706185712847 2.18809048167586
-0.388045742839769 0.116331284860901 2.15280089591226
0.202210555040889 0.090670288029059 2.20728377717616
-0.371645522253212 0.163027380330839 2.17496176903528
0.182762810457774 0.106615891345161 2.25438948815175
-0.352258307566438 0.171620586804218 2.22131046734704
-0.31705278727103 0.20875521999781 2.23420423434149
0.122626865442574 0.160706003418734 2.30124874578561
0.160226192949464 0.152606431609803 2.26486036311282
-0.281456771139296 0.206594029686661 2.27132642239645
-0.234862643615971 0.23133440429537 2.27014900804251
-0.192973198451667 0.214275185080191 2.29361031871764
-0.142350103389385 0.227156582567614 2.28412102917173
-0.102965065467141 0.209852171032508 2.30237157760971
-0.0546858111277817 0.212760609381666 2.30211708241409
-0.0066108707302806 0.213772831474193 2.30363097878179
0.0336011044680439 0.191647297156858 2.32202098638977
0.0852039376796587 0.194985656046113 2.3005559064118
-0.296011863171834 -0.100432221133134 1.82488396608941
-0.251168486598164 -0.138848938578111 1.82256159914492
-0.203262518863211 -0.141165515416377 1.8077375697288
-0.162010294887494 -0.168266883052141 1.8308012760079
-0.112113849164745 -0.149378517576515 1.81569061818317
-0.068555440105971 -0.160144255776199 1.82797100218711
-0.0287664794567863 -0.174485602125823 1.84346204267308
0.0148039771929006 -0.160331414744145 1.83242903932394
0.0590815569820467 -0.181737004764088 1.85851858987419
0.105769926740154 -0.15833940526934 1.8564874194693
0.142772650462601 -0.160614571954536 1.89241715788576
-0.351532137382152 -0.0444200732308943 1.86833962881579
-0.329787191334274 -0.0919598428285279 1.85805826314878
0.176595146924359 -0.124236001291943 1.89990199887546
0.202494074093492 -0.107887457684236 1.94844203935128
-0.369152087912324 -0.0291984901796756 1.91006122894964
0.219792866442762 -0.0587672079019118 1.9777917556119
-0.371593531186957 0.019256375817532 1.93100677035896
0.218152989574649 -0.044439976293344 2.02261975096405
-0.376874173014957 0.034273145484342 1.98014204719402
0.21932719220934 0.00299210409439123 2.04085915707456
-0.38043481674253 0.0621274171408421 2.0266830504893
0.214784988084903 0.0175684261886977 2.08856599080826
-0.379479552728319 0.105257586241551 2.04529726876479
0.21564928883133 0.0623566820068155 2.10851115465794
-0.380685091419411 0.14111391701476 2.07737834352775
0.211061010821911 0.0781062389053467 2.15654584246174
-0.381437079172998 0.150801843758277 2.12675398544591
0.20834150220195 0.124563242270111 2.17647947154006
-0.365128461853661 0.196924032568823 2.14432511151841
0.189341241038603 0.139388561457349 2.22298138531488
-0.345170337363512 0.20592236377357 2.19097082489451
-0.310761892781235 0.242467984951378 2.20289595978501
0.129571032204772 0.194282318912042 2.26946547345766
0.166728782972974 0.186164294179617 2.23331173620559
-0.2754519347845 0.240176856362098 2.23995101523034
-0.229127377653143 0.265109524939947 2.238542125536
-0.185579388499341 0.248589608811565 2.26180085038866
-0.136893645976312 0.260178520027827 2.25339748458662
-0.0893590083899907 0.245522111599727 2.26960890113564
-0.0393531364073766 0.246270947314689 2.27146878858665
0.00715288267215262 0.246529561544978 2.27360919440199
0.0461409439510839 0.223349151064194 2.29118688926374
0.0924297150035548 0.228599150198353 2.26883394671598
-0.258646317555926 -0.101726528702419 1.79947020362217
-0.217098755146791 -0.105862178605498 1.7860451484365
-0.170666281500529 -0.103444416343847 1.77985637248844
-0.155917583410877 -0.136620561019898 1.80232804539221
-0.118555036087836 -0.109400680427019 1.78700471703173
-0.0718611004379047 -0.121131446682987 1.79737481026023
-0.0250466353752246 -0.132127278875954 1.80779709145387
0.0228983733345376 -0.121565908009076 1.80502290882955
0.0622393234796337 -0.148774951475312 1.82842622114498
0.106731668330007 -0.122743250997009 1.82778659865988
0.147025905372836 -0.125933964517876 1.86076779115445
-0.339045711405254 -0.00809544486716749 1.84225121365579
-0.322467261263971 -0.0552716393811979 1.82898569262993
0.195732117322278 -0.0868414833013212 1.90189799843413
0.213433505650926 -0.063302579765599 1.9347725326601
-0.359310196984568 0.00922758140759066 1.88123168468796
0.218996235958378 -0.0196870624807542 1.94449517759355
-0.356338967952157 0.0540636534432396 1.90135620797302
0.221765034888289 -0.00691888690201689 1.98957618678674
-0.366097273615699 0.0686848574281219 1.94590130557769
0.218326759631751 0.0370940195990115 2.0074235984644
-0.373095739425946 0.0870803026392327 1.99129816438739
0.218467859259053 0.0534438995170158 2.05468182478069
-0.367003331453484 0.13297563493074 2.00514667542465
0.215412700488576 0.0964319000248686 2.07578748805442
-0.370054496864518 0.161043856035149 2.0403734062078
0.215187328554044 0.112992811581657 2.12273810058397
-0.374064125607049 0.183764316156652 2.09445641404958
0.209301414702367 0.155131928913666 2.14397006518006
-0.356217032368413 0.225165290577644 2.10849532105561
0.19377101757514 0.172961417500334 2.19166750176536
-0.338865742634279 0.238151026928853 2.15768363973981
-0.303254008772615 0.271004824111256 2.16887259836265
0.134783691242065 0.227837939651639 2.23628471205077
0.166754576167988 0.218929782423691 2.19958893755485
-0.267927496904242 0.273022730676408 2.2079042792169
-0.219251139911946 0.295358502574966 2.20205574088206
-0.182086389291251 0.281939497084824 2.22762661063569
-0.140227566024478 0.290156372214148 2.21686344312653
-0.0961653716146311 0.280617813468294 2.2313334711445
-0.0515372137915109 0.27638104342868 2.23798816564884
-0.00147198679231661 0.275701869713783 2.23980572048547
0.0503674771179459 0.25825538463784 2.25731291811934
0.0957906429628278 0.258536457491547 2.23481350631193
-0.283920991196476 -0.0610494716956252 1.79678044161973
-0.238481597266864 -0.0628116757274574 1.77460876479411
-0.190791859477333 -0.0646386569029371 1.76516121514618
-0.138950180107437 -0.0686676145072682 1.76839385721288
-0.0884740151530405 -0.0751992300008349 1.77533902535632
-0.0423878033160793 -0.0850507486202558 1.78301883345353
0.00171409322271647 -0.0846140025758346 1.78711046192811
0.048767341913749 -0.0744365639793327 1.78900701544286
0.0690942202862137 -0.109084470260126 1.80539098101864
0.101196969800792 -0.0736039435013735 1.80366494639391
0.137592798790022 -0.0902819054029388 1.83084018506806
-0.303803964752496 -0.0189051680838285 1.80408896264983
-0.278491977630136 0.0224343430530953 1.7892414432315
-0.261214025651701 -0.0211312403286496 1.77688640692888
0.147903971915852 -0.0493791389625821 1.82722939148564
0.173888176414711 -0.0821667583818652 1.86322170201689
0.177330108904425 -0.0349546879929522 1.85498302449385
-0.335894969685236 0.0463573883270211 1.85271324274864
-0.316073118463241 0.0231320617256228 1.81930010929199
0.20139143991521 -0.0400475840445527 1.89292966000739
0.206743292460691 0.00251107417518358 1.90888664840956
-0.332638128208027 0.0847229281562514 1.8781422231687
0.21253815229579 0.0295190381340829 1.95153895830347
-0.342567688568115 0.105679106416189 1.91699981879418
0.207537057788962 0.0674987169259598 1.97814235881167
-0.355124476170765 0.11741149342162 1.95637771712886
0.210077144693066 0.0894680807518106 2.01983289021398
-0.344052055708622 0.157072695654422 1.96914968786788
0.205214934176254 0.127309852456663 2.04612142904991
-0.347932583246199 0.186341549423947 2.0049398950627
0.207552920613693 0.149090823952731 2.0876009729373
-0.361516405851454 0.202919806007932 2.05716162254336
0.200017008354567 0.185451245783434 2.11322867325777
-0.327751141522779 0.262382910788777 2.11954254342978
-0.339599619810312 0.245638971431569 2.07136098506901
-0.308652626647341 0.27873340571943 2.07684328416131
0.190479644168581 0.201870908795645 2.15709867754258
0.177301290802992 0.226734139496529 2.11295020460539
0.163972854695549 0.240544354744009 2.1578697750146
-0.26002019973631 0.297192002153913 2.17051982159419
-0.293740702211738 0.289832665409677 2.12931462458592
-0.251852099786213 0.311519299666449 2.12780180686746
0.131218375433994 0.257864749036248 2.1965781323017
0.0990135125471675 0.289182967891901 2.15988734327843
0.0865859446281428 0.283068516249759 2.19886029894943
-0.21275936307527 0.314300799502113 2.16161505138959
-0.168843874222896 0.309059953393652 2.18159374263613
-0.115942871155903 0.306681866107964 2.18417371518784
-0.0715074296883819 0.301895338075276 2.1931913848413
-0.0277137751479549 0.298669134017902 2.19841442412642
0.0150246445885059 0.297743219470168 2.1979584475038
0.0481272475464747 0.283760905814106 2.2216105728043
-0.21234514424354 -0.0219692446036909 1.76103360084446
-0.161062784881936 -0.0260661826117765 1.75838846299073
-0.110319416531844 -0.0300921021882218 1.76436871232088
-0.0624742457673241 -0.0348937049280438 1.77026116424202
-0.0176678387204506 -0.0384236222691157 1.77570087748033
0.0264093216673794 -0.0342379877747281 1.78053452786331
0.0749849153326188 -0.0327561491383409 1.78840993612735
-0.234229841463776 0.0195959697639693 1.76866117989348
-0.206932166889929 0.0571109206978855 1.77205088862525
-0.182811439898651 0.0173743969406666 1.75953058431168
-0.132031513779059 0.0140037623154898 1.76293220238434
-0.0843792268754997 0.0129515713065419 1.76905384088572
-0.0371337041206305 0.00956211927392649 1.77479086550984
0.00762867625592577 0.0110916739512587 1.78099606522569
0.0545459907389747 0.010382880121528 1.78726657924015
0.102662481240711 0.0118187107810785 1.80201221636146
0.149671656473613 0.00340837974908005 1.82975877571311
0.118470363689448 -0.0285662393997403 1.80582922151992
-0.296494368306856 0.0629061052045215 1.81644424713626
-0.264445884778445 0.101372071910711 1.81809916703992
-0.253854596832863 0.0628158726255294 1.78891758239592
0.125720505637775 0.0458213502644263 1.82579252411956
0.183490195605001 0.00718109078301199 1.86735657215749
0.161720375835392 0.0471554263825717 1.85776370368281
-0.304338951261645 0.094434973222217 1.84682075058528
-0.270985210341331 0.132921013188683 1.85352427833716
0.191949000309139 0.0438542419277195 1.90127960897755
0.164162534077381 0.0827034881194 1.89121068045017
-0.308981249477732 0.127806646614676 1.88576750693623
-0.278033178307663 0.163932586550641 1.89083672813828
0.190885328672559 0.0748606618733599 1.93381805962911
0.162191209279237 0.115562942514359 1.92596977269099
-0.320140995501529 0.152958256687247 1.92546096208241
-0.282915544891759 0.19263734319412 1.92422077262929
0.189437204862951 0.108110743106799 1.97018654442573
0.161117596385356 0.147453703606549 1.96099381138322
-0.317026557705085 0.191744377358459 1.95972183782268
-0.281007085163071 0.227017445673618 1.95770247791685
0.188705621551868 0.137052258214188 2.00319781465496
0.160405922897508 0.178684329186596 1.9958342010298
-0.314269100986866 0.227047203686607 1.99139932837499
-0.28044516902677 0.263225288957123 1.99585315492281
0.187601039630723 0.169755630793365 2.03982756486879
0.159148606834083 0.210102626954069 2.0300499120952
-0.33791761454303 0.226947040358206 2.02774665267667
-0.308624059783429 0.263782918993302 2.03196981212509
0.185852657330932 0.199124958888488 2.07230094954878
0.155869058433943 0.238930857718664 2.06611076009236
-0.275445604088401 0.302048979737616 2.08762125808838
-0.270268864672057 0.293753959943117 2.03959133863577
-0.237818687732819 0.315421533988144 2.07343795436933
0.133530287668093 0.270183998462518 2.14968769593782
0.147317801881873 0.259444484164067 2.10792521088918
0.107421498459235 0.287010976812071 2.10792407227235
-0.213391933585727 0.322795533401861 2.11335440469353
-0.187723199588964 0.323704340216687 2.07761575278587
-0.172913281815503 0.323027983643769 2.13203647574441
-0.143836432551253 0.322485463878313 2.09117729862141
-0.130481580744527 0.31920752588787 2.14139580845346
-0.0997403361822113 0.319203940578317 2.09650708396829
-0.0837000776873011 0.31616650175013 2.14433878838891
-0.0548995688183642 0.315723582119145 2.10009096820429
-0.0394270863089324 0.312740581748162 2.1505384103573
-0.0113424401775498 0.312360397428241 2.10394342447301
0.00508230728554061 0.309917857990086 2.15268687060545
0.0328446209867585 0.309293160250162 2.11198942793777
0.0507367850938973 0.303182656313871 2.16780017750457
0.0705489829062124 0.302786416766612 2.12469001558111
-0.176156479543105 0.0903271346785966 1.78509484190323
-0.153643384687159 0.0558371661490778 1.7702160399407
-0.107941591219469 0.0582956727619807 1.77786156543415
-0.0592236091929334 0.0542026511118881 1.78357350048578
-0.0143438208419509 0.0560660022900405 1.79112560972479
0.0310298215338776 0.0553431305336979 1.7977656196626
0.0770370268666829 0.0514001847951356 1.80515151198295
-0.221225081355575 0.0986933656410699 1.79669669292587
-0.178660427688405 0.125715807263411 1.81170571797619
-0.132625484802738 0.100442271138613 1.79642297914239
-0.0816937929817663 0.0935662878910585 1.80048900086305
-0.0374121418411318 0.096924558346762 1.81048083021535
0.00709326144255734 0.0969694516344459 1.81836156039402
0.0522669896027705 0.0941770542346366 1.82427416953624
0.0956776549087006 0.0844779188385434 1.83154051891298
0.130259499579124 0.0873367654830566 1.85667638667309
-0.226218633649197 0.133220552011064 1.82857457048795
-0.186383740217241 0.158169246950354 1.84603562587102
-0.140475303032889 0.141902139696637 1.83274047736164
-0.101266276970476 0.126005900451224 1.82365403014121
-0.0585192410834024 0.131348076837669 1.837859785606
-0.014838559138106 0.132098166691959 1.84745551272824
0.0332641097518079 0.128501928832474 1.85325905896526
0.0830944114298081 0.120809322108465 1.85945948689156
0.12780549319511 0.118978763033151 1.88838866216235
-0.233135931544498 0.164497253235475 1.86399039366554
-0.188133863941729 0.189382438629116 1.87931290734313
-0.142080350899429 0.174746754679289 1.86779277601647
-0.0954728138475925 0.158476934010887 1.85964531019085
-0.0485827257027347 0.16527813615292 1.87640310265258
0.00160030038869637 0.161450082019319 1.88237548943317
0.049393393803816 0.15742865164711 1.88767122531926
0.091478600310303 0.149676032936748 1.89539632709451
0.126585202334008 0.152592315275056 1.92480495881502
-0.23668151521844 0.194856735086209 1.89715809366367
-0.190718187777359 0.219072906421977 1.91103562162728
-0.141764015734078 0.207863449211197 1.90352437501992
-0.0991921594252387 0.190312770818396 1.89318512420702
-0.0613758810506681 0.198995620338013 1.91014438477807
-0.0166684788041548 0.193256229517762 1.91295646752594
0.0313299727796815 0.189768867567309 1.91885592929636
0.0803687912287582 0.183520293087122 1.92664713633276
0.125490750208953 0.182772927503685 1.95750707123992
-0.239961787632051 0.224381252358761 1.92936634064663
-0.197116733681977 0.248416773523243 1.94277200957313
-0.147111599470721 0.239111724020376 1.93610348700336
-0.0978811630638076 0.227231226069815 1.93321232311463
-0.0463588362920112 0.22754333224313 1.94391267809738
0.0018015725677558 0.223032820750785 1.94874334622275
0.0481991422090615 0.219710397325629 1.95456057485537
0.0896796195937887 0.212631034048382 1.96344627553252
0.124631493066124 0.215838510788299 1.9936686706682
-0.244665222673997 0.256144145829201 1.96458880828011
-0.206855331282968 0.278217508155245 1.97630913756822
-0.15986858536265 0.271845643805608 1.9688607778475
-0.113261015024352 0.262002015473219 1.96756792580089
-0.0686138934120436 0.257717304996284 1.9719340537038
-0.0196507512356472 0.255654532674295 1.97956274491276
0.0291482121115591 0.252183696454193 1.98564068586108
0.0782246090049211 0.24659840676414 1.99452293191956
0.123001317175352 0.245444272378191 2.02617054126433
-0.240512759754098 0.28973893324544 2.00471180342201
-0.183985778337532 0.299940570376785 2.00546079792908
-0.135247314249246 0.293875698588409 2.00378403989484
-0.0906120627582636 0.289267569138217 2.00707009730562
-0.0457466450817605 0.285323404887474 2.01152319702111
0.000618256398686096 0.282465759982637 2.0180891597309
0.0456824973224958 0.279673447554723 2.02460985894692
0.0863586779688984 0.272966122305025 2.03447856392863
0.118167613826317 0.271444740320813 2.06778406031401
-0.215650167532002 0.311141792063381 2.03654436031612
-0.161505647115442 0.31473144292233 2.04234947380094
-0.115742969230798 0.311424168166408 2.04819291264422
-0.0706796642230719 0.307594851906606 2.05217464038015
-0.0249241642822395 0.303723534038913 2.05630558956064
0.0222094811616073 0.300710649640315 2.06350057724474
0.0691265200268619 0.295615819188166 2.07352373681546
3 0 1 2
3 0 2 4
3 3 0 4
3 3 4 6
3 5 3 6
3 5 6 8
3 7 5 8
3 7 8 10
3 9 7 10
3 9 10 12
3 11 9 12
3 13 11 14
3 14 11 12
3 13 14 15
3 16 17 18
3 16 18 1
3 0 19 1
3 19 16 1
3 0 3 20
3 19 0 20
3 3 5 21
3 20 3 21
3 5 7 22
3 21 5 22
3 7 9 23
3 22 7 23
3 9 11 24
3 23 9 24
3 24 11 25
3 25 11 13
3 13 15 26
3 27 13 26
3 25 13 27
3 27 26 28
3 17 16 30
3 30 16 29
3 29 19 31
3 29 16 19
3 31 20 32
3 31 19 20
3 32 21 33
3 32 20 21
3 21 22 33
3 33 22 34
3 22 23 34
3 34 23 35
3 23 24 35
3 35 24 36
3 24 25 36
3 36 25 37
3 37 27 38
3 37 25 27
3 38 28 39
3 38 27 28
3 30 40 41
3 30 29 40
3 29 31 42
3 40 29 42
3 31 32 43
3 42 31 43
3 32 33 44
3 43 32 44
3 33 34 45
3 44 33 45
3 34 35 46
3 45 34 46
3 35 36 47
3 46 35 47
3 36 37 47
3 47 37 48
3 37 38 48
3 48 38 49
3 49 39 50
3 49 38 39
3 40 51 52
3 41 40 52
3 51 42 53
3 51 40 42
3 42 43 53
3 53 43 54
3 43 44 54
3 54 44 55
3 44 45 55
3 55 45 56
3 45 46 56
3 56 46 57
3 46 47 58
3 57 46 58
3 47 48 59
3 58 47 59
3 48 49 60
3 59 48 60
3 49 50 61
3 60 49 61
3 51 62 63
3 52 51 63
3 51 53 64
3 62 51 64
3 53 54 65
3 64 53 65
3 54 55 66
3 65 54 66
3 55 56 67
3 66 55 67
3 56 57 67
3 67 57 68
3 57 58 69
3 68 57 69
3 58 59 69
3 69 59 70
3 59 60 70
3 70 60 71
3 71 61 72
3 71 60 61
3 62 73 74
3 63 62 74
3 62 64 75
3 73 62 75
3 64 65 75
3 75 65 76
3 65 66 76
3 76 66 77
3 66 67 77
3 77 67 78
3 67 68 78
3 78 68 79
3 79 69 80
3 79 68 69
3 80 70 81
3 80 69 70
3 81 71 82
3 81 70 71
3 82 72 83
3 82 71 72
3 74 73 85
3 85 73 84
3 84 73 86
3 86 73 75
3 75 76 86
3 86 76 87
3 76 77 88
3 87 76 88
3 77 78 89
3 88 77 89
3 78 79 90
3 89 78 90
3 79 80 91
3 90 79 91
3 80 81 92
3 91 80 92
3 81 82 93
3 92 81 93
3 93 83 94
3 93 82 83
3 84 95 85
3 84 86 96
3 97 84 96
3 95 84 97
3 96 87 98
3 96 86 87
3 87 88 98
3 98 88 99
3 88 89 99
3 99 89 100
3 89 90 100
3 100 90 101
3 101 91 102
3 101 90 91
3 102 92 103
3 102 91 92
3 92 93 103
3 105 103 104
3 103 93 104
3 93 94 104
3 96 106 97
3 96 98 107
3 106 96 107
3 98 99 108
3 107 98 108
3 99 100 109
3 108 99 109
3 100 101 110
3 109 100 110
3 101 102 111
3 110 101 111
3 111 102 112
3 112 102 103
3 103 105 112
3 117 114 115
3 116 113 117
3 117 113 114
3 116 117 119
3 118 116 119
3 118 119 121
3 120 118 121
3 120 121 123
3 122 120 123
3 122 123 125
3 124 122 125
3 124 125 127
3 126 124 127
3 126 127 128
3 129 130 131
3 114 129 131
3 114 113 129
3 113 2 129
3 129 2 1
3 4 113 116
3 4 2 113
3 6 116 118
3 6 4 116
3 8 118 120
3 8 6 118
3 10 120 122
3 10 8 120
3 12 122 124
3 12 10 122
3 14 124 126
3 14 12 124
3 133 126 128
3 15 14 126
3 15 126 133
3 132 15 133
3 132 133 134
3 135 136 137
3 137 17 135
3 137 18 17
3 18 137 130
3 129 18 130
3 18 129 1
3 15 132 26
3 139 132 134
3 139 138 132
3 138 28 26
3 132 138 26
3 138 139 140
3 136 135 142
3 142 135 141
3 17 30 135
3 135 30 141
3 143 39 28
3 138 143 28
3 143 140 144
3 143 138 140
3 141 145 146
3 142 141 146
3 41 145 141
3 30 41 141
3 147 39 143
3 147 50 39
3 147 144 148
3 147 143 144
3 145 149 150
3 146 145 150
3 52 149 145
3 41 52 145
3 151 50 147
3 151 155 50
3 151 148 152
3 151 147 148
3 149 153 154
3 150 149 154
3 63 153 149
3 52 63 149
3 155 61 50
3 155 72 61
3 155 151 156
3 156 151 152
3 154 157 158
3 154 153 157
3 74 157 153
3 63 74 153
3 159 72 155
3 159 83 72
3 159 156 160
3 159 155 156
3 158 157 162
3 162 157 161
3 74 85 161
3 157 74 161
3 163 83 159
3 163 94 83
3 163 160 164
3 163 159 160
3 161 165 162
3 165 95 166
3 165 161 95
3 161 85 95
3 165 166 167
3 95 97 166
3 105 104 168
3 170 94 163
3 170 168 94
3 169 168 170
3 94 168 104
3 163 164 170
3 166 171 167
3 173 171 172
3 172 171 106
3 171 97 106
3 171 166 97
3 172 107 174
3 172 106 107
3 174 108 175
3 174 107 108
3 175 109 176
3 175 108 109
3 176 110 177
3 176 109 110
3 177 111 178
3 177 110 111
3 178 112 180
3 178 111 112
3 181 105 168
3 181 180 105
3 179 178 180
3 180 112 105
3 168 169 181
3 172 182 173
3 182 172 183
3 183 172 174
3 174 175 184
3 183 174 184
3 175 176 185
3 184 175 185
3 176 177 186
3 185 176 186
3 177 178 187
3 186 177 187
3 187 179 188
3 187 178 179
3 179 180 229
3 189 190 191
3 114 131 191
3 115 114 191
3 115 191 192
3 115 192 193
3 117 115 193
3 119 193 194
3 119 117 193
3 119 194 121
3 121 194 195
3 121 195 123
3 123 195 196
3 123 196 125
3 125 196 197
3 127 197 198
3 127 125 197
3 128 198 199
3 200 128 199
3 128 127 198
3 200 199 201
3 202 203 204
3 131 130 189
3 190 189 204
3 189 130 202
3 189 202 204
3 131 189 191
3 128 200 133
3 134 200 205
3 206 205 201
3 134 133 200
3 205 200 201
3 205 206 207
3 136 208 203
3 202 137 136
3 202 136 203
3 137 202 130
3 134 205 139
3 139 205 207
3 140 139 207
3 211 207 209
3 136 142 208
3 208 142 210
3 211 140 207
3 211 144 140
3 146 212 210
3 142 146 210
3 148 144 213
3 213 144 211
3 150 214 212
3 146 150 212
3 215 148 213
3 215 152 148
3 154 216 150
3 150 216 214
3 219 152 217
3 217 152 215
3 158 218 216
3 154 158 216
3 219 156 152
3 219 160 156
3 158 220 218
3 158 162 220
3 221 160 219
3 221 164 160
3 162 165 222
3 223 220 222
3 220 162 222
3 165 167 222
3 169 170 224
3 225 164 221
3 224 170 164
3 224 164 225
3 222 226 223
3 167 171 227
3 226 167 227
3 226 227 228
3 226 222 167
3 171 173 227
3 180 181 229
3 181 169 230
3 231 169 224
3 230 169 231
3 230 229 181
3 224 225 271
3 227 232 228
3 232 182 233
3 232 173 182
3 227 173 232
3 182 183 234
3 233 182 234
3 183 184 234
3 234 184 235
3 184 185 235
3 235 185 236
3 185 186 236
3 236 186 237
3 186 187 237
3 237 187 238
3 238 188 239
3 238 187 188
3 188 179 229
3 240 239 188
3 240 188 229
3 229 230 240
3 191 190 242
3 242 190 241
3 192 242 243
3 192 191 242
3 192 243 244
3 193 192 244
3 194 244 245
3 194 193 244
3 194 245 246
3 195 194 246
3 195 246 247
3 196 195 247
3 196 247 248
3 197 196 248
3 197 248 249
3 198 197 249
3 199 198 249
3 250 199 249
3 201 199 251
3 251 199 250
3 204 252 253
3 204 203 252
3 190 253 241
3 190 204 253
3 206 251 254
3 206 201 251
3 207 206 255
3 255 206 254
3 203 256 252
3 203 208 256
3 257 209 255
3 255 209 207
3 210 258 208
3 208 258 256
3 211 209 259
3 259 209 257
3 212 260 210
3 210 260 258
3 213 211 259
3 261 213 259
3 214 262 260
3 212 214 260
3 215 213 261
3 263 215 261
3 216 264 214
3 214 264 262
3 217 215 263
3 265 217 263
3 218 266 264
3 216 218 264
3 219 217 265
3 267 219 265
3 218 268 266
3 218 220 268
3 221 219 267
3 269 221 267
3 223 270 268
3 220 223 268
3 225 221 269
3 271 225 269
3 223 226 272
3 270 223 272
3 272 228 273
3 272 226 228
3 274 231 275
3 274 230 231
3 275 231 271
3 271 231 224
3 273 228 276
3 276 228 232
3 276 233 277
3 276 232 233
3 233 234 278
3 277 233 278
3 234 235 279
3 278 234 279
3 235 236 280
3 279 235 280
3 236 237 281
3 280 236 281
3 237 238 282
3 281 237 282
3 238 239 283
3 282 238 283
3 327 239 284
3 284 239 240
3 240 230 274
3 284 240 274
3 241 285 286
3 242 241 286
3 242 286 243
3 243 286 287
3 243 287 288
3 244 243 288
3 245 288 289
3 245 244 288
3 245 289 246
3 246 289 290
3 246 290 247
3 247 290 291
3 247 291 248
3 248 291 292
3 248 292 293
3 249 248 293
3 249 293 250
3 250 293 294
3 250 294 295
3 251 250 295
3 252 296 297
3 253 252 297
3 241 297 285
3 241 253 297
3 254 295 298
3 254 251 295
3 254 298 299
3 255 254 299
3 256 300 252
3 252 300 296
3 257 255 299
3 301 257 299
3 258 302 300
3 256 258 300
3 259 257 303
3 303 257 301
3 260 304 258
3 258 304 302
3 261 259 303
3 305 261 303
3 262 306 304
3 260 262 304
3 263 261 305
3 307 263 305
3 264 308 262
3 262 308 306
3 265 263 307
3 309 265 307
3 266 310 308
3 264 266 308
3 267 265 309
3 311 267 309
3 266 312 310
3 266 268 312
3 269 267 311
3 313 269 311
3 270 314 312
3 268 270 312
3 271 269 315
3 315 269 313
3 270 272 316
3 314 270 316
3 316 273 317
3 316 272 273
3 318 275 319
3 318 274 275
3 275 271 315
3 319 275 315
3 273 276 320
3 317 273 320
3 276 277 320
3 320 277 321
3 277 278 322
3 321 277 322
3 322 279 323
3 322 278 279
3 279 280 323
3 323 280 324
3 280 281 324
3 324 281 325
3 281 282 325
3 325 282 326
3 282 283 326
3 326 283 327
3 283 239 327
3 327 284 328
3 284 274 318
3 328 284 318
3 285 329 330
3 286 285 330
3 286 330 287
3 287 330 331
3 287 331 332
3 288 287 332
3 288 332 289
3 289 332 333
3 289 333 334
3 290 289 334
3 290 334 335
3 291 290 335
3 291 335 292
3 292 335 336
3 292 336 337
3 293 292 337
3 293 337 294
3 294 337 338
3 294 338 339
3 295 294 339
3 296 340 341
3 297 296 341
3 285 341 329
3 285 297 341
3 298 339 342
3 298 295 339
3 298 342 343
3 299 298 343
3 300 344 296
3 296 344 340
3 301 299 343
3 345 301 343
3 302 346 344
3 300 302 344
3 303 301 347
3 347 301 345
3 304 348 302
3 302 348 346
3 305 303 347
3 349 305 347
3 306 350 348
3 304 306 348
3 307 305 351
3 351 305 349
3 308 352 306
3 306 352 350
3 309 307 353
3 353 307 351
3 310 354 352
3 308 310 352
3 311 309 355
3 355 309 353
3 312 356 310
3 310 356 354
3 313 311 355
3 357 313 355
3 314 358 356
3 312 314 356
3 315 313 359
3 359 313 357
3 314 316 360
3 358 314 360
3 360 317 361
3 360 316 317
3 362 319 363
3 362 318 319
3 319 315 359
3 363 319 359
3 317 320 364
3 361 317 364
3 320 321 364
3 364 321 365
3 321 322 366
3 365 321 366
3 322 323 366
3 366 323 367
3 323 324 368
3 367 323 368
3 324 325 369
3 368 324 369
3 325 326 370
3 369 325 370
3 326 327 371
3 370 326 371
3 327 328 371
3 371 328 372
3 328 318 362
3 372 328 362
3 329 373 374
3 330 329 374
3 330 374 331
3 331 374 375
3 331 375 376
3 332 331 376
3 332 376 333
3 333 376 377
3 333 377 378
3 334 333 378
3 334 378 379
3 335 334 379
3 335 379 336
3 336 379 380
3 336 380 381
3 337 336 381
3 337 381 338
3 338 381 382
3 338 382 383
3 339 338 383
3 340 384 385
3 341 340 385
3 329 385 373
3 329 341 385
3 342 383 386
3 342 339 383
3 342 386 387
3 343 342 387
3 344 388 340
3 340 388 384
3 345 343 387
3 389 345 387
3 346 390 388
3 344 346 388
3 347 345 391
3 391 345 389
3 348 392 346
3 346 392 390
3 349 347 391
3 393 349 391
3 350 394 348
3 348 394 392
3 351 349 395
3 395 349 393
3 352 396 350
3 350 396 394
3 353 351 395
3 397 353 395
3 354 398 396
3 352 354 396
3 355 353 399
3 399 353 397
3 356 400 354
3 354 400 398
3 357 355 399
3 401 357 399
3 358 402 400
3 356 358 400
3 359 357 403
3 403 357 401
3 358 360 404
3 402 358 404
3 404 361 405
3 404 360 361
3 406 363 407
3 406 362 363
3 363 359 403
3 407 363 403
3 361 364 408
3 405 361 408
3 364 365 408
3 408 365 409
3 365 366 410
3 409 365 410
3 366 367 410
3 410 367 411
3 367 368 412
3 411 367 412
3 368 369 412
3 412 369 413
3 369 370 413
3 413 370 414
3 370 371 415
3 414 370 415
3 371 372 415
3 415 372 416
3 372 362 406
3 416 372 406
3 373 417 418
3 374 373 418
3 374 418 375
3 375 418 419
3 375 419 420
3 376 375 420
3 376 420 377
3 377 420 421
3 377 421 422
3 378 377 422
3 378 422 423
3 379 378 423
3 380 423 424
3 380 379 423
3 380 424 425
3 381 380 425
3 382 425 426
3 382 381 425
3 382 426 427
3 383 382 427
3 384 428 429
3 385 384 429
3 373 429 417
3 373 385 429
3 386 427 430
3 386 383 427
3 386 430 431
3 387 386 431
3 384 432 428
3 384 388 432
3 389 387 431
3 433 389 431
3 390 434 432
3 388 390 432
3 435 389 433
3 435 391 389
3 390 436 434
3 390 392 436
3 393 391 435
3 437 393 435
3 394 438 436
3 392 394 436
3 395 393 439
3 439 393 437
3 396 440 438
3 394 396 438
3 397 395 439
3 441 397 439
3 398 442 440
3 396 398 440
3 399 397 443
3 443 397 441
3 400 444 398
3 398 444 442
3 401 399 443
3 445 401 443
3 402 446 444
3 400 402 444
3 403 401 447
3 447 401 445
3 402 404 448
3 446 402 448
3 448 405 449
3 448 404 405
3 450 407 451
3 450 406 407
3 407 403 447
3 451 407 447
3 405 408 452
3 449 405 452
3 408 409 452
3 452 409 453
3 409 410 454
3 453 409 454
3 410 411 454
3 454 411 455
3 411 412 456
3 455 411 456
3 412 413 456
3 456 413 457
3 457 414 458
3 457 413 414
3 414 415 459
3 458 414 459
3 415 416 459
3 459 416 460
3 416 406 450
3 460 416 450
3 418 461 462
3 418 417 461
3 419 462 463
3 419 418 462
3 419 463 464
3 420 419 464
3 420 464 421
3 421 464 465
3 421 465 466
3 422 421 466
3 422 466 467
3 423 422 467
3 424 467 468
3 424 423 467
3 424 468 469
3 425 424 469
3 426 469 470
3 426 425 469
3 427 426 471
3 471 426 470
3 429 428 473
3 473 428 472
3 417 473 505
3 417 429 473
3 430 427 471
3 520 430 471
3 431 474 475
3 431 430 474
3 428 476 472
3 428 432 476
3 433 431 475
3 477 433 475
3 434 478 476
3 432 434 476
3 479 433 477
3 479 435 433
3 434 480 478
3 434 436 480
3 437 435 479
3 481 437 479
3 438 482 436
3 436 482 480
3 439 437 483
3 483 437 481
3 440 484 482
3 438 440 482
3 441 439 483
3 485 441 483
3 442 486 440
3 440 486 484
3 443 441 487
3 487 441 485
3 444 488 442
3 442 488 486
3 445 443 487
3 489 445 487
3 444 446 488
3 488 446 490
3 491 445 489
3 491 447 445
3 490 446 492
3 492 446 448
3 492 449 493
3 492 448 449
3 494 451 495
3 494 450 451
3 451 447 491
3 495 451 491
3 449 452 496
3 493 449 496
3 496 453 497
3 496 452 453
3 453 454 498
3 497 453 498
3 498 455 499
3 498 454 455
3 455 456 500
3 499 455 500
3 456 457 501
3 500 456 501
3 457 458 502
3 501 457 502
3 458 459 503
3 502 458 503
3 503 460 504
3 503 459 460
3 504 460 494
3 494 460 450
3 461 505 506
3 462 461 506
3 507 463 462
3 507 462 506
3 465 463 508
3 508 463 507
3 464 463 465
3 465 508 509
3 465 509 466
3 466 509 510
3 466 510 467
3 467 510 511
3 467 511 468
3 468 511 512
3 468 512 513
3 469 468 513
3 469 513 470
3 515 470 514
3 470 513 514
3 470 515 471
3 472 516 473
3 518 516 517
3 518 505 516
3 461 417 505
3 505 473 516
3 505 518 506
3 515 514 519
3 474 430 520
3 521 520 519
3 520 471 515
3 520 515 519
3 474 520 524
3 476 522 472
3 516 472 523
3 472 522 523
3 516 523 517
3 520 521 524
3 477 475 524
3 524 475 474
3 525 477 524
3 478 526 522
3 476 478 522
3 527 477 525
3 527 479 477
3 478 528 526
3 478 480 528
3 481 479 527
3 529 481 527
3 482 530 480
3 480 530 528
3 483 481 531
3 531 481 529
3 484 532 530
3 482 484 530
3 485 483 531
3 533 485 531
3 486 534 484
3 484 534 532
3 535 485 533
3 535 487 485
3 486 536 534
3 486 488 536
3 537 489 535
3 535 489 487
3 490 538 539
3 536 490 539
3 488 490 536
3 538 540 539
3 541 542 543
3 541 489 537
3 542 541 537
3 541 491 489
3 490 492 538
3 545 493 544
3 538 492 493
3 538 493 545
3 540 538 545
3 544 546 545
3 547 548 549
3 543 495 541
3 547 494 495
3 547 495 543
3 608 547 543
3 495 491 541
3 493 496 544
3 544 497 550
3 546 544 550
3 544 496 497
3 550 497 551
3 551 497 498
3 498 499 551
3 551 499 552
3 499 500 552
3 552 500 553
3 500 501 553
3 553 501 554
3 554 502 555
3 554 501 502
3 502 503 556
3 555 502 556
3 503 504 556
3 549 504 547
3 556 504 549
3 504 494 547
3 506 557 507
3 507 557 558
3 508 507 558
3 508 558 559
3 509 508 559
3 509 559 560
3 510 509 560
3 510 560 561
3 511 510 561
3 511 561 562
3 512 511 562
3 514 512 563
3 563 512 562
3 513 512 514
3 517 564 518
3 518 564 557
3 566 564 565
3 557 564 566
3 557 506 518
3 558 566 567
3 558 557 566
3 559 567 568
3 559 558 567
3 560 568 569
3 560 559 568
3 561 569 570
3 561 560 569
3 562 570 571
3 562 561 570
3 563 562 571
3 572 563 571
3 574 514 563
3 572 574 563
3 573 519 574
3 574 519 514
3 519 573 521
3 522 575 523
3 577 575 576
3 577 517 575
3 564 517 577
3 575 517 523
3 564 577 565
3 573 574 572
3 521 573 579
3 580 573 578
3 579 573 580
3 579 524 521
3 524 579 525
3 522 581 575
3 522 526 581
3 576 581 582
3 576 575 581
3 583 580 584
3 583 579 580
3 583 525 579
3 583 527 525
3 526 585 581
3 526 528 585
3 582 585 586
3 582 581 585
3 587 584 588
3 587 583 584
3 587 527 583
3 587 529 527
3 528 589 585
3 528 530 589
3 586 589 590
3 586 585 589
3 591 588 592
3 591 587 588
3 591 529 587
3 591 531 529
3 532 593 589
3 530 532 589
3 590 593 594
3 590 589 593
3 595 592 596
3 595 591 592
3 595 531 591
3 595 533 531
3 534 597 593
3 532 534 593
3 594 597 598
3 594 593 597
3 599 596 600
3 599 595 596
3 599 533 595
3 599 535 533
3 534 601 597
3 534 536 601
3 602 597 601
3 602 598 597
3 603 599 600
3 604 603 600
3 603 535 599
3 603 537 535
3 536 539 601
3 606 540 605
3 606 602 540
3 602 601 539
3 540 602 539
3 605 607 606
3 608 609 610
3 608 543 609
3 604 542 603
3 609 543 542
3 609 542 604
3 542 537 603
3 540 545 605
3 605 546 607
3 612 607 611
3 605 545 546
3 607 546 611
3 612 613 614
3 612 611 613
3 614 615 616
3 614 613 615
3 616 617 618
3 616 615 617
3 618 619 620
3 618 617 619
3 620 621 622
3 620 619 621
3 622 623 624
3 622 621 623
3 610 548 608
3 624 623 548
3 624 548 610
3 548 623 549
3 548 547 608
3 546 550 611
3 611 550 613
3 613 550 551
3 551 552 615
3 613 551 615
3 552 553 617
3 615 552 617
3 553 554 619
3 617 553 619
3 554 555 621
3 619 554 621
3 621 555 623
3 623 555 556
3 556 549 623
3 565 625 626
3 567 566 626
3 626 566 565
3 567 626 627
3 568 567 627
3 568 627 628
3 569 568 628
3 569 628 629
3 570 569 629
3 570 629 630
3 571 570 630
3 572 571 631
3 631 571 630
3 572 631 578
3 576 632 577
3 625 632 633
3 565 577 632
3 565 632 625
3 625 633 634
3 626 625 634
3 626 634 627
3 627 634 635
3 627 635 628
3 628 635 636
3 628 636 629
3 629 636 637
3 629 637 630
3 630 637 638
3 631 638 639
3 631 630 638
3 640 578 639
3 578 573 572
3 578 631 639
3 578 640 580
3 576 641 632
3 576 582 641
3 633 641 642
3 633 632 641
3 633 642 643
3 634 633 643
3 634 643 644
3 635 634 644
3 635 644 645
3 636 635 645
3 636 645 646
3 637 636 646
3 637 646 647
3 638 637 647
3 638 647 648
3 639 638 648
3 640 648 649
3 640 639 648
3 584 580 640
3 649 584 640
3 582 650 641
3 582 586 650
3 642 650 651
3 642 641 650
3 642 651 652
3 643 642 652
3 643 652 653
3 644 643 653
3 644 653 645
3 645 653 654
3 645 654 646
3 646 654 655
3 646 655 647
3 647 655 656
3 647 656 648
3 648 656 657
3 648 657 649
3 649 657 658
3 588 584 649
3 658 588 649
3 586 659 650
3 586 590 659
3 650 659 651
3 651 659 660
3 651 660 661
3 652 651 661
3 652 661 662
3 653 652 662
3 653 662 654
3 654 662 663
3 654 663 664
3 655 654 664
3 655 664 665
3 656 655 665
3 656 665 666
3 657 656 666
3 657 666 658
3 658 666 667
3 592 588 658
3 667 592 658
3 590 668 659
3 590 594 668
3 660 668 669
3 660 659 668
3 660 669 670
3 661 660 670
3 661 670 671
3 662 661 671
3 662 671 663
3 663 671 672
3 663 672 664
3 664 672 673
3 664 673 665
3 665 673 674
3 665 674 666
3 666 674 675
3 666 675 667
3 667 675 676
3 596 592 667
3 676 596 667
3 594 677 668
3 594 598 677
3 668 677 669
3 669 677 678
3 669 678 679
3 670 669 679
3 670 679 680
3 671 670 680
3 671 680 681
3 672 671 681
3 672 681 682
3 673 672 682
3 673 682 683
3 674 673 683
3 674 683 684
3 675 674 684
3 676 684 685
3 676 675 684
3 600 596 676
3 685 600 676
3 598 686 677
3 598 602 606
3 678 686 687
3 678 677 686
3 678 687 679
3 679 687 688
3 679 688 680
3 680 688 689
3 680 689 681
3 681 689 690
3 681 690 682
3 682 690 691
3 683 691 692
3 683 682 691
3 684 692 693
3 684 683 692
3 685 693 694
3 685 684 693
3 694 604 685
3 685 604 600
3 598 606 686
3 606 607 695
3 686 606 695
3 686 695 687
3 688 687 696
3 696 687 695
3 688 696 697
3 689 688 697
3 689 697 698
3 690 689 698
3 690 698 699
3 691 690 699
3 691 699 700
3 692 691 700
3 692 700 701
3 693 692 701
3 610 609 694
3 701 610 694
3 701 694 693
3 609 604 694
3 607 612 695
3 695 612 696
3 696 612 614
3 614 616 697
3 696 614 697
3 616 618 698
3 697 616 698
3 618 620 699
3 698 618 699
3 620 622 700
3 699 620 700
3 622 624 701
3 700 622 701
3 624 610 701
