OFF
702 1400 0
-0.145439211790544 -0.311993116923963 2.37576806553683
-0.194025578600847 -0.30074899871488 2.38476291405555
-0.184071542080995 -0.32181010908104 2.34761845240774
-0.103163337565108 -0.317187749467687 2.35458861622362
-0.142024656435068 -0.331096776254691 2.32764131994875
-0.061907057163242 -0.320573801925476 2.33202183295361
-0.101698098627925 -0.334154742341615 2.30442314261205
-0.0212422714396201 -0.323241763894856 2.31120134693666
-0.0624389915330745 -0.33705199908566 2.28152215052712
0.0191958551355546 -0.32569548935906 2.29093173055064
-0.0221689299945324 -0.3393178008891 2.26124663149875
0.0633422283314135 -0.327083754854253 2.27162889027863
0.0210230009242419 -0.340886051825409 2.24361437411325
0.10791584724052 -0.320939988250931 2.25216747331404
0.0656733201212016 -0.340693044703637 2.22548775887872
0.108864346084458 -0.330113926967161 2.20698099162566
-0.199521016920979 -0.270399607397411 2.41901499120905
-0.240386496159095 -0.256027073560659 2.41119704136586
-0.236114879771785 -0.287853754353155 2.37761856623413
-0.153935426135957 -0.283806161925044 2.41444876667688
-0.107717772600273 -0.290792840535495 2.39960967419621
-0.0653100222564927 -0.294733188839978 2.37716704843587
-0.0229395717653497 -0.297191759289021 2.35643042475879
0.0183382163840313 -0.299098483003241 2.33688130231883
0.0572146079453416 -0.303278313293821 2.31523452549378
0.10198740899763 -0.302414883080001 2.29487661196616
0.148500085220071 -0.303378909910976 2.230938114182
0.143308475422367 -0.288704367173917 2.27604839980697
0.179443931736479 -0.267833379031917 2.24783556154232
-0.167505851015691 -0.245873165401539 2.4455235827235
-0.217594353905722 -0.228681862751353 2.44271477293551
-0.11861419656989 -0.256829182976298 2.43599282984379
-0.0719642443584064 -0.261411365446426 2.4159383483876
-0.0289471208950351 -0.264264420758791 2.39465956812835
0.015032641113002 -0.265057711353914 2.37490123298218
0.0560963321959787 -0.266286930171276 2.35599274426042
0.0915510556276224 -0.274781883757288 2.33268179972878
0.131454432158953 -0.264776506938343 2.31860176666384
0.169659841432169 -0.250320952467912 2.29413936724722
0.202297968619936 -0.227694035561547 2.26296096037664
-0.173998569176466 -0.207416355864907 2.4705376927446
-0.217477463826024 -0.188935717520553 2.46513964129636
-0.12725410288898 -0.219628017178967 2.46684129105528
-0.0794182901070261 -0.22821094074467 2.45018196488178
-0.0341233879376063 -0.228652426950345 2.43036556918547
0.00854379662610846 -0.231971018687521 2.40880135486433
0.0569922071527622 -0.230882348585412 2.38887891806936
0.104391140836063 -0.238927037111102 2.3608265927431
0.151265221104581 -0.229785741606267 2.34073452292752
0.191897250053846 -0.213353954335109 2.31123047934801
0.223499366830383 -0.187068833010028 2.27870662316263
-0.139171519633825 -0.179464279305373 2.4960505371796
-0.191049679785412 -0.16515409436318 2.49099843145954
-0.0887363043250068 -0.194299159841576 2.48274778880832
-0.0429724629424281 -0.194646860719032 2.46615032373048
-0.000271408827264008 -0.194001817039673 2.44829607330921
0.0375475759427538 -0.200786751379443 2.42556985136252
0.0752477520073432 -0.186565919292149 2.42263546276454
0.0987672012548156 -0.206090157296664 2.394118847828
0.139898572017129 -0.200785994482072 2.37995576023916
0.180383463907075 -0.193143243747716 2.35461606768238
0.217228109094094 -0.173736468073189 2.32384843784254
-0.122659115534706 -0.135787385280507 2.52901069381163
-0.164890903793378 -0.141502949907142 2.5152228370357
-0.0948220412522391 -0.161545582990152 2.51047666939319
-0.0463229383344119 -0.161516340408227 2.4987286874798
-0.00325868899809655 -0.158455708600815 2.48299513911844
0.0406862495114677 -0.161951697688153 2.46071075187778
0.0866510918557296 -0.15393398013132 2.44837456853584
0.125020082564302 -0.166586313127411 2.41989570211245
0.168201088561192 -0.164920622040019 2.39826190144548
0.205933743537935 -0.156909716634524 2.36893988580893
0.240507433858425 -0.134417543957002 2.33586332605935
-0.0962269459689819 -0.108233147782819 2.55132199545384
-0.153042833817598 -0.0994466963763805 2.54514686034149
-0.0632154903056661 -0.131924982396182 2.53022639302959
-0.0145472923423103 -0.123097190902164 2.52110478673806
0.03069299085583 -0.126055069103615 2.4987671377638
0.0742573901491705 -0.124043913456782 2.48182411025468
0.12115228565875 -0.126422363037637 2.459314651582
0.160361147838036 -0.13179944643502 2.43695008210832
0.199741468789604 -0.127831430779893 2.41257573463988
0.231264982424126 -0.120423581974504 2.38070756493701
0.259591108310575 -0.0941514331979765 2.35849022515636
-0.0753519396143241 -0.0655195744906575 2.57633220971338
-0.121130439430674 -0.0777039851419673 2.56752228998363
-0.0478242198335337 -0.0952916131063894 2.55619483537278
-0.00992788900460256 -0.0812476608032256 2.5515858316398
0.0273583818684569 -0.088765309697798 2.53023393981544
0.0694219259597522 -0.0874086399900817 2.51219748520863
0.112449552870572 -0.0893304122064638 2.49168969293418
0.156549439195282 -0.0920253936318164 2.47023120393182
0.198184403710155 -0.0940162377319669 2.44559367056068
0.236982689262363 -0.0879299715681091 2.41082790756902
0.270567812390825 -0.0565638491021712 2.37673158605338
-0.120619468875706 -0.0373134382652374 2.58338758197876
-0.0313396537224756 -0.0432889445415256 2.57662545472862
-0.0752848005828269 -0.0206560748884204 2.5897389776606
0.0152168262447978 -0.0421535754383781 2.55752218089776
0.0569159457040609 -0.0455869690623141 2.53706491259173
0.0997399326116132 -0.0451447118255529 2.51730726463256
0.14124673575611 -0.0484496103382846 2.49699076720942
0.183414194626886 -0.0516542812741934 2.47609724080591
0.221575488258221 -0.0526053625190902 2.44912256199692
0.252884697572851 -0.0463787827729222 2.41611907997218
0.244124959684541 -0.00661152461156024 2.43760444092925
-0.0446999519563577 0.00827972541806182 2.58853575651744
-0.00312046791050476 0.000831483864587088 2.57435628850056
0.0415204654700427 0.000407517004958236 2.55303981684094
0.0831645185659214 0.000615490129394281 2.53314699064838
0.125275870880203 0.000516818046752616 2.51298876634458
0.165798664704677 -0.00494428832868789 2.49334672745308
0.207722537771928 -0.00816559137822896 2.47017196666242
-0.186367162984174 -0.33241852816837 2.30329095915427
-0.226360477445026 -0.321949468189813 2.28568527374868
-0.227312368531173 -0.317913848135863 2.24104731663659
-0.143973400917421 -0.337907907510039 2.27726508344814
-0.184871588752963 -0.332813347866685 2.25408321724179
-0.105483437254472 -0.339984371104182 2.2518829267201
-0.147418424723756 -0.332864387994484 2.22331275518633
-0.0657913716245199 -0.342008319828403 2.22953762610477
-0.108898545336009 -0.333675571337173 2.19939101378781
-0.0233408472036334 -0.344221391435621 2.21160066606543
-0.0654018495558576 -0.336024593191407 2.1789319466894
0.0202261202539713 -0.346430146682085 2.19615210115443
-0.0217374429078456 -0.339191399667498 2.16212117568328
0.0634218256960334 -0.343553532572613 2.17820861800238
0.0217599613031032 -0.341684414014628 2.14784295760908
0.0664319483095862 -0.333226365393627 2.1289392757609
-0.226670325156589 -0.312489877932085 2.33660372350465
-0.269460649473051 -0.284126080885445 2.34226254475902
-0.261208169252524 -0.301923506237535 2.30001998618303
0.147466374322971 -0.308845792113221 2.18500176214172
0.103960875314514 -0.33035994735065 2.16182374830436
0.137054536010055 -0.308143287466225 2.1406665725158
-0.268976732078896 -0.221741021891998 2.41469740420763
-0.305187157454452 -0.213656655726621 2.37803181692439
-0.276488891886371 -0.254516082507553 2.37909403418914
0.181615358845137 -0.277507893843194 2.19996967375698
0.174839770060248 -0.279272820332764 2.15156696646592
0.20207585442376 -0.245535847548844 2.16322545911809
-0.255480454445025 -0.190625297989191 2.44048286423909
-0.294782907179386 -0.178739507160682 2.40935400580444
0.206420140922437 -0.239280841166458 2.21388938394605
0.222404195332956 -0.203707212511587 2.18252577493933
-0.2426093037718 -0.149442657988572 2.46851438806364
-0.277337816811277 -0.145975361390603 2.43833127619014
0.225772248887413 -0.196630857014121 2.23064330763925
0.238429530515523 -0.159877631184266 2.19680020042542
-0.218671792366548 -0.127216815188413 2.49600292657601
-0.260354605968637 -0.102780763732241 2.47005587577164
0.244380936734317 -0.153501049691203 2.24478231025274
0.253858801137462 -0.115894391465152 2.21384553066235
-0.192095211072395 -0.105881597298162 2.52320907105278
-0.233117968438441 -0.0812392383039119 2.50443434915644
0.245705986772368 -0.143894952899381 2.28982794848579
0.263083363948581 -0.106427044216022 2.25798001330357
-0.199424277404962 -0.0652964629187465 2.53846814006428
-0.233674720285622 -0.0340222026046257 2.52014912793799
0.264998051249322 -0.10168429003122 2.30727992345849
0.278924397835207 -0.0644502554688449 2.27434994772243
-0.16442894366213 -0.054041640059212 2.56432629929165
-0.200742669115648 -0.0188144619389109 2.55395905576374
0.281009198781395 -0.0621727543120967 2.32686171946454
0.29124921453723 -0.02502849177279 2.30021859572254
-0.160040389068148 -0.00768550482364797 2.57779823933746
-0.11350922795502 0.00726454742907048 2.59109995174997
-0.142691346566231 0.0386107995206824 2.58336278597881
0.272583820090838 -0.00831031398385217 2.39464636898644
0.282167074351401 0.0301600027439155 2.36771517124771
0.287477993017081 -0.0182705494764517 2.34968419460869
-0.0833757860589835 0.0367622414820222 2.5916760724462
-0.0281558543076368 0.0500813560239637 2.58083633558614
-0.0660306408693742 0.0761923900655773 2.58191356405797
0.0187243669762623 0.0430471354459704 2.56178104093524
0.0610044330155478 0.0471610529519876 2.54026247305846
0.103137010703542 0.0470174250691068 2.51957135152297
0.14545845306186 0.046812775837424 2.49877673345955
0.185349459692617 0.0373388603304024 2.48105951996672
0.201370071177708 0.0735665694771626 2.46004538342434
0.227132761725636 0.0343773728978906 2.45224128288662
0.259958864363152 0.0342542693877079 2.41328005311705
-0.0384567617806957 0.106115057725311 2.56376817315207
-0.0026251029016295 0.0842965639308131 2.56030018590964
0.0355409790871331 0.0905272267371577 2.5382498910676
0.0766047364284078 0.091671860042278 2.51689772476969
0.118682790619794 0.0908717739474153 2.49596594205279
0.162212320331859 0.0903845611031091 2.47411795949854
0.203800088600786 0.109443270434773 2.4361123753033
-0.295536207689266 -0.272564096485405 2.29884979769729
-0.303817663894237 -0.262818990510545 2.25637309732328
-0.268209853819423 -0.296602551725287 2.25404051456466
-0.241728680616083 -0.299150726611315 2.20506487271562
-0.190831189689221 -0.319295283642298 2.20588627114242
-0.152330925871017 -0.314831442418328 2.17249497727028
-0.105658239765158 -0.318393067826121 2.15251064175172
-0.0581696114400018 -0.32099083731531 2.12999658726399
-0.0150382331632292 -0.324949841228238 2.11313038182343
0.0308715848267691 -0.325948599243053 2.10285777828036
0.0646862998610388 -0.307416026463674 2.07756124289845
0.102185196672908 -0.315547220731179 2.11184838562975
0.113001753969255 -0.290969660733109 2.08031639708167
-0.304243907373647 -0.24748421896003 2.34111227067887
-0.329415945410447 -0.203051280807144 2.33598675107831
-0.324050489262038 -0.232606931377185 2.30028991849192
0.150778380816409 -0.283073308632791 2.10827526852812
0.145172996836899 -0.257702064951618 2.07105635322269
0.183053077776268 -0.248219647483596 2.11142529291633
-0.324088348092173 -0.166483301141223 2.37141863987876
0.195134612251706 -0.206264011703709 2.09490271487826
-0.31130803273178 -0.132150049342247 2.39766251267217
0.211912201843121 -0.209446483121411 2.13538799210563
-0.290736845532066 -0.105417140405124 2.43204656785701
0.226370958085419 -0.164978817620514 2.14864020772515
-0.287011299810937 -0.0641693040510114 2.44278047726524
0.238518791356895 -0.122294507753226 2.16387435515655
-0.262084898453815 -0.0512042148184038 2.48154014797558
0.251006722292153 -0.0821490463317959 2.18314394607636
-0.258274730549861 -0.00183741095713558 2.49460895496271
0.268005716835225 -0.0647124925113709 2.22426864419552
-0.228726559521626 0.0147069786240063 2.53366770111864
0.282985359002398 -0.022379714249531 2.24826070461511
-0.189362192524745 0.0286763197126202 2.5639158381602
-0.213080815224462 0.0624328762660892 2.54003617264996
0.292185567748063 0.0217191198429093 2.32180012865911
0.290752017772208 0.0138519401888148 2.27463014018385
-0.168728103776917 0.0737649844843265 2.56518477182727
-0.116987273973213 0.074602293518619 2.58108641673606
-0.140797802351914 0.11264211328963 2.55815863596434
0.238206223448355 0.0749381645030184 2.42518199335713
0.265574582840991 0.073051001455394 2.38188597482439
0.281117115482004 0.0679906802017172 2.33418015157489
-0.0916635544395094 0.113315608698648 2.56638860224716
-0.0578638054722139 0.140810015250344 2.54476836656117
-0.00208452483058306 0.128120399618941 2.53400676797037
0.0403033986815573 0.13118812555775 2.50931687135468
0.0823681849268984 0.131248359926348 2.48716876028501
0.125279072185168 0.129369105883489 2.46624183788943
0.165413992939523 0.130956704280807 2.44364727490693
0.202800093014608 0.141341642650871 2.40295454283809
0.238005013715875 0.111113531607463 2.39444859420405
-0.31571589607679 -0.235098772834532 2.21794346253546
-0.281366375803487 -0.272572142711856 2.212183968805
-0.251794407033803 -0.271328375902 2.16870059515245
-0.205865262399938 -0.296218108262478 2.17037933552108
-0.175109397413027 -0.28478388695598 2.13783884964547
-0.135857429921307 -0.290846922227444 2.12428032224291
-0.090075696776258 -0.297731545672516 2.1083091192746
-0.0407970427649099 -0.297637867998023 2.08105750368353
0.00915602848229808 -0.304463691794416 2.07054178190745
0.0449083453475342 -0.280389767454991 2.04310179089675
0.0938085244023156 -0.271745646861386 2.0489297574009
-0.345136850545548 -0.182389474197268 2.29056960552348
-0.330403852298101 -0.221808631208666 2.26114749760865
0.124128322965158 -0.234229808764703 2.03642342208587
0.166485438526803 -0.220678336103696 2.06496998867478
-0.341357596429624 -0.156325807137579 2.33213831850246
0.184440871263851 -0.171366825667212 2.06352099326489
-0.33314514990318 -0.112524281157115 2.35570504928619
0.210197221228372 -0.163118099477619 2.10534106426859
-0.312537227469105 -0.0836310392781918 2.39546462352533
0.21944399108167 -0.118437686466376 2.11948558778212
-0.304252113177352 -0.0380696538212345 2.40780592821386
0.230789373864983 -0.0764558553703167 2.13857724293096
-0.2820819617547 -0.0166922363428259 2.45160211714452
0.250163889624777 -0.0404493008073969 2.17500615587906
-0.274395019664273 0.0304886921038223 2.46254443487024
0.267152146478659 -0.0145332581347322 2.20755761164152
-0.248738826284238 0.0468732653705922 2.50522496563208
0.278826706501334 0.0328315841069909 2.23574010653984
-0.229244110845329 0.0940054841512987 2.50881200811351
0.285127174736953 0.057678284295255 2.28518481545562
-0.188431870785675 0.106919198145075 2.53769429119848
-0.15699674355119 0.14549721262462 2.52671647813905
0.258562839376283 0.109365349552435 2.34828003471149
0.269006149402613 0.101360621074155 2.29930007888583
-0.108479296678334 0.148321349900065 2.53931180832881
-0.0744970555719821 0.174910659409806 2.51229065290967
-0.0290902473410849 0.160152251769202 2.51654554740852
0.00789086283406116 0.164462004045362 2.49113943216963
0.0458900362104592 0.165683659101619 2.46867854644279
0.0885923056479091 0.163141947725453 2.44859191797578
0.126229382793864 0.163812378935392 2.4270559931082
0.163955516226241 0.162882026448732 2.4068892210935
0.226174929853852 0.1451529057327 2.35962508387009
-0.330919860117687 -0.204152861992509 2.1888886146508
-0.293261192374413 -0.2419130457588 2.17532124369186
-0.263931847997072 -0.240771004693951 2.13429541399152
-0.217191632732575 -0.263545918886963 2.13297240661081
-0.175664784948595 -0.254484540876523 2.09825509614934
-0.128918137705561 -0.264479355041138 2.08576051430959
-0.0827709199641099 -0.273858831038665 2.07278508715921
-0.0518297721569191 -0.262586383981325 2.04096651981696
-0.00710209698636551 -0.276137855061838 2.0404673501149
0.0285852047962293 -0.249986188230537 2.01047049360589
0.0768803927374023 -0.244115773332271 2.01772950150291
-0.359999642819888 -0.148613229935508 2.2592031779714
-0.345033337932886 -0.19073387132973 2.23645782159765
0.109962418089284 -0.204292069068202 2.00428441919355
0.151174598177324 -0.19044097547062 2.0313075130864
-0.35352929224606 -0.127008059738996 2.30507262979101
0.171820585206861 -0.140792569247868 2.03313680943113
-0.348173927232945 -0.0794430996759331 2.32089838995523
0.198202881057537 -0.123737696796139 2.07587911563122
-0.327880097091517 -0.0585229904669632 2.36085984896107
0.208711702910901 -0.0750668298512126 2.09250996558195
-0.318730254906661 -0.0106354941213874 2.37474906185255
0.228253963805992 -0.0328308655238694 2.12862298526249
-0.297225212018083 0.0117914267183678 2.4170689634357
0.243356730572999 0.00214171746307076 2.15628022110057
-0.288664416447772 0.0603695725099134 2.42966036993612
0.261685007796627 0.0261550177519161 2.19189693343132
-0.262863136332942 0.0782419664501745 2.47258396135482
0.263792184624689 0.0705682967214925 2.20282987091335
-0.243379623475065 0.124986023501919 2.47597414100495
0.272073581632715 0.0837994295467651 2.2494445239932
-0.202759390609033 0.137986211933253 2.5049052647415
-0.170441778192214 0.177150741314432 2.49354645670425
0.243793635677381 0.142087149811745 2.31360933371064
0.255386630726325 0.131064930544991 2.26497502465591
-0.122781734765184 0.17968454028159 2.50614078798176
-0.082770330564873 0.205321994161762 2.47904649401677
-0.0341334991084254 0.190556913549565 2.47984700659784
0.00632426489749729 0.197354908075622 2.44869662311602
0.0556733928291588 0.192588085844066 2.4278917580312
0.0967842490154017 0.19480628090804 2.40241228536609
0.137938606318349 0.193796353231804 2.38115809674196
0.186611840514008 0.175392648818496 2.36795241891755
0.209412599905637 0.178511651117635 2.32711848075549
-0.344963078129541 -0.173999564560696 2.15752164336156
-0.308251873148217 -0.210887194799298 2.14364505782335
-0.277337856884095 -0.211504025326637 2.10309841569947
-0.225881299845149 -0.234539450548816 2.09955363396697
-0.193235935191409 -0.220640371400119 2.06334297454957
-0.148692793805591 -0.23251987472466 2.05453938481326
-0.102435285768164 -0.243531101571587 2.0436507289048
-0.0702551496992325 -0.230111323867602 2.00832519461357
-0.0203486621178128 -0.243816543911751 2.00573435733056
0.0149345697123706 -0.218520658636603 1.97708510551198
0.0635218393845643 -0.214548181919207 1.98636859357043
-0.374536364042275 -0.117114921549268 2.22537968269211
-0.358567411486179 -0.161368797902505 2.20618945616991
0.0965795146107943 -0.174028444256216 1.97246973975583
0.137906142003725 -0.159234589425316 1.99925235689024
-0.367422210026396 -0.098430537432427 2.27233311320376
0.158709938062336 -0.110536378903838 2.00215703011756
-0.363408512277816 -0.0514307771262707 2.28620702727107
0.185135340610498 -0.0921916411752793 2.04531465472594
-0.341756689679846 -0.0251533843288323 2.32841786731193
0.191964938452935 -0.0449562108890567 2.05444994744079
-0.329794521121332 0.0227773403566591 2.34815427386179
0.211160532283012 -0.0243443584107865 2.09216129427334
-0.310882537276565 0.0435913852135536 2.38525193867712
0.224203244512069 0.0218009704679298 2.11433428289429
-0.303658412701093 0.0900351759613323 2.3952919194587
0.245008765017686 0.0511091178708893 2.15446102114071
-0.277516363478549 0.107915986782928 2.43946552030591
0.249197669278042 0.0983421713016215 2.16757751326731
-0.257103067083271 0.155307055490835 2.44395701938762
0.257048509511213 0.117512685416356 2.21663476982748
-0.216112120888786 0.16918127704816 2.47246249570812
-0.181520442954085 0.208505475425037 2.46167066724035
0.228980734501691 0.17368538137206 2.28126756849877
0.240570440727652 0.163211391372289 2.23267018984435
-0.132421280138747 0.210822683623492 2.47373910135575
-0.0930852355165419 0.23568838653171 2.44603864909663
-0.0435122254921542 0.220050814281007 2.44616544509807
-0.0124970924117255 0.233261171372029 2.41175631085248
0.0287825753218766 0.219755345185604 2.40688337992485
0.0683091372714145 0.223502711519169 2.38026000123221
0.111674082417926 0.224939032082778 2.35457278058305
0.16383614510829 0.207406789030664 2.34260826222885
0.192594600874379 0.209507471861675 2.29923431218284
-0.358769208204802 -0.143863144488043 2.12521477980984
-0.322669088097885 -0.180214397425548 2.1115848613897
-0.292775631770414 -0.181320111248004 2.07250496993974
-0.242040001326436 -0.204549475407542 2.06894101705066
-0.208509332269941 -0.188621100034752 2.02957144327081
-0.164436660980861 -0.199784663459153 2.02008301125524
-0.119635693388275 -0.212204106550239 2.01184916154351
-0.0880741994775556 -0.197907423035192 1.97570830886134
-0.0371935099243139 -0.213374530918784 1.97395579058642
-0.00193259965636999 -0.189253596533851 1.94557767185959
0.0500291080249137 -0.184540163623068 1.95456809671275
-0.388889785059895 -0.084634158232822 2.19455792296831
-0.372185279213608 -0.131743370563578 2.17425497778769
0.0826053203763022 -0.143987842042591 1.94039451250583
0.124044691622875 -0.128688584879882 1.96695125731685
-0.381677111966947 -0.065940912421552 2.23991913601308
0.144205126359714 -0.0810153409225843 1.96935565886602
-0.378912894578039 -0.0163204394207711 2.25019260930139
0.170001030357602 -0.0615895002288913 2.01055577435464
-0.359663295634921 -0.00418832664530218 2.288925176982
0.17976558526236 -0.0107172398665851 2.02540389080561
-0.346667038578289 0.0298375786498552 2.312304243096
0.200617644497357 0.00973784965164702 2.06657514771454
-0.32765808293293 0.0740292588203005 2.34709535428817
0.209732094680343 0.0561854147806955 2.08054686816854
-0.317282333299428 0.119461705820077 2.36379923192647
0.230098157091311 0.0763776130805739 2.12073680082202
-0.291167063002498 0.137609181889673 2.40788394219683
0.23513524465472 0.12628587987956 2.13419245149375
-0.268669456922919 0.186603429081902 2.41371646547196
0.243159599901695 0.146805068628281 2.18283397343709
-0.227971161550598 0.200289855037808 2.44117988886273
-0.194043609522493 0.239074128258092 2.42980622484648
0.214285931128156 0.204644068874011 2.25035303322861
0.226732730297971 0.193311979607326 2.20015255684364
-0.143988955123431 0.241331324881396 2.44160624986316
-0.10725121657245 0.266478179661745 2.41327853515096
-0.0582656194552422 0.25257814560755 2.4114411447834
-0.0218176898422678 0.265118452956065 2.37493136678445
0.0222701417963045 0.250391901843733 2.37012530990331
0.0624283204962811 0.253950630152762 2.34340329056862
0.103501145936656 0.255806419244528 2.31842138857555
0.148691055456561 0.236312365562111 2.31366864761797
0.180152802574337 0.238120814721668 2.26739084868658
-0.376079071026325 -0.11102019244197 2.10135572079656
-0.337064143544941 -0.148820541006008 2.07809341067783
-0.30472615253896 -0.151991508639236 2.03982724516617
-0.255795884163018 -0.175928088624442 2.03881056760167
-0.22340829438257 -0.158014849122631 1.99751992090336
-0.17949577427624 -0.166805979880797 1.98493220673819
-0.136764116320217 -0.178869868186918 1.97736411931356
-0.107153544526428 -0.165327186508189 1.94330149042215
-0.0544451052518819 -0.183239085873227 1.94270794650782
-0.0179965946051505 -0.159515681680922 1.91372375510693
0.0326019109824266 -0.157476735791704 1.92377153998544
-0.403052002784725 -0.051560799283806 2.16336618524909
-0.387079795107867 -0.0995997126373706 2.14676105839815
0.0625005966979746 -0.120031664788269 1.90869441277132
0.109308439775648 -0.0983100721974685 1.93382135205439
-0.396352096371234 -0.0323002357292335 2.20657490092789
0.13627451667162 -0.0461381117401677 1.94497349260598
-0.390436710504524 0.018044784217153 2.22150599484782
0.158117862665132 -0.0272114397020002 1.98215086812346
-0.369368780605284 0.0380567707854866 2.26420642461556
0.165675302657988 0.0218845311093577 1.99293639953571
-0.349146173784792 0.0705865654380935 2.302774056825
0.186621652637981 0.0413192729747201 2.03407742529033
-0.341272712202404 0.115440999659634 2.31433699206551
0.195023005947059 0.0879608122470423 2.04666823594272
-0.327436495778738 0.154444473261055 2.3389055349629
0.216026694820936 0.108595929492628 2.08801396196066
-0.302071916550319 0.169247840935864 2.37976962495704
0.221300416388276 0.156844153956881 2.10241171018312
-0.282090132877535 0.217188515828993 2.38186528309839
0.229451455809438 0.17619243172827 2.1503953813811
-0.240780552701999 0.231317151436901 2.40923350400477
-0.208003986190825 0.26940264463396 2.39753204154594
0.200626429664581 0.234796445933057 2.21733759757412
0.21283082746566 0.223464286020187 2.16757487748144
-0.158216552755263 0.271519481685607 2.40944212176381
-0.121843222360337 0.296829390245977 2.38105238962969
-0.0716131094641658 0.283468188950449 2.37809987741494
-0.0361144796261598 0.294809395769973 2.34365506281969
0.0135250445556814 0.282619039613549 2.33249822810818
0.0564225813266012 0.284276956982489 2.30677547907186
0.0965698096496893 0.285426580804687 2.28323112832606
0.140367311103772 0.264780774586212 2.27855082267699
0.166760057955431 0.268320638837501 2.23427036274592
-0.358371877850359 -0.114437136518561 2.0599009459569
-0.330486115097857 -0.119361475158336 2.02640959224177
-0.295047851092866 -0.116939837787607 1.99577650151039
-0.268248675448845 -0.14735977470996 2.00917756029098
-0.247065047666019 -0.121364188858764 1.97386227090788
-0.201487400975875 -0.131270327406035 1.95805025401342
-0.155831253379207 -0.140438458057903 1.94215723740293
-0.117842971715048 -0.129539011096447 1.91289881953492
-0.0703250370147301 -0.153574476561142 1.91321459431502
-0.0351490710703061 -0.127117314241046 1.88637623969249
0.0166812854547742 -0.126250871551883 1.89224383456172
-0.409177122839306 -0.0179984402665648 2.1318694262648
-0.399175248120193 -0.0660631316131769 2.11555500522518
0.0770466924110296 -0.082363176185038 1.89694478759198
0.108021627539913 -0.0552530827337224 1.91287433108269
-0.406320971279019 0.0030261583387995 2.17405973781553
0.114924495235275 -0.0107828058989207 1.91446556859369
-0.396058771875713 0.0497643221909321 2.18564978950386
0.140710198588355 0.00668343879085251 1.94957992098732
-0.38119824341294 0.0688370400562044 2.22698580265267
0.14442326362061 0.0522720928913675 1.96282286417869
-0.363823573246015 0.091791779977057 2.26722814937545
0.168933148544926 0.0734906068754982 2.00089803512121
-0.354405815596306 0.138969562988164 2.27179354640181
0.174797972645397 0.11840749140383 2.01673560209152
-0.33988078876026 0.170532274875404 2.30061846655322
0.198819756368832 0.139798311050157 2.05473640922246
-0.315607078192731 0.198742022120834 2.34614060736001
0.202437010169081 0.183843685170915 2.07228821840291
-0.295916131077725 0.241639510096251 2.34482818322393
0.213936613888017 0.20635450954988 2.11914065969562
-0.255695577529649 0.259962472196087 2.37541843381418
-0.222052159040311 0.294316940123375 2.36274360447473
0.184761273115563 0.264756747056211 2.18409919223805
0.192376809264462 0.252507535259562 2.13677020499423
-0.17148113197729 0.300926214784507 2.37594948226627
-0.135353256473323 0.32322177659695 2.34278075645358
-0.0894430158638348 0.313094977813127 2.34498428330181
-0.0607121813226989 0.32073746714862 2.31255504648799
-0.0152793896605003 0.313403597314162 2.30142317400262
0.0260412044456274 0.310529808446817 2.28303139621301
0.0690643396342006 0.310764157505201 2.25735559717842
0.123207308338756 0.295997196611446 2.24516184325193
0.149138230855499 0.294568278082161 2.2016289593793
-0.383835528955033 -0.0746340249836049 2.06814604744538
-0.357572818157939 -0.0780601094602557 2.02504199770818
-0.322546522958837 -0.080183214888658 1.99134398273748
-0.277037635779482 -0.0831058226361884 1.96615188584876
-0.230496303426819 -0.0881470895549617 1.94500405852081
-0.187011125631282 -0.0964755532611011 1.92712538973966
-0.147839045158345 -0.0949785941545901 1.9065046071683
-0.108049862981343 -0.083983651930612 1.88166275516052
-0.0797576183700511 -0.116425714964562 1.8870623072675
-0.0562136316467183 -0.0808647829991402 1.86530146381137
-0.0098567524089857 -0.094074916217982 1.86952479255524
-0.399478551218365 -0.0322454205216124 2.08168825960712
-0.389121604095623 0.00766725727934174 2.05219567574178
-0.378290777345355 -0.0367015493290257 2.03597110197065
-0.00598402465689481 -0.0536329476561923 1.85761498220387
0.0375143037262419 -0.0820865409333645 1.87616064869203
0.0326899223201775 -0.0359549785152212 1.86361845630355
-0.40464697032353 0.0372911491213021 2.13452108470903
-0.404459986899531 0.0109752359449855 2.09769450707961
0.0737171049244863 -0.0366921482984157 1.8826200155886
0.083882903012557 0.00737832042625293 1.88961698133245
-0.3908334852401 0.0781558378603305 2.15090459935371
0.109911328458365 0.0387929032569461 1.91991343510819
-0.37962581159514 0.102928686699681 2.18707591845947
0.117458960940085 0.0792785325018962 1.94180304302065
-0.369703522972288 0.11854647688996 2.22585185835855
0.140586046585032 0.105535193161389 1.97347213011807
-0.356259143459656 0.159483751025195 2.22730820306255
0.148089666394275 0.145852648642324 1.99503428502664
-0.342208446945394 0.192287555700831 2.25695869297868
0.170946306504307 0.171896936207936 2.02665229491151
-0.326546308275979 0.214056849091785 2.30663024345336
0.175952708363641 0.210633636398017 2.04923665391961
-0.268644712572894 0.280215766430707 2.33557391404951
-0.303446139769303 0.258340396635267 2.30313108170697
-0.276813945683894 0.292268388020745 2.28821025033791
0.190509715571034 0.231427038689749 2.08974433081299
0.153895836544022 0.251328931452911 2.0580540258596
0.166020011293045 0.26958324122446 2.1017108881085
-0.186707609260062 0.321150578007675 2.33848741844465
-0.236736217831352 0.309024919691145 2.32302109632815
-0.203915591524927 0.331032437797934 2.29721936437789
0.158252800252788 0.290397299811671 2.15047187960564
0.109260918000353 0.317227131966736 2.13484646425453
0.120306094004905 0.315057812902435 2.1746462177566
-0.153056380373348 0.337907556716587 2.30395640311115
-0.105068717025692 0.335423118784139 2.29715960477723
-0.0591378092246527 0.334088829714016 2.2707134507232
-0.0166647798419768 0.330913541069089 2.25444393960332
0.0231128562743039 0.328882434882303 2.23522970054322
0.0587795279634332 0.32852765941994 2.21166276567695
0.100285170787739 0.317581059356411 2.21452003881585
-0.345802841347952 -0.0384963745860296 1.99620310102862
-0.303932643137276 -0.0421113368068317 1.96641248863241
-0.257861413343776 -0.044758405025764 1.94411236179065
-0.214215004153948 -0.0482276280664624 1.92337851988115
-0.173449874029648 -0.0505234608154367 1.90381840160601
-0.134156862685538 -0.0452211940888973 1.88352985786644
-0.0892610761269439 -0.0422237601232814 1.86355011963225
-0.362912589455555 0.00332112702482807 2.0111476672224
-0.340776969009572 0.04137280329954 1.99611074778536
-0.324560262291354 0.000892453347962963 1.97571666771263
-0.279896207801073 -0.00137305183050622 1.9511907059012
-0.236546896988135 -0.0010926707712161 1.93045232000681
-0.193584985583784 -0.00318260418681509 1.90980171217548
-0.152792992523032 -0.000367730867601073 1.89049874534838
-0.110003505280043 0.000259181884135635 1.87025713239674
-0.0617794446209469 0.00392512950251947 1.85626810513939
-0.00678284496013209 -0.000851499968821489 1.85452867516334
-0.0436679561622903 -0.035605196874353 1.85409321218802
-0.392327941189351 0.0505071334469744 2.0814618089743
-0.3672099142951 0.0893906827282759 2.0623142511345
-0.371420981912501 0.0481415419990934 2.03527546298441
-0.0319456289104484 0.0405628353227735 1.86084816740758
0.0416276893794596 0.00733060488523988 1.86721703834037
0.0154245169970957 0.0457609748696728 1.86784640703973
-0.384682062711223 0.0849332836736964 2.10856752211498
-0.355744130229947 0.124385261686206 2.092923926473
0.0645086363025327 0.0474783642776769 1.88799836415637
0.0330793583622696 0.0846536150831308 1.8915950532874
-0.369849176591071 0.122137095459216 2.14093928799165
-0.343648627678415 0.159036218191755 2.12542962560833
0.0790459710529301 0.081709228009691 1.9132608682388
0.04792654614767 0.120947057670749 1.91905723451913
-0.359511881103216 0.151151818298919 2.17814143823236
-0.331698715824703 0.191012244617978 2.15366131568665
0.0951741621035745 0.118567479444123 1.94175090870262
0.0637367498999452 0.156317946058851 1.94632982673087
-0.341077339128083 0.193359360939985 2.20194399045622
-0.314392081639149 0.228739472940539 2.17782316392441
0.110388074108491 0.150799429982792 1.96739323151042
0.079796984517075 0.191018339801977 1.97330505132891
-0.324096671694611 0.231827010223162 2.22406306399333
-0.295819794168884 0.268754715833757 2.20647012354177
0.126983297704787 0.187146394043738 1.99595835075298
0.0950492162892162 0.225831970101734 2.0000405283832
-0.324297130921276 0.235201518262325 2.26729456548926
-0.299990350098605 0.272694053771187 2.25192187645463
0.141024279732486 0.219732711852867 2.02167055994123
0.109780616174527 0.258234657296963 2.02962530157732
-0.244750470795177 0.31706061422128 2.27726647772139
-0.265773078238528 0.303847064656979 2.23500619812938
-0.22177260893872 0.329410157797067 2.24387062791972
0.134018137091333 0.297760512115018 2.10906794171289
0.123771805539578 0.282897484047123 2.06755118654844
0.088401424219509 0.309735877299724 2.08705152802985
-0.1802365722788 0.341281705607968 2.26331771518644
-0.178068723464755 0.338804171159508 2.21943009358791
-0.136210143627707 0.344054380300132 2.25686938855997
-0.133848570050787 0.339645356310844 2.20696735128991
-0.0953000917269191 0.341846801947907 2.24189819911846
-0.0937557766012513 0.337574785691006 2.18768208819289
-0.054260367806791 0.339803509063281 2.21913893722912
-0.0539674692015001 0.335134004424021 2.16654953699646
-0.0135394719478127 0.337683161466071 2.20049536534739
-0.0151189336649956 0.332819483212078 2.14633048251243
0.0251502535280992 0.335740946426751 2.17829170095749
0.0265022173974963 0.33124829820019 2.1292467577461
0.0720723395823042 0.331285031829006 2.16660542711082
0.0654370072192292 0.326652230122396 2.11985421577059
-0.31021329403251 0.0762128331100073 1.98758791875374
-0.296981274641963 0.0406789822455146 1.96567821262636
-0.254687659947213 0.044582200266029 1.9469921941597
-0.210455585394517 0.041811167553285 1.92557571080062
-0.168860791943632 0.0451009703567445 1.90730682497547
-0.127165620208256 0.045730484573106 1.88821504496917
-0.0843137101230822 0.0432453931240006 1.86965974137311
-0.342329426796701 0.0851020966490047 2.02113356894877
-0.300387987299454 0.114158673140166 2.00833263376762
-0.2682808482065 0.0880848451064728 1.97254413265434
-0.222888476096737 0.0824055955542865 1.94877172030782
-0.180581151995534 0.0874293076651826 1.9327457443306
-0.138997272247459 0.0889399825235179 1.91510098160706
-0.0977196126819497 0.0874324158558 1.89567666155367
-0.0567124934205433 0.0791736723599897 1.87889666606049
-0.0143284781545269 0.0851504507713057 1.88083630591163
-0.331688484880047 0.122708179477394 2.04770073158294
-0.290569281630703 0.149920746751048 2.03859952971088
-0.25811720666347 0.133009430125456 2.00381685360179
-0.229037354342101 0.116812280683045 1.97616515909842
-0.185878664256061 0.124228847867816 1.96433412299624
-0.144109122661211 0.126608855018144 1.94851377060066
-0.100378025291898 0.124332588050063 1.92746880536986
-0.054700408644762 0.118049441796754 1.90614375248371
-0.00144743847363434 0.119906664917336 1.90611457657982
-0.320525948249058 0.157425646637874 2.07853021148324
-0.276223032325623 0.184424882695057 2.06483602078026
-0.24280341798528 0.169324141502661 2.0313257279319
-0.206984802899524 0.15296028530992 2.00046148004147
-0.159073542183751 0.162154944145783 1.98838962556433
-0.113490245048902 0.159695756501821 1.96637202059812
-0.0702636765364247 0.156938960412632 1.94510560696162
-0.0302551071290107 0.15064488655477 1.92927386955716
0.0148725636932895 0.157134631970344 1.93449137457346
-0.307685917219481 0.191043590840535 2.10572089105816
-0.263310818403173 0.217239765325897 2.09035055425719
-0.225529927034965 0.206008271099712 2.05833431616039
-0.194191580480525 0.188082830646479 2.02793898775632
-0.15391263874784 0.199039383464523 2.02082280140123
-0.114496905751479 0.194269377290653 1.99929962167655
-0.0708089507484164 0.192109941180278 1.97838273566702
-0.0250359267662983 0.187418251867079 1.95870097680454
0.0295295252672442 0.190561062038633 1.95997357595618
-0.295083790801632 0.223734405850688 2.13203297012312
-0.253566635849186 0.249656654247086 2.11798022065086
-0.214580685893452 0.240422373838794 2.08594289307208
-0.174026672650841 0.229012340417344 2.05768826378343
-0.125052762538305 0.231185345057477 2.03855767722359
-0.0817354503102897 0.227898696240668 2.01674223657034
-0.0394461192846367 0.225871652239553 1.99661472581962
0.000635451801191692 0.220360138509965 1.98202726748377
0.0460526793380328 0.227222602520164 1.98798516682628
-0.2822022829936 0.258946837132589 2.16145706516118
-0.245683184016999 0.282668816287548 2.14889480243073
-0.209852874603267 0.276226054376194 2.11761361389401
-0.170776511840889 0.266971470933032 2.09195772457875
-0.130672613130631 0.263810156575488 2.07164835027106
-0.0853400621912658 0.263262591753023 2.05153613385677
-0.0408853950455324 0.261149811617193 2.03033128481086
0.00546252138771012 0.257232693628115 2.01148694038192
0.0601918591598717 0.260048710695913 2.01363785481409
-0.259372563400186 0.2966222280669 2.19000660544177
-0.212258223477532 0.307656879799016 2.15904841660903
-0.171862898532144 0.302150123995595 2.13160892987772
-0.132329888814554 0.298553712959205 2.11043003292046
-0.0920194465601016 0.295743290238518 2.09004714790922
-0.0493852874043764 0.294256502552432 2.07052536455162
-0.00787107923697702 0.292811251632024 2.05166842665039
0.0320410020152174 0.287761274449507 2.03830973200704
0.0768136866012872 0.29019982943554 2.0489323144396
-0.22280593014905 0.321601803359034 2.20133994947173
-0.174502619549739 0.326557947835226 2.17643129948669
-0.132732727220089 0.324539599598024 2.15667000154949
-0.0925187922415801 0.321796762391577 2.13577656826045
-0.0516407573374991 0.319037757533979 2.11463438832137
-0.00801135196349963 0.317473643648171 2.09523195580729
0.0371075451884515 0.3141329257186 2.07847623187466
3 0 1 2
3 0 2 4
3 3 0 4
3 3 4 6
3 5 3 6
3 5 6 8
3 7 5 8
3 7 8 10
3 9 7 10
3 9 10 12
3 11 9 12
3 13 11 14
3 14 11 12
3 13 14 15
3 16 17 18
3 16 18 1
3 0 19 1
3 19 16 1
3 0 3 20
3 19 0 20
3 3 5 21
3 20 3 21
3 5 7 22
3 21 5 22
3 7 9 23
3 22 7 23
3 9 11 24
3 23 9 24
3 24 11 25
3 25 11 13
3 13 15 26
3 27 13 26
3 25 13 27
3 27 26 28
3 17 16 30
3 30 16 29
3 29 19 31
3 29 16 19
3 31 20 32
3 31 19 20
3 32 21 33
3 32 20 21
3 21 22 33
3 33 22 34
3 22 23 34
3 34 23 35
3 23 24 35
3 35 24 36
3 24 25 36
3 36 25 37
3 37 27 38
3 37 25 27
3 38 28 39
3 38 27 28
3 30 40 41
3 30 29 40
3 29 31 42
3 40 29 42
3 31 32 43
3 42 31 43
3 32 33 44
3 43 32 44
3 33 34 45
3 44 33 45
3 34 35 46
3 45 34 46
3 35 36 47
3 46 35 47
3 36 37 47
3 47 37 48
3 37 38 48
3 48 38 49
3 49 39 50
3 49 38 39
3 40 51 52
3 41 40 52
3 51 42 53
3 51 40 42
3 42 43 53
3 53 43 54
3 43 44 54
3 54 44 55
3 44 45 55
3 55 45 56
3 45 46 56
3 56 46 57
3 46 47 58
3 57 46 58
3 47 48 59
3 58 47 59
3 48 49 60
3 59 48 60
3 49 50 61
3 60 49 61
3 51 62 63
3 52 51 63
3 51 53 64
3 62 51 64
3 53 54 65
3 64 53 65
3 54 55 66
3 65 54 66
3 55 56 67
3 66 55 67
3 56 57 67
3 67 57 68
3 57 58 69
3 68 57 69
3 58 59 69
3 69 59 70
3 59 60 70
3 70 60 71
3 71 61 72
3 71 60 61
3 62 73 74
3 63 62 74
3 62 64 75
3 73 62 75
3 64 65 75
3 75 65 76
3 65 66 76
3 76 66 77
3 66 67 77
3 77 67 78
3 67 68 78
3 78 68 79
3 79 69 80
3 79 68 69
3 80 70 81
3 80 69 70
3 81 71 82
3 81 70 71
3 82 72 83
3 82 71 72
3 74 73 85
3 85 73 84
3 84 73 86
3 86 73 75
3 75 76 86
3 86 76 87
3 76 77 88
3 87 76 88
3 77 78 89
3 88 77 89
3 78 79 90
3 89 78 90
3 79 80 91
3 90 79 91
3 80 81 92
3 91 80 92
3 81 82 93
3 92 81 93
3 93 83 94
3 93 82 83
3 84 95 85
3 84 86 96
3 97 84 96
3 95 84 97
3 96 87 98
3 96 86 87
3 87 88 98
3 98 88 99
3 88 89 99
3 99 89 100
3 89 90 100
3 100 90 101
3 101 91 102
3 101 90 91
3 102 92 103
3 102 91 92
3 92 93 103
3 105 103 104
3 103 93 104
3 93 94 104
3 96 106 97
3 96 98 107
3 106 96 107
3 98 99 108
3 107 98 108
3 99 100 109
3 108 99 109
3 100 101 110
3 109 100 110
3 101 102 111
3 110 101 111
3 111 102 112
3 112 102 103
3 103 105 112
3 117 114 115
3 116 113 117
3 117 113 114
3 116 117 119
3 118 116 119
3 118 119 121
3 120 118 121
3 120 121 123
3 122 120 123
3 122 123 125
3 124 122 125
3 124 125 127
3 126 124 127
3 126 127 128
3 129 130 131
3 114 129 131
3 114 113 129
3 113 2 129
3 129 2 1
3 4 113 116
3 4 2 113
3 6 116 118
3 6 4 116
3 8 118 120
3 8 6 118
3 10 120 122
3 10 8 120
3 12 122 124
3 12 10 122
3 14 124 126
3 14 12 124
3 133 126 128
3 15 14 126
3 15 126 133
3 132 15 133
3 132 133 134
3 135 136 137
3 137 17 135
3 137 18 17
3 18 137 130
3 129 18 130
3 18 129 1
3 15 132 26
3 139 132 134
3 139 138 132
3 138 28 26
3 132 138 26
3 138 139 140
3 136 135 142
3 142 135 141
3 17 30 135
3 135 30 141
3 143 39 28
3 138 143 28
3 143 140 144
3 143 138 140
3 141 145 146
3 142 141 146
3 41 145 141
3 30 41 141
3 147 39 143
3 147 50 39
3 147 144 148
3 147 143 144
3 145 149 150
3 146 145 150
3 52 149 145
3 41 52 145
3 151 50 147
3 151 155 50
3 151 148 152
3 151 147 148
3 149 153 154
3 150 149 154
3 63 153 149
3 52 63 149
3 155 61 50
3 155 72 61
3 155 151 156
3 156 151 152
3 154 157 158
3 154 153 157
3 74 157 153
3 63 74 153
3 159 72 155
3 159 83 72
3 159 156 160
3 159 155 156
3 158 157 162
3 162 157 161
3 74 85 161
3 157 74 161
3 163 83 159
3 163 94 83
3 163 160 164
3 163 159 160
3 161 165 162
3 165 95 166
3 165 161 95
3 161 85 95
3 165 166 167
3 95 97 166
3 105 104 168
3 170 94 163
3 170 168 94
3 169 168 170
3 94 168 104
3 163 164 170
3 166 171 167
3 173 171 172
3 172 171 106
3 171 97 106
3 171 166 97
3 172 107 174
3 172 106 107
3 174 108 175
3 174 107 108
3 175 109 176
3 175 108 109
3 176 110 177
3 176 109 110
3 177 111 178
3 177 110 111
3 178 112 180
3 178 111 112
3 181 105 168
3 181 180 105
3 179 178 180
3 180 112 105
3 168 169 181
3 172 182 173
3 182 172 183
3 183 172 174
3 174 175 184
3 183 174 184
3 175 176 185
3 184 175 185
3 176 177 186
3 185 176 186
3 177 178 187
3 186 177 187
3 187 179 188
3 187 178 179
3 179 180 229
3 189 190 191
3 114 131 191
3 115 114 191
3 115 191 192
3 115 192 193
3 117 115 193
3 119 193 194
3 119 117 193
3 119 194 121
3 121 194 195
3 121 195 123
3 123 195 196
3 123 196 125
3 125 196 197
3 127 197 198
3 127 125 197
3 128 198 199
3 200 128 199
3 128 127 198
3 200 199 201
3 202 203 204
3 131 130 189
3 190 189 204
3 189 130 202
3 189 202 204
3 131 189 191
3 128 200 133
3 134 200 205
3 206 205 201
3 134 133 200
3 205 200 201
3 205 206 207
3 136 208 203
3 202 137 136
3 202 136 203
3 137 202 130
3 134 205 139
3 139 205 207
3 140 139 207
3 211 207 209
3 136 142 208
3 208 142 210
3 211 140 207
3 211 144 140
3 146 212 210
3 142 146 210
3 148 144 213
3 213 144 211
3 150 214 212
3 146 150 212
3 215 148 213
3 215 152 148
3 154 216 150
3 150 216 214
3 219 152 217
3 217 152 215
3 158 218 216
3 154 158 216
3 219 156 152
3 219 160 156
3 158 220 218
3 158 162 220
3 221 160 219
3 221 164 160
3 162 165 222
3 223 220 222
3 220 162 222
3 165 167 222
3 169 170 224
3 225 164 221
3 224 170 164
3 224 164 225
3 222 226 223
3 167 171 227
3 226 167 227
3 226 227 228
3 226 222 167
3 171 173 227
3 180 181 229
3 181 169 230
3 231 169 224
3 230 169 231
3 230 229 181
3 224 225 271
3 227 232 228
3 232 182 233
3 232 173 182
3 227 173 232
3 182 183 234
3 233 182 234
3 183 184 234
3 234 184 235
3 184 185 235
3 235 185 236
3 185 186 236
3 236 186 237
3 186 187 237
3 237 187 238
3 238 188 239
3 238 187 188
3 188 179 229
3 240 239 188
3 240 188 229
3 229 230 240
3 191 190 242
3 242 190 241
3 192 242 243
3 192 191 242
3 192 243 244
3 193 192 244
3 194 244 245
3 194 193 244
3 194 245 246
3 195 194 246
3 195 246 247
3 196 195 247
3 196 247 248
3 197 196 248
3 197 248 249
3 198 197 249
3 199 198 249
3 250 199 249
3 201 199 251
3 251 199 250
3 204 252 253
3 204 203 252
3 190 253 241
3 190 204 253
3 206 251 254
3 206 201 251
3 207 206 255
3 255 206 254
3 203 256 252
3 203 208 256
3 257 209 255
3 255 209 207
3 210 258 208
3 208 258 256
3 211 209 259
3 259 209 257
3 212 260 210
3 210 260 258
3 213 211 259
3 261 213 259
3 214 262 260
3 212 214 260
3 215 213 261
3 263 215 261
3 216 264 214
3 214 264 262
3 217 215 263
3 265 217 263
3 218 266 264
3 216 218 264
3 219 217 265
3 267 219 265
3 218 268 266
3 218 220 268
3 221 219 267
3 269 221 267
3 223 270 268
3 220 223 268
3 225 221 269
3 271 225 269
3 223 226 272
3 270 223 272
3 272 228 273
3 272 226 228
3 274 231 275
3 274 230 231
3 275 231 271
3 271 231 224
3 273 228 276
3 276 228 232
3 276 233 277
3 276 232 233
3 233 234 278
3 277 233 278
3 234 235 279
3 278 234 279
3 235 236 280
3 279 235 280
3 236 237 281
3 280 236 281
3 237 238 282
3 281 237 282
3 238 239 283
3 282 238 283
3 327 239 284
3 284 239 240
3 240 230 274
3 284 240 274
3 241 285 286
3 242 241 286
3 242 286 243
3 243 286 287
3 243 287 288
3 244 243 288
3 245 288 289
3 245 244 288
3 245 289 246
3 246 289 290
3 246 290 247
3 247 290 291
3 247 291 248
3 248 291 292
3 248 292 293
3 249 248 293
3 249 293 250
3 250 293 294
3 250 294 295
3 251 250 295
3 252 296 297
3 253 252 297
3 241 297 285
3 241 253 297
3 254 295 298
3 254 251 295
3 254 298 299
3 255 254 299
3 256 300 252
3 252 300 296
3 257 255 299
3 301 257 299
3 258 302 300
3 256 258 300
3 259 257 303
3 303 257 301
3 260 304 258
3 258 304 302
3 261 259 303
3 305 261 303
3 262 306 304
3 260 262 304
3 263 261 305
3 307 263 305
3 264 308 262
3 262 308 306
3 265 263 307
3 309 265 307
3 266 310 308
3 264 266 308
3 267 265 309
3 311 267 309
3 266 312 310
3 266 268 312
3 269 267 311
3 313 269 311
3 270 314 312
3 268 270 312
3 271 269 315
3 315 269 313
3 270 272 316
3 314 270 316
3 316 273 317
3 316 272 273
3 318 275 319
3 318 274 275
3 275 271 315
3 319 275 315
3 273 276 320
3 317 273 320
3 276 277 320
3 320 277 321
3 277 278 322
3 321 277 322
3 322 279 323
3 322 278 279
3 279 280 323
3 323 280 324
3 280 281 324
3 324 281 325
3 281 282 325
3 325 282 326
3 282 283 326
3 326 283 327
3 283 239 327
3 327 284 328
3 284 274 318
3 328 284 318
3 285 329 330
3 286 285 330
3 286 330 287
3 287 330 331
3 287 331 332
3 288 287 332
3 288 332 289
3 289 332 333
3 289 333 334
3 290 289 334
3 290 334 335
3 291 290 335
3 291 335 292
3 292 335 336
3 292 336 337
3 293 292 337
3 293 337 294
3 294 337 338
3 294 338 339
3 295 294 339
3 296 340 341
3 297 296 341
3 285 341 329
3 285 297 341
3 298 339 342
3 298 295 339
3 298 342 343
3 299 298 343
3 300 344 296
3 296 344 340
3 301 299 343
3 345 301 343
3 302 346 344
3 300 302 344
3 303 301 347
3 347 301 345
3 304 348 302
3 302 348 346
3 305 303 347
3 349 305 347
3 306 350 348
3 304 306 348
3 307 305 351
3 351 305 349
3 308 352 306
3 306 352 350
3 309 307 353
3 353 307 351
3 310 354 352
3 308 310 352
3 311 309 355
3 355 309 353
3 312 356 310
3 310 356 354
3 313 311 355
3 357 313 355
3 314 358 356
3 312 314 356
3 315 313 359
3 359 313 357
3 314 316 360
3 358 314 360
3 360 317 361
3 360 316 317
3 362 319 363
3 362 318 319
3 319 315 359
3 363 319 359
3 317 320 364
3 361 317 364
3 320 321 364
3 364 321 365
3 321 322 366
3 365 321 366
3 322 323 366
3 366 323 367
3 323 324 368
3 367 323 368
3 324 325 369
3 368 324 369
3 325 326 370
3 369 325 370
3 326 327 371
3 370 326 371
3 327 328 371
3 371 328 372
3 328 318 362
3 372 328 362
3 329 373 374
3 330 329 374
3 330 374 331
3 331 374 375
3 331 375 376
3 332 331 376
3 332 376 333
3 333 376 377
3 333 377 378
3 334 333 378
3 334 378 379
3 335 334 379
3 335 379 336
3 336 379 380
3 336 380 381
3 337 336 381
3 337 381 338
3 338 381 382
3 338 382 383
3 339 338 383
3 340 384 385
3 341 340 385
3 329 385 373
3 329 341 385
3 342 383 386
3 342 339 383
3 342 386 387
3 343 342 387
3 344 388 340
3 340 388 384
3 345 343 387
3 389 345 387
3 346 390 388
3 344 346 388
3 347 345 391
3 391 345 389
3 348 392 346
3 346 392 390
3 349 347 391
3 393 349 391
3 350 394 348
3 348 394 392
3 351 349 395
3 395 349 393
3 352 396 350
3 350 396 394
3 353 351 395
3 397 353 395
3 354 398 396
3 352 354 396
3 355 353 399
3 399 353 397
3 356 400 354
3 354 400 398
3 357 355 399
3 401 357 399
3 358 402 400
3 356 358 400
3 359 357 403
3 403 357 401
3 358 360 404
3 402 358 404
3 404 361 405
3 404 360 361
3 406 363 407
3 406 362 363
3 363 359 403
3 407 363 403
3 361 364 408
3 405 361 408
3 364 365 408
3 408 365 409
3 365 366 410
3 409 365 410
3 366 367 410
3 410 367 411
3 367 368 412
3 411 367 412
3 368 369 412
3 412 369 413
3 369 370 413
3 413 370 414
3 370 371 415
3 414 370 415
3 371 372 415
3 415 372 416
3 372 362 406
3 416 372 406
3 373 417 418
3 374 373 418
3 374 418 375
3 375 418 419
3 375 419 420
3 376 375 420
3 376 420 377
3 377 420 421
3 377 421 422
3 378 377 422
3 378 422 423
3 379 378 423
3 380 423 424
3 380 379 423
3 380 424 425
3 381 380 425
3 382 425 426
3 382 381 425
3 382 426 427
3 383 382 427
3 384 428 429
3 385 384 429
3 373 429 417
3 373 385 429
3 386 427 430
3 386 383 427
3 386 430 431
3 387 386 431
3 384 432 428
3 384 388 432
3 389 387 431
3 433 389 431
3 390 434 432
3 388 390 432
3 435 389 433
3 435 391 389
3 390 436 434
3 390 392 436
3 393 391 435
3 437 393 435
3 394 438 436
3 392 394 436
3 395 393 439
3 439 393 437
3 396 440 438
3 394 396 438
3 397 395 439
3 441 397 439
3 398 442 440
3 396 398 440
3 399 397 443
3 443 397 441
3 400 444 398
3 398 444 442
3 401 399 443
3 445 401 443
3 402 446 444
3 400 402 444
3 403 401 447
3 447 401 445
3 402 404 448
3 446 402 448
3 448 405 449
3 448 404 405
3 450 407 451
3 450 406 407
3 407 403 447
3 451 407 447
3 405 408 452
3 449 405 452
3 408 409 452
3 452 409 453
3 409 410 454
3 453 409 454
3 410 411 454
3 454 411 455
3 411 412 456
3 455 411 456
3 412 413 456
3 456 413 457
3 457 414 458
3 457 413 414
3 414 415 459
3 458 414 459
3 415 416 459
3 459 416 460
3 416 406 450
3 460 416 450
3 418 461 462
3 418 417 461
3 419 462 463
3 419 418 462
3 419 463 464
3 420 419 464
3 420 464 421
3 421 464 465
3 421 465 466
3 422 421 466
3 422 466 467
3 423 422 467
3 424 467 468
3 424 423 467
3 424 468 469
3 425 424 469
3 426 469 470
3 426 425 469
3 427 426 471
3 471 426 470
3 429 428 473
3 473 428 472
3 417 473 505
3 417 429 473
3 430 427 471
3 520 430 471
3 431 474 475
3 431 430 474
3 428 476 472
3 428 432 476
3 433 431 475
3 477 433 475
3 434 478 476
3 432 434 476
3 479 433 477
3 479 435 433
3 434 480 478
3 434 436 480
3 437 435 479
3 481 437 479
3 438 482 436
3 436 482 480
3 439 437 483
3 483 437 481
3 440 484 482
3 438 440 482
3 441 439 483
3 485 441 483
3 442 486 440
3 440 486 484
3 443 441 487
3 487 441 485
3 444 488 442
3 442 488 486
3 445 443 487
3 489 445 487
3 444 446 488
3 488 446 490
3 491 445 489
3 491 447 445
3 490 446 492
3 492 446 448
3 492 449 493
3 492 448 449
3 494 451 495
3 494 450 451
3 451 447 491
3 495 451 491
3 449 452 496
3 493 449 496
3 496 453 497
3 496 452 453
3 453 454 498
3 497 453 498
3 498 455 499
3 498 454 455
3 455 456 500
3 499 455 500
3 456 457 501
3 500 456 501
3 457 458 502
3 501 457 502
3 458 459 503
3 502 458 503
3 503 460 504
3 503 459 460
3 504 460 494
3 494 460 450
3 461 505 506
3 462 461 506
3 507 463 462
3 507 462 506
3 465 463 508
3 508 463 507
3 464 463 465
3 465 508 509
3 465 509 466
3 466 509 510
3 466 510 467
3 467 510 511
3 467 511 468
3 468 511 512
3 468 512 513
3 469 468 513
3 469 513 470
3 515 470 514
3 470 513 514
3 470 515 471
3 472 516 473
3 518 516 517
3 518 505 516
3 461 417 505
3 505 473 516
3 505 518 506
3 515 514 519
3 474 430 520
3 521 520 519
3 520 471 515
3 520 515 519
3 474 520 524
3 476 522 472
3 516 472 523
3 472 522 523
3 516 523 517
3 520 521 524
3 477 475 524
3 524 475 474
3 525 477 524
3 478 526 522
3 476 478 522
3 527 477 525
3 527 479 477
3 478 528 526
3 478 480 528
3 481 479 527
3 529 481 527
3 482 530 480
3 480 530 528
3 483 481 531
3 531 481 529
3 484 532 530
3 482 484 530
3 485 483 531
3 533 485 531
3 486 534 484
3 484 534 532
3 535 485 533
3 535 487 485
3 486 536 534
3 486 488 536
3 537 489 535
3 535 489 487
3 490 538 539
3 536 490 539
3 488 490 536
3 538 540 539
3 541 542 543
3 541 489 537
3 542 541 537
3 541 491 489
3 490 492 538
3 545 493 544
3 538 492 493
3 538 493 545
3 540 538 545
3 544 546 545
3 547 548 549
3 543 495 541
3 547 494 495
3 547 495 543
3 608 547 543
3 495 491 541
3 493 496 544
3 544 497 550
3 546 544 550
3 544 496 497
3 550 497 551
3 551 497 498
3 498 499 551
3 551 499 552
3 499 500 552
3 552 500 553
3 500 501 553
3 553 501 554
3 554 502 555
3 554 501 502
3 502 503 556
3 555 502 556
3 503 504 556
3 549 504 547
3 556 504 549
3 504 494 547
3 506 557 507
3 507 557 558
3 508 507 558
3 508 558 559
3 509 508 559
3 509 559 560
3 510 509 560
3 510 560 561
3 511 510 561
3 511 561 562
3 512 511 562
3 514 512 563
3 563 512 562
3 513 512 514
3 517 564 518
3 518 564 557
3 566 564 565
3 557 564 566
3 557 506 518
3 558 566 567
3 558 557 566
3 559 567 568
3 559 558 567
3 560 568 569
3 560 559 568
3 561 569 570
3 561 560 569
3 562 570 571
3 562 561 570
3 563 562 571
3 572 563 571
3 574 514 563
3 572 574 563
3 573 519 574
3 574 519 514
3 519 573 521
3 522 575 523
3 577 575 576
3 577 517 575
3 564 517 577
3 575 517 523
3 564 577 565
3 573 574 572
3 521 573 579
3 580 573 578
3 579 573 580
3 579 524 521
3 524 579 525
3 522 581 575
3 522 526 581
3 576 581 582
3 576 575 581
3 583 580 584
3 583 579 580
3 583 525 579
3 583 527 525
3 526 585 581
3 526 528 585
3 582 585 586
3 582 581 585
3 587 584 588
3 587 583 584
3 587 527 583
3 587 529 527
3 528 589 585
3 528 530 589
3 586 589 590
3 586 585 589
3 591 588 592
3 591 587 588
3 591 529 587
3 591 531 529
3 532 593 589
3 530 532 589
3 590 593 594
3 590 589 593
3 595 592 596
3 595 591 592
3 595 531 591
3 595 533 531
3 534 597 593
3 532 534 593
3 594 597 598
3 594 593 597
3 599 596 600
3 599 595 596
3 599 533 595
3 599 535 533
3 534 601 597
3 534 536 601
3 602 597 601
3 602 598 597
3 603 599 600
3 604 603 600
3 603 535 599
3 603 537 535
3 536 539 601
3 606 540 605
3 606 602 540
3 602 601 539
3 540 602 539
3 605 607 606
3 608 609 610
3 608 543 609
3 604 542 603
3 609 543 542
3 609 542 604
3 542 537 603
3 540 545 605
3 605 546 607
3 612 607 611
3 605 545 546
3 607 546 611
3 612 613 614
3 612 611 613
3 614 615 616
3 614 613 615
3 616 617 618
3 616 615 617
3 618 619 620
3 618 617 619
3 620 621 622
3 620 619 621
3 622 623 624
3 622 621 623
3 610 548 608
3 624 623 548
3 624 548 610
3 548 623 549
3 548 547 608
3 546 550 611
3 611 550 613
3 613 550 551
3 551 552 615
3 613 551 615
3 552 553 617
3 615 552 617
3 553 554 619
3 617 553 619
3 554 555 621
3 619 554 621
3 621 555 623
3 623 555 556
3 556 549 623
3 565 625 626
3 567 566 626
3 626 566 565
3 567 626 627
3 568 567 627
3 568 627 628
3 569 568 628
3 569 628 629
3 570 569 629
3 570 629 630
3 571 570 630
3 572 571 631
3 631 571 630
3 572 631 578
3 576 632 577
3 625 632 633
3 565 577 632
3 565 632 625
3 625 633 634
3 626 625 634
3 626 634 627
3 627 634 635
3 627 635 628
3 628 635 636
3 628 636 629
3 629 636 637
3 629 637 630
3 630 637 638
3 631 638 639
3 631 630 638
3 640 578 639
3 578 573 572
3 578 631 639
3 578 640 580
3 576 641 632
3 576 582 641
3 633 641 642
3 633 632 641
3 633 642 643
3 634 633 643
3 634 643 644
3 635 634 644
3 635 644 645
3 636 635 645
3 636 645 646
3 637 636 646
3 637 646 647
3 638 637 647
3 638 647 648
3 639 638 648
3 640 648 649
3 640 639 648
3 584 580 640
3 649 584 640
3 582 650 641
3 582 586 650
3 642 650 651
3 642 641 650
3 642 651 652
3 643 642 652
3 643 652 653
3 644 643 653
3 644 653 645
3 645 653 654
3 645 654 646
3 646 654 655
3 646 655 647
3 647 655 656
3 647 656 648
3 648 656 657
3 648 657 649
3 649 657 658
3 588 584 649
3 658 588 649
3 586 659 650
3 586 590 659
3 650 659 651
3 651 659 660
3 651 660 661
3 652 651 661
3 652 661 662
3 653 652 662
3 653 662 654
3 654 662 663
3 654 663 664
3 655 654 664
3 655 664 665
3 656 655 665
3 656 665 666
3 657 656 666
3 657 666 658
3 658 666 667
3 592 588 658
3 667 592 658
3 590 668 659
3 590 594 668
3 660 668 669
3 660 659 668
3 660 669 670
3 661 660 670
3 661 670 671
3 662 661 671
3 662 671 663
3 663 671 672
3 663 672 664
3 664 672 673
3 664 673 665
3 665 673 674
3 665 674 666
3 666 674 675
3 666 675 667
3 667 675 676
3 596 592 667
3 676 596 667
3 594 677 668
3 594 598 677
3 668 677 669
3 669 677 678
3 669 678 679
3 670 669 679
3 670 679 680
3 671 670 680
3 671 680 681
3 672 671 681
3 672 681 682
3 673 672 682
3 673 682 683
3 674 673 683
3 674 683 684
3 675 674 684
3 676 684 685
3 676 675 684
3 600 596 676
3 685 600 676
3 598 686 677
3 598 602 606
3 678 686 687
3 678 677 686
3 678 687 679
3 679 687 688
3 679 688 680
3 680 688 689
3 680 689 681
3 681 689 690
3 681 690 682
3 682 690 691
3 683 691 692
3 683 682 691
3 684 692 693
3 684 683 692
3 685 693 694
3 685 684 693
3 694 604 685
3 685 604 600
3 598 606 686
3 606 607 695
3 686 606 695
3 686 695 687
3 688 687 696
3 696 687 695
3 688 696 697
3 689 688 697
3 689 697 698
3 690 689 698
3 690 698 699
3 691 690 699
3 691 699 700
3 692 691 700
3 692 700 701
3 693 692 701
3 610 609 694
3 701 610 694
3 701 694 693
3 609 604 694
3 607 612 695
3 695 612 696
3 696 612 614
3 614 616 697
3 696 614 697
3 616 618 698
3 697 616 698
3 618 620 699
3 698 618 699
3 620 622 700
3 699 620 700
3 622 624 701
3 700 622 701
3 624 610 701
