OFF
702 1400 0
-0.26109230029652 -0.325523520885452 2.18469643536196
-0.306423048003071 -0.311804672331379 2.16667175670421
-0.278304276001853 -0.331548206029772 2.13943406623229
-0.214248423276401 -0.332217671640908 2.18955877568193
-0.232405958215072 -0.342367862301556 2.14486987928133
-0.167457777093198 -0.336977348498937 2.19284307727671
-0.186030349373454 -0.346711247049081 2.14712910337474
-0.122098997377733 -0.341072507881293 2.19732037884764
-0.140718009181698 -0.350845265736443 2.14908582022679
-0.0772257482664856 -0.344967851055703 2.20215132220826
-0.0959778079530982 -0.354542736659201 2.15383466101163
-0.0297498414564403 -0.348075315958931 2.20988508742574
-0.0502176950669952 -0.357855067366703 2.16243345987748
0.0183494300054831 -0.34369228044529 2.21828444487249
-0.00292451887592708 -0.359475728276193 2.17154342035911
0.0436010638798464 -0.350634683137141 2.18032345225455
-0.329008003289278 -0.282928656048311 2.19461071988003
-0.358617847711833 -0.265720285835198 2.16695558346958
-0.337460663708161 -0.296028144100094 2.13880410746157
-0.28865986231184 -0.298841985118896 2.21454625788521
-0.242020073703353 -0.307879948256347 2.22671709117146
-0.194346162752333 -0.313268552339789 2.23068902340479
-0.147599884352221 -0.317263072109794 2.23617869302566
-0.102403952627004 -0.320700313386275 2.24210935115918
-0.0581274772310959 -0.326152351211831 2.24481060254776
-0.0094973382278437 -0.327000500385607 2.25217158702698
0.0643447696967654 -0.327595986779678 2.2238965381463
0.0357122970089346 -0.314907806255635 2.25990243306325
0.0818744297552548 -0.294891498031872 2.25750691695968
-0.316091529067748 -0.261755092038563 2.23601201828732
-0.356093101360674 -0.241425499989226 2.20774772416556
-0.270205641936276 -0.275178521460926 2.25377603671505
-0.220298692948535 -0.281584869415025 2.26200110891084
-0.172724207283317 -0.285984914878836 2.26735902255389
-0.125124944756869 -0.288466317583378 2.27466610347285
-0.0804420331006147 -0.291247172224963 2.28106711147017
-0.0382246314731243 -0.300709204755158 2.28019377005886
0.00311690427575036 -0.292461318485224 2.29084666398506
0.0488119140441316 -0.279154217470918 2.29222958945759
0.0937065578028861 -0.257026023708182 2.28558641457104
-0.334274276553045 -0.224273941919226 2.25629349674964
-0.367296414404575 -0.202932121200374 2.22955116451928
-0.293402292782865 -0.239110210669839 2.27767571502207
-0.244451405991288 -0.249746955479803 2.28908339016497
-0.195710783343712 -0.251954858491014 2.29708273258917
-0.148284529125385 -0.256783393519619 2.30197688106426
-0.096808898777262 -0.25765269971336 2.31171551341203
-0.0419895872368209 -0.267156256989657 2.31339907075533
0.00845170393709806 -0.259893605705871 2.32274594162413
0.0589788560718185 -0.244512001594086 2.32137950497974
0.10382760492079 -0.218606560961175 2.31332342148362
-0.318377975360905 -0.199806876792354 2.29864697981168
-0.358721652829787 -0.182128179137514 2.26731807935993
-0.269231888128139 -0.217002407841362 2.31380361399121
-0.221854138242803 -0.219306433255067 2.32475652244949
-0.17633126039827 -0.220371347258915 2.33306939878179
-0.132412700941256 -0.228301961196372 2.33409779792399
-0.0989023395253768 -0.216275162978599 2.35319119414903
-0.0640988966259481 -0.235744643305021 2.34065255833147
-0.0217954103556762 -0.232253992059796 2.35154967984429
0.0261255987600886 -0.225833461285857 2.35292510665356
0.0742419250569411 -0.207192189729162 2.34866834668331
-0.321511424051879 -0.158920852868665 2.33846176391272
-0.349482755744668 -0.161356151050421 2.30356232925974
-0.288691844039495 -0.185367359980756 2.33614768863719
-0.241662837105745 -0.187704868799328 2.35267002132203
-0.196936485859939 -0.186489939469506 2.36313515548076
-0.148051189331634 -0.191537125483516 2.36810779780448
-0.102633317228321 -0.18572720945937 2.38336209934206
-0.0552522235174813 -0.199252652179599 2.37943766702816
-0.00723924820696813 -0.199140234046891 2.38492735745618
0.0405604579230831 -0.191985792020647 2.38150529504093
0.0881092747090852 -0.170014864188563 2.37431606340963
-0.31090612751026 -0.134178815857705 2.37354807267857
-0.354902648207471 -0.121649682010015 2.33818274918837
-0.272305608135045 -0.158752438838324 2.37205789431003
-0.226360116233697 -0.152460482441236 2.39152967275064
-0.176348229294868 -0.157047476239695 2.39720184003579
-0.130567523541541 -0.156848712399322 2.40684835690267
-0.0790624782492479 -0.16095027925523 2.41331917105279
-0.0341440738772046 -0.167580185108309 2.41551078325593
0.0122374884064396 -0.164803964614736 2.41681727508503
0.0562137494281595 -0.157745069314712 2.40784794736814
0.092690716245866 -0.132168651394788 2.40663010740931
-0.306067945595581 -0.0941211218024825 2.40901212763198
-0.339881356593741 -0.103038135373283 2.37586268269474
-0.27272724967543 -0.12446991539136 2.40488754180311
-0.238142360598502 -0.112547611490534 2.42267381514051
-0.195437799111625 -0.121244968763978 2.42450704444196
-0.150332360764428 -0.121552519822995 2.43237475267583
-0.103147968220338 -0.125063394121414 2.43845309882473
-0.0545648888340966 -0.129362825429001 2.4442607607279
-0.00629318469911742 -0.132651100434832 2.44612398599368
0.0453258536820005 -0.127207862435276 2.43858383276654
0.0928146029899557 -0.0962793581316571 2.43067184276988
-0.347157308659904 -0.0635981781971491 2.39244324835082
-0.268844037453361 -0.0746554529391871 2.43483530730305
-0.312266715343385 -0.0500720895118792 2.42363189298151
-0.219398921226932 -0.0754039384550802 2.44423478663903
-0.173390529457715 -0.0803433288622776 2.44952013347869
-0.126730122235609 -0.0815226563081703 2.45629284959873
-0.0809565938784898 -0.0863292791170593 2.46160110806201
-0.0343123494635265 -0.0910473617325438 2.46679322789794
0.0123514891274355 -0.0929705709035218 2.46489332831078
0.056740190082372 -0.0870194119445955 2.45476941387125
0.0386171649031718 -0.0479172402589718 2.47096708940887
-0.285310365222914 -0.0230292816528889 2.4414139900818
-0.242925740153483 -0.0322778288912028 2.45158232528008
-0.193913172832392 -0.0343533773355847 2.45797333367082
-0.148172587970672 -0.0356876182032733 2.46397447046436
-0.101903047290429 -0.0373427382554992 2.46998445547699
-0.0573730738189719 -0.0442726603001579 2.47516015225001
-0.00968746893678922 -0.048878350082719 2.47831105254154
-0.256272422368837 -0.33976597895539 2.10032139919671
-0.279899808480885 -0.326012365849223 2.06466173950907
-0.256225173635786 -0.319697993697218 2.02712003056719
-0.206690300413111 -0.346518664548825 2.10117285303793
-0.228158112973969 -0.337788717243641 2.05995469841038
-0.160647621296154 -0.349663452666561 2.10069862584816
-0.179993074078463 -0.338581638359669 2.0545636187135
-0.115255420625152 -0.35298105797514 2.10342085200701
-0.134692776659571 -0.340539973457916 2.05542199823501
-0.0699650912941397 -0.356875793381501 2.11131365570424
-0.0871523485620501 -0.344507780064817 2.06176377093944
-0.0250986134289523 -0.360958735816693 2.12189411675485
-0.0414831712409753 -0.349483574281204 2.07118602161178
0.0209402441050646 -0.359824692152467 2.13056879294075
0.00267919774877107 -0.353904208356422 2.08268602007206
0.0506112728286515 -0.347247989530504 2.09177915630101
-0.307739955707701 -0.319110886964253 2.10778440374251
-0.345988541946488 -0.288511805653787 2.09140511896906
-0.316433125153893 -0.304643088652096 2.0592252404571
0.0884340923890993 -0.330684600587552 2.18451038836024
0.0641484789967777 -0.348321926891732 2.13987921822099
0.103942453904363 -0.327131845048458 2.14183278790999
-0.383655898999123 -0.229974418648069 2.15692979493325
-0.39376396962798 -0.217874917851984 2.10720710231059
-0.371283195916845 -0.260408560112444 2.1206129069641
0.109601410550881 -0.302273360671279 2.21793196040971
0.130317303125727 -0.3011983625783 2.17364266355451
0.147559997837678 -0.269808821881608 2.20072207065514
-0.385695602725482 -0.201067777408373 2.18816236501559
-0.401326077886308 -0.185267336938304 2.14167586192922
0.12368004247303 -0.266372737481619 2.2459191088853
0.155037428097015 -0.230314333520136 2.23104783148289
-0.389246078012278 -0.162199841189872 2.22169026898158
-0.401762864796061 -0.155117647082684 2.1778464030339
0.131750028141412 -0.225872585521711 2.27364693268264
0.161703619126564 -0.188311543006668 2.25498379346981
-0.383683605861143 -0.142876676829599 2.25935041386544
-0.403838811544055 -0.114679281622793 2.21684745404579
0.140636831914948 -0.184717986807463 2.29882030475235
0.166361187023181 -0.146257895381375 2.28092466534599
-0.375778141194849 -0.124588002155233 2.29814098617451
-0.399292371715523 -0.096583995846506 2.26200984649305
0.117376242010559 -0.177476222678342 2.3379309706454
0.150209888413932 -0.139590079187652 2.32355389899429
-0.389283644457676 -0.0844461385524316 2.30997059737319
-0.407218010681506 -0.0502662199479143 2.27839766476726
0.125004316216329 -0.137445292055964 2.36617689635899
0.155533402477841 -0.0995279308035385 2.34900283543298
-0.373831793953596 -0.0766518951496731 2.35144925339985
-0.397742298999847 -0.0388035126632138 2.3257022503783
0.128657767901227 -0.100011783634969 2.39421882519923
0.152664683116428 -0.0622738971370618 2.38029294463385
-0.376411941920366 -0.0313813818484351 2.36858305962941
-0.34435540331406 -0.0199779163066982 2.4061054246431
-0.363822382338228 0.0134355909974873 2.38613991542581
0.0858666407169723 -0.0491951043729874 2.45037479316423
0.109512410163791 -0.0100808691879625 2.43595093667027
0.122655160547817 -0.0577821124246866 2.42011743200408
-0.318735367364728 0.00756351128881735 2.42517250921196
-0.266258506473507 0.0180196616198387 2.44710393783069
-0.297942462926748 0.0463027749737496 2.42939409933682
-0.216762637139493 0.00910488741968785 2.45610534776639
-0.169508851222746 0.0117070308539521 2.46138603248352
-0.122931600972976 0.0100324637927317 2.46695853877134
-0.076141128958992 0.00829073828041131 2.47254250026371
-0.0332866807702964 -0.00269732142568687 2.47868301761469
-0.00753476565647915 0.0334930963804581 2.47253538685256
0.0173691673769015 -0.00675308679642738 2.47705779740021
0.0661306121632032 -0.0069261788604423 2.4622984906587
-0.264232277089831 0.0753604490511637 2.43144714757086
-0.232851676231462 0.0516005941472685 2.44637057109609
-0.18870225871482 0.0565901119544083 2.44913102776002
-0.142628437669299 0.0562979801574828 2.45366699857987
-0.0959810256687172 0.0539843598880499 2.45895929722005
-0.0476104003011919 0.0519400585189101 2.46429737819233
0.00842202316914828 0.0703075375362986 2.45653822001723
-0.343842583667775 -0.273225323908333 2.04180674030693
-0.327350235648 -0.260880867682986 2.0025201454011
-0.297061449423992 -0.29661172615547 2.01737212408731
-0.24820220040481 -0.298314786462424 1.99060960188045
-0.206508083729237 -0.321538289977204 2.01742940753118
-0.155927732321653 -0.317763040778984 2.01075481061625
-0.106015798203026 -0.323156901966766 2.01912759772837
-0.0540162653690119 -0.327513044897027 2.02590059409744
-0.00878199886946604 -0.333243327165481 2.03492740911559
0.0352486466758034 -0.336521721330568 2.05119976830426
0.0778192959316402 -0.318841086555572 2.04980661185586
0.0903040335106176 -0.330946761729851 2.09823672330689
0.117164806313943 -0.305526993398325 2.0795912163044
-0.373617010577911 -0.249807516604692 2.07430336653586
-0.390841127079825 -0.203722996742244 2.05968367834575
-0.367557205295821 -0.231727540227898 2.03052560935076
0.133718735675709 -0.301355301144581 2.12408491036801
0.149952200613957 -0.273859410515813 2.09182318991436
0.159853579371049 -0.268733790589354 2.14687006797368
-0.404859396411334 -0.169366082202698 2.09495561793335
0.179990301108419 -0.226818034326983 2.14276930601702
-0.407672511045554 -0.137231246477158 2.12642446312899
0.171856018877382 -0.233038205051612 2.18549887701583
-0.40858737465083 -0.113554970228675 2.16836111036729
0.17778373275186 -0.190252741096028 2.20777703691129
-0.410348939932002 -0.0731994815792512 2.18246117879359
0.180651615889314 -0.149203467851246 2.23032325216763
-0.410333377987774 -0.0637324094575168 2.22938777466702
0.18154029115139 -0.110907761340636 2.25623797279379
-0.413106175553078 -0.0154051931352721 2.24609657998651
0.173732239788902 -0.0966185500177295 2.30117228923112
-0.409298617353588 -0.00266646818128991 2.29605280358382
0.174180606003208 -0.056530396060297 2.33255399788477
-0.392520917301425 0.00734805726131201 2.34377977431442
-0.398540426772852 0.0436391876269665 2.31346416842394
0.142774499859452 -0.0168085655949454 2.40236252586932
0.167145619375506 -0.0222039290183462 2.36154716134732
-0.374863426777826 0.0509759502919168 2.3594381101174
-0.340199479357816 0.047863151368807 2.40090373561765
-0.346713964687566 0.0883821898692622 2.37165614971921
0.0423824589697547 0.0343607471733855 2.46349341683958
0.0888988216869335 0.0329784340962248 2.44201200834012
0.12784496831829 0.0293738660108801 2.4101807737507
-0.310047312452592 0.0856487020623635 2.40527823944143
-0.269283771256797 0.112080261549329 2.40762480826967
-0.216999268130124 0.0965706348108688 2.42797053777811
-0.167948229667047 0.0982819396844116 2.43057918844916
-0.12062727200571 0.0968876261710667 2.43491180311474
-0.0733107483757514 0.0934472190952601 2.44057944042921
-0.0273257587113168 0.0937154156775414 2.44360523043433
0.0264494680902172 0.103826513189365 2.43066472980452
0.0598565137003745 0.071973449135765 2.44040269237367
-0.315669410547229 -0.230599394802126 1.96600431387379
-0.284650635252889 -0.269760472969752 1.97702975250399
-0.236112261623528 -0.268146463537555 1.95682397768664
-0.199159564766423 -0.295840612078624 1.98130530944314
-0.155363307780583 -0.284687473565819 1.97165941682792
-0.115233901103179 -0.29244440596841 1.98118683691004
-0.0683385039942421 -0.301297434737263 1.99218183875693
-0.0121889670729804 -0.302842520157075 1.99616772430136
0.0352217696619367 -0.312163987290232 2.01399505990537
0.0807171434683062 -0.288970037311897 2.01227845056682
0.118688886393532 -0.28362326814504 2.04436384170823
-0.378713404151144 -0.179895504150679 2.01471765612492
-0.351246029016238 -0.218617441983228 1.99515374944219
0.151799575643162 -0.247445459763338 2.05319476205162
0.172002654508479 -0.237944679688682 2.10109303860031
-0.397629070324281 -0.156222930217861 2.05349087133364
0.189001604615868 -0.18980792226539 2.11334091572321
-0.402580363801558 -0.114237079723175 2.08095142134888
0.187928861042107 -0.185246212361078 2.16292306382082
-0.406348582997704 -0.088678378766075 2.12756561410683
0.189009860186602 -0.141975806663069 2.18313229529011
-0.405067235635396 -0.0443809421028907 2.1458107783705
0.189082576796086 -0.101770941643744 2.20841562359302
-0.409910168996 -0.0266118035362609 2.19608422531881
0.186269354820614 -0.0688792886301864 2.25210926701117
-0.408327284313968 0.0194065693441333 2.21295630991214
0.183335488388606 -0.0457073856512613 2.29050581309404
-0.409760432974376 0.0320418591835855 2.26381511191917
0.178847467025612 -0.000611145875976984 2.32397465641698
-0.394274355820774 0.0776603749476436 2.28094664088996
0.157713222414181 0.0213006112754618 2.3706121118926
-0.375563434275485 0.0866026941030847 2.328238559513
-0.342328223922404 0.123694955717141 2.33903336039773
0.102241694431206 0.0712882827563832 2.41283018390151
0.13754357322024 0.0651228483941314 2.37694231341455
-0.308510802417398 0.122924583400487 2.37613254198232
-0.264666624500874 0.148712964015198 2.37399375281669
-0.229317347416147 0.131021541855568 2.40110712864039
-0.184373328624545 0.13433621033322 2.40027327389079
-0.140258501535095 0.134363018201403 2.40222322727643
-0.0935912834352368 0.13023288218758 2.40843043972064
-0.0502978755916102 0.129685961897581 2.41091576253303
-0.00771559947244556 0.127469312936214 2.41447407967647
0.0697753497023871 0.108369841049731 2.40741442029085
-0.311799509425144 -0.197369929339785 1.93577484817569
-0.273752764978403 -0.236627869918864 1.94204697919265
-0.226761994255563 -0.235223445354884 1.92375685998807
-0.187440661172561 -0.260708581784979 1.94632753507135
-0.13349249058572 -0.252468131027775 1.94053364469862
-0.0877614987841194 -0.264654394009796 1.95472629411214
-0.0422552646330422 -0.276166660436177 1.96823748799408
0.00129807870174767 -0.26522219866778 1.95928377597269
0.0387034278075256 -0.281431214086607 1.98214343787804
0.0855899847210052 -0.256034101838725 1.97840953144275
0.122207732975131 -0.253487150231802 2.01115451113902
-0.373228240818529 -0.143749643415107 1.98295321400957
-0.349275727227537 -0.185512922174516 1.96889634416109
0.15819897694729 -0.215129957610542 2.02087429470411
0.178282347075413 -0.205184520297183 2.06689918694671
-0.392344887933004 -0.12490080064315 2.02644953977691
0.19575215909262 -0.157039836117567 2.0833753029735
-0.395372076101789 -0.0786018859466929 2.04616772110078
0.19490924132525 -0.143783655950086 2.13473055708644
-0.399703037813249 -0.0609824731065302 2.09218084725867
0.19578417978881 -0.0967364907711346 2.15800441639919
-0.398487571066735 -0.0144962859335958 2.11236497953407
0.193431968584284 -0.0576292271143705 2.20199323163363
-0.403056353991405 0.00443346819763159 2.16112150062734
0.191807052928567 -0.0250692405281594 2.23595357235067
-0.401609035461687 0.0517089704998096 2.17995230353509
0.188276225826385 -0.00402914997860289 2.27749827578734
-0.403018061888121 0.0658064519738045 2.23120499987021
0.185125984006437 0.0395705596633279 2.29112361837442
-0.387443087603813 0.111048545790806 2.24813664432953
0.166919957611625 0.0499238162789822 2.33559744184803
-0.368917568067155 0.12008632325262 2.29537160852394
-0.334721376024337 0.157728577891665 2.30637124803895
0.109584563751077 0.106542598882217 2.37827416325892
0.145588725389975 0.0972817347602778 2.34307303246182
-0.301628295597172 0.15672105145784 2.34298203846098
-0.25271799741969 0.181196917398152 2.34398552820262
-0.212777703512943 0.16347490816422 2.36996423316178
-0.161726391471445 0.169345684263052 2.36640230730081
-0.10915378096355 0.162628387762003 2.37545216835511
-0.0607611724350482 0.163610104946032 2.3766430017514
-0.0147161889193548 0.161159695824428 2.38114817668433
0.032816601596456 0.140508925236243 2.39516065290712
0.074282550472982 0.144272262048167 2.37363332864679
-0.305713837988368 -0.164885640243237 1.9041828274892
-0.268270904392783 -0.203200555104498 1.90974731173583
-0.220256607573662 -0.203670037335205 1.89258648552027
-0.175778752591855 -0.229591021260337 1.91584151860067
-0.128337454809684 -0.215912172600367 1.9043381080594
-0.0865120326938324 -0.230027695654892 1.92027872629484
-0.0420917610645832 -0.24327775890259 1.93547222116322
0.00446521742867258 -0.230092664209735 1.92442025321544
0.0473458484196521 -0.24666577925224 1.94833230751036
0.0931378029395457 -0.222164593887061 1.94544151057021
0.12884951024076 -0.2216287557857 1.97989544119012
-0.366182408198472 -0.109771561337494 1.9491399812594
-0.343382357007819 -0.153900385309076 1.93844033768643
0.165084699384272 -0.182553509335242 1.98927485223612
0.185417630829276 -0.171663184867706 2.03523167528607
-0.385421285272818 -0.0939278677909101 1.9936729467762
0.202409770174366 -0.124529155976586 2.05262136435655
-0.388519551160378 -0.0480130085881555 2.01098765679055
0.2014068062785 -0.110010529595299 2.10444428800453
-0.392814360425171 -0.0252482496427582 2.0600221158427
0.203259826926385 -0.063795188396348 2.11934366404325
-0.392435861888741 0.020817165512681 2.08662677435235
0.199230618671941 -0.0463035939303963 2.16285543910335
-0.396362640481241 0.0385583036179784 2.12948650789812
0.199140966089314 -0.00220574936686151 2.19195040793414
-0.39469208833262 0.0839151719688914 2.14529722065614
0.195347574426924 0.0237361588974258 2.23901015597111
-0.396498159422608 0.0979377449896457 2.19778095811924
0.19281518203445 0.0699108074252782 2.255804185955
-0.380730618715373 0.143713095962154 2.21618724863062
0.173055901469481 0.0860889827278005 2.30253315128097
-0.361641457066359 0.15362089975787 2.26333333230131
-0.325846791123723 0.191255429476776 2.27605435367901
0.115592357484796 0.140562983482483 2.34555750233359
0.151586626572806 0.131846995239816 2.31042667383819
-0.2912665627779 0.189970630662182 2.31299080511329
-0.242609138595785 0.213748615608866 2.31306254657282
-0.201537723875637 0.195133507715924 2.33892080863777
-0.156461718424797 0.20813495305953 2.32798661065287
-0.119554216470996 0.192400311613861 2.34531927124224
-0.0718272878799464 0.195060184226974 2.34480788885412
-0.021452246816063 0.195135541028999 2.34699062753854
0.0283450161753298 0.175078892236407 2.3640016083385
0.0761627669950052 0.177591233400037 2.34350985298604
-0.298916775768848 -0.132385594104438 1.87193234809494
-0.26210751555389 -0.170140916407028 1.87741148472903
-0.215760411734048 -0.171108975204794 1.86088610788985
-0.1718803982045 -0.197178418470922 1.88371893199115
-0.121924508118298 -0.181372472277649 1.8702073310634
-0.0801020643078316 -0.194711359600257 1.88537351462141
-0.0383846937206119 -0.209409353464449 1.90189003703555
0.00812030318514305 -0.195271603821376 1.8898861381762
0.0513170690532145 -0.213702412380213 1.91489597684834
0.0969143493997631 -0.190384727123648 1.91213147503535
0.13562944400066 -0.189301137767765 1.9482289893286
-0.360598917081507 -0.07497543045907 1.9180103256905
-0.336643139653587 -0.121939841336705 1.90656511604888
0.17161225650004 -0.150150334078892 1.95711958329919
0.192174954000534 -0.138751747260598 2.00298675177566
-0.378885607856529 -0.0590492425720864 1.96126599839232
0.208877174603957 -0.0925752739351651 2.01953158792293
-0.381001780212367 -0.010265574026009 1.97508815414846
0.208441716769715 -0.0768426235225036 2.06945688765631
-0.385744948744457 -0.00128171468233878 2.01884589223636
0.209719236528363 -0.0274663830733341 2.09100113958976
-0.386820128350783 0.0306769082392773 2.04801327248842
0.205184038093514 -0.0104050771877815 2.13829421808584
-0.388850584796235 0.071832426924456 2.09075396664957
0.206290592790073 0.0346436876607027 2.15841989331251
-0.388203918939874 0.115655702478238 2.1137732040828
0.201878055079484 0.0515216236002023 2.20460860239141
-0.389977536184783 0.129950189580348 2.16618810492556
0.199934296465936 0.100294522696289 2.22234804988041
-0.373158807509533 0.177129665520699 2.18696848703808
0.180579391255521 0.117827405638152 2.26892498302379
-0.353750130582188 0.186920221553109 2.23307008569264
-0.318206704500994 0.224086073435865 2.24490322497347
0.120904467498121 0.17386721292812 2.31405042602939
0.158471488702898 0.164323790042117 2.27798009357433
-0.282681204296919 0.222696672850412 2.28212972568551
-0.235850376882405 0.246944599726823 2.28028668312817
-0.194156967549014 0.230195678668144 2.30431393716454
-0.143400362692704 0.242303307351421 2.29452378077517
-0.104206842007161 0.225177328127334 2.3133459793951
-0.0559016169688097 0.227615608529412 2.31308101963388
-0.00782118044628156 0.228213469813289 2.31464004358764
0.0321528045033756 0.206265020888204 2.33374712905423
0.0838130680002939 0.208466645762306 2.31227350063836
-0.299602575044897 -0.0973966605859926 1.84504648270818
-0.25512685722177 -0.136292203986004 1.84394502107228
-0.207226146369822 -0.139508716498867 1.82927273194847
-0.166265756690747 -0.166300642152267 1.85320187433011
-0.116170850929619 -0.148350260195883 1.83761207540891
-0.0727336852790947 -0.159159278524447 1.85027784475079
-0.0331042568035945 -0.173410076664423 1.86625379827722
0.0106142519853453 -0.160009115138142 1.85487139539196
0.054650578836033 -0.181046434571125 1.88165947319859
0.10156386812012 -0.158167064856023 1.87900336401649
0.138496462027066 -0.15971949896641 1.91504358466838
-0.354639193078833 -0.0395816849164005 1.88671968090212
-0.333338033702669 -0.0876133030978391 1.87789907343416
0.172656685902296 -0.123457962673099 1.92149064643659
0.198648334142521 -0.105912522985891 1.96956097620391
-0.372166357827706 -0.0229510147219356 1.92793946340699
0.216379532286173 -0.0561035805266979 1.99745590161136
-0.374169961349646 0.0261299555231231 1.94742264388992
0.214819085834265 -0.0404265006999803 2.0418327210555
-0.379369969367171 0.042659879595418 1.99607842983344
0.216424653630422 0.00751668837034105 2.05864728946564
-0.382723535410649 0.0719269243114366 2.04175990648846
0.211960674471644 0.0235565904070218 2.10588961372815
-0.381378653993601 0.115583629813951 2.05907742642178
0.213228779431547 0.0689112553187698 2.12448775117666
-0.382281712892141 0.152393651448844 2.09006987598396
0.208729559551475 0.0861340628049102 2.17202262251093
-0.383004715133309 0.163561300665622 2.13913245137223
0.20643004788728 0.133190535369247 2.19055365305184
-0.366277142751847 0.210030702684538 2.15534216356053
0.187512639772427 0.149581347385143 2.23656127143919
-0.346294080994354 0.220229617597951 2.20172943176405
-0.311552088783343 0.25678537932426 2.21261072717495
0.128211631424912 0.206409685418211 2.28128825800622
0.165336615428164 0.196859056745243 2.2454523187872
-0.276313792917842 0.255266828057821 2.24977355866754
-0.229750378396231 0.279702602923716 2.24769296721511
-0.186393066193522 0.26347081699609 2.27150422241421
-0.137587530557002 0.274337591278022 2.26283509022362
-0.0902167444795146 0.259719462239495 2.27955277651132
-0.0402084422044808 0.260045977074483 2.28146856894041
0.00629510445467889 0.25992433200123 2.28367387608354
0.0450361652601517 0.236908912349687 2.30199862369244
0.0914021065147886 0.241045423420106 2.27957195151987
-0.26221825959084 -0.0998075829331434 1.81974195810353
-0.220694921338641 -0.104739685507632 1.8065123551772
-0.174233406629971 -0.102951754516576 1.80032752819925
-0.159832814461717 -0.135580042373248 1.82380463472339
-0.12219101212582 -0.109188909065126 1.80773326161409
-0.0756252493355965 -0.121049582277917 1.81852341933787
-0.0289319795159336 -0.132175273691808 1.8293439532485
0.0191157029738585 -0.122160032969208 1.82633103694888
0.0581634351974743 -0.149031165999334 1.8505998286343
0.102904270299022 -0.12345638572934 1.84925239197248
0.143123261150689 -0.126043572327264 1.88237797861455
-0.341771043561363 -0.00417479857364391 1.85957639457737
-0.325628782144468 -0.0518829624935788 1.84775392115862
0.19214893284672 -0.0862049469787784 1.92239770582621
0.210032714027296 -0.0618631131487331 1.95458154688777
-0.361918905597515 0.0144995211134478 1.8979892462887
0.216001026445819 -0.0180313401561198 1.96300425810204
-0.358543744807692 0.0598872221030483 1.91676856692395
0.218833763789443 -0.00394708371096536 2.00768758009726
-0.368219052593689 0.0759272029887625 1.96084097652942
0.215794774594998 0.040610942943397 2.0242052852752
-0.375099544013155 0.0957386889844186 2.00565625939665
0.216031476536029 0.0583653759080731 2.07095357422029
-0.368585053840336 0.14196753934988 2.01813564362329
0.213361530029099 0.1019928300197 2.09075932687925
-0.371412448573223 0.171105038853015 2.05250233054143
0.213234200898148 0.119952486826376 2.13719324891562
-0.375274007088742 0.195470749772652 2.10587525125233
0.207725324145074 0.16276229164071 2.15714615348307
-0.357048747825151 0.237100888733987 2.11869795708358
0.192304889747534 0.182158420849065 2.20426440610055
-0.339637439210766 0.251386213971745 2.16750331656577
-0.303726679059545 0.284218454153016 2.17776107865313
0.133788981490031 0.23890619787154 2.24712710653819
0.165720464773026 0.228599147795385 2.21076479489446
-0.268433051395515 0.287065794793835 2.21677080815217
-0.219537107506493 0.308750658063518 2.21033394453882
-0.182535981520304 0.29574839783333 2.23635346954718
-0.140586337783294 0.303239397259143 2.22541563544072
-0.0966364748819889 0.293717655560739 2.24023416357227
-0.0520596807737906 0.289255846710562 2.2470832028348
-0.00200567161781257 0.288153223118324 2.24899948194473
0.0496412918091604 0.27074404884469 2.26710262114441
0.0950941867326258 0.269917969894689 2.24467677744468
-0.287098009844435 -0.0589896760560334 1.81579690810507
-0.241648915421864 -0.0618483730302577 1.79375978477244
-0.19396669560868 -0.0644126019001893 1.78444657968558
-0.142170288992156 -0.0688379840480458 1.78788030193136
-0.091768154868585 -0.0756406687743673 1.79509756916376
-0.0457885712067631 -0.0856977105206457 1.80314148553572
-0.00168985439015792 -0.0855599696071451 1.8072880083645
0.0454563727834128 -0.0757802061938349 1.80895380393351
0.0654286540330549 -0.110114950295909 1.82639877602092
0.0978725338575508 -0.0750101792964373 1.82366322927332
0.134071428652624 -0.0912144415802928 1.85138264985621
-0.306585194644192 -0.016457593079785 1.82181030899655
-0.28085854174559 0.0241755345442667 1.80577319653444
-0.263983351391311 -0.0199032386178373 1.79475392663891
0.144779216689793 -0.0505383694938081 1.84656654572879
0.170400992334569 -0.0824810949441407 1.88356438609297
0.174306390788657 -0.0355716906581481 1.87392291579803
-0.338111592565418 0.0505341028621613 1.86841023808378
-0.318470186132639 0.0261311969982243 1.8357380418347
0.198268551289201 -0.0397565169809201 1.91204291684466
0.204007776161206 0.00320746401958336 1.92672844810699
-0.334519785565396 0.0896104453515747 1.89268559777472
0.210006195915463 0.0314229156565865 1.96856309052654
-0.344298191247088 0.111813740760385 1.93088333029006
0.205335229849999 0.0702275965561236 1.99401081502796
-0.356792867804785 0.124838455084995 1.9698728233809
0.208031935776373 0.0934092432488636 2.03502964522532
-0.345357013031801 0.164756477383049 1.98147047035877
0.203498932209021 0.132065337968985 2.06016699334813
-0.349002942553854 0.195118797583011 2.01636316208634
0.205992013174781 0.155054302757896 2.10098024494896
-0.362494761745507 0.213381087427092 2.06804417633287
0.198772077699556 0.192235542272735 2.12549712143993
-0.328241445906665 0.274358807346652 2.12867223273794
-0.340187561729752 0.256294698828184 2.08099428386035
-0.308931618706124 0.289241266392664 2.08553336762504
0.189335830303007 0.210050785962101 2.16884130504465
0.176453850729353 0.233706692655747 2.12394821446531
0.163200313888993 0.248981386955227 2.16841353280757
-0.260245793098349 0.310029077838001 2.1786928205818
-0.293981914871372 0.301762571726571 2.13767283338744
-0.25188525469709 0.322993171327369 2.13557841729659
0.130563370917424 0.267764224548895 2.20653470618143
0.0987080363646928 0.298276788523131 2.16887280068992
0.0861718769763166 0.293450118616714 2.20799146889838
-0.212811489291975 0.326411622158135 2.16935517500042
-0.168974232817551 0.321351693313505 2.18955113494005
-0.116101867899638 0.318546721716782 2.19228478548989
-0.0717261180704366 0.313607966937589 2.20151187621921
-0.0279722372935512 0.310121360610752 2.2068983596067
0.0147558874290663 0.308774071169188 2.20653791148412
0.0476921386325733 0.295190168839883 2.23064997077335
-0.215104253289544 -0.0216818856654721 1.7790106275743
-0.163860174569421 -0.0263457359280594 1.77657035425886
-0.113165559487537 -0.0306753832885968 1.78274862241693
-0.0653763342298644 -0.0357552777481662 1.78885774392096
-0.0206129430382726 -0.0395486373013374 1.79447148966947
0.0234960436321697 -0.0356414198396723 1.79924754731296
0.0720733703708051 -0.0343886188580632 1.8071519775662
-0.236599037214369 0.0203000581621891 1.78535709403022
-0.208947119466912 0.0576372053998178 1.7876665500362
-0.185192524844459 0.0173153036168726 1.77637840218416
-0.134451724824986 0.0135631160998712 1.77995965646459
-0.0868196998453396 0.0122394831287428 1.78618542574204
-0.039616344975954 0.00857211948390272 1.7920960086212
0.00515056968745937 0.00985905979225797 1.79832351808818
0.0520507582622474 0.00889012856950242 1.80468666329593
0.100159657557459 0.0103068864240882 1.81945889020269
0.147049979807313 0.0022819035897723 1.84751891710598
0.115574401708747 -0.0300949145667177 1.82450696076971
-0.29850706271171 0.0656131771456654 1.83172495226208
-0.266093186235085 0.103803591753898 1.8322794744072
-0.255834478254614 0.0642921443020471 1.80428081020994
0.123511999003497 0.0447840342199952 1.84224812991898
0.180854399306613 0.0068546835998595 1.88504053940959
0.159481543827421 0.0467302003433374 1.87422204144979
-0.306088162850927 0.0981102787327425 1.86113250692272
-0.272375440991575 0.136459344762428 1.86673483764169
0.189620680083479 0.0444439313308405 1.91786499059099
0.162221283085186 0.0832381341651416 1.90659477197816
-0.310460556348233 0.132675114045082 1.89905642659007
-0.279173915934916 0.168639322119932 1.90309195854964
0.188812359094354 0.0764187645059697 1.94945987794007
0.160520251210862 0.117140198115636 1.94035245122984
-0.321429922714422 0.159108529776651 1.93796222739517
-0.283823930871883 0.198375399497829 1.93559485145568
0.187636165427156 0.110754418605802 1.9848153736514
0.159707252204006 0.150073399929311 1.9744053486824
-0.317987924582207 0.198870856100973 1.9710527175719
-0.281629115445851 0.233722086617006 1.96803637960934
0.187139493836884 0.140676340668117 2.0169451475446
0.159250080373322 0.182337840283 2.00829499439581
-0.314932960991255 0.235077721077874 2.00166458860263
-0.280769296676525 0.271048169190961 2.00508799350626
0.186301242252876 0.174470091766091 2.05257868513225
0.15824990168723 0.214776381207409 2.04155376567935
-0.338628436478487 0.236290983240451 2.03796118136778
-0.308988327271571 0.272955267662356 2.04112718121487
0.184792620876372 0.204813233529121 2.08415641138812
0.155200345059994 0.24470065348246 2.07673110523461
-0.275516433528898 0.312550659351568 2.09566177620976
-0.270357267701061 0.302773233741513 2.04790966522605
-0.237744602380348 0.325132882280696 2.08114445607665
0.133054138780689 0.278652353347256 2.15930053853002
0.146792100450312 0.266536920548188 2.11789978285751
0.107162139120658 0.29447082380754 2.11701109916389
-0.213299982407776 0.333464247844155 2.12086112882557
-0.187577411975915 0.333058146868984 2.08515194895014
-0.172845211011167 0.333868945057929 2.13959192572301
-0.143721972315657 0.331826476876429 2.09881331444686
-0.130464282092517 0.329925143974719 2.14912846382698
-0.0996663329642074 0.328284883860262 2.10430862901864
-0.0837179610649678 0.326526870275652 2.15223510079572
-0.0548657022901733 0.324485204145679 2.10806595044159
-0.0394879477074601 0.322865287814115 2.15860446012552
-0.0113478741196085 0.320822935931011 2.11208618785262
0.00498949445762052 0.319683135371595 2.16090680963949
0.0327972611616875 0.31757592380449 2.12029023766026
0.05055762760286 0.312967406977508 2.17628701005413
0.0704209698821063 0.311092282790258 2.13323938768332
-0.177871106429066 0.090933373471193 1.79975998318954
-0.155670676714396 0.0558002266100462 1.78595494682171
-0.109957347468628 0.0580497829251944 1.79359584118382
-0.0612883198096506 0.0536643828189877 1.79950471701922
-0.0164025459626499 0.055324133154353 1.8070687350639
0.0289534288850539 0.054366929675137 1.81379918862319
0.0749110771121964 0.0502075065228554 1.82137249288689
-0.22287236815894 0.100073048694762 1.81103510698163
-0.180069910774089 0.127124700159508 1.82529661885268
-0.1342597899959 0.100966699139135 1.81084942127302
-0.0834017225754879 0.0937293217804765 1.81519985311701
-0.0391028778429791 0.0969619630769522 1.82515684300419
0.00539065640545662 0.096817560673291 1.83310312534432
0.0505278142974122 0.0937719980334946 1.83916807972533
0.0938339746429225 0.0838804474275811 1.84678993158296
0.128409048074092 0.0871596626229123 1.87188375309208
-0.227575751499242 0.135584680781602 1.84185820566887
-0.187525999842126 0.160663044958148 1.85862834614031
-0.141758547884959 0.143567706587278 1.84589829883742
-0.10269208984838 0.127032962817525 1.83735337198314
-0.0599142166055145 0.132389268931417 1.85146063818293
-0.0162408222221859 0.133008904724908 1.86109875332655
0.0318175685078918 0.12912866110863 1.86708336859518
0.0815636964011273 0.121149443826547 1.8735899284539
0.126217625971572 0.119758319579097 1.90263162792632
-0.234238560688815 0.167971660103919 1.87631182848388
-0.189019714584063 0.192873209895576 1.89095446284141
-0.143093842380993 0.177460212923954 1.87995007640963
-0.0966340211824059 0.160509504189524 1.87236659029862
-0.0497025997031482 0.167360903514437 1.88898767119689
0.000433607876745942 0.163234140488251 1.89515127618354
0.0481790165380617 0.158916677143781 1.90064053487968
0.0901778603592965 0.150997068093328 1.90866062285722
0.125272679722757 0.154456519904161 1.93802440454512
-0.237535699644433 0.199342405893771 1.90855110279792
-0.191360184398196 0.223522856825072 1.92177092845878
-0.142506114005304 0.211626638388331 1.91467575334102
-0.100091232145713 0.193368669830765 1.90493338453319
-0.062215403941867 0.202193478906534 1.9216852109306
-0.0175688048108705 0.19611406273339 1.92473842514349
0.030386293730113 0.192346506473022 1.9308154919318
0.0793527676437524 0.185865764520445 1.93886767928736
0.124425444827709 0.185611143504162 1.96980752834337
-0.240574306831385 0.229847358226158 1.93985674495013
-0.197518040520949 0.253862912287239 1.95260539113489
-0.147595878700781 0.243885338762916 1.94629727154441
-0.0984779828256703 0.231454004994613 1.94384061232044
-0.0469689447722277 0.231594029170106 1.95460836765938
0.00113967267803847 0.226770302973827 1.9596479750456
0.047495653287784 0.223180433258951 1.96563537950322
0.0888947512568836 0.215974248318689 1.9747944542901
0.123836588312131 0.219750576476274 2.00496268100051
-0.245018441816397 0.262693360435007 1.97410606220072
-0.207013742572886 0.28474538843398 1.98522083734656
-0.160080676089381 0.27770504850245 1.97804073330112
-0.113568053333442 0.267382451639448 1.97711660324121
-0.0689697900860679 0.262804070945025 1.98167956615306
-0.0200386199767309 0.260502926447679 1.98944400925823
0.0287168800360139 0.256749582284491 1.99570024775272
0.0777258800611114 0.250964082893139 2.00482320787171
0.12244839921112 0.250329758418745 2.03656199662204
-0.240595870289289 0.297432395206769 2.01321293823568
-0.183974634862831 0.307111527902033 2.01374595798119
-0.135294467520725 0.30053398504265 2.01232845790096
-0.0907097768343179 0.295600142578098 2.01582148823756
-0.0458900732992911 0.291362657388028 2.02046154495017
0.000436729309857539 0.288260051042812 2.02718339617432
0.0454636177753448 0.285233813092215 2.03385599206969
0.086060751947315 0.278436575868598 2.04398523118963
0.117810434380703 0.277608642405532 2.07737162489365
-0.215570363379108 0.319539666443431 2.04443048295587
-0.161401465386979 0.322784108484276 2.05021132313372
-0.115680235416517 0.319216227940167 2.05622346829258
-0.0706609410424256 0.315077540632822 2.06038924294214
-0.02495008053743 0.310894726085655 2.06470652360905
0.0221431253834646 0.307648435096223 2.07206297682402
0.0689960952845198 0.302407912862465 2.08230825374406
3 0 1 2
3 0 2 4
3 3 0 4
3 3 4 6
3 5 3 6
3 5 6 8
3 7 5 8
3 7 8 10
3 9 7 10
3 9 10 12
3 11 9 12
3 13 11 14
3 14 11 12
3 13 14 15
3 16 17 18
3 16 18 1
3 0 19 1
3 19 16 1
3 0 3 20
3 19 0 20
3 3 5 21
3 20 3 21
3 5 7 22
3 21 5 22
3 7 9 23
3 22 7 23
3 9 11 24
3 23 9 24
3 24 11 25
3 25 11 13
3 13 15 26
3 27 13 26
3 25 13 27
3 27 26 28
3 17 16 30
3 30 16 29
3 29 19 31
3 29 16 19
3 31 20 32
3 31 19 20
3 32 21 33
3 32 20 21
3 21 22 33
3 33 22 34
3 22 23 34
3 34 23 35
3 23 24 35
3 35 24 36
3 24 25 36
3 36 25 37
3 37 27 38
3 37 25 27
3 38 28 39
3 38 27 28
3 30 40 41
3 30 29 40
3 29 31 42
3 40 29 42
3 31 32 43
3 42 31 43
3 32 33 44
3 43 32 44
3 33 34 45
3 44 33 45
3 34 35 46
3 45 34 46
3 35 36 47
3 46 35 47
3 36 37 47
3 47 37 48
3 37 38 48
3 48 38 49
3 49 39 50
3 49 38 39
3 40 51 52
3 41 40 52
3 51 42 53
3 51 40 42
3 42 43 53
3 53 43 54
3 43 44 54
3 54 44 55
3 44 45 55
3 55 45 56
3 45 46 56
3 56 46 57
3 46 47 58
3 57 46 58
3 47 48 59
3 58 47 59
3 48 49 60
3 59 48 60
3 49 50 61
3 60 49 61
3 51 62 63
3 52 51 63
3 51 53 64
3 62 51 64
3 53 54 65
3 64 53 65
3 54 55 66
3 65 54 66
3 55 56 67
3 66 55 67
3 56 57 67
3 67 57 68
3 57 58 69
3 68 57 69
3 58 59 69
3 69 59 70
3 59 60 70
3 70 60 71
3 71 61 72
3 71 60 61
3 62 73 74
3 63 62 74
3 62 64 75
3 73 62 75
3 64 65 75
3 75 65 76
3 65 66 76
3 76 66 77
3 66 67 77
3 77 67 78
3 67 68 78
3 78 68 79
3 79 69 80
3 79 68 69
3 80 70 81
3 80 69 70
3 81 71 82
3 81 70 71
3 82 72 83
3 82 71 72
3 74 73 85
3 85 73 84
3 84 73 86
3 86 73 75
3 75 76 86
3 86 76 87
3 76 77 88
3 87 76 88
3 77 78 89
3 88 77 89
3 78 79 90
3 89 78 90
3 79 80 91
3 90 79 91
3 80 81 92
3 91 80 92
3 81 82 93
3 92 81 93
3 93 83 94
3 93 82 83
3 84 95 85
3 84 86 96
3 97 84 96
3 95 84 97
3 96 87 98
3 96 86 87
3 87 88 98
3 98 88 99
3 88 89 99
3 99 89 100
3 89 90 100
3 100 90 101
3 101 91 102
3 101 90 91
3 102 92 103
3 102 91 92
3 92 93 103
3 105 103 104
3 103 93 104
3 93 94 104
3 96 106 97
3 96 98 107
3 106 96 107
3 98 99 108
3 107 98 108
3 99 100 109
3 108 99 109
3 100 101 110
3 109 100 110
3 101 102 111
3 110 101 111
3 111 102 112
3 112 102 103
3 103 105 112
3 117 114 115
3 116 113 117
3 117 113 114
3 116 117 119
3 118 116 119
3 118 119 121
3 120 118 121
3 120 121 123
3 122 120 123
3 122 123 125
3 124 122 125
3 124 125 127
3 126 124 127
3 126 127 128
3 129 130 131
3 114 129 131
3 114 113 129
3 113 2 129
3 129 2 1
3 4 113 116
3 4 2 113
3 6 116 118
3 6 4 116
3 8 118 120
3 8 6 118
3 10 120 122
3 10 8 120
3 12 122 124
3 12 10 122
3 14 124 126
3 14 12 124
3 133 126 128
3 15 14 126
3 15 126 133
3 132 15 133
3 132 133 134
3 135 136 137
3 137 17 135
3 137 18 17
3 18 137 130
3 129 18 130
3 18 129 1
3 15 132 26
3 139 132 134
3 139 138 132
3 138 28 26
3 132 138 26
3 138 139 140
3 136 135 142
3 142 135 141
3 17 30 135
3 135 30 141
3 143 39 28
3 138 143 28
3 143 140 144
3 143 138 140
3 141 145 146
3 142 141 146
3 41 145 141
3 30 41 141
3 147 39 143
3 147 50 39
3 147 144 148
3 147 143 144
3 145 149 150
3 146 145 150
3 52 149 145
3 41 52 145
3 151 50 147
3 151 155 50
3 151 148 152
3 151 147 148
3 149 153 154
3 150 149 154
3 63 153 149
3 52 63 149
3 155 61 50
3 155 72 61
3 155 151 156
3 156 151 152
3 154 157 158
3 154 153 157
3 74 157 153
3 63 74 153
3 159 72 155
3 159 83 72
3 159 156 160
3 159 155 156
3 158 157 162
3 162 157 161
3 74 85 161
3 157 74 161
3 163 83 159
3 163 94 83
3 163 160 164
3 163 159 160
3 161 165 162
3 165 95 166
3 165 161 95
3 161 85 95
3 165 166 167
3 95 97 166
3 105 104 168
3 170 94 163
3 170 168 94
3 169 168 170
3 94 168 104
3 163 164 170
3 166 171 167
3 173 171 172
3 172 171 106
3 171 97 106
3 171 166 97
3 172 107 174
3 172 106 107
3 174 108 175
3 174 107 108
3 175 109 176
3 175 108 109
3 176 110 177
3 176 109 110
3 177 111 178
3 177 110 111
3 178 112 180
3 178 111 112
3 181 105 168
3 181 180 105
3 179 178 180
3 180 112 105
3 168 169 181
3 172 182 173
3 182 172 183
3 183 172 174
3 174 175 184
3 183 174 184
3 175 176 185
3 184 175 185
3 176 177 186
3 185 176 186
3 177 178 187
3 186 177 187
3 187 179 188
3 187 178 179
3 179 180 229
3 189 190 191
3 114 131 191
3 115 114 191
3 115 191 192
3 115 192 193
3 117 115 193
3 119 193 194
3 119 117 193
3 119 194 121
3 121 194 195
3 121 195 123
3 123 195 196
3 123 196 125
3 125 196 197
3 127 197 198
3 127 125 197
3 128 198 199
3 200 128 199
3 128 127 198
3 200 199 201
3 202 203 204
3 131 130 189
3 190 189 204
3 189 130 202
3 189 202 204
3 131 189 191
3 128 200 133
3 134 200 205
3 206 205 201
3 134 133 200
3 205 200 201
3 205 206 207
3 136 208 203
3 202 137 136
3 202 136 203
3 137 202 130
3 134 205 139
3 139 205 207
3 140 139 207
3 211 207 209
3 136 142 208
3 208 142 210
3 211 140 207
3 211 144 140
3 146 212 210
3 142 146 210
3 148 144 213
3 213 144 211
3 150 214 212
3 146 150 212
3 215 148 213
3 215 152 148
3 154 216 150
3 150 216 214
3 219 152 217
3 217 152 215
3 158 218 216
3 154 158 216
3 219 156 152
3 219 160 156
3 158 220 218
3 158 162 220
3 221 160 219
3 221 164 160
3 162 165 222
3 223 220 222
3 220 162 222
3 165 167 222
3 169 170 224
3 225 164 221
3 224 170 164
3 224 164 225
3 222 226 223
3 167 171 227
3 226 167 227
3 226 227 228
3 226 222 167
3 171 173 227
3 180 181 229
3 181 169 230
3 231 169 224
3 230 169 231
3 230 229 181
3 224 225 271
3 227 232 228
3 232 182 233
3 232 173 182
3 227 173 232
3 182 183 234
3 233 182 234
3 183 184 234
3 234 184 235
3 184 185 235
3 235 185 236
3 185 186 236
3 236 186 237
3 186 187 237
3 237 187 238
3 238 188 239
3 238 187 188
3 188 179 229
3 240 239 188
3 240 188 229
3 229 230 240
3 191 190 242
3 242 190 241
3 192 242 243
3 192 191 242
3 192 243 244
3 193 192 244
3 194 244 245
3 194 193 244
3 194 245 246
3 195 194 246
3 195 246 247
3 196 195 247
3 196 247 248
3 197 196 248
3 197 248 249
3 198 197 249
3 199 198 249
3 250 199 249
3 201 199 251
3 251 199 250
3 204 252 253
3 204 203 252
3 190 253 241
3 190 204 253
3 206 251 254
3 206 201 251
3 207 206 255
3 255 206 254
3 203 256 252
3 203 208 256
3 257 209 255
3 255 209 207
3 210 258 208
3 208 258 256
3 211 209 259
3 259 209 257
3 212 260 210
3 210 260 258
3 213 211 259
3 261 213 259
3 214 262 260
3 212 214 260
3 215 213 261
3 263 215 261
3 216 264 214
3 214 264 262
3 217 215 263
3 265 217 263
3 218 266 264
3 216 218 264
3 219 217 265
3 267 219 265
3 218 268 266
3 218 220 268
3 221 219 267
3 269 221 267
3 223 270 268
3 220 223 268
3 225 221 269
3 271 225 269
3 223 226 272
3 270 223 272
3 272 228 273
3 272 226 228
3 274 231 275
3 274 230 231
3 275 231 271
3 271 231 224
3 273 228 276
3 276 228 232
3 276 233 277
3 276 232 233
3 233 234 278
3 277 233 278
3 234 235 279
3 278 234 279
3 235 236 280
3 279 235 280
3 236 237 281
3 280 236 281
3 237 238 282
3 281 237 282
3 238 239 283
3 282 238 283
3 327 239 284
3 284 239 240
3 240 230 274
3 284 240 274
3 241 285 286
3 242 241 286
3 242 286 243
3 243 286 287
3 243 287 288
3 244 243 288
3 245 288 289
3 245 244 288
3 245 289 246
3 246 289 290
3 246 290 247
3 247 290 291
3 247 291 248
3 248 291 292
3 248 292 293
3 249 248 293
3 249 293 250
3 250 293 294
3 250 294 295
3 251 250 295
3 252 296 297
3 253 252 297
3 241 297 285
3 241 253 297
3 254 295 298
3 254 251 295
3 254 298 299
3 255 254 299
3 256 300 252
3 252 300 296
3 257 255 299
3 301 257 299
3 258 302 300
3 256 258 300
3 259 257 303
3 303 257 301
3 260 304 258
3 258 304 302
3 261 259 303
3 305 261 303
3 262 306 304
3 260 262 304
3 263 261 305
3 307 263 305
3 264 308 262
3 262 308 306
3 265 263 307
3 309 265 307
3 266 310 308
3 264 266 308
3 267 265 309
3 311 267 309
3 266 312 310
3 266 268 312
3 269 267 311
3 313 269 311
3 270 314 312
3 268 270 312
3 271 269 315
3 315 269 313
3 270 272 316
3 314 270 316
3 316 273 317
3 316 272 273
3 318 275 319
3 318 274 275
3 275 271 315
3 319 275 315
3 273 276 320
3 317 273 320
3 276 277 320
3 320 277 321
3 277 278 322
3 321 277 322
3 322 279 323
3 322 278 279
3 279 280 323
3 323 280 324
3 280 281 324
3 324 281 325
3 281 282 325
3 325 282 326
3 282 283 326
3 326 283 327
3 283 239 327
3 327 284 328
3 284 274 318
3 328 284 318
3 285 329 330
3 286 285 330
3 286 330 287
3 287 330 331
3 287 331 332
3 288 287 332
3 288 332 289
3 289 332 333
3 289 333 334
3 290 289 334
3 290 334 335
3 291 290 335
3 291 335 292
3 292 335 336
3 292 336 337
3 293 292 337
3 293 337 294
3 294 337 338
3 294 338 339
3 295 294 339
3 296 340 341
3 297 296 341
3 285 341 329
3 285 297 341
3 298 339 342
3 298 295 339
3 298 342 343
3 299 298 343
3 300 344 296
3 296 344 340
3 301 299 343
3 345 301 343
3 302 346 344
3 300 302 344
3 303 301 347
3 347 301 345
3 304 348 302
3 302 348 346
3 305 303 347
3 349 305 347
3 306 350 348
3 304 306 348
3 307 305 351
3 351 305 349
3 308 352 306
3 306 352 350
3 309 307 353
3 353 307 351
3 310 354 352
3 308 310 352
3 311 309 355
3 355 309 353
3 312 356 310
3 310 356 354
3 313 311 355
3 357 313 355
3 314 358 356
3 312 314 356
3 315 313 359
3 359 313 357
3 314 316 360
3 358 314 360
3 360 317 361
3 360 316 317
3 362 319 363
3 362 318 319
3 319 315 359
3 363 319 359
3 317 320 364
3 361 317 364
3 320 321 364
3 364 321 365
3 321 322 366
3 365 321 366
3 322 323 366
3 366 323 367
3 323 324 368
3 367 323 368
3 324 325 369
3 368 324 369
3 325 326 370
3 369 325 370
3 326 327 371
3 370 326 371
3 327 328 371
3 371 328 372
3 328 318 362
3 372 328 362
3 329 373 374
3 330 329 374
3 330 374 331
3 331 374 375
3 331 375 376
3 332 331 376
3 332 376 333
3 333 376 377
3 333 377 378
3 334 333 378
3 334 378 379
3 335 334 379
3 335 379 336
3 336 379 380
3 336 380 381
3 337 336 381
3 337 381 338
3 338 381 382
3 338 382 383
3 339 338 383
3 340 384 385
3 341 340 385
3 329 385 373
3 329 341 385
3 342 383 386
3 342 339 383
3 342 386 387
3 343 342 387
3 344 388 340
3 340 388 384
3 345 343 387
3 389 345 387
3 346 390 388
3 344 346 388
3 347 345 391
3 391 345 389
3 348 392 346
3 346 392 390
3 349 347 391
3 393 349 391
3 350 394 348
3 348 394 392
3 351 349 395
3 395 349 393
3 352 396 350
3 350 396 394
3 353 351 395
3 397 353 395
3 354 398 396
3 352 354 396
3 355 353 399
3 399 353 397
3 356 400 354
3 354 400 398
3 357 355 399
3 401 357 399
3 358 402 400
3 356 358 400
3 359 357 403
3 403 357 401
3 358 360 404
3 402 358 404
3 404 361 405
3 404 360 361
3 406 363 407
3 406 362 363
3 363 359 403
3 407 363 403
3 361 364 408
3 405 361 408
3 364 365 408
3 408 365 409
3 365 366 410
3 409 365 410
3 366 367 410
3 410 367 411
3 367 368 412
3 411 367 412
3 368 369 412
3 412 369 413
3 369 370 413
3 413 370 414
3 370 371 415
3 414 370 415
3 371 372 415
3 415 372 416
3 372 362 406
3 416 372 406
3 373 417 418
3 374 373 418
3 374 418 375
3 375 418 419
3 375 419 420
3 376 375 420
3 376 420 377
3 377 420 421
3 377 421 422
3 378 377 422
3 378 422 423
3 379 378 423
3 380 423 424
3 380 379 423
3 380 424 425
3 381 380 425
3 382 425 426
3 382 381 425
3 382 426 427
3 383 382 427
3 384 428 429
3 385 384 429
3 373 429 417
3 373 385 429
3 386 427 430
3 386 383 427
3 386 430 431
3 387 386 431
3 384 432 428
3 384 388 432
3 389 387 431
3 433 389 431
3 390 434 432
3 388 390 432
3 435 389 433
3 435 391 389
3 390 436 434
3 390 392 436
3 393 391 435
3 437 393 435
3 394 438 436
3 392 394 436
3 395 393 439
3 439 393 437
3 396 440 438
3 394 396 438
3 397 395 439
3 441 397 439
3 398 442 440
3 396 398 440
3 399 397 443
3 443 397 441
3 400 444 398
3 398 444 442
3 401 399 443
3 445 401 443
3 402 446 444
3 400 402 444
3 403 401 447
3 447 401 445
3 402 404 448
3 446 402 448
3 448 405 449
3 448 404 405
3 450 407 451
3 450 406 407
3 407 403 447
3 451 407 447
3 405 408 452
3 449 405 452
3 408 409 452
3 452 409 453
3 409 410 454
3 453 409 454
3 410 411 454
3 454 411 455
3 411 412 456
3 455 411 456
3 412 413 456
3 456 413 457
3 457 414 458
3 457 413 414
3 414 415 459
3 458 414 459
3 415 416 459
3 459 416 460
3 416 406 450
3 460 416 450
3 418 461 462
3 418 417 461
3 419 462 463
3 419 418 462
3 419 463 464
3 420 419 464
3 420 464 421
3 421 464 465
3 421 465 466
3 422 421 466
3 422 466 467
3 423 422 467
3 424 467 468
3 424 423 467
3 424 468 469
3 425 424 469
3 426 469 470
3 426 425 469
3 427 426 471
3 471 426 470
3 429 428 473
3 473 428 472
3 417 473 505
3 417 429 473
3 430 427 471
3 520 430 471
3 431 474 475
3 431 430 474
3 428 476 472
3 428 432 476
3 433 431 475
3 477 433 475
3 434 478 476
3 432 434 476
3 479 433 477
3 479 435 433
3 434 480 478
3 434 436 480
3 437 435 479
3 481 437 479
3 438 482 436
3 436 482 480
3 439 437 483
3 483 437 481
3 440 484 482
3 438 440 482
3 441 439 483
3 485 441 483
3 442 486 440
3 440 486 484
3 443 441 487
3 487 441 485
3 444 488 442
3 442 488 486
3 445 443 487
3 489 445 487
3 444 446 488
3 488 446 490
3 491 445 489
3 491 447 445
3 490 446 492
3 492 446 448
3 492 449 493
3 492 448 449
3 494 451 495
3 494 450 451
3 451 447 491
3 495 451 491
3 449 452 496
3 493 449 496
3 496 453 497
3 496 452 453
3 453 454 498
3 497 453 498
3 498 455 499
3 498 454 455
3 455 456 500
3 499 455 500
3 456 457 501
3 500 456 501
3 457 458 502
3 501 457 502
3 458 459 503
3 502 458 503
3 503 460 504
3 503 459 460
3 504 460 494
3 494 460 450
3 461 505 506
3 462 461 506
3 507 463 462
3 507 462 506
3 465 463 508
3 508 463 507
3 464 463 465
3 465 508 509
3 465 509 466
3 466 509 510
3 466 510 467
3 467 510 511
3 467 511 468
3 468 511 512
3 468 512 513
3 469 468 513
3 469 513 470
3 515 470 514
3 470 513 514
3 470 515 471
3 472 516 473
3 518 516 517
3 518 505 516
3 461 417 505
3 505 473 516
3 505 518 506
3 515 514 519
3 474 430 520
3 521 520 519
3 520 471 515
3 520 515 519
3 474 520 524
3 476 522 472
3 516 472 523
3 472 522 523
3 516 523 517
3 520 521 524
3 477 475 524
3 524 475 474
3 525 477 524
3 478 526 522
3 476 478 522
3 527 477 525
3 527 479 477
3 478 528 526
3 478 480 528
3 481 479 527
3 529 481 527
3 482 530 480
3 480 530 528
3 483 481 531
3 531 481 529
3 484 532 530
3 482 484 530
3 485 483 531
3 533 485 531
3 486 534 484
3 484 534 532
3 535 485 533
3 535 487 485
3 486 536 534
3 486 488 536
3 537 489 535
3 535 489 487
3 490 538 539
3 536 490 539
3 488 490 536
3 538 540 539
3 541 542 543
3 541 489 537
3 542 541 537
3 541 491 489
3 490 492 538
3 545 493 544
3 538 492 493
3 538 493 545
3 540 538 545
3 544 546 545
3 547 548 549
3 543 495 541
3 547 494 495
3 547 495 543
3 608 547 543
3 495 491 541
3 493 496 544
3 544 497 550
3 546 544 550
3 544 496 497
3 550 497 551
3 551 497 498
3 498 499 551
3 551 499 552
3 499 500 552
3 552 500 553
3 500 501 553
3 553 501 554
3 554 502 555
3 554 501 502
3 502 503 556
3 555 502 556
3 503 504 556
3 549 504 547
3 556 504 549
3 504 494 547
3 506 557 507
3 507 557 558
3 508 507 558
3 508 558 559
3 509 508 559
3 509 559 560
3 510 509 560
3 510 560 561
3 511 510 561
3 511 561 562
3 512 511 562
3 514 512 563
3 563 512 562
3 513 512 514
3 517 564 518
3 518 564 557
3 566 564 565
3 557 564 566
3 557 506 518
3 558 566 567
3 558 557 566
3 559 567 568
3 559 558 567
3 560 568 569
3 560 559 568
3 561 569 570
3 561 560 569
3 562 570 571
3 562 561 570
3 563 562 571
3 572 563 571
3 574 514 563
3 572 574 563
3 573 519 574
3 574 519 514
3 519 573 521
3 522 575 523
3 577 575 576
3 577 517 575
3 564 517 577
3 575 517 523
3 564 577 565
3 573 574 572
3 521 573 579
3 580 573 578
3 579 573 580
3 579 524 521
3 524 579 525
3 522 581 575
3 522 526 581
3 576 581 582
3 576 575 581
3 583 580 584
3 583 579 580
3 583 525 579
3 583 527 525
3 526 585 581
3 526 528 585
3 582 585 586
3 582 581 585
3 587 584 588
3 587 583 584
3 587 527 583
3 587 529 527
3 528 589 585
3 528 530 589
3 586 589 590
3 586 585 589
3 591 588 592
3 591 587 588
3 591 529 587
3 591 531 529
3 532 593 589
3 530 532 589
3 590 593 594
3 590 589 593
3 595 592 596
3 595 591 592
3 595 531 591
3 595 533 531
3 534 597 593
3 532 534 593
3 594 597 598
3 594 593 597
3 599 596 600
3 599 595 596
3 599 533 595
3 599 535 533
3 534 601 597
3 534 536 601
3 602 597 601
3 602 598 597
3 603 599 600
3 604 603 600
3 603 535 599
3 603 537 535
3 536 539 601
3 606 540 605
3 606 602 540
3 602 601 539
3 540 602 539
3 605 607 606
3 608 609 610
3 608 543 609
3 604 542 603
3 609 543 542
3 609 542 604
3 542 537 603
3 540 545 605
3 605 546 607
3 612 607 611
3 605 545 546
3 607 546 611
3 612 613 614
3 612 611 613
3 614 615 616
3 614 613 615
3 616 617 618
3 616 615 617
3 618 619 620
3 618 617 619
3 620 621 622
3 620 619 621
3 622 623 624
3 622 621 623
3 610 548 608
3 624 623 548
3 624 548 610
3 548 623 549
3 548 547 608
3 546 550 611
3 611 550 613
3 613 550 551
3 551 552 615
3 613 551 615
3 552 553 617
3 615 552 617
3 553 554 619
3 617 553 619
3 554 555 621
3 619 554 621
3 621 555 623
3 623 555 556
3 556 549 623
3 565 625 626
3 567 566 626
3 626 566 565
3 567 626 627
3 568 567 627
3 568 627 628
3 569 568 628
3 569 628 629
3 570 569 629
3 570 629 630
3 571 570 630
3 572 571 631
3 631 571 630
3 572 631 578
3 576 632 577
3 625 632 633
3 565 577 632
3 565 632 625
3 625 633 634
3 626 625 634
3 626 634 627
3 627 634 635
3 627 635 628
3 628 635 636
3 628 636 629
3 629 636 637
3 629 637 630
3 630 637 638
3 631 638 639
3 631 630 638
3 640 578 639
3 578 573 572
3 578 631 639
3 578 640 580
3 576 641 632
3 576 582 641
3 633 641 642
3 633 632 641
3 633 642 643
3 634 633 643
3 634 643 644
3 635 634 644
3 635 644 645
3 636 635 645
3 636 645 646
3 637 636 646
3 637 646 647
3 638 637 647
3 638 647 648
3 639 638 648
3 640 648 649
3 640 639 648
3 584 580 640
3 649 584 640
3 582 650 641
3 582 586 650
3 642 650 651
3 642 641 650
3 642 651 652
3 643 642 652
3 643 652 653
3 644 643 653
3 644 653 645
3 645 653 654
3 645 654 646
3 646 654 655
3 646 655 647
3 647 655 656
3 647 656 648
3 648 656 657
3 648 657 649
3 649 657 658
3 588 584 649
3 658 588 649
3 586 659 650
3 586 590 659
3 650 659 651
3 651 659 660
3 651 660 661
3 652 651 661
3 652 661 662
3 653 652 662
3 653 662 654
3 654 662 663
3 654 663 664
3 655 654 664
3 655 664 665
3 656 655 665
3 656 665 666
3 657 656 666
3 657 666 658
3 658 666 667
3 592 588 658
3 667 592 658
3 590 668 659
3 590 594 668
3 660 668 669
3 660 659 668
3 660 669 670
3 661 660 670
3 661 670 671
3 662 661 671
3 662 671 663
3 663 671 672
3 663 672 664
3 664 672 673
3 664 673 665
3 665 673 674
3 665 674 666
3 666 674 675
3 666 675 667
3 667 675 676
3 596 592 667
3 676 596 667
3 594 677 668
3 594 598 677
3 668 677 669
3 669 677 678
3 669 678 679
3 670 669 679
3 670 679 680
3 671 670 680
3 671 680 681
3 672 671 681
3 672 681 682
3 673 672 682
3 673 682 683
3 674 673 683
3 674 683 684
3 675 674 684
3 676 684 685
3 676 675 684
3 600 596 676
3 685 600 676
3 598 686 677
3 598 602 606
3 678 686 687
3 678 677 686
3 678 687 679
3 679 687 688
3 679 688 680
3 680 688 689
3 680 689 681
3 681 689 690
3 681 690 682
3 682 690 691
3 683 691 692
3 683 682 691
3 684 692 693
3 684 683 692
3 685 693 694
3 685 684 693
3 694 604 685
3 685 604 600
3 598 606 686
3 606 607 695
3 686 606 695
3 686 695 687
3 688 687 696
3 696 687 695
3 688 696 697
3 689 688 697
3 689 697 698
3 690 689 698
3 690 698 699
3 691 690 699
3 691 699 700
3 692 691 700
3 692 700 701
3 693 692 701
3 610 609 694
3 701 610 694
3 701 694 693
3 609 604 694
3 607 612 695
3 695 612 696
3 696 612 614
3 614 616 697
3 696 614 697
3 616 618 698
3 697 616 698
3 618 620 699
3 698 618 699
3 620 622 700
3 699 620 700
3 622 624 701
3 700 622 701
3 624 610 701
