OFF
702 1400 0
-0.25078957198679 -0.35297167609942 2.11605072570046
-0.296386948105258 -0.338661491279221 2.099196336494
-0.2681366298238 -0.356081848099478 2.07054646861907
-0.203837045096734 -0.359341919123523 2.12025584691779
-0.222071324344965 -0.366620026627045 2.07504124619562
-0.156971354542151 -0.363673914000469 2.12302109559164
-0.175631161188916 -0.370471450739631 2.07681436727005
-0.111540578789375 -0.367445399124027 2.12702808591652
-0.130258429878875 -0.374107691330368 2.07830434473064
-0.0665962691261232 -0.371048746042419 2.13140359935833
-0.0854502107542828 -0.377509800954869 2.08261219047828
-0.0190461908543702 -0.374031526872858 2.1387194906142
-0.0396088326280124 -0.380780463455376 2.09078345881876
0.0290296575701923 -0.369580065068911 2.14721639634903
0.0077451626601571 -0.382378020134471 2.0995760340334
0.0541893625108836 -0.373527698601493 2.10876793258531
-0.319223455269886 -0.31210396675106 2.12915767852763
-0.349194814053932 -0.293429549374574 2.10287724378452
-0.327767699539152 -0.321420245901649 2.07261013324355
-0.278569468033809 -0.32880405802645 2.14778541245322
-0.231754310684989 -0.338021452663484 2.15911963146074
-0.183993677711943 -0.343016303414758 2.16252381843952
-0.137172025458171 -0.346738467311528 2.16754234224164
-0.0919059335755234 -0.349956616531069 2.17304543403375
-0.0475476526098929 -0.354973413570483 2.17519075597685
0.00112436182936934 -0.355660823176209 2.18228697662295
0.0748308494763813 -0.353280410599913 2.15375318594054
0.0462039692119282 -0.343512373573563 2.19066280616314
0.092080676816272 -0.322745375411337 2.1894825186068
-0.306393771899681 -0.293674295423952 2.17187733522563
-0.346800705616623 -0.271987128342899 2.14524587051576
-0.260246540505997 -0.30766410559897 2.18849003193522
-0.210218938868557 -0.313938144345487 2.19605787021394
-0.162564344382486 -0.318044304328395 2.20091362963579
-0.114901396203565 -0.32037132685439 2.20784680503073
-0.0701548354246454 -0.32297437236284 2.21386661420872
-0.0278186959819354 -0.331771783496561 2.2121758630645
0.0134589772964217 -0.323714183908827 2.22321502664735
0.0589770237323446 -0.309907855088505 2.22534060213702
0.103537525243594 -0.286757364310422 2.22007427022572
-0.324981102403741 -0.257942035466784 2.19477938823592
-0.358415600859846 -0.235254656833767 2.1697093982728
-0.283810847198892 -0.273660791333707 2.21492297248411
-0.234666999810802 -0.284388319710802 2.22537606335785
-0.185863154018524 -0.286474797633104 2.23301437840525
-0.138353245622097 -0.290978281745612 2.23737835182537
-0.0868243013463414 -0.291812412637234 2.246834000956
-0.0318746721305889 -0.300655134730222 2.24764233197576
0.0185087917464102 -0.293364699591908 2.25727509260028
0.0688173556073947 -0.277232113002456 2.25678310766242
0.113274368593473 -0.250216545016267 2.25036939643262
-0.309211604964926 -0.236252093409093 2.23866579340952
-0.349939709675374 -0.217001563268689 2.20879461596356
-0.259766327710042 -0.253779096444723 2.25240320436562
-0.212309706655556 -0.25618484116641 2.26298656070588
-0.166737139548954 -0.257197152085755 2.27102936593272
-0.122711457231834 -0.26457534694648 2.27133537918271
-0.0892743529563405 -0.253440773154379 2.29108701964972
-0.0542729808020116 -0.271514311889237 2.27709384863977
-0.011968302829663 -0.268205759090779 2.28804302915868
0.0358680925073342 -0.261237671426484 2.2896749496424
0.0837083275561137 -0.241686444488239 2.28653499698562
-0.312702942741583 -0.198269959076478 2.28123186579198
-0.340806650538733 -0.198665670531863 2.24635606281202
-0.27954218831445 -0.224038808482436 2.27696240667911
-0.232407017209408 -0.22686864014462 2.29310076519732
-0.187651196091042 -0.225766879592111 2.30345181256972
-0.138679075934171 -0.230473845867929 2.3078732818752
-0.0932705477711761 -0.225110898862225 2.32331790279915
-0.0457312827454412 -0.237679168058195 2.31828166400115
0.00230170591582861 -0.237287238158534 2.32358010983177
0.0499838491761369 -0.22925633388209 2.32047749019571
0.0971977395864211 -0.206188387344155 2.31464524415764
-0.30226258693993 -0.175874956181247 2.31790818770486
-0.346593337673739 -0.161531677166329 2.28366736381762
-0.263342704398829 -0.19975320011486 2.31456814524498
-0.217392793048254 -0.194194381213703 2.3342514446711
-0.167297019219987 -0.198475283073025 2.33939830320986
-0.12147722567135 -0.198315932586688 2.34885816264765
-0.0698911298893052 -0.202147426089922 2.35482962448713
-0.0248775981298574 -0.208295010843971 2.35638237277098
0.0214681854407366 -0.204978520321793 2.35769876057249
0.0653018581209584 -0.196711138250053 2.34907044039745
0.101425282239721 -0.170612685434984 2.34948803660865
-0.297792908942744 -0.138308024011905 2.35604574972691
-0.331642508758378 -0.145370838290872 2.32248883030956
-0.264067327080737 -0.167836800761003 2.34969752503247
-0.229560691024974 -0.156701118488314 2.36813379500329
-0.186734697563269 -0.164916598103323 2.36919422119752
-0.141591855333388 -0.165148332995493 2.37684706925218
-0.0943358043879794 -0.168422823670093 2.38248469196632
-0.0456719074068434 -0.172445915036916 2.38779218812398
0.0026480621154856 -0.175191356705794 2.38923609823336
0.0541523393189148 -0.168529534777551 2.38189188742834
0.101182225276327 -0.136477135790807 2.37596003940032
-0.339368312657305 -0.107278272753792 2.34179254142734
-0.260710284784514 -0.120168392875383 2.38301241392125
-0.304513062546428 -0.0954672269659677 2.37370885180473
-0.211214904750692 -0.120886424597171 2.39214596453172
-0.16511934039658 -0.125547087436377 2.39689799049705
-0.118415234495981 -0.12655117137299 2.40339201902131
-0.0725561848139516 -0.131084215045778 2.40817701706956
-0.0258282576246995 -0.135508920719354 2.41284892773846
0.0208475396274762 -0.136654076142685 2.41063968489754
0.065102950012708 -0.129405993803684 2.40078115239813
0.046533879283831 -0.0917729835402641 2.41972144584304
-0.277837552542219 -0.0693534123898798 2.39321903120681
-0.235283931189916 -0.0787006236525074 2.40255744972477
-0.186217689754653 -0.0805399008765463 2.40859944076329
-0.140434942870344 -0.08165769757557 2.41431656969895
-0.094118936258384 -0.08308891202341 2.42001822680239
-0.0494753978642599 -0.0897478643845911 2.42452855130334
-0.0017175528743881 -0.0939047084520636 2.42716793633059
-0.246184768392197 -0.361266139933078 2.03087312760937
-0.270166346445861 -0.345400978755104 1.99634477474027
-0.246759742758118 -0.336175687599066 1.95923999812201
-0.19651279419058 -0.367379217008991 2.03106239350127
-0.218294213711222 -0.356110344206113 1.99063223772098
-0.150434802727078 -0.369850221974767 2.03019307126614
-0.1701493737524 -0.35586549861149 1.98501281853621
-0.104989513864782 -0.372724030873306 2.03250301599214
-0.124823229847445 -0.357255554956155 1.98555803415042
-0.059613437151641 -0.376533185833576 2.03993142400542
-0.0772037667602221 -0.360999193350731 1.99142538285791
-0.0146457011834349 -0.380722126826975 2.05002958751408
-0.0314269806536345 -0.365987469311371 2.0003031105904
0.0314149621468008 -0.379558946869194 2.05858381284221
0.0128456856323239 -0.370586652158637 2.01129789763106
0.0607271235987843 -0.363918054688837 2.02064519152019
-0.297888905802643 -0.341887397764522 2.03994962344236
-0.33662393385508 -0.310755775946821 2.02587983947897
-0.307009484089078 -0.324210719869178 1.99254465711704
0.0987696751972744 -0.353301117740175 2.11415475172504
0.0745089098465693 -0.368135916237792 2.06850224179259
0.114023257316818 -0.346586974087063 2.07176657605626
-0.374759289359983 -0.257422577266738 2.09545140841388
-0.385268375261098 -0.242047116988148 2.04672696375061
-0.362153363612598 -0.285094262918319 2.05706383816971
0.11971361770325 -0.326985508324918 2.14938393513043
0.140199763749475 -0.322559660438156 2.10519598051997
0.157148903534184 -0.292887718758801 2.13432003608466
-0.377037199782779 -0.230780221052762 2.12862102873841
-0.393102321575143 -0.212013224966356 2.08340297524548
0.133442720250195 -0.2929201528724 2.17973861192246
0.164240402807277 -0.255490276596512 2.16728244348731
-0.380948642176622 -0.194381264232442 2.1647770689778
-0.393770427835386 -0.184451026028676 2.12157864090758
0.141100685438507 -0.254331407032329 2.21017680263192
0.170456257372456 -0.215159218440992 2.19404756426194
-0.375465333062981 -0.177639269336051 2.20366474334968
-0.396202268017665 -0.146844510024341 2.16329780968338
0.149554288939139 -0.214901626473519 2.2381089334303
0.174672659944932 -0.174943963434491 2.22282405232266
-0.367619917271849 -0.161975289296944 2.24359931074935
-0.391682264355683 -0.13186110929437 2.20958839666887
0.126386932626485 -0.210707661335975 2.27771734964337
0.158638524093579 -0.171468555595859 2.26587522894834
-0.381606943915017 -0.12293904239332 2.25823632022405
-0.400151111664252 -0.0869034839919179 2.22917929397931
0.133611835432476 -0.172628938861216 2.30864156210116
0.163545219379256 -0.133196583463539 2.29402028875422
-0.366061841308872 -0.11782576916102 2.30009552520714
-0.390602831094628 -0.0786167451912046 2.27712787986266
0.136896470248468 -0.13718166523244 2.33919752717203
0.160326396518074 -0.0982430722781523 2.32782938138034
-0.369168068399262 -0.0738909796174702 2.32033730069811
-0.337087552288503 -0.0646750701139787 2.35843580549936
-0.357097999912712 -0.0302293319633216 2.34091095428359
0.093696603705977 -0.0909712022153049 2.39890743282806
0.116744514593945 -0.0506301607924105 2.38713935636602
0.13045121444245 -0.0969344712570075 2.3679853078211
-0.311748740732719 -0.0381712888915423 2.37926761770699
-0.259312289126529 -0.028539297795788 2.40166812797981
-0.291458615554543 0.000464593475499271 2.38608499718697
-0.209658254388184 -0.0373749394333579 2.40983806874188
-0.162418866270406 -0.0344954607057657 2.41510360551559
-0.115797025653419 -0.0359115308385565 2.42036630110467
-0.0689610267198765 -0.0373924536441575 2.42563494196746
-0.0259336236390254 -0.0481892942533949 2.43083282191766
-0.000700625853726891 -0.0113092476210892 2.42711007828344
0.0247637772986314 -0.0514258219481535 2.42873426249568
0.0734515348671761 -0.0499053932359906 2.41380991482224
-0.258132763511551 0.029770931945679 2.39001770237295
-0.226364003677581 0.00546789288814236 2.40313599403686
-0.182272903944752 0.010860718945903 2.406064957584
-0.136178021715217 0.01088852781488 2.41039143616504
-0.0894787810332988 0.0088553804652508 2.41533001304375
-0.0410599043040624 0.00711140062756361 2.42032627020334
0.0146824444051816 0.0267410350920603 2.41364275973598
-0.334922502128438 -0.29204142108843 1.97745299899444
-0.318786945595443 -0.276778963934827 1.93905350812536
-0.287949243116896 -0.313033164397349 1.95127460233446
-0.23920089049235 -0.312205863130926 1.9242695488628
-0.197069619550314 -0.336656355597472 1.94925278089855
-0.146577325570044 -0.331732609658935 1.9426603857691
-0.0965576445556949 -0.337006857133963 1.95044577559845
-0.0444722335762441 -0.34110642924071 1.95669912251376
0.00087792932962219 -0.346825889584313 1.96513173111308
0.0450264950608895 -0.350618162491589 1.98096707446486
0.0873483210568878 -0.332299835824963 1.98063865172015
0.100227692942402 -0.347559216932137 2.02806401209896
0.1266541267147 -0.320541719991648 2.01112237327183
-0.364852406521887 -0.271343112833839 2.01161030818877
-0.382764893284486 -0.224597575385762 2.00028838301369
-0.359247078648513 -0.250191724631895 1.969168608334
0.143364425126124 -0.319235700273708 2.05573385883886
0.15907117638805 -0.289349953800628 2.02539398219866
0.169167569453813 -0.287915064289543 2.08062506044409
-0.397074001692621 -0.19296313980677 2.03791192718702
0.188718802706344 -0.245543010701192 2.07936300378488
-0.400167520629596 -0.163127658285279 2.0715441094232
0.180874669962714 -0.254820116383596 2.12158951442284
-0.401198844522691 -0.142428795244034 2.1150248966036
0.186333617629588 -0.213603628564002 2.14675796984203
-0.403435075849405 -0.103175296817794 2.13189625211389
0.188757685770397 -0.174179638816797 2.17208527400297
-0.403320961359917 -0.0969830914682683 2.17936597581008
0.189255992288887 -0.13776294634621 2.20058965658033
-0.406662971530882 -0.0499724362085664 2.19939649450208
0.181472852615989 -0.126730179078001 2.24643658453889
-0.402786663431736 -0.0406745278831369 2.25010073520532
0.181533103691574 -0.0889103653704573 2.28052075709646
-0.385915630770014 -0.0337612198159358 2.29834200490768
-0.392568497673105 0.00445698404930973 2.27063957083981
0.14993201711857 -0.0545564494121033 2.35303680831088
0.174176753608046 -0.0567752423595507 2.31185155482845
-0.368771295329363 0.00891554441654695 2.31691965435381
-0.333869437200703 0.00341408333862678 2.35793515253651
-0.341068947023001 0.0457688276039219 2.33159326616632
0.0491563164829213 -0.00913092492829107 2.4179569605039
0.0955831277257652 -0.00838180721195712 2.39625157588468
0.134420564271359 -0.00923636610908599 2.36409654524158
-0.304207442520557 0.0412167263895825 2.36480272444782
-0.263792225085787 0.0679801539980807 2.36881883641649
-0.211206548171427 0.051818455837171 2.38783757964559
-0.162170971799438 0.054019171739461 2.39036880393123
-0.114815236509043 0.0529787898932456 2.39441115902697
-0.0674299924740829 0.0498048641976179 2.39964344011899
-0.0214387369378725 0.0504950171494121 2.4025025854644
0.0321327405739879 0.0622168620607501 2.39008642599092
0.066011619408719 0.0302279819950597 2.39746270025673
-0.307690307273073 -0.243882433558165 1.90468058078246
-0.276094977696082 -0.283283116027378 1.91284367645026
-0.227680517332021 -0.279605744442522 1.89261080609325
-0.190241315576906 -0.308418879567041 1.91496953345497
-0.146645945712538 -0.296023079257303 1.9059509010714
-0.106370457276507 -0.303869002703703 1.91476211724809
-0.0593078641500008 -0.312816939874121 1.92493517984512
-0.00312409154190772 -0.313862303359441 1.9285870259133
0.044492974192182 -0.323743819075252 1.94554144421749
0.0896635247233116 -0.299863324519877 1.94526136296962
0.127713924424474 -0.296230934833213 1.97749312298589
-0.371175280620925 -0.197547264850627 1.95703637960042
-0.34328412929793 -0.234439271733085 1.9347281946213
0.160377210971528 -0.260300113797364 1.98868341018662
0.180681006545963 -0.253864039462272 2.03704669115911
-0.390220747339746 -0.176880412409562 1.99743077040708
0.197089816692704 -0.206462426275044 2.05253734094589
-0.395603999494664 -0.136970198224794 2.02775574618552
0.196194487410034 -0.205362290042393 2.10232024435404
-0.399491189040978 -0.114756941336905 2.07604436402517
0.196790734843267 -0.163585361255479 2.12547715077808
-0.398717879241676 -0.0718167069067482 2.09731239223742
0.196444451933845 -0.125231750871729 2.1534872169629
-0.403557303886406 -0.0576418717175933 2.14871540550969
0.193399488977223 -0.0954883711478395 2.19936715914021
-0.402512240214615 -0.0128857165925171 2.16873184438732
0.190339111745489 -0.0750750968057723 2.23928922988854
-0.403870368952538 -0.00382558022159493 2.22034958960417
0.185406174484234 -0.0324721936644097 2.27582189232785
-0.388916905000216 0.0407049039630442 2.24054331994574
0.164203888365135 -0.0141371584506002 2.32394800994638
-0.370100522726505 0.0466054089293686 2.28826875366061
-0.337315572948188 0.0833140383916945 2.30148111136205
0.108268976578604 0.0320377404966114 2.3697452551872
0.143477430712874 0.0288596797624951 2.33337989856245
-0.303312672918246 0.0804400535179043 2.33830642528466
-0.259830072600365 0.106915046254232 2.33779148819457
-0.224115978082673 0.0878752359200852 2.36347576416687
-0.17922513462619 0.091857363189985 2.36269987617766
-0.135105782894671 0.0923555585499518 2.36447627989695
-0.0883579053406055 0.0884473133066127 2.37020151511552
-0.045049596504818 0.0883248250300556 2.37247538767267
-0.00242472720648571 0.0864526561153051 2.37570662487454
0.0752811921412224 0.0689555132947988 2.36703968121219
-0.304413183638382 -0.208588239276913 1.87681349595609
-0.265812178190462 -0.247659564967606 1.88020085129343
-0.218933123724822 -0.244345264851226 1.86187046479598
-0.179164431369646 -0.27078995336805 1.88246717195046
-0.12536047212923 -0.261426875910244 1.87704997206724
-0.0794019480169735 -0.273937288254199 1.89018631700818
-0.0336805027690659 -0.285731261614622 1.90269046119386
0.00967811622584078 -0.273594916277421 1.89434880675899
0.0474076628792374 -0.290833023091567 1.91588448524362
0.093929915990567 -0.264595967904791 1.91373937742082
0.130667286745022 -0.263820719968361 1.94644021419431
-0.366329668403303 -0.159215396458532 1.92783401743899
-0.34188561230664 -0.199571044328763 1.91082226395744
0.166185803447269 -0.22573793954407 1.95865720512611
0.186354905508176 -0.218730162366298 2.00518292453036
-0.385488490928622 -0.143690241796063 1.97260638076894
0.20325477457229 -0.171607132621648 2.02489033022722
-0.389043103587967 -0.0989148316444275 1.9954993364452
0.202480856144169 -0.161953939457055 2.07704410151937
-0.393389101319405 -0.0845871213000683 2.04263995308315
0.202835023756361 -0.116624859653051 2.10352093829087
-0.392701767640421 -0.0395988562236111 2.06599430451547
0.200168855816041 -0.0806955091110558 2.15012458784908
-0.397289979506342 -0.0241574310937397 2.11596347921179
0.198269689314108 -0.0505922312570246 2.18626713407982
-0.396387946588715 0.0217151342086293 2.13802160869268
0.194656234512684 -0.0325317802892362 2.22918423544091
-0.397739723642466 0.0322068492865873 2.19013360188541
0.190985554041472 0.00997163380531322 2.24581236101734
-0.382693271486764 0.0763769236602787 2.21010148280324
0.172856215578533 0.0169672167702583 2.29096719685888
-0.364063830197318 0.0823740455042763 2.25777743675103
-0.330324407300284 0.119630314444101 2.27122856017097
0.114970658419647 0.0696992559413341 2.33768904185954
0.150926257522311 0.0633955715015439 2.30179139117524
-0.297044935887754 0.116543647914487 2.30755301927551
-0.248463956407311 0.141561340908266 2.31006215119507
-0.208164363561692 0.122632763272603 2.33459461061455
-0.15721435617237 0.129437607407591 2.33125086536012
-0.104513213296725 0.122832901055241 2.33960962283956
-0.0561330122997559 0.124395035811862 2.34067840695952
-0.0100380877024742 0.12227169607157 2.34482460614892
0.0378350174171584 0.101355178552964 2.35718725518132
0.0791425087456226 0.107170832284129 2.335812441923
-0.29891705271466 -0.173912485709715 1.84752689722192
-0.260935884714915 -0.212002412407088 1.85027604682931
-0.213002772100069 -0.210621510923792 1.8329383164373
-0.168068928490834 -0.237477475492662 1.85416755148184
-0.120871796954233 -0.222383453441197 1.84345693231082
-0.0787840853603138 -0.236993119181286 1.85821834944299
-0.0341170240503147 -0.25065204247619 1.87228442360576
0.0122046914842791 -0.236093979410231 1.86199333844919
0.0554189234193575 -0.253692911028756 1.88453243251146
0.100862792620571 -0.228423012078284 1.8831705040787
0.136729486571906 -0.229784720664024 1.91744020659752
-0.359904254529986 -0.122882477127334 1.89643144497383
-0.336564571446482 -0.165846221105721 1.88260922702876
0.172480628643677 -0.190958742380733 1.9293664977188
0.192886231790383 -0.183000290682924 1.97588887147372
-0.379139890739987 -0.110428471635995 1.94203002039915
0.209326465791399 -0.136955258687289 1.9964394067347
-0.382771977519762 -0.0658706041029814 1.96249895091675
0.208377790811711 -0.126077377218455 2.04914788398963
-0.387136480223221 -0.046619244749386 2.01301027727224
0.209680818825458 -0.0809843472798544 2.06720899201078
-0.387249466985287 -0.0025070715020749 2.04274370953948
0.205626223036014 -0.0666066743800121 2.11184426662593
-0.391208137953129 0.0121661084361689 2.08674542593405
0.205083579945462 -0.024636141219862 2.14392736231087
-0.390071628306423 0.0563371568040245 2.10565684367328
0.201168211586702 -0.00207185186149167 2.19268713103845
-0.391813476795712 0.0666633954416455 2.15899324685571
0.198095940673089 0.0427890132544922 2.21265246483177
-0.376574551404229 0.111265867891053 2.18046844723458
0.178346025782754 0.0554173540266353 2.26046694586176
-0.35739365369417 0.118144750898281 2.22811388778884
-0.322047530611018 0.155296022186615 2.24327551522956
0.120362848500895 0.105984120641522 2.30738734329631
0.156301566785442 0.10021894386602 2.27159764877664
-0.287275766656186 0.15193065935578 2.27989986654786
-0.238942734806748 0.176313296376152 2.28143208297317
-0.197500705597296 0.156517748751672 2.30577808008255
-0.152656775388047 0.170864098415914 2.29559747554749
-0.115458007562375 0.154475288078004 2.31165432246585
-0.0677741801678432 0.157820175795164 2.3111439518475
-0.0173947855565556 0.158436745232703 2.31313172188673
0.0327490036930356 0.137936241791405 2.32851807260241
0.0804294572182981 0.142519607664501 2.30806499709043
-0.292712984826058 -0.13916561007922 1.81758176989622
-0.255373361936764 -0.176700141333856 1.82028703586838
-0.209097508637761 -0.175883522994587 1.80355509677164
-0.164761481167901 -0.202866542289217 1.82435516056812
-0.115088285686332 -0.185477018864049 1.81177897773327
-0.0730177240940613 -0.19925837115599 1.8258216990264
-0.0310274477761769 -0.21449044136637 1.84111765525194
0.0152248979758048 -0.198916860822262 1.82994320262663
0.0587854993066016 -0.218440561500214 1.85344738181964
0.104051238164302 -0.194362633619828 1.85213012495277
0.142921557696054 -0.195250543805232 1.88806580539717
-0.354939117574913 -0.0859395977965303 1.86776835660626
-0.330409280913119 -0.131664296005754 1.85300126237547
0.178416979945918 -0.156318798143655 1.89951067608434
0.199045058906388 -0.147843982604098 1.94597796903294
-0.373229921986888 -0.0733017112725866 1.91209476001519
0.215204214744304 -0.102699562601308 1.96562041007823
-0.375935406663807 -0.0256267066249757 1.9292747127658
0.214797527586415 -0.0904714049541563 2.01651783861948
-0.380588291341547 -0.0197623751202914 1.97356813551883
0.215514588231885 -0.0426936922842461 2.04142920078742
-0.381952760352435 0.0100806927334255 2.00488546596695
0.210978040961706 -0.0290141877411372 2.08980876621871
-0.384330759469424 0.0481440850280058 2.05038480328332
0.211575523234577 0.014542798588661 2.11300554267148
-0.384162710869858 0.0902718320682864 2.0763849501671
0.207158774565659 0.0281175969058782 2.16027021487855
-0.385876096939106 0.100874521289966 2.12967141373381
0.204644685845984 0.0755128098461215 2.18135658557762
-0.369593546790192 0.146727569457754 2.15360827650592
0.185280154755739 0.0895085681075228 2.22911178139277
-0.350096616999437 0.153566260674562 2.20020238726227
-0.314999678835711 0.190308089675586 2.21444674762668
0.125074878965276 0.141461244551934 2.27824533724065
0.162592794432735 0.134957420818575 2.24145494200192
-0.279279936654988 0.186831286679185 2.25134953632167
-0.23278885152129 0.211790247498048 2.25101124955915
-0.190758801345259 0.193991643272132 2.27365766748361
-0.140217324348491 0.207445247228982 2.26453437780514
-0.100706890316896 0.189596800075931 2.28197183535662
-0.0524406593324378 0.192711526447545 2.28168968790418
-0.00436566408127385 0.193860960898509 2.28310036222645
0.0359913799019117 0.171193082688365 2.30048457622621
0.0875134066923351 0.175587373175235 2.27901558322411
-0.293998665058794 -0.102410652171006 1.79318985233108
-0.24900970680667 -0.140521191413082 1.78922167591528
-0.201141247659054 -0.142054444592895 1.7741764150495
-0.159709553145921 -0.169874246479911 1.79603134517379
-0.109936198133327 -0.150199739376691 1.78153015463523
-0.066297137058343 -0.161262092833631 1.79324768997708
-0.0264032057753566 -0.176039338111572 1.80804347345697
0.0170758361124714 -0.161282080284638 1.79744870427846
0.0615195250853399 -0.183517446984171 1.82254282674211
0.108107554951037 -0.1598661553635 1.82129821278313
0.145230729928625 -0.163404043108793 1.85700083564035
-0.349606597908469 -0.0483842690451998 1.83898465459651
-0.327704123432758 -0.0953918610393414 1.82677208898755
0.178930843882211 -0.127210100751037 1.8658147661551
0.204915259350695 -0.112681793157444 1.91488515709737
-0.36715722716061 -0.0348921548733469 1.88132599884805
0.222109068197406 -0.0646862505596121 1.9460981964893
-0.36972690466657 0.0126887177072238 1.90417348691538
0.220551548200661 -0.0521445519061028 1.99146104312996
-0.374914488433808 0.0257346082250173 1.95387819186628
0.221593130305163 -0.00546409180156249 2.01155349664236
-0.378441427501325 0.0517172723011272 2.00149190301466
0.217141286908255 0.00720105627023032 2.05981132381775
-0.377600438377386 0.0940835239658502 2.02178984860467
0.217888836676307 0.0511712392118805 2.08150483937936
-0.378849262811117 0.128641783483862 2.05526360361691
0.213387256180352 0.0649955833627917 2.1301366741364
-0.37948622600911 0.136372165938959 2.1049849359601
0.21054434384175 0.110618919093686 2.15189506431631
-0.363307273416907 0.181832351405387 2.12431327788012
0.191629883875341 0.123520921236875 2.1990014284604
-0.343240134126531 0.189066485621655 2.17121846412687
-0.308940924869826 0.22525468006801 2.18447407256547
0.131785963064798 0.176292907937815 2.24779072527494
0.168863111529291 0.169759578027434 2.21123536797914
-0.273506927326284 0.221649511551039 2.22130550093919
-0.227286897429251 0.246808633478846 2.2207443003163
-0.18360110838535 0.229563716637519 2.24320466426588
-0.134988418379948 0.24167506634128 2.23512119200503
-0.0873454091106202 0.226586455597139 2.25060148911376
-0.0373373784094722 0.227467009216157 2.25234179360352
0.00917367472780625 0.227832273607543 2.25435339669202
0.0483085036992758 0.204137344081827 2.27088794189729
0.0945061401552417 0.210454926566501 2.2486228707222
-0.256707538073859 -0.10254824181775 1.76763458924727
-0.215185785099099 -0.105980446182498 1.75393423698532
-0.168782824157406 -0.103129621489796 1.74770855265223
-0.153831904146765 -0.137105072771961 1.76881057755528
-0.116626213918694 -0.109148757892773 1.75446250078421
-0.069853759714426 -0.121087165499903 1.76422391915019
-0.0229635495436953 -0.132292778836912 1.77406611554561
0.0249300411978436 -0.121433161408558 1.7715690814666
0.0644519734084758 -0.149381804609776 1.79376474882645
0.108837820991838 -0.123162380866702 1.79402097116676
0.149246944403919 -0.127485301522425 1.82673152530562
-0.337346571883162 -0.0110082046576224 1.81431247516796
-0.320621267766303 -0.0575560911532109 1.79914768532463
0.197924478058431 -0.0898449813098575 1.86922758550665
0.215633987669293 -0.067548000432305 1.90295253238709
-0.357558625208294 0.00468090584141567 1.85400552807563
0.221052768667401 -0.0243272481461819 1.91437139946383
-0.354703806763198 0.0487004598007597 1.87587392709947
0.223910880347364 -0.0133352261750611 1.95991255223372
-0.364381705848366 0.0615136685525066 1.92098966500523
0.22035247512187 0.0299252358139365 1.97949208133301
-0.371312218412731 0.0780759168190093 1.96709720935487
0.220575397803843 0.0443994949608069 2.0273577743148
-0.365360026169142 0.123414191057839 1.9827270690964
0.217414338498235 0.0865089622513917 2.05015145048977
-0.368413566550965 0.15005884292647 2.0190422949106
0.21726899419969 0.101204709027711 2.09771917592122
-0.3723455106274 0.17061251041611 2.07399095036735
0.211280998552003 0.142449339521954 2.12061393242826
-0.354620246597056 0.211500791662455 2.08959908291979
0.195828084890104 0.158320280342241 2.16902312630542
-0.337167914482137 0.222608223824626 2.1392098514435
-0.301652982677337 0.255141471451966 2.1515806958253
0.136761294177165 0.211151874034665 2.21594401448747
0.168653110768292 0.203829074717157 2.17883119650401
-0.266213483237551 0.255764082343862 2.19055710834793
-0.217645134721042 0.278513071620485 2.18545036317405
-0.180347686123575 0.264249212138808 2.21036221613215
-0.138555709996211 0.27305614681407 2.19980795017021
-0.0944109538668182 0.263135744208123 2.21376033019701
-0.04974573732093 0.258823441477858 2.22011093064669
0.0003272174386829 0.258279021435236 2.22175243771611
0.0522901712121821 0.24036913866615 2.23840474576427
0.0976415969248471 0.241723916399722 2.21579989468931
-0.282152670640764 -0.0619010434036204 1.7666259249151
-0.236775838746996 -0.0626007919090077 1.74426791479985
-0.189108825756058 -0.0638577131666586 1.73461487556477
-0.137241661940988 -0.0677977741130924 1.73753299679582
-0.0867184464600844 -0.0743905225650849 1.74406606309879
-0.0405695857748457 -0.0843475834749536 1.75121521608999
0.00354273814174184 -0.0838911487417615 1.75519063996832
0.0505606521954619 -0.0736029918246954 1.75734817775172
0.0710766075547191 -0.108786075786135 1.77229273865726
0.103031910742251 -0.0731333671612132 1.77187265902272
0.139578453561614 -0.0907200420666041 1.79826135834126
-0.302180907974335 -0.02015980250178 1.77564966922025
-0.27708051749152 0.0218367271230778 1.76236951097275
-0.259667302350704 -0.021136409510005 1.74825483533446
0.149714943555226 -0.0496646557799965 1.796236203664
0.175941761538537 -0.0837387895519653 1.83083043315622
0.179169502344017 -0.0362248343077454 1.82445014763417
-0.334380716878685 0.0430022723114384 1.8269047089121
-0.314570396370854 0.0211941659601061 1.7925431494634
0.203368978894941 -0.0427109799963558 1.86209516902834
0.208600510682622 -0.000792937631184494 1.87970244006692
-0.33119794330719 0.0803484051401506 1.85381736435768
0.214420229654741 0.0245358844736684 1.92336949514127
-0.34109009233291 0.0997151570347707 1.89350041644173
0.209350369403323 0.0614161939935207 1.95146481775467
-0.353570987759841 0.109834049351532 1.93334732302961
0.2119324808316 0.0817349141346449 1.99398172861845
-0.342617307040823 0.149006020532588 1.94764089663793
0.207001073312282 0.11849041081757 2.02175658657434
-0.346503238674576 0.176824733298225 1.98456896159402
0.209381182294614 0.138628374664575 2.06405584134708
-0.359990523866238 0.191275041996624 2.03744380784135
0.201779964796883 0.17391874708492 2.09111984659363
-0.326268930743447 0.248370634484856 2.10202151817301
-0.338200382831114 0.233490887298211 2.05325224420116
-0.30736885632017 0.266470408307926 2.05994415999371
0.192313722280101 0.188556528004679 2.13563130070781
0.178898842448891 0.215086754126749 2.09253692750172
0.165655262338202 0.22706016500909 2.13800540094975
-0.258519157096627 0.281420906806709 2.15413182306807
-0.292338106824348 0.275553368760618 2.11276817935053
-0.2505413379357 0.297454863760808 2.11198820292421
0.132952538874153 0.242706011922683 2.17746333103219
0.100508834848076 0.275313859233662 2.1421315834415
0.0882271535420964 0.267616440050256 2.18086957873311
-0.211354954555902 0.299061713755436 2.14576925827638
-0.167356914193893 0.293217840554322 2.16539593204735
-0.1144390632613 0.290957442632365 2.16772387897765
-0.0699570101692259 0.286001851613937 2.17641449146308
-0.0261347775025765 0.282752337576033 2.18137687925804
0.0166053720372134 0.282020883736125 2.18075853744605
0.0498370015012963 0.267253108377742 2.20374292482371
-0.210845047685134 -0.0211477288879085 1.73223707633884
-0.159555221538346 -0.024926261430681 1.72928098725772
-0.108777814093237 -0.0289761389800156 1.7349479288481
-0.0608957433368091 -0.0338095464836882 1.74050510582745
-0.0160588840558799 -0.0373669135506089 1.74566902859734
0.0280160456937732 -0.0331938963007804 1.75053382814056
0.076609614775226 -0.0318239842005754 1.7583180805622
-0.232871677757517 0.0199940660905436 1.74156269983571
-0.205713586524553 0.0574581305669317 1.74634879004495
-0.181473486691144 0.0183456996253291 1.73219979301673
-0.130670165002308 0.0150524153168845 1.73531585845962
-0.0829952324021232 0.0139556423487067 1.74125049422133
-0.0357189240380309 0.0105369378839795 1.74670983339801
0.00905609111222985 0.0120047021491169 1.75283832622708
0.0559951530554022 0.0112421639510583 1.75893743537445
0.104151194081143 0.0122933294374224 1.77358608192788
0.151279715578815 0.00298890513223622 1.80084040139824
0.120131999353893 -0.0281453684244528 1.77576058303628
-0.295159591556183 0.0611300615648159 1.79120045080159
-0.263259949368346 0.0996323322143002 1.79427659028508
-0.252605690788412 0.0623005995065426 1.76356585481443
0.127147184485226 0.0454264260342502 1.79862080487903
0.185199791875985 0.00541527653611119 1.83845771630514
0.163240786130154 0.0456469021891197 1.83051328121064
-0.303035402986972 0.091404167906713 1.82281989168068
-0.269814885061708 0.129732801697076 1.83093762600384
0.193617659314886 0.0407568303412092 1.8737756706828
0.165645094455978 0.0798582792366194 1.86532893956989
-0.307689651102611 0.123194882621877 1.86306610616573
-0.276870436231011 0.159219817956354 1.8694648308703
0.192531487937606 0.0704515409932493 1.90751473760871
0.16365079536311 0.111313277261595 1.90136267693332
-0.318826119165121 0.14671575224541 1.90375346996883
-0.281763431678379 0.186565629932384 1.90396932546048
0.191063833172193 0.102235553486466 1.94517047011148
0.162558889066244 0.141793588548935 1.93762029597354
-0.315759934920496 0.18413331615818 1.93950811877163
-0.279888043644442 0.219606401791163 1.93877519520537
0.190319462139035 0.129849705314602 1.97929956332501
0.161830981582682 0.17162301277522 1.97366730424086
-0.313044861040372 0.218170716401768 1.9725450720283
-0.279351946023454 0.254283846990361 1.97832244814154
0.189198340950799 0.161078550215049 2.01719377942015
0.16055474471388 0.201662348307556 2.00909913600596
-0.336579530288106 0.2165402398582 2.00892983669211
-0.307420278782987 0.253301111351467 2.01451604826317
0.187433801521522 0.189137205660837 2.0508052840157
0.157272386225311 0.229032584738645 2.04627847657917
-0.274221801299879 0.289479246485163 2.07153524148836
-0.269161515625049 0.283105811425513 2.02320045089784
-0.23669290893152 0.303555257322826 2.05777935901932
0.13506927500683 0.256873931532111 2.13108864667654
0.148769494356191 0.247846214644884 2.08889454530463
0.108763634688215 0.275227016000468 2.09009847817329
-0.212171658559609 0.30945004173274 2.09788328637013
-0.186618128745612 0.311872834496745 2.06213264631617
-0.17163630041469 0.309112153540663 2.11644037753854
-0.142684843419564 0.310300673477654 2.07550591279037
-0.129160755720135 0.305100161894686 2.12551640574109
-0.0985596196513052 0.306992918521733 2.08057188817056
-0.0823585495195985 0.302137869850643 2.12819899918927
-0.0536943751585209 0.303558386315328 2.08388328728964
-0.0380531488678273 0.298652262290464 2.134127913004
-0.0101123847684634 0.300225067484105 2.08747146025235
0.00647363221903656 0.295930082560645 2.13603192785716
0.0341114020515675 0.297024706288637 2.09525971150119
0.052201460840125 0.288792017415565 2.15073294981432
0.0718807942389733 0.29017735762399 2.10758238876949
-0.175030312074761 0.0902604819846585 1.760601752211
-0.152426113044381 0.056476864301277 1.74430778156483
-0.106710922422287 0.0588199227052418 1.75190933829363
-0.0579594426317734 0.0547052461771748 1.75731150973709
-0.0130641611154007 0.0564539199607131 1.76479867686254
0.0323324548725613 0.0556563979414266 1.77127099588051
0.0783778041704593 0.0516145291667316 1.77835973863523
-0.220095625894288 0.0979773494105399 1.77265758418059
-0.177592689656367 0.124561796377298 1.78859497783911
-0.131504999609779 0.100100022403023 1.77219143733101
-0.0805338503093502 0.0932785722774553 1.77583268260946
-0.0362350727433232 0.0964223345369652 1.7858183887443
0.00829411193708555 0.0963394830891585 1.79356330270997
0.0534968149701231 0.093501920896428 1.79922775549108
0.0969682679892907 0.0837024230139791 1.80597768413175
0.131616497529404 0.0857101497867384 1.83110452348614
-0.225127741054902 0.131199943703784 1.80588706335852
-0.185338617638885 0.155604367182108 1.82420083799609
-0.139407204461563 0.140063053111609 1.81013893209766
-0.100163496532074 0.124698820149888 1.80031684456787
-0.057394118604308 0.129652466736426 1.81459595907709
-0.0136871218996319 0.130203245230705 1.82408477729158
0.0344473543102649 0.126578819465688 1.82959989903754
0.0843270320358026 0.118852700854342 1.8353449239461
0.129134899865231 0.116066796247295 1.86404723530078
-0.232059586183141 0.161027199016774 1.84252919682004
-0.187109758058992 0.185473732692609 1.85868834001656
-0.141034259380086 0.171493168777811 1.84646397957872
-0.0943877208433611 0.155749049941203 1.83754355702143
-0.0474732252294183 0.162076988440138 1.85441802355057
0.00274303265166942 0.158222826499133 1.86008656746877
0.0505680543055683 0.154192291883979 1.86507842018296
0.09270772170351 0.146314241649422 1.87236742951844
0.127893772735543 0.148213045772395 1.90176440527571
-0.235623096062051 0.190040462981533 1.87687883344773
-0.189713847190711 0.213879435976283 1.89156489624975
-0.14073892770055 0.203176267268618 1.88347285339597
-0.0981297266917216 0.186222121634328 1.87232375907398
-0.0602958102389241 0.194384970240855 1.88950054496278
-0.0155573120269837 0.188723064462756 1.89195204097545
0.0324728120707348 0.18520321858384 1.89756760516317
0.0815602029116234 0.178854019280876 1.90496145623316
0.126780627888011 0.177076018254416 1.93563452581064
-0.238920950908874 0.218258340123836 1.91023605221655
-0.196130683083841 0.241922586581311 1.9244527080843
-0.146109795354887 0.233093422602199 1.91727473892601
-0.0968415544818484 0.221538711116673 1.91377188112666
-0.045287826253237 0.22164054312459 1.92432403251737
0.00290501122411971 0.21714115956596 1.92883080669337
0.0493333593759323 0.213782781591941 1.93437543474922
0.0908692300053475 0.206529209359685 1.94285247467645
0.125901924893551 0.208686256740265 1.97307451910544
-0.243641504636007 0.248588133438787 1.94669762018862
-0.205883746679139 0.270337508683047 1.95916773328173
-0.158895347271847 0.264457559788347 1.95133513906675
-0.112253096211102 0.254864310718098 1.94951742449549
-0.0675758485190248 0.250594419303685 1.95357930225951
-0.0185813513969438 0.248433828383019 1.96097608193907
0.0302497637902329 0.244926749935004 1.96676827360857
0.0793754804818705 0.239197449886564 1.97527835988826
0.124254735027239 0.236980522751798 2.00672346353782
-0.239498333770627 0.280591575656689 1.98810198288611
-0.183010477120715 0.290988118318783 1.98908583896006
-0.134253641973824 0.285194555327432 1.98702726583187
-0.0895903349694421 0.280644036551768 1.98999719719549
-0.0446958829761367 0.276711892148018 1.99415876572297
0.001700272371261 0.273788271096137 2.00046996996029
0.0467953820840095 0.270926367127829 2.00674236365579
0.087528540735129 0.264002473982508 2.01621868741634
0.119446816097734 0.261299891327167 2.04934418873886
-0.214622426961578 0.300824724323829 2.02068037283161
-0.160474862680225 0.304405322755555 2.02646264092186
-0.114681377045608 0.301058437219059 2.03203593094102
-0.0695909660861152 0.297260450066485 2.03573044174666
-0.0238077368717321 0.293417457186361 2.03957035664501
0.0233597304258053 0.290317078117347 2.04650170076893
0.070327709935034 0.285023986613678 2.05617752859679
3 0 1 2
3 0 2 4
3 3 0 4
3 3 4 6
3 5 3 6
3 5 6 8
3 7 5 8
3 7 8 10
3 9 7 10
3 9 10 12
3 11 9 12
3 13 11 14
3 14 11 12
3 13 14 15
3 16 17 18
3 16 18 1
3 0 19 1
3 19 16 1
3 0 3 20
3 19 0 20
3 3 5 21
3 20 3 21
3 5 7 22
3 21 5 22
3 7 9 23
3 22 7 23
3 9 11 24
3 23 9 24
3 24 11 25
3 25 11 13
3 13 15 26
3 27 13 26
3 25 13 27
3 27 26 28
3 17 16 30
3 30 16 29
3 29 19 31
3 29 16 19
3 31 20 32
3 31 19 20
3 32 21 33
3 32 20 21
3 21 22 33
3 33 22 34
3 22 23 34
3 34 23 35
3 23 24 35
3 35 24 36
3 24 25 36
3 36 25 37
3 37 27 38
3 37 25 27
3 38 28 39
3 38 27 28
3 30 40 41
3 30 29 40
3 29 31 42
3 40 29 42
3 31 32 43
3 42 31 43
3 32 33 44
3 43 32 44
3 33 34 45
3 44 33 45
3 34 35 46
3 45 34 46
3 35 36 47
3 46 35 47
3 36 37 47
3 47 37 48
3 37 38 48
3 48 38 49
3 49 39 50
3 49 38 39
3 40 51 52
3 41 40 52
3 51 42 53
3 51 40 42
3 42 43 53
3 53 43 54
3 43 44 54
3 54 44 55
3 44 45 55
3 55 45 56
3 45 46 56
3 56 46 57
3 46 47 58
3 57 46 58
3 47 48 59
3 58 47 59
3 48 49 60
3 59 48 60
3 49 50 61
3 60 49 61
3 51 62 63
3 52 51 63
3 51 53 64
3 62 51 64
3 53 54 65
3 64 53 65
3 54 55 66
3 65 54 66
3 55 56 67
3 66 55 67
3 56 57 67
3 67 57 68
3 57 58 69
3 68 57 69
3 58 59 69
3 69 59 70
3 59 60 70
3 70 60 71
3 71 61 72
3 71 60 61
3 62 73 74
3 63 62 74
3 62 64 75
3 73 62 75
3 64 65 75
3 75 65 76
3 65 66 76
3 76 66 77
3 66 67 77
3 77 67 78
3 67 68 78
3 78 68 79
3 79 69 80
3 79 68 69
3 80 70 81
3 80 69 70
3 81 71 82
3 81 70 71
3 82 72 83
3 82 71 72
3 74 73 85
3 85 73 84
3 84 73 86
3 86 73 75
3 75 76 86
3 86 76 87
3 76 77 88
3 87 76 88
3 77 78 89
3 88 77 89
3 78 79 90
3 89 78 90
3 79 80 91
3 90 79 91
3 80 81 92
3 91 80 92
3 81 82 93
3 92 81 93
3 93 83 94
3 93 82 83
3 84 95 85
3 84 86 96
3 97 84 96
3 95 84 97
3 96 87 98
3 96 86 87
3 87 88 98
3 98 88 99
3 88 89 99
3 99 89 100
3 89 90 100
3 100 90 101
3 101 91 102
3 101 90 91
3 102 92 103
3 102 91 92
3 92 93 103
3 105 103 104
3 103 93 104
3 93 94 104
3 96 106 97
3 96 98 107
3 106 96 107
3 98 99 108
3 107 98 108
3 99 100 109
3 108 99 109
3 100 101 110
3 109 100 110
3 101 102 111
3 110 101 111
3 111 102 112
3 112 102 103
3 103 105 112
3 117 114 115
3 116 113 117
3 117 113 114
3 116 117 119
3 118 116 119
3 118 119 121
3 120 118 121
3 120 121 123
3 122 120 123
3 122 123 125
3 124 122 125
3 124 125 127
3 126 124 127
3 126 127 128
3 129 130 131
3 114 129 131
3 114 113 129
3 113 2 129
3 129 2 1
3 4 113 116
3 4 2 113
3 6 116 118
3 6 4 116
3 8 118 120
3 8 6 118
3 10 120 122
3 10 8 120
3 12 122 124
3 12 10 122
3 14 124 126
3 14 12 124
3 133 126 128
3 15 14 126
3 15 126 133
3 132 15 133
3 132 133 134
3 135 136 137
3 137 17 135
3 137 18 17
3 18 137 130
3 129 18 130
3 18 129 1
3 15 132 26
3 139 132 134
3 139 138 132
3 138 28 26
3 132 138 26
3 138 139 140
3 136 135 142
3 142 135 141
3 17 30 135
3 135 30 141
3 143 39 28
3 138 143 28
3 143 140 144
3 143 138 140
3 141 145 146
3 142 141 146
3 41 145 141
3 30 41 141
3 147 39 143
3 147 50 39
3 147 144 148
3 147 143 144
3 145 149 150
3 146 145 150
3 52 149 145
3 41 52 145
3 151 50 147
3 151 155 50
3 151 148 152
3 151 147 148
3 149 153 154
3 150 149 154
3 63 153 149
3 52 63 149
3 155 61 50
3 155 72 61
3 155 151 156
3 156 151 152
3 154 157 158
3 154 153 157
3 74 157 153
3 63 74 153
3 159 72 155
3 159 83 72
3 159 156 160
3 159 155 156
3 158 157 162
3 162 157 161
3 74 85 161
3 157 74 161
3 163 83 159
3 163 94 83
3 163 160 164
3 163 159 160
3 161 165 162
3 165 95 166
3 165 161 95
3 161 85 95
3 165 166 167
3 95 97 166
3 105 104 168
3 170 94 163
3 170 168 94
3 169 168 170
3 94 168 104
3 163 164 170
3 166 171 167
3 173 171 172
3 172 171 106
3 171 97 106
3 171 166 97
3 172 107 174
3 172 106 107
3 174 108 175
3 174 107 108
3 175 109 176
3 175 108 109
3 176 110 177
3 176 109 110
3 177 111 178
3 177 110 111
3 178 112 180
3 178 111 112
3 181 105 168
3 181 180 105
3 179 178 180
3 180 112 105
3 168 169 181
3 172 182 173
3 182 172 183
3 183 172 174
3 174 175 184
3 183 174 184
3 175 176 185
3 184 175 185
3 176 177 186
3 185 176 186
3 177 178 187
3 186 177 187
3 187 179 188
3 187 178 179
3 179 180 229
3 189 190 191
3 114 131 191
3 115 114 191
3 115 191 192
3 115 192 193
3 117 115 193
3 119 193 194
3 119 117 193
3 119 194 121
3 121 194 195
3 121 195 123
3 123 195 196
3 123 196 125
3 125 196 197
3 127 197 198
3 127 125 197
3 128 198 199
3 200 128 199
3 128 127 198
3 200 199 201
3 202 203 204
3 131 130 189
3 190 189 204
3 189 130 202
3 189 202 204
3 131 189 191
3 128 200 133
3 134 200 205
3 206 205 201
3 134 133 200
3 205 200 201
3 205 206 207
3 136 208 203
3 202 137 136
3 202 136 203
3 137 202 130
3 134 205 139
3 139 205 207
3 140 139 207
3 211 207 209
3 136 142 208
3 208 142 210
3 211 140 207
3 211 144 140
3 146 212 210
3 142 146 210
3 148 144 213
3 213 144 211
3 150 214 212
3 146 150 212
3 215 148 213
3 215 152 148
3 154 216 150
3 150 216 214
3 219 152 217
3 217 152 215
3 158 218 216
3 154 158 216
3 219 156 152
3 219 160 156
3 158 220 218
3 158 162 220
3 221 160 219
3 221 164 160
3 162 165 222
3 223 220 222
3 220 162 222
3 165 167 222
3 169 170 224
3 225 164 221
3 224 170 164
3 224 164 225
3 222 226 223
3 167 171 227
3 226 167 227
3 226 227 228
3 226 222 167
3 171 173 227
3 180 181 229
3 181 169 230
3 231 169 224
3 230 169 231
3 230 229 181
3 224 225 271
3 227 232 228
3 232 182 233
3 232 173 182
3 227 173 232
3 182 183 234
3 233 182 234
3 183 184 234
3 234 184 235
3 184 185 235
3 235 185 236
3 185 186 236
3 236 186 237
3 186 187 237
3 237 187 238
3 238 188 239
3 238 187 188
3 188 179 229
3 240 239 188
3 240 188 229
3 229 230 240
3 191 190 242
3 242 190 241
3 192 242 243
3 192 191 242
3 192 243 244
3 193 192 244
3 194 244 245
3 194 193 244
3 194 245 246
3 195 194 246
3 195 246 247
3 196 195 247
3 196 247 248
3 197 196 248
3 197 248 249
3 198 197 249
3 199 198 249
3 250 199 249
3 201 199 251
3 251 199 250
3 204 252 253
3 204 203 252
3 190 253 241
3 190 204 253
3 206 251 254
3 206 201 251
3 207 206 255
3 255 206 254
3 203 256 252
3 203 208 256
3 257 209 255
3 255 209 207
3 210 258 208
3 208 258 256
3 211 209 259
3 259 209 257
3 212 260 210
3 210 260 258
3 213 211 259
3 261 213 259
3 214 262 260
3 212 214 260
3 215 213 261
3 263 215 261
3 216 264 214
3 214 264 262
3 217 215 263
3 265 217 263
3 218 266 264
3 216 218 264
3 219 217 265
3 267 219 265
3 218 268 266
3 218 220 268
3 221 219 267
3 269 221 267
3 223 270 268
3 220 223 268
3 225 221 269
3 271 225 269
3 223 226 272
3 270 223 272
3 272 228 273
3 272 226 228
3 274 231 275
3 274 230 231
3 275 231 271
3 271 231 224
3 273 228 276
3 276 228 232
3 276 233 277
3 276 232 233
3 233 234 278
3 277 233 278
3 234 235 279
3 278 234 279
3 235 236 280
3 279 235 280
3 236 237 281
3 280 236 281
3 237 238 282
3 281 237 282
3 238 239 283
3 282 238 283
3 327 239 284
3 284 239 240
3 240 230 274
3 284 240 274
3 241 285 286
3 242 241 286
3 242 286 243
3 243 286 287
3 243 287 288
3 244 243 288
3 245 288 289
3 245 244 288
3 245 289 246
3 246 289 290
3 246 290 247
3 247 290 291
3 247 291 248
3 248 291 292
3 248 292 293
3 249 248 293
3 249 293 250
3 250 293 294
3 250 294 295
3 251 250 295
3 252 296 297
3 253 252 297
3 241 297 285
3 241 253 297
3 254 295 298
3 254 251 295
3 254 298 299
3 255 254 299
3 256 300 252
3 252 300 296
3 257 255 299
3 301 257 299
3 258 302 300
3 256 258 300
3 259 257 303
3 303 257 301
3 260 304 258
3 258 304 302
3 261 259 303
3 305 261 303
3 262 306 304
3 260 262 304
3 263 261 305
3 307 263 305
3 264 308 262
3 262 308 306
3 265 263 307
3 309 265 307
3 266 310 308
3 264 266 308
3 267 265 309
3 311 267 309
3 266 312 310
3 266 268 312
3 269 267 311
3 313 269 311
3 270 314 312
3 268 270 312
3 271 269 315
3 315 269 313
3 270 272 316
3 314 270 316
3 316 273 317
3 316 272 273
3 318 275 319
3 318 274 275
3 275 271 315
3 319 275 315
3 273 276 320
3 317 273 320
3 276 277 320
3 320 277 321
3 277 278 322
3 321 277 322
3 322 279 323
3 322 278 279
3 279 280 323
3 323 280 324
3 280 281 324
3 324 281 325
3 281 282 325
3 325 282 326
3 282 283 326
3 326 283 327
3 283 239 327
3 327 284 328
3 284 274 318
3 328 284 318
3 285 329 330
3 286 285 330
3 286 330 287
3 287 330 331
3 287 331 332
3 288 287 332
3 288 332 289
3 289 332 333
3 289 333 334
3 290 289 334
3 290 334 335
3 291 290 335
3 291 335 292
3 292 335 336
3 292 336 337
3 293 292 337
3 293 337 294
3 294 337 338
3 294 338 339
3 295 294 339
3 296 340 341
3 297 296 341
3 285 341 329
3 285 297 341
3 298 339 342
3 298 295 339
3 298 342 343
3 299 298 343
3 300 344 296
3 296 344 340
3 301 299 343
3 345 301 343
3 302 346 344
3 300 302 344
3 303 301 347
3 347 301 345
3 304 348 302
3 302 348 346
3 305 303 347
3 349 305 347
3 306 350 348
3 304 306 348
3 307 305 351
3 351 305 349
3 308 352 306
3 306 352 350
3 309 307 353
3 353 307 351
3 310 354 352
3 308 310 352
3 311 309 355
3 355 309 353
3 312 356 310
3 310 356 354
3 313 311 355
3 357 313 355
3 314 358 356
3 312 314 356
3 315 313 359
3 359 313 357
3 314 316 360
3 358 314 360
3 360 317 361
3 360 316 317
3 362 319 363
3 362 318 319
3 319 315 359
3 363 319 359
3 317 320 364
3 361 317 364
3 320 321 364
3 364 321 365
3 321 322 366
3 365 321 366
3 322 323 366
3 366 323 367
3 323 324 368
3 367 323 368
3 324 325 369
3 368 324 369
3 325 326 370
3 369 325 370
3 326 327 371
3 370 326 371
3 327 328 371
3 371 328 372
3 328 318 362
3 372 328 362
3 329 373 374
3 330 329 374
3 330 374 331
3 331 374 375
3 331 375 376
3 332 331 376
3 332 376 333
3 333 376 377
3 333 377 378
3 334 333 378
3 334 378 379
3 335 334 379
3 335 379 336
3 336 379 380
3 336 380 381
3 337 336 381
3 337 381 338
3 338 381 382
3 338 382 383
3 339 338 383
3 340 384 385
3 341 340 385
3 329 385 373
3 329 341 385
3 342 383 386
3 342 339 383
3 342 386 387
3 343 342 387
3 344 388 340
3 340 388 384
3 345 343 387
3 389 345 387
3 346 390 388
3 344 346 388
3 347 345 391
3 391 345 389
3 348 392 346
3 346 392 390
3 349 347 391
3 393 349 391
3 350 394 348
3 348 394 392
3 351 349 395
3 395 349 393
3 352 396 350
3 350 396 394
3 353 351 395
3 397 353 395
3 354 398 396
3 352 354 396
3 355 353 399
3 399 353 397
3 356 400 354
3 354 400 398
3 357 355 399
3 401 357 399
3 358 402 400
3 356 358 400
3 359 357 403
3 403 357 401
3 358 360 404
3 402 358 404
3 404 361 405
3 404 360 361
3 406 363 407
3 406 362 363
3 363 359 403
3 407 363 403
3 361 364 408
3 405 361 408
3 364 365 408
3 408 365 409
3 365 366 410
3 409 365 410
3 366 367 410
3 410 367 411
3 367 368 412
3 411 367 412
3 368 369 412
3 412 369 413
3 369 370 413
3 413 370 414
3 370 371 415
3 414 370 415
3 371 372 415
3 415 372 416
3 372 362 406
3 416 372 406
3 373 417 418
3 374 373 418
3 374 418 375
3 375 418 419
3 375 419 420
3 376 375 420
3 376 420 377
3 377 420 421
3 377 421 422
3 378 377 422
3 378 422 423
3 379 378 423
3 380 423 424
3 380 379 423
3 380 424 425
3 381 380 425
3 382 425 426
3 382 381 425
3 382 426 427
3 383 382 427
3 384 428 429
3 385 384 429
3 373 429 417
3 373 385 429
3 386 427 430
3 386 383 427
3 386 430 431
3 387 386 431
3 384 432 428
3 384 388 432
3 389 387 431
3 433 389 431
3 390 434 432
3 388 390 432
3 435 389 433
3 435 391 389
3 390 436 434
3 390 392 436
3 393 391 435
3 437 393 435
3 394 438 436
3 392 394 436
3 395 393 439
3 439 393 437
3 396 440 438
3 394 396 438
3 397 395 439
3 441 397 439
3 398 442 440
3 396 398 440
3 399 397 443
3 443 397 441
3 400 444 398
3 398 444 442
3 401 399 443
3 445 401 443
3 402 446 444
3 400 402 444
3 403 401 447
3 447 401 445
3 402 404 448
3 446 402 448
3 448 405 449
3 448 404 405
3 450 407 451
3 450 406 407
3 407 403 447
3 451 407 447
3 405 408 452
3 449 405 452
3 408 409 452
3 452 409 453
3 409 410 454
3 453 409 454
3 410 411 454
3 454 411 455
3 411 412 456
3 455 411 456
3 412 413 456
3 456 413 457
3 457 414 458
3 457 413 414
3 414 415 459
3 458 414 459
3 415 416 459
3 459 416 460
3 416 406 450
3 460 416 450
3 418 461 462
3 418 417 461
3 419 462 463
3 419 418 462
3 419 463 464
3 420 419 464
3 420 464 421
3 421 464 465
3 421 465 466
3 422 421 466
3 422 466 467
3 423 422 467
3 424 467 468
3 424 423 467
3 424 468 469
3 425 424 469
3 426 469 470
3 426 425 469
3 427 426 471
3 471 426 470
3 429 428 473
3 473 428 472
3 417 473 505
3 417 429 473
3 430 427 471
3 520 430 471
3 431 474 475
3 431 430 474
3 428 476 472
3 428 432 476
3 433 431 475
3 477 433 475
3 434 478 476
3 432 434 476
3 479 433 477
3 479 435 433
3 434 480 478
3 434 436 480
3 437 435 479
3 481 437 479
3 438 482 436
3 436 482 480
3 439 437 483
3 483 437 481
3 440 484 482
3 438 440 482
3 441 439 483
3 485 441 483
3 442 486 440
3 440 486 484
3 443 441 487
3 487 441 485
3 444 488 442
3 442 488 486
3 445 443 487
3 489 445 487
3 444 446 488
3 488 446 490
3 491 445 489
3 491 447 445
3 490 446 492
3 492 446 448
3 492 449 493
3 492 448 449
3 494 451 495
3 494 450 451
3 451 447 491
3 495 451 491
3 449 452 496
3 493 449 496
3 496 453 497
3 496 452 453
3 453 454 498
3 497 453 498
3 498 455 499
3 498 454 455
3 455 456 500
3 499 455 500
3 456 457 501
3 500 456 501
3 457 458 502
3 501 457 502
3 458 459 503
3 502 458 503
3 503 460 504
3 503 459 460
3 504 460 494
3 494 460 450
3 461 505 506
3 462 461 506
3 507 463 462
3 507 462 506
3 465 463 508
3 508 463 507
3 464 463 465
3 465 508 509
3 465 509 466
3 466 509 510
3 466 510 467
3 467 510 511
3 467 511 468
3 468 511 512
3 468 512 513
3 469 468 513
3 469 513 470
3 515 470 514
3 470 513 514
3 470 515 471
3 472 516 473
3 518 516 517
3 518 505 516
3 461 417 505
3 505 473 516
3 505 518 506
3 515 514 519
3 474 430 520
3 521 520 519
3 520 471 515
3 520 515 519
3 474 520 524
3 476 522 472
3 516 472 523
3 472 522 523
3 516 523 517
3 520 521 524
3 477 475 524
3 524 475 474
3 525 477 524
3 478 526 522
3 476 478 522
3 527 477 525
3 527 479 477
3 478 528 526
3 478 480 528
3 481 479 527
3 529 481 527
3 482 530 480
3 480 530 528
3 483 481 531
3 531 481 529
3 484 532 530
3 482 484 530
3 485 483 531
3 533 485 531
3 486 534 484
3 484 534 532
3 535 485 533
3 535 487 485
3 486 536 534
3 486 488 536
3 537 489 535
3 535 489 487
3 490 538 539
3 536 490 539
3 488 490 536
3 538 540 539
3 541 542 543
3 541 489 537
3 542 541 537
3 541 491 489
3 490 492 538
3 545 493 544
3 538 492 493
3 538 493 545
3 540 538 545
3 544 546 545
3 547 548 549
3 543 495 541
3 547 494 495
3 547 495 543
3 608 547 543
3 495 491 541
3 493 496 544
3 544 497 550
3 546 544 550
3 544 496 497
3 550 497 551
3 551 497 498
3 498 499 551
3 551 499 552
3 499 500 552
3 552 500 553
3 500 501 553
3 553 501 554
3 554 502 555
3 554 501 502
3 502 503 556
3 555 502 556
3 503 504 556
3 549 504 547
3 556 504 549
3 504 494 547
3 506 557 507
3 507 557 558
3 508 507 558
3 508 558 559
3 509 508 559
3 509 559 560
3 510 509 560
3 510 560 561
3 511 510 561
3 511 561 562
3 512 511 562
3 514 512 563
3 563 512 562
3 513 512 514
3 517 564 518
3 518 564 557
3 566 564 565
3 557 564 566
3 557 506 518
3 558 566 567
3 558 557 566
3 559 567 568
3 559 558 567
3 560 568 569
3 560 559 568
3 561 569 570
3 561 560 569
3 562 570 571
3 562 561 570
3 563 562 571
3 572 563 571
3 574 514 563
3 572 574 563
3 573 519 574
3 574 519 514
3 519 573 521
3 522 575 523
3 577 575 576
3 577 517 575
3 564 517 577
3 575 517 523
3 564 577 565
3 573 574 572
3 521 573 579
3 580 573 578
3 579 573 580
3 579 524 521
3 524 579 525
3 522 581 575
3 522 526 581
3 576 581 582
3 576 575 581
3 583 580 584
3 583 579 580
3 583 525 579
3 583 527 525
3 526 585 581
3 526 528 585
3 582 585 586
3 582 581 585
3 587 584 588
3 587 583 584
3 587 527 583
3 587 529 527
3 528 589 585
3 528 530 589
3 586 589 590
3 586 585 589
3 591 588 592
3 591 587 588
3 591 529 587
3 591 531 529
3 532 593 589
3 530 532 589
3 590 593 594
3 590 589 593
3 595 592 596
3 595 591 592
3 595 531 591
3 595 533 531
3 534 597 593
3 532 534 593
3 594 597 598
3 594 593 597
3 599 596 600
3 599 595 596
3 599 533 595
3 599 535 533
3 534 601 597
3 534 536 601
3 602 597 601
3 602 598 597
3 603 599 600
3 604 603 600
3 603 535 599
3 603 537 535
3 536 539 601
3 606 540 605
3 606 602 540
3 602 601 539
3 540 602 539
3 605 607 606
3 608 609 610
3 608 543 609
3 604 542 603
3 609 543 542
3 609 542 604
3 542 537 603
3 540 545 605
3 605 546 607
3 612 607 611
3 605 545 546
3 607 546 611
3 612 613 614
3 612 611 613
3 614 615 616
3 614 613 615
3 616 617 618
3 616 615 617
3 618 619 620
3 618 617 619
3 620 621 622
3 620 619 621
3 622 623 624
3 622 621 623
3 610 548 608
3 624 623 548
3 624 548 610
3 548 623 549
3 548 547 608
3 546 550 611
3 611 550 613
3 613 550 551
3 551 552 615
3 613 551 615
3 552 553 617
3 615 552 617
3 553 554 619
3 617 553 619
3 554 555 621
3 619 554 621
3 621 555 623
3 623 555 556
3 556 549 623
3 565 625 626
3 567 566 626
3 626 566 565
3 567 626 627
3 568 567 627
3 568 627 628
3 569 568 628
3 569 628 629
3 570 569 629
3 570 629 630
3 571 570 630
3 572 571 631
3 631 571 630
3 572 631 578
3 576 632 577
3 625 632 633
3 565 577 632
3 565 632 625
3 625 633 634
3 626 625 634
3 626 634 627
3 627 634 635
3 627 635 628
3 628 635 636
3 628 636 629
3 629 636 637
3 629 637 630
3 630 637 638
3 631 638 639
3 631 630 638
3 640 578 639
3 578 573 572
3 578 631 639
3 578 640 580
3 576 641 632
3 576 582 641
3 633 641 642
3 633 632 641
3 633 642 643
3 634 633 643
3 634 643 644
3 635 634 644
3 635 644 645
3 636 635 645
3 636 645 646
3 637 636 646
3 637 646 647
3 638 637 647
3 638 647 648
3 639 638 648
3 640 648 649
3 640 639 648
3 584 580 640
3 649 584 640
3 582 650 641
3 582 586 650
3 642 650 651
3 642 641 650
3 642 651 652
3 643 642 652
3 643 652 653
3 644 643 653
3 644 653 645
3 645 653 654
3 645 654 646
3 646 654 655
3 646 655 647
3 647 655 656
3 647 656 648
3 648 656 657
3 648 657 649
3 649 657 658
3 588 584 649
3 658 588 649
3 586 659 650
3 586 590 659
3 650 659 651
3 651 659 660
3 651 660 661
3 652 651 661
3 652 661 662
3 653 652 662
3 653 662 654
3 654 662 663
3 654 663 664
3 655 654 664
3 655 664 665
3 656 655 665
3 656 665 666
3 657 656 666
3 657 666 658
3 658 666 667
3 592 588 658
3 667 592 658
3 590 668 659
3 590 594 668
3 660 668 669
3 660 659 668
3 660 669 670
3 661 660 670
3 661 670 671
3 662 661 671
3 662 671 663
3 663 671 672
3 663 672 664
3 664 672 673
3 664 673 665
3 665 673 674
3 665 674 666
3 666 674 675
3 666 675 667
3 667 675 676
3 596 592 667
3 676 596 667
3 594 677 668
3 594 598 677
3 668 677 669
3 669 677 678
3 669 678 679
3 670 669 679
3 670 679 680
3 671 670 680
3 671 680 681
3 672 671 681
3 672 681 682
3 673 672 682
3 673 682 683
3 674 673 683
3 674 683 684
3 675 674 684
3 676 684 685
3 676 675 684
3 600 596 676
3 685 600 676
3 598 686 677
3 598 602 606
3 678 686 687
3 678 677 686
3 678 687 679
3 679 687 688
3 679 688 680
3 680 688 689
3 680 689 681
3 681 689 690
3 681 690 682
3 682 690 691
3 683 691 692
3 683 682 691
3 684 692 693
3 684 683 692
3 685 693 694
3 685 684 693
3 694 604 685
3 685 604 600
3 598 606 686
3 606 607 695
3 686 606 695
3 686 695 687
3 688 687 696
3 696 687 695
3 688 696 697
3 689 688 697
3 689 697 698
3 690 689 698
3 690 698 699
3 691 690 699
3 691 699 700
3 692 691 700
3 692 700 701
3 693 692 701
3 610 609 694
3 701 610 694
3 701 694 693
3 609 604 694
3 607 612 695
3 695 612 696
3 696 612 614
3 614 616 697
3 696 614 697
3 616 618 698
3 697 616 698
3 618 620 699
3 698 618 699
3 620 622 700
3 699 620 700
3 622 624 701
3 700 622 701
3 624 610 701
