OFF
702 1400 0
-0.251164045806337 -0.351612654900002 2.12216063959965
-0.296746384686928 -0.337308967088188 2.10526012389281
-0.268516193466208 -0.354855709809232 2.07666760096245
-0.204218352019426 -0.358020146045142 2.12638541345047
-0.222462264987872 -0.365429174300003 2.08119596947382
-0.157357320680593 -0.362394112041621 2.12916352329757
-0.176026272650475 -0.369325418442444 2.0829803677544
-0.11193054427079 -0.366201859195624 2.13318154565004
-0.130657486924838 -0.373006258583458 2.08448094185704
-0.0669900361207893 -0.369839707563422 2.13756754433593
-0.0858528518236401 -0.376442947975074 2.08879860621107
-0.0194429727714269 -0.372850028853349 2.14489174549258
-0.0400147702571882 -0.379736426784687 2.09697919809906
0.0286380296597288 -0.368422786593891 2.15337212591985
0.00733777937689667 -0.381356389938572 2.10577545858472
0.0537919678286697 -0.372526212177698 2.11493620233174
-0.319552732732522 -0.310626653715916 2.13513343684814
-0.349504646184084 -0.292007298165033 2.10879183588199
-0.328109267730103 -0.320122254620057 2.07861758670586
-0.27891632548575 -0.327308911632016 2.15381543018117
-0.232110846397493 -0.336539594449197 2.16517876877717
-0.184355573745181 -0.341575258091666 2.16859799538318
-0.137537829949228 -0.345331828784116 2.17362733405632
-0.0922750766285575 -0.348581070437573 2.17913960840631
-0.0479222249927417 -0.353639162563967 2.18130016500409
0.000749274318395263 -0.35435608622815 2.18839699840116
0.0744572528888684 -0.352151479998942 2.15985293592875
0.0458424452305826 -0.342229032671853 2.19673071660656
0.0917417781270747 -0.321516246993856 2.19547958067694
-0.306701317812196 -0.292068549403224 2.17779091600321
-0.347085520358595 -0.27042622765645 2.15108858436156
-0.260568782873324 -0.306053272173516 2.19444865279882
-0.21054778533125 -0.312356698301276 2.2020357001789
-0.162897525565636 -0.316498716357479 2.20690352882129
-0.115236889985993 -0.31885468401219 2.2138428239263
-0.0704929758785457 -0.321486533413162 2.21986977747482
-0.028166539894135 -0.330335808310755 2.21820696791133
0.0131203277389774 -0.322286535395632 2.2292177862998
0.0586535157443741 -0.308522951310715 2.23129573750293
0.103239095580937 -0.285438885563786 2.2259506697551
-0.325248728292156 -0.256239760984215 2.20057421633292
-0.358659348217465 -0.233599643879502 2.1754297774509
-0.284094924191692 -0.271936194938314 2.22076875904092
-0.234962439862364 -0.28268248817705 2.23125593574657
-0.186160618094598 -0.284796806474518 2.2388995253015
-0.138655496962491 -0.289337629319346 2.24327690158367
-0.0871271416809606 -0.290196521905478 2.25273354361485
-0.0321871795688485 -0.299096554332024 2.25356952802027
0.0182045821893344 -0.291829087841248 2.26317620443369
0.0685307293414408 -0.275753232285932 2.26262868458097
0.113017002077473 -0.248807829242831 2.25612334816382
-0.309453894203877 -0.234420725562314 2.24438745753214
-0.350162051725791 -0.215225486703433 2.21445357401661
-0.260027288756163 -0.251955820111606 2.25818161829181
-0.212572929767487 -0.25437810205139 2.26877134369798
-0.167001195645234 -0.255413378107695 2.27681594527779
-0.122983592053463 -0.262838628349265 2.27714509552887
-0.0895336001400622 -0.251674753581929 2.29685833773234
-0.0545525250807195 -0.269833139009298 2.28292438221484
-0.0122438471000089 -0.266534306468098 2.2938610327711
0.0356001962581214 -0.259613102932438 2.29546807532289
0.0834616534194708 -0.240124767281152 2.29226127646185
-0.312902126968219 -0.196292951728015 2.28682664978699
-0.341007554141573 -0.196774334525241 2.25195330972605
-0.279769715476735 -0.222112137146655 2.28264209627713
-0.232637062089835 -0.224939613113287 2.29878821910487
-0.187879676653802 -0.223852234599853 2.30913402206543
-0.138912564877771 -0.228597944736297 2.3135695236847
-0.0934976252117775 -0.223233120491311 2.32899462860994
-0.045972313091865 -0.235870082494958 2.32399875929387
0.00206127326147544 -0.235512974612265 2.32929424727859
0.0497520492353463 -0.227544593189979 2.32616323426056
0.0969909050149098 -0.204547860102085 2.32025244151155
-0.302435930270417 -0.173787097322192 2.32342767459705
-0.34675225827842 -0.159509724468933 2.28914066787007
-0.263542293069357 -0.197718882144641 2.32016602861929
-0.217585598018999 -0.192144633052217 2.3398291164771
-0.16749434046965 -0.196463088734384 2.34498854344586
-0.12167404653997 -0.196322251646354 2.35444627272473
-0.0700919459321791 -0.200190178753118 2.36042874828126
-0.025085101915546 -0.206381745461974 2.36200048628495
0.0212643278378968 -0.20311154028281 2.36330423496351
0.0651066874293412 -0.194920917112577 2.35464689278836
0.101258629301648 -0.168860716174575 2.35497616764671
-0.297923771350098 -0.136098004307601 2.36143949829199
-0.33178232447163 -0.143235766721181 2.32790747893372
-0.26423071979984 -0.165684648817897 2.35518872003221
-0.229711244704214 -0.15452522446589 2.37358655928725
-0.186894216142094 -0.162783925248724 2.37467295308796
-0.141751368102848 -0.163039461801778 2.38232500908459
-0.0944987134575702 -0.166346770706401 2.38797193451207
-0.0458390441259176 -0.170405316274291 2.39329118609548
0.00247794990721062 -0.173198738199286 2.39474262074837
0.0539892026742432 -0.166617764093447 2.38737448040028
0.101053869751958 -0.134636765238036 2.38133410788908
-0.339465769705819 -0.10507056833296 2.34708421377886
-0.260820336001271 -0.117909021119242 2.38834422252193
-0.304596438740571 -0.0931911781852867 2.37895975265674
-0.211325428898023 -0.118650667422508 2.39747844895889
-0.165234808241806 -0.123345827016238 2.40224444790078
-0.118531584905648 -0.124379281762405 2.40874021577691
-0.0726773380689323 -0.128946454415866 2.41353876868285
-0.0259541000661791 -0.133406616873461 2.41822384396398
0.0207203351194584 -0.13461015708143 2.41601686071314
0.0649832721552916 -0.127443393976313 2.4061327006296
0.0464560507288142 -0.0897271086746141 2.42494791931701
-0.277891674842156 -0.0670415700972031 2.39838177180949
-0.235347945687787 -0.0764040713471513 2.40774989803539
-0.186283517933612 -0.0782768047596625 2.41379633861816
-0.140501806384114 -0.0794255572573223 2.41951562181605
-0.0941871785473717 -0.0808883600839909 2.42522046127342
-0.0495507760055714 -0.0875810163850269 2.42975147813088
-0.00179740404251837 -0.0917812278689127 2.43240311039213
-0.246571494254631 -0.360196367577649 2.03701104236096
-0.270537009189927 -0.344420324133892 2.00243074270715
-0.247121723932196 -0.335344505692443 1.96529459486012
-0.196906223835387 -0.366363069124728 2.03721903325643
-0.218676825583808 -0.355205386922034 1.99675222890551
-0.150830993052009 -0.368887325497118 2.0363564081786
-0.170531956874378 -0.355031921338848 1.99113039978652
-0.105388785882879 -0.371803081445473 2.03867439800764
-0.125207338923417 -0.35646969315505 1.99167872250537
-0.0600166217540399 -0.375637019976445 2.0461139465562
-0.077591776511131 -0.360245777439288 1.99755692611192
-0.0150531134065206 -0.379841385977478 2.05622451699569
-0.0318201377462214 -0.365254430819394 2.00644970796534
0.0310091134209684 -0.37870001130016 2.06477325892296
0.0124478864864315 -0.369865284061841 2.0174582895231
0.0603369335349689 -0.363217869272718 2.02678166050169
-0.2982540818795 -0.340730938477968 2.04602455756663
-0.33695558807764 -0.309604125086882 2.03185226057173
-0.307357107417513 -0.32320260691601 1.99856116914241
0.098394561430667 -0.352330506770496 2.12025398383163
0.074115890670689 -0.367291053641385 2.07465205592883
0.11365388799122 -0.345774541216492 2.07784312204396
-0.37503003074358 -0.25599738745773 2.10124673529009
-0.385524127455934 -0.240773145167811 2.05247160275424
-0.362455790678152 -0.28381079377508 2.06295130454695
0.119368569399217 -0.325920380531388 2.15539443931772
0.139857888536241 -0.321664422549344 2.11119126901336
0.156840536186944 -0.291913993130281 2.14021556406343
-0.377277581696275 -0.229242007319002 2.13432733204026
-0.393323873198686 -0.21060847510086 2.08904743972485
0.133136029426725 -0.29176893777459 2.18563479487152
0.16397413612196 -0.254414526109619 2.17305273917234
-0.381147888740583 -0.192718334505971 2.1703618256905
-0.393960428497516 -0.182918310620117 2.12713092976162
0.140837302589969 -0.253087217768895 2.21594377240402
0.170235066443734 -0.214001186525465 2.1996829011163
-0.375644831437546 -0.175852654916777 2.20919322409841
-0.396349606483182 -0.145170137285223 2.16872444096748
0.149335039101297 -0.213573701478203 2.24374387029107
0.174496494590953 -0.173694751261618 2.22832487307124
-0.367780807928573 -0.160064071592099 2.24907502776688
-0.391811499344386 -0.130037282033495 2.21496461235045
0.126173760952226 -0.209222252382132 2.28333885055708
0.158467776000368 -0.170058162313318 2.27136475204603
-0.381724615233368 -0.120963928221021 2.26358214874962
-0.400230473789034 -0.0850052955921829 2.2344056455393
0.133441432741054 -0.171048457218676 2.31413556388153
0.163417348975282 -0.131697859754896 2.2993817614509
-0.366172368736553 -0.115727979592428 2.30542353126575
-0.390671349744133 -0.0765690238115169 2.28232598627199
0.136765949144981 -0.135503016743283 2.34457294693412
0.160237993549227 -0.0966282132949308 2.33307412119681
-0.369229819725386 -0.0717225119970997 2.32551867170237
-0.337137826302239 -0.0624145771228843 2.36358512512932
-0.357111270330459 -0.0280056654234519 2.34594608801523
0.0936188451889208 -0.089046346843454 2.40412975542
0.116710392266013 -0.0487700207187787 2.39222633362266
0.130365760617934 -0.095152951324623 2.37322646447609
-0.311769284443205 -0.0358691329787932 2.38432751335101
-0.259321499757441 -0.0262197586425774 2.40669398438413
-0.291436690298809 0.00276708500564555 2.3910152277751
-0.20967684603266 -0.0350823541179514 2.41489169253863
-0.162434142265424 -0.0322369551322686 2.42014599652427
-0.115813680463743 -0.0336864129926949 2.42541181605297
-0.0689791311306565 -0.0352009373697648 2.43068379003602
-0.0259633596502202 -0.0460273952839235 2.43591622273753
-0.000690208858740909 -0.00918758098914833 2.43206956590365
0.0247303952332875 -0.0493263212814582 2.43382676633128
0.0734192275203737 -0.0479089276038246 2.41889578512833
-0.258078681441099 0.0320499408148101 2.39484898046778
-0.226336011711034 0.00775610708186556 2.40804723588144
-0.182238934880998 0.0131104811848361 2.41095669786114
-0.136143888091985 0.0131023449373765 2.41528150459904
-0.089446712808856 0.0110346473685001 2.42022526403295
-0.0410295843110856 0.00925442838392557 2.42522568035535
0.0147339350173813 0.0288007076328267 2.41847481517912
-0.335235514165602 -0.291053362270948 1.98336317549391
-0.319084721921949 -0.275936788364892 1.94491241756581
-0.288286204293861 -0.312183686372727 1.95725339749943
-0.239537986115987 -0.311499799539398 1.93024408896919
-0.197432529105423 -0.335912815129164 1.95530736121655
-0.146935130445535 -0.331066291084532 1.94869686711481
-0.0969209526891107 -0.336369197404426 1.9564981284174
-0.0448398196360477 -0.340504806489984 1.9627633653164
0.00050438041193053 -0.346245658939554 1.97121348514757
0.0446493670043614 -0.350033316981036 1.98705990727734
0.0869911760388971 -0.331762459082353 1.98666892348091
0.0998556356233678 -0.346877549238783 2.03414451160958
0.126310948489471 -0.319945644267956 2.01711190802707
-0.365141502053145 -0.270208472249793 2.01745222595701
-0.383003311800612 -0.223481428985874 2.00597496045703
-0.359514647094247 -0.249204983803011 1.97493998317523
0.143024331922243 -0.31850901399109 2.06171822274457
0.158762602638398 -0.288741874548961 2.03127824514441
0.168862622497931 -0.287133704756946 2.08650388641509
-0.397276431066151 -0.191705985333513 2.04349320163552
0.188460106508229 -0.244787494782438 2.08509976560084
-0.400336082896569 -0.161755064351505 2.07702572856097
0.180607417715652 -0.253915044970822 2.12735726689097
-0.401343158435195 -0.140910091430105 2.12043722838262
0.186112349617905 -0.212620782464846 2.15238784288992
-0.403535856487142 -0.101598085274235 2.13717756151114
0.188580450674479 -0.173115159579163 2.17758335137038
-0.403413199956989 -0.0952476201671744 2.18462635122489
0.189119623262029 -0.136604107482571 2.20596602202909
-0.406703080081091 -0.0481667531364886 2.20449997865946
0.181350260078137 -0.125409894057263 2.25177613664917
-0.402814716969691 -0.0387039217719375 2.25517277554181
0.181453119574682 -0.0874766288965519 2.2857338982387
-0.385934335332055 -0.0316480995834631 2.30339013510258
-0.392546464040303 0.00648468803401906 2.2755605310726
0.149892309002337 -0.0528463724784863 2.3581359594969
0.174133066462082 -0.055229101635632 2.31695752249959
-0.368742673037188 0.0110716618812399 2.32182467415128
-0.333845315276596 0.00566896806882696 2.36285712700142
-0.340999514775463 0.0479434086977625 2.33637427632327
0.0491687422634285 -0.00709431479743917 2.42290754736799
0.0955955331062462 -0.00646838667367895 2.40119821741469
0.134430810466548 -0.00747270376607976 2.36904490773239
-0.304141766028849 0.0434618754889626 2.36959749826862
-0.263697172120355 0.0701943654629146 2.37352290479146
-0.211128479288249 0.0540387603731848 2.39259370593112
-0.162090432391712 0.0561943120663193 2.39511591735591
-0.114735711372699 0.0551156653015271 2.3991601246167
-0.067353768956909 0.0519074267782502 2.40440137069797
-0.0213616797550756 0.052556846806323 2.40725664537438
0.0322221127326089 0.064178626321911 2.39479962765232
0.0660662854839289 0.0321775294422743 2.40228147704127
-0.307953421577114 -0.24316730418069 1.9104295191097
-0.276400867875998 -0.282575035841616 1.91872299855313
-0.227983173684107 -0.279018130217365 1.89847633491389
-0.190574649218312 -0.307797391778724 1.92092983518166
-0.146966094824539 -0.2954794179565 1.91186841290918
-0.106698876131397 -0.303339909995072 1.92070440621102
-0.05964571032098 -0.312305282641515 1.93090568723488
-0.0034629773051895 -0.31339986373791 1.93455910646895
0.0441438939412857 -0.32327678353871 1.95154480243261
0.0893405066664965 -0.299446744507617 1.95118350069738
0.127396058416934 -0.295748399715013 1.98340167495919
-0.371385758819451 -0.196588299945737 1.96263252981267
-0.343535778404764 -0.233585015713406 1.9404466508734
0.160099013557244 -0.259816156944731 1.99447088317787
0.180411639033554 -0.253240910524145 2.04281173024086
-0.390407116770563 -0.175765947477476 2.00295836496067
0.19687282500096 -0.205805827647477 2.0581435430179
-0.395745613114286 -0.135748890446735 2.03315015787507
0.195980559564265 -0.204538577017931 2.10792252778288
-0.399606717752206 -0.113370366048827 2.08136450380808
0.196623331468476 -0.162685275065423 2.13093985962111
-0.398785682786267 -0.0703602629953248 2.10248907958871
0.196320013567845 -0.124238043525783 2.15882178089976
-0.403607690953902 -0.0560086760900424 2.15384466300017
0.193309274862969 -0.0943384018913666 2.20460230529152
-0.40251296439227 -0.0111871375598475 2.17371158683205
0.190272702042153 -0.073788674708693 2.24445613006683
-0.403859260707965 -0.00195330652079779 2.22529885325093
0.185387695289599 -0.0310587203711952 2.28084657334996
-0.388856382197117 0.0426279516049767 2.2453433515313
0.164207259738898 -0.0125400098342764 2.32891194716451
-0.370031778314613 0.048667129058151 2.29304819246339
-0.337206234339536 0.0853837908145973 2.30613685997399
0.108324559213933 0.0338485849228952 2.37455672101095
0.143528159524768 0.0305106956748248 2.33820098562404
-0.303205119130232 0.0825955555327524 2.34297041333959
-0.259693628787108 0.109021137961394 2.34236565518354
-0.223999404669203 0.0900281250395565 2.36811212643246
-0.179104264878115 0.0939585705415267 2.36732143857068
-0.134984328631691 0.0944144667621833 2.36909468143262
-0.0882405364472794 0.0904742550470818 2.37483135109897
-0.0449323023785295 0.0903120181900339 2.37710415884459
-0.00230938392707275 0.0884040535681835 2.3803401883071
0.0753770418505066 0.0707931578550404 2.37172906624982
-0.304638767573439 -0.207969911560753 1.88244468879766
-0.266080360749482 -0.247071884284144 1.88596111899565
-0.219198397232117 -0.243870020380361 1.86761819212184
-0.179457860882624 -0.270289276644698 1.88830169900761
-0.125643903140692 -0.261003146233773 1.88285146615563
-0.0796985884442431 -0.273519875802088 1.89602793959726
-0.0339895930861596 -0.28532202153602 1.90856983277292
0.00938195232016927 -0.27326098300006 1.90018625856494
0.0470934414226015 -0.290468351782107 1.92177807447458
0.0936442617552988 -0.26428946835597 1.9195438462155
0.130383680227082 -0.263445247023695 1.95224067428333
-0.366499347124228 -0.158359422654548 1.93330223881855
-0.342100047400177 -0.198798314214364 1.91642443764691
0.165944254132412 -0.225360752575059 1.96432930229131
0.186122742315973 -0.218219792180989 2.01083069457451
-0.385639516668664 -0.14266400156743 1.97802318573058
0.203074840062369 -0.171049755025642 2.03038015294961
-0.389144335116046 -0.0978085805476322 2.00076670124132
0.202313421913081 -0.161221720517328 2.08250144349489
-0.393472908916949 -0.0833188838413816 2.04785938491099
0.202718120490814 -0.115804945105833 2.10882684047733
-0.39273553367975 -0.0382537060216203 2.07106344013487
0.200092964452602 -0.0797173695802148 2.15531041050436
-0.397304998525013 -0.0226405967820488 2.12098095738985
0.198228050865517 -0.0494915814589075 2.19135235341479
-0.396352006154841 0.0233043151991946 2.14288583939314
0.194635941295554 -0.0312840631627797 2.23420906304506
-0.397690367701437 0.0339713586492406 2.19496257309837
0.191012337790115 0.0112785948006498 2.25069536977894
-0.382594903387472 0.0781913538093485 2.21478242290067
0.172892343777641 0.0184446479529928 2.29582721876838
-0.363957136631721 0.0843271867488667 2.26243746820016
-0.330176512652522 0.121591238164456 2.27576304022061
0.115066200094766 0.0713955603530696 2.34237476935665
0.151013546327351 0.0649328109026066 2.3064971434963
-0.296899076796417 0.118589441756349 2.312096475761
-0.248290690020653 0.1435622530103 2.31452046134929
-0.208010891803494 0.124671615929998 2.3391145965503
-0.157053602664241 0.131409568122937 2.33574644084959
-0.104359397313206 0.124775193689017 2.34412541640114
-0.0559774779909937 0.126288003868302 2.34518734910165
-0.00988474662494875 0.124128130576058 2.34933905665145
0.0379659317404397 0.103200672853077 2.36176982827774
0.0792789554487363 0.108899804637462 2.34037433157909
-0.299105836582077 -0.173398118723526 1.85304234160114
-0.261166218093566 -0.211520150904035 1.85591731523137
-0.213232273017163 -0.210249513014373 1.83857345586369
-0.168327014352814 -0.237083577587199 1.85989068546299
-0.121113814725345 -0.222076982294295 1.84912815933518
-0.0790415438195786 -0.23668329791271 1.86393683249948
-0.0343889116392122 -0.250344016896314 1.87804690656789
0.0119483024274935 -0.235871020284805 1.86770573034758
0.0551441166851417 -0.253441857925714 1.89030197543865
0.10061552599603 -0.22822633231061 1.88885418635326
0.136481991290551 -0.229512866791957 1.92312703263578
-0.360035401672675 -0.122138551748731 1.90177836773609
-0.336743205535633 -0.165173671633617 1.88809882579906
0.172275991821754 -0.190686403502126 1.93492247427125
0.192692019843921 -0.1825950441226 1.9814173401834
-0.379255710517624 -0.109511419582262 1.94733577432553
0.209183336144704 -0.136499681854998 2.00181353662014
-0.3828383314104 -0.0648815449562476 1.96765600681448
0.208248520780635 -0.125444924333943 2.05448544868327
-0.387179902974998 -0.045456960165724 2.01810294996335
0.209601506617617 -0.0802933206412753 2.07239591956779
-0.387243566748895 -0.00124570481441345 2.04768900134208
0.205564295537493 -0.0657623413852996 2.11698309859446
-0.391184553779819 0.0135785604073515 2.09164163622165
0.205068722865546 -0.0236844016515251 2.14892596226521
-0.38999906208473 0.0578112080007453 2.11040549470863
0.20117984069757 -0.000953243755587661 2.19761028588374
-0.391727629917733 0.068317288671441 2.16370719700028
0.198157347665908 0.0439773340056778 2.21742589435061
-0.376439163557611 0.112974499298243 2.18503290829883
0.178423033817152 0.0567867577422718 2.26519862972818
-0.357248978149698 0.119991383362275 2.23265447899995
-0.321861705759482 0.157154390110566 2.24769084173191
0.120496911003678 0.107573180278574 2.31195196127538
0.156427969014141 0.101649313909896 2.27618049434299
-0.287092271638211 0.153873268816311 2.28432504759117
-0.238732562934161 0.178208038730767 2.28577425091366
-0.197311283542671 0.158448565982436 2.31018477971334
-0.1524520811754 0.172711834498349 2.29995483991805
-0.115270647167808 0.156336052390507 2.31606503825624
-0.0675832116406637 0.159627095528056 2.3155418987803
-0.0172030989821197 0.160195227975713 2.31752590055307
0.0329188298584643 0.13969139092463 2.33297889202663
0.0806034996059271 0.144154352654801 2.312509025572
-0.292864915934343 -0.138758175804785 1.82298120823835
-0.255566236805581 -0.1763242611829 1.8258104665535
-0.209290144130052 -0.17561406976274 1.80907433423948
-0.164982856152249 -0.202575967127586 1.82996283917735
-0.115291154978312 -0.185282817093293 1.81732701528923
-0.0732351556422071 -0.199063204158806 1.83141423279895
-0.0312609802161387 -0.214290029968779 1.84675952256664
0.0150079409761795 -0.198804394415487 1.83553159696973
0.0585480568634118 -0.218297147026632 1.85909933381838
0.103840034868007 -0.194273241342406 1.85770020011973
0.14271070405083 -0.195083703512406 1.89363733248098
-0.355030963218561 -0.085296985859313 1.87299197908495
-0.330551667060998 -0.131097497218849 1.85837674033099
0.178249082513184 -0.15615280064699 1.90495101200402
0.198888148505869 -0.147545507609794 1.95138906660929
-0.373306287416824 -0.0724912522121516 1.91727657519021
0.215097368561526 -0.102353475170287 1.97088018905448
-0.375959022898429 -0.0247562489542135 1.93429741390131
0.21470594875149 -0.089955086303219 2.02173653782269
-0.38060383976144 -0.0187390455158025 1.97857117540957
0.215476157806999 -0.0420953143072484 2.04648828466013
-0.381934520940067 0.0112098463678477 2.00978877979463
0.210956372451978 -0.0282494763304935 2.09482207995975
-0.384269217252605 0.0494274500378095 2.05516091190074
0.211602326161113 0.0153840038986561 2.11787334083412
-0.384054154223256 0.0916415249859931 2.08102031199359
0.207202183223351 0.0291212845703572 2.16509259452235
-0.385753959379311 0.102423856759751 2.13427115136681
0.204740683818464 0.0765893256916669 2.18602075673946
-0.369420410076249 0.148338710070156 2.15805430249631
0.185393245812774 0.0907655393879109 2.23372963063996
-0.349914276003242 0.155311548507192 2.2046246727295
-0.314776670163067 0.192062326630428 2.21874514836445
0.125246623250079 0.142947678131433 2.28269155792487
0.162756032803554 0.136280103542687 2.24592180772102
-0.27905936977058 0.188669658913436 2.25565812998928
-0.232541046721668 0.213576519899557 2.25523497926544
-0.190529627730992 0.1958076634254 2.27793925395086
-0.139973818166651 0.209175492672059 2.26876941035752
-0.100482263005313 0.191342163558434 2.28626500502201
-0.0522126672551493 0.194403171833699 2.28597083593033
-0.0041363917679394 0.195504758860767 2.28737604456243
0.0361965035548529 0.172850925331671 2.30483445168669
0.087722499648419 0.177117223357218 2.28334917482734
-0.294111336653952 -0.102083443386026 1.79846680462737
-0.249164205732502 -0.140256165839592 1.79462432204275
-0.20129801335232 -0.141891943220731 1.77958264725625
-0.159895931706086 -0.169683922996108 1.80152890328145
-0.110101645696138 -0.150112337260658 1.7869604531731
-0.0664742630618895 -0.161183216640608 1.79871337043817
-0.0265959530230979 -0.175954598165912 1.81355704303911
0.0168987954501918 -0.161280314342572 1.80291161559268
0.0613190942282017 -0.183480375327287 1.8280783069276
0.107932898882676 -0.159884306164274 1.82675319497429
0.145053519608053 -0.163343597634861 1.86246617396631
-0.349658477417989 -0.0478437784214619 1.84408292109372
-0.32780784849556 -0.0949157784902849 1.83202656686805
0.178793500276865 -0.127157299179935 1.87115812562282
0.204795612915524 -0.112493718718322 1.92017888023118
-0.367192767492974 -0.0341912562602681 1.88637959324656
0.222043033956331 -0.064413097152607 1.95123098639639
-0.369709586905664 0.0134683815675658 1.90906824528152
0.220500917784646 -0.0517183820871836 1.99655177650557
-0.374881051328102 0.0266857434826299 1.95872930929281
0.221594268750355 -0.00497229295109927 2.01648829252887
-0.378377811238814 0.0528310056605955 2.00625616019599
0.21715807404814 0.00785869594173628 2.06470373268652
-0.377489760573604 0.0952638180144523 2.02641257207306
0.217954490563515 0.0519001893092073 2.08625035698586
-0.378699563267269 0.129934942806973 2.05977084872315
0.213469839691255 0.065891669689163 2.13483593564179
-0.379326218690243 0.13783191088477 2.10946612639779
0.210677605449777 0.111590446705234 2.15644203811716
-0.363096868524434 0.18333863694601 2.12864209696991
0.191779018647509 0.124670253705958 2.20350571905799
-0.343020081473483 0.1907073308433 2.17552220198215
-0.308680846106969 0.226902049978369 2.18865580579742
0.131994633427416 0.177670153765922 2.25212064268736
0.169063252779317 0.17097433936308 2.21558604245927
-0.273249433142669 0.223381091710967 2.22549786554213
-0.227001954739331 0.248487664908286 2.22485114332936
-0.183334199685002 0.231270061678178 2.24736746135709
-0.134708604077127 0.24330122342939 2.23924197406735
-0.0870815353978321 0.228212292705695 2.25477093422678
-0.037072507162072 0.229043987748275 2.25650660334015
0.00943899256797537 0.22936512451816 2.25851540722227
0.048548519354639 0.205682746310461 2.27512761917465
0.0947522005598112 0.211875487499384 2.25284002942928
-0.256821337626906 -0.10234707978243 1.77291088510931
-0.215303872768306 -0.105870370970557 1.75922066305419
-0.168898056548469 -0.103091061716412 1.75298393377991
-0.153983489399835 -0.13701222089514 1.77419872580671
-0.116747803512234 -0.109144630408548 1.75975617302157
-0.069988060208688 -0.121101511713304 1.76955580223142
-0.0231097570977673 -0.132325462395548 1.77943375943537
0.0247955804496145 -0.121526595340434 1.77689888097726
0.0642877728580725 -0.149444191018763 1.79918636675549
0.108702259434744 -0.123272589677054 1.79935358619606
0.149107856798087 -0.127530486468717 1.83207702224154
-0.337358531630666 -0.0105636847787975 1.81928572736897
-0.320684677903609 -0.057180175872405 1.80427580578329
0.197828088075256 -0.0898017813389933 1.87444558363479
0.215563216778968 -0.0674117436204947 1.90809533177392
-0.357551942023412 0.00527989097198784 1.85892688049472
0.221029658579328 -0.0241590721729865 1.91936970837297
-0.354648197594693 0.0493690353544491 1.88064815142704
0.223901484423497 -0.0130182556594725 1.96487382652433
-0.364310400495331 0.0623433101151352 1.92572120197325
0.220391093822621 0.0303111726491707 1.9843089899987
-0.371221084010952 0.0790669082464056 1.97177344879021
0.220631624974691 0.0449448430359859 2.03212610275946
-0.365218759572354 0.124450559065717 1.98725170963065
0.217517442249584 0.0871335761318156 2.05477922331102
-0.368241819925068 0.151219580604446 2.02347791285377
0.217389937573125 0.101988140896065 2.10229764341546
-0.372149243919294 0.171960801575605 2.07835779950047
0.211447878769997 0.143315469842779 2.12505482538754
-0.354378719069993 0.212881545808564 2.09382878744569
0.196014129741375 0.159364761567337 2.17341130355811
-0.336912403255554 0.224135401327061 2.1434016212041
-0.301361473736928 0.256670914578883 2.15566262282722
0.137006869457191 0.212417183293926 2.22015760381491
0.168889276364147 0.204935711727829 2.18306835568254
-0.265919858037125 0.257384862181038 2.19463554488099
-0.217326866438684 0.280063580731857 2.18945126774657
-0.180044098288942 0.265842180692457 2.21440932770747
-0.138242916331107 0.274568157271245 2.20382431865342
-0.0941085073332028 0.264646127391747 2.21780823997313
-0.0494477931407508 0.260306224185268 2.22417169013625
0.000624598027154075 0.259712553667273 2.22581331586838
0.0525685689899727 0.241801557812951 2.24252355037064
0.097920603265676 0.243031315839753 2.21991277392994
-0.282222068201992 -0.0616756855387455 1.77176742958913
-0.236846863983489 -0.062499645059644 1.74941034861157
-0.189181614061247 -0.0638408763480426 1.73975994999383
-0.13731867838222 -0.0678278674891232 1.7426894547974
-0.086802454300884 -0.0744539964737379 1.74924278290176
-0.0406642363225857 -0.0844375797030412 1.75642356981481
0.00344870867355306 -0.0840160972889454 1.76039596019621
0.0504779194843163 -0.0737721961700978 1.76251756439682
0.0709559686249345 -0.10892761298703 1.7775787693228
0.102950202863634 -0.0733114548112041 1.7770386274213
0.139478489290722 -0.0908499002688667 1.8034846403463
-0.302204336049918 -0.0198826949031327 1.78065249286326
-0.277058557798294 0.0220418194250964 1.76723140347147
-0.259692847258132 -0.0209971911786667 1.75325963673693
0.149659768122915 -0.0498126054371499 1.80132213757499
0.175850623002574 -0.0837997434929597 1.8360290080108
0.179130052732198 -0.0363109024988022 1.82949007700642
-0.334333178097743 0.0434852419077343 1.83169753743176
-0.314547988609944 0.021540940162992 1.79740828303818
0.203323833132433 -0.0426978250736968 1.86715571913512
0.208601833394947 -0.000726998025379351 1.88462281918376
-0.331108583751018 0.080917482245266 1.85848529737193
0.214450863802152 0.0247410385363038 1.92820490281899
-0.340978076989799 0.100427363195687 1.89810382791649
0.209422364358426 0.0617204259195815 1.95617715635892
-0.353446416206193 0.110692818053865 1.93791716300336
0.212028270480753 0.0821780918453458 1.99862593202031
-0.342449395563061 0.14990027733292 1.95207955573396
0.207138075295508 0.119031446326002 2.02627813456502
-0.346303540596745 0.177846307625358 1.98891470447743
0.20954177340274 0.139307851477772 2.06850986541435
-0.359773048048757 0.192487730869888 2.04174148502835
0.201980141986939 0.174696636600373 2.09545619894747
-0.325986659702057 0.249761629861171 2.10612714843894
-0.337936190205065 0.23473225635175 2.05740820795711
-0.307068387719646 0.267700206893652 2.06398898122382
0.192531567066267 0.189493224226261 2.13991887263673
0.179144079981283 0.215894129216117 2.09673665052779
0.165915293533819 0.228033685942364 2.14216535765905
-0.258198857039767 0.282911554562421 2.15812457634186
-0.292025745564287 0.276942973805225 2.11678188603881
-0.250205094055896 0.298796044865916 2.11592741039253
0.133231164397733 0.243846866581097 2.18157195500901
0.100821797077138 0.276372061217585 2.14613267385466
0.0885331584554479 0.268817395870664 2.18489655690734
-0.211015715161772 0.300472791300286 2.14970159303679
-0.167023354376893 0.294646363111009 2.16934617651744
-0.114107918518362 0.292335906573363 2.17167986918985
-0.0696309832660577 0.287360728670735 2.18038547143206
-0.0258121427896587 0.284079896084738 2.18535719817903
0.016927158652802 0.283299666137637 2.18473985917969
0.0501434873054585 0.268572364850329 2.20777228320826
-0.210871232918534 -0.0211153322443752 1.73724035779048
-0.159585677608098 -0.0249597691656681 1.73429516539296
-0.108812514915148 -0.0290462113254299 1.73997387850688
-0.0609355476249747 -0.0339133801904148 1.74554554022807
-0.0161024100687377 -0.0375025003508555 1.7507197940233
0.0279772359876732 -0.0333614493139589 1.75556915272847
0.0765725642128483 -0.0320186820169203 1.76334715065039
-0.232852536177303 0.0200814079756864 1.74642936656656
-0.205653336729822 0.0575315291786205 1.75108948215544
-0.18145652738682 0.0183456238107508 1.73707027928513
-0.130656718917906 0.0150072287564717 1.7401956045455
-0.082982791675872 0.0138781575062923 1.74613225936394
-0.0357100439038231 0.0104260185654691 1.75160138285985
0.00906677772472961 0.0118652854486492 1.75772343265414
0.0560052061926687 0.0110718001527718 1.7638234692971
0.104162914855184 0.0121192098668513 1.77846690165659
0.151282257898794 0.00285428620641235 1.8057505319265
0.120099595251739 -0.0283294493587013 1.7807758108781
-0.295093598514543 0.0614508915410018 1.79593165579313
-0.263151780182113 0.0999283230869157 1.79887820534262
-0.252539476889353 0.0624826827629634 1.76829187170239
0.127196039440657 0.0453105158688497 1.8033901316983
0.18520637194122 0.00536910822645084 1.84335839535483
0.163291052644542 0.0455979747357192 1.83528047702743
-0.302935135832168 0.091838944705013 1.82745015003695
-0.269672443864368 0.130158122206086 1.83543880128084
0.193664180362918 0.0408191110485955 1.87855792085748
0.165734051570157 0.0799227045398287 1.8699816839967
-0.307553131738028 0.123768866058237 1.86759019966559
-0.276694323424259 0.159781247124358 1.873867620187
0.192611725034883 0.0706274246143014 1.9121977339686
0.163775478715137 0.111499945349018 1.90591031065081
-0.318662365573572 0.147437550952426 1.90819921444023
-0.281556139111903 0.187247392029836 1.90828082428442
0.191180216413691 0.102538515367323 1.94974723091623
0.16271824122256 0.142102266242485 1.94206604019424
-0.315553951891377 0.184970858121492 1.94382868403119
-0.279643339915604 0.220402069330435 1.94297616729076
0.19046730190296 0.130267210985481 1.98378400022848
0.162024283079743 0.172052603340551 1.97801332011648
-0.31280044423147 0.219115336366933 1.97675176594819
-0.279067864326292 0.25521069740113 1.98240745005816
0.189381728808028 0.161623554692686 2.02157382055581
0.160782202301626 0.202211396746179 2.013344744906
-0.336335521298042 0.217632022761915 2.01314256338682
-0.307135901405223 0.254379438233381 2.01860507519755
0.187649112973821 0.189796138909819 2.05509155506904
0.157531149292613 0.229709132328108 2.05043264424256
-0.273895772216707 0.290711355292005 2.07550209075527
-0.268844262084831 0.284171118705298 2.02718866924761
-0.236352032425215 0.304700350406814 2.06169804192362
0.135361650250653 0.257857616981094 2.13515017380386
0.14905041749637 0.248674164655064 2.09298597420671
0.109074552012499 0.276102543398903 2.09409986975838
-0.211822855008263 0.310702136080311 2.10178124558772
-0.186268028933324 0.312977670600547 2.06602185686354
-0.171287196704175 0.310381874261161 2.12033799366547
-0.142335988228983 0.311402129277929 2.0793988137332
-0.128815722955682 0.306353769384611 2.12942592801463
-0.0982142166130867 0.308063070656612 2.08447431163963
-0.0820166820354019 0.303349291317699 2.13211681401879
-0.0533526288616431 0.304590571069035 2.08779564119777
-0.0377148957663117 0.299835064167132 2.13805583303729
-0.00977417348051278 0.301221610578605 2.09139344855903
0.00680895472233423 0.297070585698272 2.13996742019458
0.0344463802636258 0.297998922485355 2.09919084543333
0.0525295041463498 0.289931644223634 2.15469064015449
0.072208726839825 0.291151457296841 2.11153503218464
-0.174933697210275 0.0903477070604506 1.76523185596669
-0.152367043861688 0.0564852116991841 1.74904996233359
-0.106649035624786 0.0588036557848097 1.75664211491849
-0.0579018800930925 0.0546537458520254 1.76205634396043
-0.0130044343675609 0.0563783234245673 1.76953611892491
0.0323915247836509 0.0555527860181269 1.77600953214609
0.0784326940604305 0.0514842699822845 1.78311017140555
-0.219990099438368 0.0981540198426735 1.77726338687536
-0.177457537957327 0.124745033690071 1.79311053559142
-0.131397223621456 0.100178290320825 1.77678716999145
-0.0804334240425044 0.0933133204661177 1.78044944133182
-0.0361308637805014 0.0964419683966552 1.79042310557112
0.00839849323669295 0.0963362923819294 1.79816675078608
0.053598279731922 0.09346824321217 1.80383911720103
0.0970592489267664 0.0836438162236523 1.81062024645744
0.131710591320202 0.085697515307312 1.83573907651393
-0.224984659514623 0.131492807729969 1.81038197429769
-0.185168203010832 0.155914708651674 1.82861285787069
-0.139254328492917 0.140276355831874 1.81460134814344
-0.100027803197831 0.124836542727547 1.80482926778267
-0.0572525030930239 0.129791064100175 1.8190903278033
-0.0135445758586273 0.130325732814429 1.82857578062531
0.0345861164926288 0.126667121989394 1.83410134400108
0.0844575350529741 0.118905703288121 1.83987043929605
0.129263404219538 0.116166628157726 1.86858037689018
-0.231882531716526 0.161449743260587 1.84692459261796
-0.186905408109509 0.185900922485754 1.86300054212453
-0.140845673698327 0.171829285221823 1.85082135394618
-0.0942167037053545 0.156004506105823 1.84195195163687
-0.0472946893729629 0.162337441683026 1.85880362285862
0.00291753805456779 0.158447332635212 1.86448330404351
0.0507383126265431 0.154381207385273 1.86948696708054
0.0928696171528489 0.146481470997213 1.87680080635351
0.128058821294401 0.148439911141388 1.90619009440351
-0.235413046013617 0.190581359868419 1.88117732984599
-0.189477221318865 0.214419017294617 1.89578220245907
-0.140514331400829 0.203635376779086 1.8877242731279
-0.0979241023046632 0.186597553488706 1.87663038597948
-0.060080644977123 0.194776322303199 1.89377855740321
-0.0153482699349517 0.18907373162807 1.89624742651243
0.0326781884195125 0.185520149316761 1.90187308626784
0.0817588870782795 0.179142010136066 1.90928642996411
0.126978488380812 0.177416958519746 1.93996373713017
-0.238678811836086 0.218913992147734 1.91444030028938
-0.19586217483323 0.242578766736324 1.92857645692535
-0.145851234979543 0.23367102667697 1.9214263066482
-0.0965957829805519 0.222050843697533 1.91796036883868
-0.0450415798319721 0.222131540551831 1.92851038252268
0.00314647979237404 0.217594548336763 1.93303052204275
0.0495713369799118 0.214203947013278 1.93858476121494
0.0910995720184478 0.206933309618797 1.94708456071035
0.126135733191273 0.209152912589488 1.97729805615401
-0.243364851470744 0.249370442926999 1.95080060237108
-0.205582879431944 0.271120030071317 1.9631967863771
-0.158601227276022 0.265162616856089 1.95538227433328
-0.111969556788399 0.255512378425907 1.95359501280389
-0.0672968506594185 0.251207234874223 1.95766961108017
-0.0183044677049187 0.249017789558518 1.96507190752446
0.030523001816476 0.245476688544536 1.97087412414797
0.0796427455347593 0.239722128161861 1.97940162670454
0.12452072575491 0.237561102600425 2.01085244001489
-0.239185157867137 0.281507339613174 1.99209778704222
-0.182685935538347 0.29184535773814 1.99304503489248
-0.133935538447299 0.285991666789382 1.99100416381827
-0.0892771205214942 0.281402268646808 1.99398775880638
-0.0443868373612724 0.277434965310693 1.99816091277363
0.00200633085480655 0.274481711743162 2.00448027399455
0.0470985202157694 0.271591467458869 2.01076066280514
0.0878244414260033 0.264654719471767 2.02025866738196
0.119740982241717 0.262027816406874 2.0533919270412
-0.214285934730989 0.301821898185368 2.02460763067816
-0.160134273341183 0.3053625860982 2.03037609016296
-0.114344264659399 0.301984266730812 2.03595897420026
-0.0692578934850158 0.298149346895158 2.03966461870289
-0.0234787482226853 0.294269149589533 2.0435157933185
0.0236855614799742 0.291140365632969 2.05045585486179
0.0706480896275294 0.285828260091309 2.06014770946782
3 0 1 2
3 0 2 4
3 3 0 4
3 3 4 6
3 5 3 6
3 5 6 8
3 7 5 8
3 7 8 10
3 9 7 10
3 9 10 12
3 11 9 12
3 13 11 14
3 14 11 12
3 13 14 15
3 16 17 18
3 16 18 1
3 0 19 1
3 19 16 1
3 0 3 20
3 19 0 20
3 3 5 21
3 20 3 21
3 5 7 22
3 21 5 22
3 7 9 23
3 22 7 23
3 9 11 24
3 23 9 24
3 24 11 25
3 25 11 13
3 13 15 26
3 27 13 26
3 25 13 27
3 27 26 28
3 17 16 30
3 30 16 29
3 29 19 31
3 29 16 19
3 31 20 32
3 31 19 20
3 32 21 33
3 32 20 21
3 21 22 33
3 33 22 34
3 22 23 34
3 34 23 35
3 23 24 35
3 35 24 36
3 24 25 36
3 36 25 37
3 37 27 38
3 37 25 27
3 38 28 39
3 38 27 28
3 30 40 41
3 30 29 40
3 29 31 42
3 40 29 42
3 31 32 43
3 42 31 43
3 32 33 44
3 43 32 44
3 33 34 45
3 44 33 45
3 34 35 46
3 45 34 46
3 35 36 47
3 46 35 47
3 36 37 47
3 47 37 48
3 37 38 48
3 48 38 49
3 49 39 50
3 49 38 39
3 40 51 52
3 41 40 52
3 51 42 53
3 51 40 42
3 42 43 53
3 53 43 54
3 43 44 54
3 54 44 55
3 44 45 55
3 55 45 56
3 45 46 56
3 56 46 57
3 46 47 58
3 57 46 58
3 47 48 59
3 58 47 59
3 48 49 60
3 59 48 60
3 49 50 61
3 60 49 61
3 51 62 63
3 52 51 63
3 51 53 64
3 62 51 64
3 53 54 65
3 64 53 65
3 54 55 66
3 65 54 66
3 55 56 67
3 66 55 67
3 56 57 67
3 67 57 68
3 57 58 69
3 68 57 69
3 58 59 69
3 69 59 70
3 59 60 70
3 70 60 71
3 71 61 72
3 71 60 61
3 62 73 74
3 63 62 74
3 62 64 75
3 73 62 75
3 64 65 75
3 75 65 76
3 65 66 76
3 76 66 77
3 66 67 77
3 77 67 78
3 67 68 78
3 78 68 79
3 79 69 80
3 79 68 69
3 80 70 81
3 80 69 70
3 81 71 82
3 81 70 71
3 82 72 83
3 82 71 72
3 74 73 85
3 85 73 84
3 84 73 86
3 86 73 75
3 75 76 86
3 86 76 87
3 76 77 88
3 87 76 88
3 77 78 89
3 88 77 89
3 78 79 90
3 89 78 90
3 79 80 91
3 90 79 91
3 80 81 92
3 91 80 92
3 81 82 93
3 92 81 93
3 93 83 94
3 93 82 83
3 84 95 85
3 84 86 96
3 97 84 96
3 95 84 97
3 96 87 98
3 96 86 87
3 87 88 98
3 98 88 99
3 88 89 99
3 99 89 100
3 89 90 100
3 100 90 101
3 101 91 102
3 101 90 91
3 102 92 103
3 102 91 92
3 92 93 103
3 105 103 104
3 103 93 104
3 93 94 104
3 96 106 97
3 96 98 107
3 106 96 107
3 98 99 108
3 107 98 108
3 99 100 109
3 108 99 109
3 100 101 110
3 109 100 110
3 101 102 111
3 110 101 111
3 111 102 112
3 112 102 103
3 103 105 112
3 117 114 115
3 116 113 117
3 117 113 114
3 116 117 119
3 118 116 119
3 118 119 121
3 120 118 121
3 120 121 123
3 122 120 123
3 122 123 125
3 124 122 125
3 124 125 127
3 126 124 127
3 126 127 128
3 129 130 131
3 114 129 131
3 114 113 129
3 113 2 129
3 129 2 1
3 4 113 116
3 4 2 113
3 6 116 118
3 6 4 116
3 8 118 120
3 8 6 118
3 10 120 122
3 10 8 120
3 12 122 124
3 12 10 122
3 14 124 126
3 14 12 124
3 133 126 128
3 15 14 126
3 15 126 133
3 132 15 133
3 132 133 134
3 135 136 137
3 137 17 135
3 137 18 17
3 18 137 130
3 129 18 130
3 18 129 1
3 15 132 26
3 139 132 134
3 139 138 132
3 138 28 26
3 132 138 26
3 138 139 140
3 136 135 142
3 142 135 141
3 17 30 135
3 135 30 141
3 143 39 28
3 138 143 28
3 143 140 144
3 143 138 140
3 141 145 146
3 142 141 146
3 41 145 141
3 30 41 141
3 147 39 143
3 147 50 39
3 147 144 148
3 147 143 144
3 145 149 150
3 146 145 150
3 52 149 145
3 41 52 145
3 151 50 147
3 151 155 50
3 151 148 152
3 151 147 148
3 149 153 154
3 150 149 154
3 63 153 149
3 52 63 149
3 155 61 50
3 155 72 61
3 155 151 156
3 156 151 152
3 154 157 158
3 154 153 157
3 74 157 153
3 63 74 153
3 159 72 155
3 159 83 72
3 159 156 160
3 159 155 156
3 158 157 162
3 162 157 161
3 74 85 161
3 157 74 161
3 163 83 159
3 163 94 83
3 163 160 164
3 163 159 160
3 161 165 162
3 165 95 166
3 165 161 95
3 161 85 95
3 165 166 167
3 95 97 166
3 105 104 168
3 170 94 163
3 170 168 94
3 169 168 170
3 94 168 104
3 163 164 170
3 166 171 167
3 173 171 172
3 172 171 106
3 171 97 106
3 171 166 97
3 172 107 174
3 172 106 107
3 174 108 175
3 174 107 108
3 175 109 176
3 175 108 109
3 176 110 177
3 176 109 110
3 177 111 178
3 177 110 111
3 178 112 180
3 178 111 112
3 181 105 168
3 181 180 105
3 179 178 180
3 180 112 105
3 168 169 181
3 172 182 173
3 182 172 183
3 183 172 174
3 174 175 184
3 183 174 184
3 175 176 185
3 184 175 185
3 176 177 186
3 185 176 186
3 177 178 187
3 186 177 187
3 187 179 188
3 187 178 179
3 179 180 229
3 189 190 191
3 114 131 191
3 115 114 191
3 115 191 192
3 115 192 193
3 117 115 193
3 119 193 194
3 119 117 193
3 119 194 121
3 121 194 195
3 121 195 123
3 123 195 196
3 123 196 125
3 125 196 197
3 127 197 198
3 127 125 197
3 128 198 199
3 200 128 199
3 128 127 198
3 200 199 201
3 202 203 204
3 131 130 189
3 190 189 204
3 189 130 202
3 189 202 204
3 131 189 191
3 128 200 133
3 134 200 205
3 206 205 201
3 134 133 200
3 205 200 201
3 205 206 207
3 136 208 203
3 202 137 136
3 202 136 203
3 137 202 130
3 134 205 139
3 139 205 207
3 140 139 207
3 211 207 209
3 136 142 208
3 208 142 210
3 211 140 207
3 211 144 140
3 146 212 210
3 142 146 210
3 148 144 213
3 213 144 211
3 150 214 212
3 146 150 212
3 215 148 213
3 215 152 148
3 154 216 150
3 150 216 214
3 219 152 217
3 217 152 215
3 158 218 216
3 154 158 216
3 219 156 152
3 219 160 156
3 158 220 218
3 158 162 220
3 221 160 219
3 221 164 160
3 162 165 222
3 223 220 222
3 220 162 222
3 165 167 222
3 169 170 224
3 225 164 221
3 224 170 164
3 224 164 225
3 222 226 223
3 167 171 227
3 226 167 227
3 226 227 228
3 226 222 167
3 171 173 227
3 180 181 229
3 181 169 230
3 231 169 224
3 230 169 231
3 230 229 181
3 224 225 271
3 227 232 228
3 232 182 233
3 232 173 182
3 227 173 232
3 182 183 234
3 233 182 234
3 183 184 234
3 234 184 235
3 184 185 235
3 235 185 236
3 185 186 236
3 236 186 237
3 186 187 237
3 237 187 238
3 238 188 239
3 238 187 188
3 188 179 229
3 240 239 188
3 240 188 229
3 229 230 240
3 191 190 242
3 242 190 241
3 192 242 243
3 192 191 242
3 192 243 244
3 193 192 244
3 194 244 245
3 194 193 244
3 194 245 246
3 195 194 246
3 195 246 247
3 196 195 247
3 196 247 248
3 197 196 248
3 197 248 249
3 198 197 249
3 199 198 249
3 250 199 249
3 201 199 251
3 251 199 250
3 204 252 253
3 204 203 252
3 190 253 241
3 190 204 253
3 206 251 254
3 206 201 251
3 207 206 255
3 255 206 254
3 203 256 252
3 203 208 256
3 257 209 255
3 255 209 207
3 210 258 208
3 208 258 256
3 211 209 259
3 259 209 257
3 212 260 210
3 210 260 258
3 213 211 259
3 261 213 259
3 214 262 260
3 212 214 260
3 215 213 261
3 263 215 261
3 216 264 214
3 214 264 262
3 217 215 263
3 265 217 263
3 218 266 264
3 216 218 264
3 219 217 265
3 267 219 265
3 218 268 266
3 218 220 268
3 221 219 267
3 269 221 267
3 223 270 268
3 220 223 268
3 225 221 269
3 271 225 269
3 223 226 272
3 270 223 272
3 272 228 273
3 272 226 228
3 274 231 275
3 274 230 231
3 275 231 271
3 271 231 224
3 273 228 276
3 276 228 232
3 276 233 277
3 276 232 233
3 233 234 278
3 277 233 278
3 234 235 279
3 278 234 279
3 235 236 280
3 279 235 280
3 236 237 281
3 280 236 281
3 237 238 282
3 281 237 282
3 238 239 283
3 282 238 283
3 327 239 284
3 284 239 240
3 240 230 274
3 284 240 274
3 241 285 286
3 242 241 286
3 242 286 243
3 243 286 287
3 243 287 288
3 244 243 288
3 245 288 289
3 245 244 288
3 245 289 246
3 246 289 290
3 246 290 247
3 247 290 291
3 247 291 248
3 248 291 292
3 248 292 293
3 249 248 293
3 249 293 250
3 250 293 294
3 250 294 295
3 251 250 295
3 252 296 297
3 253 252 297
3 241 297 285
3 241 253 297
3 254 295 298
3 254 251 295
3 254 298 299
3 255 254 299
3 256 300 252
3 252 300 296
3 257 255 299
3 301 257 299
3 258 302 300
3 256 258 300
3 259 257 303
3 303 257 301
3 260 304 258
3 258 304 302
3 261 259 303
3 305 261 303
3 262 306 304
3 260 262 304
3 263 261 305
3 307 263 305
3 264 308 262
3 262 308 306
3 265 263 307
3 309 265 307
3 266 310 308
3 264 266 308
3 267 265 309
3 311 267 309
3 266 312 310
3 266 268 312
3 269 267 311
3 313 269 311
3 270 314 312
3 268 270 312
3 271 269 315
3 315 269 313
3 270 272 316
3 314 270 316
3 316 273 317
3 316 272 273
3 318 275 319
3 318 274 275
3 275 271 315
3 319 275 315
3 273 276 320
3 317 273 320
3 276 277 320
3 320 277 321
3 277 278 322
3 321 277 322
3 322 279 323
3 322 278 279
3 279 280 323
3 323 280 324
3 280 281 324
3 324 281 325
3 281 282 325
3 325 282 326
3 282 283 326
3 326 283 327
3 283 239 327
3 327 284 328
3 284 274 318
3 328 284 318
3 285 329 330
3 286 285 330
3 286 330 287
3 287 330 331
3 287 331 332
3 288 287 332
3 288 332 289
3 289 332 333
3 289 333 334
3 290 289 334
3 290 334 335
3 291 290 335
3 291 335 292
3 292 335 336
3 292 336 337
3 293 292 337
3 293 337 294
3 294 337 338
3 294 338 339
3 295 294 339
3 296 340 341
3 297 296 341
3 285 341 329
3 285 297 341
3 298 339 342
3 298 295 339
3 298 342 343
3 299 298 343
3 300 344 296
3 296 344 340
3 301 299 343
3 345 301 343
3 302 346 344
3 300 302 344
3 303 301 347
3 347 301 345
3 304 348 302
3 302 348 346
3 305 303 347
3 349 305 347
3 306 350 348
3 304 306 348
3 307 305 351
3 351 305 349
3 308 352 306
3 306 352 350
3 309 307 353
3 353 307 351
3 310 354 352
3 308 310 352
3 311 309 355
3 355 309 353
3 312 356 310
3 310 356 354
3 313 311 355
3 357 313 355
3 314 358 356
3 312 314 356
3 315 313 359
3 359 313 357
3 314 316 360
3 358 314 360
3 360 317 361
3 360 316 317
3 362 319 363
3 362 318 319
3 319 315 359
3 363 319 359
3 317 320 364
3 361 317 364
3 320 321 364
3 364 321 365
3 321 322 366
3 365 321 366
3 322 323 366
3 366 323 367
3 323 324 368
3 367 323 368
3 324 325 369
3 368 324 369
3 325 326 370
3 369 325 370
3 326 327 371
3 370 326 371
3 327 328 371
3 371 328 372
3 328 318 362
3 372 328 362
3 329 373 374
3 330 329 374
3 330 374 331
3 331 374 375
3 331 375 376
3 332 331 376
3 332 376 333
3 333 376 377
3 333 377 378
3 334 333 378
3 334 378 379
3 335 334 379
3 335 379 336
3 336 379 380
3 336 380 381
3 337 336 381
3 337 381 338
3 338 381 382
3 338 382 383
3 339 338 383
3 340 384 385
3 341 340 385
3 329 385 373
3 329 341 385
3 342 383 386
3 342 339 383
3 342 386 387
3 343 342 387
3 344 388 340
3 340 388 384
3 345 343 387
3 389 345 387
3 346 390 388
3 344 346 388
3 347 345 391
3 391 345 389
3 348 392 346
3 346 392 390
3 349 347 391
3 393 349 391
3 350 394 348
3 348 394 392
3 351 349 395
3 395 349 393
3 352 396 350
3 350 396 394
3 353 351 395
3 397 353 395
3 354 398 396
3 352 354 396
3 355 353 399
3 399 353 397
3 356 400 354
3 354 400 398
3 357 355 399
3 401 357 399
3 358 402 400
3 356 358 400
3 359 357 403
3 403 357 401
3 358 360 404
3 402 358 404
3 404 361 405
3 404 360 361
3 406 363 407
3 406 362 363
3 363 359 403
3 407 363 403
3 361 364 408
3 405 361 408
3 364 365 408
3 408 365 409
3 365 366 410
3 409 365 410
3 366 367 410
3 410 367 411
3 367 368 412
3 411 367 412
3 368 369 412
3 412 369 413
3 369 370 413
3 413 370 414
3 370 371 415
3 414 370 415
3 371 372 415
3 415 372 416
3 372 362 406
3 416 372 406
3 373 417 418
3 374 373 418
3 374 418 375
3 375 418 419
3 375 419 420
3 376 375 420
3 376 420 377
3 377 420 421
3 377 421 422
3 378 377 422
3 378 422 423
3 379 378 423
3 380 423 424
3 380 379 423
3 380 424 425
3 381 380 425
3 382 425 426
3 382 381 425
3 382 426 427
3 383 382 427
3 384 428 429
3 385 384 429
3 373 429 417
3 373 385 429
3 386 427 430
3 386 383 427
3 386 430 431
3 387 386 431
3 384 432 428
3 384 388 432
3 389 387 431
3 433 389 431
3 390 434 432
3 388 390 432
3 435 389 433
3 435 391 389
3 390 436 434
3 390 392 436
3 393 391 435
3 437 393 435
3 394 438 436
3 392 394 436
3 395 393 439
3 439 393 437
3 396 440 438
3 394 396 438
3 397 395 439
3 441 397 439
3 398 442 440
3 396 398 440
3 399 397 443
3 443 397 441
3 400 444 398
3 398 444 442
3 401 399 443
3 445 401 443
3 402 446 444
3 400 402 444
3 403 401 447
3 447 401 445
3 402 404 448
3 446 402 448
3 448 405 449
3 448 404 405
3 450 407 451
3 450 406 407
3 407 403 447
3 451 407 447
3 405 408 452
3 449 405 452
3 408 409 452
3 452 409 453
3 409 410 454
3 453 409 454
3 410 411 454
3 454 411 455
3 411 412 456
3 455 411 456
3 412 413 456
3 456 413 457
3 457 414 458
3 457 413 414
3 414 415 459
3 458 414 459
3 415 416 459
3 459 416 460
3 416 406 450
3 460 416 450
3 418 461 462
3 418 417 461
3 419 462 463
3 419 418 462
3 419 463 464
3 420 419 464
3 420 464 421
3 421 464 465
3 421 465 466
3 422 421 466
3 422 466 467
3 423 422 467
3 424 467 468
3 424 423 467
3 424 468 469
3 425 424 469
3 426 469 470
3 426 425 469
3 427 426 471
3 471 426 470
3 429 428 473
3 473 428 472
3 417 473 505
3 417 429 473
3 430 427 471
3 520 430 471
3 431 474 475
3 431 430 474
3 428 476 472
3 428 432 476
3 433 431 475
3 477 433 475
3 434 478 476
3 432 434 476
3 479 433 477
3 479 435 433
3 434 480 478
3 434 436 480
3 437 435 479
3 481 437 479
3 438 482 436
3 436 482 480
3 439 437 483
3 483 437 481
3 440 484 482
3 438 440 482
3 441 439 483
3 485 441 483
3 442 486 440
3 440 486 484
3 443 441 487
3 487 441 485
3 444 488 442
3 442 488 486
3 445 443 487
3 489 445 487
3 444 446 488
3 488 446 490
3 491 445 489
3 491 447 445
3 490 446 492
3 492 446 448
3 492 449 493
3 492 448 449
3 494 451 495
3 494 450 451
3 451 447 491
3 495 451 491
3 449 452 496
3 493 449 496
3 496 453 497
3 496 452 453
3 453 454 498
3 497 453 498
3 498 455 499
3 498 454 455
3 455 456 500
3 499 455 500
3 456 457 501
3 500 456 501
3 457 458 502
3 501 457 502
3 458 459 503
3 502 458 503
3 503 460 504
3 503 459 460
3 504 460 494
3 494 460 450
3 461 505 506
3 462 461 506
3 507 463 462
3 507 462 506
3 465 463 508
3 508 463 507
3 464 463 465
3 465 508 509
3 465 509 466
3 466 509 510
3 466 510 467
3 467 510 511
3 467 511 468
3 468 511 512
3 468 512 513
3 469 468 513
3 469 513 470
3 515 470 514
3 470 513 514
3 470 515 471
3 472 516 473
3 518 516 517
3 518 505 516
3 461 417 505
3 505 473 516
3 505 518 506
3 515 514 519
3 474 430 520
3 521 520 519
3 520 471 515
3 520 515 519
3 474 520 524
3 476 522 472
3 516 472 523
3 472 522 523
3 516 523 517
3 520 521 524
3 477 475 524
3 524 475 474
3 525 477 524
3 478 526 522
3 476 478 522
3 527 477 525
3 527 479 477
3 478 528 526
3 478 480 528
3 481 479 527
3 529 481 527
3 482 530 480
3 480 530 528
3 483 481 531
3 531 481 529
3 484 532 530
3 482 484 530
3 485 483 531
3 533 485 531
3 486 534 484
3 484 534 532
3 535 485 533
3 535 487 485
3 486 536 534
3 486 488 536
3 537 489 535
3 535 489 487
3 490 538 539
3 536 490 539
3 488 490 536
3 538 540 539
3 541 542 543
3 541 489 537
3 542 541 537
3 541 491 489
3 490 492 538
3 545 493 544
3 538 492 493
3 538 493 545
3 540 538 545
3 544 546 545
3 547 548 549
3 543 495 541
3 547 494 495
3 547 495 543
3 608 547 543
3 495 491 541
3 493 496 544
3 544 497 550
3 546 544 550
3 544 496 497
3 550 497 551
3 551 497 498
3 498 499 551
3 551 499 552
3 499 500 552
3 552 500 553
3 500 501 553
3 553 501 554
3 554 502 555
3 554 501 502
3 502 503 556
3 555 502 556
3 503 504 556
3 549 504 547
3 556 504 549
3 504 494 547
3 506 557 507
3 507 557 558
3 508 507 558
3 508 558 559
3 509 508 559
3 509 559 560
3 510 509 560
3 510 560 561
3 511 510 561
3 511 561 562
3 512 511 562
3 514 512 563
3 563 512 562
3 513 512 514
3 517 564 518
3 518 564 557
3 566 564 565
3 557 564 566
3 557 506 518
3 558 566 567
3 558 557 566
3 559 567 568
3 559 558 567
3 560 568 569
3 560 559 568
3 561 569 570
3 561 560 569
3 562 570 571
3 562 561 570
3 563 562 571
3 572 563 571
3 574 514 563
3 572 574 563
3 573 519 574
3 574 519 514
3 519 573 521
3 522 575 523
3 577 575 576
3 577 517 575
3 564 517 577
3 575 517 523
3 564 577 565
3 573 574 572
3 521 573 579
3 580 573 578
3 579 573 580
3 579 524 521
3 524 579 525
3 522 581 575
3 522 526 581
3 576 581 582
3 576 575 581
3 583 580 584
3 583 579 580
3 583 525 579
3 583 527 525
3 526 585 581
3 526 528 585
3 582 585 586
3 582 581 585
3 587 584 588
3 587 583 584
3 587 527 583
3 587 529 527
3 528 589 585
3 528 530 589
3 586 589 590
3 586 585 589
3 591 588 592
3 591 587 588
3 591 529 587
3 591 531 529
3 532 593 589
3 530 532 589
3 590 593 594
3 590 589 593
3 595 592 596
3 595 591 592
3 595 531 591
3 595 533 531
3 534 597 593
3 532 534 593
3 594 597 598
3 594 593 597
3 599 596 600
3 599 595 596
3 599 533 595
3 599 535 533
3 534 601 597
3 534 536 601
3 602 597 601
3 602 598 597
3 603 599 600
3 604 603 600
3 603 535 599
3 603 537 535
3 536 539 601
3 606 540 605
3 606 602 540
3 602 601 539
3 540 602 539
3 605 607 606
3 608 609 610
3 608 543 609
3 604 542 603
3 609 543 542
3 609 542 604
3 542 537 603
3 540 545 605
3 605 546 607
3 612 607 611
3 605 545 546
3 607 546 611
3 612 613 614
3 612 611 613
3 614 615 616
3 614 613 615
3 616 617 618
3 616 615 617
3 618 619 620
3 618 617 619
3 620 621 622
3 620 619 621
3 622 623 624
3 622 621 623
3 610 548 608
3 624 623 548
3 624 548 610
3 548 623 549
3 548 547 608
3 546 550 611
3 611 550 613
3 613 550 551
3 551 552 615
3 613 551 615
3 552 553 617
3 615 552 617
3 553 554 619
3 617 553 619
3 554 555 621
3 619 554 621
3 621 555 623
3 623 555 556
3 556 549 623
3 565 625 626
3 567 566 626
3 626 566 565
3 567 626 627
3 568 567 627
3 568 627 628
3 569 568 628
3 569 628 629
3 570 569 629
3 570 629 630
3 571 570 630
3 572 571 631
3 631 571 630
3 572 631 578
3 576 632 577
3 625 632 633
3 565 577 632
3 565 632 625
3 625 633 634
3 626 625 634
3 626 634 627
3 627 634 635
3 627 635 628
3 628 635 636
3 628 636 629
3 629 636 637
3 629 637 630
3 630 637 638
3 631 638 639
3 631 630 638
3 640 578 639
3 578 573 572
3 578 631 639
3 578 640 580
3 576 641 632
3 576 582 641
3 633 641 642
3 633 632 641
3 633 642 643
3 634 633 643
3 634 643 644
3 635 634 644
3 635 644 645
3 636 635 645
3 636 645 646
3 637 636 646
3 637 646 647
3 638 637 647
3 638 647 648
3 639 638 648
3 640 648 649
3 640 639 648
3 584 580 640
3 649 584 640
3 582 650 641
3 582 586 650
3 642 650 651
3 642 641 650
3 642 651 652
3 643 642 652
3 643 652 653
3 644 643 653
3 644 653 645
3 645 653 654
3 645 654 646
3 646 654 655
3 646 655 647
3 647 655 656
3 647 656 648
3 648 656 657
3 648 657 649
3 649 657 658
3 588 584 649
3 658 588 649
3 586 659 650
3 586 590 659
3 650 659 651
3 651 659 660
3 651 660 661
3 652 651 661
3 652 661 662
3 653 652 662
3 653 662 654
3 654 662 663
3 654 663 664
3 655 654 664
3 655 664 665
3 656 655 665
3 656 665 666
3 657 656 666
3 657 666 658
3 658 666 667
3 592 588 658
3 667 592 658
3 590 668 659
3 590 594 668
3 660 668 669
3 660 659 668
3 660 669 670
3 661 660 670
3 661 670 671
3 662 661 671
3 662 671 663
3 663 671 672
3 663 672 664
3 664 672 673
3 664 673 665
3 665 673 674
3 665 674 666
3 666 674 675
3 666 675 667
3 667 675 676
3 596 592 667
3 676 596 667
3 594 677 668
3 594 598 677
3 668 677 669
3 669 677 678
3 669 678 679
3 670 669 679
3 670 679 680
3 671 670 680
3 671 680 681
3 672 671 681
3 672 681 682
3 673 672 682
3 673 682 683
3 674 673 683
3 674 683 684
3 675 674 684
3 676 684 685
3 676 675 684
3 600 596 676
3 685 600 676
3 598 686 677
3 598 602 606
3 678 686 687
3 678 677 686
3 678 687 679
3 679 687 688
3 679 688 680
3 680 688 689
3 680 689 681
3 681 689 690
3 681 690 682
3 682 690 691
3 683 691 692
3 683 682 691
3 684 692 693
3 684 683 692
3 685 693 694
3 685 684 693
3 694 604 685
3 685 604 600
3 598 606 686
3 606 607 695
3 686 606 695
3 686 695 687
3 688 687 696
3 696 687 695
3 688 696 697
3 689 688 697
3 689 697 698
3 690 689 698
3 690 698 699
3 691 690 699
3 691 699 700
3 692 691 700
3 692 700 701
3 693 692 701
3 610 609 694
3 701 610 694
3 701 694 693
3 609 604 694
3 607 612 695
3 695 612 696
3 696 612 614
3 614 616 697
3 696 614 697
3 616 618 698
3 697 616 698
3 618 620 699
3 698 618 699
3 620 622 700
3 699 620 700
3 622 624 701
3 700 622 701
3 624 610 701
