OFF
702 1400 0
-0.254861683788914 -0.336802013899249 2.15998291520207
-0.300348395696543 -0.323065884357794 2.14236899119143
-0.272075851512909 -0.341823948358228 2.11459917800624
-0.207948259060929 -0.343161507743971 2.16461867191814
-0.226066986112323 -0.352331419447965 2.11970270197005
-0.161109050539135 -0.34754704229395 2.16772694519488
-0.179648245685648 -0.356278409264638 2.12179745460177
-0.115706484089962 -0.351313102841606 2.1720465753619
-0.134295173536713 -0.36001869018714 2.12359639047451
-0.0707908885132164 -0.354893297267491 2.17672542990752
-0.0895146581161523 -0.363400267820643 2.12819842886826
-0.0232764767204187 -0.357735433461327 2.1843235957283
-0.0437127834071902 -0.366486288212462 2.1366579536354
0.024789237145265 -0.353101018434871 2.19277992288285
0.00360630435322846 -0.367879503573651 2.14567046274658
0.0500555140417392 -0.358813980552888 2.15462423857987
-0.323175363478139 -0.295142860950914 2.17106959206871
-0.352989037462605 -0.277516308834808 2.14390109991242
-0.331576118861331 -0.306879090492733 2.11495265817052
-0.282647044034555 -0.31117064820807 2.1905425876451
-0.235904913635221 -0.320063749690166 2.2024240788714
-0.188175421589041 -0.325087096290873 2.20620252603166
-0.141385023715498 -0.328765138183661 2.21153524388192
-0.0961497230926715 -0.331912645851021 2.21732492012903
-0.0518186165424535 -0.336999786366764 2.21983524728028
-0.00317253677954345 -0.337562566839831 2.22711783410364
0.0706332628569139 -0.336706400511516 2.19875481565987
0.0419276957142728 -0.32523240179954 2.23510822890508
0.0878894208933323 -0.304710888937795 2.23317926015732
-0.310409265971472 -0.27492009874174 2.21298962632539
-0.350645388990145 -0.25425930937306 2.18530434850325
-0.264370673418064 -0.288348768396263 2.23034999132763
-0.214392544087307 -0.294477465060666 2.23835138681804
-0.166770209707644 -0.298549385131904 2.24354099760932
-0.11913912606156 -0.300753476218135 2.25072865628119
-0.0744225712874975 -0.303262003124816 2.25700604999967
-0.0321162631569609 -0.312285435655734 2.25584168634339
0.00915747868516462 -0.303911845905078 2.26665813603991
0.0547225849536095 -0.290199100849081 2.26833356188863
0.0993905283620638 -0.267469221746476 2.26221431376161
-0.328928468970168 -0.238154508130259 2.23425268716531
-0.362193277280071 -0.216452984634289 2.208107254695
-0.287884848309977 -0.25313787898234 2.25519911853228
-0.238817203269175 -0.263586870797848 2.26627384156219
-0.190046534396342 -0.265524289007599 2.2741593269231
-0.142568883917903 -0.270014009766876 2.27887442411731
-0.0910740037404951 -0.270631527376676 2.28853015612043
-0.0361625056158666 -0.279639369031402 2.28990676297509
0.014218365565656 -0.272128018533771 2.29938206701731
0.0645914326696651 -0.256223368513465 2.29835726690676
0.109174776293573 -0.229681651161334 2.29092320204882
-0.313213461610621 -0.214634972336295 2.27720635027715
-0.353770036768061 -0.19654828568467 2.24638939644546
-0.263881649002995 -0.231735136503249 2.29185914483346
-0.21646882545928 -0.233858211919141 2.30269624017266
-0.170926448499594 -0.234692607663999 2.31092825369323
-0.126931385171606 -0.24221768580506 2.31170266233031
-0.0935137327490398 -0.230361052836097 2.33106310494415
-0.0585394754307601 -0.24915936968969 2.31798708496456
-0.0162571725755318 -0.245538109773916 2.32892372959997
0.0316008739851342 -0.238687369880874 2.33041130188897
0.0795275510528302 -0.219473223448923 2.32658402228848
-0.316690625835645 -0.174823101795826 2.31806741706476
-0.344684457392987 -0.176629687248741 2.28314782003472
-0.283618260387288 -0.200879151232034 2.31503452299667
-0.23654624606918 -0.203182898756866 2.33143870335955
-0.191819624031719 -0.20180166987294 2.3418820299315
-0.142880765652252 -0.206497730677859 2.3466683258303
-0.0975008730262762 -0.200640159664994 2.36201714184601
-0.0499957129723997 -0.213596232108236 2.35769200992882
-0.00197867117392848 -0.213156526683256 2.36312942595697
0.0457443930054325 -0.205449476140943 2.35984020488339
0.093067168286738 -0.182836774530574 2.35316807144982
-0.306278949685979 -0.150892761902023 2.35376931624844
-0.350443548443111 -0.137885148739449 2.31878833069293
-0.267443038827418 -0.17504143549744 2.35160199869719
-0.221534497643348 -0.168805742289992 2.37117874698624
-0.171472631074014 -0.173048840668968 2.37667496939263
-0.125682926198948 -0.172651953932342 2.38627253274864
-0.0741316118452599 -0.176415842748269 2.39257801499734
-0.0291478323346755 -0.182660972907313 2.39454773508906
0.0172062347482222 -0.179466414399014 2.39587397104517
0.061099408426315 -0.171749005283135 2.38704111890088
0.0973238987621126 -0.145794527389118 2.38644381398656
-0.301782732505498 -0.111718696718787 2.39025085540299
-0.335552859368707 -0.120106784178432 2.35691972709308
-0.268153745002591 -0.141623709682872 2.38530667861133
-0.233662380873423 -0.129827285536709 2.40335654231921
-0.190872693639404 -0.138151454584979 2.40491705539852
-0.145755717646377 -0.13822136062363 2.41272407655837
-0.0985311340272922 -0.141426859941886 2.41865728025661
-0.0499006214423688 -0.145399962520609 2.42429796732704
-0.0015966913579326 -0.148263496551921 2.42602200104174
0.0499565707588433 -0.14212336160155 2.41856762099306
0.0971310709529521 -0.110538423460127 2.41140441716805
-0.343189912438884 -0.0811810261810121 2.37452159184456
-0.2647149774066 -0.0925635014460868 2.41652685654458
-0.308390209191882 -0.0681244714916532 2.4060104337503
-0.215252151946891 -0.0930713252279921 2.4258489257113
-0.169190682728421 -0.0976958111903686 2.43095380230331
-0.122511816419586 -0.0985936989203203 2.43764195128089
-0.0766864608722887 -0.103088353939438 2.44277342224182
-0.0299914518189415 -0.107482997459723 2.4477901130672
0.0166862690284509 -0.108900535635685 2.44578932671864
0.0610010757742046 -0.102256601608495 2.4357732020824
0.0425202413114526 -0.0637645859047021 2.45299563076186
-0.281674258592743 -0.0412877253990177 2.4244551698217
-0.239187764743368 -0.0503812002547403 2.43433412039529
-0.190148645231688 -0.0521421327205911 2.44061492602593
-0.144389099951429 -0.0531839400499242 2.44652877403145
-0.0980974877649974 -0.0545415650583078 2.45244259111669
-0.0534951317925862 -0.0611674365801571 2.45738808020133
-0.0057626891201423 -0.0653868551534589 2.46036598003597
-0.25001834981615 -0.348813515978866 2.07526283790737
-0.273827123315262 -0.334375293267639 2.0399966131816
-0.25026628712685 -0.326862764497684 2.00260425499729
-0.200371709148874 -0.355101215660905 2.07588449469601
-0.221979670890266 -0.345520133950424 2.03492946948982
-0.154301279369457 -0.357782744484951 2.07527804015886
-0.173816586903902 -0.345703011571336 2.02946619824466
-0.108875257174012 -0.360725907288107 2.07786322916802
-0.128498239888694 -0.347240198230517 2.03022337654868
-0.0635384343102908 -0.364380472245735 2.0856024728387
-0.0809128294602225 -0.350905778699474 2.03640772034406
-0.0186199466063347 -0.368296704739007 2.09602408482764
-0.0351845654332991 -0.355676777389022 2.0456475544112
0.0274174656097588 -0.366937281069979 2.10467400440724
0.00903438902241725 -0.359961192780844 2.05698045591936
0.0569117247863578 -0.353074006527722 2.06618923339858
-0.30167435485909 -0.32886179483264 2.08331406242958
-0.340241378284448 -0.298225157502424 2.06777314053914
-0.310574169395613 -0.313230711936368 2.03515450189686
0.0946978156339855 -0.338541602198186 2.15927528764333
0.0705242918873129 -0.3552571553218 2.11423043579053
0.110112664876897 -0.333736817336362 2.11668649340999
-0.378387622495399 -0.241769823834272 2.13482981789506
-0.388680794074079 -0.228489918254246 2.08544751438827
-0.365768659479256 -0.271133842122285 2.09772519146684
0.11563300459919 -0.310797290272638 2.19339604977974
0.13627706396176 -0.308376831636218 2.14912631028396
0.15325017362645 -0.277529950374011 2.17698831917969
-0.380666141094868 -0.213700505073658 2.16680088966795
-0.396513077827475 -0.196858575403451 2.12075542688195
0.129399514442701 -0.275495393736566 2.22228553592409
0.160383992636783 -0.238760428692472 2.20831580166572
-0.384549229066877 -0.175747709266838 2.20132551281213
-0.397194131242299 -0.167658513141043 2.15769314683213
0.137112526607117 -0.235647727760401 2.25104126838918
0.166673477807348 -0.197326510939899 2.23332131357734
-0.37912385864088 -0.157349895820734 2.23946601760877
-0.39961059459217 -0.128262789730345 2.19772801435816
0.145632463063305 -0.195071932265143 2.2772594002965
0.170956674297906 -0.155913142677018 2.26033461045029
-0.371343994788339 -0.139992473788604 2.27870724735294
-0.395179025613042 -0.111296010198603 2.2433376708215
0.122355785763622 -0.189069954043849 2.31656989416668
0.154799329124854 -0.150506283253553 2.30313977192801
-0.385223608099669 -0.100303274163184 2.29158479760217
-0.403532970433129 -0.0654964252724854 2.26092523266328
0.129632183068936 -0.149709024505794 2.34583192605367
0.15976716156285 -0.111064448225603 2.32960911630025
-0.369791868761869 -0.0934319615268232 2.33323375081427
-0.394104862695862 -0.0551668480533733 2.30849956617379
0.132959164650248 -0.112978090743865 2.37482735213322
0.156578462130569 -0.0746605028723415 2.36185424721404
-0.372789366405961 -0.0486462772864967 2.3515340608936
-0.340794279069301 -0.0379027517145094 2.3893028259595
-0.360612896817457 -0.004176681726134 2.37022871012962
0.0897518102407906 -0.0640486931650087 2.43232471531194
0.112995898342986 -0.0243459523499962 2.41888975408858
0.126580929554638 -0.0714918200384404 2.40181478846981
-0.31541768204299 -0.0106138076144034 2.40904648426452
-0.263015284549268 -0.000215203354707649 2.43118236772013
-0.294997256993679 0.0282048351546649 2.41424422063461
-0.213422730805185 -0.00887543029673046 2.43989550397827
-0.166189370551112 -0.00594896911644757 2.44518913874743
-0.119590470561965 -0.00731173247225472 2.45066477915177
-0.072777689539894 -0.00873984135811931 2.45614989929536
-0.0298099462739877 -0.0194635834246155 2.46195692381111
-0.00442006326776649 0.0171233503297318 2.45671755778215
0.0208807315382703 -0.0229809567175836 2.46017120461375
0.0696213885495929 -0.0222965409363362 2.44535818590915
-0.261568854983082 0.0575277627192394 2.417009707402
-0.229938066949882 0.0336982363877506 2.43127954651166
-0.185835607294328 0.0390459024037365 2.43411891202385
-0.139754986536906 0.0390868910221792 2.43859463191496
-0.0930800872419814 0.037093237999006 2.44377357325773
-0.04468461800622 0.0353844542539221 2.44900332378362
0.0111556660766376 0.0544926761242015 2.44165894964405
-0.338311977483176 -0.281642978573384 2.0185838166821
-0.321994177746427 -0.268127781171923 1.97961089617374
-0.29133867991758 -0.303932570956222 1.99350130906781
-0.242501684882046 -0.304466679364541 1.96664945870126
-0.200546888261319 -0.327966447342611 1.99281409899098
-0.150014840968577 -0.323526160454427 1.98618305474781
-0.100041384627148 -0.328646521285219 1.99435826338453
-0.0479927158139336 -0.332667860133126 2.00095870160048
-0.00269253362743239 -0.338187098663379 2.00978422650929
0.0413900855239746 -0.34145421170798 2.0259175445222
0.0837846108772625 -0.32332844888168 2.02493425868678
0.0964526329233103 -0.336557934925237 2.07302161311041
0.123039166538192 -0.310404036058565 2.05500910430634
-0.368268707562688 -0.259363994276802 2.05170755582272
-0.385960670594292 -0.213087850064462 2.03830228208709
-0.362444917744307 -0.24010142865593 2.00840471702602
0.139612315798848 -0.307220971086774 2.09957729056032
0.155533280648149 -0.278744014563119 2.06801855456825
0.165459295321108 -0.274944845778498 2.12316842867743
-0.400264742974059 -0.179791651070918 2.07446546529787
0.185181295019235 -0.232742460619477 2.12012937474623
-0.403347747980025 -0.148509024234761 2.10675697869324
0.177166213689172 -0.240142944383704 2.16269302849362
-0.404435960483389 -0.125933451643309 2.14929219621608
0.18270737653713 -0.197891064033654 2.18606232987765
-0.406571189211643 -0.0859745950963135 2.16443191509506
0.185206128263774 -0.157411526759255 2.20965814967394
-0.406583856354845 -0.0777225549293852 2.21158734712179
0.185757172052 -0.119790812742335 2.2365524214358
-0.409804338535399 -0.02987224175742 2.22954196889084
0.177871598296483 -0.106743466619587 2.28184949094034
-0.406052921610896 -0.0183909699681956 2.27980631170123
0.177972351362324 -0.0674764395179294 2.31425571240193
-0.389308500960046 -0.00944859080972479 2.3277573691041
-0.395722427012441 0.0275526059113913 2.29839600687753
0.146276112692339 -0.0298789250057386 2.38510183618214
0.170642962969953 -0.0339803439519497 2.34413367337032
-0.372055354193345 0.0339309065831094 2.34451778779194
-0.337306255841606 0.0300873637683317 2.38585063439573
-0.344254847914958 0.071282446981629 2.35766669449642
0.0454739757746221 0.0187117905330909 2.44764556352747
0.0919722723191195 0.0183390674973275 2.4260839495573
0.130908251946429 0.0159381960053893 2.39412697769604
-0.307517525453874 0.0680401449217588 2.39116620008595
-0.267010136901675 0.0947992886368482 2.39414943881531
-0.214549404348705 0.079281072393497 2.41402965517808
-0.165513845620872 0.0814035808981595 2.41662714144307
-0.118175693076715 0.0803602421762924 2.42086971754935
-0.0708202307153129 0.0772370779914985 2.42639402311772
-0.0248359516003955 0.0778763042701478 2.4293746393369
0.0288205805090306 0.0888430139479817 2.41663989521571
0.0625494563928926 0.0570770412463815 2.42551470287178
-0.310658555705116 -0.236800946344234 1.94387648251386
-0.279244917298253 -0.275928721239609 1.9538522188165
-0.230752146003772 -0.273319444473928 1.93364096244928
-0.193498193788992 -0.301274099378579 1.95735769887192
-0.149825805731043 -0.289448297982583 1.94795446476559
-0.109609819558578 -0.297056211459473 1.95723374936648
-0.0626154964283812 -0.305731593616165 1.96794429519617
-0.00644819581662338 -0.306830443361057 1.97182655487664
0.0410753155955938 -0.316145451595211 1.98935447793245
0.0863402967261031 -0.292471550283078 1.98818701019498
0.124301869919711 -0.287584249219269 2.02035759885882
-0.374126843097067 -0.187989998380827 1.99395329575558
-0.346310400948597 -0.225923723724027 1.97336520116702
0.157070709061961 -0.251324752363346 2.03008327544324
0.177245579076382 -0.242866881190195 2.07818850539924
-0.393219263531762 -0.165512311525511 2.03334604225261
0.193791663406886 -0.194898618295842 2.09165680381537
-0.398541732497296 -0.124299824829014 2.06188743360626
0.192742129256434 -0.191629265696931 2.14134140100254
-0.402495117748833 -0.0999911883454589 2.10915042731554
0.193429269655486 -0.148886562001454 2.16266037667851
-0.401620316564888 -0.0561691784183911 2.12853229858331
0.193144943031047 -0.109349086977696 2.18897368844492
-0.406567524905072 -0.0397521118633642 2.17925330815889
0.190071122821393 -0.0776255587511128 2.23350546268732
-0.405409830224679 0.00582857524348452 2.19730667656744
0.186964091520577 -0.0554824917567838 2.2724909773252
-0.406896629445309 0.0171319486501949 2.24847644678097
0.182082773473986 -0.0113114005165143 2.30711848205442
-0.391832167118196 0.062442060702306 2.26676339763726
0.160799746531728 0.00918142285006517 2.35432982184309
-0.373144770647067 0.0703427613286656 2.31424970478725
-0.34025764435328 0.107466874915505 2.32596208795755
0.104901680273972 0.0575181026790693 2.39788662260659
0.140212975983587 0.0526264743373164 2.36181227101888
-0.306383791866985 0.106069331036437 2.36299139707672
-0.262795765781729 0.132331442864298 2.36147074085915
-0.227238971198353 0.114292082121416 2.38807879941185
-0.182330538489852 0.118066099860984 2.38728090984086
-0.13821544730098 0.118473535270671 2.38918189163571
-0.0915018073556514 0.114640630524261 2.39522849723416
-0.0482017792816031 0.114452709053886 2.39765076235334
-0.00559512694791801 0.112561044640301 2.40110332309327
0.0720684376519597 0.0944081744526055 2.39346657911502
-0.307153618504488 -0.202765856512949 1.9145111597437
-0.268717885969209 -0.241799073240689 1.91972486719251
-0.221767990979181 -0.23946388030959 1.90142493177186
-0.182169631669635 -0.265137894031524 1.92328607875453
-0.12831220805991 -0.25622394366803 1.91764704381583
-0.0824454179790279 -0.268325224087636 1.93146936250274
-0.0368108665893001 -0.279737366405542 1.94462811290596
0.00662159497811581 -0.268140406481267 1.93591170764291
0.0442141295062306 -0.284568013808625 1.95830348136119
0.0908460234818141 -0.258626114918474 1.95517475426808
0.127481829986179 -0.256567821975786 1.98793389431993
-0.36903721259203 -0.150984213435944 1.96312704736342
-0.34469834088099 -0.192134642988269 1.94796949408155
0.163111074069928 -0.21812457881002 1.99860123147212
0.183159357913031 -0.209175021310488 2.04484532212713
-0.388277195274558 -0.133452326761006 2.0071169489545
0.200181967061102 -0.161303401515708 2.06254012763654
-0.39172820332639 -0.0877097252204345 2.02802783111492
0.199280000847245 -0.149386425766684 2.11422156621894
-0.396167813377934 -0.071327330332783 2.0744855077393
0.199728490815141 -0.102949539225202 2.13870193020893
-0.395377560128536 -0.0253681089605668 2.0958623088017
0.197055536169115 -0.0650158861130362 2.183688818399
-0.400064000399695 -0.0077490260035412 2.1450965744237
0.195159928519392 -0.033360989024804 2.21848065624887
-0.399051437135476 0.0390364157736528 2.16514062941137
0.191481014940357 -0.0134360349106767 2.2605588730888
-0.400527816691405 0.0517914894711041 2.2167419047772
0.187924938801806 0.0297644962387643 2.27530936785688
-0.385371068510446 0.0967313522404843 2.23481921596687
0.169679591843672 0.0387876931746816 2.32005598253813
-0.366870072247523 0.104727133977718 2.28225125945742
-0.333027087155041 0.14240513073054 2.29418155177255
0.111853803714022 0.0937229062361165 2.36424463578848
0.147898426417124 0.0857261581652017 2.32877605725084
-0.299875897066304 0.140776056160661 2.33071731190897
-0.251204932102881 0.16569451824903 2.33229835260412
-0.211058591278627 0.147698729873341 2.35776622882418
-0.160071769153571 0.154157981532448 2.35430042060787
-0.107423955123041 0.147723202333704 2.36311533566532
-0.0590416224637299 0.149146574586019 2.36427736444085
-0.0129688633411006 0.147030621759487 2.36866658116643
0.0347818169059341 0.12649031410054 2.38208814170242
0.0761797748102746 0.131213125108729 2.36061915366079
-0.301427618947557 -0.169418832772626 1.88376202735372
-0.263605815380105 -0.20749701172736 1.88829335435543
-0.215612657224039 -0.207054168747273 1.87107279311887
-0.170852848427283 -0.233131156009456 1.89360108215301
-0.123562721864662 -0.218697038132452 1.88240214198869
-0.0815801438944872 -0.232810129117832 1.8979263503684
-0.0370122876500336 -0.246013449930422 1.91272315756771
0.009398985649735 -0.232093192857926 1.90196373761449
0.0524715171999033 -0.248858441160501 1.92539206389301
0.0980187349987206 -0.223844589366881 1.92308423824233
0.133770457004322 -0.223849617750804 1.95750081628765
-0.362368671637729 -0.116077237180691 1.93019496424899
-0.339154596132464 -0.159690248186854 1.91833369191369
0.169636178426057 -0.184677423241753 1.96784617144074
0.189924717800012 -0.174779143125397 2.01404634539939
-0.381700202501659 -0.101577313146417 1.97514367003077
0.206480763889074 -0.127946047241095 2.03262884342276
-0.385221820850975 -0.0561572610190379 1.99364204290375
0.205407103475849 -0.114780744513423 2.08481058277098
-0.389671265693359 -0.0347091340908644 2.04325290968581
0.206830314368567 -0.0689495925872814 2.10089668975427
-0.389705092054255 0.0106555301936342 2.07103815179619
0.202690278629223 -0.0526274381317399 2.1448502145618
-0.393746021739839 0.0272449686417659 2.11434618511856
0.202210877381346 -0.00929846441872455 2.17507463110572
-0.392495668945644 0.0721926628573936 2.13132135202756
0.198229196622462 0.0153814838238196 2.22279295759649
-0.394366666700694 0.0848371940112545 2.1841517631967
0.195270185026854 0.0610801978083885 2.24077690631566
-0.379020544197065 0.130273918798992 2.20371678790067
0.175418011801273 0.0758526945067658 2.28793009586332
-0.359964526189492 0.139147196612892 2.25108182767192
-0.324520723097158 0.176788644220488 2.26473095095353
0.117485438602783 0.128633715821084 2.33241100390958
0.153514959259728 0.12117972423224 2.29702678963789
-0.289879313149506 0.17488852363434 2.30158344888239
-0.241455684182486 0.199130956597174 2.30221530702065
-0.200169744729791 0.18025657013517 2.32753845463684
-0.1552374240607 0.193975738733992 2.31689366688662
-0.118154864888518 0.178160159948131 2.33377309335525
-0.0704568412456946 0.181298493416578 2.33327756272095
-0.0200819941818657 0.181809608654373 2.33540555085756
0.0299313505423584 0.161807902280338 2.35183744428536
0.0776943964779774 0.165315511856923 2.33136430805737
-0.294991313875939 -0.136032107574008 1.85235427301602
-0.257808718478109 -0.173554894390157 1.85681543957099
-0.211476951698961 -0.173643132099198 1.84021908903151
-0.167314085262167 -0.19986346195788 1.86232213963969
-0.117532937862694 -0.183226642153238 1.84916783086348
-0.0755619561457409 -0.196543427702128 1.86393792772708
-0.0336809676785754 -0.211254692142523 1.88002292224302
0.0126677525296748 -0.196358073542309 1.86833655500007
0.0560759893992022 -0.215005562095043 1.89281396210448
0.10144023903731 -0.191179922023893 1.89060203512299
0.140192109480432 -0.19065050103715 1.92667245935917
-0.357166709772405 -0.0804360963614561 1.89996831662053
-0.332770368209686 -0.126853073280282 1.88728719848874
0.175804064479946 -0.151392623151496 1.93653139292359
0.19631728734492 -0.140981714915054 1.98265481573006
-0.375548644544255 -0.0658114291436406 1.94364122955076
0.212591601526703 -0.0950868291904121 2.00036833111337
-0.378120912357749 -0.0174238936809232 1.95872122763232
0.212071011685594 -0.0806534269227518 2.0506838093601
-0.382891693576459 -0.00961955759472501 2.00270166650936
0.212897026489018 -0.0318397637258431 2.0734948583023
-0.384238268444984 0.0215633229242555 2.03268600174732
0.208260368722444 -0.016050304905575 2.12121787006726
-0.386611130125472 0.0615798185555786 2.07647773628517
0.208955632578507 0.0284724871863757 2.14249922513472
-0.386359855768915 0.10479838791534 2.10062054210167
0.20444190999788 0.0441083574886446 2.18911336381984
-0.388201142862947 0.11771682384687 2.1533891273103
0.202047491514138 0.0923856732631592 2.20810887441399
-0.371814320278624 0.164506112573002 2.17536255151074
0.182586275262155 0.108520237151346 2.25514462625376
-0.352439084300317 0.173292275908695 2.22168007185265
-0.317243155254411 0.210485693604407 2.23442978273988
0.122430045641556 0.162790616937646 2.30176882650089
0.160039019135486 0.154549127760261 2.26542230184072
-0.281655105250456 0.208482757357423 2.27156848084989
-0.235065170611372 0.233226545026979 2.27030036331205
-0.193177934385588 0.216270984777607 2.2938406286673
-0.142555026005834 0.229122636850591 2.28431010102346
-0.103170980138953 0.211900126230335 2.30264008869641
-0.05489219436382 0.214816239368014 2.30238453195708
-0.00681777895537437 0.215843346077836 2.30390505980716
0.0333940410869845 0.193800473002281 2.32239440466997
0.0850011013473202 0.197060374909712 2.30092742852427
-0.296054432727871 -0.100369054298248 1.82638194242447
-0.251203616282038 -0.138786828285475 1.8242267403438
-0.203293897339221 -0.141155328790483 1.80942305306063
-0.162041984139638 -0.168154694496912 1.83260663705501
-0.11214554194526 -0.149319242000335 1.81743006261964
-0.0685879592627159 -0.16002679049786 1.82976413518415
-0.0287999033605572 -0.174297471226196 1.84532261258641
0.0147704850552754 -0.160180628854842 1.83424159770708
0.0590460471647003 -0.181471344348252 1.86042838898958
0.105730658005029 -0.15807379448293 1.85831203434376
0.142725704415394 -0.160195327411244 1.89425907439059
-0.35159457196978 -0.0441897364865353 1.8695957523375
-0.32983875089056 -0.0917672118631547 1.85951374172671
0.17653996306979 -0.12378033330845 1.90160268597803
0.202425021335721 -0.107228758642081 1.95008127888905
-0.369226652215438 -0.0288008714845921 1.91125080899528
0.219708361277375 -0.0579857781529364 1.97923377506017
-0.371681535980735 0.0197387927377866 1.93199749383594
0.218055816052551 -0.0434756622886542 2.02400244223806
-0.376975939505758 0.0349553942343775 1.98106977021689
0.219217371239743 0.00403081406155938 2.04204800765824
-0.380552073314564 0.0629990936003012 2.02749568769684
0.21466180616889 0.0188012644646907 2.08969381954946
-0.379608766281878 0.106205187666597 2.04593360366846
0.215513551791743 0.0636708571132193 2.10945586956835
-0.38082798234781 0.14219217898452 2.07786752146863
0.210911627750625 0.079615864743907 2.15742472505581
-0.381592826316548 0.152081784845925 2.12720296648142
0.208179266198826 0.12615349503452 2.17716761299766
-0.365296470764679 0.198278387717788 2.14458900829163
0.189165870996064 0.141165396264271 2.22360425394349
-0.345350464812065 0.207470990231615 2.19120201269556
-0.310951287382264 0.244071295829407 2.20298532930428
0.129375317226891 0.196237946844219 2.2698500837511
0.166542664519894 0.187978884423496 2.23373817895321
-0.275649256991276 0.241938096104448 2.2400573625262
-0.229328875275733 0.266873180833463 2.23855692482899
-0.185783146672076 0.250456391021383 2.26189277284535
-0.137097602339296 0.262019657268114 2.25345301030555
-0.0895639751887354 0.247438264874666 2.269734883379
-0.0395586586987535 0.248203751714386 2.27160290951237
0.00694683019855853 0.248479534649075 2.27375267117239
0.0459351091638559 0.225378251149491 2.29143374899576
0.0922279629888668 0.230545184849106 2.269069909033
-0.258682936494077 -0.101760503471773 1.80098206658924
-0.217131609807433 -0.105943492449698 1.78758335386039
-0.170698180837254 -0.103542650805389 1.78139515828572
-0.155948565083831 -0.136623961300202 1.80400560907893
-0.118587473472699 -0.109460202036901 1.78857948674343
-0.071893760633495 -0.121140014052533 1.79900793387468
-0.0250796624974855 -0.132084662946362 1.80948559040193
0.0228640663410557 -0.121526044872545 1.80667899933309
0.0622046487583847 -0.148632042851973 1.83020219810801
0.106692447211684 -0.122595121581371 1.82946611623276
0.146979835236168 -0.125643654396667 1.86246911706358
-0.33910881794794 -0.00796982723849088 1.84336182419913
-0.322518886495408 -0.0551968680194463 1.83029303774153
0.195669748487919 -0.0863745026483976 1.90345005396732
0.213359498551236 -0.0626981683103149 1.93623203169912
-0.359385194759671 0.00950877621282614 1.88226658871172
0.218912185211043 -0.0190422535909161 1.94577749773649
-0.356426569913033 0.0544272994847402 1.90220827372296
0.221668539460136 -0.00608934804385582 1.9908065405216
-0.36619753287981 0.0692287588545029 1.94669102250523
0.218218320977958 0.0379955452230168 2.00847306131868
-0.373209527553146 0.0878084102788675 1.99201071140145
0.218345840987962 0.0545385520413056 2.05566406788833
-0.367128502336374 0.13376108740969 2.00567280552437
0.215278190338874 0.097611940204767 2.07659308976263
-0.370192650244941 0.161972562738021 2.04078378479572
0.21503927001874 0.114364652724442 2.12347554001124
-0.374218541651201 0.18491325145808 2.09477253517424
0.209140988873166 0.156589168828169 2.14453369831946
-0.356382065038106 0.226374514789704 2.10864603779529
0.193596647453056 0.174610730905617 2.19215434620568
-0.339044184074497 0.239564413828508 2.1577847368627
-0.303440886824969 0.272470133965171 2.16884724924685
0.13458939937434 0.229658554407541 2.23653355988594
0.166570145327669 0.220606210770829 2.19988168985245
-0.268123523465231 0.274654018694547 2.20787827524931
-0.219449875178893 0.296974500563573 2.20194937243071
-0.182288463658416 0.283666894218482 2.22758323449186
-0.140428699926931 0.291847267576457 2.21679594710956
-0.0963680456902917 0.282375932879123 2.23131474035454
-0.0517406242072457 0.278174488129138 2.23799671340053
-0.00167568598240493 0.27751181514771 2.23982825975882
0.0501629782255606 0.260146447193567 2.25741827732422
0.0955911547778096 0.260343740626434 2.23492809325563
-0.283964330004051 -0.0610993609549645 1.79812032840736
-0.238519631112292 -0.0629439842504429 1.77596623522946
-0.190827440196462 -0.0648009479767814 1.76653693216046
-0.138985764803698 -0.0688072689311045 1.76979764970145
-0.0885099884824125 -0.0753012935308235 1.77678078934361
-0.0424237324805813 -0.0851129842076541 1.78451115329337
0.00167716279431021 -0.0846515276329168 1.78861085362177
0.0487281497079705 -0.0744579014619052 1.7904763294153
0.0690575805509285 -0.109034844001215 1.80700639318513
0.101154326868346 -0.0735558607558558 1.80514249278251
0.137547042706135 -0.0901159751638295 1.83239386380755
-0.303856537905952 -0.018929125230766 1.80525199916203
-0.278548656112348 0.0223539104236104 1.79024124327566
-0.261260078041037 -0.0212586998801294 1.77806832691324
0.147851661099369 -0.0492264492436564 1.82861816072159
0.173833670165095 -0.0818619181004915 1.864750067195
0.177268953307255 -0.0346833079494599 1.85631917928505
-0.33597023803977 0.0465258993145505 1.85360181309639
-0.316136685383359 0.0231677296233698 1.8202883748664
0.201322661157939 -0.0396166422970348 1.89429171854501
0.206663257449375 0.0030078761898201 1.91007575000137
-0.332726029076095 0.084995686142887 1.87887443301563
0.212443654343322 0.0301910677124461 1.95261856569795
-0.342668107801936 0.106108779596331 1.91764378520825
0.207429732873346 0.0682783040275533 1.9790653214039
-0.355235869480802 0.117999810972968 1.9569705628055
0.209956480894481 0.0904184157245759 2.02066623960868
-0.344173466909346 0.157714909813575 1.96958273420569
0.205081539102533 0.128366483783835 2.04679873134014
-0.348067319955669 0.187129161662554 2.00525208971737
0.20740626807631 0.150317305418395 2.08818938880975
-0.361665879715514 0.203918354367924 2.05740254350025
0.199858040168026 0.186780849842858 2.11366650513891
-0.327925364566261 0.263642148264362 2.11954736851472
-0.339759983992775 0.246699190479603 2.07143202300485
-0.308820186374638 0.279821366807791 2.07678589343971
0.190307846676296 0.203378032723181 2.15746686186928
0.177134950893303 0.228058146976728 2.11321413677667
0.163793919425048 0.24204950933211 2.15807387060115
-0.26021216676269 0.298671654554843 2.17039707587139
-0.293922069644709 0.291137787635713 2.12921475342681
-0.252037034429918 0.312825637251972 2.12762266672117
0.131027611159821 0.25952210714527 2.19670373291424
0.0988253657977102 0.290684205578573 2.15987796693617
0.0863901292627249 0.284726915385123 2.19887281047823
-0.212952409567189 0.315752452516289 2.16143302255704
-0.169040474586772 0.310601292756426 2.18144282646422
-0.116139625998708 0.308243351299493 2.18404436711322
-0.0717053536067179 0.303501780451301 2.193091500244
-0.02791229520508 0.300304888131621 2.19833751066403
0.0148263921315479 0.299384853602524 2.19789491015883
0.0479261894036807 0.285505362734863 2.22161143610168
-0.212387480252482 -0.0221526725501724 1.76223004164421
-0.161103789878565 -0.0262511087602682 1.75961318107016
-0.110361044322554 -0.0302433556019941 1.76562122406207
-0.0625163367681253 -0.0350121627600462 1.77154399210755
-0.017710519961085 -0.0385116965082015 1.77700814371594
0.0263647969803537 -0.0342983532447905 1.78183452487126
0.0749383494741386 -0.0327755311493698 1.78971470329559
-0.234281379237601 0.0194394210417551 1.76968268666928
-0.206991225310544 0.0569728597920024 1.7729250901326
-0.182860524959037 0.0171898399775155 1.76057278484225
-0.132080759366943 0.013842335224378 1.76399954692033
-0.0844296625359066 0.0128238106151061 1.77013612490969
-0.0371848223272495 0.00946639824369433 1.77589755813648
0.00757588430227059 0.0110294162290284 1.78210649160396
0.0544919133925241 0.0103547616239357 1.78839037484335
0.102604824967264 0.0118595853003026 1.80314080966759
0.149609268982004 0.00357128991953397 1.83093207057001
0.118419121395947 -0.0285065572848616 1.80712646372432
-0.296564456941873 0.0629333066101943 1.81727429096923
-0.264523275149069 0.101411519654161 1.8187790970244
-0.253918476448454 0.0627382374792751 1.78975779008723
0.125651372830185 0.0459633514454142 1.8267870521666
0.183418666293208 0.00750382830145869 1.86852171050348
0.161643806533207 0.0474346630473706 1.85876058331822
-0.304421553997023 0.0945846996129965 1.84751985773278
-0.27107625460931 0.133103865729799 1.8540734399906
0.191863231595058 0.0443169144022804 1.90229640262045
0.164072035390662 0.0831196333939967 1.89206247036649
-0.309078626978983 0.128114505909293 1.88632878852163
-0.278138204390658 0.164266473617395 1.89125718885928
0.190786653153149 0.0754559314030692 1.93470755571754
0.162086970352436 0.116120585190377 1.9266864657357
-0.320251835043481 0.153426191157378 1.92591656205651
-0.283033253366632 0.193106612937055 1.92452248374067
0.189324356553039 0.108854182265138 1.97093945021683
0.16099973202654 0.14815409766967 1.96157956770531
-0.31715209301416 0.192352643038057 1.96001925153011
-0.281138520458051 0.227623679200993 1.95786375512818
0.188580131924117 0.137930305193944 2.00383193686851
0.160274593314554 0.17952679474791 1.99629180266484
-0.314408123323763 0.227785201699754 1.99155274069677
-0.280591710969568 0.263987318568667 1.99586618337061
0.187461416869596 0.170782982482119 2.04032740715765
0.159003918824881 0.211084509363246 2.03037847449707
-0.338064797378182 0.227829381990014 2.02789486543907
-0.308778828600583 0.264687523404663 2.03197393705099
0.185700437286708 0.20028453134113 2.07268003536354
0.155711063345858 0.240059357337607 2.06632040506093
-0.275619789941353 0.30318682784998 2.08747588726378
-0.270430748204152 0.294696420905932 2.03948145026558
-0.237992091858671 0.316508086165084 2.07324646141799
0.133347856635567 0.271649937475573 2.1497638345397
0.147146702673314 0.26074224273632 2.10804870639053
0.107245436249531 0.288301277572423 2.10792589889548
-0.213575649543094 0.324049663555588 2.11313790344649
-0.18789903774852 0.324816974543771 2.07740159256249
-0.173101245491814 0.324365830280522 2.13182794668603
-0.144015104865877 0.323661506036133 2.09097785247749
-0.130670964296117 0.320591355944857 2.1412123402809
-0.0999196187067072 0.320409786170242 2.09633090210366
-0.0838895777545049 0.317570859735782 2.14417822343694
-0.0550790328783997 0.316952228646858 2.09993904533068
-0.0396173663326104 0.314178333151259 2.15040173251048
-0.0115221672624534 0.313612709726615 2.10381499129208
0.00489205032017133 0.311372475402152 2.15257170037218
0.0326636338421395 0.310586397237338 2.11188338044126
0.0505443382232683 0.30470739289606 2.167722661246
0.0703663079926491 0.304138466256672 2.12461892491211
-0.176224457092576 0.0902477032937642 1.78584001496224
-0.153701802999208 0.0557012598695603 1.77110741789557
-0.108002174755899 0.0581992815415186 1.77875307726215
-0.0592847429729198 0.0541384694077478 1.78449262831472
-0.0144069915984058 0.0560408098483283 1.79204712144235
0.0309652848337454 0.0553533088547744 1.79870020882704
0.0769715363022914 0.0514489254464282 1.80611248142143
-0.221297174703205 0.0986531454367286 1.79739745008314
-0.178740767329025 0.125744437719707 1.81230540097658
-0.132697835224771 0.100416955862757 1.7971364601095
-0.0817658221161515 0.0935668760610637 1.8012419877752
-0.0374870262015372 0.0969739909648591 1.81122993362929
0.00701659368586995 0.0970591647007197 1.8191203966925
0.0521894923391454 0.0942991448761904 1.82505450688942
0.0956002675196505 0.0846376611763543 1.8323701923628
0.130175939336048 0.0876055243274556 1.85750191613498
-0.22630411909923 0.133309486886694 1.82913275764614
-0.18647765015028 0.158336582022729 1.84650058563672
-0.14056329314468 0.142023557927807 1.8332823625095
-0.101349360895341 0.126097395298247 1.82426978621628
-0.058606485778151 0.131505352402726 1.83846316638707
-0.014928100144707 0.132302580104139 1.84806554345987
0.0331739084370613 0.128738810809373 1.85389453555226
0.0830041982059505 0.121080642552663 1.8601375436814
0.127709097653182 0.119376483702647 1.88908399025134
-0.233235019753703 0.164729488787489 1.8644188409889
-0.18824088415743 0.189685265829481 1.87964956389277
-0.142182144576355 0.175010935659103 1.86819970466859
-0.0955698456666255 0.158716373538721 1.86012928896337
-0.0486847555490237 0.165594529423877 1.87686964801818
0.00149761390404753 0.161800012781478 1.88286889376461
0.0492902378804813 0.157808922064154 1.88819174895081
0.091375100498962 0.150095574636429 1.89595792631441
0.126474557769016 0.153138439274308 1.92536226106531
-0.236793535216747 0.195223696815745 1.89746132681289
-0.190837694151706 0.219504730887414 1.91125002734685
-0.141879814927583 0.208273516130858 1.90379565990431
-0.0993024726675329 0.190688414271643 1.89353780985318
-0.0614915761788412 0.199447382982363 1.91046990596813
-0.0167837749105981 0.19372763199096 1.91331546151242
0.0312139751755052 0.190273111024694 1.91923989976137
0.0802521636828435 0.184065324313766 1.92706759144349
0.125367310743473 0.183452319114259 1.95794044441051
-0.240086373134462 0.224879072096226 1.92954784136997
-0.197248666708452 0.248976963596804 1.94286472608019
-0.147240358001657 0.239653776735498 1.9362455241619
-0.0980071332594329 0.227770468332679 1.93341400656791
-0.0464872728243511 0.228135652369655 1.94412455204276
0.0016728593261517 0.223653649465991 1.94898442562318
0.0480697163352259 0.220363439592621 1.95482559790867
0.0895494674205531 0.213327978161904 1.96374947584128
0.12449396057205 0.216665334221087 1.99396634177604
-0.244803455081808 0.256784872307815 1.96463907930425
-0.207000178342326 0.278912818579426 1.97627753244712
-0.160010610595067 0.272519057152059 1.96886582901703
-0.113400978347242 0.262678661977744 1.96762369273793
-0.0687540694274743 0.258419922704078 1.97201731865611
-0.0197922745091945 0.256397224865115 1.97966536303573
0.029005944166072 0.252960104203029 1.98576839094613
0.0780813461290016 0.247420064774222 1.9946844087402
0.122851138399568 0.246403452471364 2.02634651538957
-0.240666072175638 0.290544192461476 2.00462529936129
-0.184141099044191 0.300759039597508 2.00534525177408
-0.135401167321559 0.294696185274401 2.00370423924214
-0.0907658272159926 0.29010961119271 2.00701912353176
-0.0459007031477554 0.286191810436551 2.01149837699375
0.00046323349856732 0.283369430841078 2.01808636925808
0.0455265080614506 0.280611962640623 2.02462853952441
0.0862016742221654 0.27395241001547 2.03453371184149
0.118003387775019 0.272572984772332 2.06785228465157
-0.215814499315772 0.312081535702257 2.03637564909983
-0.161671934038946 0.315704695072463 2.04217818030808
-0.115909977386827 0.312429625983041 2.04804535823525
-0.0708468806040007 0.308624780644219 2.05205281843958
-0.025091614932505 0.304778669518953 2.0562098258419
0.0220409520506072 0.30180376296778 2.06342764501352
0.0689566509914221 0.29675845295107 2.07348207690847
3 0 1 2
3 0 2 4
3 3 0 4
3 3 4 6
3 5 3 6
3 5 6 8
3 7 5 8
3 7 8 10
3 9 7 10
3 9 10 12
3 11 9 12
3 13 11 14
3 14 11 12
3 13 14 15
3 16 17 18
3 16 18 1
3 0 19 1
3 19 16 1
3 0 3 20
3 19 0 20
3 3 5 21
3 20 3 21
3 5 7 22
3 21 5 22
3 7 9 23
3 22 7 23
3 9 11 24
3 23 9 24
3 24 11 25
3 25 11 13
3 13 15 26
3 27 13 26
3 25 13 27
3 27 26 28
3 17 16 30
3 30 16 29
3 29 19 31
3 29 16 19
3 31 20 32
3 31 19 20
3 32 21 33
3 32 20 21
3 21 22 33
3 33 22 34
3 22 23 34
3 34 23 35
3 23 24 35
3 35 24 36
3 24 25 36
3 36 25 37
3 37 27 38
3 37 25 27
3 38 28 39
3 38 27 28
3 30 40 41
3 30 29 40
3 29 31 42
3 40 29 42
3 31 32 43
3 42 31 43
3 32 33 44
3 43 32 44
3 33 34 45
3 44 33 45
3 34 35 46
3 45 34 46
3 35 36 47
3 46 35 47
3 36 37 47
3 47 37 48
3 37 38 48
3 48 38 49
3 49 39 50
3 49 38 39
3 40 51 52
3 41 40 52
3 51 42 53
3 51 40 42
3 42 43 53
3 53 43 54
3 43 44 54
3 54 44 55
3 44 45 55
3 55 45 56
3 45 46 56
3 56 46 57
3 46 47 58
3 57 46 58
3 47 48 59
3 58 47 59
3 48 49 60
3 59 48 60
3 49 50 61
3 60 49 61
3 51 62 63
3 52 51 63
3 51 53 64
3 62 51 64
3 53 54 65
3 64 53 65
3 54 55 66
3 65 54 66
3 55 56 67
3 66 55 67
3 56 57 67
3 67 57 68
3 57 58 69
3 68 57 69
3 58 59 69
3 69 59 70
3 59 60 70
3 70 60 71
3 71 61 72
3 71 60 61
3 62 73 74
3 63 62 74
3 62 64 75
3 73 62 75
3 64 65 75
3 75 65 76
3 65 66 76
3 76 66 77
3 66 67 77
3 77 67 78
3 67 68 78
3 78 68 79
3 79 69 80
3 79 68 69
3 80 70 81
3 80 69 70
3 81 71 82
3 81 70 71
3 82 72 83
3 82 71 72
3 74 73 85
3 85 73 84
3 84 73 86
3 86 73 75
3 75 76 86
3 86 76 87
3 76 77 88
3 87 76 88
3 77 78 89
3 88 77 89
3 78 79 90
3 89 78 90
3 79 80 91
3 90 79 91
3 80 81 92
3 91 80 92
3 81 82 93
3 92 81 93
3 93 83 94
3 93 82 83
3 84 95 85
3 84 86 96
3 97 84 96
3 95 84 97
3 96 87 98
3 96 86 87
3 87 88 98
3 98 88 99
3 88 89 99
3 99 89 100
3 89 90 100
3 100 90 101
3 101 91 102
3 101 90 91
3 102 92 103
3 102 91 92
3 92 93 103
3 105 103 104
3 103 93 104
3 93 94 104
3 96 106 97
3 96 98 107
3 106 96 107
3 98 99 108
3 107 98 108
3 99 100 109
3 108 99 109
3 100 101 110
3 109 100 110
3 101 102 111
3 110 101 111
3 111 102 112
3 112 102 103
3 103 105 112
3 117 114 115
3 116 113 117
3 117 113 114
3 116 117 119
3 118 116 119
3 118 119 121
3 120 118 121
3 120 121 123
3 122 120 123
3 122 123 125
3 124 122 125
3 124 125 127
3 126 124 127
3 126 127 128
3 129 130 131
3 114 129 131
3 114 113 129
3 113 2 129
3 129 2 1
3 4 113 116
3 4 2 113
3 6 116 118
3 6 4 116
3 8 118 120
3 8 6 118
3 10 120 122
3 10 8 120
3 12 122 124
3 12 10 122
3 14 124 126
3 14 12 124
3 133 126 128
3 15 14 126
3 15 126 133
3 132 15 133
3 132 133 134
3 135 136 137
3 137 17 135
3 137 18 17
3 18 137 130
3 129 18 130
3 18 129 1
3 15 132 26
3 139 132 134
3 139 138 132
3 138 28 26
3 132 138 26
3 138 139 140
3 136 135 142
3 142 135 141
3 17 30 135
3 135 30 141
3 143 39 28
3 138 143 28
3 143 140 144
3 143 138 140
3 141 145 146
3 142 141 146
3 41 145 141
3 30 41 141
3 147 39 143
3 147 50 39
3 147 144 148
3 147 143 144
3 145 149 150
3 146 145 150
3 52 149 145
3 41 52 145
3 151 50 147
3 151 155 50
3 151 148 152
3 151 147 148
3 149 153 154
3 150 149 154
3 63 153 149
3 52 63 149
3 155 61 50
3 155 72 61
3 155 151 156
3 156 151 152
3 154 157 158
3 154 153 157
3 74 157 153
3 63 74 153
3 159 72 155
3 159 83 72
3 159 156 160
3 159 155 156
3 158 157 162
3 162 157 161
3 74 85 161
3 157 74 161
3 163 83 159
3 163 94 83
3 163 160 164
3 163 159 160
3 161 165 162
3 165 95 166
3 165 161 95
3 161 85 95
3 165 166 167
3 95 97 166
3 105 104 168
3 170 94 163
3 170 168 94
3 169 168 170
3 94 168 104
3 163 164 170
3 166 171 167
3 173 171 172
3 172 171 106
3 171 97 106
3 171 166 97
3 172 107 174
3 172 106 107
3 174 108 175
3 174 107 108
3 175 109 176
3 175 108 109
3 176 110 177
3 176 109 110
3 177 111 178
3 177 110 111
3 178 112 180
3 178 111 112
3 181 105 168
3 181 180 105
3 179 178 180
3 180 112 105
3 168 169 181
3 172 182 173
3 182 172 183
3 183 172 174
3 174 175 184
3 183 174 184
3 175 176 185
3 184 175 185
3 176 177 186
3 185 176 186
3 177 178 187
3 186 177 187
3 187 179 188
3 187 178 179
3 179 180 229
3 189 190 191
3 114 131 191
3 115 114 191
3 115 191 192
3 115 192 193
3 117 115 193
3 119 193 194
3 119 117 193
3 119 194 121
3 121 194 195
3 121 195 123
3 123 195 196
3 123 196 125
3 125 196 197
3 127 197 198
3 127 125 197
3 128 198 199
3 200 128 199
3 128 127 198
3 200 199 201
3 202 203 204
3 131 130 189
3 190 189 204
3 189 130 202
3 189 202 204
3 131 189 191
3 128 200 133
3 134 200 205
3 206 205 201
3 134 133 200
3 205 200 201
3 205 206 207
3 136 208 203
3 202 137 136
3 202 136 203
3 137 202 130
3 134 205 139
3 139 205 207
3 140 139 207
3 211 207 209
3 136 142 208
3 208 142 210
3 211 140 207
3 211 144 140
3 146 212 210
3 142 146 210
3 148 144 213
3 213 144 211
3 150 214 212
3 146 150 212
3 215 148 213
3 215 152 148
3 154 216 150
3 150 216 214
3 219 152 217
3 217 152 215
3 158 218 216
3 154 158 216
3 219 156 152
3 219 160 156
3 158 220 218
3 158 162 220
3 221 160 219
3 221 164 160
3 162 165 222
3 223 220 222
3 220 162 222
3 165 167 222
3 169 170 224
3 225 164 221
3 224 170 164
3 224 164 225
3 222 226 223
3 167 171 227
3 226 167 227
3 226 227 228
3 226 222 167
3 171 173 227
3 180 181 229
3 181 169 230
3 231 169 224
3 230 169 231
3 230 229 181
3 224 225 271
3 227 232 228
3 232 182 233
3 232 173 182
3 227 173 232
3 182 183 234
3 233 182 234
3 183 184 234
3 234 184 235
3 184 185 235
3 235 185 236
3 185 186 236
3 236 186 237
3 186 187 237
3 237 187 238
3 238 188 239
3 238 187 188
3 188 179 229
3 240 239 188
3 240 188 229
3 229 230 240
3 191 190 242
3 242 190 241
3 192 242 243
3 192 191 242
3 192 243 244
3 193 192 244
3 194 244 245
3 194 193 244
3 194 245 246
3 195 194 246
3 195 246 247
3 196 195 247
3 196 247 248
3 197 196 248
3 197 248 249
3 198 197 249
3 199 198 249
3 250 199 249
3 201 199 251
3 251 199 250
3 204 252 253
3 204 203 252
3 190 253 241
3 190 204 253
3 206 251 254
3 206 201 251
3 207 206 255
3 255 206 254
3 203 256 252
3 203 208 256
3 257 209 255
3 255 209 207
3 210 258 208
3 208 258 256
3 211 209 259
3 259 209 257
3 212 260 210
3 210 260 258
3 213 211 259
3 261 213 259
3 214 262 260
3 212 214 260
3 215 213 261
3 263 215 261
3 216 264 214
3 214 264 262
3 217 215 263
3 265 217 263
3 218 266 264
3 216 218 264
3 219 217 265
3 267 219 265
3 218 268 266
3 218 220 268
3 221 219 267
3 269 221 267
3 223 270 268
3 220 223 268
3 225 221 269
3 271 225 269
3 223 226 272
3 270 223 272
3 272 228 273
3 272 226 228
3 274 231 275
3 274 230 231
3 275 231 271
3 271 231 224
3 273 228 276
3 276 228 232
3 276 233 277
3 276 232 233
3 233 234 278
3 277 233 278
3 234 235 279
3 278 234 279
3 235 236 280
3 279 235 280
3 236 237 281
3 280 236 281
3 237 238 282
3 281 237 282
3 238 239 283
3 282 238 283
3 327 239 284
3 284 239 240
3 240 230 274
3 284 240 274
3 241 285 286
3 242 241 286
3 242 286 243
3 243 286 287
3 243 287 288
3 244 243 288
3 245 288 289
3 245 244 288
3 245 289 246
3 246 289 290
3 246 290 247
3 247 290 291
3 247 291 248
3 248 291 292
3 248 292 293
3 249 248 293
3 249 293 250
3 250 293 294
3 250 294 295
3 251 250 295
3 252 296 297
3 253 252 297
3 241 297 285
3 241 253 297
3 254 295 298
3 254 251 295
3 254 298 299
3 255 254 299
3 256 300 252
3 252 300 296
3 257 255 299
3 301 257 299
3 258 302 300
3 256 258 300
3 259 257 303
3 303 257 301
3 260 304 258
3 258 304 302
3 261 259 303
3 305 261 303
3 262 306 304
3 260 262 304
3 263 261 305
3 307 263 305
3 264 308 262
3 262 308 306
3 265 263 307
3 309 265 307
3 266 310 308
3 264 266 308
3 267 265 309
3 311 267 309
3 266 312 310
3 266 268 312
3 269 267 311
3 313 269 311
3 270 314 312
3 268 270 312
3 271 269 315
3 315 269 313
3 270 272 316
3 314 270 316
3 316 273 317
3 316 272 273
3 318 275 319
3 318 274 275
3 275 271 315
3 319 275 315
3 273 276 320
3 317 273 320
3 276 277 320
3 320 277 321
3 277 278 322
3 321 277 322
3 322 279 323
3 322 278 279
3 279 280 323
3 323 280 324
3 280 281 324
3 324 281 325
3 281 282 325
3 325 282 326
3 282 283 326
3 326 283 327
3 283 239 327
3 327 284 328
3 284 274 318
3 328 284 318
3 285 329 330
3 286 285 330
3 286 330 287
3 287 330 331
3 287 331 332
3 288 287 332
3 288 332 289
3 289 332 333
3 289 333 334
3 290 289 334
3 290 334 335
3 291 290 335
3 291 335 292
3 292 335 336
3 292 336 337
3 293 292 337
3 293 337 294
3 294 337 338
3 294 338 339
3 295 294 339
3 296 340 341
3 297 296 341
3 285 341 329
3 285 297 341
3 298 339 342
3 298 295 339
3 298 342 343
3 299 298 343
3 300 344 296
3 296 344 340
3 301 299 343
3 345 301 343
3 302 346 344
3 300 302 344
3 303 301 347
3 347 301 345
3 304 348 302
3 302 348 346
3 305 303 347
3 349 305 347
3 306 350 348
3 304 306 348
3 307 305 351
3 351 305 349
3 308 352 306
3 306 352 350
3 309 307 353
3 353 307 351
3 310 354 352
3 308 310 352
3 311 309 355
3 355 309 353
3 312 356 310
3 310 356 354
3 313 311 355
3 357 313 355
3 314 358 356
3 312 314 356
3 315 313 359
3 359 313 357
3 314 316 360
3 358 314 360
3 360 317 361
3 360 316 317
3 362 319 363
3 362 318 319
3 319 315 359
3 363 319 359
3 317 320 364
3 361 317 364
3 320 321 364
3 364 321 365
3 321 322 366
3 365 321 366
3 322 323 366
3 366 323 367
3 323 324 368
3 367 323 368
3 324 325 369
3 368 324 369
3 325 326 370
3 369 325 370
3 326 327 371
3 370 326 371
3 327 328 371
3 371 328 372
3 328 318 362
3 372 328 362
3 329 373 374
3 330 329 374
3 330 374 331
3 331 374 375
3 331 375 376
3 332 331 376
3 332 376 333
3 333 376 377
3 333 377 378
3 334 333 378
3 334 378 379
3 335 334 379
3 335 379 336
3 336 379 380
3 336 380 381
3 337 336 381
3 337 381 338
3 338 381 382
3 338 382 383
3 339 338 383
3 340 384 385
3 341 340 385
3 329 385 373
3 329 341 385
3 342 383 386
3 342 339 383
3 342 386 387
3 343 342 387
3 344 388 340
3 340 388 384
3 345 343 387
3 389 345 387
3 346 390 388
3 344 346 388
3 347 345 391
3 391 345 389
3 348 392 346
3 346 392 390
3 349 347 391
3 393 349 391
3 350 394 348
3 348 394 392
3 351 349 395
3 395 349 393
3 352 396 350
3 350 396 394
3 353 351 395
3 397 353 395
3 354 398 396
3 352 354 396
3 355 353 399
3 399 353 397
3 356 400 354
3 354 400 398
3 357 355 399
3 401 357 399
3 358 402 400
3 356 358 400
3 359 357 403
3 403 357 401
3 358 360 404
3 402 358 404
3 404 361 405
3 404 360 361
3 406 363 407
3 406 362 363
3 363 359 403
3 407 363 403
3 361 364 408
3 405 361 408
3 364 365 408
3 408 365 409
3 365 366 410
3 409 365 410
3 366 367 410
3 410 367 411
3 367 368 412
3 411 367 412
3 368 369 412
3 412 369 413
3 369 370 413
3 413 370 414
3 370 371 415
3 414 370 415
3 371 372 415
3 415 372 416
3 372 362 406
3 416 372 406
3 373 417 418
3 374 373 418
3 374 418 375
3 375 418 419
3 375 419 420
3 376 375 420
3 376 420 377
3 377 420 421
3 377 421 422
3 378 377 422
3 378 422 423
3 379 378 423
3 380 423 424
3 380 379 423
3 380 424 425
3 381 380 425
3 382 425 426
3 382 381 425
3 382 426 427
3 383 382 427
3 384 428 429
3 385 384 429
3 373 429 417
3 373 385 429
3 386 427 430
3 386 383 427
3 386 430 431
3 387 386 431
3 384 432 428
3 384 388 432
3 389 387 431
3 433 389 431
3 390 434 432
3 388 390 432
3 435 389 433
3 435 391 389
3 390 436 434
3 390 392 436
3 393 391 435
3 437 393 435
3 394 438 436
3 392 394 436
3 395 393 439
3 439 393 437
3 396 440 438
3 394 396 438
3 397 395 439
3 441 397 439
3 398 442 440
3 396 398 440
3 399 397 443
3 443 397 441
3 400 444 398
3 398 444 442
3 401 399 443
3 445 401 443
3 402 446 444
3 400 402 444
3 403 401 447
3 447 401 445
3 402 404 448
3 446 402 448
3 448 405 449
3 448 404 405
3 450 407 451
3 450 406 407
3 407 403 447
3 451 407 447
3 405 408 452
3 449 405 452
3 408 409 452
3 452 409 453
3 409 410 454
3 453 409 454
3 410 411 454
3 454 411 455
3 411 412 456
3 455 411 456
3 412 413 456
3 456 413 457
3 457 414 458
3 457 413 414
3 414 415 459
3 458 414 459
3 415 416 459
3 459 416 460
3 416 406 450
3 460 416 450
3 418 461 462
3 418 417 461
3 419 462 463
3 419 418 462
3 419 463 464
3 420 419 464
3 420 464 421
3 421 464 465
3 421 465 466
3 422 421 466
3 422 466 467
3 423 422 467
3 424 467 468
3 424 423 467
3 424 468 469
3 425 424 469
3 426 469 470
3 426 425 469
3 427 426 471
3 471 426 470
3 429 428 473
3 473 428 472
3 417 473 505
3 417 429 473
3 430 427 471
3 520 430 471
3 431 474 475
3 431 430 474
3 428 476 472
3 428 432 476
3 433 431 475
3 477 433 475
3 434 478 476
3 432 434 476
3 479 433 477
3 479 435 433
3 434 480 478
3 434 436 480
3 437 435 479
3 481 437 479
3 438 482 436
3 436 482 480
3 439 437 483
3 483 437 481
3 440 484 482
3 438 440 482
3 441 439 483
3 485 441 483
3 442 486 440
3 440 486 484
3 443 441 487
3 487 441 485
3 444 488 442
3 442 488 486
3 445 443 487
3 489 445 487
3 444 446 488
3 488 446 490
3 491 445 489
3 491 447 445
3 490 446 492
3 492 446 448
3 492 449 493
3 492 448 449
3 494 451 495
3 494 450 451
3 451 447 491
3 495 451 491
3 449 452 496
3 493 449 496
3 496 453 497
3 496 452 453
3 453 454 498
3 497 453 498
3 498 455 499
3 498 454 455
3 455 456 500
3 499 455 500
3 456 457 501
3 500 456 501
3 457 458 502
3 501 457 502
3 458 459 503
3 502 458 503
3 503 460 504
3 503 459 460
3 504 460 494
3 494 460 450
3 461 505 506
3 462 461 506
3 507 463 462
3 507 462 506
3 465 463 508
3 508 463 507
3 464 463 465
3 465 508 509
3 465 509 466
3 466 509 510
3 466 510 467
3 467 510 511
3 467 511 468
3 468 511 512
3 468 512 513
3 469 468 513
3 469 513 470
3 515 470 514
3 470 513 514
3 470 515 471
3 472 516 473
3 518 516 517
3 518 505 516
3 461 417 505
3 505 473 516
3 505 518 506
3 515 514 519
3 474 430 520
3 521 520 519
3 520 471 515
3 520 515 519
3 474 520 524
3 476 522 472
3 516 472 523
3 472 522 523
3 516 523 517
3 520 521 524
3 477 475 524
3 524 475 474
3 525 477 524
3 478 526 522
3 476 478 522
3 527 477 525
3 527 479 477
3 478 528 526
3 478 480 528
3 481 479 527
3 529 481 527
3 482 530 480
3 480 530 528
3 483 481 531
3 531 481 529
3 484 532 530
3 482 484 530
3 485 483 531
3 533 485 531
3 486 534 484
3 484 534 532
3 535 485 533
3 535 487 485
3 486 536 534
3 486 488 536
3 537 489 535
3 535 489 487
3 490 538 539
3 536 490 539
3 488 490 536
3 538 540 539
3 541 542 543
3 541 489 537
3 542 541 537
3 541 491 489
3 490 492 538
3 545 493 544
3 538 492 493
3 538 493 545
3 540 538 545
3 544 546 545
3 547 548 549
3 543 495 541
3 547 494 495
3 547 495 543
3 608 547 543
3 495 491 541
3 493 496 544
3 544 497 550
3 546 544 550
3 544 496 497
3 550 497 551
3 551 497 498
3 498 499 551
3 551 499 552
3 499 500 552
3 552 500 553
3 500 501 553
3 553 501 554
3 554 502 555
3 554 501 502
3 502 503 556
3 555 502 556
3 503 504 556
3 549 504 547
3 556 504 549
3 504 494 547
3 506 557 507
3 507 557 558
3 508 507 558
3 508 558 559
3 509 508 559
3 509 559 560
3 510 509 560
3 510 560 561
3 511 510 561
3 511 561 562
3 512 511 562
3 514 512 563
3 563 512 562
3 513 512 514
3 517 564 518
3 518 564 557
3 566 564 565
3 557 564 566
3 557 506 518
3 558 566 567
3 558 557 566
3 559 567 568
3 559 558 567
3 560 568 569
3 560 559 568
3 561 569 570
3 561 560 569
3 562 570 571
3 562 561 570
3 563 562 571
3 572 563 571
3 574 514 563
3 572 574 563
3 573 519 574
3 574 519 514
3 519 573 521
3 522 575 523
3 577 575 576
3 577 517 575
3 564 517 577
3 575 517 523
3 564 577 565
3 573 574 572
3 521 573 579
3 580 573 578
3 579 573 580
3 579 524 521
3 524 579 525
3 522 581 575
3 522 526 581
3 576 581 582
3 576 575 581
3 583 580 584
3 583 579 580
3 583 525 579
3 583 527 525
3 526 585 581
3 526 528 585
3 582 585 586
3 582 581 585
3 587 584 588
3 587 583 584
3 587 527 583
3 587 529 527
3 528 589 585
3 528 530 589
3 586 589 590
3 586 585 589
3 591 588 592
3 591 587 588
3 591 529 587
3 591 531 529
3 532 593 589
3 530 532 589
3 590 593 594
3 590 589 593
3 595 592 596
3 595 591 592
3 595 531 591
3 595 533 531
3 534 597 593
3 532 534 593
3 594 597 598
3 594 593 597
3 599 596 600
3 599 595 596
3 599 533 595
3 599 535 533
3 534 601 597
3 534 536 601
3 602 597 601
3 602 598 597
3 603 599 600
3 604 603 600
3 603 535 599
3 603 537 535
3 536 539 601
3 606 540 605
3 606 602 540
3 602 601 539
3 540 602 539
3 605 607 606
3 608 609 610
3 608 543 609
3 604 542 603
3 609 543 542
3 609 542 604
3 542 537 603
3 540 545 605
3 605 546 607
3 612 607 611
3 605 545 546
3 607 546 611
3 612 613 614
3 612 611 613
3 614 615 616
3 614 613 615
3 616 617 618
3 616 615 617
3 618 619 620
3 618 617 619
3 620 621 622
3 620 619 621
3 622 623 624
3 622 621 623
3 610 548 608
3 624 623 548
3 624 548 610
3 548 623 549
3 548 547 608
3 546 550 611
3 611 550 613
3 613 550 551
3 551 552 615
3 613 551 615
3 552 553 617
3 615 552 617
3 553 554 619
3 617 553 619
3 554 555 621
3 619 554 621
3 621 555 623
3 623 555 556
3 556 549 623
3 565 625 626
3 567 566 626
3 626 566 565
3 567 626 627
3 568 567 627
3 568 627 628
3 569 568 628
3 569 628 629
3 570 569 629
3 570 629 630
3 571 570 630
3 572 571 631
3 631 571 630
3 572 631 578
3 576 632 577
3 625 632 633
3 565 577 632
3 565 632 625
3 625 633 634
3 626 625 634
3 626 634 627
3 627 634 635
3 627 635 628
3 628 635 636
3 628 636 629
3 629 636 637
3 629 637 630
3 630 637 638
3 631 638 639
3 631 630 638
3 640 578 639
3 578 573 572
3 578 631 639
3 578 640 580
3 576 641 632
3 576 582 641
3 633 641 642
3 633 632 641
3 633 642 643
3 634 633 643
3 634 643 644
3 635 634 644
3 635 644 645
3 636 635 645
3 636 645 646
3 637 636 646
3 637 646 647
3 638 637 647
3 638 647 648
3 639 638 648
3 640 648 649
3 640 639 648
3 584 580 640
3 649 584 640
3 582 650 641
3 582 586 650
3 642 650 651
3 642 641 650
3 642 651 652
3 643 642 652
3 643 652 653
3 644 643 653
3 644 653 645
3 645 653 654
3 645 654 646
3 646 654 655
3 646 655 647
3 647 655 656
3 647 656 648
3 648 656 657
3 648 657 649
3 649 657 658
3 588 584 649
3 658 588 649
3 586 659 650
3 586 590 659
3 650 659 651
3 651 659 660
3 651 660 661
3 652 651 661
3 652 661 662
3 653 652 662
3 653 662 654
3 654 662 663
3 654 663 664
3 655 654 664
3 655 664 665
3 656 655 665
3 656 665 666
3 657 656 666
3 657 666 658
3 658 666 667
3 592 588 658
3 667 592 658
3 590 668 659
3 590 594 668
3 660 668 669
3 660 659 668
3 660 669 670
3 661 660 670
3 661 670 671
3 662 661 671
3 662 671 663
3 663 671 672
3 663 672 664
3 664 672 673
3 664 673 665
3 665 673 674
3 665 674 666
3 666 674 675
3 666 675 667
3 667 675 676
3 596 592 667
3 676 596 667
3 594 677 668
3 594 598 677
3 668 677 669
3 669 677 678
3 669 678 679
3 670 669 679
3 670 679 680
3 671 670 680
3 671 680 681
3 672 671 681
3 672 681 682
3 673 672 682
3 673 682 683
3 674 673 683
3 674 683 684
3 675 674 684
3 676 684 685
3 676 675 684
3 600 596 676
3 685 600 676
3 598 686 677
3 598 602 606
3 678 686 687
3 678 677 686
3 678 687 679
3 679 687 688
3 679 688 680
3 680 688 689
3 680 689 681
3 681 689 690
3 681 690 682
3 682 690 691
3 683 691 692
3 683 682 691
3 684 692 693
3 684 683 692
3 685 693 694
3 685 684 693
3 694 604 685
3 685 604 600
3 598 606 686
3 606 607 695
3 686 606 695
3 686 695 687
3 688 687 696
3 696 687 695
3 688 696 697
3 689 688 697
3 689 697 698
3 690 689 698
3 690 698 699
3 691 690 699
3 691 699 700
3 692 691 700
3 692 700 701
3 693 692 701
3 610 609 694
3 701 610 694
3 701 694 693
3 609 604 694
3 607 612 695
3 695 612 696
3 696 612 614
3 614 616 697
3 696 614 697
3 616 618 698
3 697 616 698
3 618 620 699
3 698 618 699
3 620 622 700
3 699 620 700
3 622 624 701
3 700 622 701
3 624 610 701
