OFF
702 1400 0
-0.260772979166699 -0.325713478607964 2.2129558476007
-0.306207956567222 -0.312118456887792 2.19510057535293
-0.278133330087007 -0.331775785867701 2.16775520994356
-0.213892895006691 -0.332276349776711 2.21764511760497
-0.232185037297828 -0.342466958765013 2.17302036073338
-0.167077281505951 -0.336904521302169 2.22075704496278
-0.185789383369783 -0.346679763779862 2.17510884116088
-0.121691032840781 -0.340872516492207 2.22506737015645
-0.140458685137798 -0.350686136008575 2.17689875857955
-0.0767895805729822 -0.344642155020928 2.22973316136538
-0.095691138932503 -0.354258259251919 2.18148298460923
-0.0292771055751649 -0.347617266699932 2.23729243514527
-0.0498906959049299 -0.357443297275361 2.18991351005354
0.0188399922372335 -0.34310030773409 2.24551691694128
-0.00256011704749511 -0.358932462465515 2.19885001541395
0.0439721019945736 -0.349962053558646 2.20746205611662
-0.328772070790476 -0.283313207673041 2.2231292847773
-0.358531407000995 -0.266181888928274 2.19558700294782
-0.337391779485384 -0.296422959205411 2.16735064117803
-0.28830645405541 -0.29911725280613 2.24291307151498
-0.241597094710754 -0.308026282489427 2.25491093722993
-0.19389393275633 -0.313281048902459 2.25870710035794
-0.147116781050208 -0.317144728548396 2.2640247373196
-0.101889921171166 -0.32045562236634 2.26978917186323
-0.0575886278080281 -0.325783118187583 2.27232707328524
-0.00892968215187467 -0.32649556929597 2.27950992021732
0.0648098791137542 -0.326875407660874 2.25096482040721
0.0362735750922744 -0.314276989578852 2.28707842034718
0.0823698794300697 -0.294129670466355 2.28451915268306
-0.315764115466353 -0.26211328706094 2.26448843241511
-0.355926118436299 -0.241889990055026 2.23637579830422
-0.269775793098218 -0.275411257927929 2.28208109061634
-0.219821180990932 -0.281678485953356 2.29012193920886
-0.172215166757768 -0.285945316108294 2.29530468889033
-0.124582667750251 -0.288293915524047 2.30243698887583
-0.079868956868447 -0.29094999021125 2.3086738131025
-0.0376284591370386 -0.300292416054944 2.30764365983336
0.0037282963424973 -0.291930275621007 2.31814736101766
0.0493902676480744 -0.278494376856613 2.31936651600436
0.0941975882794859 -0.256237730424545 2.31256478994167
-0.333978403256586 -0.224688629330634 2.28484578988272
-0.367158339294719 -0.203433746016031 2.25822983578019
-0.292986700894936 -0.239414489544072 2.30607460436842
-0.243964541393324 -0.249915574859848 2.31730045823302
-0.195188934895351 -0.251987617323444 2.3251209097407
-0.147731636123671 -0.256683241533918 2.32984033084603
-0.0962184714169901 -0.257409383487936 2.3393903964356
-0.0413667269912189 -0.266758328323376 2.34087102059918
0.00908769329698547 -0.259355374461499 2.35003517366971
0.0595658340476659 -0.243830650553786 2.34848783694367
0.104311415806027 -0.217796558370492 2.34027433791478
-0.317996477675186 -0.200187028084763 2.32714705211092
-0.358504301493408 -0.182614836198192 2.29597041105045
-0.268746867852084 -0.217247233703655 2.34211946188735
-0.221323042646803 -0.219419970036751 2.35289842012671
-0.17576722993743 -0.220358201528899 2.36104446285037
-0.131822963482206 -0.228164868273959 2.36191020359902
-0.098277100386273 -0.216048025278256 2.38088395288497
-0.0634648744006131 -0.235415980365077 2.36821316255137
-0.0211318399844208 -0.231808395633204 2.37895636428641
0.0267755427398305 -0.225252744264747 2.38015813158806
0.0748230968482567 -0.206474478485443 2.37573013593318
-0.321099790502346 -0.159319716802312 2.36698340239606
-0.349191615553483 -0.16182559204755 2.3321858943308
-0.288214282029848 -0.185672767536972 2.36454259013745
-0.241118726399783 -0.187881328457998 2.38089220225987
-0.196358001468782 -0.186542501484416 2.391193980164
-0.14744077085236 -0.191452669931499 2.39598650242698
-0.101983998567416 -0.1855180851904 2.41107605190287
-0.054579541666616 -0.198908563688981 2.40697491029117
-0.00654731381539049 -0.198661740796052 2.41228897682326
0.0412191419971763 -0.191371356571166 2.40869391702408
0.0886790540916877 -0.169264338733352 2.40133638990556
-0.310436176192359 -0.13455633486518 2.40203696167159
-0.354597016890315 -0.122143030993834 2.36683597915906
-0.271772069282718 -0.159020365772529 2.40039937117207
-0.225773616120239 -0.152603277278462 2.41970456163781
-0.175728548636766 -0.157050240527004 2.42519260021646
-0.129913603314462 -0.156724394888651 2.43467165205376
-0.0783738436335188 -0.160681906082911 2.44095299380358
-0.0334291636323611 -0.167185326318383 2.44297861268046
0.012948836316559 -0.164278306070502 2.44411615169798
0.0568718639667846 -0.157092927775026 2.43498782453533
0.0932716998869422 -0.131413189624112 2.43364306080662
-0.305581519093823 -0.0944937541257438 2.43749324432999
-0.339490639849973 -0.103498261127779 2.40446543820855
-0.272170494894246 -0.124747161738551 2.43323903761796
-0.237554602230206 -0.112731456661578 2.45090171602683
-0.194819209383875 -0.121308491703796 2.45257652740555
-0.149684600811355 -0.12149043514068 2.46027912401911
-0.10246855295762 -0.124869375894807 2.46618395377567
-0.0538525947978668 -0.129032850275364 2.47181278511899
-0.00556529657065985 -0.1321850928307 2.47349860177246
0.0460102214994779 -0.126594105648244 2.4657710748639
0.0933821061313386 -0.0955295413357225 2.45769328645995
-0.34681732419166 -0.0640830681441983 2.4210825112548
-0.268318553152702 -0.0749292093227107 2.4631850361305
-0.311851232441411 -0.0504659820243617 2.45214675958496
-0.218837463088983 -0.0755401891723383 2.47240340858606
-0.172796267159947 -0.0803507720638527 2.47751918337274
-0.126108248341914 -0.0813998257315751 2.48412088650521
-0.0803022047328386 -0.0860783111354099 2.48926046549668
-0.0336261294866081 -0.0906657667709103 2.49428074431369
0.0130356954319163 -0.0924565789235891 2.49220968875993
0.0573700654616201 -0.0863774854916929 2.48192499303688
0.0391959778347576 -0.047330650052807 2.49819876783377
-0.284906547086388 -0.0233514000775228 2.4698370004812
-0.2424590365237 -0.0324825557909293 2.47984789211821
-0.193417746209202 -0.0344210839851139 2.48605905929753
-0.147651924818699 -0.0356274631819153 2.49189251339319
-0.10135621400146 -0.0371532269730385 2.49773279949751
-0.0567881959374907 -0.0439584865537078 2.50274382752471
-0.00907855654117974 -0.0484301089530327 2.50571912008038
-0.256221574879076 -0.339921719410864 2.12856013577067
-0.28001803614909 -0.326226282437721 2.09299062615724
-0.256498841868522 -0.319835867282077 2.0553641775402
-0.206617782917004 -0.346534407601027 2.12922851581458
-0.228260830521735 -0.337855158006796 2.08809137512809
-0.160568442688145 -0.349548896857673 2.12858508515908
-0.180113787866708 -0.338510592892444 2.08252395878964
-0.115157391716427 -0.352738819507116 2.13114042175815
-0.134805299467834 -0.340341057050195 2.08321614227422
-0.0698276639841983 -0.356507416236706 2.13886652733676
-0.0872309647402724 -0.344175985804476 2.08938297863329
-0.0249114188190724 -0.360466071601378 2.14928177476397
-0.0415137424211845 -0.349024938123464 2.0986368609448
0.0211554768210729 -0.359203983559469 2.15778828549719
0.00270271980785645 -0.353323498184966 2.10997412932591
0.0506487365001217 -0.346534006588716 2.11889357349074
-0.307719632630312 -0.319414034570458 2.13621658144324
-0.346114212837153 -0.288919225951243 2.11998507029923
-0.316631246458983 -0.304959054408089 2.08769321171818
0.0887635845176041 -0.329886319353952 2.21149004103858
0.0643648010895247 -0.347581373051165 2.16694352504819
0.104105608805669 -0.326279347334498 2.1687569043342
-0.383706896173236 -0.230504512805645 2.18566193131368
-0.394030959243847 -0.218421537646827 2.13597961447936
-0.371381170901181 -0.260894713941925 2.14929231114225
0.109972647211206 -0.301423483455965 2.24484117328777
0.130523253535594 -0.300279144078033 2.20047667499141
0.147776115253398 -0.268847571582833 2.2275007954771
-0.385714015699178 -0.20161135522262 2.21690908556956
-0.401559044956616 -0.185843855654234 2.1704840745605
0.124052051277341 -0.265490012900106 2.27278574658839
0.155252786481064 -0.229339482206749 2.25780902216895
-0.389251646746061 -0.162761772570268 2.25045961133764
-0.401948713055477 -0.155704324421862 2.20666361906932
0.132108925091706 -0.224973956488707 2.30049414147528
0.161887761763513 -0.187323839289993 2.28173109656256
-0.383606071709637 -0.143432124784747 2.28810405965337
-0.403996246974305 -0.115281482028097 2.24568226017405
0.140971413510607 -0.183800525024238 2.32564528018639
0.166521326343927 -0.145263506108252 2.30766542714809
-0.375610469927808 -0.125130613563894 2.32687009546024
-0.39933577708946 -0.0971844061125216 2.29083231042605
0.117833686302493 -0.17663406971574 2.36484259992836
0.150507308817168 -0.138651753470176 2.35035514195981
-0.389186003425064 -0.0850299728427479 2.33875920968369
-0.40733228508647 -0.0508932119703972 2.30726075861053
0.125451874930222 -0.136588608198443 2.39307059057415
0.155810641276567 -0.0985809090480644 2.37579459936605
-0.373604602366959 -0.0772021698399562 2.38018304655591
-0.397716013643531 -0.0394152732384563 2.35453327531951
0.12910207822329 -0.0991517457414633 2.42110846460726
0.15295113350843 -0.0613427504218754 2.40710444233044
-0.376249987540884 -0.0319433029723846 2.39733765996295
-0.344088750020455 -0.0204583851808149 2.43474541363081
-0.363722997767456 0.0129048097586108 2.41485971927926
0.0863732260897027 -0.0484699151160937 2.47743346291891
0.109855427755414 -0.00928547648754892 2.46293313818818
0.123074929355004 -0.0569455175978405 2.44703956644286
-0.318477072829721 0.00715072378762272 2.45372564765062
-0.265950091285433 0.0177498562112165 2.47546763862921
-0.297778433967985 0.0459475893669811 2.45788098391723
-0.216396624824191 0.00897286091658452 2.48428568695481
-0.169131379504593 0.0117073035876617 2.48939415768065
-0.12252950790271 0.0101630692788189 2.49479583756759
-0.0757141850999162 0.00855227681717498 2.50020817564977
-0.0328066753601397 -0.00231607588881015 2.50618911674539
-0.00717980954355761 0.0339484974987839 2.49995651677148
0.0178541485103498 -0.00622821638390324 2.5043775962487
0.0665615664358204 -0.00625985874194508 2.48943999162832
-0.26414322230453 0.0750999514861814 2.45981808954822
-0.23264120965235 0.0514252790238709 2.4746206051339
-0.188496266846908 0.0565389231736258 2.47722082516573
-0.142405518232482 0.0563759475283665 2.481588168649
-0.0957327045974695 0.0541929291344348 2.4867092240171
-0.0473372896879764 0.0522840892438497 2.49186982679295
0.00861423774528848 0.070811796126351 2.48391043255967
-0.344192930418823 -0.273614668620829 2.07038305395122
-0.32787937228592 -0.261214074633312 2.03103953133566
-0.297435590712679 -0.296862771834309 2.04577155904376
-0.248669957707797 -0.298421178695865 2.01883007375273
-0.206812533946858 -0.321533238867139 2.04549130415826
-0.156267811042676 -0.317613380961674 2.03863270375144
-0.106310535020498 -0.322868148150794 2.04682150489886
-0.0542744680872136 -0.327078909929006 2.05340315358
-0.00899146620720138 -0.332683480600063 2.06226300224281
0.0351075047724245 -0.335841339144346 2.07837337085909
0.0776226322387829 -0.318040081767239 2.07682900001201
0.0903186255727067 -0.33012219746275 2.12521004973796
0.117039056107582 -0.30462205380044 2.10647286920746
-0.373914339461742 -0.250289041457985 2.10299430775973
-0.391322003332829 -0.204249844950442 2.08844940946201
-0.368065853036804 -0.23218135209628 2.05919926691585
0.133743792671835 -0.300414405321648 2.15090677378041
0.149781348073303 -0.272864879394185 2.1185928691894
0.159869516521616 -0.267724683213951 2.17360446165487
-0.405308186884834 -0.169941284543305 2.12378110240814
0.179872555829858 -0.225751167685562 2.16944070774512
-0.408096968413916 -0.137822189540043 2.15526817805442
0.171912260984952 -0.232004708973 2.21219816599919
-0.408925317948188 -0.114158800683504 2.19721389629685
0.17780049010481 -0.189208080132505 2.23446534911069
-0.410749336545079 -0.0738118861193243 2.21133055125859
0.180634808769799 -0.148156350928394 2.25701133715863
-0.410588856377761 -0.0643562280448731 2.25825917656869
0.181510046265731 -0.109864592693195 2.28293234864705
-0.413437082963239 -0.016041111690246 2.27499027204856
0.17382607957564 -0.0956084487340908 2.32789854745596
-0.409482810127337 -0.00330383059367646 2.32493546486635
0.17427594705976 -0.0555268255314289 2.35928857546943
-0.392558990150678 0.00674647334814268 2.37260328820741
-0.398791909462005 0.0430278169084573 2.34231911041905
0.143013297442459 -0.0159109340165588 2.42922158467387
0.167250087553759 -0.0212274415387583 2.38831598423986
-0.374967708422145 0.0504203010064833 2.38820800181635
-0.340143637194049 0.0473954247614355 2.42954576969032
-0.346879569061787 0.0879030001399521 2.40033248778248
0.0427013505889815 0.0349594700460145 2.49073224702582
0.0891425360799711 0.0337139001717135 2.46908049081807
0.127982003568951 0.0302272006025366 2.43710610364198
-0.310082581013037 0.0852650042660078 2.43381954359976
-0.269385593451586 0.111811132019835 2.43602370278197
-0.216983382455119 0.096444433976347 2.45617412143573
-0.167928161336291 0.0982937730828797 2.45860377631905
-0.120587918324284 0.0970321955225576 2.46276292378258
-0.073241442480879 0.0937241952142553 2.46825658205099
-0.0272466327370655 0.0941216620637416 2.47111422193978
0.0264521016214834 0.104387900104925 2.45797968153016
0.0599844406097009 0.0726270421140352 2.46758730572462
-0.316417843988421 -0.230890813517506 1.99448890300469
-0.285248385327236 -0.26996672157879 2.00539087608092
-0.236789012199745 -0.268210574859614 1.98500810929642
-0.199668877355688 -0.295806097805368 2.00934708987305
-0.155939898370023 -0.284526837037119 1.99954389945395
-0.115754142508229 -0.292172603849885 2.00892250754156
-0.0687940016954534 -0.300895691111594 2.01974366170685
-0.0126261161056417 -0.302282995638028 2.02352375211856
0.0348756779660539 -0.31147472511996 2.04117519033479
0.0802987333150383 -0.288151827308634 2.03929806981507
0.118372339326578 -0.282705535051742 2.07124571373337
-0.379426255234599 -0.180377218265136 2.04344537527254
-0.351921307066786 -0.219016584055752 2.02377130989232
0.151412733370215 -0.246436411621819 2.07996464503636
0.171763974239206 -0.236890208516639 2.12779111381011
-0.398266777526313 -0.156767653316198 2.0822935227663
0.188671502609879 -0.188708566468924 2.13998894427216
-0.40323622048318 -0.114802652766591 2.10978265010003
0.187767267748833 -0.184161973942535 2.18957584013906
-0.406906103159984 -0.0892660520356284 2.15641679661571
0.18879989444801 -0.140893604342593 2.20979195943191
-0.405683218333592 -0.0449696112155543 2.17466838965235
0.188851476350583 -0.100694848490552 2.23508505169552
-0.410392401395239 -0.0272264704266849 2.22496372051753
0.186105171353085 -0.0678219145433197 2.27879703579098
-0.408877869531675 0.0187920863301992 2.24184157678685
0.183246315059312 -0.0446677434942337 2.3172099335562
-0.410160653253133 0.031410896674913 2.29270848447159
0.178753329036043 0.000407481403570541 2.35070640841561
-0.394740998237707 0.0770688415705617 2.3097948286713
0.157727998856592 0.0222480505268121 2.39742641142522
-0.375882538665719 0.0860525149740224 2.35702025973076
-0.342713024736397 0.123235962073194 2.3677028349126
0.102270234436297 0.0720684188624396 2.43985977784135
0.137457870041687 0.0660115475490465 2.40384146187023
-0.308758064771222 0.122552172331271 2.40467787879834
-0.26499506471333 0.148464924851432 2.40238527901603
-0.229496973897802 0.130866914337085 2.42936468841263
-0.184565854058321 0.134308837080536 2.42836728989731
-0.140444440485055 0.134459890720234 2.43015587959166
-0.093743339909138 0.130460197239772 2.43619130932453
-0.0504397567151837 0.130035072447706 2.43851812377253
-0.00783865313585283 0.127937954090664 2.4419201028171
0.0696796213578392 0.109059357731856 2.43457220923855
-0.312752490165164 -0.197643184384833 1.96425391591346
-0.274572253051724 -0.236794928404417 1.97037688277492
-0.227652865772679 -0.235253207245381 1.95191536617344
-0.188177353162764 -0.260632565448292 1.97433559965556
-0.134274244971133 -0.252238216867281 1.96834651431789
-0.0884573782318622 -0.264298595072718 1.98236870793151
-0.0428696646528104 -0.275685449028533 1.99571044367403
0.000619525306854343 -0.264615719371558 1.98660026475297
0.0381539148333847 -0.280724481062097 2.0093188444768
0.0849545316773471 -0.255194005806843 2.00541991087062
0.121684483539345 -0.252551508335551 2.03803138106639
-0.37415951448708 -0.144208265421394 2.01167025387095
-0.350140647880096 -0.185900237206586 1.99751527292505
0.157602493792221 -0.214095081914359 2.04762918640853
0.177825916949142 -0.204104105896769 2.09358283413134
-0.393170103529284 -0.125424129824529 2.05524099152992
0.195219748259001 -0.155914234887477 2.11000715483182
-0.396255976064512 -0.0791387584903238 2.07498185868795
0.194527250526933 -0.142672988842646 2.16136850993535
-0.400468355614313 -0.0615428586107031 2.12101498679103
0.195354356157705 -0.0956292033367603 2.18465094832895
-0.399310443231331 -0.0150583342110876 2.14120633105671
0.193052569873396 -0.0565394522441525 2.22865799291751
-0.40375430847343 0.00384656169633071 2.18998403795689
0.191459887849303 -0.0239924551669086 2.26263230916117
-0.402371728580679 0.0511213828758638 2.20882141416174
0.188021619462536 -0.00297254180467088 2.30419498576824
-0.403633081859504 0.0652023513089843 2.26008249625032
0.184798033406154 0.0406147701844312 2.31784282045004
-0.388124198045715 0.110484175744336 2.27696853662858
0.166725642201963 0.0509056904335122 2.36238556318766
-0.369451616652309 0.119562796765868 2.32413771599874
-0.335321936354015 0.157298901691857 2.33502175301406
0.109386968435471 0.107351762100047 2.40528607562186
0.145288140247445 0.0982012918440933 2.36995114070438
-0.302092426181285 0.156376029800832 2.37151099825363
-0.25324815486002 0.180989831052025 2.37234179309078
-0.213163160880148 0.163374489333085 2.3981697390749
-0.162142017590905 0.169390439700222 2.39442259781273
-0.109517876241197 0.162819599957735 2.40327840072858
-0.0611242029117566 0.163937837850459 2.40429247109039
-0.0150563043123693 0.161616519535535 2.40862857682219
0.0325856057112832 0.141096805652692 2.42246186065014
0.0739617203685591 0.144982597711856 2.40078396716528
-0.30687426836744 -0.165134132655762 1.93264808939092
-0.269303089730043 -0.203344389623257 1.93806586202132
-0.221350759757695 -0.203673948846851 1.9207294116943
-0.176715044893762 -0.229474740934562 1.94381502715572
-0.129354997883392 -0.21565902297267 1.93214163971363
-0.0874318117730417 -0.229660120600103 1.9479255862285
-0.042918983152376 -0.242788243988926 1.96295314286539
0.00355980104381526 -0.229468887995052 1.95173430426452
0.046574293031996 -0.245926524360909 1.97548515017047
0.0922859357150512 -0.221295272192579 1.97243309679006
0.128121792226421 -0.220666857553519 2.00675631020515
-0.3673334896414 -0.110202171631879 1.97784009723541
-0.344448105478642 -0.154263754325731 1.96704593519124
0.164280470422844 -0.181491607685822 2.01601303521409
0.184750532703563 -0.170555026199155 2.06189794110491
-0.38645402156912 -0.094423771000932 2.02244715235375
0.201672895016545 -0.123377379199108 2.07923731947574
-0.389618678408268 -0.048522069661241 2.03978472690189
0.20081849576368 -0.108874258312667 2.13106724664596
-0.393798394868184 -0.0257814774459577 2.0888403407194
0.202595387122717 -0.062657490235132 2.1459714695229
-0.393452763874175 0.0202783478913784 2.11545512266685
0.19867596818559 -0.0451879463827649 2.18950212719982
-0.397272844930391 0.0379978826442146 2.15833343186703
0.198568124421787 -0.00109761329683214 2.21860841590337
-0.395672659839479 0.0833554436788719 2.17414943495448
0.194873616507551 0.0248220136023629 2.26568830399455
-0.397326338223365 0.0973600818620739 2.22664298315005
0.19227218804211 0.0709852297568962 2.28250319814257
-0.381621002370363 0.143175346859472 2.24500309061059
0.172638346630411 0.0870961051119394 2.32930822663006
-0.362387568972727 0.15312560585772 2.29208154916232
-0.32665311257043 0.190858086152167 2.30468110782369
0.115178857594728 0.141396956663736 2.37255629097412
0.151068854188307 0.132791315016772 2.33729183230314
-0.291934495335821 0.189662068174784 2.34149050205009
-0.243344531589617 0.213577503070309 2.34139030274626
-0.202126345372127 0.195072293477202 2.36709344280454
-0.157127568504625 0.20820378522844 2.3559977436911
-0.120112581335992 0.192569333135252 2.37319130055557
-0.0723955510829349 0.195364251952396 2.37250602715437
-0.0220132760279934 0.195581496412064 2.37450451511605
0.0279023727667293 0.175661574288933 2.39132815140581
0.0756375456363175 0.178314081390152 2.37066226971186
-0.300287116808206 -0.13260715247966 1.90038121055272
-0.263351498571664 -0.170259589878156 1.90571609587827
-0.217062609963311 -0.171092591752061 1.8890210622071
-0.173025855174226 -0.197043430038903 1.91168662056899
-0.123164601181447 -0.181093025202872 1.89799639833433
-0.0812494214940042 -0.194317310181073 1.91300612330132
-0.0394305326684621 -0.208901321904339 1.92936621756916
0.00699009552195286 -0.194629230097542 1.9171958862727
0.0503299854500433 -0.212943925885131 1.94204288156849
0.0958507629624336 -0.189496750173684 1.93911753426877
0.134694439426124 -0.188312495356602 1.9750734738798
-0.361962285178092 -0.0753828197010537 1.94669905604006
-0.337915900557187 -0.122276529003341 1.93515438629441
0.170598741856361 -0.149062283110887 1.98384232737752
0.191296803262259 -0.13761676991242 2.02963686783445
-0.380135546942658 -0.0595189222243437 1.99002536507608
0.207928865454986 -0.0913972886732922 2.04613221645772
-0.382339005824691 -0.0107447966008865 2.003867544479
0.207631592831489 -0.0756780824026971 2.09606276471437
-0.386947432449769 -0.00178503196675692 2.04764461656864
0.20884836532091 -0.0263036719226196 2.11761472572616
-0.388006219108832 0.0301633244698169 2.0768238412467
0.204438011129527 -0.0092667656496568 2.16492840300402
-0.389996609078394 0.0713025357413181 2.11958211591638
0.205490861309054 0.0357800485250204 2.18506132430748
-0.389389593541719 0.115121861198756 2.14260995119443
0.201199644591369 0.0526342011300747 2.23127014441845
-0.391011838759149 0.129398520873215 2.19503461351089
0.199182958950704 0.101397091489593 2.24902895585988
-0.374250609297455 0.176620299327085 2.21576530794176
0.179949103616068 0.11886384926856 2.2956808178019
-0.354701153775262 0.186454468543278 2.26179809007159
-0.31921985814228 0.223717778661576 2.27351057265354
0.120281519622239 0.174723737774021 2.34103844571052
0.157743153024786 0.165295339898429 2.30482852687171
-0.283554622410101 0.222419761199515 2.31060653018043
-0.23679956908371 0.246800437997392 2.30859836003731
-0.194971367748537 0.230163611802974 2.33246870277136
-0.144285340684226 0.242417072140353 2.32249603305878
-0.104974977636967 0.225397388359552 2.34117040346568
-0.0566781293320189 0.227972290835359 2.34072937960132
-0.0085941928157975 0.22870570220607 2.34211268248403
0.0315112979674477 0.206865705321097 2.36106785969501
0.0830862285660529 0.209218599792325 2.33940597807414
-0.301170155301097 -0.0976137558344848 1.87350691091061
-0.25658901307442 -0.136383133872392 1.87223291157049
-0.208733400022225 -0.139460639049578 1.85738470015352
-0.167610185218186 -0.166142477904702 1.88115706514925
-0.117623580603428 -0.148046747172752 1.86538869445457
-0.074109993858763 -0.158735999744294 1.87789275771722
-0.0343822663296599 -0.172878588973878 1.89372003718201
0.00925625954265981 -0.159351311457568 1.88218120280901
0.0534495736367825 -0.180270566785384 1.90880269318629
0.100287981361548 -0.157258010638931 1.90598081306572
0.137356416685218 -0.158714794177014 1.94188531046337
-0.356217129826611 -0.0399647526572536 1.91539580218574
-0.334812716910396 -0.0879338087572223 1.90648515593587
0.171437376464222 -0.122358395823331 1.94821658160669
0.197555017925821 -0.10475124205555 1.99619597068868
-0.373640312777148 -0.023393732946335 1.95668363534046
0.215247303163854 -0.0548991593326546 2.02403849017319
-0.375711334157076 0.0256766337795927 1.97618646510506
0.213804912605399 -0.0392373537029337 2.06842469617116
-0.380780003711305 0.0421799492197015 2.02486513751336
0.215336476879456 0.00870608962056134 2.0852454419977
-0.38404913065934 0.0714262780604924 2.07056599832947
0.211000042285987 0.0247218098578052 2.13250784575903
-0.38276429524592 0.115082395670533 2.08788955833251
0.212207988148124 0.070075351332749 2.15111272626052
-0.383657997608181 0.151882173760023 2.11889444128103
0.207834040248069 0.0872738014317695 2.19866810412632
-0.384233065815937 0.163035794225187 2.16796216460376
0.205469352343054 0.134319073755758 2.21721935907238
-0.367577706018537 0.209548356207253 2.18412237310748
0.186674134462848 0.150645140635348 2.26330002012535
-0.347453980850426 0.219792437028054 2.23043882555685
-0.312775868443033 0.256443625289079 2.24120224726721
0.127376775583149 0.207294710801454 2.30825802666354
0.164397254370446 0.197857800409298 2.27228411448249
-0.277397701891619 0.255015661182935 2.27823555373547
-0.230911458551155 0.279583486999734 2.27599086205807
-0.187421623892825 0.263468550566783 2.2996392525985
-0.138679037091188 0.274475372671615 2.29079442111127
-0.0912062829739945 0.259987159702779 2.30733501984585
-0.0411924292171126 0.260454589312152 2.30906796847333
0.0053190321468853 0.260463881798405 2.31110313540384
0.0441917654239096 0.237553623175783 2.32928021895478
0.0904634752608994 0.241826659998537 2.30668515573131
-0.263871998739771 -0.0999128183663703 1.8480652053349
-0.222383563542892 -0.104724287745982 1.83468256148836
-0.175950224871594 -0.102803503915124 1.82832828888548
-0.161371682358867 -0.135396660712417 1.85174428730945
-0.123863665697408 -0.108895302542158 1.83554203637771
-0.0772254046684045 -0.120626904222962 1.84615879045763
-0.0304616041004183 -0.131623173971316 1.85680564060492
0.0175462368472754 -0.121471401063567 1.85361954293373
0.056758281058314 -0.148237937053394 1.87773853072129
0.10142142747206 -0.122536441590993 1.87623394425967
0.141768486299419 -0.125017972928098 1.90921154417544
-0.343548487348302 -0.00451502281592088 1.88821461352642
-0.327314813370307 -0.0521744805472458 1.87632107309759
0.190827446484461 -0.0850506428243269 1.94906178973226
0.208759980436438 -0.0606661785574678 1.98118617700236
-0.363608384274883 0.0140929120722283 1.92670563886342
0.214635162153847 -0.0168197582889968 1.98959812151169
-0.36029283563197 0.0594854024190881 1.94548400280458
0.217591531491356 -0.00273842391040824 2.034274355098
-0.36985214011029 0.07548723957955 1.98959557454467
0.214487069744954 0.0418068118862264 2.05081436912724
-0.376624599664257 0.0952682873218816 2.03444074886483
0.214844612933322 0.0595504660321623 2.09756598233382
-0.370195179998688 0.141512332232547 2.04690794951551
0.212123848873567 0.103165376211271 2.11739243582403
-0.372979168821051 0.170633357497706 2.08129213922158
0.212115634791812 0.121113300696239 2.16383106780443
-0.376714292180408 0.19497506432192 2.13468500700721
0.206558820054071 0.163902502901821 2.18381484864241
-0.358559975375969 0.236653441207893 2.14745152616926
0.191256107803866 0.183243491156186 2.23099410813354
-0.34101067888554 0.250976056639939 2.19619649697525
-0.305155568474483 0.283907194402087 2.20633116993994
0.132737248062558 0.239815173940378 2.27408494899958
0.164564493810299 0.229607290342368 2.23760347213032
-0.269727653257903 0.286844811602466 2.24521226723144
-0.220917067519583 0.308669391501835 2.23860210315646
-0.183784399992041 0.295765460303382 2.26448281680416
-0.141896390737936 0.303377690429978 2.25339351879988
-0.0978658748203453 0.293976634902166 2.26804877768513
-0.0532518904618184 0.289639203729298 2.27473359185441
-0.00318828940423366 0.288677629768271 2.27646649740996
0.0485735531089136 0.271410135150574 2.29437619082643
0.0939462550098809 0.270718020387711 2.27178403669362
-0.288881277917767 -0.0591644552211618 1.84422153911848
-0.243505209671419 -0.0618892851673747 1.82201760097077
-0.195850323337012 -0.0643164312126501 1.81252940222024
-0.144029401063689 -0.0685961935667745 1.81577252462533
-0.0935821758820601 -0.0752581115361532 1.82280366325597
-0.0475452320310118 -0.085187077926228 1.83067679606828
-0.0034322062202939 -0.0849256717855768 1.83466202751106
0.0436919710268335 -0.075013062411167 1.8361578477448
0.0638248982031045 -0.109295448469743 1.85352093996496
0.0961592082170491 -0.0740984285061391 1.85067564866111
0.132504921688436 -0.0902070305980785 1.87825836841278
-0.308466462284281 -0.0166891006038541 1.85031696752537
-0.282913594087116 0.0240204999714792 1.83419617182866
-0.265954318217383 -0.0200077049599926 1.8231040694812
0.14308001474474 -0.0494996774331975 1.87341345054349
0.168927147096351 -0.0813788406838407 1.91030922249147
0.172664653216543 -0.0344562376852907 1.90066543315107
-0.340011379983577 0.0502018544920769 1.89704889211338
-0.320420741286665 0.0258625276210673 1.86429888277119
0.196777842185115 -0.0385825786753632 1.93869647067044
0.202449303131886 0.00439388132099803 1.95337181090194
-0.336441243310525 0.089282286744863 1.9213208645728
0.208520960987265 0.0326159971887575 1.9951913900944
-0.346142555504106 0.111448551783823 1.95955973942478
0.203833469622157 0.0714011233217493 2.02066587304401
-0.358531271867892 0.124428400633676 1.99859797616381
0.206614691267892 0.0945803185169368 2.06168044500643
-0.347165929823011 0.164375771029751 2.01016384373359
0.202064445399215 0.133217324645454 2.08684401134667
-0.35076998203855 0.194719169910861 2.04507733937596
0.20464183674821 0.156203313057852 2.1276537020039
-0.364124202886052 0.212930665520782 2.09681198794155
0.197406586104163 0.193358024483763 2.15220625462018
-0.329821792541778 0.273990225839598 2.15732981948108
-0.341891150302255 0.255904019043125 2.10969130317374
-0.310712051441665 0.288937715419258 2.11412439103334
0.188078657972455 0.211135970385596 2.19558918123055
0.174965722575373 0.234766287265175 2.15074951184682
0.161831827589307 0.249992629017217 2.19526688350492
-0.261744686214673 0.309840415576313 2.20711041505776
-0.295607150438569 0.301488547278657 2.16621200191466
-0.253578605607104 0.322838585794819 2.16396901045057
0.129281609414942 0.268673843517465 2.2335119409058
0.0972025973887887 0.299105389282041 2.1959745457537
0.0848233239979082 0.294233777057034 2.23513757962039
-0.214391351302548 0.326359271485201 2.19760348952101
-0.170466378248576 0.321418383852111 2.21763768789791
-0.117576650006826 0.318762237817077 2.22017721890863
-0.0731536600090398 0.31394671553158 2.22924068291388
-0.0293706869428142 0.310582512357953 2.23446620838877
0.0133594703439315 0.309356116020417 2.2339491355958
0.0464219721853186 0.295859517140645 2.25793711674609
-0.217128310313929 -0.0216443237491451 1.8071816414895
-0.165880525311696 -0.026162685306967 1.8045527675485
-0.115151612806119 -0.0303504961238615 1.81054447169369
-0.0673261916433331 -0.035296748242536 1.81647746626479
-0.0225320205732001 -0.0389649046490272 1.8219264822968
0.0215829245034916 -0.0349341613036236 1.82654216306609
0.0701851087378277 -0.0335459522763172 1.83426917829502
-0.238718299035047 0.0202751370429248 1.81361733678403
-0.211163752696287 0.0576897487949235 1.815835108078
-0.187336747649466 0.017437914842543 1.8044499201143
-0.136572783594589 0.0138283241194824 1.80784460540858
-0.0889147504896151 0.0126378455461656 1.81389577490973
-0.0416799119726135 0.00910251051191376 1.8196327334653
0.00310566961952234 0.0105144941108489 1.82569678506225
0.0500313742298438 0.00967661339552384 1.8318880963718
0.0981897975842275 0.0112257829802435 1.84648461704002
0.145204953495178 0.00332657107379568 1.87437091019501
0.113737031032156 -0.0291335036274882 1.85146602182488
-0.300584099199056 0.0654017647042713 1.86022281817819
-0.268276476776468 0.103683530366612 1.8606684662154
-0.258008637976598 0.0642080588507301 1.832622443307
0.121527819324293 0.0457632672385109 1.86919703523734
0.179133355859598 0.00798577258364594 1.91176979506192
0.157608451810285 0.0478033367043942 1.90103966094543
-0.30814938010801 0.0978701458026958 1.88966614875773
-0.274524907819811 0.136313005892321 1.89515486094454
0.1879133896872 0.0455916647336807 1.94457149777057
0.160363412038198 0.0843109911299746 1.9334114147979
-0.312480676613941 0.132413251363056 1.92761457529723
-0.281281251530479 0.168464785430228 1.93154476802342
0.187130293699328 0.0775563950634814 1.97617724126153
0.158690080128307 0.118199894293322 1.96718368982794
-0.323382301841848 0.158806080323995 1.96656694298943
-0.285896351270914 0.198179686858535 1.96407199464192
0.185986414350872 0.111879981600632 2.01154551232845
0.157908589877802 0.151122378002976 2.00124768714734
-0.319931662197298 0.198569924887588 1.99965470866749
-0.2836827753706 0.233524541918358 1.99651424420224
0.185522723321011 0.141792560002223 2.04368447803983
0.157484215864729 0.183377148659962 2.03514696266411
-0.316867071979737 0.234777831393275 2.03026438549155
-0.282792910761649 0.270843888294301 2.03357193366138
0.184719331187665 0.175575133477759 2.07932941555486
0.156514040771554 0.215804637538232 2.06841739829905
-0.340432936885294 0.235915264333225 2.06664771227128
-0.310885185087424 0.272662428501056 2.06971457880146
0.183240491110704 0.20590620326807 2.11092014557811
0.153508634465987 0.24571160703853 2.10361324739019
-0.277326048445335 0.312339020346318 2.12413642342641
-0.27231399903465 0.30258784079836 2.07636328238326
-0.239643291382503 0.325031513157757 2.10948423613662
0.131568777815512 0.279580465098629 2.18627174262729
0.145189374841129 0.26751399589856 2.14481794267229
0.105477637167434 0.295335962054869 2.14408130495068
-0.215077180989191 0.333422289099222 2.14911334527679
-0.189484375079744 0.333097602101539 2.11331021777325
-0.174555461473497 0.333936799198308 2.16769614882871
-0.145575944685274 0.331986599555801 2.1268107703411
-0.132128951002365 0.3301105115854 2.17707660693833
-0.101490662717128 0.3285682365542 2.13214400858614
-0.0853621598363537 0.326843655658709 2.18001137837559
-0.0566660261878131 0.324894317068706 2.13573647495744
-0.0410989690237176 0.323305583975818 2.18621798726055
-0.0131236049718217 0.321354117837927 2.13959658247609
0.00339541432665318 0.320248629643118 2.18835683028378
0.0310602489621925 0.318229928370358 2.14763828513836
0.0490383074562915 0.313658014571398 2.20356855046044
0.0687492529356106 0.311849531065624 2.16044808820966
-0.180137933355227 0.0910706971706834 1.82782324136683
-0.157888949129361 0.0560038158539271 1.81392818279791
-0.112154512993084 0.0583807433079193 1.82140239233305
-0.0634519942301312 0.0541315188346747 1.82713210074799
-0.0185437189420191 0.0559163217464959 1.83453231177289
0.0268390990466167 0.0550857135751425 1.84109658016137
0.0728357177752938 0.051054394546286 1.84850068047244
-0.225123296800522 0.100080365191552 1.83926520775589
-0.182345578108447 0.12724944721507 1.85337692953252
-0.136514870535198 0.10122458064935 1.83875563463187
-0.0856209763167221 0.0941299584670168 1.84291817921043
-0.0412953149048057 0.0974854043078908 1.85271389182387
0.0032272224590469 0.0974648597868738 1.86049734154793
0.0483946934496252 0.0945454441826981 1.86639638577944
0.0917562307614162 0.0847745127388543 1.87385727739358
0.126413469284546 0.0881453578125668 1.89882529802878
-0.229814232946925 0.135571055984164 1.87011431189415
-0.189774436037106 0.160758465785371 1.88674421327469
-0.144005728367523 0.143795686868806 1.87384251235257
-0.104924216682762 0.127373536922443 1.86515055598055
-0.0621103293048988 0.132847328975475 1.87910261898772
-0.0184038930677141 0.133588089175327 1.8885810837775
0.0296868446669272 0.129842274347921 1.89438889278062
0.0794787957932584 0.122002146869826 1.9007114297841
0.12424242518432 0.120730205267161 1.92958925188513
-0.236442461097549 0.167930683434652 1.90460028997001
-0.191240908456552 0.192956411250721 1.91908374784855
-0.145312223874351 0.177675994890073 1.90790754355577
-0.0988327350968179 0.160858550024799 1.90014987346851
-0.0518603729348139 0.167838560329518 1.91660092127914
-0.00169048901294695 0.163852057881812 1.9225800562919
0.0460866934995491 0.159668260779484 1.92789354591495
0.0881368119173649 0.151865470023322 1.93575795297862
0.123328902517884 0.155416981274652 1.96499404975977
-0.239710283738097 0.199284135666663 1.93685936610875
-0.193555239321208 0.223591818449208 1.94991634273499
-0.144694025853778 0.211835493663518 1.94263950530218
-0.102263636518264 0.193699883859479 1.93273743042505
-0.064351869934206 0.202627662389038 1.94935284585781
-0.0196773960415341 0.196673751498601 1.95224119478439
0.028310070345045 0.193040309049388 1.9581418610828
0.0773237952085168 0.186696070508491 1.96601324706903
0.122509899810361 0.186561349506358 1.99678796268368
-0.242720545980811 0.229772756048157 1.96818365108804
-0.199685974874444 0.253906838621162 1.98078081874788
-0.149759224656557 0.24407197917086 1.97428761158397
-0.10061570673771 0.231780158272722 1.97164815812385
-0.0490682224073905 0.232063186629213 1.98222747365771
-0.000928049143833071 0.227374264994704 1.9870898580584
0.0454594861915912 0.223914009206499 1.99290675674971
0.0869120156741654 0.216822666919951 2.00191251763213
0.121953172981693 0.220690424966686 2.03195369397796
-0.247132168382125 0.262597726840551 2.00245732625232
-0.209149538217942 0.284754407198057 2.01343861266813
-0.162223342846297 0.277848531017829 2.00608510519716
-0.115685423502812 0.267657700015256 2.00498823480542
-0.0710580040853356 0.26320431449783 2.00938687988882
-0.0220924479850705 0.261039626799316 2.01697171304188
0.026696026629624 0.257422615663781 2.023048625845
0.075754229491943 0.251773476533498 2.03199079823242
0.120594175762483 0.251257869215524 2.0635656326033
-0.242664758486522 0.29733960819885 2.04155657634117
-0.186069533938636 0.307178650452918 2.04188494640227
-0.137376482626187 0.300739106472968 2.04028773125913
-0.0927655452041984 0.295930482620378 2.04361641042296
-0.0479173692895928 0.291818598524333 2.04809142531828
-0.00155770190136958 0.288845342919697 2.05464299618051
0.0435016692020396 0.285944792301773 2.0611500860737
0.0841546368818703 0.27925989269544 2.0711290418345
0.116028459800789 0.278513599708898 2.10439887129471
-0.217587794717854 0.319509944945256 2.07268798480105
-0.163407496770146 0.322906112164784 2.07827147739213
-0.117654676927828 0.319466044885718 2.084115443904
-0.0726089266356626 0.315453637973205 2.08811547495192
-0.026870938622003 0.311399022308146 2.09226447028464
0.0202578515887416 0.308284094960417 2.09944779917103
0.0671626129651459 0.303173562191346 2.10952030511736
3 0 1 2
3 0 2 4
3 3 0 4
3 3 4 6
3 5 3 6
3 5 6 8
3 7 5 8
3 7 8 10
3 9 7 10
3 9 10 12
3 11 9 12
3 13 11 14
3 14 11 12
3 13 14 15
3 16 17 18
3 16 18 1
3 0 19 1
3 19 16 1
3 0 3 20
3 19 0 20
3 3 5 21
3 20 3 21
3 5 7 22
3 21 5 22
3 7 9 23
3 22 7 23
3 9 11 24
3 23 9 24
3 24 11 25
3 25 11 13
3 13 15 26
3 27 13 26
3 25 13 27
3 27 26 28
3 17 16 30
3 30 16 29
3 29 19 31
3 29 16 19
3 31 20 32
3 31 19 20
3 32 21 33
3 32 20 21
3 21 22 33
3 33 22 34
3 22 23 34
3 34 23 35
3 23 24 35
3 35 24 36
3 24 25 36
3 36 25 37
3 37 27 38
3 37 25 27
3 38 28 39
3 38 27 28
3 30 40 41
3 30 29 40
3 29 31 42
3 40 29 42
3 31 32 43
3 42 31 43
3 32 33 44
3 43 32 44
3 33 34 45
3 44 33 45
3 34 35 46
3 45 34 46
3 35 36 47
3 46 35 47
3 36 37 47
3 47 37 48
3 37 38 48
3 48 38 49
3 49 39 50
3 49 38 39
3 40 51 52
3 41 40 52
3 51 42 53
3 51 40 42
3 42 43 53
3 53 43 54
3 43 44 54
3 54 44 55
3 44 45 55
3 55 45 56
3 45 46 56
3 56 46 57
3 46 47 58
3 57 46 58
3 47 48 59
3 58 47 59
3 48 49 60
3 59 48 60
3 49 50 61
3 60 49 61
3 51 62 63
3 52 51 63
3 51 53 64
3 62 51 64
3 53 54 65
3 64 53 65
3 54 55 66
3 65 54 66
3 55 56 67
3 66 55 67
3 56 57 67
3 67 57 68
3 57 58 69
3 68 57 69
3 58 59 69
3 69 59 70
3 59 60 70
3 70 60 71
3 71 61 72
3 71 60 61
3 62 73 74
3 63 62 74
3 62 64 75
3 73 62 75
3 64 65 75
3 75 65 76
3 65 66 76
3 76 66 77
3 66 67 77
3 77 67 78
3 67 68 78
3 78 68 79
3 79 69 80
3 79 68 69
3 80 70 81
3 80 69 70
3 81 71 82
3 81 70 71
3 82 72 83
3 82 71 72
3 74 73 85
3 85 73 84
3 84 73 86
3 86 73 75
3 75 76 86
3 86 76 87
3 76 77 88
3 87 76 88
3 77 78 89
3 88 77 89
3 78 79 90
3 89 78 90
3 79 80 91
3 90 79 91
3 80 81 92
3 91 80 92
3 81 82 93
3 92 81 93
3 93 83 94
3 93 82 83
3 84 95 85
3 84 86 96
3 97 84 96
3 95 84 97
3 96 87 98
3 96 86 87
3 87 88 98
3 98 88 99
3 88 89 99
3 99 89 100
3 89 90 100
3 100 90 101
3 101 91 102
3 101 90 91
3 102 92 103
3 102 91 92
3 92 93 103
3 105 103 104
3 103 93 104
3 93 94 104
3 96 106 97
3 96 98 107
3 106 96 107
3 98 99 108
3 107 98 108
3 99 100 109
3 108 99 109
3 100 101 110
3 109 100 110
3 101 102 111
3 110 101 111
3 111 102 112
3 112 102 103
3 103 105 112
3 117 114 115
3 116 113 117
3 117 113 114
3 116 117 119
3 118 116 119
3 118 119 121
3 120 118 121
3 120 121 123
3 122 120 123
3 122 123 125
3 124 122 125
3 124 125 127
3 126 124 127
3 126 127 128
3 129 130 131
3 114 129 131
3 114 113 129
3 113 2 129
3 129 2 1
3 4 113 116
3 4 2 113
3 6 116 118
3 6 4 116
3 8 118 120
3 8 6 118
3 10 120 122
3 10 8 120
3 12 122 124
3 12 10 122
3 14 124 126
3 14 12 124
3 133 126 128
3 15 14 126
3 15 126 133
3 132 15 133
3 132 133 134
3 135 136 137
3 137 17 135
3 137 18 17
3 18 137 130
3 129 18 130
3 18 129 1
3 15 132 26
3 139 132 134
3 139 138 132
3 138 28 26
3 132 138 26
3 138 139 140
3 136 135 142
3 142 135 141
3 17 30 135
3 135 30 141
3 143 39 28
3 138 143 28
3 143 140 144
3 143 138 140
3 141 145 146
3 142 141 146
3 41 145 141
3 30 41 141
3 147 39 143
3 147 50 39
3 147 144 148
3 147 143 144
3 145 149 150
3 146 145 150
3 52 149 145
3 41 52 145
3 151 50 147
3 151 155 50
3 151 148 152
3 151 147 148
3 149 153 154
3 150 149 154
3 63 153 149
3 52 63 149
3 155 61 50
3 155 72 61
3 155 151 156
3 156 151 152
3 154 157 158
3 154 153 157
3 74 157 153
3 63 74 153
3 159 72 155
3 159 83 72
3 159 156 160
3 159 155 156
3 158 157 162
3 162 157 161
3 74 85 161
3 157 74 161
3 163 83 159
3 163 94 83
3 163 160 164
3 163 159 160
3 161 165 162
3 165 95 166
3 165 161 95
3 161 85 95
3 165 166 167
3 95 97 166
3 105 104 168
3 170 94 163
3 170 168 94
3 169 168 170
3 94 168 104
3 163 164 170
3 166 171 167
3 173 171 172
3 172 171 106
3 171 97 106
3 171 166 97
3 172 107 174
3 172 106 107
3 174 108 175
3 174 107 108
3 175 109 176
3 175 108 109
3 176 110 177
3 176 109 110
3 177 111 178
3 177 110 111
3 178 112 180
3 178 111 112
3 181 105 168
3 181 180 105
3 179 178 180
3 180 112 105
3 168 169 181
3 172 182 173
3 182 172 183
3 183 172 174
3 174 175 184
3 183 174 184
3 175 176 185
3 184 175 185
3 176 177 186
3 185 176 186
3 177 178 187
3 186 177 187
3 187 179 188
3 187 178 179
3 179 180 229
3 189 190 191
3 114 131 191
3 115 114 191
3 115 191 192
3 115 192 193
3 117 115 193
3 119 193 194
3 119 117 193
3 119 194 121
3 121 194 195
3 121 195 123
3 123 195 196
3 123 196 125
3 125 196 197
3 127 197 198
3 127 125 197
3 128 198 199
3 200 128 199
3 128 127 198
3 200 199 201
3 202 203 204
3 131 130 189
3 190 189 204
3 189 130 202
3 189 202 204
3 131 189 191
3 128 200 133
3 134 200 205
3 206 205 201
3 134 133 200
3 205 200 201
3 205 206 207
3 136 208 203
3 202 137 136
3 202 136 203
3 137 202 130
3 134 205 139
3 139 205 207
3 140 139 207
3 211 207 209
3 136 142 208
3 208 142 210
3 211 140 207
3 211 144 140
3 146 212 210
3 142 146 210
3 148 144 213
3 213 144 211
3 150 214 212
3 146 150 212
3 215 148 213
3 215 152 148
3 154 216 150
3 150 216 214
3 219 152 217
3 217 152 215
3 158 218 216
3 154 158 216
3 219 156 152
3 219 160 156
3 158 220 218
3 158 162 220
3 221 160 219
3 221 164 160
3 162 165 222
3 223 220 222
3 220 162 222
3 165 167 222
3 169 170 224
3 225 164 221
3 224 170 164
3 224 164 225
3 222 226 223
3 167 171 227
3 226 167 227
3 226 227 228
3 226 222 167
3 171 173 227
3 180 181 229
3 181 169 230
3 231 169 224
3 230 169 231
3 230 229 181
3 224 225 271
3 227 232 228
3 232 182 233
3 232 173 182
3 227 173 232
3 182 183 234
3 233 182 234
3 183 184 234
3 234 184 235
3 184 185 235
3 235 185 236
3 185 186 236
3 236 186 237
3 186 187 237
3 237 187 238
3 238 188 239
3 238 187 188
3 188 179 229
3 240 239 188
3 240 188 229
3 229 230 240
3 191 190 242
3 242 190 241
3 192 242 243
3 192 191 242
3 192 243 244
3 193 192 244
3 194 244 245
3 194 193 244
3 194 245 246
3 195 194 246
3 195 246 247
3 196 195 247
3 196 247 248
3 197 196 248
3 197 248 249
3 198 197 249
3 199 198 249
3 250 199 249
3 201 199 251
3 251 199 250
3 204 252 253
3 204 203 252
3 190 253 241
3 190 204 253
3 206 251 254
3 206 201 251
3 207 206 255
3 255 206 254
3 203 256 252
3 203 208 256
3 257 209 255
3 255 209 207
3 210 258 208
3 208 258 256
3 211 209 259
3 259 209 257
3 212 260 210
3 210 260 258
3 213 211 259
3 261 213 259
3 214 262 260
3 212 214 260
3 215 213 261
3 263 215 261
3 216 264 214
3 214 264 262
3 217 215 263
3 265 217 263
3 218 266 264
3 216 218 264
3 219 217 265
3 267 219 265
3 218 268 266
3 218 220 268
3 221 219 267
3 269 221 267
3 223 270 268
3 220 223 268
3 225 221 269
3 271 225 269
3 223 226 272
3 270 223 272
3 272 228 273
3 272 226 228
3 274 231 275
3 274 230 231
3 275 231 271
3 271 231 224
3 273 228 276
3 276 228 232
3 276 233 277
3 276 232 233
3 233 234 278
3 277 233 278
3 234 235 279
3 278 234 279
3 235 236 280
3 279 235 280
3 236 237 281
3 280 236 281
3 237 238 282
3 281 237 282
3 238 239 283
3 282 238 283
3 327 239 284
3 284 239 240
3 240 230 274
3 284 240 274
3 241 285 286
3 242 241 286
3 242 286 243
3 243 286 287
3 243 287 288
3 244 243 288
3 245 288 289
3 245 244 288
3 245 289 246
3 246 289 290
3 246 290 247
3 247 290 291
3 247 291 248
3 248 291 292
3 248 292 293
3 249 248 293
3 249 293 250
3 250 293 294
3 250 294 295
3 251 250 295
3 252 296 297
3 253 252 297
3 241 297 285
3 241 253 297
3 254 295 298
3 254 251 295
3 254 298 299
3 255 254 299
3 256 300 252
3 252 300 296
3 257 255 299
3 301 257 299
3 258 302 300
3 256 258 300
3 259 257 303
3 303 257 301
3 260 304 258
3 258 304 302
3 261 259 303
3 305 261 303
3 262 306 304
3 260 262 304
3 263 261 305
3 307 263 305
3 264 308 262
3 262 308 306
3 265 263 307
3 309 265 307
3 266 310 308
3 264 266 308
3 267 265 309
3 311 267 309
3 266 312 310
3 266 268 312
3 269 267 311
3 313 269 311
3 270 314 312
3 268 270 312
3 271 269 315
3 315 269 313
3 270 272 316
3 314 270 316
3 316 273 317
3 316 272 273
3 318 275 319
3 318 274 275
3 275 271 315
3 319 275 315
3 273 276 320
3 317 273 320
3 276 277 320
3 320 277 321
3 277 278 322
3 321 277 322
3 322 279 323
3 322 278 279
3 279 280 323
3 323 280 324
3 280 281 324
3 324 281 325
3 281 282 325
3 325 282 326
3 282 283 326
3 326 283 327
3 283 239 327
3 327 284 328
3 284 274 318
3 328 284 318
3 285 329 330
3 286 285 330
3 286 330 287
3 287 330 331
3 287 331 332
3 288 287 332
3 288 332 289
3 289 332 333
3 289 333 334
3 290 289 334
3 290 334 335
3 291 290 335
3 291 335 292
3 292 335 336
3 292 336 337
3 293 292 337
3 293 337 294
3 294 337 338
3 294 338 339
3 295 294 339
3 296 340 341
3 297 296 341
3 285 341 329
3 285 297 341
3 298 339 342
3 298 295 339
3 298 342 343
3 299 298 343
3 300 344 296
3 296 344 340
3 301 299 343
3 345 301 343
3 302 346 344
3 300 302 344
3 303 301 347
3 347 301 345
3 304 348 302
3 302 348 346
3 305 303 347
3 349 305 347
3 306 350 348
3 304 306 348
3 307 305 351
3 351 305 349
3 308 352 306
3 306 352 350
3 309 307 353
3 353 307 351
3 310 354 352
3 308 310 352
3 311 309 355
3 355 309 353
3 312 356 310
3 310 356 354
3 313 311 355
3 357 313 355
3 314 358 356
3 312 314 356
3 315 313 359
3 359 313 357
3 314 316 360
3 358 314 360
3 360 317 361
3 360 316 317
3 362 319 363
3 362 318 319
3 319 315 359
3 363 319 359
3 317 320 364
3 361 317 364
3 320 321 364
3 364 321 365
3 321 322 366
3 365 321 366
3 322 323 366
3 366 323 367
3 323 324 368
3 367 323 368
3 324 325 369
3 368 324 369
3 325 326 370
3 369 325 370
3 326 327 371
3 370 326 371
3 327 328 371
3 371 328 372
3 328 318 362
3 372 328 362
3 329 373 374
3 330 329 374
3 330 374 331
3 331 374 375
3 331 375 376
3 332 331 376
3 332 376 333
3 333 376 377
3 333 377 378
3 334 333 378
3 334 378 379
3 335 334 379
3 335 379 336
3 336 379 380
3 336 380 381
3 337 336 381
3 337 381 338
3 338 381 382
3 338 382 383
3 339 338 383
3 340 384 385
3 341 340 385
3 329 385 373
3 329 341 385
3 342 383 386
3 342 339 383
3 342 386 387
3 343 342 387
3 344 388 340
3 340 388 384
3 345 343 387
3 389 345 387
3 346 390 388
3 344 346 388
3 347 345 391
3 391 345 389
3 348 392 346
3 346 392 390
3 349 347 391
3 393 349 391
3 350 394 348
3 348 394 392
3 351 349 395
3 395 349 393
3 352 396 350
3 350 396 394
3 353 351 395
3 397 353 395
3 354 398 396
3 352 354 396
3 355 353 399
3 399 353 397
3 356 400 354
3 354 400 398
3 357 355 399
3 401 357 399
3 358 402 400
3 356 358 400
3 359 357 403
3 403 357 401
3 358 360 404
3 402 358 404
3 404 361 405
3 404 360 361
3 406 363 407
3 406 362 363
3 363 359 403
3 407 363 403
3 361 364 408
3 405 361 408
3 364 365 408
3 408 365 409
3 365 366 410
3 409 365 410
3 366 367 410
3 410 367 411
3 367 368 412
3 411 367 412
3 368 369 412
3 412 369 413
3 369 370 413
3 413 370 414
3 370 371 415
3 414 370 415
3 371 372 415
3 415 372 416
3 372 362 406
3 416 372 406
3 373 417 418
3 374 373 418
3 374 418 375
3 375 418 419
3 375 419 420
3 376 375 420
3 376 420 377
3 377 420 421
3 377 421 422
3 378 377 422
3 378 422 423
3 379 378 423
3 380 423 424
3 380 379 423
3 380 424 425
3 381 380 425
3 382 425 426
3 382 381 425
3 382 426 427
3 383 382 427
3 384 428 429
3 385 384 429
3 373 429 417
3 373 385 429
3 386 427 430
3 386 383 427
3 386 430 431
3 387 386 431
3 384 432 428
3 384 388 432
3 389 387 431
3 433 389 431
3 390 434 432
3 388 390 432
3 435 389 433
3 435 391 389
3 390 436 434
3 390 392 436
3 393 391 435
3 437 393 435
3 394 438 436
3 392 394 436
3 395 393 439
3 439 393 437
3 396 440 438
3 394 396 438
3 397 395 439
3 441 397 439
3 398 442 440
3 396 398 440
3 399 397 443
3 443 397 441
3 400 444 398
3 398 444 442
3 401 399 443
3 445 401 443
3 402 446 444
3 400 402 444
3 403 401 447
3 447 401 445
3 402 404 448
3 446 402 448
3 448 405 449
3 448 404 405
3 450 407 451
3 450 406 407
3 407 403 447
3 451 407 447
3 405 408 452
3 449 405 452
3 408 409 452
3 452 409 453
3 409 410 454
3 453 409 454
3 410 411 454
3 454 411 455
3 411 412 456
3 455 411 456
3 412 413 456
3 456 413 457
3 457 414 458
3 457 413 414
3 414 415 459
3 458 414 459
3 415 416 459
3 459 416 460
3 416 406 450
3 460 416 450
3 418 461 462
3 418 417 461
3 419 462 463
3 419 418 462
3 419 463 464
3 420 419 464
3 420 464 421
3 421 464 465
3 421 465 466
3 422 421 466
3 422 466 467
3 423 422 467
3 424 467 468
3 424 423 467
3 424 468 469
3 425 424 469
3 426 469 470
3 426 425 469
3 427 426 471
3 471 426 470
3 429 428 473
3 473 428 472
3 417 473 505
3 417 429 473
3 430 427 471
3 520 430 471
3 431 474 475
3 431 430 474
3 428 476 472
3 428 432 476
3 433 431 475
3 477 433 475
3 434 478 476
3 432 434 476
3 479 433 477
3 479 435 433
3 434 480 478
3 434 436 480
3 437 435 479
3 481 437 479
3 438 482 436
3 436 482 480
3 439 437 483
3 483 437 481
3 440 484 482
3 438 440 482
3 441 439 483
3 485 441 483
3 442 486 440
3 440 486 484
3 443 441 487
3 487 441 485
3 444 488 442
3 442 488 486
3 445 443 487
3 489 445 487
3 444 446 488
3 488 446 490
3 491 445 489
3 491 447 445
3 490 446 492
3 492 446 448
3 492 449 493
3 492 448 449
3 494 451 495
3 494 450 451
3 451 447 491
3 495 451 491
3 449 452 496
3 493 449 496
3 496 453 497
3 496 452 453
3 453 454 498
3 497 453 498
3 498 455 499
3 498 454 455
3 455 456 500
3 499 455 500
3 456 457 501
3 500 456 501
3 457 458 502
3 501 457 502
3 458 459 503
3 502 458 503
3 503 460 504
3 503 459 460
3 504 460 494
3 494 460 450
3 461 505 506
3 462 461 506
3 507 463 462
3 507 462 506
3 465 463 508
3 508 463 507
3 464 463 465
3 465 508 509
3 465 509 466
3 466 509 510
3 466 510 467
3 467 510 511
3 467 511 468
3 468 511 512
3 468 512 513
3 469 468 513
3 469 513 470
3 515 470 514
3 470 513 514
3 470 515 471
3 472 516 473
3 518 516 517
3 518 505 516
3 461 417 505
3 505 473 516
3 505 518 506
3 515 514 519
3 474 430 520
3 521 520 519
3 520 471 515
3 520 515 519
3 474 520 524
3 476 522 472
3 516 472 523
3 472 522 523
3 516 523 517
3 520 521 524
3 477 475 524
3 524 475 474
3 525 477 524
3 478 526 522
3 476 478 522
3 527 477 525
3 527 479 477
3 478 528 526
3 478 480 528
3 481 479 527
3 529 481 527
3 482 530 480
3 480 530 528
3 483 481 531
3 531 481 529
3 484 532 530
3 482 484 530
3 485 483 531
3 533 485 531
3 486 534 484
3 484 534 532
3 535 485 533
3 535 487 485
3 486 536 534
3 486 488 536
3 537 489 535
3 535 489 487
3 490 538 539
3 536 490 539
3 488 490 536
3 538 540 539
3 541 542 543
3 541 489 537
3 542 541 537
3 541 491 489
3 490 492 538
3 545 493 544
3 538 492 493
3 538 493 545
3 540 538 545
3 544 546 545
3 547 548 549
3 543 495 541
3 547 494 495
3 547 495 543
3 608 547 543
3 495 491 541
3 493 496 544
3 544 497 550
3 546 544 550
3 544 496 497
3 550 497 551
3 551 497 498
3 498 499 551
3 551 499 552
3 499 500 552
3 552 500 553
3 500 501 553
3 553 501 554
3 554 502 555
3 554 501 502
3 502 503 556
3 555 502 556
3 503 504 556
3 549 504 547
3 556 504 549
3 504 494 547
3 506 557 507
3 507 557 558
3 508 507 558
3 508 558 559
3 509 508 559
3 509 559 560
3 510 509 560
3 510 560 561
3 511 510 561
3 511 561 562
3 512 511 562
3 514 512 563
3 563 512 562
3 513 512 514
3 517 564 518
3 518 564 557
3 566 564 565
3 557 564 566
3 557 506 518
3 558 566 567
3 558 557 566
3 559 567 568
3 559 558 567
3 560 568 569
3 560 559 568
3 561 569 570
3 561 560 569
3 562 570 571
3 562 561 570
3 563 562 571
3 572 563 571
3 574 514 563
3 572 574 563
3 573 519 574
3 574 519 514
3 519 573 521
3 522 575 523
3 577 575 576
3 577 517 575
3 564 517 577
3 575 517 523
3 564 577 565
3 573 574 572
3 521 573 579
3 580 573 578
3 579 573 580
3 579 524 521
3 524 579 525
3 522 581 575
3 522 526 581
3 576 581 582
3 576 575 581
3 583 580 584
3 583 579 580
3 583 525 579
3 583 527 525
3 526 585 581
3 526 528 585
3 582 585 586
3 582 581 585
3 587 584 588
3 587 583 584
3 587 527 583
3 587 529 527
3 528 589 585
3 528 530 589
3 586 589 590
3 586 585 589
3 591 588 592
3 591 587 588
3 591 529 587
3 591 531 529
3 532 593 589
3 530 532 589
3 590 593 594
3 590 589 593
3 595 592 596
3 595 591 592
3 595 531 591
3 595 533 531
3 534 597 593
3 532 534 593
3 594 597 598
3 594 593 597
3 599 596 600
3 599 595 596
3 599 533 595
3 599 535 533
3 534 601 597
3 534 536 601
3 602 597 601
3 602 598 597
3 603 599 600
3 604 603 600
3 603 535 599
3 603 537 535
3 536 539 601
3 606 540 605
3 606 602 540
3 602 601 539
3 540 602 539
3 605 607 606
3 608 609 610
3 608 543 609
3 604 542 603
3 609 543 542
3 609 542 604
3 542 537 603
3 540 545 605
3 605 546 607
3 612 607 611
3 605 545 546
3 607 546 611
3 612 613 614
3 612 611 613
3 614 615 616
3 614 613 615
3 616 617 618
3 616 615 617
3 618 619 620
3 618 617 619
3 620 621 622
3 620 619 621
3 622 623 624
3 622 621 623
3 610 548 608
3 624 623 548
3 624 548 610
3 548 623 549
3 548 547 608
3 546 550 611
3 611 550 613
3 613 550 551
3 551 552 615
3 613 551 615
3 552 553 617
3 615 552 617
3 553 554 619
3 617 553 619
3 554 555 621
3 619 554 621
3 621 555 623
3 623 555 556
3 556 549 623
3 565 625 626
3 567 566 626
3 626 566 565
3 567 626 627
3 568 567 627
3 568 627 628
3 569 568 628
3 569 628 629
3 570 569 629
3 570 629 630
3 571 570 630
3 572 571 631
3 631 571 630
3 572 631 578
3 576 632 577
3 625 632 633
3 565 577 632
3 565 632 625
3 625 633 634
3 626 625 634
3 626 634 627
3 627 634 635
3 627 635 628
3 628 635 636
3 628 636 629
3 629 636 637
3 629 637 630
3 630 637 638
3 631 638 639
3 631 630 638
3 640 578 639
3 578 573 572
3 578 631 639
3 578 640 580
3 576 641 632
3 576 582 641
3 633 641 642
3 633 632 641
3 633 642 643
3 634 633 643
3 634 643 644
3 635 634 644
3 635 644 645
3 636 635 645
3 636 645 646
3 637 636 646
3 637 646 647
3 638 637 647
3 638 647 648
3 639 638 648
3 640 648 649
3 640 639 648
3 584 580 640
3 649 584 640
3 582 650 641
3 582 586 650
3 642 650 651
3 642 641 650
3 642 651 652
3 643 642 652
3 643 652 653
3 644 643 653
3 644 653 645
3 645 653 654
3 645 654 646
3 646 654 655
3 646 655 647
3 647 655 656
3 647 656 648
3 648 656 657
3 648 657 649
3 649 657 658
3 588 584 649
3 658 588 649
3 586 659 650
3 586 590 659
3 650 659 651
3 651 659 660
3 651 660 661
3 652 651 661
3 652 661 662
3 653 652 662
3 653 662 654
3 654 662 663
3 654 663 664
3 655 654 664
3 655 664 665
3 656 655 665
3 656 665 666
3 657 656 666
3 657 666 658
3 658 666 667
3 592 588 658
3 667 592 658
3 590 668 659
3 590 594 668
3 660 668 669
3 660 659 668
3 660 669 670
3 661 660 670
3 661 670 671
3 662 661 671
3 662 671 663
3 663 671 672
3 663 672 664
3 664 672 673
3 664 673 665
3 665 673 674
3 665 674 666
3 666 674 675
3 666 675 667
3 667 675 676
3 596 592 667
3 676 596 667
3 594 677 668
3 594 598 677
3 668 677 669
3 669 677 678
3 669 678 679
3 670 669 679
3 670 679 680
3 671 670 680
3 671 680 681
3 672 671 681
3 672 681 682
3 673 672 682
3 673 682 683
3 674 673 683
3 674 683 684
3 675 674 684
3 676 684 685
3 676 675 684
3 600 596 676
3 685 600 676
3 598 686 677
3 598 602 606
3 678 686 687
3 678 677 686
3 678 687 679
3 679 687 688
3 679 688 680
3 680 688 689
3 680 689 681
3 681 689 690
3 681 690 682
3 682 690 691
3 683 691 692
3 683 682 691
3 684 692 693
3 684 683 692
3 685 693 694
3 685 684 693
3 694 604 685
3 685 604 600
3 598 606 686
3 606 607 695
3 686 606 695
3 686 695 687
3 688 687 696
3 696 687 695
3 688 696 697
3 689 688 697
3 689 697 698
3 690 689 698
3 690 698 699
3 691 690 699
3 691 699 700
3 692 691 700
3 692 700 701
3 693 692 701
3 610 609 694
3 701 610 694
3 701 694 693
3 609 604 694
3 607 612 695
3 695 612 696
3 696 612 614
3 614 616 697
3 696 614 697
3 616 618 698
3 697 616 698
3 618 620 699
3 698 618 699
3 620 622 700
3 699 620 700
3 622 624 701
3 700 622 701
3 624 610 701
