OFF
702 1400 0
-0.260958526229183 -0.326831492671097 2.20338741971664
-0.306348792331288 -0.313150135870331 2.18548443803005
-0.27823774931376 -0.332752439910403 2.15813698511781
-0.214092613097286 -0.333444712662084 2.20814707618159
-0.232307968087423 -0.343494831102966 2.16345909268593
-0.167286651797204 -0.338118738155041 2.21133474044659
-0.185919694513314 -0.347750270445471 2.16562369214448
-0.121911809251243 -0.342134840223192 2.21571994797959
-0.140595644801041 -0.351797591460214 2.16748829271378
-0.0770222812212638 -0.345953205707386 2.22046025981267
-0.0958397121863289 -0.355418106198898 2.17214734356286
-0.0295266071247544 -0.348987283307156 2.22810123522401
-0.0500578866333752 -0.35866321198895 2.18065572445762
0.0185783204485568 -0.344531679045104 2.23642971976962
-0.00274555513664781 -0.360215092647316 2.18967777471052
0.0437772652641078 -0.35130589583304 2.19840338552488
-0.328943434254068 -0.284406245446449 2.21355152025605
-0.358636908456848 -0.267173684238329 2.18600131361477
-0.337467485635877 -0.297351674879886 2.1577198227194
-0.28852791994526 -0.300298122400677 2.23336733838265
-0.241848460632002 -0.309277984266648 2.24542859872682
-0.194156745575961 -0.314581236401195 2.24930040926078
-0.147392834297993 -0.318496968500609 2.25469585633325
-0.102179625301796 -0.321859950003705 2.26053671805701
-0.0578874387260646 -0.32722968457701 2.2631436142868
-0.00924280084832101 -0.328000957162918 2.27041673008001
0.064550528954637 -0.328358645862699 2.24201063159067
0.0359555988393687 -0.315839605186374 2.27810545778844
0.0820725212609267 -0.295721669527275 2.27569056168708
-0.315997388539815 -0.26333345894872 2.25499497810631
-0.356089990998395 -0.24299908126605 2.22686341694527
-0.27005304603625 -0.276717463333509 2.27263723602708
-0.220118745357995 -0.283046937209442 2.28075512000182
-0.172526034318817 -0.287366094041141 2.28601611469908
-0.124909032395821 -0.289772552016041 2.29323211579944
-0.0802093533672376 -0.292481643984586 2.29954624008137
-0.0379743396794156 -0.301854587704572 2.29856985398385
0.00336895611510295 -0.293554895673046 2.30917557696857
0.0490390878096342 -0.280158672111377 2.31051930435534
0.0938767479195107 -0.257918422531318 2.30386548556551
-0.334220858329594 -0.225951990672013 2.27542334728494
-0.367333439897277 -0.204595787177237 2.24880461802877
-0.293281156002989 -0.240770182767246 2.29668822777926
-0.244288687730334 -0.251341746750822 2.30797737289721
-0.195529670298456 -0.253474496931307 2.3158844714008
-0.148085131703286 -0.258221020396962 2.32068064711499
-0.0965907882699198 -0.259014926603019 2.33032634461711
-0.0417493290627387 -0.268411467467391 2.3318846307947
0.00869340208151384 -0.26107438473573 2.34116536598635
0.0591865918813193 -0.245585352193169 2.33975765446181
0.103968167495156 -0.219563639414778 2.33170262133828
-0.318300040144776 -0.201582553043122 2.31782388092518
-0.35873472860445 -0.183890346866531 2.28662018762176
-0.269092400265687 -0.218723964096516 2.3328414687018
-0.221690860384694 -0.220964687207377 2.34370420766816
-0.176151356216118 -0.221961999349207 2.35193398838042
-0.13221497028557 -0.229805891616056 2.3528610549735
-0.0986956851865551 -0.217769231793936 2.37193256051914
-0.0638747045209717 -0.237128920516847 2.35927319844837
-0.0215593281835933 -0.233585213224123 2.37010684594353
0.0263508291121812 -0.227070937375837 2.37141801605704
0.0744214696374413 -0.208318320539876 2.36713423871749
-0.32144685950634 -0.160825397864566 2.35776952293601
-0.349474496896273 -0.163210789307416 2.32291183995215
-0.288577521406507 -0.187197500128054 2.35531669801705
-0.24151486042262 -0.189489510912012 2.3717493346187
-0.196772745484835 -0.188215229071661 2.38213975995578
-0.147868585817294 -0.193177658834425 2.38701120050876
-0.10243590326125 -0.187321704038943 2.40220366887947
-0.0550342932065557 -0.200738106296865 2.39815467818099
-0.00701206707972553 -0.200544337795912 2.40356054430879
0.0407668536572352 -0.193281681427758 2.40007672260133
0.0882580376605684 -0.171191592590705 2.39287171627707
-0.310830367863866 -0.13616951032871 2.39291304421696
-0.354914480533087 -0.123621917033782 2.35766353292003
-0.272182482835542 -0.160659446176416 2.39127973499554
-0.2262157487511 -0.154333317612401 2.41069021031176
-0.1761847112813 -0.158835400825373 2.41626061114464
-0.130387612478012 -0.158572609023201 2.42582745470303
-0.0788630077498065 -0.162588665595912 2.43219537227528
-0.0339273881221301 -0.169133383332023 2.43428788880602
0.0124506405113859 -0.166266329963455 2.43552162542725
0.0563965693875925 -0.159090016269792 2.42649697956286
0.0928190903447602 -0.133435431145032 2.42529380659062
-0.306011547139619 -0.0962110241992006 2.42849147032134
-0.339864943408809 -0.105095405664611 2.39537408937088
-0.272616318970729 -0.126478764574864 2.42421524381902
-0.238024595685558 -0.114540389451897 2.44197743066595
-0.1952992238983 -0.123155972580469 2.44370909402679
-0.150179485494294 -0.123395414573571 2.45149676780565
-0.102977412964576 -0.126828414953066 2.45748160592323
-0.0543755261640545 -0.131046275674576 2.46319088778378
-0.00609401284110302 -0.134241519269084 2.46495940994011
0.0455004747324821 -0.12866960643052 2.45734557297452
0.0929120483800742 -0.0976199069136544 2.44944543885089
-0.347192161484773 -0.065721479502486 2.41208847454793
-0.268782067785558 -0.076748601353132 2.4543090645932
-0.312274436886933 -0.0522198339482378 2.44325734054008
-0.219319074005129 -0.0774247997960915 2.46361954057152
-0.173291478620822 -0.0822862782390221 2.46880905620282
-0.126616924368212 -0.0833909501485004 2.47549634147359
-0.0808244220763084 -0.0881202125564945 2.48070958805536
-0.034161591735977 -0.0927587981548639 2.48580544296656
0.0125026594574725 -0.0945807255222931 2.48381787530169
0.0568612559012328 -0.0885077539500212 2.47363452384836
0.0386870197245682 -0.0494926207663592 2.48998399133375
-0.285342075672541 -0.0251766470067677 2.46107517445631
-0.242920856536074 -0.0343696491498047 2.4711407587699
-0.193892993844295 -0.0363645538796463 2.47743946339822
-0.14813929953029 -0.0376236516147528 2.48335631006803
-0.101855981212766 -0.0392025716679574 2.48928009213562
-0.0573029312269427 -0.0460572554312378 2.49435643348212
-0.00960256318496362 -0.0505750551206876 2.49740960210271
-0.256257996863424 -0.340805069243378 2.11896070744818
-0.27997606419231 -0.326990442158556 2.08338493004712
-0.256380417051496 -0.320512486261728 2.04582136972059
-0.206660782941822 -0.347458914872823 2.11970452433047
-0.228218812336339 -0.338646444901614 2.07855106799165
-0.160612689928697 -0.350508058344259 2.11913995551693
-0.180061811543524 -0.339324307997286 2.07307318406952
-0.115209099142715 -0.353741157364355 2.121772428967
-0.134756174166603 -0.341192614312674 2.07384615973717
-0.0698971090032069 -0.357567458178372 2.12957385298302
-0.0871966720384357 -0.345082624111368 2.08009239501027
-0.0250038583175305 -0.361591079395931 2.14006308203814
-0.0415009403811029 -0.349993895060178 2.08941927117372
0.0210477744108397 -0.360389503802186 2.14866051212764
0.00269050993527854 -0.354359467528724 2.10082822822319
0.0506248248901216 -0.347633166409569 2.10985776420598
-0.307754352086287 -0.320278282950148 2.12657731386002
-0.346094021793582 -0.289707372838103 2.11035916730572
-0.316562399035547 -0.30567934607252 2.07807813785689
0.0885767993768386 -0.331277103701628 2.20257302604163
0.0642487622501069 -0.348827017363989 2.15793050387941
0.104002803996543 -0.327561686736631 2.15987943182365
-0.383765416382966 -0.231448502002538 2.17612928684077
-0.393985574634198 -0.21921716974344 2.12646179194233
-0.371394544864738 -0.261745683585022 2.13969744052416
0.109744862103076 -0.302925327744426 2.23604458576762
0.130380598770822 -0.301672054853914 2.19172256729778
0.147606823574132 -0.270330562542852 2.21886802941839
-0.385809151534708 -0.202642074314377 2.20745404707092
-0.40155355240013 -0.18673105324239 2.16104376920238
0.12379943006727 -0.267082040501592 2.26411718773052
0.155056995625741 -0.230914112201373 2.24930183829732
-0.389379935619292 -0.163884553097131 2.24110737877992
-0.401988228167535 -0.156693460510316 2.19730747977975
0.131835535205666 -0.22665074903735 2.29195512721494
0.161679577635763 -0.188971427167596 2.27335501625113
-0.383790670040139 -0.144665713599333 2.27881690819417
-0.404078067314558 -0.116379300761444 2.23643616531967
0.140682628214454 -0.185555505682846 2.31723921028963
0.166296965927658 -0.14698814605921 2.29941676760702
-0.375854322258275 -0.12648003380131 2.31764957391736
-0.399489132108439 -0.098413432129681 2.28164590334125
0.117476131333581 -0.17848138541934 2.35641264136244
0.150207093136638 -0.140484227322384 2.34209452312009
-0.389420855828634 -0.0864023673175006 2.32962610718441
-0.40748040335969 -0.0521624712801688 2.29818981186632
0.125072194892729 -0.138521805844713 2.38476801229326
0.155493622397696 -0.100489560265489 2.36765705657005
-0.373912015286028 -0.0787038624040681 2.37110137339358
-0.397944917467574 -0.0408256284120389 2.34551271427715
0.128698589924467 -0.101167133816855 2.41291837235783
0.152603948446121 -0.0633376690174812 2.39906645436991
-0.376554366767523 -0.0334915135191563 2.38837868050312
-0.34445521819193 -0.0221377096526323 2.42587967206978
-0.364025396585063 0.0112970253310008 2.4060510585218
0.0859027168327609 -0.050610647190745 2.46930510041809
0.109443247612785 -0.0114040535211636 2.45496007109003
0.122655408240826 -0.0590295031529748 2.43895708002877
-0.31885792360561 0.00539741724157303 2.44498635903485
-0.266364012932188 0.0158935215084713 2.46685781777516
-0.298136692389914 0.0441659887575491 2.44929050686181
-0.216834308342381 0.00705241529533008 2.47574504823096
-0.169576715063006 0.00973498083741226 2.48095088961863
-0.122986417981037 0.00813858576292597 2.48643659673622
-0.0761827427702292 0.00647543362875827 2.49193317901431
-0.0332952372803741 -0.0044437478426878 2.49796480299557
-0.00762804962863785 0.0318179581231149 2.49188327395262
0.0173658421244135 -0.00839089524710443 2.49623836564958
0.0661015071604899 -0.00841896486106882 2.48139317250203
-0.264482291348678 0.0732861100807643 2.45137374560878
-0.233027093356771 0.0495448009336413 2.46616908758762
-0.188883159202697 0.0546161094390379 2.4688674914573
-0.142800932318252 0.0544042914787501 2.47332179909398
-0.0961396629505948 0.052169850929278 2.47852521397556
-0.0477556553201862 0.0502081113251286 2.48377221867787
0.00822545278158122 0.0687138757660144 2.4759713521134
-0.34406647789732 -0.274264400456736 2.06080430380296
-0.327668460538461 -0.26176573629739 2.0215269807917
-0.297280779910584 -0.297479981375656 2.03621601253473
-0.248465299171849 -0.299000973788608 2.00936280702169
-0.206676795650564 -0.322221348820494 2.03603803172234
-0.156116066667136 -0.31832219398278 2.02928644115301
-0.106178586414916 -0.323639631083592 2.03755514109544
-0.0541584452204387 -0.327910177982853 2.04422359033705
-0.00889677919113191 -0.333575607848938 2.05315347738471
0.0351690109283915 -0.336813862817487 2.06933850549407
0.0777009900573781 -0.319042006144859 2.06792508030007
0.0902955460773607 -0.331270685280776 2.11629581839915
0.117071578830927 -0.305738934672396 2.097681457012
-0.373831416297967 -0.251007372416318 2.09342484950245
-0.391175185909475 -0.204913528915297 2.07897702302349
-0.367885501631911 -0.232780781773901 2.04969229523978
0.133695185965428 -0.301669954700024 2.14215868144004
0.14981576872049 -0.274042046310917 2.10995319306181
0.159803462534119 -0.269065136370119 2.16499812384319
-0.405201457210449 -0.170693759800703 2.11437886321768
0.179847398049612 -0.227095896608281 2.1609908807929
-0.408024769953745 -0.138661466455858 2.1459511705015
0.171800978471028 -0.233463788400614 2.20371532806944
-0.408914175565357 -0.115115915894035 2.18796190032613
0.177680574033916 -0.190734858204783 2.22611441301363
-0.410733256642331 -0.0748075742280066 2.20218895350555
0.180504362918831 -0.14974918757582 2.24878157934353
-0.410654480136354 -0.065484541194874 2.24914431471517
0.181360491861086 -0.11153145003623 2.27481223831693
-0.413496463122746 -0.0172145998616877 2.26600635241516
0.173602343375701 -0.0973961978685137 2.31980385751688
-0.409627049811686 -0.00462147793657194 2.31599472916223
0.174024122900382 -0.0574037024886004 2.35130774891652
-0.392785905156296 0.0052808309999769 2.36372276912221
-0.398932734529394 0.0416524346548116 2.3335294000781
0.142659870930397 -0.0179606006533781 2.42129291387296
0.166970129116269 -0.0231808301622216 2.38041852158621
-0.37518993564931 0.0488964893218084 2.37948410498763
-0.340446842144004 0.0457273592662867 2.42087916428669
-0.347095391605368 0.0863225524660803 2.39176766552535
0.0422713227149968 0.0328154429832324 2.48275655396869
0.0887525588361612 0.0315941973930513 2.46118952012402
0.127649937987657 0.0281669902061044 2.42927916302726
-0.31036416806525 0.0835608968857811 2.42531689405153
-0.26965056419749 0.110068446481466 2.42767322330091
-0.217298833149709 0.0946034229666647 2.44787955404124
-0.168246875759289 0.096407031640358 2.45040749172256
-0.120915626131523 0.0950962141942289 2.45465287277695
-0.0735822890170325 0.0917352111644417 2.46022698958948
-0.0275926920037183 0.0920881704772366 2.46317300304439
0.0261389573274243 0.102348893371038 2.45016941535284
0.0596279823444884 0.0705344876032626 2.45975091262883
-0.316113664612131 -0.231348520951286 1.98508394402623
-0.284995729877228 -0.270479726662024 1.99593464162861
-0.236496358849466 -0.268704449252194 1.97564889596744
-0.199444251023083 -0.296397959994814 1.99998023463531
-0.155687866957855 -0.285125722863504 1.99029192247107
-0.115526027817265 -0.292829765943622 1.99972513035943
-0.0685934060056275 -0.301620563573382 2.01061068688716
-0.0124339113510559 -0.303063031376872 2.0144934070392
0.0350270192217209 -0.312342177000233 2.03220891232882
0.0804718971723217 -0.28905006827496 2.03048384995745
0.118489021757059 -0.2837241368533 2.06251892790024
-0.379175189332745 -0.180923404339235 2.03406323643203
-0.351663332622036 -0.219528864728716 2.01433235253278
0.151541324123808 -0.247505955427729 2.0714029224118
0.171809184389803 -0.238110908367176 2.11929468626497
-0.398070887941821 -0.15740866407041 2.07294208627567
0.188731420805036 -0.189977297296856 2.13166059157102
-0.403059515345387 -0.115517495514546 2.10054013601931
0.187736572005036 -0.185569968218297 2.18125832450568
-0.406797880032975 -0.090109723092103 2.14723916563441
0.188764842757342 -0.142359663186613 2.20159847699599
-0.405574810813906 -0.0458659570664266 2.16561806752083
0.188800011247047 -0.102232511353259 2.2270050430355
-0.410365561062695 -0.0282611214832327 2.21595427946752
0.18599654612349 -0.0694809210786403 2.27080439746893
-0.408846880777734 0.01770839942512 2.2329648691883
0.18308294816446 -0.0464330059594593 2.30927703666345
-0.41021635703753 0.030184598678505 2.28386468444301
0.178561812784366 -0.00144895979529741 2.34289208651579
-0.394793262797018 0.075781904273913 2.30110912521351
0.157464965764512 0.0202763046787639 2.38963360531175
-0.376017481619099 0.0846173031726018 2.34839543392396
-0.342839070225185 0.12174415960534 2.35924588800658
0.101965917476387 0.0700206268777629 2.43210219804891
0.137217131692859 0.0640375663029415 2.39613374857687
-0.308954956650752 0.120929108461049 2.39628321085674
-0.265167303282643 0.146813548670384 2.39414683575773
-0.229734384633998 0.129111339807328 2.42114374362525
-0.184798756679197 0.132520465601715 2.42024132042867
-0.14068071504872 0.132631514411312 2.42211403953559
-0.0939943252649604 0.128577803325705 2.42822674682396
-0.0506955880761817 0.128111804964277 2.43063450872752
-0.00810268706322172 0.125971342092507 2.43411137441298
0.069414525723447 0.107052151483946 2.42685728801267
-0.312364722459121 -0.198018599582452 1.95494997846773
-0.274227005728775 -0.237217706448766 1.96103478515974
-0.22727143556848 -0.235661056379799 1.94266675114724
-0.18785856625726 -0.261134862271976 1.96509008127513
-0.133937589788148 -0.252766350945532 1.95922700880444
-0.088156946349866 -0.264902554419484 1.97330199248527
-0.0426036330132117 -0.276363134378053 1.98669798950176
0.000911481230683686 -0.265302193524219 1.97770163814309
0.0383899599107554 -0.281504746948086 2.00044581021802
0.0852179741654856 -0.256000455038592 1.9967077944136
0.121887980139227 -0.253479115491268 2.02939622744079
-0.373819639249703 -0.144669093466005 2.0024004337384
-0.349806742707163 -0.186339962592394 1.98817336742491
0.157817944352591 -0.215078400952344 2.0391707277107
0.177961894718034 -0.205233195539041 2.08519069488848
-0.392898172275782 -0.125992956709249 2.04598789660808
0.195362411022367 -0.157103670201835 2.10178401189136
-0.395985115186058 -0.0797610585546723 2.06585350562199
0.194582770066351 -0.144006901176526 2.15318114944859
-0.400271082501873 -0.0622918266697221 2.11192806626578
0.195402666402035 -0.0970296884008758 2.1765978752195
-0.399114948460922 -0.0158654099900234 2.13225276408302
0.193048050608812 -0.0580624926880668 2.2207106882872
-0.403636584433204 0.00290524905062521 2.18107514507078
0.191416446882524 -0.0256102670367663 2.25477369958329
-0.402252589517179 0.0501256027281292 2.20004854075115
0.187915775384399 -0.00470503171811136 2.29638897285326
-0.403600233560657 0.0640628242406738 2.25134669796018
0.184700570245936 0.0388461255336574 2.31015370397847
-0.388087826191065 0.109284505661958 2.26838994319199
0.166551703334331 0.049025596628798 2.35469096132609
-0.369497741230277 0.118215157807294 2.31561991599962
-0.335359113297913 0.155893340354761 2.32667521322834
0.109176076099316 0.105395765333237 2.39764183981095
0.145137092518564 0.0963166249392206 2.36234938485525
-0.302199713310748 0.154841154016351 2.36322468864729
-0.253337754665588 0.179413806963934 2.3642176627035
-0.213315768905491 0.161693882964579 2.3900717677794
-0.162282881540987 0.167679961631225 2.38643844169458
-0.109680844236265 0.161042462139245 2.39537548286528
-0.0612883195476044 0.162119492385927 2.39648452439069
-0.015230581702077 0.159749447303384 2.40090145588884
0.0323688033170359 0.139153031788645 2.41476710422372
0.0737890668541378 0.143067212731703 2.39317881420199
-0.306400894199228 -0.165425136390721 1.92344729420661
-0.268870154233709 -0.203680287286067 1.92882841394277
-0.220885253220921 -0.203998903451406 1.91158211499105
-0.176313788128678 -0.229900107721628 1.9346794237495
-0.128920795200685 -0.216089022383675 1.92313497776388
-0.0870386978885475 -0.230167824707552 1.93895883588577
-0.042564839779805 -0.243373573296474 1.95403368723262
0.00394563816159617 -0.230059432576063 1.94294071366646
0.0469019723305262 -0.246618114466154 1.9667265583189
0.0926386984182224 -0.222014569365109 1.96383081225961
0.128409774470298 -0.221511427074701 1.99822359437901
-0.366902606653557 -0.110573067328201 1.96867945822354
-0.344031438915296 -0.154622125161234 1.95780434892246
0.164581619668792 -0.182391120142793 2.00765950289327
0.184973083317891 -0.171600314701719 2.0536138670079
-0.386095416113741 -0.0949054905503067 2.01329453568547
0.201899596885408 -0.124485218269874 2.0711184833038
-0.389256879860034 -0.0490504149676019 2.03075563302456
0.200958157642666 -0.110127774113439 2.12298744660024
-0.393511877182949 -0.0264450697770258 2.07986725260279
0.202743101889054 -0.0639546799627616 2.13802547188915
-0.393180558756168 0.0195391628873223 2.10661261039384
0.198754748744456 -0.0466049723765673 2.18159777560226
-0.397068138331729 0.0371406228683785 2.14953346386367
0.198626310787178 -0.00259689657094751 2.21082820344001
-0.395462308080925 0.0824520801431214 2.16548050239265
0.194862775603783 0.0231926617663098 2.25797400700398
-0.397204677615646 0.0963098038914451 2.21801015864433
0.192265737693898 0.0693102800931311 2.27491423412631
-0.381498198942973 0.142060607347773 2.23652934161242
0.172555706265054 0.0853045330064014 2.32172723723251
-0.36234640493712 0.151862705442847 2.2836721197793
-0.326606265891901 0.189531149862354 2.29644596329028
0.115056915734251 0.139528605557863 2.36501937823326
0.151007051812722 0.130994101364303 2.32979891652263
-0.29195858507466 0.188203735215485 2.33331763980955
-0.243349714529989 0.212080854042513 2.33337717040173
-0.202195002091857 0.193470520472635 2.35910610731238
-0.157164910093606 0.206597622750903 2.34813293391519
-0.120194964290902 0.190885382911134 2.36535246908785
-0.0724745338441693 0.193644419399673 2.36476562785425
-0.022095990595902 0.19381610604172 2.36686030990157
0.0277719199949896 0.17380923795861 2.38372230126689
0.0755483354414845 0.176482244756188 2.36315459962708
-0.299726867855802 -0.132812440651692 1.89128495716465
-0.262831090546851 -0.17050903689142 1.89658355949991
-0.216511241956702 -0.171331586072955 1.87997409564855
-0.172538055819092 -0.197381175740496 1.9026497895753
-0.122638350289229 -0.181431701750945 1.88909929451093
-0.0807621774204188 -0.194731503160024 1.90415111411325
-0.0389859303013033 -0.209394760635812 1.92054927260258
0.00746894889296303 -0.195125156508712 1.90850739205584
0.0507471367766674 -0.213544241551905 1.9333847527614
0.096291825655045 -0.190124974235021 1.93061200605242
0.135068051223568 -0.189072985556981 1.96664478147259
-0.361444859560327 -0.0756702240392106 1.93764711896253
-0.337413496793257 -0.122550197802735 1.92601571111615
0.170986506926013 -0.149876138006199 1.97559255035831
0.191606541354305 -0.138576328617173 2.02145841938908
-0.379687900719966 -0.0599142863325543 1.98098349649033
0.208243604720189 -0.0924167815383686 2.03811575414105
-0.38187926848216 -0.0111776944889068 1.9949591544282
0.207863855868459 -0.0768383375688958 2.08808984082905
-0.386563792325443 -0.00233787918751561 2.03875253201887
0.209078539375417 -0.0275259342360409 2.10978342030584
-0.38765286429512 0.0295288196798097 2.06801980190426
0.204591725473912 -0.0106191510906891 2.15713656847668
-0.389692099580635 0.0705487447418848 2.11089023083087
0.20564177717059 0.0343698096795769 2.17739858420182
-0.389094346581686 0.114302404318702 2.13404283141889
0.201276055430415 0.0510968640420251 2.22364659154314
-0.390804938108078 0.128432317918155 2.18650443002494
0.199264011772284 0.0998110179003319 2.24153918149504
-0.374045964352996 0.175582101196246 2.20740016165859
0.179955323475472 0.117161262832755 2.28820360689643
-0.354576253910727 0.185270811083846 2.25349754121543
-0.319087959232347 0.222472791708974 2.26538250850138
0.120245662212314 0.172940160736143 2.33360551251197
0.157768580310845 0.163584327282986 2.29744025454568
-0.283494286528307 0.221041819210912 2.30254225466773
-0.236716332107005 0.245391016973219 2.30069165787461
-0.194946654080987 0.22865374859792 2.32459424183401
-0.144232148103333 0.240895147647912 2.31475240238494
-0.104970734222693 0.223791683893003 2.33345318570216
-0.0566711240497507 0.226329556215586 2.33311107137031
-0.0085893397230318 0.227020964819081 2.33458766884488
0.031462873673934 0.205095786137564 2.35355715328141
0.0830806949340677 0.207468950723705 2.33199989667942
-0.300531318499585 -0.0977426413691546 1.8645079598639
-0.255978358274307 -0.136543576978729 1.86320906764879
-0.208097062923548 -0.139617073782904 1.84844304943371
-0.167040088292639 -0.166398476573022 1.87221795125791
-0.117009396658018 -0.148297919589179 1.85659561604719
-0.0735280656113223 -0.159056893551277 1.86915198015829
-0.033841615893932 -0.173275569793258 1.88501460587898
0.00982938119487736 -0.159750355010985 1.8735968366414
0.0539555711293858 -0.180779673098558 1.90024294605039
0.100817348887952 -0.157796359429787 1.8975749385336
0.137816356540884 -0.159383846099964 1.93354544544927
-0.355612383103873 -0.0401685066286814 1.90645496827862
-0.334228836154279 -0.0881291640277646 1.89744951916698
0.171913826638811 -0.123072475296284 1.9400440143901
0.197954128027549 -0.105621512349854 1.98812240279722
-0.373100918377395 -0.0237002903362285 1.9477563018059
0.215632716008409 -0.0558622470595259 2.01613911289619
-0.37517036858336 0.0253164590784049 1.96739366521518
0.214118338317983 -0.0403246471974341 2.06056655463816
-0.380318509239863 0.0416863225096146 2.01610904469665
0.215655674165102 0.00756989970748275 2.07752550249072
-0.383651427004818 0.0708061238190631 2.06188603074718
0.211242073526433 0.0234555873622769 2.12482463383725
-0.382365148343037 0.114412139702405 2.07933521422338
0.212450364557586 0.0687554641728273 2.14355977807831
-0.383288786716103 0.151124955616793 2.11044214556982
0.207999624863835 0.0858230794004355 2.19115515071705
-0.383948284253594 0.162140488833436 2.1595399919172
0.205636722776151 0.132817661621634 2.20983466871348
-0.367287056084812 0.208594042879596 2.17586306036
0.186766858425205 0.149028485268815 2.25592550743504
-0.347243293499594 0.218691406969894 2.22224635577823
-0.31255685922686 0.255284583450894 2.23317901512872
0.127428802005148 0.20559789606486 2.30093072651548
0.164510111412149 0.196233233508032 2.26500061278258
-0.2772502383426 0.253724069136185 2.27027519895952
-0.230740496782258 0.278261295670056 2.2681881004914
-0.187308356654969 0.262045224825929 2.29187336004965
-0.138540410220913 0.27303834736685 2.28315214440013
-0.0911105772568752 0.258465899397185 2.29974180413669
-0.041099753246475 0.25888881149273 2.30157095589645
0.00540775118038074 0.25885551023681 2.30369438520122
0.0442278455230769 0.235863247276648 2.32188041907875
0.0905457408409719 0.240163381447268 2.29938534680869
-0.263186721720846 -0.0999994341597838 1.83913067609015
-0.221676739173878 -0.104805979827352 1.8258132395239
-0.175229916817858 -0.102904056647475 1.81955252772362
-0.160721533071468 -0.135574715716091 1.84290400714335
-0.12316196439973 -0.109057456430971 1.82684785582372
-0.0765532008346479 -0.120855923613145 1.83751990661471
-0.029818376529139 -0.131919246430204 1.84822436808546
0.018203403622802 -0.121796559222259 1.84515804476122
0.0573484866190281 -0.148662122981906 1.86927570204992
0.10203462131768 -0.122991876264835 1.86792844699662
0.142316999000175 -0.125598442623999 1.90097540010973
-0.342864239375044 -0.0046522464276352 1.87939808453712
-0.326645510604719 -0.0522907908979297 1.86740082218997
0.191331607796293 -0.0857826303059354 1.94103136514637
0.209222269699472 -0.0615031500565778 1.9732584528908
-0.362982567471387 0.013862859327394 1.91790337599801
0.215115962914949 -0.0176853158354809 1.98180531930219
-0.359666977008685 0.0591995254016087 1.93681611149975
0.217998541215349 -0.00373248402571488 2.02652666959297
-0.369297462203154 0.0750843612402628 1.98095448031078
0.214897720044144 0.0407683352877726 2.04318649454681
-0.376139528011453 0.0947441128895226 2.02584240762497
0.215180417265262 0.0583796722725851 2.0899886240805
-0.369697414543924 0.140947676280648 2.0384523292359
0.212456318082921 0.101940589915291 2.10993297021594
-0.37252379704594 0.169973731793726 2.07291327628185
0.212374014076898 0.11975736953559 2.15642200323462
-0.376341181183772 0.194167590465355 2.12636748985685
0.206812921604061 0.162494385595392 2.1765159630438
-0.358178356683004 0.235795371394458 2.1392860807658
0.191435841096661 0.181714249849973 2.22372053451844
-0.340710421046063 0.249966437642624 2.18810451381085
-0.304848724233635 0.282840421776144 2.19840015570063
0.132879767684056 0.238210426945073 2.26685985585219
0.164768212498997 0.228080341525338 2.23041014980848
-0.269492429492985 0.285640215156495 2.23735654256132
-0.220652216618167 0.307444687726056 2.23090066002632
-0.183578943873602 0.294438344087453 2.25681523604372
-0.141663968206414 0.302048654942509 2.24582697501167
-0.0976687817292118 0.292571391138162 2.26053914098474
-0.0530710030672132 0.288179764455579 2.26729631520894
-0.00301155626931267 0.287173639829945 2.26912148274259
0.0487025683083626 0.269814659755643 2.28708051832206
0.0941175449625866 0.269150367718084 2.26457262769265
-0.288156581651216 -0.0592205832996759 1.83535465548815
-0.242740575654123 -0.0619186802024019 1.81322924454563
-0.195069676524417 -0.0643567904158799 1.80382466376006
-0.143258392080702 -0.0686867440657448 1.80715400298616
-0.0928298719420114 -0.0754084465369066 1.81426200288141
-0.0468157940914077 -0.0853960658297906 1.82219439806943
-0.00271022603501575 -0.0851808584266022 1.8262640419355
0.0444188104727799 -0.0753098484637789 1.82787725740799
0.0644917357745916 -0.109657045592614 1.84518163376835
0.0968590789658928 -0.0744777633016868 1.84249710527496
0.133139644473545 -0.0906929445433007 1.87010313435824
-0.307719879224647 -0.0167470990608623 1.84153284038896
-0.282104407941056 0.0239875833070063 1.82557558532087
-0.265158743746863 -0.0200225609161996 1.81439138787669
0.143755951232409 -0.0499804696717053 1.86539326762642
0.169507857122531 -0.0819841129796553 1.90224783920233
0.173300597982374 -0.0350374528638365 1.89274370758814
-0.339300863805997 0.0500366584456413 1.88839354490976
-0.319667208446989 0.0257743529462956 1.8556121602822
0.19733824647358 -0.0392902237444356 1.93080862295453
0.203015637038921 0.00364013674632439 1.94561600552209
-0.335746088313015 0.0890455859957255 1.91278251476473
0.209030051125747 0.0317392841279295 1.98752656262431
-0.345502574528378 0.111111511570701 1.95106535973802
0.204324699409461 0.0704560549375502 2.0131015345559
-0.357955206509695 0.12399093334806 1.99011652039195
0.207046245107542 0.0935171823673325 2.05418660468704
-0.346580423838411 0.163896482761357 2.00181669727967
0.202478612647877 0.132086602644429 2.07945050391503
-0.350226911560024 0.194144062365161 2.0368088432757
0.204996565630295 0.154955263892036 2.12032976157121
-0.363665046849309 0.212220037403719 2.08856928468951
0.197743928306826 0.19204624767294 2.14497337021562
-0.329429618568707 0.273081345594673 2.14932428293435
-0.341422690430935 0.255139239596082 2.10161206679798
-0.310226084043257 0.288135579414229 2.10619757423966
0.188347600708086 0.209709057929227 2.18838855288837
0.17533846375597 0.233476223314881 2.14359099596511
0.162132014524803 0.248587253718733 2.18812619012477
-0.261419006984841 0.30873693915995 2.1993349974413
-0.295210282517586 0.300527371623181 2.15834898661164
-0.253160765365773 0.321850351562252 2.15624604347943
0.129523916478997 0.267186228662923 2.2263620236695
0.0975402237556399 0.297749009002163 2.18884992051981
0.0850827502652639 0.292776686691087 2.22797548252308
-0.214034714366076 0.325245041251702 2.18996462181663
-0.170151778452653 0.320212827597172 2.21006809152595
-0.117269076149799 0.317507622417168 2.21270045644779
-0.0728671860596213 0.312631344193445 2.22183455421958
-0.0290968790801674 0.309217718589218 2.2271336199069
0.0136332050408024 0.30795893337638 2.22669416023553
0.0466394497000722 0.294368491538714 2.25070661852595
-0.216303881210158 -0.0216529143294754 1.79855706956906
-0.165054766335753 -0.026204438218825 1.79601268518876
-0.114340638107075 -0.0304493335092349 1.80208877801053
-0.0665304803822612 -0.0354502007991671 1.80809851083961
-0.0217496412537207 -0.039169210274549 1.81362212600232
0.0223596145942169 -0.0351864628443127 1.81833286389018
0.0709481105061642 -0.0338585752805396 1.82615596945209
-0.237873062695462 0.0202653063965231 1.80507014574092
-0.210293345664212 0.0576516671587521 1.80744584425559
-0.186476438429647 0.017413263869039 1.79599225785331
-0.1357218705126 0.0137538885709168 1.79947304626707
-0.0880763695363806 0.0125085777509574 1.80561124214915
-0.0408553105680945 0.00891964269704446 1.81142780402817
0.00391976838679696 0.0102790222480824 1.81758078134159
0.0508329536686935 0.00938649241507987 1.8238587244923
0.0989647672197347 0.0108563020628569 1.83855090832886
0.145920635965367 0.00284116586270755 1.86650393610826
0.114470746377405 -0.029529188783259 1.84344780698823
-0.299791751917612 0.0653092090487475 1.85168541586636
-0.26745492021664 0.103563956164437 1.85230046843132
-0.257164891287289 0.0641596800644174 1.8241626096701
0.122286773603129 0.0453110416245247 1.86140500988614
0.179781591307048 0.00736790774886038 1.90398013583882
0.158308447990779 0.0472326402715934 1.893321669626
-0.307387396860512 0.0977003397634522 1.88120591367592
-0.27374317094515 0.136100903140694 1.88686695464614
0.188528889832806 0.0448740985292131 1.93690450736888
0.161030638160233 0.0836465850419881 1.92580156174312
-0.311763587617481 0.132139617998208 1.91924345325366
-0.280543325016184 0.168155185870058 1.92333462948724
0.187710911503401 0.0767501038869259 1.96859885134202
0.159319824461693 0.117441345175626 1.95966616955125
-0.322718413753047 0.158431026446451 1.95824944546187
-0.285196819817529 0.197781807045528 1.95593682707972
0.186526859601651 0.110974621319524 2.00406167805676
0.158499535911433 0.150268160039998 1.99382146089176
-0.319299343437393 0.198098575238156 1.99145586076124
-0.283017061755041 0.233033187390662 1.98848290353375
0.18602565781591 0.140796725480614 2.03628405185471
0.158036150317038 0.182427446721956 2.02781082331441
-0.316264412624102 0.234217501576063 2.02217342702479
-0.282168225782184 0.270247072097756 2.02564745766129
0.185181141137536 0.174479181522164 2.07202266160088
0.157028295231975 0.214761658218874 2.06117080168671
-0.339898445198854 0.235270907145548 2.05851504298998
-0.310327665051981 0.27198584745196 2.06174172872025
0.183666163173341 0.204722126949927 2.10369605863406
0.153979572377481 0.244571539081281 2.09644520284287
-0.27684075553436 0.311482074006981 2.11633897905279
-0.271745641729796 0.301861806425102 2.06854808646883
-0.239120257542315 0.32418601373681 2.10179421736436
0.131909398397519 0.27822432802224 2.1791572388956
0.14559921570161 0.266264123984128 2.1376954457054
0.105910854502722 0.294119511972984 2.13696203563122
-0.214622874446175 0.332445436567076 2.14149340309848
-0.188962367725191 0.332201529945913 2.10573812405632
-0.174136134977847 0.332875390079328 2.16015443544401
-0.145080549589036 0.331017639412489 2.11931877007447
-0.131730543911864 0.328989029293495 2.16960453111479
-0.101008181572837 0.327549310682244 2.12472596854167
-0.0849719970980596 0.325676852256898 2.17261879224143
-0.056193354945719 0.323829754175635 2.12839308631664
-0.040723473838031 0.322086209297515 2.1788993557866
-0.0126611440985237 0.320244177778996 2.13232578852494
0.00376434705473484 0.318987979830159 2.18111397434987
0.0315048822545951 0.317062298512289 2.14044245351173
0.0493730618500336 0.312318296348865 2.19639359437068
0.0691644527281837 0.310615912954048 2.15330567278139
-0.179264096525912 0.0909740546099928 1.81958704322697
-0.157016359047133 0.055928916060574 1.80563524914423
-0.111294346922967 0.0582485033686703 1.81320290155682
-0.0626061588020474 0.0539445396158831 1.81901298197938
-0.0177106311603419 0.0556728683270989 1.82650339663004
0.027658968027382 0.0547877807004191 1.83315138786336
0.0736382526865048 0.0506991392301262 1.84063133185799
-0.22426400990149 0.0999870289839613 1.8309690345345
-0.181491808297751 0.127082272277266 1.84523856454939
-0.135653902579011 0.101062476476874 1.83063081568703
-0.0847736057606893 0.0939158144533838 1.83486986364636
-0.0404640052306876 0.097208479563191 1.84475909614167
0.00404363667820525 0.0971306925048222 1.8526269170524
0.049197509267587 0.0941588546456193 1.85860338054853
0.0925370936720454 0.0843325528116233 1.8661189070714
0.127149483066096 0.0876054528044615 1.89116205901103
-0.228985608247171 0.135394211331016 1.86190928644532
-0.188957665474417 0.160502852449035 1.87868619043824
-0.143177895009824 0.143540300877992 1.86582349952968
-0.104092877659186 0.12711179187001 1.85715936769349
-0.0613012762930068 0.132512260407197 1.87120804044563
-0.017612354504475 0.133191637142256 1.88077146813697
0.0304643016595801 0.129391345123659 1.88665990958243
0.0802379680249105 0.121493957403812 1.89305474138281
0.124945646566395 0.120105048217703 1.92201373604257
-0.235653866833456 0.167661613467507 1.89647387334851
-0.190460229157419 0.192610542210754 1.9111136832575
-0.144522435953975 0.177325348963023 1.89998153355598
-0.0980415429463613 0.160493048531073 1.89226460272933
-0.0510950373225018 0.16738938078491 1.90882438944757
-0.000939754209433333 0.163346271373967 1.91488742104398
0.0468239417372157 0.159109642610592 1.92027971417746
0.0888528922549804 0.151251373064916 1.92820182368963
0.123992167270216 0.154692467958612 1.95751455207401
-0.23895828862961 0.198926467867108 1.92881510556011
-0.192809016530871 0.223160625524937 1.94202822379057
-0.143943334621203 0.211386179304881 1.93481093449929
-0.101508496328448 0.193244980195564 1.92493820625711
-0.0636213466492255 0.202095786762803 1.94165066919031
-0.0189571389600491 0.196098355007149 1.94460694993381
0.029016158112039 0.192410254609976 1.95058836953902
0.0780098348407883 0.186004994293899 1.95853478922854
0.123137279309857 0.185747612077978 1.98939467954082
-0.242004055415158 0.229328928548876 1.96021959839444
-0.198974513200251 0.253393256806889 1.97296649947926
-0.149043273339509 0.243537211661329 1.96654028386993
-0.0999045179770129 0.23121395883317 1.96395937508462
-0.0483770159998191 0.231426286326064 1.97463723161232
-0.00024987065016191 0.226685520872573 1.97957768436566
0.0461237941562185 0.223172110397396 1.98547279032386
0.087553548767166 0.216022538211905 1.99453712236991
0.122540610362751 0.219777725763144 2.02465553237711
-0.246454943473212 0.262060515119534 1.99457740340382
-0.208475818075965 0.284156013000802 2.00569326312941
-0.161541187690443 0.277233743992747 1.99840933065069
-0.115009302354946 0.267009182374848 1.99737198555578
-0.0703938371781534 0.262508043973584 2.00184270195823
-0.0214444958758446 0.260283163504857 2.00951428223676
0.027329485869194 0.256610362279838 2.01567351351153
0.0763661534503412 0.250897140826583 2.02469276077293
0.121145620720054 0.25025688982459 2.05635103279929
-0.242034476074994 0.296688349163846 2.0337830153284
-0.185432252527782 0.306481583904161 2.03424654939677
-0.13674133743487 0.300007997989958 2.03272354518595
-0.0921406012865183 0.295154655844802 2.03612326738742
-0.0473042564196038 0.290994626944058 2.04067173641778
-0.000959471837048753 0.287966163007199 2.04730283272078
0.0440851609156909 0.285011559472211 2.0538871865328
0.084713826597728 0.278266314817134 2.06392433859105
0.116523796640572 0.277400867572418 2.09725234333091
-0.216999255535774 0.318750853835977 2.06502443264812
-0.162827005866402 0.322088321769049 2.07072028206282
-0.117088090742153 0.318595526179332 2.07664130842868
-0.0720531913730167 0.314536158157704 2.08071545215182
-0.0263263719274078 0.310433612673805 2.08493975350721
0.0207862223035999 0.307261085100292 2.09220366337861
0.0676677296394138 0.302084983393632 2.10235067289099
3 0 1 2
3 0 2 4
3 3 0 4
3 3 4 6
3 5 3 6
3 5 6 8
3 7 5 8
3 7 8 10
3 9 7 10
3 9 10 12
3 11 9 12
3 13 11 14
3 14 11 12
3 13 14 15
3 16 17 18
3 16 18 1
3 0 19 1
3 19 16 1
3 0 3 20
3 19 0 20
3 3 5 21
3 20 3 21
3 5 7 22
3 21 5 22
3 7 9 23
3 22 7 23
3 9 11 24
3 23 9 24
3 24 11 25
3 25 11 13
3 13 15 26
3 27 13 26
3 25 13 27
3 27 26 28
3 17 16 30
3 30 16 29
3 29 19 31
3 29 16 19
3 31 20 32
3 31 19 20
3 32 21 33
3 32 20 21
3 21 22 33
3 33 22 34
3 22 23 34
3 34 23 35
3 23 24 35
3 35 24 36
3 24 25 36
3 36 25 37
3 37 27 38
3 37 25 27
3 38 28 39
3 38 27 28
3 30 40 41
3 30 29 40
3 29 31 42
3 40 29 42
3 31 32 43
3 42 31 43
3 32 33 44
3 43 32 44
3 33 34 45
3 44 33 45
3 34 35 46
3 45 34 46
3 35 36 47
3 46 35 47
3 36 37 47
3 47 37 48
3 37 38 48
3 48 38 49
3 49 39 50
3 49 38 39
3 40 51 52
3 41 40 52
3 51 42 53
3 51 40 42
3 42 43 53
3 53 43 54
3 43 44 54
3 54 44 55
3 44 45 55
3 55 45 56
3 45 46 56
3 56 46 57
3 46 47 58
3 57 46 58
3 47 48 59
3 58 47 59
3 48 49 60
3 59 48 60
3 49 50 61
3 60 49 61
3 51 62 63
3 52 51 63
3 51 53 64
3 62 51 64
3 53 54 65
3 64 53 65
3 54 55 66
3 65 54 66
3 55 56 67
3 66 55 67
3 56 57 67
3 67 57 68
3 57 58 69
3 68 57 69
3 58 59 69
3 69 59 70
3 59 60 70
3 70 60 71
3 71 61 72
3 71 60 61
3 62 73 74
3 63 62 74
3 62 64 75
3 73 62 75
3 64 65 75
3 75 65 76
3 65 66 76
3 76 66 77
3 66 67 77
3 77 67 78
3 67 68 78
3 78 68 79
3 79 69 80
3 79 68 69
3 80 70 81
3 80 69 70
3 81 71 82
3 81 70 71
3 82 72 83
3 82 71 72
3 74 73 85
3 85 73 84
3 84 73 86
3 86 73 75
3 75 76 86
3 86 76 87
3 76 77 88
3 87 76 88
3 77 78 89
3 88 77 89
3 78 79 90
3 89 78 90
3 79 80 91
3 90 79 91
3 80 81 92
3 91 80 92
3 81 82 93
3 92 81 93
3 93 83 94
3 93 82 83
3 84 95 85
3 84 86 96
3 97 84 96
3 95 84 97
3 96 87 98
3 96 86 87
3 87 88 98
3 98 88 99
3 88 89 99
3 99 89 100
3 89 90 100
3 100 90 101
3 101 91 102
3 101 90 91
3 102 92 103
3 102 91 92
3 92 93 103
3 105 103 104
3 103 93 104
3 93 94 104
3 96 106 97
3 96 98 107
3 106 96 107
3 98 99 108
3 107 98 108
3 99 100 109
3 108 99 109
3 100 101 110
3 109 100 110
3 101 102 111
3 110 101 111
3 111 102 112
3 112 102 103
3 103 105 112
3 117 114 115
3 116 113 117
3 117 113 114
3 116 117 119
3 118 116 119
3 118 119 121
3 120 118 121
3 120 121 123
3 122 120 123
3 122 123 125
3 124 122 125
3 124 125 127
3 126 124 127
3 126 127 128
3 129 130 131
3 114 129 131
3 114 113 129
3 113 2 129
3 129 2 1
3 4 113 116
3 4 2 113
3 6 116 118
3 6 4 116
3 8 118 120
3 8 6 118
3 10 120 122
3 10 8 120
3 12 122 124
3 12 10 122
3 14 124 126
3 14 12 124
3 133 126 128
3 15 14 126
3 15 126 133
3 132 15 133
3 132 133 134
3 135 136 137
3 137 17 135
3 137 18 17
3 18 137 130
3 129 18 130
3 18 129 1
3 15 132 26
3 139 132 134
3 139 138 132
3 138 28 26
3 132 138 26
3 138 139 140
3 136 135 142
3 142 135 141
3 17 30 135
3 135 30 141
3 143 39 28
3 138 143 28
3 143 140 144
3 143 138 140
3 141 145 146
3 142 141 146
3 41 145 141
3 30 41 141
3 147 39 143
3 147 50 39
3 147 144 148
3 147 143 144
3 145 149 150
3 146 145 150
3 52 149 145
3 41 52 145
3 151 50 147
3 151 155 50
3 151 148 152
3 151 147 148
3 149 153 154
3 150 149 154
3 63 153 149
3 52 63 149
3 155 61 50
3 155 72 61
3 155 151 156
3 156 151 152
3 154 157 158
3 154 153 157
3 74 157 153
3 63 74 153
3 159 72 155
3 159 83 72
3 159 156 160
3 159 155 156
3 158 157 162
3 162 157 161
3 74 85 161
3 157 74 161
3 163 83 159
3 163 94 83
3 163 160 164
3 163 159 160
3 161 165 162
3 165 95 166
3 165 161 95
3 161 85 95
3 165 166 167
3 95 97 166
3 105 104 168
3 170 94 163
3 170 168 94
3 169 168 170
3 94 168 104
3 163 164 170
3 166 171 167
3 173 171 172
3 172 171 106
3 171 97 106
3 171 166 97
3 172 107 174
3 172 106 107
3 174 108 175
3 174 107 108
3 175 109 176
3 175 108 109
3 176 110 177
3 176 109 110
3 177 111 178
3 177 110 111
3 178 112 180
3 178 111 112
3 181 105 168
3 181 180 105
3 179 178 180
3 180 112 105
3 168 169 181
3 172 182 173
3 182 172 183
3 183 172 174
3 174 175 184
3 183 174 184
3 175 176 185
3 184 175 185
3 176 177 186
3 185 176 186
3 177 178 187
3 186 177 187
3 187 179 188
3 187 178 179
3 179 180 229
3 189 190 191
3 114 131 191
3 115 114 191
3 115 191 192
3 115 192 193
3 117 115 193
3 119 193 194
3 119 117 193
3 119 194 121
3 121 194 195
3 121 195 123
3 123 195 196
3 123 196 125
3 125 196 197
3 127 197 198
3 127 125 197
3 128 198 199
3 200 128 199
3 128 127 198
3 200 199 201
3 202 203 204
3 131 130 189
3 190 189 204
3 189 130 202
3 189 202 204
3 131 189 191
3 128 200 133
3 134 200 205
3 206 205 201
3 134 133 200
3 205 200 201
3 205 206 207
3 136 208 203
3 202 137 136
3 202 136 203
3 137 202 130
3 134 205 139
3 139 205 207
3 140 139 207
3 211 207 209
3 136 142 208
3 208 142 210
3 211 140 207
3 211 144 140
3 146 212 210
3 142 146 210
3 148 144 213
3 213 144 211
3 150 214 212
3 146 150 212
3 215 148 213
3 215 152 148
3 154 216 150
3 150 216 214
3 219 152 217
3 217 152 215
3 158 218 216
3 154 158 216
3 219 156 152
3 219 160 156
3 158 220 218
3 158 162 220
3 221 160 219
3 221 164 160
3 162 165 222
3 223 220 222
3 220 162 222
3 165 167 222
3 169 170 224
3 225 164 221
3 224 170 164
3 224 164 225
3 222 226 223
3 167 171 227
3 226 167 227
3 226 227 228
3 226 222 167
3 171 173 227
3 180 181 229
3 181 169 230
3 231 169 224
3 230 169 231
3 230 229 181
3 224 225 271
3 227 232 228
3 232 182 233
3 232 173 182
3 227 173 232
3 182 183 234
3 233 182 234
3 183 184 234
3 234 184 235
3 184 185 235
3 235 185 236
3 185 186 236
3 236 186 237
3 186 187 237
3 237 187 238
3 238 188 239
3 238 187 188
3 188 179 229
3 240 239 188
3 240 188 229
3 229 230 240
3 191 190 242
3 242 190 241
3 192 242 243
3 192 191 242
3 192 243 244
3 193 192 244
3 194 244 245
3 194 193 244
3 194 245 246
3 195 194 246
3 195 246 247
3 196 195 247
3 196 247 248
3 197 196 248
3 197 248 249
3 198 197 249
3 199 198 249
3 250 199 249
3 201 199 251
3 251 199 250
3 204 252 253
3 204 203 252
3 190 253 241
3 190 204 253
3 206 251 254
3 206 201 251
3 207 206 255
3 255 206 254
3 203 256 252
3 203 208 256
3 257 209 255
3 255 209 207
3 210 258 208
3 208 258 256
3 211 209 259
3 259 209 257
3 212 260 210
3 210 260 258
3 213 211 259
3 261 213 259
3 214 262 260
3 212 214 260
3 215 213 261
3 263 215 261
3 216 264 214
3 214 264 262
3 217 215 263
3 265 217 263
3 218 266 264
3 216 218 264
3 219 217 265
3 267 219 265
3 218 268 266
3 218 220 268
3 221 219 267
3 269 221 267
3 223 270 268
3 220 223 268
3 225 221 269
3 271 225 269
3 223 226 272
3 270 223 272
3 272 228 273
3 272 226 228
3 274 231 275
3 274 230 231
3 275 231 271
3 271 231 224
3 273 228 276
3 276 228 232
3 276 233 277
3 276 232 233
3 233 234 278
3 277 233 278
3 234 235 279
3 278 234 279
3 235 236 280
3 279 235 280
3 236 237 281
3 280 236 281
3 237 238 282
3 281 237 282
3 238 239 283
3 282 238 283
3 327 239 284
3 284 239 240
3 240 230 274
3 284 240 274
3 241 285 286
3 242 241 286
3 242 286 243
3 243 286 287
3 243 287 288
3 244 243 288
3 245 288 289
3 245 244 288
3 245 289 246
3 246 289 290
3 246 290 247
3 247 290 291
3 247 291 248
3 248 291 292
3 248 292 293
3 249 248 293
3 249 293 250
3 250 293 294
3 250 294 295
3 251 250 295
3 252 296 297
3 253 252 297
3 241 297 285
3 241 253 297
3 254 295 298
3 254 251 295
3 254 298 299
3 255 254 299
3 256 300 252
3 252 300 296
3 257 255 299
3 301 257 299
3 258 302 300
3 256 258 300
3 259 257 303
3 303 257 301
3 260 304 258
3 258 304 302
3 261 259 303
3 305 261 303
3 262 306 304
3 260 262 304
3 263 261 305
3 307 263 305
3 264 308 262
3 262 308 306
3 265 263 307
3 309 265 307
3 266 310 308
3 264 266 308
3 267 265 309
3 311 267 309
3 266 312 310
3 266 268 312
3 269 267 311
3 313 269 311
3 270 314 312
3 268 270 312
3 271 269 315
3 315 269 313
3 270 272 316
3 314 270 316
3 316 273 317
3 316 272 273
3 318 275 319
3 318 274 275
3 275 271 315
3 319 275 315
3 273 276 320
3 317 273 320
3 276 277 320
3 320 277 321
3 277 278 322
3 321 277 322
3 322 279 323
3 322 278 279
3 279 280 323
3 323 280 324
3 280 281 324
3 324 281 325
3 281 282 325
3 325 282 326
3 282 283 326
3 326 283 327
3 283 239 327
3 327 284 328
3 284 274 318
3 328 284 318
3 285 329 330
3 286 285 330
3 286 330 287
3 287 330 331
3 287 331 332
3 288 287 332
3 288 332 289
3 289 332 333
3 289 333 334
3 290 289 334
3 290 334 335
3 291 290 335
3 291 335 292
3 292 335 336
3 292 336 337
3 293 292 337
3 293 337 294
3 294 337 338
3 294 338 339
3 295 294 339
3 296 340 341
3 297 296 341
3 285 341 329
3 285 297 341
3 298 339 342
3 298 295 339
3 298 342 343
3 299 298 343
3 300 344 296
3 296 344 340
3 301 299 343
3 345 301 343
3 302 346 344
3 300 302 344
3 303 301 347
3 347 301 345
3 304 348 302
3 302 348 346
3 305 303 347
3 349 305 347
3 306 350 348
3 304 306 348
3 307 305 351
3 351 305 349
3 308 352 306
3 306 352 350
3 309 307 353
3 353 307 351
3 310 354 352
3 308 310 352
3 311 309 355
3 355 309 353
3 312 356 310
3 310 356 354
3 313 311 355
3 357 313 355
3 314 358 356
3 312 314 356
3 315 313 359
3 359 313 357
3 314 316 360
3 358 314 360
3 360 317 361
3 360 316 317
3 362 319 363
3 362 318 319
3 319 315 359
3 363 319 359
3 317 320 364
3 361 317 364
3 320 321 364
3 364 321 365
3 321 322 366
3 365 321 366
3 322 323 366
3 366 323 367
3 323 324 368
3 367 323 368
3 324 325 369
3 368 324 369
3 325 326 370
3 369 325 370
3 326 327 371
3 370 326 371
3 327 328 371
3 371 328 372
3 328 318 362
3 372 328 362
3 329 373 374
3 330 329 374
3 330 374 331
3 331 374 375
3 331 375 376
3 332 331 376
3 332 376 333
3 333 376 377
3 333 377 378
3 334 333 378
3 334 378 379
3 335 334 379
3 335 379 336
3 336 379 380
3 336 380 381
3 337 336 381
3 337 381 338
3 338 381 382
3 338 382 383
3 339 338 383
3 340 384 385
3 341 340 385
3 329 385 373
3 329 341 385
3 342 383 386
3 342 339 383
3 342 386 387
3 343 342 387
3 344 388 340
3 340 388 384
3 345 343 387
3 389 345 387
3 346 390 388
3 344 346 388
3 347 345 391
3 391 345 389
3 348 392 346
3 346 392 390
3 349 347 391
3 393 349 391
3 350 394 348
3 348 394 392
3 351 349 395
3 395 349 393
3 352 396 350
3 350 396 394
3 353 351 395
3 397 353 395
3 354 398 396
3 352 354 396
3 355 353 399
3 399 353 397
3 356 400 354
3 354 400 398
3 357 355 399
3 401 357 399
3 358 402 400
3 356 358 400
3 359 357 403
3 403 357 401
3 358 360 404
3 402 358 404
3 404 361 405
3 404 360 361
3 406 363 407
3 406 362 363
3 363 359 403
3 407 363 403
3 361 364 408
3 405 361 408
3 364 365 408
3 408 365 409
3 365 366 410
3 409 365 410
3 366 367 410
3 410 367 411
3 367 368 412
3 411 367 412
3 368 369 412
3 412 369 413
3 369 370 413
3 413 370 414
3 370 371 415
3 414 370 415
3 371 372 415
3 415 372 416
3 372 362 406
3 416 372 406
3 373 417 418
3 374 373 418
3 374 418 375
3 375 418 419
3 375 419 420
3 376 375 420
3 376 420 377
3 377 420 421
3 377 421 422
3 378 377 422
3 378 422 423
3 379 378 423
3 380 423 424
3 380 379 423
3 380 424 425
3 381 380 425
3 382 425 426
3 382 381 425
3 382 426 427
3 383 382 427
3 384 428 429
3 385 384 429
3 373 429 417
3 373 385 429
3 386 427 430
3 386 383 427
3 386 430 431
3 387 386 431
3 384 432 428
3 384 388 432
3 389 387 431
3 433 389 431
3 390 434 432
3 388 390 432
3 435 389 433
3 435 391 389
3 390 436 434
3 390 392 436
3 393 391 435
3 437 393 435
3 394 438 436
3 392 394 436
3 395 393 439
3 439 393 437
3 396 440 438
3 394 396 438
3 397 395 439
3 441 397 439
3 398 442 440
3 396 398 440
3 399 397 443
3 443 397 441
3 400 444 398
3 398 444 442
3 401 399 443
3 445 401 443
3 402 446 444
3 400 402 444
3 403 401 447
3 447 401 445
3 402 404 448
3 446 402 448
3 448 405 449
3 448 404 405
3 450 407 451
3 450 406 407
3 407 403 447
3 451 407 447
3 405 408 452
3 449 405 452
3 408 409 452
3 452 409 453
3 409 410 454
3 453 409 454
3 410 411 454
3 454 411 455
3 411 412 456
3 455 411 456
3 412 413 456
3 456 413 457
3 457 414 458
3 457 413 414
3 414 415 459
3 458 414 459
3 415 416 459
3 459 416 460
3 416 406 450
3 460 416 450
3 418 461 462
3 418 417 461
3 419 462 463
3 419 418 462
3 419 463 464
3 420 419 464
3 420 464 421
3 421 464 465
3 421 465 466
3 422 421 466
3 422 466 467
3 423 422 467
3 424 467 468
3 424 423 467
3 424 468 469
3 425 424 469
3 426 469 470
3 426 425 469
3 427 426 471
3 471 426 470
3 429 428 473
3 473 428 472
3 417 473 505
3 417 429 473
3 430 427 471
3 520 430 471
3 431 474 475
3 431 430 474
3 428 476 472
3 428 432 476
3 433 431 475
3 477 433 475
3 434 478 476
3 432 434 476
3 479 433 477
3 479 435 433
3 434 480 478
3 434 436 480
3 437 435 479
3 481 437 479
3 438 482 436
3 436 482 480
3 439 437 483
3 483 437 481
3 440 484 482
3 438 440 482
3 441 439 483
3 485 441 483
3 442 486 440
3 440 486 484
3 443 441 487
3 487 441 485
3 444 488 442
3 442 488 486
3 445 443 487
3 489 445 487
3 444 446 488
3 488 446 490
3 491 445 489
3 491 447 445
3 490 446 492
3 492 446 448
3 492 449 493
3 492 448 449
3 494 451 495
3 494 450 451
3 451 447 491
3 495 451 491
3 449 452 496
3 493 449 496
3 496 453 497
3 496 452 453
3 453 454 498
3 497 453 498
3 498 455 499
3 498 454 455
3 455 456 500
3 499 455 500
3 456 457 501
3 500 456 501
3 457 458 502
3 501 457 502
3 458 459 503
3 502 458 503
3 503 460 504
3 503 459 460
3 504 460 494
3 494 460 450
3 461 505 506
3 462 461 506
3 507 463 462
3 507 462 506
3 465 463 508
3 508 463 507
3 464 463 465
3 465 508 509
3 465 509 466
3 466 509 510
3 466 510 467
3 467 510 511
3 467 511 468
3 468 511 512
3 468 512 513
3 469 468 513
3 469 513 470
3 515 470 514
3 470 513 514
3 470 515 471
3 472 516 473
3 518 516 517
3 518 505 516
3 461 417 505
3 505 473 516
3 505 518 506
3 515 514 519
3 474 430 520
3 521 520 519
3 520 471 515
3 520 515 519
3 474 520 524
3 476 522 472
3 516 472 523
3 472 522 523
3 516 523 517
3 520 521 524
3 477 475 524
3 524 475 474
3 525 477 524
3 478 526 522
3 476 478 522
3 527 477 525
3 527 479 477
3 478 528 526
3 478 480 528
3 481 479 527
3 529 481 527
3 482 530 480
3 480 530 528
3 483 481 531
3 531 481 529
3 484 532 530
3 482 484 530
3 485 483 531
3 533 485 531
3 486 534 484
3 484 534 532
3 535 485 533
3 535 487 485
3 486 536 534
3 486 488 536
3 537 489 535
3 535 489 487
3 490 538 539
3 536 490 539
3 488 490 536
3 538 540 539
3 541 542 543
3 541 489 537
3 542 541 537
3 541 491 489
3 490 492 538
3 545 493 544
3 538 492 493
3 538 493 545
3 540 538 545
3 544 546 545
3 547 548 549
3 543 495 541
3 547 494 495
3 547 495 543
3 608 547 543
3 495 491 541
3 493 496 544
3 544 497 550
3 546 544 550
3 544 496 497
3 550 497 551
3 551 497 498
3 498 499 551
3 551 499 552
3 499 500 552
3 552 500 553
3 500 501 553
3 553 501 554
3 554 502 555
3 554 501 502
3 502 503 556
3 555 502 556
3 503 504 556
3 549 504 547
3 556 504 549
3 504 494 547
3 506 557 507
3 507 557 558
3 508 507 558
3 508 558 559
3 509 508 559
3 509 559 560
3 510 509 560
3 510 560 561
3 511 510 561
3 511 561 562
3 512 511 562
3 514 512 563
3 563 512 562
3 513 512 514
3 517 564 518
3 518 564 557
3 566 564 565
3 557 564 566
3 557 506 518
3 558 566 567
3 558 557 566
3 559 567 568
3 559 558 567
3 560 568 569
3 560 559 568
3 561 569 570
3 561 560 569
3 562 570 571
3 562 561 570
3 563 562 571
3 572 563 571
3 574 514 563
3 572 574 563
3 573 519 574
3 574 519 514
3 519 573 521
3 522 575 523
3 577 575 576
3 577 517 575
3 564 517 577
3 575 517 523
3 564 577 565
3 573 574 572
3 521 573 579
3 580 573 578
3 579 573 580
3 579 524 521
3 524 579 525
3 522 581 575
3 522 526 581
3 576 581 582
3 576 575 581
3 583 580 584
3 583 579 580
3 583 525 579
3 583 527 525
3 526 585 581
3 526 528 585
3 582 585 586
3 582 581 585
3 587 584 588
3 587 583 584
3 587 527 583
3 587 529 527
3 528 589 585
3 528 530 589
3 586 589 590
3 586 585 589
3 591 588 592
3 591 587 588
3 591 529 587
3 591 531 529
3 532 593 589
3 530 532 589
3 590 593 594
3 590 589 593
3 595 592 596
3 595 591 592
3 595 531 591
3 595 533 531
3 534 597 593
3 532 534 593
3 594 597 598
3 594 593 597
3 599 596 600
3 599 595 596
3 599 533 595
3 599 535 533
3 534 601 597
3 534 536 601
3 602 597 601
3 602 598 597
3 603 599 600
3 604 603 600
3 603 535 599
3 603 537 535
3 536 539 601
3 606 540 605
3 606 602 540
3 602 601 539
3 540 602 539
3 605 607 606
3 608 609 610
3 608 543 609
3 604 542 603
3 609 543 542
3 609 542 604
3 542 537 603
3 540 545 605
3 605 546 607
3 612 607 611
3 605 545 546
3 607 546 611
3 612 613 614
3 612 611 613
3 614 615 616
3 614 613 615
3 616 617 618
3 616 615 617
3 618 619 620
3 618 617 619
3 620 621 622
3 620 619 621
3 622 623 624
3 622 621 623
3 610 548 608
3 624 623 548
3 624 548 610
3 548 623 549
3 548 547 608
3 546 550 611
3 611 550 613
3 613 550 551
3 551 552 615
3 613 551 615
3 552 553 617
3 615 552 617
3 553 554 619
3 617 553 619
3 554 555 621
3 619 554 621
3 621 555 623
3 623 555 556
3 556 549 623
3 565 625 626
3 567 566 626
3 626 566 565
3 567 626 627
3 568 567 627
3 568 627 628
3 569 568 628
3 569 628 629
3 570 569 629
3 570 629 630
3 571 570 630
3 572 571 631
3 631 571 630
3 572 631 578
3 576 632 577
3 625 632 633
3 565 577 632
3 565 632 625
3 625 633 634
3 626 625 634
3 626 634 627
3 627 634 635
3 627 635 628
3 628 635 636
3 628 636 629
3 629 636 637
3 629 637 630
3 630 637 638
3 631 638 639
3 631 630 638
3 640 578 639
3 578 573 572
3 578 631 639
3 578 640 580
3 576 641 632
3 576 582 641
3 633 641 642
3 633 632 641
3 633 642 643
3 634 633 643
3 634 643 644
3 635 634 644
3 635 644 645
3 636 635 645
3 636 645 646
3 637 636 646
3 637 646 647
3 638 637 647
3 638 647 648
3 639 638 648
3 640 648 649
3 640 639 648
3 584 580 640
3 649 584 640
3 582 650 641
3 582 586 650
3 642 650 651
3 642 641 650
3 642 651 652
3 643 642 652
3 643 652 653
3 644 643 653
3 644 653 645
3 645 653 654
3 645 654 646
3 646 654 655
3 646 655 647
3 647 655 656
3 647 656 648
3 648 656 657
3 648 657 649
3 649 657 658
3 588 584 649
3 658 588 649
3 586 659 650
3 586 590 659
3 650 659 651
3 651 659 660
3 651 660 661
3 652 651 661
3 652 661 662
3 653 652 662
3 653 662 654
3 654 662 663
3 654 663 664
3 655 654 664
3 655 664 665
3 656 655 665
3 656 665 666
3 657 656 666
3 657 666 658
3 658 666 667
3 592 588 658
3 667 592 658
3 590 668 659
3 590 594 668
3 660 668 669
3 660 659 668
3 660 669 670
3 661 660 670
3 661 670 671
3 662 661 671
3 662 671 663
3 663 671 672
3 663 672 664
3 664 672 673
3 664 673 665
3 665 673 674
3 665 674 666
3 666 674 675
3 666 675 667
3 667 675 676
3 596 592 667
3 676 596 667
3 594 677 668
3 594 598 677
3 668 677 669
3 669 677 678
3 669 678 679
3 670 669 679
3 670 679 680
3 671 670 680
3 671 680 681
3 672 671 681
3 672 681 682
3 673 672 682
3 673 682 683
3 674 673 683
3 674 683 684
3 675 674 684
3 676 684 685
3 676 675 684
3 600 596 676
3 685 600 676
3 598 686 677
3 598 602 606
3 678 686 687
3 678 677 686
3 678 687 679
3 679 687 688
3 679 688 680
3 680 688 689
3 680 689 681
3 681 689 690
3 681 690 682
3 682 690 691
3 683 691 692
3 683 682 691
3 684 692 693
3 684 683 692
3 685 693 694
3 685 684 693
3 694 604 685
3 685 604 600
3 598 606 686
3 606 607 695
3 686 606 695
3 686 695 687
3 688 687 696
3 696 687 695
3 688 696 697
3 689 688 697
3 689 697 698
3 690 689 698
3 690 698 699
3 691 690 699
3 691 699 700
3 692 691 700
3 692 700 701
3 693 692 701
3 610 609 694
3 701 610 694
3 701 694 693
3 609 604 694
3 607 612 695
3 695 612 696
3 696 612 614
3 614 616 697
3 696 614 697
3 616 618 698
3 697 616 698
3 618 620 699
3 698 618 699
3 620 622 700
3 699 620 700
3 622 624 701
3 700 622 701
3 624 610 701
