OFF
702 1400 0
-0.251983124218443 -0.348507887203063 2.13315300986441
-0.297540792688311 -0.334293768404294 2.11611099694445
-0.269318460863082 -0.352115059730703 2.087680981014
-0.205046984882143 -0.35493491165461 2.13745359155794
-0.223279164876212 -0.362704283824961 2.09231996356569
-0.158192439636387 -0.359340619909594 2.14029032481741
-0.176848640776342 -0.36664018931097 2.09415878378982
-0.112772039242794 -0.363167948126576 2.1443614725432
-0.131484938159596 -0.370361837433838 2.09571147343976
-0.0678378721875885 -0.366821696816253 2.14879892108572
-0.0866863744535841 -0.373814851783614 2.10007882593052
-0.0202977410345963 -0.369826173370783 2.15617036874473
-0.0408559481457802 -0.377093212485075 2.10830823560292
0.0277846253532065 -0.365384210598656 2.16463530408295
0.00649065048728117 -0.37869470198854 2.11713984164316
0.0529511175218308 -0.369842287062787 2.12624712679922
-0.320329031773971 -0.307332819324196 2.1457470150487
-0.350246884789398 -0.288901513964645 2.11923500803885
-0.328871176769021 -0.317295931014052 2.08930952565256
-0.279720920403911 -0.323904508119715 2.16458826286887
-0.232931583333618 -0.333094082476801 2.17605096332113
-0.185183873213119 -0.338157099259537 2.17953480090439
-0.138372904763427 -0.341926344204739 2.18461744100034
-0.0931165429663903 -0.345182356029122 2.19017798790646
-0.0487707065725037 -0.350274423248014 2.19240181230711
-0.000103317137655809 -0.35098883797947 2.19952702712411
0.07362016920475 -0.349112852568466 2.17099952922719
0.04500041895051 -0.33884505294757 2.20777880426531
0.0909248486925592 -0.318197863963994 2.20637383738169
-0.307474973334661 -0.28842981645756 2.18825198291438
-0.347821357995381 -0.266966373337512 2.16134885530361
-0.261366620779918 -0.302327685520097 2.20504878338971
-0.211356582444235 -0.308625848443245 2.21271206424434
-0.163713482562363 -0.312782876802981 2.21763684584989
-0.116058828524121 -0.31513641311245 2.22461792021818
-0.0713208068183879 -0.317770089044074 2.23068766608967
-0.0290041459927221 -0.326683140658237 2.22911938279612
0.0122872386980944 -0.318589846862435 2.24008088364454
0.0578357711936321 -0.304863018117194 2.24206348246976
0.102451119066537 -0.281877706124544 2.23654406793738
-0.325990212993246 -0.252387723015558 2.21072286829309
-0.359362544159716 -0.229921589202357 2.18537237368248
-0.284864222313755 -0.267961443336691 2.23106851431354
-0.235749281871751 -0.27867673371204 2.24166898069717
-0.186953475548664 -0.280784022098406 2.24935280994673
-0.139455764627518 -0.28534381703743 2.25379046206979
-0.087932760718051 -0.286183615127793 2.2632779264472
-0.033003778014625 -0.295141200505146 2.26421462670563
0.0173922033673097 -0.287852323306429 2.27378287020869
0.0677376249457355 -0.271841177859315 2.27312276070115
0.112258771982047 -0.245004364722138 2.26641041862022
-0.310189394626 -0.230217612883931 2.25435734492198
-0.350861169947833 -0.211228110702352 2.22424332551131
-0.260789885683036 -0.247693836534264 2.2683222244817
-0.213343243178823 -0.250082568031097 2.27895406335903
-0.167776424080573 -0.251103643566958 2.28702826697409
-0.123767811958479 -0.258577875047932 2.28744061374061
-0.0903135515409267 -0.247287229435732 2.30707425218523
-0.0553477183789675 -0.265604149689665 2.29331058139212
-0.0130401247061554 -0.262262958255511 2.30423856434492
0.0348113596485619 -0.255384974984173 2.30580920757921
0.0826973472531514 -0.23598105057117 2.30245991280157
-0.313611661329399 -0.191728231435615 2.29647097801551
-0.341701812280288 -0.192471306380746 2.26158992481779
-0.280508000227804 -0.21762103320307 2.29252028778443
-0.233386064971166 -0.22036757145862 2.30871160222397
-0.188632120573874 -0.219245645155814 2.31906859620172
-0.139672689567034 -0.224011556633799 2.32356678231063
-0.0942584231003432 -0.2185701606558 2.33896702766916
-0.0467458702223941 -0.231305095880938 2.33410024692296
0.00128569800761333 -0.230959998654636 2.33941480224495
0.0489873070837658 -0.22307476570812 2.33623863302321
0.0962560818900147 -0.200184704291218 2.33015548288151
-0.30313538877135 -0.168926024043458 2.33288521732288
-0.347419189120247 -0.154886758848426 2.2984581466743
-0.264268686867312 -0.192930499389032 2.32984411218062
-0.218314340139857 -0.1872444846951 2.34948066866981
-0.168230586022695 -0.191578363751482 2.35469966233298
-0.122414453639911 -0.191411711601643 2.36417711212415
-0.0708396967982242 -0.195289880141447 2.37021600626942
-0.0258409457047449 -0.201521133557678 2.37186092203925
0.0205117336579891 -0.198294813701731 2.37315846474864
0.0643677007276418 -0.190229535569805 2.3644525002966
0.100550372391793 -0.164210237334451 2.36457814497006
-0.298595781490101 -0.130922161488327 2.37057904238247
-0.332447557113351 -0.138303228277 2.3370928850303
-0.264935011534558 -0.160600422448635 2.36459432205719
-0.23041067718418 -0.1493266161596 2.38291313837868
-0.18760397124161 -0.157626444279194 2.38408919302517
-0.142464934955172 -0.157870621612964 2.39176407214873
-0.095218803408582 -0.161185912160403 2.39746067925019
-0.046566400615605 -0.165256846531095 2.40283662984701
0.00174658274016969 -0.168095009627533 2.40433404445314
0.053268942697077 -0.161637484520079 2.39693440473506
0.100374243410879 -0.129764374902375 2.39064562083353
-0.340094432663992 -0.0999681548173354 2.35594261434282
-0.261483011829665 -0.112550161942754 2.3973461896124
-0.305225504604962 -0.0878608374563999 2.38773272056057
-0.211993169097779 -0.113273040940092 2.40650931535248
-0.165910316906639 -0.117982208136047 2.41133622536304
-0.119211304531352 -0.119015898995897 2.41786216019102
-0.0733646889439444 -0.123596529168354 2.42272043101547
-0.0266489044803194 -0.128072140046299 2.42746472634959
0.0200250670932546 -0.129349478016748 2.42528964721116
0.0643009536264958 -0.122318895387919 2.41536576245796
0.0458099422448644 -0.0844229570576577 2.43385275575469
-0.278498560984678 -0.0615794939875597 2.40694528718221
-0.235970221384696 -0.0709127180481501 2.41641198504912
-0.186910798019025 -0.0727922483871609 2.42249680137606
-0.141133081088785 -0.0739467103963351 2.42824682703898
-0.0948228142220799 -0.0754159634292933 2.43398531248896
-0.0501964414493711 -0.0821228227018969 2.43859346676684
-0.00244929282782777 -0.0863569073267522 2.44130267142907
-0.24736211857871 -0.357816852734583 2.04808118708736
-0.271293211697537 -0.342305509915912 2.01335759851849
-0.247850329770483 -0.333571774933184 1.9761568901757
-0.197704296519255 -0.364040282521026 2.04836435489048
-0.219443284643979 -0.353199511285609 2.00779454713478
-0.151631705313032 -0.366626210489084 2.04754447679688
-0.171295697995835 -0.353130512374285 2.00219378155232
-0.106194044813299 -0.369575975971879 2.04990811676682
-0.125973070652918 -0.354617175234107 2.00277526437782
-0.0608298403088049 -0.37340049313556 2.05740086413605
-0.0783646925640168 -0.358399697090581 2.00870727399931
-0.0158759426281213 -0.377572351501564 2.06756748068673
-0.03260306643519 -0.363387068064383 2.01766332211302
0.0301837216035617 -0.376413171836884 2.07612762661829
0.0116544580914761 -0.367956981918683 2.028731032587
0.0595471199332795 -0.361287571214308 2.03802006372933
-0.299025667886499 -0.338214806359475 2.05690579477437
-0.337683794362186 -0.307163236220109 2.04245282465506
-0.308086359345666 -0.321077765410963 2.00929165380963
0.0975752149566714 -0.349655071161786 2.13141461316033
0.0732995128313085 -0.364972041076526 2.08592957865499
0.112861549634986 -0.343476065466676 2.08895690726702
-0.375726115944723 -0.252926552531997 2.11137381228674
-0.386180014960188 -0.238102966207876 2.06246681425102
-0.363167496396907 -0.281077685837731 2.07332079836332
0.118564583686499 -0.322973508666828 2.16634019136815
0.13907899212787 -0.319115767463478 2.12211211746584
0.156083740814644 -0.289141031448426 2.15089165529965
-0.377956943225401 -0.225889718071019 2.14422591610025
-0.393960575048527 -0.207620842227573 2.09878262632181
0.132358815293479 -0.28858383432677 2.19629703658186
0.163246910197287 -0.251373650545515 2.18341383677829
-0.381800280126852 -0.189058046731676 2.17994845006429
-0.394581569451922 -0.179608850928516 2.13663028588502
0.140092206864044 -0.249656296381479 2.22628137640007
0.169543683190811 -0.210743966341525 2.20970418103911
-0.376294844494593 -0.171871078326812 2.21863837879968
-0.396944848705448 -0.141507460295815 2.17790196962853
0.148624186137476 -0.209919152403346 2.25375026163662
0.173839915929142 -0.170201804329578 2.23800623988039
-0.368430198678897 -0.155755074339944 2.25838887885552
-0.39240977953663 -0.12598945401744 2.22401461217673
0.125450120601126 -0.20520561460297 2.29329628071467
0.157795993155918 -0.166182397831468 2.28100638749001
-0.382334203439514 -0.116517181640267 2.27255835171464
-0.40078415937246 -0.0807847381203455 2.24307021838667
0.132749087409155 -0.166781345461085 2.32377243313664
0.162778345571841 -0.12759239656256 2.30870028334215
-0.366794745847025 -0.110945943489323 2.31436116720829
-0.391236782151695 -0.0719547970516128 2.29092193015257
0.136101947739894 -0.130983712711308 2.35390966678731
0.159625297994497 -0.092235323529498 2.34209338422407
-0.369809120853784 -0.0667685151809758 2.33408202483111
-0.337723387193419 -0.0571769175867563 2.37208328166647
-0.357648000805317 -0.0228948276215245 2.35414462561223
0.0929829527585333 -0.0839740395762972 2.41305145487777
0.116127651844015 -0.0438271508088191 2.40081856194379
0.129736618908293 -0.0903852207882677 2.38221795713555
-0.31233279420377 -0.0304870060977802 2.39261220278631
-0.259883756542302 -0.0207108248795683 2.41492059356589
-0.291957427167327 0.00818032688861323 2.39898236972679
-0.210253374089336 -0.0295624543905091 2.42321598105373
-0.16300971791494 -0.0267285701491907 2.42846794415168
-0.116393402287901 -0.0281885531747608 2.43376745440503
-0.069563079266065 -0.0297138013793751 2.43907376843501
-0.0265625573706196 -0.0405464636037263 2.44441752038027
-0.00124398808275616 -0.00377040178402728 2.44027117702144
0.0241281921252568 -0.0439228684656377 2.44237954816388
0.0728254414770826 -0.0426893602716086 2.42745969705533
-0.258566454307149 0.0374551038189144 2.40258381750955
-0.226858612532104 0.013236252852414 2.41600176865088
-0.182756541001356 0.0185629082910751 2.41888629712788
-0.136663503498925 0.0185368570083527 2.42323239573815
-0.0899710615658868 0.0164558423667752 2.42821512133679
-0.0415583525540641 0.014660741737943 2.43325286834006
0.0142313677628248 0.0340832928843488 2.42636280920181
-0.335919717025814 -0.289025270535214 1.9938093969493
-0.319733561165974 -0.274253530646843 1.95523967124181
-0.288983658498791 -0.310431144160409 1.96790102406929
-0.240222412479463 -0.310033336452818 1.94090950948284
-0.198157317130087 -0.334283269219038 1.96619786589605
-0.147651211382032 -0.329552524745146 1.95957004288325
-0.0976469033772243 -0.334848384605798 1.96743906564955
-0.0455735602821037 -0.338992423897709 1.97376320616388
-0.000240040073535716 -0.344715205674493 1.98228260193087
0.0438932279817262 -0.348420893766046 1.99818096082513
0.0862568502023155 -0.330204063397005 1.99765511611723
0.0990818293322616 -0.344932294360824 2.04526279262001
0.125576791992792 -0.318176695766423 2.02801531261647
-0.36581642660572 -0.267857485263951 2.02770707439193
-0.383617593913852 -0.221208097140816 2.01582677670185
-0.360145374465481 -0.247220953787556 1.98502134438475
0.142271624808655 -0.316382626185924 2.07261562961748
0.158059000525733 -0.286892617622644 2.04193230915008
0.168135859813936 -0.284829385789886 2.09714705397689
-0.397870039504228 -0.189099635558916 2.05306833498741
0.187784189333369 -0.242519762249772 2.09539396042843
-0.400909382051586 -0.158862594626874 2.08634495217657
0.179901506047678 -0.251280311637619 2.1377234937077
-0.401911432739412 -0.137650046639744 2.12957814678804
0.185444051883393 -0.209782371121387 2.16240650901318
-0.404065099811171 -0.098195303561711 2.14598441000641
0.18794757308815 -0.170068020111547 2.18726816856045
-0.403956442363935 -0.0914439257829418 2.19337785036103
0.18851716946742 -0.133318895580112 2.21534130575845
-0.407199498265672 -0.0441928088128343 2.21285108718739
0.180740302010168 -0.121728475280228 2.26105150713434
-0.403322908852564 -0.0343063634818245 2.26344384499164
0.180872742634459 -0.0835095234674649 2.2946873056207
-0.386456051984557 -0.0268629645640876 2.31160763456374
-0.393010320215556 0.0110408855627149 2.28345348191229
0.149320176334758 -0.0482308930972131 2.36677927255948
0.173576773811841 -0.0509904506446764 2.32563370518002
-0.369222101396921 0.0159908226427131 2.32968821450956
-0.33434979889099 0.0108940959386525 2.37078106985984
-0.341441836439991 0.0529514787881018 2.34393834585018
0.0486215629842853 -0.00181363906590622 2.43111490865243
0.0950589098243275 -0.00142622009039621 2.40942259605107
0.13390755494378 -0.00274834052549681 2.37729694408978
-0.304604508398419 0.0487075165071176 2.37721536954394
-0.264130022618791 0.0754244182852962 2.38093332237446
-0.211589187084316 0.0593685455496718 2.40016444428756
-0.162549767668975 0.0614873791153715 2.40269107934769
-0.115198199289226 0.0603869940989801 2.40676622582281
-0.0678224784898646 0.0571671865252668 2.41205639027481
-0.021830951775137 0.0577863609626329 2.41492740097918
0.0317722339951497 0.069239019388365 2.40239739869428
0.0655750299369982 0.0372623565650194 2.4101653020276
-0.308547756655501 -0.241790032896705 1.92048604814608
-0.277045730751163 -0.28116348717538 1.92912712580384
-0.22861466963532 -0.277835180904428 1.90887356380699
-0.191250497333841 -0.306467719583626 1.93158698781152
-0.147623256724054 -0.294278382330241 1.92244194526931
-0.107369402845307 -0.30211146116837 1.93136277134228
-0.0603315372773046 -0.311045855716719 1.94166132710806
-0.00415180558932642 -0.312175915594321 1.94534992862351
0.0434356052713404 -0.321965100711657 1.96244062153857
0.0886606088051164 -0.298192415706818 1.96189876913185
0.126705896581888 -0.294266714237918 1.9941021613749
-0.371948486536477 -0.194696242924149 1.97226385967361
-0.34413234074086 -0.231912165646299 1.95040456554008
0.1594464194327 -0.258280825917655 2.00488226903935
0.179744891356445 -0.251320998322822 2.05317519762533
-0.390963431756513 -0.17351111528841 2.01240333682935
0.196255366676306 -0.203777438823326 2.06811294741672
-0.396268162245262 -0.133233865022637 2.0422531559489
0.195342016721624 -0.202088183191729 2.11787901611088
-0.400124600273462 -0.110443828397554 2.09027473186392
0.19602398307212 -0.160042502411741 2.14054187680065
-0.399262140119158 -0.067257607060052 2.11103520425909
0.19575361324788 -0.12136050807311 2.16809751802245
-0.404090426546669 -0.052466512881128 2.16226534128959
0.192757565185423 -0.0910712173043715 2.21362214972589
-0.402951555902718 -0.00747988201781106 2.18175301488661
0.18972728304807 -0.0701815934749033 2.25329935246791
-0.404310308258279 0.00219149348008564 2.23325971827574
0.184876446615047 -0.0271396569961935 2.28932486760736
-0.389263662438665 0.0469229128865185 2.25293344233766
0.163696181356622 -0.00819007923285028 2.33722208585826
-0.370453558105514 0.0533430712328045 2.30059423089372
-0.33759043254042 0.0901302842157099 2.31338714862359
0.107847832208667 0.0386489182943463 2.38244700740706
0.143063942442027 0.0349620627771941 2.3461371306319
-0.303609365681786 0.0876134688082706 2.35025872955462
-0.260066294288126 0.113981535662638 2.34945069801427
-0.224406308355324 0.0951647650473055 2.37537341978268
-0.179506184319193 0.0990353070472586 2.37457034309477
-0.135386547582414 0.0994540268311021 2.37636012910356
-0.0886500694556981 0.09550721710064 2.38215159353517
-0.0453430940585656 0.0953130108808287 2.38444577746335
-0.00272394130522395 0.0933820969669872 2.38771759393813
0.0749454421390491 0.0756071789082354 2.37929174179184
-0.305178661227738 -0.20683451854635 1.89220610262808
-0.266668257523174 -0.245950908049547 1.89607096585279
-0.219774210796043 -0.242959714582891 1.87772336259791
-0.18007442626704 -0.269250060206872 1.89864798023653
-0.126247025067245 -0.26007397924702 1.89314437030354
-0.0803225718148667 -0.272533129441346 1.90644753097705
-0.0346333022337031 -0.284282809333655 1.91910998147322
0.00875631725747465 -0.272344385043598 1.91064482560452
0.0464375696486152 -0.289413098568623 1.93239887584433
0.0930204153929038 -0.263309095623339 1.92996492851613
0.129745968657816 -0.262231809545834 1.96267048365732
-0.367003428701616 -0.156722591482943 1.94261359412283
-0.342644452011391 -0.197331593170917 1.92608969668575
0.165346198036367 -0.224088504625712 1.97445309877303
0.185512038423712 -0.216578381956632 2.02090179223116
-0.386145260521069 -0.140626897001782 1.98719132757536
0.202511196928908 -0.169264768903663 2.04005950545558
-0.389607196304592 -0.0955766192672639 2.00955306994203
0.201737784690841 -0.158995386611606 2.09209546003364
-0.393939950581053 -0.0806840563136635 2.05651952101142
0.202184403214396 -0.11335810352624 2.11803602133213
-0.393159656300597 -0.0354251494373887 2.0793419801734
0.199580957603283 -0.0768756144364813 2.16421152235557
-0.397733250845257 -0.0193850396425505 2.129123551349
0.197735539639105 -0.0463439058411583 2.19999569513891
-0.396735706681922 0.0267423269112303 2.15063954417888
0.194145580633622 -0.0277703524294627 2.24269522490215
-0.398085046538076 0.037850992759125 2.2026235806327
0.190564979924369 0.0149344671034007 2.2588193171937
-0.382946141522263 0.0822191529992003 2.22207576233124
0.172433020215097 0.0225033737713565 2.30388054202118
-0.364322736932462 0.0887357630411019 2.26968585299537
-0.330503990409384 0.126071220245043 2.28271148054188
0.114648602972568 0.075914382182312 2.3499518105892
0.15060453537685 0.0691059447001161 2.31414679735097
-0.297246628672995 0.12333747734822 2.31908443199085
-0.248609762351394 0.14827241570002 2.32131968517711
-0.208363561698857 0.129542850660171 2.34609137317882
-0.157396793817001 0.136191832121441 2.3426899901947
-0.104714301698386 0.129566270392302 2.35114920936348
-0.0563311090117433 0.1310308114928 2.35222074928908
-0.0102428604223111 0.128851640406285 2.35641195058876
0.0375773179075646 0.107973509661671 2.3690414474556
0.0789067763339995 0.113442646776551 2.3476176822544
-0.299591389357628 -0.172519191901719 1.86251501042315
-0.261698320169902 -0.210660370086672 1.86572986597168
-0.213755036584516 -0.209593126398258 1.84839811421484
-0.168891313447633 -0.236299011126539 1.8699623350952
-0.121655469795628 -0.221439798458361 1.85909518443989
-0.0796072761813424 -0.235970075943795 1.87404636118194
-0.034977284856843 -0.249563749935411 1.88829216392467
0.0113817498768217 -0.235233517452342 1.87785045431637
0.0545464361332598 -0.25266367514436 1.90061451503089
0.100048372285257 -0.227515067689074 1.89897462494936
0.135897730771204 -0.228554098887075 1.93327375622576
-0.360482224569465 -0.120777289893943 1.91078754004221
-0.33723488107206 -0.163954067795445 1.89748322937393
0.171732399629115 -0.189671607695313 1.94475702908529
0.192136909833147 -0.181211456699567 1.99119126926926
-0.379708214289132 -0.107742603518228 1.956227613814
0.208673628435437 -0.134964773505045 2.01120456475937
-0.383247120346872 -0.0629382664397107 1.97616803138408
0.207728024205091 -0.123463851168871 2.06378066657433
-0.387588541482446 -0.0430826119553131 2.02644688239044
0.209126433166538 -0.0781640188142668 2.08130928588736
-0.387613194313317 0.00137732507581501 2.05565795872162
0.205086227263071 -0.0632517090874237 2.12577010819046
-0.39155654045971 0.0165774297846918 2.09948182401222
0.204626066239362 -0.0209045670066489 2.15735575292701
-0.390327102663083 0.0609657549170931 2.11787149403766
0.200742055677705 0.00224209784394785 2.20584429464823
-0.392067395253611 0.0719242850814295 2.17108163539564
0.197763862658003 0.0473421971715213 2.22527782309729
-0.376735653109423 0.116742152228255 2.19203601666147
0.178023079302246 0.060578511832088 2.27293136621538
-0.35755877016406 0.124138845118779 2.2396054392855
-0.322134272674736 0.161385830720468 2.25434339583369
0.120136022467822 0.111826967846736 2.31922666658337
0.156076257626452 0.105558310871735 2.28352324370164
-0.287385381646505 0.158373553054964 2.29102016096604
-0.238997507608991 0.182662523270429 2.29228594728371
-0.197610773858336 0.163061252016089 2.31688191241351
-0.152730048853449 0.177184452053496 2.30655252338322
-0.115575377440127 0.160901561738434 2.32281787429107
-0.0678838396796741 0.164131686497012 2.3222890386953
-0.0175039940982506 0.164657020359305 2.32429153027457
0.0325865639104863 0.14422536972273 2.3399406095011
0.0802857770716746 0.148458677916498 2.31945585042173
-0.293295748635654 -0.138142126175505 1.83216490770577
-0.256042938173277 -0.175727006767136 1.83532905080732
-0.209758446130872 -0.175213089534111 1.8186089749865
-0.165492650270108 -0.202049721356483 1.83974529030501
-0.115774745084485 -0.184922810361654 1.82698672170471
-0.0737415160697008 -0.198633271749696 1.84120947643499
-0.0317923973047914 -0.213779382503006 1.85670245254986
0.0144999480174174 -0.198443966784847 1.84536543004302
0.0580062153295618 -0.21778816017881 1.86911736054354
0.103327284936511 -0.193830505595258 1.86753611814046
0.142180654323536 -0.194382957893867 1.90349684307383
-0.355421032280127 -0.0841864388439532 1.88169294423735
-0.330989444983529 -0.130137824205467 1.86747690714798
0.177760043797398 -0.155399803161838 1.91449736932515
0.198388229487701 -0.146424481457446 1.96087054054978
-0.373701248723059 -0.0709850391753536 1.92585918105451
0.214642191385967 -0.10108841616463 1.97998630292995
-0.376305090154566 -0.0231046899589497 1.94247449509653
0.214242399717056 -0.0882599086387825 2.03073579580703
-0.380962856782415 -0.0167077780008017 1.9866936283585
0.21505813998371 -0.0401934589877917 2.05508227306281
-0.382272182034678 0.0135056119700056 2.01765622506575
0.210532847487127 -0.0259340087765285 2.10329514753108
-0.384582137524706 0.052108308391664 2.06270244958692
0.211220091600856 0.0178920685574491 2.12597688295948
-0.384328741461392 0.0945392908899143 2.0882040272571
0.206814818418402 0.0320333979595455 2.17307622932363
-0.386039920674099 0.105773597918943 2.14136098466889
0.20440012325371 0.0796796141568658 2.19360107305847
-0.369662719933281 0.151868609776393 2.16476256672559
0.185047865470681 0.094281671496188 2.24117937779034
-0.350169463813366 0.159211994814611 2.21128134560062
-0.314994705988378 0.196039316024075 2.22510681823227
0.124940963852179 0.146947096589152 2.28967036159765
0.162459120207583 0.139924449859319 2.25297571263354
-0.279298208251615 0.192916733170211 2.26206373205973
-0.232750190244148 0.217764115321452 2.2614515394375
-0.190770182177985 0.200138259797343 2.28432475116668
-0.140194397633633 0.213368284497034 2.27506563483904
-0.100731964285753 0.195636886125711 2.29272972992092
-0.0524586435015207 0.198638232678996 2.29243207184574
-0.00438173789776521 0.199694830132126 2.29385021125695
0.0359163345123783 0.177141794010243 2.31151827622491
0.0874570984355007 0.181165316977492 2.29002158784848
-0.294487546852138 -0.101674583506533 1.80734065553783
-0.249583982817524 -0.139931545718537 1.80384197445796
-0.20171294365292 -0.141751060937941 1.78883687217016
-0.16035381626594 -0.169405364763503 1.81103657306254
-0.110529747049429 -0.150016567239454 1.79632622693202
-0.0669208631908014 -0.16103921926449 1.80819258024463
-0.02706684033046 -0.175731667031213 1.82317913356651
0.0164501078959717 -0.161199367583333 1.81243016311277
0.0608326208633072 -0.183238288292709 1.83780429404706
0.107474975035615 -0.159709391211733 1.83630130189211
0.144575257481554 -0.162910403131399 1.87205947038718
-0.349991011847979 -0.0469854410900612 1.85247068167571
-0.328190758846124 -0.0941835200172707 1.8408229708862
0.178354185073401 -0.126691799517509 1.88046073922019
0.20435142411148 -0.111644908477872 1.92936778849163
-0.367528288381236 -0.0329549722953032 1.89464224842626
0.221641766095362 -0.0633238118524894 1.96002017330914
-0.369998875127034 0.0148977880312589 1.91692587289042
0.220094142320527 -0.0502444445769345 2.00523126643154
-0.375177193836912 0.0285407806092279 1.96647098110361
0.221233888378535 -0.00333274309255445 2.02477225360629
-0.378664507977123 0.0550911725971368 2.01377340119366
0.216791036525131 0.00991079525506521 2.07287539828981
-0.37773527754119 0.0976918569970561 2.03357065750497
0.217629910002308 0.054131967798415 2.09404917041904
-0.378919095038424 0.132645269128614 2.06663397092777
0.213139810445499 0.0685391429783618 2.14251260384368
-0.379558934121123 0.140962978542875 2.11626039273157
0.210391974669214 0.114422284114993 2.16373017238917
-0.363284325884056 0.186611036848211 2.13505836258692
0.191487560118697 0.12792198752576 2.21067278753068
-0.343220088295742 0.194352207835224 2.18188378213388
-0.308843911993607 0.230616087847876 2.19472675053191
0.13174402290579 0.181401781178006 2.25881003251004
0.168821249217408 0.174353405483641 2.22235055947342
-0.27343342142956 0.227364957276678 2.23161369735626
-0.227155909533078 0.252410473724087 2.23077612673022
-0.18351882764293 0.235332303686929 2.25345749490532
-0.134875314733764 0.247236823892139 2.24525310610788
-0.0872732270691276 0.232223473948818 2.26093120160598
-0.037264040330281 0.233010699249048 2.26268296844145
0.00924689124146932 0.233293829505852 2.26471055582197
0.048320760188633 0.209706575885381 2.28154058675312
0.0945418624131845 0.215655978173285 2.25922285437359
-0.257186294047609 -0.102198427303579 1.78180517667236
-0.215666829196004 -0.105886452657642 1.76816449646849
-0.169254923985223 -0.103214849660708 1.76192600922139
-0.154390227254242 -0.136972983228879 1.78343382089737
-0.117114965796051 -0.109272572459238 1.7687733856918
-0.0703738882797575 -0.121201416611436 1.7786954664619
-0.0235134173119696 -0.132396834577574 1.7886897291781
0.0244058397163236 -0.121676431154124 1.78608583588251
0.0638547755803307 -0.14945120262732 1.80862693081619
0.10830019094776 -0.123331646226741 1.80859341583949
0.14868585677464 -0.127360401203598 1.84137042575583
-0.337635608177386 -0.00993096484351301 1.82736481273575
-0.321010245704264 -0.0566924108856118 1.81275738747703
0.197431570789596 -0.0893323425598907 1.88344100029389
0.215177971332589 -0.0666795005173777 1.91690841943796
-0.357828199217621 0.00627116259345716 1.86686119321039
0.220690592002252 -0.0233395174387193 1.92781914906957
-0.354882022259893 0.0505389702634153 1.88821018008166
0.223554980514637 -0.011817659565121 1.97322875173894
-0.364549282231467 0.0639053910456201 1.93316741238209
0.220087163931781 0.0316787079210782 1.99229516311217
-0.371461022531767 0.0810260271299748 1.97907337478447
0.220323352957646 0.0467159646301134 2.03998691881911
-0.365411899835444 0.126531831943528 1.99417006521236
0.217248930810107 0.089098425383654 2.06228100220313
-0.368419647095604 0.153609827456579 2.03016718764477
0.217117481831006 0.104354477354796 2.10967203722474
-0.372327370971687 0.1748190476701 2.08486789001725
0.211214117008544 0.145879788440961 2.13207615146677
-0.354515347224351 0.215848135258797 2.10000050749287
0.195777472722565 0.162355705908994 2.18028801216282
-0.337058192704563 0.227500185438171 2.14948449259603
-0.301474267218708 0.260096180709716 2.161486397123
0.13681197003808 0.215871297098169 2.22655661704603
0.168702307951048 0.208038732973348 2.18954675483301
-0.266049518096167 0.261097810899335 2.2004683209412
-0.217427315411282 0.283674412943229 2.19511497775945
-0.180172769661281 0.269620535477057 2.22020970083278
-0.138356468911932 0.278207257608749 2.2095706646136
-0.0942402088849262 0.268351682107256 2.22365846155861
-0.0495875655339996 0.26401295886224 2.23007909800511
0.000483336224079894 0.263374000315102 2.23174890820624
0.0523984395909069 0.245543575291129 2.24863410334506
0.0977621559448441 0.246528448869008 2.22603477168248
-0.282538247506975 -0.0615081589538401 1.78030603311005
-0.237153912132985 -0.0625748098488226 1.75797776637191
-0.189485912324805 -0.0640539564645552 1.74836116278351
-0.137629076504057 -0.068077336614963 1.75134833281973
-0.0871237256943739 -0.0747075185504019 1.75798089017673
-0.0410006442443172 -0.0846845502048146 1.76526724659941
0.0031109625231313 -0.0842816358309808 1.76925638903874
0.0501513223359687 -0.0740757610619398 1.77131309827377
0.0705808250155308 -0.10912672697903 1.78668056164756
0.1026175206308 -0.073554257806325 1.78585407994083
0.13911297593927 -0.0909115837447341 1.81246440417966
-0.302474963001202 -0.0196179262672307 1.7888280765718
-0.27727339091267 0.0221618267949023 1.77506458485154
-0.259952400245138 -0.0210143070847648 1.76146534415581
0.149343899582859 -0.049906110063189 1.80995965797471
0.175478674390015 -0.0836294437244166 1.84496485188294
0.178817392161642 -0.0362015128715886 1.83802607420523
-0.334551785185285 0.0442173851948571 1.83932050146018
-0.314777078940812 0.0219604994706685 1.80522723086604
0.202986486365929 -0.0422982533132357 1.87575559882894
0.208306335258843 -0.00018747133197676 1.89286958266332
-0.331294952925264 0.0818710011311092 1.86579224032553
0.214165790706285 0.0256413094154681 1.93623743854714
-0.341159276497461 0.101726904270188 1.90523978201059
0.209168461241587 0.0628618629925282 1.96389363054167
-0.353633496577588 0.11234343815792 1.94495909392058
0.211779366797234 0.0836747049366883 2.00616908653433
-0.342596409791782 0.151656243409116 1.95879451052306
0.2069203372296 0.120766359938117 2.03350636898734
-0.34643412140878 0.17991733727395 1.99539021749953
0.209328918439821 0.141396351143357 2.07556622705208
-0.359910223977784 0.195020922297348 2.04808503724484
0.201797038065157 0.177020678490475 2.1022088123637
-0.32608515024893 0.252797321784106 2.11199970884366
-0.338030389280296 0.237370591215308 2.06340407367504
-0.307126496644115 0.270356504735445 2.06972012459104
0.192345844202463 0.192203931002481 2.14654037789805
0.179009275181401 0.218254493927984 2.10313022932642
0.165774283145923 0.230793451271331 2.14844851034592
-0.258281680122061 0.28630566042359 2.16374636947385
-0.292096860228023 0.280027637945426 2.1224399485061
-0.250249936157873 0.301823247054776 2.12142009291853
0.133091053818375 0.246977966981057 2.18770480749637
0.100736370012111 0.279240567559675 2.15197670840474
0.0884211912747221 0.272028543030326 2.19079738990126
-0.211073925912547 0.303739243165034 2.15519705977708
-0.167097425092335 0.29802716192798 2.17491061441726
-0.114185831146971 0.295673972061012 2.17728830376006
-0.0697187828470708 0.290720022850237 2.18605629541787
-0.0259061249134445 0.287429556596768 2.19107591160099
0.0168324968174284 0.286593609514913 2.19048501480655
0.0500208801287269 0.272022370712173 2.21365656335074
-0.211123696310918 -0.0213256386875868 1.74547028158209
-0.159841405553394 -0.0252554714098445 1.74258149179467
-0.109075707302703 -0.0293537597573897 1.74831810715045
-0.0612070795133882 -0.0342302279529194 1.75395293416697
-0.0163805828589775 -0.0378284567636191 1.75917814766672
0.0277017385982053 -0.0336986532322603 1.76401275600018
0.0762950907852189 -0.0323476012367654 1.77180165725352
-0.233060290700638 0.0199732990594955 1.75430037487398
-0.205818810587128 0.0574293130721316 1.75865623087601
-0.181662135175068 0.0180976673225821 1.74498013908529
-0.130867745306016 0.014725772507327 1.74815714446545
-0.0831978895031098 0.0135905925120256 1.75412524509366
-0.0359317559383945 0.0101289497295904 1.75964529075373
0.00884395860358972 0.0115670069959207 1.76577571623273
0.0557786401048286 0.0107696519645796 1.77190401373948
0.103930907444301 0.0118839376034439 1.78656039799969
0.151026843444569 0.00279439549103574 1.81394325425037
0.119818553679172 -0.0285625592527623 1.78921868056114
-0.295274699811859 0.0618335091962314 1.80342216999844
-0.263288608643515 0.100296697411621 1.80605803324943
-0.25270684663223 0.0625811988716747 1.77579438758967
0.126992070136498 0.0452575881393509 1.81121272533792
0.184936847460114 0.005587083632214 1.85154423503029
0.163072924270555 0.0457720731642044 1.84311623621237
-0.303094491627014 0.0924962860067159 1.83467891225092
-0.269790003541291 0.13084230709567 1.84235864727196
0.193420721556539 0.04132348877773 1.88644662816589
0.165540885227783 0.0803861423344179 1.87752705528419
-0.307692828126141 0.12476997923963 1.87454535646844
-0.276794181195266 0.160797657360178 1.88053231530272
0.192388356072207 0.0714164620250813 1.91983266459792
0.163603462363347 0.112268406709302 1.9131864435147
-0.318792408253843 0.148794377084237 1.9149476018416
-0.281639032808009 0.188559591418741 1.91470975543767
0.190977657471537 0.10364564930423 1.95711028613932
0.162566114791124 0.143176641876761 1.94908158918716
-0.315655648804207 0.186623970608888 1.95025982465347
-0.279702656216985 0.222004227934299 1.9491243597219
0.190282185900327 0.131662036224066 1.99091100885721
0.161891367587327 0.173430724645106 1.98477397487455
-0.312876586287028 0.221042389564277 1.98289425080342
-0.279103789538814 0.257144389159764 1.98826012659506
0.189216655544901 0.163338120224651 2.02843379696589
0.160669024884017 0.203888695607991 2.01984851044011
-0.336429916718347 0.219894720528105 2.01928537185481
-0.307189215311129 0.256652475736356 2.02445046568399
0.187502245463359 0.191795195365725 2.06171127671553
0.157433758420608 0.231702935749579 2.05670102977403
-0.273931840131656 0.293424968818647 2.08105360617711
-0.268866167820173 0.286470397342579 2.03279956959346
-0.236365275276606 0.307252326123675 2.06714916296818
0.135259220061238 0.260593084452963 2.14116719369453
0.148956217234802 0.251037188912679 2.09908851736256
0.109012409595623 0.278521245852956 2.09995187730368
-0.211847187881161 0.31356389178807 2.10719154952709
-0.186273456981617 0.315506705213702 2.07142605164336
-0.171320362611095 0.313352662353435 2.1257691402389
-0.142349390420098 0.313992419878696 2.08483622772809
-0.128857824425684 0.309351355908004 2.13491051101042
-0.0982339177377537 0.310644249225956 2.08996024424772
-0.0820636057058507 0.306314421250796 2.13764841336226
-0.0533779917921176 0.307146932344634 2.09333162693013
-0.0377687181123251 0.302798178717912 2.14363748487017
-0.00980519983855307 0.303757005907884 2.0969780067958
0.00675095028165601 0.299997333765999 2.1455930315061
0.0344079577941932 0.300548104713238 2.10482288635287
0.0524563148289897 0.292929122603757 2.16039730026755
0.0721565511474582 0.293760646826275 2.11724205139254
-0.175066692037852 0.0903275854340405 1.77253482591776
-0.152532876180228 0.056302792135541 1.75665034604308
-0.106815600141817 0.0586313150353606 1.76424382309466
-0.0580758626788189 0.0544697194627518 1.76971556096557
-0.0131798018440085 0.0562044171242613 1.77720130605475
0.0322122041418683 0.0553799923538905 1.78370252243141
0.0782452888244381 0.051317249108 1.79085866670925
-0.220119258919075 0.0982886317227085 1.78447901263778
-0.177562384783244 0.124962420122688 1.80012044486697
-0.131523837581777 0.100204070206707 1.78402678207641
-0.0805698830326446 0.0933100764360644 1.78777061376271
-0.0362681735564574 0.0964705881075819 1.79773800888188
0.0082575083821898 0.0963777656890357 1.80550292207502
0.0534512828677694 0.093504360834351 1.81122030244436
0.0968974878111013 0.0836862645157666 1.81810442792992
0.131539839839577 0.0859113631829336 1.84322106016549
-0.22508930218387 0.131912202579357 1.81731215738199
-0.185252185151932 0.156440327996517 1.83535432296996
-0.139350537303338 0.140629768280287 1.82149685988167
-0.100137921538891 0.12506150071294 1.81187389361023
-0.0573632509299106 0.130085884555975 1.82611238142639
-0.0136590290205623 0.130649085587244 1.83561324353974
0.0344647779375965 0.126980441553746 1.84119187104203
0.0843243331127032 0.119209141056696 1.84704952554917
0.129113889781084 0.11666000714081 1.8758023774204
-0.231968220765683 0.162185252501422 1.85359692703209
-0.186969428220526 0.186718329486831 1.86948638168308
-0.140920893867806 0.172489752286133 1.85744799272068
-0.0943067055666981 0.156535416123721 1.84873436083462
-0.0473848647670734 0.162955171452094 1.86555363318804
0.00282013108948345 0.159053880358415 1.87128929608308
0.050633774014225 0.154973689256341 1.8763493444856
0.0927523563867437 0.147086290526224 1.88374926753936
0.127930518940473 0.149251614486542 1.9131372596363
-0.235479723935475 0.191609666609741 1.88760043898116
-0.18952229120344 0.215515669475258 1.90202450254433
-0.140568574106044 0.204606391921897 1.89408076522416
-0.0979935527543312 0.187425017078054 1.88315111361139
-0.0601482069565788 0.195703778212598 1.90024705525044
-0.0154237517644899 0.189969394783956 1.90278480749684
0.0325959004277974 0.186406745201837 1.90846259124465
0.0816656308475422 0.180033514464411 1.91595237038031
0.126869229252857 0.178514516651076 1.94666413778068
-0.23872697734176 0.220226441781654 1.92062109925735
-0.19588872214247 0.243959291404881 1.93457647905303
-0.145885142991072 0.234932284319179 1.92752511024091
-0.0966419399297941 0.223224984855653 1.9241804098751
-0.0450924699264911 0.223333958375068 1.93475327278685
0.00308811869774134 0.21877839397902 1.93933396736911
0.049506396724475 0.215380008759559 1.94493821200447
0.091022118076044 0.208132429042973 1.95351845290497
0.126047173532016 0.210566057807133 1.98372834326135
-0.243393389966511 0.250994832100586 1.9567203607373
-0.205591277606013 0.272803800383751 1.96894969160649
-0.158613183045904 0.266724974944138 1.96120762968629
-0.111992184687861 0.257004847011192 1.95952366915633
-0.0673264695699924 0.25268151044238 1.96365524741678
-0.0183400818254884 0.250496831812744 1.9710985159213
0.0304805155748266 0.246947209348608 1.97695311615005
0.0795895250373708 0.241206911303832 1.98555175883159
0.124450634560225 0.239258901074646 2.01704053312539
-0.239194323643301 0.283474879123483 1.99774622838691
-0.182683315433371 0.293753740530313 1.99863221951353
-0.133938974254776 0.287825372125157 1.9966635346435
-0.0892873893996651 0.283208581265638 1.99970654599515
-0.0444037414567549 0.27922364889998 2.003933920284
0.00198301914464169 0.276269103827005 2.01029954627996
0.0470688943557588 0.273378774098938 2.01662506503423
0.0877822455748506 0.266474462207973 2.02620027948735
0.119680610151371 0.264090142889846 2.05936936828599
-0.214285778783584 0.304034208085768 2.03009465835796
-0.16013257922774 0.307559536804674 2.03585808288585
-0.114349147626232 0.304174425842515 2.04149057306018
-0.069269042673485 0.300317686470047 2.04524942605839
-0.0234962839294118 0.296416083104535 2.04915450814909
0.0236611276957024 0.293290351889022 2.05614265426862
0.0706129197457693 0.288004890007997 2.06590086501606
3 0 1 2
3 0 2 4
3 3 0 4
3 3 4 6
3 5 3 6
3 5 6 8
3 7 5 8
3 7 8 10
3 9 7 10
3 9 10 12
3 11 9 12
3 13 11 14
3 14 11 12
3 13 14 15
3 16 17 18
3 16 18 1
3 0 19 1
3 19 16 1
3 0 3 20
3 19 0 20
3 3 5 21
3 20 3 21
3 5 7 22
3 21 5 22
3 7 9 23
3 22 7 23
3 9 11 24
3 23 9 24
3 24 11 25
3 25 11 13
3 13 15 26
3 27 13 26
3 25 13 27
3 27 26 28
3 17 16 30
3 30 16 29
3 29 19 31
3 29 16 19
3 31 20 32
3 31 19 20
3 32 21 33
3 32 20 21
3 21 22 33
3 33 22 34
3 22 23 34
3 34 23 35
3 23 24 35
3 35 24 36
3 24 25 36
3 36 25 37
3 37 27 38
3 37 25 27
3 38 28 39
3 38 27 28
3 30 40 41
3 30 29 40
3 29 31 42
3 40 29 42
3 31 32 43
3 42 31 43
3 32 33 44
3 43 32 44
3 33 34 45
3 44 33 45
3 34 35 46
3 45 34 46
3 35 36 47
3 46 35 47
3 36 37 47
3 47 37 48
3 37 38 48
3 48 38 49
3 49 39 50
3 49 38 39
3 40 51 52
3 41 40 52
3 51 42 53
3 51 40 42
3 42 43 53
3 53 43 54
3 43 44 54
3 54 44 55
3 44 45 55
3 55 45 56
3 45 46 56
3 56 46 57
3 46 47 58
3 57 46 58
3 47 48 59
3 58 47 59
3 48 49 60
3 59 48 60
3 49 50 61
3 60 49 61
3 51 62 63
3 52 51 63
3 51 53 64
3 62 51 64
3 53 54 65
3 64 53 65
3 54 55 66
3 65 54 66
3 55 56 67
3 66 55 67
3 56 57 67
3 67 57 68
3 57 58 69
3 68 57 69
3 58 59 69
3 69 59 70
3 59 60 70
3 70 60 71
3 71 61 72
3 71 60 61
3 62 73 74
3 63 62 74
3 62 64 75
3 73 62 75
3 64 65 75
3 75 65 76
3 65 66 76
3 76 66 77
3 66 67 77
3 77 67 78
3 67 68 78
3 78 68 79
3 79 69 80
3 79 68 69
3 80 70 81
3 80 69 70
3 81 71 82
3 81 70 71
3 82 72 83
3 82 71 72
3 74 73 85
3 85 73 84
3 84 73 86
3 86 73 75
3 75 76 86
3 86 76 87
3 76 77 88
3 87 76 88
3 77 78 89
3 88 77 89
3 78 79 90
3 89 78 90
3 79 80 91
3 90 79 91
3 80 81 92
3 91 80 92
3 81 82 93
3 92 81 93
3 93 83 94
3 93 82 83
3 84 95 85
3 84 86 96
3 97 84 96
3 95 84 97
3 96 87 98
3 96 86 87
3 87 88 98
3 98 88 99
3 88 89 99
3 99 89 100
3 89 90 100
3 100 90 101
3 101 91 102
3 101 90 91
3 102 92 103
3 102 91 92
3 92 93 103
3 105 103 104
3 103 93 104
3 93 94 104
3 96 106 97
3 96 98 107
3 106 96 107
3 98 99 108
3 107 98 108
3 99 100 109
3 108 99 109
3 100 101 110
3 109 100 110
3 101 102 111
3 110 101 111
3 111 102 112
3 112 102 103
3 103 105 112
3 117 114 115
3 116 113 117
3 117 113 114
3 116 117 119
3 118 116 119
3 118 119 121
3 120 118 121
3 120 121 123
3 122 120 123
3 122 123 125
3 124 122 125
3 124 125 127
3 126 124 127
3 126 127 128
3 129 130 131
3 114 129 131
3 114 113 129
3 113 2 129
3 129 2 1
3 4 113 116
3 4 2 113
3 6 116 118
3 6 4 116
3 8 118 120
3 8 6 118
3 10 120 122
3 10 8 120
3 12 122 124
3 12 10 122
3 14 124 126
3 14 12 124
3 133 126 128
3 15 14 126
3 15 126 133
3 132 15 133
3 132 133 134
3 135 136 137
3 137 17 135
3 137 18 17
3 18 137 130
3 129 18 130
3 18 129 1
3 15 132 26
3 139 132 134
3 139 138 132
3 138 28 26
3 132 138 26
3 138 139 140
3 136 135 142
3 142 135 141
3 17 30 135
3 135 30 141
3 143 39 28
3 138 143 28
3 143 140 144
3 143 138 140
3 141 145 146
3 142 141 146
3 41 145 141
3 30 41 141
3 147 39 143
3 147 50 39
3 147 144 148
3 147 143 144
3 145 149 150
3 146 145 150
3 52 149 145
3 41 52 145
3 151 50 147
3 151 155 50
3 151 148 152
3 151 147 148
3 149 153 154
3 150 149 154
3 63 153 149
3 52 63 149
3 155 61 50
3 155 72 61
3 155 151 156
3 156 151 152
3 154 157 158
3 154 153 157
3 74 157 153
3 63 74 153
3 159 72 155
3 159 83 72
3 159 156 160
3 159 155 156
3 158 157 162
3 162 157 161
3 74 85 161
3 157 74 161
3 163 83 159
3 163 94 83
3 163 160 164
3 163 159 160
3 161 165 162
3 165 95 166
3 165 161 95
3 161 85 95
3 165 166 167
3 95 97 166
3 105 104 168
3 170 94 163
3 170 168 94
3 169 168 170
3 94 168 104
3 163 164 170
3 166 171 167
3 173 171 172
3 172 171 106
3 171 97 106
3 171 166 97
3 172 107 174
3 172 106 107
3 174 108 175
3 174 107 108
3 175 109 176
3 175 108 109
3 176 110 177
3 176 109 110
3 177 111 178
3 177 110 111
3 178 112 180
3 178 111 112
3 181 105 168
3 181 180 105
3 179 178 180
3 180 112 105
3 168 169 181
3 172 182 173
3 182 172 183
3 183 172 174
3 174 175 184
3 183 174 184
3 175 176 185
3 184 175 185
3 176 177 186
3 185 176 186
3 177 178 187
3 186 177 187
3 187 179 188
3 187 178 179
3 179 180 229
3 189 190 191
3 114 131 191
3 115 114 191
3 115 191 192
3 115 192 193
3 117 115 193
3 119 193 194
3 119 117 193
3 119 194 121
3 121 194 195
3 121 195 123
3 123 195 196
3 123 196 125
3 125 196 197
3 127 197 198
3 127 125 197
3 128 198 199
3 200 128 199
3 128 127 198
3 200 199 201
3 202 203 204
3 131 130 189
3 190 189 204
3 189 130 202
3 189 202 204
3 131 189 191
3 128 200 133
3 134 200 205
3 206 205 201
3 134 133 200
3 205 200 201
3 205 206 207
3 136 208 203
3 202 137 136
3 202 136 203
3 137 202 130
3 134 205 139
3 139 205 207
3 140 139 207
3 211 207 209
3 136 142 208
3 208 142 210
3 211 140 207
3 211 144 140
3 146 212 210
3 142 146 210
3 148 144 213
3 213 144 211
3 150 214 212
3 146 150 212
3 215 148 213
3 215 152 148
3 154 216 150
3 150 216 214
3 219 152 217
3 217 152 215
3 158 218 216
3 154 158 216
3 219 156 152
3 219 160 156
3 158 220 218
3 158 162 220
3 221 160 219
3 221 164 160
3 162 165 222
3 223 220 222
3 220 162 222
3 165 167 222
3 169 170 224
3 225 164 221
3 224 170 164
3 224 164 225
3 222 226 223
3 167 171 227
3 226 167 227
3 226 227 228
3 226 222 167
3 171 173 227
3 180 181 229
3 181 169 230
3 231 169 224
3 230 169 231
3 230 229 181
3 224 225 271
3 227 232 228
3 232 182 233
3 232 173 182
3 227 173 232
3 182 183 234
3 233 182 234
3 183 184 234
3 234 184 235
3 184 185 235
3 235 185 236
3 185 186 236
3 236 186 237
3 186 187 237
3 237 187 238
3 238 188 239
3 238 187 188
3 188 179 229
3 240 239 188
3 240 188 229
3 229 230 240
3 191 190 242
3 242 190 241
3 192 242 243
3 192 191 242
3 192 243 244
3 193 192 244
3 194 244 245
3 194 193 244
3 194 245 246
3 195 194 246
3 195 246 247
3 196 195 247
3 196 247 248
3 197 196 248
3 197 248 249
3 198 197 249
3 199 198 249
3 250 199 249
3 201 199 251
3 251 199 250
3 204 252 253
3 204 203 252
3 190 253 241
3 190 204 253
3 206 251 254
3 206 201 251
3 207 206 255
3 255 206 254
3 203 256 252
3 203 208 256
3 257 209 255
3 255 209 207
3 210 258 208
3 208 258 256
3 211 209 259
3 259 209 257
3 212 260 210
3 210 260 258
3 213 211 259
3 261 213 259
3 214 262 260
3 212 214 260
3 215 213 261
3 263 215 261
3 216 264 214
3 214 264 262
3 217 215 263
3 265 217 263
3 218 266 264
3 216 218 264
3 219 217 265
3 267 219 265
3 218 268 266
3 218 220 268
3 221 219 267
3 269 221 267
3 223 270 268
3 220 223 268
3 225 221 269
3 271 225 269
3 223 226 272
3 270 223 272
3 272 228 273
3 272 226 228
3 274 231 275
3 274 230 231
3 275 231 271
3 271 231 224
3 273 228 276
3 276 228 232
3 276 233 277
3 276 232 233
3 233 234 278
3 277 233 278
3 234 235 279
3 278 234 279
3 235 236 280
3 279 235 280
3 236 237 281
3 280 236 281
3 237 238 282
3 281 237 282
3 238 239 283
3 282 238 283
3 327 239 284
3 284 239 240
3 240 230 274
3 284 240 274
3 241 285 286
3 242 241 286
3 242 286 243
3 243 286 287
3 243 287 288
3 244 243 288
3 245 288 289
3 245 244 288
3 245 289 246
3 246 289 290
3 246 290 247
3 247 290 291
3 247 291 248
3 248 291 292
3 248 292 293
3 249 248 293
3 249 293 250
3 250 293 294
3 250 294 295
3 251 250 295
3 252 296 297
3 253 252 297
3 241 297 285
3 241 253 297
3 254 295 298
3 254 251 295
3 254 298 299
3 255 254 299
3 256 300 252
3 252 300 296
3 257 255 299
3 301 257 299
3 258 302 300
3 256 258 300
3 259 257 303
3 303 257 301
3 260 304 258
3 258 304 302
3 261 259 303
3 305 261 303
3 262 306 304
3 260 262 304
3 263 261 305
3 307 263 305
3 264 308 262
3 262 308 306
3 265 263 307
3 309 265 307
3 266 310 308
3 264 266 308
3 267 265 309
3 311 267 309
3 266 312 310
3 266 268 312
3 269 267 311
3 313 269 311
3 270 314 312
3 268 270 312
3 271 269 315
3 315 269 313
3 270 272 316
3 314 270 316
3 316 273 317
3 316 272 273
3 318 275 319
3 318 274 275
3 275 271 315
3 319 275 315
3 273 276 320
3 317 273 320
3 276 277 320
3 320 277 321
3 277 278 322
3 321 277 322
3 322 279 323
3 322 278 279
3 279 280 323
3 323 280 324
3 280 281 324
3 324 281 325
3 281 282 325
3 325 282 326
3 282 283 326
3 326 283 327
3 283 239 327
3 327 284 328
3 284 274 318
3 328 284 318
3 285 329 330
3 286 285 330
3 286 330 287
3 287 330 331
3 287 331 332
3 288 287 332
3 288 332 289
3 289 332 333
3 289 333 334
3 290 289 334
3 290 334 335
3 291 290 335
3 291 335 292
3 292 335 336
3 292 336 337
3 293 292 337
3 293 337 294
3 294 337 338
3 294 338 339
3 295 294 339
3 296 340 341
3 297 296 341
3 285 341 329
3 285 297 341
3 298 339 342
3 298 295 339
3 298 342 343
3 299 298 343
3 300 344 296
3 296 344 340
3 301 299 343
3 345 301 343
3 302 346 344
3 300 302 344
3 303 301 347
3 347 301 345
3 304 348 302
3 302 348 346
3 305 303 347
3 349 305 347
3 306 350 348
3 304 306 348
3 307 305 351
3 351 305 349
3 308 352 306
3 306 352 350
3 309 307 353
3 353 307 351
3 310 354 352
3 308 310 352
3 311 309 355
3 355 309 353
3 312 356 310
3 310 356 354
3 313 311 355
3 357 313 355
3 314 358 356
3 312 314 356
3 315 313 359
3 359 313 357
3 314 316 360
3 358 314 360
3 360 317 361
3 360 316 317
3 362 319 363
3 362 318 319
3 319 315 359
3 363 319 359
3 317 320 364
3 361 317 364
3 320 321 364
3 364 321 365
3 321 322 366
3 365 321 366
3 322 323 366
3 366 323 367
3 323 324 368
3 367 323 368
3 324 325 369
3 368 324 369
3 325 326 370
3 369 325 370
3 326 327 371
3 370 326 371
3 327 328 371
3 371 328 372
3 328 318 362
3 372 328 362
3 329 373 374
3 330 329 374
3 330 374 331
3 331 374 375
3 331 375 376
3 332 331 376
3 332 376 333
3 333 376 377
3 333 377 378
3 334 333 378
3 334 378 379
3 335 334 379
3 335 379 336
3 336 379 380
3 336 380 381
3 337 336 381
3 337 381 338
3 338 381 382
3 338 382 383
3 339 338 383
3 340 384 385
3 341 340 385
3 329 385 373
3 329 341 385
3 342 383 386
3 342 339 383
3 342 386 387
3 343 342 387
3 344 388 340
3 340 388 384
3 345 343 387
3 389 345 387
3 346 390 388
3 344 346 388
3 347 345 391
3 391 345 389
3 348 392 346
3 346 392 390
3 349 347 391
3 393 349 391
3 350 394 348
3 348 394 392
3 351 349 395
3 395 349 393
3 352 396 350
3 350 396 394
3 353 351 395
3 397 353 395
3 354 398 396
3 352 354 396
3 355 353 399
3 399 353 397
3 356 400 354
3 354 400 398
3 357 355 399
3 401 357 399
3 358 402 400
3 356 358 400
3 359 357 403
3 403 357 401
3 358 360 404
3 402 358 404
3 404 361 405
3 404 360 361
3 406 363 407
3 406 362 363
3 363 359 403
3 407 363 403
3 361 364 408
3 405 361 408
3 364 365 408
3 408 365 409
3 365 366 410
3 409 365 410
3 366 367 410
3 410 367 411
3 367 368 412
3 411 367 412
3 368 369 412
3 412 369 413
3 369 370 413
3 413 370 414
3 370 371 415
3 414 370 415
3 371 372 415
3 415 372 416
3 372 362 406
3 416 372 406
3 373 417 418
3 374 373 418
3 374 418 375
3 375 418 419
3 375 419 420
3 376 375 420
3 376 420 377
3 377 420 421
3 377 421 422
3 378 377 422
3 378 422 423
3 379 378 423
3 380 423 424
3 380 379 423
3 380 424 425
3 381 380 425
3 382 425 426
3 382 381 425
3 382 426 427
3 383 382 427
3 384 428 429
3 385 384 429
3 373 429 417
3 373 385 429
3 386 427 430
3 386 383 427
3 386 430 431
3 387 386 431
3 384 432 428
3 384 388 432
3 389 387 431
3 433 389 431
3 390 434 432
3 388 390 432
3 435 389 433
3 435 391 389
3 390 436 434
3 390 392 436
3 393 391 435
3 437 393 435
3 394 438 436
3 392 394 436
3 395 393 439
3 439 393 437
3 396 440 438
3 394 396 438
3 397 395 439
3 441 397 439
3 398 442 440
3 396 398 440
3 399 397 443
3 443 397 441
3 400 444 398
3 398 444 442
3 401 399 443
3 445 401 443
3 402 446 444
3 400 402 444
3 403 401 447
3 447 401 445
3 402 404 448
3 446 402 448
3 448 405 449
3 448 404 405
3 450 407 451
3 450 406 407
3 407 403 447
3 451 407 447
3 405 408 452
3 449 405 452
3 408 409 452
3 452 409 453
3 409 410 454
3 453 409 454
3 410 411 454
3 454 411 455
3 411 412 456
3 455 411 456
3 412 413 456
3 456 413 457
3 457 414 458
3 457 413 414
3 414 415 459
3 458 414 459
3 415 416 459
3 459 416 460
3 416 406 450
3 460 416 450
3 418 461 462
3 418 417 461
3 419 462 463
3 419 418 462
3 419 463 464
3 420 419 464
3 420 464 421
3 421 464 465
3 421 465 466
3 422 421 466
3 422 466 467
3 423 422 467
3 424 467 468
3 424 423 467
3 424 468 469
3 425 424 469
3 426 469 470
3 426 425 469
3 427 426 471
3 471 426 470
3 429 428 473
3 473 428 472
3 417 473 505
3 417 429 473
3 430 427 471
3 520 430 471
3 431 474 475
3 431 430 474
3 428 476 472
3 428 432 476
3 433 431 475
3 477 433 475
3 434 478 476
3 432 434 476
3 479 433 477
3 479 435 433
3 434 480 478
3 434 436 480
3 437 435 479
3 481 437 479
3 438 482 436
3 436 482 480
3 439 437 483
3 483 437 481
3 440 484 482
3 438 440 482
3 441 439 483
3 485 441 483
3 442 486 440
3 440 486 484
3 443 441 487
3 487 441 485
3 444 488 442
3 442 488 486
3 445 443 487
3 489 445 487
3 444 446 488
3 488 446 490
3 491 445 489
3 491 447 445
3 490 446 492
3 492 446 448
3 492 449 493
3 492 448 449
3 494 451 495
3 494 450 451
3 451 447 491
3 495 451 491
3 449 452 496
3 493 449 496
3 496 453 497
3 496 452 453
3 453 454 498
3 497 453 498
3 498 455 499
3 498 454 455
3 455 456 500
3 499 455 500
3 456 457 501
3 500 456 501
3 457 458 502
3 501 457 502
3 458 459 503
3 502 458 503
3 503 460 504
3 503 459 460
3 504 460 494
3 494 460 450
3 461 505 506
3 462 461 506
3 507 463 462
3 507 462 506
3 465 463 508
3 508 463 507
3 464 463 465
3 465 508 509
3 465 509 466
3 466 509 510
3 466 510 467
3 467 510 511
3 467 511 468
3 468 511 512
3 468 512 513
3 469 468 513
3 469 513 470
3 515 470 514
3 470 513 514
3 470 515 471
3 472 516 473
3 518 516 517
3 518 505 516
3 461 417 505
3 505 473 516
3 505 518 506
3 515 514 519
3 474 430 520
3 521 520 519
3 520 471 515
3 520 515 519
3 474 520 524
3 476 522 472
3 516 472 523
3 472 522 523
3 516 523 517
3 520 521 524
3 477 475 524
3 524 475 474
3 525 477 524
3 478 526 522
3 476 478 522
3 527 477 525
3 527 479 477
3 478 528 526
3 478 480 528
3 481 479 527
3 529 481 527
3 482 530 480
3 480 530 528
3 483 481 531
3 531 481 529
3 484 532 530
3 482 484 530
3 485 483 531
3 533 485 531
3 486 534 484
3 484 534 532
3 535 485 533
3 535 487 485
3 486 536 534
3 486 488 536
3 537 489 535
3 535 489 487
3 490 538 539
3 536 490 539
3 488 490 536
3 538 540 539
3 541 542 543
3 541 489 537
3 542 541 537
3 541 491 489
3 490 492 538
3 545 493 544
3 538 492 493
3 538 493 545
3 540 538 545
3 544 546 545
3 547 548 549
3 543 495 541
3 547 494 495
3 547 495 543
3 608 547 543
3 495 491 541
3 493 496 544
3 544 497 550
3 546 544 550
3 544 496 497
3 550 497 551
3 551 497 498
3 498 499 551
3 551 499 552
3 499 500 552
3 552 500 553
3 500 501 553
3 553 501 554
3 554 502 555
3 554 501 502
3 502 503 556
3 555 502 556
3 503 504 556
3 549 504 547
3 556 504 549
3 504 494 547
3 506 557 507
3 507 557 558
3 508 507 558
3 508 558 559
3 509 508 559
3 509 559 560
3 510 509 560
3 510 560 561
3 511 510 561
3 511 561 562
3 512 511 562
3 514 512 563
3 563 512 562
3 513 512 514
3 517 564 518
3 518 564 557
3 566 564 565
3 557 564 566
3 557 506 518
3 558 566 567
3 558 557 566
3 559 567 568
3 559 558 567
3 560 568 569
3 560 559 568
3 561 569 570
3 561 560 569
3 562 570 571
3 562 561 570
3 563 562 571
3 572 563 571
3 574 514 563
3 572 574 563
3 573 519 574
3 574 519 514
3 519 573 521
3 522 575 523
3 577 575 576
3 577 517 575
3 564 517 577
3 575 517 523
3 564 577 565
3 573 574 572
3 521 573 579
3 580 573 578
3 579 573 580
3 579 524 521
3 524 579 525
3 522 581 575
3 522 526 581
3 576 581 582
3 576 575 581
3 583 580 584
3 583 579 580
3 583 525 579
3 583 527 525
3 526 585 581
3 526 528 585
3 582 585 586
3 582 581 585
3 587 584 588
3 587 583 584
3 587 527 583
3 587 529 527
3 528 589 585
3 528 530 589
3 586 589 590
3 586 585 589
3 591 588 592
3 591 587 588
3 591 529 587
3 591 531 529
3 532 593 589
3 530 532 589
3 590 593 594
3 590 589 593
3 595 592 596
3 595 591 592
3 595 531 591
3 595 533 531
3 534 597 593
3 532 534 593
3 594 597 598
3 594 593 597
3 599 596 600
3 599 595 596
3 599 533 595
3 599 535 533
3 534 601 597
3 534 536 601
3 602 597 601
3 602 598 597
3 603 599 600
3 604 603 600
3 603 535 599
3 603 537 535
3 536 539 601
3 606 540 605
3 606 602 540
3 602 601 539
3 540 602 539
3 605 607 606
3 608 609 610
3 608 543 609
3 604 542 603
3 609 543 542
3 609 542 604
3 542 537 603
3 540 545 605
3 605 546 607
3 612 607 611
3 605 545 546
3 607 546 611
3 612 613 614
3 612 611 613
3 614 615 616
3 614 613 615
3 616 617 618
3 616 615 617
3 618 619 620
3 618 617 619
3 620 621 622
3 620 619 621
3 622 623 624
3 622 621 623
3 610 548 608
3 624 623 548
3 624 548 610
3 548 623 549
3 548 547 608
3 546 550 611
3 611 550 613
3 613 550 551
3 551 552 615
3 613 551 615
3 552 553 617
3 615 552 617
3 553 554 619
3 617 553 619
3 554 555 621
3 619 554 621
3 621 555 623
3 623 555 556
3 556 549 623
3 565 625 626
3 567 566 626
3 626 566 565
3 567 626 627
3 568 567 627
3 568 627 628
3 569 568 628
3 569 628 629
3 570 569 629
3 570 629 630
3 571 570 630
3 572 571 631
3 631 571 630
3 572 631 578
3 576 632 577
3 625 632 633
3 565 577 632
3 565 632 625
3 625 633 634
3 626 625 634
3 626 634 627
3 627 634 635
3 627 635 628
3 628 635 636
3 628 636 629
3 629 636 637
3 629 637 630
3 630 637 638
3 631 638 639
3 631 630 638
3 640 578 639
3 578 573 572
3 578 631 639
3 578 640 580
3 576 641 632
3 576 582 641
3 633 641 642
3 633 632 641
3 633 642 643
3 634 633 643
3 634 643 644
3 635 634 644
3 635 644 645
3 636 635 645
3 636 645 646
3 637 636 646
3 637 646 647
3 638 637 647
3 638 647 648
3 639 638 648
3 640 648 649
3 640 639 648
3 584 580 640
3 649 584 640
3 582 650 641
3 582 586 650
3 642 650 651
3 642 641 650
3 642 651 652
3 643 642 652
3 643 652 653
3 644 643 653
3 644 653 645
3 645 653 654
3 645 654 646
3 646 654 655
3 646 655 647
3 647 655 656
3 647 656 648
3 648 656 657
3 648 657 649
3 649 657 658
3 588 584 649
3 658 588 649
3 586 659 650
3 586 590 659
3 650 659 651
3 651 659 660
3 651 660 661
3 652 651 661
3 652 661 662
3 653 652 662
3 653 662 654
3 654 662 663
3 654 663 664
3 655 654 664
3 655 664 665
3 656 655 665
3 656 665 666
3 657 656 666
3 657 666 658
3 658 666 667
3 592 588 658
3 667 592 658
3 590 668 659
3 590 594 668
3 660 668 669
3 660 659 668
3 660 669 670
3 661 660 670
3 661 670 671
3 662 661 671
3 662 671 663
3 663 671 672
3 663 672 664
3 664 672 673
3 664 673 665
3 665 673 674
3 665 674 666
3 666 674 675
3 666 675 667
3 667 675 676
3 596 592 667
3 676 596 667
3 594 677 668
3 594 598 677
3 668 677 669
3 669 677 678
3 669 678 679
3 670 669 679
3 670 679 680
3 671 670 680
3 671 680 681
3 672 671 681
3 672 681 682
3 673 672 682
3 673 682 683
3 674 673 683
3 674 683 684
3 675 674 684
3 676 684 685
3 676 675 684
3 600 596 676
3 685 600 676
3 598 686 677
3 598 602 606
3 678 686 687
3 678 677 686
3 678 687 679
3 679 687 688
3 679 688 680
3 680 688 689
3 680 689 681
3 681 689 690
3 681 690 682
3 682 690 691
3 683 691 692
3 683 682 691
3 684 692 693
3 684 683 692
3 685 693 694
3 685 684 693
3 694 604 685
3 685 604 600
3 598 606 686
3 606 607 695
3 686 606 695
3 686 695 687
3 688 687 696
3 696 687 695
3 688 696 697
3 689 688 697
3 689 697 698
3 690 689 698
3 690 698 699
3 691 690 699
3 691 699 700
3 692 691 700
3 692 700 701
3 693 692 701
3 610 609 694
3 701 610 694
3 701 694 693
3 609 604 694
3 607 612 695
3 695 612 696
3 696 612 614
3 614 616 697
3 696 614 697
3 616 618 698
3 697 616 698
3 618 620 699
3 698 618 699
3 620 622 700
3 699 620 700
3 622 624 701
3 700 622 701
3 624 610 701
