OFF
702 1400 0
-0.0976540609196508 -0.3183421194527 2.38548381984221
-0.145354897454878 -0.307607955932153 2.39880224547566
-0.13852332075091 -0.328257215462816 2.3607325477546
-0.0573555670414774 -0.32297766533947 2.36063737286317
-0.0983145319266623 -0.336996932704321 2.33706528672114
-0.0182088657846483 -0.325801794843585 2.33451524040327
-0.0601536649642887 -0.339495605984193 2.31037875370315
0.0204958165175981 -0.327928271611018 2.31019115519046
-0.0230296212035119 -0.341845803264534 2.28410311912296
0.0590212464547331 -0.329847313604664 2.28643765599591
0.015326359721227 -0.343578376250185 2.26036021904419
0.101316629323247 -0.330676450203337 2.26333262817713
0.0568188074345358 -0.344610431469273 2.23900113543129
0.14396284533416 -0.323968968619373 2.24010311953508
0.0997064480393266 -0.34386413867553 2.21703853616753
0.141023223912906 -0.332742188999444 2.19492272379686
-0.148073607744104 -0.277606499877682 2.43368793643879
-0.189581663893414 -0.263529945527936 2.42961247887622
-0.188011081601788 -0.295025274766425 2.39549099273589
-0.102956466997904 -0.29056794063407 2.42502324588423
-0.0581615485101626 -0.297015363690716 2.40613065856525
-0.0178524862181971 -0.300384604637503 2.38002619922235
0.0225569018851771 -0.302287297290086 2.35563832685142
0.0619774365350935 -0.30365817270837 2.33253417729983
0.0988404886476038 -0.307305110261284 2.30752931808336
0.141649245235974 -0.305868022165692 2.28333967141039
0.182388008839791 -0.305865132574098 2.21556915401763
0.181049848331085 -0.291628722857834 2.26109680331829
0.21440494453873 -0.270194188191823 2.23002701296447
-0.11405847835304 -0.253027582504434 2.45752216439499
-0.164337746248966 -0.236257728365219 2.45927020129366
-0.0661028140258627 -0.263466314272464 2.44364590466788
-0.0213535985692754 -0.267460392381838 2.41954296459667
0.0196556469503235 -0.269747102754351 2.39455472611163
0.0617403531278312 -0.269978841252304 2.37101615378403
0.100998269079163 -0.27067971558605 2.34857526564817
0.134341999777531 -0.278657385132566 2.32217158793613
0.172776315550246 -0.26817666873913 2.30474768739797
0.208573737584038 -0.253171208324371 2.27717222599701
0.238171077090681 -0.229986213773691 2.2434710199086
-0.118645409389369 -0.214848123156395 2.48336933516007
-0.162577947744496 -0.19670794222087 2.48197178648412
-0.072307341147071 -0.226612017237668 2.47548089972479
-0.0260471011930851 -0.234625428934302 2.45461848993157
0.0173397164589786 -0.234493216847041 2.43091028069953
0.0579791362819715 -0.237246059433636 2.40566396526254
0.104485580111029 -0.235554906642874 2.38158850353045
0.149308198914358 -0.242935267181218 2.34942063126735
0.194166485712042 -0.233204608417791 2.32538976903549
0.231923474330285 -0.216157842255932 2.29259843525803
0.260341391418778 -0.189312457929596 2.25768210759141
-0.0819442135307223 -0.186810253704846 2.50599779719714
-0.134179442498992 -0.172917735538254 2.50564078231875
-0.0327500764298125 -0.201081164090851 2.48819258083644
0.0113850995572985 -0.200878908647691 2.46765064192303
0.0523512412110537 -0.19970027153817 2.4461342199489
0.0880874725068635 -0.205952141090159 2.42012214569718
0.125269484278479 -0.19137243473749 2.41403312769052
0.146357299616134 -0.210439336227197 2.38338488138071
0.186045560947021 -0.204647855635716 2.36572652587716
0.224091823314922 -0.196426844733698 2.33701354921883
0.25794137710453 -0.176427976421137 2.30332303361783
-0.0629612910028101 -0.143275834217651 2.53779568168986
-0.10619102856988 -0.149246220667014 2.52770405701752
-0.0366476902310409 -0.168624414093582 2.5166546924108
0.0106339356225129 -0.168062999121895 2.50070754257535
0.052128129341384 -0.164484115307519 2.48129452992239
0.0939786911539522 -0.1673967620803 2.45521732839022
0.138619801377282 -0.158864877308443 2.43898125231661
0.174447356426077 -0.170928959923165 2.40713551444023
0.215552232924873 -0.168692740581559 2.38182181087724
0.250505082780982 -0.160093514027982 2.34938633573633
0.281865280886839 -0.137009628021843 2.31362366133107
-0.0348996811277967 -0.115682521174142 2.55796607830236
-0.0921072396122312 -0.107347394873522 2.5568706077173
-0.00367286798177142 -0.138896782064438 2.5338399947814
0.0439361835376833 -0.129558755271277 2.52057701751277
0.0870680530318077 -0.131921376539807 2.49433844507288
0.128962981082666 -0.129376968387003 2.47366699604855
0.173723313517396 -0.131144034217241 2.44711790763324
0.21086433926386 -0.135978962001095 2.42135767574715
0.247924577266293 -0.131450570965748 2.39366839849342
0.276474178353721 -0.123487386835931 2.35923445662985
0.302531817205947 -0.0967733625916148 2.33487125154265
-0.0122597449476516 -0.0730037401642626 2.58145396863482
-0.0585340756282643 -0.0855170871913186 2.57657052105736
0.0136376734167419 -0.102354702300372 2.55870516144094
0.0508698035557517 -0.0879356089338592 2.55092919630473
0.0862017059326292 -0.0949367740395651 2.52632584924394
0.126511097059842 -0.0930506436629242 2.50469042717374
0.167590822530555 -0.0944127309262349 2.48047802738483
0.209661611716452 -0.0965302141179267 2.45521749272682
0.248992845914765 -0.0979379367058944 2.42701263295846
0.284545845751136 -0.0912065685969594 2.38904316153711
0.314760265992384 -0.0592493501544928 2.35243471614666
-0.056961585342677 -0.0452626053096022 2.59270956752041
0.0314279346798201 -0.0503868120384058 2.57810293582131
-0.0113808892842747 -0.0282592819367922 2.59522497446784
0.076121169558372 -0.0486728512141046 2.55500949399504
0.115894179935437 -0.0515586701642419 2.53094947993576
0.156817668702149 -0.0505652177740072 2.50752438188881
0.196410402418639 -0.0533254779964873 2.48362263447655
0.236609869479749 -0.0559746552648132 2.45908921529366
0.272267753756971 -0.0563532649041401 2.42887011326178
0.300513967579392 -0.0495633217592447 2.3933129088471
0.293349080903175 -0.010063050417259 2.41585579082404
0.0187461375653653 0.000956119078984239 2.59162166450498
0.0589823874118049 -0.00599970535624395 2.57378776942508
0.101586215917113 -0.00584277837257275 2.54864271393474
0.141324396918552 -0.00509289090719489 2.52518403570074
0.181507292803791 -0.00464317841218037 2.50141720221482
0.220196342401684 -0.00957405738984782 2.47825313375266
0.2599534544102 -0.0122222573089381 2.4514685011076
-0.144607639362799 -0.338501037230425 2.31667825997665
-0.186072827138637 -0.328235094510391 2.302739996104
-0.190964157984588 -0.323821389300704 2.25839663549751
-0.104613905496819 -0.343388260950065 2.28699111040362
-0.147425531321642 -0.338456110250345 2.26752694305151
-0.0684800184536139 -0.344903051011686 2.25831898975972
-0.1128128344065 -0.337908136610886 2.23359724554106
-0.0308830703594409 -0.346380981273881 2.23256721082808
-0.0765314318542238 -0.338170134571848 2.20638915806862
0.00984936268196224 -0.348061745922077 2.21096343398872
-0.0349767352923311 -0.339955698516919 2.18218021697143
0.0519118713904802 -0.349749852596239 2.19174071128868
0.00707124003674106 -0.342589112903562 2.16158303288248
0.0933448965440201 -0.346334654048195 2.17011310600045
0.0491692807809916 -0.34457221657438 2.14352952711972
0.0919436430820681 -0.335554591571023 2.12086875559633
-0.181997188604447 -0.319220251891215 2.35357689374823
-0.224355048666444 -0.291287383676783 2.36322602118461
-0.219691423338959 -0.30864412703999 2.32025766547219
0.17737821566426 -0.310942672500714 2.1698501824781
0.132184741923433 -0.332640359545163 2.15036767870784
0.163117076399224 -0.309948394403227 2.12660506429202
-0.218031444549989 -0.229530565979718 2.43592434388816
-0.25737888936981 -0.221450388298711 2.40264662630125
-0.228368674700787 -0.262061219003829 2.40080831639879
0.212452824358993 -0.279433874000908 2.18206586223856
0.201477437520145 -0.280839320425494 2.13442752425238
0.229356642240968 -0.246964294463628 2.14397428470907
-0.20257999215501 -0.198520936892734 2.46072118352093
-0.244553146359961 -0.1867150470513 2.4332651107293
0.238071965962758 -0.241110284280433 2.19412012108857
0.250958966366124 -0.205125751317349 2.16181396642676
-0.18763582305891 -0.15747017815022 2.48790481281673
-0.224901893707905 -0.154049743451981 2.46091124671554
0.258472128085236 -0.198437050357078 2.20951647396512
0.267818506264229 -0.161281043699783 2.17504273501475
-0.161562588126631 -0.135271853709853 2.5134005595641
-0.205554334030088 -0.110982697847415 2.49143262370622
0.277898794554425 -0.155267965542702 2.22237764359249
0.284325797043314 -0.11731199204822 2.19108526907258
-0.132878058690295 -0.113938220197359 2.53837563404188
-0.175585641024305 -0.0894990725378393 2.52349634864708
0.283087318404381 -0.146041225074486 2.26722280896838
0.297304502401299 -0.108145996666192 2.23433007820486
-0.13916988621186 -0.0735534818604706 2.55459886888885
-0.175145081304877 -0.0424267971783347 2.53964315962054
0.303492372833033 -0.103813860910974 2.28331562449475
0.314179005039421 -0.0661737346678621 2.24964491690658
-0.102135882499685 -0.0622130809436766 2.57739945432197
-0.139501685113665 -0.0272210031561491 2.57058243443607
0.320837626363917 -0.0643329874693968 2.30179176714519
0.32840370829653 -0.026869820792719 2.27470531754868
-0.0969587196532126 -0.0159383199727267 2.59087117789182
-0.0495634896185852 -0.000691792102385793 2.60018912443941
-0.0795635691473932 0.0304601487470722 2.59533123286208
0.317947965724393 -0.0111368910618093 2.37055755357553
0.324823880570192 0.0276488964371538 2.34325411192217
0.328925948224303 -0.0205745426028794 2.32437255128452
-0.0197347799156097 0.0290660336433592 2.59840304651796
0.0342137908610088 0.04296806547444 2.58289740908741
-0.00363075934676848 0.0687316678283194 2.58753128331123
0.0792997306283564 0.0365155220360216 2.55974654777577
0.119497472292661 0.041190786207087 2.53464952534241
0.159655189916867 0.0416003529111538 2.51034958270196
0.199992466138561 0.0419514758030798 2.48592944009939
0.238253229284708 0.0329858091629741 2.4647002629092
0.252078027936658 0.0695350058944594 2.44270635471815
0.277373817582057 0.030645065102068 2.43230881321162
0.306660422477933 0.0311509049740379 2.39062446970357
0.0220047751377813 0.0990539665596743 2.5673244124417
0.0575699902940152 0.0775851630889262 2.56052828608728
0.0936060131355138 0.0843451117384015 2.53528161050368
0.132630733770641 0.0860390849522831 2.51042886433548
0.172718360739549 0.0857938457430034 2.48588778995534
0.214169042966562 0.0858822755906944 2.46030997147766
0.252112058004739 0.105637918850919 2.41899116861277
-0.254226112543195 -0.279581449649026 2.32237297382693
-0.266275386981802 -0.269542467641909 2.28087775111679
-0.230736999631918 -0.302987244135089 2.27511962304503
-0.208628440756726 -0.30487580467411 2.22399228996816
-0.157693565153309 -0.324574283993656 2.22016595807431
-0.122303910472179 -0.31947977201069 2.18357643787787
-0.0775341508899358 -0.322453777732059 2.15955098498063
-0.0321810182118203 -0.324434838194025 2.13294328625024
0.00933754069485649 -0.32786463857736 2.11233008354801
0.0541774794327835 -0.328366907483386 2.09806954677954
0.0854952124853271 -0.309316475062929 2.07008586349725
0.125918146809444 -0.317411431676555 2.10088115205007
0.133731791633142 -0.292466516837235 2.0687561018987
-0.259400294609348 -0.25494702635923 2.36546953914397
-0.285282797737522 -0.210696455197628 2.36298530350858
-0.282826547749007 -0.239892864411728 2.32667931251541
0.173747476074903 -0.284477853340938 2.09337419807205
0.164698237589002 -0.258835754269021 2.05702915673198
0.205891345902017 -0.249367777777065 2.09401500961738
-0.277167331354591 -0.174391073843422 2.3981574183741
0.216139540128044 -0.207164973858159 2.07689390303842
-0.262414905449872 -0.140174490274206 2.42350383503951
0.236424514569969 -0.21054917632043 2.11572353469499
-0.239127278234583 -0.113559076049372 2.45620538788219
0.251628842839409 -0.166071476191498 2.1280771867508
-0.234809140939428 -0.0723743759348189 2.46695967413347
0.264719247115395 -0.123414676688074 2.14259056616484
-0.206688606936001 -0.0595249957197328 2.50350909399823
0.278522472001892 -0.0833284844609643 2.16107006295084
-0.202147232841702 -0.0102414364813354 2.516658205342
0.298917394263561 -0.0660988245053132 2.20071127867076
-0.169425572628139 0.00622538885409021 2.55313468413644
0.315598707008551 -0.0238442990842002 2.22369739718913
-0.127676826523223 0.020280823942211 2.57995133227059
-0.153668239771769 0.0540312594382704 2.55855808242
0.33084933538159 0.019695473304255 2.29656099888839
0.325352576434609 0.01222496350235 2.24962559094963
-0.107375927374551 0.0655381230630216 2.57983355262491
-0.0544494211543225 0.0666966905325981 2.59115254227675
-0.0804836051790219 0.104720994973045 2.57075583139023
0.285706047672706 0.0715355003181213 2.40476701280645
0.309190576187283 0.0702665524844763 2.35922581834645
0.320534451756717 0.0657579686351111 2.31029717742175
-0.0308243295607026 0.105759115977221 2.57465953589294
0.000728141176123551 0.133738700352042 2.55042352009797
0.0554509049169138 0.121638289046228 2.53470201658209
0.0954867146423111 0.125295882650048 2.50642669261116
0.135447616383947 0.125921320957367 2.48068326912245
0.176373993279006 0.124604344963811 2.4560639845984
0.214361058952806 0.126743773906852 2.4300591332377
0.247953379252742 0.137812316721981 2.38634976074374
0.282520889680864 0.107972641541618 2.37451095552818
-0.281718119763476 -0.241596923440073 2.24389959823571
-0.247703542567562 -0.278712692014835 2.2348032790742
-0.22206566245444 -0.276829773121092 2.1889120402944
-0.175966416536737 -0.301324580023174 2.18632994160363
-0.148272921708332 -0.289336318528282 2.15133137306834
-0.110311959159816 -0.294933078013355 2.13433276666498
-0.0660512742952312 -0.301272510841803 2.11435157999523
-0.0193518407480601 -0.300505390374551 2.08289336164832
0.0295414615835612 -0.306796291483605 2.0679819179776
0.0625567276314208 -0.282169164516905 2.03774564958756
0.111708006269188 -0.273142292259331 2.03935217114608
-0.305088487192715 -0.189782144846908 2.31931494160536
-0.292671615262453 -0.228812555603974 2.28834657163531
0.140511466082522 -0.235251910166878 2.02459356810685
0.185095666460079 -0.221573008575996 2.04944936907887
-0.297892860415491 -0.164047190571744 2.36063673349219
0.202456067830217 -0.172093403919041 2.0468984082287
-0.288001633022279 -0.120380394139072 2.38380531709075
0.231709550813825 -0.163979181366854 2.0863793214869
-0.264223946127947 -0.0916510726108806 2.42187863225353
0.241798553945305 -0.119342732370634 2.10008001642623
-0.25525796003857 -0.0461266252420755 2.43387557145526
0.254433233734308 -0.0774289082739803 2.11849955402152
-0.22950974019301 -0.0249336694733755 2.47576236600403
0.276633032777722 -0.0415689018327115 2.15343003342654
-0.221275252489087 0.0222170122589379 2.4864333467196
0.296197677936917 -0.0157862029937136 2.18461202360312
-0.192111899913234 0.0384581103466498 2.52685670389638
0.309913165777243 0.0314343559464137 2.2121089481163
-0.172759390856465 0.0857286066351766 2.52916699064137
0.320320043285724 0.0559065542250579 2.26104402819117
-0.129679511671101 0.0987531805418678 2.55448642404584
-0.0996397243605436 0.137702307834847 2.54116278090848
0.298968519577266 0.106807123790512 2.32670579617102
0.305145116824126 0.0993201524145198 2.2769265898589
-0.0502298078488525 0.140847600787079 2.54948912629841
-0.0189613878376368 0.16797058267354 2.51984866924072
0.0267613639566468 0.153579360586379 2.51997377797878
0.0613385443907905 0.15843711372494 2.49146995378501
0.097212811958118 0.160190517126895 2.46578175593039
0.138010347216168 0.158202001386584 2.44201152923777
0.173609408280191 0.159392994316225 2.41727120787362
0.209430060702973 0.158972251565088 2.39387186539261
0.267410893542504 0.142206209345941 2.34117842488489
-0.299658551389937 -0.210536512079896 2.21657953481717
-0.263029351512933 -0.24784204348526 2.19941330832636
-0.237417039203093 -0.246084293091014 2.15599035156735
-0.190789925628297 -0.268431233546775 2.15036706783364
-0.152538739742735 -0.25870119004819 2.1122350296523
-0.106987179526405 -0.268172141196375 2.09560324200915
-0.0620798214389112 -0.277028953528892 2.07855073339874
-0.0341372111158736 -0.265207066008424 2.04425354077619
0.0104828070456907 -0.278356271003394 2.0397138434006
0.0431925256917592 -0.25162997993891 2.00695587858238
0.0918889392050342 -0.245394370206416 2.01001473902512
-0.32291444746227 -0.155868557695628 2.28968904423498
-0.309658425153667 -0.197656036937283 2.26532566185112
0.123343026993363 -0.205163653059814 1.99410097704769
0.166650846023223 -0.1911821105879 2.01754225401766
-0.31262536400487 -0.134605148612501 2.33501737557168
0.186975842334328 -0.141370171421221 2.01802452718577
-0.306288700607119 -0.0871334753889649 2.35076053228631
0.216862477308996 -0.124452917892238 2.05845217281258
-0.282741773789885 -0.0663812099164562 2.38898741330246
0.228394208632059 -0.075836669973907 2.07455662583142
-0.272797604385544 -0.0185365718165082 2.40247245141671
0.250683090738826 -0.0337435068564566 2.10921637463603
-0.247849725338325 0.00371269847047937 2.44295678197486
0.267867614561385 0.0011207188251843 2.13577340247446
-0.238611594095753 0.0522539529699772 2.45520710971578
0.289050992187542 0.0249861483339421 2.16987355380419
-0.209294446534323 0.0699819383116594 2.49587388504389
0.29174889287921 0.0693199619012552 2.18099753561992
-0.189967206240064 0.116865909379526 2.49798540120897
0.303974951705907 0.0822195903035307 2.22683085719548
-0.147075009810789 0.129974824003307 2.5233711054706
-0.116194275754456 0.169521553730495 2.50959622303819
0.280954833827108 0.139695814085003 2.29377033998157
0.28833132197089 0.129198790493627 2.24420641371067
-0.0676361794858316 0.17236893106788 2.51799388855103
-0.0303606902098643 0.198594265062242 2.48774389633414
0.0182769922332615 0.184254969044001 2.48414525266425
0.0557940109464308 0.191681404722127 2.44963856999271
0.103167690499227 0.187533155583862 2.42455016733897
0.141869078482135 0.19033679405497 2.3955921185007
0.181010041405834 0.189876326884375 2.37080876512811
0.22848637182217 0.172020390716986 2.35322088339708
0.247596249348774 0.175695354916911 2.3105791136279
-0.316638887145815 -0.180238315734683 2.18684726780228
-0.280987615869026 -0.216677088465034 2.16946416795632
-0.253740584054843 -0.216668165282703 2.12636328343299
-0.202607950397563 -0.239214491178512 2.11811158549437
-0.173373726664986 -0.224712988163315 2.07931490183385
-0.129678548310264 -0.236120023578425 2.06653491092668
-0.0844653298021761 -0.246625566977855 2.05153606350354
-0.0556131160311703 -0.232615127501191 2.01365727906973
-0.0060163650530583 -0.245853987814878 2.00657929439824
0.0264158229743144 -0.219998676688719 1.97519101702712
0.0755958773871932 -0.215675811896331 1.98022307266403
-0.340612445884677 -0.12420854425944 2.25756564265512
-0.326028977632071 -0.168151006752443 2.23663575360199
0.106980332285451 -0.174745398484405 1.96386598191818
0.150373469688441 -0.159818067711804 1.98706656974114
-0.329563491221866 -0.105869377684524 2.30388990847981
0.170957550010134 -0.110964170262499 1.98859729059188
-0.324729717581494 -0.0589578510976529 2.31780091260183
0.200913085657859 -0.0927603674070437 2.02944700674338
-0.299676296673585 -0.0328561574293423 2.35819999055489
0.208134808148925 -0.0455471357243544 2.03839353301555
-0.286418810049742 0.015005988218842 2.37726376907255
0.23039312630809 -0.025093348667418 2.07447226404583
-0.264498397801779 0.0356647537482396 2.41275792724937
0.244954851386376 0.020972010926662 2.09585178584152
-0.256798025948569 0.0820820674561299 2.42256364754242
0.268958182956768 0.0501147775541678 2.13427744831878
-0.227031991215314 0.0998106600409374 2.46444583141839
0.273898244429342 0.0972676980256126 2.14742083086137
-0.206687319520144 0.147340299290414 2.46757909703598
0.285861406801163 0.116081262079158 2.19578084821733
-0.163470198924744 0.161330158139009 2.4925165830929
-0.130275836889416 0.201051810270364 2.47910893590843
0.263110726258273 0.17144045128611 2.26314802965001
0.270482743576478 0.161491265558096 2.21362633710009
-0.0803285225958346 0.203699941281985 2.48685474393622
-0.043772640591807 0.229152843868416 2.45605279783158
0.00574561956288345 0.213955269225025 2.45169290079026
0.0335193213825355 0.227738024645998 2.41482695886226
0.0743211684107497 0.214641768599898 2.40623270952557
0.111331836365536 0.218970315577434 2.37628825618937
0.152266691303069 0.221013942079578 2.34691861146964
0.20332001238436 0.204049602716748 2.33026989901032
0.228150195536832 0.2067812045946 2.28456692815726
-0.333465257410203 -0.149946746302162 2.15615784682305
-0.298405426463209 -0.18585674321701 2.13907899107848
-0.272042551770356 -0.186358432997178 2.09752389036517
-0.221628161649939 -0.209104914020054 2.08931437236091
-0.19180520188017 -0.192539039158203 2.04731264490081
-0.14864445042804 -0.203228429540294 2.03389838709999
-0.104638170293149 -0.215178012819661 2.02165827626966
-0.07648071205316 -0.200289158873735 1.98302973936182
-0.0258258582047756 -0.215288391822603 1.97668496918912
0.00661734187517932 -0.190610488975687 1.94555766974554
0.059127088593919 -0.185514241657608 1.95000941286557
-0.357872825879317 -0.0915905386270254 2.22842552350635
-0.342631063477142 -0.138371947342891 2.20629598527269
0.0900076163637981 -0.144553138293634 1.93342110668744
0.133489188866583 -0.129117486158892 1.95639158665326
-0.346865292396528 -0.0732278383091358 2.27315521369822
0.153396858473083 -0.0812898499263842 1.957470645618
-0.343612748911509 -0.0236756858671187 2.28361378153713
0.182545112319668 -0.0619936490155196 1.99643572478002
-0.321142648848339 -0.0117093571068568 2.3206252473032
0.193161497040935 -0.0111673318268897 2.01085022530868
-0.3064236071625 0.0222266468365016 2.34309618651826
0.21737423075015 0.0091144188816398 2.05022897048325
-0.284797572028715 0.0662820989382197 2.3765042417371
0.227302009072996 0.0555182074475539 2.06378574389371
-0.273365830765684 0.111658362318134 2.39266261301554
0.250946785572502 0.075541278966873 2.1022270395043
-0.243636413235917 0.129654132356062 2.43446110466395
0.256739836104804 0.12537379427349 2.11565919736318
-0.221110987732896 0.178793700588092 2.43876283744012
0.268828521964266 0.145541071772578 2.16360259767507
-0.17827515501975 0.19260221206036 2.46268616439712
-0.145788952647724 0.231783129663241 2.4487519898525
0.245514459366371 0.202534272896286 2.23393105310993
0.253606740441147 0.191748552250745 2.18272939197318
-0.0949128808148316 0.234382058505895 2.45614623340578
-0.0610024533184381 0.260098470873289 2.42494953162559
-0.0122554418994083 0.246650110339851 2.41870083962841
0.0207513777226297 0.259829280935503 2.37926057984416
0.0643662227571171 0.245536732985731 2.37047566352577
0.101998941242706 0.249683116037019 2.34037589296226
0.14070896423546 0.252119726885869 2.31191340154861
0.185464809145051 0.233069360513853 2.30304026875796
0.212735770592143 0.235557904653321 2.25420535805038
-0.353063573033664 -0.117053154524795 2.13421557730262
-0.315932375526075 -0.15430279419124 2.10727296224074
-0.287046469568728 -0.156854938895132 2.06629502774627
-0.23820157170121 -0.180346676738937 2.06077426118811
-0.209701594025953 -0.161789585279583 2.01697764881822
-0.166991057031929 -0.170081287561233 2.00051248398592
-0.124990611601323 -0.181699475377815 1.98912002000795
-0.098588354577245 -0.167599887409637 1.95272530446899
-0.0459915503383285 -0.185037548889088 1.94735202335024
-0.0124152376639489 -0.16074135494597 1.91551331462845
0.0388508347100978 -0.158340648805368 1.92111246477517
-0.374979944557487 -0.0583750799660995 2.19890570335996
-0.360136179866473 -0.106124662450715 2.18051497541507
0.0670101714718775 -0.120502486122692 1.90382924421487
0.115662244326286 -0.0985849636540778 1.92496600962037
-0.364676343909419 -0.0394310016427506 2.24154147326228
0.143079162609877 -0.0462743759320082 1.93420549034185
-0.357882673331226 0.0108332404098112 2.25637057977469
0.16794180491744 -0.0274775169441309 1.96950471184425
-0.333317361834519 0.0306605856669476 2.29724949646929
0.176018082561297 0.0215882694257658 1.98004887062165
-0.310057302628155 0.0630330907011052 2.33420344327515
0.200330338073477 0.0408508496650087 2.01937964741842
-0.301563849696379 0.107853733875826 2.34545441393105
0.209425242147141 0.0874542369486385 2.03162511390945
-0.285944123180734 0.146764068461591 2.36908353037667
0.233802847221138 0.107915835056453 2.07116607297382
-0.25721760662324 0.161437236585381 2.407708144403
0.239927561149868 0.15608237111071 2.085500337546
-0.237517103927059 0.209533373532742 2.40849781221827
0.252094270502885 0.175085652935442 2.13276633442969
-0.194084270256063 0.223790310012641 2.43227696265548
-0.162767660714974 0.262265128677418 2.41811043084408
0.228771945567141 0.23284923986018 2.20252312698196
0.236661115515178 0.222057503896847 2.15177873894319
-0.112146998081121 0.26472038375788 2.42563637098465
-0.0786063163800061 0.290597141188616 2.39441132299597
-0.0287216594741834 0.277708279251836 2.38694797834608
0.00353013248571144 0.28966212237964 2.3496364721469
0.0520982876079653 0.278009875298514 2.33406336869958
0.0925626434277419 0.280271241838205 2.30470133030876
0.130482301656952 0.281981070180055 2.27774518006765
0.173866790205665 0.261766056389476 2.26905523876674
0.196249392923844 0.265923592519754 2.22266988713624
-0.339029085203848 -0.119953452134705 2.09133971020785
-0.314145676886699 -0.124339720048131 2.05549124729361
-0.281548013612529 -0.121338329128946 2.02189801683546
-0.253432935532958 -0.151634256008819 2.03261510380296
-0.235635314287971 -0.125146643731132 1.99582737068652
-0.191539563165223 -0.1345105497635 1.97599418300179
-0.147378675114489 -0.143135106121192 1.95608038366054
-0.112188959579497 -0.13164584302465 1.92371306591463
-0.0646333901465457 -0.15526053862015 1.91964226748685
-0.0321587918252923 -0.128260685253765 1.8900781730636
0.0199776228987239 -0.126985234659019 1.8913945071799
-0.384111802385219 -0.0245966970834814 2.16838317254337
-0.375189544976075 -0.0724275535414062 2.15080435349241
0.0801661493681112 -0.0826059933950795 1.89120649845415
0.112197423530927 -0.0553611736034701 1.9046181127876
-0.377740524531861 -0.00391400182839971 2.21035752986425
0.118853577037978 -0.0108468540502403 1.9060174398414
-0.366880442357816 0.0428111878954952 2.22144415493408
0.147474359700043 0.00654255164294954 1.93890283651605
-0.348610403228262 0.0616560787320934 2.26149843829506
0.151964792621452 0.0520458809970658 1.95219835489139
-0.327963151229257 0.0844144805640718 2.30027977206459
0.179543766356026 0.0731502870696192 1.98818005425471
-0.31856318565596 0.131632639549775 2.30444706473749
0.186410345938338 0.117978506903942 2.00386546136851
-0.301824312275373 0.163072010367071 2.33218572527764
0.213495204083456 0.139251518598093 2.03981742979472
-0.273884697086217 0.191100479091184 2.37567194162332
0.21828014736417 0.183173494915136 2.0573989492457
-0.254731716929226 0.234180771478601 2.37304475892685
0.2336577797759 0.205378597540331 2.10327477287661
-0.212135313311798 0.252594125341875 2.40016821920328
-0.180010335949917 0.287354333299771 2.38492111635643
0.209814347907688 0.262954505757555 2.17108434708784
0.213353067753697 0.251183977240928 2.12315726983196
-0.128531901230965 0.294297404075612 2.39371151026616
-0.0956300297944123 0.31719928436718 2.35771914201839
-0.04962293474319 0.307461559733503 2.35580036613088
-0.023906232599684 0.315639447418686 2.32105418244302
0.0204344448625316 0.308805767673458 2.30591985281362
0.0600068235006425 0.306458251535982 2.28395570778345
0.100611907164134 0.307296866911097 2.25461604790244
0.153596025740447 0.293117161457747 2.23759162541745
0.175624237482893 0.292295720307662 2.19194461400523
-0.36399332176281 -0.0804508118522338 2.10215614297202
-0.341580901708474 -0.0832700375146623 2.05688846652434
-0.309625388833963 -0.0847901341479866 2.02023550418631
-0.266476306559904 -0.0870903669052745 1.99113038741677
-0.221927362943566 -0.091534982826986 1.96594353366374
-0.180109765396119 -0.0993219931580162 1.94424971430282
-0.142908160593272 -0.0972988456554006 1.92029440334104
-0.105538384772966 -0.0857363890124981 1.8921697729342
-0.0766206611534361 -0.117971694664894 1.89476670423116
-0.0553616866710754 -0.082015992900544 1.87136420403158
-0.00870782417869259 -0.0948503555146789 1.87138928052917
-0.378731846717595 -0.0383216386387197 2.11741386529558
-0.37132128515676 0.00193546199354824 2.08750483435112
-0.361595284067285 -0.0421932168400964 2.06997773507017
-0.00622027278294608 -0.0542739197074413 1.85956729384187
0.0389640123390492 -0.0825000560745686 1.87396586640301
0.0326868020284486 -0.0363061588233622 1.86232873684021
-0.379813692529288 0.0307058582581121 2.17114829340083
-0.382640986523347 0.00471277588568367 2.13420069339147
0.0752254949561881 -0.0368438827443869 1.87765853931722
0.0856087278092934 0.00725276632639276 1.88415324564212
-0.3649487006602 0.0715479963502139 2.18664366305752
0.113936506363217 0.0386333439770152 1.91234945754218
-0.350815867593125 0.0961049238953947 2.22192667105059
0.123045367356525 0.078993133739547 1.93387441718742
-0.337661278061919 0.111473518776207 2.25983054634923
0.148644985389243 0.105178544979718 1.96364334716083
-0.32447224583728 0.152514323502346 2.26048969004247
0.157682676715407 0.145372621141737 1.98484439496453
-0.308143568142498 0.185183328026306 2.28910391122973
0.183010139349018 0.171343718432357 2.01458411929184
-0.288366580164187 0.206659462563124 2.33741658079851
0.189662619714063 0.209926142821386 2.03700710540559
-0.228688487802288 0.273076256859274 2.36180239477852
-0.266020367907346 0.251174910880114 2.33232578912043
-0.241072744275463 0.285465924301473 2.31545107301443
0.207543843612555 0.230496070922731 2.07627902686097
0.168134877105433 0.250346169136386 2.04810379197732
0.183889104639784 0.268328320403271 2.09070172162902
-0.147144638072428 0.314709751583229 2.35791795217956
-0.198236208361217 0.302275124241302 2.34677650374172
-0.16798104717291 0.324795791626782 2.31840929559601
0.180255539551746 0.288649280882205 2.14014911452252
0.129867952302372 0.3151777256255 2.12912501838322
0.144374498207619 0.312761671048993 2.16778307114306
-0.116784398386791 0.332063303835408 2.32073324253351
-0.0695581670304737 0.330063785278287 2.30973916547269
-0.0261113971974208 0.329366361814354 2.27936286756485
0.0147973062004986 0.326709203369829 2.25940904160836
0.0527538483091736 0.325197741050675 2.23676861089669
0.0862205013438703 0.325363722663849 2.21016798423566
0.127903973624574 0.314761509447571 2.20927823003345
-0.332702703363625 -0.0433549792329738 2.02750362094844
-0.293575460525176 -0.0463399499089085 1.99412981602715
-0.249615090849838 -0.0483847367502276 1.96785881325258
-0.207926281152904 -0.0512867059465228 1.9433525188604
-0.169014235729079 -0.0530511143225335 1.92027862683896
-0.131693812478963 -0.0472247580815141 1.89667948784227
-0.0887466612655335 -0.0436560164132739 1.87287586445094
-0.348774798432764 -0.00182203325768882 2.04428125900339
-0.32834980495149 0.0365534528622324 2.02772328774029
-0.313655499692964 -0.00360314216635521 2.00560804232724
-0.271294927140297 -0.00525959252474448 1.97724660468349
-0.229932761160921 -0.00441484302883741 1.95279707227929
-0.188929648926665 -0.00594442402086465 1.92844658098869
-0.150009614768844 -0.00260050963082595 1.9056745824882
-0.10916438191547 -0.00141852792128579 1.88177215572036
-0.0623824461897823 0.00279629309440811 1.86365095665509
-0.00771288119282924 -0.00147687409418329 1.85705956186929
-0.0442122862382803 -0.0365514292905329 1.85952725595615
-0.372297496512792 0.0444899640296979 2.11734111276925
-0.349268496552727 0.0837593476895686 2.0964352447219
-0.355498655885538 0.0427103366113257 2.06948186700804
-0.0325591304755782 0.0396562235433629 1.86594668858829
0.0415553916210927 0.0070242193238185 1.8655383553938
0.0151984156140916 0.0452136610157832 1.86882043461625
-0.362584847596414 0.0787464087886565 2.14399630748817
-0.335448381487478 0.118587707850447 2.12625179604977
0.0658437508701393 0.0471918323007481 1.88461405437772
0.0345510286633969 0.0840541612838112 1.89129755614222
-0.345274170076567 0.115798439650904 2.17529417963288
-0.320832111303195 0.153061628534591 2.1578986581938
0.082261237601157 0.0813301316106093 1.90882815968159
0.0514532032889802 0.120238567426133 1.91769508638756
-0.33195231115836 0.144580258048335 2.21172011553988
-0.306713677810345 0.184896572490538 2.1852756770788
0.100524930250446 0.11808176267172 1.93614274911948
0.0693055056265686 0.155510678823237 1.94381079110403
-0.311845084936354 0.186741857372532 2.23421388094461
-0.287662305799113 0.222565079749769 2.20818390789986
0.11766579745632 0.150224014672532 1.96065716897284
0.0873862363997691 0.190117142892857 1.96960208853756
-0.293303356654687 0.225165539254865 2.25512276673353
-0.266975757353419 0.262493787576021 2.23547058643957
0.13640542056356 0.186467891325156 1.98800085583083
0.10464017919124 0.224831742579091 1.99522635806419
-0.289742999501648 0.228163355211229 2.29823572495301
-0.267180161295994 0.266001919547045 2.28114798776783
0.152381164731999 0.218953469516179 2.01269089013335
0.121644404986193 0.257106270317562 2.0237117622104
-0.21029266538382 0.310635604528652 2.30197661563442
-0.234829206526081 0.297602761040033 2.26159614651412
-0.190429345211748 0.323477511378441 2.26681541420154
0.152428143751136 0.296155692481793 2.10109643606312
0.138704558936095 0.281562678726913 2.06049785182211
0.104962787359485 0.307916148808074 2.08327095021809
-0.147446627437963 0.335548189469188 2.28266312366407
-0.149111951286233 0.333470422110278 2.23873283053641
-0.104178224026762 0.338767208589652 2.27241235573442
-0.10616186108263 0.334811941564222 2.22245586573774
-0.0647205175680428 0.337052565140742 2.2538977220394
-0.0678972868470213 0.333264429953498 2.19971673012571
-0.0258172456144924 0.335570838333048 2.22761544847003
-0.0300948586407279 0.331360043276351 2.17516064590831
0.0131296133211924 0.333973566097693 2.2054600674882
0.00685044853639852 0.329565651172138 2.15159795674591
0.0497398554607766 0.332567241367011 2.17993787733467
0.0468262851615523 0.328511969848878 2.13092273651037
0.0954922283145749 0.328629315511086 2.16414802460577
0.0848244081162021 0.324343146841621 2.11811550762753
-0.298932815925912 0.0717358746392897 2.016886199821
-0.287384372638876 0.0365120478648922 1.99356900440617
-0.246923286009368 0.0409522014889823 1.97129036563371
-0.204716526696278 0.0387594818220638 1.94605938765526
-0.164910051810416 0.0425764513583479 1.9242516565784
-0.125054180844366 0.0437413590550178 1.90159040688657
-0.0839738905695398 0.0417975159470837 1.87933299477492
-0.328057473503269 0.0800487530817392 2.05319633628457
-0.287634887865899 0.109586203738225 2.03704745071605
-0.258576812073327 0.0841094399640247 1.99834225158432
-0.21539714575676 0.0790394402459203 1.9706355659354
-0.174698423468434 0.0845770709055597 1.95101598610363
-0.134833766972085 0.0866095437246461 1.92981416868937
-0.0954056525119535 0.0856367119416041 1.90683810430835
-0.0559608186232939 0.0778879056903143 1.88645624953073
-0.0136195213261614 0.0842235158910492 1.88473479096887
-0.31543425033693 0.117516130165146 2.0790828411159
-0.27549169578034 0.145170354517142 2.06667394189062
-0.246075945147007 0.128849741460118 2.02902669018321
-0.219400400715057 0.113151518072764 1.99878462045015
-0.177505450622974 0.121053020187417 1.98329169189825
-0.137303049002743 0.123940595182055 1.96389913137583
-0.0955667754167239 0.122234938045975 1.93908673465791
-0.0518836891334093 0.116542409886968 1.91378725707589
0.00114522869163602 0.118872291183283 1.90911451821633
-0.301894711578315 0.152062804059414 2.10914227880271
-0.259181435385905 0.179571768606849 2.09187754965804
-0.228705060181499 0.1650591505561 2.05543009150643
-0.195596972094632 0.149281871355699 2.02139653838213
-0.149003344609375 0.159005587972444 2.00526447286272
-0.10550578342351 0.157141889113183 1.97931937106211
-0.064287599436041 0.154953181929172 1.95432602457474
-0.0257702469328365 0.149151815588178 1.93499463544407
0.0195870805258841 0.155996292871194 1.93630299492245
-0.286994076133725 0.185556459717981 2.13541986847476
-0.244349246903644 0.212277590845608 2.11647162588614
-0.209428884545161 0.201659674754884 2.0811670954737
-0.180729994269164 0.184277111327113 2.04797809798047
-0.141319186011278 0.195651912958076 2.03746708540715
-0.103903286998054 0.191418559728718 2.01253258213422
-0.062199712148829 0.189828231670156 1.98785264294343
-0.0182904872751568 0.18571364349182 1.96419670415175
0.0361494772203071 0.189329377980202 1.96071790409394
-0.272399901045309 0.218128560566816 2.16083436789501
-0.232484292884032 0.244539007783546 2.14344617109582
-0.196381530911643 0.235929027907869 2.10803394987904
-0.158367820012652 0.225124595139408 2.07623201683654
-0.111277306108678 0.227897799806303 2.05290953842761
-0.0700125463667034 0.225184843870556 2.0273563679095
-0.0296340887026383 0.223707645938338 2.00358640455361
0.00905866421752773 0.218678644122286 1.98549543782451
0.0547662762657518 0.225891964333269 1.98751947991471
-0.25727517518851 0.253197593429149 2.18934807566614
-0.222189888888808 0.277350672778014 2.17386134672697
-0.189186846977146 0.271497441744793 2.13950480555867
-0.152434811093682 0.262812659741298 2.11044114236952
-0.114240078270604 0.260183462015839 2.08667063566701
-0.0708408161007887 0.260212501375801 2.06266346068054
-0.0283991061314435 0.258678124788621 2.03763000631709
0.0161498849153599 0.255335892526819 2.0147651999934
0.070832685431103 0.258618701641547 2.01214388542401
-0.232337329751336 0.29082525250904 2.21614304844312
-0.18820694375555 0.302545422007691 2.18128504104474
-0.15032759741729 0.297635340395973 2.1503645253868
-0.11277419885944 0.294573549067151 2.12577374669612
-0.074382998726327 0.292297685840999 2.10191523813178
-0.0336123507203962 0.291358513181646 2.07872355199445
0.00610059723677668 0.290445174343243 2.05629254859029
0.0447284341773183 0.285865520840764 2.0394447532125
0.0902384014060064 0.288609127721809 2.04613015500491
-0.195121474624439 0.316029168477074 2.22446682661473
-0.149227638381127 0.321629422187962 2.19547360360924
-0.109334593380799 0.320153136353024 2.17211397878915
-0.0710847991707637 0.317948421593881 2.14775598723154
-0.0321951409597792 0.31573558911048 2.12309193495635
0.00957797479890045 0.314726893345351 2.09993129624181
0.0530810285663582 0.311932010472524 2.07925999962953
3 0 1 2
3 0 2 4
3 3 0 4
3 3 4 6
3 5 3 6
3 5 6 8
3 7 5 8
3 7 8 10
3 9 7 10
3 9 10 12
3 11 9 12
3 13 11 14
3 14 11 12
3 13 14 15
3 16 17 18
3 16 18 1
3 0 19 1
3 19 16 1
3 0 3 20
3 19 0 20
3 3 5 21
3 20 3 21
3 5 7 22
3 21 5 22
3 7 9 23
3 22 7 23
3 9 11 24
3 23 9 24
3 24 11 25
3 25 11 13
3 13 15 26
3 27 13 26
3 25 13 27
3 27 26 28
3 17 16 30
3 30 16 29
3 29 19 31
3 29 16 19
3 31 20 32
3 31 19 20
3 32 21 33
3 32 20 21
3 21 22 33
3 33 22 34
3 22 23 34
3 34 23 35
3 23 24 35
3 35 24 36
3 24 25 36
3 36 25 37
3 37 27 38
3 37 25 27
3 38 28 39
3 38 27 28
3 30 40 41
3 30 29 40
3 29 31 42
3 40 29 42
3 31 32 43
3 42 31 43
3 32 33 44
3 43 32 44
3 33 34 45
3 44 33 45
3 34 35 46
3 45 34 46
3 35 36 47
3 46 35 47
3 36 37 47
3 47 37 48
3 37 38 48
3 48 38 49
3 49 39 50
3 49 38 39
3 40 51 52
3 41 40 52
3 51 42 53
3 51 40 42
3 42 43 53
3 53 43 54
3 43 44 54
3 54 44 55
3 44 45 55
3 55 45 56
3 45 46 56
3 56 46 57
3 46 47 58
3 57 46 58
3 47 48 59
3 58 47 59
3 48 49 60
3 59 48 60
3 49 50 61
3 60 49 61
3 51 62 63
3 52 51 63
3 51 53 64
3 62 51 64
3 53 54 65
3 64 53 65
3 54 55 66
3 65 54 66
3 55 56 67
3 66 55 67
3 56 57 67
3 67 57 68
3 57 58 69
3 68 57 69
3 58 59 69
3 69 59 70
3 59 60 70
3 70 60 71
3 71 61 72
3 71 60 61
3 62 73 74
3 63 62 74
3 62 64 75
3 73 62 75
3 64 65 75
3 75 65 76
3 65 66 76
3 76 66 77
3 66 67 77
3 77 67 78
3 67 68 78
3 78 68 79
3 79 69 80
3 79 68 69
3 80 70 81
3 80 69 70
3 81 71 82
3 81 70 71
3 82 72 83
3 82 71 72
3 74 73 85
3 85 73 84
3 84 73 86
3 86 73 75
3 75 76 86
3 86 76 87
3 76 77 88
3 87 76 88
3 77 78 89
3 88 77 89
3 78 79 90
3 89 78 90
3 79 80 91
3 90 79 91
3 80 81 92
3 91 80 92
3 81 82 93
3 92 81 93
3 93 83 94
3 93 82 83
3 84 95 85
3 84 86 96
3 97 84 96
3 95 84 97
3 96 87 98
3 96 86 87
3 87 88 98
3 98 88 99
3 88 89 99
3 99 89 100
3 89 90 100
3 100 90 101
3 101 91 102
3 101 90 91
3 102 92 103
3 102 91 92
3 92 93 103
3 105 103 104
3 103 93 104
3 93 94 104
3 96 106 97
3 96 98 107
3 106 96 107
3 98 99 108
3 107 98 108
3 99 100 109
3 108 99 109
3 100 101 110
3 109 100 110
3 101 102 111
3 110 101 111
3 111 102 112
3 112 102 103
3 103 105 112
3 117 114 115
3 116 113 117
3 117 113 114
3 116 117 119
3 118 116 119
3 118 119 121
3 120 118 121
3 120 121 123
3 122 120 123
3 122 123 125
3 124 122 125
3 124 125 127
3 126 124 127
3 126 127 128
3 129 130 131
3 114 129 131
3 114 113 129
3 113 2 129
3 129 2 1
3 4 113 116
3 4 2 113
3 6 116 118
3 6 4 116
3 8 118 120
3 8 6 118
3 10 120 122
3 10 8 120
3 12 122 124
3 12 10 122
3 14 124 126
3 14 12 124
3 133 126 128
3 15 14 126
3 15 126 133
3 132 15 133
3 132 133 134
3 135 136 137
3 137 17 135
3 137 18 17
3 18 137 130
3 129 18 130
3 18 129 1
3 15 132 26
3 139 132 134
3 139 138 132
3 138 28 26
3 132 138 26
3 138 139 140
3 136 135 142
3 142 135 141
3 17 30 135
3 135 30 141
3 143 39 28
3 138 143 28
3 143 140 144
3 143 138 140
3 141 145 146
3 142 141 146
3 41 145 141
3 30 41 141
3 147 39 143
3 147 50 39
3 147 144 148
3 147 143 144
3 145 149 150
3 146 145 150
3 52 149 145
3 41 52 145
3 151 50 147
3 151 155 50
3 151 148 152
3 151 147 148
3 149 153 154
3 150 149 154
3 63 153 149
3 52 63 149
3 155 61 50
3 155 72 61
3 155 151 156
3 156 151 152
3 154 157 158
3 154 153 157
3 74 157 153
3 63 74 153
3 159 72 155
3 159 83 72
3 159 156 160
3 159 155 156
3 158 157 162
3 162 157 161
3 74 85 161
3 157 74 161
3 163 83 159
3 163 94 83
3 163 160 164
3 163 159 160
3 161 165 162
3 165 95 166
3 165 161 95
3 161 85 95
3 165 166 167
3 95 97 166
3 105 104 168
3 170 94 163
3 170 168 94
3 169 168 170
3 94 168 104
3 163 164 170
3 166 171 167
3 173 171 172
3 172 171 106
3 171 97 106
3 171 166 97
3 172 107 174
3 172 106 107
3 174 108 175
3 174 107 108
3 175 109 176
3 175 108 109
3 176 110 177
3 176 109 110
3 177 111 178
3 177 110 111
3 178 112 180
3 178 111 112
3 181 105 168
3 181 180 105
3 179 178 180
3 180 112 105
3 168 169 181
3 172 182 173
3 182 172 183
3 183 172 174
3 174 175 184
3 183 174 184
3 175 176 185
3 184 175 185
3 176 177 186
3 185 176 186
3 177 178 187
3 186 177 187
3 187 179 188
3 187 178 179
3 179 180 229
3 189 190 191
3 114 131 191
3 115 114 191
3 115 191 192
3 115 192 193
3 117 115 193
3 119 193 194
3 119 117 193
3 119 194 121
3 121 194 195
3 121 195 123
3 123 195 196
3 123 196 125
3 125 196 197
3 127 197 198
3 127 125 197
3 128 198 199
3 200 128 199
3 128 127 198
3 200 199 201
3 202 203 204
3 131 130 189
3 190 189 204
3 189 130 202
3 189 202 204
3 131 189 191
3 128 200 133
3 134 200 205
3 206 205 201
3 134 133 200
3 205 200 201
3 205 206 207
3 136 208 203
3 202 137 136
3 202 136 203
3 137 202 130
3 134 205 139
3 139 205 207
3 140 139 207
3 211 207 209
3 136 142 208
3 208 142 210
3 211 140 207
3 211 144 140
3 146 212 210
3 142 146 210
3 148 144 213
3 213 144 211
3 150 214 212
3 146 150 212
3 215 148 213
3 215 152 148
3 154 216 150
3 150 216 214
3 219 152 217
3 217 152 215
3 158 218 216
3 154 158 216
3 219 156 152
3 219 160 156
3 158 220 218
3 158 162 220
3 221 160 219
3 221 164 160
3 162 165 222
3 223 220 222
3 220 162 222
3 165 167 222
3 169 170 224
3 225 164 221
3 224 170 164
3 224 164 225
3 222 226 223
3 167 171 227
3 226 167 227
3 226 227 228
3 226 222 167
3 171 173 227
3 180 181 229
3 181 169 230
3 231 169 224
3 230 169 231
3 230 229 181
3 224 225 271
3 227 232 228
3 232 182 233
3 232 173 182
3 227 173 232
3 182 183 234
3 233 182 234
3 183 184 234
3 234 184 235
3 184 185 235
3 235 185 236
3 185 186 236
3 236 186 237
3 186 187 237
3 237 187 238
3 238 188 239
3 238 187 188
3 188 179 229
3 240 239 188
3 240 188 229
3 229 230 240
3 191 190 242
3 242 190 241
3 192 242 243
3 192 191 242
3 192 243 244
3 193 192 244
3 194 244 245
3 194 193 244
3 194 245 246
3 195 194 246
3 195 246 247
3 196 195 247
3 196 247 248
3 197 196 248
3 197 248 249
3 198 197 249
3 199 198 249
3 250 199 249
3 201 199 251
3 251 199 250
3 204 252 253
3 204 203 252
3 190 253 241
3 190 204 253
3 206 251 254
3 206 201 251
3 207 206 255
3 255 206 254
3 203 256 252
3 203 208 256
3 257 209 255
3 255 209 207
3 210 258 208
3 208 258 256
3 211 209 259
3 259 209 257
3 212 260 210
3 210 260 258
3 213 211 259
3 261 213 259
3 214 262 260
3 212 214 260
3 215 213 261
3 263 215 261
3 216 264 214
3 214 264 262
3 217 215 263
3 265 217 263
3 218 266 264
3 216 218 264
3 219 217 265
3 267 219 265
3 218 268 266
3 218 220 268
3 221 219 267
3 269 221 267
3 223 270 268
3 220 223 268
3 225 221 269
3 271 225 269
3 223 226 272
3 270 223 272
3 272 228 273
3 272 226 228
3 274 231 275
3 274 230 231
3 275 231 271
3 271 231 224
3 273 228 276
3 276 228 232
3 276 233 277
3 276 232 233
3 233 234 278
3 277 233 278
3 234 235 279
3 278 234 279
3 235 236 280
3 279 235 280
3 236 237 281
3 280 236 281
3 237 238 282
3 281 237 282
3 238 239 283
3 282 238 283
3 327 239 284
3 284 239 240
3 240 230 274
3 284 240 274
3 241 285 286
3 242 241 286
3 242 286 243
3 243 286 287
3 243 287 288
3 244 243 288
3 245 288 289
3 245 244 288
3 245 289 246
3 246 289 290
3 246 290 247
3 247 290 291
3 247 291 248
3 248 291 292
3 248 292 293
3 249 248 293
3 249 293 250
3 250 293 294
3 250 294 295
3 251 250 295
3 252 296 297
3 253 252 297
3 241 297 285
3 241 253 297
3 254 295 298
3 254 251 295
3 254 298 299
3 255 254 299
3 256 300 252
3 252 300 296
3 257 255 299
3 301 257 299
3 258 302 300
3 256 258 300
3 259 257 303
3 303 257 301
3 260 304 258
3 258 304 302
3 261 259 303
3 305 261 303
3 262 306 304
3 260 262 304
3 263 261 305
3 307 263 305
3 264 308 262
3 262 308 306
3 265 263 307
3 309 265 307
3 266 310 308
3 264 266 308
3 267 265 309
3 311 267 309
3 266 312 310
3 266 268 312
3 269 267 311
3 313 269 311
3 270 314 312
3 268 270 312
3 271 269 315
3 315 269 313
3 270 272 316
3 314 270 316
3 316 273 317
3 316 272 273
3 318 275 319
3 318 274 275
3 275 271 315
3 319 275 315
3 273 276 320
3 317 273 320
3 276 277 320
3 320 277 321
3 277 278 322
3 321 277 322
3 322 279 323
3 322 278 279
3 279 280 323
3 323 280 324
3 280 281 324
3 324 281 325
3 281 282 325
3 325 282 326
3 282 283 326
3 326 283 327
3 283 239 327
3 327 284 328
3 284 274 318
3 328 284 318
3 285 329 330
3 286 285 330
3 286 330 287
3 287 330 331
3 287 331 332
3 288 287 332
3 288 332 289
3 289 332 333
3 289 333 334
3 290 289 334
3 290 334 335
3 291 290 335
3 291 335 292
3 292 335 336
3 292 336 337
3 293 292 337
3 293 337 294
3 294 337 338
3 294 338 339
3 295 294 339
3 296 340 341
3 297 296 341
3 285 341 329
3 285 297 341
3 298 339 342
3 298 295 339
3 298 342 343
3 299 298 343
3 300 344 296
3 296 344 340
3 301 299 343
3 345 301 343
3 302 346 344
3 300 302 344
3 303 301 347
3 347 301 345
3 304 348 302
3 302 348 346
3 305 303 347
3 349 305 347
3 306 350 348
3 304 306 348
3 307 305 351
3 351 305 349
3 308 352 306
3 306 352 350
3 309 307 353
3 353 307 351
3 310 354 352
3 308 310 352
3 311 309 355
3 355 309 353
3 312 356 310
3 310 356 354
3 313 311 355
3 357 313 355
3 314 358 356
3 312 314 356
3 315 313 359
3 359 313 357
3 314 316 360
3 358 314 360
3 360 317 361
3 360 316 317
3 362 319 363
3 362 318 319
3 319 315 359
3 363 319 359
3 317 320 364
3 361 317 364
3 320 321 364
3 364 321 365
3 321 322 366
3 365 321 366
3 322 323 366
3 366 323 367
3 323 324 368
3 367 323 368
3 324 325 369
3 368 324 369
3 325 326 370
3 369 325 370
3 326 327 371
3 370 326 371
3 327 328 371
3 371 328 372
3 328 318 362
3 372 328 362
3 329 373 374
3 330 329 374
3 330 374 331
3 331 374 375
3 331 375 376
3 332 331 376
3 332 376 333
3 333 376 377
3 333 377 378
3 334 333 378
3 334 378 379
3 335 334 379
3 335 379 336
3 336 379 380
3 336 380 381
3 337 336 381
3 337 381 338
3 338 381 382
3 338 382 383
3 339 338 383
3 340 384 385
3 341 340 385
3 329 385 373
3 329 341 385
3 342 383 386
3 342 339 383
3 342 386 387
3 343 342 387
3 344 388 340
3 340 388 384
3 345 343 387
3 389 345 387
3 346 390 388
3 344 346 388
3 347 345 391
3 391 345 389
3 348 392 346
3 346 392 390
3 349 347 391
3 393 349 391
3 350 394 348
3 348 394 392
3 351 349 395
3 395 349 393
3 352 396 350
3 350 396 394
3 353 351 395
3 397 353 395
3 354 398 396
3 352 354 396
3 355 353 399
3 399 353 397
3 356 400 354
3 354 400 398
3 357 355 399
3 401 357 399
3 358 402 400
3 356 358 400
3 359 357 403
3 403 357 401
3 358 360 404
3 402 358 404
3 404 361 405
3 404 360 361
3 406 363 407
3 406 362 363
3 363 359 403
3 407 363 403
3 361 364 408
3 405 361 408
3 364 365 408
3 408 365 409
3 365 366 410
3 409 365 410
3 366 367 410
3 410 367 411
3 367 368 412
3 411 367 412
3 368 369 412
3 412 369 413
3 369 370 413
3 413 370 414
3 370 371 415
3 414 370 415
3 371 372 415
3 415 372 416
3 372 362 406
3 416 372 406
3 373 417 418
3 374 373 418
3 374 418 375
3 375 418 419
3 375 419 420
3 376 375 420
3 376 420 377
3 377 420 421
3 377 421 422
3 378 377 422
3 378 422 423
3 379 378 423
3 380 423 424
3 380 379 423
3 380 424 425
3 381 380 425
3 382 425 426
3 382 381 425
3 382 426 427
3 383 382 427
3 384 428 429
3 385 384 429
3 373 429 417
3 373 385 429
3 386 427 430
3 386 383 427
3 386 430 431
3 387 386 431
3 384 432 428
3 384 388 432
3 389 387 431
3 433 389 431
3 390 434 432
3 388 390 432
3 435 389 433
3 435 391 389
3 390 436 434
3 390 392 436
3 393 391 435
3 437 393 435
3 394 438 436
3 392 394 436
3 395 393 439
3 439 393 437
3 396 440 438
3 394 396 438
3 397 395 439
3 441 397 439
3 398 442 440
3 396 398 440
3 399 397 443
3 443 397 441
3 400 444 398
3 398 444 442
3 401 399 443
3 445 401 443
3 402 446 444
3 400 402 444
3 403 401 447
3 447 401 445
3 402 404 448
3 446 402 448
3 448 405 449
3 448 404 405
3 450 407 451
3 450 406 407
3 407 403 447
3 451 407 447
3 405 408 452
3 449 405 452
3 408 409 452
3 452 409 453
3 409 410 454
3 453 409 454
3 410 411 454
3 454 411 455
3 411 412 456
3 455 411 456
3 412 413 456
3 456 413 457
3 457 414 458
3 457 413 414
3 414 415 459
3 458 414 459
3 415 416 459
3 459 416 460
3 416 406 450
3 460 416 450
3 418 461 462
3 418 417 461
3 419 462 463
3 419 418 462
3 419 463 464
3 420 419 464
3 420 464 421
3 421 464 465
3 421 465 466
3 422 421 466
3 422 466 467
3 423 422 467
3 424 467 468
3 424 423 467
3 424 468 469
3 425 424 469
3 426 469 470
3 426 425 469
3 427 426 471
3 471 426 470
3 429 428 473
3 473 428 472
3 417 473 505
3 417 429 473
3 430 427 471
3 520 430 471
3 431 474 475
3 431 430 474
3 428 476 472
3 428 432 476
3 433 431 475
3 477 433 475
3 434 478 476
3 432 434 476
3 479 433 477
3 479 435 433
3 434 480 478
3 434 436 480
3 437 435 479
3 481 437 479
3 438 482 436
3 436 482 480
3 439 437 483
3 483 437 481
3 440 484 482
3 438 440 482
3 441 439 483
3 485 441 483
3 442 486 440
3 440 486 484
3 443 441 487
3 487 441 485
3 444 488 442
3 442 488 486
3 445 443 487
3 489 445 487
3 444 446 488
3 488 446 490
3 491 445 489
3 491 447 445
3 490 446 492
3 492 446 448
3 492 449 493
3 492 448 449
3 494 451 495
3 494 450 451
3 451 447 491
3 495 451 491
3 449 452 496
3 493 449 496
3 496 453 497
3 496 452 453
3 453 454 498
3 497 453 498
3 498 455 499
3 498 454 455
3 455 456 500
3 499 455 500
3 456 457 501
3 500 456 501
3 457 458 502
3 501 457 502
3 458 459 503
3 502 458 503
3 503 460 504
3 503 459 460
3 504 460 494
3 494 460 450
3 461 505 506
3 462 461 506
3 507 463 462
3 507 462 506
3 465 463 508
3 508 463 507
3 464 463 465
3 465 508 509
3 465 509 466
3 466 509 510
3 466 510 467
3 467 510 511
3 467 511 468
3 468 511 512
3 468 512 513
3 469 468 513
3 469 513 470
3 515 470 514
3 470 513 514
3 470 515 471
3 472 516 473
3 518 516 517
3 518 505 516
3 461 417 505
3 505 473 516
3 505 518 506
3 515 514 519
3 474 430 520
3 521 520 519
3 520 471 515
3 520 515 519
3 474 520 524
3 476 522 472
3 516 472 523
3 472 522 523
3 516 523 517
3 520 521 524
3 477 475 524
3 524 475 474
3 525 477 524
3 478 526 522
3 476 478 522
3 527 477 525
3 527 479 477
3 478 528 526
3 478 480 528
3 481 479 527
3 529 481 527
3 482 530 480
3 480 530 528
3 483 481 531
3 531 481 529
3 484 532 530
3 482 484 530
3 485 483 531
3 533 485 531
3 486 534 484
3 484 534 532
3 535 485 533
3 535 487 485
3 486 536 534
3 486 488 536
3 537 489 535
3 535 489 487
3 490 538 539
3 536 490 539
3 488 490 536
3 538 540 539
3 541 542 543
3 541 489 537
3 542 541 537
3 541 491 489
3 490 492 538
3 545 493 544
3 538 492 493
3 538 493 545
3 540 538 545
3 544 546 545
3 547 548 549
3 543 495 541
3 547 494 495
3 547 495 543
3 608 547 543
3 495 491 541
3 493 496 544
3 544 497 550
3 546 544 550
3 544 496 497
3 550 497 551
3 551 497 498
3 498 499 551
3 551 499 552
3 499 500 552
3 552 500 553
3 500 501 553
3 553 501 554
3 554 502 555
3 554 501 502
3 502 503 556
3 555 502 556
3 503 504 556
3 549 504 547
3 556 504 549
3 504 494 547
3 506 557 507
3 507 557 558
3 508 507 558
3 508 558 559
3 509 508 559
3 509 559 560
3 510 509 560
3 510 560 561
3 511 510 561
3 511 561 562
3 512 511 562
3 514 512 563
3 563 512 562
3 513 512 514
3 517 564 518
3 518 564 557
3 566 564 565
3 557 564 566
3 557 506 518
3 558 566 567
3 558 557 566
3 559 567 568
3 559 558 567
3 560 568 569
3 560 559 568
3 561 569 570
3 561 560 569
3 562 570 571
3 562 561 570
3 563 562 571
3 572 563 571
3 574 514 563
3 572 574 563
3 573 519 574
3 574 519 514
3 519 573 521
3 522 575 523
3 577 575 576
3 577 517 575
3 564 517 577
3 575 517 523
3 564 577 565
3 573 574 572
3 521 573 579
3 580 573 578
3 579 573 580
3 579 524 521
3 524 579 525
3 522 581 575
3 522 526 581
3 576 581 582
3 576 575 581
3 583 580 584
3 583 579 580
3 583 525 579
3 583 527 525
3 526 585 581
3 526 528 585
3 582 585 586
3 582 581 585
3 587 584 588
3 587 583 584
3 587 527 583
3 587 529 527
3 528 589 585
3 528 530 589
3 586 589 590
3 586 585 589
3 591 588 592
3 591 587 588
3 591 529 587
3 591 531 529
3 532 593 589
3 530 532 589
3 590 593 594
3 590 589 593
3 595 592 596
3 595 591 592
3 595 531 591
3 595 533 531
3 534 597 593
3 532 534 593
3 594 597 598
3 594 593 597
3 599 596 600
3 599 595 596
3 599 533 595
3 599 535 533
3 534 601 597
3 534 536 601
3 602 597 601
3 602 598 597
3 603 599 600
3 604 603 600
3 603 535 599
3 603 537 535
3 536 539 601
3 606 540 605
3 606 602 540
3 602 601 539
3 540 602 539
3 605 607 606
3 608 609 610
3 608 543 609
3 604 542 603
3 609 543 542
3 609 542 604
3 542 537 603
3 540 545 605
3 605 546 607
3 612 607 611
3 605 545 546
3 607 546 611
3 612 613 614
3 612 611 613
3 614 615 616
3 614 613 615
3 616 617 618
3 616 615 617
3 618 619 620
3 618 617 619
3 620 621 622
3 620 619 621
3 622 623 624
3 622 621 623
3 610 548 608
3 624 623 548
3 624 548 610
3 548 623 549
3 548 547 608
3 546 550 611
3 611 550 613
3 613 550 551
3 551 552 615
3 613 551 615
3 552 553 617
3 615 552 617
3 553 554 619
3 617 553 619
3 554 555 621
3 619 554 621
3 621 555 623
3 623 555 556
3 556 549 623
3 565 625 626
3 567 566 626
3 626 566 565
3 567 626 627
3 568 567 627
3 568 627 628
3 569 568 628
3 569 628 629
3 570 569 629
3 570 629 630
3 571 570 630
3 572 571 631
3 631 571 630
3 572 631 578
3 576 632 577
3 625 632 633
3 565 577 632
3 565 632 625
3 625 633 634
3 626 625 634
3 626 634 627
3 627 634 635
3 627 635 628
3 628 635 636
3 628 636 629
3 629 636 637
3 629 637 630
3 630 637 638
3 631 638 639
3 631 630 638
3 640 578 639
3 578 573 572
3 578 631 639
3 578 640 580
3 576 641 632
3 576 582 641
3 633 641 642
3 633 632 641
3 633 642 643
3 634 633 643
3 634 643 644
3 635 634 644
3 635 644 645
3 636 635 645
3 636 645 646
3 637 636 646
3 637 646 647
3 638 637 647
3 638 647 648
3 639 638 648
3 640 648 649
3 640 639 648
3 584 580 640
3 649 584 640
3 582 650 641
3 582 586 650
3 642 650 651
3 642 641 650
3 642 651 652
3 643 642 652
3 643 652 653
3 644 643 653
3 644 653 645
3 645 653 654
3 645 654 646
3 646 654 655
3 646 655 647
3 647 655 656
3 647 656 648
3 648 656 657
3 648 657 649
3 649 657 658
3 588 584 649
3 658 588 649
3 586 659 650
3 586 590 659
3 650 659 651
3 651 659 660
3 651 660 661
3 652 651 661
3 652 661 662
3 653 652 662
3 653 662 654
3 654 662 663
3 654 663 664
3 655 654 664
3 655 664 665
3 656 655 665
3 656 665 666
3 657 656 666
3 657 666 658
3 658 666 667
3 592 588 658
3 667 592 658
3 590 668 659
3 590 594 668
3 660 668 669
3 660 659 668
3 660 669 670
3 661 660 670
3 661 670 671
3 662 661 671
3 662 671 663
3 663 671 672
3 663 672 664
3 664 672 673
3 664 673 665
3 665 673 674
3 665 674 666
3 666 674 675
3 666 675 667
3 667 675 676
3 596 592 667
3 676 596 667
3 594 677 668
3 594 598 677
3 668 677 669
3 669 677 678
3 669 678 679
3 670 669 679
3 670 679 680
3 671 670 680
3 671 680 681
3 672 671 681
3 672 681 682
3 673 672 682
3 673 682 683
3 674 673 683
3 674 683 684
3 675 674 684
3 676 684 685
3 676 675 684
3 600 596 676
3 685 600 676
3 598 686 677
3 598 602 606
3 678 686 687
3 678 677 686
3 678 687 679
3 679 687 688
3 679 688 680
3 680 688 689
3 680 689 681
3 681 689 690
3 681 690 682
3 682 690 691
3 683 691 692
3 683 682 691
3 684 692 693
3 684 683 692
3 685 693 694
3 685 684 693
3 694 604 685
3 685 604 600
3 598 606 686
3 606 607 695
3 686 606 695
3 686 695 687
3 688 687 696
3 696 687 695
3 688 696 697
3 689 688 697
3 689 697 698
3 690 689 698
3 690 698 699
3 691 690 699
3 691 699 700
3 692 691 700
3 692 700 701
3 693 692 701
3 610 609 694
3 701 610 694
3 701 694 693
3 609 604 694
3 607 612 695
3 695 612 696
3 696 612 614
3 614 616 697
3 696 614 697
3 616 618 698
3 697 616 698
3 618 620 699
3 698 618 699
3 620 622 700
3 699 620 700
3 622 624 701
3 700 622 701
3 624 610 701
