OFF
702 1400 0
-0.256462523491758 -0.331616753150287 2.16760928520731
-0.301903435309522 -0.318011119844248 2.14977721271105
-0.273648822157004 -0.337192543807237 2.12227968456116
-0.209567353579964 -0.338018951058332 2.17236929811592
-0.22766783320165 -0.347734249070709 2.12756075508007
-0.162740698732676 -0.342467136035082 2.17557613101235
-0.181259799582906 -0.351756226713304 2.12974805741034
-0.117350345156533 -0.34627691224399 2.17998485695878
-0.135916717516812 -0.355573017540175 2.13163592433662
-0.0724468564071551 -0.349895072677632 2.18474991847055
-0.0911478009598757 -0.358993282443541 2.1363214642531
-0.0249454256208516 -0.352742883562903 2.19242671704911
-0.0453601845575624 -0.362069925199556 2.1448612102415
0.0231231914301237 -0.348104816695598 2.20086451957945
0.00194792924668781 -0.363450049410315 2.15393314837219
0.0484094712655796 -0.354371194284892 2.16280909298886
-0.324692910248047 -0.289665435797903 2.17809067616876
-0.354443971332431 -0.272329100083761 2.15066799777368
-0.333071529733036 -0.30211452336653 2.12212424873914
-0.284217068934581 -0.305527292709233 2.19780716579779
-0.237505050191205 -0.314367922092243 2.20984520629576
-0.189790108117718 -0.319447085009585 2.21373127011187
-0.143012601628736 -0.323158696712447 2.21915308071723
-0.0977894009509981 -0.326330416430495 2.22502350595661
-0.0534718872124169 -0.331482402827586 2.22763937315409
-0.00483345279170318 -0.332057680033768 2.23497187765378
0.0689984052098307 -0.331735052307369 2.20666564951594
0.0402872018490517 -0.319724059694264 2.24284072026949
0.0862960798580784 -0.299331187837408 2.24068491095966
-0.31191789711345 -0.268925520755934 2.21975454051741
-0.352084187545667 -0.248538905206196 2.19176626725266
-0.265924204815952 -0.282228251436162 2.2373295532142
-0.215966717024482 -0.288362521204618 2.24545462625836
-0.16835802918669 -0.29247168467444 2.25073922112855
-0.120738155650616 -0.294687122599167 2.25799732440763
-0.0760326976349111 -0.297212404165948 2.26434662567742
-0.0337455716501369 -0.306343822934088 2.2633376894908
0.0075373787403744 -0.297921079982259 2.27408058310574
0.0531314044840391 -0.284288455445908 2.27561736634905
0.0978550138965992 -0.261739242895352 2.26924166682174
-0.330373570433241 -0.231844651732342 2.24051952459562
-0.36356757481196 -0.210412714510635 2.21406357303023
-0.289381372985287 -0.246644091502771 2.26169615125969
-0.240346612452219 -0.257056149146807 2.27294986287328
-0.191587163469925 -0.258998349850633 2.28090326481014
-0.144123680418821 -0.263531150969894 2.28571871075737
-0.092638613959979 -0.264136486325407 2.29542740139185
-0.0377484818738034 -0.273247031414016 2.29697020784459
0.012640807006947 -0.265724101951907 2.30639141012458
0.06304997283956 -0.249945644274983 2.3052038620634
0.107698587188548 -0.223601902091564 2.29746363638911
-0.314643213874311 -0.207801283352747 2.283176523019
-0.355132988468609 -0.190028712443686 2.25209015072203
-0.265362148005342 -0.224817811878066 2.29809503640892
-0.217963488773562 -0.226904124036411 2.30900101300928
-0.172430167812346 -0.227731735071267 2.31728365173241
-0.128452625520157 -0.235343360283319 2.31819526709534
-0.095025337714215 -0.22330898132711 2.33742899086576
-0.0600817422560285 -0.24235368709658 2.32463047499052
-0.0178009030265553 -0.238683519540432 2.33555646959793
0.0300709612755328 -0.23191982263504 2.33699700471185
0.0780435095590029 -0.212863326774891 2.33296185369581
-0.318066953348097 -0.167451869725202 2.32351143734801
-0.346034725332401 -0.169652165555493 2.28859354735601
-0.285050008055273 -0.193618376874378 2.32084821708998
-0.237997341027327 -0.195811926859789 2.33732285766326
-0.193276746144939 -0.194393439777153 2.34778698064427
-0.144352579269464 -0.199134865642712 2.35267760957132
-0.0989729771353603 -0.193177844614226 2.36798896341795
-0.0514930424318641 -0.206294314271607 2.36387546912735
-0.00347983027589475 -0.205889886201826 2.36934931908896
0.0442630592726666 -0.198332004401593 2.36600217429861
0.0916417074318503 -0.175913047965983 2.35907752340874
-0.307632770149014 -0.143080656522334 2.35890722185674
-0.351738273620217 -0.130433084450537 2.32372025526056
-0.268848798616749 -0.167341405638972 2.35708972949527
-0.222943340619072 -0.1609522796384 2.37662418858613
-0.172895771495627 -0.165234000458196 2.38221976904353
-0.127113558796128 -0.164813160095995 2.39185199141053
-0.0755761758442935 -0.168608445023901 2.39825183107977
-0.0306081012139199 -0.174926819554208 2.40034282948531
0.0157517975289464 -0.171817762759188 2.40166842195531
0.0596695925888476 -0.164313410262435 2.39277458438759
0.0959521988297358 -0.138449129695273 2.39187077516447
-0.303080806814496 -0.103443792973763 2.39487838709826
-0.336840855162827 -0.112191503662434 2.36162959332728
-0.269514156779723 -0.133485104657909 2.39035477319575
-0.235012168365491 -0.121530410619381 2.40827976937174
-0.192242450677694 -0.129928129829185 2.40998678020343
-0.147132464674017 -0.12999592442099 2.41783410813345
-0.099920238879372 -0.133228157488674 2.42385057178843
-0.0513035434795543 -0.137234854466447 2.42958580994648
-0.00300759820848216 -0.140182480025419 2.43138995931328
0.048565572571219 -0.134254214579805 2.42390186218957
0.0958163162637748 -0.102869889631235 2.41636895816635
-0.344406461623736 -0.0730225151499894 2.37871516606543
-0.265993140112625 -0.0840292995330933 2.42093506825787
-0.309604877647322 -0.0596330702305044 2.41006181897257
-0.216539592088425 -0.0845248110339772 2.43030688863443
-0.170492920732965 -0.0891841454243824 2.43551258187555
-0.123821928601265 -0.090097908082045 2.44225332591818
-0.0780111044327171 -0.0946265535130723 2.44748370721962
-0.0313303082698895 -0.0990586180051138 2.45259878521931
0.0153458470317967 -0.100605395709399 2.4506581180695
0.0596839037158626 -0.0941908015669054 2.4405954931402
0.0412739082512991 -0.0554364841263695 2.45729769394467
-0.282845180086559 -0.0326170194469756 2.42817846415092
-0.240387511076245 -0.0416747296642848 2.43821297145471
-0.191357841373629 -0.0434619990336545 2.444559766083
-0.145605822499905 -0.0445277417877966 2.45052733731093
-0.0993224403758471 -0.0459104518491544 2.45649947169025
-0.0547391909707771 -0.052569849346378 2.46157061470335
-0.00701882318366781 -0.0568556103906072 2.46464571056117
-0.251573132528633 -0.344743727956486 2.08305751437164
-0.275319442801898 -0.330714420706971 2.04758473800011
-0.251709849742114 -0.323742730738239 2.0101184572195
-0.201941146617038 -0.351132577907409 2.08380526083655
-0.223492563667895 -0.3420391073674 2.04270951356706
-0.155876288705115 -0.353923692626499 2.08327476278824
-0.175325330020898 -0.342399812474396 2.03729186365023
-0.110459159941761 -0.356933333950096 2.08593847748696
-0.130011179862765 -0.344027222877274 2.03810927959504
-0.0651372393956906 -0.360586844277692 2.09376501090233
-0.0824393669368314 -0.347717016888509 2.04438318659902
-0.0202365388119834 -0.364466062157629 2.1042767265916
-0.0367297775952015 -0.35246814243918 2.05372509974469
0.0257963346217742 -0.363095686286867 2.11294904452884
0.00746979031246438 -0.356702068982488 2.06515221083199
0.0553543921082364 -0.34980119023998 2.07431283201407
-0.30319154750072 -0.324574406256762 2.09080179922839
-0.341676995622228 -0.294057994237769 2.07482813413945
-0.312015213361175 -0.309553611888258 2.04243446128922
0.0930927231421499 -0.334138630669877 2.16723481827399
0.0689207981880623 -0.351387198219936 2.12239050306587
0.108554796007008 -0.32992425555481 2.12460065035539
-0.379755215088679 -0.236647970783965 2.14110842558644
-0.389976411143375 -0.223991025563594 2.09154789631263
-0.367169700499189 -0.266521637793661 2.10440139707811
0.114060227263664 -0.305997694925041 2.201009170915
0.13474763818869 -0.304200944400186 2.15672996181218
0.151765348748735 -0.273030639946919 2.18420208809657
-0.381998783357544 -0.208158768230486 2.1727084172366
-0.397768675609638 -0.191884272224002 2.12643302507086
0.127880369512143 -0.270352261610919 2.22944769855059
0.158958434431502 -0.233871392199759 2.21502725927593
-0.385827135639492 -0.169750075220053 2.20673133164785
-0.398416535662611 -0.162203131388553 2.16298590157953
0.135657252978929 -0.230149813062863 2.25768778361216
0.16531854325296 -0.192128632029497 2.2394954790548
-0.38039363952041 -0.150868044208609 2.24463328825707
-0.400779792788451 -0.122282958629392 2.20250106017261
0.144244857182493 -0.189254205806884 2.28338169921893
0.169670598672808 -0.150375775060922 2.26596979867938
-0.372608915357157 -0.133017154183608 2.28365154408709
-0.396349693140393 -0.104732146494147 2.24788932280186
0.120947821866922 -0.182688165123223 2.32258983143975
0.15348855011011 -0.144374934283887 2.30868638790749
-0.386411308642509 -0.0931326470687706 2.29599769995857
-0.404616894153565 -0.0586885344042835 2.26487024969429
0.128286574610313 -0.142964836098271 2.35134213710985
0.158521323405417 -0.104602052112383 2.33464313920132
-0.371000113235567 -0.0857524460921161 2.33756711792026
-0.395206714418972 -0.0477597509618348 2.31231407753133
0.131670304486112 -0.105866016375322 2.37985867586005
0.155385872199658 -0.0677733629327383 2.36640758643475
-0.373913748803814 -0.0407251908109679 2.35527872043448
-0.341927310022119 -0.0295603997132224 2.39293245522678
-0.361654501762173 0.00395758668287744 2.37340222750148
0.0885224681248459 -0.0560948479246374 2.43667419489662
0.111866303941004 -0.0166223613822518 2.42274287842798
0.125361142906466 -0.064017018430545 2.40629671873731
-0.316507072641556 -0.00207227374393439 2.41234082074818
-0.264100719555835 0.00849843767399125 2.43438563388809
-0.2960048634136 0.0367656420347451 2.41704963840671
-0.214535046117007 -0.000156997627007095 2.44325508242257
-0.167299860857098 0.00273382501979134 2.44855201388209
-0.120708826823965 0.00133957803997431 2.45408634898964
-0.0739040657942881 -0.000120358101134452 2.45963120574331
-0.0309652755022574 -0.0108624061339164 2.46561583867428
-0.00548961858425796 0.0255967733583951 2.45992198476468
0.0197189719640128 -0.0145149041924811 2.4639211877633
0.0684737369277093 -0.0141317074105191 2.449143784488
-0.262513737049593 0.0660481548370093 2.41946189002197
-0.230948278186425 0.042337008970176 2.43406958502972
-0.186836493190636 0.0476237151948695 2.43687807889282
-0.1407597569409 0.047621192073441 2.44139379901326
-0.0940938716308602 0.045592069931662 2.44663976141914
-0.0457068315515356 0.0438446494915695 2.45193433875519
0.0101820870238418 0.0627318186168718 2.44439080351586
-0.33966847770391 -0.278123581808149 2.0254283245923
-0.323287196791918 -0.265154358425403 1.98629684669367
-0.292723324544848 -0.300842513488269 2.00068056632642
-0.243864589402736 -0.301835084533844 1.97388134941562
-0.201984636012054 -0.325084079688391 2.00038769175661
-0.151437163764591 -0.320842507848228 1.99374413723236
-0.101482256382166 -0.325966251108781 2.00202984501222
-0.0494483461570601 -0.330016213701865 2.00872841692571
-0.00416814513281961 -0.335519974416117 2.01766544121821
0.0398932260049266 -0.338673728570082 2.03387916063104
0.0823287753844286 -0.320656162795273 2.03269705174845
0.0949260396505952 -0.33328484830349 2.08096419351532
0.121586119978033 -0.307427158279632 2.062635509641
-0.369604042896725 -0.255347938450591 2.05823187499825
-0.387181552503829 -0.209211688901142 2.0442081067271
-0.363700244226796 -0.236665154806077 2.01468652431007
0.138128014139737 -0.303699303076743 2.1071730582728
0.15413935746344 -0.275671980025491 2.07525951820669
0.164026415823315 -0.271175254024458 2.13036390639184
-0.401442620363202 -0.175414746641785 2.07992095891546
0.18384480049053 -0.229059858545063 2.12679185840833
-0.404483803733954 -0.143706555555401 2.11179871480785
0.175776724986159 -0.235886401094043 2.16944133417865
-0.405558358606712 -0.120575361684735 2.15403470202188
0.181391737763428 -0.193345451465488 2.19226214402869
-0.407617744383491 -0.0804176721309612 2.16864974242295
0.183960212950751 -0.152567003316579 2.21532988149423
-0.407652571943653 -0.0715508289585743 2.21569343462709
0.184571796143882 -0.114599766501049 2.24173136858475
-0.410782080739813 -0.0234632321948085 2.23301918514994
0.176676342319738 -0.100944879545488 2.28684728474681
-0.407048325858826 -0.0113351871465001 2.28313272111374
0.176836561500397 -0.061258532959716 2.3187383647299
-0.390325261824576 -0.00180474625428158 2.33097784102901
-0.396631681241925 0.034824154767465 2.30113040760381
0.145163146634526 -0.0226694812027917 2.3890596116844
0.169556001400995 -0.0273591773552 2.34817011694138
-0.372990114140387 0.0417515526658531 2.34718601739611
-0.338285165848054 0.0383709823117833 2.38859634429784
-0.345117936751624 0.079209953298165 2.35987102495144
0.0444156034224428 0.0269562990743212 2.45087434085648
0.0909314611007197 0.0261993233445418 2.42936072486105
0.129889443918057 0.0232954184787963 2.39747239383958
-0.308416704218544 0.0763239281782483 2.39344259996007
-0.267852498646013 0.103030065715767 2.39611232973977
-0.215443494978878 0.0876566566221973 2.41623995069854
-0.166405587775312 0.0897044191034677 2.41885305668848
-0.119073533866822 0.0886118389604313 2.42315092074344
-0.0717298953897758 0.08545630715553 2.4287575629456
-0.0257468860939685 0.08603266747003 2.43177041440054
0.0279448157853796 0.0967135101951539 2.41894128290303
0.0615953455496188 0.0649915537543045 2.42825984648069
-0.311851259993952 -0.234321767504453 1.95016672195469
-0.280533274663449 -0.273385389904746 1.96068014008609
-0.232017477879713 -0.271147413225536 1.94047962029519
-0.194846157479257 -0.298872458271933 1.96459223296702
-0.151139523076439 -0.287267030100542 1.95507424919224
-0.110948537254561 -0.294842114058257 1.96448773822124
-0.0639828365637435 -0.303480884842618 1.97535231607571
-0.00782147356784144 -0.304653203751735 1.97929845897959
0.0396661355144843 -0.313843731006796 1.99698864819334
0.084984626148443 -0.29028726627818 1.99555251548734
0.122929322401644 -0.285064454421353 2.02769027814376
-0.375253860720829 -0.184721079303637 1.99954588072713
-0.347504151636123 -0.222981735619721 1.9794793056587
0.155770331185006 -0.248753673142087 2.03697101200377
0.175922625173241 -0.239713273387122 2.08497966052966
-0.39433009056316 -0.161688955555509 2.03862495609558
0.192563742833973 -0.191610017649601 2.09783548428593
-0.399585432609516 -0.120095769860522 2.06662133157024
0.191478800379222 -0.187690119871065 2.1474722316338
-0.403525360161497 -0.0951636168916321 2.11355952876849
0.192242657040044 -0.144674415051933 2.16823217544189
-0.402569779565023 -0.0510943996524973 2.13236861494123
0.192023632868151 -0.104796320416654 2.19402699557446
-0.40752404356187 -0.0340057908691816 2.18286663940853
0.188982099885417 -0.072487520403138 2.23813821920067
-0.406280518916399 0.0118039833484295 2.20032463578806
0.185890819615559 -0.0498306613550724 2.27682865904528
-0.407786138612378 0.0237775503616377 2.25134119200573
0.181077977120409 -0.00520066695591427 2.31087240734138
-0.3926366880573 0.0692890611172356 2.26904863077091
0.159800017614753 0.0159536652403162 2.35779336554352
-0.373972570499767 0.077767550843472 2.31644436002746
-0.341013059186639 0.11496854300568 2.32770045176248
0.103972162893665 0.0649782792570943 2.40066598126436
0.139303471203899 0.0595381111459838 2.36468991006405
-0.30717421914428 0.113979521132257 2.36477491042773
-0.263526620915609 0.140123068880452 2.36295035267135
-0.228032891936354 0.122353942184402 2.38982313251652
-0.183115510453597 0.12601787985653 2.38901593522509
-0.139001271694772 0.126352512178979 2.39095060985874
-0.0923014804747083 0.122495539026125 2.39708820002921
-0.0490040739919845 0.122243473585991 2.39955115940436
-0.00640471433184034 0.120302796190889 2.40306594542827
0.0712248297349369 0.101880050619091 2.39573572342747
-0.308245435604393 -0.200680705084199 1.9203628454332
-0.269901075168083 -0.239727466639088 1.92611964348471
-0.22293040155583 -0.237735189429754 1.90783248804893
-0.183408016079847 -0.263209199003852 1.9300619880547
-0.129526082631355 -0.254488763034613 1.92435492678302
-0.0836982018161116 -0.266510021278158 1.93837472008484
-0.0381004568220148 -0.277850349365215 1.95172180198806
0.00536515297742494 -0.26646424704687 1.94289336176574
0.0429018214820892 -0.28268129773674 1.96553099082652
0.0895939483802897 -0.256885657132712 1.9621053816033
0.126206086276134 -0.254480990868686 1.99486738831618
-0.37005548768654 -0.148132156144792 1.96824384137068
-0.345795155953743 -0.189530660235211 1.95364623494736
0.161911538185306 -0.21598069063906 2.00506374291919
0.181939938309326 -0.206472660239863 2.05120488217041
-0.38929422462638 -0.129985068205226 2.01198409315634
0.19905373389935 -0.158411926526084 2.06828853580177
-0.392661484298456 -0.083965901748333 2.03229315334912
0.198133870262777 -0.145819425988307 2.11980922804378
-0.397104566237409 -0.0669687316946965 2.0785291128401
0.198664574902678 -0.0990680700338189 2.14368186646105
-0.396230495270498 -0.0207362643884901 2.09930499115427
0.196037322629305 -0.0605446356548895 2.18816747518055
-0.400920042298115 -0.00246572712975742 2.14830094338456
0.19418221309183 -0.0284341978099297 2.22254153762608
-0.399820680117933 0.0445750007179879 2.16773360437968
0.190511463842368 -0.00795362466985406 2.26435285496722
-0.401313023223738 0.0580057499932462 2.21916269252014
0.187038776397951 0.0354435178724321 2.27853513708534
-0.386071930182945 0.103144103451719 2.23666542347791
0.168775104588265 0.0450903386796001 2.32314396395113
-0.367593954292518 0.111717369984311 2.28400548733458
-0.333677542612478 0.14947292673675 2.29547308983307
0.111033661498194 0.100725418957751 2.36656055151073
0.147090870600167 0.0921866880333898 2.33123137638622
-0.300561453717432 0.148247550882196 2.3320564216566
-0.251836582870197 0.173076808497403 2.33335534436328
-0.211752244368703 0.155326216264884 2.35909154614778
-0.160748228738018 0.161626884378325 2.3555870119606
-0.108122443188166 0.155191272207757 2.36453190012374
-0.0597380815272257 0.156522668237428 2.36571821554365
-0.0136739282023857 0.154362280997157 2.37017558230416
0.0340194188360155 0.133893337097443 2.38390645896608
0.0754462019141306 0.138243939523401 2.36241443225081
-0.302418896251219 -0.167750623547651 1.88918622959437
-0.264685753482272 -0.205849979846516 1.89424769661395
-0.216676954216922 -0.205738105816061 1.87706544570493
-0.171994602953589 -0.231617762544658 1.8999718729294
-0.124662898588944 -0.217435687223343 1.88862750906366
-0.0827251537570392 -0.231437774093803 1.90437185273642
-0.0381994904096153 -0.244545383437165 1.91937928005671
0.0082518431421668 -0.230869443060931 1.90848032459819
0.0512668519889899 -0.247422696928979 1.93216369001123
0.0968715372519064 -0.222541908002992 1.92957006041339
0.132593581913134 -0.222176792928382 1.96401550586273
-0.36328106610054 -0.11367283669707 1.93486494019981
-0.340153834120466 -0.15748819361203 1.92359447209265
0.168537407787119 -0.182952330993807 1.97388060274436
0.188808209820701 -0.172496765774413 2.01996566099384
-0.382618915688727 -0.0985447283643239 1.97960340179134
0.205452372134524 -0.125461846308271 2.03795007026089
-0.386055430196367 -0.0528794162416099 1.99750430586834
0.204363160475777 -0.111614218215221 2.08995457658639
-0.390499792699247 -0.0307757791869212 2.04682706615097
0.205874447370007 -0.0655802661920887 2.10544244690659
-0.390456625899938 0.0149476523830737 2.07401786479852
0.201732956079435 -0.0486766794735228 2.14917552101461
-0.394497862662696 0.0321098551508056 2.11710210243349
0.201323927913883 -0.00495593707109339 2.17883145673986
-0.393162161327768 0.0772724137269682 2.1334903327772
0.197356139347298 0.0203535009542829 2.226220076795
-0.395050423140814 0.0906095463624672 2.18614954379852
0.194483291457936 0.0662894915185625 2.24360346360204
-0.379620129599722 0.136263717851758 2.20513354479574
0.174623513308796 0.0817200743712808 2.2905422007995
-0.360585125008817 0.145712301317409 2.25239565165437
-0.325069457651634 0.18345020632055 2.26558383652371
0.116770244892765 0.13520520255372 2.33427903682922
0.152813486254498 0.127210315119977 2.29902712204347
-0.290464027843863 0.181954646155486 2.30248873962088
-0.241987179966053 0.206096091738516 2.30284716394105
-0.200765075173023 0.187462568613353 2.32845112766499
-0.155793235611083 0.200942205737016 2.31766810566605
-0.118760445035074 0.185266307858134 2.33478541891447
-0.071055153619306 0.188292393105802 2.33429132781912
-0.0206811412546254 0.188719812962902 2.33645719474687
0.0292734753859088 0.16882371075516 2.35319312684629
0.0770617711462107 0.171958137433121 2.33271837784352
-0.295881399360138 -0.134791011875762 1.85735116075767
-0.258786167848491 -0.172334526588233 1.86233465753521
-0.212440472226157 -0.172741864269609 1.84578201957942
-0.168355015037573 -0.198769081072524 1.86826458540202
-0.118525719844944 -0.182415529376512 1.85493848557755
-0.0765971529746123 -0.19563119801467 1.86991837969088
-0.0347628090296896 -0.210223861526048 1.88623117783656
0.0116289386632006 -0.195583605837658 1.87439255674381
0.0549745658263267 -0.214005984398048 1.89914977569128
0.100393559267002 -0.190311646629947 1.89666738096703
0.139115511417021 -0.189397178282066 1.93276222025649
-0.357973911167401 -0.0784408602315127 1.9041803594817
-0.333669946400255 -0.125073253508527 1.89212775897993
0.174806179940163 -0.150092828200229 1.94213959361024
0.195302870505606 -0.139126178569009 1.98814141667988
-0.376360794079514 -0.0632067724354007 1.94764235261129
0.211663962224957 -0.0930401062986858 2.00526891169361
-0.37883842655463 -0.0146209554126269 1.96208728990945
0.2111322421474 -0.0779500726022308 2.05539125823484
-0.383629622684198 -0.00623269413859787 2.00595787836512
0.212047188918964 -0.0288447721441763 2.07756404128816
-0.384932620702748 0.0253418039545273 2.03553149713812
0.207404654573358 -0.0124235345008978 2.12507279086245
-0.387254123326109 0.0659316347448127 2.07879513858201
0.208180624732067 0.0323715937043053 2.14577189326792
-0.386927499190193 0.109460985791472 2.1023720735637
0.203661636289968 0.0486245107538083 2.19217397821938
-0.388785388332478 0.123071126497044 2.15496591567387
0.201358244070615 0.097150831737715 2.2105356893883
-0.37231345932229 0.170106877155299 2.17634138244533
0.181892551008639 0.113940964781564 2.25733957028493
-0.352958531510216 0.179453974896371 2.22255747984881
-0.317690961004186 0.21673269791753 2.23485195623108
0.121817102705847 0.168948214922301 2.30319810358216
0.159438868186861 0.160149844659412 2.26699564056086
-0.282139368275947 0.215135972828192 2.27204521741472
-0.235493462712335 0.239757985699382 2.27049565737341
-0.193664265109851 0.223018519456179 2.29429238346809
-0.143004739962937 0.235632672752913 2.28463990091199
-0.103674843386249 0.218563809088243 2.30322805621218
-0.0553894917028173 0.221369541135988 2.30297733428735
-0.00731423541098544 0.222310066768242 2.30452701619335
0.0328325787794862 0.200421512106319 2.32333815872026
0.0844651809367971 0.203286777951197 2.30187630092315
-0.296842913182089 -0.0994677372367149 1.83091468393218
-0.252075788659843 -0.138009482763062 1.82930086740231
-0.204158755100139 -0.14067697494077 1.81457189930131
-0.162986903146101 -0.167462616756315 1.83814248811882
-0.11303568800022 -0.148937275772903 1.82276570455079
-0.0695126308431105 -0.159579241792347 1.83527713951805
-0.0297697816593841 -0.173733603142182 1.85105585725866
0.0138413884120118 -0.159859008452774 1.83983024621923
0.0580469931521469 -0.180903988983948 1.86633196895572
0.104785310154322 -0.157639377006835 1.86395189766296
0.141744655272042 -0.159373354742978 1.8999563998631
-0.352295110393289 -0.042606441139017 1.873342304824
-0.330636471486444 -0.0903594655417082 1.86390138997962
0.175633472568638 -0.122940494249125 1.90685417149409
0.201513612939673 -0.10581485755956 1.95513559378417
-0.369928708451908 -0.0266362193128248 1.91477730692765
0.218881345175846 -0.0562339080887186 1.98365829222843
-0.372293486788238 0.0221754181452911 1.93488656502131
0.217222608325115 -0.0411370636706848 2.0282322959714
-0.377596197730619 0.0380429148924818 1.98375135584905
0.218474281859323 0.00659822063652594 2.04565736074814
-0.38114985151855 0.0666980429940191 2.02980413860146
0.213910640690307 0.0219993521362847 2.0931022877352
-0.380126323781463 0.11013892580293 2.0476774491441
0.214845168344822 0.0671210735882293 2.11227782807377
-0.381292956908179 0.146542278982353 2.07913790022863
0.210237502279118 0.0837009784664452 2.16003040117361
-0.382078190966889 0.15707666281947 2.12833937977595
0.207591658020368 0.13049826910605 2.17916182960828
-0.365694105812259 0.203460102680101 2.14513551121569
0.188571803321041 0.146157027402603 2.22538169994374
-0.345767759820919 0.213216198288575 2.19164226994936
-0.311297427205107 0.249891009657566 2.2029774677158
0.12886413836038 0.201960630490121 2.27085175106969
0.166044038279902 0.193148727760528 2.23488372502907
-0.276032085631132 0.248163795018528 2.24010551575581
-0.229655107338199 0.272974652052253 2.23832091953567
-0.186166048598423 0.256767572377065 2.26190768718896
-0.137447683510351 0.268111975346436 2.25336097030973
-0.0899605973118376 0.253639238957105 2.26987395461844
-0.039955325602846 0.254318432340193 2.27177623395079
0.00654879765821774 0.254519383512986 2.2739635079039
0.0454704153572621 0.231564667644607 2.2919791789736
0.0917938365864814 0.236336846525439 2.26959092733687
-0.259452797714009 -0.101273260941384 1.80556832515156
-0.21789937948356 -0.105722679699099 1.79226224552292
-0.171455428719283 -0.103505528171104 1.78608447832859
-0.156798828844165 -0.136321441085903 1.809137822851
-0.11936419762427 -0.109444052949108 1.79339169233031
-0.0727055439194431 -0.121090007472409 1.80401313830976
-0.0259249130119916 -0.132000487277313 1.81467430205147
0.0220445659915934 -0.121585476391607 1.81177272724195
0.0613045637758973 -0.148469080547258 1.83568259619974
0.105850757174019 -0.122542453178334 1.83464628350075
0.146102902510369 -0.125249059221716 1.86772201976689
-0.339706327028332 -0.00675974316061651 1.84664901648338
-0.323210218230603 -0.0541899220401327 1.83421242080809
0.194844782706932 -0.0855561427647202 1.90823019942288
0.212558962681857 -0.0614931239259306 1.94071608991675
-0.359977205374059 0.0112699847146587 1.88530434135378
0.218200495871216 -0.0177287246202333 1.94969593388449
-0.356935850001449 0.056438316900245 1.90466073358141
0.220946960089465 -0.00419530772082772 1.99455452844924
-0.366712088166217 0.0718407047998011 1.94893783229325
0.217579591309583 0.0401239468328231 2.0116411396495
-0.373721684608159 0.0910257751699874 1.99400494170368
0.21770335360745 0.0572811843334726 2.05861232572395
-0.36755024414747 0.13713929940875 2.00707155656451
0.214713500089958 0.100630760133653 2.07897469933039
-0.370581820681586 0.165813367605974 2.04180863423001
0.214471554403053 0.117994468059325 2.12563429331015
-0.374603073174428 0.18946564127652 2.0954898008213
0.208649080164938 0.160503192939184 2.14613435708652
-0.356686382267725 0.231064902360614 2.10883686020571
0.193103943813986 0.179179129285012 2.19350193558106
-0.33936143612375 0.244856679943787 2.15781461445399
-0.303694582252297 0.277825157856129 2.16847835545122
0.134181130806863 0.234931910753529 2.23710654853487
0.1661731442257 0.225331220870362 2.20060435072191
-0.268405992212295 0.280440185261024 2.20750890172795
-0.219677763041746 0.302573660558272 2.20133243103924
-0.182568064514079 0.289519608536712 2.22717077034354
-0.140680965392928 0.297465872145096 2.21631481718958
-0.0966539663073065 0.28808741497918 2.23099509929524
-0.0520417528090718 0.283874841872657 2.23777095972843
-0.00198000348673011 0.283125392557252 2.23965545369517
0.0498047940825571 0.265876476695526 2.25751662586564
0.0952525998128983 0.265679714326446 2.23506612992752
-0.284641257447844 -0.060597113722424 1.80215373035005
-0.239181758015691 -0.0628312635840815 1.78006595946266
-0.191485731259337 -0.0649166332885155 1.7707040467386
-0.139655911582184 -0.0689947132835017 1.77406280391772
-0.0892007157585956 -0.0755086705631101 1.78117491787651
-0.0431430459775118 -0.0853205406383099 1.78907359200347
0.000955228266949798 -0.0849031616233554 1.79320607944061
0.0480271429696981 -0.0747901536228043 1.79498014240398
0.0682654399695354 -0.109193274233526 1.81197809371555
0.100442578193014 -0.0738127249487162 1.80967983153462
0.136774962304333 -0.0900961870906941 1.83717730602699
-0.304445776211592 -0.0182934867434229 1.8087167803238
-0.279033285386228 0.0227340230354805 1.79319101279389
-0.261831265408124 -0.0210718941016845 1.78160366044554
0.147173706279293 -0.0492823202395804 1.83287744319164
0.173052043586792 -0.0815007866522436 1.86945524203486
0.176599453522461 -0.0344439541254189 1.86041241657538
-0.336455389724393 0.0478579231876641 1.8561797141658
-0.316645209642378 0.0240231048356961 1.82319157586964
0.200609505293623 -0.0389344234707496 1.89846744891021
0.206031296502609 0.00388056824303024 1.91369859655689
-0.333147368190813 0.0866470346062329 1.88095099868823
0.211835569306382 0.0316038834681008 1.95588814819175
-0.343075780766184 0.108286307634152 1.91943266705846
0.206883624714446 0.0700440698575091 1.9818311276102
-0.355650851483776 0.120717410432407 1.95858973508796
0.209423854502613 0.0927196499332527 2.02314178843585
-0.34451101418721 0.160569180332748 1.97069234450975
0.204610849734925 0.131016270904764 2.0487724704063
-0.348370098975166 0.190455043133498 2.00597131693319
0.206948820811522 0.153500279924211 2.08987517944912
-0.36197609037714 0.207953539620766 2.05788612472109
0.199459799898127 0.190309866196837 2.11486754222651
-0.328156268385426 0.26840861538386 2.11927616178678
-0.339987192045115 0.250865292420209 2.07137553993537
-0.308978439450789 0.283986010669732 2.07632416147875
0.189908909280522 0.20749842496083 2.15843906803211
0.176828937353041 0.231627903611189 2.11385634160765
0.163480515865838 0.246233082885518 2.15851779525802
-0.260409061354343 0.303948992039421 2.16972448953576
-0.294100242316367 0.295952815796595 2.12861407873901
-0.252165738913978 0.317525336764454 2.12677628128383
0.13071996433993 0.264280844480785 2.19688722917512
0.0986187286382253 0.295030771761157 2.15962933519713
0.086136784886657 0.28961049139912 2.19868754659985
-0.213103761610685 0.320806753629184 2.16058025357285
-0.169220593028978 0.315820093397276 2.18069456360231
-0.116327372004587 0.313379301682398 2.18337362845212
-0.0719115396596017 0.308657948391978 2.19252132407502
-0.0281302198841749 0.305432942285717 2.19784749383728
0.0146066807007509 0.304412675826008 2.19745488876174
0.0476551520565382 0.290770747347928 2.22137991284626
-0.212947188613984 -0.0222806216275252 1.76582179440401
-0.161670508203719 -0.0265262918972435 1.76330418302328
-0.110941943963999 -0.0305520086693401 1.76940887111093
-0.0631130628005554 -0.0353489204669319 1.77543585276506
-0.0183198477603973 -0.0388759343461185 1.78098499400152
0.025760565719091 -0.0346974558293439 1.7857951129982
0.0743305967419741 -0.0331793527237123 1.79369787519865
-0.234754953907267 0.01945353103841 1.7727115588535
-0.207384213090364 0.056965637924402 1.77548808367923
-0.183331421675574 0.0169714998133069 1.7636774548684
-0.132562186644239 0.013556694470213 1.76719270148874
-0.0849187611574165 0.0125129555854404 1.7733843594268
-0.0376864690308899 0.00912653593013204 1.77923106785057
0.00707225196442339 0.0106714512057476 1.78545881781785
0.0539812498009468 0.00997510082507614 1.79179262797607
0.102084699493063 0.0115659002946186 1.80656488463393
0.149046708950931 0.00353710668948224 1.83450367345745
0.11780577945496 -0.0287796622187892 1.81109104275184
-0.296982035116482 0.0637025628992472 1.81967616460678
-0.264856686737333 0.102126172226842 1.8207071295716
-0.254312972180132 0.063054020207215 1.79220243196066
0.125186693608683 0.0459243436636919 1.82978449391436
0.182832463265504 0.00788515628885924 1.8720687969775
0.161154830325484 0.0477332489387669 1.86176804810753
-0.304794719567704 0.0957633430505166 1.8494990970541
-0.271369503256805 0.134290916581615 1.85557902981486
0.191329839481529 0.0451171829129265 1.9053676649749
0.163633785148945 0.0838443951507983 1.8946035317683
-0.309410568799504 0.12980706726299 1.88786298796227
-0.278394089483112 0.16595175653018 1.89234663576222
0.190294654908308 0.0766789002519415 1.93736870616908
0.161692355398779 0.117298776846871 1.92879211983301
-0.320561475349071 0.155657969807483 1.92710712029767
-0.283253578664056 0.195234392604112 1.92522835672482
0.188875494222136 0.110550377030406 1.9731603350059
0.160646367692612 0.149787330590993 1.96326321438096
-0.317404490243233 0.195019280644999 1.96070163086404
-0.281310748757375 0.23017943120998 1.95811798948026
0.188167662520536 0.140054928556293 2.00566988570317
0.159961164721305 0.181611965127169 1.99756240296505
-0.314608837588222 0.230854256808061 1.99177244243415
-0.280715736914329 0.267034702559414 1.99564308449235
0.187090642989328 0.173383559923001 2.04173249293215
0.158731376252078 0.213614642492415 2.03123318293489
-0.3382965649119 0.231425117444575 2.02808987492012
-0.308932235047938 0.268268492191972 2.03171358156709
0.185367468840147 0.20330870257622 2.07369577646241
0.155472076230669 0.243063368350472 2.06679097524132
-0.275735370836091 0.307415518308087 2.08673778821984
-0.270523992632994 0.298287928261741 2.03886287010847
-0.23806593851803 0.320466648788891 2.07236914151919
0.133107489971194 0.275789794856401 2.14979513164686
0.146917879491673 0.264308045393565 2.10823817743261
0.10707810509161 0.291951321441833 2.107720287414
-0.213667065685425 0.328474242155038 2.11218042942828
-0.187958122543607 0.328718241106643 2.07645996215751
-0.173208128822505 0.328944806671477 2.13090068738479
-0.14408854563025 0.327643009816612 2.09008910758618
-0.130794421508333 0.325199299960355 2.1403712139459
-0.10000501280587 0.324363909149767 2.0955232914751
-0.0840224312122973 0.322114303046102 2.14341780298721
-0.0551753411630495 0.320854565286567 2.09921606618346
-0.0397632344329139 0.318705378800665 2.14972436638836
-0.0116293536942933 0.317469584702708 2.10317394033732
0.00473795335193623 0.315829638286197 2.15197028963525
0.0325426624396234 0.314451113964612 2.11132036992753
0.0503622777977982 0.309261918178562 2.16724747532001
0.0702199534134026 0.308086583118226 2.12417245290978
-0.176554645087664 0.0903380836625446 1.78799496667307
-0.15409620793419 0.0555525510885784 1.77373448136684
-0.108397723337921 0.0580490641939228 1.78138746568144
-0.0596943889217383 0.0539557635133243 1.78722278120707
-0.0148190249494882 0.0558572755825586 1.79479165128183
0.0305458788975753 0.055156313682307 1.80149343084856
0.0765369515902533 0.0512472582565261 1.80899687587435
-0.221618474579181 0.0989933413156544 1.79940169378989
-0.179014761118761 0.126182713782033 1.81399260021365
-0.133015241023494 0.10055761399034 1.79919638067382
-0.0821021294084797 0.0936490633975199 1.80343618071433
-0.0378244639552223 0.0970883056528382 1.81341812525027
0.00667244080219752 0.0971780230820735 1.82134631941994
0.0518339771340251 0.0943957805089275 1.82735605389105
0.0952168638734187 0.084734609648454 1.83483574898923
0.129777447340606 0.0879537661553791 1.85995729222987
-0.226575613157 0.134071947105358 1.83067755403339
-0.186708532874691 0.159235449428826 1.84775264201503
-0.140819220991686 0.142649763642419 1.83478921504147
-0.10163306745054 0.126520620742186 1.82602007654595
-0.058890482435279 0.132018818821462 1.84017961955038
-0.0152186970198311 0.132844698011634 1.84980955574904
0.0328702442081557 0.129250925325041 1.85572727147796
0.082678002811789 0.1215646935905 1.86211393685241
0.127354120697573 0.120139624084075 1.89111984363977
-0.233466948216488 0.165965099282748 1.8655444140338
-0.188430538709705 0.191017964534222 1.88048809923621
-0.142394720346804 0.176093591340347 1.86927162713363
-0.095811849576384 0.159592014064531 1.86145594596072
-0.048925980482632 0.166584364288078 1.87814674110879
0.00124265642502441 0.162757485080336 1.88423955460972
0.0490216986273306 0.158730506388034 1.88965647881465
0.0910826209635602 0.151026113980528 1.89756002554108
0.126163484882398 0.154374875243071 1.92695330049836
-0.236986038721071 0.196895794552996 1.89818294520662
-0.190988187932972 0.221253026673972 1.9116943911796
-0.142049015152464 0.209817205744522 1.90443070862671
-0.0995020798275948 0.192005575342058 1.89444103966986
-0.0616863616011356 0.200901147812363 1.91129095214568
-0.0169938486932845 0.195120148733227 1.91425060949554
0.0309909952413171 0.191637091229698 1.92026224488028
0.0800085182505047 0.185423550164447 1.92821382651378
0.125095653767048 0.185113775737877 1.95913209895448
-0.240240496247241 0.226974665069954 1.92987677008836
-0.197360773129255 0.251149509407585 1.94291606192405
-0.147367649075344 0.241630126706285 1.93646350527444
-0.0981585525178768 0.229602000159581 1.93383103176568
-0.0466472270978386 0.229992993072077 1.94458164295822
0.00149862847997205 0.225468289221751 1.94954235820377
0.0478830207322593 0.222151982662093 1.95546716884955
0.0893393459366481 0.215141866249628 1.96451893295561
0.124265202950129 0.218796041493052 1.99472068868544
-0.244916771415345 0.259346132919431 1.96454442718864
-0.207074401736825 0.28154043273506 1.97592666962185
-0.160092816173534 0.274946551871114 1.96864076795416
-0.11350412787518 0.264987708220228 1.9675685488646
-0.068870588639708 0.2606879337641 1.9720570229864
-0.0199199997936405 0.258656938936938 1.97977428692093
0.0288651957306601 0.255191840671297 1.98596498039301
0.0779204818245358 0.249660111476237 1.99499611356446
0.122660688188489 0.248957830986069 2.02670853281346
-0.240738690770197 0.293615264664691 2.00409032053484
-0.184191785549749 0.30371358387327 2.00472709376867
-0.135464062415424 0.297522031583402 2.00320862500493
-0.0908418941873748 0.292880396320482 2.00662271796114
-0.0459894559560107 0.288922165481528 2.01119255661554
0.000362414639167585 0.286083468917043 2.01785798864524
0.0454138105279672 0.28331195695471 2.02447560051912
0.086065545913664 0.276692304484323 2.03450295477149
0.117835480797915 0.275677548576966 2.06786491815645
-0.215866577861867 0.315510172953876 2.03557894588564
-0.161721095359807 0.319088992366089 2.04138177306159
-0.115971590337254 0.315789569065948 2.04733182575698
-0.070920523534092 0.311937687741126 2.05142861317598
-0.0251775100208049 0.308044965179491 2.05567608816488
0.0219421085726972 0.305060275700969 2.06297396630306
0.0688378198093312 0.300042868895678 2.07313504191347
3 0 1 2
3 0 2 4
3 3 0 4
3 3 4 6
3 5 3 6
3 5 6 8
3 7 5 8
3 7 8 10
3 9 7 10
3 9 10 12
3 11 9 12
3 13 11 14
3 14 11 12
3 13 14 15
3 16 17 18
3 16 18 1
3 0 19 1
3 19 16 1
3 0 3 20
3 19 0 20
3 3 5 21
3 20 3 21
3 5 7 22
3 21 5 22
3 7 9 23
3 22 7 23
3 9 11 24
3 23 9 24
3 24 11 25
3 25 11 13
3 13 15 26
3 27 13 26
3 25 13 27
3 27 26 28
3 17 16 30
3 30 16 29
3 29 19 31
3 29 16 19
3 31 20 32
3 31 19 20
3 32 21 33
3 32 20 21
3 21 22 33
3 33 22 34
3 22 23 34
3 34 23 35
3 23 24 35
3 35 24 36
3 24 25 36
3 36 25 37
3 37 27 38
3 37 25 27
3 38 28 39
3 38 27 28
3 30 40 41
3 30 29 40
3 29 31 42
3 40 29 42
3 31 32 43
3 42 31 43
3 32 33 44
3 43 32 44
3 33 34 45
3 44 33 45
3 34 35 46
3 45 34 46
3 35 36 47
3 46 35 47
3 36 37 47
3 47 37 48
3 37 38 48
3 48 38 49
3 49 39 50
3 49 38 39
3 40 51 52
3 41 40 52
3 51 42 53
3 51 40 42
3 42 43 53
3 53 43 54
3 43 44 54
3 54 44 55
3 44 45 55
3 55 45 56
3 45 46 56
3 56 46 57
3 46 47 58
3 57 46 58
3 47 48 59
3 58 47 59
3 48 49 60
3 59 48 60
3 49 50 61
3 60 49 61
3 51 62 63
3 52 51 63
3 51 53 64
3 62 51 64
3 53 54 65
3 64 53 65
3 54 55 66
3 65 54 66
3 55 56 67
3 66 55 67
3 56 57 67
3 67 57 68
3 57 58 69
3 68 57 69
3 58 59 69
3 69 59 70
3 59 60 70
3 70 60 71
3 71 61 72
3 71 60 61
3 62 73 74
3 63 62 74
3 62 64 75
3 73 62 75
3 64 65 75
3 75 65 76
3 65 66 76
3 76 66 77
3 66 67 77
3 77 67 78
3 67 68 78
3 78 68 79
3 79 69 80
3 79 68 69
3 80 70 81
3 80 69 70
3 81 71 82
3 81 70 71
3 82 72 83
3 82 71 72
3 74 73 85
3 85 73 84
3 84 73 86
3 86 73 75
3 75 76 86
3 86 76 87
3 76 77 88
3 87 76 88
3 77 78 89
3 88 77 89
3 78 79 90
3 89 78 90
3 79 80 91
3 90 79 91
3 80 81 92
3 91 80 92
3 81 82 93
3 92 81 93
3 93 83 94
3 93 82 83
3 84 95 85
3 84 86 96
3 97 84 96
3 95 84 97
3 96 87 98
3 96 86 87
3 87 88 98
3 98 88 99
3 88 89 99
3 99 89 100
3 89 90 100
3 100 90 101
3 101 91 102
3 101 90 91
3 102 92 103
3 102 91 92
3 92 93 103
3 105 103 104
3 103 93 104
3 93 94 104
3 96 106 97
3 96 98 107
3 106 96 107
3 98 99 108
3 107 98 108
3 99 100 109
3 108 99 109
3 100 101 110
3 109 100 110
3 101 102 111
3 110 101 111
3 111 102 112
3 112 102 103
3 103 105 112
3 117 114 115
3 116 113 117
3 117 113 114
3 116 117 119
3 118 116 119
3 118 119 121
3 120 118 121
3 120 121 123
3 122 120 123
3 122 123 125
3 124 122 125
3 124 125 127
3 126 124 127
3 126 127 128
3 129 130 131
3 114 129 131
3 114 113 129
3 113 2 129
3 129 2 1
3 4 113 116
3 4 2 113
3 6 116 118
3 6 4 116
3 8 118 120
3 8 6 118
3 10 120 122
3 10 8 120
3 12 122 124
3 12 10 122
3 14 124 126
3 14 12 124
3 133 126 128
3 15 14 126
3 15 126 133
3 132 15 133
3 132 133 134
3 135 136 137
3 137 17 135
3 137 18 17
3 18 137 130
3 129 18 130
3 18 129 1
3 15 132 26
3 139 132 134
3 139 138 132
3 138 28 26
3 132 138 26
3 138 139 140
3 136 135 142
3 142 135 141
3 17 30 135
3 135 30 141
3 143 39 28
3 138 143 28
3 143 140 144
3 143 138 140
3 141 145 146
3 142 141 146
3 41 145 141
3 30 41 141
3 147 39 143
3 147 50 39
3 147 144 148
3 147 143 144
3 145 149 150
3 146 145 150
3 52 149 145
3 41 52 145
3 151 50 147
3 151 155 50
3 151 148 152
3 151 147 148
3 149 153 154
3 150 149 154
3 63 153 149
3 52 63 149
3 155 61 50
3 155 72 61
3 155 151 156
3 156 151 152
3 154 157 158
3 154 153 157
3 74 157 153
3 63 74 153
3 159 72 155
3 159 83 72
3 159 156 160
3 159 155 156
3 158 157 162
3 162 157 161
3 74 85 161
3 157 74 161
3 163 83 159
3 163 94 83
3 163 160 164
3 163 159 160
3 161 165 162
3 165 95 166
3 165 161 95
3 161 85 95
3 165 166 167
3 95 97 166
3 105 104 168
3 170 94 163
3 170 168 94
3 169 168 170
3 94 168 104
3 163 164 170
3 166 171 167
3 173 171 172
3 172 171 106
3 171 97 106
3 171 166 97
3 172 107 174
3 172 106 107
3 174 108 175
3 174 107 108
3 175 109 176
3 175 108 109
3 176 110 177
3 176 109 110
3 177 111 178
3 177 110 111
3 178 112 180
3 178 111 112
3 181 105 168
3 181 180 105
3 179 178 180
3 180 112 105
3 168 169 181
3 172 182 173
3 182 172 183
3 183 172 174
3 174 175 184
3 183 174 184
3 175 176 185
3 184 175 185
3 176 177 186
3 185 176 186
3 177 178 187
3 186 177 187
3 187 179 188
3 187 178 179
3 179 180 229
3 189 190 191
3 114 131 191
3 115 114 191
3 115 191 192
3 115 192 193
3 117 115 193
3 119 193 194
3 119 117 193
3 119 194 121
3 121 194 195
3 121 195 123
3 123 195 196
3 123 196 125
3 125 196 197
3 127 197 198
3 127 125 197
3 128 198 199
3 200 128 199
3 128 127 198
3 200 199 201
3 202 203 204
3 131 130 189
3 190 189 204
3 189 130 202
3 189 202 204
3 131 189 191
3 128 200 133
3 134 200 205
3 206 205 201
3 134 133 200
3 205 200 201
3 205 206 207
3 136 208 203
3 202 137 136
3 202 136 203
3 137 202 130
3 134 205 139
3 139 205 207
3 140 139 207
3 211 207 209
3 136 142 208
3 208 142 210
3 211 140 207
3 211 144 140
3 146 212 210
3 142 146 210
3 148 144 213
3 213 144 211
3 150 214 212
3 146 150 212
3 215 148 213
3 215 152 148
3 154 216 150
3 150 216 214
3 219 152 217
3 217 152 215
3 158 218 216
3 154 158 216
3 219 156 152
3 219 160 156
3 158 220 218
3 158 162 220
3 221 160 219
3 221 164 160
3 162 165 222
3 223 220 222
3 220 162 222
3 165 167 222
3 169 170 224
3 225 164 221
3 224 170 164
3 224 164 225
3 222 226 223
3 167 171 227
3 226 167 227
3 226 227 228
3 226 222 167
3 171 173 227
3 180 181 229
3 181 169 230
3 231 169 224
3 230 169 231
3 230 229 181
3 224 225 271
3 227 232 228
3 232 182 233
3 232 173 182
3 227 173 232
3 182 183 234
3 233 182 234
3 183 184 234
3 234 184 235
3 184 185 235
3 235 185 236
3 185 186 236
3 236 186 237
3 186 187 237
3 237 187 238
3 238 188 239
3 238 187 188
3 188 179 229
3 240 239 188
3 240 188 229
3 229 230 240
3 191 190 242
3 242 190 241
3 192 242 243
3 192 191 242
3 192 243 244
3 193 192 244
3 194 244 245
3 194 193 244
3 194 245 246
3 195 194 246
3 195 246 247
3 196 195 247
3 196 247 248
3 197 196 248
3 197 248 249
3 198 197 249
3 199 198 249
3 250 199 249
3 201 199 251
3 251 199 250
3 204 252 253
3 204 203 252
3 190 253 241
3 190 204 253
3 206 251 254
3 206 201 251
3 207 206 255
3 255 206 254
3 203 256 252
3 203 208 256
3 257 209 255
3 255 209 207
3 210 258 208
3 208 258 256
3 211 209 259
3 259 209 257
3 212 260 210
3 210 260 258
3 213 211 259
3 261 213 259
3 214 262 260
3 212 214 260
3 215 213 261
3 263 215 261
3 216 264 214
3 214 264 262
3 217 215 263
3 265 217 263
3 218 266 264
3 216 218 264
3 219 217 265
3 267 219 265
3 218 268 266
3 218 220 268
3 221 219 267
3 269 221 267
3 223 270 268
3 220 223 268
3 225 221 269
3 271 225 269
3 223 226 272
3 270 223 272
3 272 228 273
3 272 226 228
3 274 231 275
3 274 230 231
3 275 231 271
3 271 231 224
3 273 228 276
3 276 228 232
3 276 233 277
3 276 232 233
3 233 234 278
3 277 233 278
3 234 235 279
3 278 234 279
3 235 236 280
3 279 235 280
3 236 237 281
3 280 236 281
3 237 238 282
3 281 237 282
3 238 239 283
3 282 238 283
3 327 239 284
3 284 239 240
3 240 230 274
3 284 240 274
3 241 285 286
3 242 241 286
3 242 286 243
3 243 286 287
3 243 287 288
3 244 243 288
3 245 288 289
3 245 244 288
3 245 289 246
3 246 289 290
3 246 290 247
3 247 290 291
3 247 291 248
3 248 291 292
3 248 292 293
3 249 248 293
3 249 293 250
3 250 293 294
3 250 294 295
3 251 250 295
3 252 296 297
3 253 252 297
3 241 297 285
3 241 253 297
3 254 295 298
3 254 251 295
3 254 298 299
3 255 254 299
3 256 300 252
3 252 300 296
3 257 255 299
3 301 257 299
3 258 302 300
3 256 258 300
3 259 257 303
3 303 257 301
3 260 304 258
3 258 304 302
3 261 259 303
3 305 261 303
3 262 306 304
3 260 262 304
3 263 261 305
3 307 263 305
3 264 308 262
3 262 308 306
3 265 263 307
3 309 265 307
3 266 310 308
3 264 266 308
3 267 265 309
3 311 267 309
3 266 312 310
3 266 268 312
3 269 267 311
3 313 269 311
3 270 314 312
3 268 270 312
3 271 269 315
3 315 269 313
3 270 272 316
3 314 270 316
3 316 273 317
3 316 272 273
3 318 275 319
3 318 274 275
3 275 271 315
3 319 275 315
3 273 276 320
3 317 273 320
3 276 277 320
3 320 277 321
3 277 278 322
3 321 277 322
3 322 279 323
3 322 278 279
3 279 280 323
3 323 280 324
3 280 281 324
3 324 281 325
3 281 282 325
3 325 282 326
3 282 283 326
3 326 283 327
3 283 239 327
3 327 284 328
3 284 274 318
3 328 284 318
3 285 329 330
3 286 285 330
3 286 330 287
3 287 330 331
3 287 331 332
3 288 287 332
3 288 332 289
3 289 332 333
3 289 333 334
3 290 289 334
3 290 334 335
3 291 290 335
3 291 335 292
3 292 335 336
3 292 336 337
3 293 292 337
3 293 337 294
3 294 337 338
3 294 338 339
3 295 294 339
3 296 340 341
3 297 296 341
3 285 341 329
3 285 297 341
3 298 339 342
3 298 295 339
3 298 342 343
3 299 298 343
3 300 344 296
3 296 344 340
3 301 299 343
3 345 301 343
3 302 346 344
3 300 302 344
3 303 301 347
3 347 301 345
3 304 348 302
3 302 348 346
3 305 303 347
3 349 305 347
3 306 350 348
3 304 306 348
3 307 305 351
3 351 305 349
3 308 352 306
3 306 352 350
3 309 307 353
3 353 307 351
3 310 354 352
3 308 310 352
3 311 309 355
3 355 309 353
3 312 356 310
3 310 356 354
3 313 311 355
3 357 313 355
3 314 358 356
3 312 314 356
3 315 313 359
3 359 313 357
3 314 316 360
3 358 314 360
3 360 317 361
3 360 316 317
3 362 319 363
3 362 318 319
3 319 315 359
3 363 319 359
3 317 320 364
3 361 317 364
3 320 321 364
3 364 321 365
3 321 322 366
3 365 321 366
3 322 323 366
3 366 323 367
3 323 324 368
3 367 323 368
3 324 325 369
3 368 324 369
3 325 326 370
3 369 325 370
3 326 327 371
3 370 326 371
3 327 328 371
3 371 328 372
3 328 318 362
3 372 328 362
3 329 373 374
3 330 329 374
3 330 374 331
3 331 374 375
3 331 375 376
3 332 331 376
3 332 376 333
3 333 376 377
3 333 377 378
3 334 333 378
3 334 378 379
3 335 334 379
3 335 379 336
3 336 379 380
3 336 380 381
3 337 336 381
3 337 381 338
3 338 381 382
3 338 382 383
3 339 338 383
3 340 384 385
3 341 340 385
3 329 385 373
3 329 341 385
3 342 383 386
3 342 339 383
3 342 386 387
3 343 342 387
3 344 388 340
3 340 388 384
3 345 343 387
3 389 345 387
3 346 390 388
3 344 346 388
3 347 345 391
3 391 345 389
3 348 392 346
3 346 392 390
3 349 347 391
3 393 349 391
3 350 394 348
3 348 394 392
3 351 349 395
3 395 349 393
3 352 396 350
3 350 396 394
3 353 351 395
3 397 353 395
3 354 398 396
3 352 354 396
3 355 353 399
3 399 353 397
3 356 400 354
3 354 400 398
3 357 355 399
3 401 357 399
3 358 402 400
3 356 358 400
3 359 357 403
3 403 357 401
3 358 360 404
3 402 358 404
3 404 361 405
3 404 360 361
3 406 363 407
3 406 362 363
3 363 359 403
3 407 363 403
3 361 364 408
3 405 361 408
3 364 365 408
3 408 365 409
3 365 366 410
3 409 365 410
3 366 367 410
3 410 367 411
3 367 368 412
3 411 367 412
3 368 369 412
3 412 369 413
3 369 370 413
3 413 370 414
3 370 371 415
3 414 370 415
3 371 372 415
3 415 372 416
3 372 362 406
3 416 372 406
3 373 417 418
3 374 373 418
3 374 418 375
3 375 418 419
3 375 419 420
3 376 375 420
3 376 420 377
3 377 420 421
3 377 421 422
3 378 377 422
3 378 422 423
3 379 378 423
3 380 423 424
3 380 379 423
3 380 424 425
3 381 380 425
3 382 425 426
3 382 381 425
3 382 426 427
3 383 382 427
3 384 428 429
3 385 384 429
3 373 429 417
3 373 385 429
3 386 427 430
3 386 383 427
3 386 430 431
3 387 386 431
3 384 432 428
3 384 388 432
3 389 387 431
3 433 389 431
3 390 434 432
3 388 390 432
3 435 389 433
3 435 391 389
3 390 436 434
3 390 392 436
3 393 391 435
3 437 393 435
3 394 438 436
3 392 394 436
3 395 393 439
3 439 393 437
3 396 440 438
3 394 396 438
3 397 395 439
3 441 397 439
3 398 442 440
3 396 398 440
3 399 397 443
3 443 397 441
3 400 444 398
3 398 444 442
3 401 399 443
3 445 401 443
3 402 446 444
3 400 402 444
3 403 401 447
3 447 401 445
3 402 404 448
3 446 402 448
3 448 405 449
3 448 404 405
3 450 407 451
3 450 406 407
3 407 403 447
3 451 407 447
3 405 408 452
3 449 405 452
3 408 409 452
3 452 409 453
3 409 410 454
3 453 409 454
3 410 411 454
3 454 411 455
3 411 412 456
3 455 411 456
3 412 413 456
3 456 413 457
3 457 414 458
3 457 413 414
3 414 415 459
3 458 414 459
3 415 416 459
3 459 416 460
3 416 406 450
3 460 416 450
3 418 461 462
3 418 417 461
3 419 462 463
3 419 418 462
3 419 463 464
3 420 419 464
3 420 464 421
3 421 464 465
3 421 465 466
3 422 421 466
3 422 466 467
3 423 422 467
3 424 467 468
3 424 423 467
3 424 468 469
3 425 424 469
3 426 469 470
3 426 425 469
3 427 426 471
3 471 426 470
3 429 428 473
3 473 428 472
3 417 473 505
3 417 429 473
3 430 427 471
3 520 430 471
3 431 474 475
3 431 430 474
3 428 476 472
3 428 432 476
3 433 431 475
3 477 433 475
3 434 478 476
3 432 434 476
3 479 433 477
3 479 435 433
3 434 480 478
3 434 436 480
3 437 435 479
3 481 437 479
3 438 482 436
3 436 482 480
3 439 437 483
3 483 437 481
3 440 484 482
3 438 440 482
3 441 439 483
3 485 441 483
3 442 486 440
3 440 486 484
3 443 441 487
3 487 441 485
3 444 488 442
3 442 488 486
3 445 443 487
3 489 445 487
3 444 446 488
3 488 446 490
3 491 445 489
3 491 447 445
3 490 446 492
3 492 446 448
3 492 449 493
3 492 448 449
3 494 451 495
3 494 450 451
3 451 447 491
3 495 451 491
3 449 452 496
3 493 449 496
3 496 453 497
3 496 452 453
3 453 454 498
3 497 453 498
3 498 455 499
3 498 454 455
3 455 456 500
3 499 455 500
3 456 457 501
3 500 456 501
3 457 458 502
3 501 457 502
3 458 459 503
3 502 458 503
3 503 460 504
3 503 459 460
3 504 460 494
3 494 460 450
3 461 505 506
3 462 461 506
3 507 463 462
3 507 462 506
3 465 463 508
3 508 463 507
3 464 463 465
3 465 508 509
3 465 509 466
3 466 509 510
3 466 510 467
3 467 510 511
3 467 511 468
3 468 511 512
3 468 512 513
3 469 468 513
3 469 513 470
3 515 470 514
3 470 513 514
3 470 515 471
3 472 516 473
3 518 516 517
3 518 505 516
3 461 417 505
3 505 473 516
3 505 518 506
3 515 514 519
3 474 430 520
3 521 520 519
3 520 471 515
3 520 515 519
3 474 520 524
3 476 522 472
3 516 472 523
3 472 522 523
3 516 523 517
3 520 521 524
3 477 475 524
3 524 475 474
3 525 477 524
3 478 526 522
3 476 478 522
3 527 477 525
3 527 479 477
3 478 528 526
3 478 480 528
3 481 479 527
3 529 481 527
3 482 530 480
3 480 530 528
3 483 481 531
3 531 481 529
3 484 532 530
3 482 484 530
3 485 483 531
3 533 485 531
3 486 534 484
3 484 534 532
3 535 485 533
3 535 487 485
3 486 536 534
3 486 488 536
3 537 489 535
3 535 489 487
3 490 538 539
3 536 490 539
3 488 490 536
3 538 540 539
3 541 542 543
3 541 489 537
3 542 541 537
3 541 491 489
3 490 492 538
3 545 493 544
3 538 492 493
3 538 493 545
3 540 538 545
3 544 546 545
3 547 548 549
3 543 495 541
3 547 494 495
3 547 495 543
3 608 547 543
3 495 491 541
3 493 496 544
3 544 497 550
3 546 544 550
3 544 496 497
3 550 497 551
3 551 497 498
3 498 499 551
3 551 499 552
3 499 500 552
3 552 500 553
3 500 501 553
3 553 501 554
3 554 502 555
3 554 501 502
3 502 503 556
3 555 502 556
3 503 504 556
3 549 504 547
3 556 504 549
3 504 494 547
3 506 557 507
3 507 557 558
3 508 507 558
3 508 558 559
3 509 508 559
3 509 559 560
3 510 509 560
3 510 560 561
3 511 510 561
3 511 561 562
3 512 511 562
3 514 512 563
3 563 512 562
3 513 512 514
3 517 564 518
3 518 564 557
3 566 564 565
3 557 564 566
3 557 506 518
3 558 566 567
3 558 557 566
3 559 567 568
3 559 558 567
3 560 568 569
3 560 559 568
3 561 569 570
3 561 560 569
3 562 570 571
3 562 561 570
3 563 562 571
3 572 563 571
3 574 514 563
3 572 574 563
3 573 519 574
3 574 519 514
3 519 573 521
3 522 575 523
3 577 575 576
3 577 517 575
3 564 517 577
3 575 517 523
3 564 577 565
3 573 574 572
3 521 573 579
3 580 573 578
3 579 573 580
3 579 524 521
3 524 579 525
3 522 581 575
3 522 526 581
3 576 581 582
3 576 575 581
3 583 580 584
3 583 579 580
3 583 525 579
3 583 527 525
3 526 585 581
3 526 528 585
3 582 585 586
3 582 581 585
3 587 584 588
3 587 583 584
3 587 527 583
3 587 529 527
3 528 589 585
3 528 530 589
3 586 589 590
3 586 585 589
3 591 588 592
3 591 587 588
3 591 529 587
3 591 531 529
3 532 593 589
3 530 532 589
3 590 593 594
3 590 589 593
3 595 592 596
3 595 591 592
3 595 531 591
3 595 533 531
3 534 597 593
3 532 534 593
3 594 597 598
3 594 593 597
3 599 596 600
3 599 595 596
3 599 533 595
3 599 535 533
3 534 601 597
3 534 536 601
3 602 597 601
3 602 598 597
3 603 599 600
3 604 603 600
3 603 535 599
3 603 537 535
3 536 539 601
3 606 540 605
3 606 602 540
3 602 601 539
3 540 602 539
3 605 607 606
3 608 609 610
3 608 543 609
3 604 542 603
3 609 543 542
3 609 542 604
3 542 537 603
3 540 545 605
3 605 546 607
3 612 607 611
3 605 545 546
3 607 546 611
3 612 613 614
3 612 611 613
3 614 615 616
3 614 613 615
3 616 617 618
3 616 615 617
3 618 619 620
3 618 617 619
3 620 621 622
3 620 619 621
3 622 623 624
3 622 621 623
3 610 548 608
3 624 623 548
3 624 548 610
3 548 623 549
3 548 547 608
3 546 550 611
3 611 550 613
3 613 550 551
3 551 552 615
3 613 551 615
3 552 553 617
3 615 552 617
3 553 554 619
3 617 553 619
3 554 555 621
3 619 554 621
3 621 555 623
3 623 555 556
3 556 549 623
3 565 625 626
3 567 566 626
3 626 566 565
3 567 626 627
3 568 567 627
3 568 627 628
3 569 568 628
3 569 628 629
3 570 569 629
3 570 629 630
3 571 570 630
3 572 571 631
3 631 571 630
3 572 631 578
3 576 632 577
3 625 632 633
3 565 577 632
3 565 632 625
3 625 633 634
3 626 625 634
3 626 634 627
3 627 634 635
3 627 635 628
3 628 635 636
3 628 636 629
3 629 636 637
3 629 637 630
3 630 637 638
3 631 638 639
3 631 630 638
3 640 578 639
3 578 573 572
3 578 631 639
3 578 640 580
3 576 641 632
3 576 582 641
3 633 641 642
3 633 632 641
3 633 642 643
3 634 633 643
3 634 643 644
3 635 634 644
3 635 644 645
3 636 635 645
3 636 645 646
3 637 636 646
3 637 646 647
3 638 637 647
3 638 647 648
3 639 638 648
3 640 648 649
3 640 639 648
3 584 580 640
3 649 584 640
3 582 650 641
3 582 586 650
3 642 650 651
3 642 641 650
3 642 651 652
3 643 642 652
3 643 652 653
3 644 643 653
3 644 653 645
3 645 653 654
3 645 654 646
3 646 654 655
3 646 655 647
3 647 655 656
3 647 656 648
3 648 656 657
3 648 657 649
3 649 657 658
3 588 584 649
3 658 588 649
3 586 659 650
3 586 590 659
3 650 659 651
3 651 659 660
3 651 660 661
3 652 651 661
3 652 661 662
3 653 652 662
3 653 662 654
3 654 662 663
3 654 663 664
3 655 654 664
3 655 664 665
3 656 655 665
3 656 665 666
3 657 656 666
3 657 666 658
3 658 666 667
3 592 588 658
3 667 592 658
3 590 668 659
3 590 594 668
3 660 668 669
3 660 659 668
3 660 669 670
3 661 660 670
3 661 670 671
3 662 661 671
3 662 671 663
3 663 671 672
3 663 672 664
3 664 672 673
3 664 673 665
3 665 673 674
3 665 674 666
3 666 674 675
3 666 675 667
3 667 675 676
3 596 592 667
3 676 596 667
3 594 677 668
3 594 598 677
3 668 677 669
3 669 677 678
3 669 678 679
3 670 669 679
3 670 679 680
3 671 670 680
3 671 680 681
3 672 671 681
3 672 681 682
3 673 672 682
3 673 682 683
3 674 673 683
3 674 683 684
3 675 674 684
3 676 684 685
3 676 675 684
3 600 596 676
3 685 600 676
3 598 686 677
3 598 602 606
3 678 686 687
3 678 677 686
3 678 687 679
3 679 687 688
3 679 688 680
3 680 688 689
3 680 689 681
3 681 689 690
3 681 690 682
3 682 690 691
3 683 691 692
3 683 682 691
3 684 692 693
3 684 683 692
3 685 693 694
3 685 684 693
3 694 604 685
3 685 604 600
3 598 606 686
3 606 607 695
3 686 606 695
3 686 695 687
3 688 687 696
3 696 687 695
3 688 696 697
3 689 688 697
3 689 697 698
3 690 689 698
3 690 698 699
3 691 690 699
3 691 699 700
3 692 691 700
3 692 700 701
3 693 692 701
3 610 609 694
3 701 610 694
3 701 694 693
3 609 604 694
3 607 612 695
3 695 612 696
3 696 612 614
3 614 616 697
3 696 614 697
3 616 618 698
3 697 616 698
3 618 620 699
3 698 618 699
3 620 622 700
3 699 620 700
3 622 624 701
3 700 622 701
3 624 610 701
