OFF
702 1400 0
-0.251636934415954 -0.349794664823092 2.12885226443868
-0.297203990927653 -0.335535663065561 2.11187296045594
-0.268982229187522 -0.353243817296674 2.08337177307698
-0.204697396789924 -0.356220079544262 2.13311802053994
-0.222937937590794 -0.363832953921566 2.0879611083115
-0.157840551036324 -0.360618931472051 2.13592726220643
-0.176505531116789 -0.367758554735383 2.08977424572589
-0.112417754311984 -0.364444390504828 2.13997335389197
-0.131140094849842 -0.371469254499538 2.09130229172316
-0.0674811631948879 -0.368097772022109 2.14438649112801
-0.0863391974297053 -0.374921699132013 2.09564609218015
-0.0199381170406711 -0.37111153795382 2.15173531193729
-0.0405055437055652 -0.378213070846743 2.10385230120326
0.0281447278600369 -0.366682667388361 2.16020438820149
0.00684382176517859 -0.379829205854531 2.11266638840243
0.0533033230761674 -0.370992824539676 2.12179414788616
-0.319994684645401 -0.308690288630606 2.14161182957214
-0.349925807931574 -0.290174207447311 2.11517397681437
-0.328547195692249 -0.318452509258293 2.08514081357093
-0.279375881570783 -0.325315150487652 2.16038305763585
-0.232580366442873 -0.334529030971129 2.17180093889069
-0.184829956506712 -0.339587199878233 2.17525468515176
-0.13801636225657 -0.343357724240708 2.18031212960672
-0.0927574426563652 -0.346617312435424 2.18584971567134
-0.0484092078799109 -0.351701218426166 2.18804419079988
0.000260202758598865 -0.35242363699551 2.19515477787204
0.0739759286281254 -0.350417707531636 2.16661606902748
0.0453615644723523 -0.340293310385329 2.20343926324504
0.0912781343108168 -0.319624441787592 2.20209759370343
-0.307136964581678 -0.289936318489371 2.18418165771021
-0.347497817920467 -0.268390507286906 2.15736621517438
-0.261019399806941 -0.303877985795015 2.20091675788878
-0.211005176805352 -0.310185570671334 2.20854489885335
-0.163359349336813 -0.314343002161898 2.21344287938001
-0.115702113750202 -0.316704379771824 2.22040365347672
-0.0709616342515422 -0.319343665115279 2.22645281185668
-0.0286421255249237 -0.328235566995466 2.2248418968711
0.01264902956763 -0.32016688614481 2.23582239118843
0.0581930580909317 -0.306430710241961 2.23784335022678
0.102798676192282 -0.283409343498168 2.23239603189164
-0.325659737192225 -0.253982410669306 2.20678720340777
-0.359046517426684 -0.231436983924021 2.18152628752079
-0.284523044812202 -0.269614558069177 2.2270662983999
-0.235401585521762 -0.280350181141319 2.23761586447773
-0.18660311310019 -0.282467435945789 2.2452799973324
-0.139102648881578 -0.287025924092201 2.24968943197138
-0.0875769929149987 -0.287881220429277 2.25916109594291
-0.0326445264181785 -0.296822110589033 2.26005187746881
0.0177511716124608 -0.289549487931892 2.26963397190016
0.0680906031296991 -0.273517712465881 2.26901931188953
0.112600324323197 -0.246640593628486 2.26239301493892
-0.309856165411363 -0.231964362272507 2.25049761245142
-0.35054230576671 -0.212880991622275 2.22046243951017
-0.260446845458228 -0.249472927733504 2.26438706799391
-0.212996703657581 -0.251882768282716 2.27499850675714
-0.167427516325272 -0.252916404958266 2.28305773271848
-0.123416088665411 -0.260376036575827 2.28343221699202
-0.0899610700253363 -0.249144218606934 2.30309827836449
-0.0549919919816339 -0.267398537929127 2.2892598862304
-0.0126829084760188 -0.264081436584951 2.30018943999931
0.0351664597719185 -0.257191732972321 2.30177312917442
0.0830445573778482 -0.23775837988429 2.29848216816083
-0.313281987413405 -0.193628661145515 2.29275089929058
-0.341380511587698 -0.194255925788057 2.25787431558037
-0.280169894314956 -0.219494950306693 2.28869850608779
-0.233042951582112 -0.222282802967741 2.30486817102543
-0.188286852210123 -0.221181997164672 2.31521811680251
-0.139324578099701 -0.225946286453333 2.31968697980219
-0.0939084771640858 -0.22054402275069 2.33509559001509
-0.0463925048860351 -0.233243969959738 2.3301711072647
0.00164025056042685 -0.232900572426119 2.33547503216559
0.0493382007005875 -0.224986527634756 2.33231561679766
0.0965971403753068 -0.202057406618468 2.32630356812507
-0.302804980465392 -0.170954369806194 2.32924471535126
-0.347102414714856 -0.156806934670264 2.29487952173928
-0.263930308244468 -0.194933531259753 2.32610730404576
-0.217973165969184 -0.18930176166166 2.34575294839974
-0.167886547272099 -0.193636216239661 2.35094389821688
-0.122068130701661 -0.193487112870842 2.36041059168204
-0.0704904718858326 -0.197368279224948 2.36642271575009
-0.0254890517679527 -0.203589034013638 2.36803400847119
0.0208627716627574 -0.200350529170329 2.36933177271332
0.0647136440105296 -0.192237859960047 2.36064419718134
0.100886882845062 -0.166205999211041 2.36085494386396
-0.298269848279101 -0.133085311232694 2.367074505594
-0.332127237272409 -0.140357664486231 2.33357024194426
-0.264599774193017 -0.162729481521752 2.36097427904813
-0.230075001511816 -0.151509361580016 2.37932520223484
-0.187264990429164 -0.159797782156581 2.38046070232256
-0.142123967325394 -0.160053238702327 2.38812351930447
-0.0948752228890341 -0.163371871640828 2.39379645986533
-0.046220012077148 -0.167444472146721 2.39914566868255
0.00209436971182059 -0.170270417996348 2.40062090541094
0.0536125425790246 -0.163767417351485 2.39323194600939
0.100704691019984 -0.131854623899438 2.38704676660198
-0.339783378133913 -0.102093745210878 2.35256026160718
-0.26115712727643 -0.114796629737917 2.39389871628063
-0.304910975649127 -0.0900886730757613 2.38438531335842
-0.211664755196956 -0.115534576806238 2.40304696753817
-0.165578998773374 -0.120244358520171 2.40784546658198
-0.118877997463023 -0.121284603042065 2.41435610917279
-0.0730285165820962 -0.125866048008984 2.41918649155564
-0.0263099333451396 -0.130341745718186 2.42390306439484
0.0203639589958095 -0.131594203449785 2.42171187581874
0.0646348250846832 -0.124511668865032 2.41180254543789
0.0461346191962133 -0.0866895236177625 2.43043091831312
-0.278188828061319 -0.0638671865843014 2.40368613511486
-0.235654752518933 -0.0732190562793207 2.41310855836804
-0.186593142246254 -0.07510268036376 2.419174446824
-0.140813584708077 -0.0762612272641806 2.42490897607132
-0.0945013656892739 -0.0777343273033785 2.43063069633964
-0.0498714164174556 -0.0844415283059439 2.4352035812831
-0.00212206138695549 -0.0886679715634569 2.43788569529303
-0.247033631665273 -0.358794474625792 2.04374622123198
-0.270978969393595 -0.343166481785249 2.00908481303998
-0.247548486377404 -0.334289833688896 1.97191012911124
-0.197373481419637 -0.365000786937828 2.04399465445496
-0.219126465300764 -0.354021410362183 2.00346964724611
-0.151300157672172 -0.367566942299095 2.04315407755596
-0.170980296688495 -0.353914624138005 1.99785729652103
-0.105860843167739 -0.370508667954812 2.04549583961341
-0.125656989056801 -0.355386858860735 1.99842222859129
-0.0604933952220956 -0.374343700506603 2.05296353251189
-0.0780457698802631 -0.359173438627656 2.00432879241406
-0.0155354649854441 -0.378535883642359 2.06310392305628
-0.0322801148268321 -0.364176460153821 2.01325547635263
0.0305258951567263 -0.377390855830445 2.07165684525651
0.0119818104120999 -0.368770206106744 2.02429568818317
0.0598743451699118 -0.362116949343897 2.0335969507813
-0.298702115770166 -0.33924327629173 2.05265434359332
-0.337375111200799 -0.308153775040311 2.03832320852452
-0.307780839611555 -0.321937595498529 2.00510467579537
0.0979213571200163 -0.350808149737773 2.12702354691504
0.0736399519323871 -0.365969505050786 2.08148944637285
0.113194919487149 -0.344470190695007 2.08458467915459
-0.375420065502942 -0.254180363437557 2.1074491147906
-0.385891476072851 -0.239183958033284 2.05859858195188
-0.362860643946301 -0.282189227707772 2.06929152639124
0.118909679709211 -0.324245317657211 2.16204013807912
0.13941172050297 -0.32022030494091 2.11782123671415
0.156412702609318 -0.290343564470868 2.14670471055829
-0.377652579812204 -0.227263232637368 2.14039925412786
-0.393674116775638 -0.208836099477827 2.09502622514753
0.132698831624262 -0.289959092415656 2.19211765709497
0.163570200708207 -0.252691341817178 2.17936138972506
-0.38150045342748 -0.190562289698967 2.17625559723578
-0.394295914654517 -0.180961283123674 2.13297501439857
0.140425500963247 -0.251137341951743 2.22224056302789
0.169858717071418 -0.212154631567183 2.20579682946148
-0.375991677169459 -0.173513235405998 2.21500602203158
-0.396662816935651 -0.143010141851789 2.17438469425429
0.148949840042722 -0.211496610035243 2.24985075959333
0.174147223848302 -0.171713441505977 2.23424414756105
-0.368123038671279 -0.157538110976495 2.25481255944249
-0.392121960320961 -0.127657214603035 2.22055199242192
0.125783865381021 -0.206934450919675 2.28941926599903
0.158112499831736 -0.167855291880603 2.27726249350996
-0.382037796512808 -0.118356746790322 2.26912715855396
-0.400508052128944 -0.0825247073071811 2.23977289131812
0.133076414893003 -0.168617901464666 2.32003226979606
0.163087685266395 -0.129363801986799 2.30509442906332
-0.366490004246874 -0.112930937390866 2.31094600081455
-0.390952025133937 -0.073864258421786 2.28765384330504
0.136423729330684 -0.132928184690791 2.35029783831304
0.159930059657154 -0.0941287785386809 2.33861585552644
-0.369515553329949 -0.0688261611620709 2.33082711297041
-0.337423890687413 -0.0593602508539531 2.3688548699497
-0.357365413679292 -0.0250208272983711 2.35104512678382
0.0933023058081684 -0.0861482488795012 2.40961974517622
0.116429373248542 -0.0459489849426213 2.39752630176495
0.130050656633295 -0.0924345736159857 2.37875422013709
-0.312037915863272 -0.0327354428137952 2.38947384347054
-0.25958690816495 -0.0230208211996033 2.411804483594
-0.291675031022882 0.00591604289916497 2.39597867414918
-0.209951255900165 -0.0318842783424553 2.42005559338155
-0.162707332856997 -0.0290521712130869 2.42530611427943
-0.11608917728874 -0.0305143035026566 2.43058882026988
-0.0692569889298715 -0.0320416471234497 2.435878041383
-0.0262512079233075 -0.0428778745777968 2.44117201093081
-0.000947040428489337 -0.00607784404049079 2.43715234715786
0.0244402591452472 -0.0462284167314498 2.43910935276372
0.0731333570359895 -0.0449232537150776 2.42418205021761
-0.25829381283307 0.0351897833952508 2.39967765353977
-0.22657384232313 0.0109341630373133 2.4130001809614
-0.182472996803518 0.0162664346630812 2.41589306529444
-0.136378877005082 0.0162414791173699 2.42022767660667
-0.0896844478574076 0.0141594917672946 2.42519133707522
-0.0412698421158355 0.0123638447387145 2.43021062762637
0.0145111029996391 0.0318314999277506 2.4233770440522
-0.33562968635918 -0.289839511252886 1.98974520876077
-0.319458463436605 -0.274922596068077 1.95122512474532
-0.288692271344363 -0.311134515264187 1.96374808051772
-0.23993786519296 -0.31062140251458 1.93674615799116
-0.197857688440445 -0.334947223503934 1.9619363468287
-0.147354950522352 -0.330174151503131 1.95531320969804
-0.0973467712846813 -0.335480185471704 1.96315071458526
-0.045270358889303 -0.339628069843687 1.96944699946312
6.73494416004589e-05 -0.345365075503288 1.97793448197348
0.0442059013877321 -0.349112102401767 1.99380846416197
0.0865627656261226 -0.330878050999308 1.99333800657298
0.0994048993416927 -0.345773542298387 2.0408889863693
0.125885856042626 -0.318946138698199 2.02373177163975
-0.365525687164793 -0.268805253025896 2.02372652759437
-0.383346759026444 -0.2221197309997 2.01201927027921
-0.35987271960116 -0.248012544232251 1.98111425203032
0.14259109020639 -0.317307160708108 2.06833416291737
0.158360136383285 -0.287700717073409 2.03775371704135
0.168449930839461 -0.285833346385851 2.09297307089077
-0.397601646463044 -0.190151249708151 2.04938012629298
0.188082440368356 -0.243510505448828 2.09136803549634
-0.400643734311767 -0.160035762231058 2.08276653991496
0.180213435541068 -0.252426829462122 2.13366757731559
-0.401642781262442 -0.13897994405599 2.12607635220004
0.185747010710643 -0.211016335392894 2.15849902215444
-0.403806726955251 -0.0995855307888174 2.14262561346373
0.188242254327953 -0.171391172291225 2.18350341413778
-0.403688776659747 -0.0930054158021905 2.1900431130972
0.188805447489864 -0.134743525791173 2.21170902431501
-0.406944185570428 -0.0458261597483197 2.20968776962328
0.181035696963834 -0.123321191931703 2.25746272674406
-0.403058650537821 -0.0361211853676586 2.26031496566237
0.181162578833628 -0.0852239880550074 2.29123638091071
-0.38618256310922 -0.0288457293324016 2.30850117828156
-0.392757591026698 0.0091572178823883 2.28048579663372
0.149615058232186 -0.0502175977462718 2.36346313827565
0.173862457786465 -0.0528196149021161 2.32230188810543
-0.368959713872796 0.0139487219918092 2.32673224797149
-0.334075375734204 0.00871624894482265 2.36779781803261
-0.341189358049129 0.0508677665846166 2.34110899832688
0.0489155247378324 -0.00406983234809601 2.42799091506034
0.0953473492488806 -0.00358710414814579 2.40628869519554
0.134188508195007 -0.00477896883250016 2.37414889783625
-0.304342241970276 0.0465170113476896 2.3743613850764
-0.263876552639212 0.0732350544198547 2.37816587904483
-0.211325117463522 0.0571289457283266 2.39732590049032
-0.162285846903994 0.0592565095007117 2.39984808454066
-0.114932872890495 0.0581586651209943 2.40390755295351
-0.0675546746777216 0.0549370304550314 2.4091743666193
-0.0215626658941689 0.0555625896567446 2.41203625633394
0.0320332446969015 0.0670799878572932 2.39953450551239
0.0658495893652073 0.0350877870395542 2.40717847183308
-0.30829307808865 -0.24232965189145 1.91658628257455
-0.276774597365745 -0.281722589229361 1.92507725553478
-0.228349771432528 -0.278303465421628 1.90482391253356
-0.190969562041795 -0.307004272239074 1.92742450781184
-0.147349024452669 -0.294766067850411 1.91831281626873
-0.10709011516332 -0.302616658711937 1.92719535306611
-0.0600464529054009 -0.311571063806162 1.93744995811806
-0.00386540146342425 -0.312693968300453 1.94112060021048
0.043729800428083 -0.322527501650881 1.95816407347014
0.0889460216572275 -0.298736531472242 1.95769697956503
0.126997860784764 -0.29491335694877 1.98990496617666
-0.37169809047294 -0.195446382251395 1.96854956578882
-0.343873834230336 -0.232572931550418 1.94654907232405
0.15972796831203 -0.258954726746154 2.00080697017616
0.180035878298186 -0.252162054711374 2.04911972742124
-0.390710787095342 -0.174413370468429 2.00877002306471
0.196532768134842 -0.204666768994932 2.06422511303138
-0.396022762645351 -0.134246182725769 2.03876650120135
0.195631139800401 -0.203157688854816 2.11399718481342
-0.399875583308767 -0.111631229690654 2.08687106760783
0.196303436055423 -0.161193929855835 2.13681166603525
-0.399023679514947 -0.0685199975213124 2.10778724999772
0.196025832040544 -0.122611862463766 2.16450697539919
-0.403844644792862 -0.0539158826528317 2.15907169091012
0.193030055644338 -0.0924883683469703 2.21014150133055
-0.402717300649203 -0.00899955278025056 2.17872152070478
0.19000201341448 -0.0717433617631226 2.2498946782236
-0.404066802136454 0.000485142393357355 2.23026316997215
0.185144457448995 -0.0288336566980775 2.28607669049867
-0.389031545253099 0.0451506594055119 2.25009469768658
0.163969176776823 -0.0100650021472447 2.33404729342177
-0.370211963184074 0.0514054075196128 2.29777373585616
-0.3373590453874 0.0881581284268982 2.31069140217621
0.108115012741587 0.0365899085770694 2.37945494681006
0.143323459795381 0.0330471202364142 2.343123302451
-0.303367927197018 0.0855204785409768 2.34754526808261
-0.259834647590382 0.111907162256002 2.34682179022276
-0.224161397858537 0.0930098406990921 2.3726675529034
-0.179262884539164 0.0968996246613465 2.37186739764528
-0.135142960676086 0.0973279552942842 2.37364780691988
-0.0884036164807267 0.0933772788050763 2.37941344777458
-0.0450960059948214 0.0931905686120119 2.38169623714395
-0.00247534429885825 0.0912633787663536 2.38495054642505
0.0751984059323222 0.0735473345880859 2.37644136757525
-0.304943702490691 -0.207270949506943 1.88843200801067
-0.266418122014833 -0.246387010277764 1.89214599882536
-0.219529715310766 -0.243312444523019 1.87379776282912
-0.179815188926214 -0.269663758515739 1.89461745141728
-0.125992493513621 -0.260448231159403 1.88913376487738
-0.0800602171174867 -0.272938631723887 1.90238049250377
-0.0343635411448733 -0.284717337158219 1.91498913590206
0.0090196351057108 -0.272732587482513 1.90655647845489
0.0467124822094116 -0.289866063109536 1.92823941541359
0.0932852288615719 -0.263736458297537 1.92588832871965
0.13001849374618 -0.262763975989773 1.95858850722189
-0.366774189665428 -0.157364036562719 1.93903549802977
-0.342404545980677 -0.197904182189231 1.92235895734354
0.165607771595723 -0.224650523684193 1.97050010310566
0.185782392835405 -0.217300944338354 2.01697065858195
-0.385910822255471 -0.141436508412534 1.98367582247011
0.202769095438324 -0.170050674419658 2.03629502851451
-0.38938359482733 -0.0964685945748705 2.00620106654764
0.202004847767822 -0.159969675514471 2.08836794215079
-0.393710121754355 -0.0817474240058527 2.05322209395908
0.20244130279045 -0.114426267765901 2.11447313921308
-0.392940626329445 -0.0365710009780548 2.07620775975767
0.199836038329363 -0.078111825014363 2.16078081329344
-0.397507712946648 -0.0207125514553489 2.12604809499498
0.197988389367619 -0.0477102977871929 2.19667553650688
-0.396521607266538 0.0253371256693441 2.14773038775426
0.194402261591567 -0.0292924716267139 2.23944278917871
-0.397862100527322 0.0362573802845031 2.19975455846325
0.190810130746949 0.0133524961949918 2.2557219777482
-0.382734507292396 0.0805604747045831 2.21936320983768
0.172686590306538 0.0207519137412368 2.30081472878294
-0.36410167258465 0.0869117890270339 2.26699194502067
-0.330293275578219 0.124212257946502 2.28014406516319
0.114894178605776 0.0739750280272912 2.34709294977838
0.150843707891262 0.0673091236231401 2.31125470300728
-0.297025907163892 0.121359220035496 2.31649869939961
-0.248397557692591 0.146303644308728 2.31881205159373
-0.208138410704343 0.127499358672218 2.34350597241403
-0.157174908405262 0.134179164059895 2.34011607235735
-0.104487915546377 0.127542280462251 2.34853830440112
-0.0561049944358204 0.129020574935708 2.34960320029248
-0.010014919082753 0.126843071768001 2.35377513592276
0.0378159763172709 0.105936871455087 2.36631731371245
0.0791381317911685 0.111498452111041 2.34490326230693
-0.299376267683678 -0.172846522879536 1.85886373570667
-0.261468537366514 -0.21098525494906 1.86193139936656
-0.213529942564858 -0.209837914664891 1.84459179707254
-0.16865116844344 -0.236605194058023 1.86604830988913
-0.121423425779724 -0.221689593673187 1.85522327972522
-0.0793662470951105 -0.236258475882384 1.87011148405834
-0.0347277863381921 -0.249887270847526 1.8842970669879
0.011623445282251 -0.235502504091349 1.87389577972918
0.0548001074951675 -0.252999072565762 1.89658606242402
0.1002924888626 -0.227828120274824 1.89502584183469
0.136150723540901 -0.228978019090728 1.929312154475
-0.360273944538965 -0.12130159057414 1.90733793770382
-0.3370142022572 -0.164421534746069 1.89387195776935
0.171974097883845 -0.190124218254521 1.9409270234052
0.192387039909555 -0.181824477628073 1.98738649990234
-0.379493408303635 -0.108438197112936 1.95282955622043
0.208911902660999 -0.135644390761513 2.00756270502231
-0.383043661904112 -0.0637075008213437 1.97293262162454
0.207975149122542 -0.124333874537513 2.06018025513208
-0.387379839182342 -0.0440352440874738 2.02328396413502
0.209361432080814 -0.0790971715289697 2.07787211129464
-0.387413416715076 0.000318835477657271 2.05265551648554
0.205326825237355 -0.0643470935086818 2.12238752560265
-0.391351426336829 0.0153590435527299 2.0965349940608
0.204859096349085 -0.0221145342835804 2.15412610331157
-0.390133569675669 0.0596810723256517 2.11508464310344
0.200978689235745 0.000855347177719339 2.2026989279802
-0.391864657124436 0.0704466191766259 2.16833446453267
0.197988915436678 0.0458838398024791 2.22229603811339
-0.376544017933853 0.115194059573132 2.18944688314715
0.178255133437291 0.0589406741331868 2.27000196699294
-0.357358034997874 0.122425799631284 2.23703799438141
-0.321943430570324 0.159632195247216 2.25190171667802
0.120360923978212 0.110000403327857 2.31649642897149
0.156294584940061 0.103873903049112 2.28076172632528
-0.28718435642725 0.156500070207176 2.2885587883348
-0.238805004651591 0.18080194305252 2.28990040712408
-0.197405051285382 0.161127007641755 2.31441517499689
-0.152532026133354 0.175303798617596 2.30412582393219
-0.115367406185576 0.158975782694267 2.32032306706628
-0.0676771785826903 0.162225180095012 2.31979414862548
-0.0172970325210977 0.162761637253382 2.32178610382825
0.0328048284775512 0.142291830261931 2.33734889779992
0.0804974201655201 0.146616518712979 2.31686781001421
-0.293100649893219 -0.138357718028242 1.82863650566028
-0.255833393076408 -0.175940206288598 1.8316556253184
-0.20955323685192 -0.175349003732203 1.81492610442346
-0.165272448476665 -0.202245701042412 1.83595438943838
-0.115563937876138 -0.185054677900567 1.82324553637393
-0.0735222024272854 -0.198801122695043 1.83740828967126
-0.0315637403707359 -0.213987828033252 1.85283608886037
0.0147202144405691 -0.198594673734153 1.8415431433744
0.0582393984763881 -0.218008710487172 1.86521428854756
0.103551360877309 -0.194028981062407 1.86370845618883
0.142413841115058 -0.194697213490288 1.89965736923489
-0.355233268773459 -0.0846040017593995 1.8783745104893
-0.330788499969158 -0.13049480889415 1.86398649173669
0.177981779837433 -0.15574109840201 1.91078992142521
0.198618194877153 -0.146925888262797 1.95719013584831
-0.373507335720583 -0.0715689483272978 1.92259266965761
0.214860409571993 -0.101653273085953 1.97646559283008
-0.376124467414194 -0.023749903986421 1.93938153835159
0.214468533069978 -0.089008380970222 2.02726120880418
-0.38077359868005 -0.0175145193149318 1.98362464601223
0.215272831436003 -0.0410299278577402 2.05178101936772
-0.38208623438832 0.0125863097216386 2.01469654231433
0.210754305460213 -0.0269464400282686 2.10004622164186
-0.384399059570959 0.0510251334757831 2.0598825365722
0.211431236814351 0.0167976375016591 2.12288600986324
-0.384154770009822 0.0933637776392632 2.08553721415756
0.207032497073994 0.0307670728196701 2.17003723490133
-0.385856857537444 0.104405302329643 2.13873484136555
0.204605565830757 0.0783379274036044 2.19073471493863
-0.369490617615598 0.150421417024056 2.16229880207361
0.185259794140454 0.0927609088949934 2.23837024541333
-0.349988502580977 0.157603761433882 2.2088390058114
-0.314823711387398 0.194393701691184 2.22278879524265
0.125145769164008 0.145228854536941 2.28706604414633
0.162657379616693 0.13835252643945 2.25033700823274
-0.279116921079498 0.191150605254082 2.25972538151436
-0.232578093694136 0.216017001890583 2.25919150520689
-0.190586011346417 0.198323910653069 2.28199052311476
-0.140017337159567 0.211605740492977 2.27276680596342
-0.100544082118383 0.19382501280612 2.29035698073172
-0.052271931062584 0.196845010195061 2.29005826813258
-0.00419506276609639 0.197913999624294 2.29146836259835
0.0361155853608383 0.17531195622171 2.30904487760031
0.0876495528841332 0.179431917670116 2.28755016190152
-0.294311860684906 -0.101801146956926 1.80394449021143
-0.249395258215229 -0.140028847449091 1.8002965143806
-0.201527281501162 -0.141776680795968 1.78527313244133
-0.160152600431235 -0.169495946742853 1.80736255795961
-0.11033923201505 -0.150035960477058 1.79271008760242
-0.0667234032389209 -0.16108552438883 1.80452577918315
-0.0268603273626579 -0.175817503392563 1.81944931483382
0.0166486683932099 -0.161230596611969 1.80874219968127
0.061045479889073 -0.1833448854057 1.83402558086631
0.107678902017475 -0.159793711823781 1.83259612309896
0.144789208276691 -0.163110393438579 1.86833334237261
-0.349824018392085 -0.0472956745031781 1.84928553125911
-0.328009493714588 -0.0944434068080977 1.83746196565484
0.178557046177173 -0.126910074973313 1.87685710806274
0.204560934539938 -0.112030534846232 1.92581180049996
-0.367355941374033 -0.0334240788096986 1.89151184621166
0.221841303513102 -0.0638142182684121 1.95663433549984
-0.369838403334486 0.0143469427532338 1.91396885559511
0.22030013097745 -0.0508988732251892 2.00189277757013
-0.375009401093143 0.027808924921427 1.96356421623785
0.221427663805306 -0.00405767775931481 2.02160287686085
-0.378494643408702 0.0541869417548995 2.01096312904115
0.216991920645344 0.00901033146777357 2.06975465861874
-0.377575995198413 0.0967161458006906 2.03091396929156
0.217819963908319 0.0531550059469558 2.09108788377298
-0.378764325895251 0.131549420468349 2.06410366624833
0.213336639264085 0.0673853251945881 2.13960416850548
-0.37939488806759 0.139687514985033 2.11375997736771
0.210577380194448 0.113190491734571 2.16098807985563
-0.363132219247492 0.185273276996561 2.13271876624454
0.191679694931792 0.126513586887848 2.20798383099603
-0.343059191424109 0.192852504790519 2.17956690531162
-0.308693020349685 0.22908226680762 2.19253235778609
0.131928650543124 0.179797306407701 2.25632874645353
0.168999398643719 0.17289423898527 2.21983490066519
-0.273272207790614 0.225710772083126 2.22939858350798
-0.227004014396005 0.250776017524262 2.22864011335388
-0.183355105073213 0.233631905378073 2.25124885952986
-0.134717958948507 0.245583723881129 2.24307554953243
-0.0871065309242812 0.230531169979607 2.25868755284833
-0.037097201039883 0.231330287750784 2.26042982271871
0.00941412567110532 0.231623042044872 2.26244695224033
0.0485007387620488 0.207989370023084 2.27918200326641
0.0947141413471324 0.214036226010603 2.25687451996651
-0.257016750617412 -0.102219118096621 1.77839808891536
-0.215499330016264 -0.105842694712995 1.7647339340519
-0.169089947040403 -0.103131649772893 1.75849369862905
-0.154207646244733 -0.136961861934387 1.77987571495435
-0.116946094056054 -0.109195071481453 1.76530628427113
-0.0701982243746001 -0.12114265420025 1.77517366915383
-0.0233312100307892 -0.132357032884693 1.78511585639905
0.0245834990409691 -0.121609824924349 1.78253890478408
0.0640481171970806 -0.14945148760511 1.80496975775411
0.10848402302997 -0.123315782554525 1.80501967087279
0.148879274361783 -0.127448231763714 1.83777194992896
-0.337488311819695 -0.0101462183044681 1.82431068165996
-0.320849569564672 -0.0568485117553222 1.809530274744
0.197621585088387 -0.0895546802170983 1.87996764896589
0.215368043184489 -0.067016454931324 1.91351233192774
-0.357677001764654 0.00590572075906015 1.86387033013675
0.220867609637207 -0.0237141747154559 1.92457824526277
-0.354741628750177 0.0500971649988556 1.88537841783108
0.223739064468695 -0.0123554379989784 1.97002847950151
-0.364402603993058 0.0632975194829316 1.93038604001723
0.220260159262822 0.0310704814901814 1.98925280040212
-0.371309189677096 0.0802496405924711 1.97635527301144
0.220502702370387 0.0459353892701382 2.03699852404869
-0.365272871137636 0.125702797690394 1.99161481387353
0.217418396629306 0.0882358894538685 2.05944637355152
-0.368281540747405 0.152649441457627 2.02771029149693
0.217293147673808 0.103320543718192 2.10689225977388
-0.372183416893155 0.173659434554852 2.08248824071555
0.211380238460339 0.144762471172437 2.12944773949634
-0.354382561826987 0.214640061562329 2.09776463096283
0.195949555605291 0.161058438250111 2.17772262777824
-0.336917379802974 0.226119585685147 2.14728609339865
-0.301342334517731 0.258684966575538 2.15939693537667
0.136976069465842 0.214384991051761 2.22419885292458
0.168860078369091 0.206697838664418 2.18715306668065
-0.265908290390217 0.259558639487539 2.19837348871855
-0.217295628095357 0.282172159322794 2.19308977579425
-0.180029755701556 0.268041272702468 2.21812436336929
-0.138219218229762 0.276681624263189 2.20750611595143
-0.094095887037775 0.266791286845197 2.22154732887199
-0.049440078963245 0.262445666358753 2.22794123517398
0.000631464171880841 0.261818928336182 2.22959638003721
0.0525572309624863 0.243946528077453 2.24640423180951
0.0979149830334194 0.245029593159666 2.22379742252338
-0.282383867974185 -0.0615329413774389 1.77705224531999
-0.237004683772376 -0.0625023592250294 1.75470908065571
-0.189338534480168 -0.0639293717486271 1.74507544209542
-0.137479500358823 -0.067944618428538 1.74803526778296
-0.0869700997009403 -0.0745803150363472 1.75463137009498
-0.0408415890225896 -0.0845667990991078 1.7618702534109
0.00327085578290366 -0.0841622241508447 1.76584994955427
0.050308010048198 -0.0739467030504193 1.76793192728462
0.0707540642849215 -0.109045522365563 1.78316759172145
0.102777617985001 -0.0734586242999683 1.78246176207692
0.139285976804816 -0.0908986909628502 1.80900019061136
-0.302333700194442 -0.0196810463607351 1.7857305240603
-0.277150733046733 0.0221573516792973 1.77211188532211
-0.259817416360818 -0.0209630428177806 1.75835244081725
0.149501369235754 -0.0498807076885266 1.80664111672756
0.175657080019222 -0.0837207856346302 1.84151777376365
0.178976832993213 -0.0362668771419941 1.83474960518093
-0.334421213652168 0.0439596963235807 1.83646120346328
-0.314646867693704 0.0218333622634636 1.80228285283054
0.203157493782159 -0.0424911050048671 1.8724508918741
0.208466273035464 -0.000440503720419289 1.88971562437872
-0.331171510683365 0.0815185944369444 1.86306803174334
0.21432708649854 0.0252335311011111 1.93317508662268
-0.341033274758462 0.101228226112255 1.90258949860062
0.209323079596478 0.0623520811077164 1.96096683047461
-0.353501508341222 0.111696616145804 1.94234998977504
0.211936896471424 0.0830129735764459 2.00331657522874
-0.342475287092943 0.150963190234963 1.9563246560782
0.207071157270314 0.120003828657037 2.03078891174083
-0.346314202773296 0.179090459032945 1.99302319422845
0.209482662861711 0.140482576918778 2.07292244911208
-0.359782733917939 0.193998617979514 2.04577556966908
0.201944434426786 0.17600765011383 2.0996954496826
-0.325962827825443 0.251556007317894 2.10989026440005
-0.337914502242921 0.236300626642315 2.0612421467791
-0.307021040504 0.269274763427891 2.06766973536518
0.192498709595279 0.191027163967601 2.14408392128282
0.179141909761739 0.217229558171024 2.10077148268587
0.165913593156181 0.229599849616789 2.14613804073615
-0.258158721033082 0.284901850108437 2.16174095462379
-0.291981854016697 0.27876080602772 2.12042045562182
-0.250143111555199 0.300575209363111 2.11946905015555
0.133234213026277 0.245630491934588 2.1854606234998
0.100858945770546 0.278010191594981 2.14985732105434
0.0885560131311744 0.270653445996863 2.18865472276729
-0.210959429302119 0.302383417749523 2.15324305994889
-0.166975969373148 0.296616167454035 2.17292500115665
-0.114062935575777 0.294273686868588 2.17528112553051
-0.0695919169922812 0.289304294575951 2.1840201942102
-0.0257768226711601 0.286011680639321 2.18901708455276
0.0169619523991569 0.285193451999747 2.18841263324603
0.0501613741518386 0.270550674847765 2.21152319190576
-0.210992568722772 -0.0211987761814743 1.74234431897543
-0.159709570122503 -0.0250994524766273 1.73942870308762
-0.108940964712193 -0.0291999397835702 1.74513795439912
-0.0610691717716726 -0.0340792899370301 1.75074332028725
-0.0162400759648772 -0.0376800378025155 1.75594444448826
0.0278419380266259 -0.0335516640715351 1.76078307578133
0.0764367249432808 -0.032211054776259 1.76856482701369
-0.232941988295704 0.0200599857152287 1.75132900189485
-0.205713049910434 0.0575099418409315 1.75581346469368
-0.181545466025507 0.0182367793458045 1.74198937673836
-0.130749067574067 0.0148719404791153 1.74514165270402
-0.0830773243020475 0.0137325771051879 1.75109385864039
-0.0358085684017158 0.0102682381984116 1.75658970512422
0.00896813851118271 0.0117004536694202 1.7627142471382
0.055904624430168 0.0108980661923322 1.7688280509389
0.104060114902304 0.0119769340302966 1.78347649329897
0.151166138758804 0.00280566883847558 1.81081471180735
0.119963124637898 -0.0284731110164842 1.78598468269832
-0.295159435483451 0.0617197400446688 1.80061708143393
-0.263186679047815 0.100184808337492 1.80338403248806
-0.252598706501731 0.0625827742151913 1.77298168663731
0.127115251571558 0.0452696879137304 1.80824357286074
0.185084444406924 0.00547482586995435 1.84841717685557
0.163203823212767 0.0456820361110153 1.84013983756151
-0.302982627607631 0.0922665170667025 1.83198635048111
-0.269690181534141 0.13059667333667 1.83979639175908
0.193563975536678 0.0410879665628938 1.88344638724924
0.1656677280122 0.0801724318245524 1.87467490469136
-0.307582816322913 0.124394262605728 1.87197029198721
-0.276695787830798 0.160411331204326 1.87807978374113
0.192528944061095 0.0710597234336486 1.91694120395161
0.163727552173724 0.111924923302738 1.91044974725766
-0.318681115828512 0.148268461402927 1.91246182421156
-0.281542261344189 0.188047814890549 1.91235851545549
0.191115767414821 0.103153479969395 1.9543353929947
0.162687864130094 0.142702868146032 1.94645660402127
-0.315549358313057 0.18597134677827 1.94790974397053
-0.279609514722098 0.221368578228181 1.94689327294837
0.190418487644972 0.131047288518437 1.98823730619369
0.1620109640069 0.17282752974826 1.9822582488658
-0.312774721168849 0.220272626018559 1.98066764611944
-0.279013724111146 0.256367307499718 1.98615561882741
0.189350741086285 0.162587185315025 2.02587457638358
0.160786241155369 0.20315811123172 2.01744291943144
-0.336318611605499 0.218984879051764 2.01706018849912
-0.307089997647754 0.255734385460437 2.02235086764532
0.187634232974451 0.190923198545212 2.05925509375706
0.15754999670099 0.230837820836915 2.05439650495441
-0.27383196548903 0.29231422047724 2.07907831895482
-0.268775725966511 0.285535908907906 2.03079821869437
-0.236273878376417 0.30620542333479 2.06521467146898
0.13538589319484 0.259414475190993 2.13897198031634
0.149075933284411 0.250015687843532 2.09685567145928
0.109122350469002 0.27748188471036 2.09782819132277
-0.211748162721078 0.312381189337382 2.10527355784734
-0.186184006045865 0.314462551149203 2.06950900973761
-0.171216659663425 0.31211760204612 2.12384027114365
-0.142256069111819 0.312915827439406 2.08290279592688
-0.128750404824757 0.308098766397977 2.13295665321169
-0.09813811321213 0.309565242602036 2.08800380273738
-0.0819544077672729 0.305069014181233 2.13567202572777
-0.053280084325216 0.306072115610086 2.09135146568321
-0.0376567614387766 0.30154729806 2.14163743026702
-0.00970516018793184 0.302684916955835 2.09497482844542
0.00686440574621808 0.298755632015816 2.14357186614952
0.0345111044474696 0.299463804328395 2.10279715962822
0.0525760054297193 0.291650630766546 2.15833922686913
0.0722652404207623 0.292645273013886 2.11518240862141
-0.174969455816615 0.0903690552064136 1.7698032685175
-0.152427208273621 0.0564100987381414 1.75379038407102
-0.106708901070687 0.0587278303688886 1.76138095371934
-0.0579662988901173 0.054564254960732 1.76682560003359
-0.0130690176037549 0.0562882552399998 1.77430649504223
0.0323248952286875 0.0554568883606436 1.78079349780718
0.07836122647001 0.0513850914235644 1.78792356404407
-0.220021952269022 0.0982704671424742 1.78178725323973
-0.177470903581995 0.124903070212151 1.79751447916699
-0.131427348048696 0.100219819087401 1.78132010332954
-0.0804699638155135 0.0933309144070075 1.78502643499526
-0.0361669371106076 0.0964715351289272 1.79499426265556
0.0083606989901058 0.096366883598767 1.80274781128439
0.0535569310461765 0.0934893103147946 1.80844362781314
0.0970084079862248 0.0836622383267276 1.81528151717096
0.131656173397994 0.0858091891935106 1.84039748394404
-0.224996081896955 0.131773360995746 1.81474291100741
-0.1851634148191 0.156250648781053 1.83286377150409
-0.139259457694886 0.14050699835832 1.81893794841513
-0.100043570479777 0.124987898912781 1.80924911916019
-0.0572672014930186 0.129976389182384 1.82349512334166
-0.0135608335711651 0.130521184450613 1.83298718266487
0.034565685425 0.126849946581864 1.83854065111466
0.0844295133365244 0.119075703692645 1.84435789131164
0.129227119615694 0.116439012387158 1.87309029969688
-0.231877012856986 0.161912587681999 1.85113853416292
-0.186883206168018 0.186404487267153 1.86710544307938
-0.14083248685189 0.172236289176132 1.85500436265982
-0.0942146620436439 0.156330535552118 1.8462216417944
-0.0472909909065154 0.162706573940793 1.86305243341217
0.00291684030076432 0.158802881661083 1.86876158238961
0.0507332163872455 0.154721860290919 1.8737950644381
0.0928564967472664 0.146823125403022 1.88115605213554
0.128041153127027 0.148895062543937 1.9105430026395
-0.235390785637265 0.191212654938245 1.88524901766328
-0.189438474086587 0.215083129194211 1.89974804273205
-0.140482764226326 0.204220471594064 1.891752865502
-0.0979042091266495 0.187094222820026 1.88075070128065
-0.0600576394574083 0.195324946729085 1.89786711601049
-0.0153304745621653 0.18959773237739 1.90037310248362
0.0326918757175237 0.186032091993232 1.90602613523301
0.0817657751818119 0.179649724021629 1.91348073619108
0.126977534171195 0.1780362343274 1.94417566769601
-0.238640258650441 0.219708736469677 1.9183736722802
-0.19580717754768 0.243406615328788 1.93240416000598
-0.145802068922688 0.234423373838951 1.92530788839773
-0.0965554429866552 0.222746186323542 1.92190876282688
-0.0450033968542847 0.222835742859501 1.93246924019265
0.00317997891966217 0.218281217239721 1.93702156327052
0.0496008772347813 0.214879522189823 1.94260204581282
0.0911213565682356 0.20761611724005 1.95114580432157
0.126153012038504 0.209953331651243 1.98135565499661
-0.24330890995334 0.250344777057455 1.9545850329439
-0.205511699532717 0.27212318879153 1.96688377258502
-0.158533318353501 0.266089502595696 1.95910821198334
-0.111909207736275 0.256392516601535 1.95737764277589
-0.0672409008895597 0.252070559046855 1.96148255828577
-0.0182518785552225 0.249876853248853 1.96890580532447
0.0305714559466424 0.246323892898855 1.9747355029899
0.0796846791780742 0.240570460844715 1.98330123771717
0.124554297904794 0.238525028989264 2.01477170517229
-0.239111484335722 0.282677891953266 1.99572696688384
-0.182603999318905 0.292974081576308 1.99663616285861
-0.133857995325028 0.287070632896097 1.99463404964775
-0.0892039818692686 0.282459151410754 1.99764934843944
-0.0443178415150906 0.27847532909887 2.00185122848203
0.00207156672692946 0.275514708502082 2.00819469903348
0.0471600564147258 0.272617973598876 2.01449861540142
0.0878782875116362 0.265693946384678 2.02403877920901
0.119785737693615 0.263201411680814 2.05719116956981
-0.214202398795563 0.303129271986571 2.02814333695031
-0.160049057667054 0.306653489293016 2.0339061109348
-0.114263003540792 0.303264734952897 2.03951504332603
-0.0691805689404949 0.299410869413122 2.04324881995449
-0.0234054280571876 0.295511864236003 2.0471284918146
0.0237548476830706 0.292378090020089 2.0540936697927
0.0707109757622866 0.287074514710561 2.06382114046828
3 0 1 2
3 0 2 4
3 3 0 4
3 3 4 6
3 5 3 6
3 5 6 8
3 7 5 8
3 7 8 10
3 9 7 10
3 9 10 12
3 11 9 12
3 13 11 14
3 14 11 12
3 13 14 15
3 16 17 18
3 16 18 1
3 0 19 1
3 19 16 1
3 0 3 20
3 19 0 20
3 3 5 21
3 20 3 21
3 5 7 22
3 21 5 22
3 7 9 23
3 22 7 23
3 9 11 24
3 23 9 24
3 24 11 25
3 25 11 13
3 13 15 26
3 27 13 26
3 25 13 27
3 27 26 28
3 17 16 30
3 30 16 29
3 29 19 31
3 29 16 19
3 31 20 32
3 31 19 20
3 32 21 33
3 32 20 21
3 21 22 33
3 33 22 34
3 22 23 34
3 34 23 35
3 23 24 35
3 35 24 36
3 24 25 36
3 36 25 37
3 37 27 38
3 37 25 27
3 38 28 39
3 38 27 28
3 30 40 41
3 30 29 40
3 29 31 42
3 40 29 42
3 31 32 43
3 42 31 43
3 32 33 44
3 43 32 44
3 33 34 45
3 44 33 45
3 34 35 46
3 45 34 46
3 35 36 47
3 46 35 47
3 36 37 47
3 47 37 48
3 37 38 48
3 48 38 49
3 49 39 50
3 49 38 39
3 40 51 52
3 41 40 52
3 51 42 53
3 51 40 42
3 42 43 53
3 53 43 54
3 43 44 54
3 54 44 55
3 44 45 55
3 55 45 56
3 45 46 56
3 56 46 57
3 46 47 58
3 57 46 58
3 47 48 59
3 58 47 59
3 48 49 60
3 59 48 60
3 49 50 61
3 60 49 61
3 51 62 63
3 52 51 63
3 51 53 64
3 62 51 64
3 53 54 65
3 64 53 65
3 54 55 66
3 65 54 66
3 55 56 67
3 66 55 67
3 56 57 67
3 67 57 68
3 57 58 69
3 68 57 69
3 58 59 69
3 69 59 70
3 59 60 70
3 70 60 71
3 71 61 72
3 71 60 61
3 62 73 74
3 63 62 74
3 62 64 75
3 73 62 75
3 64 65 75
3 75 65 76
3 65 66 76
3 76 66 77
3 66 67 77
3 77 67 78
3 67 68 78
3 78 68 79
3 79 69 80
3 79 68 69
3 80 70 81
3 80 69 70
3 81 71 82
3 81 70 71
3 82 72 83
3 82 71 72
3 74 73 85
3 85 73 84
3 84 73 86
3 86 73 75
3 75 76 86
3 86 76 87
3 76 77 88
3 87 76 88
3 77 78 89
3 88 77 89
3 78 79 90
3 89 78 90
3 79 80 91
3 90 79 91
3 80 81 92
3 91 80 92
3 81 82 93
3 92 81 93
3 93 83 94
3 93 82 83
3 84 95 85
3 84 86 96
3 97 84 96
3 95 84 97
3 96 87 98
3 96 86 87
3 87 88 98
3 98 88 99
3 88 89 99
3 99 89 100
3 89 90 100
3 100 90 101
3 101 91 102
3 101 90 91
3 102 92 103
3 102 91 92
3 92 93 103
3 105 103 104
3 103 93 104
3 93 94 104
3 96 106 97
3 96 98 107
3 106 96 107
3 98 99 108
3 107 98 108
3 99 100 109
3 108 99 109
3 100 101 110
3 109 100 110
3 101 102 111
3 110 101 111
3 111 102 112
3 112 102 103
3 103 105 112
3 117 114 115
3 116 113 117
3 117 113 114
3 116 117 119
3 118 116 119
3 118 119 121
3 120 118 121
3 120 121 123
3 122 120 123
3 122 123 125
3 124 122 125
3 124 125 127
3 126 124 127
3 126 127 128
3 129 130 131
3 114 129 131
3 114 113 129
3 113 2 129
3 129 2 1
3 4 113 116
3 4 2 113
3 6 116 118
3 6 4 116
3 8 118 120
3 8 6 118
3 10 120 122
3 10 8 120
3 12 122 124
3 12 10 122
3 14 124 126
3 14 12 124
3 133 126 128
3 15 14 126
3 15 126 133
3 132 15 133
3 132 133 134
3 135 136 137
3 137 17 135
3 137 18 17
3 18 137 130
3 129 18 130
3 18 129 1
3 15 132 26
3 139 132 134
3 139 138 132
3 138 28 26
3 132 138 26
3 138 139 140
3 136 135 142
3 142 135 141
3 17 30 135
3 135 30 141
3 143 39 28
3 138 143 28
3 143 140 144
3 143 138 140
3 141 145 146
3 142 141 146
3 41 145 141
3 30 41 141
3 147 39 143
3 147 50 39
3 147 144 148
3 147 143 144
3 145 149 150
3 146 145 150
3 52 149 145
3 41 52 145
3 151 50 147
3 151 155 50
3 151 148 152
3 151 147 148
3 149 153 154
3 150 149 154
3 63 153 149
3 52 63 149
3 155 61 50
3 155 72 61
3 155 151 156
3 156 151 152
3 154 157 158
3 154 153 157
3 74 157 153
3 63 74 153
3 159 72 155
3 159 83 72
3 159 156 160
3 159 155 156
3 158 157 162
3 162 157 161
3 74 85 161
3 157 74 161
3 163 83 159
3 163 94 83
3 163 160 164
3 163 159 160
3 161 165 162
3 165 95 166
3 165 161 95
3 161 85 95
3 165 166 167
3 95 97 166
3 105 104 168
3 170 94 163
3 170 168 94
3 169 168 170
3 94 168 104
3 163 164 170
3 166 171 167
3 173 171 172
3 172 171 106
3 171 97 106
3 171 166 97
3 172 107 174
3 172 106 107
3 174 108 175
3 174 107 108
3 175 109 176
3 175 108 109
3 176 110 177
3 176 109 110
3 177 111 178
3 177 110 111
3 178 112 180
3 178 111 112
3 181 105 168
3 181 180 105
3 179 178 180
3 180 112 105
3 168 169 181
3 172 182 173
3 182 172 183
3 183 172 174
3 174 175 184
3 183 174 184
3 175 176 185
3 184 175 185
3 176 177 186
3 185 176 186
3 177 178 187
3 186 177 187
3 187 179 188
3 187 178 179
3 179 180 229
3 189 190 191
3 114 131 191
3 115 114 191
3 115 191 192
3 115 192 193
3 117 115 193
3 119 193 194
3 119 117 193
3 119 194 121
3 121 194 195
3 121 195 123
3 123 195 196
3 123 196 125
3 125 196 197
3 127 197 198
3 127 125 197
3 128 198 199
3 200 128 199
3 128 127 198
3 200 199 201
3 202 203 204
3 131 130 189
3 190 189 204
3 189 130 202
3 189 202 204
3 131 189 191
3 128 200 133
3 134 200 205
3 206 205 201
3 134 133 200
3 205 200 201
3 205 206 207
3 136 208 203
3 202 137 136
3 202 136 203
3 137 202 130
3 134 205 139
3 139 205 207
3 140 139 207
3 211 207 209
3 136 142 208
3 208 142 210
3 211 140 207
3 211 144 140
3 146 212 210
3 142 146 210
3 148 144 213
3 213 144 211
3 150 214 212
3 146 150 212
3 215 148 213
3 215 152 148
3 154 216 150
3 150 216 214
3 219 152 217
3 217 152 215
3 158 218 216
3 154 158 216
3 219 156 152
3 219 160 156
3 158 220 218
3 158 162 220
3 221 160 219
3 221 164 160
3 162 165 222
3 223 220 222
3 220 162 222
3 165 167 222
3 169 170 224
3 225 164 221
3 224 170 164
3 224 164 225
3 222 226 223
3 167 171 227
3 226 167 227
3 226 227 228
3 226 222 167
3 171 173 227
3 180 181 229
3 181 169 230
3 231 169 224
3 230 169 231
3 230 229 181
3 224 225 271
3 227 232 228
3 232 182 233
3 232 173 182
3 227 173 232
3 182 183 234
3 233 182 234
3 183 184 234
3 234 184 235
3 184 185 235
3 235 185 236
3 185 186 236
3 236 186 237
3 186 187 237
3 237 187 238
3 238 188 239
3 238 187 188
3 188 179 229
3 240 239 188
3 240 188 229
3 229 230 240
3 191 190 242
3 242 190 241
3 192 242 243
3 192 191 242
3 192 243 244
3 193 192 244
3 194 244 245
3 194 193 244
3 194 245 246
3 195 194 246
3 195 246 247
3 196 195 247
3 196 247 248
3 197 196 248
3 197 248 249
3 198 197 249
3 199 198 249
3 250 199 249
3 201 199 251
3 251 199 250
3 204 252 253
3 204 203 252
3 190 253 241
3 190 204 253
3 206 251 254
3 206 201 251
3 207 206 255
3 255 206 254
3 203 256 252
3 203 208 256
3 257 209 255
3 255 209 207
3 210 258 208
3 208 258 256
3 211 209 259
3 259 209 257
3 212 260 210
3 210 260 258
3 213 211 259
3 261 213 259
3 214 262 260
3 212 214 260
3 215 213 261
3 263 215 261
3 216 264 214
3 214 264 262
3 217 215 263
3 265 217 263
3 218 266 264
3 216 218 264
3 219 217 265
3 267 219 265
3 218 268 266
3 218 220 268
3 221 219 267
3 269 221 267
3 223 270 268
3 220 223 268
3 225 221 269
3 271 225 269
3 223 226 272
3 270 223 272
3 272 228 273
3 272 226 228
3 274 231 275
3 274 230 231
3 275 231 271
3 271 231 224
3 273 228 276
3 276 228 232
3 276 233 277
3 276 232 233
3 233 234 278
3 277 233 278
3 234 235 279
3 278 234 279
3 235 236 280
3 279 235 280
3 236 237 281
3 280 236 281
3 237 238 282
3 281 237 282
3 238 239 283
3 282 238 283
3 327 239 284
3 284 239 240
3 240 230 274
3 284 240 274
3 241 285 286
3 242 241 286
3 242 286 243
3 243 286 287
3 243 287 288
3 244 243 288
3 245 288 289
3 245 244 288
3 245 289 246
3 246 289 290
3 246 290 247
3 247 290 291
3 247 291 248
3 248 291 292
3 248 292 293
3 249 248 293
3 249 293 250
3 250 293 294
3 250 294 295
3 251 250 295
3 252 296 297
3 253 252 297
3 241 297 285
3 241 253 297
3 254 295 298
3 254 251 295
3 254 298 299
3 255 254 299
3 256 300 252
3 252 300 296
3 257 255 299
3 301 257 299
3 258 302 300
3 256 258 300
3 259 257 303
3 303 257 301
3 260 304 258
3 258 304 302
3 261 259 303
3 305 261 303
3 262 306 304
3 260 262 304
3 263 261 305
3 307 263 305
3 264 308 262
3 262 308 306
3 265 263 307
3 309 265 307
3 266 310 308
3 264 266 308
3 267 265 309
3 311 267 309
3 266 312 310
3 266 268 312
3 269 267 311
3 313 269 311
3 270 314 312
3 268 270 312
3 271 269 315
3 315 269 313
3 270 272 316
3 314 270 316
3 316 273 317
3 316 272 273
3 318 275 319
3 318 274 275
3 275 271 315
3 319 275 315
3 273 276 320
3 317 273 320
3 276 277 320
3 320 277 321
3 277 278 322
3 321 277 322
3 322 279 323
3 322 278 279
3 279 280 323
3 323 280 324
3 280 281 324
3 324 281 325
3 281 282 325
3 325 282 326
3 282 283 326
3 326 283 327
3 283 239 327
3 327 284 328
3 284 274 318
3 328 284 318
3 285 329 330
3 286 285 330
3 286 330 287
3 287 330 331
3 287 331 332
3 288 287 332
3 288 332 289
3 289 332 333
3 289 333 334
3 290 289 334
3 290 334 335
3 291 290 335
3 291 335 292
3 292 335 336
3 292 336 337
3 293 292 337
3 293 337 294
3 294 337 338
3 294 338 339
3 295 294 339
3 296 340 341
3 297 296 341
3 285 341 329
3 285 297 341
3 298 339 342
3 298 295 339
3 298 342 343
3 299 298 343
3 300 344 296
3 296 344 340
3 301 299 343
3 345 301 343
3 302 346 344
3 300 302 344
3 303 301 347
3 347 301 345
3 304 348 302
3 302 348 346
3 305 303 347
3 349 305 347
3 306 350 348
3 304 306 348
3 307 305 351
3 351 305 349
3 308 352 306
3 306 352 350
3 309 307 353
3 353 307 351
3 310 354 352
3 308 310 352
3 311 309 355
3 355 309 353
3 312 356 310
3 310 356 354
3 313 311 355
3 357 313 355
3 314 358 356
3 312 314 356
3 315 313 359
3 359 313 357
3 314 316 360
3 358 314 360
3 360 317 361
3 360 316 317
3 362 319 363
3 362 318 319
3 319 315 359
3 363 319 359
3 317 320 364
3 361 317 364
3 320 321 364
3 364 321 365
3 321 322 366
3 365 321 366
3 322 323 366
3 366 323 367
3 323 324 368
3 367 323 368
3 324 325 369
3 368 324 369
3 325 326 370
3 369 325 370
3 326 327 371
3 370 326 371
3 327 328 371
3 371 328 372
3 328 318 362
3 372 328 362
3 329 373 374
3 330 329 374
3 330 374 331
3 331 374 375
3 331 375 376
3 332 331 376
3 332 376 333
3 333 376 377
3 333 377 378
3 334 333 378
3 334 378 379
3 335 334 379
3 335 379 336
3 336 379 380
3 336 380 381
3 337 336 381
3 337 381 338
3 338 381 382
3 338 382 383
3 339 338 383
3 340 384 385
3 341 340 385
3 329 385 373
3 329 341 385
3 342 383 386
3 342 339 383
3 342 386 387
3 343 342 387
3 344 388 340
3 340 388 384
3 345 343 387
3 389 345 387
3 346 390 388
3 344 346 388
3 347 345 391
3 391 345 389
3 348 392 346
3 346 392 390
3 349 347 391
3 393 349 391
3 350 394 348
3 348 394 392
3 351 349 395
3 395 349 393
3 352 396 350
3 350 396 394
3 353 351 395
3 397 353 395
3 354 398 396
3 352 354 396
3 355 353 399
3 399 353 397
3 356 400 354
3 354 400 398
3 357 355 399
3 401 357 399
3 358 402 400
3 356 358 400
3 359 357 403
3 403 357 401
3 358 360 404
3 402 358 404
3 404 361 405
3 404 360 361
3 406 363 407
3 406 362 363
3 363 359 403
3 407 363 403
3 361 364 408
3 405 361 408
3 364 365 408
3 408 365 409
3 365 366 410
3 409 365 410
3 366 367 410
3 410 367 411
3 367 368 412
3 411 367 412
3 368 369 412
3 412 369 413
3 369 370 413
3 413 370 414
3 370 371 415
3 414 370 415
3 371 372 415
3 415 372 416
3 372 362 406
3 416 372 406
3 373 417 418
3 374 373 418
3 374 418 375
3 375 418 419
3 375 419 420
3 376 375 420
3 376 420 377
3 377 420 421
3 377 421 422
3 378 377 422
3 378 422 423
3 379 378 423
3 380 423 424
3 380 379 423
3 380 424 425
3 381 380 425
3 382 425 426
3 382 381 425
3 382 426 427
3 383 382 427
3 384 428 429
3 385 384 429
3 373 429 417
3 373 385 429
3 386 427 430
3 386 383 427
3 386 430 431
3 387 386 431
3 384 432 428
3 384 388 432
3 389 387 431
3 433 389 431
3 390 434 432
3 388 390 432
3 435 389 433
3 435 391 389
3 390 436 434
3 390 392 436
3 393 391 435
3 437 393 435
3 394 438 436
3 392 394 436
3 395 393 439
3 439 393 437
3 396 440 438
3 394 396 438
3 397 395 439
3 441 397 439
3 398 442 440
3 396 398 440
3 399 397 443
3 443 397 441
3 400 444 398
3 398 444 442
3 401 399 443
3 445 401 443
3 402 446 444
3 400 402 444
3 403 401 447
3 447 401 445
3 402 404 448
3 446 402 448
3 448 405 449
3 448 404 405
3 450 407 451
3 450 406 407
3 407 403 447
3 451 407 447
3 405 408 452
3 449 405 452
3 408 409 452
3 452 409 453
3 409 410 454
3 453 409 454
3 410 411 454
3 454 411 455
3 411 412 456
3 455 411 456
3 412 413 456
3 456 413 457
3 457 414 458
3 457 413 414
3 414 415 459
3 458 414 459
3 415 416 459
3 459 416 460
3 416 406 450
3 460 416 450
3 418 461 462
3 418 417 461
3 419 462 463
3 419 418 462
3 419 463 464
3 420 419 464
3 420 464 421
3 421 464 465
3 421 465 466
3 422 421 466
3 422 466 467
3 423 422 467
3 424 467 468
3 424 423 467
3 424 468 469
3 425 424 469
3 426 469 470
3 426 425 469
3 427 426 471
3 471 426 470
3 429 428 473
3 473 428 472
3 417 473 505
3 417 429 473
3 430 427 471
3 520 430 471
3 431 474 475
3 431 430 474
3 428 476 472
3 428 432 476
3 433 431 475
3 477 433 475
3 434 478 476
3 432 434 476
3 479 433 477
3 479 435 433
3 434 480 478
3 434 436 480
3 437 435 479
3 481 437 479
3 438 482 436
3 436 482 480
3 439 437 483
3 483 437 481
3 440 484 482
3 438 440 482
3 441 439 483
3 485 441 483
3 442 486 440
3 440 486 484
3 443 441 487
3 487 441 485
3 444 488 442
3 442 488 486
3 445 443 487
3 489 445 487
3 444 446 488
3 488 446 490
3 491 445 489
3 491 447 445
3 490 446 492
3 492 446 448
3 492 449 493
3 492 448 449
3 494 451 495
3 494 450 451
3 451 447 491
3 495 451 491
3 449 452 496
3 493 449 496
3 496 453 497
3 496 452 453
3 453 454 498
3 497 453 498
3 498 455 499
3 498 454 455
3 455 456 500
3 499 455 500
3 456 457 501
3 500 456 501
3 457 458 502
3 501 457 502
3 458 459 503
3 502 458 503
3 503 460 504
3 503 459 460
3 504 460 494
3 494 460 450
3 461 505 506
3 462 461 506
3 507 463 462
3 507 462 506
3 465 463 508
3 508 463 507
3 464 463 465
3 465 508 509
3 465 509 466
3 466 509 510
3 466 510 467
3 467 510 511
3 467 511 468
3 468 511 512
3 468 512 513
3 469 468 513
3 469 513 470
3 515 470 514
3 470 513 514
3 470 515 471
3 472 516 473
3 518 516 517
3 518 505 516
3 461 417 505
3 505 473 516
3 505 518 506
3 515 514 519
3 474 430 520
3 521 520 519
3 520 471 515
3 520 515 519
3 474 520 524
3 476 522 472
3 516 472 523
3 472 522 523
3 516 523 517
3 520 521 524
3 477 475 524
3 524 475 474
3 525 477 524
3 478 526 522
3 476 478 522
3 527 477 525
3 527 479 477
3 478 528 526
3 478 480 528
3 481 479 527
3 529 481 527
3 482 530 480
3 480 530 528
3 483 481 531
3 531 481 529
3 484 532 530
3 482 484 530
3 485 483 531
3 533 485 531
3 486 534 484
3 484 534 532
3 535 485 533
3 535 487 485
3 486 536 534
3 486 488 536
3 537 489 535
3 535 489 487
3 490 538 539
3 536 490 539
3 488 490 536
3 538 540 539
3 541 542 543
3 541 489 537
3 542 541 537
3 541 491 489
3 490 492 538
3 545 493 544
3 538 492 493
3 538 493 545
3 540 538 545
3 544 546 545
3 547 548 549
3 543 495 541
3 547 494 495
3 547 495 543
3 608 547 543
3 495 491 541
3 493 496 544
3 544 497 550
3 546 544 550
3 544 496 497
3 550 497 551
3 551 497 498
3 498 499 551
3 551 499 552
3 499 500 552
3 552 500 553
3 500 501 553
3 553 501 554
3 554 502 555
3 554 501 502
3 502 503 556
3 555 502 556
3 503 504 556
3 549 504 547
3 556 504 549
3 504 494 547
3 506 557 507
3 507 557 558
3 508 507 558
3 508 558 559
3 509 508 559
3 509 559 560
3 510 509 560
3 510 560 561
3 511 510 561
3 511 561 562
3 512 511 562
3 514 512 563
3 563 512 562
3 513 512 514
3 517 564 518
3 518 564 557
3 566 564 565
3 557 564 566
3 557 506 518
3 558 566 567
3 558 557 566
3 559 567 568
3 559 558 567
3 560 568 569
3 560 559 568
3 561 569 570
3 561 560 569
3 562 570 571
3 562 561 570
3 563 562 571
3 572 563 571
3 574 514 563
3 572 574 563
3 573 519 574
3 574 519 514
3 519 573 521
3 522 575 523
3 577 575 576
3 577 517 575
3 564 517 577
3 575 517 523
3 564 577 565
3 573 574 572
3 521 573 579
3 580 573 578
3 579 573 580
3 579 524 521
3 524 579 525
3 522 581 575
3 522 526 581
3 576 581 582
3 576 575 581
3 583 580 584
3 583 579 580
3 583 525 579
3 583 527 525
3 526 585 581
3 526 528 585
3 582 585 586
3 582 581 585
3 587 584 588
3 587 583 584
3 587 527 583
3 587 529 527
3 528 589 585
3 528 530 589
3 586 589 590
3 586 585 589
3 591 588 592
3 591 587 588
3 591 529 587
3 591 531 529
3 532 593 589
3 530 532 589
3 590 593 594
3 590 589 593
3 595 592 596
3 595 591 592
3 595 531 591
3 595 533 531
3 534 597 593
3 532 534 593
3 594 597 598
3 594 593 597
3 599 596 600
3 599 595 596
3 599 533 595
3 599 535 533
3 534 601 597
3 534 536 601
3 602 597 601
3 602 598 597
3 603 599 600
3 604 603 600
3 603 535 599
3 603 537 535
3 536 539 601
3 606 540 605
3 606 602 540
3 602 601 539
3 540 602 539
3 605 607 606
3 608 609 610
3 608 543 609
3 604 542 603
3 609 543 542
3 609 542 604
3 542 537 603
3 540 545 605
3 605 546 607
3 612 607 611
3 605 545 546
3 607 546 611
3 612 613 614
3 612 611 613
3 614 615 616
3 614 613 615
3 616 617 618
3 616 615 617
3 618 619 620
3 618 617 619
3 620 621 622
3 620 619 621
3 622 623 624
3 622 621 623
3 610 548 608
3 624 623 548
3 624 548 610
3 548 623 549
3 548 547 608
3 546 550 611
3 611 550 613
3 613 550 551
3 551 552 615
3 613 551 615
3 552 553 617
3 615 552 617
3 553 554 619
3 617 553 619
3 554 555 621
3 619 554 621
3 621 555 623
3 623 555 556
3 556 549 623
3 565 625 626
3 567 566 626
3 626 566 565
3 567 626 627
3 568 567 627
3 568 627 628
3 569 568 628
3 569 628 629
3 570 569 629
3 570 629 630
3 571 570 630
3 572 571 631
3 631 571 630
3 572 631 578
3 576 632 577
3 625 632 633
3 565 577 632
3 565 632 625
3 625 633 634
3 626 625 634
3 626 634 627
3 627 634 635
3 627 635 628
3 628 635 636
3 628 636 629
3 629 636 637
3 629 637 630
3 630 637 638
3 631 638 639
3 631 630 638
3 640 578 639
3 578 573 572
3 578 631 639
3 578 640 580
3 576 641 632
3 576 582 641
3 633 641 642
3 633 632 641
3 633 642 643
3 634 633 643
3 634 643 644
3 635 634 644
3 635 644 645
3 636 635 645
3 636 645 646
3 637 636 646
3 637 646 647
3 638 637 647
3 638 647 648
3 639 638 648
3 640 648 649
3 640 639 648
3 584 580 640
3 649 584 640
3 582 650 641
3 582 586 650
3 642 650 651
3 642 641 650
3 642 651 652
3 643 642 652
3 643 652 653
3 644 643 653
3 644 653 645
3 645 653 654
3 645 654 646
3 646 654 655
3 646 655 647
3 647 655 656
3 647 656 648
3 648 656 657
3 648 657 649
3 649 657 658
3 588 584 649
3 658 588 649
3 586 659 650
3 586 590 659
3 650 659 651
3 651 659 660
3 651 660 661
3 652 651 661
3 652 661 662
3 653 652 662
3 653 662 654
3 654 662 663
3 654 663 664
3 655 654 664
3 655 664 665
3 656 655 665
3 656 665 666
3 657 656 666
3 657 666 658
3 658 666 667
3 592 588 658
3 667 592 658
3 590 668 659
3 590 594 668
3 660 668 669
3 660 659 668
3 660 669 670
3 661 660 670
3 661 670 671
3 662 661 671
3 662 671 663
3 663 671 672
3 663 672 664
3 664 672 673
3 664 673 665
3 665 673 674
3 665 674 666
3 666 674 675
3 666 675 667
3 667 675 676
3 596 592 667
3 676 596 667
3 594 677 668
3 594 598 677
3 668 677 669
3 669 677 678
3 669 678 679
3 670 669 679
3 670 679 680
3 671 670 680
3 671 680 681
3 672 671 681
3 672 681 682
3 673 672 682
3 673 682 683
3 674 673 683
3 674 683 684
3 675 674 684
3 676 684 685
3 676 675 684
3 600 596 676
3 685 600 676
3 598 686 677
3 598 602 606
3 678 686 687
3 678 677 686
3 678 687 679
3 679 687 688
3 679 688 680
3 680 688 689
3 680 689 681
3 681 689 690
3 681 690 682
3 682 690 691
3 683 691 692
3 683 682 691
3 684 692 693
3 684 683 692
3 685 693 694
3 685 684 693
3 694 604 685
3 685 604 600
3 598 606 686
3 606 607 695
3 686 606 695
3 686 695 687
3 688 687 696
3 696 687 695
3 688 696 697
3 689 688 697
3 689 697 698
3 690 689 698
3 690 698 699
3 691 690 699
3 691 699 700
3 692 691 700
3 692 700 701
3 693 692 701
3 610 609 694
3 701 610 694
3 701 694 693
3 609 604 694
3 607 612 695
3 695 612 696
3 696 612 614
3 614 616 697
3 696 614 697
3 616 618 698
3 697 616 698
3 618 620 699
3 698 618 699
3 620 622 700
3 699 620 700
3 622 624 701
3 700 622 701
3 624 610 701
