OFF
702 1400 0
-0.26075777197356 -0.32616194515257 2.17859379059601
-0.306084182764264 -0.312408949972134 2.16058423362202
-0.277961955687636 -0.332108247111909 2.1333180956401
-0.213915294577599 -0.332867962117862 2.18345326277621
-0.232065457707739 -0.342940667214759 2.13874384433468
-0.167125612290787 -0.337636817537316 2.1867379820165
-0.185690594003606 -0.347291454208379 2.1410041206362
-0.121767963119125 -0.341743077348828 2.19121656984982
-0.140378927754455 -0.351432278793594 2.14296205283115
-0.076895893733151 -0.345650085964785 2.19604905065115
-0.0956398761397833 -0.355141265457473 2.14771274378584
-0.02942163568493 -0.348774358996788 2.20378616450532
-0.0498815853761105 -0.358471744775721 2.15631422865171
0.0186764387424565 -0.344409323442824 2.21220173471715
-0.00259019510748407 -0.360111544695937 2.16543003353566
0.0439344623176674 -0.351289033138311 2.17423358005327
-0.328672022372642 -0.283578802423773 2.18856819830121
-0.358275507301575 -0.266321103958082 2.16093700242174
-0.337115509750503 -0.296582619957645 2.13273782757482
-0.288328734515943 -0.299529145114768 2.20848396820727
-0.241691857395488 -0.308591396964939 2.22064789544545
-0.194019083851515 -0.313990417134273 2.22461933458463
-0.147274112905562 -0.317997867467853 2.2301107131079
-0.102079526371603 -0.321448671734559 2.23604374571672
-0.0578039614888067 -0.326908701424628 2.23874377888187
-0.00917523044206525 -0.327773116073806 2.2461121690112
0.0646719858142785 -0.328326140231854 2.21784960169205
0.0360339195684278 -0.315697073078077 2.25387182692209
0.0821980196231429 -0.295680262091551 2.25151879992098
-0.315761477041181 -0.262476740735729 2.23000783440915
-0.355756339767158 -0.242095989676574 2.2017709018067
-0.269879856708309 -0.275933916125252 2.24775733558991
-0.219974898505398 -0.282358090545326 2.25598058274575
-0.172401727314345 -0.286770905312473 2.26133966603095
-0.124803987855794 -0.289268400166651 2.26865118447032
-0.0801224569188439 -0.292063580039555 2.27505559018892
-0.0379056208188574 -0.301527355240186 2.27417383418028
0.00343460284299307 -0.293300791711543 2.284848285693
0.0491303776937008 -0.279999574523768 2.28626218813554
0.0940279248327912 -0.257863552711095 2.27966487283293
-0.333945054384274 -0.225028774333837 2.25034977670507
-0.366960682856431 -0.203638923140358 2.2236377985771
-0.293078105110008 -0.239904561260678 2.27171415374541
-0.244130113028715 -0.250564470841195 2.28311262333325
-0.195391118764698 -0.252789732546988 2.29111707581127
-0.147966127243812 -0.25763023538086 2.29601163815729
-0.0964923400385401 -0.258520073189168 2.30575815509522
-0.0416740636434681 -0.26803069387997 2.3074355194412
0.00876607801023778 -0.260787839646418 2.31680393053944
0.0592946551382964 -0.245407813212387 2.31547288685032
0.104146853977302 -0.219492141228872 2.30746908688099
-0.318054603765818 -0.200635066168531 2.29274774571407
-0.358391215716266 -0.182899962353994 2.26144163616583
-0.268912596598199 -0.217860149485947 2.30788403899366
-0.221537020942131 -0.220186456750299 2.31884164122992
-0.176015741134595 -0.221269017664541 2.32716098666997
-0.132097976810751 -0.229204744599292 2.32818388540023
-0.0985901771462205 -0.217213041674892 2.34730383308883
-0.0637859383849142 -0.236663822234001 2.33473841268649
-0.0214841727244517 -0.233194976479674 2.34564916816629
0.026437075908199 -0.226780477769165 2.34704425410649
0.0745556036287002 -0.208135683093137 2.34282800120846
-0.32119218357339 -0.159816639437532 2.33263150328726
-0.349157337895887 -0.162190374413281 2.29772287772017
-0.288374205694901 -0.186261689991948 2.3302783895753
-0.241348391007898 -0.18863093490939 2.34680528733455
-0.196623855770543 -0.187437258498619 2.35728062343556
-0.147739853008747 -0.192496657707656 2.36225357312646
-0.102324318566287 -0.186716207216905 2.37752601790226
-0.0549435450744408 -0.200238589369723 2.37358719888794
-0.00693156302622293 -0.200139205106623 2.3790858204943
0.040869313491441 -0.192982619904159 2.37568465152129
0.088421121135015 -0.171003138109663 2.36854149613491
-0.310591391453995 -0.135135182087398 2.36776181274384
-0.354580504599425 -0.122542482603204 2.3324098541223
-0.271992481251509 -0.159709197878682 2.36623683632757
-0.226050059105099 -0.153453927851686 2.3857276685625
-0.176039558288704 -0.158054412891492 2.39140113086447
-0.130260597053986 -0.1578755879203 2.40105631309475
-0.0787570463892255 -0.16199212100002 2.40752951951244
-0.033839549739584 -0.16862919873811 2.40971802604156
0.0125419858348859 -0.165858769405242 2.41103769269105
0.0565204214310114 -0.158787993708373 2.40208840726918
0.0929995664250983 -0.133212341897143 2.40092075538137
-0.305756610926841 -0.0951382899558105 2.40329488984207
-0.339564659426625 -0.103996261209425 2.37012415280011
-0.272417485606447 -0.125482579237744 2.39912472007989
-0.237834927971475 -0.113593227848251 2.41693756468598
-0.195131367000456 -0.122296973845907 2.41876376593523
-0.150027387569864 -0.122621383017143 2.42663915717722
-0.102844372817215 -0.126146224368415 2.4327201145278
-0.054262682228643 -0.130459268232695 2.43852930045881
-0.00599157034041693 -0.133754418547465 2.44039572015369
0.0456292582736536 -0.128302317872408 2.43287424919212
0.0931218155606319 -0.0973640376130484 2.42502357457548
-0.346840616915767 -0.0645840282198873 2.38677050950044
-0.26853592249168 -0.0757194688812862 2.42915795134855
-0.311954675970936 -0.051113733332365 2.41798849167477
-0.219092578287338 -0.0764877528474223 2.43856515149729
-0.173085528995803 -0.0814396679338161 2.44385046458767
-0.126426447772191 -0.082634107623283 2.45062966455497
-0.0806542559075912 -0.0874532762654589 2.4559380724621
-0.0340113200526542 -0.0921837740230049 2.46113065128174
0.0126527168870816 -0.0941073308281184 2.45923598252323
0.0570437181694251 -0.0881423560414571 2.44913030145042
0.0389207317470636 -0.0490664229690566 2.46539121725046
-0.284999499517244 -0.0241033068055444 2.43582151068978
-0.242617436852725 -0.0333724066247545 2.44598180900441
-0.193606194549631 -0.0354625969055959 2.45237820466895
-0.147866806840211 -0.0368105656362321 2.45838539513277
-0.101598489486245 -0.0384794687825898 2.46440098392529
-0.0570699907661782 -0.045421612381953 2.46957298914405
-0.0093853136935772 -0.050036322605009 2.47272473247734
-0.255923599886373 -0.340261117297711 2.09419551047104
-0.279543431494582 -0.326445004026452 2.05855501179502
-0.255861469093673 -0.320068550747101 2.02102842067061
-0.206342150789537 -0.347019051451097 2.09504450130514
-0.227801779777955 -0.338217300103225 2.05383735721714
-0.16029962671438 -0.350166564699627 2.09457331011365
-0.17963581954486 -0.339004742619995 2.04845371113789
-0.114908177097886 -0.353492286388054 2.09729815487333
-0.134335829349778 -0.340968016099736 2.0493170092146
-0.0696195857169538 -0.357403931622723 2.10519256854941
-0.0867968620404548 -0.34495026488983 2.05566067974016
-0.0247553502286526 -0.361508326375556 2.11577423801898
-0.0411297842494553 -0.349945600115963 2.06508276682368
0.0212820115335061 -0.360392588360557 2.12445922021021
0.00303014888299567 -0.354389197299777 2.07658326919555
0.0509610743567268 -0.347752149941613 2.08569645648635
-0.307390912620445 -0.319614806180209 2.10168428922144
-0.345634170582504 -0.288984947833451 2.08535015030612
-0.316074121270799 -0.305063696566668 2.05314824263183
0.0887682529284429 -0.33134955123952 2.17846264071457
0.0644894281011325 -0.348909008620541 2.13379708612841
0.104284667286108 -0.327725340166237 2.1357939764681
-0.383308995212395 -0.230556297889065 2.15096751904172
-0.393407074071306 -0.218371392930794 2.10126365533358
-0.370931999288896 -0.260929521724819 2.11460112871036
0.10993165071926 -0.302996873727412 2.21193638657371
0.130655700319859 -0.301848072879896 2.1676527590488
0.147895858961177 -0.270506000863018 2.19478870433749
-0.385352181836516 -0.201702710572093 2.1822488812301
-0.400972972010069 -0.185821956197058 2.1357864964782
0.124007926267261 -0.267145027994231 2.23998717490881
0.155370781546083 -0.231063769199693 2.22518301692663
-0.388905796360101 -0.162891634134708 2.21584225638934
-0.401414047074525 -0.155733851340354 2.17200823061559
0.132075954869508 -0.226692757124902 2.26778537423876
0.162035821866232 -0.189102299058218 2.24919166226736
-0.383348712411338 -0.143633035737635 2.25353625452919
-0.403494010843586 -0.115361778405112 2.21107768689068
0.14096131738075 -0.185581754638596 2.29303038851118
0.16669187743238 -0.14709323062686 2.27520493516975
-0.375448921250347 -0.125411029891628 2.29235934425117
-0.398954421012617 -0.097343750179072 2.25627164618849
0.117694151022897 -0.178404794034105 2.33214908714953
0.150533316784386 -0.140496753079592 2.31784251463615
-0.388953509879292 -0.0852883251723491 2.30425481334543
-0.406879504026049 -0.0510533304216287 2.2727368459416
0.125320137806674 -0.138422591862156 2.36046450833755
0.155855255829529 -0.10047839471147 2.34336058390717
-0.373508626066571 -0.0775658911221657 2.34574949247844
-0.397411540476628 -0.0396718964774344 2.32006260232859
0.128971340613748 -0.101037155516769 2.38857078703692
0.152983681751714 -0.0632774613542159 2.37471354435215
-0.376088434325552 -0.0323244130114207 2.36295987021113
-0.344037865251857 -0.0209873026573863 2.40050743365902
-0.363498647166218 0.0124616397898207 2.38059528868553
0.0861738634223337 -0.0503128597154895 2.44480538454161
0.109825254897946 -0.0111759433936562 2.43045244389918
0.122967242311877 -0.0588511728922502 2.4145401523273
-0.318419199083267 0.00651965804423798 2.41962604361638
-0.265945537936929 0.0169344270439255 2.44158480138139
-0.297624100838369 0.0452500815651973 2.42391736414416
-0.216451992846724 0.00800054000352983 2.45058003999709
-0.169198971581784 0.0105900600741708 2.45587375628518
-0.122622866387529 0.00890243104899789 2.46145188995219
-0.0758335466601037 0.00714760778983115 2.4670414033276
-0.0329810595906687 -0.00385418132352996 2.47317101402234
-0.0072252551779466 0.0323446710706054 2.46708969332687
0.0176747735843507 -0.00791106549731277 2.47154812119004
0.0664388952104524 -0.0080627777137224 2.45679742563227
-0.263912066796065 0.0743016288397224 2.42602601790582
-0.23253600536888 0.0505139929471851 2.44091468920186
-0.188386710277787 0.0554954127019837 2.44369167969268
-0.142313739518755 0.0551920201493318 2.44823554108981
-0.0956674703790766 0.052865810464372 2.45353239240453
-0.0472979756480494 0.050808708974159 2.4588757984273
0.00873726672899815 0.0691850656880377 2.45115812865788
-0.343477999604494 -0.273614219532208 2.03577825841966
-0.326977544387101 -0.26120416879234 1.99651574066732
-0.296694200443936 -0.296962585375287 2.01131238934533
-0.247830203120843 -0.298623837500269 1.98455590917723
-0.20614275408666 -0.321896166825002 2.01134373732405
-0.155560897858304 -0.318113446213948 2.00468479264244
-0.105650903992166 -0.323525387182638 2.01305747902337
-0.053652940369186 -0.327897048372283 2.01983252393143
-0.008420759017809 -0.33364616397687 2.02885781229033
0.0356066679297013 -0.336955636999398 2.0451325889
0.0781789231042386 -0.319275926535829 2.04377728956832
0.0906539040682679 -0.331464988018299 2.0921889965112
0.117520020804027 -0.306015578932727 2.07359168440069
-0.373256559291974 -0.250249479463151 2.06830927773115
-0.39047448396642 -0.204138815589049 2.05376492521911
-0.367187388920583 -0.232095469959927 2.02456346741794
0.134066156566603 -0.301920908071495 2.11809543106167
0.15030760710666 -0.274371383807011 2.08588352349389
0.160199341237392 -0.26934024078054 2.14094085053338
-0.404496555453506 -0.169840919097739 2.08909274685422
0.180340017225447 -0.227419111363246 2.13691511915602
-0.407312949061899 -0.137759484790703 2.12061573844521
0.172197468449138 -0.233711388697279 2.17963255651335
-0.40823364741433 -0.114154563324204 2.16259246308047
0.178124393774622 -0.1909643673675 2.20198460003553
-0.409994695914952 -0.0738230011408867 2.17676088945857
0.180991306713515 -0.149953755494655 2.22460118541033
-0.409986965685246 -0.0644358292646902 2.22370353575605
0.181878186968113 -0.1117022886771 2.25058122304925
-0.412759112182083 -0.0161369142731523 2.24049408171026
0.174063036232779 -0.0974889920427362 2.29553837640405
-0.408959687844442 -0.00348354309061036 2.29047261171484
0.174508747802262 -0.0574543532617703 2.32698836522558
-0.392189923879832 0.00644843113025579 2.33821961768011
-0.398201129224995 0.0427915788730831 2.30796474004953
0.143092953320467 -0.0178490061260316 2.39685868963685
0.167471101350211 -0.023176752029531 2.35603864044252
-0.374531950700672 0.0500482484625124 2.35395541806643
-0.339875802465852 0.046862202333654 2.39542199937706
-0.346381854913898 0.0874314719570162 2.36624224741152
0.0426936834612788 0.0332238785275958 2.45805830841752
0.0892138561730448 0.0318745628640938 2.43658305337578
0.128165529987044 0.0283211959479114 2.40475282505981
-0.309721542785389 0.0846379349580094 2.39986631505176
-0.268956407962272 0.111062329943133 2.40226530348927
-0.216676802091984 0.0955140737596639 2.42259412632043
-0.167626109286734 0.0972171672247697 2.42521462340574
-0.120306049186273 0.0958118449335922 2.42955347986184
-0.0729908230751573 0.0923581597208726 2.43522387301447
-0.0270063654765551 0.092617672408206 2.43825849350598
0.0267719932871587 0.102746653439798 2.42534502228624
0.0601748256730446 0.0708744919259767 2.43503483188382
-0.315287744827621 -0.230861474617654 1.96005364084462
-0.284273976587587 -0.270043647897681 1.97101804860826
-0.235731796339408 -0.268398972303001 1.95082389460416
-0.198785682709048 -0.296137595035578 1.97526477776153
-0.154986814539344 -0.284971416495064 1.96564586551252
-0.114859739242994 -0.292747639339253 1.97516737802044
-0.0679670250907173 -0.30162297505318 1.98615583693869
-0.0118183342199666 -0.303179156989854 1.99014931665954
0.0355884379817792 -0.312534600972577 2.00796939576425
0.0810858984460905 -0.289341257359093 2.00630056254152
0.119052199640367 -0.28405203338066 2.03840192714385
-0.378336739672454 -0.180235741514887 2.00884174151337
-0.350868760626993 -0.218926428628405 1.98921694931467
0.152164046069664 -0.247891854370296 2.04730045488618
0.17235911824012 -0.238474179530606 2.09521851593464
-0.397257663741592 -0.156627754282219 2.04765175275006
0.189359517810046 -0.190359647982432 2.10755141836524
-0.402210751628648 -0.114688331748978 2.07518283543784
0.188278083053676 -0.185882268266593 2.1571410640158
-0.405985514340447 -0.089208731913512 2.12183978342733
0.189358708070423 -0.142646411542082 2.17742412462978
-0.404704104427388 -0.0449425175837328 2.14016056459367
0.189429890878004 -0.102484651457692 2.20277587228023
-0.409554844444233 -0.0272586155861288 2.19046330496065
0.186611218908062 -0.0696672117900312 2.24652493253283
-0.407971515198105 0.0187308467548149 2.20741399306141
0.183672124638829 -0.0465604812839369 2.28496033471877
-0.409412970097098 0.0312796490629927 2.25829396922497
0.17918145135117 -0.00152093776902823 2.31850508131779
-0.393926526548119 0.0768677451617185 2.27550595375023
0.158040380295694 0.0203130180116807 2.36517591953174
-0.375223543840091 0.0857281067514867 2.32281643519273
-0.341987464415864 0.122799384896515 2.33368042001417
0.102564980396313 0.0702330084650565 2.40746891989987
0.137872930146906 0.0641259647406532 2.3715770381387
-0.308176866735851 0.121963260201596 2.37078439722706
-0.264330326654861 0.147751876225408 2.36869750060708
-0.22898734735592 0.130011607875705 2.39578716007624
-0.184042923803611 0.133324238453367 2.39496713799932
-0.139928451056765 0.133344337889055 2.39692517177851
-0.0932626816136861 0.129200056075792 2.40313384680122
-0.0499697696052373 0.128645579903672 2.40562612287005
-0.00738831269472923 0.126419605505982 2.40918841965153
0.0701024608454005 0.107326226484312 2.40211037509903
-0.311409789725311 -0.197580893677073 1.92988149305097
-0.273367193219667 -0.23685237734168 1.93609371575217
-0.226372981160855 -0.235420428532895 1.91781457579482
-0.187057713973753 -0.260946971721525 1.94034899717292
-0.133107857578469 -0.252700814017646 1.9345789727318
-0.0873803867563603 -0.264914733158191 1.94875918801371
-0.0418774977646473 -0.276453479382711 1.96225905519728
0.001678314589002 -0.265497136953898 1.95333192302641
0.0390782548587762 -0.281747917369462 1.97617077301283
0.0859674347761265 -0.256348087418178 1.97248864969547
0.122579406851161 -0.253859695768683 2.00524458889397
-0.372843019389461 -0.144036280558835 1.9771398786037
-0.348891138598678 -0.185777409054244 1.96301629731162
0.158571812625887 -0.215521870119911 2.01503621348195
0.17864755165265 -0.205656340342772 2.06108162812603
-0.391966154613772 -0.125260042412436 2.02066474513149
0.196118042802931 -0.157541116147097 2.07764286254765
-0.394993395587568 -0.0789945295587472 2.04046116343056
0.19526677577238 -0.14437231488716 2.12902045460702
-0.399331398644581 -0.0614531398596404 2.08650342764402
0.196141070303055 -0.0973649053928355 2.15237453043345
-0.39811605541381 -0.0150014739316136 2.10676688801835
0.193783830831185 -0.0583324020060671 2.19642942727176
-0.402692279623583 0.00384560321793674 2.15555473048859
0.192155214436591 -0.0258301501205451 2.23044485097938
-0.401244777473948 0.0510888691532109 2.17446624942007
0.188618422407088 -0.00486054234325884 2.27202466802813
-0.402662070085656 0.0650991885753968 2.225742612906
0.185469032164936 0.038716150947834 2.28572363908134
-0.387086721763062 0.110311196717143 2.24275408860391
0.167255689422794 0.0489950812798654 2.33021170524954
-0.368569123372166 0.1192671276734 2.29000774442587
-0.334372057545045 0.156887975516077 2.30107767895205
0.109916847401658 0.105545535629626 2.37297430329398
0.145926717946174 0.096341843622011 2.33776401863458
-0.301285730025866 0.155815584102915 2.3376927300233
-0.25237374312872 0.180285948932956 2.33874679636757
-0.212439542555341 0.162516672474195 2.36470257103713
-0.161387132901603 0.168389581920882 2.36115994599659
-0.108816687403393 0.16165285055335 2.37020793713283
-0.0604242218324341 0.162628821584422 2.37140925703612
-0.0143802481167726 0.16016720948134 2.37591864317233
0.0331484066183656 0.139488963327667 2.3899046041717
0.07461856765186 0.143285756219039 2.36839127301179
-0.305315872932765 -0.165043338695583 1.89834592741545
-0.267876886092012 -0.203370546967207 1.90385199973985
-0.219859497230733 -0.203814503306953 1.88669914753641
-0.17538786636986 -0.229778454495596 1.90991812344509
-0.127943425556159 -0.216083687348625 1.89844665977799
-0.0861219906543003 -0.230229539382683 1.91437084543944
-0.0417055038521575 -0.243508860340182 1.92954985492829
0.00485449760230144 -0.230308547021582 1.9185288315252
0.0477294999124086 -0.246925638678984 1.94242045011327
0.0935238551879651 -0.22242308548639 1.93957971043138
0.12922932086843 -0.221948644046257 1.97404100933118
-0.365788422153455 -0.110001227253151 1.94338582207242
-0.3429897968442 -0.154113524154849 1.93261522515002
0.165465788807266 -0.182892204918904 1.98349352873127
0.185791173849951 -0.172081692653474 2.02947252829004
-0.385034206266737 -0.0942318892986901 1.98794218871449
0.202783748442531 -0.124978640801546 2.04694552688645
-0.388132116121537 -0.0483463343810375 2.00533447247571
0.201772446606649 -0.110548179001448 2.09879290777336
-0.392434123937774 -0.0256647521787456 2.05440683097364
0.203626286563514 -0.0643584111471758 2.11377127473985
-0.392056951736146 0.0203552766811886 2.08108993937317
0.199590483244851 -0.0469406046522525 2.15731202890739
-0.395990187416884 0.0380237285847813 2.12397909645757
0.199498899744889 -0.0028923469339855 2.18648200916874
-0.394319047799467 0.0833534874442368 2.13986730413253
0.195698912649155 0.022969703096757 2.23358515955468
-0.396133615251566 0.097286833364907 2.19237450708048
0.193166991089369 0.0691158898695283 2.25045730940428
-0.380365928579888 0.143029572737101 2.21086156954998
0.173400428694267 0.0852160107200734 2.29721014722915
-0.36128460531682 0.152855636770488 2.25802792877074
-0.325489380068429 0.190465706521992 2.27081952072421
0.115933209072322 0.139621104393924 2.34031669986634
0.151933215936326 0.130962168555553 2.30517764317811
-0.29091598525083 0.189115374500306 2.30776003126775
-0.242256755854859 0.212889464933759 2.30788111657778
-0.201191480860742 0.194227209255572 2.33371513424169
-0.156112487943469 0.207243786774594 2.32281129816187
-0.119209350794145 0.191476826756786 2.34012387178149
-0.0714821263907698 0.194133899678138 2.33962571393458
-0.0211074785207054 0.194201670786817 2.34181775591498
0.0286851473901859 0.174112267117099 2.35880364108747
0.076506825716107 0.176655815334913 2.33832490495567
-0.298510444110296 -0.132488960419142 1.86615206047505
-0.261705072262279 -0.170256382974673 1.87157362248623
-0.215355030373883 -0.171199868838643 1.8550550662125
-0.171481175331598 -0.197311514480804 1.87785147210437
-0.121521613369994 -0.18148642742483 1.86437590023244
-0.0797029561521308 -0.194854326270006 1.87952697392245
-0.0379897223449453 -0.2095836203557 1.8960260516568
0.00851854397408115 -0.195429028961048 1.88405471102807
0.0517093388666717 -0.21390570453186 1.90904100752029
0.0973089063963492 -0.190586849772657 1.90632451256805
0.136017501554572 -0.189567686541473 1.94243087241206
-0.360196593094825 -0.0751525823744106 1.91231646496779
-0.336242322583046 -0.122099281636426 1.90079568645025
0.172001687760153 -0.150434838762041 1.95139465809635
0.192556894087363 -0.139115929911326 1.99728491032136
-0.378489951729423 -0.0592986489518579 1.95559585458802
0.209259630722114 -0.0929689717312072 2.013911374306
-0.38060491178932 -0.0105384187646971 1.96950065189111
0.208816273811474 -0.0773213008456606 2.06386330416369
-0.385355371141557 -0.00162869890711395 2.0132727554161
0.210093643182135 -0.027981905998806 2.08549181341969
-0.386433423616299 0.0302803072335148 2.0424943021065
0.205551127333885 -0.011000785676306 2.13281304078502
-0.388468524056557 0.0713631626915295 2.08530462519117
0.2066574591985 0.0340135678950671 2.15301557734251
-0.387822702362595 0.115147138232022 2.10839854969977
0.202237791400108 0.0508131891338664 2.19923214709606
-0.389604782615347 0.12935251252989 2.16083738493694
0.200294530022837 0.0995559680558113 2.21705424347068
-0.37278623343067 0.176495252553602 2.18170111737817
0.180932474342341 0.117011022326033 2.26365742921209
-0.353385213427144 0.186205822523703 2.22782285173062
-0.317841102007818 0.223348745902348 2.23972571925482
0.121253611702149 0.172978513354204 2.30886733338125
0.158826478643396 0.163493622616009 2.2727876520703
-0.282322496237623 0.221893245881717 2.2769562728074
-0.235489478499532 0.246140677506592 2.27516304411572
-0.193801732278812 0.229347675180744 2.29916934668236
-0.143042417043647 0.241468053399256 2.28940906391507
-0.103853639242676 0.224307046302201 2.30820922133146
-0.0555481802870152 0.22674206341298 2.30795721388477
-0.0074679832160932 0.227333576294535 2.30952601346798
0.0325008379253465 0.205349561567224 2.32860298993264
0.0841651841036392 0.207583770252793 2.30714255332201
-0.299188664333026 -0.0974542559732274 1.83932567330277
-0.254715722436711 -0.136351284452048 1.8381661024318
-0.206812583444954 -0.139546494711004 1.82349708654329
-0.16585860736257 -0.166382263719198 1.8473880472352
-0.115759486744833 -0.148409216880771 1.83183795634565
-0.0723254582633099 -0.159243117877728 1.84449322043039
-0.0327000337513413 -0.173524136257629 1.86045211093942
0.0110215748177594 -0.160107175853365 1.84910050340389
0.0550514070303469 -0.18119345018718 1.87586075217049
0.101966930173442 -0.158313195950517 1.87325214329307
0.138892833437543 -0.159929817893057 1.90929639735145
-0.35422845608169 -0.0397060785419537 1.88108720478366
-0.332929363760146 -0.087724247611766 1.8721887241571
0.173054655522303 -0.123681933565641 1.91581140377013
0.199038881078539 -0.106220348365421 1.9639162673552
-0.37176186360531 -0.0231442563919231 1.92233204485708
0.216768803712264 -0.0564603271511166 1.99189917521257
-0.373765264250894 0.0259036293920255 1.94189838521439
0.215201465598087 -0.0408586949158549 2.0363023333416
-0.378972878784514 0.0423510999438127 1.99058129230011
0.216807635711743 0.00705567699022412 2.05319878620639
-0.382332534567285 0.0715405941058255 2.03631191403858
0.212336270244834 0.0230154758770802 2.10046753359145
-0.380987470487231 0.115167652496205 2.05370397305478
0.213604454286992 0.068338317055167 2.11914308479566
-0.381893363840094 0.151924930184353 2.08475887656759
0.209097885263621 0.0854805243648141 2.16670638613388
-0.382624457119842 0.163009097246647 2.13384025967922
0.206798595191621 0.132505559027818 2.18531707760701
-0.36589628519316 0.209449552244355 2.15013210348517
0.18787405302075 0.148819479592515 2.23134908492183
-0.345920901212899 0.219567950069916 2.19654030679326
-0.311178096778002 0.256102466111665 2.20749014723016
0.128569238763155 0.205576149805464 2.27616194372609
0.165700025223734 0.196083688229641 2.2403165625027
-0.275946693613354 0.25451794604763 2.24465675946772
-0.229381031078916 0.278953650322306 2.24262625329203
-0.186029303072916 0.262678022260514 2.2664177408472
-0.137221356350951 0.273555789389241 2.25777601277471
-0.0898547377314093 0.258905583267718 2.2744774200851
-0.0398467607552084 0.259224994652443 2.27640287694389
0.00665637359840425 0.259096023160502 2.2786164466049
0.0453923316283637 0.236046465778815 2.29690904535438
0.0917626774720049 0.240217586971109 2.27449789564402
-0.261799920342943 -0.0998249696234158 1.81402389285884
-0.220274548127699 -0.104737733494838 1.80079347855961
-0.173811769865596 -0.102942845554619 1.79462016952404
-0.159417954894073 -0.135612158448649 1.81804432030048
-0.121771203854613 -0.109196596061464 1.80202475620087
-0.0752083167796209 -0.121079197814334 1.81280319114404
-0.0285178719829064 -0.132226880341317 1.82361327666463
0.0195311251695538 -0.122210216154009 1.82062616849759
0.0585723758461304 -0.149125623694348 1.84485629467445
0.103315412466335 -0.123552023742062 1.84356054914254
0.143528164862009 -0.126198687414887 1.87668901071513
-0.341352648863366 -0.00425402487252585 1.85400657805354
-0.325211882328375 -0.0519432336296658 1.84210584657262
0.192549586918808 -0.0864320134826664 1.9167854313147
0.210429362116864 -0.0621463768607039 1.94901392215329
-0.361506085481772 0.0143564234921724 1.89244749298974
0.216399492275866 -0.0183294643637272 1.95751232589263
-0.358130876158089 0.0597118303997735 1.91130466725492
0.219225160120941 -0.00432151245483714 2.00222007499218
-0.36781299217982 0.0756775047611236 1.95540255527157
0.216186568463673 0.0402085641088579 2.01881305606767
-0.374700138779749 0.0954131994314425 2.00025024512948
0.216416105259375 0.0578833713473552 2.065591544061
-0.368184387123003 0.141620238002291 2.0128094961366
0.213745885581197 0.101477250975025 2.08547105086772
-0.371015818512907 0.170699408406512 2.04722522005585
0.213611464331557 0.119357844883653 2.13193545545233
-0.374885244123486 0.194974521413256 2.10063883818788
0.208102225074738 0.162134043984179 2.15196020477219
-0.356659138047915 0.236581371184349 2.11353571530786
0.192674683988793 0.181451118056714 2.19910859796133
-0.339255635396594 0.25078225453483 2.16236849432494
-0.303344234242059 0.283594226122685 2.17268867652468
0.134155303553898 0.238130340724802 2.24205717926802
0.166092627494682 0.227882753876472 2.20568319244656
-0.26805750198845 0.286372443316799 2.21170962646294
-0.219158726332718 0.308064476687314 2.20531859645027
-0.182163339958694 0.295015098676333 2.23132269031188
-0.140211129633507 0.302521484635256 2.22040526773753
-0.0962646979305321 0.292971154273648 2.23521557227727
-0.0516894948374831 0.288494268080496 2.24206512768087
-0.00163592041286119 0.287384538773323 2.24398864663935
0.0500064093236675 0.269940604453192 2.26207153257658
0.0954633290168607 0.269149211560276 2.23965259686821
-0.286675827852589 -0.0589984949105445 1.81014380238427
-0.241222935049772 -0.0618231643210612 1.78811012553322
-0.193539214298075 -0.0643751981151598 1.77880125644036
-0.141743773342604 -0.0688103982176626 1.78223687724003
-0.0913434765859787 -0.0756292312418071 1.7894517364232
-0.0453661299157543 -0.0857034840636142 1.79748689766914
-0.00126815945030323 -0.0855761898273683 1.80164168358488
0.0458785113266619 -0.0758028981443103 1.80333271531915
0.0658449845378303 -0.110168824042718 1.82072285064505
0.0982920483491777 -0.0750619395029471 1.81805298006138
0.134484648624967 -0.0913161471016159 1.8457513698813
-0.306160854568134 -0.0164752135733366 1.81622604886162
-0.280428169329591 0.0241831794487478 1.80026281944913
-0.26355434263466 -0.0198780674541152 1.78917160238181
0.145196426676302 -0.0506327579702747 1.84100646906392
0.170809012147534 -0.0826403884315927 1.87795454541074
0.174719757458694 -0.0357149391490953 1.8683936574945
-0.337690622837382 0.0504394777518327 1.86293420960195
-0.318045126787381 0.0260907178516902 1.83022409732341
0.198674646964126 -0.0399664935999929 1.90651084443862
0.204414481298589 0.00297198427647161 1.92127054001358
-0.334100252269937 0.089474162519935 1.88727671013586
0.210407432059652 0.0311157171103877 1.96315424687375
-0.34388392351359 0.111613151108827 1.92551040306836
0.205734795183362 0.0698773796581549 1.98866714257681
-0.356384712190454 0.124572432753568 1.96451973526861
0.208425795791871 0.0929889572887484 2.02972586749795
-0.344947918103585 0.16446977538297 1.97618740367865
0.20389116663305 0.131602551642566 2.05492815946656
-0.348597886461493 0.194772932143237 2.01113106758713
0.206378565025652 0.154521813257458 2.09578094097852
-0.362097731048537 0.212948252942504 2.06284063690432
0.199157004300225 0.191661817214755 2.12035976193765
-0.327850804692562 0.273820043056972 2.12357865135515
-0.339789609331466 0.255838042833629 2.07586784418568
-0.308531973790673 0.288774434390814 2.08046870297407
0.189714217264078 0.209403973130219 2.16373249071348
0.176842233119149 0.233137258644428 2.11887738973406
0.163581757922889 0.24833725354339 2.1633662311737
-0.25986154425156 0.309399885986105 2.17367227817357
-0.293590818736663 0.301205813696413 2.13263213188948
-0.251492153168484 0.322436714029821 2.1305815309016
0.130939302097033 0.267057675604952 2.20151337745614
0.0990931694962634 0.297636755996913 2.16389766656619
0.0865495086339542 0.292744462615774 2.20300577665405
-0.212424285434478 0.325794658523514 2.16437117768128
-0.168591099241282 0.320696988938083 2.18456648124301
-0.115719448385661 0.3178833061432 2.1873049859319
-0.0713457596442348 0.312925441891254 2.19653174075352
-0.0275931285889773 0.309426309797848 2.20192025263858
0.0151349579375263 0.308076353548134 2.20156529643358
0.048065772891677 0.294448893712667 2.22566019659707
-0.214672511126415 -0.0216336662656612 1.77343420414664
-0.163428345307261 -0.026297292133806 1.77099533140272
-0.112735188948076 -0.0306413451152887 1.77717545632356
-0.0649474671500768 -0.0357353032030974 1.78328462814605
-0.0201853906057449 -0.0395416525071529 1.78890006378497
0.0239230233328272 -0.0356459596708318 1.79369080247004
0.0724990037735338 -0.0344103482908085 1.80160620452816
-0.236165239745949 0.0203390639525216 1.7798482133857
-0.208510886965344 0.0576701012669484 1.7822262653857
-0.184757319675768 0.0173656495364156 1.77087381971436
-0.134017460690056 0.013603473028384 1.77445792602311
-0.0863866730448899 0.0122655844763803 1.78069011131589
-0.0391846773523058 0.00858453814035318 1.78660304269629
0.0055811994494224 0.00985743621261426 1.79284089029543
0.0524801527946547 0.00887407125223178 1.79921092180842
0.10058646615312 0.0102619838853389 1.81399430422179
0.14747105736647 0.00218564271578162 1.84204917189337
0.115997198469972 -0.0301495361669269 1.81897639750912
-0.298078251304893 0.0655779387748334 1.82628186340929
-0.265661554631272 0.103764863912308 1.82690730430611
-0.255400764915709 0.0643003491705167 1.79884328754785
0.12393728985889 0.0446984925251738 1.83684645779559
0.181268984820984 0.0066919444481831 1.87958468280605
0.159901153137889 0.0465874619831738 1.86883018910443
-0.305662226777067 0.0980255137235243 1.85574331547782
-0.271947592965048 0.136362397157969 1.86141706427868
0.190032156547468 0.0442245856022872 1.91247467350671
0.162637783093488 0.0830400227414984 1.90126552100726
-0.310038890241034 0.132526075102408 1.89372522471715
-0.278750234620866 0.16848095764977 1.89782767514195
0.189220521322214 0.0761456490157494 1.94412379995303
0.160933190114535 0.116884700889869 1.93508055437719
-0.321013327601578 0.158894063984443 1.93267396909918
-0.283403900560226 0.198162017895566 1.93038029469876
0.188040508387136 0.110421156329359 1.97953748119161
0.160116502031808 0.149759947525992 1.96918931796061
-0.317574320660543 0.198599736697321 1.96583272769593
-0.281212295816036 0.233453258380975 1.9628823479823
0.18754026796227 0.140288377107842 2.01171805538609
0.159655619716964 0.181966684249463 2.00313375640223
-0.314522168358441 0.234754202424549 1.99650674758742
-0.28035637680772 0.270716146040364 1.999997606663
0.186698104948117 0.174021482922229 2.04740891715171
0.158651858903832 0.214348636971205 2.03644751878592
-0.338224168444681 0.235907493749648 2.03280103530644
-0.308581831895993 0.272564058358559 2.03603484668113
0.185186047637969 0.204310940303865 2.07903797721073
0.15559817801489 0.244213216060153 2.07167519304734
-0.275116852566366 0.312063984497262 2.09064286585876
-0.269949728355611 0.302367467373483 2.0428751201504
-0.237341412579337 0.324668001030472 2.07615386841184
0.133439515074286 0.278026006151769 2.15429826835869
0.147184098048496 0.265980014006558 2.1128794515588
0.107556436738976 0.293918433925704 2.11203110224433
-0.21290339711984 0.332929865142764 2.11588911968563
-0.187174347474841 0.332582578131812 2.08018398740612
-0.172452010701276 0.333299567738194 2.1346279488328
-0.14332149375725 0.331324284584154 2.09385122648984
-0.130073123128786 0.329336282193117 2.14416548089338
-0.0992671281833221 0.327769957431846 2.09934853077222
-0.0833276294430171 0.325929133807673 2.14727484529037
-0.0544674741625244 0.323960445391412 2.10310754083215
-0.0390990584097046 0.322253316062186 2.15364602055504
-0.0109506600437824 0.320287995622193 2.10712946669514
0.00537771963751045 0.31906383209018 2.15595105320798
0.033192730117999 0.317023630852056 2.11533602003209
0.0509425338312715 0.312318430482718 2.17132810089738
0.0708135810479472 0.310515065066637 2.12828096853425
-0.177434532029109 0.0909432465289099 1.7943820248541
-0.155234273727583 0.0558319461924335 1.78052124431954
-0.109522166412349 0.0580649801001451 1.78817428589577
-0.0608545525843082 0.0536657886583898 1.7940845549204
-0.0159700317608068 0.0553092118855293 1.80165956545116
0.0293846418141834 0.0543370679921409 1.8083966433902
0.0753405900807538 0.0501612280310615 1.81597122909106
-0.222437149377639 0.100067171313919 1.80566449201777
-0.179635223391128 0.127091217391029 1.81997983314076
-0.133824470718241 0.100954329349585 1.80549647289348
-0.082967751227247 0.0937056496453428 1.8098438439565
-0.0386704754714021 0.0969179329715736 1.8198143935122
0.0058215980285713 0.0967565854649258 1.82776852499559
0.0509574162116384 0.0936972351625267 1.83383650972467
0.0942614292337014 0.0837893971128592 1.8414494017091
0.128832177572021 0.0870232331245086 1.86655506833992
-0.227143435559893 0.135526641573669 1.83654714216747
-0.187094823616309 0.160573344136403 1.85336724743248
-0.141326359467113 0.143496185679845 1.8406164550856
-0.102259609281634 0.126973011257171 1.83205051048251
-0.0594838992167879 0.132302007951884 1.84617466839284
-0.0158122155782336 0.132901880451275 1.85582178144071
0.0322447861727695 0.129007762740356 1.8618085384892
0.0819891162776979 0.121013659132943 1.8683105689356
0.12663764342313 0.119569667571404 1.89735799348776
-0.233810048565769 0.167855433720324 1.87105463483744
-0.188591967899476 0.19272854681699 1.88574787790142
-0.142665269428561 0.177330777475244 1.87472563671099
-0.0962053633485968 0.160389434029333 1.86712177037283
-0.0492764490785203 0.167208923306487 1.8837630412507
0.000858317985710955 0.163067822223399 1.88992874666329
0.0486023945399567 0.158737352730665 1.89541934653533
0.090599169326245 0.150800875865602 1.90343359282055
0.125688898842846 0.154207639354431 1.93280961489609
-0.237110665417229 0.199171504846849 1.90334666547347
-0.190935711381187 0.223325868751636 1.91661604865901
-0.142081258469203 0.211437993064234 1.90950953338697
-0.0996659980422032 0.19319337759063 1.89974382511107
-0.0617925497241836 0.201986746829368 1.9165175508431
-0.0171469732867481 0.195898712107229 1.91956854572857
0.0308067280423421 0.192117132139026 1.92564792717609
0.0797712370194403 0.185618930385546 1.93369799174743
0.124838252637682 0.185308176929454 1.96464557413369
-0.240152646519269 0.229623353277607 1.93470363852772
-0.197096868064999 0.253613862282609 1.94750099389427
-0.147174320454083 0.243643206830292 1.94118499382405
-0.0980569287382818 0.231212299962086 1.93871612475695
-0.0465498442428522 0.231330036567702 1.94949348750821
0.00155748434331075 0.226494042518672 1.95453364106348
0.0479120977151222 0.222890424318419 1.96052337144278
0.0893089735755435 0.215665477650455 1.96967770810045
0.124245598358098 0.219387759334246 1.99985868558412
-0.244600512993628 0.262411345004679 1.96900801159198
-0.206596153835652 0.28444150027344 1.9801672353027
-0.159662317788964 0.277409788190609 1.97298370767856
-0.113150317225781 0.267085206407906 1.97205048068435
-0.0685532370969092 0.262495638583518 1.97661376855214
-0.0196236596799862 0.260177520769053 1.98438319804211
0.029130411524546 0.256409786378362 1.99064192095854
0.0781373045730877 0.250605000084033 1.99976394802526
0.122853987444095 0.249913210548435 2.03150975874498
-0.240182413963346 0.297083416160332 2.00817477443672
-0.183560536281085 0.306757277778367 2.00873458702158
-0.134880614686087 0.300178417937542 2.00731476108168
-0.0902969392354114 0.295235211297257 2.01080751034555
-0.0454784067977826 0.290986390230906 2.01544851257388
0.000846931944079241 0.287868786651745 2.0221735128248
0.0458723713912412 0.284827735065254 2.02884915098443
0.0864671378704493 0.278010145571568 2.03897420061365
0.118210669060812 0.277122939107122 2.07236492066063
-0.21516090795795 0.319135589777207 2.03943446752531
-0.160992816803152 0.322366024865721 2.04523069188126
-0.115272956886757 0.318784402448576 2.05124508470898
-0.0702547395800295 0.314635171181135 2.05541201012391
-0.02454498715588 0.310441501696211 2.05973049221536
0.0225466281837125 0.30717907449422 2.06708998856087
0.0693973282164953 0.301917519620748 2.0773348657076
3 0 1 2
3 0 2 4
3 3 0 4
3 3 4 6
3 5 3 6
3 5 6 8
3 7 5 8
3 7 8 10
3 9 7 10
3 9 10 12
3 11 9 12
3 13 11 14
3 14 11 12
3 13 14 15
3 16 17 18
3 16 18 1
3 0 19 1
3 19 16 1
3 0 3 20
3 19 0 20
3 3 5 21
3 20 3 21
3 5 7 22
3 21 5 22
3 7 9 23
3 22 7 23
3 9 11 24
3 23 9 24
3 24 11 25
3 25 11 13
3 13 15 26
3 27 13 26
3 25 13 27
3 27 26 28
3 17 16 30
3 30 16 29
3 29 19 31
3 29 16 19
3 31 20 32
3 31 19 20
3 32 21 33
3 32 20 21
3 21 22 33
3 33 22 34
3 22 23 34
3 34 23 35
3 23 24 35
3 35 24 36
3 24 25 36
3 36 25 37
3 37 27 38
3 37 25 27
3 38 28 39
3 38 27 28
3 30 40 41
3 30 29 40
3 29 31 42
3 40 29 42
3 31 32 43
3 42 31 43
3 32 33 44
3 43 32 44
3 33 34 45
3 44 33 45
3 34 35 46
3 45 34 46
3 35 36 47
3 46 35 47
3 36 37 47
3 47 37 48
3 37 38 48
3 48 38 49
3 49 39 50
3 49 38 39
3 40 51 52
3 41 40 52
3 51 42 53
3 51 40 42
3 42 43 53
3 53 43 54
3 43 44 54
3 54 44 55
3 44 45 55
3 55 45 56
3 45 46 56
3 56 46 57
3 46 47 58
3 57 46 58
3 47 48 59
3 58 47 59
3 48 49 60
3 59 48 60
3 49 50 61
3 60 49 61
3 51 62 63
3 52 51 63
3 51 53 64
3 62 51 64
3 53 54 65
3 64 53 65
3 54 55 66
3 65 54 66
3 55 56 67
3 66 55 67
3 56 57 67
3 67 57 68
3 57 58 69
3 68 57 69
3 58 59 69
3 69 59 70
3 59 60 70
3 70 60 71
3 71 61 72
3 71 60 61
3 62 73 74
3 63 62 74
3 62 64 75
3 73 62 75
3 64 65 75
3 75 65 76
3 65 66 76
3 76 66 77
3 66 67 77
3 77 67 78
3 67 68 78
3 78 68 79
3 79 69 80
3 79 68 69
3 80 70 81
3 80 69 70
3 81 71 82
3 81 70 71
3 82 72 83
3 82 71 72
3 74 73 85
3 85 73 84
3 84 73 86
3 86 73 75
3 75 76 86
3 86 76 87
3 76 77 88
3 87 76 88
3 77 78 89
3 88 77 89
3 78 79 90
3 89 78 90
3 79 80 91
3 90 79 91
3 80 81 92
3 91 80 92
3 81 82 93
3 92 81 93
3 93 83 94
3 93 82 83
3 84 95 85
3 84 86 96
3 97 84 96
3 95 84 97
3 96 87 98
3 96 86 87
3 87 88 98
3 98 88 99
3 88 89 99
3 99 89 100
3 89 90 100
3 100 90 101
3 101 91 102
3 101 90 91
3 102 92 103
3 102 91 92
3 92 93 103
3 105 103 104
3 103 93 104
3 93 94 104
3 96 106 97
3 96 98 107
3 106 96 107
3 98 99 108
3 107 98 108
3 99 100 109
3 108 99 109
3 100 101 110
3 109 100 110
3 101 102 111
3 110 101 111
3 111 102 112
3 112 102 103
3 103 105 112
3 117 114 115
3 116 113 117
3 117 113 114
3 116 117 119
3 118 116 119
3 118 119 121
3 120 118 121
3 120 121 123
3 122 120 123
3 122 123 125
3 124 122 125
3 124 125 127
3 126 124 127
3 126 127 128
3 129 130 131
3 114 129 131
3 114 113 129
3 113 2 129
3 129 2 1
3 4 113 116
3 4 2 113
3 6 116 118
3 6 4 116
3 8 118 120
3 8 6 118
3 10 120 122
3 10 8 120
3 12 122 124
3 12 10 122
3 14 124 126
3 14 12 124
3 133 126 128
3 15 14 126
3 15 126 133
3 132 15 133
3 132 133 134
3 135 136 137
3 137 17 135
3 137 18 17
3 18 137 130
3 129 18 130
3 18 129 1
3 15 132 26
3 139 132 134
3 139 138 132
3 138 28 26
3 132 138 26
3 138 139 140
3 136 135 142
3 142 135 141
3 17 30 135
3 135 30 141
3 143 39 28
3 138 143 28
3 143 140 144
3 143 138 140
3 141 145 146
3 142 141 146
3 41 145 141
3 30 41 141
3 147 39 143
3 147 50 39
3 147 144 148
3 147 143 144
3 145 149 150
3 146 145 150
3 52 149 145
3 41 52 145
3 151 50 147
3 151 155 50
3 151 148 152
3 151 147 148
3 149 153 154
3 150 149 154
3 63 153 149
3 52 63 149
3 155 61 50
3 155 72 61
3 155 151 156
3 156 151 152
3 154 157 158
3 154 153 157
3 74 157 153
3 63 74 153
3 159 72 155
3 159 83 72
3 159 156 160
3 159 155 156
3 158 157 162
3 162 157 161
3 74 85 161
3 157 74 161
3 163 83 159
3 163 94 83
3 163 160 164
3 163 159 160
3 161 165 162
3 165 95 166
3 165 161 95
3 161 85 95
3 165 166 167
3 95 97 166
3 105 104 168
3 170 94 163
3 170 168 94
3 169 168 170
3 94 168 104
3 163 164 170
3 166 171 167
3 173 171 172
3 172 171 106
3 171 97 106
3 171 166 97
3 172 107 174
3 172 106 107
3 174 108 175
3 174 107 108
3 175 109 176
3 175 108 109
3 176 110 177
3 176 109 110
3 177 111 178
3 177 110 111
3 178 112 180
3 178 111 112
3 181 105 168
3 181 180 105
3 179 178 180
3 180 112 105
3 168 169 181
3 172 182 173
3 182 172 183
3 183 172 174
3 174 175 184
3 183 174 184
3 175 176 185
3 184 175 185
3 176 177 186
3 185 176 186
3 177 178 187
3 186 177 187
3 187 179 188
3 187 178 179
3 179 180 229
3 189 190 191
3 114 131 191
3 115 114 191
3 115 191 192
3 115 192 193
3 117 115 193
3 119 193 194
3 119 117 193
3 119 194 121
3 121 194 195
3 121 195 123
3 123 195 196
3 123 196 125
3 125 196 197
3 127 197 198
3 127 125 197
3 128 198 199
3 200 128 199
3 128 127 198
3 200 199 201
3 202 203 204
3 131 130 189
3 190 189 204
3 189 130 202
3 189 202 204
3 131 189 191
3 128 200 133
3 134 200 205
3 206 205 201
3 134 133 200
3 205 200 201
3 205 206 207
3 136 208 203
3 202 137 136
3 202 136 203
3 137 202 130
3 134 205 139
3 139 205 207
3 140 139 207
3 211 207 209
3 136 142 208
3 208 142 210
3 211 140 207
3 211 144 140
3 146 212 210
3 142 146 210
3 148 144 213
3 213 144 211
3 150 214 212
3 146 150 212
3 215 148 213
3 215 152 148
3 154 216 150
3 150 216 214
3 219 152 217
3 217 152 215
3 158 218 216
3 154 158 216
3 219 156 152
3 219 160 156
3 158 220 218
3 158 162 220
3 221 160 219
3 221 164 160
3 162 165 222
3 223 220 222
3 220 162 222
3 165 167 222
3 169 170 224
3 225 164 221
3 224 170 164
3 224 164 225
3 222 226 223
3 167 171 227
3 226 167 227
3 226 227 228
3 226 222 167
3 171 173 227
3 180 181 229
3 181 169 230
3 231 169 224
3 230 169 231
3 230 229 181
3 224 225 271
3 227 232 228
3 232 182 233
3 232 173 182
3 227 173 232
3 182 183 234
3 233 182 234
3 183 184 234
3 234 184 235
3 184 185 235
3 235 185 236
3 185 186 236
3 236 186 237
3 186 187 237
3 237 187 238
3 238 188 239
3 238 187 188
3 188 179 229
3 240 239 188
3 240 188 229
3 229 230 240
3 191 190 242
3 242 190 241
3 192 242 243
3 192 191 242
3 192 243 244
3 193 192 244
3 194 244 245
3 194 193 244
3 194 245 246
3 195 194 246
3 195 246 247
3 196 195 247
3 196 247 248
3 197 196 248
3 197 248 249
3 198 197 249
3 199 198 249
3 250 199 249
3 201 199 251
3 251 199 250
3 204 252 253
3 204 203 252
3 190 253 241
3 190 204 253
3 206 251 254
3 206 201 251
3 207 206 255
3 255 206 254
3 203 256 252
3 203 208 256
3 257 209 255
3 255 209 207
3 210 258 208
3 208 258 256
3 211 209 259
3 259 209 257
3 212 260 210
3 210 260 258
3 213 211 259
3 261 213 259
3 214 262 260
3 212 214 260
3 215 213 261
3 263 215 261
3 216 264 214
3 214 264 262
3 217 215 263
3 265 217 263
3 218 266 264
3 216 218 264
3 219 217 265
3 267 219 265
3 218 268 266
3 218 220 268
3 221 219 267
3 269 221 267
3 223 270 268
3 220 223 268
3 225 221 269
3 271 225 269
3 223 226 272
3 270 223 272
3 272 228 273
3 272 226 228
3 274 231 275
3 274 230 231
3 275 231 271
3 271 231 224
3 273 228 276
3 276 228 232
3 276 233 277
3 276 232 233
3 233 234 278
3 277 233 278
3 234 235 279
3 278 234 279
3 235 236 280
3 279 235 280
3 236 237 281
3 280 236 281
3 237 238 282
3 281 237 282
3 238 239 283
3 282 238 283
3 327 239 284
3 284 239 240
3 240 230 274
3 284 240 274
3 241 285 286
3 242 241 286
3 242 286 243
3 243 286 287
3 243 287 288
3 244 243 288
3 245 288 289
3 245 244 288
3 245 289 246
3 246 289 290
3 246 290 247
3 247 290 291
3 247 291 248
3 248 291 292
3 248 292 293
3 249 248 293
3 249 293 250
3 250 293 294
3 250 294 295
3 251 250 295
3 252 296 297
3 253 252 297
3 241 297 285
3 241 253 297
3 254 295 298
3 254 251 295
3 254 298 299
3 255 254 299
3 256 300 252
3 252 300 296
3 257 255 299
3 301 257 299
3 258 302 300
3 256 258 300
3 259 257 303
3 303 257 301
3 260 304 258
3 258 304 302
3 261 259 303
3 305 261 303
3 262 306 304
3 260 262 304
3 263 261 305
3 307 263 305
3 264 308 262
3 262 308 306
3 265 263 307
3 309 265 307
3 266 310 308
3 264 266 308
3 267 265 309
3 311 267 309
3 266 312 310
3 266 268 312
3 269 267 311
3 313 269 311
3 270 314 312
3 268 270 312
3 271 269 315
3 315 269 313
3 270 272 316
3 314 270 316
3 316 273 317
3 316 272 273
3 318 275 319
3 318 274 275
3 275 271 315
3 319 275 315
3 273 276 320
3 317 273 320
3 276 277 320
3 320 277 321
3 277 278 322
3 321 277 322
3 322 279 323
3 322 278 279
3 279 280 323
3 323 280 324
3 280 281 324
3 324 281 325
3 281 282 325
3 325 282 326
3 282 283 326
3 326 283 327
3 283 239 327
3 327 284 328
3 284 274 318
3 328 284 318
3 285 329 330
3 286 285 330
3 286 330 287
3 287 330 331
3 287 331 332
3 288 287 332
3 288 332 289
3 289 332 333
3 289 333 334
3 290 289 334
3 290 334 335
3 291 290 335
3 291 335 292
3 292 335 336
3 292 336 337
3 293 292 337
3 293 337 294
3 294 337 338
3 294 338 339
3 295 294 339
3 296 340 341
3 297 296 341
3 285 341 329
3 285 297 341
3 298 339 342
3 298 295 339
3 298 342 343
3 299 298 343
3 300 344 296
3 296 344 340
3 301 299 343
3 345 301 343
3 302 346 344
3 300 302 344
3 303 301 347
3 347 301 345
3 304 348 302
3 302 348 346
3 305 303 347
3 349 305 347
3 306 350 348
3 304 306 348
3 307 305 351
3 351 305 349
3 308 352 306
3 306 352 350
3 309 307 353
3 353 307 351
3 310 354 352
3 308 310 352
3 311 309 355
3 355 309 353
3 312 356 310
3 310 356 354
3 313 311 355
3 357 313 355
3 314 358 356
3 312 314 356
3 315 313 359
3 359 313 357
3 314 316 360
3 358 314 360
3 360 317 361
3 360 316 317
3 362 319 363
3 362 318 319
3 319 315 359
3 363 319 359
3 317 320 364
3 361 317 364
3 320 321 364
3 364 321 365
3 321 322 366
3 365 321 366
3 322 323 366
3 366 323 367
3 323 324 368
3 367 323 368
3 324 325 369
3 368 324 369
3 325 326 370
3 369 325 370
3 326 327 371
3 370 326 371
3 327 328 371
3 371 328 372
3 328 318 362
3 372 328 362
3 329 373 374
3 330 329 374
3 330 374 331
3 331 374 375
3 331 375 376
3 332 331 376
3 332 376 333
3 333 376 377
3 333 377 378
3 334 333 378
3 334 378 379
3 335 334 379
3 335 379 336
3 336 379 380
3 336 380 381
3 337 336 381
3 337 381 338
3 338 381 382
3 338 382 383
3 339 338 383
3 340 384 385
3 341 340 385
3 329 385 373
3 329 341 385
3 342 383 386
3 342 339 383
3 342 386 387
3 343 342 387
3 344 388 340
3 340 388 384
3 345 343 387
3 389 345 387
3 346 390 388
3 344 346 388
3 347 345 391
3 391 345 389
3 348 392 346
3 346 392 390
3 349 347 391
3 393 349 391
3 350 394 348
3 348 394 392
3 351 349 395
3 395 349 393
3 352 396 350
3 350 396 394
3 353 351 395
3 397 353 395
3 354 398 396
3 352 354 396
3 355 353 399
3 399 353 397
3 356 400 354
3 354 400 398
3 357 355 399
3 401 357 399
3 358 402 400
3 356 358 400
3 359 357 403
3 403 357 401
3 358 360 404
3 402 358 404
3 404 361 405
3 404 360 361
3 406 363 407
3 406 362 363
3 363 359 403
3 407 363 403
3 361 364 408
3 405 361 408
3 364 365 408
3 408 365 409
3 365 366 410
3 409 365 410
3 366 367 410
3 410 367 411
3 367 368 412
3 411 367 412
3 368 369 412
3 412 369 413
3 369 370 413
3 413 370 414
3 370 371 415
3 414 370 415
3 371 372 415
3 415 372 416
3 372 362 406
3 416 372 406
3 373 417 418
3 374 373 418
3 374 418 375
3 375 418 419
3 375 419 420
3 376 375 420
3 376 420 377
3 377 420 421
3 377 421 422
3 378 377 422
3 378 422 423
3 379 378 423
3 380 423 424
3 380 379 423
3 380 424 425
3 381 380 425
3 382 425 426
3 382 381 425
3 382 426 427
3 383 382 427
3 384 428 429
3 385 384 429
3 373 429 417
3 373 385 429
3 386 427 430
3 386 383 427
3 386 430 431
3 387 386 431
3 384 432 428
3 384 388 432
3 389 387 431
3 433 389 431
3 390 434 432
3 388 390 432
3 435 389 433
3 435 391 389
3 390 436 434
3 390 392 436
3 393 391 435
3 437 393 435
3 394 438 436
3 392 394 436
3 395 393 439
3 439 393 437
3 396 440 438
3 394 396 438
3 397 395 439
3 441 397 439
3 398 442 440
3 396 398 440
3 399 397 443
3 443 397 441
3 400 444 398
3 398 444 442
3 401 399 443
3 445 401 443
3 402 446 444
3 400 402 444
3 403 401 447
3 447 401 445
3 402 404 448
3 446 402 448
3 448 405 449
3 448 404 405
3 450 407 451
3 450 406 407
3 407 403 447
3 451 407 447
3 405 408 452
3 449 405 452
3 408 409 452
3 452 409 453
3 409 410 454
3 453 409 454
3 410 411 454
3 454 411 455
3 411 412 456
3 455 411 456
3 412 413 456
3 456 413 457
3 457 414 458
3 457 413 414
3 414 415 459
3 458 414 459
3 415 416 459
3 459 416 460
3 416 406 450
3 460 416 450
3 418 461 462
3 418 417 461
3 419 462 463
3 419 418 462
3 419 463 464
3 420 419 464
3 420 464 421
3 421 464 465
3 421 465 466
3 422 421 466
3 422 466 467
3 423 422 467
3 424 467 468
3 424 423 467
3 424 468 469
3 425 424 469
3 426 469 470
3 426 425 469
3 427 426 471
3 471 426 470
3 429 428 473
3 473 428 472
3 417 473 505
3 417 429 473
3 430 427 471
3 520 430 471
3 431 474 475
3 431 430 474
3 428 476 472
3 428 432 476
3 433 431 475
3 477 433 475
3 434 478 476
3 432 434 476
3 479 433 477
3 479 435 433
3 434 480 478
3 434 436 480
3 437 435 479
3 481 437 479
3 438 482 436
3 436 482 480
3 439 437 483
3 483 437 481
3 440 484 482
3 438 440 482
3 441 439 483
3 485 441 483
3 442 486 440
3 440 486 484
3 443 441 487
3 487 441 485
3 444 488 442
3 442 488 486
3 445 443 487
3 489 445 487
3 444 446 488
3 488 446 490
3 491 445 489
3 491 447 445
3 490 446 492
3 492 446 448
3 492 449 493
3 492 448 449
3 494 451 495
3 494 450 451
3 451 447 491
3 495 451 491
3 449 452 496
3 493 449 496
3 496 453 497
3 496 452 453
3 453 454 498
3 497 453 498
3 498 455 499
3 498 454 455
3 455 456 500
3 499 455 500
3 456 457 501
3 500 456 501
3 457 458 502
3 501 457 502
3 458 459 503
3 502 458 503
3 503 460 504
3 503 459 460
3 504 460 494
3 494 460 450
3 461 505 506
3 462 461 506
3 507 463 462
3 507 462 506
3 465 463 508
3 508 463 507
3 464 463 465
3 465 508 509
3 465 509 466
3 466 509 510
3 466 510 467
3 467 510 511
3 467 511 468
3 468 511 512
3 468 512 513
3 469 468 513
3 469 513 470
3 515 470 514
3 470 513 514
3 470 515 471
3 472 516 473
3 518 516 517
3 518 505 516
3 461 417 505
3 505 473 516
3 505 518 506
3 515 514 519
3 474 430 520
3 521 520 519
3 520 471 515
3 520 515 519
3 474 520 524
3 476 522 472
3 516 472 523
3 472 522 523
3 516 523 517
3 520 521 524
3 477 475 524
3 524 475 474
3 525 477 524
3 478 526 522
3 476 478 522
3 527 477 525
3 527 479 477
3 478 528 526
3 478 480 528
3 481 479 527
3 529 481 527
3 482 530 480
3 480 530 528
3 483 481 531
3 531 481 529
3 484 532 530
3 482 484 530
3 485 483 531
3 533 485 531
3 486 534 484
3 484 534 532
3 535 485 533
3 535 487 485
3 486 536 534
3 486 488 536
3 537 489 535
3 535 489 487
3 490 538 539
3 536 490 539
3 488 490 536
3 538 540 539
3 541 542 543
3 541 489 537
3 542 541 537
3 541 491 489
3 490 492 538
3 545 493 544
3 538 492 493
3 538 493 545
3 540 538 545
3 544 546 545
3 547 548 549
3 543 495 541
3 547 494 495
3 547 495 543
3 608 547 543
3 495 491 541
3 493 496 544
3 544 497 550
3 546 544 550
3 544 496 497
3 550 497 551
3 551 497 498
3 498 499 551
3 551 499 552
3 499 500 552
3 552 500 553
3 500 501 553
3 553 501 554
3 554 502 555
3 554 501 502
3 502 503 556
3 555 502 556
3 503 504 556
3 549 504 547
3 556 504 549
3 504 494 547
3 506 557 507
3 507 557 558
3 508 507 558
3 508 558 559
3 509 508 559
3 509 559 560
3 510 509 560
3 510 560 561
3 511 510 561
3 511 561 562
3 512 511 562
3 514 512 563
3 563 512 562
3 513 512 514
3 517 564 518
3 518 564 557
3 566 564 565
3 557 564 566
3 557 506 518
3 558 566 567
3 558 557 566
3 559 567 568
3 559 558 567
3 560 568 569
3 560 559 568
3 561 569 570
3 561 560 569
3 562 570 571
3 562 561 570
3 563 562 571
3 572 563 571
3 574 514 563
3 572 574 563
3 573 519 574
3 574 519 514
3 519 573 521
3 522 575 523
3 577 575 576
3 577 517 575
3 564 517 577
3 575 517 523
3 564 577 565
3 573 574 572
3 521 573 579
3 580 573 578
3 579 573 580
3 579 524 521
3 524 579 525
3 522 581 575
3 522 526 581
3 576 581 582
3 576 575 581
3 583 580 584
3 583 579 580
3 583 525 579
3 583 527 525
3 526 585 581
3 526 528 585
3 582 585 586
3 582 581 585
3 587 584 588
3 587 583 584
3 587 527 583
3 587 529 527
3 528 589 585
3 528 530 589
3 586 589 590
3 586 585 589
3 591 588 592
3 591 587 588
3 591 529 587
3 591 531 529
3 532 593 589
3 530 532 589
3 590 593 594
3 590 589 593
3 595 592 596
3 595 591 592
3 595 531 591
3 595 533 531
3 534 597 593
3 532 534 593
3 594 597 598
3 594 593 597
3 599 596 600
3 599 595 596
3 599 533 595
3 599 535 533
3 534 601 597
3 534 536 601
3 602 597 601
3 602 598 597
3 603 599 600
3 604 603 600
3 603 535 599
3 603 537 535
3 536 539 601
3 606 540 605
3 606 602 540
3 602 601 539
3 540 602 539
3 605 607 606
3 608 609 610
3 608 543 609
3 604 542 603
3 609 543 542
3 609 542 604
3 542 537 603
3 540 545 605
3 605 546 607
3 612 607 611
3 605 545 546
3 607 546 611
3 612 613 614
3 612 611 613
3 614 615 616
3 614 613 615
3 616 617 618
3 616 615 617
3 618 619 620
3 618 617 619
3 620 621 622
3 620 619 621
3 622 623 624
3 622 621 623
3 610 548 608
3 624 623 548
3 624 548 610
3 548 623 549
3 548 547 608
3 546 550 611
3 611 550 613
3 613 550 551
3 551 552 615
3 613 551 615
3 552 553 617
3 615 552 617
3 553 554 619
3 617 553 619
3 554 555 621
3 619 554 621
3 621 555 623
3 623 555 556
3 556 549 623
3 565 625 626
3 567 566 626
3 626 566 565
3 567 626 627
3 568 567 627
3 568 627 628
3 569 568 628
3 569 628 629
3 570 569 629
3 570 629 630
3 571 570 630
3 572 571 631
3 631 571 630
3 572 631 578
3 576 632 577
3 625 632 633
3 565 577 632
3 565 632 625
3 625 633 634
3 626 625 634
3 626 634 627
3 627 634 635
3 627 635 628
3 628 635 636
3 628 636 629
3 629 636 637
3 629 637 630
3 630 637 638
3 631 638 639
3 631 630 638
3 640 578 639
3 578 573 572
3 578 631 639
3 578 640 580
3 576 641 632
3 576 582 641
3 633 641 642
3 633 632 641
3 633 642 643
3 634 633 643
3 634 643 644
3 635 634 644
3 635 644 645
3 636 635 645
3 636 645 646
3 637 636 646
3 637 646 647
3 638 637 647
3 638 647 648
3 639 638 648
3 640 648 649
3 640 639 648
3 584 580 640
3 649 584 640
3 582 650 641
3 582 586 650
3 642 650 651
3 642 641 650
3 642 651 652
3 643 642 652
3 643 652 653
3 644 643 653
3 644 653 645
3 645 653 654
3 645 654 646
3 646 654 655
3 646 655 647
3 647 655 656
3 647 656 648
3 648 656 657
3 648 657 649
3 649 657 658
3 588 584 649
3 658 588 649
3 586 659 650
3 586 590 659
3 650 659 651
3 651 659 660
3 651 660 661
3 652 651 661
3 652 661 662
3 653 652 662
3 653 662 654
3 654 662 663
3 654 663 664
3 655 654 664
3 655 664 665
3 656 655 665
3 656 665 666
3 657 656 666
3 657 666 658
3 658 666 667
3 592 588 658
3 667 592 658
3 590 668 659
3 590 594 668
3 660 668 669
3 660 659 668
3 660 669 670
3 661 660 670
3 661 670 671
3 662 661 671
3 662 671 663
3 663 671 672
3 663 672 664
3 664 672 673
3 664 673 665
3 665 673 674
3 665 674 666
3 666 674 675
3 666 675 667
3 667 675 676
3 596 592 667
3 676 596 667
3 594 677 668
3 594 598 677
3 668 677 669
3 669 677 678
3 669 678 679
3 670 669 679
3 670 679 680
3 671 670 680
3 671 680 681
3 672 671 681
3 672 681 682
3 673 672 682
3 673 682 683
3 674 673 683
3 674 683 684
3 675 674 684
3 676 684 685
3 676 675 684
3 600 596 676
3 685 600 676
3 598 686 677
3 598 602 606
3 678 686 687
3 678 677 686
3 678 687 679
3 679 687 688
3 679 688 680
3 680 688 689
3 680 689 681
3 681 689 690
3 681 690 682
3 682 690 691
3 683 691 692
3 683 682 691
3 684 692 693
3 684 683 692
3 685 693 694
3 685 684 693
3 694 604 685
3 685 604 600
3 598 606 686
3 606 607 695
3 686 606 695
3 686 695 687
3 688 687 696
3 696 687 695
3 688 696 697
3 689 688 697
3 689 697 698
3 690 689 698
3 690 698 699
3 691 690 699
3 691 699 700
3 692 691 700
3 692 700 701
3 693 692 701
3 610 609 694
3 701 610 694
3 701 694 693
3 609 604 694
3 607 612 695
3 695 612 696
3 696 612 614
3 614 616 697
3 696 614 697
3 616 618 698
3 697 616 698
3 618 620 699
3 698 618 699
3 620 622 700
3 699 620 700
3 622 624 701
3 700 622 701
3 624 610 701
