OFF
702 1400 0
-0.250432295366409 -0.354128610307759 2.11028642095689
-0.296042015978544 -0.339815247114087 2.0934681703413
-0.267772838388163 -0.357128982039141 2.0647723095717
-0.203474029354608 -0.360465645793285 2.11447760890545
-0.221697833032727 -0.367635587024193 2.06924150795448
-0.156604435523134 -0.364760526531115 2.11723458270302
-0.17525414856521 -0.371447550589963 2.07100765824676
-0.111170387911775 -0.368499718976415 2.12123473451337
-0.129878079086172 -0.375044565102095 2.07249117778928
-0.0662229954649609 -0.372072262041871 2.12560383582571
-0.0850669641598601 -0.378415813853679 2.07679315953213
-0.018670657025034 -0.375029917284482 2.13291523612664
-0.0392231164285295 -0.381665357248919 2.08495899696065
0.0294002554783413 -0.370556139174912 2.14142833201
0.00813170069889532 -0.383242082216712 2.09375090626433
0.054566707873921 -0.374372952088911 2.10297107597163
-0.318906218224471 -0.313362853474147 2.12350130722999
-0.348893366893175 -0.294644172888045 2.09727042135405
-0.327437163368805 -0.32253022976113 2.06692742428073
-0.27823773820021 -0.330075759960428 2.14208586230395
-0.231414674740604 -0.339279862656091 2.15339820352164
-0.183649555114848 -0.344238515659914 2.15679234443283
-0.136824757348983 -0.347929867190199 2.16180427450672
-0.0915560385133332 -0.351120037943171 2.16730204528639
-0.0471931505705277 -0.356100391941346 2.16943699175573
0.00147894714594753 -0.356761003990597 2.17653518621618
0.0751853427277934 -0.354230949630751 2.14801403667292
0.0465462742061988 -0.344592797585149 2.18494833868827
0.0924032076243057 -0.323778782083227 2.18382940697763
-0.306097470482553 -0.295039631754289 2.16627300530347
-0.346523040980751 -0.273317209554064 2.13969861829925
-0.259938182220752 -0.309031425216715 2.18285049814373
-0.209905196023913 -0.315278656850883 2.19040490435044
-0.162247076821214 -0.31935275506416 2.19525307130403
-0.114582465434183 -0.321653484241778 2.2021835871993
-0.0698339053907263 -0.324230485143079 2.2081997396568
-0.0274892473277668 -0.332982716526551 2.20648796737603
0.0137798496723488 -0.324916370515742 2.21755277870877
0.0592845168494005 -0.311072516975512 2.21972034007177
0.103823284537067 -0.28786493015636 2.21452189252509
-0.324720716960805 -0.259388879912752 2.18927269818715
-0.358174932493148 -0.236663925221422 2.16426311741512
-0.283537024713506 -0.275124171324867 2.20937586418297
-0.234383760766162 -0.285833729696 2.21980307439558
-0.185578536928214 -0.287894783411063 2.22743948681972
-0.138064685866624 -0.292364976640188 2.23179475475537
-0.0865357027021206 -0.293176131753902 2.24125219068768
-0.031577711493943 -0.301968562959199 2.24204037839501
0.0187980142662345 -0.294656773253444 2.2516973934325
0.0690911770452485 -0.278474826597479 2.25125424886566
0.113522851945519 -0.251399091973843 2.24491915067012
-0.308975362624902 -0.237805832819279 2.23322042952789
-0.349719523875178 -0.218511347604306 2.20339955042782
-0.259514426549731 -0.255323668708418 2.24691309056689
-0.212056350513236 -0.257713452968762 2.2574935381521
-0.16648346176269 -0.258704554609048 2.26553716236441
-0.122450772903499 -0.266041506466388 2.26582622338353
-0.0890258584241573 -0.254929883672454 2.28561139227171
-0.0540061444250165 -0.272931047779491 2.27157090039251
-0.0117054980597512 -0.269612497035918 2.28253262434648
0.0361240898717674 -0.262603269458081 2.28418773040447
0.0839458638411158 -0.242997702285761 2.28110592293543
-0.312506300784297 -0.199945398581242 2.27589152608073
-0.340606908362312 -0.200271112006203 2.24101250118737
-0.279320605426801 -0.225670600216007 2.27155319235796
-0.232184005452142 -0.22850020225609 2.28768741725795
-0.187430061810207 -0.227384431544102 2.29804507945619
-0.13845380968048 -0.232056868760478 2.30245739549025
-0.0930516269219743 -0.226693450622643 2.31792049649367
-0.0454999823852465 -0.239202262871777 2.31285319652538
0.00253219808999119 -0.238779158376358 2.31815656888457
0.0502068861768284 -0.230694118897194 2.31508009193143
0.0973991643830936 -0.20756496951152 2.3093157163887
-0.302090199305465 -0.177642363487268 2.312630731687
-0.346431976155641 -0.163246416134141 2.27842630712562
-0.263147257326578 -0.201474046562596 2.30922752352025
-0.217204208064961 -0.195926010443988 2.3289298740595
-0.167104766272679 -0.200173325889963 2.33406884989172
-0.121285880901754 -0.199996469969815 2.34353279618011
-0.0696966113473285 -0.203795245006814 2.34949773977239
-0.024677346308337 -0.209904110330074 2.35103702753344
0.0216651444911954 -0.206547012043582 2.35236634261652
0.0654915670285372 -0.198213828317734 2.34376453393638
0.101590002621683 -0.172082136304218 2.34425750070835
-0.297659384577664 -0.140177226449286 2.35087282156939
-0.331499612951573 -0.147179165799082 2.31729370033396
-0.263905107607512 -0.169656027115456 2.34444533508505
-0.229410560720292 -0.158538621420495 2.36291522754979
-0.186576818665204 -0.166716095484934 2.36395627725253
-0.141434370214434 -0.166925952147899 2.37161207878147
-0.0941756498415379 -0.170170936535669 2.37724438337547
-0.0455083430784458 -0.174162256648429 2.38254459706782
0.00281411559614601 -0.176865532444343 2.38398475977168
0.054312573642427 -0.170134139465104 2.37666321339032
0.101312269742586 -0.138020475581039 2.37082416951019
-0.339263313786402 -0.109147749588773 2.33670249185702
-0.260596206336383 -0.122077128925117 2.37789273086366
-0.304421845510565 -0.0973920826617171 2.36865427607143
-0.211100872401966 -0.122773233753807 2.38702822853965
-0.16500124467791 -0.127403033832653 2.39177099744962
-0.118296705205573 -0.128380526720077 2.39826596468064
-0.0724337165580933 -0.132883025701983 2.40304204091946
-0.0257019455450317 -0.137276043019806 2.40770540084854
0.020975096171739 -0.138370465908347 2.40549673629459
0.0652243258186899 -0.131052758453758 2.39566192352258
0.0466178305153838 -0.0934902457340132 2.41470515160259
-0.277772817487514 -0.0713070730099264 2.38823903603658
-0.235211008979613 -0.0806395210336683 2.39755488164612
-0.186143501839418 -0.0824486916336523 2.40359568372757
-0.140360151947045 -0.0835386196793871 2.40931336459376
-0.0940432418706132 -0.0849414116971436 2.41501474622689
-0.0493937111133731 -0.0915702087325409 2.41951014910336
-0.00163212085230136 -0.09568873756783 2.42214181776913
-0.245812951137157 -0.362182111274415 2.02508648936026
-0.269806996623336 -0.346244048836197 1.99060039761412
-0.24640633700041 -0.336893399982917 1.95352326131378
-0.196135172856509 -0.368248232293694 2.0252627700407
-0.217924210188384 -0.356887947853068 1.98486231191733
-0.150054773767328 -0.370672790931319 2.02439029127621
-0.169779189810982 -0.356581502589775 1.97924746194959
-0.104606939038679 -0.3735095846683 2.02669589787128
-0.12445178076291 -0.357929763561147 1.97979245675861
-0.0592278202216626 -0.377295999905322 2.03411734517245
-0.0768292179463954 -0.361644184372858 1.98565321292319
-0.0142568864287345 -0.381470003240873 2.04420745027333
-0.0310483757446083 -0.366613357283053 1.99452073235557
0.0318019797111809 -0.380286577221778 2.0527685727326
0.0132278110595281 -0.371200754568541 2.00550626253077
0.0611021284576181 -0.36451239751185 2.01487588421733
-0.297536288029486 -0.342878053726474 2.0342126075333
-0.336299954476725 -0.311744502474247 2.02022621250126
-0.30667007139059 -0.325078527798769 1.98685617607715
0.0991272532535635 -0.354118826152445 2.10841762084141
0.074884221376501 -0.368849967315739 2.06272214480237
0.114377705105162 -0.347272431796918 2.06604947795492
-0.374491661599205 -0.25864115901103 2.08994254520099
-0.385011650413146 -0.243140503289871 2.04126013892758
-0.361856316832438 -0.286194084384497 2.05147929695036
0.120043302521528 -0.327881148072907 2.1437214240645
0.140528642380523 -0.323313042799699 2.09954757538597
0.157447157725799 -0.293705910260055 2.12875527328038
-0.37679760683658 -0.23209320191896 2.12318583510737
-0.392877142291873 -0.213216069921405 2.07801877776367
0.133737488200866 -0.293887114325894 2.17417167940312
0.164500356495622 -0.256393386907969 2.16182196849193
-0.38074663861419 -0.195798539846214 2.15944249433081
-0.393574551972574 -0.185760637285458 2.11627077723442
0.141356210306752 -0.255375741804779 2.20471752118253
0.170675589025959 -0.216130887670694 2.18869947671656
-0.375282351351966 -0.179159364860666 2.19837694835955
-0.396045568298742 -0.148272455792634 2.15809401554373
0.149769961344424 -0.216015619037387 2.23275971202441
0.174851324899472 -0.175991686627203 2.21758786228074
-0.367455009678005 -0.163598850485222 2.23835548769868
-0.391543480606841 -0.133413344691738 2.20442639296714
0.126595531163095 -0.211953793190799 2.27237776010306
0.158810531114207 -0.172651160220117 2.26064723523323
-0.381480469643304 -0.124616779919912 2.25309971301584
-0.400056807017804 -0.0885184056822052 2.22414137279849
0.13378164070584 -0.17395420519505 2.30340817073188
0.163678465419661 -0.134452820785279 2.28889885431991
-0.365943512023803 -0.11960491526803 2.29497420382636
-0.390520174243567 -0.0803557278155516 2.27211355135414
0.137030027267742 -0.138588796546548 2.33406271184521
0.160423616424988 -0.0995964192176484 2.32280461690945
-0.369093293827529 -0.0757294917134388 2.31533764991228
-0.337024558618824 -0.0665887679864277 2.35346417561107
-0.357066551797347 -0.0321136314315364 2.3360334335169
0.0937813839249828 -0.0925856118954952 2.39389723403744
0.116791648773743 -0.0521900465537414 2.38224307360822
0.130544078264963 -0.0984278738911597 2.36296162215341
-0.311712703743914 -0.0401187404285115 2.3743715387608
-0.259287220574298 -0.0304988979756035 2.39680292114383
-0.291460037624728 -0.00148257104770542 2.38129780612804
-0.209625400028005 -0.0393097503163185 2.4049522844354
-0.162389194258014 -0.0363997745191821 2.41022959154368
-0.115766430690232 -0.0377859111590569 2.41549207997771
-0.0689294473934281 -0.0392367121003171 2.42076035078356
-0.0258921504814632 -0.0500068328113211 2.425931686528
-0.000694117403257088 -0.0130925006711218 2.42231339292014
0.0248084829741024 -0.0531890841760296 2.42382822070793
0.0734959245840325 -0.0515807039554784 2.40891206381194
-0.258162511307737 0.027844559035116 2.38531455123753
-0.226371561307182 0.00353554789190286 2.39836785964196
-0.182285862705149 0.00896234077074036 2.40131532869538
-0.136191364316856 0.00902217322531641 2.40564557076818
-0.0894905858677383 0.00701993601342832 2.41058223445875
-0.0410704529685542 0.00530834778946797 2.41557751931318
0.0146536313685844 0.0250097116441171 2.40895302023369
-0.33461264501525 -0.292894127381197 1.97185166162343
-0.318488697701737 -0.277509689861093 1.93349599597647
-0.287617314494509 -0.313768208976288 1.94561884957805
-0.23886767707585 -0.312819348675945 1.91862011368765
-0.196715001496924 -0.337298860020117 1.94353873969087
-0.146226923717699 -0.332308590058072 1.93696409849421
-0.0962028304327767 -0.337556646413014 1.94473883099873
-0.044114011633465 -0.341623804625771 1.95098495428961
0.00124094085495158 -0.347323330308924 1.95940529167956
0.0453918800683716 -0.351117381330312 1.97523359014844
0.0876962072707917 -0.33275778852831 1.97495943490904
0.100586470968677 -0.348136493672657 2.02234327465301
0.126988390911548 -0.3210468212623 2.00547884637839
-0.364564968151194 -0.272319353279883 2.00606390975827
-0.382521236872997 -0.225559690896591 1.9948703924205
-0.358976558075564 -0.25104484567957 1.96368155719035
0.143693968185451 -0.319848723258943 2.05009512876633
0.159374510446622 -0.289863849707886 2.01983961778861
0.169465237334112 -0.288572690527135 2.07507527840611
-0.396863490941848 -0.194043538250362 2.03258048449947
0.188976069223512 -0.24617863634414 2.07393245606081
-0.399988131576946 -0.164304533307615 2.06629513569026
0.18113752504783 -0.255580453965335 2.11613241292837
-0.401042612275204 -0.14372748565754 2.10983314890244
0.186555128947326 -0.21442881826546 2.14141565981663
-0.403317663493318 -0.10452314261943 2.12681325888162
0.188939555273773 -0.175073013454603 2.16685253361794
-0.403213153744791 -0.0984626725787766 2.17430000311197
0.18940084781704 -0.138735155133064 2.19545796820288
-0.406601641384281 -0.0515110351973193 2.19446071534436
0.181603607487616 -0.127837182563874 2.24133472982711
-0.402738158799848 -0.0423502631329007 2.24519089025539
0.181625070537315 -0.0901121219578155 2.27552379386236
-0.385877487594757 -0.035554826864847 2.29345252601756
-0.392564720532994 0.00273378251661435 2.26585578879622
0.149985537074508 -0.0559899131830039 2.34813242068166
0.17423558196711 -0.0580711673715571 2.30694311263079
-0.368775384745162 0.00708654472000077 2.31214998599171
-0.333871471600052 0.00150455662494227 2.35315285323371
-0.341109405740828 0.0439253882472248 2.32692810090222
0.0491614314478567 -0.0108411383003096 2.41317036441589
0.0955891915833639 -0.00998739568477892 2.39147087333093
0.134429924702888 -0.0107155560599565 2.35931671376789
-0.304246147947932 0.0393163045358841 2.36012775197323
-0.263856835990054 0.0661070761000508 2.36422141189631
-0.21125721662939 0.0499428738364878 2.38319942829149
-0.162223962407778 0.0521833986170949 2.38574069296608
-0.114867568712319 0.0511770385237102 2.38978394778406
-0.0674797199213121 0.0480338676931082 2.39501120194761
-0.02148936712679 0.0487600169777423 2.39787594732055
0.0320718489487431 0.0605674702518137 2.3854966885911
0.0659807075536981 0.028590612073588 2.39278682920421
-0.307420830054985 -0.244507250476664 1.89921543986326
-0.275788498116399 -0.2839002456479 1.90727163428532
-0.22737600237587 -0.28012045183621 1.88705294263838
-0.189911021046638 -0.308959781774305 1.90933458296673
-0.146326815981339 -0.296497341430514 1.90035390824244
-0.106044533008738 -0.304329220601674 1.90914653931418
-0.0589742011776729 -0.31326040620945 1.91929849670932
-0.00278973912655729 -0.314262229455524 1.92295193936118
0.0448354303999116 -0.324145290852357 1.93988267847681
0.0899831619073848 -0.300220966788906 1.93967253843757
0.128027569262809 -0.296641744102751 1.97191731723875
-0.370954118778521 -0.198378319060097 1.95169460030183
-0.343025993643792 -0.235181573305515 1.92928630017875
0.160655636311486 -0.260710946435322 1.9832099580127
0.180949515414682 -0.254389801082798 2.03159255515648
-0.390022463681903 -0.17784192155277 1.99214469302195
0.197311818077582 -0.207015731395962 2.0472160882676
-0.395446206916158 -0.138021231228654 2.02257994211638
0.196411570772118 -0.206054696328867 2.09700178252197
-0.399358372572292 -0.115945875438063 2.0709297431873
0.196966097377483 -0.164341681944919 2.1202746537726
-0.398627748599638 -0.0730641460820007 2.09231698800855
0.196580988375537 -0.126066348303699 2.14839108446196
-0.403484709388737 -0.059036735365108 2.14375877488919
0.193504040300213 -0.0964534089072646 2.19435319648747
-0.402483969724721 -0.0143353580070064 2.1638994994892
0.190421056544535 -0.0761540051065229 2.23433155097457
-0.403854765319882 -0.00541989440234783 2.21554209464233
0.185444572668593 -0.0336574452061249 2.27098197601801
-0.388945429890189 0.0390686083825421 2.23586060068987
0.164221037020036 -0.0154763855005818 2.31915711745587
-0.370138402069877 0.044854536865034 2.28360374637761
-0.337389572188818 0.0815576407958246 2.29692061944403
0.10823846901103 0.0305177022751613 2.36507791110966
0.14345276876742 0.0274742746112059 2.32870669837594
-0.303386802030788 0.0786138943655393 2.33374054235995
-0.259929480999979 0.105131744966577 2.33330261619467
-0.224199203760406 0.0860548149135219 2.35893679231043
-0.179312125955073 0.0900819670615647 2.3581755711372
-0.135193408563972 0.0906173778569934 2.35995689565683
-0.088442262543552 0.0867379128487704 2.36567501178257
-0.0451340331983768 0.0866504864252083 2.36795201455071
-0.00250764546334775 0.0848100754833826 2.37118146484886
0.0752156315596607 0.0674113132957502 2.36247221091164
-0.304175270067618 -0.20913269401065 1.87144673083311
-0.265537209227643 -0.24817637914136 1.87472868070176
-0.21865991951709 -0.244766405083589 1.85641133405116
-0.178867575053803 -0.271230180178824 1.87693772481583
-0.125072167017691 -0.261800697337515 1.87155086751553
-0.0791027296078287 -0.274303626229066 1.88465611483688
-0.033371006467473 -0.286088590180703 1.8971311342065
0.00997664318251562 -0.273887709761267 1.88882669534451
0.0477209722016485 -0.291149498405398 1.91031745486345
0.0942182986324218 -0.264862153540346 1.9082489477361
0.130952371469646 -0.264142617286105 1.94095476228593
-0.366142869982751 -0.15996089518743 1.92259918011217
-0.341658940089461 -0.200245776291658 1.90547739628575
0.166433531210436 -0.226059992730296 1.95328030776635
0.186592313289481 -0.219162172998512 1.99982692711768
-0.385319997355316 -0.144578438680786 1.96741294187747
0.203445613297304 -0.172077925825215 2.01966646574563
-0.38891917375718 -0.0998701885221615 1.99042985613595
0.20265841938417 -0.162570338324306 2.07184677863906
-0.393282522841727 -0.0856775957470999 2.0376097269718
0.202967213977776 -0.117314638557827 2.0984494116017
-0.392639994098775 -0.0407537201799326 2.06108896703276
0.200263093259831 -0.0815174027731364 2.14515243586479
-0.39724684118725 -0.0254555033870439 2.11110045812092
0.198332353600797 -0.0515164325749281 2.18137828092788
-0.396390357643998 0.020356473161084 2.13328595400661
0.194698308214902 -0.0335786872332932 2.22434507671476
-0.397756207957054 0.0307021429018543 2.18542677095013
0.190985721810866 0.00887486244558382 2.24109086683813
-0.382753522417766 0.0748309534245655 2.20551843512858
0.172846199111249 0.0157277054952387 2.28626349740539
-0.364133523978556 0.0807134571690239 2.25321235450853
-0.330430763285001 0.117964447070581 2.26676958973504
0.114906648849496 0.0682744741263362 2.33312693843244
0.150871043721754 0.0621048512739409 2.29721481061563
-0.297151179268347 0.11480871957004 2.30308801107492
-0.248594323744221 0.139865750095709 2.30567050518815
-0.208278567103831 0.120907631577101 2.33015354643606
-0.157334826045345 0.127770407807231 2.32683280278726
-0.104628045294448 0.121192867936194 2.33517742171934
-0.0562494423204919 0.122798249214553 2.33625442600879
-0.0101528319389415 0.120707442989757 2.34039841607416
0.0377392785099471 0.0998024227681181 2.35270678218361
0.079042853861442 0.105716870735406 2.33135151870067
-0.29871000256548 -0.174370513795334 1.84225697434546
-0.260692667130239 -0.212431624120982 1.84490339630413
-0.212759549323643 -0.210956789825791 1.82757341793886
-0.167801712102863 -0.237828661006109 1.84873160705556
-0.120618193986914 -0.22265987108814 1.83806673384364
-0.0785176875218314 -0.23727025502123 1.85279090691758
-0.0338386870339567 -0.250925505484835 1.86682258693747
0.0124698950511415 -0.236294673585 1.85657568754368
0.0556991736870227 -0.253914831919741 1.8790692974336
0.101118980072862 -0.228597844173247 1.87778119444208
0.136984296696632 -0.230020443596732 1.91204986483294
-0.359749739163663 -0.123534792740895 1.89129813433276
-0.336367937263196 -0.166437670746649 1.87735854284984
0.172697394087428 -0.191193594904607 1.92408679402581
0.193091768946075 -0.183344869514778 1.97063272657507
-0.379000809599078 -0.111225839838782 1.93692957086005
0.209486398733972 -0.137341395833151 1.99131236120293
-0.382677063904605 -0.0667284741553511 1.95752185901645
0.20852323495695 -0.126610832617216 2.04405076459749
-0.387063884792328 -0.0476216313301072 2.00808609707805
0.209781768820081 -0.0815669057307744 2.06223712204378
-0.387221334464977 -0.00359232234817173 2.03794189633337
0.205709968415558 -0.0673171151889959 2.10691182266931
-0.391197443261267 0.0109548249156741 2.08198386945361
0.205124726624356 -0.0254363722703679 2.13911129484868
-0.390104612702358 0.0550742539133698 2.10101795979927
0.201184010125592 -0.0030113207727193 2.18793321747371
-0.391860471256212 0.0652506752264388 2.15438269117682
0.198067321006297 0.0417909744468376 2.20802279718542
-0.376665842855014 0.109807880201927 2.17598288514636
0.178301633401148 0.0542676172505563 2.25587057354801
-0.357495228482657 0.116572752886123 2.22364878402756
-0.322185800878973 0.153715530726045 2.238916354189
0.120266516755775 0.104648478042394 2.30292654586642
0.156213507837746 0.0990170446237186 2.26712386777101
-0.287413681981512 0.150281701058001 2.27553401258207
-0.239104091232624 0.174706154241203 2.277137811627
-0.197645055799031 0.154882678708077 2.30143207565585
-0.152814064630537 0.169300079491591 2.29129494985521
-0.115600900179036 0.152902290616568 2.30730921463745
-0.0679202514034715 0.156294136991852 2.30681196469253
-0.0175416235460694 0.156953315092269 2.3088054863095
0.0326205375671231 0.136458080053937 2.32413888003618
0.0802981781505092 0.141143774479795 2.30370244088576
-0.292536815232813 -0.139534706825943 1.81240894617027
-0.25516155193597 -0.177040915159078 1.81501297534888
-0.208885200516903 -0.176133627084193 1.79828708590503
-0.164525024410044 -0.203131931823666 1.81901570459907
-0.114867492133291 -0.185660104422528 1.80649184798667
-0.0727848713635206 -0.199440199133075 1.82049962667981
-0.030781246887854 -0.214674562289585 1.83575660066297
0.0154570636459577 -0.199025830560761 1.82462915152769
0.059034475845014 -0.218573098667172 1.84808252594609
0.104277287537661 -0.194448371079519 1.84683577017001
0.143145646189503 -0.195398930780105 1.8827719689947
-0.354817680268882 -0.0865077352471435 1.86273813850971
-0.330243013591798 -0.132167794731947 1.8478461033716
0.178602960202311 -0.156465222627777 1.89432775276329
0.19921932161778 -0.148099770122633 1.94082005643143
-0.373123996233096 -0.0740104667719952 1.90709799443236
0.21533380453084 -0.102994651418171 1.96058907694589
-0.375876372085436 -0.0263859590741299 1.9244100476238
0.214911478695662 -0.0909082709843159 2.01152023160487
-0.380538299263368 -0.0206490955269761 1.96871920977599
0.215580947867272 -0.0431992550800133 2.03656422452675
-0.381933718198032 0.00910557566396535 2.00011917807718
0.211027572510177 -0.0296584877667227 2.08498122412839
-0.384351623715932 0.0470401858485386 2.04572384332155
0.21158162984795 0.0138344669502006 2.10829890822133
-0.384225851850567 0.0890957125516967 2.07184088381541
0.20714823969881 0.0272737388638865 2.15560073777596
-0.385953508292227 0.099548749125245 2.12515644570508
0.204587223630753 0.0746077912693671 2.17681843229196
-0.369716641876706 0.145350685741626 2.14922184900928
0.185205617560042 0.0884523784792789 2.22461075167601
-0.350229875494282 0.152078588151811 2.19583633593251
-0.315169170181931 0.188814234544088 2.21018548559867
0.124946907143486 0.140210874520812 2.27388354375696
0.162473878262794 0.133845084875491 2.23707824458955
-0.279448988631993 0.185269097677233 2.2470813470012
-0.232981749181658 0.210273306586725 2.24681610244296
-0.190936469291897 0.192452047144943 2.26941638620003
-0.140407162985962 0.205979213318854 2.26033454990199
-0.100881045819342 0.188120168638847 2.27772555257142
-0.0526177915095293 0.191281777325833 2.27745593258575
-0.00454402632595559 0.192473219105338 2.27887365525281
0.0358333099510591 0.169795720828346 2.29619809997897
0.0873527816298537 0.174298831897763 2.27474553084065
-0.293855722862663 -0.102713402326981 1.78811908069805
-0.248830058894494 -0.140769776859705 1.78404870827644
-0.200958987861013 -0.142215512338404 1.76900309336601
-0.1595024256953 -0.17005630001868 1.79078401742222
-0.109746767911468 -0.150294057590891 1.77634151352838
-0.0660980660134017 -0.161347209930677 1.78803179136799
-0.0261911813828485 -0.176127363988791 1.80278968908758
0.0172745616032303 -0.161299210707232 1.79223943160605
0.0617375287787497 -0.183561704543101 1.81727528434081
0.108303032919137 -0.159862549814836 1.81610009273204
0.145426798222331 -0.163464097651217 1.85179573605018
-0.349518814714313 -0.0488675450567761 1.8340592596741
-0.327570481528802 -0.0958200965201167 1.82171796989303
0.179091625360443 -0.127262590386903 1.86071284323541
0.205058333941368 -0.112845783115713 1.90982547449844
-0.367085617952311 -0.0355098332065907 1.87643649558118
0.22220384606857 -0.0649206957701636 1.9411730488355
-0.369702537000235 0.0120049345225967 1.89941581174459
0.220630818234191 -0.0525065062979747 1.9865704211403
-0.374906446015674 0.0249077888091689 1.94915613403163
0.221626231576368 -0.00588104666738824 2.00679250321695
-0.378461910948651 0.0507547538417931 1.99684152685494
0.217158538821667 0.00664578752447478 2.0550849551694
-0.377662983832529 0.0930652613674586 2.01725710439719
0.217862385511892 0.0505562548140991 2.07690054359244
-0.378947431556509 0.127529226247062 2.05082659138793
0.21334381890895 0.0642411939958352 2.12557021654641
-0.379595643926404 0.135120896758949 2.10056914645462
0.210455620362877 0.109801196566804 2.14745498138161
-0.363461641611925 0.18054267069373 2.12002494746445
0.191525180795698 0.122554264086883 2.19459547060925
-0.343405068038736 0.187665695342376 2.16695165255183
-0.309141485411198 0.223849693081951 2.18031045268913
0.131627069008445 0.1751333680463 2.2435263090769
0.168713283265418 0.168736998582576 2.2069559296043
-0.273706920158699 0.220176116414203 2.21713457464516
-0.227510909776874 0.245380845615283 2.21664695111971
-0.183810406426962 0.228115369668137 2.2390628521117
-0.135208684351265 0.24029555721941 2.23101694709781
-0.08755248093057 0.225209541487185 2.24645911371563
-0.0375454498507149 0.226133035021367 2.24820587393693
0.00896507660439652 0.226537147268538 2.25022221992909
0.0481212458764546 0.202833793859795 2.26669404903572
0.0943145536241645 0.209257312466838 2.2444503176709
-0.25656249639565 -0.102744400594998 1.7625665298902
-0.215036418467638 -0.106098877189717 1.74886003552833
-0.168635719465876 -0.103186444685019 1.74264601910949
-0.1536539788542 -0.137206063510474 1.76365482053212
-0.116473906005747 -0.109174481003672 1.7493874171542
-0.0696908233159463 -0.121095258258645 1.75911940465299
-0.0227906912413374 -0.13228335621309 1.76893421415425
0.025092694090536 -0.121371095405129 1.76647119218553
0.0646395914826714 -0.149343494565234 1.78859234097767
0.109000343679713 -0.123082490333002 1.78892493416367
0.149411038503603 -0.127457619778474 1.82162660439909
-0.337292594065494 -0.0114114173007841 1.80949194628469
-0.320521638820778 -0.0579010134103814 1.79419930427141
0.198049279872349 -0.089888963037064 1.86423093080148
0.215734854752408 -0.0676688091760515 1.89801908453256
-0.357522713866257 0.00414809273241776 1.84922678788968
0.22111144481418 -0.0244747750968536 1.90955835835168
-0.354711660231057 0.0481094584245384 1.87121756547811
0.223955513635559 -0.0136065321838201 1.95513008767505
-0.364405303679279 0.0607880850236377 1.91636793159245
0.220354249730387 0.0295959737024711 1.97482938112508
-0.371355221467089 0.0772156056255815 1.96252073137335
0.220559622594296 0.0439374662230746 2.02273509948174
-0.365447571004281 0.122515968720851 1.97827690440001
0.217356554632225 0.0859804366932697 2.04564536344078
-0.368529392389592 0.149056745479084 2.01466573172405
0.217193472179181 0.100543891475468 2.09325370084002
-0.372485244018107 0.169453982158319 2.06967093276671
0.211164287753838 0.141719047411846 2.11626241616227
-0.354800273111921 0.210315679458402 2.08539396770924
0.195692454600632 0.157440730076124 2.1647142523306
-0.337362416977231 0.221301974163477 2.13503678996059
-0.301879550991992 0.253834659194215 2.14750077805286
0.136571560732427 0.210085371561959 2.21177691732158
0.168473243213925 0.202896130169162 2.17464647055554
-0.266443690502934 0.254382892602662 2.18648161603167
-0.217896706376944 0.277192365487745 2.18144196168087
-0.180587579645793 0.262895023312011 2.20631710683158
-0.138803218707241 0.271771154849454 2.19579069401016
-0.0946500868302655 0.261854225673109 2.20971901950772
-0.0499812633251364 0.257566978639058 2.21606120915614
9.20611520319747e-05 0.257065841031027 2.21770522068349
0.0520708120355159 0.239159438066131 2.2343119066398
0.0974226782417996 0.240620308401586 2.21171454797843
-0.282046381070571 -0.0621188861040299 1.76166869459383
-0.236667164579788 -0.0627131943234601 1.73931247296711
-0.18899822254066 -0.0638977650692696 1.72965981001752
-0.13712754415165 -0.0677963598022004 1.73257114589169
-0.0865985594011121 -0.0743589528359668 1.73908993893589
-0.0404407603820428 -0.0842917337592986 1.74621512285241
0.00367079828288437 -0.0838041965354255 1.75019534252048
0.0506786918440632 -0.0734771555507097 1.75238521727509
0.0712270975651987 -0.108681986637196 1.76723367216075
0.103148349238995 -0.0729977359976897 1.76691516176055
0.13970963107257 -0.0906226976867696 1.79325786044813
-0.302115197781303 -0.0204220174616501 1.77080670232261
-0.277053918794016 0.0216351886940879 1.75764522778914
-0.259598550418699 -0.0212819317943377 1.74341267756566
0.149807041505063 -0.0495521806901538 1.79134753058434
0.17606372112838 -0.0836971750966334 1.82584911634702
0.179246552096251 -0.036162623757021 1.81960105160891
-0.334379330596941 0.0425666931816228 1.82223434612585
-0.31454551031479 0.0208730249691356 1.78781395389244
0.203449291359326 -0.0427301575811412 1.85722986103244
0.208639396439226 -0.000856191141297091 1.8749538825246
-0.331234336754737 0.0798409725531561 1.84925085624587
0.214431516634201 0.0243568236670113 1.91869156976253
-0.341148070548551 0.0990879952539064 1.88898673818427
0.209324233713626 0.0611541132718332 1.94688878602421
-0.353641725097292 0.109084270030148 1.92886058655152
0.211883624811938 0.0813571484066044 1.9894621613373
-0.34272659218193 0.148226845647034 1.94326375778276
0.206914938723837 0.118030647877942 2.0173385787198
-0.346641973965883 0.175939181216138 1.98026861515029
0.209272517105989 0.13805333891471 2.05969378062958
-0.360147168900271 0.190229715220895 2.03318229954897
0.201635477547464 0.173261143727655 2.08685506520957
-0.326485167810724 0.247177953797982 2.09792101286345
-0.338398607027358 0.232422298106635 2.04910965045519
-0.307599129497925 0.265412549887986 2.05589559484909
0.192151793963929 0.187766214860727 2.13140623334366
0.178714915799562 0.214403178188382 2.08838461795236
0.16545636806848 0.226237624480054 2.13388509985126
-0.258771055837794 0.280148105960364 2.15012833334733
-0.292581169905893 0.274363145292625 2.1087458394426
-0.250805288541272 0.296306643261975 2.108030039835
0.132735643476232 0.24174259077202 2.17338369598382
0.100263539130322 0.274417413592332 2.13814002395593
0.0879862098843064 0.266600723325794 2.17685550893109
-0.211623082788644 0.29785711807412 2.14181857472801
-0.167621002893353 0.292000803735347 2.161432480006
-0.114701197098079 0.289784507424535 2.16375839235453
-0.0702151040140614 0.284847301958788 2.17243878401097
-0.0263901717567701 0.281625888567525 2.17739564979556
0.016350705144594 0.280936987728731 2.17677871273497
0.0495946458753652 0.2661371998118 2.19972467384587
-0.210775063110096 -0.0212021282943727 1.72739887100919
-0.159481420168748 -0.0249234349277081 1.72443642139
-0.10870060623821 -0.0289405200526322 1.73009617453401
-0.0608143704038084 -0.0337435930771248 1.73564375518989
-0.0159745334718289 -0.0372724484610749 1.74080138183329
0.028096010418166 -0.0330708501591937 1.74568129094614
0.076687643405262 -0.0316761348983572 1.75347322100156
-0.232841722265265 0.0198925495171079 1.73683693168393
-0.205719815676227 0.0573691081722158 1.74172921543958
-0.181441252341032 0.0183192942563007 1.72747361280373
-0.130635049020561 0.0150659073394907 1.73058460263472
-0.0829595512680727 0.0139982066872881 1.73651999987246
-0.0356804218270702 0.010609523556248 1.74197362279106
0.00909269409698775 0.0121030402588966 1.74810976460085
0.0560319893620972 0.0113684131821012 1.75421050357845
0.104185865858017 0.0124249036160541 1.76886588103448
0.151321139808676 0.00308986283070638 1.79609804479596
0.120205137784408 -0.0280043905714847 1.7709293672704
-0.29517277256024 0.0608310214444235 1.78658371384501
-0.263310176467968 0.0993550600705431 1.78976931727199
-0.252617863242717 0.0621189470904007 1.75895589334632
0.127148239250768 0.045510308724874 1.79399435880289
0.185235959768667 0.00544417140580124 1.83372467702919
0.16323913620377 0.0456767052683266 1.82589022382201
-0.303079966287383 0.0910096695800209 1.8182864652409
-0.269896720771436 0.129347334131109 1.82651326800969
0.193617307706426 0.0406955413753682 1.86914130788272
0.165608046799155 0.0797935529758999 1.86080093922701
-0.30776771757013 0.122684041846524 1.85862042707747
-0.276983439074134 0.158720497214772 1.86512163703972
0.192500139925197 0.0702953970156908 1.9029626137153
0.163580891351629 0.111146448778399 1.89692172166025
-0.31892981748765 0.146081186724046 1.89937205206361
-0.281905244044688 0.185965701870925 1.8997015393397
0.190999188162222 0.101973304926963 1.94070634094473
0.162457042297453 0.141524902475684 1.93326375088628
-0.315902168026705 0.183402232348652 1.93523071040756
-0.280064134116239 0.218911471302905 1.93459917313866
0.190225778436955 0.129491854205981 1.9749119217171
0.161697830232363 0.171253404513554 1.96939339200855
-0.313222187598526 0.217350340146561 1.96836226943888
-0.279564246290107 0.253479461253556 1.97424260896267
0.189071872080366 0.160614265747319 2.01289261786622
0.160390136231498 0.201193001363322 2.0049083978353
-0.336758114339311 0.215596350192599 2.00474047557517
-0.307634438585631 0.252369408911904 2.01043108573762
0.187277909869999 0.188577779366368 2.04658176436276
0.157078736356756 0.228456741407458 2.04216333300737
-0.27447497718294 0.288420769637665 2.06755318543909
-0.269404848764855 0.282186416336057 2.01920129009119
-0.236958484430862 0.302570772280778 2.05383945717931
0.134842442279896 0.256041248403368 2.12704870212667
0.148554559802537 0.24714382713436 2.08483079596344
0.108522460112161 0.274482946731372 2.08610754145102
-0.212445993626627 0.308377594502028 2.09396156831847
-0.186892013637844 0.310924065138362 2.05821984663314
-0.17191177274916 0.308026903378095 2.11252090598425
-0.142958284997912 0.309356747646226 2.07159222524249
-0.129433118776135 0.304030305999604 2.12158917086978
-0.0988303141704002 0.306077095407525 2.07665254082943
-0.0826283117265285 0.301105291060885 2.12426728805493
-0.0539620655150264 0.302676245705044 2.07995799433851
-0.0383200611770511 0.297645562846211 2.13019005935942
-0.0103771885912221 0.299374614387733 2.08354039858446
0.00620915283538655 0.294960647324282 2.1320900849052
0.0338490311508051 0.296194890182975 2.0913232856652
0.0519426395410643 0.287825477149149 2.14677490261989
0.0716239920245922 0.289349436331977 2.10362993580071
-0.17506900818247 0.0901610533862888 1.7560756731577
-0.152431270449901 0.0564444231857245 1.73968977082461
-0.10671893033867 0.0588100379526219 1.74730147689682
-0.0579639606427724 0.0547269538460639 1.7526961182316
-0.0130709523851599 0.0564977208823651 1.76019171878693
0.0323259020728499 0.0557256001656061 1.76666544514174
0.0783745419319016 0.0517080547315733 1.77374663605972
-0.22014261197143 0.0978013557767155 1.7681492665689
-0.177666337186464 0.124382038076535 1.78416383290296
-0.131554018602631 0.100009951146961 1.76769613256198
-0.0805766570552312 0.0932271156037957 1.77132251666464
-0.0362816796971637 0.0963854570788129 1.78132047255449
0.00824696206256248 0.09632364129055 1.78906870376183
0.0534519158570709 0.0935135472835573 1.79472888663063
0.0969321888864345 0.0837368793824068 1.80145507017277
0.131576532072633 0.0857079253160902 1.82659017105031
-0.225209053356478 0.130926725060964 1.80147046586415
-0.185444691530236 0.155318201648724 1.81985513250297
-0.13949735596692 0.13985988442246 1.80575381553737
-0.100238221145662 0.124560484829717 1.79589225505295
-0.0574747057481288 0.129515319409319 1.81018850558005
-0.0137689925453082 0.130081502725436 1.81968232772318
0.0343684965996012 0.126487764150209 1.82519123068808
0.084255088145822 0.118793379320236 1.8309187865358
0.129063367966111 0.115970592139021 1.85961685080983
-0.232172244371866 0.160645478529959 1.83819472547728
-0.187247053077033 0.185089978680507 1.85442530049828
-0.141157266260557 0.171187439896013 1.84216586737283
-0.094495011259932 0.155512724717726 1.83320550820948
-0.0475878949520779 0.16183859844179 1.85010124987147
0.00263158252351448 0.158016687524645 1.85576310372157
0.050460045976912 0.154017999260089 1.8607475871301
0.0926066560003029 0.146160001408318 1.86801807778052
0.127788592811294 0.148010781334281 1.89742303933283
-0.235766145760099 0.189559828161309 1.87262450739944
-0.18988083914925 0.213401777419765 1.88738039770757
-0.14089508570799 0.202767914797402 1.8792625998214
-0.0982688369632865 0.185885509625003 1.86806989315368
-0.0604440725536936 0.194036770700042 1.88527231871653
-0.0157003748619882 0.18841082378611 1.88771167727871
0.0323326544805513 0.184921286034442 1.89332130431252
0.081425515651199 0.178598479057098 1.90070143974533
0.126645236194636 0.176778512701352 1.93137308652925
-0.23909355508135 0.217681804022798 1.90605968800094
-0.196327024652292 0.241347351192702 1.92034543744608
-0.146297165243276 0.232585946237118 1.91314699749577
-0.0970176333155122 0.221088081133074 1.90961602595387
-0.0454648457852809 0.221209863708054 1.92017256089045
0.00273191903209927 0.216744026926896 1.92467069527953
0.0491630243777336 0.213414623071289 1.93020970614329
0.0907051488770275 0.206177224661972 1.93866990834832
0.125733418747757 0.208283809104665 1.96890064015966
-0.243845921907066 0.247905707343421 1.94260495591102
-0.20610993352476 0.269656433568681 1.95513844782206
-0.159115328439861 0.263843151637042 1.94729333111817
-0.112463790378653 0.254299552253591 1.94545273194077
-0.0677827984720624 0.250061083350386 1.94950632646905
-0.018786833807565 0.247926769813915 1.95690101397586
0.0300471603353587 0.244450274210439 1.96268736760902
0.0791776682585742 0.238744300781181 1.97118545836115
0.124056577990406 0.236482940420282 2.00262789001966
-0.239736551498181 0.279797994976209 1.98409835892149
-0.183258732093771 0.290245727737525 1.98511561821537
-0.134496223159623 0.284504487100581 1.98304488226024
-0.0898288189461754 0.279988410929523 1.98600575423479
-0.0449309533306868 0.2760876182627 1.99015999444739
0.00146748422700503 0.273190810009944 1.99646678318269
0.0465648207864394 0.270354583362834 2.00273482838445
0.0873038410128158 0.263443320840233 2.01219516153602
0.119222111073594 0.260679258223232 2.04531559461254
-0.214882521466182 0.299964355957374 2.01673480498944
-0.160738852832139 0.303580613421059 2.02253134324975
-0.114942622920476 0.300262015832102 2.02809899687769
-0.0698488903473204 0.296496864014203 2.03178656944089
-0.0240623081255948 0.292686964793286 2.0356194762203
0.0231075617637 0.28961241412342 2.04254597358949
0.0700798261034126 0.284337348792032 2.05221083931798
3 0 1 2
3 0 2 4
3 3 0 4
3 3 4 6
3 5 3 6
3 5 6 8
3 7 5 8
3 7 8 10
3 9 7 10
3 9 10 12
3 11 9 12
3 13 11 14
3 14 11 12
3 13 14 15
3 16 17 18
3 16 18 1
3 0 19 1
3 19 16 1
3 0 3 20
3 19 0 20
3 3 5 21
3 20 3 21
3 5 7 22
3 21 5 22
3 7 9 23
3 22 7 23
3 9 11 24
3 23 9 24
3 24 11 25
3 25 11 13
3 13 15 26
3 27 13 26
3 25 13 27
3 27 26 28
3 17 16 30
3 30 16 29
3 29 19 31
3 29 16 19
3 31 20 32
3 31 19 20
3 32 21 33
3 32 20 21
3 21 22 33
3 33 22 34
3 22 23 34
3 34 23 35
3 23 24 35
3 35 24 36
3 24 25 36
3 36 25 37
3 37 27 38
3 37 25 27
3 38 28 39
3 38 27 28
3 30 40 41
3 30 29 40
3 29 31 42
3 40 29 42
3 31 32 43
3 42 31 43
3 32 33 44
3 43 32 44
3 33 34 45
3 44 33 45
3 34 35 46
3 45 34 46
3 35 36 47
3 46 35 47
3 36 37 47
3 47 37 48
3 37 38 48
3 48 38 49
3 49 39 50
3 49 38 39
3 40 51 52
3 41 40 52
3 51 42 53
3 51 40 42
3 42 43 53
3 53 43 54
3 43 44 54
3 54 44 55
3 44 45 55
3 55 45 56
3 45 46 56
3 56 46 57
3 46 47 58
3 57 46 58
3 47 48 59
3 58 47 59
3 48 49 60
3 59 48 60
3 49 50 61
3 60 49 61
3 51 62 63
3 52 51 63
3 51 53 64
3 62 51 64
3 53 54 65
3 64 53 65
3 54 55 66
3 65 54 66
3 55 56 67
3 66 55 67
3 56 57 67
3 67 57 68
3 57 58 69
3 68 57 69
3 58 59 69
3 69 59 70
3 59 60 70
3 70 60 71
3 71 61 72
3 71 60 61
3 62 73 74
3 63 62 74
3 62 64 75
3 73 62 75
3 64 65 75
3 75 65 76
3 65 66 76
3 76 66 77
3 66 67 77
3 77 67 78
3 67 68 78
3 78 68 79
3 79 69 80
3 79 68 69
3 80 70 81
3 80 69 70
3 81 71 82
3 81 70 71
3 82 72 83
3 82 71 72
3 74 73 85
3 85 73 84
3 84 73 86
3 86 73 75
3 75 76 86
3 86 76 87
3 76 77 88
3 87 76 88
3 77 78 89
3 88 77 89
3 78 79 90
3 89 78 90
3 79 80 91
3 90 79 91
3 80 81 92
3 91 80 92
3 81 82 93
3 92 81 93
3 93 83 94
3 93 82 83
3 84 95 85
3 84 86 96
3 97 84 96
3 95 84 97
3 96 87 98
3 96 86 87
3 87 88 98
3 98 88 99
3 88 89 99
3 99 89 100
3 89 90 100
3 100 90 101
3 101 91 102
3 101 90 91
3 102 92 103
3 102 91 92
3 92 93 103
3 105 103 104
3 103 93 104
3 93 94 104
3 96 106 97
3 96 98 107
3 106 96 107
3 98 99 108
3 107 98 108
3 99 100 109
3 108 99 109
3 100 101 110
3 109 100 110
3 101 102 111
3 110 101 111
3 111 102 112
3 112 102 103
3 103 105 112
3 117 114 115
3 116 113 117
3 117 113 114
3 116 117 119
3 118 116 119
3 118 119 121
3 120 118 121
3 120 121 123
3 122 120 123
3 122 123 125
3 124 122 125
3 124 125 127
3 126 124 127
3 126 127 128
3 129 130 131
3 114 129 131
3 114 113 129
3 113 2 129
3 129 2 1
3 4 113 116
3 4 2 113
3 6 116 118
3 6 4 116
3 8 118 120
3 8 6 118
3 10 120 122
3 10 8 120
3 12 122 124
3 12 10 122
3 14 124 126
3 14 12 124
3 133 126 128
3 15 14 126
3 15 126 133
3 132 15 133
3 132 133 134
3 135 136 137
3 137 17 135
3 137 18 17
3 18 137 130
3 129 18 130
3 18 129 1
3 15 132 26
3 139 132 134
3 139 138 132
3 138 28 26
3 132 138 26
3 138 139 140
3 136 135 142
3 142 135 141
3 17 30 135
3 135 30 141
3 143 39 28
3 138 143 28
3 143 140 144
3 143 138 140
3 141 145 146
3 142 141 146
3 41 145 141
3 30 41 141
3 147 39 143
3 147 50 39
3 147 144 148
3 147 143 144
3 145 149 150
3 146 145 150
3 52 149 145
3 41 52 145
3 151 50 147
3 151 155 50
3 151 148 152
3 151 147 148
3 149 153 154
3 150 149 154
3 63 153 149
3 52 63 149
3 155 61 50
3 155 72 61
3 155 151 156
3 156 151 152
3 154 157 158
3 154 153 157
3 74 157 153
3 63 74 153
3 159 72 155
3 159 83 72
3 159 156 160
3 159 155 156
3 158 157 162
3 162 157 161
3 74 85 161
3 157 74 161
3 163 83 159
3 163 94 83
3 163 160 164
3 163 159 160
3 161 165 162
3 165 95 166
3 165 161 95
3 161 85 95
3 165 166 167
3 95 97 166
3 105 104 168
3 170 94 163
3 170 168 94
3 169 168 170
3 94 168 104
3 163 164 170
3 166 171 167
3 173 171 172
3 172 171 106
3 171 97 106
3 171 166 97
3 172 107 174
3 172 106 107
3 174 108 175
3 174 107 108
3 175 109 176
3 175 108 109
3 176 110 177
3 176 109 110
3 177 111 178
3 177 110 111
3 178 112 180
3 178 111 112
3 181 105 168
3 181 180 105
3 179 178 180
3 180 112 105
3 168 169 181
3 172 182 173
3 182 172 183
3 183 172 174
3 174 175 184
3 183 174 184
3 175 176 185
3 184 175 185
3 176 177 186
3 185 176 186
3 177 178 187
3 186 177 187
3 187 179 188
3 187 178 179
3 179 180 229
3 189 190 191
3 114 131 191
3 115 114 191
3 115 191 192
3 115 192 193
3 117 115 193
3 119 193 194
3 119 117 193
3 119 194 121
3 121 194 195
3 121 195 123
3 123 195 196
3 123 196 125
3 125 196 197
3 127 197 198
3 127 125 197
3 128 198 199
3 200 128 199
3 128 127 198
3 200 199 201
3 202 203 204
3 131 130 189
3 190 189 204
3 189 130 202
3 189 202 204
3 131 189 191
3 128 200 133
3 134 200 205
3 206 205 201
3 134 133 200
3 205 200 201
3 205 206 207
3 136 208 203
3 202 137 136
3 202 136 203
3 137 202 130
3 134 205 139
3 139 205 207
3 140 139 207
3 211 207 209
3 136 142 208
3 208 142 210
3 211 140 207
3 211 144 140
3 146 212 210
3 142 146 210
3 148 144 213
3 213 144 211
3 150 214 212
3 146 150 212
3 215 148 213
3 215 152 148
3 154 216 150
3 150 216 214
3 219 152 217
3 217 152 215
3 158 218 216
3 154 158 216
3 219 156 152
3 219 160 156
3 158 220 218
3 158 162 220
3 221 160 219
3 221 164 160
3 162 165 222
3 223 220 222
3 220 162 222
3 165 167 222
3 169 170 224
3 225 164 221
3 224 170 164
3 224 164 225
3 222 226 223
3 167 171 227
3 226 167 227
3 226 227 228
3 226 222 167
3 171 173 227
3 180 181 229
3 181 169 230
3 231 169 224
3 230 169 231
3 230 229 181
3 224 225 271
3 227 232 228
3 232 182 233
3 232 173 182
3 227 173 232
3 182 183 234
3 233 182 234
3 183 184 234
3 234 184 235
3 184 185 235
3 235 185 236
3 185 186 236
3 236 186 237
3 186 187 237
3 237 187 238
3 238 188 239
3 238 187 188
3 188 179 229
3 240 239 188
3 240 188 229
3 229 230 240
3 191 190 242
3 242 190 241
3 192 242 243
3 192 191 242
3 192 243 244
3 193 192 244
3 194 244 245
3 194 193 244
3 194 245 246
3 195 194 246
3 195 246 247
3 196 195 247
3 196 247 248
3 197 196 248
3 197 248 249
3 198 197 249
3 199 198 249
3 250 199 249
3 201 199 251
3 251 199 250
3 204 252 253
3 204 203 252
3 190 253 241
3 190 204 253
3 206 251 254
3 206 201 251
3 207 206 255
3 255 206 254
3 203 256 252
3 203 208 256
3 257 209 255
3 255 209 207
3 210 258 208
3 208 258 256
3 211 209 259
3 259 209 257
3 212 260 210
3 210 260 258
3 213 211 259
3 261 213 259
3 214 262 260
3 212 214 260
3 215 213 261
3 263 215 261
3 216 264 214
3 214 264 262
3 217 215 263
3 265 217 263
3 218 266 264
3 216 218 264
3 219 217 265
3 267 219 265
3 218 268 266
3 218 220 268
3 221 219 267
3 269 221 267
3 223 270 268
3 220 223 268
3 225 221 269
3 271 225 269
3 223 226 272
3 270 223 272
3 272 228 273
3 272 226 228
3 274 231 275
3 274 230 231
3 275 231 271
3 271 231 224
3 273 228 276
3 276 228 232
3 276 233 277
3 276 232 233
3 233 234 278
3 277 233 278
3 234 235 279
3 278 234 279
3 235 236 280
3 279 235 280
3 236 237 281
3 280 236 281
3 237 238 282
3 281 237 282
3 238 239 283
3 282 238 283
3 327 239 284
3 284 239 240
3 240 230 274
3 284 240 274
3 241 285 286
3 242 241 286
3 242 286 243
3 243 286 287
3 243 287 288
3 244 243 288
3 245 288 289
3 245 244 288
3 245 289 246
3 246 289 290
3 246 290 247
3 247 290 291
3 247 291 248
3 248 291 292
3 248 292 293
3 249 248 293
3 249 293 250
3 250 293 294
3 250 294 295
3 251 250 295
3 252 296 297
3 253 252 297
3 241 297 285
3 241 253 297
3 254 295 298
3 254 251 295
3 254 298 299
3 255 254 299
3 256 300 252
3 252 300 296
3 257 255 299
3 301 257 299
3 258 302 300
3 256 258 300
3 259 257 303
3 303 257 301
3 260 304 258
3 258 304 302
3 261 259 303
3 305 261 303
3 262 306 304
3 260 262 304
3 263 261 305
3 307 263 305
3 264 308 262
3 262 308 306
3 265 263 307
3 309 265 307
3 266 310 308
3 264 266 308
3 267 265 309
3 311 267 309
3 266 312 310
3 266 268 312
3 269 267 311
3 313 269 311
3 270 314 312
3 268 270 312
3 271 269 315
3 315 269 313
3 270 272 316
3 314 270 316
3 316 273 317
3 316 272 273
3 318 275 319
3 318 274 275
3 275 271 315
3 319 275 315
3 273 276 320
3 317 273 320
3 276 277 320
3 320 277 321
3 277 278 322
3 321 277 322
3 322 279 323
3 322 278 279
3 279 280 323
3 323 280 324
3 280 281 324
3 324 281 325
3 281 282 325
3 325 282 326
3 282 283 326
3 326 283 327
3 283 239 327
3 327 284 328
3 284 274 318
3 328 284 318
3 285 329 330
3 286 285 330
3 286 330 287
3 287 330 331
3 287 331 332
3 288 287 332
3 288 332 289
3 289 332 333
3 289 333 334
3 290 289 334
3 290 334 335
3 291 290 335
3 291 335 292
3 292 335 336
3 292 336 337
3 293 292 337
3 293 337 294
3 294 337 338
3 294 338 339
3 295 294 339
3 296 340 341
3 297 296 341
3 285 341 329
3 285 297 341
3 298 339 342
3 298 295 339
3 298 342 343
3 299 298 343
3 300 344 296
3 296 344 340
3 301 299 343
3 345 301 343
3 302 346 344
3 300 302 344
3 303 301 347
3 347 301 345
3 304 348 302
3 302 348 346
3 305 303 347
3 349 305 347
3 306 350 348
3 304 306 348
3 307 305 351
3 351 305 349
3 308 352 306
3 306 352 350
3 309 307 353
3 353 307 351
3 310 354 352
3 308 310 352
3 311 309 355
3 355 309 353
3 312 356 310
3 310 356 354
3 313 311 355
3 357 313 355
3 314 358 356
3 312 314 356
3 315 313 359
3 359 313 357
3 314 316 360
3 358 314 360
3 360 317 361
3 360 316 317
3 362 319 363
3 362 318 319
3 319 315 359
3 363 319 359
3 317 320 364
3 361 317 364
3 320 321 364
3 364 321 365
3 321 322 366
3 365 321 366
3 322 323 366
3 366 323 367
3 323 324 368
3 367 323 368
3 324 325 369
3 368 324 369
3 325 326 370
3 369 325 370
3 326 327 371
3 370 326 371
3 327 328 371
3 371 328 372
3 328 318 362
3 372 328 362
3 329 373 374
3 330 329 374
3 330 374 331
3 331 374 375
3 331 375 376
3 332 331 376
3 332 376 333
3 333 376 377
3 333 377 378
3 334 333 378
3 334 378 379
3 335 334 379
3 335 379 336
3 336 379 380
3 336 380 381
3 337 336 381
3 337 381 338
3 338 381 382
3 338 382 383
3 339 338 383
3 340 384 385
3 341 340 385
3 329 385 373
3 329 341 385
3 342 383 386
3 342 339 383
3 342 386 387
3 343 342 387
3 344 388 340
3 340 388 384
3 345 343 387
3 389 345 387
3 346 390 388
3 344 346 388
3 347 345 391
3 391 345 389
3 348 392 346
3 346 392 390
3 349 347 391
3 393 349 391
3 350 394 348
3 348 394 392
3 351 349 395
3 395 349 393
3 352 396 350
3 350 396 394
3 353 351 395
3 397 353 395
3 354 398 396
3 352 354 396
3 355 353 399
3 399 353 397
3 356 400 354
3 354 400 398
3 357 355 399
3 401 357 399
3 358 402 400
3 356 358 400
3 359 357 403
3 403 357 401
3 358 360 404
3 402 358 404
3 404 361 405
3 404 360 361
3 406 363 407
3 406 362 363
3 363 359 403
3 407 363 403
3 361 364 408
3 405 361 408
3 364 365 408
3 408 365 409
3 365 366 410
3 409 365 410
3 366 367 410
3 410 367 411
3 367 368 412
3 411 367 412
3 368 369 412
3 412 369 413
3 369 370 413
3 413 370 414
3 370 371 415
3 414 370 415
3 371 372 415
3 415 372 416
3 372 362 406
3 416 372 406
3 373 417 418
3 374 373 418
3 374 418 375
3 375 418 419
3 375 419 420
3 376 375 420
3 376 420 377
3 377 420 421
3 377 421 422
3 378 377 422
3 378 422 423
3 379 378 423
3 380 423 424
3 380 379 423
3 380 424 425
3 381 380 425
3 382 425 426
3 382 381 425
3 382 426 427
3 383 382 427
3 384 428 429
3 385 384 429
3 373 429 417
3 373 385 429
3 386 427 430
3 386 383 427
3 386 430 431
3 387 386 431
3 384 432 428
3 384 388 432
3 389 387 431
3 433 389 431
3 390 434 432
3 388 390 432
3 435 389 433
3 435 391 389
3 390 436 434
3 390 392 436
3 393 391 435
3 437 393 435
3 394 438 436
3 392 394 436
3 395 393 439
3 439 393 437
3 396 440 438
3 394 396 438
3 397 395 439
3 441 397 439
3 398 442 440
3 396 398 440
3 399 397 443
3 443 397 441
3 400 444 398
3 398 444 442
3 401 399 443
3 445 401 443
3 402 446 444
3 400 402 444
3 403 401 447
3 447 401 445
3 402 404 448
3 446 402 448
3 448 405 449
3 448 404 405
3 450 407 451
3 450 406 407
3 407 403 447
3 451 407 447
3 405 408 452
3 449 405 452
3 408 409 452
3 452 409 453
3 409 410 454
3 453 409 454
3 410 411 454
3 454 411 455
3 411 412 456
3 455 411 456
3 412 413 456
3 456 413 457
3 457 414 458
3 457 413 414
3 414 415 459
3 458 414 459
3 415 416 459
3 459 416 460
3 416 406 450
3 460 416 450
3 418 461 462
3 418 417 461
3 419 462 463
3 419 418 462
3 419 463 464
3 420 419 464
3 420 464 421
3 421 464 465
3 421 465 466
3 422 421 466
3 422 466 467
3 423 422 467
3 424 467 468
3 424 423 467
3 424 468 469
3 425 424 469
3 426 469 470
3 426 425 469
3 427 426 471
3 471 426 470
3 429 428 473
3 473 428 472
3 417 473 505
3 417 429 473
3 430 427 471
3 520 430 471
3 431 474 475
3 431 430 474
3 428 476 472
3 428 432 476
3 433 431 475
3 477 433 475
3 434 478 476
3 432 434 476
3 479 433 477
3 479 435 433
3 434 480 478
3 434 436 480
3 437 435 479
3 481 437 479
3 438 482 436
3 436 482 480
3 439 437 483
3 483 437 481
3 440 484 482
3 438 440 482
3 441 439 483
3 485 441 483
3 442 486 440
3 440 486 484
3 443 441 487
3 487 441 485
3 444 488 442
3 442 488 486
3 445 443 487
3 489 445 487
3 444 446 488
3 488 446 490
3 491 445 489
3 491 447 445
3 490 446 492
3 492 446 448
3 492 449 493
3 492 448 449
3 494 451 495
3 494 450 451
3 451 447 491
3 495 451 491
3 449 452 496
3 493 449 496
3 496 453 497
3 496 452 453
3 453 454 498
3 497 453 498
3 498 455 499
3 498 454 455
3 455 456 500
3 499 455 500
3 456 457 501
3 500 456 501
3 457 458 502
3 501 457 502
3 458 459 503
3 502 458 503
3 503 460 504
3 503 459 460
3 504 460 494
3 494 460 450
3 461 505 506
3 462 461 506
3 507 463 462
3 507 462 506
3 465 463 508
3 508 463 507
3 464 463 465
3 465 508 509
3 465 509 466
3 466 509 510
3 466 510 467
3 467 510 511
3 467 511 468
3 468 511 512
3 468 512 513
3 469 468 513
3 469 513 470
3 515 470 514
3 470 513 514
3 470 515 471
3 472 516 473
3 518 516 517
3 518 505 516
3 461 417 505
3 505 473 516
3 505 518 506
3 515 514 519
3 474 430 520
3 521 520 519
3 520 471 515
3 520 515 519
3 474 520 524
3 476 522 472
3 516 472 523
3 472 522 523
3 516 523 517
3 520 521 524
3 477 475 524
3 524 475 474
3 525 477 524
3 478 526 522
3 476 478 522
3 527 477 525
3 527 479 477
3 478 528 526
3 478 480 528
3 481 479 527
3 529 481 527
3 482 530 480
3 480 530 528
3 483 481 531
3 531 481 529
3 484 532 530
3 482 484 530
3 485 483 531
3 533 485 531
3 486 534 484
3 484 534 532
3 535 485 533
3 535 487 485
3 486 536 534
3 486 488 536
3 537 489 535
3 535 489 487
3 490 538 539
3 536 490 539
3 488 490 536
3 538 540 539
3 541 542 543
3 541 489 537
3 542 541 537
3 541 491 489
3 490 492 538
3 545 493 544
3 538 492 493
3 538 493 545
3 540 538 545
3 544 546 545
3 547 548 549
3 543 495 541
3 547 494 495
3 547 495 543
3 608 547 543
3 495 491 541
3 493 496 544
3 544 497 550
3 546 544 550
3 544 496 497
3 550 497 551
3 551 497 498
3 498 499 551
3 551 499 552
3 499 500 552
3 552 500 553
3 500 501 553
3 553 501 554
3 554 502 555
3 554 501 502
3 502 503 556
3 555 502 556
3 503 504 556
3 549 504 547
3 556 504 549
3 504 494 547
3 506 557 507
3 507 557 558
3 508 507 558
3 508 558 559
3 509 508 559
3 509 559 560
3 510 509 560
3 510 560 561
3 511 510 561
3 511 561 562
3 512 511 562
3 514 512 563
3 563 512 562
3 513 512 514
3 517 564 518
3 518 564 557
3 566 564 565
3 557 564 566
3 557 506 518
3 558 566 567
3 558 557 566
3 559 567 568
3 559 558 567
3 560 568 569
3 560 559 568
3 561 569 570
3 561 560 569
3 562 570 571
3 562 561 570
3 563 562 571
3 572 563 571
3 574 514 563
3 572 574 563
3 573 519 574
3 574 519 514
3 519 573 521
3 522 575 523
3 577 575 576
3 577 517 575
3 564 517 577
3 575 517 523
3 564 577 565
3 573 574 572
3 521 573 579
3 580 573 578
3 579 573 580
3 579 524 521
3 524 579 525
3 522 581 575
3 522 526 581
3 576 581 582
3 576 575 581
3 583 580 584
3 583 579 580
3 583 525 579
3 583 527 525
3 526 585 581
3 526 528 585
3 582 585 586
3 582 581 585
3 587 584 588
3 587 583 584
3 587 527 583
3 587 529 527
3 528 589 585
3 528 530 589
3 586 589 590
3 586 585 589
3 591 588 592
3 591 587 588
3 591 529 587
3 591 531 529
3 532 593 589
3 530 532 589
3 590 593 594
3 590 589 593
3 595 592 596
3 595 591 592
3 595 531 591
3 595 533 531
3 534 597 593
3 532 534 593
3 594 597 598
3 594 593 597
3 599 596 600
3 599 595 596
3 599 533 595
3 599 535 533
3 534 601 597
3 534 536 601
3 602 597 601
3 602 598 597
3 603 599 600
3 604 603 600
3 603 535 599
3 603 537 535
3 536 539 601
3 606 540 605
3 606 602 540
3 602 601 539
3 540 602 539
3 605 607 606
3 608 609 610
3 608 543 609
3 604 542 603
3 609 543 542
3 609 542 604
3 542 537 603
3 540 545 605
3 605 546 607
3 612 607 611
3 605 545 546
3 607 546 611
3 612 613 614
3 612 611 613
3 614 615 616
3 614 613 615
3 616 617 618
3 616 615 617
3 618 619 620
3 618 617 619
3 620 621 622
3 620 619 621
3 622 623 624
3 622 621 623
3 610 548 608
3 624 623 548
3 624 548 610
3 548 623 549
3 548 547 608
3 546 550 611
3 611 550 613
3 613 550 551
3 551 552 615
3 613 551 615
3 552 553 617
3 615 552 617
3 553 554 619
3 617 553 619
3 554 555 621
3 619 554 621
3 621 555 623
3 623 555 556
3 556 549 623
3 565 625 626
3 567 566 626
3 626 566 565
3 567 626 627
3 568 567 627
3 568 627 628
3 569 568 628
3 569 628 629
3 570 569 629
3 570 629 630
3 571 570 630
3 572 571 631
3 631 571 630
3 572 631 578
3 576 632 577
3 625 632 633
3 565 577 632
3 565 632 625
3 625 633 634
3 626 625 634
3 626 634 627
3 627 634 635
3 627 635 628
3 628 635 636
3 628 636 629
3 629 636 637
3 629 637 630
3 630 637 638
3 631 638 639
3 631 630 638
3 640 578 639
3 578 573 572
3 578 631 639
3 578 640 580
3 576 641 632
3 576 582 641
3 633 641 642
3 633 632 641
3 633 642 643
3 634 633 643
3 634 643 644
3 635 634 644
3 635 644 645
3 636 635 645
3 636 645 646
3 637 636 646
3 637 646 647
3 638 637 647
3 638 647 648
3 639 638 648
3 640 648 649
3 640 639 648
3 584 580 640
3 649 584 640
3 582 650 641
3 582 586 650
3 642 650 651
3 642 641 650
3 642 651 652
3 643 642 652
3 643 652 653
3 644 643 653
3 644 653 645
3 645 653 654
3 645 654 646
3 646 654 655
3 646 655 647
3 647 655 656
3 647 656 648
3 648 656 657
3 648 657 649
3 649 657 658
3 588 584 649
3 658 588 649
3 586 659 650
3 586 590 659
3 650 659 651
3 651 659 660
3 651 660 661
3 652 651 661
3 652 661 662
3 653 652 662
3 653 662 654
3 654 662 663
3 654 663 664
3 655 654 664
3 655 664 665
3 656 655 665
3 656 665 666
3 657 656 666
3 657 666 658
3 658 666 667
3 592 588 658
3 667 592 658
3 590 668 659
3 590 594 668
3 660 668 669
3 660 659 668
3 660 669 670
3 661 660 670
3 661 670 671
3 662 661 671
3 662 671 663
3 663 671 672
3 663 672 664
3 664 672 673
3 664 673 665
3 665 673 674
3 665 674 666
3 666 674 675
3 666 675 667
3 667 675 676
3 596 592 667
3 676 596 667
3 594 677 668
3 594 598 677
3 668 677 669
3 669 677 678
3 669 678 679
3 670 669 679
3 670 679 680
3 671 670 680
3 671 680 681
3 672 671 681
3 672 681 682
3 673 672 682
3 673 682 683
3 674 673 683
3 674 683 684
3 675 674 684
3 676 684 685
3 676 675 684
3 600 596 676
3 685 600 676
3 598 686 677
3 598 602 606
3 678 686 687
3 678 677 686
3 678 687 679
3 679 687 688
3 679 688 680
3 680 688 689
3 680 689 681
3 681 689 690
3 681 690 682
3 682 690 691
3 683 691 692
3 683 682 691
3 684 692 693
3 684 683 692
3 685 693 694
3 685 684 693
3 694 604 685
3 685 604 600
3 598 606 686
3 606 607 695
3 686 606 695
3 686 695 687
3 688 687 696
3 696 687 695
3 688 696 697
3 689 688 697
3 689 697 698
3 690 689 698
3 690 698 699
3 691 690 699
3 691 699 700
3 692 691 700
3 692 700 701
3 693 692 701
3 610 609 694
3 701 610 694
3 701 694 693
3 609 604 694
3 607 612 695
3 695 612 696
3 696 612 614
3 614 616 697
3 696 614 697
3 616 618 698
3 697 616 698
3 618 620 699
3 698 618 699
3 620 622 700
3 699 620 700
3 622 624 701
3 700 622 701
3 624 610 701
