OFF
702 1400 0
-0.250716323136545 -0.353234816466641 2.11485382890326
-0.296316492307256 -0.338924016356882 2.09800752052958
-0.268061635425534 -0.356319786339899 2.06934719092067
-0.20376247725918 -0.359597296660936 2.11905597420083
-0.221994090210928 -0.366850583479774 2.0738363100435
-0.156895887935202 -0.363920628925454 2.12181954693701
-0.17555311224951 -0.370692806150853 2.07560805238735
-0.111464366835331 -0.367684563868227 2.12582518562498
-0.130179607436546 -0.374319902024654 2.07709676374628
-0.0665193577544443 -0.371280704239302 2.1301994434078
-0.0853707321033361 -0.377714792212318 2.08140347919851
-0.0189687862615228 -0.374257576742198 2.13751453539615
-0.0395288164500748 -0.380980472789818 2.0895737244583
0.0291058738074025 -0.369800845577734 2.14601540168053
0.00782532965738299 -0.382573108166071 2.09836638019999
0.0542673462962565 -0.373718325176016 2.10756501046289
-0.319159601717247 -0.312390713748603 2.12798528545929
-0.349134506916907 -0.293706185371207 2.1017160844896
-0.327700464142735 -0.321672777963142 2.07143160301556
-0.278502330552946 -0.329093652214197 2.14660329679474
-0.231685385659133 -0.338307866909981 2.1579327169189
-0.183923721229728 -0.34329426382797 2.16133482534004
-0.137101358047159 -0.347009214097073 2.16635206118238
-0.0918346785615705 -0.350220805384896 2.17185415058087
-0.0474753320385788 -0.355229101640949 2.17399730098734
0.00119666992213034 -0.355910213520805 2.18109421445334
0.0749032863713806 -0.353495178748198 2.15256366600697
0.0462733791283585 -0.343757085658015 2.18947885041966
0.0921454919237518 -0.322979130868634 2.1883128939637
-0.306335008164283 -0.293985474793793 2.17071700211352
-0.346746150295134 -0.272290295137127 2.14409845233437
-0.260185049427165 -0.307975623632453 2.18732183544706
-0.210156228105813 -0.314243362953752 2.19488683015931
-0.162500833500111 -0.318342019942193 2.19974107581296
-0.114837529162351 -0.320662864756774 2.20667387344109
-0.0700905295952808 -0.323259798069955 2.21269306085398
-0.0277523945262444 -0.332046707587724 2.21099767741577
0.0135232293131706 -0.323986975666022 2.22204294577002
0.059038153300779 -0.310171879707579 2.22417839796129
0.103593624231082 -0.287008116165107 2.21892788953568
-0.324930819174045 -0.258271985019064 2.19364143776633
-0.358369784916346 -0.235576039899682 2.16858516353764
-0.283757533495633 -0.273994441523567 2.21377593785716
-0.234611542202009 -0.284717708749819 2.22422331981445
-0.18580741012254 -0.28679820550057 2.23186143713744
-0.138296601811319 -0.291293904642958 2.23622363977322
-0.0867676920394355 -0.292122608948142 2.24567995406028
-0.0318161152640225 -0.300953618937875 2.24648391703027
0.0185655021987784 -0.293658127052727 2.25612250478916
0.0688704864388193 -0.27751403626834 2.25564199427451
0.11332163536019 -0.250484486657874 2.24924657275396
-0.309167164086907 -0.23660656710929 2.23754205325277
-0.349898860041239 -0.21734602626485 2.20768222778336
-0.259718305952111 -0.254131337891057 2.25126941921319
-0.212261395688698 -0.256533281967278 2.2618523419619
-0.166688790593297 -0.25754058924811 2.26989556015244
-0.122661474698312 -0.264909182120356 2.27019788641042
-0.0892273059623161 -0.253779785423071 2.28995741239379
-0.0542215892168845 -0.271836595509868 2.27595351669909
-0.0119179018912001 -0.268525623314964 2.28690579298192
0.0359169039768894 -0.261547935843829 2.28854327706347
0.0837528600455803 -0.241984063580918 2.28541692518391
-0.312667938440458 -0.198652402969339 2.28013229262006
-0.340770750391604 -0.199032094105776 2.24525558967842
-0.279501352076506 -0.224411141522395 2.27584714943485
-0.232365925941726 -0.227240791648787 2.29198479490297
-0.187610590644397 -0.226135683818866 2.30233758588454
-0.138637526661989 -0.230834576454767 2.30675718848785
-0.09323055039033 -0.225471390912513 2.32220628854916
-0.0456883733740356 -0.238025863347533 2.31716313106305
0.00234440425896026 -0.237626630009399 2.32246294451268
0.0500248311273106 -0.229583136791839 2.31936656460851
0.0972337223539106 -0.206500965671132 2.3135501512369
-0.302233414889231 -0.176278505423861 2.31682315251573
-0.346566563716545 -0.161923225512812 2.282590463639
-0.263308142752514 -0.200145951097042 2.31346876730823
-0.217359924982212 -0.194589480264208 2.33315668270363
-0.167263318949235 -0.198862521835016 2.33830197265765
-0.121443780923851 -0.198699017967124 2.34776299879785
-0.0698569720574809 -0.202522846317454 2.35373321359564
-0.0248421094262386 -0.208661405790706 2.35528308355269
0.0215029045510195 -0.205335444774537 2.35660266824746
0.0653349361906357 -0.197052801131826 2.34798065034957
0.101452542436251 -0.170946583502336 2.34841575512824
-0.297772978795364 -0.138734943768795 2.35498480262555
-0.331620229610193 -0.145783856968525 2.3214225913012
-0.26404068026279 -0.168252155533956 2.34861850618885
-0.229536949579825 -0.157120572327954 2.36706268755548
-0.186709153660077 -0.165327198497703 2.36811886394531
-0.141566438096424 -0.165553776498994 2.3757726135459
-0.0943097901743326 -0.168821352379873 2.38140924419108
-0.0456451220368889 -0.172837004701116 2.38671530303992
0.002675423764299 -0.175572616674089 2.38815858458163
0.0541783872802023 -0.168894646186729 2.38081982901617
0.101201277185317 -0.136828002002446 2.37490954723524
-0.339354956218427 -0.107705347389528 2.34075044608486
-0.260695015969394 -0.120604288050327 2.38196390946574
-0.30450307372097 -0.0959069322395573 2.37267510453773
-0.21119968876844 -0.12131713997409 2.39109815209473
-0.165103198469725 -0.125970580327945 2.39584827388408
-0.118399020597704 -0.126968419738847 2.40234274728911
-0.072539074125407 -0.13149431463761 2.40712591715055
-0.0258102716574413 -0.13591160601339 2.41179608907579
0.020865830367299 -0.137044964861776 2.40958720213962
0.0651198549805627 -0.129780741210801 2.39973433102114
0.0465419724819669 -0.0921639673369619 2.41869822224085
-0.277833826609553 -0.0697996484335265 2.3922025784343
-0.235278342532898 -0.0791433533076048 2.40153601634472
-0.186211832881045 -0.0809755715463841 2.40757797396706
-0.140428970720527 -0.0820868325321475 2.41329545386755
-0.0941127787474088 -0.083511382663471 2.41899727419378
-0.0494678641289197 -0.0901632807969467 2.42350438456848
-0.00170915645299521 -0.0943111834048503 2.42614222631524
-0.246107702844158 -0.361473855439287 2.0296710582345
-0.270092011488672 -0.345591982383051 1.99515228618116
-0.246686602481691 -0.336337788512458 1.95805395379247
-0.196434374012292 -0.367575999953057 2.02985757658305
-0.218217364855641 -0.356286155517429 1.98943411867137
-0.1503558137477 -0.370036196788651 2.02898774931716
-0.170072450539703 -0.356027008905111 1.98381597800525
-0.104909940012585 -0.372901368669922 2.03129691638404
-0.124746011077491 -0.357407328043187 1.98436136113256
-0.0595331887468264 -0.376705170688519 2.03872394673061
-0.0771258519464165 -0.361144117391128 1.99022742656863
-0.0145647554906808 -0.380890554539981 2.04882047997244
-0.0313481624647187 -0.366127876585687 1.99910303263288
0.0314954499009077 -0.379722589456317 2.05737651888353
0.0129252716621305 -0.37072422947621 2.01009591104217
0.0608050082516343 -0.364050949506948 2.01944857673552
-0.297816361074477 -0.342112418572148 2.03875872440684
-0.336557989819032 -0.310980436814986 2.02470792335883
-0.306939775425088 -0.32440749902633 1.99136484445949
0.0988430324822104 -0.353485270073566 2.11296578404383
0.0745866251922439 -0.368296307385156 2.06730324442832
0.114096101161443 -0.346740662957412 2.07058226012574
-0.374706821838039 -0.257700167120451 2.09431265094154
-0.385218201177261 -0.242295930928235 2.04559779094254
-0.362093850672798 -0.28534452552369 2.05590770976389
0.119780303569426 -0.327187505641302 2.14821225415483
0.140266486875462 -0.32272888009729 2.10402761209664
0.157208349790077 -0.293071773994176 2.13317100609204
-0.376991428142532 -0.231079507504463 2.12749922636961
-0.393059679047002 -0.212287211845899 2.08229279343411
0.133501123246182 -0.293138489161787 2.17858899996763
0.164290764571053 -0.255693813855412 2.16615745544227
-0.380911806481474 -0.194704520242267 2.16367841403814
-0.393734801757502 -0.184749548628769 2.12048603810991
0.141149797259963 -0.254567487496041 2.20905200714571
0.170497025308293 -0.215378475348928 2.19294847257057
-0.375433122788208 -0.177986144621114 2.20257690027577
-0.396175975363438 -0.147170226120267 2.16222915882731
0.149593980417938 -0.215153673787056 2.2370095105698
0.174703813324062 -0.175180669397118 2.22175073606237
-0.367592116828804 -0.162345926635632 2.24252164586153
-0.391660377100756 -0.132215386445107 2.20852941062598
0.126424774851257 -0.210990160141436 2.2766200577073
0.158667908258303 -0.171736324448721 2.26480375009854
-0.381588168011999 -0.123322148657308 2.25718325684313
-0.400139681326938 -0.0872721674087311 2.22814881855508
0.133640488734114 -0.172929588477148 2.30756875072895
0.163565435992606 -0.133481244076646 2.292973360476
-0.36604517227619 -0.118232151045255 2.29904608077877
-0.390594354541835 -0.0790139282128954 2.27610290922469
0.136916528785149 -0.137501106588603 2.33814742414126
0.1603380531155 -0.0985500491402654 2.3268046940158
-0.369161643884307 -0.0743109900294997 2.3193158383931
-0.33708406092745 -0.0651122761881923 2.35742096803875
-0.357101767197285 -0.0306598060604569 2.33991765295868
0.0937049989902104 -0.0913383996654279 2.39788582366206
0.116744205137369 -0.0509847236534041 2.38614404971494
0.130461651320984 -0.0972737411112689 2.36696075237102
-0.311751629589595 -0.0386161672974914 2.37827029239627
-0.259317840950466 -0.0289868172809915 2.40067817041287
-0.291470259761205 1.98668996095608e-05 2.38511281739838
-0.209662030456777 -0.0378166265571226 2.40884362284136
-0.162423406103527 -0.0349300005191724 2.41411209741468
-0.115801373344493 -0.0363390579493678 2.419374973109
-0.0689651679811338 -0.0378129241841432 2.42464375764466
-0.025935483803313 -0.048603508315304 2.42983574307081
-0.000710606873135095 -0.0117154782448686 2.42613714085105
0.0247626846071929 -0.0518274148356893 2.42773629753263
0.0734504480158306 -0.0502866220361062 2.41281405755958
-0.258151020671165 0.0293311020766726 2.38906501398454
-0.226377157415637 0.005026759187455 2.40216852174172
-0.182287326554159 0.0104275237299321 2.405101955389
-0.136192551788768 0.0104628256347274 2.4094295241179
-0.0894929741569033 0.00843691534771307 2.41436788887908
-0.0410738261997798 0.00670051828903882 2.41936415862368
0.0146643078892669 0.0263468193659205 2.41269448372395
-0.334859601678322 -0.292234780024409 1.97629308414384
-0.318726553043885 -0.276944212483372 1.93790372405498
-0.287881067041321 -0.31319934821299 1.95010238035363
-0.239132274776756 -0.312343953915144 1.92309899580018
-0.196996142438599 -0.336801022021118 1.94806758861677
-0.146504792770431 -0.331861832437354 1.94147951500286
-0.0964841195753792 -0.337129921416729 1.94926269954514
-0.0443979423958501 -0.341221897236371 1.95551463978111
0.000953296896403277 -0.346936651296677 1.96394464990489
0.0451023389023883 -0.350729213449556 1.9797785960735
0.087420095331549 -0.332401264599329 1.97946285766012
0.100301764829687 -0.347688064600991 2.02687876296256
0.126722578195062 -0.320653874222862 2.00995499740311
-0.364794901476797 -0.271564950374709 2.01046290827607
-0.382717527378366 -0.224816178443403 1.99917042198176
-0.359193298071541 -0.250385214569522 1.96803485575757
0.143431553186289 -0.319372627732819 2.05456769702076
0.159132356140234 -0.289464016872002 2.02424727857085
0.169227151518703 -0.288062154383382 2.07947949700203
-0.397034545253269 -0.19320896203521 2.03681382836449
0.188768985057816 -0.245684954317856 2.07824495638464
-0.400135481275329 -0.163395654728869 2.07046498588165
0.180925939608591 -0.254990771024285 2.12046535101221
-0.401172417182667 -0.142724794753136 2.11395895932382
0.186375133394616 -0.21378915176328 2.14566025095949
-0.403417773392171 -0.103482577702012 2.13085532823566
0.188789842912724 -0.174380806875124 2.17101278418833
-0.403306135303606 -0.0973206647611058 2.17832899949506
0.189279386502884 -0.137982216089435 2.19954042976046
-0.406659069524726 -0.0503235562760007 2.19838945923924
0.181492731082074 -0.126980463086515 2.24539421311822
-0.402786003839833 -0.0410571696931954 2.24909971787493
0.181543777897632 -0.0891824123668297 2.27950253342302
-0.385917626309764 -0.0341709185224749 2.29734578567654
-0.392578356095935 0.00406348840512553 2.26966761009341
0.149933369687133 -0.0548818476596349 2.3520397738691
0.174179552388574 -0.0570689428073071 2.31085367629694
-0.36878321745274 0.00849778601846073 2.31595108567193
-0.333881085213003 0.00297789746576352 2.35696387467104
-0.341089409833859 0.0453478533098065 2.33064887554632
0.0491460613258859 -0.00952021724793722 2.41698657697509
0.0955732070196969 -0.00874690764247565 2.39528275620593
0.134411576872993 -0.00957228929116427 2.36312809066152
-0.304227661870211 0.0407827457275794 2.36385627816723
-0.263818493659397 0.0675525947442424 2.36789042257903
-0.211229661964787 0.0513904543599011 2.38690006479535
-0.162194635090085 0.0536004636402123 2.38943383577518
-0.114838763031455 0.0525680370690417 2.39347662824349
-0.0674529350199335 0.049401313759757 2.39870798458243
-0.021461900370153 0.0500998736464599 2.40156864096294
0.0321072548442002 0.0618415650961642 2.38916121743828
0.0659930801459035 0.029855519579492 2.39651784960441
-0.307636439527349 -0.244023268465274 1.90355207119594
-0.276032532395266 -0.283422125282191 1.91169073794835
-0.227618423288001 -0.279721060641372 1.89146134752565
-0.190173328528666 -0.308540138264003 1.91380254078933
-0.146580509302641 -0.296128881078296 1.90479284179339
-0.106303479944326 -0.303971468669102 1.91359998321102
-0.0592391323661131 -0.312915429336586 1.92376842500982
-0.00305521306510559 -0.313950623905857 1.9274209109005
0.0445636579091626 -0.323832370425354 1.94437012370996
0.0897289000159618 -0.299941651988936 1.94410634534467
0.127777744599827 -0.296321381608315 1.97634130453813
-0.371132933181258 -0.197735672650084 1.95593597270498
-0.343233057267151 -0.234607218252133 1.93360488092931
0.160432776207809 -0.260390447832572 1.98755529689968
0.180734019932931 -0.253980744415517 2.03592315109354
-0.390183932915736 -0.177098860305767 1.99634311051976
0.197131923602143 -0.206585384152897 2.05144445241887
-0.395576767345768 -0.137209219970328 2.02669344308333
0.196235197475856 -0.205517241070717 2.10122802740711
-0.399470017072804 -0.115027672431012 2.07499614686194
0.196821612994212 -0.163754978254547 2.12441162346797
-0.39870675433397 -0.0721008585153076 2.09629161215477
0.196466147623111 -0.12541934222666 2.15244617007938
-0.403550522536619 -0.0579599317076125 2.14770355488813
0.193413504638329 -0.0957059478847724 2.19834502734719
-0.402515881038144 -0.0132163377234846 2.16774859715182
0.190347661346295 -0.0753188552456956 2.23828005545078
-0.403877220291624 -0.00418947111218564 2.2193720863851
0.185404398976746 -0.0327403908928559 2.27483980355576
-0.388934132748283 0.040331433382267 2.23959459979634
0.164196919834467 -0.014440812977815 2.3229771271889
-0.37012016835331 0.0462056439619114 2.2873242301931
-0.337343693385859 0.0829131216677021 2.30056079221603
0.108250674992532 0.0316923816047274 2.36880254990048
0.143460676974806 0.0285453801109273 2.33243599085228
-0.303341006907368 0.080023184747062 2.33738505489487
-0.259864286852135 0.106508175191279 2.33688803838749
-0.224146550960791 0.0874599124360923 2.36256098106661
-0.179256576756451 0.0914525225479428 2.36178868162442
-0.135137378094364 0.0919593998766001 2.36356643042249
-0.0883887645583218 0.0880579005496517 2.36929025697993
-0.0450804821724135 0.0879435962194541 2.37156505923562
-0.00245527213133054 0.0860788481677832 2.37479609260861
0.0752547392231191 0.0686045340682566 2.36611978561529
-0.304366524577016 -0.208710555871635 1.87570760870344
-0.265756904516736 -0.247775447208225 1.87907090956142
-0.218878164507521 -0.24443901059647 1.86074373498692
-0.179104065445622 -0.270887998531845 1.88132447523135
-0.125302065615595 -0.2615094921315 1.87591450887393
-0.0793410628946062 -0.274018065304245 1.88904393155976
-0.0336172838203734 -0.285809848654526 1.901541605647
0.0097388266082902 -0.273658531408947 1.89320871325031
0.0474717096845463 -0.290901993128935 1.91473425685935
0.0939881731270882 -0.264653222752463 1.91260698877049
0.130724613699569 -0.263890685192585 1.94530916936345
-0.366295174715433 -0.159384084880334 1.92675820965561
-0.341841745797524 -0.199723420206986 1.90972125600888
0.166234372787558 -0.225807812931408 1.95755130605815
0.186400838314478 -0.218825263219128 2.00408196103599
-0.385458487461532 -0.143891790338257 1.97154003275848
0.203289765294289 -0.171711070091837 2.02381985092916
-0.389023593031571 -0.0991318018401751 1.99446149643177
0.20251249196714 -0.162091359166709 2.07597975848172
-0.393373869710561 -0.0848351679589052 2.04161115252257
0.202855960433184 -0.116779120271268 2.10248554712676
-0.392697087089456 -0.0398616754184583 2.06499424656503
0.200180719234098 -0.0808801344372002 2.14911207106553
-0.397289891173544 -0.024453187348441 2.11497316576144
0.198274017933922 -0.0508003683512861 2.18527379089975
-0.396398576092521 0.021405480814263 2.13706060786706
0.19465555131468 -0.0327681343749111 2.2282023335159
-0.397753893647978 0.0318636115686197 2.18917925938884
0.190975028469386 0.00972383377367751 2.24485751467506
-0.382717732480308 0.0760242712624586 2.20917569541491
0.172843088869042 0.0166865433647297 2.290016386843
-0.364090729418604 0.0819950887033127 2.25685590340552
-0.330359908739969 0.119250265645151 2.27033160306743
0.114944718242541 0.0693758521594626 2.33677055136906
0.150902549850045 0.0631030952160349 2.30086971940913
-0.297080591945153 0.116147806023392 2.30665485835885
-0.248505238566017 0.141174700138412 2.30918109826189
-0.208202002557298 0.122239425935715 2.33370240242978
-0.157253433244466 0.129057740387633 2.33036419003235
-0.104551015476548 0.122459423282386 2.33871995485637
-0.0561711880228043 0.124031639724334 2.33979086288496
-0.0100758880541745 0.121915908656071 2.34393677844715
0.0378015840181111 0.101002152344596 2.35628718147344
0.0791082748937994 0.106840646636771 2.33491704850005
-0.298877431930466 -0.174014883552536 1.84644328929834
-0.260887852909882 -0.212098106446379 1.84916899688659
-0.212954647538955 -0.210695467453677 1.83183326800879
-0.168015320474905 -0.23755498606026 1.85304639362132
-0.120821300906699 -0.222443625774366 1.84234651524323
-0.0787306810983594 -0.237053350967838 1.85709957899017
-0.0340609071017047 -0.25071131594849 1.8711579671508
0.0122578060366821 -0.236136377240037 1.86087726003268
0.0554754313255108 -0.253740084164832 1.88340611628195
0.100913707967762 -0.22845920991937 1.88206138464799
0.136779910957981 -0.229834824069928 1.91633104564388
-0.359877118919728 -0.123029689050635 1.89537899692392
-0.336527556457814 -0.165979402598919 1.88152988680963
0.172522136764107 -0.191008516705975 1.9282829626409
0.192924891908698 -0.183075237932773 1.97481088461703
-0.37911658109097 -0.110609087726074 1.94098506880144
0.209354404196329 -0.13703968303892 1.99539120474587
-0.382759056276492 -0.066065110939191 1.96148236707542
0.208402088973166 -0.12619567723418 2.04810659621575
-0.387129011518794 -0.0468469859847156 2.01200587621141
0.209694665097326 -0.0811139023507499 2.06619652917093
-0.387252501998652 -0.002753837123762 2.04176747164289
0.205635837213873 -0.0667656410598992 2.11084088244368
-0.391215456156028 0.011890357101106 2.08577845778102
0.205083112588406 -0.0248157279999005 2.14295076306861
-0.390089212917476 0.056049570526713 2.10471810758769
0.201161595036225 -0.00228345523914578 2.19172484116674
-0.39183459341279 0.0663413561220761 2.1580610540866
0.19807887993542 0.0425639652411087 2.21171874936085
-0.376606090111519 0.110933493973514 2.17956508989483
0.178325049024272 0.0551573721985177 2.25954082575386
-0.357427826142221 0.117786214562547 2.22721536046754
-0.322090321538331 0.154935658960699 2.24240153415543
0.120329535488657 0.10568126040685 2.30649215756726
0.156270363953962 0.0999469383027203 2.27069962527024
-0.287318657164426 0.151554643612088 2.27902453835881
-0.238991087492776 0.175947050634333 2.28057345162075
-0.197545217919636 0.156145179917269 2.30490776643401
-0.152704245516867 0.170508005906388 2.29473737029716
-0.115502203446178 0.154117221407644 2.31078461349611
-0.0678191097226929 0.157473043980959 2.31027748943464
-0.0174398995689437 0.15809955323427 2.31226682586669
0.0327080940329039 0.137600385056134 2.3276412485132
0.0803879998180983 0.142207421094427 2.3071922144955
-0.292680402922925 -0.139247511102968 1.81652050334127
-0.255332491565177 -0.176775453399043 1.81920266706415
-0.20905643392612 -0.17593785304894 1.80247233039569
-0.164714884783043 -0.202924285277798 1.82325618978584
-0.115045268943414 -0.185515681781631 1.81069227178002
-0.0729719668167579 -0.199296638539526 1.82472716843073
-0.0309786561577207 -0.214529131121984 1.84001437139985
0.0152704816743711 -0.198938126442698 1.82885094392982
0.0588348823069653 -0.218467141267839 1.85234366394011
0.104095292808187 -0.194378305983309 1.85104283847309
0.142964977322437 -0.195280517505072 1.88697884957801
-0.354919539127912 -0.0860674078356559 1.86673962327517
-0.330379186896722 -0.1317772067315 1.85194390151952
0.178451470919158 -0.156348192227226 1.89844940783251
0.19907658824776 -0.14789846505221 1.94492258396508
-0.373214181000692 -0.073461902826533 1.91107366282957
0.215225243794267 -0.102763004533883 1.96459422835082
-0.375930671604211 -0.0257984829736464 1.92828399631642
0.214814657833252 -0.0905674456467553 2.01549944643894
-0.38058588610113 -0.0199634759280515 1.97258104689279
0.215520510693191 -0.0428054939162949 2.04044133304836
-0.381957720358476 0.00985928079570966 2.00391739819867
0.210979800044364 -0.0291578993359784 2.0888295192716
-0.384345242042561 0.0478930772774194 2.04944097971854
0.211567053389611 0.0143843954278876 2.1120541222005
-0.384187169207453 0.0900042471661039 2.0754680297355
0.207146190438486 0.0279280224843983 2.15932735134683
-0.38590414764223 0.100572521508979 2.12876121384443
0.20462106764359 0.0753091984586079 2.18044392775428
-0.369632354849325 0.146413894867216 2.15272773451255
0.185252317623538 0.0892701462029518 2.22820760120744
-0.350138025534226 0.153227165420633 2.19932665719237
-0.315049593509085 0.18996769799095 2.21359529670238
0.125034346032176 0.14117803607953 2.27737292434259
0.162554559159202 0.134706057652823 2.24057925657017
-0.279329932579428 0.186475275604753 2.25049668912796
-0.232844394531373 0.211444791050374 2.25017542476054
-0.19081090902542 0.193641079540807 2.27281144975843
-0.140272215796355 0.207111752482941 2.26369793077922
-0.100758214735952 0.189260964127258 2.2811249059694
-0.052492671504201 0.192386609238767 2.2808458715973
-0.00441796586846419 0.193545839213958 2.28225839908442
0.0359437187516776 0.17087584327827 2.29962907255727
0.0874652632882859 0.175295307537845 2.27816408995255
-0.29397369718993 -0.102477269846639 1.79215203406456
-0.248976168054323 -0.140575256045569 1.78816056700641
-0.201107020756993 -0.142088249513102 1.77311544458106
-0.159669642712595 -0.169912784045381 1.79495356805511
-0.109900331240037 -0.150217945708321 1.78046610435629
-0.0662590808796554 -0.161278070288761 1.79217758851705
-0.0263622048336394 -0.176055885046891 1.80696486050153
0.0171137974330466 -0.161282190172471 1.79638053044883
0.0615618522785692 -0.183523689323686 1.82146148218427
0.108144647006705 -0.159861242384073 1.82023305793085
0.145267782064466 -0.16341367075875 1.85593427842996
-0.349594710122067 -0.0484925185678734 1.83798003569863
-0.327681493664245 -0.0954874269859157 1.8257379615585
0.178959637497821 -0.127217867374286 1.86477210677244
0.204939683965234 -0.112715120202123 1.9138523710954
-0.367149320994305 -0.0350313536653548 1.88032957928049
0.222122090311084 -0.0647356970545944 1.9450964564012
-0.369730114641734 0.0125343448063716 1.90320738997221
0.220560729852847 -0.0522233186511276 1.99046726716328
-0.374921751448699 0.0255473343543382 1.95292029563351
0.221591459837686 -0.00555546944874837 2.01058955290626
-0.378455573838154 0.0514987994027028 2.00055050854678
0.217135681587102 0.00707786548661293 2.05885535506051
-0.377624481606912 0.0938522652829977 2.02087552642204
0.217872945269453 0.0510343502105565 2.08057696478392
-0.378881770395985 0.128388861130257 2.05437131586167
0.213367163326965 0.0648266310347003 2.12921751359615
-0.379521604350464 0.136087345727361 2.10409756016404
0.210513595639392 0.110435427858321 2.15100497009649
-0.363353215043977 0.181538776640275 2.12345530761054
0.19159517512456 0.123303134249838 2.19811912397243
-0.343288771434511 0.188747418307268 2.17036557154029
-0.308997922222711 0.224934770417628 2.18364508717809
0.131738384161797 0.176030634457136 2.24694071980388
0.168817831423249 0.169528901683074 2.21038206081972
-0.27356397570838 0.221313964535932 2.22047503066415
-0.227349532270476 0.246483723098005 2.21993097400185
-0.183660426836371 0.229234186071862 2.24238133722277
-0.135050245941596 0.241361511835853 2.23430673331971
-0.0874042386604887 0.226273618693933 2.24977850037156
-0.0373964454212945 0.227164187482763 2.25152053124912
0.00911447872292656 0.22753851581865 2.25353345016141
0.0482541965594902 0.20384173949702 2.27005377063762
0.0944509413556993 0.210183819047859 2.24779381434376
-0.256681949126113 -0.102590241383394 1.76659755661389
-0.215159116420795 -0.106004456668236 1.75289598199216
-0.168756646918534 -0.103139331933471 1.74667320003021
-0.153798655564127 -0.137124925597817 1.76775387060596
-0.116598854933929 -0.109151175475815 1.7534245171249
-0.0698239713190352 -0.12108540755694 1.76317939818245
-0.0229314966679206 -0.13228687092339 1.77301552798765
0.0249597342300198 -0.121415004908872 1.77052654497394
0.0644873708035781 -0.149369023259637 1.79270527886372
0.10886737712364 -0.123139893275713 1.79297927944345
0.149276704457534 -0.127474712381326 1.82568800699045
-0.337342430189919 -0.0110979780597323 1.81333201667784
-0.320606417932952 -0.0576324475789433 1.79813789194819
0.197944877908748 -0.089850709971172 1.86820923059189
0.215648645198979 -0.0675713321447641 1.90194882271156
-0.357558892647479 0.00456128182197095 1.85303461058125
0.221057544528739 -0.0243566766832672 1.91339541619541
-0.354714375373751 0.0485674947318655 1.87493118432713
0.223912156337158 -0.0133931060022441 1.95894364617579
-0.364396169413802 0.0613497341984001 1.9200548707278
0.220343671979067 0.0298540499447988 1.97855071635158
-0.371331434172722 0.0778809902032282 1.96617282163226
0.220562266210188 0.0442977861144351 2.02642564861288
-0.365389692242071 0.12321059648081 1.98183177167845
0.217391309494643 0.0863919833314736 2.04924613938677
-0.368450001792153 0.149831370242277 2.01816393536021
0.217241594365597 0.101057315436324 2.09682323703505
-0.372387790889789 0.170349065393827 2.07312561447112
0.211243891478953 0.142285982505478 2.11974418997738
-0.354671986772633 0.211231313086728 2.08876026950598
0.195786326397808 0.158122565042925 2.16816315000645
-0.33722327475347 0.222310942106758 2.13837852792615
-0.3017158692673 0.254844183784456 2.15077097379374
0.136706695488181 0.210911038392931 2.21511639374911
0.16860099957573 0.20361903867388 2.17799964926811
-0.266277411241412 0.25544978768188 2.18974860115441
-0.217714007759047 0.278212839643056 2.18465751633662
-0.180413962674415 0.263941372250601 2.20956112314669
-0.138623703025314 0.272764344093927 2.19901345689711
-0.0944770634431794 0.262844855344509 2.2129605263583
-0.0498110354263352 0.258538435842509 2.21930941147864
0.00026200123450637 0.258004108837857 2.22095173642034
0.0522285535653808 0.240095157004982 2.23759381297617
0.097580199802624 0.241474461656672 2.21499088769537
-0.282136102337725 -0.0619480696388895 1.76561425901398
-0.236758598468836 -0.0626234427475933 1.74325686312821
-0.189091083597252 -0.0638635929026513 1.73360413301905
-0.137223111886999 -0.0677939761276339 1.73652094504062
-0.0866985818702511 -0.0743796539534815 1.74305097598701
-0.0405476721860756 -0.0843310102256162 1.75019484305381
0.00356445706422305 -0.0838672994748749 1.75417158472817
0.0505800307395285 -0.0735700613064701 1.75633678727876
0.071103468515202 -0.108758116706723 1.77125935344604
0.103050847351105 -0.073098037882314 1.77086278724439
0.139600691876749 -0.0906934301985671 1.79724110054127
-0.302173836061331 -0.0202170575598815 1.77466419283051
-0.27708248374977 0.0217935286392781 1.76141144246011
-0.259659380224215 -0.0211667094263822 1.74726973072214
0.149728093030674 -0.049634504568548 1.79524240197069
0.175961691799263 -0.0837248885595266 1.82981547390531
0.179179007593309 -0.0362061512589123 1.8234656092267
-0.334388884825189 0.0429051044732386 1.82595881024215
-0.314572916985303 0.0211233558120575 1.79158379151008
0.203379055629624 -0.042710952938246 1.8611070440712
0.208600852415375 -0.000803000966682788 1.87874120392863
-0.331215044228385 0.0802347492510171 1.8528953850918
0.214413924654463 0.0244992224148023 1.92242456163036
-0.341112420744846 0.0995739522579424 1.89259056715648
0.209335207918571 0.0613604524687461 1.95054331375819
-0.353596489599324 0.109664617159422 1.93244363734791
0.211911814135685 0.0816525891988354 1.9930732524406
-0.342651856297442 0.148829888037734 1.94676247993088
0.206971585317343 0.118389241913895 2.02087146348943
-0.346544832507383 0.176624145832554 1.98370821305209
0.209346234351574 0.138500716450908 2.06318362598335
-0.360036556398578 0.191037681952064 2.03659196303236
0.201736538084656 0.173772105188184 2.09026998661502
-0.326329163211108 0.248099522111418 2.10120690896698
-0.338256175417088 0.233248269910332 2.05242786431768
-0.307432142989276 0.266230369637497 2.05914155871618
0.192266008596708 0.188379349423021 2.13479055952331
0.178846223003652 0.214934106740568 2.09171282607037
0.165598926732233 0.226875529890607 2.13718862858829
-0.258587951380425 0.281131581157351 2.15333988798119
-0.292404637413262 0.275282936475635 2.11197171801751
-0.250612724938322 0.297194224397814 2.11120670214951
0.132891809516316 0.242488897177054 2.17665578125228
0.100441668199254 0.275112082795735 2.1413441101846
0.0881608035250274 0.267387192799218 2.18007689570792
-0.211427481844234 0.298788218854155 2.1449896892189
-0.167428596429701 0.292941602063932 2.16461365129049
-0.114510297721221 0.290691492170575 2.16694138629856
-0.0700273441643424 0.285740249332572 2.17562986788142
-0.026204504366574 0.282497317293018 2.18059119974353
0.0165358211729272 0.281775768226219 2.17997338608098
0.0497702039600502 0.267000711395141 2.2029491112142
-0.210836753580953 -0.0211569361373558 1.73125310454385
-0.159546019526936 -0.0249221679084114 1.72829579716881
-0.108767843336308 -0.028964365707589 1.7339613334811
-0.0608848268743417 -0.0337906673949208 1.73951653739508
-0.0160472966495663 -0.037341355347828 1.74467923120776
0.0280265908564301 -0.0331616392474546 1.74954772105873
0.076619673753389 -0.0317858867552275 1.75733397822437
-0.232872753593514 0.0199739927178489 1.74060448812888
-0.205723110126976 0.0574410346942523 1.74541513581691
-0.181473980351517 0.0183430423415515 1.73124172726
-0.130669999239374 0.0150590724848418 1.73435687174096
-0.0829949611219447 0.0139691173273304 1.74029191590729
-0.0357180195660875 0.0105574460567852 1.74575017142218
0.00905652603898448 0.0120312585069008 1.75188064291475
0.0559956153392439 0.0112752692711098 1.75798035675539
0.104151082262607 0.0123277939494289 1.77263079289887
0.151281042242163 0.003016452009218 1.79988026195054
0.120140835042709 -0.0281087276657126 1.77477983982703
-0.295170967931889 0.0610644187074178 1.79026704980512
-0.263279965074462 0.0995718136712767 1.79336852056025
-0.252616689175719 0.0622620733888095 1.76263419783855
0.127139120120084 0.0454500112445039 1.79768720634775
0.185199707251178 0.00542634591696808 1.83749990855122
0.163231933751323 0.0456581501674934 1.82958065737409
-0.303054247350253 0.0913165721021257 1.82190563514952
-0.269842446823465 0.129647404344081 1.83004861957833
0.193608893119666 0.0407472089239186 1.87284062230283
0.16562782376291 0.079847819445205 1.86441821341255
-0.307716500642229 0.123080540862043 1.86217203591815
-0.276905450719769 0.159108238723699 1.86859448393
0.192515333457232 0.0704201237672439 1.90659862132477
0.163625691613791 0.11127935371632 1.90047198545129
-0.318859143760761 0.146572942385918 1.90287415351631
-0.281805329404538 0.186430919570126 1.90311632171768
0.191039734875652 0.102179753728108 1.94427461055631
0.162526163939773 0.141736259274232 1.93674903765692
-0.315802113002572 0.183968345380233 1.93865276282182
-0.279938098967502 0.219449872493267 1.93794332923131
0.190288429479037 0.129771937185063 1.97842131501339
0.161790784776207 0.171542493415729 1.97281507192447
-0.313095377569419 0.217985243003474 1.97171151024795
-0.279410632819186 0.254102172320981 1.97751273303163
0.189159482480297 0.160976324477242 2.01633544130417
0.160507043768972 0.201558909692173 2.00826605110623
-0.336630525433275 0.216326293347127 2.00809467821151
-0.307479583789753 0.253090076765468 2.01370504460465
0.187387921782195 0.189013115018506 2.04996481737389
0.157217734666976 0.228904665073975 2.04546278743121
-0.274290476856309 0.289239175182491 2.0707481040387
-0.269227654564402 0.282897736351565 2.02240937080133
-0.236764399218276 0.303332318146915 2.05700208772529
0.135006466213397 0.256686901561045 2.1302902038746
0.148709670475005 0.247689182167958 2.08809066463911
0.108697691299494 0.275060307051055 2.08931115228444
-0.212245389219138 0.309206944957355 2.09711034249286
-0.186691571816846 0.311658254868795 2.06136185202279
-0.171710386348858 0.308866224553969 2.11566815790613
-0.142758247242538 0.310087328593703 2.0747351346597
-0.129234160023827 0.304857888279059 2.1247426110297
-0.0986324057884556 0.306786156909246 2.07980002394565
-0.0824313579193559 0.301904297196397 2.12742440182807
-0.0537664748143331 0.303359493212629 2.08311027359418
-0.0381253199813416 0.298424761925003 2.13335211998351
-0.0101838268374111 0.300033580582687 2.08669733178965
0.00640202165548691 0.295711274055132 2.13525543271063
0.0340404907707003 0.296838085991911 2.0944845672694
0.0521310972520635 0.288573996246977 2.14995295772581
0.0718111204831963 0.289991272763784 2.10680374844108
-0.175047465310321 0.0902411030463675 1.75968975844516
-0.152435372400795 0.0564729286248882 1.74337474181963
-0.106720880203195 0.0588213034357379 1.75097885780134
-0.0579686110704275 0.0547140249973516 1.75637953546584
-0.0130738930511681 0.0564679059480767 1.76386886317811
0.0323227494801456 0.0556763513548324 1.77034172855675
0.078368832956784 0.0516402014146029 1.77742896067673
-0.220114774117591 0.0979402422359779 1.77174946696607
-0.177618123210543 0.124523961682891 1.78770482493925
-0.131524611589728 0.100082923903222 1.77128673857955
-0.0805520299529305 0.0932704909735873 1.77492481346323
-0.0362541841184642 0.0964177316750987 1.78491355674718
0.00827483865165043 0.0963398417474318 1.79265945303475
0.0534780408685825 0.0935087202426682 1.79832314497203
0.096951517132295 0.0837145862007443 1.80506782605547
0.131598717573679 0.0857139745887362 1.83019674924466
-0.225155050679919 0.13114048738587 1.80500003951997
-0.185371782432139 0.155542062350328 1.82333032254504
-0.139436586805326 0.140019952185507 1.80925956365444
-0.100189233779521 0.124670727325254 1.79942857964177
-0.0574212896294557 0.129624769676588 1.81371185068023
-0.0137146361640441 0.130179212870163 1.82320203637912
0.0344205177013683 0.12656197566378 1.82871596305127
0.0843017804078045 0.118843288030353 1.8344572139628
0.129109602797557 0.116049023195755 1.86315878356661
-0.232094380622598 0.160942792160703 1.8416610530228
-0.187150367303819 0.185389001620617 1.85783685210178
-0.141071475994042 0.171426499771293 1.8456046384113
-0.0944212288820327 0.155698460411036 1.83667524894333
-0.0475085330117729 0.162026059138124 1.8535548456664
0.00270845004207687 0.158179451023149 1.85922209623252
0.0505342518340881 0.15415637038976 1.86421248741644
0.0926755024830603 0.146283042951259 1.87149744519165
0.127860449820973 0.148170901271331 1.90089644687184
-0.235665141222068 0.189933319325241 1.87602912873942
-0.189761537898739 0.213773122492545 1.89073148205033
-0.140784050750368 0.203086021132334 1.88263374569084
-0.0981708202401348 0.186148480275467 1.87147481813468
-0.0603391185956021 0.194308775182021 1.88865769457365
-0.0155994183746831 0.188655259396269 1.8911066158469
0.0324313577861123 0.185142514686439 1.89672104929963
0.081519989085203 0.178799516744885 1.90411198694619
0.126740098730611 0.17701198843628 1.93478496766544
-0.238970046843963 0.218129152761997 1.90940428501826
-0.196185374746613 0.241793835242395 1.92363704728088
-0.146162357533724 0.232980387140448 1.9164546056018
-0.0968914657307827 0.221438877593306 1.9129455163587
-0.0453380056478348 0.221545441210494 1.9234989310038
0.00285572751011497 0.217053903373863 1.92800395288637
0.0492846934776013 0.213702315439211 1.93354751604614
0.0908219809240073 0.206452572783295 1.94202088892933
0.125853495565228 0.208598113252705 1.97224512046689
-0.243698193084649 0.248434602754825 1.94588510549778
-0.205945564223129 0.270184410147849 1.95836998524933
-0.158955676352276 0.264319919799893 1.95053473153018
-0.11231124974867 0.254738211724281 1.94871197669902
-0.0676331470578095 0.250475667890594 1.95277216696683
-0.0186383415724539 0.24832125483421 1.96016870607879
0.0301934187293185 0.244821342970704 1.96595979378128
0.07932021210937 0.239097539789482 1.97446736319541
0.124199231133771 0.236870516505339 2.00591208956884
-0.239563101752582 0.280412516751243 1.98730999493775
-0.183077582674375 0.290820997274648 1.98830180573596
-0.134319411951938 0.285039598728495 1.98624066827034
-0.0896551622348725 0.280497121863904 1.98920873281585
-0.0447599327091288 0.276572309624525 1.9933688345834
0.0016367259746814 0.273654981778314 1.99967925067236
0.0467323262215525 0.270799106304507 2.00595086534902
0.0874668052258226 0.263878225866992 2.01542371371793
0.119384914570062 0.261161590168771 2.04854822547844
-0.214692451675783 0.300630389610862 2.01990187916971
-0.160545819299819 0.304219342256376 2.02568769356792
-0.114751719054175 0.300879087194535 2.03125991124258
-0.0696605496106067 0.297088774061495 2.03495304562476
-0.0238765552799423 0.293253516501747 2.038791571459
0.0232914403148813 0.290159206245805 2.0457220323821
0.0702603725260165 0.284870386915026 2.05539557144659
3 0 1 2
3 0 2 4
3 3 0 4
3 3 4 6
3 5 3 6
3 5 6 8
3 7 5 8
3 7 8 10
3 9 7 10
3 9 10 12
3 11 9 12
3 13 11 14
3 14 11 12
3 13 14 15
3 16 17 18
3 16 18 1
3 0 19 1
3 19 16 1
3 0 3 20
3 19 0 20
3 3 5 21
3 20 3 21
3 5 7 22
3 21 5 22
3 7 9 23
3 22 7 23
3 9 11 24
3 23 9 24
3 24 11 25
3 25 11 13
3 13 15 26
3 27 13 26
3 25 13 27
3 27 26 28
3 17 16 30
3 30 16 29
3 29 19 31
3 29 16 19
3 31 20 32
3 31 19 20
3 32 21 33
3 32 20 21
3 21 22 33
3 33 22 34
3 22 23 34
3 34 23 35
3 23 24 35
3 35 24 36
3 24 25 36
3 36 25 37
3 37 27 38
3 37 25 27
3 38 28 39
3 38 27 28
3 30 40 41
3 30 29 40
3 29 31 42
3 40 29 42
3 31 32 43
3 42 31 43
3 32 33 44
3 43 32 44
3 33 34 45
3 44 33 45
3 34 35 46
3 45 34 46
3 35 36 47
3 46 35 47
3 36 37 47
3 47 37 48
3 37 38 48
3 48 38 49
3 49 39 50
3 49 38 39
3 40 51 52
3 41 40 52
3 51 42 53
3 51 40 42
3 42 43 53
3 53 43 54
3 43 44 54
3 54 44 55
3 44 45 55
3 55 45 56
3 45 46 56
3 56 46 57
3 46 47 58
3 57 46 58
3 47 48 59
3 58 47 59
3 48 49 60
3 59 48 60
3 49 50 61
3 60 49 61
3 51 62 63
3 52 51 63
3 51 53 64
3 62 51 64
3 53 54 65
3 64 53 65
3 54 55 66
3 65 54 66
3 55 56 67
3 66 55 67
3 56 57 67
3 67 57 68
3 57 58 69
3 68 57 69
3 58 59 69
3 69 59 70
3 59 60 70
3 70 60 71
3 71 61 72
3 71 60 61
3 62 73 74
3 63 62 74
3 62 64 75
3 73 62 75
3 64 65 75
3 75 65 76
3 65 66 76
3 76 66 77
3 66 67 77
3 77 67 78
3 67 68 78
3 78 68 79
3 79 69 80
3 79 68 69
3 80 70 81
3 80 69 70
3 81 71 82
3 81 70 71
3 82 72 83
3 82 71 72
3 74 73 85
3 85 73 84
3 84 73 86
3 86 73 75
3 75 76 86
3 86 76 87
3 76 77 88
3 87 76 88
3 77 78 89
3 88 77 89
3 78 79 90
3 89 78 90
3 79 80 91
3 90 79 91
3 80 81 92
3 91 80 92
3 81 82 93
3 92 81 93
3 93 83 94
3 93 82 83
3 84 95 85
3 84 86 96
3 97 84 96
3 95 84 97
3 96 87 98
3 96 86 87
3 87 88 98
3 98 88 99
3 88 89 99
3 99 89 100
3 89 90 100
3 100 90 101
3 101 91 102
3 101 90 91
3 102 92 103
3 102 91 92
3 92 93 103
3 105 103 104
3 103 93 104
3 93 94 104
3 96 106 97
3 96 98 107
3 106 96 107
3 98 99 108
3 107 98 108
3 99 100 109
3 108 99 109
3 100 101 110
3 109 100 110
3 101 102 111
3 110 101 111
3 111 102 112
3 112 102 103
3 103 105 112
3 117 114 115
3 116 113 117
3 117 113 114
3 116 117 119
3 118 116 119
3 118 119 121
3 120 118 121
3 120 121 123
3 122 120 123
3 122 123 125
3 124 122 125
3 124 125 127
3 126 124 127
3 126 127 128
3 129 130 131
3 114 129 131
3 114 113 129
3 113 2 129
3 129 2 1
3 4 113 116
3 4 2 113
3 6 116 118
3 6 4 116
3 8 118 120
3 8 6 118
3 10 120 122
3 10 8 120
3 12 122 124
3 12 10 122
3 14 124 126
3 14 12 124
3 133 126 128
3 15 14 126
3 15 126 133
3 132 15 133
3 132 133 134
3 135 136 137
3 137 17 135
3 137 18 17
3 18 137 130
3 129 18 130
3 18 129 1
3 15 132 26
3 139 132 134
3 139 138 132
3 138 28 26
3 132 138 26
3 138 139 140
3 136 135 142
3 142 135 141
3 17 30 135
3 135 30 141
3 143 39 28
3 138 143 28
3 143 140 144
3 143 138 140
3 141 145 146
3 142 141 146
3 41 145 141
3 30 41 141
3 147 39 143
3 147 50 39
3 147 144 148
3 147 143 144
3 145 149 150
3 146 145 150
3 52 149 145
3 41 52 145
3 151 50 147
3 151 155 50
3 151 148 152
3 151 147 148
3 149 153 154
3 150 149 154
3 63 153 149
3 52 63 149
3 155 61 50
3 155 72 61
3 155 151 156
3 156 151 152
3 154 157 158
3 154 153 157
3 74 157 153
3 63 74 153
3 159 72 155
3 159 83 72
3 159 156 160
3 159 155 156
3 158 157 162
3 162 157 161
3 74 85 161
3 157 74 161
3 163 83 159
3 163 94 83
3 163 160 164
3 163 159 160
3 161 165 162
3 165 95 166
3 165 161 95
3 161 85 95
3 165 166 167
3 95 97 166
3 105 104 168
3 170 94 163
3 170 168 94
3 169 168 170
3 94 168 104
3 163 164 170
3 166 171 167
3 173 171 172
3 172 171 106
3 171 97 106
3 171 166 97
3 172 107 174
3 172 106 107
3 174 108 175
3 174 107 108
3 175 109 176
3 175 108 109
3 176 110 177
3 176 109 110
3 177 111 178
3 177 110 111
3 178 112 180
3 178 111 112
3 181 105 168
3 181 180 105
3 179 178 180
3 180 112 105
3 168 169 181
3 172 182 173
3 182 172 183
3 183 172 174
3 174 175 184
3 183 174 184
3 175 176 185
3 184 175 185
3 176 177 186
3 185 176 186
3 177 178 187
3 186 177 187
3 187 179 188
3 187 178 179
3 179 180 229
3 189 190 191
3 114 131 191
3 115 114 191
3 115 191 192
3 115 192 193
3 117 115 193
3 119 193 194
3 119 117 193
3 119 194 121
3 121 194 195
3 121 195 123
3 123 195 196
3 123 196 125
3 125 196 197
3 127 197 198
3 127 125 197
3 128 198 199
3 200 128 199
3 128 127 198
3 200 199 201
3 202 203 204
3 131 130 189
3 190 189 204
3 189 130 202
3 189 202 204
3 131 189 191
3 128 200 133
3 134 200 205
3 206 205 201
3 134 133 200
3 205 200 201
3 205 206 207
3 136 208 203
3 202 137 136
3 202 136 203
3 137 202 130
3 134 205 139
3 139 205 207
3 140 139 207
3 211 207 209
3 136 142 208
3 208 142 210
3 211 140 207
3 211 144 140
3 146 212 210
3 142 146 210
3 148 144 213
3 213 144 211
3 150 214 212
3 146 150 212
3 215 148 213
3 215 152 148
3 154 216 150
3 150 216 214
3 219 152 217
3 217 152 215
3 158 218 216
3 154 158 216
3 219 156 152
3 219 160 156
3 158 220 218
3 158 162 220
3 221 160 219
3 221 164 160
3 162 165 222
3 223 220 222
3 220 162 222
3 165 167 222
3 169 170 224
3 225 164 221
3 224 170 164
3 224 164 225
3 222 226 223
3 167 171 227
3 226 167 227
3 226 227 228
3 226 222 167
3 171 173 227
3 180 181 229
3 181 169 230
3 231 169 224
3 230 169 231
3 230 229 181
3 224 225 271
3 227 232 228
3 232 182 233
3 232 173 182
3 227 173 232
3 182 183 234
3 233 182 234
3 183 184 234
3 234 184 235
3 184 185 235
3 235 185 236
3 185 186 236
3 236 186 237
3 186 187 237
3 237 187 238
3 238 188 239
3 238 187 188
3 188 179 229
3 240 239 188
3 240 188 229
3 229 230 240
3 191 190 242
3 242 190 241
3 192 242 243
3 192 191 242
3 192 243 244
3 193 192 244
3 194 244 245
3 194 193 244
3 194 245 246
3 195 194 246
3 195 246 247
3 196 195 247
3 196 247 248
3 197 196 248
3 197 248 249
3 198 197 249
3 199 198 249
3 250 199 249
3 201 199 251
3 251 199 250
3 204 252 253
3 204 203 252
3 190 253 241
3 190 204 253
3 206 251 254
3 206 201 251
3 207 206 255
3 255 206 254
3 203 256 252
3 203 208 256
3 257 209 255
3 255 209 207
3 210 258 208
3 208 258 256
3 211 209 259
3 259 209 257
3 212 260 210
3 210 260 258
3 213 211 259
3 261 213 259
3 214 262 260
3 212 214 260
3 215 213 261
3 263 215 261
3 216 264 214
3 214 264 262
3 217 215 263
3 265 217 263
3 218 266 264
3 216 218 264
3 219 217 265
3 267 219 265
3 218 268 266
3 218 220 268
3 221 219 267
3 269 221 267
3 223 270 268
3 220 223 268
3 225 221 269
3 271 225 269
3 223 226 272
3 270 223 272
3 272 228 273
3 272 226 228
3 274 231 275
3 274 230 231
3 275 231 271
3 271 231 224
3 273 228 276
3 276 228 232
3 276 233 277
3 276 232 233
3 233 234 278
3 277 233 278
3 234 235 279
3 278 234 279
3 235 236 280
3 279 235 280
3 236 237 281
3 280 236 281
3 237 238 282
3 281 237 282
3 238 239 283
3 282 238 283
3 327 239 284
3 284 239 240
3 240 230 274
3 284 240 274
3 241 285 286
3 242 241 286
3 242 286 243
3 243 286 287
3 243 287 288
3 244 243 288
3 245 288 289
3 245 244 288
3 245 289 246
3 246 289 290
3 246 290 247
3 247 290 291
3 247 291 248
3 248 291 292
3 248 292 293
3 249 248 293
3 249 293 250
3 250 293 294
3 250 294 295
3 251 250 295
3 252 296 297
3 253 252 297
3 241 297 285
3 241 253 297
3 254 295 298
3 254 251 295
3 254 298 299
3 255 254 299
3 256 300 252
3 252 300 296
3 257 255 299
3 301 257 299
3 258 302 300
3 256 258 300
3 259 257 303
3 303 257 301
3 260 304 258
3 258 304 302
3 261 259 303
3 305 261 303
3 262 306 304
3 260 262 304
3 263 261 305
3 307 263 305
3 264 308 262
3 262 308 306
3 265 263 307
3 309 265 307
3 266 310 308
3 264 266 308
3 267 265 309
3 311 267 309
3 266 312 310
3 266 268 312
3 269 267 311
3 313 269 311
3 270 314 312
3 268 270 312
3 271 269 315
3 315 269 313
3 270 272 316
3 314 270 316
3 316 273 317
3 316 272 273
3 318 275 319
3 318 274 275
3 275 271 315
3 319 275 315
3 273 276 320
3 317 273 320
3 276 277 320
3 320 277 321
3 277 278 322
3 321 277 322
3 322 279 323
3 322 278 279
3 279 280 323
3 323 280 324
3 280 281 324
3 324 281 325
3 281 282 325
3 325 282 326
3 282 283 326
3 326 283 327
3 283 239 327
3 327 284 328
3 284 274 318
3 328 284 318
3 285 329 330
3 286 285 330
3 286 330 287
3 287 330 331
3 287 331 332
3 288 287 332
3 288 332 289
3 289 332 333
3 289 333 334
3 290 289 334
3 290 334 335
3 291 290 335
3 291 335 292
3 292 335 336
3 292 336 337
3 293 292 337
3 293 337 294
3 294 337 338
3 294 338 339
3 295 294 339
3 296 340 341
3 297 296 341
3 285 341 329
3 285 297 341
3 298 339 342
3 298 295 339
3 298 342 343
3 299 298 343
3 300 344 296
3 296 344 340
3 301 299 343
3 345 301 343
3 302 346 344
3 300 302 344
3 303 301 347
3 347 301 345
3 304 348 302
3 302 348 346
3 305 303 347
3 349 305 347
3 306 350 348
3 304 306 348
3 307 305 351
3 351 305 349
3 308 352 306
3 306 352 350
3 309 307 353
3 353 307 351
3 310 354 352
3 308 310 352
3 311 309 355
3 355 309 353
3 312 356 310
3 310 356 354
3 313 311 355
3 357 313 355
3 314 358 356
3 312 314 356
3 315 313 359
3 359 313 357
3 314 316 360
3 358 314 360
3 360 317 361
3 360 316 317
3 362 319 363
3 362 318 319
3 319 315 359
3 363 319 359
3 317 320 364
3 361 317 364
3 320 321 364
3 364 321 365
3 321 322 366
3 365 321 366
3 322 323 366
3 366 323 367
3 323 324 368
3 367 323 368
3 324 325 369
3 368 324 369
3 325 326 370
3 369 325 370
3 326 327 371
3 370 326 371
3 327 328 371
3 371 328 372
3 328 318 362
3 372 328 362
3 329 373 374
3 330 329 374
3 330 374 331
3 331 374 375
3 331 375 376
3 332 331 376
3 332 376 333
3 333 376 377
3 333 377 378
3 334 333 378
3 334 378 379
3 335 334 379
3 335 379 336
3 336 379 380
3 336 380 381
3 337 336 381
3 337 381 338
3 338 381 382
3 338 382 383
3 339 338 383
3 340 384 385
3 341 340 385
3 329 385 373
3 329 341 385
3 342 383 386
3 342 339 383
3 342 386 387
3 343 342 387
3 344 388 340
3 340 388 384
3 345 343 387
3 389 345 387
3 346 390 388
3 344 346 388
3 347 345 391
3 391 345 389
3 348 392 346
3 346 392 390
3 349 347 391
3 393 349 391
3 350 394 348
3 348 394 392
3 351 349 395
3 395 349 393
3 352 396 350
3 350 396 394
3 353 351 395
3 397 353 395
3 354 398 396
3 352 354 396
3 355 353 399
3 399 353 397
3 356 400 354
3 354 400 398
3 357 355 399
3 401 357 399
3 358 402 400
3 356 358 400
3 359 357 403
3 403 357 401
3 358 360 404
3 402 358 404
3 404 361 405
3 404 360 361
3 406 363 407
3 406 362 363
3 363 359 403
3 407 363 403
3 361 364 408
3 405 361 408
3 364 365 408
3 408 365 409
3 365 366 410
3 409 365 410
3 366 367 410
3 410 367 411
3 367 368 412
3 411 367 412
3 368 369 412
3 412 369 413
3 369 370 413
3 413 370 414
3 370 371 415
3 414 370 415
3 371 372 415
3 415 372 416
3 372 362 406
3 416 372 406
3 373 417 418
3 374 373 418
3 374 418 375
3 375 418 419
3 375 419 420
3 376 375 420
3 376 420 377
3 377 420 421
3 377 421 422
3 378 377 422
3 378 422 423
3 379 378 423
3 380 423 424
3 380 379 423
3 380 424 425
3 381 380 425
3 382 425 426
3 382 381 425
3 382 426 427
3 383 382 427
3 384 428 429
3 385 384 429
3 373 429 417
3 373 385 429
3 386 427 430
3 386 383 427
3 386 430 431
3 387 386 431
3 384 432 428
3 384 388 432
3 389 387 431
3 433 389 431
3 390 434 432
3 388 390 432
3 435 389 433
3 435 391 389
3 390 436 434
3 390 392 436
3 393 391 435
3 437 393 435
3 394 438 436
3 392 394 436
3 395 393 439
3 439 393 437
3 396 440 438
3 394 396 438
3 397 395 439
3 441 397 439
3 398 442 440
3 396 398 440
3 399 397 443
3 443 397 441
3 400 444 398
3 398 444 442
3 401 399 443
3 445 401 443
3 402 446 444
3 400 402 444
3 403 401 447
3 447 401 445
3 402 404 448
3 446 402 448
3 448 405 449
3 448 404 405
3 450 407 451
3 450 406 407
3 407 403 447
3 451 407 447
3 405 408 452
3 449 405 452
3 408 409 452
3 452 409 453
3 409 410 454
3 453 409 454
3 410 411 454
3 454 411 455
3 411 412 456
3 455 411 456
3 412 413 456
3 456 413 457
3 457 414 458
3 457 413 414
3 414 415 459
3 458 414 459
3 415 416 459
3 459 416 460
3 416 406 450
3 460 416 450
3 418 461 462
3 418 417 461
3 419 462 463
3 419 418 462
3 419 463 464
3 420 419 464
3 420 464 421
3 421 464 465
3 421 465 466
3 422 421 466
3 422 466 467
3 423 422 467
3 424 467 468
3 424 423 467
3 424 468 469
3 425 424 469
3 426 469 470
3 426 425 469
3 427 426 471
3 471 426 470
3 429 428 473
3 473 428 472
3 417 473 505
3 417 429 473
3 430 427 471
3 520 430 471
3 431 474 475
3 431 430 474
3 428 476 472
3 428 432 476
3 433 431 475
3 477 433 475
3 434 478 476
3 432 434 476
3 479 433 477
3 479 435 433
3 434 480 478
3 434 436 480
3 437 435 479
3 481 437 479
3 438 482 436
3 436 482 480
3 439 437 483
3 483 437 481
3 440 484 482
3 438 440 482
3 441 439 483
3 485 441 483
3 442 486 440
3 440 486 484
3 443 441 487
3 487 441 485
3 444 488 442
3 442 488 486
3 445 443 487
3 489 445 487
3 444 446 488
3 488 446 490
3 491 445 489
3 491 447 445
3 490 446 492
3 492 446 448
3 492 449 493
3 492 448 449
3 494 451 495
3 494 450 451
3 451 447 491
3 495 451 491
3 449 452 496
3 493 449 496
3 496 453 497
3 496 452 453
3 453 454 498
3 497 453 498
3 498 455 499
3 498 454 455
3 455 456 500
3 499 455 500
3 456 457 501
3 500 456 501
3 457 458 502
3 501 457 502
3 458 459 503
3 502 458 503
3 503 460 504
3 503 459 460
3 504 460 494
3 494 460 450
3 461 505 506
3 462 461 506
3 507 463 462
3 507 462 506
3 465 463 508
3 508 463 507
3 464 463 465
3 465 508 509
3 465 509 466
3 466 509 510
3 466 510 467
3 467 510 511
3 467 511 468
3 468 511 512
3 468 512 513
3 469 468 513
3 469 513 470
3 515 470 514
3 470 513 514
3 470 515 471
3 472 516 473
3 518 516 517
3 518 505 516
3 461 417 505
3 505 473 516
3 505 518 506
3 515 514 519
3 474 430 520
3 521 520 519
3 520 471 515
3 520 515 519
3 474 520 524
3 476 522 472
3 516 472 523
3 472 522 523
3 516 523 517
3 520 521 524
3 477 475 524
3 524 475 474
3 525 477 524
3 478 526 522
3 476 478 522
3 527 477 525
3 527 479 477
3 478 528 526
3 478 480 528
3 481 479 527
3 529 481 527
3 482 530 480
3 480 530 528
3 483 481 531
3 531 481 529
3 484 532 530
3 482 484 530
3 485 483 531
3 533 485 531
3 486 534 484
3 484 534 532
3 535 485 533
3 535 487 485
3 486 536 534
3 486 488 536
3 537 489 535
3 535 489 487
3 490 538 539
3 536 490 539
3 488 490 536
3 538 540 539
3 541 542 543
3 541 489 537
3 542 541 537
3 541 491 489
3 490 492 538
3 545 493 544
3 538 492 493
3 538 493 545
3 540 538 545
3 544 546 545
3 547 548 549
3 543 495 541
3 547 494 495
3 547 495 543
3 608 547 543
3 495 491 541
3 493 496 544
3 544 497 550
3 546 544 550
3 544 496 497
3 550 497 551
3 551 497 498
3 498 499 551
3 551 499 552
3 499 500 552
3 552 500 553
3 500 501 553
3 553 501 554
3 554 502 555
3 554 501 502
3 502 503 556
3 555 502 556
3 503 504 556
3 549 504 547
3 556 504 549
3 504 494 547
3 506 557 507
3 507 557 558
3 508 507 558
3 508 558 559
3 509 508 559
3 509 559 560
3 510 509 560
3 510 560 561
3 511 510 561
3 511 561 562
3 512 511 562
3 514 512 563
3 563 512 562
3 513 512 514
3 517 564 518
3 518 564 557
3 566 564 565
3 557 564 566
3 557 506 518
3 558 566 567
3 558 557 566
3 559 567 568
3 559 558 567
3 560 568 569
3 560 559 568
3 561 569 570
3 561 560 569
3 562 570 571
3 562 561 570
3 563 562 571
3 572 563 571
3 574 514 563
3 572 574 563
3 573 519 574
3 574 519 514
3 519 573 521
3 522 575 523
3 577 575 576
3 577 517 575
3 564 517 577
3 575 517 523
3 564 577 565
3 573 574 572
3 521 573 579
3 580 573 578
3 579 573 580
3 579 524 521
3 524 579 525
3 522 581 575
3 522 526 581
3 576 581 582
3 576 575 581
3 583 580 584
3 583 579 580
3 583 525 579
3 583 527 525
3 526 585 581
3 526 528 585
3 582 585 586
3 582 581 585
3 587 584 588
3 587 583 584
3 587 527 583
3 587 529 527
3 528 589 585
3 528 530 589
3 586 589 590
3 586 585 589
3 591 588 592
3 591 587 588
3 591 529 587
3 591 531 529
3 532 593 589
3 530 532 589
3 590 593 594
3 590 589 593
3 595 592 596
3 595 591 592
3 595 531 591
3 595 533 531
3 534 597 593
3 532 534 593
3 594 597 598
3 594 593 597
3 599 596 600
3 599 595 596
3 599 533 595
3 599 535 533
3 534 601 597
3 534 536 601
3 602 597 601
3 602 598 597
3 603 599 600
3 604 603 600
3 603 535 599
3 603 537 535
3 536 539 601
3 606 540 605
3 606 602 540
3 602 601 539
3 540 602 539
3 605 607 606
3 608 609 610
3 608 543 609
3 604 542 603
3 609 543 542
3 609 542 604
3 542 537 603
3 540 545 605
3 605 546 607
3 612 607 611
3 605 545 546
3 607 546 611
3 612 613 614
3 612 611 613
3 614 615 616
3 614 613 615
3 616 617 618
3 616 615 617
3 618 619 620
3 618 617 619
3 620 621 622
3 620 619 621
3 622 623 624
3 622 621 623
3 610 548 608
3 624 623 548
3 624 548 610
3 548 623 549
3 548 547 608
3 546 550 611
3 611 550 613
3 613 550 551
3 551 552 615
3 613 551 615
3 552 553 617
3 615 552 617
3 553 554 619
3 617 553 619
3 554 555 621
3 619 554 621
3 621 555 623
3 623 555 556
3 556 549 623
3 565 625 626
3 567 566 626
3 626 566 565
3 567 626 627
3 568 567 627
3 568 627 628
3 569 568 628
3 569 628 629
3 570 569 629
3 570 629 630
3 571 570 630
3 572 571 631
3 631 571 630
3 572 631 578
3 576 632 577
3 625 632 633
3 565 577 632
3 565 632 625
3 625 633 634
3 626 625 634
3 626 634 627
3 627 634 635
3 627 635 628
3 628 635 636
3 628 636 629
3 629 636 637
3 629 637 630
3 630 637 638
3 631 638 639
3 631 630 638
3 640 578 639
3 578 573 572
3 578 631 639
3 578 640 580
3 576 641 632
3 576 582 641
3 633 641 642
3 633 632 641
3 633 642 643
3 634 633 643
3 634 643 644
3 635 634 644
3 635 644 645
3 636 635 645
3 636 645 646
3 637 636 646
3 637 646 647
3 638 637 647
3 638 647 648
3 639 638 648
3 640 648 649
3 640 639 648
3 584 580 640
3 649 584 640
3 582 650 641
3 582 586 650
3 642 650 651
3 642 641 650
3 642 651 652
3 643 642 652
3 643 652 653
3 644 643 653
3 644 653 645
3 645 653 654
3 645 654 646
3 646 654 655
3 646 655 647
3 647 655 656
3 647 656 648
3 648 656 657
3 648 657 649
3 649 657 658
3 588 584 649
3 658 588 649
3 586 659 650
3 586 590 659
3 650 659 651
3 651 659 660
3 651 660 661
3 652 651 661
3 652 661 662
3 653 652 662
3 653 662 654
3 654 662 663
3 654 663 664
3 655 654 664
3 655 664 665
3 656 655 665
3 656 665 666
3 657 656 666
3 657 666 658
3 658 666 667
3 592 588 658
3 667 592 658
3 590 668 659
3 590 594 668
3 660 668 669
3 660 659 668
3 660 669 670
3 661 660 670
3 661 670 671
3 662 661 671
3 662 671 663
3 663 671 672
3 663 672 664
3 664 672 673
3 664 673 665
3 665 673 674
3 665 674 666
3 666 674 675
3 666 675 667
3 667 675 676
3 596 592 667
3 676 596 667
3 594 677 668
3 594 598 677
3 668 677 669
3 669 677 678
3 669 678 679
3 670 669 679
3 670 679 680
3 671 670 680
3 671 680 681
3 672 671 681
3 672 681 682
3 673 672 682
3 673 682 683
3 674 673 683
3 674 683 684
3 675 674 684
3 676 684 685
3 676 675 684
3 600 596 676
3 685 600 676
3 598 686 677
3 598 602 606
3 678 686 687
3 678 677 686
3 678 687 679
3 679 687 688
3 679 688 680
3 680 688 689
3 680 689 681
3 681 689 690
3 681 690 682
3 682 690 691
3 683 691 692
3 683 682 691
3 684 692 693
3 684 683 692
3 685 693 694
3 685 684 693
3 694 604 685
3 685 604 600
3 598 606 686
3 606 607 695
3 686 606 695
3 686 695 687
3 688 687 696
3 696 687 695
3 688 696 697
3 689 688 697
3 689 697 698
3 690 689 698
3 690 698 699
3 691 690 699
3 691 699 700
3 692 691 700
3 692 700 701
3 693 692 701
3 610 609 694
3 701 610 694
3 701 694 693
3 609 604 694
3 607 612 695
3 695 612 696
3 696 612 614
3 614 616 697
3 696 614 697
3 616 618 698
3 697 616 698
3 618 620 699
3 698 618 699
3 620 622 700
3 699 620 700
3 622 624 701
3 700 622 701
3 624 610 701
