OFF
702 1400 0
-0.252683152153358 -0.346174736409309 2.14060182823589
-0.298220877627257 -0.33204876868978 2.12343368539368
-0.269986180623084 -0.350068079811211 2.09514109703928
-0.205753486440111 -0.352597083801948 2.14497935630675
-0.223955702381697 -0.360649898308746 2.09988333186628
-0.158903301328614 -0.35700760969914 2.14787989889887
-0.177528553636556 -0.364596891571562 2.10178261688434
-0.113487896024901 -0.360831049689471 2.1520099987451
-0.132167903666869 -0.368330956807717 2.10339358433891
-0.0685589114721035 -0.364478296634285 2.15650489972043
-0.0873743689958515 -0.371777860755258 2.10781698697182
-0.0210258388375586 -0.367458555470959 2.16393149067358
-0.0415517817182254 -0.375025583938911 2.11610200944051
0.0270523887338164 -0.36298571130241 2.17240366982885
0.0057873677727121 -0.376593320522147 2.12497948450272
0.0522454300783711 -0.367705145314316 2.13406417922948
-0.321017798108991 -0.304884875600026 2.15287708047234
-0.350906491907747 -0.286610999498665 2.12622358356787
-0.329522604773642 -0.315209504703766 2.09649896111325
-0.280432161675045 -0.321354234084824 2.1718559778152
-0.233656058757245 -0.330492556136913 2.18341327455343
-0.185913524748136 -0.335556624689553 2.18696584279109
-0.13910828159837 -0.339316115153074 2.19210808453434
-0.0938577452010274 -0.342558511013659 2.19772372366413
-0.0495161528665649 -0.347658107992567 2.20001393083752
-0.000854487417171035 -0.348350510884025 2.20718029413609
0.0728913123870212 -0.346696226821614 2.17869678572367
0.0442491395080472 -0.336175907991281 2.21538713473371
0.0901849753598286 -0.315561109769303 2.21388291704158
-0.308186137235692 -0.285713036649131 2.19526825525523
-0.34850154200753 -0.264404435912844 2.16819612763761
-0.262097385095587 -0.299524625353623 2.21218955513514
-0.212096279594629 -0.305797837027483 2.21993119113647
-0.164458981705722 -0.309946540272943 2.22491871920402
-0.116810766416854 -0.312278461028828 2.23195081059805
-0.0720786393072053 -0.314894974355215 2.23807121191325
-0.0297652961215429 -0.323839056054457 2.23659263962565
0.011521913624206 -0.31569539082559 2.24753253830209
0.057075835032957 -0.301978652343938 2.24946040440514
0.101706850602462 -0.279051810142136 2.24382567939957
-0.32670012343042 -0.249516780042895 2.21749100512731
-0.360042138690762 -0.227198910525649 2.19197023022547
-0.285597235224969 -0.264978693270578 2.23796818770963
-0.236495649386525 -0.275649447138979 2.24867491410148
-0.187706685794736 -0.277731135686868 2.25640900845238
-0.140214613669187 -0.282285683537003 2.26091191952218
-0.0886991700383304 -0.283089569203182 2.27044344659562
-0.0337754117131189 -0.292068213318562 2.27147959585278
0.0166170321813258 -0.284742511192139 2.28103834266919
0.0669709706517609 -0.268761027377829 2.28031235877915
0.111510614913784 -0.241990454343079 2.27345968649723
-0.310920910156262 -0.227072044214995 2.26099270000307
-0.351560539287077 -0.208257991735948 2.23072554553779
-0.261540675835429 -0.244481912891893 2.275107822003
-0.214103228463937 -0.246825250710763 2.28579067161083
-0.168542998047295 -0.247816611803431 2.29390565587246
-0.124538467414715 -0.255309901713673 2.29439961652613
-0.0910932785639178 -0.24390881827239 2.31398483074756
-0.0561263345573223 -0.262331996095338 2.3003665696345
-0.0138252780203534 -0.258941055551277 2.31130453069142
0.0340284632670941 -0.252076834598101 2.31286659487064
0.0819266903333265 -0.23271885863218 2.30942763028599
-0.314355436221279 -0.188308682541946 2.30285328180162
-0.342419781324498 -0.189263960638279 2.26795662593482
-0.281261830448422 -0.214243021689668 2.29909551319224
-0.234153440612018 -0.216907945960038 2.31533979537566
-0.18940672070289 -0.21574114311746 2.32572301310913
-0.140453078029495 -0.220502137683514 2.33028889470501
-0.0950476501329558 -0.214983581275772 2.34568774526947
-0.0475378621763607 -0.22777343984244 2.3409394427134
0.000489872856982224 -0.227417778403105 2.34628783588402
0.0481978058969993 -0.21957703592209 2.34309654454733
0.0954826223876538 -0.196750417754229 2.33690071276589
-0.303895032496472 -0.16527603500443 2.33912678279514
-0.348145935989396 -0.15143828675937 2.30457604622461
-0.265038122154467 -0.189319055937902 2.33627067756844
-0.219095669413272 -0.183528683655692 2.35590456974387
-0.169018027830438 -0.187853540008233 2.36118928922849
-0.123208940360182 -0.187648222992673 2.37069997606308
-0.0716406828490814 -0.19151280334598 2.37680274698797
-0.0266463139849959 -0.19775564121419 2.37852193658597
0.0197069936154024 -0.194544031882411 2.37983345517253
0.0635735250825414 -0.186557193914136 2.3711084215158
0.0997691569108329 -0.160555628913016 2.3710926087578
-0.299364615968102 -0.127030803177388 2.37657679774274
-0.333194964021612 -0.13461202142098 2.34311370950328
-0.265714277035342 -0.156763988534645 2.37081000806205
-0.231198036771313 -0.145388802483313 2.38908134359981
-0.188396399446126 -0.153702121353848 2.39034344369089
-0.143263261868944 -0.153918977368437 2.39805375204452
-0.0960230883797821 -0.157220758132283 2.40380733201715
-0.0473767832124768 -0.161280945578399 2.40924622165308
0.000933631524899101 -0.164133369920803 2.41079840858563
0.0524647652006725 -0.157749593280144 2.40339587308138
0.0995907740040347 -0.125941369044112 2.39693604024951
-0.340836722224649 -0.0961517212624224 2.36170870079879
-0.262262714021721 -0.108504077082149 2.40325220780806
-0.305985575842015 -0.0838558566371942 2.39344589412042
-0.212780128695199 -0.109192138029609 2.41245711315988
-0.166703281770683 -0.113892827010104 2.4173491763855
-0.120009703369431 -0.114907406300597 2.42391685968704
-0.0741690519165969 -0.119479240105306 2.42883927160011
-0.0274590936878999 -0.12394722826251 2.43364768434243
0.0192158490094088 -0.125261860043446 2.43151610007633
0.0635026937336814 -0.118317802349384 2.42158019769609
0.0450168556702418 -0.0802935862403935 2.43980713779554
-0.2792598555201 -0.0574637766322908 2.41250777315396
-0.236743323095769 -0.0667565692457131 2.42206683090328
-0.187689428595236 -0.0686210047209878 2.42820066817607
-0.141916623841219 -0.0697609258385145 2.43399254781886
-0.0956114188259455 -0.0712159710533213 2.43977532992753
-0.0509918900323055 -0.0779150039432828 2.44446049828872
-0.00324892003291036 -0.0821551808096835 2.44723307466792
-0.248003003607459 -0.356037464195121 2.05559566155834
-0.271900246312092 -0.340739715960691 2.02075420253218
-0.248425079259438 -0.332259059862848 1.98351531768045
-0.198348540168179 -0.362283626530738 2.05595659179298
-0.220051638929835 -0.351695352137697 2.01530097500367
-0.152276651548341 -0.364897733501644 2.05518821184404
-0.171899835573041 -0.351686622866305 2.00973615755038
-0.106842264390732 -0.367854710484929 2.0576051629674
-0.126578409659513 -0.353192027607984 2.01036141567975
-0.0614856204126428 -0.371653123669197 2.06515672898555
-0.078976401058218 -0.356959683483351 2.01635369574055
-0.0165414634830516 -0.375781327525176 2.07538405032654
-0.0332240174674999 -0.361911634580535 2.02537637101448
0.02951234242898 -0.374589573511791 2.08397120051671
0.0110228906562541 -0.366431695847268 2.03650682350452
0.0589119143445805 -0.359726012525038 2.04578849460195
-0.29966330618519 -0.33635290985246 2.06425405101067
-0.338294977525713 -0.305376489784989 2.0495709156084
-0.308679666277967 -0.31952048525019 2.01652297670172
0.0968757724840651 -0.347507043618166 2.13913427761339
0.0726265094340271 -0.36310656886752 2.09373124138755
0.112197056183634 -0.341611095374112 2.09664892732531
-0.376361745465692 -0.250675102290916 2.11811008696192
-0.38677150466973 -0.236163774106 2.0691001344969
-0.363788723768347 -0.279078647327452 2.08024988549975
0.117852333435736 -0.320610005805939 2.17390191540442
0.138401850949074 -0.317049353677384 2.12966522556004
0.155400058338234 -0.286897084885249 2.15826259794356
-0.378603637099799 -0.223424695760474 2.15078449589041
-0.394563994784983 -0.205442929496899 2.10521165631898
0.131641359410236 -0.28603366069 2.20364552350933
0.162557796864871 -0.248923170974836 2.19054458960314
-0.382455271259431 -0.186360243701829 2.18626454652303
-0.39519931203622 -0.17718579309634 2.14287640428615
0.139371806504205 -0.246916354911924 2.23338263443813
0.168855252155867 -0.208126994595921 2.21657566410494
-0.376970230112732 -0.168925486799476 2.22484635396351
-0.3975744143386 -0.138816400529409 2.18389836839196
0.147903134715287 -0.207006169281392 2.26059969636427
0.173150614864844 -0.167404298209353 2.24461747055897
-0.369127313312797 -0.152555967736537 2.26449743206635
-0.393066146051114 -0.123001954118563 2.22991282237945
0.124701778897415 -0.202024762200393 2.30009684877689
0.157076458976339 -0.163098155573177 2.2875785509582
-0.383022233589871 -0.113220104861239 2.27840169815088
-0.401432112155394 -0.0776704599020939 2.24866859344449
0.13199717966427 -0.163407309263499 2.33032869784898
0.162057416778964 -0.124331863648512 2.31502538266571
-0.367511344284505 -0.107385637628922 2.32017920555704
-0.391916201833554 -0.0685351531903213 2.29646922327327
0.13534541049102 -0.12741667209332 2.36023569404411
0.15889707852189 -0.0887574276149665 2.34818613163186
-0.370518322807014 -0.0630797614879323 2.33961091349908
-0.338456292885567 -0.0532579019206467 2.37757334073914
-0.358350221398607 -0.0190829520671074 2.35939776064313
0.0922056775033911 -0.0800030317459194 2.41903891114796
0.115379709507879 -0.0399478304837881 2.40656339370358
0.128979239594074 -0.0866323033857483 2.38827533379279
-0.313067704955326 -0.0264480617273673 2.39794789010149
-0.260630513887652 -0.0165535140667409 2.42023193124137
-0.292677702980272 0.012249626787871 2.40408254347678
-0.211010820893096 -0.0253758504917461 2.42862193172588
-0.163769700551187 -0.022531468644558 2.43389100239809
-0.117158112926532 -0.0239802428788552 2.43923498914275
-0.0703325558803495 -0.0254943432417257 2.4445863639573
-0.0273415014832749 -0.0363135130176738 2.45003264215319
-0.00200135978615273 0.000422289682129047 2.4456669972099
0.0233490603071518 -0.0397282762014974 2.44805479919447
0.072058102205533 -0.0386157666480662 2.43316395792088
-0.259274741166575 0.0415305296083445 2.40751924699769
-0.227589143237295 0.017383429633322 2.42111784367751
-0.183486578130195 0.0227067406470107 2.4240009993836
-0.13739683292501 0.0226859455777473 2.42838190254234
-0.0907091933111254 0.0206140607595409 2.43341319567473
-0.0423011849853586 0.0188275850194533 2.43849895120981
0.0135034371963461 0.0381772953101725 2.43152513189594
-0.336485298315428 -0.287555220547874 2.00081224201145
-0.320262794526393 -0.273041955250519 1.96215974942399
-0.289540574454293 -0.309151994634711 1.97507858600139
-0.240758899559154 -0.308953480180571 1.94812180558465
-0.198724973022662 -0.333059837757045 1.97359855970129
-0.14821153949594 -0.328397294774983 1.96697825568396
-0.0982158152260403 -0.333666887570663 1.97491912569271
-0.0461493191990278 -0.337795731334564 1.98130923654014
-0.000825083166778554 -0.343485696271727 1.98989971482175
0.0432943786914514 -0.347110163205672 2.00585501531359
0.0856675282199974 -0.328918200213038 2.00524297731954
0.0984493892142076 -0.343343780097953 2.05295480408722
0.124970719075322 -0.316713770073562 2.03555416336629
-0.366396793309234 -0.26615319755633 2.0345494142715
-0.384165609402614 -0.219572981027817 2.02235347044593
-0.360683355331728 -0.245796725192171 1.99173505372082
0.141632987233355 -0.3146388254206 2.0801544753553
0.157458187492552 -0.285356263830605 2.04929248229775
0.167494657112418 -0.282940039957971 2.10450026440106
-0.398429859984658 -0.187216610881572 2.05937529698504
0.18716554538373 -0.240652452745374 2.10248766499864
-0.401478977600588 -0.156762910577936 2.09245285007744
0.17924670953696 -0.249134403905847 2.14486716301765
-0.402502806464813 -0.135269960860151 2.13554682066365
0.184791579904053 -0.207480037373756 2.16928474454045
-0.404648962952417 -0.0957085921636604 2.1516952764781
0.187296396985757 -0.167606552533652 2.19389024205814
-0.404572468800264 -0.0886500815737603 2.19904401113803
0.187863391395287 -0.130676444208494 2.22172491903546
-0.407806398484947 -0.0412720737615162 2.21820800063755
0.18005805720688 -0.118785986289848 2.26735313167514
-0.403962799313373 -0.0310596897009639 2.26873849485844
0.180184461227562 -0.0803497924376485 2.30074049129191
-0.387128342889708 -0.0233125129014142 2.31686570132793
-0.393642448678258 0.0144112260707013 2.28846143154785
0.14859554467537 -0.0445887227214688 2.37257839313915
0.172881613427871 -0.0476271018426972 2.3314698719925
-0.369886438388042 0.0196490417465629 2.33468100523733
-0.335047537824166 0.0148015495082968 2.37583230767723
-0.342098310272886 0.0566875050015052 2.34871210079569
0.0478720228145868 0.00229483212480478 2.43653580633681
0.0943258188176902 0.00251847744735729 2.41487643144575
0.13319788456521 0.000968737724598275 2.3827893069982
-0.30528809323332 0.0526410988278816 2.38204368908035
-0.264802993577391 0.0793614126606246 2.3856188181031
-0.212284671236278 0.0634044520376882 2.40499322710449
-0.16324610301529 0.065515232311907 2.40754301738399
-0.115898163802813 0.0644177431930905 2.41166088867456
-0.0685280482420187 0.0612087432879117 2.41700751315787
-0.0225383830888667 0.0618236453637173 2.41990909954089
0.0310799333243009 0.0731681460699879 2.40734548876441
0.0648608265596026 0.041225717698594 2.41534604018063
-0.309034616526041 -0.24081007295086 1.92720479256215
-0.277558862758637 -0.280142329683969 1.93612472899996
-0.2291109554667 -0.276969521174381 1.91588650669183
-0.191778219685693 -0.305472751201031 1.93881325940898
-0.148138013727089 -0.2933646748263 1.92962224317603
-0.107894803081845 -0.301159762371873 1.93862399973347
-0.0608691702569584 -0.310050582698469 1.94901570918568
-0.00469279625482938 -0.311184643895051 1.95275388764254
0.0428768568519956 -0.320886465463539 1.96994354626479
0.0881141891728563 -0.297140292427817 1.96928163112706
0.126137274409667 -0.293024770606863 2.00148754665846
-0.372450509468802 -0.193349981935229 1.9786283635492
-0.344636669340832 -0.230720703429134 1.95703181096873
0.158887771982401 -0.256986023727212 2.01205875037813
0.179153502291828 -0.249723277530337 2.06032081422444
-0.391484918401714 -0.17189555381319 2.01861528880647
0.195676645174125 -0.202092070047748 2.07496240010308
-0.396791809192894 -0.131422951256417 2.04819930659331
0.194726809763186 -0.200079680532922 2.12471576669403
-0.400672824107303 -0.108320075502121 2.09606917699334
0.195412893261562 -0.157888267595142 2.14710602280572
-0.399804246834754 -0.0650005722213537 2.11654982576308
0.195141280889818 -0.119028268309778 2.17441004872244
-0.404663534571897 -0.0498751799518352 2.16767932398456
0.192126295570444 -0.0884429167812433 2.21973504917914
-0.403516687750201 -0.00476369636114822 2.18687573499326
0.189076741574451 -0.0672949348697835 2.25927366944462
-0.404909221879149 0.00524215315122382 2.23831760539311
0.184220500337059 -0.0240178831460816 2.29501566667685
-0.389854873313712 0.0500927192550172 2.25771219640297
0.163013829530812 -0.00474757436086153 2.34277303220969
-0.371077306828312 0.0568124487455193 2.30534451165701
-0.338205314098558 0.0936654947154175 2.31792337892381
0.107155102217885 0.0424114797843066 2.3876511952304
0.142396585772813 0.0384717286461521 2.35139253181299
-0.30425318617712 0.0913709290553174 2.35483609655659
-0.260696281996446 0.117711539586739 2.3538899115707
-0.225065209155259 0.0990455288684985 2.37996096158892
-0.180162556827858 0.102888447466916 2.37916663381623
-0.136044070444881 0.103296818871285 2.38098690799096
-0.0893139385336989 0.0993644009045915 2.38683905422108
-0.0460087994216971 0.0991635343375381 2.38916707765575
-0.00339308841605561 0.0972326785381662 2.39248345585579
0.074273656298434 0.0793648640352449 2.38423155962865
-0.305626749242903 -0.206040359125618 1.8987013270344
-0.267138908312687 -0.245150014629444 1.90284876430366
-0.220229613953801 -0.242301187798373 1.88451748801318
-0.180558748486921 -0.268475035842334 1.9056420448057
-0.12672263140556 -0.259361612320171 1.90011960754416
-0.0808144349267215 -0.27175707612504 1.91353787446364
-0.0351405850067811 -0.283447122427568 1.92631066726458
0.00826136385114325 -0.271585426690023 1.91780097117341
0.0459177076760913 -0.288531455046686 1.93969362650967
0.0925154720885554 -0.262466958347824 1.93712556292099
0.129217015907156 -0.261195878875994 1.96985110620613
-0.367464136439284 -0.155571864792797 1.94873622416134
-0.343113170903766 -0.196299275698398 1.9324943514733
0.164827550408191 -0.222994682572364 1.98141296135668
0.184962309179974 -0.215193546177465 2.02782716117904
-0.386631317842011 -0.139177918555345 1.99319421680426
0.201970853748277 -0.167765158389654 2.04669047980321
-0.390087399719481 -0.0939818636254815 2.01526075622106
0.201163562827329 -0.157158173879724 2.09865815349537
-0.394447905939606 -0.078782899701751 2.06212637472919
0.201613643692769 -0.111353862805833 2.12430257414121
-0.393662000318215 -0.0333773425950482 2.08465546457286
0.198993883151099 -0.0745714185664361 2.170238567485
-0.398264882202629 -0.0170124812478437 2.13432852074464
0.197136956480735 -0.0438073900959883 2.20582261158639
-0.39726031046425 0.0292529371357075 2.15554570445072
0.193524295172938 -0.0249555525105954 2.24839809081951
-0.398643068258145 0.0406991372541429 2.20745558505867
0.189953049785748 0.017854703900098 2.26424223224261
-0.383496476794386 0.0851849693597524 2.22663106340737
0.171791094469239 0.0257246756066542 2.30923975682362
-0.364905523496397 0.0920009126149019 2.27421191576433
-0.331077809399938 0.129403224913835 2.28702065292696
0.113998965963305 0.0794620529267782 2.35492017543497
0.14997832470928 0.0724036917069229 2.31918716338563
-0.297849121195778 0.126888862896778 2.32343561305158
-0.249201427066579 0.151813576140513 2.32554577859708
-0.208983234071199 0.133225023868112 2.35046870933571
-0.158010595555313 0.139826456448091 2.3470626853163
-0.105337798918871 0.133229684958591 2.35560437914195
-0.0569546941950864 0.134677077244992 2.35670285347327
-0.0108707031827294 0.132502205836758 2.36094282042251
0.0369294942323945 0.111682628108895 2.37374345713748
0.078277754923826 0.116992166257578 2.35231582422012
-0.299999969342688 -0.171921073600499 1.86879256729399
-0.262128485207909 -0.210059446410418 1.87228322208081
-0.214171682882339 -0.209128463134316 1.85498104158684
-0.169337569460193 -0.235716262500861 1.87675177316606
-0.12208612896585 -0.220951329400917 1.8658240921786
-0.0800564671822664 -0.235405261795316 1.88090084928003
-0.035444009127472 -0.248928468822473 1.89526811944558
0.010930037941434 -0.234689309750301 1.88476863986952
0.0540688741419342 -0.251992952597706 1.90767775928681
0.0995846538206036 -0.226878144345686 1.90590911666969
0.135407744722691 -0.227712567784941 1.94024126474907
-0.360901004301106 -0.119836947815732 1.91668268249775
-0.337665376589346 -0.163110649810414 1.90367614058547
0.17125331445702 -0.188774258584312 1.9514991675741
0.191627230978371 -0.180023326396792 1.99789293401346
-0.380154528000381 -0.106498311113532 1.96202278207956
0.20817215807205 -0.133656067731933 2.0176183865145
-0.38368588718472 -0.061563854784453 1.98166958504394
0.207192888599714 -0.121813980910425 2.07011808056135
-0.388055052311744 -0.0413804202462284 2.0318153443595
0.208600900625598 -0.0764021353219304 2.08735364369058
-0.388079287503144 0.00326801221917399 2.06073748950881
0.204534832291223 -0.0611998186732905 2.13171377919324
-0.392047873721305 0.0187539391437341 2.10445888840817
0.204072246461548 -0.0186485216134831 2.16302381395653
-0.39080993658712 0.0632599644444183 2.12256126705261
0.200163487838802 0.00481401664639779 2.21135830696549
-0.392584642186696 0.0745641773745346 2.17569790540192
0.197193370288009 0.0500406630677065 2.23049673626928
-0.377246114735546 0.119509352187573 2.19637278058064
0.177423493901303 0.0635955334185306 2.27804856275814
-0.358101210743933 0.127204820653491 2.24390767608112
-0.322669075356699 0.164528968346989 2.25843048926778
0.119527471554436 0.115171907899631 2.32396695363583
0.155491327973449 0.10865398235644 2.28833201786929
-0.287949226292994 0.161737305670938 2.29515218647116
-0.239550121517673 0.186009901643238 2.2962969068357
-0.198191701909481 0.166547954776576 2.32105063014497
-0.153296152219169 0.180581549470242 2.31066369739374
-0.11616187684634 0.164385997364098 2.32706227811014
-0.0684683393404685 0.16758890213807 2.32654844138029
-0.0180897526841683 0.168102150781197 2.32858544195563
0.0319787824664099 0.147747495324058 2.34440441218433
0.079695470116303 0.151824151415497 2.32392857804175
-0.293664295481283 -0.137744676100281 1.8382249444615
-0.256432752345301 -0.175326773461796 1.84166079830342
-0.210135477692669 -0.174944313333868 1.82497261883443
-0.165899035962422 -0.201665334428652 1.84631585126765
-0.116162976974742 -0.184646250744449 1.83348395834712
-0.0741473215416847 -0.19828510049467 1.84782698177391
-0.0322174503483379 -0.213351290474786 1.86344944528619
0.0140910838876897 -0.198112742040741 1.85204810376276
0.0575697985122183 -0.217324144031248 1.87595774040069
0.102904069521536 -0.193399793188574 1.87425533040003
0.141730167981527 -0.193738367405939 1.91024814495897
-0.355799608289182 -0.0834380562648945 1.88735525496652
-0.331380446937725 -0.129492808318553 1.87345588961527
0.1773208711526 -0.154702400255361 1.92102246639503
0.197918767646581 -0.145436815524145 1.96735199319611
-0.374106319731395 -0.069941440615641 1.93142117630249
0.214181154085496 -0.0999858350392079 1.98618562336316
-0.376698575147771 -0.0219530644332918 1.94772370540805
0.213749734096864 -0.0868283075102162 2.03685055020726
-0.3813862998185 -0.015267225544478 1.9918969078589
0.214571352570924 -0.0386054019208697 2.06088544751521
-0.382703676754376 0.0151469581644005 2.02266194659334
0.210017055142308 -0.0240313589652329 2.10900142307281
-0.385028035161874 0.0540420959518662 2.06745516062725
0.210709296512946 0.0199405326432525 2.13139901292655
-0.38477245783875 0.0966374237076354 2.09268125193388
0.206275794383601 0.0343891767541335 2.1784023404601
-0.386517871654697 0.108217048309598 2.14576294119382
0.203869634640165 0.0821686826983847 2.19861597664987
-0.370135080420134 0.15445469002747 2.16887747135851
0.184489026106886 0.0970885856918898 2.24608400324192
-0.350673041969721 0.162089881348648 2.21536232952591
-0.315490172395168 0.19898858061465 2.22897521129199
0.124372224412895 0.150097241689698 2.29418717025192
0.161914366280117 0.142818129711087 2.25756710746082
-0.279822982580554 0.196087960396743 2.26597848043243
-0.233262043749273 0.220907693634788 2.26524025476094
-0.191308065437503 0.203409654173289 2.2882588992436
-0.140718710074139 0.216554199965151 2.27895229885222
-0.10127845060746 0.198918092888054 2.29676072521072
-0.0530034186558651 0.201893434013369 2.29647998287248
-0.00492706581278902 0.20293529120576 2.29792746375275
0.0353464075490159 0.180477258438234 2.31577175431272
0.086905298168358 0.184335660902803 2.29428826710686
-0.294819152959059 -0.10143828834469 1.81316385790591
-0.249932198521022 -0.139739464742493 1.80994715185438
-0.202050836013532 -0.141680055889875 1.79499023534646
-0.160722270026824 -0.169210390203827 1.81739994270832
-0.11087744671791 -0.149942177219675 1.80260172715034
-0.0672830192664857 -0.160909338629297 1.81457215804475
-0.0274476353381108 -0.17552411706306 1.82968368935733
0.0160846583834965 -0.161083474088348 1.81887350389118
0.0604370478094952 -0.182979462863963 1.84442343993303
0.107092328783109 -0.1594840102541 1.84280305419783
0.144164162635165 -0.162471529577068 1.87860916976682
-0.350328982040569 -0.0464300422475814 1.85789648493207
-0.328543706858951 -0.0937134979573999 1.84657149250829
0.177954966011806 -0.126216014766655 1.88680085872534
0.203923062432907 -0.110865228442512 1.93562888513943
-0.367890841050729 -0.0321176792814848 1.89996296255302
0.221214673147562 -0.0623549843611518 1.96598031703415
-0.370354108038749 0.0158797992939212 1.92193396059929
0.219639702411506 -0.0489819459994619 2.01110447066784
-0.37556274049031 0.0298463615403158 1.97138564677886
0.220788351590167 -0.00194508721730779 2.03034171210138
-0.379072203379622 0.0567046660516257 2.01851227163155
0.216316066810178 0.0116123127947408 2.07835460977231
-0.378136427359404 0.0994323654515646 2.03803357192708
0.217161267202338 0.055969437227358 2.09924182079644
-0.37932749168741 0.134600031046754 2.07086864159888
0.212642048931158 0.0706928093079371 2.14760741859895
-0.380000382185757 0.143239692549238 2.12043958966828
0.209901343461741 0.116713935262065 2.16852494609252
-0.363716954299488 0.189000588406765 2.13895342659068
0.190968501171833 0.130527162656778 2.21536478202058
-0.343683964851163 0.197035261706606 2.1857427697441
-0.309299222412438 0.233364557725086 2.19837622003388
0.13121573815606 0.184347695377863 2.26310921092699
0.168316760807747 0.177044599335355 2.22672415367277
-0.273918051732906 0.230335081060835 2.23531014171147
-0.227627350304242 0.255351617461341 2.23434505427266
-0.184015879827917 0.238399183617335 2.2571695564503
-0.135360252349285 0.250226053617672 2.24892480019825
-0.0877774867518232 0.235291010216866 2.26473577745182
-0.0377692391494693 0.236064703268395 2.2665200811826
0.00874029459128783 0.236337840611337 2.26858083255268
0.0477896742045366 0.212840786798644 2.28559289071575
0.0940304885825878 0.218622349739222 2.26327188104731
-0.257499021854912 -0.102146263686039 1.78766042403349
-0.215971193185562 -0.105943318306042 1.77407523094609
-0.169553284886828 -0.103335312041541 1.76785452170239
-0.154721685583149 -0.136960655006429 1.78959197156636
-0.117421527541899 -0.10937443897474 1.77478031638706
-0.0706939042922318 -0.121261939255573 1.78481475207176
-0.0238465733995504 -0.132415620175222 1.79491670238713
0.0240800022553235 -0.121736164433427 1.79227945475813
0.0634980608756054 -0.149383799875176 1.81502989082182
0.10795660279915 -0.123287120913636 1.8148604971656
0.148315639382345 -0.127123331733493 1.84769336031552
-0.337936137075084 -0.00954529805765863 1.83256018874053
-0.321323310631126 -0.0564087487606989 1.81826881470769
0.197048873360642 -0.088847511324482 1.88955318113494
0.214781537776725 -0.0659869513121233 1.92288637086572
-0.358150211798229 0.00692265077404645 1.87193545485219
0.220307740142643 -0.0225798746763741 1.9335199933129
-0.355197816805546 0.0513264973536844 1.89299916221198
0.223143848657084 -0.0107652201018052 1.97885607575038
-0.364892085800397 0.0649889757608228 1.93786148146133
0.219683577618089 0.0328555913166603 1.99763742592898
-0.371829662285352 0.0824103716199411 1.98365024336679
0.219891541395259 0.0482016766301811 2.04523083780098
-0.365769010538522 0.128010101792931 1.99845609786946
0.216821683742233 0.0907293395028261 2.06724731048805
-0.368790160542125 0.155322449284366 2.03427460614609
0.216662345161936 0.106292448251827 2.11453831236244
-0.372728265963783 0.176887879335669 2.08883367249065
0.210763032906596 0.147965100247194 2.13666824012073
-0.35490699351129 0.218005368925182 2.10371334412783
0.195298502199769 0.164760984449906 2.18476060873434
-0.337481116129285 0.229969375354851 2.15313387272292
-0.301889836368715 0.262624809455098 2.16495097057854
0.136325193222871 0.218604809478847 2.23063679143918
0.168239348601667 0.210516552534568 2.19370253362802
-0.266493842671902 0.263861581699098 2.20395225930893
-0.217856303799397 0.286378806450866 2.19848927121597
-0.180627658287604 0.272469425718727 2.22370265770024
-0.138799080211429 0.280966175929244 2.21303967551957
-0.09469835710924 0.271180219258994 2.22722431735192
-0.0500527279803699 0.266861012548806 2.23370659342457
1.6579745305903e-05 0.266207989758173 2.23541823652595
0.051910038743928 0.248461613121438 2.25245780396252
0.0972911852347994 0.249277352750887 2.22988674636588
-0.28282940211703 -0.0614539669447178 1.78587836463697
-0.237428870421516 -0.0626879608962329 1.76359168436169
-0.18975441865658 -0.0642531471420093 1.75402079172157
-0.137901865827228 -0.0682828656924431 1.75707305768041
-0.0874048415781809 -0.0748950196073465 1.76378651823342
-0.0412922564612191 -0.0848475330081176 1.77117216403039
0.00281654206778845 -0.0844407006391731 1.77519184421058
0.0498604660573198 -0.0742451031417848 1.77721777395725
0.0702608261347078 -0.10920583709634 1.79282758215824
0.102315996323841 -0.073655415142388 1.79179459423883
0.138782755424201 -0.0908579687645678 1.81854439811834
-0.30275146175127 -0.0194994410087004 1.79411357789552
-0.277518589165126 0.022177641510192 1.78009845607069
-0.260209090289091 -0.0210943811519178 1.76679252110202
0.149036150486537 -0.0498746936957853 1.8157815231063
0.175127715066721 -0.0833833176306418 1.85102433326313
0.178495459379939 -0.0360030460734253 1.8437806834645
-0.334834086413683 0.0446779012518637 1.84416683370512
-0.31504499093844 0.022190567298073 1.810233508184
0.202633176868051 -0.0418670169984434 1.88156714699914
0.207961336465098 0.000351206326192614 1.89841171670631
-0.331578201540739 0.0825007606882782 1.87039630616926
0.213801228593414 0.0264577514073043 1.94161558251548
-0.341462141120516 0.102616953837734 1.9097068241709
0.208801849011406 0.0638593441235388 1.96902607196905
-0.353960820845298 0.113497033669698 1.94934705077201
0.211391492642833 0.0849445885277352 2.01116763828163
-0.342914371505129 0.152893235269527 1.9629355735203
0.20653058740214 0.122215148587147 2.03826016500209
-0.346765340327715 0.181392950533997 1.99934435673221
0.208917976667723 0.143116248682134 2.08018717119516
-0.360273382521291 0.196844626517108 2.05192996459605
0.201384005848185 0.178916336764563 2.10659251629763
-0.326467250764222 0.255017443036081 2.1154941217121
-0.338383777315769 0.239281854988061 2.06699055305236
-0.307468067140166 0.272292656253153 2.07311586399751
0.191907184818921 0.19439144377595 2.15081756407788
0.178616272238021 0.220166590114222 2.10722937330323
0.165353586151316 0.233005738489473 2.15245541101121
-0.258685797603716 0.288826905451922 2.16707348836778
-0.29247312937667 0.282297978352352 2.12578317827458
-0.250614509607018 0.30406569792358 2.12465354486146
0.132649049494809 0.249460732108672 2.19158130219691
0.100337387063221 0.281507059930096 2.15562038773316
0.0879894677034888 0.27455305199701 2.19447772807128
-0.211462892302207 0.306181198527417 2.15844688488006
-0.167504067547063 0.300575199050385 2.17823019170703
-0.114595460877088 0.298211158544386 2.18066295468929
-0.0701374967211091 0.29329205296296 2.18949638541492
-0.0263302751006077 0.290012413774257 2.19457024101833
0.0164083526152248 0.289151393898772 2.19401697820423
0.0495720202397325 0.274714214226712 2.21730752224699
-0.211368563195952 -0.0215337164751325 1.75083660747296
-0.160086100084663 -0.0255077073047085 1.74801199933629
-0.109326784629831 -0.029593960545374 1.75381331565331
-0.0614648529644707 -0.0344575961988176 1.75951570896585
-0.0166441018600005 -0.0380441625060297 1.76479791698476
0.02743664907514 -0.03390502268723 1.76963885682683
0.0760248168698896 -0.0325276619366984 1.7774554435955
-0.233291029008547 0.019832519385062 1.7593821913298
-0.206034014056441 0.0573024371640055 1.76351560439166
-0.18188684452997 0.0178709228180639 1.75011304153056
-0.131096552400151 0.0144944353129223 1.7533501138954
-0.0834317634585136 0.0133742687670473 1.75936136443573
-0.0361715290145375 0.00992498397589105 1.76493935078655
0.00860029057508259 0.0113804924702213 1.7710940566006
0.0555299550208206 0.0105995482482414 1.77726275615015
0.103671767262683 0.0117849002412875 1.7919478825276
0.150742575988516 0.00284969237397036 1.81942457822166
0.119537097019015 -0.0286514058938787 1.79488034478072
-0.295521237893104 0.0620413278365575 1.80818463226557
-0.263517817596592 0.100504884946536 1.81059513320361
-0.252932300246481 0.0625886715576688 1.78058466251952
0.126731189639332 0.045306235639123 1.81640065600631
0.184625760800038 0.00586928321725617 1.85703219836928
0.162788353592525 0.0460096456699128 1.8483273357269
-0.303349073684079 0.09291003469673 1.83923599110235
-0.270031099753002 0.131288479090226 1.84669200941399
0.193101397742498 0.0418270422171562 1.8917085154333
0.165247884889243 0.080844897137023 1.88251483411482
-0.30796110529526 0.125443852380556 1.87888885000727
-0.277048866098818 0.161494222478928 1.88466534830921
0.192059101922356 0.0721363891328636 1.92489793174282
0.163299725336317 0.112958689404617 1.91796526963471
-0.319078923359496 0.149735257421544 1.91912609102383
-0.281905411053598 0.189479607855376 1.91865839407498
0.190636626680932 0.104607328637287 1.96196471340629
0.162250974601725 0.144099554159589 1.95365845159162
-0.315949654954985 0.187791477851997 1.95419462751741
-0.279978054137498 0.223145740362823 1.95285685999539
0.189929870497135 0.132842654661957 1.99558252613968
0.161564647624998 0.174584785161818 1.98915339278078
-0.313177787854367 0.222419409218562 1.98660727387726
-0.27939089674698 0.258538642079318 1.99176438594198
0.18885210162037 0.164761920712797 2.03289831568009
0.160331291291295 0.205270165888435 2.02402876236759
-0.336758985630766 0.221519463679819 2.02298731537611
-0.307503708013615 0.258295390604897 2.02793598300939
0.187127021228627 0.193435039426056 2.06598927134621
0.157082350268054 0.233324402553652 2.0606977038898
-0.274270339490691 0.295417614631371 2.08432453206811
-0.269171962438442 0.288147760204966 2.03612043561302
-0.236686413575075 0.309135828045019 2.07035902887248
0.134858965902974 0.262772703244829 2.14495802945744
0.148582724954699 0.252937331463054 2.10295253252663
0.108652090803257 0.280446274261421 2.10360756487687
-0.212195205601409 0.315694725295258 2.11037810920739
-0.186593678129282 0.317392850378931 2.07462004386131
-0.171682439785471 0.315583810869891 2.12898720818969
-0.142680450339787 0.315943708931723 2.08807284729309
-0.129228786534129 0.311620746205246 2.13818632260787
-0.0985705213989221 0.312606892939506 2.09325170333144
-0.0824381662635159 0.308578354081088 2.14097911544912
-0.0537188995914038 0.309109200353868 2.09667948786546
-0.0381495558660439 0.305078990094805 2.14702423304537
-0.0101505636140144 0.305721317447401 2.10038060061346
0.00636722051096517 0.302268740772957 2.14903144223935
0.0340550790093727 0.302541363209555 2.10827943225482
0.0520579100496203 0.295273945116653 2.16391566389212
0.0717909309115338 0.295815806135487 2.1207707855947
-0.17527579531955 0.0902747150341359 1.77720375226449
-0.152747162395901 0.0561364275204924 1.7615572145891
-0.107034431999695 0.0584914018416915 1.76916987619135
-0.0583009095952082 0.0543411328162199 1.77470520473332
-0.0134096115187987 0.0561020043370763 1.78221336845703
0.0319770846811379 0.0552971765409442 1.78875399214848
0.0780027414251136 0.0512580268519042 1.79597101092879
-0.22033330559048 0.0983354564677587 1.78906211862437
-0.177774785032423 0.125088941561862 1.8045623215014
-0.131736618997182 0.100203853432391 1.78866422860005
-0.0807889565895958 0.0933089377596376 1.79249107365418
-0.0364931551856916 0.0965119813932441 1.80247114136272
0.00802663677412555 0.0964473660218461 1.81027003831732
0.0532146604083341 0.0935886171801753 1.81603997948638
0.096650751692908 0.0837937589403252 1.82302035547764
0.131275364837853 0.086164451463971 1.84814812526569
-0.225311089433957 0.132173699666326 1.82167279488603
-0.185475203632351 0.156798487901504 1.83958554385915
-0.139571120119736 0.140875569789856 1.82586547998624
-0.10035912096871 0.12522572511923 1.81637321185026
-0.0575926257679068 0.130321057593551 1.83061104487414
-0.0138952662926804 0.130924117414733 1.84014098100955
0.0342224932731773 0.12726778901558 1.84577953640963
0.0840737303104945 0.119509836929528 1.85172502337705
0.128840418044047 0.117124930091063 1.88052753801967
-0.23220202013752 0.162684824852265 1.85775530997196
-0.187202843483417 0.187298037503319 1.87351925076882
-0.141152443579165 0.172968791436597 1.86160807493191
-0.0945397510046631 0.15693510141341 1.85303320180192
-0.0476273225207153 0.163440448480494 1.86984584104373
0.00257139043228398 0.159551461051263 1.87564450508277
0.0503791684123012 0.155480385765388 1.88076692732524
0.09248822048297 0.147620189421262 1.8882495704506
0.127645409552361 0.149958540236686 1.91764940038554
-0.235724251669513 0.192330864031746 1.89156465588406
-0.189765650859745 0.216307036444332 1.90586802520916
-0.140811473944579 0.205322127113654 1.89803207941077
-0.0982369005497341 0.188049063389733 1.88724614695982
-0.0604002371694802 0.196419685809058 1.90431655672533
-0.0156805843260315 0.190679633585941 1.90692513527261
0.0323329993694422 0.187129992197398 1.9126620790348
0.0813938897924002 0.180781056920548 1.92022999531055
0.126573666947459 0.179438761320741 1.95098501601843
-0.23898190188095 0.221162776470309 1.92439660710897
-0.196142212700608 0.244964311572075 1.93823007531947
-0.146137898169924 0.235866897379289 1.93127506487223
-0.0968980864257805 0.224113662145004 1.92804345073547
-0.0453565144177132 0.224265553282629 1.93865422106658
0.00281832994764507 0.219715823793806 1.94330065862153
0.0492306778069015 0.21633076296205 1.9489617931683
0.0907363050053286 0.20911832591272 1.95762012601445
0.125739905220479 0.211730381733498 1.98783998157941
-0.24365993955831 0.252166928094642 1.96029207304193
-0.205856062630352 0.274035934769629 1.97240820964834
-0.15887523246773 0.267883665884698 1.96474112449175
-0.112257872107609 0.258129633779351 1.96315535378244
-0.0675974462456138 0.253810963187728 1.96734853051926
-0.0186177597144499 0.251650231284687 1.97484271466112
0.0301966427589205 0.248114364930738 1.98075699012772
0.0792962982575249 0.242405520009273 1.98942967181109
0.124132788274433 0.240639430039113 2.02096420664484
-0.239475338078716 0.284910237717215 2.00110962091558
-0.182959854623129 0.295166517799982 2.00197151977571
-0.134217034155243 0.289201262516361 2.00007804380897
-0.0895700693098039 0.28458209189876 2.00318456902142
-0.0446916126012072 0.280602331154079 2.00747150964029
0.00168886959543775 0.277666054047062 2.01389110759947
0.0467685292748403 0.274794377922041 2.02026920264597
0.0874712126614547 0.267932052597736 2.02991965746802
0.119343483296592 0.265747006838729 2.06312753353066
-0.214580744348717 0.305666510138944 2.0333428164471
-0.160430119833853 0.309202201594053 2.03912406004899
-0.1146526326633 0.305830913681593 2.04481287514189
-0.069577303152255 0.301976207304444 2.04863062123306
-0.0238094523673176 0.298077241592339 2.05259540608265
0.0233411275420192 0.29497343545405 2.05963920155592
0.0702829250621575 0.28972800949091 2.06946685198944
3 0 1 2
3 0 2 4
3 3 0 4
3 3 4 6
3 5 3 6
3 5 6 8
3 7 5 8
3 7 8 10
3 9 7 10
3 9 10 12
3 11 9 12
3 13 11 14
3 14 11 12
3 13 14 15
3 16 17 18
3 16 18 1
3 0 19 1
3 19 16 1
3 0 3 20
3 19 0 20
3 3 5 21
3 20 3 21
3 5 7 22
3 21 5 22
3 7 9 23
3 22 7 23
3 9 11 24
3 23 9 24
3 24 11 25
3 25 11 13
3 13 15 26
3 27 13 26
3 25 13 27
3 27 26 28
3 17 16 30
3 30 16 29
3 29 19 31
3 29 16 19
3 31 20 32
3 31 19 20
3 32 21 33
3 32 20 21
3 21 22 33
3 33 22 34
3 22 23 34
3 34 23 35
3 23 24 35
3 35 24 36
3 24 25 36
3 36 25 37
3 37 27 38
3 37 25 27
3 38 28 39
3 38 27 28
3 30 40 41
3 30 29 40
3 29 31 42
3 40 29 42
3 31 32 43
3 42 31 43
3 32 33 44
3 43 32 44
3 33 34 45
3 44 33 45
3 34 35 46
3 45 34 46
3 35 36 47
3 46 35 47
3 36 37 47
3 47 37 48
3 37 38 48
3 48 38 49
3 49 39 50
3 49 38 39
3 40 51 52
3 41 40 52
3 51 42 53
3 51 40 42
3 42 43 53
3 53 43 54
3 43 44 54
3 54 44 55
3 44 45 55
3 55 45 56
3 45 46 56
3 56 46 57
3 46 47 58
3 57 46 58
3 47 48 59
3 58 47 59
3 48 49 60
3 59 48 60
3 49 50 61
3 60 49 61
3 51 62 63
3 52 51 63
3 51 53 64
3 62 51 64
3 53 54 65
3 64 53 65
3 54 55 66
3 65 54 66
3 55 56 67
3 66 55 67
3 56 57 67
3 67 57 68
3 57 58 69
3 68 57 69
3 58 59 69
3 69 59 70
3 59 60 70
3 70 60 71
3 71 61 72
3 71 60 61
3 62 73 74
3 63 62 74
3 62 64 75
3 73 62 75
3 64 65 75
3 75 65 76
3 65 66 76
3 76 66 77
3 66 67 77
3 77 67 78
3 67 68 78
3 78 68 79
3 79 69 80
3 79 68 69
3 80 70 81
3 80 69 70
3 81 71 82
3 81 70 71
3 82 72 83
3 82 71 72
3 74 73 85
3 85 73 84
3 84 73 86
3 86 73 75
3 75 76 86
3 86 76 87
3 76 77 88
3 87 76 88
3 77 78 89
3 88 77 89
3 78 79 90
3 89 78 90
3 79 80 91
3 90 79 91
3 80 81 92
3 91 80 92
3 81 82 93
3 92 81 93
3 93 83 94
3 93 82 83
3 84 95 85
3 84 86 96
3 97 84 96
3 95 84 97
3 96 87 98
3 96 86 87
3 87 88 98
3 98 88 99
3 88 89 99
3 99 89 100
3 89 90 100
3 100 90 101
3 101 91 102
3 101 90 91
3 102 92 103
3 102 91 92
3 92 93 103
3 105 103 104
3 103 93 104
3 93 94 104
3 96 106 97
3 96 98 107
3 106 96 107
3 98 99 108
3 107 98 108
3 99 100 109
3 108 99 109
3 100 101 110
3 109 100 110
3 101 102 111
3 110 101 111
3 111 102 112
3 112 102 103
3 103 105 112
3 117 114 115
3 116 113 117
3 117 113 114
3 116 117 119
3 118 116 119
3 118 119 121
3 120 118 121
3 120 121 123
3 122 120 123
3 122 123 125
3 124 122 125
3 124 125 127
3 126 124 127
3 126 127 128
3 129 130 131
3 114 129 131
3 114 113 129
3 113 2 129
3 129 2 1
3 4 113 116
3 4 2 113
3 6 116 118
3 6 4 116
3 8 118 120
3 8 6 118
3 10 120 122
3 10 8 120
3 12 122 124
3 12 10 122
3 14 124 126
3 14 12 124
3 133 126 128
3 15 14 126
3 15 126 133
3 132 15 133
3 132 133 134
3 135 136 137
3 137 17 135
3 137 18 17
3 18 137 130
3 129 18 130
3 18 129 1
3 15 132 26
3 139 132 134
3 139 138 132
3 138 28 26
3 132 138 26
3 138 139 140
3 136 135 142
3 142 135 141
3 17 30 135
3 135 30 141
3 143 39 28
3 138 143 28
3 143 140 144
3 143 138 140
3 141 145 146
3 142 141 146
3 41 145 141
3 30 41 141
3 147 39 143
3 147 50 39
3 147 144 148
3 147 143 144
3 145 149 150
3 146 145 150
3 52 149 145
3 41 52 145
3 151 50 147
3 151 155 50
3 151 148 152
3 151 147 148
3 149 153 154
3 150 149 154
3 63 153 149
3 52 63 149
3 155 61 50
3 155 72 61
3 155 151 156
3 156 151 152
3 154 157 158
3 154 153 157
3 74 157 153
3 63 74 153
3 159 72 155
3 159 83 72
3 159 156 160
3 159 155 156
3 158 157 162
3 162 157 161
3 74 85 161
3 157 74 161
3 163 83 159
3 163 94 83
3 163 160 164
3 163 159 160
3 161 165 162
3 165 95 166
3 165 161 95
3 161 85 95
3 165 166 167
3 95 97 166
3 105 104 168
3 170 94 163
3 170 168 94
3 169 168 170
3 94 168 104
3 163 164 170
3 166 171 167
3 173 171 172
3 172 171 106
3 171 97 106
3 171 166 97
3 172 107 174
3 172 106 107
3 174 108 175
3 174 107 108
3 175 109 176
3 175 108 109
3 176 110 177
3 176 109 110
3 177 111 178
3 177 110 111
3 178 112 180
3 178 111 112
3 181 105 168
3 181 180 105
3 179 178 180
3 180 112 105
3 168 169 181
3 172 182 173
3 182 172 183
3 183 172 174
3 174 175 184
3 183 174 184
3 175 176 185
3 184 175 185
3 176 177 186
3 185 176 186
3 177 178 187
3 186 177 187
3 187 179 188
3 187 178 179
3 179 180 229
3 189 190 191
3 114 131 191
3 115 114 191
3 115 191 192
3 115 192 193
3 117 115 193
3 119 193 194
3 119 117 193
3 119 194 121
3 121 194 195
3 121 195 123
3 123 195 196
3 123 196 125
3 125 196 197
3 127 197 198
3 127 125 197
3 128 198 199
3 200 128 199
3 128 127 198
3 200 199 201
3 202 203 204
3 131 130 189
3 190 189 204
3 189 130 202
3 189 202 204
3 131 189 191
3 128 200 133
3 134 200 205
3 206 205 201
3 134 133 200
3 205 200 201
3 205 206 207
3 136 208 203
3 202 137 136
3 202 136 203
3 137 202 130
3 134 205 139
3 139 205 207
3 140 139 207
3 211 207 209
3 136 142 208
3 208 142 210
3 211 140 207
3 211 144 140
3 146 212 210
3 142 146 210
3 148 144 213
3 213 144 211
3 150 214 212
3 146 150 212
3 215 148 213
3 215 152 148
3 154 216 150
3 150 216 214
3 219 152 217
3 217 152 215
3 158 218 216
3 154 158 216
3 219 156 152
3 219 160 156
3 158 220 218
3 158 162 220
3 221 160 219
3 221 164 160
3 162 165 222
3 223 220 222
3 220 162 222
3 165 167 222
3 169 170 224
3 225 164 221
3 224 170 164
3 224 164 225
3 222 226 223
3 167 171 227
3 226 167 227
3 226 227 228
3 226 222 167
3 171 173 227
3 180 181 229
3 181 169 230
3 231 169 224
3 230 169 231
3 230 229 181
3 224 225 271
3 227 232 228
3 232 182 233
3 232 173 182
3 227 173 232
3 182 183 234
3 233 182 234
3 183 184 234
3 234 184 235
3 184 185 235
3 235 185 236
3 185 186 236
3 236 186 237
3 186 187 237
3 237 187 238
3 238 188 239
3 238 187 188
3 188 179 229
3 240 239 188
3 240 188 229
3 229 230 240
3 191 190 242
3 242 190 241
3 192 242 243
3 192 191 242
3 192 243 244
3 193 192 244
3 194 244 245
3 194 193 244
3 194 245 246
3 195 194 246
3 195 246 247
3 196 195 247
3 196 247 248
3 197 196 248
3 197 248 249
3 198 197 249
3 199 198 249
3 250 199 249
3 201 199 251
3 251 199 250
3 204 252 253
3 204 203 252
3 190 253 241
3 190 204 253
3 206 251 254
3 206 201 251
3 207 206 255
3 255 206 254
3 203 256 252
3 203 208 256
3 257 209 255
3 255 209 207
3 210 258 208
3 208 258 256
3 211 209 259
3 259 209 257
3 212 260 210
3 210 260 258
3 213 211 259
3 261 213 259
3 214 262 260
3 212 214 260
3 215 213 261
3 263 215 261
3 216 264 214
3 214 264 262
3 217 215 263
3 265 217 263
3 218 266 264
3 216 218 264
3 219 217 265
3 267 219 265
3 218 268 266
3 218 220 268
3 221 219 267
3 269 221 267
3 223 270 268
3 220 223 268
3 225 221 269
3 271 225 269
3 223 226 272
3 270 223 272
3 272 228 273
3 272 226 228
3 274 231 275
3 274 230 231
3 275 231 271
3 271 231 224
3 273 228 276
3 276 228 232
3 276 233 277
3 276 232 233
3 233 234 278
3 277 233 278
3 234 235 279
3 278 234 279
3 235 236 280
3 279 235 280
3 236 237 281
3 280 236 281
3 237 238 282
3 281 237 282
3 238 239 283
3 282 238 283
3 327 239 284
3 284 239 240
3 240 230 274
3 284 240 274
3 241 285 286
3 242 241 286
3 242 286 243
3 243 286 287
3 243 287 288
3 244 243 288
3 245 288 289
3 245 244 288
3 245 289 246
3 246 289 290
3 246 290 247
3 247 290 291
3 247 291 248
3 248 291 292
3 248 292 293
3 249 248 293
3 249 293 250
3 250 293 294
3 250 294 295
3 251 250 295
3 252 296 297
3 253 252 297
3 241 297 285
3 241 253 297
3 254 295 298
3 254 251 295
3 254 298 299
3 255 254 299
3 256 300 252
3 252 300 296
3 257 255 299
3 301 257 299
3 258 302 300
3 256 258 300
3 259 257 303
3 303 257 301
3 260 304 258
3 258 304 302
3 261 259 303
3 305 261 303
3 262 306 304
3 260 262 304
3 263 261 305
3 307 263 305
3 264 308 262
3 262 308 306
3 265 263 307
3 309 265 307
3 266 310 308
3 264 266 308
3 267 265 309
3 311 267 309
3 266 312 310
3 266 268 312
3 269 267 311
3 313 269 311
3 270 314 312
3 268 270 312
3 271 269 315
3 315 269 313
3 270 272 316
3 314 270 316
3 316 273 317
3 316 272 273
3 318 275 319
3 318 274 275
3 275 271 315
3 319 275 315
3 273 276 320
3 317 273 320
3 276 277 320
3 320 277 321
3 277 278 322
3 321 277 322
3 322 279 323
3 322 278 279
3 279 280 323
3 323 280 324
3 280 281 324
3 324 281 325
3 281 282 325
3 325 282 326
3 282 283 326
3 326 283 327
3 283 239 327
3 327 284 328
3 284 274 318
3 328 284 318
3 285 329 330
3 286 285 330
3 286 330 287
3 287 330 331
3 287 331 332
3 288 287 332
3 288 332 289
3 289 332 333
3 289 333 334
3 290 289 334
3 290 334 335
3 291 290 335
3 291 335 292
3 292 335 336
3 292 336 337
3 293 292 337
3 293 337 294
3 294 337 338
3 294 338 339
3 295 294 339
3 296 340 341
3 297 296 341
3 285 341 329
3 285 297 341
3 298 339 342
3 298 295 339
3 298 342 343
3 299 298 343
3 300 344 296
3 296 344 340
3 301 299 343
3 345 301 343
3 302 346 344
3 300 302 344
3 303 301 347
3 347 301 345
3 304 348 302
3 302 348 346
3 305 303 347
3 349 305 347
3 306 350 348
3 304 306 348
3 307 305 351
3 351 305 349
3 308 352 306
3 306 352 350
3 309 307 353
3 353 307 351
3 310 354 352
3 308 310 352
3 311 309 355
3 355 309 353
3 312 356 310
3 310 356 354
3 313 311 355
3 357 313 355
3 314 358 356
3 312 314 356
3 315 313 359
3 359 313 357
3 314 316 360
3 358 314 360
3 360 317 361
3 360 316 317
3 362 319 363
3 362 318 319
3 319 315 359
3 363 319 359
3 317 320 364
3 361 317 364
3 320 321 364
3 364 321 365
3 321 322 366
3 365 321 366
3 322 323 366
3 366 323 367
3 323 324 368
3 367 323 368
3 324 325 369
3 368 324 369
3 325 326 370
3 369 325 370
3 326 327 371
3 370 326 371
3 327 328 371
3 371 328 372
3 328 318 362
3 372 328 362
3 329 373 374
3 330 329 374
3 330 374 331
3 331 374 375
3 331 375 376
3 332 331 376
3 332 376 333
3 333 376 377
3 333 377 378
3 334 333 378
3 334 378 379
3 335 334 379
3 335 379 336
3 336 379 380
3 336 380 381
3 337 336 381
3 337 381 338
3 338 381 382
3 338 382 383
3 339 338 383
3 340 384 385
3 341 340 385
3 329 385 373
3 329 341 385
3 342 383 386
3 342 339 383
3 342 386 387
3 343 342 387
3 344 388 340
3 340 388 384
3 345 343 387
3 389 345 387
3 346 390 388
3 344 346 388
3 347 345 391
3 391 345 389
3 348 392 346
3 346 392 390
3 349 347 391
3 393 349 391
3 350 394 348
3 348 394 392
3 351 349 395
3 395 349 393
3 352 396 350
3 350 396 394
3 353 351 395
3 397 353 395
3 354 398 396
3 352 354 396
3 355 353 399
3 399 353 397
3 356 400 354
3 354 400 398
3 357 355 399
3 401 357 399
3 358 402 400
3 356 358 400
3 359 357 403
3 403 357 401
3 358 360 404
3 402 358 404
3 404 361 405
3 404 360 361
3 406 363 407
3 406 362 363
3 363 359 403
3 407 363 403
3 361 364 408
3 405 361 408
3 364 365 408
3 408 365 409
3 365 366 410
3 409 365 410
3 366 367 410
3 410 367 411
3 367 368 412
3 411 367 412
3 368 369 412
3 412 369 413
3 369 370 413
3 413 370 414
3 370 371 415
3 414 370 415
3 371 372 415
3 415 372 416
3 372 362 406
3 416 372 406
3 373 417 418
3 374 373 418
3 374 418 375
3 375 418 419
3 375 419 420
3 376 375 420
3 376 420 377
3 377 420 421
3 377 421 422
3 378 377 422
3 378 422 423
3 379 378 423
3 380 423 424
3 380 379 423
3 380 424 425
3 381 380 425
3 382 425 426
3 382 381 425
3 382 426 427
3 383 382 427
3 384 428 429
3 385 384 429
3 373 429 417
3 373 385 429
3 386 427 430
3 386 383 427
3 386 430 431
3 387 386 431
3 384 432 428
3 384 388 432
3 389 387 431
3 433 389 431
3 390 434 432
3 388 390 432
3 435 389 433
3 435 391 389
3 390 436 434
3 390 392 436
3 393 391 435
3 437 393 435
3 394 438 436
3 392 394 436
3 395 393 439
3 439 393 437
3 396 440 438
3 394 396 438
3 397 395 439
3 441 397 439
3 398 442 440
3 396 398 440
3 399 397 443
3 443 397 441
3 400 444 398
3 398 444 442
3 401 399 443
3 445 401 443
3 402 446 444
3 400 402 444
3 403 401 447
3 447 401 445
3 402 404 448
3 446 402 448
3 448 405 449
3 448 404 405
3 450 407 451
3 450 406 407
3 407 403 447
3 451 407 447
3 405 408 452
3 449 405 452
3 408 409 452
3 452 409 453
3 409 410 454
3 453 409 454
3 410 411 454
3 454 411 455
3 411 412 456
3 455 411 456
3 412 413 456
3 456 413 457
3 457 414 458
3 457 413 414
3 414 415 459
3 458 414 459
3 415 416 459
3 459 416 460
3 416 406 450
3 460 416 450
3 418 461 462
3 418 417 461
3 419 462 463
3 419 418 462
3 419 463 464
3 420 419 464
3 420 464 421
3 421 464 465
3 421 465 466
3 422 421 466
3 422 466 467
3 423 422 467
3 424 467 468
3 424 423 467
3 424 468 469
3 425 424 469
3 426 469 470
3 426 425 469
3 427 426 471
3 471 426 470
3 429 428 473
3 473 428 472
3 417 473 505
3 417 429 473
3 430 427 471
3 520 430 471
3 431 474 475
3 431 430 474
3 428 476 472
3 428 432 476
3 433 431 475
3 477 433 475
3 434 478 476
3 432 434 476
3 479 433 477
3 479 435 433
3 434 480 478
3 434 436 480
3 437 435 479
3 481 437 479
3 438 482 436
3 436 482 480
3 439 437 483
3 483 437 481
3 440 484 482
3 438 440 482
3 441 439 483
3 485 441 483
3 442 486 440
3 440 486 484
3 443 441 487
3 487 441 485
3 444 488 442
3 442 488 486
3 445 443 487
3 489 445 487
3 444 446 488
3 488 446 490
3 491 445 489
3 491 447 445
3 490 446 492
3 492 446 448
3 492 449 493
3 492 448 449
3 494 451 495
3 494 450 451
3 451 447 491
3 495 451 491
3 449 452 496
3 493 449 496
3 496 453 497
3 496 452 453
3 453 454 498
3 497 453 498
3 498 455 499
3 498 454 455
3 455 456 500
3 499 455 500
3 456 457 501
3 500 456 501
3 457 458 502
3 501 457 502
3 458 459 503
3 502 458 503
3 503 460 504
3 503 459 460
3 504 460 494
3 494 460 450
3 461 505 506
3 462 461 506
3 507 463 462
3 507 462 506
3 465 463 508
3 508 463 507
3 464 463 465
3 465 508 509
3 465 509 466
3 466 509 510
3 466 510 467
3 467 510 511
3 467 511 468
3 468 511 512
3 468 512 513
3 469 468 513
3 469 513 470
3 515 470 514
3 470 513 514
3 470 515 471
3 472 516 473
3 518 516 517
3 518 505 516
3 461 417 505
3 505 473 516
3 505 518 506
3 515 514 519
3 474 430 520
3 521 520 519
3 520 471 515
3 520 515 519
3 474 520 524
3 476 522 472
3 516 472 523
3 472 522 523
3 516 523 517
3 520 521 524
3 477 475 524
3 524 475 474
3 525 477 524
3 478 526 522
3 476 478 522
3 527 477 525
3 527 479 477
3 478 528 526
3 478 480 528
3 481 479 527
3 529 481 527
3 482 530 480
3 480 530 528
3 483 481 531
3 531 481 529
3 484 532 530
3 482 484 530
3 485 483 531
3 533 485 531
3 486 534 484
3 484 534 532
3 535 485 533
3 535 487 485
3 486 536 534
3 486 488 536
3 537 489 535
3 535 489 487
3 490 538 539
3 536 490 539
3 488 490 536
3 538 540 539
3 541 542 543
3 541 489 537
3 542 541 537
3 541 491 489
3 490 492 538
3 545 493 544
3 538 492 493
3 538 493 545
3 540 538 545
3 544 546 545
3 547 548 549
3 543 495 541
3 547 494 495
3 547 495 543
3 608 547 543
3 495 491 541
3 493 496 544
3 544 497 550
3 546 544 550
3 544 496 497
3 550 497 551
3 551 497 498
3 498 499 551
3 551 499 552
3 499 500 552
3 552 500 553
3 500 501 553
3 553 501 554
3 554 502 555
3 554 501 502
3 502 503 556
3 555 502 556
3 503 504 556
3 549 504 547
3 556 504 549
3 504 494 547
3 506 557 507
3 507 557 558
3 508 507 558
3 508 558 559
3 509 508 559
3 509 559 560
3 510 509 560
3 510 560 561
3 511 510 561
3 511 561 562
3 512 511 562
3 514 512 563
3 563 512 562
3 513 512 514
3 517 564 518
3 518 564 557
3 566 564 565
3 557 564 566
3 557 506 518
3 558 566 567
3 558 557 566
3 559 567 568
3 559 558 567
3 560 568 569
3 560 559 568
3 561 569 570
3 561 560 569
3 562 570 571
3 562 561 570
3 563 562 571
3 572 563 571
3 574 514 563
3 572 574 563
3 573 519 574
3 574 519 514
3 519 573 521
3 522 575 523
3 577 575 576
3 577 517 575
3 564 517 577
3 575 517 523
3 564 577 565
3 573 574 572
3 521 573 579
3 580 573 578
3 579 573 580
3 579 524 521
3 524 579 525
3 522 581 575
3 522 526 581
3 576 581 582
3 576 575 581
3 583 580 584
3 583 579 580
3 583 525 579
3 583 527 525
3 526 585 581
3 526 528 585
3 582 585 586
3 582 581 585
3 587 584 588
3 587 583 584
3 587 527 583
3 587 529 527
3 528 589 585
3 528 530 589
3 586 589 590
3 586 585 589
3 591 588 592
3 591 587 588
3 591 529 587
3 591 531 529
3 532 593 589
3 530 532 589
3 590 593 594
3 590 589 593
3 595 592 596
3 595 591 592
3 595 531 591
3 595 533 531
3 534 597 593
3 532 534 593
3 594 597 598
3 594 593 597
3 599 596 600
3 599 595 596
3 599 533 595
3 599 535 533
3 534 601 597
3 534 536 601
3 602 597 601
3 602 598 597
3 603 599 600
3 604 603 600
3 603 535 599
3 603 537 535
3 536 539 601
3 606 540 605
3 606 602 540
3 602 601 539
3 540 602 539
3 605 607 606
3 608 609 610
3 608 543 609
3 604 542 603
3 609 543 542
3 609 542 604
3 542 537 603
3 540 545 605
3 605 546 607
3 612 607 611
3 605 545 546
3 607 546 611
3 612 613 614
3 612 611 613
3 614 615 616
3 614 613 615
3 616 617 618
3 616 615 617
3 618 619 620
3 618 617 619
3 620 621 622
3 620 619 621
3 622 623 624
3 622 621 623
3 610 548 608
3 624 623 548
3 624 548 610
3 548 623 549
3 548 547 608
3 546 550 611
3 611 550 613
3 613 550 551
3 551 552 615
3 613 551 615
3 552 553 617
3 615 552 617
3 553 554 619
3 617 553 619
3 554 555 621
3 619 554 621
3 621 555 623
3 623 555 556
3 556 549 623
3 565 625 626
3 567 566 626
3 626 566 565
3 567 626 627
3 568 567 627
3 568 627 628
3 569 568 628
3 569 628 629
3 570 569 629
3 570 629 630
3 571 570 630
3 572 571 631
3 631 571 630
3 572 631 578
3 576 632 577
3 625 632 633
3 565 577 632
3 565 632 625
3 625 633 634
3 626 625 634
3 626 634 627
3 627 634 635
3 627 635 628
3 628 635 636
3 628 636 629
3 629 636 637
3 629 637 630
3 630 637 638
3 631 638 639
3 631 630 638
3 640 578 639
3 578 573 572
3 578 631 639
3 578 640 580
3 576 641 632
3 576 582 641
3 633 641 642
3 633 632 641
3 633 642 643
3 634 633 643
3 634 643 644
3 635 634 644
3 635 644 645
3 636 635 645
3 636 645 646
3 637 636 646
3 637 646 647
3 638 637 647
3 638 647 648
3 639 638 648
3 640 648 649
3 640 639 648
3 584 580 640
3 649 584 640
3 582 650 641
3 582 586 650
3 642 650 651
3 642 641 650
3 642 651 652
3 643 642 652
3 643 652 653
3 644 643 653
3 644 653 645
3 645 653 654
3 645 654 646
3 646 654 655
3 646 655 647
3 647 655 656
3 647 656 648
3 648 656 657
3 648 657 649
3 649 657 658
3 588 584 649
3 658 588 649
3 586 659 650
3 586 590 659
3 650 659 651
3 651 659 660
3 651 660 661
3 652 651 661
3 652 661 662
3 653 652 662
3 653 662 654
3 654 662 663
3 654 663 664
3 655 654 664
3 655 664 665
3 656 655 665
3 656 665 666
3 657 656 666
3 657 666 658
3 658 666 667
3 592 588 658
3 667 592 658
3 590 668 659
3 590 594 668
3 660 668 669
3 660 659 668
3 660 669 670
3 661 660 670
3 661 670 671
3 662 661 671
3 662 671 663
3 663 671 672
3 663 672 664
3 664 672 673
3 664 673 665
3 665 673 674
3 665 674 666
3 666 674 675
3 666 675 667
3 667 675 676
3 596 592 667
3 676 596 667
3 594 677 668
3 594 598 677
3 668 677 669
3 669 677 678
3 669 678 679
3 670 669 679
3 670 679 680
3 671 670 680
3 671 680 681
3 672 671 681
3 672 681 682
3 673 672 682
3 673 682 683
3 674 673 683
3 674 683 684
3 675 674 684
3 676 684 685
3 676 675 684
3 600 596 676
3 685 600 676
3 598 686 677
3 598 602 606
3 678 686 687
3 678 677 686
3 678 687 679
3 679 687 688
3 679 688 680
3 680 688 689
3 680 689 681
3 681 689 690
3 681 690 682
3 682 690 691
3 683 691 692
3 683 682 691
3 684 692 693
3 684 683 692
3 685 693 694
3 685 684 693
3 694 604 685
3 685 604 600
3 598 606 686
3 606 607 695
3 686 606 695
3 686 695 687
3 688 687 696
3 696 687 695
3 688 696 697
3 689 688 697
3 689 697 698
3 690 689 698
3 690 698 699
3 691 690 699
3 691 699 700
3 692 691 700
3 692 700 701
3 693 692 701
3 610 609 694
3 701 610 694
3 701 694 693
3 609 604 694
3 607 612 695
3 695 612 696
3 696 612 614
3 614 616 697
3 696 614 697
3 616 618 698
3 697 616 698
3 618 620 699
3 698 618 699
3 620 622 700
3 699 620 700
3 622 624 701
3 700 622 701
3 624 610 701
