OFF
702 1400 0
-0.260547107617148 -0.326609528316587 2.17557065711223
-0.305873605525526 -0.31284040565187 2.15757364673812
-0.277747613115304 -0.33250596082561 2.13028704316332
-0.213704318845752 -0.333316568171471 2.18042571411533
-0.231850445665077 -0.343340136417186 2.13570361590784
-0.166914403492974 -0.338084660907987 2.18370821985574
-0.18547531882705 -0.34768903515852 2.13796212658848
-0.12155666688756 -0.342191654612465 2.18818524897619
-0.140163388891786 -0.351827729781882 2.13991845921773
-0.0766845535097852 -0.346099846617974 2.19301636419529
-0.095424306721889 -0.355537819681011 2.14466800083094
-0.0292105260522491 -0.349228358616628 2.20075318005424
-0.0496662860003436 -0.358873686331015 2.15326883458936
0.0188865508052484 -0.344868278968534 2.20917701672326
-0.0023753637029615 -0.360519312573775 2.16238601718774
0.0441478407620393 -0.351702352537412 2.17120279392444
-0.328466138089176 -0.284044290892465 2.18558884675746
-0.358069387295508 -0.266758007542571 2.15797527208168
-0.336904544325196 -0.296985382171361 2.12974313517898
-0.28812268248122 -0.300013407672671 2.20548922607217
-0.241485768442098 -0.309085012371091 2.2176460381174
-0.193812748331706 -0.314483965985118 2.22161460693094
-0.147067768948118 -0.318493169385501 2.22710463384547
-0.101873257811216 -0.321946378657052 2.23303684142977
-0.0575973532459547 -0.327405221547468 2.23573370223924
-0.00896904488789184 -0.328273346102645 2.24310444541682
0.0648801629764914 -0.328787112023955 2.2148463414751
0.0362384108148735 -0.316201795351329 2.25088094600134
0.0824007464680811 -0.296177882784613 2.24855386960355
-0.315560465674794 -0.262988156177261 2.22705335494685
-0.355555351470034 -0.242579131784062 2.19883688361283
-0.269678768843477 -0.276461109961966 2.24479068445821
-0.219773757166671 -0.282889840737759 2.25301004539141
-0.172200529473966 -0.287304178165185 2.25836737280112
-0.124603051701997 -0.289805416241435 2.26567931521287
-0.0799216915640479 -0.292603587234769 2.272083606377
-0.037703884903954 -0.302062295187693 2.27119398304536
0.00363481480923693 -0.293843910001785 2.28188062919646
0.0493292128381578 -0.280539918254711 2.28331280599013
0.0942250829034568 -0.258392088407869 2.2767437684537
-0.333749040716931 -0.225565109010795 2.24743664633252
-0.366764893994912 -0.204148049567253 2.2207467562968
-0.292882126441645 -0.240461268763942 2.26878689055185
-0.243933891258519 -0.251129437001455 2.28017658628587
-0.19519523241443 -0.253359120902668 2.28818185047765
-0.14777011138163 -0.258200631782445 2.29307416040501
-0.0962969075883787 -0.259096612092351 2.30282319541072
-0.041477831780814 -0.268603866321584 2.30449350335395
0.00896097008772065 -0.26136682899626 2.31387361587026
0.0594881587046491 -0.24598044137516 2.31256354585588
0.104338413379258 -0.220051367742867 2.30459232228645
-0.317863845420004 -0.201218134033216 2.28986343709991
-0.358200015382849 -0.183451295593347 2.25857475686919
-0.268721220048261 -0.218455706345463 2.30498349696594
-0.221346172680515 -0.220789927172849 2.31594170033296
-0.175825359794858 -0.221877578618953 2.32426293645272
-0.131906902579527 -0.229810243120407 2.32527982225381
-0.0984015683895051 -0.217837083940809 2.34441570522468
-0.0635945967754312 -0.237270208379955 2.33183055160664
-0.0212939136156337 -0.233809714336401 2.34274815387037
0.026626621934771 -0.2273922012606 2.344153830748
0.0747436450452749 -0.208737996094138 2.3399621027522
-0.321008087898275 -0.160445419184739 2.32979340014926
-0.3489706188135 -0.162782118024438 2.29488017462729
-0.288187404948361 -0.186884620546297 2.3274124513753
-0.241162496492914 -0.189268149913343 2.34393987375488
-0.196438795042923 -0.188082095398781 2.35441963450123
-0.147554647100465 -0.193142451473076 2.35939018289563
-0.102140716773384 -0.187375018078961 2.37467231593692
-0.0547583726151574 -0.200888355369512 2.37072136815909
-0.00674677768980211 -0.200790613312414 2.37622339834928
0.0410536434041942 -0.1936255681437 2.37283365957366
0.0886038264605552 -0.171633401984184 2.36571878656575
-0.310412080152733 -0.135802933768685 2.36495250004354
-0.354399979052745 -0.123174243602856 2.32961187088873
-0.271810701715901 -0.160371488281789 2.36340221429145
-0.22587021876188 -0.15413398511815 2.38290330854882
-0.175859664975667 -0.1587361161603 2.3885749686997
-0.130081383646734 -0.158563877823624 2.39823349376953
-0.0785778814417331 -0.16268282374293 2.40470555079441
-0.0336598967958205 -0.16931807014803 2.40688959005532
0.0127212814205143 -0.166544686245868 2.40821559533277
0.0566996504971227 -0.159459504728645 2.39927738341821
0.0931764151060999 -0.133879034681511 2.39814134124075
-0.305583584850691 -0.0958460360741299 2.40053139843493
-0.339388505380925 -0.104669506103316 2.36734828045924
-0.27224125471999 -0.126182355903421 2.39632899368642
-0.237661063048857 -0.114309957538666 2.41415773180935
-0.194956790408472 -0.123011671384313 2.4159769622522
-0.149853320369806 -0.123340706516011 2.42385507848346
-0.102670384054367 -0.12686793002686 2.42993526309889
-0.0540886774474391 -0.131182911852715 2.43574287568936
-0.00581737696481406 -0.134475544173962 2.43760886151814
0.0458034428301643 -0.129009926773219 2.43009714639288
0.0932935622821949 -0.098058168599588 2.42228494469343
-0.3466693960648 -0.0652769400256674 2.38403897327493
-0.268366538968287 -0.0764530797015223 2.42641909723025
-0.311786892810213 -0.0518388237286908 2.41527466004635
-0.218923766576105 -0.077227315298959 2.43582881446376
-0.172916603852588 -0.0821808192809787 2.44111165067473
-0.126257873136514 -0.0833784875377812 2.44789269319867
-0.0804855821921631 -0.0881992940153458 2.45319875912472
-0.0338425478468604 -0.0929312141715498 2.45838915676827
0.0128218037845636 -0.0948481286041364 2.45649550688592
0.0572129242498212 -0.0888673917601409 2.44639967013794
0.0390850635014209 -0.0498117293641525 2.46270379429403
-0.284835538214871 -0.0248461161583343 2.43314025462077
-0.242453281247367 -0.0341226977203877 2.44329291131067
-0.193442277040068 -0.0362154543107019 2.44969029213768
-0.14770317210017 -0.037565861437157 2.45569908776491
-0.101435107223463 -0.0392371614877474 2.46171595287107
-0.0569062958387558 -0.0461809058649844 2.46688311502149
-0.00922139141166925 -0.0507946161688137 2.47003288184016
-0.255705789240429 -0.340612189891811 2.09115672065512
-0.279324504636022 -0.326757800586402 2.05553034339001
-0.255640581305047 -0.32033637376383 2.01801265963668
-0.206123748658002 -0.347366320117566 2.09200142804594
-0.227581397200797 -0.338519747554019 2.05080285161554
-0.160080889805264 -0.350508869707017 2.09152981936844
-0.179414992216544 -0.339296433975233 2.04542162265776
-0.114689307524881 -0.353833326965756 2.09425399704584
-0.134114872707331 -0.341256334451934 2.04628579889696
-0.0694008817699308 -0.357749599723301 2.10214706649485
-0.0865759578608178 -0.345241229831616 2.05262820049486
-0.0245369777197534 -0.361861720487036 2.11272714150408
-0.0409090462579966 -0.350242893833624 2.06204773524298
0.0214996805685886 -0.360751440891102 2.12141655102724
0.0032505250350149 -0.354695330041342 2.07354620818654
0.0511801865257345 -0.348064049954109 2.08267023530123
-0.307175601436376 -0.319979360561031 2.09866545132821
-0.345420684966748 -0.289334611384295 2.08236354868926
-0.315856879994571 -0.305373865905666 2.05014539722202
0.088979422861574 -0.331763386624652 2.17545762150996
0.0647053515627363 -0.349274341250085 2.13077044688809
0.104498415723631 -0.328089133895375 2.13279417513687
-0.383105631461316 -0.230984286653324 2.14804477155007
-0.393201472485462 -0.218743802244397 2.09835411137686
-0.370723219007814 -0.261314919767587 2.11164469384796
0.110137796700675 -0.303446783199031 2.20896506213023
0.130864773683042 -0.302245600877271 2.1646841946116
0.148100055635402 -0.270932770205331 2.19185697081009
-0.385153739653597 -0.202166509569739 2.17935880530163
-0.400772869852563 -0.186234397452876 2.13291344797365
0.124208699004633 -0.267625526851288 2.23705759501749
0.155569098871917 -0.231524431460669 2.22229665830055
-0.388713392203496 -0.163394025872756 2.21299607728809
-0.401219324179471 -0.156187571290605 2.16916936529908
0.132270929197967 -0.227204138436861 2.26490236100608
0.162228455594956 -0.18958966747784 2.24635349366474
-0.383160746823715 -0.144177797875924 2.25071234699839
-0.403305851825509 -0.11586018169989 2.20828459234918
0.141150605087006 -0.186121035008635 2.29019474932374
0.166878685473823 -0.147609779396483 2.27241487140557
-0.375265371993811 -0.125999221374226 2.28955668900166
-0.398771095747896 -0.0978931550626845 2.25349933679316
0.117880064807848 -0.178990828573714 2.32931999038768
0.150716565284804 -0.141063376518773 2.31505881894046
-0.388774636187491 -0.0858913766721659 2.30149687774811
-0.406701761166921 -0.0516222629551168 2.27001665481339
0.125500262920307 -0.13904013958394 2.35768141263639
0.156032904106262 -0.101073569708569 2.34062277391261
-0.373333342039613 -0.0782146799130314 2.34300137849088
-0.397238139251473 -0.0402937783454583 2.31735598187546
0.129145941226316 -0.101686358786174 2.38583046457072
0.153155600585669 -0.0639086131205591 2.37201784733603
-0.37591868296132 -0.0329930629374102 2.36026304771575
-0.343871780592233 -0.0216956047339431 2.39782568948503
-0.363334413920704 0.0117741034180848 2.37795028153602
0.0863397270179816 -0.0510301988977498 2.44211980357473
0.109988338243226 -0.0118747026096985 2.42781303103325
0.123136003305643 -0.0595305312795116 2.41184740354167
-0.318257072233206 0.00579204535410865 2.41697734733282
-0.265785919755218 0.0161868642866579 2.43895154736357
-0.297465994187579 0.0445195592803423 2.42131416503639
-0.216292132729504 0.0072475045349695 2.44794001520203
-0.169039724062078 0.00983554098903759 2.45323992156338
-0.122463839534725 0.00814604243511123 2.45881933166938
-0.0756747347926722 0.00638935723544237 2.46441005966728
-0.032821610227059 -0.00461528075938392 2.47053009206644
-0.00706887092026078 0.0315929435155512 2.46449173549763
0.0178347241811471 -0.00866544674642697 2.46890606472634
0.0665998720177106 -0.00879568703076642 2.45415855687089
-0.263756899640694 0.073571928454306 2.42345819143756
-0.232379571616295 0.0497703820171269 2.43832194124197
-0.188230946531061 0.0547528820572081 2.44110763189853
-0.142158258636073 0.0544487476113754 2.44565431094701
-0.0955121294387644 0.0521209956288938 2.45095171706851
-0.0471428037426935 0.0500624643212602 2.45629610249276
0.00889120000260415 0.0684529768856084 2.44860319843171
-0.343262591751871 -0.273907278046663 2.03280932740827
-0.326760636861414 -0.261450972648312 1.99356209027473
-0.296474868477463 -0.297223292286172 2.00832012097399
-0.247608876090183 -0.298849400522643 1.98156512547765
-0.205921026430346 -0.322148189676062 2.00832931929557
-0.155339077601479 -0.318353032581011 2.00167815892329
-0.105429137884865 -0.323769700128186 2.01004811114343
-0.0534312188905176 -0.328144069931677 2.01682175012699
-0.00819910399279841 -0.333899104104363 2.02584359880399
0.0358275244853452 -0.337222862269036 2.04211762428972
0.0783981716514508 -0.319537529249896 2.04078536873575
0.0908710038111028 -0.331780471377063 2.08918403157872
0.117735948117395 -0.306307334746214 2.07061753630886
-0.373045630548703 -0.250582432438392 2.06536486595974
-0.390266992892531 -0.204456903546681 2.05087180877768
-0.366975205396592 -0.232378073103845 2.02164015841708
0.134278636744056 -0.30226171697781 2.1151270502904
0.150519646925281 -0.27467399570433 2.08294762805771
0.160407119865109 -0.269704554888485 2.13801132391843
-0.404294787179933 -0.170200576668021 2.08623767127547
0.180544039313384 -0.227776936080448 2.13403468083392
-0.407116429428845 -0.138155303966736 2.11779695408607
0.172399165288384 -0.23411860008076 2.17674437099697
-0.408042278209497 -0.11459825166608 2.15980044804716
0.178320445105773 -0.191396471320882 2.19914544877347
-0.409808178381753 -0.0742830072863418 2.17401463719687
0.181181861442272 -0.150411346024892 2.2218088821193
-0.409804571600128 -0.064949256786682 2.22096793511726
0.18206327977644 -0.112189381568227 2.24783248987829
-0.412582516064703 -0.0166697456844075 2.23781323865496
0.174243677613937 -0.0980280020730254 2.29280525022067
-0.408787737665713 -0.00407288809389283 2.28780639543413
0.17468338047418 -0.0580291334721215 2.32430080435204
-0.392022204855455 0.0058063602202801 2.33556582420307
-0.398034830562132 0.0421833334918954 2.30535190777855
0.143258983011689 -0.018506337116241 2.39421399130795
0.167640443790249 -0.023785287307012 2.35338958134054
-0.374369505399675 0.0493899405895909 2.35135243961346
-0.339715895700772 0.0461600427711516 2.39281774994533
-0.346223848794342 0.0867618642202514 2.36368373335738
0.0428506023849208 0.0324872252302936 2.45546478700172
0.0893723778574198 0.0311668184703222 2.43399120709816
0.128326576895261 0.0276534173540072 2.40215963261752
-0.309565574945009 0.0839335918985241 2.39730711946082
-0.268803146867164 0.110359158042679 2.39973897557486
-0.216523440344518 0.0947928047704026 2.42005368526288
-0.167473091486426 0.0964976298364582 2.42267948902431
-0.120153194195011 0.0950919195112012 2.42701999507908
-0.0728380252005018 0.0916363319808454 2.43268970581606
-0.0268538010737055 0.0918968112644009 2.43572777938321
0.0269244688787346 0.10204564889881 2.42282953754206
0.0603297021970828 0.0701656926979496 2.43248536897068
-0.315071254736217 -0.231065684483576 1.95713534411648
-0.284054469806942 -0.270257327676624 1.96805729071404
-0.235511062706201 -0.268585008546443 1.94786835679522
-0.198563957774545 -0.296347873328569 1.97228019919309
-0.154765504139092 -0.285166546929557 1.96267700867629
-0.114638334307243 -0.292949742357262 1.97219242376026
-0.067745520576535 -0.301833068886754 1.98317399851926
-0.0115969543703605 -0.30338839717959 1.98716956304662
0.0358094949134044 -0.312759555950485 2.00498224256422
0.0813048384775694 -0.289559955446491 2.00334292824607
0.119268428330244 -0.284303613851528 2.03545289935373
-0.37812846611584 -0.180501560368424 2.00597668741796
-0.350655419092665 -0.21916725109806 1.98630976954397
0.152376185644672 -0.248150401456631 2.04439484294214
0.172567064374555 -0.238785317603659 2.09232497683036
-0.397054323533211 -0.156939569018765 2.04481223666934
0.189561989387647 -0.190683217010909 2.10471378857177
-0.402013334468775 -0.115031977500296 2.07239068368258
0.188476721890833 -0.18626237217524 2.15430842246899
-0.40579374900467 -0.0896058479975529 2.11907633502693
0.189551796350591 -0.143049519854036 2.17464074191789
-0.404517854144449 -0.0453603865680132 2.13744756253608
0.189617376587016 -0.102916626847284 2.2000381777558
-0.409373746190911 -0.0277342017832924 2.18777005928821
0.186792546419517 -0.0701492615177939 2.24382435862247
-0.407796003772758 0.0182360945809678 2.20477317623905
0.183848592608307 -0.0470865641856093 2.28228582685656
-0.409242156357701 0.0307268538763395 2.25566729948453
0.179351285492942 -0.00208565220448557 2.31588149325235
-0.393761279050513 0.0762968232475106 2.2729322113091
0.158204912472433 0.0196931506289431 2.36257569316219
-0.375062394479795 0.0851051421641068 2.32025402929695
-0.341830626652244 0.122167228548424 2.3311624739568
0.102721809463901 0.0695596512703912 2.40492165773168
0.138032808759077 0.0634968465416473 2.36902527626228
-0.308022494259516 0.121292133564128 2.36826779888307
-0.264178292037157 0.147087321819841 2.36621326114012
-0.228835464928755 0.129319636773596 2.39328514502513
-0.183891304090068 0.132637518187131 2.39247198118433
-0.139776967913574 0.132659629686191 2.39443306781905
-0.0931112260792974 0.128512771071684 2.40064022962521
-0.0498184320156408 0.127959620458302 2.40313484794486
-0.00723700566380281 0.125733686751059 2.40669753540996
0.0702560895950742 0.10665582240917 2.39960309389909
-0.311194431138077 -0.197750419645671 1.92700135212124
-0.273148483382105 -0.237025290072344 1.93317149809342
-0.226153155374443 -0.235568025467304 1.91489722855061
-0.18683697890145 -0.261116415072157 1.93740529030953
-0.132887520270597 -0.252858511576336 1.93164835993896
-0.0871598476759874 -0.265084163251479 1.94581780997057
-0.0416567751834905 -0.276633889869265 1.95930766518836
0.00189859536378373 -0.265663209982755 1.95039599882806
0.0392985317707717 -0.281936373365858 1.97321891221045
0.0861855206462792 -0.256527863274624 1.96956891548008
0.122795005907281 -0.254073227195432 2.00233018065166
-0.37263605318379 -0.144265521455226 1.97431641369734
-0.348679188360342 -0.185988249355661 1.96014699047769
0.158783051799453 -0.215743108967369 2.01216789636649
0.178854682776374 -0.205928051056014 2.05822588647812
-0.391763980425421 -0.125540660507184 2.01786130327023
0.196319409219355 -0.15783002404825 2.07484306055292
-0.394797029978062 -0.0792979951153568 2.03771014587807
0.195463350719819 -0.144719775715401 2.12623554541692
-0.399139879073602 -0.0618094252614804 2.08377204231318
0.196331521208472 -0.0977388874209665 2.14964315552706
-0.397930394399146 -0.0153807305818361 2.10408843003755
0.193967504699489 -0.0587567660847563 2.19374227656223
-0.402511778603382 0.00341037878294195 2.15289737230855
0.192333428184911 -0.026293398051044 2.22779455033142
-0.401070118410607 0.0506322336410169 2.1718627361767
0.188791766477488 -0.00537145752982778 2.26939795849923
-0.402492276492051 0.0645840603710289 2.22315491119675
0.185637244616269 0.0381893165922822 2.28314628984196
-0.386922444478579 0.109778178734471 2.24021889248552
0.167419861165056 0.0484158666882651 2.32764477192086
-0.368408949518476 0.118682113798609 2.28748398089902
-0.334216262289279 0.156293627538733 2.29859906651375
0.110072646017573 0.104912113440817 2.37046775057372
0.146085817221894 0.0957519543252283 2.33524949034148
-0.301132343782482 0.155182752724708 2.33521514700283
-0.252222783453531 0.179656603419187 2.33630041821924
-0.212288654523267 0.161861641820754 2.36223870051185
-0.161236567128938 0.16774348555888 2.35870626849948
-0.108666094689941 0.161001515760796 2.36775020037574
-0.0602738057551377 0.161980770481087 2.368955955261
-0.0142299049294054 0.159518454334322 2.37346570125645
0.0332997791136784 0.138828875330007 2.38743138940237
0.0747710505281794 0.142654131707671 2.36592524212048
-0.305101480854244 -0.165176415860216 1.89550324995264
-0.267659185148263 -0.203506265998412 1.90096827901471
-0.21964057716145 -0.203926088576672 1.88381823222144
-0.17516804193764 -0.22991216923959 1.90701070465426
-0.127724131827393 -0.216199797466995 1.89555809168512
-0.0859024289278944 -0.230359740672312 1.91146904423386
-0.0414857063796385 -0.243652056003831 1.9266359854284
0.00507378103924921 -0.230434735301889 1.91563318902238
0.0479487424613136 -0.247074881389611 1.93950882970982
0.0937409352934285 -0.222564710112304 1.93669911983449
0.129443990902523 -0.222126050586809 1.97116338965114
-0.365582414316864 -0.110191403565924 1.94060159207834
-0.342778806901817 -0.154289224531448 1.92978237367066
0.165676053094441 -0.183076910022843 1.98066283487371
0.1859972437398 -0.172316770670618 2.02665550238577
-0.384832771964511 -0.0944746263809398 1.98517455113823
0.202984088443107 -0.125231998777936 2.04418325546025
-0.387936288914528 -0.0486091898071148 2.00261882356311
0.201967841545198 -0.110860640681845 2.09604695348417
-0.392243845104239 -0.0259838752836748 2.05171666377414
0.20381621071307 -0.0646877686317547 2.11107799709615
-0.391872930345617 0.0200057971351464 2.07845214660224
0.199775744855426 -0.047319906388914 2.15463826525151
-0.395810807974576 0.037625055933443 2.12136111035316
0.199677922979799 -0.00330487869065237 2.18385834245199
-0.394145118835499 0.0829368666819786 2.13730100293062
0.195872216659276 0.0225031906001821 2.23099062935685
-0.395964628790667 0.0968102812048436 2.18982390172724
0.193334698612257 0.0686299051198613 2.24791510367013
-0.380202610714038 0.14253346987056 2.20836408596018
0.173563380180198 0.0846749155671864 2.29468487309658
-0.361125468598785 0.152307690962378 2.25554290668264
-0.325334739035294 0.189906621155006 2.26837974615671
0.116087970207955 0.139025399317826 2.33784935610743
0.152091220442779 0.130409914017975 2.30270294299632
-0.290763748831936 0.188517578505076 2.30532107182155
-0.242106815018409 0.212296192601187 2.30547255295663
-0.201041517422626 0.193608499627501 2.33128813992828
-0.155963028895741 0.206641808953191 2.32040221993259
-0.119059563021826 0.190858706246844 2.33769937693754
-0.0713325603716577 0.19352093165509 2.33720752237921
-0.0209580697552945 0.193591050223417 2.33940310146645
0.0288353229975066 0.173487117312467 2.35636953744096
0.0766581612379256 0.17605856305346 2.33589699489169
-0.298296975001648 -0.132584771322333 1.86334691494042
-0.26148834233452 -0.170354800845967 1.86872802718235
-0.215137076772227 -0.171275034646847 1.85221159292657
-0.171262274165443 -0.197408386280927 1.8749812864815
-0.121303310359957 -0.181563173771036 1.86152716350753
-0.0794844069406376 -0.194944284838217 1.87666588962347
-0.0377708884510672 -0.209688334283863 1.89315106254233
0.00873683723206037 -0.195515659735481 1.8811990318392
0.0519276950167795 -0.214016603804381 1.90616725541196
0.0975252054459229 -0.190690290288922 1.90348042987935
0.136231225254806 -0.189708492591249 1.93959058576153
-0.359991806061273 -0.0753068901472512 1.90957229340958
-0.336032229332484 -0.12223814691758 1.89799974805712
0.172211031894235 -0.150582411543725 1.94860136719556
0.192762001006003 -0.139313752862606 1.99450588172404
-0.378289658768747 -0.0595039729345762 1.95286843798234
0.209459157800096 -0.0931841386054542 2.01118599288913
-0.380410263202988 -0.0107598000800843 1.96682856482864
0.209010868770243 -0.0775933607966035 2.06115566519405
-0.385164582529886 -0.00190035086944911 2.01061045179599
0.210282008152787 -0.028278486407289 2.08284039110046
-0.386247709182283 0.0299752796731084 2.03986821444404
0.205734612420241 -0.0113516605528543 2.13018059827729
-0.388289698511662 0.0710091989059613 2.08272511774993
0.206835228170411 0.0336397815546904 2.15043441922678
-0.387649672934202 0.114766929414328 2.10586889309055
0.20241077373002 0.0503863772404647 2.19666977142445
-0.389436717167573 0.128912453055134 2.15832373599219
0.200461600913472 0.0991086578527562 2.2145471867373
-0.372624134306697 0.176033038053767 2.17924225391131
0.181094669122837 0.116508810004993 2.26116887374127
-0.353227212677866 0.185692984563467 2.22537634099185
-0.317687491034728 0.222825755830489 2.23732390779683
0.121407321555445 0.172419084114213 2.3064383327882
0.158983575839451 0.162978865966621 2.27035046389421
-0.282171299666907 0.221331306060697 2.27455522156105
-0.235340491701686 0.245585263807163 2.27279280306442
-0.193652777306871 0.228768962552183 2.29678284590803
-0.142893958744683 0.2409053178851 2.28703984901775
-0.103704820189686 0.223726695975483 2.30582315963126
-0.0553995785176356 0.22616664120139 2.30557724237005
-0.00731954630852673 0.226760989853907 2.30715001776734
0.0326500805372251 0.204759123441504 2.32620471278411
0.0843156837085399 0.207022716271277 2.30475038244161
-0.29897672496633 -0.0975196291839875 1.83656036432629
-0.254499962150441 -0.136411038249906 1.83535958945708
-0.206595509778106 -0.139584950290076 1.82069023888291
-0.16564059154504 -0.166443950959123 1.84455346191717
-0.115542133385897 -0.148448406059945 1.82902727501059
-0.0721079312481925 -0.159292525687863 1.84167318755799
-0.0324822281018938 -0.173587885713982 1.85761854023157
0.0112388682905965 -0.160153814712149 1.84628521139331
0.0552688927181577 -0.181266293776172 1.87302447429787
0.102182393541058 -0.158378576775918 1.87044512611353
0.139105979276907 -0.160032663209058 1.90649005451517
-0.354024936394531 -0.0398243000417562 1.87838379792189
-0.332720614668147 -0.0878302650378821 1.8694321470926
0.173263867321839 -0.123788932427515 1.91304865027531
0.199243112802051 -0.106379599589097 1.96117513747726
-0.371562766513037 -0.0233111064071824 1.91964625198999
0.216966328933629 -0.056649748412418 1.98921586699521
-0.373572227609211 0.0257142903140066 1.93926825319865
0.215394443804774 -0.041098803313975 2.0336366415572
-0.37878476410503 0.0421058533645923 1.98796948627379
0.216994845645408 0.00679646526993945 2.05058771521709
-0.382150365036388 0.0712429687393736 2.03373306195366
0.212518702139511 0.0227020369102997 2.09787428518266
-0.380810690812283 0.114850337556641 2.05117484499921
0.213781245148622 0.0680037195354398 2.11660148391822
-0.381722250496522 0.15157216685759 2.08227149192029
0.209269764137781 0.0850913602712898 2.16418395068037
-0.382457777186671 0.16260040675698 2.13136540549631
0.206964673765685 0.132094966182764 2.18284798150694
-0.365735190377305 0.209023900849127 2.14771123241572
0.188035404437499 0.148354677369184 2.22889722203092
-0.345763963659451 0.219091404181344 2.19413229179657
-0.311025425088246 0.255616775938219 2.20512608477074
0.128722056574332 0.205054617898374 2.27377055967422
0.165856215035101 0.195606519817056 2.23791695172389
-0.275796419526322 0.253993351363056 2.24229329071586
-0.229232968595487 0.278435825937215 2.24029379075256
-0.185881307458374 0.262137302982609 2.26406972177851
-0.137073814600802 0.273029587675091 2.25544373081307
-0.089706932826781 0.258364939294028 2.27213171163358
-0.0396991190193133 0.258686966078254 2.27406096691681
0.0068038755562847 0.258559945562215 2.27627758377374
0.0455407956099267 0.235493311234673 2.29454660439766
0.0919122773860199 0.239694388283994 2.2721434018026
-0.261586017383935 -0.0998579567440166 1.81125847181387
-0.220059265218296 -0.104751671267913 1.79802532926449
-0.17359623642499 -0.102945294062665 1.79185725924668
-0.159200885937738 -0.135639856496688 1.81524520968268
-0.121555577185458 -0.109202464216462 1.79925830090184
-0.0749922868389011 -0.12109284753974 1.81002640721296
-0.0283015116380294 -0.132248335871104 1.82082700910501
0.0197467265590344 -0.122223660893399 1.81785460237819
0.0587889037923155 -0.149162869822952 1.842056768627
0.103529568954845 -0.123583511580782 1.84079319839423
0.143740302918712 -0.126264005274809 1.87392138997849
-0.341150681717595 -0.0043402168895701 1.85134441415742
-0.325004511419453 -0.0520143013280993 1.83939053429976
0.192755148524004 -0.0865382711962396 1.91406640315831
0.210630376449575 -0.0622876046440494 1.94632373608252
-0.361308545618573 0.0142245403804355 1.88980509599557
0.216595708597902 -0.0184798172164962 1.9548724034677
-0.357938992935357 0.0595587845646749 1.90871409951133
0.219416961804694 -0.00452247575947934 1.99959625722378
-0.367625669991207 0.0754733389557271 1.95282946080589
0.216372948276683 0.0399883985715167 2.0162396891695
-0.37451779173926 0.0951573266409139 1.9976991053846
0.21659757566004 0.0576099871445526 2.06303827457228
-0.368007346604324 0.141350670192265 2.01031137459723
0.213921798696643 0.101180960821571 2.08296719013431
-0.370843936286534 0.170390387865163 2.04475997056939
0.213782469789044 0.119008658343499 2.12945190148678
-0.374719361390293 0.194604333816458 2.09820091058482
0.208267741958942 0.161761513879024 2.1495249339562
-0.356498142568084 0.23619823293939 2.11114637582886
0.19283510821598 0.181023442399507 2.19669421718615
-0.339099356209353 0.250345213012108 2.1599964780505
-0.303191819641417 0.283148871551117 2.17035645763921
0.13430732951698 0.237648132287196 2.23970324438608
0.166248134397541 0.227445011749018 2.20331981506907
-0.267908031877102 0.285886076658157 2.20938296820837
-0.219010904765859 0.307590068203899 2.20301998555482
-0.182016047357426 0.294514664525322 2.2290117558095
-0.140063810418795 0.302037500808877 2.21810576447007
-0.0961174763800343 0.292474548010934 2.2329082118467
-0.0515423128534637 0.287994155038564 2.23975573149929
-0.00148876398952373 0.286887048650524 2.24168142580804
0.0501540028378418 0.269427512874728 2.25974799919393
0.0956125363703918 0.268666000139035 2.23733130103333
-0.286465585810978 -0.059029484480417 1.80742313069416
-0.241010910009137 -0.0618247111807478 1.78538937721357
-0.193326305472943 -0.0643615675717631 1.77608088674099
-0.141530673934694 -0.068795695784456 1.7795150175695
-0.0911302165641937 -0.0756178898530156 1.78672557614254
-0.0451524523718789 -0.0856968601354234 1.79475242801126
-0.0010547794942302 -0.0855700551742985 1.7989103861974
0.0460908348055384 -0.0757941625220343 1.80061577739852
0.0660594206560092 -0.110177935129454 1.81796816865776
0.0985032903168108 -0.0750649167438435 1.8153404772214
0.134695553683967 -0.0913471530193184 1.84302284041951
-0.305955120161275 -0.0165150246822051 1.8135524212628
-0.280225251072986 0.0241639797066612 1.79763723528744
-0.263346425145804 -0.0198829959298515 1.78649704791934
0.14540374366301 -0.0506573616190044 1.83832497205485
0.171016873125868 -0.0827045526084802 1.87523836307766
0.174923760356638 -0.0357678787095689 1.86573114621502
-0.337494529400675 0.0503434433090512 1.86033452686624
-0.317844447226837 0.0260338083480867 1.82759807947765
0.198876443678753 -0.0400605014479825 1.90384511660248
0.204611134954929 0.00286170507776849 1.91865405636627
-0.333909583772138 0.089350748407304 1.88472167556821
0.210598505012385 0.0309583361458922 1.96057017235305
-0.343698007580515 0.11144527610241 1.92297986317921
0.205920389224278 0.0696904932001161 1.98612683701415
-0.356202718978124 0.124358959080116 1.96200305733107
0.20860634981477 0.0927555937209381 2.02721201865754
-0.344770563323452 0.16424409832779 1.97371690291145
0.204066277295174 0.131340049378289 2.05245792078329
-0.348425843927467 0.194507122141404 2.00869477505031
0.206548668299461 0.154213048782142 2.09333692632615
-0.361930984269642 0.212622293257611 2.0604240647107
0.199321848755865 0.191324366192926 2.11795749643166
-0.327694080553609 0.273428221634155 2.12123365847851
-0.339627882187334 0.255499375709869 2.07350160036878
-0.308373730800614 0.288433514847615 2.07814208206269
0.189874379545076 0.209016249141311 2.16134973684688
0.177003189719408 0.232799322555564 2.11652078646385
0.163738200347156 0.247947409179116 2.16102598378506
-0.259711679795047 0.308957574745917 2.17137241056272
-0.293437350301474 0.300806965413588 2.13032064931666
-0.251340586642738 0.322044231650584 2.1282971008889
0.131091326900749 0.266621273954616 2.19919216413521
0.0992448335728816 0.297240076361273 2.16160908513814
0.0866989604362431 0.292302079432807 2.20071074099277
-0.212275360302567 0.325367479803683 2.16209323118076
-0.168443069526668 0.320251046407936 2.18228573294859
-0.115571336251803 0.317439331134795 2.18502466718187
-0.0711978038934497 0.312475236035145 2.19424882355977
-0.0274452062200065 0.308974179982614 2.19963635670053
0.0152830342179953 0.307628735384632 2.1992828006144
0.0482135068215524 0.293977032056729 2.22336444132581
-0.214463345451143 -0.0216159876815376 1.77076102106521
-0.163218564058218 -0.0262719099160779 1.76832036436316
-0.112525414160414 -0.0306181199837347 1.77449902550344
-0.0647376217991296 -0.0357144331910132 1.78060568063765
-0.0199755646589442 -0.0395228674460319 1.78621985716711
0.0241321455637581 -0.0356283889882762 1.79101805645979
0.0727074637780625 -0.0343971163981464 1.79893819719009
-0.235960551491704 0.0203473508710956 1.77722130975588
-0.208309953087137 0.0576783158963459 1.77964373914658
-0.184551730074895 0.0173890914899111 1.76824707090412
-0.133811755426882 0.0136277160126486 1.77183038044113
-0.0861812669696458 0.0122873148312545 1.77806431218587
-0.0389793231610931 0.0086040794584925 1.78397629450004
0.00578600294102723 0.00987418139119176 1.79021866248434
0.0526846135434267 0.00888807637392675 1.79659079348263
0.100789778857195 0.010263789905924 1.81137905113568
0.147673221966 0.00216003676651822 1.83942793217074
0.116204056639349 -0.030151891693697 1.81631621614129
-0.297881099882656 0.0655274085321838 1.82370215233327
-0.265468119713824 0.103716712856211 1.82437327290495
-0.255201608497809 0.0642851440975845 1.79626507305713
0.124135722049001 0.0446765170409972 1.83427197942395
0.181468140616531 0.00662687246647809 1.87697086875319
0.16009720915615 0.0465325477204163 1.86626031059579
-0.305470217752884 0.0979407092180235 1.85319998599273
-0.271759661214068 0.13627435202877 1.8589196710104
0.190225445464125 0.0441229059387288 1.90990414834472
0.162828107364098 0.0829484396078853 1.89873728856509
-0.3098528056608 0.132397607849285 1.89122082775017
-0.278567890364226 0.168350806129077 1.89536633825433
0.189408568357793 0.0760078570122882 1.94158952119766
0.161117938879299 0.116754453750559 1.93259069444306
-0.32083245143957 0.158720204971575 1.9301987966725
-0.283226644665201 0.197994358129522 1.92795239074861
0.188222828796163 0.110242931359898 1.97704210018856
0.160295748387401 0.149590788119876 1.96673678824574
-0.317399538812424 0.198388451015741 1.96340295082035
-0.281040664529632 0.233248802193257 1.96049473114699
0.187717507596885 0.140073466333807 2.00925660478906
0.159829439241218 0.181758834196619 2.00071782076956
-0.314352968752006 0.234508282588829 1.99411830040323
-0.280190876266574 0.270469514401533 1.99765242568819
0.186869651114146 0.173765856605256 2.04498577014708
0.158820278012639 0.214102761623666 2.03406833971917
-0.338057569546951 0.235617995772203 2.03041224821555
-0.308418981216167 0.272273705841536 2.03368980554858
0.18535251025591 0.20401915822236 2.07664917190496
0.155761307577921 0.243926942189745 2.06932976394511
-0.274961548123748 0.311714684336067 2.08834503541051
-0.269790214138598 0.302073025058523 2.04056664219569
-0.237186326833578 0.324338810506381 2.07387298507496
0.133593723913993 0.27764356369515 2.15198973829645
0.147342307047194 0.265646030920993 2.11055818580125
0.107712016693136 0.2935815890939 2.10973890500617
-0.212751832288062 0.332557803414293 2.11361929086412
-0.187020299900089 0.332253618452616 2.07791555454037
-0.172301767274128 0.332910070909373 2.13236130807093
-0.143168263075208 0.330983988760869 2.0915843662208
-0.12992315306432 0.328940008501954 2.14189723613994
-0.0991139330393367 0.327427642892261 2.09708064961537
-0.083177545270907 0.325533817200465 2.14500593359098
-0.0543141707604595 0.323618161939884 2.10083840075529
-0.0389490580412039 0.321855003184807 2.15137596112704
-0.0107972795963955 0.319945320695805 2.10485913534125
0.0055278683717668 0.31866717334263 2.15368041914413
0.0333458612685659 0.316675862724737 2.11306500209325
0.0510922761905454 0.311908658126374 2.16905291221441
0.0709664499484575 0.310156187115131 2.12600512119332
-0.177237632994079 0.0909405943799599 1.79183948734474
-0.15503304642961 0.0558472229153293 1.77794028838414
-0.109321679268331 0.0580759406575857 1.78559900697618
-0.0606540480703198 0.0536747045466839 1.79150761047197
-0.0157702053244702 0.055313821239691 1.79908757028931
0.0295840992582027 0.0543383711897612 1.80582665413077
0.0755399292496863 0.0501583319539587 1.81339964104355
-0.222241901722101 0.100047349419043 1.80312923693958
-0.179443557687845 0.127059202425121 1.81747826028975
-0.133629297494119 0.100943215191138 1.80296831629619
-0.0827721793223636 0.0936944815048215 1.8073109308553
-0.0384758968993248 0.0968996749482383 1.8172881729837
0.00601564612546791 0.0967335529621957 1.8252451729057
0.0511513419979268 0.0936716381892075 1.83131277391696
0.0944557855219274 0.0837593061192429 1.83891736246674
0.129024500192265 0.086967895118493 1.86402906801763
-0.226953717550044 0.135471202864923 1.834051892706
-0.186908669166878 0.160502598838375 1.85090323937652
-0.141137687853488 0.143444359729879 1.8381361682509
-0.102068760844597 0.12693469821503 1.82955411202649
-0.0592945326722573 0.132251731011904 1.8436872638511
-0.0156235688736419 0.132844823240358 1.85333805405235
0.0324333964189111 0.128948514805515 1.85932367828471
0.0821780490997298 0.120951798998121 1.86582002617875
0.126824722067526 0.119479046790314 1.89486885670325
-0.233625807712779 0.167760067114221 1.86859569156123
-0.188411128033353 0.192620790759947 1.88332033509844
-0.142482192532834 0.17723998796321 1.87228373584336
-0.09602013545795 0.160311773552772 1.86466378943644
-0.049093019170562 0.167116832930231 1.88131603399443
0.00104172290257289 0.162973537366252 1.88748046820446
0.0487858390135531 0.158641411933729 1.89296941755913
0.0907828271423557 0.150699857415308 1.90097751352135
0.125870213389152 0.154076564427584 1.93035980417612
-0.236931652336845 0.199039055503366 1.90092310874345
-0.19075993247215 0.223182742606011 1.91422314121806
-0.141903848817859 0.211307656878784 1.9071064603951
-0.0994861636891147 0.193078242492072 1.89732291255006
-0.0616147122538353 0.201856159445608 1.91410923570738
-0.0169687598032941 0.1957689481377 1.91715636883163
0.0309848878881536 0.191985062046108 1.92323473836057
0.0799494693477512 0.185482410656963 1.93128076796515
0.125014391415745 0.185140773851236 1.96223107334811
-0.239978713931154 0.229454910620619 1.93231450333061
-0.19692612148152 0.253434980246656 1.94514210751441
-0.147002181794241 0.243476316639183 1.93881819636275
-0.0978834252625296 0.231052948184112 1.93633855888764
-0.0463770918225951 0.231163371832969 1.94711958783631
0.00173035584885653 0.226326269650716 1.95215754089454
0.0480849046256736 0.222720293526441 1.95814635203607
0.0894818471727527 0.215488913773192 1.96729530605377
0.124416043112294 0.219180208100736 1.9974829000991
-0.244432087815496 0.262203418538345 1.96665585768959
-0.206430613669312 0.284224514211098 1.97784275350963
-0.159495608719605 0.277205491951729 1.97065445420496
-0.112982551290351 0.266886449382269 1.96971267555127
-0.0683853430416259 0.262295978496834 1.97427380243723
-0.0194560759901966 0.259973724298114 1.98204395122901
0.0292979279356935 0.256203556631117 1.98830173286127
0.0783047532227786 0.250393104537552 1.99742051620937
0.123019324437875 0.249669489924695 2.02916859175643
-0.240020011074557 0.296831323910951 2.00586235176057
-0.18339910276483 0.306509984498545 2.00643706248054
-0.134718451253963 0.299937423501822 2.00501309639182
-0.0901345402219968 0.294994530907666 2.00850328204539
-0.0453159177755293 0.29074473941217 2.01314252619135
0.00100925917716067 0.287623938115337 2.01986715774763
0.0460345328667839 0.284579619988784 2.02654242503208
0.0866292602579352 0.277754415474893 2.03666249980362
0.118370585833579 0.276832265387811 2.07005436981591
-0.215002771081304 0.318850317745501 2.03714883685612
-0.160835388698836 0.322079361647214 2.04295245540942
-0.11511559718082 0.318495292218148 2.0489659103961
-0.0700972669230613 0.314345649101224 2.05313120508022
-0.0243874076753939 0.310151461807395 2.05744805329422
0.0227040162719284 0.306885188641272 2.06480706839258
0.0695545192704245 0.301616482678801 2.07504917107068
3 0 1 2
3 0 2 4
3 3 0 4
3 3 4 6
3 5 3 6
3 5 6 8
3 7 5 8
3 7 8 10
3 9 7 10
3 9 10 12
3 11 9 12
3 13 11 14
3 14 11 12
3 13 14 15
3 16 17 18
3 16 18 1
3 0 19 1
3 19 16 1
3 0 3 20
3 19 0 20
3 3 5 21
3 20 3 21
3 5 7 22
3 21 5 22
3 7 9 23
3 22 7 23
3 9 11 24
3 23 9 24
3 24 11 25
3 25 11 13
3 13 15 26
3 27 13 26
3 25 13 27
3 27 26 28
3 17 16 30
3 30 16 29
3 29 19 31
3 29 16 19
3 31 20 32
3 31 19 20
3 32 21 33
3 32 20 21
3 21 22 33
3 33 22 34
3 22 23 34
3 34 23 35
3 23 24 35
3 35 24 36
3 24 25 36
3 36 25 37
3 37 27 38
3 37 25 27
3 38 28 39
3 38 27 28
3 30 40 41
3 30 29 40
3 29 31 42
3 40 29 42
3 31 32 43
3 42 31 43
3 32 33 44
3 43 32 44
3 33 34 45
3 44 33 45
3 34 35 46
3 45 34 46
3 35 36 47
3 46 35 47
3 36 37 47
3 47 37 48
3 37 38 48
3 48 38 49
3 49 39 50
3 49 38 39
3 40 51 52
3 41 40 52
3 51 42 53
3 51 40 42
3 42 43 53
3 53 43 54
3 43 44 54
3 54 44 55
3 44 45 55
3 55 45 56
3 45 46 56
3 56 46 57
3 46 47 58
3 57 46 58
3 47 48 59
3 58 47 59
3 48 49 60
3 59 48 60
3 49 50 61
3 60 49 61
3 51 62 63
3 52 51 63
3 51 53 64
3 62 51 64
3 53 54 65
3 64 53 65
3 54 55 66
3 65 54 66
3 55 56 67
3 66 55 67
3 56 57 67
3 67 57 68
3 57 58 69
3 68 57 69
3 58 59 69
3 69 59 70
3 59 60 70
3 70 60 71
3 71 61 72
3 71 60 61
3 62 73 74
3 63 62 74
3 62 64 75
3 73 62 75
3 64 65 75
3 75 65 76
3 65 66 76
3 76 66 77
3 66 67 77
3 77 67 78
3 67 68 78
3 78 68 79
3 79 69 80
3 79 68 69
3 80 70 81
3 80 69 70
3 81 71 82
3 81 70 71
3 82 72 83
3 82 71 72
3 74 73 85
3 85 73 84
3 84 73 86
3 86 73 75
3 75 76 86
3 86 76 87
3 76 77 88
3 87 76 88
3 77 78 89
3 88 77 89
3 78 79 90
3 89 78 90
3 79 80 91
3 90 79 91
3 80 81 92
3 91 80 92
3 81 82 93
3 92 81 93
3 93 83 94
3 93 82 83
3 84 95 85
3 84 86 96
3 97 84 96
3 95 84 97
3 96 87 98
3 96 86 87
3 87 88 98
3 98 88 99
3 88 89 99
3 99 89 100
3 89 90 100
3 100 90 101
3 101 91 102
3 101 90 91
3 102 92 103
3 102 91 92
3 92 93 103
3 105 103 104
3 103 93 104
3 93 94 104
3 96 106 97
3 96 98 107
3 106 96 107
3 98 99 108
3 107 98 108
3 99 100 109
3 108 99 109
3 100 101 110
3 109 100 110
3 101 102 111
3 110 101 111
3 111 102 112
3 112 102 103
3 103 105 112
3 117 114 115
3 116 113 117
3 117 113 114
3 116 117 119
3 118 116 119
3 118 119 121
3 120 118 121
3 120 121 123
3 122 120 123
3 122 123 125
3 124 122 125
3 124 125 127
3 126 124 127
3 126 127 128
3 129 130 131
3 114 129 131
3 114 113 129
3 113 2 129
3 129 2 1
3 4 113 116
3 4 2 113
3 6 116 118
3 6 4 116
3 8 118 120
3 8 6 118
3 10 120 122
3 10 8 120
3 12 122 124
3 12 10 122
3 14 124 126
3 14 12 124
3 133 126 128
3 15 14 126
3 15 126 133
3 132 15 133
3 132 133 134
3 135 136 137
3 137 17 135
3 137 18 17
3 18 137 130
3 129 18 130
3 18 129 1
3 15 132 26
3 139 132 134
3 139 138 132
3 138 28 26
3 132 138 26
3 138 139 140
3 136 135 142
3 142 135 141
3 17 30 135
3 135 30 141
3 143 39 28
3 138 143 28
3 143 140 144
3 143 138 140
3 141 145 146
3 142 141 146
3 41 145 141
3 30 41 141
3 147 39 143
3 147 50 39
3 147 144 148
3 147 143 144
3 145 149 150
3 146 145 150
3 52 149 145
3 41 52 145
3 151 50 147
3 151 155 50
3 151 148 152
3 151 147 148
3 149 153 154
3 150 149 154
3 63 153 149
3 52 63 149
3 155 61 50
3 155 72 61
3 155 151 156
3 156 151 152
3 154 157 158
3 154 153 157
3 74 157 153
3 63 74 153
3 159 72 155
3 159 83 72
3 159 156 160
3 159 155 156
3 158 157 162
3 162 157 161
3 74 85 161
3 157 74 161
3 163 83 159
3 163 94 83
3 163 160 164
3 163 159 160
3 161 165 162
3 165 95 166
3 165 161 95
3 161 85 95
3 165 166 167
3 95 97 166
3 105 104 168
3 170 94 163
3 170 168 94
3 169 168 170
3 94 168 104
3 163 164 170
3 166 171 167
3 173 171 172
3 172 171 106
3 171 97 106
3 171 166 97
3 172 107 174
3 172 106 107
3 174 108 175
3 174 107 108
3 175 109 176
3 175 108 109
3 176 110 177
3 176 109 110
3 177 111 178
3 177 110 111
3 178 112 180
3 178 111 112
3 181 105 168
3 181 180 105
3 179 178 180
3 180 112 105
3 168 169 181
3 172 182 173
3 182 172 183
3 183 172 174
3 174 175 184
3 183 174 184
3 175 176 185
3 184 175 185
3 176 177 186
3 185 176 186
3 177 178 187
3 186 177 187
3 187 179 188
3 187 178 179
3 179 180 229
3 189 190 191
3 114 131 191
3 115 114 191
3 115 191 192
3 115 192 193
3 117 115 193
3 119 193 194
3 119 117 193
3 119 194 121
3 121 194 195
3 121 195 123
3 123 195 196
3 123 196 125
3 125 196 197
3 127 197 198
3 127 125 197
3 128 198 199
3 200 128 199
3 128 127 198
3 200 199 201
3 202 203 204
3 131 130 189
3 190 189 204
3 189 130 202
3 189 202 204
3 131 189 191
3 128 200 133
3 134 200 205
3 206 205 201
3 134 133 200
3 205 200 201
3 205 206 207
3 136 208 203
3 202 137 136
3 202 136 203
3 137 202 130
3 134 205 139
3 139 205 207
3 140 139 207
3 211 207 209
3 136 142 208
3 208 142 210
3 211 140 207
3 211 144 140
3 146 212 210
3 142 146 210
3 148 144 213
3 213 144 211
3 150 214 212
3 146 150 212
3 215 148 213
3 215 152 148
3 154 216 150
3 150 216 214
3 219 152 217
3 217 152 215
3 158 218 216
3 154 158 216
3 219 156 152
3 219 160 156
3 158 220 218
3 158 162 220
3 221 160 219
3 221 164 160
3 162 165 222
3 223 220 222
3 220 162 222
3 165 167 222
3 169 170 224
3 225 164 221
3 224 170 164
3 224 164 225
3 222 226 223
3 167 171 227
3 226 167 227
3 226 227 228
3 226 222 167
3 171 173 227
3 180 181 229
3 181 169 230
3 231 169 224
3 230 169 231
3 230 229 181
3 224 225 271
3 227 232 228
3 232 182 233
3 232 173 182
3 227 173 232
3 182 183 234
3 233 182 234
3 183 184 234
3 234 184 235
3 184 185 235
3 235 185 236
3 185 186 236
3 236 186 237
3 186 187 237
3 237 187 238
3 238 188 239
3 238 187 188
3 188 179 229
3 240 239 188
3 240 188 229
3 229 230 240
3 191 190 242
3 242 190 241
3 192 242 243
3 192 191 242
3 192 243 244
3 193 192 244
3 194 244 245
3 194 193 244
3 194 245 246
3 195 194 246
3 195 246 247
3 196 195 247
3 196 247 248
3 197 196 248
3 197 248 249
3 198 197 249
3 199 198 249
3 250 199 249
3 201 199 251
3 251 199 250
3 204 252 253
3 204 203 252
3 190 253 241
3 190 204 253
3 206 251 254
3 206 201 251
3 207 206 255
3 255 206 254
3 203 256 252
3 203 208 256
3 257 209 255
3 255 209 207
3 210 258 208
3 208 258 256
3 211 209 259
3 259 209 257
3 212 260 210
3 210 260 258
3 213 211 259
3 261 213 259
3 214 262 260
3 212 214 260
3 215 213 261
3 263 215 261
3 216 264 214
3 214 264 262
3 217 215 263
3 265 217 263
3 218 266 264
3 216 218 264
3 219 217 265
3 267 219 265
3 218 268 266
3 218 220 268
3 221 219 267
3 269 221 267
3 223 270 268
3 220 223 268
3 225 221 269
3 271 225 269
3 223 226 272
3 270 223 272
3 272 228 273
3 272 226 228
3 274 231 275
3 274 230 231
3 275 231 271
3 271 231 224
3 273 228 276
3 276 228 232
3 276 233 277
3 276 232 233
3 233 234 278
3 277 233 278
3 234 235 279
3 278 234 279
3 235 236 280
3 279 235 280
3 236 237 281
3 280 236 281
3 237 238 282
3 281 237 282
3 238 239 283
3 282 238 283
3 327 239 284
3 284 239 240
3 240 230 274
3 284 240 274
3 241 285 286
3 242 241 286
3 242 286 243
3 243 286 287
3 243 287 288
3 244 243 288
3 245 288 289
3 245 244 288
3 245 289 246
3 246 289 290
3 246 290 247
3 247 290 291
3 247 291 248
3 248 291 292
3 248 292 293
3 249 248 293
3 249 293 250
3 250 293 294
3 250 294 295
3 251 250 295
3 252 296 297
3 253 252 297
3 241 297 285
3 241 253 297
3 254 295 298
3 254 251 295
3 254 298 299
3 255 254 299
3 256 300 252
3 252 300 296
3 257 255 299
3 301 257 299
3 258 302 300
3 256 258 300
3 259 257 303
3 303 257 301
3 260 304 258
3 258 304 302
3 261 259 303
3 305 261 303
3 262 306 304
3 260 262 304
3 263 261 305
3 307 263 305
3 264 308 262
3 262 308 306
3 265 263 307
3 309 265 307
3 266 310 308
3 264 266 308
3 267 265 309
3 311 267 309
3 266 312 310
3 266 268 312
3 269 267 311
3 313 269 311
3 270 314 312
3 268 270 312
3 271 269 315
3 315 269 313
3 270 272 316
3 314 270 316
3 316 273 317
3 316 272 273
3 318 275 319
3 318 274 275
3 275 271 315
3 319 275 315
3 273 276 320
3 317 273 320
3 276 277 320
3 320 277 321
3 277 278 322
3 321 277 322
3 322 279 323
3 322 278 279
3 279 280 323
3 323 280 324
3 280 281 324
3 324 281 325
3 281 282 325
3 325 282 326
3 282 283 326
3 326 283 327
3 283 239 327
3 327 284 328
3 284 274 318
3 328 284 318
3 285 329 330
3 286 285 330
3 286 330 287
3 287 330 331
3 287 331 332
3 288 287 332
3 288 332 289
3 289 332 333
3 289 333 334
3 290 289 334
3 290 334 335
3 291 290 335
3 291 335 292
3 292 335 336
3 292 336 337
3 293 292 337
3 293 337 294
3 294 337 338
3 294 338 339
3 295 294 339
3 296 340 341
3 297 296 341
3 285 341 329
3 285 297 341
3 298 339 342
3 298 295 339
3 298 342 343
3 299 298 343
3 300 344 296
3 296 344 340
3 301 299 343
3 345 301 343
3 302 346 344
3 300 302 344
3 303 301 347
3 347 301 345
3 304 348 302
3 302 348 346
3 305 303 347
3 349 305 347
3 306 350 348
3 304 306 348
3 307 305 351
3 351 305 349
3 308 352 306
3 306 352 350
3 309 307 353
3 353 307 351
3 310 354 352
3 308 310 352
3 311 309 355
3 355 309 353
3 312 356 310
3 310 356 354
3 313 311 355
3 357 313 355
3 314 358 356
3 312 314 356
3 315 313 359
3 359 313 357
3 314 316 360
3 358 314 360
3 360 317 361
3 360 316 317
3 362 319 363
3 362 318 319
3 319 315 359
3 363 319 359
3 317 320 364
3 361 317 364
3 320 321 364
3 364 321 365
3 321 322 366
3 365 321 366
3 322 323 366
3 366 323 367
3 323 324 368
3 367 323 368
3 324 325 369
3 368 324 369
3 325 326 370
3 369 325 370
3 326 327 371
3 370 326 371
3 327 328 371
3 371 328 372
3 328 318 362
3 372 328 362
3 329 373 374
3 330 329 374
3 330 374 331
3 331 374 375
3 331 375 376
3 332 331 376
3 332 376 333
3 333 376 377
3 333 377 378
3 334 333 378
3 334 378 379
3 335 334 379
3 335 379 336
3 336 379 380
3 336 380 381
3 337 336 381
3 337 381 338
3 338 381 382
3 338 382 383
3 339 338 383
3 340 384 385
3 341 340 385
3 329 385 373
3 329 341 385
3 342 383 386
3 342 339 383
3 342 386 387
3 343 342 387
3 344 388 340
3 340 388 384
3 345 343 387
3 389 345 387
3 346 390 388
3 344 346 388
3 347 345 391
3 391 345 389
3 348 392 346
3 346 392 390
3 349 347 391
3 393 349 391
3 350 394 348
3 348 394 392
3 351 349 395
3 395 349 393
3 352 396 350
3 350 396 394
3 353 351 395
3 397 353 395
3 354 398 396
3 352 354 396
3 355 353 399
3 399 353 397
3 356 400 354
3 354 400 398
3 357 355 399
3 401 357 399
3 358 402 400
3 356 358 400
3 359 357 403
3 403 357 401
3 358 360 404
3 402 358 404
3 404 361 405
3 404 360 361
3 406 363 407
3 406 362 363
3 363 359 403
3 407 363 403
3 361 364 408
3 405 361 408
3 364 365 408
3 408 365 409
3 365 366 410
3 409 365 410
3 366 367 410
3 410 367 411
3 367 368 412
3 411 367 412
3 368 369 412
3 412 369 413
3 369 370 413
3 413 370 414
3 370 371 415
3 414 370 415
3 371 372 415
3 415 372 416
3 372 362 406
3 416 372 406
3 373 417 418
3 374 373 418
3 374 418 375
3 375 418 419
3 375 419 420
3 376 375 420
3 376 420 377
3 377 420 421
3 377 421 422
3 378 377 422
3 378 422 423
3 379 378 423
3 380 423 424
3 380 379 423
3 380 424 425
3 381 380 425
3 382 425 426
3 382 381 425
3 382 426 427
3 383 382 427
3 384 428 429
3 385 384 429
3 373 429 417
3 373 385 429
3 386 427 430
3 386 383 427
3 386 430 431
3 387 386 431
3 384 432 428
3 384 388 432
3 389 387 431
3 433 389 431
3 390 434 432
3 388 390 432
3 435 389 433
3 435 391 389
3 390 436 434
3 390 392 436
3 393 391 435
3 437 393 435
3 394 438 436
3 392 394 436
3 395 393 439
3 439 393 437
3 396 440 438
3 394 396 438
3 397 395 439
3 441 397 439
3 398 442 440
3 396 398 440
3 399 397 443
3 443 397 441
3 400 444 398
3 398 444 442
3 401 399 443
3 445 401 443
3 402 446 444
3 400 402 444
3 403 401 447
3 447 401 445
3 402 404 448
3 446 402 448
3 448 405 449
3 448 404 405
3 450 407 451
3 450 406 407
3 407 403 447
3 451 407 447
3 405 408 452
3 449 405 452
3 408 409 452
3 452 409 453
3 409 410 454
3 453 409 454
3 410 411 454
3 454 411 455
3 411 412 456
3 455 411 456
3 412 413 456
3 456 413 457
3 457 414 458
3 457 413 414
3 414 415 459
3 458 414 459
3 415 416 459
3 459 416 460
3 416 406 450
3 460 416 450
3 418 461 462
3 418 417 461
3 419 462 463
3 419 418 462
3 419 463 464
3 420 419 464
3 420 464 421
3 421 464 465
3 421 465 466
3 422 421 466
3 422 466 467
3 423 422 467
3 424 467 468
3 424 423 467
3 424 468 469
3 425 424 469
3 426 469 470
3 426 425 469
3 427 426 471
3 471 426 470
3 429 428 473
3 473 428 472
3 417 473 505
3 417 429 473
3 430 427 471
3 520 430 471
3 431 474 475
3 431 430 474
3 428 476 472
3 428 432 476
3 433 431 475
3 477 433 475
3 434 478 476
3 432 434 476
3 479 433 477
3 479 435 433
3 434 480 478
3 434 436 480
3 437 435 479
3 481 437 479
3 438 482 436
3 436 482 480
3 439 437 483
3 483 437 481
3 440 484 482
3 438 440 482
3 441 439 483
3 485 441 483
3 442 486 440
3 440 486 484
3 443 441 487
3 487 441 485
3 444 488 442
3 442 488 486
3 445 443 487
3 489 445 487
3 444 446 488
3 488 446 490
3 491 445 489
3 491 447 445
3 490 446 492
3 492 446 448
3 492 449 493
3 492 448 449
3 494 451 495
3 494 450 451
3 451 447 491
3 495 451 491
3 449 452 496
3 493 449 496
3 496 453 497
3 496 452 453
3 453 454 498
3 497 453 498
3 498 455 499
3 498 454 455
3 455 456 500
3 499 455 500
3 456 457 501
3 500 456 501
3 457 458 502
3 501 457 502
3 458 459 503
3 502 458 503
3 503 460 504
3 503 459 460
3 504 460 494
3 494 460 450
3 461 505 506
3 462 461 506
3 507 463 462
3 507 462 506
3 465 463 508
3 508 463 507
3 464 463 465
3 465 508 509
3 465 509 466
3 466 509 510
3 466 510 467
3 467 510 511
3 467 511 468
3 468 511 512
3 468 512 513
3 469 468 513
3 469 513 470
3 515 470 514
3 470 513 514
3 470 515 471
3 472 516 473
3 518 516 517
3 518 505 516
3 461 417 505
3 505 473 516
3 505 518 506
3 515 514 519
3 474 430 520
3 521 520 519
3 520 471 515
3 520 515 519
3 474 520 524
3 476 522 472
3 516 472 523
3 472 522 523
3 516 523 517
3 520 521 524
3 477 475 524
3 524 475 474
3 525 477 524
3 478 526 522
3 476 478 522
3 527 477 525
3 527 479 477
3 478 528 526
3 478 480 528
3 481 479 527
3 529 481 527
3 482 530 480
3 480 530 528
3 483 481 531
3 531 481 529
3 484 532 530
3 482 484 530
3 485 483 531
3 533 485 531
3 486 534 484
3 484 534 532
3 535 485 533
3 535 487 485
3 486 536 534
3 486 488 536
3 537 489 535
3 535 489 487
3 490 538 539
3 536 490 539
3 488 490 536
3 538 540 539
3 541 542 543
3 541 489 537
3 542 541 537
3 541 491 489
3 490 492 538
3 545 493 544
3 538 492 493
3 538 493 545
3 540 538 545
3 544 546 545
3 547 548 549
3 543 495 541
3 547 494 495
3 547 495 543
3 608 547 543
3 495 491 541
3 493 496 544
3 544 497 550
3 546 544 550
3 544 496 497
3 550 497 551
3 551 497 498
3 498 499 551
3 551 499 552
3 499 500 552
3 552 500 553
3 500 501 553
3 553 501 554
3 554 502 555
3 554 501 502
3 502 503 556
3 555 502 556
3 503 504 556
3 549 504 547
3 556 504 549
3 504 494 547
3 506 557 507
3 507 557 558
3 508 507 558
3 508 558 559
3 509 508 559
3 509 559 560
3 510 509 560
3 510 560 561
3 511 510 561
3 511 561 562
3 512 511 562
3 514 512 563
3 563 512 562
3 513 512 514
3 517 564 518
3 518 564 557
3 566 564 565
3 557 564 566
3 557 506 518
3 558 566 567
3 558 557 566
3 559 567 568
3 559 558 567
3 560 568 569
3 560 559 568
3 561 569 570
3 561 560 569
3 562 570 571
3 562 561 570
3 563 562 571
3 572 563 571
3 574 514 563
3 572 574 563
3 573 519 574
3 574 519 514
3 519 573 521
3 522 575 523
3 577 575 576
3 577 517 575
3 564 517 577
3 575 517 523
3 564 577 565
3 573 574 572
3 521 573 579
3 580 573 578
3 579 573 580
3 579 524 521
3 524 579 525
3 522 581 575
3 522 526 581
3 576 581 582
3 576 575 581
3 583 580 584
3 583 579 580
3 583 525 579
3 583 527 525
3 526 585 581
3 526 528 585
3 582 585 586
3 582 581 585
3 587 584 588
3 587 583 584
3 587 527 583
3 587 529 527
3 528 589 585
3 528 530 589
3 586 589 590
3 586 585 589
3 591 588 592
3 591 587 588
3 591 529 587
3 591 531 529
3 532 593 589
3 530 532 589
3 590 593 594
3 590 589 593
3 595 592 596
3 595 591 592
3 595 531 591
3 595 533 531
3 534 597 593
3 532 534 593
3 594 597 598
3 594 593 597
3 599 596 600
3 599 595 596
3 599 533 595
3 599 535 533
3 534 601 597
3 534 536 601
3 602 597 601
3 602 598 597
3 603 599 600
3 604 603 600
3 603 535 599
3 603 537 535
3 536 539 601
3 606 540 605
3 606 602 540
3 602 601 539
3 540 602 539
3 605 607 606
3 608 609 610
3 608 543 609
3 604 542 603
3 609 543 542
3 609 542 604
3 542 537 603
3 540 545 605
3 605 546 607
3 612 607 611
3 605 545 546
3 607 546 611
3 612 613 614
3 612 611 613
3 614 615 616
3 614 613 615
3 616 617 618
3 616 615 617
3 618 619 620
3 618 617 619
3 620 621 622
3 620 619 621
3 622 623 624
3 622 621 623
3 610 548 608
3 624 623 548
3 624 548 610
3 548 623 549
3 548 547 608
3 546 550 611
3 611 550 613
3 613 550 551
3 551 552 615
3 613 551 615
3 552 553 617
3 615 552 617
3 553 554 619
3 617 553 619
3 554 555 621
3 619 554 621
3 621 555 623
3 623 555 556
3 556 549 623
3 565 625 626
3 567 566 626
3 626 566 565
3 567 626 627
3 568 567 627
3 568 627 628
3 569 568 628
3 569 628 629
3 570 569 629
3 570 629 630
3 571 570 630
3 572 571 631
3 631 571 630
3 572 631 578
3 576 632 577
3 625 632 633
3 565 577 632
3 565 632 625
3 625 633 634
3 626 625 634
3 626 634 627
3 627 634 635
3 627 635 628
3 628 635 636
3 628 636 629
3 629 636 637
3 629 637 630
3 630 637 638
3 631 638 639
3 631 630 638
3 640 578 639
3 578 573 572
3 578 631 639
3 578 640 580
3 576 641 632
3 576 582 641
3 633 641 642
3 633 632 641
3 633 642 643
3 634 633 643
3 634 643 644
3 635 634 644
3 635 644 645
3 636 635 645
3 636 645 646
3 637 636 646
3 637 646 647
3 638 637 647
3 638 647 648
3 639 638 648
3 640 648 649
3 640 639 648
3 584 580 640
3 649 584 640
3 582 650 641
3 582 586 650
3 642 650 651
3 642 641 650
3 642 651 652
3 643 642 652
3 643 652 653
3 644 643 653
3 644 653 645
3 645 653 654
3 645 654 646
3 646 654 655
3 646 655 647
3 647 655 656
3 647 656 648
3 648 656 657
3 648 657 649
3 649 657 658
3 588 584 649
3 658 588 649
3 586 659 650
3 586 590 659
3 650 659 651
3 651 659 660
3 651 660 661
3 652 651 661
3 652 661 662
3 653 652 662
3 653 662 654
3 654 662 663
3 654 663 664
3 655 654 664
3 655 664 665
3 656 655 665
3 656 665 666
3 657 656 666
3 657 666 658
3 658 666 667
3 592 588 658
3 667 592 658
3 590 668 659
3 590 594 668
3 660 668 669
3 660 659 668
3 660 669 670
3 661 660 670
3 661 670 671
3 662 661 671
3 662 671 663
3 663 671 672
3 663 672 664
3 664 672 673
3 664 673 665
3 665 673 674
3 665 674 666
3 666 674 675
3 666 675 667
3 667 675 676
3 596 592 667
3 676 596 667
3 594 677 668
3 594 598 677
3 668 677 669
3 669 677 678
3 669 678 679
3 670 669 679
3 670 679 680
3 671 670 680
3 671 680 681
3 672 671 681
3 672 681 682
3 673 672 682
3 673 682 683
3 674 673 683
3 674 683 684
3 675 674 684
3 676 684 685
3 676 675 684
3 600 596 676
3 685 600 676
3 598 686 677
3 598 602 606
3 678 686 687
3 678 677 686
3 678 687 679
3 679 687 688
3 679 688 680
3 680 688 689
3 680 689 681
3 681 689 690
3 681 690 682
3 682 690 691
3 683 691 692
3 683 682 691
3 684 692 693
3 684 683 692
3 685 693 694
3 685 684 693
3 694 604 685
3 685 604 600
3 598 606 686
3 606 607 695
3 686 606 695
3 686 695 687
3 688 687 696
3 696 687 695
3 688 696 697
3 689 688 697
3 689 697 698
3 690 689 698
3 690 698 699
3 691 690 699
3 691 699 700
3 692 691 700
3 692 700 701
3 693 692 701
3 610 609 694
3 701 610 694
3 701 694 693
3 609 604 694
3 607 612 695
3 695 612 696
3 696 612 614
3 614 616 697
3 696 614 697
3 616 618 698
3 697 616 698
3 618 620 699
3 698 618 699
3 620 622 700
3 699 620 700
3 622 624 701
3 700 622 701
3 624 610 701
