OFF
702 1400 0
-0.25470269552981 -0.339620088133583 2.15511007343033
-0.300194130631123 -0.325739070804154 2.13762238563797
-0.271934862372285 -0.344281551234865 2.10969472155821
-0.207788425896397 -0.346022557078783 2.15967762399591
-0.225925571377882 -0.354835429561265 2.11469766024102
-0.160948669640058 -0.350439072218213 2.16273333322127
-0.179506605853882 -0.358805361879645 2.11674349920565
-0.11554500495704 -0.354245482540882 2.16700579513539
-0.134153391360561 -0.362566108687505 2.11849556757474
-0.0706281475808921 -0.357868796619684 2.17163912186001
-0.0893716147645259 -0.365990187343761 2.12305369836033
-0.0231112565395406 -0.360777463062708 2.17919649675395
-0.04356696788147 -0.369149281390789 2.13147113601799
0.0249583401225272 -0.356216655877532 2.18767075398192
0.00375534627006331 -0.370620197760607 2.14045431053353
0.0502092665061177 -0.361632115212399 2.14946156076925
-0.323006148504301 -0.298040024032902 2.16655100180808
-0.352827623959005 -0.280195570017519 2.13953373835307
-0.331429956878142 -0.309332176409146 2.11034647536944
-0.282472727806778 -0.31422658879749 2.18588152496912
-0.235727359031464 -0.323219700889871 2.19767467022193
-0.18799715606345 -0.32827941866145 2.20139516289147
-0.141205261719274 -0.332005997808212 2.20668084511294
-0.0959682141203667 -0.335205443401314 2.21242824891214
-0.0516368883179273 -0.340318473677409 2.21488145558784
-0.00298812122723832 -0.340945526299502 2.22214080366911
0.0708069980562019 -0.3398761301374 2.19375724050675
0.0421169254036614 -0.328685115988727 2.23021096212082
0.0880808682873732 -0.308155511935279 2.22842633218957
-0.3102211806336 -0.278150264569879 2.20862432701597
-0.350464863953095 -0.257266122523265 2.18111820070096
-0.264177917174422 -0.291721909889663 2.2258606775387
-0.214197628678893 -0.297920561830625 2.23379441184346
-0.166573909110114 -0.302039995718353 2.23893356779351
-0.118940410599702 -0.304307416172851 2.24608543525182
-0.0742218310999458 -0.306871673767216 2.25232577823227
-0.0319172694439086 -0.315891610162163 2.2510741410957
0.00936179281461526 -0.307609398153226 2.26194052680098
0.054929508269384 -0.293916717758156 2.26370663830133
0.0995983923722114 -0.271145589950373 2.25774976820288
-0.328726991833205 -0.241550882140546 2.23018372048229
-0.361998624911387 -0.219639164428546 2.20422293674566
-0.28767755860291 -0.256704754889846 2.25099567277346
-0.238607206614049 -0.267247674871078 2.26196891768818
-0.189833818903913 -0.269254094386897 2.26982025789246
-0.142355024046335 -0.273787553639689 2.27448167560334
-0.0908565612252094 -0.274488457630516 2.28411257554347
-0.0359458410478306 -0.283514618953724 2.28539713981552
0.0144397150387838 -0.27608532774336 2.29491214501543
0.0648146786929634 -0.260180195164384 2.29399356378043
0.109399011523897 -0.233586967344792 2.28675200944757
-0.31299224600338 -0.21837301851804 2.2733155139364
-0.35355794440301 -0.200038158135831 2.24265763282704
-0.263657322342178 -0.235595157217349 2.28781416849346
-0.216240682937466 -0.237810312497037 2.2986160810857
-0.170695296076879 -0.238716021223251 2.306823869425
-0.126701025471006 -0.246253176784057 2.30752211501894
-0.0932742976696531 -0.234554298232508 2.32696269335731
-0.0583077288277199 -0.25325384784144 2.31372548829561
-0.0160207443930254 -0.249724907925598 2.32467420440712
0.0318388512682403 -0.24289286125868 2.32619748063984
0.0797668348981725 -0.223655890374291 2.32250353919984
-0.316448120105439 -0.178884118405405 2.3144905814905
-0.344455503150877 -0.180411330450082 2.27956851495204
-0.283380665024552 -0.204920104795198 2.31123968281721
-0.236302741498968 -0.207359779463626 2.3276072123202
-0.191571948533482 -0.206067255418576 2.33804402813116
-0.142631948511746 -0.210807815833054 2.34277445726911
-0.0972453727757785 -0.205077864767556 2.35815165954229
-0.0497437293495442 -0.218006126740299 2.35370635582139
-0.00172455821703729 -0.217616085268994 2.3591287361472
0.0459983599299779 -0.209890066674952 2.35588217208379
0.0933218483291536 -0.187232127179167 2.34937049622127
-0.306019406559812 -0.155237529511838 2.35037610141821
-0.350195445045242 -0.141948239046687 2.3155156436377
-0.267187802296181 -0.179373837991587 2.34800359277057
-0.221270914044702 -0.173299191710115 2.36761137548193
-0.171207570419896 -0.177592560509672 2.37305485217018
-0.125414158461226 -0.177277828396072 2.38263776294302
-0.0738609900733092 -0.181098594262677 2.38889368448663
-0.0288773639622249 -0.187365407087828 2.3907969201296
0.0174776643016801 -0.184187943711892 2.39213060755444
0.0613685833437286 -0.176407310725437 2.3833421291893
0.0975965816909308 -0.150454038623545 2.38293568243974
-0.301503659033059 -0.116353003292829 2.3871637038951
-0.335287680168163 -0.124473224363714 2.35378036194582
-0.267880863945272 -0.146222839986542 2.38197101755992
-0.233380932124736 -0.134573984837339 2.40010017308606
-0.190591853348271 -0.14291623552505 2.40157865741972
-0.145471919095381 -0.143054066920697 2.40936765764576
-0.0982455423782607 -0.146312914740084 2.41525736757603
-0.0496134587334919 -0.150337233493486 2.4208479800594
-0.00130928877986769 -0.153221086176353 2.4225309357317
0.050242015653289 -0.147029628967773 2.41510552376506
0.0974183343638484 -0.115395838609993 2.40817360227677
-0.34291242498306 -0.0856864049605274 2.37169155300315
-0.264423144901856 -0.0974108389897882 2.41357578623032
-0.30809885646087 -0.0728834791497603 2.40326908723929
-0.21495684785274 -0.097999134782189 2.42287467462137
-0.168894105163288 -0.102670229047441 2.42792533757691
-0.122212825928915 -0.103627413443978 2.43458837487784
-0.0763861680663895 -0.108168857223059 2.43966674534015
-0.0296898860603295 -0.112609510127398 2.44463079586303
0.0169868650604709 -0.114017809369581 2.44260107123852
0.0612988120535695 -0.107301346486408 2.43262073111307
0.0428300798214167 -0.0689437344240873 2.45015321786234
-0.281372020841294 -0.0461967871780787 2.42191467586966
-0.238883079474677 -0.0553738745868919 2.43170538765354
-0.189841826615341 -0.0571911975115029 2.4379533873634
-0.144080183832877 -0.05828606139008 2.44384136392055
-0.0977865196894679 -0.0596968079184304 2.44972661594659
-0.0531832390759213 -0.0663677628147534 2.45460267104066
-0.00545027444815914 -0.0706172650174357 2.4575289797862
-0.249893344266401 -0.350963813406048 2.07029606750933
-0.273713461707647 -0.336244579336133 2.03515388871404
-0.250165780341201 -0.328440738065323 1.99781294195737
-0.200247376712636 -0.357263221466488 2.07084916581762
-0.221869547863434 -0.347356426916351 2.02997922131721
-0.154177567860521 -0.35994638182887 2.07020399390309
-0.173708574028506 -0.347503008995685 2.02449628880209
-0.108750989192509 -0.362916245839938 2.07274854892798
-0.128390163927503 -0.349052510066484 2.02522401838709
-0.0634117502123908 -0.366638121184241 2.08044142209899
-0.0808029310926318 -0.352773456056588 2.03136109473161
-0.0184898628924562 -0.370642749569104 2.09081467627086
-0.0350718405273852 -0.357623618980771 2.04054555815209
0.0275510342676135 -0.369358072458634 2.09945746855216
0.00915080749048647 -0.36200350641125 2.05182743713495
0.0570326369998723 -0.355195905180067 2.06107195796143
-0.301543406215115 -0.331068918174868 2.0785240985274
-0.34011192993743 -0.300305241902725 2.06323997944568
-0.31045930249571 -0.315057289266099 2.03049269988858
0.0948562549843083 -0.341403340595596 2.1542552827398
0.0706631773945139 -0.357759749554673 2.1090892498423
0.11025558182637 -0.336265032084667 2.11169981954812
-0.378224511436663 -0.244375080495759 2.13075432459881
-0.388534568787945 -0.230704716951664 2.08148221229392
-0.365623904380394 -0.273447365158062 2.09341447904037
0.115808427900865 -0.313931913888911 2.18858577290195
0.136435981077107 -0.3111653393082 2.1443286180335
0.153424139251769 -0.280541525665543 2.17242652889556
-0.380486815717633 -0.216558431180889 2.16294661767081
-0.396348854393351 -0.199351684773817 2.11704145184895
0.129591019358101 -0.278860873799125 2.21774748447284
0.160575468015395 -0.242021258445922 2.20405603812734
-0.384351293538241 -0.178878522752653 2.1977709338452
-0.397011639992771 -0.170443718452199 2.15420854513585
0.137320717477076 -0.239242297175685 2.24681360467011
0.166880440060219 -0.200786705104128 2.22938510696567
-0.378908753834548 -0.160782815381792 2.23605325909226
-0.399407187775056 -0.131364586867948 2.1945537525519
0.14585647865561 -0.19887571645041 2.27334763715017
0.171179884977921 -0.159588250672108 2.25672250217466
-0.37111145171746 -0.143736479225746 2.27542717172931
-0.39495581211531 -0.114758629041429 2.24029409135037
0.122595632959099 -0.193180637202057 2.31271312338924
0.15503961548936 -0.154516834030852 2.29957513587537
-0.384980444798834 -0.104148106512769 2.28862259934069
-0.403296463981418 -0.0690979826155529 2.25824545897013
0.129888838891023 -0.154052712881677 2.34228185565177
0.160023205246302 -0.115285658561778 2.32635278710637
-0.369531861616658 -0.0976076195901381 2.3303185479266
-0.393848758043316 -0.0591452183914663 2.30589616648646
0.133232149115266 -0.117552043146032 2.37156475886497
0.156852025033166 -0.0791366747042759 2.35888520311143
-0.372515941452367 -0.0529672183314686 2.34897260102503
-0.340504931056526 -0.0425263764275654 2.38681269356951
-0.360325950719304 -0.00864814559354661 2.36801269473747
0.0900537346755112 -0.0690714870596698 2.42946267249772
0.113298424934672 -0.0292673137313631 2.41633234106985
0.126870163985707 -0.0762789810227334 2.39888093993366
-0.315116889277067 -0.015397554675235 2.40676124125937
-0.262704571400423 -0.00518122350146819 2.42895842761588
-0.294688895870852 0.0233760124514788 2.41225713305833
-0.213109952139623 -0.0139168852540312 2.43758406470082
-0.165874159038453 -0.0110389210197546 2.44288257741381
-0.119273374668011 -0.0124513936954168 2.44832950856815
-0.07245871508567 -0.0139293147877802 2.45378532220446
-0.0294903093083723 -0.0247045761440674 2.45949119520175
-0.00409715312089454 0.0119189555233337 2.45453081376025
0.0211991778654864 -0.0282149071180579 2.45765844003418
0.0699342902307819 -0.027420573912781 2.44283267018904
-0.261255220250334 0.0526715054572303 2.41524100354009
-0.229622434761198 0.0287257301936672 2.42931040701803
-0.185518127575831 0.0340446194040027 2.43217501541483
-0.139435800863375 0.0340438133154021 2.43663332474873
-0.0927592210156028 0.0320027995888302 2.44177856203018
-0.0443620109952263 0.0302460029559611 2.44697619637999
0.0114782248094631 0.0494036716471651 2.43976141318195
-0.338198866806511 -0.283335953275254 2.01418221492329
-0.321893958392887 -0.269516144577669 1.97531085617182
-0.291238332350739 -0.305433681194705 1.98890678366235
-0.242411640561907 -0.305762911949992 1.96203291159173
-0.200450271593947 -0.329474195233493 1.98799540406423
-0.149920113304071 -0.32498888186188 1.98138028757557
-0.0999442863907954 -0.330180599329987 1.98949578288182
-0.0478936883796245 -0.334261203329185 1.99604443111494
-0.00259094511739738 -0.33985625528626 2.0048088613026
0.0414973416140094 -0.343256707946676 2.02089908143141
0.0838940999045807 -0.325129733803264 2.02004257465678
0.0965785218127292 -0.338739802585142 2.06801926907823
0.123161963142077 -0.312448423514645 2.05020341370554
-0.368139775485627 -0.26131464457203 2.04749204625679
-0.385830174855249 -0.214931733187437 2.03445886764862
-0.362329696651215 -0.241712021539923 2.00434023326823
0.13975253623609 -0.309619251024238 2.09478898393215
0.155665587356323 -0.28089655943623 2.06344971489177
0.165613143513037 -0.277533810007459 2.11862403960706
-0.400115683156056 -0.181919728431863 2.07088895093985
0.185340063333813 -0.23531155349053 2.1159103478406
-0.403181888952754 -0.150892284470447 2.1034273221688
0.177340120344594 -0.243046325507301 2.15841737694189
-0.404250656858061 -0.128652685145051 2.14613965494296
0.182896265054184 -0.200980826631219 2.18211702221924
-0.406374366300425 -0.0888141592395044 2.16159482294197
0.185409829845409 -0.160688972913394 2.20603036422788
-0.406367893174841 -0.0809342326369997 2.20881386371831
0.185976530776161 -0.123281589807008 2.23322025509171
-0.409574647709659 -0.0332265402878798 2.22714649132799
0.178110081179581 -0.110590741390498 2.27862181186252
-0.405802442164088 -0.0221425296267579 2.27749837373556
0.178228826907125 -0.0715804990778596 2.31133663498846
-0.389038480310518 -0.0135809229109058 2.32551206081972
-0.395458253915807 0.0236515655705655 2.29644584492679
0.146564976803746 -0.0345383627776391 2.38248913763557
0.170915638078037 -0.0383200235531817 2.34148060521507
-0.371772706179125 0.0296626225706717 2.34260744966661
-0.337008429256194 0.0254883557335928 2.38389543111882
-0.343961816529374 0.0669053907407429 2.3560398769573
0.0457936569516873 0.0135718497539753 2.44545257797548
0.0922836876364324 0.0133626113903604 2.42387094302261
0.131207152478426 0.0112083299654968 2.39188116809004
-0.307212211146951 0.0633938377814929 2.38949874363043
-0.266699835954241 0.090122911178336 2.39267743905329
-0.214233774713299 0.0744410074812661 2.412414632681
-0.165196925487151 0.0765360511904897 2.41501005303778
-0.11785731203106 0.0754526126648889 2.4192261949696
-0.0705002003871949 0.0722793034523447 2.42470761881674
-0.0245146983141917 0.0728885201043431 2.42767562541457
0.0291385609524881 0.0839477452299916 2.41500727206133
0.062866237135467 0.0521080187352267 2.4236184262833
-0.310567428858144 -0.23791008806178 1.93982026379563
-0.279155631216978 -0.27711974296644 1.94947514298741
-0.230670182360037 -0.274358004221198 1.92926657734697
-0.193411230972541 -0.302504069207581 1.95274790695767
-0.149740722912043 -0.290610642665912 1.9434215464759
-0.109522303346399 -0.298297165840776 1.95262519266228
-0.0625251562704136 -0.307063367095782 1.96324904960196
-0.00635654064311249 -0.308200718709171 1.96710107748608
0.0411722978585818 -0.317660361306707 1.98453685319601
0.0864402407084565 -0.293984373641656 1.98353882552864
0.124414761777021 -0.289356269408334 2.01573245730293
-0.374009616603101 -0.189486603468741 1.99030466063268
-0.346206478324424 -0.227260718143636 1.96940745092936
0.157192523390127 -0.253179216564563 2.02573125258903
0.177386923228276 -0.24510380233668 2.07389397691215
-0.39308380135935 -0.167317566772606 2.02988072270119
0.193945042651274 -0.197245573334159 2.08773380393116
-0.39838946830388 -0.126330683228587 2.05874824825539
0.192914893996487 -0.194367977602323 2.13744303468917
-0.402321359270985 -0.102394952174471 2.10620297035265
0.193616306814431 -0.151794817607875 2.1590981420116
-0.401432867662927 -0.0587272703509114 2.12592947312984
0.19334769231941 -0.112466033960915 2.18572252504865
-0.406358401876065 -0.0427099928606538 2.17678025180152
0.190295394586997 -0.0810942279651522 2.23050424897836
-0.405187269230374 0.00272674786377447 2.19519205360545
0.18720639441318 -0.05925884379434 2.26966434968098
-0.406652960331468 0.0136264643962056 2.24644993236676
0.182344621430445 -0.0153615038665928 2.30464096131979
-0.391575011240976 0.0587888352195821 2.2650878658315
0.161082520926272 0.00476138409303521 2.35202055726905
-0.37286840069461 0.0663121867158674 2.31262786086863
-0.339971471080887 0.103338145929213 2.32462007381376
0.105208003263313 0.0527609632390989 2.39597851444101
0.140504858275849 0.0481489824918484 2.35985323056931
-0.306083725956878 0.101643862255556 2.36162427463263
-0.262492499671516 0.127911001612199 2.36029411977058
-0.226928176905574 0.109657361327515 2.38674551896906
-0.182019508069272 0.113431220235955 2.38596026850546
-0.137903638161499 0.113817430630441 2.38784756016592
-0.0911882522741717 0.109930374690282 2.39384591598366
-0.0478873327189239 0.109717250930721 2.39625009108815
-0.00527964202361544 0.107792410293692 2.39967135914766
0.0723783942176754 0.0896893737023991 2.39186205096314
-0.30706876876846 -0.203644981842387 1.91072291031888
-0.268636676824387 -0.242723519403272 1.91561397358824
-0.221693415998714 -0.2402507106854 1.89731509706268
-0.182090435621344 -0.266101903235159 1.91895798450833
-0.128233879268132 -0.257151357308232 1.91336885493538
-0.0823635739782898 -0.269367730096054 1.92707780247068
-0.0367256607138639 -0.280889720691931 1.94012872544866
0.00670514938424341 -0.269230510867728 1.93148745942467
0.0443038389745593 -0.285839486156179 1.95373463780663
0.0909382745968084 -0.259880298116956 1.9507927748699
0.127586845661045 -0.258085568242915 1.98355313702646
-0.368926391612638 -0.152239597445304 1.95976924817458
-0.344599219446571 -0.193272650042215 1.94427837218316
0.163225685000752 -0.219732666169527 1.99450969187128
0.183292860979188 -0.211150886468665 2.04081526054737
-0.388147100884274 -0.135052438570063 2.00390337704208
0.200329100255241 -0.163422694187781 2.0588805188884
-0.391583559436333 -0.0894756722860929 2.02517564003209
0.199448525281591 -0.151913511795872 2.11065466549059
-0.396003123411293 -0.0734595171463518 2.0717627514022
0.199913023300083 -0.105671180301501 2.13550028513582
-0.395198112440872 -0.0276704100617737 2.09350100760491
0.197262658842847 -0.0680930880516486 2.18078592728767
-0.399863271462659 -0.0104394661551325 2.14287446789875
0.195384855776813 -0.0367132699546984 2.21582702731104
-0.398836338854696 0.0361863140633889 2.1632864500522
0.191724831247476 -0.0171202374763134 2.25806246069044
-0.400291236923307 0.0485342814974469 2.21498726429006
0.188180593258785 0.0259631319337067 2.27315452225801
-0.385121135124179 0.0933280547171711 2.233412609691
0.169953582138574 0.0346357581512692 2.31797786343327
-0.366600931733107 0.100946938567864 2.28089916371657
-0.332747980664139 0.138524910524788 2.29311328183973
0.112152533736124 0.0892289544926684 2.36262042384155
0.148182499042391 0.0815070701647621 2.32707612793552
-0.299583119116655 0.136603097311547 2.32962239918745
-0.250907967119734 0.161501452485931 2.33138130813532
-0.210754526274738 0.14329972720704 2.35669115177725
-0.15976809740661 0.149778917972185 2.35325692008673
-0.107117858819668 0.143267401251498 2.36200071558607
-0.0587348827757064 0.144674742320762 2.36315545938631
-0.0126607613074392 0.142517745131512 2.36751026214337
0.0350920658964808 0.121865502203119 2.38075119662924
0.076482527570084 0.126751628267019 2.35930431423264
-0.301349672417818 -0.170057321092866 1.88023551639439
-0.263531631606498 -0.208175382881879 1.88445198608387
-0.215544969360788 -0.20760352412581 1.8672171291631
-0.170780343991521 -0.233863666556941 1.88952198939683
-0.123492405642317 -0.219348354279356 1.87841916605472
-0.0815059540214048 -0.233589348042528 1.8938155686515
-0.0369343702153603 -0.246915228386404 1.9084907798623
0.00947480825049446 -0.23291710295756 1.89782374641327
0.0525538403828824 -0.249872655619628 1.9211026901492
0.098103778755408 -0.224847806310466 1.91897479886605
0.133868599172308 -0.225129279141819 1.95337661407386
-0.362265360282756 -0.117074951297268 1.92711091308374
-0.339062084065756 -0.160596343961708 1.91489722546103
0.169743898250466 -0.186044942660261 1.96401685499449
0.19005144967215 -0.17651415741576 2.01028589800252
-0.381577689433967 -0.102927208793017 1.97217994190386
0.206621314279093 -0.129831391116932 2.02923080978897
-0.385085723158326 -0.0576539473465625 1.99103725420943
0.205569415385597 -0.117077841635313 2.08151515111922
-0.389513191878732 -0.0365970817930969 2.04081740833527
0.207005351378169 -0.071375167881804 2.09796162653511
-0.38952990644973 0.00854706718088328 2.0689595319765
0.202884399704557 -0.0553995462890573 2.14204407470929
-0.393551959312141 0.0247950406977515 2.11239857867837
0.20242274564191 -0.0123101965913918 2.17260941393788
-0.392288670196715 0.069607297641632 2.1297271855816
0.198462785993673 0.0119932479962733 2.22052239350249
-0.394137734432461 0.081835088894497 2.18265637627566
0.195517203277113 0.0575491399380974 2.23886728033356
-0.378777620400096 0.127113950147786 2.20257323465037
0.175685110296012 0.0719521359190947 2.28614307244496
-0.35970229442633 0.135610752885599 2.2499994948469
-0.324247876410281 0.173138396699211 2.26393149093296
0.117777077809499 0.124388917910809 2.33106093188744
0.153792051364543 0.117209110032835 2.2956052834282
-0.289592713588567 0.17094283800056 2.30075462981059
-0.241165356286347 0.195172705029518 2.30155914922126
-0.199872498554745 0.176093389575746 2.32671690524546
-0.154942257921705 0.189889737395059 2.31616347937962
-0.117855553993906 0.173936312846087 2.33290350333217
-0.0701572709108515 0.177071729493945 2.33241452442345
-0.0197815442935685 0.177558943547988 2.33452724287281
0.0302351707865405 0.157421227140617 2.35078179978746
0.0779909240426618 0.16108343880325 2.33031872509966
-0.294920515624602 -0.136424866528267 1.84908956291904
-0.257741629642508 -0.173986910033746 1.85324049809356
-0.211416197499599 -0.173950803547563 1.83662627878917
-0.167248696972096 -0.200350846581189 1.8585050114073
-0.117470165114279 -0.18361783253547 1.84546329924876
-0.0754954821321182 -0.1970565972159 1.86011189772818
-0.0336104926783253 -0.211900153753465 1.87606439072369
0.0127359204523112 -0.196918378614821 1.86447816210436
0.0561507861404159 -0.215764433177575 1.88879118291012
0.10151762172893 -0.191928489067881 1.88674988722251
0.140283296920339 -0.191688994177201 1.92280856611056
-0.357069772237454 -0.0811972911330296 1.89716427856493
-0.332684946043612 -0.127516264086015 1.88410820790502
0.175904656762317 -0.152515105368059 1.93296317317225
0.196436936275235 -0.142471134390288 1.97915942409157
-0.375432973091066 -0.0669148825895043 1.94095817541833
0.212724603047146 -0.0967196567065681 1.99722808939599
-0.377992530277388 -0.0186474073464115 1.95642025783524
0.212225246863351 -0.0826834081501295 2.04765601653824
-0.382745444011804 -0.0111894624747426 2.00046269065093
0.213066976535526 -0.0340512632706431 2.07085097169188
-0.384076112505051 0.0197561873466912 2.03069250605708
0.208450761159494 -0.0186379761562546 2.11869877825532
-0.386426539000334 0.059426439762248 2.07479934200772
0.209160539510239 0.0257155123910871 2.14033030037868
-0.386159848638593 0.102453243907878 2.09928211044318
0.204666815049062 0.0409839427872468 2.18706801032156
-0.387979186300018 0.11495541477659 2.15215162570523
0.202286581904213 0.0891102997082077 2.20644454614953
-0.371577260597027 0.161567658952587 2.17448707714706
0.182845597344648 0.104876191468513 2.25361349586602
-0.352183128008358 0.169985565439463 2.2208650417155
-0.316976990949628 0.207072320827681 2.23389421502682
0.122714939075735 0.1587856976202 2.30068717445213
0.160308885564923 0.150825782491805 2.26426243252419
-0.281375094005307 0.204771559241483 2.27100237294512
-0.234782081970081 0.229518006833238 2.26991162958678
-0.192888329861574 0.212371432576222 2.29330146072169
-0.142267202754298 0.225290701465773 2.28385324645927
-0.102878662756209 0.207918625416215 2.30203181294696
-0.0545995582408565 0.210829854351986 2.30178082633545
-0.0065244200215557 0.211838158574755 2.30329105075237
0.0336912604395851 0.189644496598164 2.32159064121545
0.0852906136766067 0.193066303404454 2.30013033651813
-0.295988385039243 -0.100557959750196 1.82339967774829
-0.251143926350468 -0.138963868628327 1.82092446499875
-0.20324018816487 -0.141222313151533 1.80608426900337
-0.161983341493482 -0.168409478148438 1.82903846949402
-0.112089968025458 -0.14946196885706 1.81399184855663
-0.0685292357565047 -0.160272591381166 1.82622446866983
-0.0287373156746272 -0.174671130730517 1.84165473440969
0.0148308840297054 -0.160473489430558 1.83066875097437
0.0591133449117523 -0.181976290915226 1.85666992768892
0.105800516315924 -0.158569363572339 1.85472032141013
0.142808938813773 -0.160979519393529 1.8906353859672
-0.351503976660897 -0.0447133322727867 1.8670763632087
-0.329758848428335 -0.0922128912576203 1.85661117585272
0.176631235417973 -0.124628337067955 1.89825301755125
0.202537130962183 -0.108463220666871 1.94685073790717
-0.369117981158436 -0.0296509430393253 1.90885820664745
0.219838660381591 -0.0594541002655247 1.97638404448188
-0.371557975134922 0.0187239532730802 1.92998795404676
0.218205248333866 -0.045297239771262 2.02126637056942
-0.376831505073968 0.0335538536019632 1.97918071690084
0.219380515900103 0.00206529128633359 2.03968555445378
-0.380385925310703 0.0612310791838041 2.02582769860247
0.21484521704899 0.0164601990250803 2.08744809693766
-0.379429375929867 0.104290298492525 2.0446053923854
0.215710948719172 0.06117243622159 2.10756303639962
-0.380631251472712 0.140024517693396 2.07682256500007
0.211129583061083 0.0767393237333916 2.15565789238133
-0.381375889328255 0.14952487397233 2.12623475145279
0.208411440817539 0.123120203266537 2.17576819256496
-0.365066262396091 0.195580638704067 2.1439783242415
0.18941788748892 0.137768128604198 2.22232902603318
-0.345101188849924 0.204402561100977 2.19065475081337
-0.310692256669332 0.24090395600497 2.20271318704093
0.129652876540897 0.192482712784553 2.26903053207264
0.166805283652323 0.184503437074897 2.23284043273627
-0.27537642345578 0.238473501036382 2.23975376412983
-0.22905302521024 0.263413109784913 2.23843231929355
-0.185500781078386 0.246806667305784 2.26162135483336
-0.136816788187671 0.258429262105124 2.25325445150255
-0.0892790668623827 0.243713223835135 2.26940268279379
-0.0392729331147673 0.244456903704741 2.27125759434616
0.00723341004899514 0.244709166770279 2.27339170724855
0.0462250893839811 0.22146367368492 2.29087517666558
0.0925101698803306 0.226800274928275 2.26853510353195
-0.258626761836753 -0.101754337614003 1.79797535188344
-0.217081141872002 -0.105837396806913 1.78452820577835
-0.170649726731719 -0.103394379435631 1.7783414065094
-0.155896269522159 -0.136655042806005 1.80068464992947
-0.118537141016761 -0.109375750035428 1.78545895003572
-0.0718411443480144 -0.12114402073001 1.79577713965268
-0.0250246377682645 -0.132177556202696 1.80615028848229
0.0229195394835464 -0.121603895818602 1.80340874188798
0.0622651694604764 -0.148900098353262 1.82670243547455
0.106756434284359 -0.122864456447506 1.82615471115856
0.147055943830899 -0.12617883151471 1.85911726109363
-0.339022993704281 -0.00828943473628731 1.84112410670397
-0.322444841235029 -0.0554142883372031 1.82767697244426
0.195767110346317 -0.0872409357258078 1.90038799708465
0.213472749027408 -0.0638263449765416 1.93334890465618
-0.35928204056224 0.00888468915038821 1.88017323250894
0.219035357164598 -0.0202478449148755 1.94323621288883
-0.35630935440948 0.0536441417474756 1.90046738278054
0.221810719052688 -0.0076508213638011 1.98836494330576
-0.366061250409151 0.0680957363260075 1.94506919658389
0.218373576198513 0.036293872506374 2.00637987346539
-0.37305331552913 0.0863184163972494 1.99053666489233
0.218521444213255 0.0524642075782286 2.05369981467113
-0.36696047089521 0.132161069982648 2.00455838288679
0.215467965472757 0.0953716463954182 2.07496902167869
-0.370007188608468 0.160095221533481 2.03989190657621
0.215249305928307 0.111754165541202 2.12198220977992
-0.374009222321083 0.182610019571598 2.09406141611309
0.20936512381809 0.153812139561051 2.14337493597925
-0.356161493712263 0.223958074054286 2.10825462942095
0.193841508228121 0.171459806042517 2.19114214839293
-0.338803007670722 0.236757619328047 2.1574891894589
-0.303190762330572 0.269570057991471 2.16879724958396
0.134859088739252 0.226164273220534 2.23597660241
0.166824575118773 0.217396730498835 2.19924227937086
-0.267858228558527 0.271441102797756 2.20783079600983
-0.219183626415085 0.293800780153241 2.20205950744172
-0.182014376166288 0.280286203119521 2.2275734412925
-0.140157544255292 0.288545485021827 2.21683501581049
-0.0960927307090964 0.278953738611233 2.23126184491233
-0.0514633743156172 0.274693437964675 2.23789343871056
-0.00139783843324812 0.274009281697807 2.23970058674371
0.0504450165972162 0.256498431541214 2.25713332428214
0.0958646559830285 0.256866665361661 2.23462805176843
-0.283903385989292 -0.0610683272367515 1.79544399947149
-0.238467390429643 -0.0627445993124639 1.77325869901305
-0.190779060590733 -0.0645338736516564 1.76379683664274
-0.138936725222853 -0.0685730946359343 1.76700606574712
-0.0884592300399986 -0.0751291035624381 1.77391850504309
-0.0423714482172176 -0.085007948787337 1.78155365904797
0.00173107059214175 -0.0845850555782438 1.78564003213468
0.0487842320366664 -0.0744130928631419 1.78756786941985
0.0691149736960637 -0.109122179917036 1.80381699067191
0.10121611806439 -0.0736341284425286 1.8022206718483
0.137616819985029 -0.090413759330805 1.82932670927427
-0.303786803209791 -0.0189528367329692 1.80291558720513
-0.278478691701064 0.0224437176388689 1.78822118405286
-0.261201031009674 -0.0210739810958898 1.77569812772208
0.147925889744879 -0.0494971840082821 1.82586963412859
0.173916951056527 -0.0824202313195117 1.861733138916
0.177355819805077 -0.0351770886997782 1.85367324101704
-0.335872666387591 0.0461234035921686 1.85179231798042
-0.316055161952285 0.0230258666661669 1.81828814846514
0.201423270902505 -0.0404131060605426 1.89159650969038
0.206776015098375 0.00208486363045183 1.90771413655406
-0.332613295555713 0.0843922413180969 1.87736627482888
0.21257652258084 0.0289309099744831 1.95046777927185
-0.342537573233694 0.105200352548133 1.91630470743227
0.207578155545231 0.0668091147231124 1.97721597169673
-0.355088649756792 0.116782663090121 1.95572882768397
0.210123929462797 0.0886201245844474 2.01898922008597
-0.344015726318504 0.156395509359104 1.96864956570467
0.205264402410739 0.126361624030861 2.04542200781952
-0.347891763287596 0.185528113785868 2.00455124982573
0.207608049988474 0.147985036283902 2.08698358646574
-0.361468050426681 0.201907453632266 2.0568376658696
0.200074773719617 0.184247603448251 2.11275033333662
-0.327695277642066 0.261134569319753 2.11943863855997
-0.339550653599153 0.244573235936585 2.07119570325864
-0.308604049557622 0.277647799008307 2.07679878686603
0.190543646046224 0.200500215761746 2.15668385269554
0.17735745956587 0.225530388651751 2.11263215769749
0.164035522191622 0.239169442068888 2.15760591967579
-0.259957681859217 0.295752445429324 2.17053714125057
-0.293684344861397 0.288548322846081 2.12930956303474
-0.251796795360682 0.310242145726737 2.12787255863397
0.131286439396836 0.256341489789103 2.19638487333876
0.0990746659380629 0.287797561388366 2.15981828701761
0.0866534173675692 0.28153470438215 2.19876968549147
-0.212698880852858 0.312896735864915 2.16169001776882
-0.168780073905389 0.307581749937591 2.18164181101913
-0.115878578945582 0.305195905947373 2.18420447808136
-0.0714415490289854 0.300376872043875 2.19319697269789
-0.0276469576139398 0.297132533978697 2.19840088884903
0.0150914251692775 0.296209990878016 2.19793472868067
0.0481982492202657 0.28213923966456 2.22152842721536
-0.212334595534379 -0.0218499208009841 1.75983462610633
-0.161052495950869 -0.0259348260304715 1.75716594692496
-0.110308042418202 -0.0299814832385735 1.76312294643067
-0.0624617709637915 -0.0348035954362651 1.76898965639996
-0.0176543817742656 -0.0383524285659044 1.7744089336983
0.0264233757548429 -0.0341834922227928 1.77925156118472
0.0750001434840334 -0.0327297094098537 1.78712495648263
-0.234219664753888 0.0196851967103615 1.76762338329705
-0.206922872534242 0.0571880503324041 1.77115124535801
-0.18280260681915 0.0175002726535724 1.75847639246936
-0.132022023058436 0.0141186877451757 1.76185726165174
-0.0843687407369137 0.0130450826904884 1.76796742262931
-0.0371221947045254 0.00963567823512953 1.77368416175833
0.00764109703726001 0.011143372531486 1.77988813696367
0.0545594172866883 0.0104125688313575 1.78614859093475
0.10267815699045 0.0117942412263402 1.80089206246335
0.149691983187139 0.00328041804020531 1.828599150746
0.118488155201943 -0.0286043062319397 1.80455323670308
-0.296478354860013 0.0628112150173411 1.81558026707046
-0.264431060574357 0.10127184586804 1.81737622211858
-0.25384288129308 0.0628271274212557 1.78804680260412
0.125738617065414 0.0457072266372629 1.82479770237634
0.183516254182754 0.00691164127269541 1.86620572124174
0.161743431760069 0.0469212793237302 1.85676809697631
-0.30431937806891 0.0942242209095744 1.84607748625273
-0.270966038371673 0.132685805959326 1.85292188516728
0.191978978962311 0.0434560506831182 1.90026643540261
0.164189478110524 0.0823421850040179 1.8903494218912
-0.308956846909485 0.1274476013251 1.88515139346097
-0.278009343469069 0.163555216627251 1.89035291218124
0.19091922442417 0.0743386628532381 1.93292254404815
0.162222347648667 0.115069352132005 1.92523333347696
-0.320111337506235 0.15244789347221 1.92494180102468
-0.282887574183568 0.192132825541137 1.92384646555889
0.189475531696283 0.107450363379499 1.96941723805381
0.161153006924447 0.1468268612898 1.96037837148388
-0.316993006288143 0.19110377018751 1.95934920853798
-0.280975176965726 0.226385628126302 1.95745816747865
0.188748017050424 0.136266303064713 2.00253827088037
0.160445601747856 0.177924950815653 1.9953371988349
-0.314231928701441 0.226286172750909 1.99116007967391
-0.280408662619192 0.262448379490408 1.99574595726267
0.187647927598023 0.168830320022788 2.03929209901773
0.159192449341573 0.209213062131735 2.0296721498516
-0.337874759296356 0.226047100956224 2.02751045265875
-0.308581931146776 0.262867798971929 2.03186886953136
0.185903513839933 0.198076073019341 2.07187703324055
0.155917450366643 0.237904042117432 2.06584270602889
-0.275396220798074 0.300923551803574 2.08766002537231
-0.27022667349407 0.292811152044382 2.03959814965133
-0.23777202410118 0.314351299656597 2.07352172432483
0.133590561916612 0.268838774704814 2.14954118906704
0.147371955108671 0.258258430668821 2.10773607700205
0.107474614754694 0.285823204049278 2.10784583201521
-0.213339311212155 0.321574622766181 2.11346207154587
-0.187676195531611 0.322620098394927 2.07772312151545
-0.172857749834247 0.321737685446464 2.13213857175252
-0.143787264348067 0.321351417082175 2.09127309100961
-0.130424443258238 0.31788334102772 2.14147670776181
-0.0996902123488171 0.318051366433999 2.09658349520279
-0.0836423665681841 0.31483295278765 2.14440081773765
-0.0548487546613095 0.314559139445828 2.10014713970282
-0.0393682782257316 0.311385210600698 2.15058047640597
-0.0112908981277049 0.311183016591906 2.10397999955848
0.00514155668138955 0.308556050996445 2.15271125595217
0.0328975349830022 0.30808694092606 2.11200740167198
0.0507986486267098 0.301765259871921 2.16779175468396
0.0706041255836906 0.301533463219369 2.12467730696839
-0.176146397460064 0.0903556752082022 1.78431641767389
-0.153634329766725 0.0559233083515129 1.7693032555214
-0.107931434864681 0.0583545150916562 1.77695092656293
-0.0592124070257901 0.054241697630647 1.7826396751042
-0.0143315094307096 0.0560780764961415 1.79019179915789
0.0310431969910045 0.0553317330500259 1.79682193389285
0.0770517040623399 0.0513625310466231 1.80418562057297
-0.221213500826936 0.0986760728180454 1.79595698530325
-0.178647519504346 0.125642959487189 1.81106185814014
-0.132614013990716 0.100429391307883 1.79567608384067
-0.0816814288256721 0.0935399662063354 1.79970801888178
-0.0373983435032624 0.0968619674612621 1.80970561479232
0.00710828879763571 0.096878639511589 1.81757951143092
0.0522830452294558 0.0940655395312932 1.82347442413821
0.0956952102233242 0.0843405440101909 1.83069711862571
0.130280874089677 0.0871052546838472 1.85583826145603
-0.226203371657936 0.133081783925421 1.82796650690677
-0.186366689400684 0.157965524536714 1.84551594475886
-0.140459717939476 0.141750768886418 1.83215196228877
-0.101251513903381 0.125890642708215 1.82299910459975
-0.0585024600832756 0.131180477294514 1.83721836834775
-0.0148203076949458 0.131895797720895 1.84681005581193
0.0332834026356326 0.128279389117619 1.852592397141
0.0831149618782454 0.120565200311159 1.85875579429746
0.127830631825444 0.118626523599743 1.88767083112576
-0.23311631299014 0.164223526744846 1.86350190724652
-0.18811278836371 0.189052075483133 1.87891177112485
-0.142060525105667 0.174461997447832 1.86732896465423
-0.0954536494126506 0.158225010145804 1.85911250827149
-0.0485611995593798 0.164964328620185 1.87588868358827
0.00162290304816426 0.161115543864732 1.88183865933458
0.0494169745670146 0.157075862061136 1.88711162790804
0.0915036792104974 0.149295576719759 1.89480066902245
0.126614765836578 0.152101519687823 1.92421468112545
-0.236657856877096 0.194456721457862 1.89678519178007
-0.190693273014998 0.218621784094588 1.91074739017958
-0.141739853369024 0.207442797832748 1.9031859955911
-0.0991689526142721 0.18993312967059 1.8927735367662
-0.0613503517392425 0.198552970205551 1.90975973946154
-0.0166422947506119 0.192804652458013 1.91254303164432
0.0313572091642579 0.189296750818782 1.9184217174682
0.0803974793947941 0.183020513646298 1.92618148857762
0.125524287454182 0.182157707518417 1.95703131969478
-0.239934207993638 0.223858610650964 1.92910581857223
-0.197087964507807 0.247844696813468 1.94259596218739
-0.147083522699488 0.238566945003308 1.93588435226222
-0.0978530916043025 0.226699391639047 1.93294041606581
-0.0463291054238585 0.226972837150109 1.94363383640871
0.00183222727603728 0.222445857583487 1.94843982627276
0.0482308302147001 0.219103144320369 1.95423715569076
0.0897129617424236 0.211991679826063 1.9630894379763
0.124669436004075 0.215085719445452 1.99331833739438
-0.244633335005228 0.25548736096914 1.96444936519165
-0.206822443498129 0.277517508971008 1.97624751726959
-0.159836622152655 0.27117576672842 1.96876768386104
-0.113228884015891 0.261338899501232 1.96743019108365
-0.0685809195940203 0.257039348830872 1.97177304982144
-0.0196165085294303 0.254949497797759 1.97938621097547
0.0291835344021375 0.251457474707378 1.98544331247812
0.0782615285818401 0.245840376468785 1.99429662726271
0.123043224207612 0.244567800593583 2.02593263657998
-0.240475867443759 0.288929723941348 2.0046989770073
-0.183949153600598 0.299130604219661 2.00547787664193
-0.135210723909226 0.293074005374025 2.00377049541846
-0.0905747861886063 0.288455138473365 2.00703206534028
-0.0457085249309612 0.284495809698838 2.01146315419247
0.000657509340455109 0.281615027526286 2.01801098207782
0.0457228735417633 0.278799699506046 2.02451399788142
0.0864008479266251 0.272056507296989 2.03435081549568
0.118215044252993 0.270409896084273 2.06764532970781
-0.215609107384857 0.310212515309438 2.03660868668563
-0.161463815750535 0.313782168596984 2.0424189359265
-0.115700101035279 0.310454480111582 2.04824263198697
-0.0706360304173635 0.306611795791996 2.05220275743492
-0.0248797399805688 0.302726570052184 2.05631183572748
0.0222551423641864 0.299688190573786 2.06348797462604
0.0691739383444558 0.294557133628055 2.07348439395405
3 0 1 2
3 0 2 4
3 3 0 4
3 3 4 6
3 5 3 6
3 5 6 8
3 7 5 8
3 7 8 10
3 9 7 10
3 9 10 12
3 11 9 12
3 13 11 14
3 14 11 12
3 13 14 15
3 16 17 18
3 16 18 1
3 0 19 1
3 19 16 1
3 0 3 20
3 19 0 20
3 3 5 21
3 20 3 21
3 5 7 22
3 21 5 22
3 7 9 23
3 22 7 23
3 9 11 24
3 23 9 24
3 24 11 25
3 25 11 13
3 13 15 26
3 27 13 26
3 25 13 27
3 27 26 28
3 17 16 30
3 30 16 29
3 29 19 31
3 29 16 19
3 31 20 32
3 31 19 20
3 32 21 33
3 32 20 21
3 21 22 33
3 33 22 34
3 22 23 34
3 34 23 35
3 23 24 35
3 35 24 36
3 24 25 36
3 36 25 37
3 37 27 38
3 37 25 27
3 38 28 39
3 38 27 28
3 30 40 41
3 30 29 40
3 29 31 42
3 40 29 42
3 31 32 43
3 42 31 43
3 32 33 44
3 43 32 44
3 33 34 45
3 44 33 45
3 34 35 46
3 45 34 46
3 35 36 47
3 46 35 47
3 36 37 47
3 47 37 48
3 37 38 48
3 48 38 49
3 49 39 50
3 49 38 39
3 40 51 52
3 41 40 52
3 51 42 53
3 51 40 42
3 42 43 53
3 53 43 54
3 43 44 54
3 54 44 55
3 44 45 55
3 55 45 56
3 45 46 56
3 56 46 57
3 46 47 58
3 57 46 58
3 47 48 59
3 58 47 59
3 48 49 60
3 59 48 60
3 49 50 61
3 60 49 61
3 51 62 63
3 52 51 63
3 51 53 64
3 62 51 64
3 53 54 65
3 64 53 65
3 54 55 66
3 65 54 66
3 55 56 67
3 66 55 67
3 56 57 67
3 67 57 68
3 57 58 69
3 68 57 69
3 58 59 69
3 69 59 70
3 59 60 70
3 70 60 71
3 71 61 72
3 71 60 61
3 62 73 74
3 63 62 74
3 62 64 75
3 73 62 75
3 64 65 75
3 75 65 76
3 65 66 76
3 76 66 77
3 66 67 77
3 77 67 78
3 67 68 78
3 78 68 79
3 79 69 80
3 79 68 69
3 80 70 81
3 80 69 70
3 81 71 82
3 81 70 71
3 82 72 83
3 82 71 72
3 74 73 85
3 85 73 84
3 84 73 86
3 86 73 75
3 75 76 86
3 86 76 87
3 76 77 88
3 87 76 88
3 77 78 89
3 88 77 89
3 78 79 90
3 89 78 90
3 79 80 91
3 90 79 91
3 80 81 92
3 91 80 92
3 81 82 93
3 92 81 93
3 93 83 94
3 93 82 83
3 84 95 85
3 84 86 96
3 97 84 96
3 95 84 97
3 96 87 98
3 96 86 87
3 87 88 98
3 98 88 99
3 88 89 99
3 99 89 100
3 89 90 100
3 100 90 101
3 101 91 102
3 101 90 91
3 102 92 103
3 102 91 92
3 92 93 103
3 105 103 104
3 103 93 104
3 93 94 104
3 96 106 97
3 96 98 107
3 106 96 107
3 98 99 108
3 107 98 108
3 99 100 109
3 108 99 109
3 100 101 110
3 109 100 110
3 101 102 111
3 110 101 111
3 111 102 112
3 112 102 103
3 103 105 112
3 117 114 115
3 116 113 117
3 117 113 114
3 116 117 119
3 118 116 119
3 118 119 121
3 120 118 121
3 120 121 123
3 122 120 123
3 122 123 125
3 124 122 125
3 124 125 127
3 126 124 127
3 126 127 128
3 129 130 131
3 114 129 131
3 114 113 129
3 113 2 129
3 129 2 1
3 4 113 116
3 4 2 113
3 6 116 118
3 6 4 116
3 8 118 120
3 8 6 118
3 10 120 122
3 10 8 120
3 12 122 124
3 12 10 122
3 14 124 126
3 14 12 124
3 133 126 128
3 15 14 126
3 15 126 133
3 132 15 133
3 132 133 134
3 135 136 137
3 137 17 135
3 137 18 17
3 18 137 130
3 129 18 130
3 18 129 1
3 15 132 26
3 139 132 134
3 139 138 132
3 138 28 26
3 132 138 26
3 138 139 140
3 136 135 142
3 142 135 141
3 17 30 135
3 135 30 141
3 143 39 28
3 138 143 28
3 143 140 144
3 143 138 140
3 141 145 146
3 142 141 146
3 41 145 141
3 30 41 141
3 147 39 143
3 147 50 39
3 147 144 148
3 147 143 144
3 145 149 150
3 146 145 150
3 52 149 145
3 41 52 145
3 151 50 147
3 151 155 50
3 151 148 152
3 151 147 148
3 149 153 154
3 150 149 154
3 63 153 149
3 52 63 149
3 155 61 50
3 155 72 61
3 155 151 156
3 156 151 152
3 154 157 158
3 154 153 157
3 74 157 153
3 63 74 153
3 159 72 155
3 159 83 72
3 159 156 160
3 159 155 156
3 158 157 162
3 162 157 161
3 74 85 161
3 157 74 161
3 163 83 159
3 163 94 83
3 163 160 164
3 163 159 160
3 161 165 162
3 165 95 166
3 165 161 95
3 161 85 95
3 165 166 167
3 95 97 166
3 105 104 168
3 170 94 163
3 170 168 94
3 169 168 170
3 94 168 104
3 163 164 170
3 166 171 167
3 173 171 172
3 172 171 106
3 171 97 106
3 171 166 97
3 172 107 174
3 172 106 107
3 174 108 175
3 174 107 108
3 175 109 176
3 175 108 109
3 176 110 177
3 176 109 110
3 177 111 178
3 177 110 111
3 178 112 180
3 178 111 112
3 181 105 168
3 181 180 105
3 179 178 180
3 180 112 105
3 168 169 181
3 172 182 173
3 182 172 183
3 183 172 174
3 174 175 184
3 183 174 184
3 175 176 185
3 184 175 185
3 176 177 186
3 185 176 186
3 177 178 187
3 186 177 187
3 187 179 188
3 187 178 179
3 179 180 229
3 189 190 191
3 114 131 191
3 115 114 191
3 115 191 192
3 115 192 193
3 117 115 193
3 119 193 194
3 119 117 193
3 119 194 121
3 121 194 195
3 121 195 123
3 123 195 196
3 123 196 125
3 125 196 197
3 127 197 198
3 127 125 197
3 128 198 199
3 200 128 199
3 128 127 198
3 200 199 201
3 202 203 204
3 131 130 189
3 190 189 204
3 189 130 202
3 189 202 204
3 131 189 191
3 128 200 133
3 134 200 205
3 206 205 201
3 134 133 200
3 205 200 201
3 205 206 207
3 136 208 203
3 202 137 136
3 202 136 203
3 137 202 130
3 134 205 139
3 139 205 207
3 140 139 207
3 211 207 209
3 136 142 208
3 208 142 210
3 211 140 207
3 211 144 140
3 146 212 210
3 142 146 210
3 148 144 213
3 213 144 211
3 150 214 212
3 146 150 212
3 215 148 213
3 215 152 148
3 154 216 150
3 150 216 214
3 219 152 217
3 217 152 215
3 158 218 216
3 154 158 216
3 219 156 152
3 219 160 156
3 158 220 218
3 158 162 220
3 221 160 219
3 221 164 160
3 162 165 222
3 223 220 222
3 220 162 222
3 165 167 222
3 169 170 224
3 225 164 221
3 224 170 164
3 224 164 225
3 222 226 223
3 167 171 227
3 226 167 227
3 226 227 228
3 226 222 167
3 171 173 227
3 180 181 229
3 181 169 230
3 231 169 224
3 230 169 231
3 230 229 181
3 224 225 271
3 227 232 228
3 232 182 233
3 232 173 182
3 227 173 232
3 182 183 234
3 233 182 234
3 183 184 234
3 234 184 235
3 184 185 235
3 235 185 236
3 185 186 236
3 236 186 237
3 186 187 237
3 237 187 238
3 238 188 239
3 238 187 188
3 188 179 229
3 240 239 188
3 240 188 229
3 229 230 240
3 191 190 242
3 242 190 241
3 192 242 243
3 192 191 242
3 192 243 244
3 193 192 244
3 194 244 245
3 194 193 244
3 194 245 246
3 195 194 246
3 195 246 247
3 196 195 247
3 196 247 248
3 197 196 248
3 197 248 249
3 198 197 249
3 199 198 249
3 250 199 249
3 201 199 251
3 251 199 250
3 204 252 253
3 204 203 252
3 190 253 241
3 190 204 253
3 206 251 254
3 206 201 251
3 207 206 255
3 255 206 254
3 203 256 252
3 203 208 256
3 257 209 255
3 255 209 207
3 210 258 208
3 208 258 256
3 211 209 259
3 259 209 257
3 212 260 210
3 210 260 258
3 213 211 259
3 261 213 259
3 214 262 260
3 212 214 260
3 215 213 261
3 263 215 261
3 216 264 214
3 214 264 262
3 217 215 263
3 265 217 263
3 218 266 264
3 216 218 264
3 219 217 265
3 267 219 265
3 218 268 266
3 218 220 268
3 221 219 267
3 269 221 267
3 223 270 268
3 220 223 268
3 225 221 269
3 271 225 269
3 223 226 272
3 270 223 272
3 272 228 273
3 272 226 228
3 274 231 275
3 274 230 231
3 275 231 271
3 271 231 224
3 273 228 276
3 276 228 232
3 276 233 277
3 276 232 233
3 233 234 278
3 277 233 278
3 234 235 279
3 278 234 279
3 235 236 280
3 279 235 280
3 236 237 281
3 280 236 281
3 237 238 282
3 281 237 282
3 238 239 283
3 282 238 283
3 327 239 284
3 284 239 240
3 240 230 274
3 284 240 274
3 241 285 286
3 242 241 286
3 242 286 243
3 243 286 287
3 243 287 288
3 244 243 288
3 245 288 289
3 245 244 288
3 245 289 246
3 246 289 290
3 246 290 247
3 247 290 291
3 247 291 248
3 248 291 292
3 248 292 293
3 249 248 293
3 249 293 250
3 250 293 294
3 250 294 295
3 251 250 295
3 252 296 297
3 253 252 297
3 241 297 285
3 241 253 297
3 254 295 298
3 254 251 295
3 254 298 299
3 255 254 299
3 256 300 252
3 252 300 296
3 257 255 299
3 301 257 299
3 258 302 300
3 256 258 300
3 259 257 303
3 303 257 301
3 260 304 258
3 258 304 302
3 261 259 303
3 305 261 303
3 262 306 304
3 260 262 304
3 263 261 305
3 307 263 305
3 264 308 262
3 262 308 306
3 265 263 307
3 309 265 307
3 266 310 308
3 264 266 308
3 267 265 309
3 311 267 309
3 266 312 310
3 266 268 312
3 269 267 311
3 313 269 311
3 270 314 312
3 268 270 312
3 271 269 315
3 315 269 313
3 270 272 316
3 314 270 316
3 316 273 317
3 316 272 273
3 318 275 319
3 318 274 275
3 275 271 315
3 319 275 315
3 273 276 320
3 317 273 320
3 276 277 320
3 320 277 321
3 277 278 322
3 321 277 322
3 322 279 323
3 322 278 279
3 279 280 323
3 323 280 324
3 280 281 324
3 324 281 325
3 281 282 325
3 325 282 326
3 282 283 326
3 326 283 327
3 283 239 327
3 327 284 328
3 284 274 318
3 328 284 318
3 285 329 330
3 286 285 330
3 286 330 287
3 287 330 331
3 287 331 332
3 288 287 332
3 288 332 289
3 289 332 333
3 289 333 334
3 290 289 334
3 290 334 335
3 291 290 335
3 291 335 292
3 292 335 336
3 292 336 337
3 293 292 337
3 293 337 294
3 294 337 338
3 294 338 339
3 295 294 339
3 296 340 341
3 297 296 341
3 285 341 329
3 285 297 341
3 298 339 342
3 298 295 339
3 298 342 343
3 299 298 343
3 300 344 296
3 296 344 340
3 301 299 343
3 345 301 343
3 302 346 344
3 300 302 344
3 303 301 347
3 347 301 345
3 304 348 302
3 302 348 346
3 305 303 347
3 349 305 347
3 306 350 348
3 304 306 348
3 307 305 351
3 351 305 349
3 308 352 306
3 306 352 350
3 309 307 353
3 353 307 351
3 310 354 352
3 308 310 352
3 311 309 355
3 355 309 353
3 312 356 310
3 310 356 354
3 313 311 355
3 357 313 355
3 314 358 356
3 312 314 356
3 315 313 359
3 359 313 357
3 314 316 360
3 358 314 360
3 360 317 361
3 360 316 317
3 362 319 363
3 362 318 319
3 319 315 359
3 363 319 359
3 317 320 364
3 361 317 364
3 320 321 364
3 364 321 365
3 321 322 366
3 365 321 366
3 322 323 366
3 366 323 367
3 323 324 368
3 367 323 368
3 324 325 369
3 368 324 369
3 325 326 370
3 369 325 370
3 326 327 371
3 370 326 371
3 327 328 371
3 371 328 372
3 328 318 362
3 372 328 362
3 329 373 374
3 330 329 374
3 330 374 331
3 331 374 375
3 331 375 376
3 332 331 376
3 332 376 333
3 333 376 377
3 333 377 378
3 334 333 378
3 334 378 379
3 335 334 379
3 335 379 336
3 336 379 380
3 336 380 381
3 337 336 381
3 337 381 338
3 338 381 382
3 338 382 383
3 339 338 383
3 340 384 385
3 341 340 385
3 329 385 373
3 329 341 385
3 342 383 386
3 342 339 383
3 342 386 387
3 343 342 387
3 344 388 340
3 340 388 384
3 345 343 387
3 389 345 387
3 346 390 388
3 344 346 388
3 347 345 391
3 391 345 389
3 348 392 346
3 346 392 390
3 349 347 391
3 393 349 391
3 350 394 348
3 348 394 392
3 351 349 395
3 395 349 393
3 352 396 350
3 350 396 394
3 353 351 395
3 397 353 395
3 354 398 396
3 352 354 396
3 355 353 399
3 399 353 397
3 356 400 354
3 354 400 398
3 357 355 399
3 401 357 399
3 358 402 400
3 356 358 400
3 359 357 403
3 403 357 401
3 358 360 404
3 402 358 404
3 404 361 405
3 404 360 361
3 406 363 407
3 406 362 363
3 363 359 403
3 407 363 403
3 361 364 408
3 405 361 408
3 364 365 408
3 408 365 409
3 365 366 410
3 409 365 410
3 366 367 410
3 410 367 411
3 367 368 412
3 411 367 412
3 368 369 412
3 412 369 413
3 369 370 413
3 413 370 414
3 370 371 415
3 414 370 415
3 371 372 415
3 415 372 416
3 372 362 406
3 416 372 406
3 373 417 418
3 374 373 418
3 374 418 375
3 375 418 419
3 375 419 420
3 376 375 420
3 376 420 377
3 377 420 421
3 377 421 422
3 378 377 422
3 378 422 423
3 379 378 423
3 380 423 424
3 380 379 423
3 380 424 425
3 381 380 425
3 382 425 426
3 382 381 425
3 382 426 427
3 383 382 427
3 384 428 429
3 385 384 429
3 373 429 417
3 373 385 429
3 386 427 430
3 386 383 427
3 386 430 431
3 387 386 431
3 384 432 428
3 384 388 432
3 389 387 431
3 433 389 431
3 390 434 432
3 388 390 432
3 435 389 433
3 435 391 389
3 390 436 434
3 390 392 436
3 393 391 435
3 437 393 435
3 394 438 436
3 392 394 436
3 395 393 439
3 439 393 437
3 396 440 438
3 394 396 438
3 397 395 439
3 441 397 439
3 398 442 440
3 396 398 440
3 399 397 443
3 443 397 441
3 400 444 398
3 398 444 442
3 401 399 443
3 445 401 443
3 402 446 444
3 400 402 444
3 403 401 447
3 447 401 445
3 402 404 448
3 446 402 448
3 448 405 449
3 448 404 405
3 450 407 451
3 450 406 407
3 407 403 447
3 451 407 447
3 405 408 452
3 449 405 452
3 408 409 452
3 452 409 453
3 409 410 454
3 453 409 454
3 410 411 454
3 454 411 455
3 411 412 456
3 455 411 456
3 412 413 456
3 456 413 457
3 457 414 458
3 457 413 414
3 414 415 459
3 458 414 459
3 415 416 459
3 459 416 460
3 416 406 450
3 460 416 450
3 418 461 462
3 418 417 461
3 419 462 463
3 419 418 462
3 419 463 464
3 420 419 464
3 420 464 421
3 421 464 465
3 421 465 466
3 422 421 466
3 422 466 467
3 423 422 467
3 424 467 468
3 424 423 467
3 424 468 469
3 425 424 469
3 426 469 470
3 426 425 469
3 427 426 471
3 471 426 470
3 429 428 473
3 473 428 472
3 417 473 505
3 417 429 473
3 430 427 471
3 520 430 471
3 431 474 475
3 431 430 474
3 428 476 472
3 428 432 476
3 433 431 475
3 477 433 475
3 434 478 476
3 432 434 476
3 479 433 477
3 479 435 433
3 434 480 478
3 434 436 480
3 437 435 479
3 481 437 479
3 438 482 436
3 436 482 480
3 439 437 483
3 483 437 481
3 440 484 482
3 438 440 482
3 441 439 483
3 485 441 483
3 442 486 440
3 440 486 484
3 443 441 487
3 487 441 485
3 444 488 442
3 442 488 486
3 445 443 487
3 489 445 487
3 444 446 488
3 488 446 490
3 491 445 489
3 491 447 445
3 490 446 492
3 492 446 448
3 492 449 493
3 492 448 449
3 494 451 495
3 494 450 451
3 451 447 491
3 495 451 491
3 449 452 496
3 493 449 496
3 496 453 497
3 496 452 453
3 453 454 498
3 497 453 498
3 498 455 499
3 498 454 455
3 455 456 500
3 499 455 500
3 456 457 501
3 500 456 501
3 457 458 502
3 501 457 502
3 458 459 503
3 502 458 503
3 503 460 504
3 503 459 460
3 504 460 494
3 494 460 450
3 461 505 506
3 462 461 506
3 507 463 462
3 507 462 506
3 465 463 508
3 508 463 507
3 464 463 465
3 465 508 509
3 465 509 466
3 466 509 510
3 466 510 467
3 467 510 511
3 467 511 468
3 468 511 512
3 468 512 513
3 469 468 513
3 469 513 470
3 515 470 514
3 470 513 514
3 470 515 471
3 472 516 473
3 518 516 517
3 518 505 516
3 461 417 505
3 505 473 516
3 505 518 506
3 515 514 519
3 474 430 520
3 521 520 519
3 520 471 515
3 520 515 519
3 474 520 524
3 476 522 472
3 516 472 523
3 472 522 523
3 516 523 517
3 520 521 524
3 477 475 524
3 524 475 474
3 525 477 524
3 478 526 522
3 476 478 522
3 527 477 525
3 527 479 477
3 478 528 526
3 478 480 528
3 481 479 527
3 529 481 527
3 482 530 480
3 480 530 528
3 483 481 531
3 531 481 529
3 484 532 530
3 482 484 530
3 485 483 531
3 533 485 531
3 486 534 484
3 484 534 532
3 535 485 533
3 535 487 485
3 486 536 534
3 486 488 536
3 537 489 535
3 535 489 487
3 490 538 539
3 536 490 539
3 488 490 536
3 538 540 539
3 541 542 543
3 541 489 537
3 542 541 537
3 541 491 489
3 490 492 538
3 545 493 544
3 538 492 493
3 538 493 545
3 540 538 545
3 544 546 545
3 547 548 549
3 543 495 541
3 547 494 495
3 547 495 543
3 608 547 543
3 495 491 541
3 493 496 544
3 544 497 550
3 546 544 550
3 544 496 497
3 550 497 551
3 551 497 498
3 498 499 551
3 551 499 552
3 499 500 552
3 552 500 553
3 500 501 553
3 553 501 554
3 554 502 555
3 554 501 502
3 502 503 556
3 555 502 556
3 503 504 556
3 549 504 547
3 556 504 549
3 504 494 547
3 506 557 507
3 507 557 558
3 508 507 558
3 508 558 559
3 509 508 559
3 509 559 560
3 510 509 560
3 510 560 561
3 511 510 561
3 511 561 562
3 512 511 562
3 514 512 563
3 563 512 562
3 513 512 514
3 517 564 518
3 518 564 557
3 566 564 565
3 557 564 566
3 557 506 518
3 558 566 567
3 558 557 566
3 559 567 568
3 559 558 567
3 560 568 569
3 560 559 568
3 561 569 570
3 561 560 569
3 562 570 571
3 562 561 570
3 563 562 571
3 572 563 571
3 574 514 563
3 572 574 563
3 573 519 574
3 574 519 514
3 519 573 521
3 522 575 523
3 577 575 576
3 577 517 575
3 564 517 577
3 575 517 523
3 564 577 565
3 573 574 572
3 521 573 579
3 580 573 578
3 579 573 580
3 579 524 521
3 524 579 525
3 522 581 575
3 522 526 581
3 576 581 582
3 576 575 581
3 583 580 584
3 583 579 580
3 583 525 579
3 583 527 525
3 526 585 581
3 526 528 585
3 582 585 586
3 582 581 585
3 587 584 588
3 587 583 584
3 587 527 583
3 587 529 527
3 528 589 585
3 528 530 589
3 586 589 590
3 586 585 589
3 591 588 592
3 591 587 588
3 591 529 587
3 591 531 529
3 532 593 589
3 530 532 589
3 590 593 594
3 590 589 593
3 595 592 596
3 595 591 592
3 595 531 591
3 595 533 531
3 534 597 593
3 532 534 593
3 594 597 598
3 594 593 597
3 599 596 600
3 599 595 596
3 599 533 595
3 599 535 533
3 534 601 597
3 534 536 601
3 602 597 601
3 602 598 597
3 603 599 600
3 604 603 600
3 603 535 599
3 603 537 535
3 536 539 601
3 606 540 605
3 606 602 540
3 602 601 539
3 540 602 539
3 605 607 606
3 608 609 610
3 608 543 609
3 604 542 603
3 609 543 542
3 609 542 604
3 542 537 603
3 540 545 605
3 605 546 607
3 612 607 611
3 605 545 546
3 607 546 611
3 612 613 614
3 612 611 613
3 614 615 616
3 614 613 615
3 616 617 618
3 616 615 617
3 618 619 620
3 618 617 619
3 620 621 622
3 620 619 621
3 622 623 624
3 622 621 623
3 610 548 608
3 624 623 548
3 624 548 610
3 548 623 549
3 548 547 608
3 546 550 611
3 611 550 613
3 613 550 551
3 551 552 615
3 613 551 615
3 552 553 617
3 615 552 617
3 553 554 619
3 617 553 619
3 554 555 621
3 619 554 621
3 621 555 623
3 623 555 556
3 556 549 623
3 565 625 626
3 567 566 626
3 626 566 565
3 567 626 627
3 568 567 627
3 568 627 628
3 569 568 628
3 569 628 629
3 570 569 629
3 570 629 630
3 571 570 630
3 572 571 631
3 631 571 630
3 572 631 578
3 576 632 577
3 625 632 633
3 565 577 632
3 565 632 625
3 625 633 634
3 626 625 634
3 626 634 627
3 627 634 635
3 627 635 628
3 628 635 636
3 628 636 629
3 629 636 637
3 629 637 630
3 630 637 638
3 631 638 639
3 631 630 638
3 640 578 639
3 578 573 572
3 578 631 639
3 578 640 580
3 576 641 632
3 576 582 641
3 633 641 642
3 633 632 641
3 633 642 643
3 634 633 643
3 634 643 644
3 635 634 644
3 635 644 645
3 636 635 645
3 636 645 646
3 637 636 646
3 637 646 647
3 638 637 647
3 638 647 648
3 639 638 648
3 640 648 649
3 640 639 648
3 584 580 640
3 649 584 640
3 582 650 641
3 582 586 650
3 642 650 651
3 642 641 650
3 642 651 652
3 643 642 652
3 643 652 653
3 644 643 653
3 644 653 645
3 645 653 654
3 645 654 646
3 646 654 655
3 646 655 647
3 647 655 656
3 647 656 648
3 648 656 657
3 648 657 649
3 649 657 658
3 588 584 649
3 658 588 649
3 586 659 650
3 586 590 659
3 650 659 651
3 651 659 660
3 651 660 661
3 652 651 661
3 652 661 662
3 653 652 662
3 653 662 654
3 654 662 663
3 654 663 664
3 655 654 664
3 655 664 665
3 656 655 665
3 656 665 666
3 657 656 666
3 657 666 658
3 658 666 667
3 592 588 658
3 667 592 658
3 590 668 659
3 590 594 668
3 660 668 669
3 660 659 668
3 660 669 670
3 661 660 670
3 661 670 671
3 662 661 671
3 662 671 663
3 663 671 672
3 663 672 664
3 664 672 673
3 664 673 665
3 665 673 674
3 665 674 666
3 666 674 675
3 666 675 667
3 667 675 676
3 596 592 667
3 676 596 667
3 594 677 668
3 594 598 677
3 668 677 669
3 669 677 678
3 669 678 679
3 670 669 679
3 670 679 680
3 671 670 680
3 671 680 681
3 672 671 681
3 672 681 682
3 673 672 682
3 673 682 683
3 674 673 683
3 674 683 684
3 675 674 684
3 676 684 685
3 676 675 684
3 600 596 676
3 685 600 676
3 598 686 677
3 598 602 606
3 678 686 687
3 678 677 686
3 678 687 679
3 679 687 688
3 679 688 680
3 680 688 689
3 680 689 681
3 681 689 690
3 681 690 682
3 682 690 691
3 683 691 692
3 683 682 691
3 684 692 693
3 684 683 692
3 685 693 694
3 685 684 693
3 694 604 685
3 685 604 600
3 598 606 686
3 606 607 695
3 686 606 695
3 686 695 687
3 688 687 696
3 696 687 695
3 688 696 697
3 689 688 697
3 689 697 698
3 690 689 698
3 690 698 699
3 691 690 699
3 691 699 700
3 692 691 700
3 692 700 701
3 693 692 701
3 610 609 694
3 701 610 694
3 701 694 693
3 609 604 694
3 607 612 695
3 695 612 696
3 696 612 614
3 614 616 697
3 696 614 697
3 616 618 698
3 697 616 698
3 618 620 699
3 698 618 699
3 620 622 700
3 699 620 700
3 622 624 701
3 700 622 701
3 624 610 701
