OFF
702 1400 0
-0.250360749055955 -0.354308833196977 2.10920153075883
-0.295972756052892 -0.339995600366659 2.09238937094349
-0.267700843351382 -0.357292681077632 2.06368616214942
-0.203401473168697 -0.360640175404447 2.11339000733107
-0.221624164814131 -0.367793850604847 2.06815088325332
-0.156531195144207 -0.36492876959279 2.11614513505856
-0.175179873574454 -0.371599175659316 2.06991539238446
-0.111096550914254 -0.368662430505543 2.12014367690355
-0.129803231672836 -0.375189601741626 2.07139736245157
-0.066148588113902 -0.372229675752095 2.12451123908962
-0.0849915784469875 -0.378555545934083 2.07569789042608
-0.0185957752907767 -0.375182865412371 2.13182135902292
-0.0391472093513868 -0.381801257401674 2.08386232471729
0.0294744304656399 -0.37070504908803 2.14033632235233
0.00820786347378376 -0.38337417553684 2.09265353864159
0.0546414653397838 -0.37450156735678 2.10187743867536
-0.318841146030255 -0.31355956879493 2.12243372414974
-0.348831287822662 -0.294834546918081 2.09621078737708
-0.327370668737244 -0.322704334234361 2.06585596745642
-0.27816999682761 -0.3302738787863 2.14101117451433
-0.231345463033021 -0.339475326179867 2.15231958920352
-0.18357955325924 -0.344427820069421 2.15571160228677
-0.136754165863644 -0.348113847513858 2.16072194178936
-0.0914849367793871 -0.351299147527347 2.16621833514693
-0.047121255987324 -0.356273350055722 2.16835114662164
0.00155095064669825 -0.356929228351849 2.17544903321102
0.0752569249580768 -0.354375369566487 2.14692891658933
0.0466163472283703 -0.344757419864941 2.18386731445452
0.0924699691419386 -0.323935639468157 2.18275717459143
-0.306035285600365 -0.29525243144221 2.16521317353375
-0.346464327015727 -0.273525182848388 2.13864801402402
-0.259873762254163 -0.309243905178583 2.18178471151435
-0.209839778384723 -0.315486379321407 2.18933644235759
-0.162181008794699 -0.319554951503919 2.19418285614107
-0.114516027742005 -0.321851035954939 2.20111236993643
-0.0697670546341906 -0.32442346850912 2.20712740497792
-0.0274210062473094 -0.333168239409164 2.20541190128464
0.0138468143441218 -0.325100018295415 2.21648010559668
0.0593492806117954 -0.311249847442801 2.21865350590786
0.103884353573343 -0.288032977388473 2.21346486531613
-0.324664187182259 -0.259614388525893 2.18822797772468
-0.358122032175153 -0.236884161737443 2.16322804509323
-0.283477980284594 -0.275351644940894 2.20832445273676
-0.234323007164524 -0.286057802292593 2.21874709742637
-0.185517451348254 -0.288114328946774 2.22638260858055
-0.138002887213791 -0.292578810239646 2.23073595567188
-0.0864737697398773 -0.293385776687071 2.24019301813928
-0.0315143803994452 -0.302169800471698 2.24097745008528
0.0188601879533485 -0.294854090891966 2.25063753345008
0.0691507762724193 -0.278663959623479 2.25020121586977
0.113578140549452 -0.251578477667965 2.24387756347314
-0.308922237891001 -0.238047457308867 2.23218483959392
-0.349669485964855 -0.218746820793381 2.20237215990046
-0.259458507815325 -0.255563225907941 2.2458700504211
-0.212000045648573 -0.257949944517046 2.25644945796821
-0.166426994785414 -0.25893720578 2.26449263596093
-0.122393139446721 -0.266267276459571 2.26477856400009
-0.0889699800993132 -0.255158720645147 2.28456841958207
-0.0539474125166448 -0.273148365395792 2.27052028334758
-0.0116472875580678 -0.269827731335987 2.28148338837898
0.0361811860773064 -0.26281159890084 2.28314143673858
0.0839998394702211 -0.243197122682946 2.28006790824743
-0.312459170378782 -0.200205665455353 2.27487197329826
-0.340559747768458 -0.20052107195642 2.23999282935656
-0.2792693868882 -0.225923748792252 2.27052272321065
-0.232132327333532 -0.228752689035446 2.28665572143293
-0.187378555183988 -0.227634188712063 2.29701383020883
-0.138401557799468 -0.232300705561288 2.30142413889332
-0.0930002188634376 -0.226936617992764 2.31688948510261
-0.0454465887428606 -0.239435719746006 2.31181685967612
0.00258552717544801 -0.239007223030956 2.31712038378517
0.050258926893009 -0.230913298977225 2.31404730539664
0.0974475224576929 -0.207774204591915 2.30829270213834
-0.302046592922812 -0.177916540085608 2.31162061808926
-0.346390680258183 -0.163513156067389 2.27742232016061
-0.263099863436126 -0.201740585585923 2.30820729239578
-0.217157684695097 -0.196193589929948 2.32791196566686
-0.167057564815079 -0.200435114260401 2.3330491135489
-0.121238702189751 -0.200254980657231 2.34251310813926
-0.0696488253811916 -0.204048077593538 2.34847641288658
-0.0246285884001981 -0.210150434600725 2.35001308726069
0.0217133687442233 -0.206786529572043 2.35134379834227
0.0655384600165662 -0.198442732596702 2.34274549600953
0.101632739531053 -0.172305511063416 2.34324951272555
-0.297621712546324 -0.140466902887646 2.34987857358083
-0.331460848066821 -0.147459998133629 2.31629650812758
-0.263862751801122 -0.169937609407969 2.34343858044443
-0.229369961807465 -0.15882254338398 2.3619131615692
-0.186534919109097 -0.166993645431474 2.36295072282448
-0.141392433032189 -0.167199565958455 2.37060640937323
-0.0941331936336676 -0.170439420107902 2.37623731219281
-0.0454652493761672 -0.174425245201575 2.38153580717455
0.00285763951799699 -0.177121445703055 2.38297479736843
0.0543550217542329 -0.170378761526481 2.37565607433022
0.101349606288801 -0.138255152558444 2.36983060900186
-0.339230585020441 -0.109438042778709 2.33572141370419
-0.260561396359531 -0.122372359321827 2.37690612743388
-0.304390966659057 -0.0976903718103731 2.36767815556335
-0.211065946590122 -0.123064462539879 2.38604130155699
-0.164965580147689 -0.127688939740602 2.39078208276829
-0.118260881716751 -0.128661756211586 2.39727660904731
-0.0723971745726387 -0.133158984073211 2.40205075164674
-0.0256647025566712 -0.13754654436178 2.40671222383812
0.021012511233555 -0.138632608035303 2.40450306959304
0.0652605703329146 -0.131303697641514 2.39467133285026
0.0466481133911849 -0.0937522152831458 2.41373048247141
-0.277746075146303 -0.0716094233961974 2.38727394929799
-0.235182777095192 -0.0809390480226667 2.39658581658342
-0.186114979043949 -0.0827429739186793 2.402625824097
-0.140331452789417 -0.083828042755446 2.40834301696764
-0.0940143166105734 -0.0852258837707927 2.41404377776654
-0.0493637293558937 -0.0918494835515129 2.41853634693763
-0.00160148303866575 -0.0959615309102038 2.42116624375164
-0.245740177733742 -0.362325505045347 2.02399819246665
-0.269736779394784 -0.346376650707853 1.98951886922731
-0.2463376305288 -0.337006574052551 1.9524456843517
-0.196061435226441 -0.368383799454024 2.02417187537022
-0.217852304445351 -0.357009866434364 1.98377624573843
-0.149980651672529 -0.370800659684033 2.02329834363859
-0.169707336949678 -0.356693385656592 1.97816149901592
-0.104532364908441 -0.373631201920144 2.02560272270004
-0.124379713706838 -0.358034668575665 1.97870589711121
-0.0591526398070811 -0.377413543734803 2.03302253975453
-0.0767565570671722 -0.361743998016113 1.98456505240665
-0.0141810364026012 -0.381584669061204 2.04311085040308
-0.0309749195719008 -0.366709646099688 1.99343044017942
0.031877646337139 -0.380397544828575 2.0516724475284
0.0133020031618957 -0.371294655158132 2.00441400108468
0.0611752621527231 -0.364602654233534 2.01378642842354
-0.29746657830317 -0.343033541603684 2.03313251678193
-0.336235204487645 -0.311900233324298 2.01915933406112
-0.306603222176671 -0.325215408295267 1.98578363520979
0.099198792410147 -0.354242664006668 2.10733253834406
0.0749580748708478 -0.368958301045814 2.06163083941818
0.114448128547125 -0.347375896334116 2.06496729105206
-0.374435312668396 -0.258832503493593 2.08889817840625
-0.384957797204571 -0.243312898887241 2.04022234903429
-0.361795610323979 -0.286367122178944 2.05042325412436
0.120110690860561 -0.328016618074451 2.14264744182632
0.140595276136033 -0.32342654174391 2.09847552079755
0.157509101003429 -0.293829094936145 2.1276957491645
-0.376745459073574 -0.232298998861765 2.12215271326301
-0.392828024954827 -0.213405291728939 2.07699366602489
0.133799489201304 -0.294033309690633 2.17311208778318
0.164556386400534 -0.25652946187263 2.16077824432219
-0.380700240196979 -0.196020328128361 2.15842474713324
-0.393529776992152 -0.185966177690228 2.11525729352999
0.14141210567701 -0.255533669720168 2.203674237291
0.170725232512789 -0.21627737090226 2.18767280325437
-0.37523857474325 -0.179396779798415 2.19736624352711
-0.396006728991776 -0.148496110793565 2.15709641077153
0.149819614514011 -0.216184092517061 2.23173309519884
0.174894602869119 -0.17614974798682 2.21657818823689
-0.367413682702021 -0.163851958462733 2.23735136685047
-0.391506975338926 -0.133655913209105 2.20343507634055
0.126644563593655 -0.212142736284733 2.2713528734875
0.158853305136096 -0.172830014463303 2.25963898151075
-0.381445332834993 -0.124878368637744 2.2521121128919
-0.400027429227444 -0.0887706846887749 2.22316907824618
0.133824649210085 -0.174155154869337 2.30239937523486
0.16371518218535 -0.134642873115438 2.28790677746721
-0.36590914611521 -0.119881773012332 2.29398871440592
-0.390492064535635 -0.0806268136441544 2.27114470512695
0.137067430593411 -0.13880221954883 2.33306889378544
0.160454811093544 -0.0998013564170504 2.32182730522695
-0.369065892914177 -0.0760154815464445 2.31437074758902
-0.336998587820426 -0.0668858103154248 2.35250112415729
-0.357046074581425 -0.0324064804681842 2.33508499976485
0.0938115092276881 -0.0928312657726812 2.3929229234803
0.116815342014482 -0.052427107947885 2.38128586411867
0.130575112760352 -0.0986545750983325 2.36198481870979
-0.311690929838373 -0.0404206169967591 2.37341968481688
-0.259266963124526 -0.0308019405806351 2.39585511099931
-0.291444404232911 -0.00178416482912589 2.38036230779422
-0.209603736813048 -0.0396083462415111 2.40400071304404
-0.162367991113429 -0.0366930940276507 2.40927922587726
-0.11574500437237 -0.0380740450940526 2.41454110040021
-0.0689077876172733 -0.0395196288356964 2.41980872977992
-0.0258687751338295 -0.0502850946234933 2.42497547825664
-0.000676615435583769 -0.0133652259764018 2.4213728089935
0.0248323624546754 -0.0534583912201691 2.42287063599627
0.0735195382606132 -0.0518359489970032 2.40795513441992
-0.258151539935926 0.0275465562000168 2.38439145780547
-0.226356716059 0.00323707368996089 2.39743444901641
-0.182271879224509 0.00866962867670167 2.40038419198696
-0.13617738820748 0.0087349574741693 2.40471443309217
-0.0894762888078693 0.00673805633682607 2.40965022185541
-0.0410558811672552 0.00503205276686464 2.41464475393921
0.0146650650269025 0.0247450832339279 2.4080285702936
-0.334550923441633 -0.293029098679546 1.97079277224846
-0.318429447200108 -0.277625849621627 1.93244361835618
-0.287552290264792 -0.31388459095372 1.94455109313849
-0.238802821372141 -0.312916540092882 1.91755273422141
-0.196646237458738 -0.337399901434875 1.9424609639086
-0.146158958101594 -0.332398817201274 1.93588840895621
-0.0961340259120501 -0.33764221091933 1.94366088936782
-0.0440445570046972 -0.341703730673923 1.94990525981111
0.00131130665480168 -0.347399609746651 1.95832315641832
0.0454628586773665 -0.351193344105717 1.97414982134217
0.0877642652987744 -0.332826909034497 1.97388342009403
0.100657004476261 -0.348223635994347 2.02126073338241
0.127054605175585 -0.321122623085844 2.00440776789701
-0.364506496822254 -0.272473583743445 2.00501375034889
-0.382470208931212 -0.225712039919853 1.99384005313173
-0.358921496966597 -0.251180234917995 1.96264041106096
0.14376001979576 -0.319940769381103 2.04902454444113
0.159435774067802 -0.289940587811395 2.01878172999229
0.169526330273359 -0.288671223689514 2.07401792695758
-0.396817451334313 -0.194214146768372 2.03156350123029
0.189030418929693 -0.24627358673865 2.07289305333419
-0.399946800327921 -0.164489924501431 2.06529074962831
0.181193396678429 -0.255694527388814 2.11508902788745
-0.401004526124252 -0.143931490870804 2.10883747667862
0.186604471758806 -0.214552745154518 2.14038970272154
-0.40328580160019 -0.104734707029201 2.12583419473469
0.188982655006646 -0.175207341098391 2.16584324538459
-0.403182225789572 -0.0986943380171414 2.17332350207066
0.189438186459524 -0.13888153138655 2.19446407112171
-0.406578167783935 -0.0517517851176136 2.19350410474367
0.181639241931272 -0.128004234977537 2.24034544977444
-0.402716110208041 -0.0426118906081888 2.24423815375059
0.181654726794975 -0.0902936584917005 2.27455049237528
-0.385856489552293 -0.0358342188438493 2.29250265448145
-0.392549829131927 0.00246501402512087 2.26492214388212
0.150009812734808 -0.0562072446356623 2.34717358582743
0.174260162377008 -0.0582671927086847 2.30598338614149
-0.368761156742164 0.00680194737283849 2.31121816752422
-0.333856330465286 0.00120814067302726 2.35221864673101
-0.341101027556829 0.0436389265568867 2.32601187176097
0.0491785689742458 -0.011102061592135 2.4122307070234
0.0956061790780622 -0.010231742617325 2.39053155344705
0.134447007259904 -0.0109401041393759 2.35837706644908
-0.304237016300435 0.0390216414645514 2.359209546551
-0.263851963026364 0.0658170995162864 2.36331453289059
-0.211249761655227 0.0496532245154343 2.38228567028051
-0.162216862781792 0.0519004706631047 2.3848278563121
-0.114860307089154 0.0508999292891593 2.3888706578023
-0.0674719557214943 0.047762080816206 2.3940965532869
-0.0214817171896436 0.0484943306475264 2.39696158015728
0.0320776125776674 0.0603155452788087 2.38458729446001
0.065991560881619 0.0283409948247402 2.39186386883929
-0.307366849926946 -0.244607130970804 1.89817704007311
-0.275728248330328 -0.283998504240413 1.90621652773993
-0.227316367067334 -0.280202446038003 1.88599941192927
-0.189846785628266 -0.309045253931926 1.90826881184429
-0.14626456877233 -0.296572078782467 1.89929339293412
-0.10598103520473 -0.304401275589996 1.9080826827039
-0.0589092771768473 -0.313329275019713 1.91823082915275
-0.00272465420724619 -0.314323710408119 1.92188381546836
0.0449020971629478 -0.324206369015677 1.93881033946971
0.0900460230899134 -0.300274778161664 1.93861030923008
0.128089881040437 -0.296703165329873 1.97085658002253
-0.370907441048057 -0.198510540491089 1.95067577335426
-0.342973477263182 -0.235299856395896 1.92825186839724
0.16071224042592 -0.260771966183198 1.98216442296477
0.181005144442828 -0.254468090517798 2.03054968220925
-0.389979026301643 -0.177994313742887 1.99113457310082
0.197359922460621 -0.20709804211834 2.04619327401618
-0.395409083302101 -0.138187383503765 2.02158669194187
0.196459553681956 -0.206158241267425 2.09597937143728
-0.399324729277523 -0.116133134807258 2.06994584276183
0.197007460982954 -0.164455002157219 2.1192699113689
-0.398600911669206 -0.0732603540217204 2.09135125144247
0.19661628246109 -0.126191644775314 2.14740255451221
-0.403460070888949 -0.0592555097058077 2.14279897893712
0.193534653789688 -0.096598668905338 2.19337720921336
-0.402466427771002 -0.0145625100766634 2.16295863822252
0.190448466875539 -0.0763166937105491 2.2333641613794
-0.403838608720462 -0.00566914298526433 2.21460500641255
0.185465247577236 -0.0338364560014874 2.27003258895145
-0.388936336045613 0.0388131187771609 2.23494234912548
0.164238851059466 -0.0156791821698806 2.31821544013187
-0.370130198575699 0.0445818120548391 2.28268793107115
-0.337387197910499 0.0812844790568289 2.29602033323205
0.108248997872001 0.0302865438876771 2.36415574584534
0.143463758296075 0.0272641250619257 2.32778322726721
-0.303383936824586 0.0783305424755213 2.33283898664573
-0.259930833965704 0.104855487259721 2.33241226995917
-0.224197507075598 0.0857733821167729 2.35803834202802
-0.179311070787694 0.0898079950955802 2.35727880171757
-0.135192437983293 0.0903496677701463 2.35906032808112
-0.0884406719702387 0.0864752159887191 2.36477677392221
-0.0451324278345211 0.0863937126229699 2.36705371509018
-0.00250574590925558 0.0845587129897598 2.37028236146109
0.075220291710184 0.0671760031008412 2.36156569386968
-0.304126933369693 -0.209220298171476 1.87042331759964
-0.265482661520827 -0.248259224721974 1.8736887051809
-0.218605926255467 -0.244834035867717 1.85537277839097
-0.178809360620831 -0.271300175437677 1.87588793395829
-0.125015456304163 -0.261859855973587 1.87050504154017
-0.0790440227805012 -0.274361024521631 1.88360496515494
-0.0333104181040003 -0.28614399902255 1.89607496516313
0.0100352853635039 -0.27393270786896 1.88777567138176
0.0477823727215489 -0.291197596182753 1.9092590950497
0.0942755165741362 -0.264901982863168 1.90720169818729
0.131009495112279 -0.264190459874567 1.93990779396156
-0.366102320469419 -0.160080029551403 1.92159662802399
-0.341611994841769 -0.200353759268801 1.90445776588843
0.166484605582056 -0.226107417883075 1.95224945150143
0.186642319707014 -0.219226111599286 1.99879897749348
-0.385281865769858 -0.14471960917811 1.96641691309698
0.203488143811687 -0.172147593642248 2.01865845138388
-0.388888137941142 -0.100021686765394 1.98945276728156
0.20269947070533 -0.16266223769607 2.07084278778193
-0.393253714417087 -0.0858497764098566 2.03663864881309
0.203001084673184 -0.117417763249188 2.09746459006953
-0.392618315498652 -0.0409357498744244 2.06013691771931
0.200291300282828 -0.0816407462063622 2.14418277661476
-0.397227564028262 -0.0256594539121446 2.11015488776673
0.198355812169374 -0.0516554326635076 2.18042132896581
-0.396378352368895 0.0201432556151579 2.13235978872384
0.194718941107678 -0.0337364693331457 2.22339572199288
-0.397745815179674 0.0304666184187314 2.18450498454174
0.190999613569019 0.00870939145945999 2.24015949749946
-0.382750135334535 0.074589298900114 2.20461533297532
0.172859029687286 0.0155402122386298 2.28533503731818
-0.364131042633502 0.0804545585390098 2.25231172963543
-0.330434198151183 0.11770516134145 2.26588472550183
0.114911152740129 0.0680579079075306 2.33222076736417
0.15087650574363 0.061909219022964 2.29630600887502
-0.29715408980031 0.114539341150746 2.30220178798869
-0.248601218284316 0.139602997475686 2.30479486958724
-0.208282431671956 0.120640920782345 2.3292698546451
-0.157339784791606 0.127513205096553 2.32595198995096
-0.104631953372653 0.120940513224876 2.33429379201474
-0.0562536056488627 0.122553132132121 2.33537144909195
-0.0101566607225875 0.120467901709086 2.33951452712003
0.0377387815658733 0.099565286056236 2.35181400909538
0.0790414023227162 0.10549534909645 2.3304612298628
-0.298667212829653 -0.174444886536789 1.84124828712386
-0.2606438230447 -0.212501067870289 1.84387856345409
-0.212710951313973 -0.21101126894681 1.82654918447464
-0.167748827686452 -0.237884950700675 1.84769596254828
-0.120567729298628 -0.222704140340777 1.83703748978079
-0.0784648904856862 -0.237314064855709 1.85175544838786
-0.033783710021253 -0.250968152555665 1.86578131718044
0.0125225381658167 -0.236325616375326 1.85554059078799
0.0557546326972755 -0.253948426868257 1.87802670983404
0.101170411333755 -0.228623672541029 1.87674930656652
0.137035975334786 -0.230055085256183 1.91101735104716
-0.359715002580818 -0.123639653874816 1.89031101281924
-0.336326386566762 -0.166532903593111 1.87635323428715
0.172742904909922 -0.191227660049751 1.92307070747411
0.193136060580914 -0.183395410446048 1.9696199493683
-0.378968001624241 -0.111353094946509 1.93594767057959
0.209523386884659 -0.137398094709908 1.99031906158802
-0.382651319686666 -0.06686504209016 1.95655880958504
0.208558549768502 -0.126690027586316 2.04306200663109
-0.387041147386523 -0.0477803196556216 2.00713113989878
0.209809931372986 -0.0816536095271571 2.06126744390902
-0.38720558058732 -0.00376368817229816 2.03700558890765
0.205735892898925 -0.0674233937665118 2.105948179522
-0.391183975143894 0.0107641675438801 2.08105372298893
0.205144010764798 -0.0255563890228516 2.13816539127804
-0.390098149277293 0.0548757023267648 2.10010650153395
0.201199758629551 -0.00315264920280343 2.18699681176905
-0.391855592636144 0.0650292362011921 2.15347554019591
0.198075956934269 0.0416406351154396 2.20710537123892
-0.376668037112413 0.109579702552299 2.17509459966001
0.178308315454468 0.054093863166058 2.2549584399644
-0.357498468833054 0.116327430480058 2.22276334931632
-0.322194939173872 0.153469352196374 2.2380466332181
0.12026521670786 0.104445554455809 2.30203578378447
0.156213080397646 0.0988350058153024 2.26623070301242
-0.287422251543781 0.150025540469634 2.27466281407808
-0.23911654481246 0.174456994801426 2.2762769328535
-0.197654341915586 0.154629822979816 2.30056277347092
-0.152825650613633 0.16905864656828 2.29043173107602
-0.115609868674578 0.152659993492446 2.30643902681775
-0.0679297602477406 0.156059633220893 2.30594318700308
-0.0175512366062655 0.156725978859099 2.30793695935612
0.032614193051619 0.136232227866097 2.32326164099969
0.0802910749569783 0.140934161965216 2.30282716188937
-0.292499584592089 -0.139595456702536 1.81141501581228
-0.255118355214629 -0.177096820255329 1.81400313480315
-0.208842159208578 -0.176175086896303 1.79727760519048
-0.164477676850231 -0.203175115266465 1.81799475965451
-0.114822931774262 -0.1856900866665 1.80547827790847
-0.0727381111551694 -0.199469421398938 1.81948019394844
-0.0307320547584227 -0.214703566194267 1.83473068913214
0.0155037594388767 -0.199042768433655 1.82360984433447
0.0590842946173232 -0.218593039723886 1.84705491123645
0.104323268203588 -0.194460591098479 1.84581835019741
0.143191800172709 -0.195420192963224 1.88175412124558
-0.354788850446352 -0.0865997167825724 1.86176670273211
-0.330206931773954 -0.132249554498368 1.84685531192155
0.178642929075334 -0.156485745157013 1.89332637770467
0.199257989087305 -0.148136710467489 1.93982220950125
-0.373097125780738 -0.0741241533628137 1.90613185924755
0.215365310818821 -0.103037408402944 1.95961032727249
-0.375857064802132 -0.0265074222590351 1.92346408782868
0.214941094872921 -0.0909726725731642 2.0105465978092
-0.380519876393293 -0.0207900716194524 1.96777567896158
0.215602992261993 -0.0432741645846739 2.03561079930293
-0.381920007657722 0.00895107248633742 1.99918825034186
0.211047493960115 -0.0297546339362071 2.08403353346021
-0.384343917467229 0.0468659745323069 2.04480898327197
0.211594648943561 0.013728526265841 2.10736964027491
-0.384224817581948 0.0889104528496661 2.07094383753287
0.207159151287381 0.0271470530319814 2.1546771614208
-0.385954102852274 0.0993406272713659 2.12426382387933
0.204590620701175 0.0744717047417367 2.17591490782144
-0.369724505734395 0.145134946543629 2.1483486191822
0.185206843160854 0.0882929616356594 2.22371309886608
-0.3502387802315 0.151846199895944 2.19496594113517
-0.315183908689574 0.188581339724658 2.20933063228897
0.124939932971018 0.140020995275935 2.27300784711455
0.162467892837241 0.133676766506268 2.23619983337302
-0.279463140541699 0.185026253732323 2.24622496844661
-0.232999878466015 0.210037962518267 2.24597029042746
-0.190951750615794 0.192213817447022 2.26856299880363
-0.14042460200266 0.205752865710059 2.2594868654773
-0.100895634115394 0.187892741593013 2.27687027864304
-0.0526328834017612 0.191062139881379 2.27660197090283
-0.00455930741778392 0.19226062651117 2.27802017113939
0.0358216458445224 0.16958221286312 2.29533498462483
0.0873403871944101 0.174102605090528 2.27388429610828
-0.293824363491193 -0.102764075702026 1.78714075204458
-0.248792650245555 -0.140811561183927 1.78305423266163
-0.200921359366758 -0.142243309338602 1.76800797971217
-0.159460356263242 -0.170086728142055 1.78977708417206
-0.109707851152933 -0.150310456338794 1.7753429255609
-0.0660573845725032 -0.161361618139204 1.78702849530191
-0.0261481405452032 -0.17614167591854 1.80178010786491
0.0173152370061335 -0.161302141983913 1.7912361086031
0.0617817599706663 -0.183568168281094 1.81626250291746
0.108343493715283 -0.159861112429839 1.81509732500792
0.14546785381422 -0.163471877708445 1.85079141850176
-0.349495989243024 -0.0489465383572259 1.83310376918107
-0.32754019686708 -0.0958903661908397 1.82074257743138
0.179126928726726 -0.127268797749778 1.8597238421673
0.205091375091356 -0.112868668065263 1.90884256187829
-0.367064889952473 -0.0356095741332034 1.8754866699566
0.222229284834263 -0.0649541387515605 1.94021042648987
-0.369689351148924 0.0118950377071143 1.8984861144353
0.220654311284269 -0.0525594326208449 1.98561305468748
-0.374895280815023 0.0247759913291092 1.94823190128303
0.221642322129447 -0.00594238622913608 2.00585488655327
-0.378454826319537 0.0506021870769212 1.995928241499
0.217172667604355 0.00656327779121958 2.05415264348707
-0.377662615334612 0.092904168585263 2.01636174096001
0.217869544591919 0.0504646106852027 2.07598683155523
-0.378952522980086 0.127353704463007 2.04994582579307
0.213348832274087 0.0641282116820976 2.12466230009881
-0.379601911376687 0.134924198438327 2.09969159285601
0.210453401775522 0.109678479110345 2.14656636539371
-0.363475120801495 0.180340291495731 2.1191666252859
0.191520963915616 0.122408564316752 2.19371226368103
-0.343419650757856 0.187446625400782 2.16609633244201
-0.309161814781303 0.223630409406607 2.17947044090663
0.131614521627291 0.174957408003272 2.24266540578208
0.168701729648065 0.168582429801005 2.2060922990075
-0.273726642545626 0.219946868593919 2.21629298337329
-0.227534641565434 0.24515914872255 2.21581601150681
-0.183831378782834 0.227891128443847 2.23822457165264
-0.135231599502282 0.240082452806116 2.23018379997477
-0.087572987708235 0.224997475942276 2.24561954744231
-0.0375661030312291 0.225928182425748 2.24736667060404
0.00894435983641856 0.226338837391451 2.24938316145111
0.0481043087221803 0.202634735701883 2.26584492549252
0.0942965802922274 0.209075023370099 2.24360389136752
-0.256531148659682 -0.102778317971143 1.76158816942191
-0.21500454640028 -0.106120383441012 1.74788023186061
-0.168604315086616 -0.103197939274842 1.74166742370856
-0.153617151019538 -0.137224072002949 1.76266180292766
-0.116441545714775 -0.109180535145262 1.74840625506951
-0.0696565616302904 -0.121097993685921 1.75813316532643
-0.0227546446341809 -0.132282789471999 1.76794320790094
0.0251270030764607 -0.121361871068844 1.76548478203352
0.0646783625760634 -0.149337349179422 1.78759405651772
0.109034937923387 -0.123069433476276 1.78793774979612
0.149446348644645 -0.127451989186504 1.82063754091112
-0.337275741170542 -0.0114780624343013 1.80855231883572
-0.32049740215627 -0.057958508067823 1.79323997415466
0.198078641386898 -0.0898936496172863 1.86325775152106
0.215760703474765 -0.067684999179749 1.89705530550154
-0.357508310242962 0.00406139558777107 1.84829375980242
0.221130431242569 -0.0244950028750964 1.90861287375372
-0.354704234321514 0.0480138877894001 1.87030315739737
0.223972800266571 -0.0136456145215013 1.95418920155319
-0.36439986559378 0.0606718441716307 1.91545889601892
0.220364677973059 0.0295479689000989 1.97390679734264
-0.371352366825659 0.0770787058646782 1.96161865483551
0.22056780016423 0.0438691980934474 2.02181858683925
-0.365451910994006 0.122373329004165 1.97739401393223
0.217358060241368 0.0859019492677667 2.04474666140615
-0.368537930414207 0.148898197350316 2.01379408331895
0.217192691632507 0.100445208082358 2.09236116421018
-0.37249699128494 0.169271500701648 2.06880792262849
0.211156973359629 0.141609653643614 2.11538732408465
-0.354818509263095 0.210129345583542 2.08454825664688
0.1956826705732 0.157308348209119 2.16384582485813
-0.337382369320973 0.221097382031916 2.13419571881149
-0.301904669868168 0.253630426688813 2.14667346780274
0.136553434594503 0.209923644445718 2.21093082097696
0.168456236649407 0.202755207120462 2.17379731398719
-0.266468872465908 0.254167782066497 2.18565451460326
-0.217925519701462 0.276987108417046 2.18062449628384
-0.18061410395401 0.262685163311385 2.2054935613671
-0.138831161816152 0.271572398605737 2.1949708862259
-0.0946764445562874 0.261656591961631 2.20889498448389
-0.0500069357862819 0.25737376264799 2.21523533221225
6.64687930039265e-05 0.256879892206194 2.21687910312874
0.0520480772774308 0.23897472251821 2.23347817258507
0.0973996963437343 0.240452378410268 2.21088140931841
-0.282021494579277 -0.0621564801983374 1.76070755891819
-0.236642198225412 -0.0627341004550115 1.73835106200416
-0.18897307447689 -0.0639070006909735 1.72869787128375
-0.137101774885432 -0.0677985789442495 1.7316075261416
-0.0865717429663722 -0.0743558968500356 1.73812351003824
-0.0404123603535595 -0.0842843543743568 1.74524445948278
0.00369912272340651 -0.0837914879330822 1.74922486052057
0.0507053746771636 -0.0734578996581263 1.75141908353193
0.0712593883971434 -0.108665749477001 1.7662526115388
0.103174964313985 -0.072976290858008 1.76594920030047
0.139739065315653 -0.0906065957787912 1.79228440951437
-0.302096936668334 -0.0204666787113542 1.76986324135616
-0.277042354982374 0.0216000844975062 1.75671957080067
-0.259580170337936 -0.0213082261242992 1.74246883085405
0.149829942643467 -0.0495336678303499 1.79039147303969
0.176092074017243 -0.0836890989904564 1.824878575933
0.179267341208607 -0.0361513994288987 1.81865064725177
-0.334371054285222 0.0424951077204343 1.82131758289668
-0.314533805814817 0.0208191777355215 1.78688799240518
0.203471148352945 -0.0427310242853793 1.8562766574504
0.208654604977523 -0.000863745216455054 1.87401841369904
-0.331231971494652 0.0797584383210464 1.84834987950247
0.21444274281855 0.02433165938054 1.91776677486294
-0.341148741144658 0.0989870488926523 1.88809391715838
0.209329625553859 0.0611161876474095 1.94597958007655
-0.353643960209413 0.108964443733336 1.92797200374383
0.211885830383047 0.0813015921989771 1.98856150883701
-0.342735043518353 0.148102649584652 1.94239174969747
0.206911329434366 0.11796248828875 2.01645346268048
-0.346654809261056 0.175798683082066 1.97940834585423
0.209265750094102 0.137967609090641 2.0588171417707
-0.360162243436279 0.19006465171191 2.03232808706726
0.201623128359511 0.173162689256764 2.08599334345751
-0.326509258933289 0.24699081244457 2.09709090089033
-0.338420382031826 0.232253941754386 2.04827329855477
-0.307626147322311 0.265246213692953 2.05507320083252
0.192137166097757 0.187647377218644 2.1305506577798
0.178696024717045 0.214300426287276 2.08754033814917
0.165435623684283 0.22611348717111 2.13304583690487
-0.258800358442771 0.279949613538291 2.14931214590449
-0.29260957811852 0.274176807417967 2.10792722401966
-0.250837187583579 0.296127250342348 2.10722069700685
0.132712458504078 0.241596515055056 2.17255101633915
0.100235135832108 0.274281100662524 2.13732120792739
0.0879590742765008 0.266446057410961 2.17603338491254
-0.211655207629888 0.297669642472789 2.14100986366459
-0.167652184561002 0.291812017619015 2.16062126149522
-0.114732025494679 0.289603152472714 2.16294620496991
-0.0702451423027009 0.284669345189453 2.17162447925429
-0.0264196951504541 0.28145280206963 2.17657995524192
0.0163212903832384 0.280770960092594 2.17596270235451
0.0495675988746404 0.265966740046169 2.1989023730041
-0.21075670642456 -0.0212138738263466 1.72645503208101
-0.159462474168502 -0.0249257674299741 1.72349097740254
-0.108681018446219 -0.0289371737180004 1.72914899969997
-0.0607940158521547 -0.0337349806536826 1.73469451817564
-0.0159536150166433 -0.0372588893752795 1.73985062419011
0.0281162631756322 -0.0330523498987628 1.74473228802025
0.076707678643038 -0.031653207782618 1.75252478089563
-0.232829894972567 0.0198732920451559 1.73591051345278
-0.205713945842995 0.0573520877438536 1.74081865788604
-0.181429181388278 0.01831217821358 1.72654650001672
-0.130622459338724 0.0150655538377606 1.72965608274463
-0.0829467886458833 0.0140029210839881 1.73559100031932
-0.0356671174384885 0.010619447147551 1.74104316059228
0.00910576425811976 0.0121174848542622 1.74717990937407
0.0560451796056667 0.0113877385129371 1.75328031018941
0.104198896700846 0.0124456786228096 1.76793610681196
0.15133567183346 0.00310659861829803 1.79516428697088
0.12022459951928 -0.0279819379124393 1.76998245659978
-0.295167423920844 0.0607807722989946 1.78567466916655
-0.263310953012054 0.0993085248214274 1.78887657450675
-0.252612737371484 0.0620871697739062 1.75804737282175
0.127156023792476 0.0455240869473002 1.79307858553656
0.185250140638346 0.00545036076250863 1.83279189411901
0.163246913914646 0.0456827111148278 1.82497449788537
-0.303079397133152 0.0909447294152014 1.8173902068883
-0.269902244001726 0.129284182288887 1.82563323142061
0.193625904468408 0.0406880563669683 1.86822345078465
0.165610420591907 0.0797851426890859 1.85989966190659
-0.307772160382591 0.12260126604414 1.8577375861061
-0.276993609347849 0.158639859463871 1.86425404446391
0.192504050500485 0.0702734034281508 1.90205729373729
0.163578301617435 0.111122410872189 1.89603372441407
-0.318937955527993 0.145979369525707 1.89849912555662
-0.281919725500159 0.185869629331286 1.89884548844391
0.190998084536805 0.101935079837665 1.93981443828578
0.162449644137582 0.141485286982329 1.93238862037889
-0.31591621898576 0.183285701872192 1.9343735894707
-0.280083833245424 0.21880090435116 1.93375707504771
0.190220319869372 0.129439012629144 1.97403167423674
0.161685726875462 0.171198359465789 1.96853085271185
-0.313241616764143 0.217220196738318 1.96751952561885
-0.279589418081738 0.253352175931902 1.97341515123403
0.189061487801985 0.160545147530858 2.0120255521609
0.160373293725287 0.201122699890707 2.00405853954001
-0.336777241344091 0.215447052782959 2.00389699867767
-0.307659410689144 0.252222328777083 2.0096031702932
0.187263099570844 0.188494101089349 2.04572654295873
0.157057581385407 0.228370128023703 2.04132502309852
-0.274505647265702 0.288254760536055 2.06674051882634
-0.269434557865999 0.282041697754341 2.01838598387696
-0.23699141401384 0.302416537898933 2.05303276512819
0.134816954067691 0.255915135391994 2.12622208286265
0.148530459855091 0.247037780752343 2.08400040351873
0.108494013515612 0.274369990040712 2.08528875320837
-0.212479821755015 0.308210260834349 2.09315731885137
-0.186926269586274 0.310775936701799 2.05741666477366
-0.171945533927721 0.307858153860791 2.1117164834881
-0.142992283816559 0.30920994151191 2.07078835350215
-0.129466239169502 0.303864470992304 2.12078303057012
-0.0988637887705773 0.305935163920426 2.07584725444041
-0.0826609658364745 0.300945765565639 2.12345988205141
-0.0539949977363557 0.302540050030418 2.07915124169845
-0.0383521618886794 0.297490575321886 2.12938116224199
-0.0104095940225371 0.299243833084276 2.08273222242269
0.00617747976095652 0.294811937007601 2.13128002514811
0.0338171357591182 0.296067845766282 2.09051373688816
0.0519121099005486 0.287677819940517 2.14596179311617
0.0715931925937162 0.289223186757589 2.10281746470066
-0.175068344867152 0.0901428265959784 1.75517898888366
-0.152425255515028 0.05643674174969 1.73877879175294
-0.106713287410521 0.0588064017038435 1.7463914735875
-0.0579576655678864 0.0547287865647105 1.75178435727947
-0.0130649347763565 0.0565035177303608 1.75928068207025
0.0323320459814306 0.0557358744354173 1.76575405521328
0.0783813286605446 0.0517226530712679 1.77283351762376
-0.220143155580346 0.0977708449837665 1.76725584326075
-0.177671098585254 0.124351495590891 1.78328164476668
-0.131554914867942 0.0999937210682098 1.76680359510498
-0.0805764729524839 0.0932174573092286 1.77042707676506
-0.0362819921539714 0.0963786075773644 1.7804263448269
0.00824666375374265 0.0963205911347587 1.78817452410624
0.0534520674533026 0.0935152888838695 1.79383349058794
0.0969338990310628 0.0837426875670073 1.80055550733479
0.13157794413872 0.0857085949763855 1.82569142147445
-0.225214844107842 0.130881289104719 1.80059107547223
-0.18545435037747 0.155271298869398 1.81898605117202
-0.139504565816474 0.139826264416884 1.8048781609485
-0.10024300451657 0.124537287794059 1.79501009791057
-0.0574802686627394 0.129492866515343 1.80930842214219
-0.0137746400778332 0.13006197874292 1.81880245870577
0.0343634234690424 0.126473562476793 1.82430981166867
0.0842512416914935 0.118784685921041 1.83003407933485
0.1290599879505 0.11595686776659 1.85873092000036
-0.232182738316899 0.160583374449211 1.83732792560231
-0.187261424972678 0.185028141088463 1.85356882943746
-0.141169435428175 0.171138127287867 1.84130348189046
-0.0945046937854784 0.155474630717298 1.83233645693209
-0.0475985734838454 0.16180080619936 1.84923485055453
0.00262151475179388 0.157984483935217 1.85489505655615
0.0504506166831683 0.153991291036592 1.85987781863281
0.0925984804731532 0.146136916881874 1.86714495600447
0.12778014101496 0.147980834932974 1.89655067918452
-0.235781216455747 0.189482563904621 1.87176995557884
-0.189899692907951 0.213325557136062 1.88653591903195
-0.140912254010554 0.202702925192387 1.87841358944845
-0.098283327910108 0.18583204257158 1.86721370783668
-0.0604598495047094 0.193982030854237 1.88441956373834
-0.0157152561030139 0.188362167080023 1.88685651356881
0.0323183311343589 0.184877892343478 1.89246463479343
0.0814122018990904 0.178559767176487 1.89984206339085
0.126632230632423 0.176733999101771 1.93051291098745
-0.239113077139856 0.217589843401292 1.90521704849703
-0.196350301975878 0.241256137725406 1.91951279815346
-0.146319054336854 0.232505739837765 1.91231061907414
-0.0970376966585018 0.221017209084422 1.90877474923663
-0.0454849224994814 0.221142718399586 1.91933130582109
0.0027125547792767 0.216682641640484 1.92382752081445
0.0491441925281493 0.213358275931831 1.92936509461464
0.0906874728520903 0.206123901016685 1.93782220668163
0.125715426293029 0.208223249294524 1.96805380850071
-0.243870227637967 0.247797505978441 1.94177511969565
-0.20613769103141 0.269548921822189 1.95431780362004
-0.15914216694907 0.263746437889719 1.94647019847964
-0.112489112841945 0.254211038605015 1.9446255302279
-0.0678074448696354 0.249977958880608 1.94867730369875
-0.0188111367303767 0.247848305150658 1.95607105881461
0.0300234133343612 0.244377125077523 1.96185591169731
0.0791548334553187 0.238675365778156 1.97035155680466
0.124034122065249 0.236407823010349 2.00179300240855
-0.239765903233607 0.279672865850982 1.98328202735184
-0.183289745489512 0.290129148731365 1.9843036808105
-0.134526325400707 0.284396541022957 1.98223048542553
-0.0898582016594881 0.279886314813267 1.98518941884427
-0.0449597136209946 0.275990903144894 1.98934198091981
0.00143918802476915 0.273098802542082 1.99564751580354
0.0465369790295495 0.270267093026959 2.00191433355349
0.0872771038526359 0.26335830255072 2.01137171509146
0.119195833961052 0.260585285481001 2.04449095629046
-0.21491506017868 0.299829351580926 2.01592699968263
-0.160771963700978 0.303451763975708 2.02172503894159
-0.114975203078616 0.300138091429039 2.02729126043839
-0.0698808699509059 0.296378549442621 2.03097721225841
-0.024093679975314 0.292574308678774 2.03480847893534
0.0230766826504102 0.289504325834281 2.04173364666559
0.0700497914192579 0.284232637059051 2.05139625040616
3 0 1 2
3 0 2 4
3 3 0 4
3 3 4 6
3 5 3 6
3 5 6 8
3 7 5 8
3 7 8 10
3 9 7 10
3 9 10 12
3 11 9 12
3 13 11 14
3 14 11 12
3 13 14 15
3 16 17 18
3 16 18 1
3 0 19 1
3 19 16 1
3 0 3 20
3 19 0 20
3 3 5 21
3 20 3 21
3 5 7 22
3 21 5 22
3 7 9 23
3 22 7 23
3 9 11 24
3 23 9 24
3 24 11 25
3 25 11 13
3 13 15 26
3 27 13 26
3 25 13 27
3 27 26 28
3 17 16 30
3 30 16 29
3 29 19 31
3 29 16 19
3 31 20 32
3 31 19 20
3 32 21 33
3 32 20 21
3 21 22 33
3 33 22 34
3 22 23 34
3 34 23 35
3 23 24 35
3 35 24 36
3 24 25 36
3 36 25 37
3 37 27 38
3 37 25 27
3 38 28 39
3 38 27 28
3 30 40 41
3 30 29 40
3 29 31 42
3 40 29 42
3 31 32 43
3 42 31 43
3 32 33 44
3 43 32 44
3 33 34 45
3 44 33 45
3 34 35 46
3 45 34 46
3 35 36 47
3 46 35 47
3 36 37 47
3 47 37 48
3 37 38 48
3 48 38 49
3 49 39 50
3 49 38 39
3 40 51 52
3 41 40 52
3 51 42 53
3 51 40 42
3 42 43 53
3 53 43 54
3 43 44 54
3 54 44 55
3 44 45 55
3 55 45 56
3 45 46 56
3 56 46 57
3 46 47 58
3 57 46 58
3 47 48 59
3 58 47 59
3 48 49 60
3 59 48 60
3 49 50 61
3 60 49 61
3 51 62 63
3 52 51 63
3 51 53 64
3 62 51 64
3 53 54 65
3 64 53 65
3 54 55 66
3 65 54 66
3 55 56 67
3 66 55 67
3 56 57 67
3 67 57 68
3 57 58 69
3 68 57 69
3 58 59 69
3 69 59 70
3 59 60 70
3 70 60 71
3 71 61 72
3 71 60 61
3 62 73 74
3 63 62 74
3 62 64 75
3 73 62 75
3 64 65 75
3 75 65 76
3 65 66 76
3 76 66 77
3 66 67 77
3 77 67 78
3 67 68 78
3 78 68 79
3 79 69 80
3 79 68 69
3 80 70 81
3 80 69 70
3 81 71 82
3 81 70 71
3 82 72 83
3 82 71 72
3 74 73 85
3 85 73 84
3 84 73 86
3 86 73 75
3 75 76 86
3 86 76 87
3 76 77 88
3 87 76 88
3 77 78 89
3 88 77 89
3 78 79 90
3 89 78 90
3 79 80 91
3 90 79 91
3 80 81 92
3 91 80 92
3 81 82 93
3 92 81 93
3 93 83 94
3 93 82 83
3 84 95 85
3 84 86 96
3 97 84 96
3 95 84 97
3 96 87 98
3 96 86 87
3 87 88 98
3 98 88 99
3 88 89 99
3 99 89 100
3 89 90 100
3 100 90 101
3 101 91 102
3 101 90 91
3 102 92 103
3 102 91 92
3 92 93 103
3 105 103 104
3 103 93 104
3 93 94 104
3 96 106 97
3 96 98 107
3 106 96 107
3 98 99 108
3 107 98 108
3 99 100 109
3 108 99 109
3 100 101 110
3 109 100 110
3 101 102 111
3 110 101 111
3 111 102 112
3 112 102 103
3 103 105 112
3 117 114 115
3 116 113 117
3 117 113 114
3 116 117 119
3 118 116 119
3 118 119 121
3 120 118 121
3 120 121 123
3 122 120 123
3 122 123 125
3 124 122 125
3 124 125 127
3 126 124 127
3 126 127 128
3 129 130 131
3 114 129 131
3 114 113 129
3 113 2 129
3 129 2 1
3 4 113 116
3 4 2 113
3 6 116 118
3 6 4 116
3 8 118 120
3 8 6 118
3 10 120 122
3 10 8 120
3 12 122 124
3 12 10 122
3 14 124 126
3 14 12 124
3 133 126 128
3 15 14 126
3 15 126 133
3 132 15 133
3 132 133 134
3 135 136 137
3 137 17 135
3 137 18 17
3 18 137 130
3 129 18 130
3 18 129 1
3 15 132 26
3 139 132 134
3 139 138 132
3 138 28 26
3 132 138 26
3 138 139 140
3 136 135 142
3 142 135 141
3 17 30 135
3 135 30 141
3 143 39 28
3 138 143 28
3 143 140 144
3 143 138 140
3 141 145 146
3 142 141 146
3 41 145 141
3 30 41 141
3 147 39 143
3 147 50 39
3 147 144 148
3 147 143 144
3 145 149 150
3 146 145 150
3 52 149 145
3 41 52 145
3 151 50 147
3 151 155 50
3 151 148 152
3 151 147 148
3 149 153 154
3 150 149 154
3 63 153 149
3 52 63 149
3 155 61 50
3 155 72 61
3 155 151 156
3 156 151 152
3 154 157 158
3 154 153 157
3 74 157 153
3 63 74 153
3 159 72 155
3 159 83 72
3 159 156 160
3 159 155 156
3 158 157 162
3 162 157 161
3 74 85 161
3 157 74 161
3 163 83 159
3 163 94 83
3 163 160 164
3 163 159 160
3 161 165 162
3 165 95 166
3 165 161 95
3 161 85 95
3 165 166 167
3 95 97 166
3 105 104 168
3 170 94 163
3 170 168 94
3 169 168 170
3 94 168 104
3 163 164 170
3 166 171 167
3 173 171 172
3 172 171 106
3 171 97 106
3 171 166 97
3 172 107 174
3 172 106 107
3 174 108 175
3 174 107 108
3 175 109 176
3 175 108 109
3 176 110 177
3 176 109 110
3 177 111 178
3 177 110 111
3 178 112 180
3 178 111 112
3 181 105 168
3 181 180 105
3 179 178 180
3 180 112 105
3 168 169 181
3 172 182 173
3 182 172 183
3 183 172 174
3 174 175 184
3 183 174 184
3 175 176 185
3 184 175 185
3 176 177 186
3 185 176 186
3 177 178 187
3 186 177 187
3 187 179 188
3 187 178 179
3 179 180 229
3 189 190 191
3 114 131 191
3 115 114 191
3 115 191 192
3 115 192 193
3 117 115 193
3 119 193 194
3 119 117 193
3 119 194 121
3 121 194 195
3 121 195 123
3 123 195 196
3 123 196 125
3 125 196 197
3 127 197 198
3 127 125 197
3 128 198 199
3 200 128 199
3 128 127 198
3 200 199 201
3 202 203 204
3 131 130 189
3 190 189 204
3 189 130 202
3 189 202 204
3 131 189 191
3 128 200 133
3 134 200 205
3 206 205 201
3 134 133 200
3 205 200 201
3 205 206 207
3 136 208 203
3 202 137 136
3 202 136 203
3 137 202 130
3 134 205 139
3 139 205 207
3 140 139 207
3 211 207 209
3 136 142 208
3 208 142 210
3 211 140 207
3 211 144 140
3 146 212 210
3 142 146 210
3 148 144 213
3 213 144 211
3 150 214 212
3 146 150 212
3 215 148 213
3 215 152 148
3 154 216 150
3 150 216 214
3 219 152 217
3 217 152 215
3 158 218 216
3 154 158 216
3 219 156 152
3 219 160 156
3 158 220 218
3 158 162 220
3 221 160 219
3 221 164 160
3 162 165 222
3 223 220 222
3 220 162 222
3 165 167 222
3 169 170 224
3 225 164 221
3 224 170 164
3 224 164 225
3 222 226 223
3 167 171 227
3 226 167 227
3 226 227 228
3 226 222 167
3 171 173 227
3 180 181 229
3 181 169 230
3 231 169 224
3 230 169 231
3 230 229 181
3 224 225 271
3 227 232 228
3 232 182 233
3 232 173 182
3 227 173 232
3 182 183 234
3 233 182 234
3 183 184 234
3 234 184 235
3 184 185 235
3 235 185 236
3 185 186 236
3 236 186 237
3 186 187 237
3 237 187 238
3 238 188 239
3 238 187 188
3 188 179 229
3 240 239 188
3 240 188 229
3 229 230 240
3 191 190 242
3 242 190 241
3 192 242 243
3 192 191 242
3 192 243 244
3 193 192 244
3 194 244 245
3 194 193 244
3 194 245 246
3 195 194 246
3 195 246 247
3 196 195 247
3 196 247 248
3 197 196 248
3 197 248 249
3 198 197 249
3 199 198 249
3 250 199 249
3 201 199 251
3 251 199 250
3 204 252 253
3 204 203 252
3 190 253 241
3 190 204 253
3 206 251 254
3 206 201 251
3 207 206 255
3 255 206 254
3 203 256 252
3 203 208 256
3 257 209 255
3 255 209 207
3 210 258 208
3 208 258 256
3 211 209 259
3 259 209 257
3 212 260 210
3 210 260 258
3 213 211 259
3 261 213 259
3 214 262 260
3 212 214 260
3 215 213 261
3 263 215 261
3 216 264 214
3 214 264 262
3 217 215 263
3 265 217 263
3 218 266 264
3 216 218 264
3 219 217 265
3 267 219 265
3 218 268 266
3 218 220 268
3 221 219 267
3 269 221 267
3 223 270 268
3 220 223 268
3 225 221 269
3 271 225 269
3 223 226 272
3 270 223 272
3 272 228 273
3 272 226 228
3 274 231 275
3 274 230 231
3 275 231 271
3 271 231 224
3 273 228 276
3 276 228 232
3 276 233 277
3 276 232 233
3 233 234 278
3 277 233 278
3 234 235 279
3 278 234 279
3 235 236 280
3 279 235 280
3 236 237 281
3 280 236 281
3 237 238 282
3 281 237 282
3 238 239 283
3 282 238 283
3 327 239 284
3 284 239 240
3 240 230 274
3 284 240 274
3 241 285 286
3 242 241 286
3 242 286 243
3 243 286 287
3 243 287 288
3 244 243 288
3 245 288 289
3 245 244 288
3 245 289 246
3 246 289 290
3 246 290 247
3 247 290 291
3 247 291 248
3 248 291 292
3 248 292 293
3 249 248 293
3 249 293 250
3 250 293 294
3 250 294 295
3 251 250 295
3 252 296 297
3 253 252 297
3 241 297 285
3 241 253 297
3 254 295 298
3 254 251 295
3 254 298 299
3 255 254 299
3 256 300 252
3 252 300 296
3 257 255 299
3 301 257 299
3 258 302 300
3 256 258 300
3 259 257 303
3 303 257 301
3 260 304 258
3 258 304 302
3 261 259 303
3 305 261 303
3 262 306 304
3 260 262 304
3 263 261 305
3 307 263 305
3 264 308 262
3 262 308 306
3 265 263 307
3 309 265 307
3 266 310 308
3 264 266 308
3 267 265 309
3 311 267 309
3 266 312 310
3 266 268 312
3 269 267 311
3 313 269 311
3 270 314 312
3 268 270 312
3 271 269 315
3 315 269 313
3 270 272 316
3 314 270 316
3 316 273 317
3 316 272 273
3 318 275 319
3 318 274 275
3 275 271 315
3 319 275 315
3 273 276 320
3 317 273 320
3 276 277 320
3 320 277 321
3 277 278 322
3 321 277 322
3 322 279 323
3 322 278 279
3 279 280 323
3 323 280 324
3 280 281 324
3 324 281 325
3 281 282 325
3 325 282 326
3 282 283 326
3 326 283 327
3 283 239 327
3 327 284 328
3 284 274 318
3 328 284 318
3 285 329 330
3 286 285 330
3 286 330 287
3 287 330 331
3 287 331 332
3 288 287 332
3 288 332 289
3 289 332 333
3 289 333 334
3 290 289 334
3 290 334 335
3 291 290 335
3 291 335 292
3 292 335 336
3 292 336 337
3 293 292 337
3 293 337 294
3 294 337 338
3 294 338 339
3 295 294 339
3 296 340 341
3 297 296 341
3 285 341 329
3 285 297 341
3 298 339 342
3 298 295 339
3 298 342 343
3 299 298 343
3 300 344 296
3 296 344 340
3 301 299 343
3 345 301 343
3 302 346 344
3 300 302 344
3 303 301 347
3 347 301 345
3 304 348 302
3 302 348 346
3 305 303 347
3 349 305 347
3 306 350 348
3 304 306 348
3 307 305 351
3 351 305 349
3 308 352 306
3 306 352 350
3 309 307 353
3 353 307 351
3 310 354 352
3 308 310 352
3 311 309 355
3 355 309 353
3 312 356 310
3 310 356 354
3 313 311 355
3 357 313 355
3 314 358 356
3 312 314 356
3 315 313 359
3 359 313 357
3 314 316 360
3 358 314 360
3 360 317 361
3 360 316 317
3 362 319 363
3 362 318 319
3 319 315 359
3 363 319 359
3 317 320 364
3 361 317 364
3 320 321 364
3 364 321 365
3 321 322 366
3 365 321 366
3 322 323 366
3 366 323 367
3 323 324 368
3 367 323 368
3 324 325 369
3 368 324 369
3 325 326 370
3 369 325 370
3 326 327 371
3 370 326 371
3 327 328 371
3 371 328 372
3 328 318 362
3 372 328 362
3 329 373 374
3 330 329 374
3 330 374 331
3 331 374 375
3 331 375 376
3 332 331 376
3 332 376 333
3 333 376 377
3 333 377 378
3 334 333 378
3 334 378 379
3 335 334 379
3 335 379 336
3 336 379 380
3 336 380 381
3 337 336 381
3 337 381 338
3 338 381 382
3 338 382 383
3 339 338 383
3 340 384 385
3 341 340 385
3 329 385 373
3 329 341 385
3 342 383 386
3 342 339 383
3 342 386 387
3 343 342 387
3 344 388 340
3 340 388 384
3 345 343 387
3 389 345 387
3 346 390 388
3 344 346 388
3 347 345 391
3 391 345 389
3 348 392 346
3 346 392 390
3 349 347 391
3 393 349 391
3 350 394 348
3 348 394 392
3 351 349 395
3 395 349 393
3 352 396 350
3 350 396 394
3 353 351 395
3 397 353 395
3 354 398 396
3 352 354 396
3 355 353 399
3 399 353 397
3 356 400 354
3 354 400 398
3 357 355 399
3 401 357 399
3 358 402 400
3 356 358 400
3 359 357 403
3 403 357 401
3 358 360 404
3 402 358 404
3 404 361 405
3 404 360 361
3 406 363 407
3 406 362 363
3 363 359 403
3 407 363 403
3 361 364 408
3 405 361 408
3 364 365 408
3 408 365 409
3 365 366 410
3 409 365 410
3 366 367 410
3 410 367 411
3 367 368 412
3 411 367 412
3 368 369 412
3 412 369 413
3 369 370 413
3 413 370 414
3 370 371 415
3 414 370 415
3 371 372 415
3 415 372 416
3 372 362 406
3 416 372 406
3 373 417 418
3 374 373 418
3 374 418 375
3 375 418 419
3 375 419 420
3 376 375 420
3 376 420 377
3 377 420 421
3 377 421 422
3 378 377 422
3 378 422 423
3 379 378 423
3 380 423 424
3 380 379 423
3 380 424 425
3 381 380 425
3 382 425 426
3 382 381 425
3 382 426 427
3 383 382 427
3 384 428 429
3 385 384 429
3 373 429 417
3 373 385 429
3 386 427 430
3 386 383 427
3 386 430 431
3 387 386 431
3 384 432 428
3 384 388 432
3 389 387 431
3 433 389 431
3 390 434 432
3 388 390 432
3 435 389 433
3 435 391 389
3 390 436 434
3 390 392 436
3 393 391 435
3 437 393 435
3 394 438 436
3 392 394 436
3 395 393 439
3 439 393 437
3 396 440 438
3 394 396 438
3 397 395 439
3 441 397 439
3 398 442 440
3 396 398 440
3 399 397 443
3 443 397 441
3 400 444 398
3 398 444 442
3 401 399 443
3 445 401 443
3 402 446 444
3 400 402 444
3 403 401 447
3 447 401 445
3 402 404 448
3 446 402 448
3 448 405 449
3 448 404 405
3 450 407 451
3 450 406 407
3 407 403 447
3 451 407 447
3 405 408 452
3 449 405 452
3 408 409 452
3 452 409 453
3 409 410 454
3 453 409 454
3 410 411 454
3 454 411 455
3 411 412 456
3 455 411 456
3 412 413 456
3 456 413 457
3 457 414 458
3 457 413 414
3 414 415 459
3 458 414 459
3 415 416 459
3 459 416 460
3 416 406 450
3 460 416 450
3 418 461 462
3 418 417 461
3 419 462 463
3 419 418 462
3 419 463 464
3 420 419 464
3 420 464 421
3 421 464 465
3 421 465 466
3 422 421 466
3 422 466 467
3 423 422 467
3 424 467 468
3 424 423 467
3 424 468 469
3 425 424 469
3 426 469 470
3 426 425 469
3 427 426 471
3 471 426 470
3 429 428 473
3 473 428 472
3 417 473 505
3 417 429 473
3 430 427 471
3 520 430 471
3 431 474 475
3 431 430 474
3 428 476 472
3 428 432 476
3 433 431 475
3 477 433 475
3 434 478 476
3 432 434 476
3 479 433 477
3 479 435 433
3 434 480 478
3 434 436 480
3 437 435 479
3 481 437 479
3 438 482 436
3 436 482 480
3 439 437 483
3 483 437 481
3 440 484 482
3 438 440 482
3 441 439 483
3 485 441 483
3 442 486 440
3 440 486 484
3 443 441 487
3 487 441 485
3 444 488 442
3 442 488 486
3 445 443 487
3 489 445 487
3 444 446 488
3 488 446 490
3 491 445 489
3 491 447 445
3 490 446 492
3 492 446 448
3 492 449 493
3 492 448 449
3 494 451 495
3 494 450 451
3 451 447 491
3 495 451 491
3 449 452 496
3 493 449 496
3 496 453 497
3 496 452 453
3 453 454 498
3 497 453 498
3 498 455 499
3 498 454 455
3 455 456 500
3 499 455 500
3 456 457 501
3 500 456 501
3 457 458 502
3 501 457 502
3 458 459 503
3 502 458 503
3 503 460 504
3 503 459 460
3 504 460 494
3 494 460 450
3 461 505 506
3 462 461 506
3 507 463 462
3 507 462 506
3 465 463 508
3 508 463 507
3 464 463 465
3 465 508 509
3 465 509 466
3 466 509 510
3 466 510 467
3 467 510 511
3 467 511 468
3 468 511 512
3 468 512 513
3 469 468 513
3 469 513 470
3 515 470 514
3 470 513 514
3 470 515 471
3 472 516 473
3 518 516 517
3 518 505 516
3 461 417 505
3 505 473 516
3 505 518 506
3 515 514 519
3 474 430 520
3 521 520 519
3 520 471 515
3 520 515 519
3 474 520 524
3 476 522 472
3 516 472 523
3 472 522 523
3 516 523 517
3 520 521 524
3 477 475 524
3 524 475 474
3 525 477 524
3 478 526 522
3 476 478 522
3 527 477 525
3 527 479 477
3 478 528 526
3 478 480 528
3 481 479 527
3 529 481 527
3 482 530 480
3 480 530 528
3 483 481 531
3 531 481 529
3 484 532 530
3 482 484 530
3 485 483 531
3 533 485 531
3 486 534 484
3 484 534 532
3 535 485 533
3 535 487 485
3 486 536 534
3 486 488 536
3 537 489 535
3 535 489 487
3 490 538 539
3 536 490 539
3 488 490 536
3 538 540 539
3 541 542 543
3 541 489 537
3 542 541 537
3 541 491 489
3 490 492 538
3 545 493 544
3 538 492 493
3 538 493 545
3 540 538 545
3 544 546 545
3 547 548 549
3 543 495 541
3 547 494 495
3 547 495 543
3 608 547 543
3 495 491 541
3 493 496 544
3 544 497 550
3 546 544 550
3 544 496 497
3 550 497 551
3 551 497 498
3 498 499 551
3 551 499 552
3 499 500 552
3 552 500 553
3 500 501 553
3 553 501 554
3 554 502 555
3 554 501 502
3 502 503 556
3 555 502 556
3 503 504 556
3 549 504 547
3 556 504 549
3 504 494 547
3 506 557 507
3 507 557 558
3 508 507 558
3 508 558 559
3 509 508 559
3 509 559 560
3 510 509 560
3 510 560 561
3 511 510 561
3 511 561 562
3 512 511 562
3 514 512 563
3 563 512 562
3 513 512 514
3 517 564 518
3 518 564 557
3 566 564 565
3 557 564 566
3 557 506 518
3 558 566 567
3 558 557 566
3 559 567 568
3 559 558 567
3 560 568 569
3 560 559 568
3 561 569 570
3 561 560 569
3 562 570 571
3 562 561 570
3 563 562 571
3 572 563 571
3 574 514 563
3 572 574 563
3 573 519 574
3 574 519 514
3 519 573 521
3 522 575 523
3 577 575 576
3 577 517 575
3 564 517 577
3 575 517 523
3 564 577 565
3 573 574 572
3 521 573 579
3 580 573 578
3 579 573 580
3 579 524 521
3 524 579 525
3 522 581 575
3 522 526 581
3 576 581 582
3 576 575 581
3 583 580 584
3 583 579 580
3 583 525 579
3 583 527 525
3 526 585 581
3 526 528 585
3 582 585 586
3 582 581 585
3 587 584 588
3 587 583 584
3 587 527 583
3 587 529 527
3 528 589 585
3 528 530 589
3 586 589 590
3 586 585 589
3 591 588 592
3 591 587 588
3 591 529 587
3 591 531 529
3 532 593 589
3 530 532 589
3 590 593 594
3 590 589 593
3 595 592 596
3 595 591 592
3 595 531 591
3 595 533 531
3 534 597 593
3 532 534 593
3 594 597 598
3 594 593 597
3 599 596 600
3 599 595 596
3 599 533 595
3 599 535 533
3 534 601 597
3 534 536 601
3 602 597 601
3 602 598 597
3 603 599 600
3 604 603 600
3 603 535 599
3 603 537 535
3 536 539 601
3 606 540 605
3 606 602 540
3 602 601 539
3 540 602 539
3 605 607 606
3 608 609 610
3 608 543 609
3 604 542 603
3 609 543 542
3 609 542 604
3 542 537 603
3 540 545 605
3 605 546 607
3 612 607 611
3 605 545 546
3 607 546 611
3 612 613 614
3 612 611 613
3 614 615 616
3 614 613 615
3 616 617 618
3 616 615 617
3 618 619 620
3 618 617 619
3 620 621 622
3 620 619 621
3 622 623 624
3 622 621 623
3 610 548 608
3 624 623 548
3 624 548 610
3 548 623 549
3 548 547 608
3 546 550 611
3 611 550 613
3 613 550 551
3 551 552 615
3 613 551 615
3 552 553 617
3 615 552 617
3 553 554 619
3 617 553 619
3 554 555 621
3 619 554 621
3 621 555 623
3 623 555 556
3 556 549 623
3 565 625 626
3 567 566 626
3 626 566 565
3 567 626 627
3 568 567 627
3 568 627 628
3 569 568 628
3 569 628 629
3 570 569 629
3 570 629 630
3 571 570 630
3 572 571 631
3 631 571 630
3 572 631 578
3 576 632 577
3 625 632 633
3 565 577 632
3 565 632 625
3 625 633 634
3 626 625 634
3 626 634 627
3 627 634 635
3 627 635 628
3 628 635 636
3 628 636 629
3 629 636 637
3 629 637 630
3 630 637 638
3 631 638 639
3 631 630 638
3 640 578 639
3 578 573 572
3 578 631 639
3 578 640 580
3 576 641 632
3 576 582 641
3 633 641 642
3 633 632 641
3 633 642 643
3 634 633 643
3 634 643 644
3 635 634 644
3 635 644 645
3 636 635 645
3 636 645 646
3 637 636 646
3 637 646 647
3 638 637 647
3 638 647 648
3 639 638 648
3 640 648 649
3 640 639 648
3 584 580 640
3 649 584 640
3 582 650 641
3 582 586 650
3 642 650 651
3 642 641 650
3 642 651 652
3 643 642 652
3 643 652 653
3 644 643 653
3 644 653 645
3 645 653 654
3 645 654 646
3 646 654 655
3 646 655 647
3 647 655 656
3 647 656 648
3 648 656 657
3 648 657 649
3 649 657 658
3 588 584 649
3 658 588 649
3 586 659 650
3 586 590 659
3 650 659 651
3 651 659 660
3 651 660 661
3 652 651 661
3 652 661 662
3 653 652 662
3 653 662 654
3 654 662 663
3 654 663 664
3 655 654 664
3 655 664 665
3 656 655 665
3 656 665 666
3 657 656 666
3 657 666 658
3 658 666 667
3 592 588 658
3 667 592 658
3 590 668 659
3 590 594 668
3 660 668 669
3 660 659 668
3 660 669 670
3 661 660 670
3 661 670 671
3 662 661 671
3 662 671 663
3 663 671 672
3 663 672 664
3 664 672 673
3 664 673 665
3 665 673 674
3 665 674 666
3 666 674 675
3 666 675 667
3 667 675 676
3 596 592 667
3 676 596 667
3 594 677 668
3 594 598 677
3 668 677 669
3 669 677 678
3 669 678 679
3 670 669 679
3 670 679 680
3 671 670 680
3 671 680 681
3 672 671 681
3 672 681 682
3 673 672 682
3 673 682 683
3 674 673 683
3 674 683 684
3 675 674 684
3 676 684 685
3 676 675 684
3 600 596 676
3 685 600 676
3 598 686 677
3 598 602 606
3 678 686 687
3 678 677 686
3 678 687 679
3 679 687 688
3 679 688 680
3 680 688 689
3 680 689 681
3 681 689 690
3 681 690 682
3 682 690 691
3 683 691 692
3 683 682 691
3 684 692 693
3 684 683 692
3 685 693 694
3 685 684 693
3 694 604 685
3 685 604 600
3 598 606 686
3 606 607 695
3 686 606 695
3 686 695 687
3 688 687 696
3 696 687 695
3 688 696 697
3 689 688 697
3 689 697 698
3 690 689 698
3 690 698 699
3 691 690 699
3 691 699 700
3 692 691 700
3 692 700 701
3 693 692 701
3 610 609 694
3 701 610 694
3 701 694 693
3 609 604 694
3 607 612 695
3 695 612 696
3 696 612 614
3 614 616 697
3 696 614 697
3 616 618 698
3 697 616 698
3 618 620 699
3 698 618 699
3 620 622 700
3 699 620 700
3 622 624 701
3 700 622 701
3 624 610 701
