OFF
702 1400 0
-0.261149166334045 -0.325436561656968 2.18622101711622
-0.306481087918413 -0.311720754809005 2.16819697589406
-0.27836474005765 -0.331470437151232 2.14096124064873
-0.214305020824686 -0.332130448241425 2.19108113397618
-0.232466175665688 -0.342289694013288 2.1463957662683
-0.167514197158783 -0.336890190180704 2.1943628116474
-0.18609046195124 -0.346633351586711 2.14865231149506
-0.122155136999148 -0.340985142112429 2.1988374610316
-0.140778036922084 -0.350767689286011 2.15060638794322
-0.0772815768771117 -0.344880196067607 2.20366574795972
-0.0960375278559288 -0.354464886027931 2.15535254120168
-0.0298051218610799 -0.347986806446056 2.21139649055453
-0.0502768031325542 -0.357776153693664 2.16394849299526
0.0182948695774391 -0.343602787376292 2.21979121040753
-0.00298294840209402 -0.359395669326374 2.17305513397036
0.0435434553708696 -0.350553535810497 2.18182971754126
-0.329063418181298 -0.28283853235696 2.19613164559192
-0.358675125470661 -0.265635470955816 2.16847520092097
-0.337520605918021 -0.29594955685703 2.14032842832675
-0.288713990733313 -0.298748339901547 2.21606739053697
-0.24207340591527 -0.307784506878616 2.22823650620712
-0.194399274391316 -0.31317304640148 2.23220587772504
-0.147652635622299 -0.317167169277743 2.23769276675693
-0.102456300461177 -0.320603896513765 2.24362064765222
-0.0581797037954351 -0.326056080943101 2.24631961442632
-0.00954900914589012 -0.326903472166988 2.25367701444375
0.0642909017349248 -0.327506059581696 2.22539637892188
0.0356614181671579 -0.314809888028092 2.26140183384921
0.0818236868896402 -0.294794823328319 2.25899856036139
-0.316143401340362 -0.261656516870873 2.23752751511748
-0.356146833468218 -0.241332194072845 2.2092620637361
-0.27025635575256 -0.275076968037365 2.25529079138372
-0.220348873535291 -0.281482397709259 2.26351334290083
-0.172774044207958 -0.285882087141733 2.26886849671495
-0.125174256429085 -0.288362726564189 2.27617241453089
-0.0804908944103717 -0.291142960554015 2.28257054767005
-0.0382737124173789 -0.300605854169265 2.28169591975089
0.00306877971725196 -0.292356404447387 2.2923438903737
0.0487641100106004 -0.279049748995217 2.2937204978192
0.0936585950799916 -0.256923666876439 2.28706922196961
-0.33432397798613 -0.224170833188109 2.25780255989334
-0.367347841706465 -0.202834075597545 2.23105831876554
-0.293450578541544 -0.239003286266757 2.27918471926776
-0.244498980256401 -0.249638431654401 2.29059083244946
-0.195757774417283 -0.251845444941709 2.29858686625994
-0.148331219292321 -0.256673718548737 2.30347835600792
-0.0968548497206865 -0.257541815218982 2.31321318815314
-0.0420355607288745 -0.267045901343404 2.31489449281672
0.0084065699521782 -0.259782106030086 2.32423594259723
0.0589338632295674 -0.244401600261753 2.32286238030488
0.103782404748295 -0.218498566144615 2.31479740937069
-0.318424007638384 -0.199695165395986 2.30014969467328
-0.358769824576394 -0.182022372433385 2.26882021796994
-0.269277024230462 -0.216888315877269 2.31530612355444
-0.221898464216199 -0.219190811884411 2.32625584885291
-0.176374960561802 -0.220254718886563 2.33456542639445
-0.132456449041128 -0.228185823516649 2.335592087076
-0.0989444176067427 -0.21615557061762 2.35468037514293
-0.0641422574045279 -0.23562823256663 2.34214311978623
-0.0218378722521849 -0.232135982144589 2.3530362386175
0.0260833462147788 -0.225715934131517 2.35440661562816
0.0741996424221296 -0.207076326782268 2.35014223476427
-0.321553719837604 -0.158800764273322 2.33995616832229
-0.349527790238149 -0.161242912403202 2.3050594075738
-0.288734743622248 -0.185248282377884 2.33764508604664
-0.241704496266581 -0.18758309127276 2.35416426941293
-0.196977316107445 -0.186366692017622 2.36462568948214
-0.148091716116238 -0.19141362364071 2.3695956059494
-0.102672570842112 -0.185601247197568 2.38484517868607
-0.055291998054279 -0.199128272088732 2.3809199104289
-0.00727859642667851 -0.199015477509816 2.38640586326589
0.0405209597247132 -0.191862519761953 2.38297860704739
0.0880695730467575 -0.169893860449057 2.37578110205297
-0.310945311869394 -0.134051559567813 2.37503648074713
-0.354944366960097 -0.121529115846737 2.33967194076175
-0.272345302500326 -0.158626114180103 2.37354845644776
-0.226398203440992 -0.152330823720993 2.39301536434469
-0.176385951540259 -0.156917434934167 2.39868462235582
-0.130604496519941 -0.156717389317768 2.4083275561404
-0.0790990166949612 -0.16081843055447 2.41479524396323
-0.0341805493934289 -0.167448599901123 2.41698476827592
0.0122011583921666 -0.164672851760952 2.41828709164359
0.0561768387973793 -0.157616539552966 2.40931288600064
0.0926541220080704 -0.132040963270365 2.40808687483433
-0.306103743345377 -0.0939865264414976 2.41049178198425
-0.339919861745938 -0.102909929878382 2.3773468185445
-0.272763853942296 -0.124336718003218 2.4063709651044
-0.238177397642299 -0.112411250091444 2.42415206905477
-0.195472834141968 -0.121108910186549 2.42598381415608
-0.150366792258147 -0.121415540662544 2.4338480974881
-0.103181986042195 -0.124925901991714 2.43992352798327
-0.0545985265904679 -0.129224899412684 2.44572833098397
-0.00632673127825685 -0.132513560574223 2.44758851003465
0.0452918110732909 -0.12707272955634 2.44004322559095
0.0927804448512575 -0.0961466441768592 2.43212109330203
-0.347193897840075 -0.0634663885926136 2.39391969722442
-0.268877525149879 -0.0745160551407407 2.43630801013995
-0.312300674790605 -0.0499343375822708 2.42510281303528
-0.219431693989019 -0.0752633694341353 2.44570382107667
-0.173422972827266 -0.0802023938021512 2.45098664204205
-0.126762060777102 -0.0813810546716553 2.45775599534954
-0.0809881991223331 -0.0861873028767369 2.46306171833526
-0.0343436289746759 -0.0909050491784464 2.46825121682481
0.0123200316180967 -0.0928294057913191 2.46634810996785
0.0567080448523921 -0.0868810780252038 2.45621951742501
0.0385869006358717 -0.0477752279472021 2.4724104157003
-0.285342514936416 -0.0228882442935952 2.44287716818803
-0.242957251931454 -0.0321353458132732 2.45304415901545
-0.193944223708915 -0.0342103453100021 2.4594318101131
-0.148203196190374 -0.0355440661970922 2.46542968766631
-0.101933217323276 -0.0371986729136507 2.47143643963821
-0.0574029549013793 -0.0441282280450939 2.47661014124511
-0.00971718038593536 -0.0487340252007578 2.47975831618039
-0.256336044064999 -0.339696744921021 2.10184858921291
-0.279965967739765 -0.325950210955945 2.06618788131091
-0.256294135654937 -0.31964407179041 2.02864302126892
-0.206753964835557 -0.34645004928213 2.10269762012612
-0.228224825621652 -0.337728378346102 2.06147930113822
-0.160711373046733 -0.349595676633916 2.10222048918868
-0.180060216642979 -0.338523201281288 2.0560846617218
-0.115319015211448 -0.352913442140847 2.1049398979837
-0.134759884412046 -0.340482084975923 2.05693994672577
-0.0700281380072557 -0.356807254608273 2.11283001278282
-0.0872190296036584 -0.344449329227855 2.06327887180289
-0.0251609073828472 -0.36088870513207 2.12340785702056
-0.0415492034583417 -0.349423886669504 2.07269863035161
0.0208786392584591 -0.359753587133958 2.13207873455362
0.00261398400199835 -0.353842825175641 2.08419613707359
0.0505468692306048 -0.347185475044035 2.09328417315882
-0.307802668247345 -0.319039265094386 2.10931125445298
-0.346052030036416 -0.288442995550193 2.09292852852877
-0.316499361691053 -0.304581484081873 2.06074973868853
0.0883771279905633 -0.330603298621518 2.18600901276098
0.0640877789496966 -0.348249569292246 2.14138341136911
0.103882245130978 -0.32705971897143 2.14332947065091
-0.383713378218289 -0.229891299092552 2.15844387268612
-0.393825100877355 -0.217802036166007 2.1087194324202
-0.371343973232907 -0.260333234876196 2.12213239425226
0.109547487689474 -0.302185409069898 2.21942300404683
0.130259971409858 -0.301120007625108 2.17513188100965
0.147505264891806 -0.269725080810571 2.20220338813488
-0.38575020171269 -0.200978093042615 2.18967055356908
-0.401384019116232 -0.185187124866554 2.14318195583313
0.123628861051344 -0.266279159136148 2.24740155372222
0.154985675229109 -0.230224370524813 2.2325203090225
-0.389297459242797 -0.162103087852104 2.22319060160683
-0.401817523854996 -0.155029863159462 2.17934622362568
0.131701641978529 -0.225773338188174 2.27512028146057
0.161654392327608 -0.188216681603504 2.25644696933586
-0.3837317635651 -0.142772136269092 2.26084627359019
-0.403889804250495 -0.114583307691401 2.21833897603855
0.140591053914913 -0.184613617923802 2.30028435746554
0.16631464220837 -0.146157683933411 2.28237868422392
-0.375823004546134 -0.124475475569479 2.29963240811044
-0.399339580264404 -0.0964786491499029 2.26349723081851
0.11733360582686 -0.177363299596275 2.33939530695006
0.150166748359721 -0.139480691857164 2.32500777150088
-0.389326948061921 -0.0843309214535228 2.31145466751182
-0.407263207720324 -0.0501573191650014 2.27987597379133
0.124964507836311 -0.137326584504897 2.36763226891862
0.155492874371298 -0.09941330698326 2.35044791599881
-0.373871763811674 -0.0765282508546847 2.35293049699499
-0.397783652692604 -0.0386848701398577 2.32717742767852
0.128620729846629 -0.0998872703360208 2.39566608475193
0.152627173740543 -0.0621526833292193 2.38173045416
-0.376449859395536 -0.0312541133380425 2.37005503346418
-0.344390235180546 -0.0198433150964637 2.40757253269699
-0.363858222035417 0.013566328373584 2.38760154093336
0.0858347628397143 -0.0490581586655676 2.45181473236766
0.109480044546688 -0.00994732135421237 2.43738086591398
0.12262080406781 -0.0576520865680587 2.42155632234711
-0.31876828208456 0.00770168816857819 2.42663187436127
-0.266289556916542 0.0181615819462414 2.44855705615982
-0.297974429057713 0.0464414997607482 2.4308437531702
-0.21679313457828 0.00924789507155221 2.45755650186566
-0.169538898529159 0.0118503833848314 2.46283298696403
-0.122961244247481 0.0101762332096123 2.46840224048737
-0.0761703683945747 0.00843492355332833 2.47398294676873
-0.0333156217822155 -0.0025525404134672 2.48012244734849
-0.00756360114889722 0.0336361767979754 2.47396525505887
0.0173400353572203 -0.00660945989631865 2.47849415711589
0.066100335487633 -0.0067864228548355 2.46373111510879
-0.264263617892511 0.0754990607435649 2.43288811598388
-0.232882244255853 0.0517418233443998 2.4478140814413
-0.188732533215235 0.0567312087438802 2.45057007933052
-0.142658366119109 0.0564392850913362 2.45510254719906
-0.0960105820247622 0.0541260219854286 2.4603917213208
-0.0476395767024929 0.052082059650007 2.46572648814648
0.00839254132471483 0.0704470146509238 2.45795915409937
-0.343909663032136 -0.273166922720068 2.04332678773766
-0.327420155894971 -0.260830949125606 2.00403633607508
-0.297130794650182 -0.296559187223109 2.01889344504118
-0.248273643379259 -0.298268630576629 1.99212750031451
-0.20657782508556 -0.321487194114967 2.01894893763683
-0.155997929533242 -0.317714154124072 2.01226963871077
-0.106085434499599 -0.323107066235749 2.02063969298014
-0.0540854478468322 -0.327462628284879 2.02740957801227
-0.00885057522690456 -0.333191749481035 2.03643409236921
0.0351812763035981 -0.336467447789456 2.05270373097577
0.0777521015785639 -0.318787789100452 2.05130358346616
0.090240391091992 -0.330883534967332 2.09973526004206
0.117100129664385 -0.305468098895537 2.08108235887084
-0.373681199982608 -0.249741840271399 2.0758208181568
-0.390905707314549 -0.203660102433499 2.06119282348866
-0.367624490867073 -0.231671118333151 2.03203881165504
0.133657567828727 -0.301287366450734 2.12557389877068
0.14988897860948 -0.273798485289774 2.09330517229155
0.159794697862782 -0.268661510934369 2.14835021099211
-0.404920696384134 -0.169295585772579 2.09645866035724
0.179931775414527 -0.226746937004585 2.14423912427937
-0.40773086066725 -0.137154123455919 2.12792100095435
0.171800698721362 -0.232958039445903 2.18697062445515
-0.408642100008037 -0.113469061479822 2.16985276571631
0.177730822994217 -0.190168011977839 2.20923937613527
-0.410401926514378 -0.0731105962070676 2.18394452917925
0.180601109395039 -0.149114069930194 2.2317767830031
-0.410382582480969 -0.0636337092947951 2.23086914252086
0.181492404283837 -0.110812958178872 2.25768342419863
-0.413153311453709 -0.0153029546215932 2.2475680536434
0.173688058355203 -0.0965142231195146 2.30261535471946
-0.409341684279082 -0.00255384222126373 2.29752131700312
0.174139495886814 -0.0564195133982697 2.33398864295203
-0.392560131484899 0.00747039596464394 2.34524489407576
-0.398581403263531 0.0437552814271387 2.31492216380388
0.142739427830628 -0.0166825776954744 2.40379129021572
0.167107303307936 -0.0220868697668681 2.3629751700433
-0.374900729156086 0.0511012793248919 2.36089273829129
-0.340233624206644 0.04799659628751 2.40235633248743
-0.346749721330963 0.0885096211371987 2.37310077614688
0.0423529378019655 0.0345011339430831 2.46491924255036
0.0888676164558387 0.0331135800800206 2.44343452554026
0.127811242738436 0.0295017281573567 2.41160103308891
-0.310080512227966 0.0857825764475193 2.40672060050724
-0.269316365191246 0.112213970911791 2.40905848759663
-0.217030537417634 0.0967077596157614 2.42940341628343
-0.167979269831611 0.0984188216106623 2.43200791471
-0.120657999553611 0.0970246536845235 2.43633716049537
-0.0733410928914999 0.0935846715478949 2.44200185720647
-0.0273558650001251 0.093852761818084 2.44502403396923
0.0264185229726466 0.103960288039749 2.43207725912635
0.0598258102637768 0.0721087244947745 2.4418192998052
-0.315741669287656 -0.230557302389761 1.96751326814704
-0.284722670065045 -0.26971657220696 1.97854449816057
-0.236185833711196 -0.268107569315633 1.95833463167275
-0.199231687907713 -0.295797190685234 1.98281889701487
-0.15543599812765 -0.284646773972579 1.97316728405005
-0.115305979133616 -0.292402358492775 1.98269322223422
-0.0684098738040577 -0.301253841153056 1.99368644804077
-0.0122600535364832 -0.302798995419815 1.99766831333369
0.0351519124186085 -0.312117495655024 2.01549393084445
0.0806475257484702 -0.288924636551452 2.01376895103541
0.118621836419814 -0.283571766842417 2.04585028580992
-0.378781080195591 -0.179842210485285 2.01622088044226
-0.351315840345519 -0.218568681011138 1.99666294876254
0.151733789647547 -0.247392644403769 2.05467107766858
0.171940726245876 -0.237882170805131 2.10256580304873
-0.397693366818648 -0.156161223139852 2.05499060644119
0.188941396745141 -0.189743125903211 2.11480229652139
-0.402641861813948 -0.114169550282688 2.08244275688407
0.187872561915554 -0.185171028166503 2.16438357222496
-0.406406064670893 -0.0886010394095141 2.12905189403099
0.188955819216425 -0.14189641379886 2.18458366900571
-0.405122594593251 -0.044299808127529 2.14728769334059
0.189031137270935 -0.101686262527828 2.20985858168511
-0.409961353632527 -0.0265200768219179 2.19755779700728
0.186221823463929 -0.0687854259778663 2.25354556191088
-0.408376424817006 0.0195017985965997 2.21442013339973
0.18329129935449 -0.0456054452595272 2.29193748727731
-0.409805436326863 0.0321477489113003 2.26527640216517
0.178806591198498 -0.000502133931918895 2.32539724446472
-0.394317301434561 0.0777695980012493 2.28239719111229
0.15767630621619 0.0214197172316904 2.37203175044609
-0.375602578025103 0.0867215078517581 2.32968579081387
-0.342365937091354 0.12381549226972 2.34047026226318
0.102208846954747 0.0714171096956968 2.4142436567153
0.137507850477175 0.0652436016391876 2.37835434600027
-0.308545658210421 0.123052336101674 2.37756698818447
-0.264701231761288 0.148839564022812 2.37541941362469
-0.229350141493218 0.131153245111674 2.40253375479744
-0.184406134117724 0.13446701665323 2.40169573021435
-0.140291155894446 0.134493523252688 2.40364226553637
-0.0936235240968058 0.130363935488961 2.40984673185521
-0.0503299329157445 0.129816839125574 2.4123288201325
-0.00774741726718135 0.127600249988019 2.41588430696769
0.0697426788518187 0.108498056282783 2.40882264851405
-0.311873573005357 -0.197334222713312 1.93727655347823
-0.273826973905623 -0.236591462121071 1.94355395262325
-0.226837595631175 -0.235191618534524 1.92525990524947
-0.187514925937336 -0.260672665552697 1.94783286870151
-0.133567071384506 -0.252434294026954 1.94203308183038
-0.0878351775268736 -0.264618323284261 1.95622474238337
-0.0423280832106327 -0.276128494922324 1.96973482383224
0.00122474311261313 -0.265186606267065 1.96077545388156
0.0386316001490602 -0.281391441234602 1.98363561213407
0.0855182759103037 -0.255995864213929 1.97989276684645
0.12213859797768 -0.253442652277737 2.01263438051301
-0.373297793615362 -0.143703082622666 1.98444845444725
-0.349347038133524 -0.185469685647344 1.9703984674854
0.158131209675301 -0.215084006034774 2.02234335690558
0.178218299759334 -0.205129265123302 2.06836461428021
-0.392410773278185 -0.124844835207208 2.02794231537986
0.195690159374806 -0.156981416648246 2.08482930847112
-0.395435692630786 -0.0785417485796048 2.04765104635542
0.194851427130257 -0.143714481668053 2.1361818538068
-0.39976281198916 -0.0609126423230143 2.09366082105224
0.195728921467269 -0.0966624635873186 2.15944580433587
-0.398545037388218 -0.0144222539624953 2.1138351356158
0.193380741075415 -0.0575459622027794 2.20342662063435
-0.403109744698525 0.00451777119247531 2.16258804950103
0.191758975326971 -0.0249788470089403 2.23738027585449
-0.401660210328468 0.0517971878732274 2.18140885170066
0.188231699845437 -0.00393001060311099 2.27892085056932
-0.40306504565391 0.0659054117901721 2.2326587070821
0.1850832121784 0.03967259861856 2.29253731705195
-0.387488035138194 0.111150795704175 2.24957968337981
0.166880792423077 0.0500354498820081 2.33701038218966
-0.368958716609667 0.120198154926514 2.2968113230292
-0.334761069311674 0.157842159754468 2.30780044373084
0.109549609253769 0.106664079215045 2.37967969504174
0.145550899040051 0.0973952738177895 2.34447771712527
-0.301665173094712 0.15684175896514 2.34440888413543
-0.252754404402401 0.181317048049968 2.3454034710554
-0.212812385591664 0.163599830937155 2.37138279266125
-0.1617612549718 0.169469041263827 2.36781568997491
-0.109188052433463 0.162752792716931 2.37686288917241
-0.060795336172894 0.163733981069159 2.37804977389367
-0.0147500436470676 0.161283774161654 2.38255189953846
0.0327834990558581 0.140635170836077 2.39656501799268
0.0742478429634665 0.144393338327935 2.37503369960725
-0.305789823783664 -0.164856639998049 1.90567726832206
-0.26834707513067 -0.203170992015421 1.91124687017476
-0.220334113497096 -0.203644835430098 1.89408242854121
-0.175854875980178 -0.229561669680713 1.91733944226481
-0.128414248547058 -0.21588598999038 1.90582950118072
-0.0865878201274055 -0.229998850889439 1.92176983614896
-0.0421665860992611 -0.243246449981255 1.93696266602753
0.00438974904073686 -0.230064415607658 1.92590433920538
0.0472719635075636 -0.246633218083046 1.94981654244876
0.0930640877113175 -0.222133373983917 1.94691707870069
0.128778468731484 -0.221590903497712 1.98136813398377
-0.366254031050141 -0.109732186985923 1.95062757056521
-0.343455516249403 -0.153863614442138 1.93993539372616
0.165015010800504 -0.18251427855556 1.99073656880558
0.185351672108364 -0.171614668759746 2.03668954004955
-0.385489208739573 -0.0938788699395428 1.99515870924235
0.202345913494338 -0.12447727678806 2.05406805560246
-0.388585397901463 -0.0479603403689227 2.01246405479642
0.201347191571706 -0.109947795230599 2.10588801878454
-0.392876048468781 -0.025185256754165 2.06149408329988
0.203202106913945 -0.0637293684553358 2.12077758457716
-0.39249475216458 0.0208857159804774 2.08808907668985
0.199176545464038 -0.0462286086076574 2.16428601163178
-0.396417930385077 0.0386358814333598 2.13094540212782
0.19908985169575 -0.00212467801866139 2.19337176303675
-0.394745426829604 0.0839960289293484 2.1467464982923
0.195300516992776 0.0238271337510253 2.24042637724598
-0.396547212791578 0.0980296082637143 2.19922744115171
0.19277016521815 0.070005334638546 2.25721094467229
-0.380777513217281 0.143808554665634 2.21762293703159
0.173014759285173 0.0861936011178984 2.30393805339749
-0.361684545482458 0.153725912552058 2.26476547058283
-0.325888291254095 0.19136252681262 2.2774758510736
0.115555418441849 0.14067752342035 2.34695545440442
0.151546829865384 0.131953608753948 2.31182366558525
-0.29130522638374 0.190084897859293 2.31440989544232
-0.242647414969328 0.213862115144569 2.31447289963476
-0.201574299007391 0.195251756018148 2.34033187765716
-0.156498930744047 0.20825018948541 2.32939147376511
-0.119590340788289 0.19251858044596 2.34672457012749
-0.0718634091917119 0.195177578852384 2.34620893959089
-0.0214881982265336 0.195252582444586 2.34838776580584
0.028310058438477 0.175198691673736 2.36539908933096
0.0761262642882155 0.177705978044191 2.34490311015962
-0.298994734464289 -0.132363449400509 1.87341946615059
-0.262185656805996 -0.170118216536996 1.87890365236327
-0.215839847016842 -0.171090476796763 1.86237489333621
-0.171958485994814 -0.197155849085074 1.88520977538815
-0.122003387453908 -0.181353532365676 1.87169100454654
-0.0801799847755034 -0.194689919484145 1.88685674264352
-0.0384615726878807 -0.209385128986053 1.90337311196557
0.00804272252504284 -0.195250637955159 1.89136265901629
0.0512411269569836 -0.213676909373211 1.9163730107164
0.0968385677526892 -0.190360535811254 1.91360010469537
0.135556472000546 -0.189270018585688 1.94969439672105
-0.360672389255578 -0.074942657758257 1.91949020580846
-0.336718251430115 -0.121909846579759 1.90805296662044
0.171540600826504 -0.150117934591791 1.95857401819787
0.192107029415639 -0.138710084902085 2.00443721078784
-0.378955478130479 -0.0590071288400134 1.9627439607933
0.20881127132949 -0.0925304205256356 2.02097109614979
-0.381069797866237 -0.0102205362846239 1.97655607615951
0.208379928168889 -0.0767873209962309 2.07089313763735
-0.385809437184731 -0.00122744844941431 2.02031230096603
0.209659907404885 -0.027406595935529 2.09242696253296
-0.386881847307681 0.0307372917523226 2.04947307909974
0.20512864137377 -0.0103353256211918 2.13971682206975
-0.388908336599855 0.0719017818889706 2.09220532104816
0.206237476320493 0.0347176299702334 2.15983298866625
-0.388259186336169 0.115729860827682 2.11521534167999
0.2018287826388 0.0516052973790006 2.20601850767938
-0.390028519411623 0.130035339317753 2.16762738853602
0.199887179498725 0.100381937060773 2.22374790359692
-0.373207425673957 0.177218890328456 2.18839660095462
0.180536158912735 0.117924872850208 2.27032266550901
-0.353795025342011 0.18701877685179 2.23449464932418
-0.318250087183686 0.224186531614096 2.24631726520435
0.120865625980346 0.17397507666839 2.31544100196444
0.158429703552058 0.16442350558736 2.27936976062081
-0.282721729700643 0.222804346364653 2.28354130760295
-0.235890655622101 0.247051134431367 2.28168957082415
-0.194195656720891 0.230306569123047 2.30571710241322
-0.143439614924271 0.242411333926594 2.29592048763103
-0.104244913361426 0.225288661947116 2.31474323617322
-0.0559396698154283 0.227726110393742 2.3144740298734
-0.00785910324211163 0.228323524883655 2.31602920957881
0.0321160071794161 0.206378430351149 2.33513779327165
0.0837746447508374 0.20857473330215 2.31365970882233
-0.299682051663532 -0.0973801291227645 1.84652633609081
-0.255207043781223 -0.136276616975521 1.84542956966679
-0.207307519723345 -0.139496968279294 1.83075424842638
-0.166345709337498 -0.166284546699634 1.85468582568924
-0.116251721447597 -0.14833823117845 1.83908839761598
-0.0728137497313129 -0.159145298305406 1.85175306750069
-0.0331833143840454 -0.173393391596648 1.86772893591997
0.0105345289657572 -0.159995513881743 1.85634034858094
0.0545725900793597 -0.181027937672499 1.8831294196145
0.101486041154729 -0.158149878124955 1.88046489610401
0.138421397952069 -0.159695367638488 1.91650258372984
-0.35471451743331 -0.0395555536000373 1.88819169773468
-0.333414811759579 -0.0875893580638134 1.87937948921762
0.172582702740375 -0.123433032772853 1.9229394183753
0.198578351188655 -0.10587795680008 1.97100406656234
-0.372238226460393 -0.0229159804291748 1.92940935647005
0.21631250697085 -0.056063465905545 1.99888720152975
-0.37423953467298 0.0261690960790153 1.94888242553025
0.214755745094277 -0.0403770794070885 2.04326086151043
-0.379435513403902 0.0427092803045457 1.99753515505094
0.216363383483932 0.00756959976419817 2.0600652773662
-0.382785075711089 0.0719859331011653 2.04321076839522
0.21190331640048 0.0236194544914793 2.10730459080156
-0.381438153627029 0.115646238187587 2.06051905250024
0.213173588357739 0.0689779880401201 2.12589314317854
-0.382338223956956 0.152462755963793 2.09150387185159
0.208678322178912 0.0862108099469677 2.17342475898432
-0.38305725156693 0.163640678570958 2.1405641660872
0.206380999660243 0.133271194422208 2.19194612446551
-0.366327679095098 0.210113201131814 2.15676286426762
0.187467413788672 0.149671933199387 2.23795177667305
-0.346340865278923 0.220321497045361 2.20314645233516
-0.311597444416344 0.25687897545796 2.21401741397054
0.128170778104399 0.206510578390968 2.28267146284494
0.165292836492026 0.196951857654759 2.24683465043154
-0.276356298270132 0.255367630829874 2.2511778363809
-0.229792652443019 0.279802221494324 2.24908853210723
-0.186433759082215 0.263574719380577 2.27289982799121
-0.137628719707142 0.274438895647929 2.26422464784153
-0.0902568753031248 0.259823502169888 2.28094172701953
-0.0402484197424278 0.260149613849724 2.28285358282111
0.00625529541240086 0.260027682523779 2.28505531817086
0.0449974040411368 0.237015473471774 2.30338188256646
0.0913616767339628 0.241146548339802 2.2809507592085
-0.262299732503818 -0.0997969450897495 1.82121942460752
-0.220777496974535 -0.10473248214955 1.80798764167467
-0.174316432134519 -0.102946591672711 1.80179884695061
-0.15991454786656 -0.135570199781041 1.82528166359441
-0.122273565071491 -0.109183033643332 1.80920185913533
-0.0757071582033037 -0.121042198228222 1.81999089540994
-0.0290132301537138 -0.132166376726459 1.83081014427662
0.0190343799462635 -0.122152538753567 1.82779141660867
0.0580835578846691 -0.149019222762234 1.85206280768362
0.102824699302002 -0.123445444073753 1.85070656092627
0.143046210952357 -0.126026348509199 1.88382957683448
-0.341847899082825 -0.00415455222274603 1.86104001088638
-0.325707318371123 -0.0518654473809698 1.849226267894
0.192075618011518 -0.0861801415042273 1.92383717800906
0.209962279645456 -0.0618318640540583 1.9560145434979
-0.361992489704977 0.0145281254196133 1.89945051416059
0.215931947459096 -0.0179984262545055 1.96442762485181
-0.358615147378224 0.0599196990721029 1.91822007982308
0.218768367496153 -0.00390486961218801 2.00910778071035
-0.368286788283973 0.0759690533930166 1.96228988177489
0.215731371585463 0.040656659784124 2.02561640066176
-0.37516349480201 0.095790023196282 2.00710155192367
0.215971974902933 0.0584208665072828 2.07236095656446
-0.368647296933862 0.142021378037238 2.01957076256078
0.213304261086088 0.102052505182929 2.09215779000997
-0.371471565281712 0.171166110544641 2.05393157284476
0.213180812310027 0.120021875841656 2.13858796424536
-0.375328603785526 0.195543046574363 2.10729969452599
0.20767416650894 0.162835941650937 2.15853234021704
-0.357101684152678 0.237175573677368 2.12011228277799
0.192257688518579 0.182242173644544 2.20564772752505
-0.339686370796302 0.251470826937199 2.1689133062707
-0.303774290024843 0.284304634680008 2.17916142301342
0.133746007414069 0.238999855269861 2.24850308373455
0.16567451223261 0.228684686533059 2.21214045885702
-0.268477599102339 0.287159567274106 2.21816782592121
-0.219581805074852 0.308842297743113 2.21172264455603
-0.182578875226573 0.295844885313842 2.23774202636627
-0.140629957437086 0.303332922478724 2.22679938076713
-0.0966791012708434 0.293813573987052 2.24161650047875
-0.0521018491351532 0.289352481242411 2.2484630246739
-0.00204770960556994 0.288249453893547 2.25037566254362
0.0496003744884852 0.270843236288155 2.268478447608
0.0950515212262152 0.270011736095005 2.24604926133979
-0.287179132386875 -0.0589794643347931 1.81726776163129
-0.241731788720523 -0.061843501140917 1.79522772116296
-0.194050330667677 -0.0644104443885727 1.78591136429355
-0.142253729657247 -0.0688359408370476 1.7893420054801
-0.0918511466301773 -0.0756379260265476 1.79655679665387
-0.0458711023641119 -0.0856940241707265 1.80459925973463
-0.00177206271392662 -0.0855561248311137 1.80874234248827
0.0453744502187246 -0.075776771064315 1.81040244555589
0.0653475295247583 -0.110108186634424 1.82785305385439
0.0977917613601182 -0.0750045100982847 1.82510765492899
0.133992540098502 -0.0912035560621666 1.8528276640667
-0.306665168958043 -0.016445811274178 1.82327377362481
-0.280939104210298 0.0241835475621771 1.80722617258473
-0.264065474148794 -0.0198978007000856 1.79621481726721
0.144700608736062 -0.0505286643378163 1.848002223852
0.170324733367328 -0.082464062409434 1.88500476261475
0.17423013926781 -0.0355567385597582 1.87535317875436
-0.338186886212502 0.0505561368876077 1.86986212802648
-0.318548399108223 0.0261460820610257 1.8371935174558
0.198195181311374 -0.0397339767240086 1.91347220062231
0.203936232111997 0.00323298272740901 1.9281483010991
-0.334592573873252 0.0896374982574593 1.89412903595244
0.209938341109994 0.0314570875290662 1.96997657685512
-0.344367668144692 0.111848939865351 1.9323228797978
0.205269966736823 0.0702671653488444 1.99541654553306
-0.356859119428653 0.124882009859728 1.97131061412979
0.20797021797464 0.0934573477536862 2.03643031736988
-0.345421726524859 0.164802273237953 1.98289902685015
0.203439779703563 0.132118772260773 2.06155993008386
-0.349064469301015 0.195171949592858 2.01778564905931
0.205936386984471 0.155116233040015 2.10236817938216
-0.362551997341085 0.213445265600829 2.06946388585626
0.198718945132871 0.192302715786426 2.12687783680673
-0.328293012452259 0.274435114644214 2.1300765368794
-0.340243106503085 0.256361226147754 2.0824032915966
-0.30898628338411 0.28930823996634 2.0869330663092
0.189286336790755 0.210127176712127 2.17021902296461
0.176401264371766 0.233773900039176 2.12532198201923
0.163151412527538 0.249058107490419 2.16978512955394
-0.260292917648047 0.31011475374833 2.18008440292083
-0.294032345213032 0.301840210297711 2.13906875537906
-0.251935506258463 0.323069694676848 2.13696664238757
0.130517720188428 0.267849442784749 2.20790489786609
0.0986599623331032 0.298354640716058 2.17023907531297
0.0861267515478392 0.293536354557511 2.20935972181717
-0.212859073238504 0.326494582146953 2.17073966177071
-0.169020335871786 0.321438172974028 2.19093328862097
-0.116147804697151 0.318632923317318 2.19366343597062
-0.0717714205417143 0.313695385283252 2.20288812688421
-0.028017179212444 0.310209202357665 2.20827195491911
0.014710895858713 0.308861150720533 2.20790848346607
0.0476487940424687 0.295281762576902 2.23202083569228
-0.215187622603725 -0.0216805263116707 1.78046810968334
-0.163943807707447 -0.0263457106064358 1.77802484805759
-0.113248784383188 -0.030674880504919 1.78420010029073
-0.0654591682707043 -0.0357542652460719 1.79030658753569
-0.0206954038756635 -0.0395471700840251 1.79591766399885
0.0234140148582218 -0.0356396627696677 1.80068949232215
0.0719919730199555 -0.034385989367398 1.80858990274423
-0.236681241363313 0.0203030895481917 1.78680745759531
-0.209028545479493 0.0576402745233764 1.7891069650395
-0.185275471641623 0.017315630735638 1.77782541383212
-0.134534455002054 0.0135633767296129 1.78140352789643
-0.0869019698244242 0.0122402803194186 1.7876258894009
-0.0396982167737242 0.00857339425280151 1.79353358789549
0.0050692001526509 0.00986091748384679 1.79975736517859
0.0519698652505023 0.00889256331191543 1.80611708502909
0.100079929869917 0.01031163759367 1.8208852938744
0.146972293723222 0.00229177028181573 1.848943371509
0.115494415687667 -0.0300893544291806 1.82594062250308
-0.298584952172731 0.0656269010576465 1.83317062560915
-0.26617041962761 0.103816909773513 1.83371465241305
-0.255914512037399 0.0642994420377976 1.80572345970431
0.123434587777548 0.0447931758910401 1.84366551531021
0.180779689078959 0.00687185489038538 1.8864614215548
0.159406637122223 0.0467454514984483 1.87563623663296
-0.306163255582222 0.0981302747277176 1.8625719687672
-0.272449484631374 0.136479969791739 1.86816367036602
0.189549112624038 0.044467826500398 1.9192773315435
0.162149466859523 0.0832601116140371 1.90800111832091
-0.310532160361701 0.132703111797021 1.90048899602419
-0.279244630347757 0.168667660242356 1.90451458539094
0.188743749160532 0.0764492804073093 1.95086559268101
0.160451590767094 0.117169262977132 1.94175183725562
-0.321498092611808 0.159144840879495 1.93939011548128
-0.283891653457899 0.19841061007464 1.9370116174937
0.187570841837358 0.11079234767578 1.98621399674689
0.159641754818026 0.150109599698398 1.97579790834209
-0.318052896219 0.198914032265398 1.97247202177954
-0.281693760876379 0.233764046662363 1.96944558184649
0.187077136182226 0.140720997383247 2.01833754970129
0.159187722676297 0.182381135108629 2.00968084004938
-0.314994983197586 0.235127250171178 2.0030760826026
-0.280830476542837 0.271097864374324 2.00648932107742
0.186242183747403 0.174522214385257 2.05396408284183
0.158190637674557 0.214826647859512 2.04293290293022
-0.338687631360794 0.236348485058912 2.03937425360836
-0.309046688569777 0.273012954430204 2.04253029181808
0.184736492368963 0.204871984583508 2.08553557834627
0.155144282776321 0.244758326250187 2.07810421845227
-0.275569940506088 0.312619213755635 2.09705401441959
-0.270414625626065 0.302831717514521 2.0493035506227
-0.237799030431023 0.32519779277649 2.082531141153
0.133005009032444 0.278727651724435 2.16066826132759
0.146739573499832 0.2666033389065 2.11926897811418
0.107109992120227 0.294537692704394 2.11837751719453
-0.213351204415432 0.333537072430425 2.12224417943975
-0.187631402912229 0.333123088992108 2.08653309567926
-0.172894977702726 0.333945037111351 2.14097176193161
-0.143774926375834 0.331893571507516 2.10019132611251
-0.130513374536651 0.330002549541681 2.15050584640975
-0.0997189189371661 0.328352419806511 2.10568397348828
-0.0837668679078782 0.326604174283268 2.15360957813287
-0.054918058767254 0.324552805915716 2.10943862411342
-0.0395364207777296 0.322943213153293 2.15997628185394
-0.0113999785520233 0.320890679134189 2.11345626120713
0.0049411482495655 0.319760827391592 2.16227585644197
0.0327457390841973 0.317644673441553 2.12165757521322
0.0505103631633967 0.313047583609967 2.17765393633075
0.0703703452680729 0.311163136254571 2.13460517075069
-0.177951062355847 0.090938471814402 1.80119102974751
-0.155752264795194 0.0558020813799044 1.78739162501051
-0.110038308497312 0.0580525010094808 1.79502851260207
-0.061368894324105 0.0536675545802906 1.80093454086562
-0.0164825088405626 0.0553281654660162 1.80849473952102
0.0288739711369366 0.0543716406866885 1.81522188471027
0.0748321382694687 0.0502130629252862 1.82279250382766
-0.222951304976514 0.100081228534304 1.81246772255355
-0.180147310104542 0.127135174338512 1.82672026497318
-0.134338727103446 0.100973415717753 1.81227499549487
-0.0834804395289333 0.0937361309442692 1.8166230070054
-0.0391807727888137 0.0969701427092708 1.82657589385385
0.0053133736962447 0.0968266871557927 1.83451876449804
0.0504509517026385 0.0937816675822352 1.84058086425913
0.0937575426689314 0.0838910152689704 1.84820143501835
0.128334609813995 0.0871749232827855 1.87329189553231
-0.227651733686642 0.135599382457616 1.84328375657516
-0.187600282163475 0.160680609974565 1.86004555320113
-0.141834089619875 0.143581873651939 1.8473155416838
-0.102768558228656 0.127044715000348 1.83877105159639
-0.0599895078212653 0.132403284063958 1.85287388811364
-0.016315358055798 0.133024233740872 1.8625084951509
0.0317434331612964 0.129144469447972 1.86849020442027
0.0814899360893071 0.121165813620772 1.87499458506907
0.126146089737288 0.119780046027064 1.90403312068201
-0.234311357572988 0.167993674548737 1.87773111976318
-0.189090979033484 0.19289755960117 1.89236504746695
-0.143166205738301 0.177481523036501 1.88136033263999
-0.0967072435144274 0.160528481681397 1.87377679837865
-0.0497744264157256 0.167382602950805 1.89039281552489
0.000362191531980305 0.163256323291356 1.8965534053455
0.0481079553413642 0.158939240701266 1.90203987371494
0.0901072922595712 0.151020634210296 1.91005836925164
0.125204438537568 0.154485663593341 1.93941871193553
-0.237605498848511 0.199371215871274 1.90996408671954
-0.191428572813244 0.223553689104081 1.92317528258812
-0.14257524246202 0.211655201585075 1.91607881689355
-0.100161407559915 0.193394513900292 1.90633698630707
-0.0622841419047387 0.202222217788227 1.92308403666091
-0.0176374043531929 0.196142722692715 1.92613506884478
0.0303181036363993 0.192375666750938 1.93220921405145
0.0792850962141411 0.185895822038974 1.94025896904152
0.124360162558332 0.18564694794056 1.97119538408513
-0.240641194481616 0.22988276431949 1.94126358263106
-0.197583556469044 0.253900292273348 1.95400387480839
-0.147662043000024 0.24392059707742 1.9476939806921
-0.0985445369424144 0.231487960197872 1.94523612229464
-0.0470346638483521 0.231629408590807 1.9559998637067
0.001074265835793 0.226805963271792 1.96103675857362
0.0474306518165467 0.223216600822687 1.96702132798273
0.0888303424485945 0.216011666299302 1.97617870747057
0.123774573736182 0.219793742740371 2.00634344071179
-0.245082152603495 0.262736000890054 1.97550637262834
-0.207076239563095 0.284789742283097 1.98661359525754
-0.16014384170779 0.277747146277748 1.97943133356244
-0.113631456347789 0.267423608682051 1.97850576474654
-0.0690329137871573 0.262845465590889 1.98306623536966
-0.0201011801550986 0.26054515862459 1.99082737463024
0.0286547433920247 0.256792339389494 1.99708062665265
0.0776643560764504 0.251007960504578 2.00620100567099
0.122389320093339 0.250379555692649 2.03793646689468
-0.240655998079628 0.297483143469505 2.01460563947178
-0.184034566166874 0.307161477281074 2.01513225487334
-0.13535461425343 0.300582855570256 2.0137123650569
-0.0907697327277795 0.295649027145988 2.01720297853071
-0.0459497384422919 0.291411792117211 2.02184045452092
0.000377534176610989 0.288309847114239 2.02855937101782
0.0454048900720517 0.285284281097345 2.03522911676581
0.0860026985247296 0.278488510094046 2.04535663706005
0.117754950208937 0.27766704944551 2.07874074717828
-0.215627721370725 0.319596541463552 2.0458166235982
-0.161458324263433 0.3228413218257 2.05159259489608
-0.115736686653026 0.319273963924987 2.05760194950625
-0.0707171366312355 0.31513542436677 2.06176510734143
-0.0250060094693756 0.310952778142387 2.06607972692534
0.0220877132419568 0.307707268913275 2.07343321616732
0.0689413913786694 0.302468136576817 2.08367596474485
3 0 1 2
3 0 2 4
3 3 0 4
3 3 4 6
3 5 3 6
3 5 6 8
3 7 5 8
3 7 8 10
3 9 7 10
3 9 10 12
3 11 9 12
3 13 11 14
3 14 11 12
3 13 14 15
3 16 17 18
3 16 18 1
3 0 19 1
3 19 16 1
3 0 3 20
3 19 0 20
3 3 5 21
3 20 3 21
3 5 7 22
3 21 5 22
3 7 9 23
3 22 7 23
3 9 11 24
3 23 9 24
3 24 11 25
3 25 11 13
3 13 15 26
3 27 13 26
3 25 13 27
3 27 26 28
3 17 16 30
3 30 16 29
3 29 19 31
3 29 16 19
3 31 20 32
3 31 19 20
3 32 21 33
3 32 20 21
3 21 22 33
3 33 22 34
3 22 23 34
3 34 23 35
3 23 24 35
3 35 24 36
3 24 25 36
3 36 25 37
3 37 27 38
3 37 25 27
3 38 28 39
3 38 27 28
3 30 40 41
3 30 29 40
3 29 31 42
3 40 29 42
3 31 32 43
3 42 31 43
3 32 33 44
3 43 32 44
3 33 34 45
3 44 33 45
3 34 35 46
3 45 34 46
3 35 36 47
3 46 35 47
3 36 37 47
3 47 37 48
3 37 38 48
3 48 38 49
3 49 39 50
3 49 38 39
3 40 51 52
3 41 40 52
3 51 42 53
3 51 40 42
3 42 43 53
3 53 43 54
3 43 44 54
3 54 44 55
3 44 45 55
3 55 45 56
3 45 46 56
3 56 46 57
3 46 47 58
3 57 46 58
3 47 48 59
3 58 47 59
3 48 49 60
3 59 48 60
3 49 50 61
3 60 49 61
3 51 62 63
3 52 51 63
3 51 53 64
3 62 51 64
3 53 54 65
3 64 53 65
3 54 55 66
3 65 54 66
3 55 56 67
3 66 55 67
3 56 57 67
3 67 57 68
3 57 58 69
3 68 57 69
3 58 59 69
3 69 59 70
3 59 60 70
3 70 60 71
3 71 61 72
3 71 60 61
3 62 73 74
3 63 62 74
3 62 64 75
3 73 62 75
3 64 65 75
3 75 65 76
3 65 66 76
3 76 66 77
3 66 67 77
3 77 67 78
3 67 68 78
3 78 68 79
3 79 69 80
3 79 68 69
3 80 70 81
3 80 69 70
3 81 71 82
3 81 70 71
3 82 72 83
3 82 71 72
3 74 73 85
3 85 73 84
3 84 73 86
3 86 73 75
3 75 76 86
3 86 76 87
3 76 77 88
3 87 76 88
3 77 78 89
3 88 77 89
3 78 79 90
3 89 78 90
3 79 80 91
3 90 79 91
3 80 81 92
3 91 80 92
3 81 82 93
3 92 81 93
3 93 83 94
3 93 82 83
3 84 95 85
3 84 86 96
3 97 84 96
3 95 84 97
3 96 87 98
3 96 86 87
3 87 88 98
3 98 88 99
3 88 89 99
3 99 89 100
3 89 90 100
3 100 90 101
3 101 91 102
3 101 90 91
3 102 92 103
3 102 91 92
3 92 93 103
3 105 103 104
3 103 93 104
3 93 94 104
3 96 106 97
3 96 98 107
3 106 96 107
3 98 99 108
3 107 98 108
3 99 100 109
3 108 99 109
3 100 101 110
3 109 100 110
3 101 102 111
3 110 101 111
3 111 102 112
3 112 102 103
3 103 105 112
3 117 114 115
3 116 113 117
3 117 113 114
3 116 117 119
3 118 116 119
3 118 119 121
3 120 118 121
3 120 121 123
3 122 120 123
3 122 123 125
3 124 122 125
3 124 125 127
3 126 124 127
3 126 127 128
3 129 130 131
3 114 129 131
3 114 113 129
3 113 2 129
3 129 2 1
3 4 113 116
3 4 2 113
3 6 116 118
3 6 4 116
3 8 118 120
3 8 6 118
3 10 120 122
3 10 8 120
3 12 122 124
3 12 10 122
3 14 124 126
3 14 12 124
3 133 126 128
3 15 14 126
3 15 126 133
3 132 15 133
3 132 133 134
3 135 136 137
3 137 17 135
3 137 18 17
3 18 137 130
3 129 18 130
3 18 129 1
3 15 132 26
3 139 132 134
3 139 138 132
3 138 28 26
3 132 138 26
3 138 139 140
3 136 135 142
3 142 135 141
3 17 30 135
3 135 30 141
3 143 39 28
3 138 143 28
3 143 140 144
3 143 138 140
3 141 145 146
3 142 141 146
3 41 145 141
3 30 41 141
3 147 39 143
3 147 50 39
3 147 144 148
3 147 143 144
3 145 149 150
3 146 145 150
3 52 149 145
3 41 52 145
3 151 50 147
3 151 155 50
3 151 148 152
3 151 147 148
3 149 153 154
3 150 149 154
3 63 153 149
3 52 63 149
3 155 61 50
3 155 72 61
3 155 151 156
3 156 151 152
3 154 157 158
3 154 153 157
3 74 157 153
3 63 74 153
3 159 72 155
3 159 83 72
3 159 156 160
3 159 155 156
3 158 157 162
3 162 157 161
3 74 85 161
3 157 74 161
3 163 83 159
3 163 94 83
3 163 160 164
3 163 159 160
3 161 165 162
3 165 95 166
3 165 161 95
3 161 85 95
3 165 166 167
3 95 97 166
3 105 104 168
3 170 94 163
3 170 168 94
3 169 168 170
3 94 168 104
3 163 164 170
3 166 171 167
3 173 171 172
3 172 171 106
3 171 97 106
3 171 166 97
3 172 107 174
3 172 106 107
3 174 108 175
3 174 107 108
3 175 109 176
3 175 108 109
3 176 110 177
3 176 109 110
3 177 111 178
3 177 110 111
3 178 112 180
3 178 111 112
3 181 105 168
3 181 180 105
3 179 178 180
3 180 112 105
3 168 169 181
3 172 182 173
3 182 172 183
3 183 172 174
3 174 175 184
3 183 174 184
3 175 176 185
3 184 175 185
3 176 177 186
3 185 176 186
3 177 178 187
3 186 177 187
3 187 179 188
3 187 178 179
3 179 180 229
3 189 190 191
3 114 131 191
3 115 114 191
3 115 191 192
3 115 192 193
3 117 115 193
3 119 193 194
3 119 117 193
3 119 194 121
3 121 194 195
3 121 195 123
3 123 195 196
3 123 196 125
3 125 196 197
3 127 197 198
3 127 125 197
3 128 198 199
3 200 128 199
3 128 127 198
3 200 199 201
3 202 203 204
3 131 130 189
3 190 189 204
3 189 130 202
3 189 202 204
3 131 189 191
3 128 200 133
3 134 200 205
3 206 205 201
3 134 133 200
3 205 200 201
3 205 206 207
3 136 208 203
3 202 137 136
3 202 136 203
3 137 202 130
3 134 205 139
3 139 205 207
3 140 139 207
3 211 207 209
3 136 142 208
3 208 142 210
3 211 140 207
3 211 144 140
3 146 212 210
3 142 146 210
3 148 144 213
3 213 144 211
3 150 214 212
3 146 150 212
3 215 148 213
3 215 152 148
3 154 216 150
3 150 216 214
3 219 152 217
3 217 152 215
3 158 218 216
3 154 158 216
3 219 156 152
3 219 160 156
3 158 220 218
3 158 162 220
3 221 160 219
3 221 164 160
3 162 165 222
3 223 220 222
3 220 162 222
3 165 167 222
3 169 170 224
3 225 164 221
3 224 170 164
3 224 164 225
3 222 226 223
3 167 171 227
3 226 167 227
3 226 227 228
3 226 222 167
3 171 173 227
3 180 181 229
3 181 169 230
3 231 169 224
3 230 169 231
3 230 229 181
3 224 225 271
3 227 232 228
3 232 182 233
3 232 173 182
3 227 173 232
3 182 183 234
3 233 182 234
3 183 184 234
3 234 184 235
3 184 185 235
3 235 185 236
3 185 186 236
3 236 186 237
3 186 187 237
3 237 187 238
3 238 188 239
3 238 187 188
3 188 179 229
3 240 239 188
3 240 188 229
3 229 230 240
3 191 190 242
3 242 190 241
3 192 242 243
3 192 191 242
3 192 243 244
3 193 192 244
3 194 244 245
3 194 193 244
3 194 245 246
3 195 194 246
3 195 246 247
3 196 195 247
3 196 247 248
3 197 196 248
3 197 248 249
3 198 197 249
3 199 198 249
3 250 199 249
3 201 199 251
3 251 199 250
3 204 252 253
3 204 203 252
3 190 253 241
3 190 204 253
3 206 251 254
3 206 201 251
3 207 206 255
3 255 206 254
3 203 256 252
3 203 208 256
3 257 209 255
3 255 209 207
3 210 258 208
3 208 258 256
3 211 209 259
3 259 209 257
3 212 260 210
3 210 260 258
3 213 211 259
3 261 213 259
3 214 262 260
3 212 214 260
3 215 213 261
3 263 215 261
3 216 264 214
3 214 264 262
3 217 215 263
3 265 217 263
3 218 266 264
3 216 218 264
3 219 217 265
3 267 219 265
3 218 268 266
3 218 220 268
3 221 219 267
3 269 221 267
3 223 270 268
3 220 223 268
3 225 221 269
3 271 225 269
3 223 226 272
3 270 223 272
3 272 228 273
3 272 226 228
3 274 231 275
3 274 230 231
3 275 231 271
3 271 231 224
3 273 228 276
3 276 228 232
3 276 233 277
3 276 232 233
3 233 234 278
3 277 233 278
3 234 235 279
3 278 234 279
3 235 236 280
3 279 235 280
3 236 237 281
3 280 236 281
3 237 238 282
3 281 237 282
3 238 239 283
3 282 238 283
3 327 239 284
3 284 239 240
3 240 230 274
3 284 240 274
3 241 285 286
3 242 241 286
3 242 286 243
3 243 286 287
3 243 287 288
3 244 243 288
3 245 288 289
3 245 244 288
3 245 289 246
3 246 289 290
3 246 290 247
3 247 290 291
3 247 291 248
3 248 291 292
3 248 292 293
3 249 248 293
3 249 293 250
3 250 293 294
3 250 294 295
3 251 250 295
3 252 296 297
3 253 252 297
3 241 297 285
3 241 253 297
3 254 295 298
3 254 251 295
3 254 298 299
3 255 254 299
3 256 300 252
3 252 300 296
3 257 255 299
3 301 257 299
3 258 302 300
3 256 258 300
3 259 257 303
3 303 257 301
3 260 304 258
3 258 304 302
3 261 259 303
3 305 261 303
3 262 306 304
3 260 262 304
3 263 261 305
3 307 263 305
3 264 308 262
3 262 308 306
3 265 263 307
3 309 265 307
3 266 310 308
3 264 266 308
3 267 265 309
3 311 267 309
3 266 312 310
3 266 268 312
3 269 267 311
3 313 269 311
3 270 314 312
3 268 270 312
3 271 269 315
3 315 269 313
3 270 272 316
3 314 270 316
3 316 273 317
3 316 272 273
3 318 275 319
3 318 274 275
3 275 271 315
3 319 275 315
3 273 276 320
3 317 273 320
3 276 277 320
3 320 277 321
3 277 278 322
3 321 277 322
3 322 279 323
3 322 278 279
3 279 280 323
3 323 280 324
3 280 281 324
3 324 281 325
3 281 282 325
3 325 282 326
3 282 283 326
3 326 283 327
3 283 239 327
3 327 284 328
3 284 274 318
3 328 284 318
3 285 329 330
3 286 285 330
3 286 330 287
3 287 330 331
3 287 331 332
3 288 287 332
3 288 332 289
3 289 332 333
3 289 333 334
3 290 289 334
3 290 334 335
3 291 290 335
3 291 335 292
3 292 335 336
3 292 336 337
3 293 292 337
3 293 337 294
3 294 337 338
3 294 338 339
3 295 294 339
3 296 340 341
3 297 296 341
3 285 341 329
3 285 297 341
3 298 339 342
3 298 295 339
3 298 342 343
3 299 298 343
3 300 344 296
3 296 344 340
3 301 299 343
3 345 301 343
3 302 346 344
3 300 302 344
3 303 301 347
3 347 301 345
3 304 348 302
3 302 348 346
3 305 303 347
3 349 305 347
3 306 350 348
3 304 306 348
3 307 305 351
3 351 305 349
3 308 352 306
3 306 352 350
3 309 307 353
3 353 307 351
3 310 354 352
3 308 310 352
3 311 309 355
3 355 309 353
3 312 356 310
3 310 356 354
3 313 311 355
3 357 313 355
3 314 358 356
3 312 314 356
3 315 313 359
3 359 313 357
3 314 316 360
3 358 314 360
3 360 317 361
3 360 316 317
3 362 319 363
3 362 318 319
3 319 315 359
3 363 319 359
3 317 320 364
3 361 317 364
3 320 321 364
3 364 321 365
3 321 322 366
3 365 321 366
3 322 323 366
3 366 323 367
3 323 324 368
3 367 323 368
3 324 325 369
3 368 324 369
3 325 326 370
3 369 325 370
3 326 327 371
3 370 326 371
3 327 328 371
3 371 328 372
3 328 318 362
3 372 328 362
3 329 373 374
3 330 329 374
3 330 374 331
3 331 374 375
3 331 375 376
3 332 331 376
3 332 376 333
3 333 376 377
3 333 377 378
3 334 333 378
3 334 378 379
3 335 334 379
3 335 379 336
3 336 379 380
3 336 380 381
3 337 336 381
3 337 381 338
3 338 381 382
3 338 382 383
3 339 338 383
3 340 384 385
3 341 340 385
3 329 385 373
3 329 341 385
3 342 383 386
3 342 339 383
3 342 386 387
3 343 342 387
3 344 388 340
3 340 388 384
3 345 343 387
3 389 345 387
3 346 390 388
3 344 346 388
3 347 345 391
3 391 345 389
3 348 392 346
3 346 392 390
3 349 347 391
3 393 349 391
3 350 394 348
3 348 394 392
3 351 349 395
3 395 349 393
3 352 396 350
3 350 396 394
3 353 351 395
3 397 353 395
3 354 398 396
3 352 354 396
3 355 353 399
3 399 353 397
3 356 400 354
3 354 400 398
3 357 355 399
3 401 357 399
3 358 402 400
3 356 358 400
3 359 357 403
3 403 357 401
3 358 360 404
3 402 358 404
3 404 361 405
3 404 360 361
3 406 363 407
3 406 362 363
3 363 359 403
3 407 363 403
3 361 364 408
3 405 361 408
3 364 365 408
3 408 365 409
3 365 366 410
3 409 365 410
3 366 367 410
3 410 367 411
3 367 368 412
3 411 367 412
3 368 369 412
3 412 369 413
3 369 370 413
3 413 370 414
3 370 371 415
3 414 370 415
3 371 372 415
3 415 372 416
3 372 362 406
3 416 372 406
3 373 417 418
3 374 373 418
3 374 418 375
3 375 418 419
3 375 419 420
3 376 375 420
3 376 420 377
3 377 420 421
3 377 421 422
3 378 377 422
3 378 422 423
3 379 378 423
3 380 423 424
3 380 379 423
3 380 424 425
3 381 380 425
3 382 425 426
3 382 381 425
3 382 426 427
3 383 382 427
3 384 428 429
3 385 384 429
3 373 429 417
3 373 385 429
3 386 427 430
3 386 383 427
3 386 430 431
3 387 386 431
3 384 432 428
3 384 388 432
3 389 387 431
3 433 389 431
3 390 434 432
3 388 390 432
3 435 389 433
3 435 391 389
3 390 436 434
3 390 392 436
3 393 391 435
3 437 393 435
3 394 438 436
3 392 394 436
3 395 393 439
3 439 393 437
3 396 440 438
3 394 396 438
3 397 395 439
3 441 397 439
3 398 442 440
3 396 398 440
3 399 397 443
3 443 397 441
3 400 444 398
3 398 444 442
3 401 399 443
3 445 401 443
3 402 446 444
3 400 402 444
3 403 401 447
3 447 401 445
3 402 404 448
3 446 402 448
3 448 405 449
3 448 404 405
3 450 407 451
3 450 406 407
3 407 403 447
3 451 407 447
3 405 408 452
3 449 405 452
3 408 409 452
3 452 409 453
3 409 410 454
3 453 409 454
3 410 411 454
3 454 411 455
3 411 412 456
3 455 411 456
3 412 413 456
3 456 413 457
3 457 414 458
3 457 413 414
3 414 415 459
3 458 414 459
3 415 416 459
3 459 416 460
3 416 406 450
3 460 416 450
3 418 461 462
3 418 417 461
3 419 462 463
3 419 418 462
3 419 463 464
3 420 419 464
3 420 464 421
3 421 464 465
3 421 465 466
3 422 421 466
3 422 466 467
3 423 422 467
3 424 467 468
3 424 423 467
3 424 468 469
3 425 424 469
3 426 469 470
3 426 425 469
3 427 426 471
3 471 426 470
3 429 428 473
3 473 428 472
3 417 473 505
3 417 429 473
3 430 427 471
3 520 430 471
3 431 474 475
3 431 430 474
3 428 476 472
3 428 432 476
3 433 431 475
3 477 433 475
3 434 478 476
3 432 434 476
3 479 433 477
3 479 435 433
3 434 480 478
3 434 436 480
3 437 435 479
3 481 437 479
3 438 482 436
3 436 482 480
3 439 437 483
3 483 437 481
3 440 484 482
3 438 440 482
3 441 439 483
3 485 441 483
3 442 486 440
3 440 486 484
3 443 441 487
3 487 441 485
3 444 488 442
3 442 488 486
3 445 443 487
3 489 445 487
3 444 446 488
3 488 446 490
3 491 445 489
3 491 447 445
3 490 446 492
3 492 446 448
3 492 449 493
3 492 448 449
3 494 451 495
3 494 450 451
3 451 447 491
3 495 451 491
3 449 452 496
3 493 449 496
3 496 453 497
3 496 452 453
3 453 454 498
3 497 453 498
3 498 455 499
3 498 454 455
3 455 456 500
3 499 455 500
3 456 457 501
3 500 456 501
3 457 458 502
3 501 457 502
3 458 459 503
3 502 458 503
3 503 460 504
3 503 459 460
3 504 460 494
3 494 460 450
3 461 505 506
3 462 461 506
3 507 463 462
3 507 462 506
3 465 463 508
3 508 463 507
3 464 463 465
3 465 508 509
3 465 509 466
3 466 509 510
3 466 510 467
3 467 510 511
3 467 511 468
3 468 511 512
3 468 512 513
3 469 468 513
3 469 513 470
3 515 470 514
3 470 513 514
3 470 515 471
3 472 516 473
3 518 516 517
3 518 505 516
3 461 417 505
3 505 473 516
3 505 518 506
3 515 514 519
3 474 430 520
3 521 520 519
3 520 471 515
3 520 515 519
3 474 520 524
3 476 522 472
3 516 472 523
3 472 522 523
3 516 523 517
3 520 521 524
3 477 475 524
3 524 475 474
3 525 477 524
3 478 526 522
3 476 478 522
3 527 477 525
3 527 479 477
3 478 528 526
3 478 480 528
3 481 479 527
3 529 481 527
3 482 530 480
3 480 530 528
3 483 481 531
3 531 481 529
3 484 532 530
3 482 484 530
3 485 483 531
3 533 485 531
3 486 534 484
3 484 534 532
3 535 485 533
3 535 487 485
3 486 536 534
3 486 488 536
3 537 489 535
3 535 489 487
3 490 538 539
3 536 490 539
3 488 490 536
3 538 540 539
3 541 542 543
3 541 489 537
3 542 541 537
3 541 491 489
3 490 492 538
3 545 493 544
3 538 492 493
3 538 493 545
3 540 538 545
3 544 546 545
3 547 548 549
3 543 495 541
3 547 494 495
3 547 495 543
3 608 547 543
3 495 491 541
3 493 496 544
3 544 497 550
3 546 544 550
3 544 496 497
3 550 497 551
3 551 497 498
3 498 499 551
3 551 499 552
3 499 500 552
3 552 500 553
3 500 501 553
3 553 501 554
3 554 502 555
3 554 501 502
3 502 503 556
3 555 502 556
3 503 504 556
3 549 504 547
3 556 504 549
3 504 494 547
3 506 557 507
3 507 557 558
3 508 507 558
3 508 558 559
3 509 508 559
3 509 559 560
3 510 509 560
3 510 560 561
3 511 510 561
3 511 561 562
3 512 511 562
3 514 512 563
3 563 512 562
3 513 512 514
3 517 564 518
3 518 564 557
3 566 564 565
3 557 564 566
3 557 506 518
3 558 566 567
3 558 557 566
3 559 567 568
3 559 558 567
3 560 568 569
3 560 559 568
3 561 569 570
3 561 560 569
3 562 570 571
3 562 561 570
3 563 562 571
3 572 563 571
3 574 514 563
3 572 574 563
3 573 519 574
3 574 519 514
3 519 573 521
3 522 575 523
3 577 575 576
3 577 517 575
3 564 517 577
3 575 517 523
3 564 577 565
3 573 574 572
3 521 573 579
3 580 573 578
3 579 573 580
3 579 524 521
3 524 579 525
3 522 581 575
3 522 526 581
3 576 581 582
3 576 575 581
3 583 580 584
3 583 579 580
3 583 525 579
3 583 527 525
3 526 585 581
3 526 528 585
3 582 585 586
3 582 581 585
3 587 584 588
3 587 583 584
3 587 527 583
3 587 529 527
3 528 589 585
3 528 530 589
3 586 589 590
3 586 585 589
3 591 588 592
3 591 587 588
3 591 529 587
3 591 531 529
3 532 593 589
3 530 532 589
3 590 593 594
3 590 589 593
3 595 592 596
3 595 591 592
3 595 531 591
3 595 533 531
3 534 597 593
3 532 534 593
3 594 597 598
3 594 593 597
3 599 596 600
3 599 595 596
3 599 533 595
3 599 535 533
3 534 601 597
3 534 536 601
3 602 597 601
3 602 598 597
3 603 599 600
3 604 603 600
3 603 535 599
3 603 537 535
3 536 539 601
3 606 540 605
3 606 602 540
3 602 601 539
3 540 602 539
3 605 607 606
3 608 609 610
3 608 543 609
3 604 542 603
3 609 543 542
3 609 542 604
3 542 537 603
3 540 545 605
3 605 546 607
3 612 607 611
3 605 545 546
3 607 546 611
3 612 613 614
3 612 611 613
3 614 615 616
3 614 613 615
3 616 617 618
3 616 615 617
3 618 619 620
3 618 617 619
3 620 621 622
3 620 619 621
3 622 623 624
3 622 621 623
3 610 548 608
3 624 623 548
3 624 548 610
3 548 623 549
3 548 547 608
3 546 550 611
3 611 550 613
3 613 550 551
3 551 552 615
3 613 551 615
3 552 553 617
3 615 552 617
3 553 554 619
3 617 553 619
3 554 555 621
3 619 554 621
3 621 555 623
3 623 555 556
3 556 549 623
3 565 625 626
3 567 566 626
3 626 566 565
3 567 626 627
3 568 567 627
3 568 627 628
3 569 568 628
3 569 628 629
3 570 569 629
3 570 629 630
3 571 570 630
3 572 571 631
3 631 571 630
3 572 631 578
3 576 632 577
3 625 632 633
3 565 577 632
3 565 632 625
3 625 633 634
3 626 625 634
3 626 634 627
3 627 634 635
3 627 635 628
3 628 635 636
3 628 636 629
3 629 636 637
3 629 637 630
3 630 637 638
3 631 638 639
3 631 630 638
3 640 578 639
3 578 573 572
3 578 631 639
3 578 640 580
3 576 641 632
3 576 582 641
3 633 641 642
3 633 632 641
3 633 642 643
3 634 633 643
3 634 643 644
3 635 634 644
3 635 644 645
3 636 635 645
3 636 645 646
3 637 636 646
3 637 646 647
3 638 637 647
3 638 647 648
3 639 638 648
3 640 648 649
3 640 639 648
3 584 580 640
3 649 584 640
3 582 650 641
3 582 586 650
3 642 650 651
3 642 641 650
3 642 651 652
3 643 642 652
3 643 652 653
3 644 643 653
3 644 653 645
3 645 653 654
3 645 654 646
3 646 654 655
3 646 655 647
3 647 655 656
3 647 656 648
3 648 656 657
3 648 657 649
3 649 657 658
3 588 584 649
3 658 588 649
3 586 659 650
3 586 590 659
3 650 659 651
3 651 659 660
3 651 660 661
3 652 651 661
3 652 661 662
3 653 652 662
3 653 662 654
3 654 662 663
3 654 663 664
3 655 654 664
3 655 664 665
3 656 655 665
3 656 665 666
3 657 656 666
3 657 666 658
3 658 666 667
3 592 588 658
3 667 592 658
3 590 668 659
3 590 594 668
3 660 668 669
3 660 659 668
3 660 669 670
3 661 660 670
3 661 670 671
3 662 661 671
3 662 671 663
3 663 671 672
3 663 672 664
3 664 672 673
3 664 673 665
3 665 673 674
3 665 674 666
3 666 674 675
3 666 675 667
3 667 675 676
3 596 592 667
3 676 596 667
3 594 677 668
3 594 598 677
3 668 677 669
3 669 677 678
3 669 678 679
3 670 669 679
3 670 679 680
3 671 670 680
3 671 680 681
3 672 671 681
3 672 681 682
3 673 672 682
3 673 682 683
3 674 673 683
3 674 683 684
3 675 674 684
3 676 684 685
3 676 675 684
3 600 596 676
3 685 600 676
3 598 686 677
3 598 602 606
3 678 686 687
3 678 677 686
3 678 687 679
3 679 687 688
3 679 688 680
3 680 688 689
3 680 689 681
3 681 689 690
3 681 690 682
3 682 690 691
3 683 691 692
3 683 682 691
3 684 692 693
3 684 683 692
3 685 693 694
3 685 684 693
3 694 604 685
3 685 604 600
3 598 606 686
3 606 607 695
3 686 606 695
3 686 695 687
3 688 687 696
3 696 687 695
3 688 696 697
3 689 688 697
3 689 697 698
3 690 689 698
3 690 698 699
3 691 690 699
3 691 699 700
3 692 691 700
3 692 700 701
3 693 692 701
3 610 609 694
3 701 610 694
3 701 694 693
3 609 604 694
3 607 612 695
3 695 612 696
3 696 612 614
3 614 616 697
3 696 614 697
3 616 618 698
3 697 616 698
3 618 620 699
3 698 618 699
3 620 622 700
3 699 620 700
3 622 624 701
3 700 622 701
3 624 610 701
