OFF
702 1400 0
-0.25238379045633 -0.347178026515243 2.13755063642746
-0.297930146846574 -0.333011492891333 2.12043890715613
-0.269703421317864 -0.350948028880912 2.09208583172115
-0.205451499394514 -0.353605315477466 2.14189262149022
-0.223669549165122 -0.361535920750998 2.09678133610007
-0.158599552528825 -0.358016710242008 2.14476323155185
-0.17724108759224 -0.3654810748529 2.09865213675423
-0.113182009310538 -0.361844647348566 2.14886556290406
-0.131879266031518 -0.369212665640144 2.10023561390589
-0.0682507755384529 -0.365497477163806 2.1533333659502
-0.0870835395426205 -0.372664975789931 2.10463252520379
-0.0207144461961673 -0.368491047371735 2.16073371189293
-0.0412573301956972 -0.375928649034408 2.11289120438664
0.0273663036535469 -0.364034357282009 2.16920008823309
0.00608541063902164 -0.377513752285271 2.12174641606907
0.0525455576849966 -0.368643692682053 2.13083815237749
-0.320720047310544 -0.305932768888909 2.14996606970594
-0.350621589646574 -0.287589671188905 2.12337460500964
-0.329244611299785 -0.316102438216304 2.09356277477058
-0.280124739447147 -0.322448457569231 2.16888392383612
-0.233342883930637 -0.331611628603051 2.18039818165142
-0.18559824256107 -0.336678233996039 2.18391866674344
-0.138790488496887 -0.34044481422086 2.18903278816134
-0.0935373403972858 -0.343695850883547 2.19462232532406
-0.0491941124809347 -0.34879500581178 2.19688164070187
-0.000529635664704931 -0.349499835549257 2.20402767318457
0.0732051342829988 -0.347755376221984 2.17552099925697
0.0445752458918243 -0.337341135211305 2.21225117705235
0.0905073839349677 -0.316715236630655 2.21078673363372
-0.307875260757691 -0.286876506882591 2.19240535534741
-0.348204131579837 -0.265499127794075 2.16540760983937
-0.26177801876515 -0.30072789461518 2.20927090557746
-0.211773038414846 -0.307014901215764 2.21697623828734
-0.164133229193764 -0.311170137021694 2.22193425379519
-0.116482004697257 -0.313514260950481 2.22894185473916
-0.0717471698123948 -0.316140895265784 2.23503808226098
-0.0294330334942543 -0.325074386789184 2.23351874627078
0.0118570759543256 -0.316954764170082 2.24446556979396
0.0574096433621887 -0.303236467029353 2.24641422679578
0.102035048510712 -0.280287287312873 2.24082619175018
-0.326386327512757 -0.250744792696533 2.21473531115942
-0.359741375652695 -0.228361382932324 2.18928907442568
-0.285273353965792 -0.26625711264561 2.23515404084381
-0.236166105115045 -0.276949997784066 2.2458126067758
-0.187373904834292 -0.279045661524157 2.25352247034472
-0.139879443131544 -0.283605419713578 2.2579948010369
-0.0883602769248282 -0.284427849827846 2.267504600986
-0.0334347701633666 -0.293400946811063 2.26849511677407
0.0169601743006036 -0.286094067275759 2.27805508737705
0.0673114113185289 -0.270102947286452 2.2773543668534
0.111844401832941 -0.243306690673047 2.27055907463365
-0.310594064936478 -0.228418273639579 2.25829306804062
-0.351247990347213 -0.209526629588743 2.22809351837916
-0.261205856904766 -0.245859649431441 2.27234123717056
-0.213764017797496 -0.248225338441766 2.28299963004314
-0.168200571651514 -0.249232227170984 2.29109462308756
-0.124194721911719 -0.256720140041071 2.29155119348584
-0.0907438567034299 -0.245368264083786 2.31115528760078
-0.0557792734231974 -0.263748298714083 2.29747281951097
-0.0134745975171401 -0.260381222355221 2.3084041527909
0.0343786900245799 -0.253514051708434 2.30996715239338
0.0822726778909102 -0.234139310009976 2.30656374566221
-0.31401863460306 -0.189771577019188 2.30026219537167
-0.342096031081055 -0.190634440022483 2.26537363152254
-0.280922521347315 -0.215690352451708 2.29642007584705
-0.233807587567357 -0.218393087083672 2.3126391127611
-0.189057121140354 -0.217248229414129 2.32300861793165
-0.140101033898522 -0.22201438491381 2.32754279467314
-0.0946906222382761 -0.216531587713529 2.34293972273388
-0.0471806952534516 -0.229300988004595 2.33813804957724
0.000849004731632103 -0.228952816795056 2.34346926268043
0.0485545382022325 -0.221095979558021 2.34028168634155
0.0958335470246512 -0.198245063638812 2.33413126640281
-0.303548004086242 -0.166837931773924 2.33659542513926
-0.347814069307604 -0.152911254641215 2.30209988531366
-0.264688532427085 -0.190867014977639 2.33365802888406
-0.218739535406376 -0.185124055859727 2.35329053229959
-0.168659243587312 -0.189455895085628 2.35854432799778
-0.122846593938424 -0.189269939682786 2.36803824008587
-0.0712754466885912 -0.19314354389224 2.37411079628278
-0.0262794849573776 -0.1993842534337 2.37579568182854
0.0200738279741951 -0.196169215134384 2.37709858243934
0.0639358450866131 -0.188151535874891 2.36837914150991
0.10012752625526 -0.162144502236621 2.36842170352184
-0.299009221428059 -0.128695925980944 2.3741495580286
-0.332851073726634 -0.136189556021407 2.34067837436536
-0.26535655902387 -0.158407881215665 2.36828768851115
-0.230835135497019 -0.147078098433934 2.386577432681
-0.188031764129892 -0.1553883491563 2.38780032169447
-0.142895681253454 -0.155619679664701 2.3954929478889
-0.095652835053212 -0.158930179521924 2.40121950912541
-0.0470038613431845 -0.16299799653166 2.40662874851153
0.00130756885731124 -0.165847336689458 2.40815477395293
0.0528349307478068 -0.159435207162884 2.40075048833308
0.0999536704911891 -0.127602012479849 2.39436101603348
-0.340491628688393 -0.0977820952905204 2.35938275187657
-0.26190004199582 -0.110237522875631 2.40086218363276
-0.305630345619568 -0.0855688989223542 2.39114072580861
-0.212413875016966 -0.110943533978477 2.41004645208831
-0.166334469059614 -0.115650727059359 2.4149080631296
-0.119638256719351 -0.116676373483212 2.42145526875386
-0.0737950542693112 -0.121254832030845 2.42634767464997
-0.0270826039743797 -0.125728996758395 2.43112604115268
0.0195917279361381 -0.127030592550129 2.428973188835
0.0638737583782589 -0.1200522701947 2.41903983562338
0.0453890513605936 -0.082081527253605 2.43737905185452
-0.278901418857851 -0.0592256596831741 2.41026556480281
-0.236379865832975 -0.0685384139463124 2.41978277265948
-0.187323372844573 -0.0704123508565746 2.42589288731759
-0.141548208496433 -0.071561329497418 2.43166429286422
-0.0952405996012401 -0.07302532454756 2.43742552657784
-0.050618286968593 -0.0797305030045606 2.44207525680379
-0.00287362951199853 -0.0839710585367904 2.44481803589269
-0.247734297973448 -0.356804458243084 2.05251570481203
-0.27164703537927 -0.341413874373231 2.01772579974023
-0.248187240279883 -0.332826482380064 1.98050169123982
-0.198078755267105 -0.363044017314274 2.05284056652983
-0.219798834000397 -0.352346443777544 2.01222264773472
-0.152006764804259 -0.365648952647693 2.0520475402376
-0.171649140674393 -0.352314945032683 2.00663968468265
-0.106571019026482 -0.368605680220188 2.05443912332821
-0.126327253829844 -0.353815158591103 2.00724364670879
-0.0612109468651776 -0.37241808013149 2.0619629990208
-0.0787224116432585 -0.357592137949397 2.01320747947952
-0.0162622997069971 -0.376567746660997 2.07216186157224
-0.0329658686341024 -0.362562087224183 2.02219911276038
0.0297945695281585 -0.375392761675719 2.08073488155006
0.0112859307590669 -0.367106218571694 2.03330028052612
0.059177444420874 -0.360418969828636 2.04258240422867
-0.299394305565026 -0.337151856728981 2.06124812253944
-0.338036222945334 -0.306140767203752 2.04666547382147
-0.308431269317028 -0.32018861511385 2.01356728317968
0.0971747520790333 -0.348452905075653 2.13594733788719
0.0729106836188304 -0.363930264361288 2.09051041483663
0.112479072023779 -0.342436918163951 2.09347270285041
-0.376085357412779 -0.251635316177303 2.11537033390925
-0.38651585199054 -0.236989831086825 2.06640471615222
-0.363522350342724 -0.279931925801192 2.07742682541108
0.118160383588883 -0.321649106639163 2.17078144544729
0.138692628542723 -0.317962756017935 2.12654703148878
0.155697079646642 -0.287887249200253 2.15522142088618
-0.378319021825074 -0.224475894344294 2.14812097179602
-0.394299340544321 -0.206370355688803 2.10260416692544
0.13195541640849 -0.287153206492266 2.20061553743215
0.162861270579306 -0.25000183915927 2.187605806295
-0.38216285523482 -0.187510484642282 2.18370504288521
-0.394924695888532 -0.178217790369712 2.14034730698622
0.139691180012006 -0.248117269954159 2.23045800398677
0.16916238630549 -0.209276988157393 2.21374744437451
-0.376665865236547 -0.170181864011363 2.22233293821991
-0.397290099336892 -0.139962575899897 2.18147632798594
0.148226751344427 -0.208281351562196 2.25778232586121
0.173462181248558 -0.168631494006426 2.24190035931544
-0.368810433880744 -0.153921080052632 2.26202625750995
-0.392766825332382 -0.124275003746987 2.22753272000949
0.125039580808563 -0.203412947855238 2.29730189246924
0.15740362253372 -0.164446862442576 2.28487927660843
-0.382706057240644 -0.114626016929818 2.27604471671965
-0.401132568955512 -0.0789969314652423 2.24641719005981
0.132340561014158 -0.164878299510115 2.32763787451953
0.162389084062434 -0.125756011953847 2.31243153899837
-0.367180252715826 -0.108904965912873 2.31783236787545
-0.391599965254065 -0.0699926582373343 2.29423935145291
0.135694646951145 -0.128970159182227 2.35764321738909
0.159235895174947 -0.0902740804632759 2.34569192754899
-0.370186598073773 -0.0646535627096355 2.33738790561117
-0.338111701699827 -0.0549320371156914 2.37536528746836
-0.358017683588193 -0.0207098927503143 2.35729199166778
0.0925699703276986 -0.0817262242152761 2.41659388379721
0.115733209834614 -0.0416330714512756 2.40422065139869
0.129332899004729 -0.0882646143328816 2.38579816440705
-0.31271947407399 -0.0281748806781181 2.39580445441746
-0.260275359101047 -0.0183341139221343 2.41809601525018
-0.292333019886557 0.0105087726622596 2.40203861024685
-0.210651159571494 -0.0271720902314276 2.42644279048421
-0.163408481488094 -0.0243351084720794 2.4317018747206
-0.11679465691959 -0.0257915699406198 2.43702421641268
-0.0699668502499927 -0.0273133450972598 2.44235368429302
-0.0269720994269048 -0.0381410021076802 2.44775371987857
-0.0016391799131462 -0.00138937614302182 2.4434803120039
0.0237182277577502 -0.0415425342687509 2.44574727180552
0.0724214649894357 -0.0403813329430667 2.43084116940968
-0.258933199826365 0.039785138634234 2.40554381700563
-0.22723880075408 0.0156052877974805 2.41906347920404
-0.18313595582936 0.0209273212401031 2.42194471254789
-0.13704455436456 0.020901422392935 2.42630812844147
-0.0903547016196125 0.0188227307916363 2.4313160223982
-0.0419445029732033 0.0170295588585957 2.43637851945338
0.0138545436620941 0.0364070364885575 2.42943726190938
-0.336247686851459 -0.288184184886014 1.99795568920783
-0.320042003570235 -0.273561397009967 1.9593374346367
-0.289309425865574 -0.309702404694315 1.9721445545388
-0.240537980634067 -0.309421750335324 1.94517000010021
-0.198490767465379 -0.333592192551317 1.97056397662674
-0.147980548857746 -0.328903612884722 1.9639375344502
-0.0979810265266357 -0.334187557350833 1.97184488340796
-0.0459114920646482 -0.338326144092164 1.97820385790833
-0.000583148164523845 -0.344032972142866 1.98676141263336
0.043542894048163 -0.347694901237282 2.0026899393371
0.0859130507882449 -0.329494844511056 2.00211230451899
0.0987151429867679 -0.344050622573169 2.04977914308992
0.125225852480461 -0.317368451385921 2.03244234142769
-0.36614966379273 -0.266880292404784 2.03176333409995
-0.383930152396659 -0.220269173734452 2.01970322281084
-0.360455505334617 -0.246404391952501 1.98900338940726
0.141904673315921 -0.315414554436961 2.07704193365959
0.157713760669213 -0.286044174489083 2.04625522336483
0.167770743709378 -0.283779403256828 2.10146569310016
-0.398185304522412 -0.188017689318601 2.05681995171905
0.187434458614747 -0.241483399575462 2.099562847151
-0.401226527972675 -0.157656226335611 2.08998291335486
0.179532937894959 -0.25008395622148 2.14192166801152
-0.402237316063455 -0.136282924795931 2.1331366582993
0.185080728412523 -0.208496562416632 2.16645248175452
-0.404383362003107 -0.0967667818035312 2.14939548469695
0.187588806940644 -0.16869102818024 2.19116742452711
-0.404290029773036 -0.0898394853871181 2.1967635641435
0.188160730486394 -0.131838102654062 2.21910411025788
-0.407523893245961 -0.0425152551628998 2.21605998297507
0.180370851806113 -0.120075313209562 2.2647680412607
-0.40366273102015 -0.0324423387465491 2.26661712559741
0.180504056807061 -0.0817317611434184 2.29826172767141
-0.386811247875699 -0.0248259778859824 2.31475925098749
-0.39334181479179 0.0129753269341493 2.2864620842097
0.148936892059982 -0.0461747066330279 2.37021037520821
0.173207871442052 -0.0490954593464955 2.32908442041782
-0.36956911945167 0.0180886787097446 2.33268701600938
-0.334713922796315 0.0131324967903475 2.37381156333696
-0.341781301639159 0.0550923621755553 2.34681019051728
0.0482304611073988 0.000516073448894001 2.43433550362239
0.0946760274008111 0.000806824661566053 2.41265928309351
0.133536188946885 -0.000648065361849592 2.38055330415449
-0.3049578676625 0.0509592317962398 2.38011652928987
-0.264475469823843 0.0776757161026435 2.38375039012078
-0.211947405130819 0.0616731488064154 2.40306066607777
-0.162908196587022 0.0637843410396932 2.40559776870718
-0.115558537482513 0.0626826731764331 2.40969469494593
-0.068185917204024 0.0594661012886152 2.41501451028489
-0.0221952516538348 0.06007998090313 2.417900414488
0.0314165887782092 0.0714674348136774 2.40534803121133
0.0652053474279621 0.0395081170564472 2.41324727790967
-0.308831933222383 -0.241231068205209 1.92446768572489
-0.27734684587021 -0.280583085253163 1.93326670781167
-0.22890707802367 -0.277346815699581 1.91301905295117
-0.191561353136531 -0.305907765228177 1.9358526305876
-0.14792646251043 -0.293767606786352 1.9266787141908
-0.107678668899568 -0.301581464524594 1.93564363196532
-0.0606477618616631 -0.310493866970099 1.94599289859834
-0.00446980676268642 -0.311629707096394 1.94970669680299
0.0431078145566267 -0.321371861067207 1.96685143324322
0.088341293003439 -0.297617040288127 1.96623822988746
0.126375932030647 -0.293584969839518 1.99844105845837
-0.372235566269149 -0.19392332945453 1.9760465238348
-0.344424231472708 -0.231229819596234 1.95433599502625
0.159124961848599 -0.257570654418877 2.00909970972227
0.179407843035999 -0.250438572218483 2.05737405330376
-0.391258102232114 -0.172582689202208 2.01609993317981
0.195929301655197 -0.20284559642234 2.07214132366636
-0.396559938788427 -0.132193026932531 2.04579798811396
0.19499797884107 -0.200971221308251 2.12190043079006
-0.400426350418998 -0.109223475226697 2.09373315466771
0.195686134710871 -0.158841907297937 2.14440725081242
-0.399556594048115 -0.0659607560277084 2.11433343176208
0.195418958284187 -0.120057755867001 2.17181895202813
-0.404398836236124 -0.050977838520169 2.1655064776999
0.192416479366527 -0.0895985734237997 2.21722966503994
-0.403251567713102 -0.00591954494000697 2.18482738242976
0.189378673912129 -0.0685606960463456 2.25682788298561
-0.404626162345565 0.00394351314054326 2.2362973035575
0.184529390789597 -0.0253835897741012 2.29269149404407
-0.389571278724767 0.0487424639585027 2.25581041032639
0.163337863147303 -0.00624892314800627 2.3405100818452
-0.370776717101734 0.0553330493596007 2.30345406532335
-0.337905556246414 0.0921561162425881 2.31612258277231
0.107488965151842 0.0407770701053249 2.38553984835836
0.142717329369286 0.0369431826159452 2.34925709575769
-0.303939122273613 0.0897644604131657 2.35301597094099
-0.260386572643717 0.116114239878982 2.35212632278676
-0.224742812588292 0.0973814994982909 2.37813208683901
-0.179841046979325 0.101233458296018 2.37733144670883
-0.135721937706197 0.101643518624859 2.37913617756757
-0.0889890001614839 0.0977020330224137 2.384959749898
-0.0456829536956043 0.0975013266524134 2.38727084713699
-0.00306569921046863 0.0955677938429934 2.39056576201057
0.0746006266953553 0.0777347684740198 2.38223504490579
-0.30544011759631 -0.206381987794048 1.89605938962577
-0.266944782450092 -0.245497110012618 1.90008389888862
-0.220042857055326 -0.242590339704881 1.8817428661303
-0.180360037417779 -0.268816565618466 1.9027798261755
-0.126527395024728 -0.259679657452484 1.8972623243723
-0.0806122482617608 -0.272105246740052 1.91062884757737
-0.0349317991045811 -0.283823668467422 1.92335194240598
0.00846512947743792 -0.27193181395277 1.91485875078861
0.0461323192688331 -0.28893269153591 1.93669013735983
0.0927251573126759 -0.262854066613492 1.9341767030209
0.129438882763208 -0.26166806912002 1.96689177475379
-0.367266226303281 -0.156061768487203 1.94625729911476
-0.342915231726225 -0.196740300981962 1.92989343627065
0.165047996139765 -0.223493621040108 1.978545985123
0.185199125289688 -0.21581805045765 2.02497401324413
-0.386419076552716 -0.139793999786502 1.9907677861355
0.202207613033118 -0.168439517487755 2.04396225445553
-0.38987366363504 -0.0946597906317169 2.01296078136063
0.201418369299672 -0.157976694341199 2.09595942143733
-0.394218748173478 -0.0795914108288575 2.05986997968538
0.201871205644723 -0.112243549099046 2.12173049362117
-0.393431204923734 -0.0342483344836191 2.0825245014455
0.199263243119633 -0.0755889304809446 2.16776921970508
-0.398017780027608 -0.0180218778758516 2.1322444486777
0.197415111470405 -0.0449239037878618 2.20343907205016
-0.397012197214193 0.0281847249751135 2.15358936945944
0.193815695424608 -0.0261906626847276 2.24606798730613
-0.398377056850982 0.0394868327976873 2.20553128642386
0.190243953095701 0.0165749812096104 2.26203204142902
-0.383229957920331 0.0839216722415284 2.22482423587657
0.172097825090438 0.0243174666509985 2.30705805892565
-0.364622043518777 0.0906085851505472 2.27241676528374
-0.330795157700653 0.127980425183191 2.2853163126565
0.11431483225686 0.0779192396611095 2.35290903658553
0.150281743176269 0.0709654102006325 2.3171430129912
-0.297552318325822 0.125370242653404 2.32171160952931
-0.248907608564236 0.150296438502044 2.32387245328265
-0.208677174716195 0.131645037777477 2.3487285841845
-0.157706829384747 0.138263663217073 2.34532160853397
-0.105029806475404 0.131651288975526 2.35382509001501
-0.0566465097217266 0.13310301717796 2.35490929178214
-0.0105605892093208 0.130923439928314 2.35912580533447
0.0372476017772963 0.110075769345234 2.37185064308772
0.0785869498422282 0.115450972351302 2.3504221852755
-0.299829822443081 -0.172179100549516 1.86624316420351
-0.261951239687992 -0.210321218016192 1.86961381779357
-0.214001126458617 -0.209334975508609 1.85229616679794
-0.169154752147525 -0.235976153513202 1.87397620140762
-0.121909686884932 -0.221173785227016 1.86307162477882
-0.0798721351746474 -0.235663022714398 1.87809239304277
-0.0352521968399194 -0.2492191782591 1.89240528037737
0.0111157167272973 -0.234943902406336 1.88192777806286
0.0542658370955254 -0.252304372770818 1.90477256254272
0.099777136817043 -0.227177812910379 1.90305632327095
0.135613336250742 -0.228101896051908 1.93737249112949
-0.360720635103031 -0.120237170106984 1.9143004232547
-0.337483368597333 -0.163471118914758 1.90116524423689
0.171457258139361 -0.189189459815385 1.94872470407592
0.191847393307653 -0.18056400397339 1.99513484038618
-0.379959030847978 -0.107027156587395 1.95968458024779
0.208392750549408 -0.134249055695443 2.01498244691074
-0.383489770760383 -0.0621478516656309 1.97945715204334
0.207431542264383 -0.122552635420094 2.06751511955715
-0.38784302921352 -0.042104110709612 2.02966029338259
0.208839188810341 -0.077188507818214 2.084875917699
-0.387863093969897 0.00246400572366275 2.05870605355504
0.20478759400796 -0.0621097879139137 2.12927954086879
-0.391817491238925 0.0178281195676762 2.10247169166334
0.20433039970342 -0.0196454823277665 2.16070753584866
-0.390579454409254 0.0622840025490398 2.12069685619362
0.200436365572538 0.00368243884051409 2.20910833028587
-0.392335776313827 0.0734406646780504 2.17386528073777
0.197466630677193 0.0488554270512079 2.22837312802081
-0.376996243947383 0.11833071967729 2.19465882146425
0.177712686021376 0.0622754660931694 2.27596979752244
-0.357834529610377 0.125897366307964 2.24220762204254
-0.322402562492211 0.16318653740141 2.25682041600197
0.119826216955196 0.113715569329286 2.32205279771891
0.155777580716416 0.107301899338477 2.28638635340555
-0.287668404331314 0.160298432954764 2.29352111701107
-0.239272550194144 0.184575151251347 2.29471480628472
-0.197901821423977 0.165051002198215 2.31939887950566
-0.153012331383191 0.179120176928321 2.30903391253552
-0.115869401722096 0.162884916555249 2.32537352274536
-0.0681765480576979 0.166096512783932 2.32485054472459
-0.0177972729599847 0.166611804969206 2.32686992670745
0.0322803266804094 0.146221037604088 2.34261351748332
0.0799886480590762 0.150361698043885 2.32213103249365
-0.293510891238743 -0.13791716769881 1.83576796870342
-0.256272354483862 -0.175502957692407 1.83908560474623
-0.209981453411185 -0.175067190869318 1.82238105940206
-0.165732892234367 -0.20184049676053 1.8436334531834
-0.116004270605672 -0.184778330931567 1.8308299795479
-0.0739811263169335 -0.198450457947687 1.84511928085842
-0.0320430659785893 -0.213553477993976 1.86068409455916
0.0142588421602426 -0.19827632765711 1.84930752784121
0.0577495085415228 -0.217547270273691 1.8731474109026
0.103079505124957 -0.193611374468354 1.87149417385307
0.141919264792412 -0.194043753457648 1.90747124115133
-0.355635849498565 -0.083756376623972 1.88507204295051
-0.331214965542933 -0.129768710200428 1.87103589067596
0.177508122435757 -0.15503235859405 1.91834024149351
0.198122135243444 -0.145892039999821 1.96468747987899
-0.373927938929914 -0.0703847096209713 1.92918210673188
0.214384753453289 -0.100490938349247 1.9836408353306
-0.376521302969619 -0.0224420866067223 1.94561852524296
0.213970501253241 -0.0874739148484587 2.03434218600585
-0.381193333713431 -0.0158793885859745 1.98981185214213
0.214793899782747 -0.0393176678616694 2.05851030260622
-0.382503685269851 0.0144492300383556 2.02066154471983
0.210255591692663 -0.0248777008170613 2.10666819467418
-0.384816998175283 0.0532197456885726 2.06556323854777
0.210949638298559 0.01903206562691 2.12918727971654
-0.384558337114041 0.0957450494291881 2.09090716455034
0.206531723684675 0.0333497357858073 2.17623213500046
-0.386285429770796 0.107177278899178 2.14402139230807
0.20412596621421 0.0810726804804161 2.19657899622446
-0.369900906917804 0.153353195180954 2.16725776533439
0.184761050754544 0.0958580385283983 2.24409550154243
-0.350422446152964 0.160862522856568 2.2137562458482
-0.31524002448327 0.197728730442679 2.22745802721682
0.124654411720814 0.148724024984723 2.29236807712183
0.162183803598237 0.141552142090593 2.2557138041504
-0.279558402637451 0.194731033268876 2.2644396392437
-0.233001509397057 0.219559823602217 2.26375260039071
-0.191036175925617 0.202004473030957 2.28670681847695
-0.140452337309828 0.215182477897412 2.27741756502839
-0.101002672139211 0.197503113545372 2.29516215245763
-0.0527282014198097 0.200486589880093 2.29487141766132
-0.00465146304448637 0.20153177066441 2.29630361678114
0.0356321604902504 0.179030526995842 2.31407039212951
0.0871823364934758 0.182956313234678 2.29257820167708
-0.29468073097769 -0.101541654226378 1.81080801995343
-0.249789190661581 -0.139826918369686 1.80746823739699
-0.201913194911951 -0.141718749238523 1.79248791270274
-0.160571983191207 -0.16930476419085 1.81480563325191
-0.110735681901431 -0.149988012634592 1.80004203582213
-0.0671350680921097 -0.160981646392416 1.81196556056314
-0.027291756519418 -0.175632160592835 1.82702148619342
0.01623425587837 -0.161154974446544 1.81623491110986
0.0605996243447158 -0.183114905259957 1.84170731821079
0.107250726824061 -0.159607931676561 1.84013441757464
0.144336552979894 -0.162688996019934 1.87591810924908
-0.350181975703214 -0.0466660427231296 1.85571386901635
-0.328393817762642 -0.0939146105972139 1.84424966998612
0.178124955681103 -0.126451161309202 1.88419746268873
0.204109190467457 -0.111231767936003 1.93305802392087
-0.367730092650709 -0.032472977588089 1.89782647590158
0.221404925334205 -0.0628031720587349 1.9635372243168
-0.370192325739659 0.0154630607051908 1.91993131767801
0.219844994195332 -0.0495554601723543 2.00869885264902
-0.375384371519248 0.0292917483789762 1.96942347904568
0.220993788643136 -0.00257191167654588 2.02806592209844
-0.378880081563339 0.0560188305553357 2.01662566872609
0.216537608325727 0.0108517144763189 2.0761178886231
-0.377943399578788 0.0986924166695212 2.0362649358462
0.217383984290176 0.0551509207195383 2.09712761041915
-0.379127376214378 0.133768782305486 2.06919777524851
0.212880827128706 0.0697395299900033 2.14553552428799
-0.379782827785622 0.142270951625143 2.118792723833
0.210141056743277 0.115702099986542 2.1665815280547
-0.363499336062733 0.187982856782252 2.13742713810386
0.191223837662322 0.129382595698984 2.21346660944852
-0.343449869744855 0.195890908351064 2.18423099365822
-0.309065859264692 0.232190306963091 2.19695207111672
0.131480978520213 0.183061505347532 2.26138256047184
0.168569343737712 0.175864919971762 2.22496339231243
-0.273670263224791 0.229063902335802 2.23386408695285
-0.227383723001749 0.254090082436005 2.23295083464768
-0.183761053641717 0.23708112633202 2.25571179684522
-0.13511034139093 0.248938223049029 2.2474814627126
-0.0875193356995855 0.233966689588456 2.26323301717955
-0.0375105346811308 0.234743068848293 2.26500056489927
0.0089997332045557 0.235017594270116 2.26704449395735
0.0480591058367459 0.211479452743972 2.2839766235362
0.0942905977356099 0.217329900988227 2.26165425204152
-0.257370141486735 -0.102173262755522 1.78528862465293
-0.215846878810069 -0.105926320669462 1.77167727416963
-0.169431722501898 -0.103294002192623 1.76544627943969
-0.154586805558866 -0.136977184095027 1.7870848665443
-0.11729643453557 -0.109344339112983 1.77233561771112
-0.070563217897371 -0.121252465491881 1.78231942088382
-0.0237103793333081 -0.132426944139306 1.79237272658136
0.024213575951778 -0.121732906398815 1.78974697513882
0.063644427116298 -0.149437457774923 1.81240581980244
0.108098945188626 -0.123333623724773 1.81229194338098
0.148470977923542 -0.127254635945642 1.84509880068269
-0.337804305887808 -0.00970934452761131 1.83047519604359
-0.321189781862454 -0.056530478990137 1.81604774495017
0.197214237589977 -0.0890875136558662 1.88704610732099
0.214956042205194 -0.0663166979145169 1.92043581304699
-0.358005982964148 0.00664635041689468 1.86990357697897
0.220479685691592 -0.0229384096144778 1.93118758535642
-0.355052352902922 0.0509921112179334 1.89108912779641
0.223331149833382 -0.0112489894360346 1.97655515695927
-0.364731724534158 0.0645287482133592 1.93599279223127
0.219871369871543 0.0323190845686628 1.99545861244066
-0.371654623316027 0.0818221418902551 1.98183227003798
0.220095007912504 0.0475332658878006 2.04309428300186
-0.365595284875302 0.127381596020269 1.99676213192736
0.217027030597965 0.0899992909439691 2.06522967177474
-0.368607027829522 0.154594127639908 2.0326573229037
0.216883219035869 0.105431276745711 2.11256367364918
-0.372527766925896 0.176007695746787 2.08727742061389
0.21098595987886 0.147041547952868 2.13481121680571
-0.354707101357324 0.217086517167472 2.10226423613222
0.195537073670515 0.163701747750951 2.18295578049269
-0.337264347391771 0.228916198028048 2.1517111398152
-0.301673551514099 0.261544195067703 2.16360523208717
0.136572958368588 0.217409245320251 2.22900326268775
0.168474368052103 0.209428232117142 2.19203468004713
-0.266262997280764 0.26267829671359 2.20259642289157
-0.217630942112532 0.28521799625165 2.1971774754063
-0.180390654977584 0.271244487897506 2.22233815614795
-0.138567401352092 0.27977713622427 2.21168295714889
-0.0944598335444037 0.269958644579069 2.22582376596251
-0.0498111016482079 0.265628307513977 2.23227718141204
0.000258948288169511 0.26497818708109 2.23396809234744
0.0521615378773682 0.247192584897042 2.25093881354266
0.0975340201756451 0.24807779058901 2.22835295978471
-0.282707362348789 -0.0614800512521068 1.78362889861354
-0.2373150765643 -0.0626453562708976 1.76132173401397
-0.189644011361712 -0.0641767394072641 1.75172853052711
-0.137789697537041 -0.0682069851346393 1.75475002869019
-0.0872891359720314 -0.0748300080008419 1.76142606342141
-0.0411722525654981 -0.0847959092953549 1.76876668119215
0.00293800094115727 -0.0843934838117224 1.77277080885105
0.0499811416783703 -0.0741963583856898 1.77480720925974
0.0703927037896868 -0.109197097023375 1.79031237449564
0.102442091402816 -0.0736390567140432 1.78936578906191
0.138921572513568 -0.0909100988336975 1.81605404378175
-0.302632665672225 -0.0195515467557538 1.79198786040125
-0.277411413926596 0.0221680613753727 1.77807874598771
-0.260100389254878 -0.0210642830888783 1.76464641860414
0.149167708950083 -0.0499177608312022 1.81340086885094
0.175277680501809 -0.0835199274391362 1.84854083289219
0.178635502309749 -0.0361192528295851 1.84142722788028
-0.334706085547125 0.0444819586229106 1.84223087392999
-0.31492641694633 0.0220917577850405 1.80822789339177
0.20278839822923 -0.0420842193262186 1.87918817570203
0.208116528273559 8.79800892360054e-05 1.89614765153985
-0.331446014212754 0.0822324901213402 1.86856381934976
0.213968802777677 0.026075602404644 1.9394214822753
-0.341318134543095 0.102238171550103 1.90793365888149
0.208974120884846 0.0634003362303646 1.96693739155754
-0.353803469963019 0.113006462519032 1.94760860067175
0.211576506579552 0.0843691246092408 2.0091362410634
-0.342757854342733 0.152366546107287 1.96130206223173
0.206720198621265 0.121563728462926 2.0363337734548
-0.346599372792371 0.180764678669788 1.99779112948431
0.209120276731692 0.142348936894231 2.07831762983474
-0.36008986745556 0.196068523742511 2.05042445095211
0.201590866426823 0.178074570525738 2.10482491855102
-0.326268516075737 0.254070146463052 2.11413678216536
-0.338201001109959 0.238467198655233 2.06559430252521
-0.307287981032781 0.271465619186695 2.07179938126256
0.192128426932903 0.193425628153546 2.14909625457707
0.178817122297276 0.219319425075796 2.1055846773723
0.165569596246698 0.232031182694374 2.15085112556283
-0.258472685636195 0.28774690359801 2.16578402420098
-0.292274641569181 0.281327255674826 2.12448854889621
-0.250419752371094 0.303104410878219 2.12340342334438
0.132877365919905 0.248372706910945 2.19003481549294
0.10054724710859 0.280513623389361 2.15417504791737
0.0882150794759629 0.273450087578046 2.19301763202712
-0.211255677787503 0.305132241474881 2.15718770186387
-0.167288524458466 0.299478155919934 2.17693878987639
-0.114378643693927 0.297115459602011 2.17934500403798
-0.0699165965667892 0.292178682512786 2.18814797355034
-0.0261069623902567 0.28889168358482 2.19319617138382
0.0166315830493014 0.288038723735213 2.19262437840925
0.0498062453931649 0.273542125997155 2.21586229745101
-0.211265834418179 -0.0214519493838793 1.74867089824501
-0.159983841447625 -0.0254102703861061 1.74581591509068
-0.109221716598033 -0.0295048348062365 1.751586709227
-0.0613568948654784 -0.0343769467998996 1.75725752127044
-0.0165336059584016 -0.0379712942821797 1.7625128373151
0.027548344776913 -0.033838855631007 1.76734857409078
0.0761392561071695 -0.0324757426201569 1.77515059049776
-0.233191337185293 0.0198871019513077 1.75733935503477
-0.205938441372216 0.0573495827112609 1.76156628194587
-0.181790365361007 0.0179590432312449 1.74804538569487
-0.130998341276438 0.0145813518088111 1.75125390093519
-0.0833311129225416 0.0134518086031128 1.75724401647698
-0.0360682498210086 0.00999429490128022 1.76279456847181
0.00870567322210779 0.0114395777312763 1.76893636876736
0.0556377852670917 0.010648707057342 1.77508515040068
0.103784967989292 0.01180071187254 1.78975531614006
0.1508675194905 0.00279658814245784 1.81718936214114
0.119657535426978 -0.0286411424195068 1.79256972573302
-0.295409481567483 0.0619510222353027 1.80628207430923
-0.263410983068672 0.100412637016437 1.80878705599563
-0.252831069216061 0.0625813414655976 1.77866763923806
0.126848555289182 0.0452576817883437 1.81429216848328
0.184764467590451 0.00571713232387518 1.85479240146236
0.162917684838913 0.0458781272398395 1.84620705023093
-0.303230252050185 0.0927323751319933 1.83742180495846
-0.269915278821463 0.131095097548758 1.84497155181142
0.193247768041248 0.0415799619439456 1.88956501833402
0.165384865428821 0.0806188898123993 1.88049001277523
-0.307832217804347 0.125155489397076 1.87716640107605
-0.276923261412593 0.161194433053232 1.88303109236555
0.192213430411849 0.071797068456532 1.92283868458341
0.1634452457558 0.112634031395521 1.91603003166854
-0.318938498949993 0.149333610441637 1.91747499549298
-0.281771191615436 0.189084777985895 1.91710338633419
0.190800052195471 0.104164957406694 1.95999583433857
0.16240527412706 0.143675713872769 1.9518097603147
-0.315801736362743 0.187292990534687 1.95264766484608
-0.279836003982755 0.222656314478941 1.95139427784086
0.190101730610061 0.132306915187431 1.9936920215447
0.161727750637978 0.174062369748244 1.98738929531205
-0.313022859846165 0.22183139942009 1.98515508982824
-0.279239496483852 0.2579413606218 1.99039950208711
0.189033236539047 0.164122495448417 2.03109651931003
0.160502933163194 0.204650807849967 2.02235002240189
-0.336590159678092 0.220827052381211 2.02154140422881
-0.307338587817817 0.257593590986772 2.02658090456803
0.187316325197147 0.192703548662717 2.06426744933326
0.157263608391059 0.2326028345498 2.05909778510103
-0.274089522425808 0.294564497746714 2.08305954184714
-0.269008275355287 0.287429018329054 2.03483356328073
-0.236512961220146 0.308327092221936 2.06911790681865
0.135067630405283 0.261814152598919 2.14344777709919
0.14877699209312 0.25209730658557 2.10141000624172
0.108842438817815 0.27959823336952 2.10215634780272
-0.2120076136591 0.31477881366143 2.10914575241867
-0.186419870056039 0.316579922122711 2.07338286018923
-0.171487796109347 0.314622519602349 2.12773916573904
-0.142501338148333 0.315100212831247 2.08681500527051
-0.129030066342373 0.310640460534807 2.13691122388414
-0.098388948295941 0.311755792579688 2.09196793033222
-0.0822379324659425 0.307597483747036 2.13967789816192
-0.0535355035361069 0.308255461613338 2.09536906474628
-0.0379465088954189 0.304088143076193 2.14569656347513
-0.00996525776887229 0.304863986655582 2.09904431540354
0.00657144896345584 0.301279137889412 2.14767915948443
0.0342438507206456 0.301668905380313 2.10691760392908
0.0522688245462971 0.294250100738197 2.16252667889232
0.0719854434883046 0.294914521940848 2.11937601573448
-0.175180046485066 0.0902885000817981 1.77533412078946
-0.152652158072394 0.0561971378293674 1.75958453728894
-0.106936909230091 0.0585379867928849 1.76718642458199
-0.0582006681594573 0.0543798346409132 1.77269181993438
-0.0133068010294042 0.0561267472606658 1.78018787385682
0.032082487186609 0.055310727018994 1.78670909492414
0.078111482020857 0.0512586206461605 1.79389750486599
-0.220234289934214 0.0983094744833006 1.78723179929727
-0.177673966124964 0.125026403210143 1.80278999593623
-0.131638044421878 0.100192490268624 1.78680561662516
-0.080687893638727 0.0932947740459265 1.79059409337517
-0.0363888068391622 0.0964769129259427 1.80056626279175
0.00813394089784117 0.0963974833824574 1.80834813081265
0.0533245764407145 0.0935296551636706 1.81409305609839
0.0967647890574652 0.083722122842512 1.82102985367227
0.131398543702994 0.0860284648089257 1.84615101325711
-0.22520486910829 0.132056466604447 1.81993799299892
-0.185365944665724 0.156637606155903 1.83790385636841
-0.139464640314672 0.140759773152475 1.82412238202829
-0.100253862140436 0.125142276246364 1.81457197180891
-0.0574827579156723 0.130204665398144 1.82880771111076
-0.0137818891014068 0.130787986400531 1.83832277235526
0.0343385533455955 0.127123392950718 1.84393299548383
0.0841932109874135 0.119356605730674 1.84983812864877
0.128971150150705 0.116898732389683 1.87861700951527
-0.232086777503923 0.162466441376732 1.85610751542019
-0.187085373599113 0.187042747654706 1.87192259627131
-0.141037310306525 0.172753590643309 1.85995436361541
-0.0944254341599734 0.156750837502107 1.85131748524414
-0.0475076369093733 0.163216734123435 1.86813036147142
0.00269385457752731 0.159319356533329 1.87389926174884
0.0505041831269642 0.155241400631906 1.87899232160132
0.0926172533234757 0.147366928463395 1.8864372465634
0.12778520451906 0.149629172682143 1.91583015876685
-0.235600715617913 0.192018146403222 1.89000020775878
-0.189640343479165 0.215961608442716 1.90435259517102
-0.140687469074728 0.205005926465358 1.89646774660213
-0.0981143601521985 0.187769314639688 1.88561790888714
-0.0602725125226509 0.196098379838814 1.90269715201705
-0.0155510066261399 0.190357947664456 1.90527292001901
0.0324652809982246 0.186799752288478 1.91098186610745
0.0815299921239998 0.180437360221175 1.91851362515339
0.126721601092736 0.179016746957028 1.94924773741926
-0.238850318684373 0.220758476473877 1.92291315336291
-0.196009009166943 0.244528127850321 1.93679633589697
-0.146005950181609 0.23545765305218 1.92979725266803
-0.0967655830606642 0.223720933580809 1.92651448084457
-0.0452200251802146 0.223851290101753 1.93710615837793
0.00295726225942781 0.219296056776515 1.94172177039702
0.0493722605587641 0.215902406968944 1.94735596855258
0.090882252403062 0.208672341773324 1.95597860152363
0.125896883413067 0.211205994289437 1.98619235260093
-0.243519479722447 0.251662331859408 1.95889615749695
-0.205714338604671 0.273503452134606 1.9710585626945
-0.158735479520939 0.267379622884299 1.96335671067671
-0.112117244146529 0.257637138080018 1.96172630630524
-0.0674545813766613 0.253313682258327 1.96589062726585
-0.0184717369280784 0.251139669347129 1.97336029048368
0.0303454343894114 0.247594879821963 1.97924630320718
0.0794492313953115 0.24186952036656 1.98788458235929
0.124297912324686 0.240022902007476 2.01939716107844
-0.239324404368238 0.284293052746692 1.99980269519142
-0.182810154406956 0.294555531688968 2.0006716590992
-0.134067149835485 0.288602986170929 1.99874324622816
-0.0894183135175331 0.283982040429777 2.00182009232604
-0.0445376358326499 0.279997266620041 2.00607903353612
0.00184571563789958 0.277050292317858 2.01247294773806
0.0469282192089707 0.274167835190334 2.01882602964154
0.0876355894710569 0.267285008737255 2.02844205420277
0.119520748492538 0.265012820665674 2.06163170452545
-0.214420768073672 0.30496373018075 2.03208387437876
-0.160268497476449 0.30849165438017 2.03785443475088
-0.114488351431741 0.305111603832927 2.04351659135621
-0.0694109973756943 0.301253214051805 2.04730661201615
-0.0236410597812061 0.297350263383517 2.0512432865871
0.0235126508167502 0.294234148654062 2.0582606407065
0.0704589566010628 0.288968676690189 2.06805598343677
3 0 1 2
3 0 2 4
3 3 0 4
3 3 4 6
3 5 3 6
3 5 6 8
3 7 5 8
3 7 8 10
3 9 7 10
3 9 10 12
3 11 9 12
3 13 11 14
3 14 11 12
3 13 14 15
3 16 17 18
3 16 18 1
3 0 19 1
3 19 16 1
3 0 3 20
3 19 0 20
3 3 5 21
3 20 3 21
3 5 7 22
3 21 5 22
3 7 9 23
3 22 7 23
3 9 11 24
3 23 9 24
3 24 11 25
3 25 11 13
3 13 15 26
3 27 13 26
3 25 13 27
3 27 26 28
3 17 16 30
3 30 16 29
3 29 19 31
3 29 16 19
3 31 20 32
3 31 19 20
3 32 21 33
3 32 20 21
3 21 22 33
3 33 22 34
3 22 23 34
3 34 23 35
3 23 24 35
3 35 24 36
3 24 25 36
3 36 25 37
3 37 27 38
3 37 25 27
3 38 28 39
3 38 27 28
3 30 40 41
3 30 29 40
3 29 31 42
3 40 29 42
3 31 32 43
3 42 31 43
3 32 33 44
3 43 32 44
3 33 34 45
3 44 33 45
3 34 35 46
3 45 34 46
3 35 36 47
3 46 35 47
3 36 37 47
3 47 37 48
3 37 38 48
3 48 38 49
3 49 39 50
3 49 38 39
3 40 51 52
3 41 40 52
3 51 42 53
3 51 40 42
3 42 43 53
3 53 43 54
3 43 44 54
3 54 44 55
3 44 45 55
3 55 45 56
3 45 46 56
3 56 46 57
3 46 47 58
3 57 46 58
3 47 48 59
3 58 47 59
3 48 49 60
3 59 48 60
3 49 50 61
3 60 49 61
3 51 62 63
3 52 51 63
3 51 53 64
3 62 51 64
3 53 54 65
3 64 53 65
3 54 55 66
3 65 54 66
3 55 56 67
3 66 55 67
3 56 57 67
3 67 57 68
3 57 58 69
3 68 57 69
3 58 59 69
3 69 59 70
3 59 60 70
3 70 60 71
3 71 61 72
3 71 60 61
3 62 73 74
3 63 62 74
3 62 64 75
3 73 62 75
3 64 65 75
3 75 65 76
3 65 66 76
3 76 66 77
3 66 67 77
3 77 67 78
3 67 68 78
3 78 68 79
3 79 69 80
3 79 68 69
3 80 70 81
3 80 69 70
3 81 71 82
3 81 70 71
3 82 72 83
3 82 71 72
3 74 73 85
3 85 73 84
3 84 73 86
3 86 73 75
3 75 76 86
3 86 76 87
3 76 77 88
3 87 76 88
3 77 78 89
3 88 77 89
3 78 79 90
3 89 78 90
3 79 80 91
3 90 79 91
3 80 81 92
3 91 80 92
3 81 82 93
3 92 81 93
3 93 83 94
3 93 82 83
3 84 95 85
3 84 86 96
3 97 84 96
3 95 84 97
3 96 87 98
3 96 86 87
3 87 88 98
3 98 88 99
3 88 89 99
3 99 89 100
3 89 90 100
3 100 90 101
3 101 91 102
3 101 90 91
3 102 92 103
3 102 91 92
3 92 93 103
3 105 103 104
3 103 93 104
3 93 94 104
3 96 106 97
3 96 98 107
3 106 96 107
3 98 99 108
3 107 98 108
3 99 100 109
3 108 99 109
3 100 101 110
3 109 100 110
3 101 102 111
3 110 101 111
3 111 102 112
3 112 102 103
3 103 105 112
3 117 114 115
3 116 113 117
3 117 113 114
3 116 117 119
3 118 116 119
3 118 119 121
3 120 118 121
3 120 121 123
3 122 120 123
3 122 123 125
3 124 122 125
3 124 125 127
3 126 124 127
3 126 127 128
3 129 130 131
3 114 129 131
3 114 113 129
3 113 2 129
3 129 2 1
3 4 113 116
3 4 2 113
3 6 116 118
3 6 4 116
3 8 118 120
3 8 6 118
3 10 120 122
3 10 8 120
3 12 122 124
3 12 10 122
3 14 124 126
3 14 12 124
3 133 126 128
3 15 14 126
3 15 126 133
3 132 15 133
3 132 133 134
3 135 136 137
3 137 17 135
3 137 18 17
3 18 137 130
3 129 18 130
3 18 129 1
3 15 132 26
3 139 132 134
3 139 138 132
3 138 28 26
3 132 138 26
3 138 139 140
3 136 135 142
3 142 135 141
3 17 30 135
3 135 30 141
3 143 39 28
3 138 143 28
3 143 140 144
3 143 138 140
3 141 145 146
3 142 141 146
3 41 145 141
3 30 41 141
3 147 39 143
3 147 50 39
3 147 144 148
3 147 143 144
3 145 149 150
3 146 145 150
3 52 149 145
3 41 52 145
3 151 50 147
3 151 155 50
3 151 148 152
3 151 147 148
3 149 153 154
3 150 149 154
3 63 153 149
3 52 63 149
3 155 61 50
3 155 72 61
3 155 151 156
3 156 151 152
3 154 157 158
3 154 153 157
3 74 157 153
3 63 74 153
3 159 72 155
3 159 83 72
3 159 156 160
3 159 155 156
3 158 157 162
3 162 157 161
3 74 85 161
3 157 74 161
3 163 83 159
3 163 94 83
3 163 160 164
3 163 159 160
3 161 165 162
3 165 95 166
3 165 161 95
3 161 85 95
3 165 166 167
3 95 97 166
3 105 104 168
3 170 94 163
3 170 168 94
3 169 168 170
3 94 168 104
3 163 164 170
3 166 171 167
3 173 171 172
3 172 171 106
3 171 97 106
3 171 166 97
3 172 107 174
3 172 106 107
3 174 108 175
3 174 107 108
3 175 109 176
3 175 108 109
3 176 110 177
3 176 109 110
3 177 111 178
3 177 110 111
3 178 112 180
3 178 111 112
3 181 105 168
3 181 180 105
3 179 178 180
3 180 112 105
3 168 169 181
3 172 182 173
3 182 172 183
3 183 172 174
3 174 175 184
3 183 174 184
3 175 176 185
3 184 175 185
3 176 177 186
3 185 176 186
3 177 178 187
3 186 177 187
3 187 179 188
3 187 178 179
3 179 180 229
3 189 190 191
3 114 131 191
3 115 114 191
3 115 191 192
3 115 192 193
3 117 115 193
3 119 193 194
3 119 117 193
3 119 194 121
3 121 194 195
3 121 195 123
3 123 195 196
3 123 196 125
3 125 196 197
3 127 197 198
3 127 125 197
3 128 198 199
3 200 128 199
3 128 127 198
3 200 199 201
3 202 203 204
3 131 130 189
3 190 189 204
3 189 130 202
3 189 202 204
3 131 189 191
3 128 200 133
3 134 200 205
3 206 205 201
3 134 133 200
3 205 200 201
3 205 206 207
3 136 208 203
3 202 137 136
3 202 136 203
3 137 202 130
3 134 205 139
3 139 205 207
3 140 139 207
3 211 207 209
3 136 142 208
3 208 142 210
3 211 140 207
3 211 144 140
3 146 212 210
3 142 146 210
3 148 144 213
3 213 144 211
3 150 214 212
3 146 150 212
3 215 148 213
3 215 152 148
3 154 216 150
3 150 216 214
3 219 152 217
3 217 152 215
3 158 218 216
3 154 158 216
3 219 156 152
3 219 160 156
3 158 220 218
3 158 162 220
3 221 160 219
3 221 164 160
3 162 165 222
3 223 220 222
3 220 162 222
3 165 167 222
3 169 170 224
3 225 164 221
3 224 170 164
3 224 164 225
3 222 226 223
3 167 171 227
3 226 167 227
3 226 227 228
3 226 222 167
3 171 173 227
3 180 181 229
3 181 169 230
3 231 169 224
3 230 169 231
3 230 229 181
3 224 225 271
3 227 232 228
3 232 182 233
3 232 173 182
3 227 173 232
3 182 183 234
3 233 182 234
3 183 184 234
3 234 184 235
3 184 185 235
3 235 185 236
3 185 186 236
3 236 186 237
3 186 187 237
3 237 187 238
3 238 188 239
3 238 187 188
3 188 179 229
3 240 239 188
3 240 188 229
3 229 230 240
3 191 190 242
3 242 190 241
3 192 242 243
3 192 191 242
3 192 243 244
3 193 192 244
3 194 244 245
3 194 193 244
3 194 245 246
3 195 194 246
3 195 246 247
3 196 195 247
3 196 247 248
3 197 196 248
3 197 248 249
3 198 197 249
3 199 198 249
3 250 199 249
3 201 199 251
3 251 199 250
3 204 252 253
3 204 203 252
3 190 253 241
3 190 204 253
3 206 251 254
3 206 201 251
3 207 206 255
3 255 206 254
3 203 256 252
3 203 208 256
3 257 209 255
3 255 209 207
3 210 258 208
3 208 258 256
3 211 209 259
3 259 209 257
3 212 260 210
3 210 260 258
3 213 211 259
3 261 213 259
3 214 262 260
3 212 214 260
3 215 213 261
3 263 215 261
3 216 264 214
3 214 264 262
3 217 215 263
3 265 217 263
3 218 266 264
3 216 218 264
3 219 217 265
3 267 219 265
3 218 268 266
3 218 220 268
3 221 219 267
3 269 221 267
3 223 270 268
3 220 223 268
3 225 221 269
3 271 225 269
3 223 226 272
3 270 223 272
3 272 228 273
3 272 226 228
3 274 231 275
3 274 230 231
3 275 231 271
3 271 231 224
3 273 228 276
3 276 228 232
3 276 233 277
3 276 232 233
3 233 234 278
3 277 233 278
3 234 235 279
3 278 234 279
3 235 236 280
3 279 235 280
3 236 237 281
3 280 236 281
3 237 238 282
3 281 237 282
3 238 239 283
3 282 238 283
3 327 239 284
3 284 239 240
3 240 230 274
3 284 240 274
3 241 285 286
3 242 241 286
3 242 286 243
3 243 286 287
3 243 287 288
3 244 243 288
3 245 288 289
3 245 244 288
3 245 289 246
3 246 289 290
3 246 290 247
3 247 290 291
3 247 291 248
3 248 291 292
3 248 292 293
3 249 248 293
3 249 293 250
3 250 293 294
3 250 294 295
3 251 250 295
3 252 296 297
3 253 252 297
3 241 297 285
3 241 253 297
3 254 295 298
3 254 251 295
3 254 298 299
3 255 254 299
3 256 300 252
3 252 300 296
3 257 255 299
3 301 257 299
3 258 302 300
3 256 258 300
3 259 257 303
3 303 257 301
3 260 304 258
3 258 304 302
3 261 259 303
3 305 261 303
3 262 306 304
3 260 262 304
3 263 261 305
3 307 263 305
3 264 308 262
3 262 308 306
3 265 263 307
3 309 265 307
3 266 310 308
3 264 266 308
3 267 265 309
3 311 267 309
3 266 312 310
3 266 268 312
3 269 267 311
3 313 269 311
3 270 314 312
3 268 270 312
3 271 269 315
3 315 269 313
3 270 272 316
3 314 270 316
3 316 273 317
3 316 272 273
3 318 275 319
3 318 274 275
3 275 271 315
3 319 275 315
3 273 276 320
3 317 273 320
3 276 277 320
3 320 277 321
3 277 278 322
3 321 277 322
3 322 279 323
3 322 278 279
3 279 280 323
3 323 280 324
3 280 281 324
3 324 281 325
3 281 282 325
3 325 282 326
3 282 283 326
3 326 283 327
3 283 239 327
3 327 284 328
3 284 274 318
3 328 284 318
3 285 329 330
3 286 285 330
3 286 330 287
3 287 330 331
3 287 331 332
3 288 287 332
3 288 332 289
3 289 332 333
3 289 333 334
3 290 289 334
3 290 334 335
3 291 290 335
3 291 335 292
3 292 335 336
3 292 336 337
3 293 292 337
3 293 337 294
3 294 337 338
3 294 338 339
3 295 294 339
3 296 340 341
3 297 296 341
3 285 341 329
3 285 297 341
3 298 339 342
3 298 295 339
3 298 342 343
3 299 298 343
3 300 344 296
3 296 344 340
3 301 299 343
3 345 301 343
3 302 346 344
3 300 302 344
3 303 301 347
3 347 301 345
3 304 348 302
3 302 348 346
3 305 303 347
3 349 305 347
3 306 350 348
3 304 306 348
3 307 305 351
3 351 305 349
3 308 352 306
3 306 352 350
3 309 307 353
3 353 307 351
3 310 354 352
3 308 310 352
3 311 309 355
3 355 309 353
3 312 356 310
3 310 356 354
3 313 311 355
3 357 313 355
3 314 358 356
3 312 314 356
3 315 313 359
3 359 313 357
3 314 316 360
3 358 314 360
3 360 317 361
3 360 316 317
3 362 319 363
3 362 318 319
3 319 315 359
3 363 319 359
3 317 320 364
3 361 317 364
3 320 321 364
3 364 321 365
3 321 322 366
3 365 321 366
3 322 323 366
3 366 323 367
3 323 324 368
3 367 323 368
3 324 325 369
3 368 324 369
3 325 326 370
3 369 325 370
3 326 327 371
3 370 326 371
3 327 328 371
3 371 328 372
3 328 318 362
3 372 328 362
3 329 373 374
3 330 329 374
3 330 374 331
3 331 374 375
3 331 375 376
3 332 331 376
3 332 376 333
3 333 376 377
3 333 377 378
3 334 333 378
3 334 378 379
3 335 334 379
3 335 379 336
3 336 379 380
3 336 380 381
3 337 336 381
3 337 381 338
3 338 381 382
3 338 382 383
3 339 338 383
3 340 384 385
3 341 340 385
3 329 385 373
3 329 341 385
3 342 383 386
3 342 339 383
3 342 386 387
3 343 342 387
3 344 388 340
3 340 388 384
3 345 343 387
3 389 345 387
3 346 390 388
3 344 346 388
3 347 345 391
3 391 345 389
3 348 392 346
3 346 392 390
3 349 347 391
3 393 349 391
3 350 394 348
3 348 394 392
3 351 349 395
3 395 349 393
3 352 396 350
3 350 396 394
3 353 351 395
3 397 353 395
3 354 398 396
3 352 354 396
3 355 353 399
3 399 353 397
3 356 400 354
3 354 400 398
3 357 355 399
3 401 357 399
3 358 402 400
3 356 358 400
3 359 357 403
3 403 357 401
3 358 360 404
3 402 358 404
3 404 361 405
3 404 360 361
3 406 363 407
3 406 362 363
3 363 359 403
3 407 363 403
3 361 364 408
3 405 361 408
3 364 365 408
3 408 365 409
3 365 366 410
3 409 365 410
3 366 367 410
3 410 367 411
3 367 368 412
3 411 367 412
3 368 369 412
3 412 369 413
3 369 370 413
3 413 370 414
3 370 371 415
3 414 370 415
3 371 372 415
3 415 372 416
3 372 362 406
3 416 372 406
3 373 417 418
3 374 373 418
3 374 418 375
3 375 418 419
3 375 419 420
3 376 375 420
3 376 420 377
3 377 420 421
3 377 421 422
3 378 377 422
3 378 422 423
3 379 378 423
3 380 423 424
3 380 379 423
3 380 424 425
3 381 380 425
3 382 425 426
3 382 381 425
3 382 426 427
3 383 382 427
3 384 428 429
3 385 384 429
3 373 429 417
3 373 385 429
3 386 427 430
3 386 383 427
3 386 430 431
3 387 386 431
3 384 432 428
3 384 388 432
3 389 387 431
3 433 389 431
3 390 434 432
3 388 390 432
3 435 389 433
3 435 391 389
3 390 436 434
3 390 392 436
3 393 391 435
3 437 393 435
3 394 438 436
3 392 394 436
3 395 393 439
3 439 393 437
3 396 440 438
3 394 396 438
3 397 395 439
3 441 397 439
3 398 442 440
3 396 398 440
3 399 397 443
3 443 397 441
3 400 444 398
3 398 444 442
3 401 399 443
3 445 401 443
3 402 446 444
3 400 402 444
3 403 401 447
3 447 401 445
3 402 404 448
3 446 402 448
3 448 405 449
3 448 404 405
3 450 407 451
3 450 406 407
3 407 403 447
3 451 407 447
3 405 408 452
3 449 405 452
3 408 409 452
3 452 409 453
3 409 410 454
3 453 409 454
3 410 411 454
3 454 411 455
3 411 412 456
3 455 411 456
3 412 413 456
3 456 413 457
3 457 414 458
3 457 413 414
3 414 415 459
3 458 414 459
3 415 416 459
3 459 416 460
3 416 406 450
3 460 416 450
3 418 461 462
3 418 417 461
3 419 462 463
3 419 418 462
3 419 463 464
3 420 419 464
3 420 464 421
3 421 464 465
3 421 465 466
3 422 421 466
3 422 466 467
3 423 422 467
3 424 467 468
3 424 423 467
3 424 468 469
3 425 424 469
3 426 469 470
3 426 425 469
3 427 426 471
3 471 426 470
3 429 428 473
3 473 428 472
3 417 473 505
3 417 429 473
3 430 427 471
3 520 430 471
3 431 474 475
3 431 430 474
3 428 476 472
3 428 432 476
3 433 431 475
3 477 433 475
3 434 478 476
3 432 434 476
3 479 433 477
3 479 435 433
3 434 480 478
3 434 436 480
3 437 435 479
3 481 437 479
3 438 482 436
3 436 482 480
3 439 437 483
3 483 437 481
3 440 484 482
3 438 440 482
3 441 439 483
3 485 441 483
3 442 486 440
3 440 486 484
3 443 441 487
3 487 441 485
3 444 488 442
3 442 488 486
3 445 443 487
3 489 445 487
3 444 446 488
3 488 446 490
3 491 445 489
3 491 447 445
3 490 446 492
3 492 446 448
3 492 449 493
3 492 448 449
3 494 451 495
3 494 450 451
3 451 447 491
3 495 451 491
3 449 452 496
3 493 449 496
3 496 453 497
3 496 452 453
3 453 454 498
3 497 453 498
3 498 455 499
3 498 454 455
3 455 456 500
3 499 455 500
3 456 457 501
3 500 456 501
3 457 458 502
3 501 457 502
3 458 459 503
3 502 458 503
3 503 460 504
3 503 459 460
3 504 460 494
3 494 460 450
3 461 505 506
3 462 461 506
3 507 463 462
3 507 462 506
3 465 463 508
3 508 463 507
3 464 463 465
3 465 508 509
3 465 509 466
3 466 509 510
3 466 510 467
3 467 510 511
3 467 511 468
3 468 511 512
3 468 512 513
3 469 468 513
3 469 513 470
3 515 470 514
3 470 513 514
3 470 515 471
3 472 516 473
3 518 516 517
3 518 505 516
3 461 417 505
3 505 473 516
3 505 518 506
3 515 514 519
3 474 430 520
3 521 520 519
3 520 471 515
3 520 515 519
3 474 520 524
3 476 522 472
3 516 472 523
3 472 522 523
3 516 523 517
3 520 521 524
3 477 475 524
3 524 475 474
3 525 477 524
3 478 526 522
3 476 478 522
3 527 477 525
3 527 479 477
3 478 528 526
3 478 480 528
3 481 479 527
3 529 481 527
3 482 530 480
3 480 530 528
3 483 481 531
3 531 481 529
3 484 532 530
3 482 484 530
3 485 483 531
3 533 485 531
3 486 534 484
3 484 534 532
3 535 485 533
3 535 487 485
3 486 536 534
3 486 488 536
3 537 489 535
3 535 489 487
3 490 538 539
3 536 490 539
3 488 490 536
3 538 540 539
3 541 542 543
3 541 489 537
3 542 541 537
3 541 491 489
3 490 492 538
3 545 493 544
3 538 492 493
3 538 493 545
3 540 538 545
3 544 546 545
3 547 548 549
3 543 495 541
3 547 494 495
3 547 495 543
3 608 547 543
3 495 491 541
3 493 496 544
3 544 497 550
3 546 544 550
3 544 496 497
3 550 497 551
3 551 497 498
3 498 499 551
3 551 499 552
3 499 500 552
3 552 500 553
3 500 501 553
3 553 501 554
3 554 502 555
3 554 501 502
3 502 503 556
3 555 502 556
3 503 504 556
3 549 504 547
3 556 504 549
3 504 494 547
3 506 557 507
3 507 557 558
3 508 507 558
3 508 558 559
3 509 508 559
3 509 559 560
3 510 509 560
3 510 560 561
3 511 510 561
3 511 561 562
3 512 511 562
3 514 512 563
3 563 512 562
3 513 512 514
3 517 564 518
3 518 564 557
3 566 564 565
3 557 564 566
3 557 506 518
3 558 566 567
3 558 557 566
3 559 567 568
3 559 558 567
3 560 568 569
3 560 559 568
3 561 569 570
3 561 560 569
3 562 570 571
3 562 561 570
3 563 562 571
3 572 563 571
3 574 514 563
3 572 574 563
3 573 519 574
3 574 519 514
3 519 573 521
3 522 575 523
3 577 575 576
3 577 517 575
3 564 517 577
3 575 517 523
3 564 577 565
3 573 574 572
3 521 573 579
3 580 573 578
3 579 573 580
3 579 524 521
3 524 579 525
3 522 581 575
3 522 526 581
3 576 581 582
3 576 575 581
3 583 580 584
3 583 579 580
3 583 525 579
3 583 527 525
3 526 585 581
3 526 528 585
3 582 585 586
3 582 581 585
3 587 584 588
3 587 583 584
3 587 527 583
3 587 529 527
3 528 589 585
3 528 530 589
3 586 589 590
3 586 585 589
3 591 588 592
3 591 587 588
3 591 529 587
3 591 531 529
3 532 593 589
3 530 532 589
3 590 593 594
3 590 589 593
3 595 592 596
3 595 591 592
3 595 531 591
3 595 533 531
3 534 597 593
3 532 534 593
3 594 597 598
3 594 593 597
3 599 596 600
3 599 595 596
3 599 533 595
3 599 535 533
3 534 601 597
3 534 536 601
3 602 597 601
3 602 598 597
3 603 599 600
3 604 603 600
3 603 535 599
3 603 537 535
3 536 539 601
3 606 540 605
3 606 602 540
3 602 601 539
3 540 602 539
3 605 607 606
3 608 609 610
3 608 543 609
3 604 542 603
3 609 543 542
3 609 542 604
3 542 537 603
3 540 545 605
3 605 546 607
3 612 607 611
3 605 545 546
3 607 546 611
3 612 613 614
3 612 611 613
3 614 615 616
3 614 613 615
3 616 617 618
3 616 615 617
3 618 619 620
3 618 617 619
3 620 621 622
3 620 619 621
3 622 623 624
3 622 621 623
3 610 548 608
3 624 623 548
3 624 548 610
3 548 623 549
3 548 547 608
3 546 550 611
3 611 550 613
3 613 550 551
3 551 552 615
3 613 551 615
3 552 553 617
3 615 552 617
3 553 554 619
3 617 553 619
3 554 555 621
3 619 554 621
3 621 555 623
3 623 555 556
3 556 549 623
3 565 625 626
3 567 566 626
3 626 566 565
3 567 626 627
3 568 567 627
3 568 627 628
3 569 568 628
3 569 628 629
3 570 569 629
3 570 629 630
3 571 570 630
3 572 571 631
3 631 571 630
3 572 631 578
3 576 632 577
3 625 632 633
3 565 577 632
3 565 632 625
3 625 633 634
3 626 625 634
3 626 634 627
3 627 634 635
3 627 635 628
3 628 635 636
3 628 636 629
3 629 636 637
3 629 637 630
3 630 637 638
3 631 638 639
3 631 630 638
3 640 578 639
3 578 573 572
3 578 631 639
3 578 640 580
3 576 641 632
3 576 582 641
3 633 641 642
3 633 632 641
3 633 642 643
3 634 633 643
3 634 643 644
3 635 634 644
3 635 644 645
3 636 635 645
3 636 645 646
3 637 636 646
3 637 646 647
3 638 637 647
3 638 647 648
3 639 638 648
3 640 648 649
3 640 639 648
3 584 580 640
3 649 584 640
3 582 650 641
3 582 586 650
3 642 650 651
3 642 641 650
3 642 651 652
3 643 642 652
3 643 652 653
3 644 643 653
3 644 653 645
3 645 653 654
3 645 654 646
3 646 654 655
3 646 655 647
3 647 655 656
3 647 656 648
3 648 656 657
3 648 657 649
3 649 657 658
3 588 584 649
3 658 588 649
3 586 659 650
3 586 590 659
3 650 659 651
3 651 659 660
3 651 660 661
3 652 651 661
3 652 661 662
3 653 652 662
3 653 662 654
3 654 662 663
3 654 663 664
3 655 654 664
3 655 664 665
3 656 655 665
3 656 665 666
3 657 656 666
3 657 666 658
3 658 666 667
3 592 588 658
3 667 592 658
3 590 668 659
3 590 594 668
3 660 668 669
3 660 659 668
3 660 669 670
3 661 660 670
3 661 670 671
3 662 661 671
3 662 671 663
3 663 671 672
3 663 672 664
3 664 672 673
3 664 673 665
3 665 673 674
3 665 674 666
3 666 674 675
3 666 675 667
3 667 675 676
3 596 592 667
3 676 596 667
3 594 677 668
3 594 598 677
3 668 677 669
3 669 677 678
3 669 678 679
3 670 669 679
3 670 679 680
3 671 670 680
3 671 680 681
3 672 671 681
3 672 681 682
3 673 672 682
3 673 682 683
3 674 673 683
3 674 683 684
3 675 674 684
3 676 684 685
3 676 675 684
3 600 596 676
3 685 600 676
3 598 686 677
3 598 602 606
3 678 686 687
3 678 677 686
3 678 687 679
3 679 687 688
3 679 688 680
3 680 688 689
3 680 689 681
3 681 689 690
3 681 690 682
3 682 690 691
3 683 691 692
3 683 682 691
3 684 692 693
3 684 683 692
3 685 693 694
3 685 684 693
3 694 604 685
3 685 604 600
3 598 606 686
3 606 607 695
3 686 606 695
3 686 695 687
3 688 687 696
3 696 687 695
3 688 696 697
3 689 688 697
3 689 697 698
3 690 689 698
3 690 698 699
3 691 690 699
3 691 699 700
3 692 691 700
3 692 700 701
3 693 692 701
3 610 609 694
3 701 610 694
3 701 694 693
3 609 604 694
3 607 612 695
3 695 612 696
3 696 612 614
3 614 616 697
3 696 614 697
3 616 618 698
3 697 616 698
3 618 620 699
3 698 618 699
3 620 622 700
3 699 620 700
3 622 624 701
3 700 622 701
3 624 610 701
