OFF
702 1400 0
-0.260666236393033 -0.326374010559902 2.17707984892171
-0.305992260571703 -0.312611684918708 2.15907644760139
-0.277868928797154 -0.3322956112781 2.13180035006203
-0.213823824942139 -0.33308210159608 2.18193709362581
-0.231972461565224 -0.343130428625497 2.13722157037456
-0.167034184214004 -0.337852165282729 2.18522065022762
-0.185597612760041 -0.347481865387651 2.13948090133778
-0.121676622407794 -0.341960308921458 2.18969839517786
-0.14028595465103 -0.351623186968003 2.14143797057013
-0.0768046540019468 -0.345869402400238 2.19453012753374
-0.0955470039984907 -0.355334215208907 2.14618801792831
-0.0293305977523179 -0.348997325865426 2.20226700468173
-0.0497889394047369 -0.358668842661914 2.15478909881291
0.0187671576676241 -0.344636307328858 2.21068647983682
-0.00249781305419405 -0.360313054438342 2.16390547814526
0.044026456099073 -0.351494794265202 2.17271533383495
-0.328581344362678 -0.283797233791 2.18707557052861
-0.358184186893515 -0.266524708189935 2.15945295234251
-0.337022920084357 -0.29677042737483 2.1312377867924
-0.288238474525937 -0.299758019616256 2.20698381925058
-0.241601861444626 -0.308826368319385 2.21914421456087
-0.193929142845099 -0.314226963338809 2.22311417171007
-0.147184292186421 -0.318236837213448 2.22860480495291
-0.101989846878103 -0.321690328047477 2.2345373501346
-0.0577142964184005 -0.327151276262544 2.23723576171971
-0.00908578461514067 -0.328019123956017 2.24460519515663
0.0647623220247807 -0.328555646431851 2.21634463632755
0.0361229680443823 -0.315946775102816 2.25237291207582
0.0822868850252783 -0.295928081028652 2.2500323462156
-0.315672364721956 -0.262717819168594 2.22852721890128
-0.355666606145451 -0.242322041064401 2.20030025821679
-0.269791126665523 -0.27618417481665 2.24627074464926
-0.219886343155902 -0.28261223562981 2.25449201468741
-0.172313282921491 -0.28702739045659 2.25985015548331
-0.12471573999428 -0.289528300002606 2.26716178613146
-0.0800343734195664 -0.292326432562584 2.27356604917984
-0.037817388470917 -0.301789180553287 2.27268040404212
0.00352239608683666 -0.293567964468292 2.2833606743478
0.0492179562154569 -0.280266942557986 2.28478332633377
0.0941154257695584 -0.258126718057908 2.27819959967445
-0.3338570578711 -0.225281287801638 2.24888920169477
-0.366872125642078 -0.203877159734229 2.22218796886272
-0.292990585667262 -0.240168308662089 2.27024666515637
-0.244042813222345 -0.250833863945525 2.2816407958023
-0.195304040637419 -0.253062907178304 2.28964554590342
-0.147879140072223 -0.257905496222999 2.29453892579113
-0.0964056461136832 -0.258800039615619 2.30428656062318
-0.0415873002610474 -0.268310880358662 2.30596040360903
0.00885245571312913 -0.261072538057845 2.31533437672621
0.0593808772609341 -0.245691134479883 2.31401337829352
0.104232994023769 -0.219770486807164 2.30602524615141
-0.317968245092238 -0.200910716537621 2.29130108776158
-0.358304105900067 -0.183158900320218 2.26000348370192
-0.268826490228149 -0.218143499446536 2.30642943400603
-0.221451227254776 -0.220475231144682 2.31738723517651
-0.175930193614361 -0.22156178827373 2.32570740656377
-0.132012359559811 -0.229497514812839 2.32672731011485
-0.0985053112203146 -0.217515908727201 2.34585490285892
-0.0637004304163473 -0.236959324550416 2.33327986634418
-0.0213990502581291 -0.233495943275499 2.3441938519065
0.0265220725183956 -0.227081599952237 2.34559396639058
0.0746404929859701 -0.208433871406929 2.34138948083272
-0.321107594692124 -0.160114288916996 2.33120720838843
-0.349071627513492 -0.162469167176898 2.29629640734138
-0.288289204294103 -0.186557620145179 2.32884056514542
-0.241263875805568 -0.188935359410669 2.34536762642475
-0.196539683298131 -0.187746876456401 2.35584501611995
-0.147655771136849 -0.192808386311329 2.36081670846728
-0.102240788153366 -0.18703576154376 2.37609375235355
-0.0548597182420991 -0.200555367101107 2.37214897217749
-0.0068479093527492 -0.200458394768534 2.37764914858732
0.0409529817015017 -0.19329932665931 2.37425341358188
0.0885047308252604 -0.171315307734566 2.36712384373598
-0.310508216949738 -0.135452035973308 2.36635142902591
-0.354496386579671 -0.122840443154341 2.33100503185198
-0.271908944098488 -0.160024714539154 2.36481413352591
-0.22596721134217 -0.153779585440821 2.38430984205092
-0.175956828903914 -0.158382552350256 2.38998233471377
-0.130178171756966 -0.158208455755608 2.39963904503343
-0.0786747706705783 -0.162327891858915 2.40611159474166
-0.0337572573685248 -0.168965598172165 2.40829785196781
0.0126242014203186 -0.166195301872774 2.40962049327686
0.0566028260596176 -0.159119038403364 2.4006764759386
0.0930816796795324 -0.133542280781793 2.39952404192998
-0.305675059709408 -0.0954746460740285 2.40190666688099
-0.339481957902016 -0.104314790993102 2.36873000239517
-0.272335415094959 -0.125816208625996 2.39772083794429
-0.237753566620566 -0.113936220847472 2.41554130506713
-0.195049951180042 -0.122640424029329 2.41736405032546
-0.149946213759259 -0.122968590511766 2.42524067183705
-0.102763343907658 -0.126496174384699 2.43132116314831
-0.0541817796230422 -0.130811793157948 2.43712949296537
-0.00591068385694155 -0.134107352340376 2.43899560770328
0.0457103099194932 -0.128650451708497 2.4314787525745
0.0932027159593502 -0.0977072470035279 2.4236465928384
-0.346758940878644 -0.064911819583138 2.38539782231331
-0.268455428561435 -0.0760695869678069 2.42778157650968
-0.311874148333163 -0.0514582630981187 2.41662430463142
-0.219012368555608 -0.0768424157632505 2.43718989803443
-0.173005421003565 -0.0817966502718711 2.44247392295652
-0.126346536376871 -0.0829942238690118 2.44925392309459
-0.0805744486750943 -0.0878157276718863 2.45456110855392
-0.03393161449993 -0.0925484857022285 2.45975254097035
0.0127325062879834 -0.0944704019832651 2.45785827253644
0.0571237469309921 -0.0884992974734283 2.44775726396763
0.0389997513850979 -0.049432552634567 2.46403911884193
-0.284919875499537 -0.0244573112206891 2.43447303062862
-0.242538011597483 -0.0337314594952851 2.44462955045426
-0.19352694244583 -0.0358245427341708 2.45102632684295
-0.147787725235865 -0.0371752321943981 2.45703420433852
-0.101519574530164 -0.0388468538731838 2.46305032004864
-0.0569911484951064 -0.0457912731541146 2.46821989543652
-0.00930651080152625 -0.0504071070180132 2.47137058897492
-0.255829245736168 -0.340426664308615 2.09267397230755
-0.279448140504919 -0.326591238311934 2.05704034529046
-0.255765086975238 -0.320193827503333 2.01951800992263
-0.206247736574259 -0.347184430018825 2.09352079332378
-0.227706190463046 -0.338360273546998 2.05231782927672
-0.16020515745127 -0.350331094022484 2.09304930912323
-0.179540051899433 -0.339144136087283 2.04693525634282
-0.114813750393146 -0.353657733931099 2.09577374194532
-0.134240063545564 -0.3411073045348 2.0477988898218
-0.0695253556327813 -0.35757314404026 2.10366741717973
-0.0867012434851092 -0.345092435822679 2.05414185363047
-0.0246613982832355 -0.361682788186082 2.11424822844035
-0.0410343961702382 -0.350092371773549 2.06356261738972
0.0213756777042131 -0.360571241365653 2.12293526264035
0.0031252344542103 -0.354541733057728 2.07506205269216
0.0510557899924619 -0.347909089182421 2.08418039015126
-0.307297057159946 -0.319785137143831 2.10017250506749
-0.34554019721892 -0.289146782399998 2.08385403231356
-0.315978935355271 -0.305207425756279 2.05164420359605
0.088859858907208 -0.331557069199882 2.1769567704858
0.0645826551903123 -0.349092249978534 2.13228079864692
0.104377560392306 -0.327909174419682 2.1342905926245
-0.38321782165748 -0.230754740620776 2.14950237348468
-0.393314503229051 -0.218542608854246 2.09980490843908
-0.370839299775471 -0.261107784674443 2.11311965763371
0.110021847029847 -0.30322254962971 2.21044677868862
0.130747265961686 -0.302049109128653 2.16616443808325
0.147986174702497 -0.27072175728764 2.19331816944848
-0.385262355835391 -0.201918401673282 2.18079954858246
-0.400881897405916 -0.186012275919362 2.13434542361355
0.124096786276382 -0.267385968805034 2.23851773631394
0.15545964171941 -0.231296165503612 2.22373442081558
-0.388817517815634 -0.163125867025075 2.21441416986341
-0.401324490259644 -0.155944118381849 2.17058369949506
0.132163427503468 -0.226948901426649 2.26633844930174
0.162123393760331 -0.189347831201618 2.24776636722084
-0.383261858853915 -0.143887947881484 2.25211893627995
-0.403406192649223 -0.115593582743713 2.20967530632923
0.14104747399387 -0.185851686747701 2.29160636574906
0.166778097784315 -0.14735302771916 2.2738029042778
-0.375363514682845 -0.125687212614472 2.29095229678474
-0.398868246310815 -0.0976003747259912 2.2548793181231
0.11777899300841 -0.178696556742042 2.33072828140041
0.150618119964338 -0.140780226538706 2.31644360294117
-0.388868989415756 -0.0855712343421294 2.30286942615769
-0.406794437319129 -0.0513191261882703 2.27136974670727
0.125403582277383 -0.13872984833709 2.35906594361438
0.155938748462769 -0.10077585172419 2.34198386153582
-0.373425501505458 -0.0778714431829862 2.34436883238562
-0.397328098820803 -0.0399636217362894 2.31870205643409
0.129053427395892 -0.101359841132611 2.38719290980607
0.153065717591308 -0.0635922180152008 2.37335720351284
-0.376006427606525 -0.0326394778649492 2.36160402858203
-0.343957177414645 -0.0213226258058734 2.39915882842987
-0.36341776574445 0.0121370224565924 2.37926448900856
0.0862535424141536 -0.0506670534558227 2.44345408041339
0.109904880786021 -0.0115219401672544 2.42912342300193
0.123047976662436 -0.0591882357826917 2.41318530337993
-0.318339461411002 0.00617413544866994 2.41829337669386
-0.26586662011221 0.0165774881073614 2.44025950401505
-0.297544993777337 0.0449024572867596 2.42260666458569
-0.216373241672004 0.00763928486915259 2.44925137114302
-0.169120419081685 0.0102264956996618 2.45454798915515
-0.122544466623322 0.00853639286845276 2.46012664912115
-0.0757552991262335 0.00677909227930749 2.46571665847434
-0.0329028626308899 -0.00422552043964079 2.47184155229534
-0.00714733218738647 0.0319770034536335 2.46578096219777
0.01775307324236 -0.00828086225534995 2.47021801031468
0.066517657813218 -0.00842383113692537 2.45546875794276
-0.263833398064049 0.0739532710822765 2.42473236241982
-0.232457497067192 0.0501578454570278 2.43960891917697
-0.188308352650732 0.0551383011291158 2.4423900312914
-0.142235520045671 0.0548329974023215 2.44693516532467
-0.0955893866647371 0.0525044697293271 2.45223219368821
-0.0472200325981197 0.0504450466456717 2.45757597874571
0.00881521539808028 0.068826365860318 2.44987017658541
-0.343382673923572 -0.273748743539739 2.03429067569309
-0.326881150660711 -0.261316872633351 1.99503551045624
-0.296597810820661 -0.297083040472213 2.00981342151479
-0.247732955965864 -0.298728939549066 1.98305755860125
-0.206046045877455 -0.322015476198962 2.00983387638644
-0.155464030044731 -0.318228443428943 2.00317859606951
-0.105554228518126 -0.323644353133785 2.01154986261907
-0.053556420637234 -0.328019077116588 2.01832412580086
-0.00832444769740956 -0.333772580493657 2.02734766240582
0.0357025129858511 -0.337090447333583 2.04362199132062
0.0782745838636994 -0.319409448577093 2.0422777543086
0.0907482079782215 -0.331624995212184 2.0906831348035
0.117614579721489 -0.306165009751344 2.07210067321504
-0.373162549846448 -0.250402293898303 2.06683361950827
-0.39038061101354 -0.20428385194821 2.05231411108883
-0.367092244930277 -0.232224130948536 2.02309799787102
0.134159272037056 -0.302094623380025 2.11660718415413
0.150401376189238 -0.274527165345527 2.08441095297367
0.160291325023899 -0.269526201023398 2.13947135011078
-0.404404226307498 -0.170005585245907 2.08766036718439
0.180431589446772 -0.227602604290957 2.13546932312532
-0.407222016398249 -0.137941542693105 2.11920092414169
0.172287786215713 -0.233918497376273 2.17818303605769
-0.408144329303577 -0.114359741356342 2.16119060619119
0.178213464969114 -0.191183709629763 2.20055879020302
-0.40990633763264 -0.0740360063938867 2.17538117458453
0.181079145328108 -0.150185515858631 2.22319803474838
-0.409900194910712 -0.0646746739423781 2.22232898085915
0.181964723249208 -0.111948343378432 2.24919915046416
-0.412673485320353 -0.0163850435859897 2.23914602219665
0.174147985201555 -0.0977598941931378 2.29416387592769
-0.408875785246729 -0.00375913479017519 2.28913162802703
0.174592200618347 -0.0577425664297488 2.32563590969325
-0.392107640923125 0.00614677176893265 2.33688461772595
-0.398118366533019 0.0425064898951195 2.30664956069893
0.143173714690902 -0.0181760853864904 2.39552704087512
0.167553206818113 -0.0234810502943273 2.35470482749875
-0.374450718466162 0.0497381472668296 2.35264496586773
-0.339795825433448 0.0465297212996864 2.39411087062941
-0.346301485922221 0.0871149625620253 2.36495324976826
0.0427718774257842 0.032861820858271 2.45675162314351
0.0892927386091165 0.0315249213070365 2.43527708297728
0.128245452793244 0.0279895735175325 2.40344612135661
-0.309642188913424 0.0843033879862415 2.39857692074906
-0.268877467820846 0.11072698037555 2.40099172767468
-0.216598298041397 0.0951682064482303 2.42131362372426
-0.167547708998384 0.0968704852098285 2.42393659123287
-0.120227766519884 0.0954633807147025 2.42827615282032
-0.072912673389986 0.0920071806441767 2.43394612329481
-0.02692831399025 0.0922656116530608 2.43698232371796
0.0268503185079109 0.102402387409047 2.42407611083809
0.0602532565844323 0.0705253248832753 2.43374942017793
-0.315190600453189 -0.230953963995718 1.95859048278568
-0.284176672653056 -0.270141769325896 1.9695342918489
-0.235633882354056 -0.268485357329614 1.94934256368398
-0.19868817706152 -0.296236955604916 1.97376933028546
-0.154889151417536 -0.285064923636317 1.96415793479208
-0.114762274054155 -0.292845872429955 1.97367642011985
-0.0678697895983497 -0.301726654750552 1.98466145816877
-0.011721203626137 -0.303284315746445 1.98865583603558
0.0356851315133384 -0.312648959932462 2.00647224504282
0.0811823468007939 -0.289454118839713 2.00481760043777
0.119147576855264 -0.284182078820499 2.03692305833743
-0.378241769075691 -0.180355899563623 2.00740447034112
-0.350772680713623 -0.219035427331843 1.98775924376608
0.152258681616977 -0.248026379322117 2.04584252307706
0.172452135390882 -0.238634822368879 2.09376639183445
-0.397164208752237 -0.156769519874234 2.04622687844308
0.189451532722373 -0.190526868739298 2.10612630696119
-0.402118694721814 -0.114845320721811 2.07378088632225
0.188368490665213 -0.186076798604414 2.15571837569901
-0.405895242294656 -0.0893914539181591 2.12045173364873
0.189447927511719 -0.142852098770929 2.17602526481083
-0.404614972429494 -0.0451353139903047 2.13879691701545
0.189517803135677 -0.10270429793318 2.20139911659351
-0.409467511323623 -0.0274791643287224 2.18910923163532
0.186697343127217 -0.0699109796148303 2.24516614539388
-0.407885301393672 0.0185009813387198 2.20608528009008
0.183756751375217 -0.0468254457921663 2.28361416822043
-0.409328507387634 0.0310217580120219 2.25697211054705
0.179264452310137 -0.0018044302401769 2.3171835599155
-0.393843186184479 0.0766005716570464 2.27420966910234
0.158121642701996 0.0200035631002316 2.36386574793554
-0.375141795738405 0.0854351307668329 2.32152560494556
-0.341906531090657 0.122500849028231 2.33241103183479
0.102644281069447 0.0698995569669787 2.40618448448735
0.137953430872749 0.0638127217201864 2.37029035053977
-0.308097082383664 0.121644734572512 2.36951560016765
-0.264250807680313 0.147435056657739 2.3674442691032
-0.22890844767127 0.129680332791858 2.39452526477244
-0.183964040978889 0.132993989580867 2.39370847119107
-0.139849629712523 0.133013576008937 2.39566789482922
-0.0931840012215166 0.128866474848188 2.401875746672
-0.0498911600252931 0.128311181181447 2.4043690705784
-0.00730978594320755 0.126083791475553 2.40793147277069
0.0701814535277769 0.106995303236059 2.4008453424458
-0.311312128948663 -0.1976567311471 1.9284367790428
-0.273269223214205 -0.236931141177888 1.93462857434082
-0.226274458229889 -0.235488529810801 1.91635169445085
-0.186959568152264 -0.261026969196767 1.93887329119516
-0.133009637153114 -0.252776946172946 1.9331094930296
-0.0872824529875683 -0.264998083132821 1.94728441291291
-0.0417798380431227 -0.276543675677817 1.96077934940785
0.00177611285343743 -0.265581863669158 1.95185961079154
0.0391755475963259 -0.281844733770195 1.97469068176925
0.0860645169763041 -0.256442280705794 1.97102400537306
0.122675433356978 -0.253971450218491 2.00378245380198
-0.37274752199709 -0.144138924474137 1.97572270883064
-0.348794664723265 -0.185871966141657 1.96157690338885
0.158667041634338 -0.215638559113162 2.01359630391884
0.178741215052583 -0.205798118078778 2.05964776933334
-0.391872258252855 -0.125386890870894 2.01925730570359
0.196210571800248 -0.157691793136051 2.07623603088564
-0.39490071102112 -0.0791323200975144 2.03907909173313
0.195357530173969 -0.144551283946635 2.12762083687171
-0.399240377969191 -0.0616163311041153 2.08513086843461
0.196230492204421 -0.097556724899894 2.15100081020993
-0.398026263518797 -0.0151758100415743 2.10541993156086
0.193871375465603 -0.0585485062354712 2.19507711085825
-0.40260425416886 0.00364435193771386 2.15421799732869
0.192241279293525 -0.026065002843324 2.22911036831096
-0.401157948692601 0.0508772199930982 2.17315556218619
0.188702918899255 -0.00511832982112473 2.27070161052637
-0.402577023523062 0.0648592956892972 2.22443958510611
0.185552541903588 0.038450776381242 2.28442446644313
-0.387002786458532 0.110062132936229 2.24147643063823
0.167337676949877 0.0487049849418391 2.32891761417976
-0.368486779778499 0.118992290302687 2.28873558767721
-0.334290542210089 0.156607477122024 2.29982729677506
0.10999677352526 0.105231159369856 2.37170953960948
0.146007862514169 0.0960473101312039 2.33649532015207
-0.301205345353657 0.155515355826087 2.33644278635319
-0.252293705108403 0.179985762918768 2.33751185054083
-0.212360088016522 0.162202713834125 2.36345908914559
-0.161307642951772 0.168078225866817 2.35992129318419
-0.10873739391887 0.161337188321584 2.36896721836807
-0.0603449784330846 0.162313117474401 2.37017058811168
-0.014301114128186 0.159849613128895 2.37468005805966
0.0332273685228096 0.139164280417853 2.38865612107925
0.0746981532541241 0.142973444951381 2.36714617943996
-0.305217643617355 -0.165101745326822 1.89691931796504
-0.267778337581391 -0.20343149915665 1.90240546386998
-0.219760406950161 -0.203865399485148 1.88525387101685
-0.175289168990195 -0.229841557586883 1.90845994262714
-0.127844545216797 -0.21613987104753 1.89699750174493
-0.0860234267114898 -0.230293950524965 1.91291520626259
-0.0416072441250048 -0.243581055677749 1.92808829280103
0.00495293254958362 -0.230374082144671 1.91707599230896
0.04782740112142 -0.247003772806084 1.94095980126374
0.0936215310650455 -0.222499073492945 1.9381339802717
0.129325913567573 -0.222043143175975 1.97259665128919
-0.365692306080772 -0.110085207160006 1.94198761147694
-0.342892778688751 -0.154191277182512 1.93119344870856
0.165561585395791 -0.182991448926837 1.98207179943735
0.1858853947921 -0.17220598579544 2.02805737771645
-0.384939684919908 -0.0943406426198079 1.98655204942091
0.202876819460252 -0.125112341012991 2.04555683124652
-0.388038726558169 -0.0484647073494255 2.003969489933
0.201863712172737 -0.11071043210379 2.09741211542658
-0.392342558860866 -0.025810193991053 2.05305419083874
0.203716491889809 -0.064528891888384 2.1124159617552
-0.391966810549937 0.0201951458459015 2.07976263723109
0.199679104447918 -0.0471351053344099 2.15596617021577
-0.395901613201485 0.0378399377346693 2.12266138987374
0.199586044606859 -0.0031029111613512 2.1851603881394
-0.394231551236267 0.0831609659535989 2.13857459769653
0.195784253801663 0.0227331598586473 2.23227764751346
-0.396047938389644 0.0970653855974075 2.19108940510433
0.193251213373722 0.0688700204814984 2.24917511534323
-0.380281415898399 0.142798144266321 2.20960213532069
0.173482983362903 0.0849441522225085 2.29593618992468
-0.36120169277211 0.152598489844244 2.25677449233174
-0.32540734945498 0.190201971400855 2.26958790262397
0.116013719088215 0.139324775337368 2.33907088503622
0.152014935187318 0.130685642853933 2.30392819307446
-0.290835091910246 0.188831749436365 2.30652874512963
-0.24217617108066 0.212606392532322 2.30666443728116
-0.201111464316336 0.193930445860403 2.33248946274616
-0.156032297485474 0.206953600160482 2.32159420212919
-0.119129499342894 0.191177585788765 2.33889924835251
-0.0714022934573581 0.193835543484948 2.33840404511651
-0.0210277149962816 0.193902752916258 2.34059769886339
0.0287646375193717 0.173804640368497 2.35757408048535
0.0765869232686152 0.176360072267408 2.33709824246763
-0.298411625897205 -0.132529564764474 1.86474358718535
-0.261605939388029 -0.170299494558262 1.87014551109823
-0.215255369150084 -0.171233294808106 1.85362788700423
-0.171381891907829 -0.197356922403075 1.87641128868073
-0.121422111658304 -0.181523780981926 1.86294599109186
-0.0796037566460348 -0.194899481888816 1.87809101186824
-0.0378908497243908 -0.209637321145833 1.89458328385183
0.00861760928397357 -0.195475547271444 1.88262118991314
0.0518078600618818 -0.213965420052759 1.90759866292929
0.0974072135500493 -0.190644489873789 1.90489642902958
0.136114667130165 -0.189644704875603 1.94100455444894
-0.360099952679563 -0.0752193948300508 1.91093761522882
-0.336144720305517 -0.122159439075413 1.89939174700036
0.172098071521009 -0.150516336207486 1.94999100312553
0.19265169845847 -0.139222424777616 1.99588812109965
-0.378394867213497 -0.0593895197702883 1.95422515268232
0.209353323883028 -0.0930844112841321 2.0125405048345
-0.380510886906995 -0.010636977505752 1.96815672026825
0.208908205158988 -0.0774642429120809 2.06250102600222
-0.385262828549753 -0.00175141278728161 2.01193357270487
0.210184266068035 -0.0281367439225084 2.0841567292
-0.386342203366678 0.0301414906365465 2.04117264454724
0.205640053537253 -0.0111817308038586 2.13148715408317
-0.388379168458305 0.0712007502217545 2.08400551025256
0.206745176950255 0.0338215102579528 2.15171449887122
-0.3877346298131 0.114972016070506 2.10712355093365
0.202323849321538 0.0505956339170398 2.19794017025054
-0.389518531117403 0.129148502097023 2.159570141386
0.200379406100463 0.0993285709631392 2.21578903207478
-0.372701238342006 0.176279966494813 2.18046034465036
0.181015670112788 0.116757723468056 2.26240121302097
-0.353301784345567 0.185965397100419 2.22658802337609
-0.317758521092355 0.223102218310694 2.23851244439805
0.121334677053617 0.172699557664393 2.3076400501769
0.15890879321567 0.163235008278551 2.27155632828511
-0.282241060312635 0.221626680818322 2.27574330153121
-0.235408297376317 0.245875695329468 2.27396488341702
-0.193721086222643 0.229070015703374 2.29796324239288
-0.142961621330332 0.241196414122781 2.28821121920688
-0.103773211161378 0.224025563349196 2.30700315314517
-0.0554677755707528 0.226461337185022 2.30675399612506
-0.00738763514200202 0.227052601981457 2.30832462411797
0.0325808715400267 0.205058601928038 2.32739074677725
0.0842458597875 0.20730528387978 2.30593315829215
-0.299089456771368 -0.0974801085710074 1.83793646662293
-0.25461598004713 -0.136375923582849 1.83675687659952
-0.206712341649153 -0.139562446025602 1.82208760177226
-0.165758768292702 -0.166410836719027 1.84596506823148
-0.11565939208292 -0.148428592200766 1.83042643857902
-0.0722256202849454 -0.159268901224469 1.84307709538696
-0.0326005115202991 -0.173558194241779 1.8590293616979
0.0111212798256966 -0.160134428032067 1.84768650763712
0.0551505459306629 -0.181234864856041 1.87443652251741
0.102065857281867 -0.158352577669362 1.87184197440147
0.138990654697446 -0.159988566082452 1.9078864875308
-0.354131293990153 -0.039755630806055 1.87972805676191
-0.332831308028924 -0.0877686220484739 1.87080381326417
0.173151808485873 -0.12374383590477 1.91442251240762
0.199134306690924 -0.106308398519615 1.96253779216585
-0.37166620289866 -0.0232167375438476 1.92098145836992
0.216862716857242 -0.0565635601867697 1.99054863885448
-0.373670843814837 0.0258203454839827 1.94057472996807
0.21529379094538 -0.0409863907001173 2.03496032865871
-0.378880190748709 0.0422409509048021 1.98926651984209
0.216898818763012 0.0069186943851922 2.05188320210485
-0.382241649996969 0.0714052266538353 2.03501309602826
0.212425771345839 0.0228524160197788 2.0991605870862
-0.380897688744782 0.115022722739885 2.05242920757292
0.213692790707258 0.0681649871944928 2.11786112160996
-0.381805023889637 0.15176289006681 2.08350430991747
0.209184515370463 0.0852809544940572 2.16543371021819
-0.382537793275568 0.162820030788827 2.13259176364121
0.206884040826933 0.132295708926513 2.18407021041352
-0.36581072586292 0.209251725562164 2.14890968958933
0.187957850828524 0.148584047886878 2.23011059859668
-0.345836922071405 0.219344833636352 2.19532407965859
-0.311094928216615 0.255873761907715 2.20629511380945
0.128650908444959 0.205315284477895 2.27495283651994
0.165782936900678 0.195843029633156 2.2391033966928
-0.275864666389939 0.254269235909338 2.24346194964389
-0.229299253654517 0.278706650221106 2.24144634935245
-0.185948060634637 0.262418484320349 2.26523023014055
-0.137139983285725 0.273301631184574 2.25659601652063
-0.0897736988924993 0.258642840885865 2.27329083831538
-0.0397657862187664 0.258961832594511 2.27521803402577
0.00673728057722175 0.25883223804443 2.27743298612919
0.04547296232285 0.235773111451582 2.29571410615714
0.0918439551240982 0.239957161135177 2.27330670532903
-0.261699891614751 -0.0998364166601582 1.81263455397609
-0.220174042935744 -0.104741365933261 1.79940273576707
-0.173711094763764 -0.102942485566205 1.79323186811391
-0.159317593134293 -0.135624502331626 1.81663848352467
-0.121670680044966 -0.109199644547013 1.80063463836459
-0.0751079775526364 -0.12108758107198 1.81140798690575
-0.0284177277486319 -0.132240614270575 1.82221339452002
0.0196312343363084 -0.122221692340386 1.81923330225354
0.0586720727084111 -0.149149932722685 1.84344983051662
0.103414821979552 -0.123575050664049 1.84216956009729
0.143626572860749 -0.126239433668437 1.87529781698283
-0.341255094834722 -0.00428851200167128 1.85266735011878
-0.325113345039665 -0.051970956521411 1.84074087603061
0.192646231930921 -0.0864942080249984 1.91541765227905
0.210524688517067 -0.0622260853526074 1.94766006442602
-0.361409971461652 0.014300516956552 1.89111787271007
0.216493991379948 -0.0184137807483532 1.95618277113195
-0.358035932913927 0.0596455808603326 1.91000011406115
0.219318082333938 -0.00443040276176866 2.00089831200275
-0.367719631854168 0.0755868565625145 1.95410648049302
0.21627840125064 0.0400904950704445 2.01751570572515
-0.374608433135945 0.0952977750773977 1.9989648111151
0.216506249432016 0.0577395548233956 2.06430392231911
-0.368093666334421 0.141497977212612 2.01154969709738
0.213834849609263 0.101322451612647 2.08420733748949
-0.370926546132737 0.170558163911735 2.04598133297284
0.213698746924143 0.119177466222632 2.13068157261323
-0.374797952341645 0.194803823861151 2.09940818348439
0.208188333466508 0.161942566320664 2.15072969145593
-0.356572782711687 0.236403801968805 2.11232852958664
0.192759071162104 0.181233488621286 2.197888227656
-0.339170988359274 0.250578027493784 2.16116966166897
-0.303260330387395 0.283384773410835 2.17150902525484
0.134237621860912 0.237888313866769 2.24086617029047
0.166176214000944 0.227661158333922 2.20448754695451
-0.267974853353306 0.286141964055906 2.21053260156741
-0.219076156040843 0.307838137859789 2.20415504087261
-0.182081415160042 0.294774922290425 2.23015310470727
-0.140128959861069 0.302287853316148 2.21924112694014
-0.0961828686507403 0.292729935118674 2.23404754639468
-0.0516078222754899 0.288249850113549 2.24089603009482
-0.00155429377299521 0.287139702997275 2.24282050270575
0.0500876943692531 0.269686479267701 2.26089539886482
0.0955453248771549 0.268908008210506 2.23847745202707
-0.286576201183743 -0.0590081309115319 1.80877615805859
-0.24112258354328 -0.0618200902833118 1.78674235074151
-0.193438539159465 -0.0643663894915331 1.77743356905191
-0.141643148758947 -0.0688028168893624 1.78086836732863
-0.0912429901200527 -0.0756249748702848 1.78808104780524
-0.0452657654728738 -0.0857030602854991 1.79611210010904
-0.001167926520715 -0.0855774884173858 1.80026833403598
0.0459785660953538 -0.0758045254404745 1.80196621879499
0.065944936300787 -0.110179762380767 1.81933806003645
0.0983916335130841 -0.0750709982431415 1.81668852767354
0.134583576423394 -0.0913399857632026 1.84437909811636
-0.306061963082 -0.0164884532386834 1.81488120006021
-0.28032930012281 0.0241790494960425 1.79894115663649
-0.263454561975259 -0.0198758699066873 1.78782621665148
0.145294981258601 -0.0506538539894239 1.83965692576213
0.170906822213883 -0.0826814886236272 1.87658817960788
0.17481726481937 -0.0357507339000952 1.8670532440177
-0.337594048943205 0.0504001152792577 1.86162519908535
-0.317947218440633 0.0260696148130809 1.82890230393121
0.198771017471434 -0.0400229614518211 1.90516883390728
0.204509840075861 0.002907459386063 1.91995234079154
-0.334004939570029 0.0894214415308682 1.88598929355801
0.210501121005429 0.0310282111064306 1.96185171945644
-0.343790089582949 0.111539256986342 1.92423486052599
0.205827189859098 0.0697757651926658 1.98738580032836
-0.356292263597487 0.124476905179457 1.96325092902528
0.208516610928461 0.0928647742876497 2.02845732416572
-0.344856345620124 0.164367966070041 1.97494091341529
0.203980699105381 0.13146443293113 2.05368072416533
-0.348507794576533 0.194651837873226 2.00990113731513
0.206466526860893 0.1543612367882 2.09454619240565
-0.362009488305246 0.212798521195404 2.0616202807715
0.199243721848695 0.1914876140316 2.11914522640165
-0.327765240614475 0.273637309170867 2.12239286154417
-0.339702323555232 0.255681419748622 2.07467179077955
-0.3084452540339 0.288615674062159 2.0792917548216
0.189799351786226 0.20920577322349 2.16252741899232
0.176928465348026 0.232963579436682 2.11768498565924
0.16366640483124 0.248138914795999 2.16218177214525
-0.259778001960156 0.309190444616195 2.17250818999931
-0.293505888692855 0.301018531037274 2.13146248535187
-0.251407431211503 0.322251095769591 2.12942488662328
0.131022516775897 0.266837919251368 2.20033819623096
0.0991771678735453 0.297437291712093 2.16273832677245
0.0866323474212106 0.292523312666945 2.20184334597411
-0.212340662628009 0.325590941436786 2.16321759786939
-0.168508042311201 0.320482717887839 2.1834114628124
-0.115636441008853 0.317668205034622 2.1861500712409
-0.0712629771181077 0.31270583100937 2.1953754829591
-0.0275104696493625 0.309204293610986 2.20076343582128
0.0152176452515455 0.307855079925891 2.20040907238251
0.0481478817962596 0.294214781442389 2.22449749755707
-0.214572216123456 -0.0216221805340355 1.77208938262371
-0.163327914325571 -0.0262838072901422 1.7696495452861
-0.112634895467615 -0.0306306123175511 1.77582886297664
-0.064847299338728 -0.0357273204777842 1.78193672398945
-0.020085349535766 -0.0395361870208242 1.78755146303008
0.0240228647068642 -0.0356425670302585 1.79234572415098
0.0725985818877428 -0.034410690773589 1.80026332367681
-0.236065683236308 0.0203467377931815 1.77852582153915
-0.20841188333393 0.0576768145442844 1.78092528537843
-0.184657444588473 0.0173789216008668 1.76955139970953
-0.133917649425295 0.0136154224532519 1.77313502091784
-0.0862870394420133 0.0122747135416561 1.77936795788486
-0.0390851813965439 0.00859101743523054 1.7852803378668
0.00568048410093801 0.00986105496027753 1.79152028460155
0.0525792509318187 0.00887478434485077 1.79789124002565
0.100685084422094 0.0102551755556192 1.8126768880098
0.147568902292241 0.00216399388722142 1.84072877174562
0.116096179041779 -0.0301588833269004 1.81763721907369
-0.297980725933245 0.0655592552367969 1.82498242929571
-0.265564538334736 0.103746245316163 1.82562990227326
-0.255302365608238 0.0642973148636455 1.79754448856643
0.124034752445466 0.0446793996547538 1.83554872257485
0.181365598803076 0.00665006736278344 1.87826781388479
0.159997591849404 0.046551224782125 1.86753461303766
-0.305566038145829 0.0979905120528315 1.85446149953156
-0.271852073115033 0.136324698339984 1.86015740276144
0.190127261437853 0.0441647117511932 1.91117873218382
0.162732740772219 0.0829859620420172 1.89999008971222
-0.309944330972658 0.13247010622921 1.89246225591028
-0.278656264487674 0.168423125805722 1.89658547406629
0.189314227842551 0.076068339671775 1.94284539837838
0.161026657070727 0.116812000819483 1.93382369337823
-0.320920323660973 0.158816512515677 1.93142516471204
-0.283311328319208 0.198086204414884 1.92915428018735
0.188132668696764 0.110324334339257 1.97827790320554
0.160208481511421 0.149668457923642 1.96795052137787
-0.317482862064403 0.198503972041151 1.96460588049977
-0.28112119180617 0.233359577876026 1.96167582198237
0.187631039619154 0.140173831403808 2.01047489633008
0.15974612542518 0.181856500218932 2.00191266742381
-0.31443213192487 0.234641587813013 1.99529989121751
-0.280266910486416 0.270602041919889 1.99881161194795
0.186787328683829 0.173887276413988 2.04618429365632
0.158740908306472 0.214220098672022 2.03524421697842
-0.338135281146581 0.235774598493716 2.03159406724853
-0.308493515577816 0.272429757065002 2.03484898123821
0.185273894546352 0.204159300628458 2.07782997350476
0.155685743564063 0.244065244179209 2.07048822842791
-0.275030749361494 0.311900048356533 2.08947977976353
-0.269862007892301 0.302229891100443 2.04170686570894
-0.23725501811523 0.324512521575699 2.07499890292178
0.133524064843113 0.277832268211863 2.15312920963728
0.147270096754654 0.265809251527244 2.1117041984787
0.10764210384696 0.293747626863818 2.11086998827705
-0.212818350487804 0.332752826262821 2.11473945961051
-0.187088180454306 0.332425521441421 2.07903494593785
-0.172367554506983 0.333112732444283 2.13347975398009
-0.143235737796753 0.331160266767567 2.09270286127181
-0.129988914246526 0.32914474038108 2.14301642796325
-0.099181498502246 0.327603478299967 2.09819958556716
-0.0832434740941377 0.325736479474924 2.1461253778752
-0.0543819131603665 0.323792471313058 2.10195789874482
-0.0390150550955193 0.322057721667903 2.15249591159538
-0.0108651776941192 0.320118365440535 2.10597916302339
0.00546169176853063 0.318867538818199 2.15480057876803
0.0332779977946052 0.316850049230014 2.1141852983452
0.0510261117996799 0.312114257721634 2.17017533576304
0.0708985275449426 0.31033484089697 2.12712783853949
-0.177336334859586 0.0909436618337955 1.79310032864057
-0.15513519327388 0.0558402802465027 1.77922091833507
-0.109423353802566 0.0580696866257487 1.78687661688877
-0.0607558683335419 0.0536678657500261 1.79278598505299
-0.0158716053565828 0.0553076938934073 1.80036330216892
0.0294828700891895 0.0543324225449629 1.80710126186276
0.0754386351175691 0.0501530023318672 1.81467498461572
-0.222339421769313 0.100060799054258 1.80438640920465
-0.179538289642707 0.127077509537787 1.81871796073719
-0.133726749281356 0.10094918381556 1.80422164859674
-0.0828700727759196 0.0936987633811108 1.80856661906213
-0.0385731498488413 0.0969061253191647 1.81854032000966
0.00591867709042758 0.0967409693031757 1.82649575237356
0.0510543448120543 0.0936788573416551 1.83256346328114
0.0943582468772454 0.0837673848753681 1.84017225441235
0.128928169073291 0.0869878443325681 1.86528077793015
-0.227047127721402 0.135503205310018 1.83528842506883
-0.186999362574603 0.160541158663667 1.85212356592382
-0.141230281022137 0.143471606974432 1.83936480673759
-0.102163051326897 0.126953650025207 1.83079099007505
-0.0593878510431437 0.132275419309661 1.84491941625661
-0.0157164766362608 0.132870540833709 1.8545682232702
0.0323403878910532 0.128973743695071 1.86055433835961
0.082084617223338 0.120976699265743 1.86705352281094
0.12673225498639 0.119517291253405 1.8961015439386
-0.233715233657794 0.167812913651585 1.86981349843739
-0.188497931091702 0.192678514406966 1.88452184347415
-0.142570690770539 0.177287402177121 1.87349256449453
-0.0961103298940465 0.160350841366188 1.86588082690554
-0.0491820231851691 0.167161770709073 1.88252731590243
0.000952604227237488 0.163017918337817 1.88869230833912
0.0486965646586761 0.15868503857166 1.89418201636899
0.0906931906742625 0.150744689343693 1.90219320594638
0.125781958363116 0.15413573241299 1.93157219566658
-0.237017261216382 0.199111163647752 1.90212265791546
-0.190843031565379 0.223258811288464 1.91540677759109
-0.141988204181911 0.211375474372797 1.90829524737037
-0.0995724046821435 0.193136779871775 1.89852082438515
-0.0616995933626616 0.201921400047515 1.91530057158608
-0.0170540342674757 0.195832258456457 1.91834961074003
0.030899525500448 0.19204794673889 1.92442840892786
0.0798638661464904 0.185545941887238 1.93247642626181
0.124929918466649 0.185218731283868 1.96342524177222
-0.240060612722546 0.229545709063063 1.93349629235544
-0.197005541798056 0.253529721711399 1.94630819658438
-0.147082668999909 0.243563183299312 1.93998827010851
-0.0979650407997981 0.231134266004906 1.93751409471366
-0.0464582946856891 0.23124672990315 1.94829313083051
0.00164893833619445 0.226408578241489 1.95333212571808
0.048003410668517 0.222802257139709 1.95932132081449
0.0894000930045255 0.215572802794534 1.96847297347631
0.124335726756272 0.219278918988648 1.99865708736292
-0.244509971666619 0.262314757119623 1.96781856826269
-0.206506243707025 0.284339253320825 1.97899110415462
-0.159572093030713 0.277312097075877 1.97180517447208
-0.113059930978145 0.266988625948896 1.97086771882725
-0.0684629346661562 0.262397118013618 1.97542987400093
-0.0195335703925724 0.260075350487 1.98319955599798
0.0292203534675987 0.256304795877956 1.98945772826925
0.0782270357925285 0.250495616894953 1.99857809092908
0.122942735301712 0.249786926425386 2.03032491397049
-0.240093541234943 0.296965321467989 2.00700454740807
-0.183471805088557 0.306639598336187 2.00757145467255
-0.134791754812408 0.300062144169176 2.00614952964202
-0.0902081251860911 0.295117586544248 2.00964095130621
-0.0453896833623544 0.290866785374873 2.01428101530477
0.000935485129332669 0.287746073739625 2.02100574675714
0.0459607548885556 0.284701924614531 2.02768111762424
0.0865552922827047 0.277879282815278 2.03780368225155
0.118297791212582 0.276974103981562 2.07119490124646
-0.215073294935893 0.319000606143198 2.03827715587646
-0.160905426381106 0.322228543828288 2.04407685082814
-0.115185708556612 0.31864419680579 2.05009070063263
-0.0701675683234029 0.314493248917153 2.05425674894835
-0.0244578971403746 0.310297788250888 2.05857435107653
0.0226335299741108 0.307031913585896 2.06593352276862
0.069483977226678 0.301765320301358 2.07617696693597
3 0 1 2
3 0 2 4
3 3 0 4
3 3 4 6
3 5 3 6
3 5 6 8
3 7 5 8
3 7 8 10
3 9 7 10
3 9 10 12
3 11 9 12
3 13 11 14
3 14 11 12
3 13 14 15
3 16 17 18
3 16 18 1
3 0 19 1
3 19 16 1
3 0 3 20
3 19 0 20
3 3 5 21
3 20 3 21
3 5 7 22
3 21 5 22
3 7 9 23
3 22 7 23
3 9 11 24
3 23 9 24
3 24 11 25
3 25 11 13
3 13 15 26
3 27 13 26
3 25 13 27
3 27 26 28
3 17 16 30
3 30 16 29
3 29 19 31
3 29 16 19
3 31 20 32
3 31 19 20
3 32 21 33
3 32 20 21
3 21 22 33
3 33 22 34
3 22 23 34
3 34 23 35
3 23 24 35
3 35 24 36
3 24 25 36
3 36 25 37
3 37 27 38
3 37 25 27
3 38 28 39
3 38 27 28
3 30 40 41
3 30 29 40
3 29 31 42
3 40 29 42
3 31 32 43
3 42 31 43
3 32 33 44
3 43 32 44
3 33 34 45
3 44 33 45
3 34 35 46
3 45 34 46
3 35 36 47
3 46 35 47
3 36 37 47
3 47 37 48
3 37 38 48
3 48 38 49
3 49 39 50
3 49 38 39
3 40 51 52
3 41 40 52
3 51 42 53
3 51 40 42
3 42 43 53
3 53 43 54
3 43 44 54
3 54 44 55
3 44 45 55
3 55 45 56
3 45 46 56
3 56 46 57
3 46 47 58
3 57 46 58
3 47 48 59
3 58 47 59
3 48 49 60
3 59 48 60
3 49 50 61
3 60 49 61
3 51 62 63
3 52 51 63
3 51 53 64
3 62 51 64
3 53 54 65
3 64 53 65
3 54 55 66
3 65 54 66
3 55 56 67
3 66 55 67
3 56 57 67
3 67 57 68
3 57 58 69
3 68 57 69
3 58 59 69
3 69 59 70
3 59 60 70
3 70 60 71
3 71 61 72
3 71 60 61
3 62 73 74
3 63 62 74
3 62 64 75
3 73 62 75
3 64 65 75
3 75 65 76
3 65 66 76
3 76 66 77
3 66 67 77
3 77 67 78
3 67 68 78
3 78 68 79
3 79 69 80
3 79 68 69
3 80 70 81
3 80 69 70
3 81 71 82
3 81 70 71
3 82 72 83
3 82 71 72
3 74 73 85
3 85 73 84
3 84 73 86
3 86 73 75
3 75 76 86
3 86 76 87
3 76 77 88
3 87 76 88
3 77 78 89
3 88 77 89
3 78 79 90
3 89 78 90
3 79 80 91
3 90 79 91
3 80 81 92
3 91 80 92
3 81 82 93
3 92 81 93
3 93 83 94
3 93 82 83
3 84 95 85
3 84 86 96
3 97 84 96
3 95 84 97
3 96 87 98
3 96 86 87
3 87 88 98
3 98 88 99
3 88 89 99
3 99 89 100
3 89 90 100
3 100 90 101
3 101 91 102
3 101 90 91
3 102 92 103
3 102 91 92
3 92 93 103
3 105 103 104
3 103 93 104
3 93 94 104
3 96 106 97
3 96 98 107
3 106 96 107
3 98 99 108
3 107 98 108
3 99 100 109
3 108 99 109
3 100 101 110
3 109 100 110
3 101 102 111
3 110 101 111
3 111 102 112
3 112 102 103
3 103 105 112
3 117 114 115
3 116 113 117
3 117 113 114
3 116 117 119
3 118 116 119
3 118 119 121
3 120 118 121
3 120 121 123
3 122 120 123
3 122 123 125
3 124 122 125
3 124 125 127
3 126 124 127
3 126 127 128
3 129 130 131
3 114 129 131
3 114 113 129
3 113 2 129
3 129 2 1
3 4 113 116
3 4 2 113
3 6 116 118
3 6 4 116
3 8 118 120
3 8 6 118
3 10 120 122
3 10 8 120
3 12 122 124
3 12 10 122
3 14 124 126
3 14 12 124
3 133 126 128
3 15 14 126
3 15 126 133
3 132 15 133
3 132 133 134
3 135 136 137
3 137 17 135
3 137 18 17
3 18 137 130
3 129 18 130
3 18 129 1
3 15 132 26
3 139 132 134
3 139 138 132
3 138 28 26
3 132 138 26
3 138 139 140
3 136 135 142
3 142 135 141
3 17 30 135
3 135 30 141
3 143 39 28
3 138 143 28
3 143 140 144
3 143 138 140
3 141 145 146
3 142 141 146
3 41 145 141
3 30 41 141
3 147 39 143
3 147 50 39
3 147 144 148
3 147 143 144
3 145 149 150
3 146 145 150
3 52 149 145
3 41 52 145
3 151 50 147
3 151 155 50
3 151 148 152
3 151 147 148
3 149 153 154
3 150 149 154
3 63 153 149
3 52 63 149
3 155 61 50
3 155 72 61
3 155 151 156
3 156 151 152
3 154 157 158
3 154 153 157
3 74 157 153
3 63 74 153
3 159 72 155
3 159 83 72
3 159 156 160
3 159 155 156
3 158 157 162
3 162 157 161
3 74 85 161
3 157 74 161
3 163 83 159
3 163 94 83
3 163 160 164
3 163 159 160
3 161 165 162
3 165 95 166
3 165 161 95
3 161 85 95
3 165 166 167
3 95 97 166
3 105 104 168
3 170 94 163
3 170 168 94
3 169 168 170
3 94 168 104
3 163 164 170
3 166 171 167
3 173 171 172
3 172 171 106
3 171 97 106
3 171 166 97
3 172 107 174
3 172 106 107
3 174 108 175
3 174 107 108
3 175 109 176
3 175 108 109
3 176 110 177
3 176 109 110
3 177 111 178
3 177 110 111
3 178 112 180
3 178 111 112
3 181 105 168
3 181 180 105
3 179 178 180
3 180 112 105
3 168 169 181
3 172 182 173
3 182 172 183
3 183 172 174
3 174 175 184
3 183 174 184
3 175 176 185
3 184 175 185
3 176 177 186
3 185 176 186
3 177 178 187
3 186 177 187
3 187 179 188
3 187 178 179
3 179 180 229
3 189 190 191
3 114 131 191
3 115 114 191
3 115 191 192
3 115 192 193
3 117 115 193
3 119 193 194
3 119 117 193
3 119 194 121
3 121 194 195
3 121 195 123
3 123 195 196
3 123 196 125
3 125 196 197
3 127 197 198
3 127 125 197
3 128 198 199
3 200 128 199
3 128 127 198
3 200 199 201
3 202 203 204
3 131 130 189
3 190 189 204
3 189 130 202
3 189 202 204
3 131 189 191
3 128 200 133
3 134 200 205
3 206 205 201
3 134 133 200
3 205 200 201
3 205 206 207
3 136 208 203
3 202 137 136
3 202 136 203
3 137 202 130
3 134 205 139
3 139 205 207
3 140 139 207
3 211 207 209
3 136 142 208
3 208 142 210
3 211 140 207
3 211 144 140
3 146 212 210
3 142 146 210
3 148 144 213
3 213 144 211
3 150 214 212
3 146 150 212
3 215 148 213
3 215 152 148
3 154 216 150
3 150 216 214
3 219 152 217
3 217 152 215
3 158 218 216
3 154 158 216
3 219 156 152
3 219 160 156
3 158 220 218
3 158 162 220
3 221 160 219
3 221 164 160
3 162 165 222
3 223 220 222
3 220 162 222
3 165 167 222
3 169 170 224
3 225 164 221
3 224 170 164
3 224 164 225
3 222 226 223
3 167 171 227
3 226 167 227
3 226 227 228
3 226 222 167
3 171 173 227
3 180 181 229
3 181 169 230
3 231 169 224
3 230 169 231
3 230 229 181
3 224 225 271
3 227 232 228
3 232 182 233
3 232 173 182
3 227 173 232
3 182 183 234
3 233 182 234
3 183 184 234
3 234 184 235
3 184 185 235
3 235 185 236
3 185 186 236
3 236 186 237
3 186 187 237
3 237 187 238
3 238 188 239
3 238 187 188
3 188 179 229
3 240 239 188
3 240 188 229
3 229 230 240
3 191 190 242
3 242 190 241
3 192 242 243
3 192 191 242
3 192 243 244
3 193 192 244
3 194 244 245
3 194 193 244
3 194 245 246
3 195 194 246
3 195 246 247
3 196 195 247
3 196 247 248
3 197 196 248
3 197 248 249
3 198 197 249
3 199 198 249
3 250 199 249
3 201 199 251
3 251 199 250
3 204 252 253
3 204 203 252
3 190 253 241
3 190 204 253
3 206 251 254
3 206 201 251
3 207 206 255
3 255 206 254
3 203 256 252
3 203 208 256
3 257 209 255
3 255 209 207
3 210 258 208
3 208 258 256
3 211 209 259
3 259 209 257
3 212 260 210
3 210 260 258
3 213 211 259
3 261 213 259
3 214 262 260
3 212 214 260
3 215 213 261
3 263 215 261
3 216 264 214
3 214 264 262
3 217 215 263
3 265 217 263
3 218 266 264
3 216 218 264
3 219 217 265
3 267 219 265
3 218 268 266
3 218 220 268
3 221 219 267
3 269 221 267
3 223 270 268
3 220 223 268
3 225 221 269
3 271 225 269
3 223 226 272
3 270 223 272
3 272 228 273
3 272 226 228
3 274 231 275
3 274 230 231
3 275 231 271
3 271 231 224
3 273 228 276
3 276 228 232
3 276 233 277
3 276 232 233
3 233 234 278
3 277 233 278
3 234 235 279
3 278 234 279
3 235 236 280
3 279 235 280
3 236 237 281
3 280 236 281
3 237 238 282
3 281 237 282
3 238 239 283
3 282 238 283
3 327 239 284
3 284 239 240
3 240 230 274
3 284 240 274
3 241 285 286
3 242 241 286
3 242 286 243
3 243 286 287
3 243 287 288
3 244 243 288
3 245 288 289
3 245 244 288
3 245 289 246
3 246 289 290
3 246 290 247
3 247 290 291
3 247 291 248
3 248 291 292
3 248 292 293
3 249 248 293
3 249 293 250
3 250 293 294
3 250 294 295
3 251 250 295
3 252 296 297
3 253 252 297
3 241 297 285
3 241 253 297
3 254 295 298
3 254 251 295
3 254 298 299
3 255 254 299
3 256 300 252
3 252 300 296
3 257 255 299
3 301 257 299
3 258 302 300
3 256 258 300
3 259 257 303
3 303 257 301
3 260 304 258
3 258 304 302
3 261 259 303
3 305 261 303
3 262 306 304
3 260 262 304
3 263 261 305
3 307 263 305
3 264 308 262
3 262 308 306
3 265 263 307
3 309 265 307
3 266 310 308
3 264 266 308
3 267 265 309
3 311 267 309
3 266 312 310
3 266 268 312
3 269 267 311
3 313 269 311
3 270 314 312
3 268 270 312
3 271 269 315
3 315 269 313
3 270 272 316
3 314 270 316
3 316 273 317
3 316 272 273
3 318 275 319
3 318 274 275
3 275 271 315
3 319 275 315
3 273 276 320
3 317 273 320
3 276 277 320
3 320 277 321
3 277 278 322
3 321 277 322
3 322 279 323
3 322 278 279
3 279 280 323
3 323 280 324
3 280 281 324
3 324 281 325
3 281 282 325
3 325 282 326
3 282 283 326
3 326 283 327
3 283 239 327
3 327 284 328
3 284 274 318
3 328 284 318
3 285 329 330
3 286 285 330
3 286 330 287
3 287 330 331
3 287 331 332
3 288 287 332
3 288 332 289
3 289 332 333
3 289 333 334
3 290 289 334
3 290 334 335
3 291 290 335
3 291 335 292
3 292 335 336
3 292 336 337
3 293 292 337
3 293 337 294
3 294 337 338
3 294 338 339
3 295 294 339
3 296 340 341
3 297 296 341
3 285 341 329
3 285 297 341
3 298 339 342
3 298 295 339
3 298 342 343
3 299 298 343
3 300 344 296
3 296 344 340
3 301 299 343
3 345 301 343
3 302 346 344
3 300 302 344
3 303 301 347
3 347 301 345
3 304 348 302
3 302 348 346
3 305 303 347
3 349 305 347
3 306 350 348
3 304 306 348
3 307 305 351
3 351 305 349
3 308 352 306
3 306 352 350
3 309 307 353
3 353 307 351
3 310 354 352
3 308 310 352
3 311 309 355
3 355 309 353
3 312 356 310
3 310 356 354
3 313 311 355
3 357 313 355
3 314 358 356
3 312 314 356
3 315 313 359
3 359 313 357
3 314 316 360
3 358 314 360
3 360 317 361
3 360 316 317
3 362 319 363
3 362 318 319
3 319 315 359
3 363 319 359
3 317 320 364
3 361 317 364
3 320 321 364
3 364 321 365
3 321 322 366
3 365 321 366
3 322 323 366
3 366 323 367
3 323 324 368
3 367 323 368
3 324 325 369
3 368 324 369
3 325 326 370
3 369 325 370
3 326 327 371
3 370 326 371
3 327 328 371
3 371 328 372
3 328 318 362
3 372 328 362
3 329 373 374
3 330 329 374
3 330 374 331
3 331 374 375
3 331 375 376
3 332 331 376
3 332 376 333
3 333 376 377
3 333 377 378
3 334 333 378
3 334 378 379
3 335 334 379
3 335 379 336
3 336 379 380
3 336 380 381
3 337 336 381
3 337 381 338
3 338 381 382
3 338 382 383
3 339 338 383
3 340 384 385
3 341 340 385
3 329 385 373
3 329 341 385
3 342 383 386
3 342 339 383
3 342 386 387
3 343 342 387
3 344 388 340
3 340 388 384
3 345 343 387
3 389 345 387
3 346 390 388
3 344 346 388
3 347 345 391
3 391 345 389
3 348 392 346
3 346 392 390
3 349 347 391
3 393 349 391
3 350 394 348
3 348 394 392
3 351 349 395
3 395 349 393
3 352 396 350
3 350 396 394
3 353 351 395
3 397 353 395
3 354 398 396
3 352 354 396
3 355 353 399
3 399 353 397
3 356 400 354
3 354 400 398
3 357 355 399
3 401 357 399
3 358 402 400
3 356 358 400
3 359 357 403
3 403 357 401
3 358 360 404
3 402 358 404
3 404 361 405
3 404 360 361
3 406 363 407
3 406 362 363
3 363 359 403
3 407 363 403
3 361 364 408
3 405 361 408
3 364 365 408
3 408 365 409
3 365 366 410
3 409 365 410
3 366 367 410
3 410 367 411
3 367 368 412
3 411 367 412
3 368 369 412
3 412 369 413
3 369 370 413
3 413 370 414
3 370 371 415
3 414 370 415
3 371 372 415
3 415 372 416
3 372 362 406
3 416 372 406
3 373 417 418
3 374 373 418
3 374 418 375
3 375 418 419
3 375 419 420
3 376 375 420
3 376 420 377
3 377 420 421
3 377 421 422
3 378 377 422
3 378 422 423
3 379 378 423
3 380 423 424
3 380 379 423
3 380 424 425
3 381 380 425
3 382 425 426
3 382 381 425
3 382 426 427
3 383 382 427
3 384 428 429
3 385 384 429
3 373 429 417
3 373 385 429
3 386 427 430
3 386 383 427
3 386 430 431
3 387 386 431
3 384 432 428
3 384 388 432
3 389 387 431
3 433 389 431
3 390 434 432
3 388 390 432
3 435 389 433
3 435 391 389
3 390 436 434
3 390 392 436
3 393 391 435
3 437 393 435
3 394 438 436
3 392 394 436
3 395 393 439
3 439 393 437
3 396 440 438
3 394 396 438
3 397 395 439
3 441 397 439
3 398 442 440
3 396 398 440
3 399 397 443
3 443 397 441
3 400 444 398
3 398 444 442
3 401 399 443
3 445 401 443
3 402 446 444
3 400 402 444
3 403 401 447
3 447 401 445
3 402 404 448
3 446 402 448
3 448 405 449
3 448 404 405
3 450 407 451
3 450 406 407
3 407 403 447
3 451 407 447
3 405 408 452
3 449 405 452
3 408 409 452
3 452 409 453
3 409 410 454
3 453 409 454
3 410 411 454
3 454 411 455
3 411 412 456
3 455 411 456
3 412 413 456
3 456 413 457
3 457 414 458
3 457 413 414
3 414 415 459
3 458 414 459
3 415 416 459
3 459 416 460
3 416 406 450
3 460 416 450
3 418 461 462
3 418 417 461
3 419 462 463
3 419 418 462
3 419 463 464
3 420 419 464
3 420 464 421
3 421 464 465
3 421 465 466
3 422 421 466
3 422 466 467
3 423 422 467
3 424 467 468
3 424 423 467
3 424 468 469
3 425 424 469
3 426 469 470
3 426 425 469
3 427 426 471
3 471 426 470
3 429 428 473
3 473 428 472
3 417 473 505
3 417 429 473
3 430 427 471
3 520 430 471
3 431 474 475
3 431 430 474
3 428 476 472
3 428 432 476
3 433 431 475
3 477 433 475
3 434 478 476
3 432 434 476
3 479 433 477
3 479 435 433
3 434 480 478
3 434 436 480
3 437 435 479
3 481 437 479
3 438 482 436
3 436 482 480
3 439 437 483
3 483 437 481
3 440 484 482
3 438 440 482
3 441 439 483
3 485 441 483
3 442 486 440
3 440 486 484
3 443 441 487
3 487 441 485
3 444 488 442
3 442 488 486
3 445 443 487
3 489 445 487
3 444 446 488
3 488 446 490
3 491 445 489
3 491 447 445
3 490 446 492
3 492 446 448
3 492 449 493
3 492 448 449
3 494 451 495
3 494 450 451
3 451 447 491
3 495 451 491
3 449 452 496
3 493 449 496
3 496 453 497
3 496 452 453
3 453 454 498
3 497 453 498
3 498 455 499
3 498 454 455
3 455 456 500
3 499 455 500
3 456 457 501
3 500 456 501
3 457 458 502
3 501 457 502
3 458 459 503
3 502 458 503
3 503 460 504
3 503 459 460
3 504 460 494
3 494 460 450
3 461 505 506
3 462 461 506
3 507 463 462
3 507 462 506
3 465 463 508
3 508 463 507
3 464 463 465
3 465 508 509
3 465 509 466
3 466 509 510
3 466 510 467
3 467 510 511
3 467 511 468
3 468 511 512
3 468 512 513
3 469 468 513
3 469 513 470
3 515 470 514
3 470 513 514
3 470 515 471
3 472 516 473
3 518 516 517
3 518 505 516
3 461 417 505
3 505 473 516
3 505 518 506
3 515 514 519
3 474 430 520
3 521 520 519
3 520 471 515
3 520 515 519
3 474 520 524
3 476 522 472
3 516 472 523
3 472 522 523
3 516 523 517
3 520 521 524
3 477 475 524
3 524 475 474
3 525 477 524
3 478 526 522
3 476 478 522
3 527 477 525
3 527 479 477
3 478 528 526
3 478 480 528
3 481 479 527
3 529 481 527
3 482 530 480
3 480 530 528
3 483 481 531
3 531 481 529
3 484 532 530
3 482 484 530
3 485 483 531
3 533 485 531
3 486 534 484
3 484 534 532
3 535 485 533
3 535 487 485
3 486 536 534
3 486 488 536
3 537 489 535
3 535 489 487
3 490 538 539
3 536 490 539
3 488 490 536
3 538 540 539
3 541 542 543
3 541 489 537
3 542 541 537
3 541 491 489
3 490 492 538
3 545 493 544
3 538 492 493
3 538 493 545
3 540 538 545
3 544 546 545
3 547 548 549
3 543 495 541
3 547 494 495
3 547 495 543
3 608 547 543
3 495 491 541
3 493 496 544
3 544 497 550
3 546 544 550
3 544 496 497
3 550 497 551
3 551 497 498
3 498 499 551
3 551 499 552
3 499 500 552
3 552 500 553
3 500 501 553
3 553 501 554
3 554 502 555
3 554 501 502
3 502 503 556
3 555 502 556
3 503 504 556
3 549 504 547
3 556 504 549
3 504 494 547
3 506 557 507
3 507 557 558
3 508 507 558
3 508 558 559
3 509 508 559
3 509 559 560
3 510 509 560
3 510 560 561
3 511 510 561
3 511 561 562
3 512 511 562
3 514 512 563
3 563 512 562
3 513 512 514
3 517 564 518
3 518 564 557
3 566 564 565
3 557 564 566
3 557 506 518
3 558 566 567
3 558 557 566
3 559 567 568
3 559 558 567
3 560 568 569
3 560 559 568
3 561 569 570
3 561 560 569
3 562 570 571
3 562 561 570
3 563 562 571
3 572 563 571
3 574 514 563
3 572 574 563
3 573 519 574
3 574 519 514
3 519 573 521
3 522 575 523
3 577 575 576
3 577 517 575
3 564 517 577
3 575 517 523
3 564 577 565
3 573 574 572
3 521 573 579
3 580 573 578
3 579 573 580
3 579 524 521
3 524 579 525
3 522 581 575
3 522 526 581
3 576 581 582
3 576 575 581
3 583 580 584
3 583 579 580
3 583 525 579
3 583 527 525
3 526 585 581
3 526 528 585
3 582 585 586
3 582 581 585
3 587 584 588
3 587 583 584
3 587 527 583
3 587 529 527
3 528 589 585
3 528 530 589
3 586 589 590
3 586 585 589
3 591 588 592
3 591 587 588
3 591 529 587
3 591 531 529
3 532 593 589
3 530 532 589
3 590 593 594
3 590 589 593
3 595 592 596
3 595 591 592
3 595 531 591
3 595 533 531
3 534 597 593
3 532 534 593
3 594 597 598
3 594 593 597
3 599 596 600
3 599 595 596
3 599 533 595
3 599 535 533
3 534 601 597
3 534 536 601
3 602 597 601
3 602 598 597
3 603 599 600
3 604 603 600
3 603 535 599
3 603 537 535
3 536 539 601
3 606 540 605
3 606 602 540
3 602 601 539
3 540 602 539
3 605 607 606
3 608 609 610
3 608 543 609
3 604 542 603
3 609 543 542
3 609 542 604
3 542 537 603
3 540 545 605
3 605 546 607
3 612 607 611
3 605 545 546
3 607 546 611
3 612 613 614
3 612 611 613
3 614 615 616
3 614 613 615
3 616 617 618
3 616 615 617
3 618 619 620
3 618 617 619
3 620 621 622
3 620 619 621
3 622 623 624
3 622 621 623
3 610 548 608
3 624 623 548
3 624 548 610
3 548 623 549
3 548 547 608
3 546 550 611
3 611 550 613
3 613 550 551
3 551 552 615
3 613 551 615
3 552 553 617
3 615 552 617
3 553 554 619
3 617 553 619
3 554 555 621
3 619 554 621
3 621 555 623
3 623 555 556
3 556 549 623
3 565 625 626
3 567 566 626
3 626 566 565
3 567 626 627
3 568 567 627
3 568 627 628
3 569 568 628
3 569 628 629
3 570 569 629
3 570 629 630
3 571 570 630
3 572 571 631
3 631 571 630
3 572 631 578
3 576 632 577
3 625 632 633
3 565 577 632
3 565 632 625
3 625 633 634
3 626 625 634
3 626 634 627
3 627 634 635
3 627 635 628
3 628 635 636
3 628 636 629
3 629 636 637
3 629 637 630
3 630 637 638
3 631 638 639
3 631 630 638
3 640 578 639
3 578 573 572
3 578 631 639
3 578 640 580
3 576 641 632
3 576 582 641
3 633 641 642
3 633 632 641
3 633 642 643
3 634 633 643
3 634 643 644
3 635 634 644
3 635 644 645
3 636 635 645
3 636 645 646
3 637 636 646
3 637 646 647
3 638 637 647
3 638 647 648
3 639 638 648
3 640 648 649
3 640 639 648
3 584 580 640
3 649 584 640
3 582 650 641
3 582 586 650
3 642 650 651
3 642 641 650
3 642 651 652
3 643 642 652
3 643 652 653
3 644 643 653
3 644 653 645
3 645 653 654
3 645 654 646
3 646 654 655
3 646 655 647
3 647 655 656
3 647 656 648
3 648 656 657
3 648 657 649
3 649 657 658
3 588 584 649
3 658 588 649
3 586 659 650
3 586 590 659
3 650 659 651
3 651 659 660
3 651 660 661
3 652 651 661
3 652 661 662
3 653 652 662
3 653 662 654
3 654 662 663
3 654 663 664
3 655 654 664
3 655 664 665
3 656 655 665
3 656 665 666
3 657 656 666
3 657 666 658
3 658 666 667
3 592 588 658
3 667 592 658
3 590 668 659
3 590 594 668
3 660 668 669
3 660 659 668
3 660 669 670
3 661 660 670
3 661 670 671
3 662 661 671
3 662 671 663
3 663 671 672
3 663 672 664
3 664 672 673
3 664 673 665
3 665 673 674
3 665 674 666
3 666 674 675
3 666 675 667
3 667 675 676
3 596 592 667
3 676 596 667
3 594 677 668
3 594 598 677
3 668 677 669
3 669 677 678
3 669 678 679
3 670 669 679
3 670 679 680
3 671 670 680
3 671 680 681
3 672 671 681
3 672 681 682
3 673 672 682
3 673 682 683
3 674 673 683
3 674 683 684
3 675 674 684
3 676 684 685
3 676 675 684
3 600 596 676
3 685 600 676
3 598 686 677
3 598 602 606
3 678 686 687
3 678 677 686
3 678 687 679
3 679 687 688
3 679 688 680
3 680 688 689
3 680 689 681
3 681 689 690
3 681 690 682
3 682 690 691
3 683 691 692
3 683 682 691
3 684 692 693
3 684 683 692
3 685 693 694
3 685 684 693
3 694 604 685
3 685 604 600
3 598 606 686
3 606 607 695
3 686 606 695
3 686 695 687
3 688 687 696
3 696 687 695
3 688 696 697
3 689 688 697
3 689 697 698
3 690 689 698
3 690 698 699
3 691 690 699
3 691 699 700
3 692 691 700
3 692 700 701
3 693 692 701
3 610 609 694
3 701 610 694
3 701 694 693
3 609 604 694
3 607 612 695
3 695 612 696
3 696 612 614
3 614 616 697
3 696 614 697
3 616 618 698
3 697 616 698
3 618 620 699
3 698 618 699
3 620 622 700
3 699 620 700
3 622 624 701
3 700 622 701
3 624 610 701
