OFF
702 1400 0
-0.261336352144507 -0.32619220621791 2.19831868347956
-0.306696700137482 -0.312487928119434 2.18035749961669
-0.278584049704244 -0.332160900449945 2.15306249477512
-0.214481658903817 -0.332849278518766 2.20312741841736
-0.232670445175849 -0.342945294486932 2.15843895880505
-0.167683492530361 -0.337569404986016 2.20636126461276
-0.18628865353969 -0.34724788591008 2.16064877591635
-0.122316732898382 -0.341628295943646 2.21079048369611
-0.14097060711028 -0.351341645387664 2.16255739483105
-0.077435370248236 -0.345488402056398 2.21557410841638
-0.0962225566610397 -0.355003875543056 2.16725935583484
-0.0299494440812305 -0.348562786443314 2.2232594299258
-0.0504514340019994 -0.358286152997087 2.17581095178214
0.0181532955785312 -0.34414715214245 2.23162177002569
-0.00314839796608965 -0.359876114071754 2.18487501497513
0.043376741567388 -0.351004594055194 2.19362660991469
-0.329283626325321 -0.283678313375758 2.20836333916322
-0.358935249955225 -0.266454050326057 2.18076291451966
-0.337774919805591 -0.296696531376754 2.15254357581626
-0.288902030921001 -0.299584897869828 2.22823642448822
-0.242242484840747 -0.308597673980335 2.2403500725088
-0.194559822808762 -0.313946981714543 2.2442697323548
-0.147804733781865 -0.317905525458757 2.24971020903539
-0.102600118523599 -0.321308982040024 2.25559398508922
-0.0583159933830201 -0.326722942074799 2.25824597420597
-0.00967833767825939 -0.327536312756793 2.26556107807938
0.064138352222445 -0.328015832381404 2.23721753826812
0.0355267850619638 -0.315412729734358 2.27326990177301
0.0816675457635588 -0.295348423229261 2.27086420055555
-0.316349448447664 -0.262558698228643 2.24978666022355
-0.356396333156814 -0.242222193185389 2.22159158957782
-0.270434482906748 -0.275966608899995 2.26748714939209
-0.220513912573379 -0.282338329514837 2.27565626794904
-0.172930350124013 -0.286701394349541 2.28096358128777
-0.125322058040162 -0.289148916444473 2.28822310912735
-0.0806306586822754 -0.291897231705057 2.29457875517337
-0.0384050491799855 -0.301317428404402 2.29365161909611
0.00293833198405694 -0.293047027962359 2.30427986756202
0.0486218481071751 -0.279698413115961 2.30564228244424
0.0934892077486955 -0.257516638270897 2.29899347251153
-0.334549417469964 -0.225127490908049 2.27014478231548
-0.367616446205784 -0.20377451295983 2.24346690428279
-0.293643683074368 -0.239958831377621 2.29146579119012
-0.244672212085068 -0.250566951874618 2.30281160621882
-0.195922187679254 -0.25274099018673 2.31076278781969
-0.148486872095262 -0.257531943328179 2.31560578611036
-0.0970015274915836 -0.258367552919481 2.32529589553449
-0.0421716352725252 -0.267821301852298 2.32691405324055
0.0082712378464949 -0.260525331279335 2.33622637405208
0.0587823882862309 -0.245093188958966 2.33483833166865
0.103598946703966 -0.219131955845064 2.32678270780731
-0.318637690820655 -0.200713051668582 2.31252283449653
-0.359026955810082 -0.183022857857564 2.28125922973729
-0.269461312401855 -0.217885761772643 2.32760691787249
-0.22207135984562 -0.220161955545822 2.3385127539076
-0.176539882656178 -0.221196589617215 2.34678224477982
-0.132612837320868 -0.229086786085987 2.34775774198319
-0.0990964979726252 -0.21705849058781 2.36683969893477
-0.0642859684235736 -0.23647454133745 2.35423804444808
-0.0219758658162392 -0.232960837601331 2.36510201966029
0.0259402243033283 -0.226496637716319 2.3664438678261
0.0740347849735329 -0.207802514786052 2.36217293481233
-0.321773721159797 -0.159893838138886 2.35240590868257
-0.349774695954401 -0.162300043175482 2.31752823386223
-0.288931008942561 -0.186305171400363 2.35001943752895
-0.241884660981768 -0.188624098466346 2.36649495387335
-0.197149916007508 -0.187383101338556 2.37692107972223
-0.148255278402725 -0.192391433778351 2.38184088608727
-0.10282901522629 -0.186562462785278 2.39706289833885
-0.0554386308360823 -0.200036234140837 2.3930734417585
-0.00742077217303561 -0.199886634356086 2.39851935823969
0.0403689151255438 -0.192680960380795 2.39506501192441
0.087890095186249 -0.170653035765367 2.38786746499681
-0.311159919924828 -0.135197859437045 2.38752208205472
-0.355200802605648 -0.122654256032538 2.35221715604822
-0.272537308522554 -0.159732095807666 2.38595721522991
-0.226580020258547 -0.153427331828772 2.40539698641142
-0.176558591846081 -0.157975514057659 2.41101602253778
-0.130769272354689 -0.157748360637867 2.42062093981172
-0.0792544187624217 -0.161810965683948 2.42703803234703
-0.034327706417966 -0.168401361202425 2.42917790893894
0.012052358936253 -0.165582828850494 2.43044639390908
0.0560136100967601 -0.158467481643594 2.42144813815988
0.0924649776610686 -0.132854233553273 2.42023788159395
-0.306327523520509 -0.0951923768176817 2.42304581153775
-0.340162771667292 -0.104088681034753 2.38991308831549
-0.27296162518832 -0.125502592392084 2.41884210539682
-0.23837185759481 -0.113575669656467 2.43661579083023
-0.195657338300306 -0.122235058920464 2.43839599981066
-0.150544432401185 -0.122512018378472 2.44622191852961
-0.103351152275922 -0.125987440425052 2.45225144443275
-0.0547586808475966 -0.130249645593804 2.45800774329459
-0.00648216730449011 -0.133494679734874 2.45982151685972
0.0451247093247808 -0.127989957357805 2.45224285008234
0.0925765960032349 -0.0970033723096975 2.44433694895017
-0.34746122042534 -0.064682302546334 2.40656345882649
-0.269098582316182 -0.0757324417128974 2.44886605693787
-0.312554994783318 -0.0511727608530574 2.43774178183569
-0.219644176491097 -0.0764486320146258 2.45821906591571
-0.173626257485937 -0.0813524241466093 2.46345438206288
-0.126958554555709 -0.0824979166997849 2.47018249093734
-0.0811756046754684 -0.0872692030145074 2.47544114629459
-0.0345221306202612 -0.0919509296935143 2.48058300810556
0.012141763775405 -0.0938264154804904 2.47863732136486
0.0565154549661326 -0.0878165594275625 2.46848232902941
0.0383699144959202 -0.0487577384565117 2.48475919698351
-0.285608218299106 -0.0241326577596044 2.4555424927149
-0.243205466596898 -0.0333568859494266 2.46565720335748
-0.194185098803902 -0.0353957347829587 2.47200001676111
-0.148437776714718 -0.0366957859622115 2.4779571413695
-0.102161184402428 -0.0383162234816022 2.48392211607253
-0.0576198800013845 -0.0452117837685222 2.48904594711805
-0.0099270252259043 -0.0497768529849678 2.49214581976286
-0.256580217747548 -0.340294949465812 2.11391656631724
-0.280253424145492 -0.326506895211792 2.07830062275641
-0.256619264717654 -0.320109766477019 2.04074742325104
-0.206990903189927 -0.34700151376592 2.11471182161825
-0.228504831388872 -0.338226150335125 2.07352736924714
-0.160945692854415 -0.350101453452341 2.11419041669019
-0.180344019256168 -0.338964323703977 2.06809094479757
-0.115547864679087 -0.353379950005641 2.11686577821967
-0.13504110246999 -0.340880656589823 2.06890472421194
-0.0702466156467041 -0.357243950720435 2.12471087730012
-0.0874911087728412 -0.344813090979229 2.07519661845565
-0.025366573744152 -0.361300866601393 2.13524371563364
-0.0418085764089009 -0.349760234371263 2.08456908355701
0.0206791122032528 -0.360136632005412 2.1438780557033
0.00236852309556072 -0.354156987536089 2.09602156127934
0.0503025294400747 -0.347469444624895 2.1050814731208
-0.308060609879994 -0.319701118691903 2.12145974932876
-0.346353431417992 -0.289112490453226 2.10516451268933
-0.316812121712122 -0.305163930942121 2.07293179928984
0.0881944972919227 -0.331018323453943 2.1978044601118
0.063884848474907 -0.348607421809857 2.15316734283908
0.10366032204676 -0.327382403361202 2.15511842868779
-0.384016643517625 -0.230716167932233 2.17081731609758
-0.394181857950026 -0.218546765598262 2.12112334025163
-0.371648151896803 -0.261080270770365 2.13444041719373
0.109365276940651 -0.302640370512545 2.23125210974404
0.13003951929155 -0.301474637430543 2.18694564958756
0.147277017226116 -0.270111993424779 2.21405950768491
-0.386055345871035 -0.201861529845362 2.2020980016174
-0.401743531109772 -0.186001662514206 2.15565119231737
0.123435234537611 -0.266771134503469 2.25928382933712
0.15474448729661 -0.230658962710497 2.24444163404572
-0.389612236976224 -0.163050735184534 2.2356913555503
-0.402175979266814 -0.155910348406957 2.19187036443505
0.131491916310201 -0.226307715581707 2.28706909158129
0.161392462784099 -0.188688181561924 2.26843873265569
-0.38403371564301 -0.143782568411872 2.2733772964163
-0.404254826664026 -0.115536477354239 2.23093802197575
0.140362447910522 -0.185184979579399 2.31230020710978
0.166033606380518 -0.146671676197457 2.29444265763011
-0.376110178516208 -0.125548455907405 2.31218986130931
-0.399684284875014 -0.0975091701140956 2.27612516080335
0.11713081197809 -0.178028110917543 2.35144369571082
0.149915030012107 -0.140087580492092 2.33709728177097
-0.389643199688708 -0.0854385309659825 2.32409611143847
-0.407639171783671 -0.0512252983473249 2.29259439556237
0.12474650624068 -0.138035165051772 2.379746711873
0.155223572034703 -0.100061145755839 2.36260547270837
-0.374160786365148 -0.0776959094821622 2.36557303888298
-0.398131057842292 -0.0398292679231547 2.33990858846311
0.128389877548649 -0.100643115812221 2.40784520888225
0.15234792752068 -0.0628600156235417 2.39395782659941
-0.376768501872838 -0.0324553746712271 2.38278169030752
-0.344688492507144 -0.0210813055026668 2.42029291688899
-0.364205701708374 0.0123454675232359 2.40039877978605
0.0856016914951132 -0.049957395100227 2.46412164307236
0.109196823699487 -0.0107974971945132 2.44973882084332
0.122370648221379 -0.0584607261408699 2.43381690770848
-0.319077327621424 0.00645407987492779 2.43938063480664
-0.26659040201128 0.0169253464004776 2.4612807441065
-0.298317605335257 0.0452064261181183 2.44364523798268
-0.217077801200994 0.0080435674815769 2.47022255741461
-0.169821703028678 0.010682495942274 2.47546415136185
-0.123237783905583 0.0090436064213764 2.48099133529865
-0.0764405685005461 0.00733774437784225 2.48652967169355
-0.0335700238365524 -0.00361909532207945 2.4926133550353
-0.0078583650468376 0.0326057574957933 2.48650013349468
0.0170881671366832 -0.00762375116249943 2.49093527758804
0.0658362033103335 -0.00772652801657524 2.47613108898715
-0.264633345616961 0.0742930389069621 2.44571397254812
-0.233216376382659 0.0505393800670401 2.46057059130366
-0.18906923672943 0.0555667410655416 2.46329862682927
-0.142991018254387 0.0553114617734135 2.46779195217351
-0.0963365834090008 0.0530340359146875 2.47303784110826
-0.0479591522006821 0.05102750509371 2.47832836648376
0.00804854944730743 0.0694610222219885 2.47054735733383
-0.344267560436009 -0.273744579051528 2.05558873969086
-0.3278230459284 -0.261321460075808 2.01630688968956
-0.297486511738944 -0.297047032644852 2.031073888267
-0.248650213318861 -0.298660465598328 2.00426396445642
-0.206909343473048 -0.32188694406939 2.03100836458707
-0.156338764788523 -0.318052587748552 2.02429353159457
-0.106414041828714 -0.32341205506102 2.03261198202195
-0.054404180716655 -0.327729246049953 2.03933039590243
-0.00915620004629336 -0.333430659539418 2.04830661556756
0.0348924594557007 -0.336692940929524 2.06453339606183
0.0774448916543903 -0.318969347160407 2.06312959875336
0.089985591818043 -0.331140579029715 2.11152881045344
0.116804945897275 -0.305665287530399 2.09289946696534
-0.374034555501112 -0.250407343705084 2.08815007203735
-0.39131611643845 -0.204315990803109 2.07361999006116
-0.368032175157786 -0.23225151338144 2.04439580292595
0.133395664408876 -0.301548982449681 2.13738461613617
0.149573251872248 -0.273985949357302 2.10515213465222
0.159520188816396 -0.268938982274955 2.1601980666881
-0.405334880995079 -0.170029024421168 2.10895973186313
0.17961306236872 -0.226997454068027 2.15614602052872
-0.408149863075454 -0.137947316221323 2.14048257078774
0.171523908092108 -0.233293807558754 2.19887300058593
-0.409048912646593 -0.114339093102506 2.18245790789229
0.177431138975452 -0.190538407427776 2.2212142294897
-0.410836128810259 -0.0740079339532544 2.19662420472887
0.180280447335676 -0.149522553763347 2.24382353288557
-0.410786595045494 -0.0646159877634376 2.24356587055118
0.181156270173779 -0.111267549653767 2.26979873684882
-0.413590271793496 -0.0163182593226521 2.26035459424159
0.173375761069962 -0.0970577739846232 2.31476301126216
-0.409749095201224 -0.00365588543188417 2.31032765237132
0.173814573815941 -0.0570194991740873 2.34620846803369
-0.392937227608624 0.00629828079943154 2.35805522675645
-0.399019218980181 0.0426321165974315 2.32780331185573
0.142434522003185 -0.0174395635748212 2.41610924731537
0.166773358571356 -0.0227462424250857 2.37526300405986
-0.37530710476321 0.0499179368844322 2.37376725633515
-0.340602196324841 0.046771950588973 2.41519609854095
-0.34718222578947 0.0873315034657069 2.38601942697472
0.0420496966619725 0.0335356754622553 2.47741388107439
0.0885476459226711 0.0322322914863536 2.45588772011241
0.127468021480367 0.0287159771730226 2.42401511990318
-0.310482167852561 0.0845793017706196 2.41960352130904
-0.269741779330155 0.111046087910843 2.42195511384413
-0.217423842118834 0.0955539768993123 2.44222811165793
-0.168372091063204 0.0973080667718748 2.44479460422475
-0.121045869830821 0.0959521273085751 2.44908166685963
-0.0737209026386938 0.0925479563715651 2.45470047656416
-0.0277334356655575 0.0928553370665278 2.4576846024836
0.0260202140452624 0.103038620654367 2.44471110083076
0.0594666092387048 0.0712020083313551 2.45436744927923
-0.316204657454455 -0.23097039815575 1.97982893310489
-0.285138363753834 -0.270119359647487 1.99076323558951
-0.236620100302977 -0.268426532493757 1.97051565487129
-0.199618516144341 -0.296124444265649 1.99491876381724
-0.155841803181776 -0.284913950208168 1.9852506670976
-0.115696281448832 -0.292647699391352 1.99472891706061
-0.0687823818879877 -0.301473414343606 2.00566679791462
-0.0126277628849495 -0.302971117411903 2.00959881001314
0.0348081875453548 -0.312275714320245 2.02736779099537
0.0802797745262186 -0.28903549683607 2.0256466954925
0.11827578853902 -0.283703745963467 2.05770584204651
-0.379252407726031 -0.180404942225897 2.02868111035728
-0.351765975152122 -0.219069194245862 2.00903007346106
0.15135995937889 -0.247508435882501 2.06656439068503
0.171597850967043 -0.238065008722615 2.11445931256138
-0.39815514076521 -0.156812592057587 2.06750949041859
0.18856199685114 -0.189931666839607 2.12676871415515
-0.403121392061575 -0.114875516593048 2.09504177702074
0.187530350125228 -0.185450367585465 2.1763590665236
-0.406871305928137 -0.089395092239149 2.14170027847265
0.188588510141116 -0.142211354936255 2.19663658332183
-0.405615580353288 -0.0451257143299102 2.16001519310007
0.188645971050712 -0.102046966092604 2.22198420088364
-0.410429405916413 -0.0274417258710981 2.21032144909907
0.185841365799408 -0.0692280125926491 2.26573302957141
-0.408875047317786 0.0185510721203485 2.22726576694503
0.1829205517874 -0.0461204276536109 2.30416931158193
-0.410273646622831 0.0311035484081721 2.27814603291355
0.178420107100073 -0.00108214338006008 2.3377144393699
-0.394815487632005 0.0767093863121268 2.29533642908969
0.157307690812675 0.0207346790914177 2.38440625648763
-0.376069774081275 0.0855938955644346 2.34262546526954
-0.342860155970248 0.122700632551583 2.35344924187877
0.101827129361215 0.0706015656078455 2.42675509650939
0.137101969311855 0.0645273944835889 2.39082510087051
-0.309008015185142 0.121903248477543 2.39051617441848
-0.265190489943358 0.147736987003118 2.38837856676558
-0.229799473579646 0.130036035393005 2.41543120489645
-0.184859427472898 0.133395064871025 2.41456152513403
-0.140742876995104 0.133460988973201 2.41647114131351
-0.0940660607093675 0.129365604816677 2.422629014732
-0.0507698894538087 0.128856158219165 2.4250738322658
-0.00818226933907434 0.12667458723205 2.42858961866308
0.0693203984337593 0.107660644383455 2.42142845350341
-0.312394241020423 -0.197688891173992 1.94964920272799
-0.274304249559083 -0.236920376420418 1.95582361807152
-0.227331631026166 -0.235441682285436 1.93749277046928
-0.187965276195288 -0.260925259175045 1.9599865963831
-0.134030342533074 -0.252623894444923 1.95415653819556
-0.0882747291282819 -0.264789071761368 1.96828778785052
-0.0427451422667729 -0.276279377954054 1.98173886843234
0.000789491340452864 -0.265278900962342 1.97276283920782
0.0382312609598781 -0.281488670083173 1.99556226327544
0.0850900741762169 -0.256040732695247 1.99182612975849
0.121735376006725 -0.253511146829219 2.02454161835483
-0.373830925800719 -0.144203041174808 1.99696959916622
-0.349851395359059 -0.185920810315881 1.98282393524791
0.15769883048629 -0.215135121273102 2.03428988309336
0.177814870839239 -0.205244153179882 2.08031224565437
-0.39292569803594 -0.125442167390009 2.04051353920517
0.195253747085858 -0.157109202674702 2.09684946068953
-0.395979067141044 -0.0791777982963569 2.06030861774693
0.194445239739178 -0.143936066785461 2.14822663222236
-0.400284684224442 -0.0616362248050646 2.10635385178891
0.195296538365851 -0.0969254046546856 2.17157500973932
-0.399095153982966 -0.0151812673480104 2.12661129729588
0.19294727204682 -0.057890882466368 2.21562854375524
-0.403637329600408 0.00366602557558883 2.1754022381365
0.191322365663321 -0.0253868751115178 2.24964246743542
-0.402217943085185 0.0509126853088903 2.19430740867172
0.187809515717632 -0.00441671031218892 2.29122403315327
-0.403593456892868 0.064926743201446 2.24558388831053
0.184630087569964 0.0391580945748868 2.30492207245483
-0.38804622424841 0.110156564921502 2.26257371601039
0.166454953100107 0.0494227039946745 2.34942906712378
-0.369486056016382 0.119136445977931 2.3098061204528
-0.335315795049405 0.156793767205215 2.32083473675014
0.109104608634494 0.10591817128211 2.39224888319823
0.145085319613759 0.0967481487921548 2.35700002514637
-0.302188215746664 0.155759317763894 2.35741356205787
-0.253300439103111 0.18028036403286 2.35841148877128
-0.213319420968522 0.162555037576029 2.38432520697073
-0.162277031668624 0.168480385028309 2.38072596522733
-0.10968974872518 0.161798948260343 2.38971693338108
-0.0612970294026089 0.162825091066758 2.39086504509505
-0.0152456133791259 0.160411559895125 2.39532414394074
0.032319723942017 0.139783903277015 2.40926001341384
0.0737623025188088 0.143621398202119 2.387700801378
-0.306368593024511 -0.165148256460236 1.91810369806163
-0.268883962175239 -0.203436162885687 1.92357253099469
-0.220884991677764 -0.20383220018033 1.90636703609789
-0.176361075388146 -0.229747782253681 1.92953980112571
-0.128943442344489 -0.216005118798648 1.91801489905676
-0.0870899483150754 -0.230106090544093 1.93389459897093
-0.0426431193791277 -0.24333792347486 1.94902618807555
0.00389108105602964 -0.230090582533816 1.93795274634082
0.0468094406643148 -0.246660893076563 1.96179896646165
0.0925752819039894 -0.222111278771027 1.95890550779176
0.128318032940039 -0.221596406248724 1.9933275523368
-0.366848581915701 -0.110164140849928 1.96320440012128
-0.344016173530822 -0.154253929071083 1.9524132225229
0.16452443387327 -0.182501549646973 2.00273637201573
0.184889069617931 -0.1716653481285 2.04869195057414
-0.386061760727942 -0.0944101876389759 2.00778027646888
0.201852077348004 -0.124542971034167 2.06614155546162
-0.389188043836343 -0.0485260937291515 2.02517133767861
0.200882745888948 -0.110108293052317 2.1179885643636
-0.393459657438571 -0.0258439852944919 2.07424610803152
0.202705243340669 -0.0639151103508721 2.13296024526287
-0.393100806090447 0.0201791209559452 2.1009241609172
0.19869920840712 -0.0464970617059325 2.17650365154343
-0.397005247803324 0.0378478547251644 2.14381583275339
0.19859407313325 -0.00244595757285248 2.20566928740536
-0.395363562489056 0.0831809324161545 2.15969764075473
0.194819028965518 0.0234169360346418 2.25277398022655
-0.397134920383619 0.0971177310710025 2.21220540284248
0.192257893141671 0.0695621941676874 2.26964426048879
-0.381394279318964 0.142878632644946 2.23067055198928
0.172526004824481 0.0856466147337971 2.31641714497853
-0.362271382689042 0.152729220471361 2.27781495375614
-0.326501063678992 0.190377591513516 2.29056347358362
0.115049879438614 0.139996624689085 2.35958127195323
0.151020241434078 0.131371355112449 2.32440359790213
-0.291885774127585 0.189066772702654 2.32746615408677
-0.24325105831747 0.212891188704151 2.32753144770778
-0.202138176992257 0.194274040954851 2.35332225740464
-0.15708466476252 0.207336126364868 2.34236764675403
-0.120146262501272 0.191609101852052 2.35964129441049
-0.0724223874172721 0.1943154848714 2.3590904905258
-0.0220454614515479 0.194435579029632 2.36122723960726
0.0277865274104966 0.174399411024274 2.37816048760385
0.0755830477031528 0.176990336206562 2.35762902531756
-0.299632173607476 -0.132590129486714 1.88589910993488
-0.262781828793145 -0.170318914408329 1.89128407171779
-0.216448990620273 -0.171216140949325 1.87471475243845
-0.172523160413785 -0.197280078600901 1.89746561859263
-0.122594811857233 -0.181404698811592 1.88393363514746
-0.0807457485854582 -0.194727799242452 1.89904014841771
-0.0389992211667957 -0.209412266198388 1.91549491744383
0.00748121427108066 -0.195210797797003 1.90347111992599
0.050718490858522 -0.213640253372342 1.92841185761552
0.0962909052943811 -0.190274525692783 1.92564297634486
0.135038024187285 -0.189211658460173 1.96170673023634
-0.361326899995703 -0.0753128893873725 1.93212542244717
-0.337336739135097 -0.122235959455936 1.92058308030084
0.170991528319155 -0.150040703847818 1.9706270856887
0.191585361830002 -0.1386958773451 2.01649361364701
-0.379589143227772 -0.0594734854979437 1.97542326878576
0.20825859192408 -0.0925299792171685 2.0330970986207
-0.38173927818139 -0.0107140557275747 1.98932547796811
0.207853865697763 -0.0768776980659207 2.0830479120019
-0.386450913977505 -0.00180480474778505 2.03310187290995
0.209103932997364 -0.027534810350974 2.10467004725022
-0.387529904077162 0.030106039342886 2.06232137788155
0.204595786371676 -0.0105535874547629 2.15199452442589
-0.389560518301692 0.0711911191673481 2.10512977928465
0.20567772522347 0.0344639394836668 2.17219131025109
-0.388934643520104 0.114978086343036 2.12821858036468
0.201291402029487 0.0512636781698905 2.21841101390562
-0.390673870653897 0.12918693987917 2.18065791178839
0.199317282330069 0.10000623243058 2.23623033310013
-0.373881208305632 0.176349169781133 2.20149843546059
0.179988334545957 0.117445988837103 2.28285298548114
-0.354439642172673 0.186084488076171 2.24759787374341
-0.318920928762513 0.223265362949204 2.25945799222354
0.120301260713653 0.173356321688789 2.32812273289319
0.157844303127648 0.163906628790452 2.29200279163593
-0.283360002267274 0.221850383267083 2.29664968878742
-0.23655408635251 0.246146056857605 2.29480262621056
-0.194822673677007 0.229398619471515 2.3187648509008
-0.144086663691407 0.241570497206379 2.3089476489497
-0.104859548995509 0.224451941506981 2.32770651118603
-0.0565569402121416 0.226936891897655 2.32740124527432
-0.00847568810358108 0.227578291148309 2.32891721779198
0.0315367615774313 0.205637565324303 2.34795252758301
0.0831751880376901 0.207923025660676 2.32643517928543
-0.300376070196898 -0.0975588721255354 1.85906996211838
-0.255864217545661 -0.136410001055875 1.85786549360793
-0.207973925301136 -0.139557156483258 1.84314423542631
-0.166966020596601 -0.166348125758349 1.86699293298079
-0.116902611830375 -0.148324853867305 1.85138606272929
-0.0734435390349955 -0.159112540792324 1.8639947403988
-0.0337858750029069 -0.173350946519987 1.87991156878427
0.00990934890954934 -0.159889927836613 1.86851063639932
0.0539903078226931 -0.180927932676693 1.8952246667513
0.100879248440152 -0.157999433282013 1.89256227134855
0.137846335682049 -0.159574199872139 1.92856614086332
-0.355429704427003 -0.0398634063482148 1.90088606871376
-0.334090732820736 -0.0878604252418631 1.89196904454032
0.171977774665721 -0.123290340845957 1.93504000849188
0.197996697693388 -0.105797001215681 1.98311457088261
-0.372934962276963 -0.023315534927157 1.94214846156777
0.215705837575489 -0.0560158253292521 2.01107300238369
-0.374967622692489 0.0257322411214333 1.96171205902127
0.214171090004037 -0.0404113092810767 2.05547628557079
-0.380138820994869 0.0421792650579226 2.01039899865347
0.215746238865512 0.00750641534671355 2.07236614967798
-0.383478482316406 0.0713699169073087 2.05613034597525
0.211310241371534 0.0234663856122916 2.11963817147053
-0.382159460674485 0.115000110658967 2.07351653339806
0.212552037463715 0.0687924121801777 2.13830776423612
-0.383069294873848 0.151759588083394 2.1045687178496
0.208079936643039 0.0859347837598719 2.18587425959654
-0.38375799211431 0.162847981797747 2.15364975946392
0.205752430809973 0.132959306619522 2.20448273678892
-0.367059997541849 0.209307368879606 2.16991856704887
0.186861549596424 0.149258324381459 2.25053384562434
-0.347044175567223 0.21945113796679 2.21630380277518
-0.312327184734678 0.256022680206477 2.22721183530831
0.127547271715985 0.205958182496685 2.29540605808635
0.164648499096258 0.196500485355374 2.25952090270615
-0.277053397231463 0.254478377010432 2.26433991876029
-0.230515291339894 0.278962022517791 2.26225585333543
-0.187120669656943 0.262733658265051 2.28600138497138
-0.138333513184616 0.273661021059772 2.27730500349992
-0.0909334671579839 0.259061509637696 2.29395588959975
-0.0409237644993539 0.259432837608032 2.29582643084064
0.00558187947988893 0.259352187324033 2.29798897624077
0.0443617088628841 0.23634456459857 2.31624136892087
0.0907030942484944 0.240561364410979 2.29377892344215
-0.263012681878324 -0.099893486710508 1.83372740222213
-0.22149679390347 -0.104764644842596 1.82045191680308
-0.175042699432558 -0.102922330938721 1.81422743952646
-0.160589403875467 -0.135574358402762 1.83763906279412
-0.122987598371515 -0.10912150217827 1.82157553720322
-0.0764006453699105 -0.120954844018595 1.83230405843946
-0.0296868602354381 -0.132053131885502 1.84306401637774
0.018348443421557 -0.121987081763235 1.8400231708512
0.057444079459744 -0.148859633301377 1.86421314085117
0.102159190810186 -0.123239903109405 1.86286572153702
0.142410989192117 -0.125841607799897 1.89595029663968
-0.342620299673581 -0.00440080749666671 1.87378776438384
-0.326443282826 -0.0520745064421043 1.8618741192333
0.191435222676868 -0.0860201791259521 1.9359888963979
0.209325223776895 -0.0617127875561109 1.96819530421857
-0.362750779606003 0.0141926942528906 1.91224890330847
0.215259350253728 -0.0178888602752564 1.9766827468039
-0.359401795005832 0.0595534841968929 1.93109780335075
0.21811958634473 -0.00387344924066948 2.0213859597537
-0.369052022804358 0.0755136183884799 1.97520468576181
0.215053146299747 0.0406551471539069 2.03797778989927
-0.375910361135357 0.0952467377790699 2.020057923242
0.215315733780666 0.0583349369498676 2.08475422111827
-0.369428629807594 0.141461766911784 2.03260537159842
0.212622240192804 0.101928051956972 2.10463226481652
-0.372252369820198 0.170541491302913 2.06702125934924
0.212520312518453 0.119813219961798 2.15109499156806
-0.376088286047916 0.19481801834055 2.12043665179079
0.206988807746152 0.162585733373222 2.17112147561853
-0.357891084833901 0.236445006978994 2.13330933662619
0.191593042363953 0.181891633288262 2.21828482994969
-0.340448703401675 0.250668845843847 2.18212155883456
-0.304559957667845 0.283518990267683 2.19239902515587
0.13306223172519 0.238514666749462 2.26129191183885
0.164970203493077 0.228296419644753 2.22488392675636
-0.269233318920083 0.286337667678615 2.23138094597101
-0.220364049693907 0.308079613583223 2.22493407459176
-0.183326671499866 0.295071148450543 2.25089886283283
-0.141394253656481 0.302619810001457 2.23993465106921
-0.0974217410343971 0.293116442019351 2.25469767652802
-0.0528344414054637 0.288686356622762 2.26149875770521
-0.00277766522102378 0.287628591635408 2.2633674546449
0.0489024927902348 0.27023991612066 2.2813954068518
0.0943355775802246 0.269493259019812 2.25892667661087
-0.287935048540743 -0.0590931564840138 1.82987051133011
-0.242503464712165 -0.061873054010475 1.80778724849218
-0.194827373688985 -0.0643767154339635 1.7984263100122
-0.14302363386633 -0.0687579941905458 1.80180553046131
-0.0926084238926418 -0.0755239633849807 1.80896575770414
-0.0466118915050557 -0.0855498417037834 1.81695146776989
-0.00250954352474629 -0.0853765166422134 1.82105784208877
0.0446288201568416 -0.0755542966294098 1.82269614836124
0.0646499010063562 -0.109897785941519 1.84006781453022
0.0970576846954007 -0.0747576331635606 1.83735880731246
0.1332974519386 -0.0909715842264207 1.86501909362858
-0.307457363316928 -0.0165894323977579 1.83596986445803
-0.281784280559522 0.024093930302653 1.81997431735522
-0.264877068694565 -0.0199509682943764 1.80886901697518
0.143961929360054 -0.050277620629576 1.86025835081826
0.169648138951278 -0.0822549883264746 1.89718151265488
0.173499849878756 -0.0353264914689947 1.88761162223604
-0.339005054069542 0.0502973604955944 1.88270587441415
-0.319370289813181 0.0259656074642891 1.84997666886283
0.197500938366548 -0.0395493937941316 1.92570292353113
0.203212548841138 0.0033964975717378 1.94045199518251
-0.335428351106986 0.0893382117897338 1.90704049654285
0.209222343651324 0.0315506706352874 1.98232627084726
-0.34519295465961 0.111470955787202 1.9452826784184
0.204537615324228 0.0703100727540826 2.00784038329302
-0.357664326209758 0.124421266440938 1.98430440368305
0.207249763522983 0.0934285944164634 2.04889380708804
-0.346256009900361 0.164331602033976 1.99595550345242
0.202702855066898 0.132040039585903 2.0740971794104
-0.349898972657145 0.1946345192048 2.03090010617289
0.205211374211018 0.154966013826936 2.11494490269828
-0.363360857455164 0.212801123806021 2.08262263302481
0.19797837729999 0.192101027049161 2.13952790132884
-0.329110281895696 0.273714474726714 2.143316907462
-0.341082829251908 0.255715286967908 2.09562103909978
-0.30985424873441 0.288684456780247 2.10018428035434
0.188564844915183 0.209837815655676 2.18290918373229
0.17561910396183 0.233553216223654 2.13806585125054
0.162391742070585 0.248744010164614 2.1825676909523
-0.261102930268105 0.309369708403949 2.19333231150939
-0.294868726837042 0.301136584395035 2.15233003064455
-0.25279431994074 0.322410805630945 2.15023109493092
0.129771821006288 0.267434538849393 2.22074875669492
0.0978528163780849 0.297976842304668 2.18316494544339
0.0853571461651473 0.293075553271785 2.22228728981008
-0.213692890323585 0.325812588965425 2.18397750780755
-0.169832319445742 0.320762309577212 2.20412520577458
-0.116954813182889 0.318003589472219 2.20680596645101
-0.0725659215078211 0.31309255948464 2.21598451510099
-0.0288038076391763 0.309639228405022 2.22132535812455
0.0139252371354283 0.308333428584343 2.22092364494562
0.0468965513933034 0.29474248407604 2.2449837595023
-0.216010746540638 -0.0216576094266704 1.793078158316
-0.164764491428366 -0.0262684810858361 1.79058351675645
-0.114060117499189 -0.0305594738556312 1.79670844022535
-0.0662604770121197 -0.0356033835017352 1.80276567464287
-0.0214883520081923 -0.0393628645358789 1.80833236432226
0.0226212394003479 -0.0354210674678787 1.81307430080922
0.0712045726346327 -0.0341344122124412 1.82093626310244
-0.237539827400473 0.020293521081507 1.79951153273512
-0.209921510457516 0.057653381628636 1.80185548135604
-0.186138738388921 0.0173723650360202 1.79048102462182
-0.135391112545947 0.0136630328610112 1.79400982131714
-0.0877521561963044 0.012375040915766 1.8001898638466
-0.0405399179656249 0.00874341652128245 1.80605135875037
0.00423143650053882 0.0100632473148278 1.8122399453371
0.0511383439428542 0.00912903587685243 1.81855860153817
0.0992593897904315 0.0105682046287349 1.83328904015482
0.146183068086493 0.0025432100678419 1.86129324800766
0.114717372109036 -0.0298268485644539 1.83825827924719
-0.299448607387039 0.0654730572241129 1.84600855548404
-0.267070760526261 0.10369355247422 1.84659458150445
-0.256799958223696 0.0642368188180177 1.81852328735464
0.122599644165584 0.0450311681611881 1.85611209184087
0.180017486182414 0.00708828029425666 1.89879119093454
0.158596610563806 0.0469605833595519 1.88805614454427
-0.307033806899905 0.0979157654269586 1.87547505162483
-0.273352639640595 0.136288074417066 1.88110794296215
0.188777917822355 0.0446333075779021 1.93166777200302
0.16133112555716 0.0834192516309804 1.92048478960731
-0.311404471521852 0.132415642177142 1.91345827348639
-0.28014854012444 0.168403282772666 1.91752276925434
0.187967996144182 0.0765567312248278 1.96331456165907
0.159628634212605 0.117265585576262 1.95429827152926
-0.322363429501245 0.158776225307003 1.95241638816177
-0.284797179699181 0.198082822652 1.95007749313053
0.186791392915443 0.110834599143982 1.99872607146533
0.158815371832459 0.150143436709339 1.98840460647121
-0.318929109367648 0.198488803745075 1.98556736167719
-0.282606414848399 0.233379614363811 1.98257357440538
0.186295573303782 0.140704557344856 2.0309041732271
0.158358425975113 0.182353129582519 2.02234629307484
-0.315880696853085 0.234649524452353 2.0162343794825
-0.281748311240678 0.270647139643616 2.01968412598734
0.185457684822805 0.174440401654429 2.06659254712693
0.157357728915874 0.214737412780264 2.0556578821868
-0.339544034751467 0.23578199027689 2.0525545415232
-0.309936099566325 0.272469521548699 2.05575213503276
0.183949007515237 0.204731493695276 2.09822020309057
0.154311818263931 0.244602398098125 2.09088588475953
-0.276452090651621 0.312009588230599 2.11031942412422
-0.271327361320678 0.302313565218864 2.06254701122681
-0.23870563054683 0.324651194728048 2.0957877111928
0.132208873547127 0.27840065025178 2.17352982995338
0.145920449214377 0.26636467009902 2.13209716473035
0.106263003436581 0.294262003556955 2.131289498142
-0.214232584509423 0.33294236834944 2.13549528792107
-0.188542386541455 0.332618062775403 2.09976197532258
-0.173761063117044 0.333355812502718 2.15418967427415
-0.144673283169372 0.331406514161372 2.11338120530394
-0.131367658065214 0.329437329138204 2.16368108924946
-0.100609258647991 0.327898311181365 2.11883051506117
-0.0846152811759023 0.326078845443727 2.16673949234155
-0.055801590119569 0.32413551758476 2.12254073936658
-0.0403759667699555 0.322449420931985 2.17306249357556
-0.0122766132920087 0.320508486124051 2.12651527342019
0.00410658926828433 0.31930617334607 2.17531903338653
0.0318791088297535 0.317290612819835 2.13467370374126
0.0496952031408756 0.312609464030616 2.19064674360431
0.0695208545901542 0.310822275901384 2.14757801072067
-0.178866268164584 0.0909598853755329 1.81397378380668
-0.15664492750631 0.0558701558990393 1.80009217649285
-0.110926783747739 0.058151244498568 1.80769482123476
-0.0622481891441632 0.0538029909398663 1.813552117489
-0.017357106691249 0.0554936053096394 1.82107769874618
0.0280059139148066 0.0545690550596889 1.82776509482611
0.0739744413795257 0.0504415174707497 1.83528966027384
-0.223865890817756 0.100038407790547 1.82530471619692
-0.181076257091722 0.12710816247528 1.83957035859046
-0.135254414942376 0.101017196461638 1.825039358091
-0.0843854848217405 0.0938215614172955 1.82933164124691
-0.0400806407595766 0.0970806711668279 1.83925324687644
0.00442027764607925 0.0969661484213771 1.84715856094951
0.0495658678052933 0.0939540985284392 1.85317731419406
0.0928884340660742 0.0840918270599274 1.86074367243707
0.127483348259163 0.087363968141657 1.88581105837406
-0.228574960141373 0.135496130400073 1.85618894865381
-0.188533843382697 0.160585949598255 1.8729625740914
-0.142761759530035 0.143554840643275 1.86016327627674
-0.103687362728597 0.127071209495458 1.85155612292697
-0.060901714051684 0.132445879966911 1.86563279151791
-0.0172201141328259 0.13309190040291 1.87523190997353
0.0308474305919237 0.129248096547577 1.88116631357085
0.080607108085853 0.121306106513105 1.88761455053862
0.125288953773093 0.119911246202462 1.9166131020834
-0.235237138006234 0.167821517546951 1.89070048749087
-0.190028712796648 0.192742877746236 1.90534159611988
-0.144098235051232 0.177391496348966 1.89427050596248
-0.0976292024684157 0.160497440607839 1.88661735854244
-0.050689133827537 0.167367154179839 1.90320643074158
-0.00054337430861183 0.163278534215737 1.90931752712924
0.0472111524563888 0.158998004738603 1.91475616113478
0.089224883290131 0.151105782166011 1.9227251099547
0.124343285349232 0.154551821442328 1.95206226179535
-0.238534707194466 0.19913744033618 1.92299297333987
-0.192370228750017 0.223340896658439 1.9362092450535
-0.143511333420925 0.211502833073491 1.92905031253673
-0.10108796616519 0.193301103073581 1.91923989436545
-0.063205249544181 0.202135343334575 1.93597116106655
-0.0185500785481669 0.196093796966294 1.93897376873267
0.0294141511097975 0.192362433368441 1.94500089873116
0.0783941598132282 0.185915695192153 1.95299787436563
0.123495406484463 0.185654698336797 1.98389600941197
-0.241573773105603 0.229589313349914 1.95435020519064
-0.198528815198014 0.253625640856598 1.96709788904793
-0.148602942008121 0.24370598150502 1.9607281063534
-0.0994754572795476 0.231325630362452 1.95820658323622
-0.047956726408736 0.231497733857076 1.9689274000357
0.00016108056796188 0.226712010007539 1.97391524014834
0.0465259416290053 0.223156945102863 1.97985445620045
0.0879402893335838 0.215975747776205 1.98896408155828
0.122906143802871 0.219737228545635 2.01910632463429
-0.246017904839461 0.262376173935426 1.98865614338038
-0.208024130391424 0.284446757799394 1.99977143739787
-0.16109095730948 0.277462860959417 1.99253711231609
-0.114569354320618 0.267186295210696 1.99155387798041
-0.0699625700017566 0.262643318487262 1.99606868032613
-0.0210221245189932 0.260376597339963 2.00378463925481
0.0277426565863914 0.256659925328263 2.00999023083832
0.0767655084036338 0.250906755030054 2.01905905210817
0.121517692806742 0.250264441101477 2.05075583778066
-0.241592694151849 0.297056776837412 2.02781454888578
-0.1849802728546 0.306789251647831 2.02831124791678
-0.136295159727535 0.30026059854421 2.02683865922422
-0.0917025890533704 0.295363860519306 2.03028297387086
-0.0468746198535293 0.291161867307391 2.03487521324453
-0.000538729245491365 0.288092861218873 2.04154968200156
0.0444971301947268 0.285099057635765 2.04817620760603
0.0851100133020116 0.278324486343091 2.05825738469576
0.116891067978263 0.27747350522493 2.09161333600586
-0.216559723271841 0.319137994514587 2.05904454617707
-0.162388674577927 0.322425040675804 2.0647809943757
-0.11665856193849 0.318891317551567 2.07074556727455
-0.0716315313453754 0.3147890724235 2.07486350096464
-0.0259127541424022 0.310643119730937 2.07913223676531
0.0211902582680696 0.307430147115982 2.08644037482055
0.0680575897996151 0.302218092019532 2.09663435725058
3 0 1 2
3 0 2 4
3 3 0 4
3 3 4 6
3 5 3 6
3 5 6 8
3 7 5 8
3 7 8 10
3 9 7 10
3 9 10 12
3 11 9 12
3 13 11 14
3 14 11 12
3 13 14 15
3 16 17 18
3 16 18 1
3 0 19 1
3 19 16 1
3 0 3 20
3 19 0 20
3 3 5 21
3 20 3 21
3 5 7 22
3 21 5 22
3 7 9 23
3 22 7 23
3 9 11 24
3 23 9 24
3 24 11 25
3 25 11 13
3 13 15 26
3 27 13 26
3 25 13 27
3 27 26 28
3 17 16 30
3 30 16 29
3 29 19 31
3 29 16 19
3 31 20 32
3 31 19 20
3 32 21 33
3 32 20 21
3 21 22 33
3 33 22 34
3 22 23 34
3 34 23 35
3 23 24 35
3 35 24 36
3 24 25 36
3 36 25 37
3 37 27 38
3 37 25 27
3 38 28 39
3 38 27 28
3 30 40 41
3 30 29 40
3 29 31 42
3 40 29 42
3 31 32 43
3 42 31 43
3 32 33 44
3 43 32 44
3 33 34 45
3 44 33 45
3 34 35 46
3 45 34 46
3 35 36 47
3 46 35 47
3 36 37 47
3 47 37 48
3 37 38 48
3 48 38 49
3 49 39 50
3 49 38 39
3 40 51 52
3 41 40 52
3 51 42 53
3 51 40 42
3 42 43 53
3 53 43 54
3 43 44 54
3 54 44 55
3 44 45 55
3 55 45 56
3 45 46 56
3 56 46 57
3 46 47 58
3 57 46 58
3 47 48 59
3 58 47 59
3 48 49 60
3 59 48 60
3 49 50 61
3 60 49 61
3 51 62 63
3 52 51 63
3 51 53 64
3 62 51 64
3 53 54 65
3 64 53 65
3 54 55 66
3 65 54 66
3 55 56 67
3 66 55 67
3 56 57 67
3 67 57 68
3 57 58 69
3 68 57 69
3 58 59 69
3 69 59 70
3 59 60 70
3 70 60 71
3 71 61 72
3 71 60 61
3 62 73 74
3 63 62 74
3 62 64 75
3 73 62 75
3 64 65 75
3 75 65 76
3 65 66 76
3 76 66 77
3 66 67 77
3 77 67 78
3 67 68 78
3 78 68 79
3 79 69 80
3 79 68 69
3 80 70 81
3 80 69 70
3 81 71 82
3 81 70 71
3 82 72 83
3 82 71 72
3 74 73 85
3 85 73 84
3 84 73 86
3 86 73 75
3 75 76 86
3 86 76 87
3 76 77 88
3 87 76 88
3 77 78 89
3 88 77 89
3 78 79 90
3 89 78 90
3 79 80 91
3 90 79 91
3 80 81 92
3 91 80 92
3 81 82 93
3 92 81 93
3 93 83 94
3 93 82 83
3 84 95 85
3 84 86 96
3 97 84 96
3 95 84 97
3 96 87 98
3 96 86 87
3 87 88 98
3 98 88 99
3 88 89 99
3 99 89 100
3 89 90 100
3 100 90 101
3 101 91 102
3 101 90 91
3 102 92 103
3 102 91 92
3 92 93 103
3 105 103 104
3 103 93 104
3 93 94 104
3 96 106 97
3 96 98 107
3 106 96 107
3 98 99 108
3 107 98 108
3 99 100 109
3 108 99 109
3 100 101 110
3 109 100 110
3 101 102 111
3 110 101 111
3 111 102 112
3 112 102 103
3 103 105 112
3 117 114 115
3 116 113 117
3 117 113 114
3 116 117 119
3 118 116 119
3 118 119 121
3 120 118 121
3 120 121 123
3 122 120 123
3 122 123 125
3 124 122 125
3 124 125 127
3 126 124 127
3 126 127 128
3 129 130 131
3 114 129 131
3 114 113 129
3 113 2 129
3 129 2 1
3 4 113 116
3 4 2 113
3 6 116 118
3 6 4 116
3 8 118 120
3 8 6 118
3 10 120 122
3 10 8 120
3 12 122 124
3 12 10 122
3 14 124 126
3 14 12 124
3 133 126 128
3 15 14 126
3 15 126 133
3 132 15 133
3 132 133 134
3 135 136 137
3 137 17 135
3 137 18 17
3 18 137 130
3 129 18 130
3 18 129 1
3 15 132 26
3 139 132 134
3 139 138 132
3 138 28 26
3 132 138 26
3 138 139 140
3 136 135 142
3 142 135 141
3 17 30 135
3 135 30 141
3 143 39 28
3 138 143 28
3 143 140 144
3 143 138 140
3 141 145 146
3 142 141 146
3 41 145 141
3 30 41 141
3 147 39 143
3 147 50 39
3 147 144 148
3 147 143 144
3 145 149 150
3 146 145 150
3 52 149 145
3 41 52 145
3 151 50 147
3 151 155 50
3 151 148 152
3 151 147 148
3 149 153 154
3 150 149 154
3 63 153 149
3 52 63 149
3 155 61 50
3 155 72 61
3 155 151 156
3 156 151 152
3 154 157 158
3 154 153 157
3 74 157 153
3 63 74 153
3 159 72 155
3 159 83 72
3 159 156 160
3 159 155 156
3 158 157 162
3 162 157 161
3 74 85 161
3 157 74 161
3 163 83 159
3 163 94 83
3 163 160 164
3 163 159 160
3 161 165 162
3 165 95 166
3 165 161 95
3 161 85 95
3 165 166 167
3 95 97 166
3 105 104 168
3 170 94 163
3 170 168 94
3 169 168 170
3 94 168 104
3 163 164 170
3 166 171 167
3 173 171 172
3 172 171 106
3 171 97 106
3 171 166 97
3 172 107 174
3 172 106 107
3 174 108 175
3 174 107 108
3 175 109 176
3 175 108 109
3 176 110 177
3 176 109 110
3 177 111 178
3 177 110 111
3 178 112 180
3 178 111 112
3 181 105 168
3 181 180 105
3 179 178 180
3 180 112 105
3 168 169 181
3 172 182 173
3 182 172 183
3 183 172 174
3 174 175 184
3 183 174 184
3 175 176 185
3 184 175 185
3 176 177 186
3 185 176 186
3 177 178 187
3 186 177 187
3 187 179 188
3 187 178 179
3 179 180 229
3 189 190 191
3 114 131 191
3 115 114 191
3 115 191 192
3 115 192 193
3 117 115 193
3 119 193 194
3 119 117 193
3 119 194 121
3 121 194 195
3 121 195 123
3 123 195 196
3 123 196 125
3 125 196 197
3 127 197 198
3 127 125 197
3 128 198 199
3 200 128 199
3 128 127 198
3 200 199 201
3 202 203 204
3 131 130 189
3 190 189 204
3 189 130 202
3 189 202 204
3 131 189 191
3 128 200 133
3 134 200 205
3 206 205 201
3 134 133 200
3 205 200 201
3 205 206 207
3 136 208 203
3 202 137 136
3 202 136 203
3 137 202 130
3 134 205 139
3 139 205 207
3 140 139 207
3 211 207 209
3 136 142 208
3 208 142 210
3 211 140 207
3 211 144 140
3 146 212 210
3 142 146 210
3 148 144 213
3 213 144 211
3 150 214 212
3 146 150 212
3 215 148 213
3 215 152 148
3 154 216 150
3 150 216 214
3 219 152 217
3 217 152 215
3 158 218 216
3 154 158 216
3 219 156 152
3 219 160 156
3 158 220 218
3 158 162 220
3 221 160 219
3 221 164 160
3 162 165 222
3 223 220 222
3 220 162 222
3 165 167 222
3 169 170 224
3 225 164 221
3 224 170 164
3 224 164 225
3 222 226 223
3 167 171 227
3 226 167 227
3 226 227 228
3 226 222 167
3 171 173 227
3 180 181 229
3 181 169 230
3 231 169 224
3 230 169 231
3 230 229 181
3 224 225 271
3 227 232 228
3 232 182 233
3 232 173 182
3 227 173 232
3 182 183 234
3 233 182 234
3 183 184 234
3 234 184 235
3 184 185 235
3 235 185 236
3 185 186 236
3 236 186 237
3 186 187 237
3 237 187 238
3 238 188 239
3 238 187 188
3 188 179 229
3 240 239 188
3 240 188 229
3 229 230 240
3 191 190 242
3 242 190 241
3 192 242 243
3 192 191 242
3 192 243 244
3 193 192 244
3 194 244 245
3 194 193 244
3 194 245 246
3 195 194 246
3 195 246 247
3 196 195 247
3 196 247 248
3 197 196 248
3 197 248 249
3 198 197 249
3 199 198 249
3 250 199 249
3 201 199 251
3 251 199 250
3 204 252 253
3 204 203 252
3 190 253 241
3 190 204 253
3 206 251 254
3 206 201 251
3 207 206 255
3 255 206 254
3 203 256 252
3 203 208 256
3 257 209 255
3 255 209 207
3 210 258 208
3 208 258 256
3 211 209 259
3 259 209 257
3 212 260 210
3 210 260 258
3 213 211 259
3 261 213 259
3 214 262 260
3 212 214 260
3 215 213 261
3 263 215 261
3 216 264 214
3 214 264 262
3 217 215 263
3 265 217 263
3 218 266 264
3 216 218 264
3 219 217 265
3 267 219 265
3 218 268 266
3 218 220 268
3 221 219 267
3 269 221 267
3 223 270 268
3 220 223 268
3 225 221 269
3 271 225 269
3 223 226 272
3 270 223 272
3 272 228 273
3 272 226 228
3 274 231 275
3 274 230 231
3 275 231 271
3 271 231 224
3 273 228 276
3 276 228 232
3 276 233 277
3 276 232 233
3 233 234 278
3 277 233 278
3 234 235 279
3 278 234 279
3 235 236 280
3 279 235 280
3 236 237 281
3 280 236 281
3 237 238 282
3 281 237 282
3 238 239 283
3 282 238 283
3 327 239 284
3 284 239 240
3 240 230 274
3 284 240 274
3 241 285 286
3 242 241 286
3 242 286 243
3 243 286 287
3 243 287 288
3 244 243 288
3 245 288 289
3 245 244 288
3 245 289 246
3 246 289 290
3 246 290 247
3 247 290 291
3 247 291 248
3 248 291 292
3 248 292 293
3 249 248 293
3 249 293 250
3 250 293 294
3 250 294 295
3 251 250 295
3 252 296 297
3 253 252 297
3 241 297 285
3 241 253 297
3 254 295 298
3 254 251 295
3 254 298 299
3 255 254 299
3 256 300 252
3 252 300 296
3 257 255 299
3 301 257 299
3 258 302 300
3 256 258 300
3 259 257 303
3 303 257 301
3 260 304 258
3 258 304 302
3 261 259 303
3 305 261 303
3 262 306 304
3 260 262 304
3 263 261 305
3 307 263 305
3 264 308 262
3 262 308 306
3 265 263 307
3 309 265 307
3 266 310 308
3 264 266 308
3 267 265 309
3 311 267 309
3 266 312 310
3 266 268 312
3 269 267 311
3 313 269 311
3 270 314 312
3 268 270 312
3 271 269 315
3 315 269 313
3 270 272 316
3 314 270 316
3 316 273 317
3 316 272 273
3 318 275 319
3 318 274 275
3 275 271 315
3 319 275 315
3 273 276 320
3 317 273 320
3 276 277 320
3 320 277 321
3 277 278 322
3 321 277 322
3 322 279 323
3 322 278 279
3 279 280 323
3 323 280 324
3 280 281 324
3 324 281 325
3 281 282 325
3 325 282 326
3 282 283 326
3 326 283 327
3 283 239 327
3 327 284 328
3 284 274 318
3 328 284 318
3 285 329 330
3 286 285 330
3 286 330 287
3 287 330 331
3 287 331 332
3 288 287 332
3 288 332 289
3 289 332 333
3 289 333 334
3 290 289 334
3 290 334 335
3 291 290 335
3 291 335 292
3 292 335 336
3 292 336 337
3 293 292 337
3 293 337 294
3 294 337 338
3 294 338 339
3 295 294 339
3 296 340 341
3 297 296 341
3 285 341 329
3 285 297 341
3 298 339 342
3 298 295 339
3 298 342 343
3 299 298 343
3 300 344 296
3 296 344 340
3 301 299 343
3 345 301 343
3 302 346 344
3 300 302 344
3 303 301 347
3 347 301 345
3 304 348 302
3 302 348 346
3 305 303 347
3 349 305 347
3 306 350 348
3 304 306 348
3 307 305 351
3 351 305 349
3 308 352 306
3 306 352 350
3 309 307 353
3 353 307 351
3 310 354 352
3 308 310 352
3 311 309 355
3 355 309 353
3 312 356 310
3 310 356 354
3 313 311 355
3 357 313 355
3 314 358 356
3 312 314 356
3 315 313 359
3 359 313 357
3 314 316 360
3 358 314 360
3 360 317 361
3 360 316 317
3 362 319 363
3 362 318 319
3 319 315 359
3 363 319 359
3 317 320 364
3 361 317 364
3 320 321 364
3 364 321 365
3 321 322 366
3 365 321 366
3 322 323 366
3 366 323 367
3 323 324 368
3 367 323 368
3 324 325 369
3 368 324 369
3 325 326 370
3 369 325 370
3 326 327 371
3 370 326 371
3 327 328 371
3 371 328 372
3 328 318 362
3 372 328 362
3 329 373 374
3 330 329 374
3 330 374 331
3 331 374 375
3 331 375 376
3 332 331 376
3 332 376 333
3 333 376 377
3 333 377 378
3 334 333 378
3 334 378 379
3 335 334 379
3 335 379 336
3 336 379 380
3 336 380 381
3 337 336 381
3 337 381 338
3 338 381 382
3 338 382 383
3 339 338 383
3 340 384 385
3 341 340 385
3 329 385 373
3 329 341 385
3 342 383 386
3 342 339 383
3 342 386 387
3 343 342 387
3 344 388 340
3 340 388 384
3 345 343 387
3 389 345 387
3 346 390 388
3 344 346 388
3 347 345 391
3 391 345 389
3 348 392 346
3 346 392 390
3 349 347 391
3 393 349 391
3 350 394 348
3 348 394 392
3 351 349 395
3 395 349 393
3 352 396 350
3 350 396 394
3 353 351 395
3 397 353 395
3 354 398 396
3 352 354 396
3 355 353 399
3 399 353 397
3 356 400 354
3 354 400 398
3 357 355 399
3 401 357 399
3 358 402 400
3 356 358 400
3 359 357 403
3 403 357 401
3 358 360 404
3 402 358 404
3 404 361 405
3 404 360 361
3 406 363 407
3 406 362 363
3 363 359 403
3 407 363 403
3 361 364 408
3 405 361 408
3 364 365 408
3 408 365 409
3 365 366 410
3 409 365 410
3 366 367 410
3 410 367 411
3 367 368 412
3 411 367 412
3 368 369 412
3 412 369 413
3 369 370 413
3 413 370 414
3 370 371 415
3 414 370 415
3 371 372 415
3 415 372 416
3 372 362 406
3 416 372 406
3 373 417 418
3 374 373 418
3 374 418 375
3 375 418 419
3 375 419 420
3 376 375 420
3 376 420 377
3 377 420 421
3 377 421 422
3 378 377 422
3 378 422 423
3 379 378 423
3 380 423 424
3 380 379 423
3 380 424 425
3 381 380 425
3 382 425 426
3 382 381 425
3 382 426 427
3 383 382 427
3 384 428 429
3 385 384 429
3 373 429 417
3 373 385 429
3 386 427 430
3 386 383 427
3 386 430 431
3 387 386 431
3 384 432 428
3 384 388 432
3 389 387 431
3 433 389 431
3 390 434 432
3 388 390 432
3 435 389 433
3 435 391 389
3 390 436 434
3 390 392 436
3 393 391 435
3 437 393 435
3 394 438 436
3 392 394 436
3 395 393 439
3 439 393 437
3 396 440 438
3 394 396 438
3 397 395 439
3 441 397 439
3 398 442 440
3 396 398 440
3 399 397 443
3 443 397 441
3 400 444 398
3 398 444 442
3 401 399 443
3 445 401 443
3 402 446 444
3 400 402 444
3 403 401 447
3 447 401 445
3 402 404 448
3 446 402 448
3 448 405 449
3 448 404 405
3 450 407 451
3 450 406 407
3 407 403 447
3 451 407 447
3 405 408 452
3 449 405 452
3 408 409 452
3 452 409 453
3 409 410 454
3 453 409 454
3 410 411 454
3 454 411 455
3 411 412 456
3 455 411 456
3 412 413 456
3 456 413 457
3 457 414 458
3 457 413 414
3 414 415 459
3 458 414 459
3 415 416 459
3 459 416 460
3 416 406 450
3 460 416 450
3 418 461 462
3 418 417 461
3 419 462 463
3 419 418 462
3 419 463 464
3 420 419 464
3 420 464 421
3 421 464 465
3 421 465 466
3 422 421 466
3 422 466 467
3 423 422 467
3 424 467 468
3 424 423 467
3 424 468 469
3 425 424 469
3 426 469 470
3 426 425 469
3 427 426 471
3 471 426 470
3 429 428 473
3 473 428 472
3 417 473 505
3 417 429 473
3 430 427 471
3 520 430 471
3 431 474 475
3 431 430 474
3 428 476 472
3 428 432 476
3 433 431 475
3 477 433 475
3 434 478 476
3 432 434 476
3 479 433 477
3 479 435 433
3 434 480 478
3 434 436 480
3 437 435 479
3 481 437 479
3 438 482 436
3 436 482 480
3 439 437 483
3 483 437 481
3 440 484 482
3 438 440 482
3 441 439 483
3 485 441 483
3 442 486 440
3 440 486 484
3 443 441 487
3 487 441 485
3 444 488 442
3 442 488 486
3 445 443 487
3 489 445 487
3 444 446 488
3 488 446 490
3 491 445 489
3 491 447 445
3 490 446 492
3 492 446 448
3 492 449 493
3 492 448 449
3 494 451 495
3 494 450 451
3 451 447 491
3 495 451 491
3 449 452 496
3 493 449 496
3 496 453 497
3 496 452 453
3 453 454 498
3 497 453 498
3 498 455 499
3 498 454 455
3 455 456 500
3 499 455 500
3 456 457 501
3 500 456 501
3 457 458 502
3 501 457 502
3 458 459 503
3 502 458 503
3 503 460 504
3 503 459 460
3 504 460 494
3 494 460 450
3 461 505 506
3 462 461 506
3 507 463 462
3 507 462 506
3 465 463 508
3 508 463 507
3 464 463 465
3 465 508 509
3 465 509 466
3 466 509 510
3 466 510 467
3 467 510 511
3 467 511 468
3 468 511 512
3 468 512 513
3 469 468 513
3 469 513 470
3 515 470 514
3 470 513 514
3 470 515 471
3 472 516 473
3 518 516 517
3 518 505 516
3 461 417 505
3 505 473 516
3 505 518 506
3 515 514 519
3 474 430 520
3 521 520 519
3 520 471 515
3 520 515 519
3 474 520 524
3 476 522 472
3 516 472 523
3 472 522 523
3 516 523 517
3 520 521 524
3 477 475 524
3 524 475 474
3 525 477 524
3 478 526 522
3 476 478 522
3 527 477 525
3 527 479 477
3 478 528 526
3 478 480 528
3 481 479 527
3 529 481 527
3 482 530 480
3 480 530 528
3 483 481 531
3 531 481 529
3 484 532 530
3 482 484 530
3 485 483 531
3 533 485 531
3 486 534 484
3 484 534 532
3 535 485 533
3 535 487 485
3 486 536 534
3 486 488 536
3 537 489 535
3 535 489 487
3 490 538 539
3 536 490 539
3 488 490 536
3 538 540 539
3 541 542 543
3 541 489 537
3 542 541 537
3 541 491 489
3 490 492 538
3 545 493 544
3 538 492 493
3 538 493 545
3 540 538 545
3 544 546 545
3 547 548 549
3 543 495 541
3 547 494 495
3 547 495 543
3 608 547 543
3 495 491 541
3 493 496 544
3 544 497 550
3 546 544 550
3 544 496 497
3 550 497 551
3 551 497 498
3 498 499 551
3 551 499 552
3 499 500 552
3 552 500 553
3 500 501 553
3 553 501 554
3 554 502 555
3 554 501 502
3 502 503 556
3 555 502 556
3 503 504 556
3 549 504 547
3 556 504 549
3 504 494 547
3 506 557 507
3 507 557 558
3 508 507 558
3 508 558 559
3 509 508 559
3 509 559 560
3 510 509 560
3 510 560 561
3 511 510 561
3 511 561 562
3 512 511 562
3 514 512 563
3 563 512 562
3 513 512 514
3 517 564 518
3 518 564 557
3 566 564 565
3 557 564 566
3 557 506 518
3 558 566 567
3 558 557 566
3 559 567 568
3 559 558 567
3 560 568 569
3 560 559 568
3 561 569 570
3 561 560 569
3 562 570 571
3 562 561 570
3 563 562 571
3 572 563 571
3 574 514 563
3 572 574 563
3 573 519 574
3 574 519 514
3 519 573 521
3 522 575 523
3 577 575 576
3 577 517 575
3 564 517 577
3 575 517 523
3 564 577 565
3 573 574 572
3 521 573 579
3 580 573 578
3 579 573 580
3 579 524 521
3 524 579 525
3 522 581 575
3 522 526 581
3 576 581 582
3 576 575 581
3 583 580 584
3 583 579 580
3 583 525 579
3 583 527 525
3 526 585 581
3 526 528 585
3 582 585 586
3 582 581 585
3 587 584 588
3 587 583 584
3 587 527 583
3 587 529 527
3 528 589 585
3 528 530 589
3 586 589 590
3 586 585 589
3 591 588 592
3 591 587 588
3 591 529 587
3 591 531 529
3 532 593 589
3 530 532 589
3 590 593 594
3 590 589 593
3 595 592 596
3 595 591 592
3 595 531 591
3 595 533 531
3 534 597 593
3 532 534 593
3 594 597 598
3 594 593 597
3 599 596 600
3 599 595 596
3 599 533 595
3 599 535 533
3 534 601 597
3 534 536 601
3 602 597 601
3 602 598 597
3 603 599 600
3 604 603 600
3 603 535 599
3 603 537 535
3 536 539 601
3 606 540 605
3 606 602 540
3 602 601 539
3 540 602 539
3 605 607 606
3 608 609 610
3 608 543 609
3 604 542 603
3 609 543 542
3 609 542 604
3 542 537 603
3 540 545 605
3 605 546 607
3 612 607 611
3 605 545 546
3 607 546 611
3 612 613 614
3 612 611 613
3 614 615 616
3 614 613 615
3 616 617 618
3 616 615 617
3 618 619 620
3 618 617 619
3 620 621 622
3 620 619 621
3 622 623 624
3 622 621 623
3 610 548 608
3 624 623 548
3 624 548 610
3 548 623 549
3 548 547 608
3 546 550 611
3 611 550 613
3 613 550 551
3 551 552 615
3 613 551 615
3 552 553 617
3 615 552 617
3 553 554 619
3 617 553 619
3 554 555 621
3 619 554 621
3 621 555 623
3 623 555 556
3 556 549 623
3 565 625 626
3 567 566 626
3 626 566 565
3 567 626 627
3 568 567 627
3 568 627 628
3 569 568 628
3 569 628 629
3 570 569 629
3 570 629 630
3 571 570 630
3 572 571 631
3 631 571 630
3 572 631 578
3 576 632 577
3 625 632 633
3 565 577 632
3 565 632 625
3 625 633 634
3 626 625 634
3 626 634 627
3 627 634 635
3 627 635 628
3 628 635 636
3 628 636 629
3 629 636 637
3 629 637 630
3 630 637 638
3 631 638 639
3 631 630 638
3 640 578 639
3 578 573 572
3 578 631 639
3 578 640 580
3 576 641 632
3 576 582 641
3 633 641 642
3 633 632 641
3 633 642 643
3 634 633 643
3 634 643 644
3 635 634 644
3 635 644 645
3 636 635 645
3 636 645 646
3 637 636 646
3 637 646 647
3 638 637 647
3 638 647 648
3 639 638 648
3 640 648 649
3 640 639 648
3 584 580 640
3 649 584 640
3 582 650 641
3 582 586 650
3 642 650 651
3 642 641 650
3 642 651 652
3 643 642 652
3 643 652 653
3 644 643 653
3 644 653 645
3 645 653 654
3 645 654 646
3 646 654 655
3 646 655 647
3 647 655 656
3 647 656 648
3 648 656 657
3 648 657 649
3 649 657 658
3 588 584 649
3 658 588 649
3 586 659 650
3 586 590 659
3 650 659 651
3 651 659 660
3 651 660 661
3 652 651 661
3 652 661 662
3 653 652 662
3 653 662 654
3 654 662 663
3 654 663 664
3 655 654 664
3 655 664 665
3 656 655 665
3 656 665 666
3 657 656 666
3 657 666 658
3 658 666 667
3 592 588 658
3 667 592 658
3 590 668 659
3 590 594 668
3 660 668 669
3 660 659 668
3 660 669 670
3 661 660 670
3 661 670 671
3 662 661 671
3 662 671 663
3 663 671 672
3 663 672 664
3 664 672 673
3 664 673 665
3 665 673 674
3 665 674 666
3 666 674 675
3 666 675 667
3 667 675 676
3 596 592 667
3 676 596 667
3 594 677 668
3 594 598 677
3 668 677 669
3 669 677 678
3 669 678 679
3 670 669 679
3 670 679 680
3 671 670 680
3 671 680 681
3 672 671 681
3 672 681 682
3 673 672 682
3 673 682 683
3 674 673 683
3 674 683 684
3 675 674 684
3 676 684 685
3 676 675 684
3 600 596 676
3 685 600 676
3 598 686 677
3 598 602 606
3 678 686 687
3 678 677 686
3 678 687 679
3 679 687 688
3 679 688 680
3 680 688 689
3 680 689 681
3 681 689 690
3 681 690 682
3 682 690 691
3 683 691 692
3 683 682 691
3 684 692 693
3 684 683 692
3 685 693 694
3 685 684 693
3 694 604 685
3 685 604 600
3 598 606 686
3 606 607 695
3 686 606 695
3 686 695 687
3 688 687 696
3 696 687 695
3 688 696 697
3 689 688 697
3 689 697 698
3 690 689 698
3 690 698 699
3 691 690 699
3 691 699 700
3 692 691 700
3 692 700 701
3 693 692 701
3 610 609 694
3 701 610 694
3 701 694 693
3 609 604 694
3 607 612 695
3 695 612 696
3 696 612 614
3 614 616 697
3 696 614 697
3 616 618 698
3 697 616 698
3 618 620 699
3 698 618 699
3 620 622 700
3 699 620 700
3 622 624 701
3 700 622 701
3 624 610 701
