OFF
702 1400 0
-0.261425564527642 -0.325394797434628 2.19392139024068
-0.306767841083963 -0.311690112667633 2.17591494400253
-0.278659348700476 -0.331437981172236 2.14866978682823
-0.214578053223418 -0.332079013140059 2.19876233715259
-0.232756377269252 -0.342247673235413 2.15408609297573
-0.167784912319548 -0.336829303457748 2.20202461201045
-0.186378865332833 -0.346582094885796 2.15632335816878
-0.122423152209059 -0.340914921796122 2.20648038348928
-0.141064811800025 -0.350707441611434 2.15825858214008
-0.0775467792260956 -0.344800688915742 2.21128997388619
-0.0963215631597976 -0.354395388035188 2.16298606966458
-0.0300664210958274 -0.347897126691973 2.2190008010091
-0.0505565252900256 -0.357696699210783 2.17156286751111
0.0180363136811755 -0.343502727175434 2.22737434750162
-0.00325846507402176 -0.359305895351324 2.1806494743357
0.0432699854475707 -0.350453634478081 2.18940296846614
-0.329343777729072 -0.282808545321825 2.2038554582649
-0.358970637537119 -0.265614851621418 2.17620941809906
-0.337822326227873 -0.295928585607184 2.14805760164599
-0.288982753436462 -0.298707937866647 2.22377603136802
-0.242335222339022 -0.307733505679219 2.23592637334568
-0.194658358064217 -0.313112332313954 2.23987604699742
-0.147908605599146 -0.317096720213405 2.24534345063363
-0.102709075232647 -0.320523952877145 2.25125243607249
-0.0584302770268217 -0.325967247315688 2.25393316808131
-0.00979627472110951 -0.326804292981415 2.26126985965732
0.064031637382645 -0.327396393947403 2.2329576943066
0.0354151233117466 -0.314700974128595 2.2689737230168
0.0815724998566763 -0.294677332097956 2.26654803913006
-0.316410124158744 -0.261618561251214 2.24524299031756
-0.356429570051492 -0.241305689451471 2.21699197952706
-0.270512892227416 -0.275027817882157 2.26298839489585
-0.220600660716673 -0.281422541277658 2.27119042649254
-0.173022695999566 -0.285812353557686 2.27652579400789
-0.125419308508661 -0.288282853123755 2.28380966078899
-0.0807326764661815 -0.291053629170332 2.29018903119678
-0.0385140494084272 -0.300508502573463 2.28929758109217
0.00283140628414774 -0.292249676506344 2.2999267598265
0.0485247557649873 -0.278934033203261 2.3012820437993
0.0934121233117686 -0.256800180410885 2.29460862149245
-0.334589245189475 -0.224133698502909 2.26552085786547
-0.367628667386301 -0.202806845543637 2.23878793515295
-0.293703837434518 -0.238955444182464 2.28688747841533
-0.24474531153063 -0.249579645998006 2.29827404010448
-0.196000262560204 -0.251776207860994 2.30624949795045
-0.148570687904151 -0.256594694250489 2.31112132161928
-0.0970899892318446 -0.257451582281702 2.3208342295316
-0.0422681544416487 -0.266944881311966 2.32249332198184
0.00817656948188446 -0.259670128960996 2.33181221464731
0.0587003043087076 -0.244280068249195 2.33041498616351
0.103540395039268 -0.218369459538152 2.32232738896173
-0.318675866119075 -0.199649362032441 2.30785794360791
-0.359038497348491 -0.181988491544344 2.27654340513389
-0.269519085450171 -0.216831034701911 2.32299560447571
-0.222135399287888 -0.219122950916157 2.33392534952036
-0.176608138275166 -0.220176985110444 2.34221557741812
-0.132687663224744 -0.228099490042483 2.34322448472165
-0.0991697829289843 -0.216060252722876 2.36229683230241
-0.0643692399958853 -0.235527866858318 2.34974725456309
-0.0220608694099131 -0.232026022144638 2.36062179896557
0.0258596928483628 -0.225596557963601 2.36197081052795
0.0739705650759807 -0.206948243026969 2.35768336484059
-0.321796420146208 -0.158750296205324 2.34766034357365
-0.349784955824608 -0.161202454266866 2.31277588565297
-0.288973338680034 -0.185191794908069 2.3453387095763
-0.241935574651961 -0.187515353935972 2.36183806552383
-0.197204155423409 -0.186288950568783 2.37228017501284
-0.1483154603376 -0.191325803413214 2.37722982967052
-0.102890912242681 -0.185502655854148 2.39245918713818
-0.0555094174892504 -0.199021069174602 2.38851542405859
-0.00749369438754813 -0.198898295735667 2.39398080590282
0.0403030104443848 -0.191736580320507 2.39053213985327
0.0878443024593921 -0.169759711150715 2.38331137299388
-0.311177766491527 -0.133994404439401 2.38273283693292
-0.355194370039753 -0.121485121169888 2.34738548090504
-0.272573661208889 -0.158561716687919 2.38123153809164
-0.226619447057172 -0.152254995159234 2.40067794038763
-0.176603889536359 -0.156831217920119 2.40632639328423
-0.130818350032416 -0.156621073331635 2.41594969965911
-0.0793093165503951 -0.160711332684069 2.42239587877373
-0.0343886387916943 -0.167332555744039 2.42456704940017
0.0119930863252344 -0.164547697025095 2.42584914849665
0.0559635598413048 -0.157484098268375 2.41685518344353
0.0924353840342121 -0.131901655384453 2.41561017254699
-0.306328743513611 -0.0939237463705699 2.41818076196515
-0.340157327234996 -0.102858053514679 2.3850514596293
-0.272984771345558 -0.12426805758212 2.41404968678395
-0.238393005702403 -0.11233357121762 2.4318144042572
-0.195685986118691 -0.121022758970717 2.43362901701696
-0.150576523437309 -0.12131965605011 2.44147402930002
-0.103388444875604 -0.124820120074096 2.44752972275916
-0.0548016770628819 -0.12910898645361 2.45331429428101
-0.00652845678941391 -0.132388098789516 2.45515424202965
0.0450858009574641 -0.126938319175778 2.44758613966509
0.0925650765221189 -0.0960041316576476 2.43963958635886
-0.347431871206857 -0.0634137214388832 2.40162223315065
-0.269095230903368 -0.074442684548757 2.44397847463503
-0.312527911211404 -0.0498708189555761 2.43278861728426
-0.219645238834284 -0.0751792263881483 2.45335321471069
-0.173633309109059 -0.0801086849698119 2.45861699121171
-0.126969277067355 -0.0812774577075705 2.46536652326203
-0.0811922226139622 -0.0860741823585731 2.47065328476541
-0.0345445265790883 -0.0907822526973257 2.47582343730894
0.0121186851143 -0.0926978685517691 2.47390060753066
0.056501210810512 -0.0867423275450085 2.46375222573149
0.0383794614838554 -0.0476378275872887 2.47994570742625
-0.285567358832563 -0.0228171785787107 2.4505478516086
-0.243175965517442 -0.032054765985894 2.46069791863781
-0.19415980818215 -0.0341194745710118 2.46706486009666
-0.148415960945011 -0.0354435867099336 2.47304333080319
-0.102143096762053 -0.0370884815600605 2.47903049191991
-0.0576092886168991 -0.0440087702097783 2.48418604534269
-0.00992128378957767 -0.0486049609520098 2.48731441396714
-0.256645813298405 -0.339665220656569 2.10954879657275
-0.280293650428844 -0.325927961019199 2.0738963902906
-0.256639109340279 -0.319622229795194 2.03634056543453
-0.207062074247825 -0.346408857430828 2.11037749363493
-0.228552259281092 -0.337696780238448 2.06916721718317
-0.161019085415078 -0.34954567492953 2.10988106707707
-0.180389811812586 -0.338483035350501 2.06375206319255
-0.115624928858853 -0.352854332778556 2.11258148107997
-0.135088740821328 -0.34043307590201 2.0645882132344
-0.070329928325867 -0.356738372712352 2.12045272021427
-0.0875444128333889 -0.344390319344474 2.07090730925459
-0.0254573875518789 -0.36080977657963 2.13101189471024
-0.0418696002353521 -0.349354828725169 2.08030817271191
0.0205856471603214 -0.359664638563307 2.1396629107439
0.0022993562118916 -0.35376373451215 2.09178735565858
0.0502348433775151 -0.347095944428875 2.10085398913521
-0.308113219176393 -0.319016671798525 2.11703076237376
-0.346375488089274 -0.288429942656764 2.10066036610345
-0.316833487598396 -0.30456699493803 2.0684710622174
0.0881015964975002 -0.330494204695256 2.19356043000082
0.0637965477703946 -0.348151062545475 2.14894756613589
0.103587757942641 -0.326953286376626 2.15087378536627
-0.384020072212989 -0.229876833675103 2.16618408196065
-0.394155410962464 -0.217796101457383 2.11646237653417
-0.371660345127113 -0.260321191244464 2.12987133848743
0.109280780170678 -0.302067813338592 2.22696159530048
0.129974095425178 -0.30100428295542 2.18266146833789
0.147224924251265 -0.269602450339269 2.20972143670742
-0.38604910103312 -0.200959887638931 2.1974078070265
-0.401705862240167 -0.1851780861325 2.15092381825922
0.123367207887805 -0.266155147389322 2.25492936390268
0.154710697820025 -0.230096286698928 2.24002992681333
-0.389589502257879 -0.162081130252215 2.23092422790094
-0.402129698539042 -0.155016121935913 2.18708427875954
0.131444045954684 -0.225644102865593 2.28263927455642
0.16138155933606 -0.188084146755728 2.26394817286163
-0.384011413374524 -0.142744122362306 2.2685749561844
-0.404193082898748 -0.114564805679801 2.2260725641044
0.140336295256392 -0.184479339813878 2.30779409761786
0.166044802318861 -0.146020819721761 2.28987232636212
-0.376089578084776 -0.124440804160244 2.30735528059558
-0.399627017387109 -0.0964532934171683 2.27122647139164
0.117094195305112 -0.177228326764678 2.34691404108171
0.149913872439453 -0.139341297142045 2.33250743935989
-0.389596197640719 -0.0842972886582118 2.31917800973521
-0.407552561574074 -0.0501313237103397 2.28760247752317
0.124729466784953 -0.137186404644066 2.37514243714518
0.155243164959733 -0.0992695195943916 2.35794000089829
-0.374124763602774 -0.0764861499702676 2.36064618622282
-0.398054969594647 -0.0386507871627445 2.33489835067477
0.128390472433211 -0.099742676229521 2.40316973232436
0.152383673893259 -0.0620053085226283 2.38921883388547
-0.376704255371346 -0.0312102438429567 2.3777658357685
-0.344630773270962 -0.0197883016909356 2.41526809641279
-0.364113747766202 0.0136149457227281 2.39530102181385
0.0856187488792625 -0.0489143792107594 2.45932996809129
0.109250309603114 -0.00980089678551354 2.44488080640887
0.122393489212084 -0.0575052229276357 2.42905694906963
-0.319005973580559 0.00776416123290998 2.4343128231805
-0.266519884466813 0.0182370700711991 2.45621415190751
-0.29821778755057 0.0465085364763355 2.43851067472375
-0.217017896693967 0.00933411315860497 2.46519358539463
-0.169761908692019 0.0119464062381361 2.47044949519469
-0.123181552651936 0.0102819693132367 2.47599902876988
-0.0763879572150685 0.00855041551522368 2.48155993270138
-0.0335284690068118 -0.00242797691235474 2.4876825391098
-0.00778606309529409 0.0337648870204482 2.4815095353654
0.0171272675304059 -0.00647534990024603 2.48603309897178
0.0658812764152357 -0.00664487029741328 2.47124920657185
-0.264511706282155 0.0755728637157039 2.4405367612594
-0.233119366741984 0.0518236501710137 2.45545243285686
-0.188969442531302 0.0568219083725304 2.45818886906881
-0.142893283912833 0.0565394636716039 2.46270164980319
-0.0962427947679881 0.0542358902757914 2.46797115852382
-0.0478691169796576 0.0522019557619435 2.47328548657393
0.00815612954281524 0.0705766801594673 2.46549173546094
-0.344257300313349 -0.273160022881462 2.05105569235589
-0.327786993017985 -0.260826072561495 2.01175655331824
-0.297484387602643 -0.2965465060345 2.02660541948851
-0.248638370557611 -0.298250076875271 1.99981878682917
-0.206926598944229 -0.321457054330279 2.02662544201544
-0.156350295661591 -0.317675151231307 2.01992399036579
-0.106433183370647 -0.323057336604151 2.0282733886163
-0.0544294646828029 -0.327401981464968 2.03502158686983
-0.00918962930866106 -0.33312119071614 2.04402749220255
0.034849813769054 -0.336386249987067 2.06027871155255
0.0774166268866415 -0.318698573236694 2.05885800004534
0.0899279800525927 -0.33078550151922 2.10728592531218
0.116774831172707 -0.305367358946692 2.08861816481186
-0.374019439053186 -0.249736377334196 2.08355936660831
-0.391259089734563 -0.203659896333801 2.06893265180271
-0.367984956916746 -0.231670283865107 2.0397723810748
0.133350508206946 -0.301177546725008 2.13310205863203
0.149562804146652 -0.273689809565577 2.10082275011686
0.159491096570267 -0.268543640414453 2.15586286292215
-0.405265604504592 -0.169293413522337 2.10419993943823
0.179618332185636 -0.22662573115094 2.15173761099538
-0.408068495447413 -0.13714832914617 2.13565922823838
0.171506746830597 -0.232832744250478 2.19447340957701
-0.408966349627201 -0.113457893158299 2.17758824581066
0.177438155050302 -0.190038627564769 2.21673395987617
-0.410727923139911 -0.0730979028815507 2.19167542259028
0.180310175406564 -0.148981150356669 2.2392647049677
-0.410690317755539 -0.0636148013609134 2.23859876932071
0.181205177478372 -0.110676438777396 2.26516589544459
-0.413463214317289 -0.0152823716207489 2.25529247169825
0.173417311208235 -0.0963732607138664 2.31009927119404
-0.409632660439549 -0.00252591300124514 2.30524241173303
0.173874450467572 -0.0562743123906811 2.34146705921092
-0.392832611621151 0.00750787579729926 2.35295747346458
-0.398873858303723 0.0437875862574301 2.3226325242404
0.142496608033034 -0.0165341895454946 2.41127788601023
0.166848049421682 -0.0219391881008167 2.37045205243745
-0.375174923105496 0.0511442323440118 2.36859198418965
-0.34048947313674 0.0480517184262104 2.41004114321771
-0.347025903307893 0.0885596140552467 2.38078302035713
0.0421264310655795 0.0346382662486921 2.47244203905361
0.0886321745689337 0.0332568325144732 2.45093759386109
0.127562865049596 0.029648271947483 2.41908790982288
-0.310341780081354 0.0858440860682541 2.4143875032404
-0.269581731822098 0.112283644969634 2.41670444173842
-0.217284211150261 0.096790203101412 2.43702903493619
-0.168232163835266 0.0985110625195792 2.43961230690606
-0.12090877669349 0.0971265870065752 2.44392147747399
-0.0735887871001053 0.0936964732639854 2.4495663713255
-0.0276023221773124 0.0939738254224137 2.45256882510282
0.026164569013497 0.104090000603922 2.43959769260128
0.0595821630982913 0.0722461653847153 2.44932964333666
-0.316129978825411 -0.230555010425233 1.97522448460791
-0.285098711959751 -0.26970684132423 1.98624761369943
-0.236570842861901 -0.26809115994897 1.96601675678442
-0.199600881871657 -0.295770418244282 1.99048886167144
-0.155811478167215 -0.284612839445473 1.98081702484705
-0.115675890562386 -0.292359429357099 1.99032680751313
-0.0687733779753498 -0.301200419262009 2.00130112592132
-0.0126215614235556 -0.302734225731968 2.00525915632119
0.0347998266707991 -0.312041229422777 2.02306570667503
0.0802902256941837 -0.288839831765322 2.02131818144377
0.118277234177993 -0.283475397707718 2.0533825473301
-0.379158307538818 -0.179845621161188 2.02395237179853
-0.351693978150758 -0.218569386540164 2.00438780645354
0.151385985722347 -0.24728872765706 2.06218437656152
0.171611590272389 -0.23776802066808 2.11006918806805
-0.398058559884441 -0.156163147347701 2.06272705808153
0.188608217620416 -0.189624081188645 2.12229203406204
-0.403003396849793 -0.114168795586127 2.09017576959066
0.187559727051133 -0.185045626766737 2.17187315757323
-0.406752574939964 -0.0885948414338976 2.13678313134466
0.188643289839472 -0.141768131056025 2.19206706412182
-0.405469838201545 -0.0442909502563493 2.15501251910146
0.188721676725706 -0.101554620875321 2.21733662295142
-0.410290503688061 -0.0265054979568593 2.20528233736023
0.185924723182992 -0.0686485440178967 2.26102044933754
-0.408707227902418 0.0195189136073281 2.22213790566737
0.183006166432999 -0.0454640469607878 2.29941055917987
-0.410116905673156 0.0321713197399597 2.27299310828852
0.178527088258416 -0.00035717224475498 2.33286626666093
-0.394630237588587 0.0777984184996243 2.29010122979306
0.157412543775782 0.0215667790173212 2.37950691440888
-0.375896997869203 0.0867601939602276 2.33738062841667
-0.342662894347132 0.123862009914816 2.34814596264075
0.101953523444484 0.0715590682612241 2.42173594945643
0.137238349096059 0.065387612425649 2.38583234675966
-0.308826591159046 0.123110281592424 2.3852283066348
-0.264988059855948 0.14890567385795 2.38305855041465
-0.229621956617037 0.131229756948917 2.41016009391534
-0.1846789517376 0.134552078688128 2.40930238961429
-0.140563150183934 0.134587344387974 2.41123003470818
-0.0938920713770177 0.130467571360786 2.41741506730333
-0.0505973169353058 0.129929146711043 2.41987869282852
-0.0080128566066788 0.127721234380109 2.4234162420732
0.0694778901997232 0.108633039693885 2.41632393610075
-0.312281231496482 -0.197335188490298 1.94498172215787
-0.274224381734033 -0.236584263917202 1.95124802515817
-0.227243110073279 -0.235177786467586 1.93293367733134
-0.18790586941457 -0.260648267018766 1.95549317435257
-0.133962091760166 -0.252400267047705 1.94966920209562
-0.0882217788750771 -0.264573604456832 1.96384289418688
-0.0427066871852749 -0.276073217803197 1.9773350143447
0.000840189632384983 -0.265124122230387 1.96835555202421
0.0382599526362541 -0.281318722168643 1.99120183694264
0.085140125486452 -0.25591460567418 1.98743555951376
0.121773967861557 -0.253350002844352 2.02016115423962
-0.373695589640578 -0.143709643127771 1.99217282094059
-0.349742800270119 -0.185473489148145 1.97811810653719
0.157763337643595 -0.214983136350004 2.02984964633574
0.177868208029832 -0.205018433136214 2.07586098256513
-0.392793582956236 -0.124849322481845 2.03567236556404
0.195337832816646 -0.15686503961801 2.09231182596262
-0.395818990511859 -0.0785442113247551 2.05537626453993
0.194518526993809 -0.143591469394185 2.14366297024863
-0.400129811163697 -0.0609098493865769 2.10138555513803
0.195396910299504 -0.0965362041818452 2.16692031864789
-0.39891236202512 -0.0144165572605275 2.12155319649435
0.193060017730659 -0.0574143349007662 2.21089696143785
-0.403459848981545 0.00452904084781199 2.17030555431116
0.191446509658669 -0.0248430388804681 2.24484699952707
-0.402011371630536 0.0518112267786298 2.18911947984432
0.187932960339431 -0.00378938430979289 2.28638629579458
-0.40339698660637 0.065925963229347 2.24036806525958
0.184781896980232 0.0398144193043712 2.29999834101504
-0.387821455876602 0.111176587502636 2.25727638588475
0.166596520303202 0.0501796491171257 2.34447782370137
-0.369273663801597 0.120233769063395 2.30449889121132
-0.335078572438117 0.157885817697852 2.31546839048302
0.109272693793782 0.106802876432665 2.38716418599298
0.145260696549285 0.0975363496576139 2.35194802481381
-0.30196681513362 0.156896640532494 2.35206279051559
-0.253060344102523 0.181381486248089 2.35303320000027
-0.213103792766935 0.163675405625508 2.37899776266467
-0.162055326227264 0.169553981758644 2.37540802791193
-0.109476961745825 0.162849062364586 2.38443360697236
-0.0610839318608751 0.1638397336085 2.38559964386749
-0.0150362447513014 0.161398996130919 2.39008238024434
0.0325072720450983 0.140761408450141 2.4040778786402
0.0739616694794518 0.144524716505894 2.38252831354408
-0.306217271074123 -0.164860616870656 1.91337553940644
-0.268764756454693 -0.203167014988704 1.91893417897948
-0.220759056782491 -0.203633877713774 1.90174924641696
-0.176264872024766 -0.229539061213442 1.92499064365538
-0.128831813399406 -0.215855763061874 1.91345858437967
-0.0869958451064193 -0.229958453224977 1.92938287786955
-0.0425655582887449 -0.243195480499358 1.94455844099704
0.00398349663369194 -0.23000593828648 1.93347843982183
0.046879137000907 -0.246563311306943 1.95737447365901
0.0926652921301523 -0.222055027008333 1.95445216477404
0.128394312967551 -0.221501113889611 1.98888785478104
-0.366672854898475 -0.109741867682324 1.95834443114696
-0.343870412758356 -0.153870315665371 1.94764833265012
0.164627328906769 -0.182416266783104 1.99823560593355
0.184981559116055 -0.171506655654269 2.04417842420371
-0.385892022919965 -0.093886363573827 2.00288170322358
0.201974151711864 -0.124363689696947 2.06154342701452
-0.388989655024057 -0.0479661413199211 2.02018229840119
0.200994812949455 -0.109827541892762 2.11336189058305
-0.393263705912208 -0.0251853953627458 2.06921114617105
0.202847192810067 -0.0636067880720079 2.12824454690151
-0.392879905467887 0.0208891698182739 2.0957998793037
0.198836883960118 -0.0461010455145676 2.17175237798329
-0.396788158338524 0.0386442513895772 2.13865553201014
0.198754139847004 -0.00199328292513008 2.2008323294407
-0.395117634574353 0.0840068114557232 2.15444991023781
0.194979946731992 0.0239640262351695 2.24788512826805
-0.396899658731512 0.098046989781002 2.20692976282428
0.192447878954017 0.0701439599096824 2.26466466877384
-0.381130910583633 0.143831408834587 2.2253124498089
0.172709358262624 0.0863346038560475 2.31139808909076
-0.362019675218079 0.1537586858627 2.27244549265157
-0.326225238813055 0.191403879832593 2.28513556812085
0.115257936538625 0.140813145576612 2.35443287807469
0.151235985942669 0.132091516904377 2.31928683813583
-0.291626120188972 0.190137804203151 2.32205497206968
-0.24297287064801 0.213924406082359 2.32209399955869
-0.201885101635323 0.195325385516462 2.34793785255218
-0.156816927551756 0.208331057037925 2.33697643261455
-0.119897888903914 0.192608855407985 2.35429580691695
-0.0721716958756347 0.195276983004001 2.35375939181764
-0.0217955721761157 0.195361982859104 2.35591664123191
0.0280138272078995 0.175319941007556 2.37290929615763
0.0758207702374996 0.177833729092761 2.35239251627805
-0.299442255549016 -0.132370387450061 1.8811105331019
-0.262623556290419 -0.170117334123975 1.88658395430821
-0.216284640067621 -0.171082850817685 1.87003548396166
-0.172388483817993 -0.197136743443601 1.89285502518284
-0.122442224279135 -0.181326589651565 1.8793127785395
-0.0806097630072686 -0.194652909167299 1.894462373818
-0.0388814521789084 -0.209337892486956 1.91096282488193
0.00761497161876087 -0.195196029698912 1.89893059396195
0.0508276300883515 -0.213610665322378 1.92392488648736
0.0964193841447793 -0.190285872294552 1.92112937521618
0.135152525694485 -0.189183116133204 1.95720694343438
-0.361111249771007 -0.0749553852334453 1.92720007788284
-0.337152957047427 -0.121919470422397 1.91575879748526
0.171132904613837 -0.150022923321261 1.96606597937241
0.191716765672981 -0.138605039917181 2.01191885339868
-0.379378891772263 -0.0590176548570615 1.97045954791154
0.208419181865742 -0.0924199692138735 2.02843947694788
-0.381496702863062 -0.010229642858219 1.9842661135013
0.208006175365558 -0.0766703453475941 2.07835961556649
-0.386219343416465 -0.00123167689197575 2.0280231734308
0.209285853967971 -0.0272865246623071 2.09988635814863
-0.387285431611669 0.0307367156142463 2.05718017940755
0.204771542196624 -0.0102098685550599 2.14717589464907
-0.389301562411058 0.0719064703183739 2.09990783933881
0.205880303890928 0.0348459621505798 2.16728562482951
-0.388651010387895 0.115737718861111 2.12291178209326
0.201488127085579 0.0517388928031717 2.21347079272871
-0.390400663569554 0.130049793469333 2.17532268882223
0.199544711458211 0.100517503720848 2.23119456584961
-0.373579775960597 0.177239333903847 2.19607845618039
0.180210249713667 0.118062874704585 2.2777752870451
-0.354149532527303 0.187049062877854 2.24216689272992
-0.318606701831176 0.224225231422623 2.25396937329281
0.120548233615563 0.174107549865307 2.32291175073288
0.158098706365065 0.164558443521517 2.28682569455707
-0.283062146396794 0.222854820053738 2.29117838437416
-0.236236544199534 0.247110387225662 2.28930339103222
-0.194528036014183 0.230377037852704 2.31331528472503
-0.143778527102462 0.242490286860919 2.30349533998567
-0.10457247123467 0.225377660064871 2.32230357159927
-0.056267818120021 0.227824381772073 2.3220133624318
-0.00818670624342752 0.228431267758502 2.32354787867805
0.031800810369555 0.206496406769074 2.34264224922281
0.083449824210601 0.208699821927281 2.32114176027749
-0.300147829145495 -0.0973907602700951 1.85421307234349
-0.255665797693609 -0.136278821401242 1.85310241066067
-0.207771940566263 -0.139491884330575 1.83840701011909
-0.166794725923209 -0.166268400535631 1.86232459189521
-0.116710880207409 -0.148314496374701 1.84670334515572
-0.0732654083419074 -0.159111515874468 1.85935084666019
-0.0336253915991324 -0.173349856915116 1.87531163163596
0.0100849888554205 -0.159945062090604 1.86390255664142
0.0541385677573049 -0.180965452765536 1.89067555359373
0.101046462839206 -0.158078705784284 1.88798791939216
0.137997541040088 -0.159612307299215 1.92400999505676
-0.355173598835166 -0.0395712766962206 1.89589434119785
-0.333868408599101 -0.0876021415769274 1.88707936871824
0.172154607428538 -0.123342538152689 1.93042740705793
0.198167445193118 -0.105776090968237 1.9784785989344
-0.372682868431989 -0.0229296252517514 1.93711729694324
0.215903933020026 -0.0559544931357626 2.00634754920141
-0.374685302124246 0.0261576417780027 1.95658472779217
0.214363143626012 -0.0402625335868053 2.05071979618708
-0.379863640708012 0.0427032641086023 2.00523748896977
0.215968733147556 0.00768667838733079 2.06751717962461
-0.383199292741454 0.0719853164236624 2.05091065897942
0.211525795573557 0.0237419259657743 2.11475627466155
-0.381853377518274 0.115648170881254 2.06821258924246
0.212795281391007 0.0691031635295403 2.13333828123896
-0.382747280343163 0.152468615478937 2.09919292067014
0.208317041820679 0.0863414101623354 2.18086953720151
-0.383447460151458 0.163652893043231 2.14825203917629
0.206018576730915 0.13340380219771 2.19938565912647
-0.366719913349098 0.210130782437636 2.1644374259933
0.187121526198403 0.149806985169208 2.24539723449153
-0.346715212984958 0.220349069281831 2.21081110226887
-0.311974189253011 0.256914681067263 2.22166235255689
0.127833084660885 0.20664012096893 2.29013478356636
0.164941640011092 0.19708381081812 2.25428334648049
-0.27671684746143 0.25541504655342 2.25880788370287
-0.23015881138988 0.279858333336098 2.25669541253857
-0.186786601170888 0.263642339172777 2.28049028980269
-0.137987375239581 0.274514772136537 2.27179277895453
-0.0906055621809818 0.259910720884978 2.28849150894582
-0.040596356539781 0.260246722805657 2.29038191177204
0.00590831954607748 0.26013404469982 2.29256375383641
0.0446627054289633 0.237131728095457 2.31087677419551
0.0910165740219536 0.241268768686268 2.28842525712843
-0.262775881983494 -0.0998037219096452 1.82889047896432
-0.221258364077733 -0.104733008450114 1.81564157372099
-0.174800298012562 -0.102938983630414 1.80943265244346
-0.160382073673569 -0.135556707158509 1.83291361649427
-0.122753065307482 -0.109164416294407 1.81681420823404
-0.076179758773684 -0.121013178605695 1.82758487614274
-0.0294790598203502 -0.132126926276593 1.83838560482083
0.0185653223361889 -0.122104228837258 1.83534498264174
0.0576300654642011 -0.148960174234946 1.85960320749721
0.102365691546285 -0.123377953645763 1.85822442333341
0.142601876076324 -0.125946722573761 1.8913305576692
-0.342325429578073 -0.00417139065687985 1.86873246570769
-0.326180710923843 -0.0518807377576672 1.85691812506624
0.191640723718782 -0.0860857725682004 1.93131189340919
0.209536464785866 -0.0617297896920991 1.96347837718965
-0.36245717605512 0.014512488563141 1.90714911806153
0.215501283862968 -0.0178940890778431 1.97188310360012
-0.359080548978588 0.0599071962455508 1.92591123145567
0.218354114154104 -0.00379407215713945 2.0165601763239
-0.368736416556038 0.0759605195592059 1.96998304657502
0.215315595806423 0.0407690559087871 2.03306420014328
-0.375597759509875 0.0957860950640422 2.01479503433245
0.21557278584014 0.0585394958198033 2.07980629846648
-0.369085136271124 0.142020354862983 2.02725533843765
0.212905136466351 0.102173239597059 2.09959850036013
-0.371900312783668 0.171169090447441 2.06161349908444
0.212798100312437 0.120148731668246 2.14602634576632
-0.375739203325748 0.195552346545988 2.11498004206259
0.207291740031254 0.162964375036898 2.16596741372624
-0.357514826108689 0.237190080970574 2.12777931848893
0.191891692704167 0.182373871963686 2.21308682932504
-0.340081378862829 0.251495149474413 2.17657099022937
-0.304171244183674 0.284337233463274 2.18679938793348
0.13338742315675 0.239125948698309 2.2559597232795
0.16530234623142 0.228812120112991 2.21958479731325
-0.268858409044693 0.287204131098145 2.22579029803312
-0.219969559288858 0.308895430629371 2.21932131579493
-0.18295298926873 0.295908593468581 2.24532657260013
-0.141010204046983 0.303403266039578 2.23436497837776
-0.0970511745657809 0.293894348885799 2.24916453957508
-0.0524701364251715 0.289442753032712 2.25599256876851
-0.00241497099329319 0.288349624871077 2.25788392315348
0.0492442124789064 0.270955757065503 2.27596689732113
0.0946859126715136 0.27013004701758 2.2535183647294
-0.287664839108782 -0.0589915598674512 1.82494406836008
-0.242226383588097 -0.0618497556967183 1.80288495202473
-0.194548424251989 -0.0644087432764429 1.79354852224075
-0.142749507216534 -0.0688238037257661 1.79695757330853
-0.0923425299245661 -0.0756151206079802 1.80415168515729
-0.0463571092956988 -0.0856612930744625 1.81217579266902
-0.00225632745534919 -0.0855143469647734 1.81629997706242
0.0448890058181963 -0.0757256880668716 1.81793860194532
0.0648761714333976 -0.110050943827018 1.83538519902529
0.0973124575419819 -0.0749413792766049 1.83262126676085
0.133528221742608 -0.0911297793657955 1.86032791765765
-0.307156501508613 -0.0164608681652761 1.83095279569834
-0.28144514152711 0.0241713231329149 1.81488880789304
-0.264567729765595 -0.0199082296968845 1.80387606088981
0.144226382642674 -0.0504534639041071 1.85549251303988
0.169872501168731 -0.0823790252357311 1.89248830234364
0.173764732621123 -0.0354722275769129 1.88282884248733
-0.338671186867784 0.0505411702089958 1.87754577738448
-0.319041981723257 0.0261305764505822 1.84487199145821
0.197746895822957 -0.039639801701125 1.92093815317488
0.203485946108513 0.00333020553122277 1.93560611057432
-0.335074020012057 0.0896264352451521 1.9018059743265
0.20950052022102 0.0315610028018801 1.97742807897262
-0.34483704426422 0.111841047974187 1.94000106108842
0.204835555751152 0.0703735472545371 2.00286490986024
-0.357314316074225 0.124876870950869 1.97899241531599
0.207548894160623 0.0935696781498759 2.04387445390991
-0.345879658831986 0.164800871242732 1.99057064957031
0.203021761571389 0.13223355479571 2.06900088947557
-0.349513320714944 0.195174462510725 2.02545481045752
0.205531405213754 0.15523689762242 2.10980502368505
-0.362982246581561 0.213452019171042 2.07713639912823
0.198317288261704 0.192425232672362 2.13431284949264
-0.328709074376847 0.274456491582923 2.13772630925174
-0.340676091723981 0.256373990432056 2.09006057567989
-0.309423684000321 0.28932762646956 2.09457260996409
0.188899799121325 0.210253612163883 2.17765571174235
0.17599094959652 0.233891908985666 2.13276106363914
0.16275718735993 0.249179447954188 2.17722785742227
-0.260694456836585 0.310155853342306 2.18770033827507
-0.294449844210629 0.301869379148999 2.14670023396213
-0.252358002161295 0.32310669723492 2.14457729038979
0.130136195134497 0.267969539550781 2.21535910731025
0.0982564358195113 0.298463611695332 2.17770289221817
0.085740902578997 0.293648088552241 2.21682953789044
-0.213267775595678 0.326543585416086 2.17833312391051
-0.16941942355698 0.32149829750968 2.19850864934188
-0.11654518868526 0.318703598431297 2.20121653168634
-0.0721639085781784 0.313775833376469 2.21042287638015
-0.0284066952574334 0.310298795103782 2.21578843294523
0.0143214793652379 0.308958929570631 2.21540684708653
0.047272313965238 0.295389080911868 2.23950689180727
-0.215696281041993 -0.021683620251885 1.7881086650987
-0.164452618444041 -0.0263392525635391 1.78564408230926
-0.113754122587763 -0.0306578354635556 1.79179820301385
-0.0659609184437106 -0.0357272021922141 1.79788490184124
-0.0211940257584258 -0.0395107377429436 1.80347731518796
0.0229166776681675 -0.0355940985379509 1.80822974199424
0.0714977709342509 -0.0343300179227056 1.81610918856556
-0.237195276680069 0.0202966915027843 1.79445166056888
-0.209548796844354 0.0576395088137232 1.79673439007001
-0.185792781905943 0.0173179503372405 1.7854480050299
-0.135049515772093 0.0135759484091902 1.7890048918203
-0.0874141170319292 0.0122628549655524 1.79520703527833
-0.0402071332698608 0.00860584765794928 1.80109500934756
0.00456269489742372 0.0099028218409214 1.80729944984131
0.051466264057994 0.00894434777727035 1.81363921801285
0.0995823720194726 0.0103746481499018 1.82838664075323
0.146488288199601 0.00236753162536158 1.8564257008706
0.115006808310716 -0.0300227030804875 1.83344071392899
-0.299087869799572 0.0656147090607276 1.84083533066474
-0.266680469736821 0.103811035385387 1.84136042824897
-0.256428928469944 0.0642918401254805 1.81337007502392
0.122940132520609 0.044863701494702 1.85115230001781
0.180310858225739 0.00695909721899613 1.89392866764959
0.158925488070499 0.0468271410442098 1.88310735950897
-0.306659851410808 0.0981205131043936 1.87023561569659
-0.272951082983609 0.136477444282116 1.87580781021482
0.189087081837267 0.0445611014196286 1.92673584671479
0.161675133897565 0.0833466126879609 1.91546623346476
-0.311019188149992 0.132697526149561 1.90814993621099
-0.279736871057566 0.168668635912813 1.91215737288909
0.18828907624353 0.0765465804053241 1.95832021891257
0.159985169912573 0.117259903312023 1.94921319034649
-0.321973562931758 0.159142290367758 1.94705224874617
-0.284375715322673 0.198414990843048 1.94465245676725
0.187124681285912 0.11089409956659 1.99366457861605
0.159183559168141 0.15020458955005 1.9832552473186
-0.318521870940873 0.198916523455187 1.98012741602778
-0.282170753170847 0.233773143119259 1.97708080028833
0.186638958336553 0.140826905322366 2.02578438069831
0.158737811276057 0.182480521468877 2.01713410107117
-0.315457837554654 0.235134380547769 2.01072537427714
-0.281298807452135 0.271112029440884 2.01411922762974
0.185812741747003 0.174632676174001 2.06140679644
0.157748706974795 0.214930242566787 2.05038229553868
-0.339135179456187 0.236355854142813 2.04703352340009
-0.309499956577946 0.273026452399673 2.05017202135947
0.184314715674357 0.204986334315439 2.09297491867301
0.154711639211728 0.244865988496338 2.08555095232343
-0.276007505683778 0.312646378975986 2.10467616722186
-0.270870746391987 0.302853556036574 2.05692479582946
-0.238245241686218 0.32523031422102 2.09013546099667
0.132601164968101 0.278841975081292 2.16811997166665
0.146320342273379 0.266714829615254 2.12671641638559
0.106684998786775 0.29464142758883 2.12583822658767
-0.213782024957075 0.333579561601529 2.12983692554701
-0.188077434221964 0.333165807798293 2.0941148889599
-0.173317864161323 0.333997801500212 2.14854713205262
-0.144214878487623 0.331946549841564 2.10775450480812
-0.130931424187635 0.330064743418624 2.15806359265958
-0.100155841909513 0.328414615352452 2.11322875878225
-0.0841829389214793 0.326675787650532 2.16114776047634
-0.055352646886761 0.324624132173488 2.11696473148334
-0.0399490653965652 0.323024193045983 2.16749601187542
-0.0118321455972137 0.320970923703994 2.12096422162396
0.00453009662670886 0.319850683077433 2.16977696544506
0.0323177038405286 0.317734511033871 2.12914706450729
0.0501071838946685 0.313148256683889 2.18513642271437
0.0699490981103694 0.311261938504568 2.1420794082686
-0.178472562839414 0.0909452936709017 1.8088007439152
-0.156272902015738 0.0558113556057529 1.7949964847048
-0.110556115251268 0.0580715956148949 1.80261350275867
-0.0618833328243069 0.0536968101925476 1.80849927410371
-0.0169940359169664 0.0553670718409389 1.81604003555005
0.0283655033060614 0.0544201782217982 1.82274788855594
0.0743277079575728 0.0502714593056963 1.8302993813837
-0.223469735434129 0.100080870721676 1.82009549169595
-0.180664858968022 0.127144951121445 1.83432612867524
-0.134857421817739 0.100990109004994 1.81986470977575
-0.0839958833708164 0.0937632009110175 1.82419190473478
-0.039692584145471 0.0970070670347156 1.83412539718814
0.00480498539254665 0.0968732373564434 1.84204923715539
0.0499457405605827 0.0938377187870769 1.84809241478594
0.0932574956817015 0.0839564210992027 1.85569575269319
0.127844667084636 0.0872503134897481 1.88077097313616
-0.228163818193747 0.135602196789265 1.85090883657193
-0.188110030297299 0.160693360645271 1.8676501668804
-0.142345996365622 0.143601759448926 1.85490282504591
-0.103280939301172 0.127070998629206 1.84634379862508
-0.0604968892145881 0.132439678258508 1.86042761029759
-0.0168187394346451 0.13307031969256 1.87004343642863
0.0312433551192973 0.129200608736283 1.87600508336574
0.0809941750855687 0.121232400781625 1.88248922129418
0.125663022194986 0.119859082628771 1.91150881908889
-0.234814939179762 0.16799976420925 1.88535476225113
-0.189593101580766 0.192914300061914 1.89996603438659
-0.143670072694487 0.177505657505362 1.8889436985872
-0.097211094063047 0.160560565986435 1.88134251763036
-0.0502724901572565 0.16742593091312 1.8979375335327
-0.000132445003604639 0.163310128694855 1.90407720405235
0.0476164944678759 0.159002973577286 1.90954380200191
0.0896207858875988 0.151093522406344 1.91754536344337
0.124729829366951 0.154569201565829 1.94689021901202
-0.238101329900972 0.199380936347746 1.9175849855864
-0.191923414911022 0.223574056419115 1.9307732119415
-0.143070834259871 0.211684044490103 1.92365740579948
-0.100657654388083 0.19343024145478 1.91389983351377
-0.0627749252763596 0.202267461184162 1.93062949840887
-0.0181257145827711 0.196196974027735 1.93366222030894
0.0298331145998701 0.192439963750878 1.93971633248249
0.0788047969462379 0.185970621202397 1.94774598005612
0.123893150021887 0.185734528454244 1.97866312735564
-0.241129507686964 0.229896041882791 1.94888174187969
-0.198071050171293 0.253923553227248 1.96160042184119
-0.148150319674148 0.243952643533633 1.95527047606629
-0.099031474614359 0.231529147153897 1.95279323431484
-0.0475170265602219 0.231681946805545 1.96353490350283
0.000594983896272688 0.22686843945157 1.96855183949877
0.0469546186457794 0.223288802637212 1.97451703699505
0.088359613822953 0.216093058603285 1.98365764458845
0.123316025567846 0.219885861816225 2.01380691416019
-0.245562139199525 0.262752954253204 1.98312208382245
-0.20755572665329 0.284815489406668 1.99421011691978
-0.160625051074847 0.277780987317121 1.98700869483084
-0.114111077026541 0.267466290948019 1.98606457881745
-0.0695097045478823 0.26289734626283 1.99060656103711
-0.0205742103786741 0.260607496348604 1.99834705512894
0.0281851082036344 0.256864900734398 2.00457992954268
0.0771997349173374 0.251091173919637 2.01368009079317
0.12193840093325 0.250475588764829 2.0453964842835
-0.241125945094335 0.297506124196223 2.02221485540202
-0.184506159651936 0.307195439031266 2.02271594968872
-0.135825552804728 0.300626010728597 2.02127608936091
-0.0912382307953435 0.295701236476588 2.02474826743789
-0.0464154393667306 0.291473252713444 2.02936711511297
-8.46975639574588e-05 0.288381124922703 2.03606660761096
0.0449460918854578 0.285365119099018 2.0427174757824
0.0855495414104971 0.27857851245426 2.05282851326215
0.117316239516772 0.277767589703539 2.0861991349033
-0.216088572629544 0.319628476032036 2.05341219607894
-0.161917334317263 0.322884459885826 2.05916454654271
-0.116192441499495 0.319326708576824 2.06515479807557
-0.0711703164351108 0.315197395955416 2.06929922915373
-0.0254565409645156 0.311024129991809 2.07359483172159
0.0216409501781935 0.307788669677074 2.08092858775886
0.0685000179565891 0.302559922484744 2.09115196932948
3 0 1 2
3 0 2 4
3 3 0 4
3 3 4 6
3 5 3 6
3 5 6 8
3 7 5 8
3 7 8 10
3 9 7 10
3 9 10 12
3 11 9 12
3 13 11 14
3 14 11 12
3 13 14 15
3 16 17 18
3 16 18 1
3 0 19 1
3 19 16 1
3 0 3 20
3 19 0 20
3 3 5 21
3 20 3 21
3 5 7 22
3 21 5 22
3 7 9 23
3 22 7 23
3 9 11 24
3 23 9 24
3 24 11 25
3 25 11 13
3 13 15 26
3 27 13 26
3 25 13 27
3 27 26 28
3 17 16 30
3 30 16 29
3 29 19 31
3 29 16 19
3 31 20 32
3 31 19 20
3 32 21 33
3 32 20 21
3 21 22 33
3 33 22 34
3 22 23 34
3 34 23 35
3 23 24 35
3 35 24 36
3 24 25 36
3 36 25 37
3 37 27 38
3 37 25 27
3 38 28 39
3 38 27 28
3 30 40 41
3 30 29 40
3 29 31 42
3 40 29 42
3 31 32 43
3 42 31 43
3 32 33 44
3 43 32 44
3 33 34 45
3 44 33 45
3 34 35 46
3 45 34 46
3 35 36 47
3 46 35 47
3 36 37 47
3 47 37 48
3 37 38 48
3 48 38 49
3 49 39 50
3 49 38 39
3 40 51 52
3 41 40 52
3 51 42 53
3 51 40 42
3 42 43 53
3 53 43 54
3 43 44 54
3 54 44 55
3 44 45 55
3 55 45 56
3 45 46 56
3 56 46 57
3 46 47 58
3 57 46 58
3 47 48 59
3 58 47 59
3 48 49 60
3 59 48 60
3 49 50 61
3 60 49 61
3 51 62 63
3 52 51 63
3 51 53 64
3 62 51 64
3 53 54 65
3 64 53 65
3 54 55 66
3 65 54 66
3 55 56 67
3 66 55 67
3 56 57 67
3 67 57 68
3 57 58 69
3 68 57 69
3 58 59 69
3 69 59 70
3 59 60 70
3 70 60 71
3 71 61 72
3 71 60 61
3 62 73 74
3 63 62 74
3 62 64 75
3 73 62 75
3 64 65 75
3 75 65 76
3 65 66 76
3 76 66 77
3 66 67 77
3 77 67 78
3 67 68 78
3 78 68 79
3 79 69 80
3 79 68 69
3 80 70 81
3 80 69 70
3 81 71 82
3 81 70 71
3 82 72 83
3 82 71 72
3 74 73 85
3 85 73 84
3 84 73 86
3 86 73 75
3 75 76 86
3 86 76 87
3 76 77 88
3 87 76 88
3 77 78 89
3 88 77 89
3 78 79 90
3 89 78 90
3 79 80 91
3 90 79 91
3 80 81 92
3 91 80 92
3 81 82 93
3 92 81 93
3 93 83 94
3 93 82 83
3 84 95 85
3 84 86 96
3 97 84 96
3 95 84 97
3 96 87 98
3 96 86 87
3 87 88 98
3 98 88 99
3 88 89 99
3 99 89 100
3 89 90 100
3 100 90 101
3 101 91 102
3 101 90 91
3 102 92 103
3 102 91 92
3 92 93 103
3 105 103 104
3 103 93 104
3 93 94 104
3 96 106 97
3 96 98 107
3 106 96 107
3 98 99 108
3 107 98 108
3 99 100 109
3 108 99 109
3 100 101 110
3 109 100 110
3 101 102 111
3 110 101 111
3 111 102 112
3 112 102 103
3 103 105 112
3 117 114 115
3 116 113 117
3 117 113 114
3 116 117 119
3 118 116 119
3 118 119 121
3 120 118 121
3 120 121 123
3 122 120 123
3 122 123 125
3 124 122 125
3 124 125 127
3 126 124 127
3 126 127 128
3 129 130 131
3 114 129 131
3 114 113 129
3 113 2 129
3 129 2 1
3 4 113 116
3 4 2 113
3 6 116 118
3 6 4 116
3 8 118 120
3 8 6 118
3 10 120 122
3 10 8 120
3 12 122 124
3 12 10 122
3 14 124 126
3 14 12 124
3 133 126 128
3 15 14 126
3 15 126 133
3 132 15 133
3 132 133 134
3 135 136 137
3 137 17 135
3 137 18 17
3 18 137 130
3 129 18 130
3 18 129 1
3 15 132 26
3 139 132 134
3 139 138 132
3 138 28 26
3 132 138 26
3 138 139 140
3 136 135 142
3 142 135 141
3 17 30 135
3 135 30 141
3 143 39 28
3 138 143 28
3 143 140 144
3 143 138 140
3 141 145 146
3 142 141 146
3 41 145 141
3 30 41 141
3 147 39 143
3 147 50 39
3 147 144 148
3 147 143 144
3 145 149 150
3 146 145 150
3 52 149 145
3 41 52 145
3 151 50 147
3 151 155 50
3 151 148 152
3 151 147 148
3 149 153 154
3 150 149 154
3 63 153 149
3 52 63 149
3 155 61 50
3 155 72 61
3 155 151 156
3 156 151 152
3 154 157 158
3 154 153 157
3 74 157 153
3 63 74 153
3 159 72 155
3 159 83 72
3 159 156 160
3 159 155 156
3 158 157 162
3 162 157 161
3 74 85 161
3 157 74 161
3 163 83 159
3 163 94 83
3 163 160 164
3 163 159 160
3 161 165 162
3 165 95 166
3 165 161 95
3 161 85 95
3 165 166 167
3 95 97 166
3 105 104 168
3 170 94 163
3 170 168 94
3 169 168 170
3 94 168 104
3 163 164 170
3 166 171 167
3 173 171 172
3 172 171 106
3 171 97 106
3 171 166 97
3 172 107 174
3 172 106 107
3 174 108 175
3 174 107 108
3 175 109 176
3 175 108 109
3 176 110 177
3 176 109 110
3 177 111 178
3 177 110 111
3 178 112 180
3 178 111 112
3 181 105 168
3 181 180 105
3 179 178 180
3 180 112 105
3 168 169 181
3 172 182 173
3 182 172 183
3 183 172 174
3 174 175 184
3 183 174 184
3 175 176 185
3 184 175 185
3 176 177 186
3 185 176 186
3 177 178 187
3 186 177 187
3 187 179 188
3 187 178 179
3 179 180 229
3 189 190 191
3 114 131 191
3 115 114 191
3 115 191 192
3 115 192 193
3 117 115 193
3 119 193 194
3 119 117 193
3 119 194 121
3 121 194 195
3 121 195 123
3 123 195 196
3 123 196 125
3 125 196 197
3 127 197 198
3 127 125 197
3 128 198 199
3 200 128 199
3 128 127 198
3 200 199 201
3 202 203 204
3 131 130 189
3 190 189 204
3 189 130 202
3 189 202 204
3 131 189 191
3 128 200 133
3 134 200 205
3 206 205 201
3 134 133 200
3 205 200 201
3 205 206 207
3 136 208 203
3 202 137 136
3 202 136 203
3 137 202 130
3 134 205 139
3 139 205 207
3 140 139 207
3 211 207 209
3 136 142 208
3 208 142 210
3 211 140 207
3 211 144 140
3 146 212 210
3 142 146 210
3 148 144 213
3 213 144 211
3 150 214 212
3 146 150 212
3 215 148 213
3 215 152 148
3 154 216 150
3 150 216 214
3 219 152 217
3 217 152 215
3 158 218 216
3 154 158 216
3 219 156 152
3 219 160 156
3 158 220 218
3 158 162 220
3 221 160 219
3 221 164 160
3 162 165 222
3 223 220 222
3 220 162 222
3 165 167 222
3 169 170 224
3 225 164 221
3 224 170 164
3 224 164 225
3 222 226 223
3 167 171 227
3 226 167 227
3 226 227 228
3 226 222 167
3 171 173 227
3 180 181 229
3 181 169 230
3 231 169 224
3 230 169 231
3 230 229 181
3 224 225 271
3 227 232 228
3 232 182 233
3 232 173 182
3 227 173 232
3 182 183 234
3 233 182 234
3 183 184 234
3 234 184 235
3 184 185 235
3 235 185 236
3 185 186 236
3 236 186 237
3 186 187 237
3 237 187 238
3 238 188 239
3 238 187 188
3 188 179 229
3 240 239 188
3 240 188 229
3 229 230 240
3 191 190 242
3 242 190 241
3 192 242 243
3 192 191 242
3 192 243 244
3 193 192 244
3 194 244 245
3 194 193 244
3 194 245 246
3 195 194 246
3 195 246 247
3 196 195 247
3 196 247 248
3 197 196 248
3 197 248 249
3 198 197 249
3 199 198 249
3 250 199 249
3 201 199 251
3 251 199 250
3 204 252 253
3 204 203 252
3 190 253 241
3 190 204 253
3 206 251 254
3 206 201 251
3 207 206 255
3 255 206 254
3 203 256 252
3 203 208 256
3 257 209 255
3 255 209 207
3 210 258 208
3 208 258 256
3 211 209 259
3 259 209 257
3 212 260 210
3 210 260 258
3 213 211 259
3 261 213 259
3 214 262 260
3 212 214 260
3 215 213 261
3 263 215 261
3 216 264 214
3 214 264 262
3 217 215 263
3 265 217 263
3 218 266 264
3 216 218 264
3 219 217 265
3 267 219 265
3 218 268 266
3 218 220 268
3 221 219 267
3 269 221 267
3 223 270 268
3 220 223 268
3 225 221 269
3 271 225 269
3 223 226 272
3 270 223 272
3 272 228 273
3 272 226 228
3 274 231 275
3 274 230 231
3 275 231 271
3 271 231 224
3 273 228 276
3 276 228 232
3 276 233 277
3 276 232 233
3 233 234 278
3 277 233 278
3 234 235 279
3 278 234 279
3 235 236 280
3 279 235 280
3 236 237 281
3 280 236 281
3 237 238 282
3 281 237 282
3 238 239 283
3 282 238 283
3 327 239 284
3 284 239 240
3 240 230 274
3 284 240 274
3 241 285 286
3 242 241 286
3 242 286 243
3 243 286 287
3 243 287 288
3 244 243 288
3 245 288 289
3 245 244 288
3 245 289 246
3 246 289 290
3 246 290 247
3 247 290 291
3 247 291 248
3 248 291 292
3 248 292 293
3 249 248 293
3 249 293 250
3 250 293 294
3 250 294 295
3 251 250 295
3 252 296 297
3 253 252 297
3 241 297 285
3 241 253 297
3 254 295 298
3 254 251 295
3 254 298 299
3 255 254 299
3 256 300 252
3 252 300 296
3 257 255 299
3 301 257 299
3 258 302 300
3 256 258 300
3 259 257 303
3 303 257 301
3 260 304 258
3 258 304 302
3 261 259 303
3 305 261 303
3 262 306 304
3 260 262 304
3 263 261 305
3 307 263 305
3 264 308 262
3 262 308 306
3 265 263 307
3 309 265 307
3 266 310 308
3 264 266 308
3 267 265 309
3 311 267 309
3 266 312 310
3 266 268 312
3 269 267 311
3 313 269 311
3 270 314 312
3 268 270 312
3 271 269 315
3 315 269 313
3 270 272 316
3 314 270 316
3 316 273 317
3 316 272 273
3 318 275 319
3 318 274 275
3 275 271 315
3 319 275 315
3 273 276 320
3 317 273 320
3 276 277 320
3 320 277 321
3 277 278 322
3 321 277 322
3 322 279 323
3 322 278 279
3 279 280 323
3 323 280 324
3 280 281 324
3 324 281 325
3 281 282 325
3 325 282 326
3 282 283 326
3 326 283 327
3 283 239 327
3 327 284 328
3 284 274 318
3 328 284 318
3 285 329 330
3 286 285 330
3 286 330 287
3 287 330 331
3 287 331 332
3 288 287 332
3 288 332 289
3 289 332 333
3 289 333 334
3 290 289 334
3 290 334 335
3 291 290 335
3 291 335 292
3 292 335 336
3 292 336 337
3 293 292 337
3 293 337 294
3 294 337 338
3 294 338 339
3 295 294 339
3 296 340 341
3 297 296 341
3 285 341 329
3 285 297 341
3 298 339 342
3 298 295 339
3 298 342 343
3 299 298 343
3 300 344 296
3 296 344 340
3 301 299 343
3 345 301 343
3 302 346 344
3 300 302 344
3 303 301 347
3 347 301 345
3 304 348 302
3 302 348 346
3 305 303 347
3 349 305 347
3 306 350 348
3 304 306 348
3 307 305 351
3 351 305 349
3 308 352 306
3 306 352 350
3 309 307 353
3 353 307 351
3 310 354 352
3 308 310 352
3 311 309 355
3 355 309 353
3 312 356 310
3 310 356 354
3 313 311 355
3 357 313 355
3 314 358 356
3 312 314 356
3 315 313 359
3 359 313 357
3 314 316 360
3 358 314 360
3 360 317 361
3 360 316 317
3 362 319 363
3 362 318 319
3 319 315 359
3 363 319 359
3 317 320 364
3 361 317 364
3 320 321 364
3 364 321 365
3 321 322 366
3 365 321 366
3 322 323 366
3 366 323 367
3 323 324 368
3 367 323 368
3 324 325 369
3 368 324 369
3 325 326 370
3 369 325 370
3 326 327 371
3 370 326 371
3 327 328 371
3 371 328 372
3 328 318 362
3 372 328 362
3 329 373 374
3 330 329 374
3 330 374 331
3 331 374 375
3 331 375 376
3 332 331 376
3 332 376 333
3 333 376 377
3 333 377 378
3 334 333 378
3 334 378 379
3 335 334 379
3 335 379 336
3 336 379 380
3 336 380 381
3 337 336 381
3 337 381 338
3 338 381 382
3 338 382 383
3 339 338 383
3 340 384 385
3 341 340 385
3 329 385 373
3 329 341 385
3 342 383 386
3 342 339 383
3 342 386 387
3 343 342 387
3 344 388 340
3 340 388 384
3 345 343 387
3 389 345 387
3 346 390 388
3 344 346 388
3 347 345 391
3 391 345 389
3 348 392 346
3 346 392 390
3 349 347 391
3 393 349 391
3 350 394 348
3 348 394 392
3 351 349 395
3 395 349 393
3 352 396 350
3 350 396 394
3 353 351 395
3 397 353 395
3 354 398 396
3 352 354 396
3 355 353 399
3 399 353 397
3 356 400 354
3 354 400 398
3 357 355 399
3 401 357 399
3 358 402 400
3 356 358 400
3 359 357 403
3 403 357 401
3 358 360 404
3 402 358 404
3 404 361 405
3 404 360 361
3 406 363 407
3 406 362 363
3 363 359 403
3 407 363 403
3 361 364 408
3 405 361 408
3 364 365 408
3 408 365 409
3 365 366 410
3 409 365 410
3 366 367 410
3 410 367 411
3 367 368 412
3 411 367 412
3 368 369 412
3 412 369 413
3 369 370 413
3 413 370 414
3 370 371 415
3 414 370 415
3 371 372 415
3 415 372 416
3 372 362 406
3 416 372 406
3 373 417 418
3 374 373 418
3 374 418 375
3 375 418 419
3 375 419 420
3 376 375 420
3 376 420 377
3 377 420 421
3 377 421 422
3 378 377 422
3 378 422 423
3 379 378 423
3 380 423 424
3 380 379 423
3 380 424 425
3 381 380 425
3 382 425 426
3 382 381 425
3 382 426 427
3 383 382 427
3 384 428 429
3 385 384 429
3 373 429 417
3 373 385 429
3 386 427 430
3 386 383 427
3 386 430 431
3 387 386 431
3 384 432 428
3 384 388 432
3 389 387 431
3 433 389 431
3 390 434 432
3 388 390 432
3 435 389 433
3 435 391 389
3 390 436 434
3 390 392 436
3 393 391 435
3 437 393 435
3 394 438 436
3 392 394 436
3 395 393 439
3 439 393 437
3 396 440 438
3 394 396 438
3 397 395 439
3 441 397 439
3 398 442 440
3 396 398 440
3 399 397 443
3 443 397 441
3 400 444 398
3 398 444 442
3 401 399 443
3 445 401 443
3 402 446 444
3 400 402 444
3 403 401 447
3 447 401 445
3 402 404 448
3 446 402 448
3 448 405 449
3 448 404 405
3 450 407 451
3 450 406 407
3 407 403 447
3 451 407 447
3 405 408 452
3 449 405 452
3 408 409 452
3 452 409 453
3 409 410 454
3 453 409 454
3 410 411 454
3 454 411 455
3 411 412 456
3 455 411 456
3 412 413 456
3 456 413 457
3 457 414 458
3 457 413 414
3 414 415 459
3 458 414 459
3 415 416 459
3 459 416 460
3 416 406 450
3 460 416 450
3 418 461 462
3 418 417 461
3 419 462 463
3 419 418 462
3 419 463 464
3 420 419 464
3 420 464 421
3 421 464 465
3 421 465 466
3 422 421 466
3 422 466 467
3 423 422 467
3 424 467 468
3 424 423 467
3 424 468 469
3 425 424 469
3 426 469 470
3 426 425 469
3 427 426 471
3 471 426 470
3 429 428 473
3 473 428 472
3 417 473 505
3 417 429 473
3 430 427 471
3 520 430 471
3 431 474 475
3 431 430 474
3 428 476 472
3 428 432 476
3 433 431 475
3 477 433 475
3 434 478 476
3 432 434 476
3 479 433 477
3 479 435 433
3 434 480 478
3 434 436 480
3 437 435 479
3 481 437 479
3 438 482 436
3 436 482 480
3 439 437 483
3 483 437 481
3 440 484 482
3 438 440 482
3 441 439 483
3 485 441 483
3 442 486 440
3 440 486 484
3 443 441 487
3 487 441 485
3 444 488 442
3 442 488 486
3 445 443 487
3 489 445 487
3 444 446 488
3 488 446 490
3 491 445 489
3 491 447 445
3 490 446 492
3 492 446 448
3 492 449 493
3 492 448 449
3 494 451 495
3 494 450 451
3 451 447 491
3 495 451 491
3 449 452 496
3 493 449 496
3 496 453 497
3 496 452 453
3 453 454 498
3 497 453 498
3 498 455 499
3 498 454 455
3 455 456 500
3 499 455 500
3 456 457 501
3 500 456 501
3 457 458 502
3 501 457 502
3 458 459 503
3 502 458 503
3 503 460 504
3 503 459 460
3 504 460 494
3 494 460 450
3 461 505 506
3 462 461 506
3 507 463 462
3 507 462 506
3 465 463 508
3 508 463 507
3 464 463 465
3 465 508 509
3 465 509 466
3 466 509 510
3 466 510 467
3 467 510 511
3 467 511 468
3 468 511 512
3 468 512 513
3 469 468 513
3 469 513 470
3 515 470 514
3 470 513 514
3 470 515 471
3 472 516 473
3 518 516 517
3 518 505 516
3 461 417 505
3 505 473 516
3 505 518 506
3 515 514 519
3 474 430 520
3 521 520 519
3 520 471 515
3 520 515 519
3 474 520 524
3 476 522 472
3 516 472 523
3 472 522 523
3 516 523 517
3 520 521 524
3 477 475 524
3 524 475 474
3 525 477 524
3 478 526 522
3 476 478 522
3 527 477 525
3 527 479 477
3 478 528 526
3 478 480 528
3 481 479 527
3 529 481 527
3 482 530 480
3 480 530 528
3 483 481 531
3 531 481 529
3 484 532 530
3 482 484 530
3 485 483 531
3 533 485 531
3 486 534 484
3 484 534 532
3 535 485 533
3 535 487 485
3 486 536 534
3 486 488 536
3 537 489 535
3 535 489 487
3 490 538 539
3 536 490 539
3 488 490 536
3 538 540 539
3 541 542 543
3 541 489 537
3 542 541 537
3 541 491 489
3 490 492 538
3 545 493 544
3 538 492 493
3 538 493 545
3 540 538 545
3 544 546 545
3 547 548 549
3 543 495 541
3 547 494 495
3 547 495 543
3 608 547 543
3 495 491 541
3 493 496 544
3 544 497 550
3 546 544 550
3 544 496 497
3 550 497 551
3 551 497 498
3 498 499 551
3 551 499 552
3 499 500 552
3 552 500 553
3 500 501 553
3 553 501 554
3 554 502 555
3 554 501 502
3 502 503 556
3 555 502 556
3 503 504 556
3 549 504 547
3 556 504 549
3 504 494 547
3 506 557 507
3 507 557 558
3 508 507 558
3 508 558 559
3 509 508 559
3 509 559 560
3 510 509 560
3 510 560 561
3 511 510 561
3 511 561 562
3 512 511 562
3 514 512 563
3 563 512 562
3 513 512 514
3 517 564 518
3 518 564 557
3 566 564 565
3 557 564 566
3 557 506 518
3 558 566 567
3 558 557 566
3 559 567 568
3 559 558 567
3 560 568 569
3 560 559 568
3 561 569 570
3 561 560 569
3 562 570 571
3 562 561 570
3 563 562 571
3 572 563 571
3 574 514 563
3 572 574 563
3 573 519 574
3 574 519 514
3 519 573 521
3 522 575 523
3 577 575 576
3 577 517 575
3 564 517 577
3 575 517 523
3 564 577 565
3 573 574 572
3 521 573 579
3 580 573 578
3 579 573 580
3 579 524 521
3 524 579 525
3 522 581 575
3 522 526 581
3 576 581 582
3 576 575 581
3 583 580 584
3 583 579 580
3 583 525 579
3 583 527 525
3 526 585 581
3 526 528 585
3 582 585 586
3 582 581 585
3 587 584 588
3 587 583 584
3 587 527 583
3 587 529 527
3 528 589 585
3 528 530 589
3 586 589 590
3 586 585 589
3 591 588 592
3 591 587 588
3 591 529 587
3 591 531 529
3 532 593 589
3 530 532 589
3 590 593 594
3 590 589 593
3 595 592 596
3 595 591 592
3 595 531 591
3 595 533 531
3 534 597 593
3 532 534 593
3 594 597 598
3 594 593 597
3 599 596 600
3 599 595 596
3 599 533 595
3 599 535 533
3 534 601 597
3 534 536 601
3 602 597 601
3 602 598 597
3 603 599 600
3 604 603 600
3 603 535 599
3 603 537 535
3 536 539 601
3 606 540 605
3 606 602 540
3 602 601 539
3 540 602 539
3 605 607 606
3 608 609 610
3 608 543 609
3 604 542 603
3 609 543 542
3 609 542 604
3 542 537 603
3 540 545 605
3 605 546 607
3 612 607 611
3 605 545 546
3 607 546 611
3 612 613 614
3 612 611 613
3 614 615 616
3 614 613 615
3 616 617 618
3 616 615 617
3 618 619 620
3 618 617 619
3 620 621 622
3 620 619 621
3 622 623 624
3 622 621 623
3 610 548 608
3 624 623 548
3 624 548 610
3 548 623 549
3 548 547 608
3 546 550 611
3 611 550 613
3 613 550 551
3 551 552 615
3 613 551 615
3 552 553 617
3 615 552 617
3 553 554 619
3 617 553 619
3 554 555 621
3 619 554 621
3 621 555 623
3 623 555 556
3 556 549 623
3 565 625 626
3 567 566 626
3 626 566 565
3 567 626 627
3 568 567 627
3 568 627 628
3 569 568 628
3 569 628 629
3 570 569 629
3 570 629 630
3 571 570 630
3 572 571 631
3 631 571 630
3 572 631 578
3 576 632 577
3 625 632 633
3 565 577 632
3 565 632 625
3 625 633 634
3 626 625 634
3 626 634 627
3 627 634 635
3 627 635 628
3 628 635 636
3 628 636 629
3 629 636 637
3 629 637 630
3 630 637 638
3 631 638 639
3 631 630 638
3 640 578 639
3 578 573 572
3 578 631 639
3 578 640 580
3 576 641 632
3 576 582 641
3 633 641 642
3 633 632 641
3 633 642 643
3 634 633 643
3 634 643 644
3 635 634 644
3 635 644 645
3 636 635 645
3 636 645 646
3 637 636 646
3 637 646 647
3 638 637 647
3 638 647 648
3 639 638 648
3 640 648 649
3 640 639 648
3 584 580 640
3 649 584 640
3 582 650 641
3 582 586 650
3 642 650 651
3 642 641 650
3 642 651 652
3 643 642 652
3 643 652 653
3 644 643 653
3 644 653 645
3 645 653 654
3 645 654 646
3 646 654 655
3 646 655 647
3 647 655 656
3 647 656 648
3 648 656 657
3 648 657 649
3 649 657 658
3 588 584 649
3 658 588 649
3 586 659 650
3 586 590 659
3 650 659 651
3 651 659 660
3 651 660 661
3 652 651 661
3 652 661 662
3 653 652 662
3 653 662 654
3 654 662 663
3 654 663 664
3 655 654 664
3 655 664 665
3 656 655 665
3 656 665 666
3 657 656 666
3 657 666 658
3 658 666 667
3 592 588 658
3 667 592 658
3 590 668 659
3 590 594 668
3 660 668 669
3 660 659 668
3 660 669 670
3 661 660 670
3 661 670 671
3 662 661 671
3 662 671 663
3 663 671 672
3 663 672 664
3 664 672 673
3 664 673 665
3 665 673 674
3 665 674 666
3 666 674 675
3 666 675 667
3 667 675 676
3 596 592 667
3 676 596 667
3 594 677 668
3 594 598 677
3 668 677 669
3 669 677 678
3 669 678 679
3 670 669 679
3 670 679 680
3 671 670 680
3 671 680 681
3 672 671 681
3 672 681 682
3 673 672 682
3 673 682 683
3 674 673 683
3 674 683 684
3 675 674 684
3 676 684 685
3 676 675 684
3 600 596 676
3 685 600 676
3 598 686 677
3 598 602 606
3 678 686 687
3 678 677 686
3 678 687 679
3 679 687 688
3 679 688 680
3 680 688 689
3 680 689 681
3 681 689 690
3 681 690 682
3 682 690 691
3 683 691 692
3 683 682 691
3 684 692 693
3 684 683 692
3 685 693 694
3 685 684 693
3 694 604 685
3 685 604 600
3 598 606 686
3 606 607 695
3 686 606 695
3 686 695 687
3 688 687 696
3 696 687 695
3 688 696 697
3 689 688 697
3 689 697 698
3 690 689 698
3 690 698 699
3 691 690 699
3 691 699 700
3 692 691 700
3 692 700 701
3 693 692 701
3 610 609 694
3 701 610 694
3 701 694 693
3 609 604 694
3 607 612 695
3 695 612 696
3 696 612 614
3 614 616 697
3 696 614 697
3 616 618 698
3 697 616 698
3 618 620 699
3 698 618 699
3 620 622 700
3 699 620 700
3 622 624 701
3 700 622 701
3 624 610 701
