OFF
702 1400 0
-0.261085755953336 -0.326688509554967 2.20157568260584
-0.306465596271641 -0.312997869677559 2.18365337788707
-0.278352125435372 -0.332618429422921 2.15632151668413
-0.214223609413366 -0.333315781799283 2.20635284769259
-0.232427670010929 -0.343374377743312 2.16166216933127
-0.167420253960744 -0.338004351362362 2.20955737025105
-0.186041527701975 -0.347644555081553 2.16384335414541
-0.122048190309954 -0.342034131435868 2.21395875294605
-0.140719441557234 -0.351706357456553 2.16572412365686
-0.077161491601286 -0.345865897823733 2.21871501654115
-0.0959662457426864 -0.355340255090138 2.1703990181341
-0.029669336153765 -0.348913300063019 2.22637254228649
-0.0501882930773461 -0.358597832673673 2.17892345630076
0.0184343416331059 -0.344471000343021 2.2347153402329
-0.00287943904369942 -0.360162527660876 2.18796151447827
0.0436434847461078 -0.35126597994582 2.19669947137915
-0.329059858105412 -0.284237326789363 2.21170370212697
-0.358738565339484 -0.267003847868107 2.18413816198742
-0.33756992978598 -0.297198086130396 2.15587342859821
-0.288656131786231 -0.300136207978835 2.23153793199474
-0.241983619074204 -0.30912768364899 2.2436174089875
-0.1942949436193 -0.314445552018984 2.24750657269662
-0.147534108905184 -0.318375095805259 2.252918617363
-0.102323938143595 -0.32175122787028 2.25877538865677
-0.0580343985678702 -0.327134858587282 2.26139854581432
-0.00939240541892652 -0.327919958263826 2.26868785236543
0.0644101026902422 -0.328311457108062 2.24030605500425
0.0358075204760417 -0.315771152260384 2.27638743428785
0.0819319284533124 -0.295669357184551 2.27398110607343
-0.316120372671815 -0.263155365653906 2.25314454261551
-0.35619698364313 -0.242816797863399 2.22499323120228
-0.270186271581065 -0.276548922448076 2.27080620843123
-0.220256743450923 -0.282892377238722 2.27894251385939
-0.172667199366124 -0.287225665378944 2.2842205089991
-0.125053367884864 -0.289645626749051 2.29145289606295
-0.0803566643170184 -0.292367544382611 2.29778254886261
-0.0381244566812375 -0.301754865058261 2.29682305225461
0.00321812419499135 -0.293465485937513 2.30743962210014
0.048892271811769 -0.280084030343568 2.3087939572389
0.0937395129877397 -0.257860875154038 2.30214759715789
-0.334338084095146 -0.225761186857251 2.27355477709775
-0.367434830241886 -0.204402624733909 2.2469182523334
-0.293410286960403 -0.240586086248183 2.29483789166649
-0.244425042661019 -0.251170285140108 2.30614652928319
-0.195669331042311 -0.253316694027623 2.31407029886849
-0.148227949434532 -0.258077450691719 2.31888356554824
-0.0967370358053236 -0.258885360569717 2.32854639475393
-0.041899222209694 -0.268299650286539 2.33012570890214
0.00854290651269607 -0.260976340789032 2.33942058609108
0.0590417099733446 -0.245504577445162 2.33802438228287
0.103834584948855 -0.219500396785865 2.32997555947037
-0.318423042219401 -0.201383253807394 2.31595259564198
-0.358841612636366 -0.18368774310194 2.28472989985315
-0.269226035559662 -0.218536157361955 2.33099188330362
-0.221828805529655 -0.220789125419548 2.34187088332265
-0.176292334415901 -0.221798919591877 2.35011591068682
-0.132358869078291 -0.229657135944483 2.35105992667431
-0.0988418268729587 -0.217625429815056 2.37013849859207
-0.0640231499563611 -0.23700082817307 2.35749684655423
-0.0217101471047807 -0.233467682713621 2.36834320662775
0.0262017447683279 -0.226968930397123 2.36966795734707
0.0742800281910511 -0.208233712578151 2.36539383247758
-0.321569374324862 -0.160612056161075 2.35588394326221
-0.349586384091263 -0.162999460362091 2.32101785547005
-0.288708018503557 -0.186995896130917 2.35345046899043
-0.241651509039736 -0.189298226460119 2.36989927168657
-0.196912378402807 -0.188035458315001 2.38030394315969
-0.148011472436921 -0.193012582674385 2.38519302321904
-0.102581821595952 -0.187166809260955 2.40039847302056
-0.0551833581284238 -0.200600307921244 2.39636938060894
-0.00716284360604219 -0.200420767060685 2.40179091978939
0.0406196317192115 -0.193175151024342 2.39832039273353
0.0881205270558457 -0.171103219301888 2.39112376357417
-0.310956185717974 -0.135948269010637 2.39102291883055
-0.355024567802335 -0.123397472327775 2.35575488320206
-0.272315925278877 -0.160451599783093 2.38941024147459
-0.226353448159349 -0.154134457797179 2.40883371982339
-0.176325740183962 -0.158651383340633 2.414421979603
-0.130531692839398 -0.158400724346844 2.42400374415201
-0.0790105171724389 -0.162431860986602 2.43038985190916
-0.0340777673933957 -0.168990856332718 2.43249922251281
0.0123008067847952 -0.166138841246759 2.43374722417447
0.0562520770169987 -0.158980094975193 2.42473464558701
0.0926835314091414 -0.133338029398118 2.42353506240349
-0.306135713928827 -0.0959798133246161 2.42658992113331
-0.33998121627603 -0.104863701084826 2.39346434033645
-0.272749168064213 -0.126260059435413 2.42233448511574
-0.23815929160371 -0.114327421098601 2.44010412188102
-0.195437360834515 -0.122956663241538 2.44185258874965
-0.150320258231731 -0.123208591477762 2.44965512512532
-0.103121294635499 -0.126655357660002 2.45565654731731
-0.0545226880198177 -0.130887539776629 2.46138312732164
-0.00624282336167496 -0.134098280643314 2.46316851038374
0.0453560082870997 -0.128546022181651 2.45556976887897
0.0927805046425404 -0.0975146804592921 2.44767507120629
-0.34730079701024 -0.065481900652902 2.41016351368771
-0.268908214942513 -0.0765213847736753 2.45241338115616
-0.312388790541338 -0.0519817377186732 2.44133942644202
-0.219448501732352 -0.077211019744962 2.4617402849176
-0.173424230315227 -0.0820861316644559 2.46694646454331
-0.126752239691661 -0.0832041654221453 2.47364940350696
-0.0809630250858185 -0.0879469753348183 2.47887919402976
-0.0343034138741114 -0.0925994363860582 2.48399184859848
0.0123608766073219 -0.09443754510438 2.48202016550933
0.0567248265137582 -0.0883826552848601 2.47184937562001
0.0385582289225537 -0.0493561555232322 2.48818019352099
-0.285453263473273 -0.0249417212541989 2.45915728650339
-0.243038407693799 -0.0341455690325099 2.46923976161024
-0.194013278051335 -0.036154745395044 2.47555518074785
-0.14826194630568 -0.037427149122752 2.48148742966818
-0.101981099390659 -0.0390195491912316 2.48742689158408
-0.0574319998964521 -0.0458874121617984 2.4925200621558
-0.00973414171553058 -0.0504200974586258 2.49559033135453
-0.25636222335544 -0.340691123968057 2.1171550655008
-0.280064033504453 -0.326880179758258 2.08156702547759
-0.256453926367734 -0.320422303769128 2.04400909396237
-0.206767474315264 -0.347361237961984 2.117917299684
-0.228309085364324 -0.338554984524168 2.0767539164314
-0.160720216779756 -0.350425894450623 2.11736881261465
-0.18015052107752 -0.33925066187264 2.07129203444252
-0.115318569970179 -0.353673251514092 2.12001721611124
-0.134845764027512 -0.341133798896429 2.07208046426783
-0.0700104146215287 -0.357512097709373 2.12783473258334
-0.0872896086914357 -0.345037608373254 2.07834354938777
-0.025121944881225 -0.361547250208698 2.13833998078036
-0.0415985728925297 -0.349961055915463 2.08768699655261
0.0209272665535532 -0.360358207731552 2.14695210997253
0.00258768139040505 -0.354337626694041 2.09911185391119
0.0505212730895549 -0.347624345425903 2.10815490861821
-0.307854232411592 -0.320144717893535 2.12474811829806
-0.346178404623732 -0.289566325424432 2.10850746454707
-0.316641529084938 -0.305558633182151 2.07624131184817
0.0884483178631522 -0.331250747053316 2.2008772763785
0.0641290633873564 -0.348807087671742 2.15623249604718
0.103889543946615 -0.327554359424002 2.15818753306077
-0.383851939688415 -0.231273516707285 2.17424627981321
-0.394051753222372 -0.219054946459172 2.12457146206856
-0.371479224218214 -0.261586669145141 2.1378283474011
0.109614854887974 -0.302895128646207 2.23434654594219
0.13026552598025 -0.301663149097727 2.19003088672526
0.14749329346938 -0.270318561072298 2.21717179503462
-0.385896343341072 -0.202456217924976 2.2055609958042
-0.401620240531128 -0.186555060238339 2.1591403874133
0.123672161313226 -0.267047388603521 2.26241209015389
0.154946621105092 -0.230894691289474 2.24759521927486
-0.389465244744095 -0.163686560555879 2.23920054537399
-0.402056792919705 -0.156505524953013 2.19539417998936
0.131712610298645 -0.226609717627436 2.29023950714043
0.161575290266489 -0.188946387993668 2.27163692024945
-0.38388193284127 -0.144457312225415 2.2769056501589
-0.404146024823987 -0.116177940419688 2.23450906170665
0.140565104779855 -0.18550919590229 2.3155131177527
0.166198121464724 -0.146956167450245 2.29768652411261
-0.375952250970573 -0.126261639341128 2.31573499636402
-0.399565917410101 -0.0981988890526681 2.27971445410644
0.117348133481232 -0.178414602858049 2.3546766386651
0.150096435624461 -0.140433004634659 2.34035688667238
-0.389509360105783 -0.0861755633802571 2.32769404477748
-0.407547205271427 -0.0519398890894962 2.29624069601082
0.124948214346185 -0.138448328843679 2.38302149629844
0.155387909025396 -0.100431783145132 2.36590813888422
-0.374011544329386 -0.07846872519484 2.36917188429865
-0.398023447496667 -0.0405908218217318 2.34356303006145
0.128577826812296 -0.10108570728837 2.41116088966185
0.152500318072092 -0.0632687125472349 2.39730450031707
-0.376644499125919 -0.0332498790979176 2.38643361540252
-0.344553857949873 -0.0218945586723948 2.42394142814792
-0.364106404467401 0.0115402349728379 2.40409552681841
0.0857803227020922 -0.0504966295696328 2.46751714089012
0.109338606396359 -0.0113025451252284 2.45316707270404
0.122540148147064 -0.0589375957521288 2.43718390620997
-0.318953655754339 0.00563826156581671 2.44304754358979
-0.266463420295704 0.0161240067399679 2.46493278746871
-0.298220926413188 0.0444013313625159 2.44734586919435
-0.216939576639627 0.0072693049404443 2.47383912378451
-0.16968280055839 0.0099378320292821 2.47905957803524
-0.123094837224089 0.00832771218640961 2.48456107132828
-0.0762935215776417 0.00665076779556868 2.4900735314208
-0.033411632859335 -0.00428072710281181 2.49612276097814
-0.00773038022225112 0.0319704511291072 2.49003784710957
0.0172486921323019 -0.00824530121219118 2.49441420928944
0.0659892055975375 -0.00829442614200711 2.47958499731151
-0.264557514158623 0.0735109237615692 2.44943066288682
-0.233115072484495 0.0497639603741962 2.46424403442904
-0.188970338306401 0.0548214507372218 2.46695525400209
-0.142889646161288 0.054595741354689 2.47142473100751
-0.096230830550051 0.0523474606141381 2.476644162918
-0.0478492003310081 0.0503713214670258 2.48190766046422
0.0081406197536356 0.0688559089391731 2.47411911927387
-0.344129484730854 -0.274140156065716 2.05894824690606
-0.327714440220774 -0.261659734042758 2.01967223562868
-0.297343468090438 -0.297379311278345 2.03438284210731
-0.24851970242121 -0.298925293118724 2.00754613087017
-0.206747674564687 -0.32215089644669 2.03424260057697
-0.156183440901283 -0.318270771065431 2.02750631079264
-0.106250445583282 -0.323602141169895 2.03579310398311
-0.0542339167025545 -0.327887835274616 2.04247998855227
-0.00897706757918487 -0.333565426339939 2.05142654974188
0.0350823373506599 -0.336813083656916 2.06762706973908
0.0776206930868876 -0.319055847965884 2.06622180077148
0.0901953298148719 -0.331272977535631 2.11460063907125
0.116985959831555 -0.305756201129718 2.0959867481787
-0.373897361102907 -0.250862606132641 2.0915514694218
-0.39122104613295 -0.204767695483227 2.07708296596767
-0.367931051205083 -0.232652228535744 2.04781493887832
0.133596350002838 -0.301678281692025 2.14046809164332
0.1497366815057 -0.274066223370709 2.10825890155356
0.159707999586588 -0.269074725945389 2.16330548032266
-0.405247517522863 -0.170531740037391 2.11246907382172
0.179767221864431 -0.227113467505648 2.15929115276237
-0.40807050552576 -0.138488235865085 2.1440300319519
0.171704686605976 -0.233464776332502 2.20201503028293
-0.408965832281304 -0.11492872044354 2.1860328061115
0.177591173089322 -0.190730518898736 2.22440213917323
-0.410776150628727 -0.0746151477322031 2.20024614874189
0.180421184883082 -0.149738416310491 2.24705689515607
-0.410709651427856 -0.0652768615058781 2.24719849783341
0.181281513359225 -0.111512496905416 2.27307539908212
-0.413541083457985 -0.0170004919726329 2.26404389947149
0.173513334243357 -0.0973600221673258 2.31805987275928
-0.409683852466093 -0.00439239211140312 2.31402944214099
0.173938111403196 -0.0573574193929731 2.34955088883755
-0.392855047158887 0.00551984113436925 2.3617597744048
-0.398979872750368 0.0418836614914413 2.33155256204562
0.142564071612878 -0.017881105634796 2.41951293695867
0.166885978675483 -0.0231227291070924 2.37864821361184
-0.375249718278282 0.0491347660763126 2.37751268585997
-0.34052124440745 0.045967541197395 2.41892015686665
-0.347146737936479 0.0865554697338592 2.38979327626443
0.0421723086466203 0.0329483540904047 2.48092715539846
0.0886601980903001 0.0317046163713155 2.45937575283254
0.127566885121164 0.0282540760239646 2.42747926055528
-0.310427428361128 0.0837925042021732 2.42335543627806
-0.269705773526881 0.110287263985907 2.42571648362249
-0.217365817550937 0.0948113896502741 2.44594499864421
-0.168314093010193 0.0965994911581824 2.4484884234173
-0.120984675795546 0.0952742986136093 2.45274974068332
-0.0736542891059305 0.0918993524158801 2.458340461207
-0.0276655446469335 0.0922379602461459 2.46130143010626
0.026073775565494 0.102476562826574 2.44831211344578
0.0595490635993902 0.0706541299097536 2.45791493362019
-0.31613757801172 -0.23125822809755 1.98322309401113
-0.28503623235149 -0.270396257788565 1.99409671764946
-0.236529630079094 -0.268643727716133 1.97382628964873
-0.199494719178266 -0.296341652260205 1.99817877665763
-0.155731412339342 -0.285087135867821 1.98850113726077
-0.115575233310783 -0.292801478377345 1.99795001123983
-0.068649110022066 -0.301604356713661 2.00885380599616
-0.0124913737818277 -0.303064256583683 2.01275539820208
0.0349606581818299 -0.312353436103926 2.03048947298372
0.0804138528160971 -0.289077020090323 2.02877172559219
0.118422252569264 -0.283753320320663 2.06081752555047
-0.379198348706984 -0.180796184411128 2.03216531214955
-0.351692887466435 -0.219417220356017 2.01245600481803
0.151483702108802 -0.247543255013927 2.06970056786864
0.171739000095003 -0.238139371078872 2.11759591194744
-0.39809895079207 -0.157262504091774 2.07103031610488
0.188673212785647 -0.190007374545711 2.12995170266596
-0.403082668187301 -0.115360698254604 2.09861310031004
0.187663584206146 -0.18558357443375 2.17954767053332
-0.406827869393787 -0.0899364870546147 2.14530263435978
0.188699581191174 -0.142366997215058 2.1998741008335
-0.405596087328712 -0.0456871520423768 2.16366754189886
0.188739789605539 -0.102231593516779 2.22526762170516
-0.410397463941213 -0.0280643428635462 2.21399645144666
0.1859328833311 -0.0694648201183683 2.269055398187
-0.408869047905315 0.0179102031516621 2.23099258242159
0.183014357763691 -0.0464034176041936 2.30751958066358
-0.410251043424763 0.0304034210088797 2.28188788477805
0.178497191212206 -0.00140693204442467 2.34111851137002
-0.394818415508821 0.0760011990086689 2.29912254427832
0.157392269331948 0.0203405641522746 2.38784604427731
-0.376055184477722 0.084845734532548 2.34641212639363
-0.342867967512612 0.121965072699979 2.35726137379253
0.101895880353191 0.0701171771743687 2.43028026310325
0.137156881097734 0.0641106769382755 2.39432531551036
-0.308996262005926 0.121150794321048 2.39431006151274
-0.2651992937571 0.147019959384255 2.39217961504689
-0.22978111784776 0.129314742114347 2.41919389004513
-0.18484406389628 0.132708614590333 2.41830508310403
-0.140726603577442 0.132805585716696 2.42019222316677
-0.0940435712628317 0.128738322180546 2.42632154745584
-0.0507457827326133 0.128258693064727 2.42874364949822
-0.00815473814130661 0.126105182508787 2.43223516863848
0.0693585422301775 0.10715782745387 2.42501263975487
-0.31236766553094 -0.197939364713608 1.95307951743685
-0.274245000008565 -0.237149183408752 1.95918957311279
-0.22728289945818 -0.235614142644544 1.94083642178263
-0.18788586310444 -0.261093769399991 1.96328095196139
-0.133960185043159 -0.252745117510613 1.95743282736789
-0.0881881988750504 -0.264891979911693 1.97152675975157
-0.0426430953662691 -0.276363364150311 1.98494141125746
0.000878644636171697 -0.265319838511615 1.97595572226732
0.0383442728972953 -0.281527465425978 1.99871744438592
0.0851819997842257 -0.25603998198486 1.99498647736595
0.121842133082085 -0.253520212705806 2.02768610327151
-0.373820353789577 -0.144553964208072 2.00049247373205
-0.349816676130682 -0.186237452660169 1.98628683403115
0.157781679244092 -0.215128282716697 2.03745988423797
0.177913830427515 -0.205274808356135 2.08348324479273
-0.39290694406196 -0.125857293711637 2.04406760437008
0.19532493674889 -0.15714568107357 2.1000666048167
-0.39598499861176 -0.0796179081519388 2.06391715973664
0.194532820209194 -0.144031928029676 2.15145922082806
-0.400280241441872 -0.0621322575472994 2.10998462796491
0.195360689377151 -0.0970473729138491 2.17486093036409
-0.399115305118107 -0.0156996166247117 2.13029459924297
0.193004599565465 -0.0580650421676665 2.21896029049997
-0.40364668333965 0.00308843365805578 2.17910938692033
0.191372644369192 -0.0256011919235524 2.25301220628404
-0.402253179106573 0.0503144958895509 2.19806787259454
0.187865302303888 -0.00468125084785784 2.29461952716662
-0.403612986366959 0.0642688582098229 2.24936104872402
0.184660091392047 0.0388754514230129 2.30836903535046
-0.388091104509684 0.109490916869466 2.26639466417091
0.166500026507212 0.0490754567748769 2.35289702910945
-0.369513519500139 0.118430749115712 2.31362781855024
-0.335365969607531 0.156101160338597 2.32468204437707
0.109129107276994 0.105478697253854 2.39581076319482
0.145098657670436 0.0963761012228623 2.36053304984786
-0.302218896765195 0.155049829294204 2.36124272437649
-0.25334908576729 0.179606536345246 2.36224371630369
-0.21334147477906 0.161881704323186 2.38811669821154
-0.162305409320287 0.167849610883423 2.38449814839481
-0.109708515776071 0.161197508982137 2.39345458534224
-0.0613160010118179 0.162258789926283 2.39457913438481
-0.0152605043728734 0.159874849644767 2.39901192933544
0.0323274744075954 0.139267102529329 2.4128998746268
0.0737561089373343 0.143160468690876 2.39132388679464
-0.306382664059164 -0.165358142187493 1.9215681876952
-0.268866430368678 -0.203624031945617 1.92697405050329
-0.220875991028766 -0.203964234841348 1.90974358147451
-0.176320722572003 -0.2298727579197 1.93286391969963
-0.128919353756608 -0.216081208271256 1.9213305124528
-0.0870471331052497 -0.230168802341004 1.93717267351276
-0.0425826158383968 -0.243384449324765 1.95226639316785
0.00393592470200969 -0.230089403526474 1.94118433075998
0.0468789480210411 -0.246654643486029 1.96498963626744
0.0926248109844882 -0.222067269365602 1.96210087431953
0.128384784053615 -0.221564843229756 1.99650521111118
-0.366880921031592 -0.110471218111328 1.96676267652687
-0.344020862073866 -0.154531424116372 1.95590939300333
0.164566561725004 -0.182453511635018 2.00594024552684
0.184946562551222 -0.171654541096319 2.05189777651609
-0.38608312624316 -0.0947827348135412 2.01136636293089
0.201883029841378 -0.124539388252299 2.06939261041682
-0.389235039419957 -0.0489209294637433 2.02881150504505
0.20092938028755 -0.110164752806801 2.12125658897938
-0.393498596778516 -0.0262981880864809 2.07791437117552
0.202724774234686 -0.063987364132776 2.13628017676068
-0.393160726556634 0.0196946328941559 2.10464487530388
0.19872792544751 -0.0466221511869755 2.17984552473496
-0.39705650454269 0.0373113526616311 2.14755872422842
0.198604567176153 -0.00260452509303111 2.20906159085945
-0.395440809287371 0.0826274599962169 2.16349154676186
0.194834176258214 0.0232016257509985 2.2561977663613
-0.397195771892797 0.0965028567268778 2.21601611831481
0.192246946916295 0.0693256164125229 2.27312213786478
-0.381480126048218 0.142254453063405 2.23452556280531
0.172526908567203 0.0853416632548922 2.31992347391466
-0.362340513289768 0.15206551579414 2.28167142312783
-0.326592018675557 0.189726214996862 2.29444472302957
0.115031999587318 0.139598959870291 2.3631791282778
0.150990827427081 0.131041027031224 2.32797322742421
-0.291956862368568 0.188399265070423 2.33132818133385
-0.243340065280161 0.212260218565035 2.33139587322873
-0.202199983250389 0.193644559246195 2.35714434783808
-0.157161930022508 0.206753098435857 2.34618166131717
-0.12020286150349 0.191034156492782 2.36341842097196
-0.072481325231537 0.193777115357869 2.3628463200114
-0.0221034164970795 0.193932712392376 2.36495745480234
0.0277523023702137 0.173914732525692 2.3818422944013
0.0755363404593312 0.176565140808441 2.36128938149746
-0.29968724208294 -0.132758138211615 1.88939743171508
-0.262805757943135 -0.170465288845835 1.89472038735021
-0.21648074727852 -0.171308663157712 1.87812637166101
-0.172523669009533 -0.197365509651302 1.90082494731817
-0.122614218602507 -0.181437058896869 1.8872856169938
-0.0807474100679093 -0.194745901404266 1.90235548425402
-0.0389814223615504 -0.209417728433118 1.91877210106589
0.00748214846752714 -0.195167509620246 1.90674080273211
0.050746048364487 -0.213592904471745 1.93163833486427
0.0962994394687668 -0.190189704050061 1.92887289458775
0.135064207257804 -0.1891388983201 1.96491803073092
-0.361401385700722 -0.075580294199623 1.93572077461759
-0.337381826813904 -0.122472048180814 1.9241124937608
0.170992780857927 -0.149951100612879 1.97386481763564
0.191601550932278 -0.138643231072129 2.0197337628652
-0.379653374404571 -0.0598041822852918 1.97904604371336
0.208248527402233 -0.092483806844531 2.03638153131581
-0.381833090340814 -0.0110623181838805 1.99300512729205
0.207857595521938 -0.0768889753470516 2.08635042032518
-0.386529016061352 -0.00220669289940597 2.03679408938809
0.209081593943289 -0.0275699221076966 2.10802835344709
-0.387617063524119 0.0296698893607357 2.06605063253883
0.204584898398859 -0.0106462372351456 2.15537452622289
-0.389656682291552 0.0707044399397818 2.10890704423019
0.205643294234814 0.0343489628507865 2.17562224827949
-0.389051943391495 0.114465430205809 2.13204560448789
0.201267993016692 0.0510925190077833 2.22186337849349
-0.390775015054975 0.128612984031427 2.1845020402684
0.199266310556398 0.0998131600944035 2.23973945973175
-0.374007186893546 0.175763983044984 2.20538792295916
0.179948115528259 0.117185016849165 2.28639190848577
-0.3545493530338 0.185461211546279 2.2514885258498
-0.319052566912236 0.222655241583156 2.26337301884091
0.120242162699836 0.172998561226348 2.33175609693775
0.157773808379273 0.163618468170359 2.29560618251387
-0.283471547675491 0.221224512636616 2.30054489044776
-0.236684883569991 0.245557532933397 2.29870170160351
-0.194928613977999 0.228814139541143 2.32262341564062
-0.144206812950453 0.241035451394683 2.31279421383678
-0.104957225134497 0.223925004881459 2.33151342496855
-0.0566566630190542 0.226446686433096 2.33118631262635
-0.00857513740576857 0.227122568834484 2.33267844119938
0.0314635561320023 0.205190232098283 2.35166818114174
0.0830892239302721 0.207539197354828 2.33012706973573
-0.300471242202811 -0.0976967888170232 1.86260876490535
-0.255930782485337 -0.136512974799881 1.86133709517613
-0.208045678710338 -0.139607216400809 1.8465877688738
-0.167005415418207 -0.166394547408116 1.87038483475213
-0.116963583877795 -0.148315731726072 1.85477300764523
-0.0734899537373152 -0.159085093508945 1.86734711911278
-0.0338134397204986 -0.173311817924474 1.88322737376685
0.00986579696602601 -0.159804858507384 1.87181951657158
0.0539762501650775 -0.180840192829914 1.89848692425425
0.100846550517176 -0.157873350389371 1.89582679658525
0.137833242007958 -0.159461448341247 1.93180994050655
-0.355546869263545 -0.0400906729869773 1.90451898927653
-0.334176346015337 -0.0880613744649848 1.89553615076046
0.171940671632425 -0.123159317883776 1.93830786968906
0.197971031686209 -0.10570137987593 1.98638910919039
-0.373043448312643 -0.0236031959958638 1.94580923012163
0.215657010219118 -0.0559388879353354 2.01439542203581
-0.375103008112089 0.0254206275173611 1.96542996738037
0.214133253031775 -0.0403863278322069 2.05881730816498
-0.380261655389077 0.0418080561962338 2.01413832927611
0.215680982600277 0.00751322095490743 2.07576117714977
-0.38359987152028 0.0709438608501895 2.0599047451422
0.211257177969648 0.0234157684961143 2.12305368927684
-0.382304787833579 0.114555122193266 2.07734016255362
0.212474416844764 0.068721335028527 2.14177449072064
-0.383226390555782 0.151278364572772 2.1084348446642
0.208013769713429 0.0858059187824304 2.1893628474387
-0.383898303546785 0.162310093791363 2.15752888613952
0.205660398437713 0.1328073613064 2.20802630106617
-0.367226954867613 0.20876340813141 2.17384230059028
0.186780835767084 0.149039464153668 2.25410567767351
-0.347195026503463 0.218869192730557 2.22022887448456
-0.312499991474867 0.255454375727906 2.23116099492914
0.127446880940285 0.205643268537327 2.29907304423981
0.164536838005963 0.196254569913911 2.26315813218333
-0.277206046343262 0.253894179854888 2.26826925228361
-0.230687454978866 0.278415241228704 2.26618941272876
-0.187268478709682 0.26219242114712 2.28989417761553
-0.138494019805363 0.273166469324053 2.28118536769676
-0.0910744793636707 0.258583632005831 2.29779530884804
-0.0410641191817636 0.258990490471965 2.29964071115226
0.00544267347312906 0.258942397672501 2.30177939136152
0.0442491493883211 0.235943131997351 2.31998562420765
0.0905758407414339 0.240220525811145 2.2975043335989
-0.263119087764778 -0.0999742719438372 1.83724445566098
-0.221606347759838 -0.104798969776801 1.82394218679048
-0.17515684618112 -0.102914546554401 1.81769607734479
-0.160666993357669 -0.13558243284544 1.84106293687769
-0.123093338450545 -0.109082905254115 1.82501046889433
-0.0764920050190512 -0.120893414483029 1.83570163025128
-0.0297643766668782 -0.131968810845463 1.84642500444023
0.0182617737021502 -0.121863109264038 1.84337112489469
0.0573900052593745 -0.148733853213139 1.86751034706166
0.10208512490632 -0.123078923928518 1.86616938466609
0.142355804422003 -0.12568814590427 1.89923038256431
-0.342778036125771 -0.00458746552550455 1.87745473193872
-0.326571243146644 -0.0522353083273339 1.86547828323036
0.191370545165013 -0.0858756198951956 1.93928945249451
0.209258733277147 -0.0615916106745247 1.97151450100084
-0.362902810126245 0.0139468662757611 1.91594740335953
0.215164217837079 -0.0177729618790116 1.98004904321749
-0.359578317974867 0.0592885783306891 1.93484647462939
0.218036792134625 -0.00380653777839018 2.02476679427618
-0.369217971450701 0.0751909821910261 1.97897651528571
0.214945333030263 0.040700730507022 2.04141112452334
-0.376068194300951 0.0948676170999598 2.02385580007906
0.215218563219022 0.0583272020353766 2.08820761246553
-0.369614826078723 0.141073134453356 2.03645280066227
0.212502437097803 0.101895512203281 2.10813689275878
-0.372442831232114 0.170111342175969 2.07090337521641
0.212410837080334 0.119727445966155 2.15462009777644
-0.376269669038339 0.194323864365507 2.12434846151652
0.20685739459816 0.162472847776583 2.17469833008564
-0.358097215964678 0.235949798322414 2.13725946076138
0.191471252589808 0.181713190577302 2.22189160500919
-0.340640555398916 0.250130934596319 2.18607900269771
-0.304771287812952 0.282996327097743 2.19637570078855
0.132919867541552 0.238242893733211 2.26499335410404
0.164816875899074 0.228090331970353 2.22855739711796
-0.269426826177497 0.285797027266414 2.23534275877687
-0.220577242633286 0.30758313743767 2.22889578831292
-0.183516794473187 0.294572886584508 2.25482674147531
-0.141595689447464 0.302165667075517 2.24384974120941
-0.0976084833215767 0.292678545797563 2.25857940573702
-0.0530143855495998 0.288274271734733 2.26535262239404
-0.00295587716558923 0.287252076151226 2.26719452129382
0.0487465778859472 0.269881726398394 2.28517614858692
0.0941687016633644 0.269194990956358 2.26268335874258
-0.288074128179936 -0.0591883417307562 1.83344698696045
-0.242651777635033 -0.0619087576919514 1.81133733872774
-0.194978614805069 -0.064365797985655 1.80194917363637
-0.143169868586023 -0.0687119159336262 1.80529689943052
-0.0927459208408849 -0.0754480924460392 1.81242361043836
-0.04673777255044 -0.0854484475595334 1.82037433251176
-0.00263347080258265 -0.0852465987650464 1.8244583591275
0.0444983192517531 -0.0753907543660541 1.8260838072063
0.0645541356705397 -0.109738998873198 1.84340593320322
0.096934069843331 -0.0745713692441505 1.84072056726171
0.13320018817583 -0.0907896430163009 1.86834375742767
-0.307625303365532 -0.0167063388491007 1.83960494311693
-0.281991042379015 0.0240146187128375 1.82364283220032
-0.265056372106896 -0.0200048016439505 1.81247850614691
0.143831594379288 -0.0500822394804314 1.86362412571482
0.169560766804519 -0.0820824588655428 1.90049754342484
0.173372254446513 -0.0351401593359913 1.89097938321224
-0.339199395723034 0.0501031745011804 1.88643356790667
-0.319563083367168 0.0258236676281354 1.85366651353701
0.197396014518934 -0.0393885447411 1.92905355504082
0.203082850049203 0.00354473975421606 1.94384883057377
-0.335639619719246 0.089118851193115 1.91081100983714
0.209092891453017 0.0316555205899398 1.98575221301637
-0.345401297635798 0.111200480534928 1.9490834751858
0.204392055338289 0.0703821763618289 2.01131304513404
-0.357862431923366 0.1240967546628 1.98812636113044
0.207107821414309 0.0934557653690286 2.05239150058148
-0.346478194324281 0.164002320559167 1.99981728234214
0.202544757375202 0.132034923546281 2.07764135309411
-0.350126071840485 0.194262498122151 2.03479838966429
0.205056934085887 0.15491604719268 2.11851399198436
-0.3635751422145 0.212359788939021 2.08654854154971
0.197808576339171 0.19201746102668 2.14314315507395
-0.329339352724623 0.273229464572057 2.14729495298556
-0.341322768293987 0.255275826339078 2.09958464870555
-0.310116679311517 0.288263269323955 2.10416964442394
0.188403909425422 0.209697525817294 2.18654950799885
0.175417363727906 0.233454441203309 2.14173996098945
0.162201358924763 0.248584359304377 2.18626590685586
-0.261333257713611 0.30887868794214 2.19731634961204
-0.295113836948791 0.300667032711622 2.15632194060409
-0.253056534695989 0.321975327512026 2.15422584043581
0.129586932537842 0.267206630499645 2.22448500026454
0.0976257095346176 0.297767847685897 2.1869524776577
0.0851537645343787 0.292812405483595 2.22607557080601
-0.213940403267065 0.325367964444424 2.18795613226201
-0.170065733562724 0.320327684666073 2.20807561712348
-0.117184800222154 0.317605731519373 2.21072619123059
-0.0727875310445516 0.312717644689472 2.21987642465466
-0.0290201015219331 0.309291172563813 2.22519094361264
0.0137097027086905 0.308018019433853 2.22476589594445
0.0467035518252222 0.29442440538152 2.24879358885226
-0.216196870707877 -0.0216565717664842 1.79666072942255
-0.164948443626028 -0.0262259842350979 1.79413462009632
-0.114237724978005 -0.0304857847233297 1.80022871198941
-0.0664312065254935 -0.0355006119791306 1.80625573820838
-0.0216534202198147 -0.0392327312797576 1.81179523711071
0.0224556139381768 -0.0352631354664182 1.81651913324926
0.0710419840017881 -0.0339488775506462 1.82435772822366
-0.237754224201543 0.0202709444124041 1.80315310013118
-0.21016283834969 0.0576488928187011 1.80552567377817
-0.186355581506455 0.0173988378523251 1.79409298346469
-0.135603378001466 0.0137236992545353 1.79759159399964
-0.0879603077199542 0.01246452468177 1.80374580755998
-0.0407423544900958 0.00886176276011173 1.80957901048108
0.00403115663219775 0.0102082386630932 1.81574621750084
0.0509419829999118 0.00930213430753225 1.82203982357327
0.0990694677925742 0.0107607016904859 1.83674730026785
0.146013505233092 0.00273903113531829 1.86471831973957
0.114560392275683 -0.0296283532202998 1.84166241766951
-0.299673177104466 0.0653506249559551 1.84973342133549
-0.267323811154588 0.103594802998682 1.85034662560576
-0.257037687814394 0.0641779488196712 1.82222496066108
0.122395458737413 0.0452151108010955 1.85959783324369
0.179863687616198 0.00726669573878285 1.90220413893656
0.158407313622446 0.0471351039234719 1.89152566859389
-0.307267705143067 0.0977538874814604 1.87924088960327
-0.273612549563762 0.136145088621 1.88490046273171
0.188612689570428 0.0447806848383784 1.93511917206187
0.161130989753283 0.0835587082733709 1.92399460327762
-0.311644887363995 0.1322069971886 1.91726578743762
-0.280413974797113 0.16821349915722 1.92135547755101
0.187794943739329 0.0766672731691297 1.96680287485022
0.159420336666884 0.117365054658336 1.95784765289088
-0.322603734830481 0.158514743208575 1.95625963263856
-0.285068283153013 0.197852275848524 1.95394650874015
0.186610671950336 0.110903721544758 2.00225417601045
0.158599791070781 0.150203254014551 1.99199199271413
-0.319182333142438 0.198191955661089 1.98945426034376
-0.282887447898101 0.233113518015308 1.98648182820141
0.186108845680415 0.14073647527896 2.03446668053942
0.158135980453399 0.182373752448697 2.02597073774996
-0.316145437331097 0.234319863993519 2.02016106781954
-0.282038394005389 0.270339210367646 2.02363455027364
0.185263838222256 0.174430839036011 2.07019405230678
0.157127964834785 0.214719152118219 2.05931986347661
-0.339791021576411 0.235392963782542 2.05649459245644
-0.310209075189166 0.272099105903816 2.05971902411411
0.183748555867068 0.204684592831528 2.10185711101349
0.154077613898733 0.244541523841314 2.09458356420379
-0.276726901993813 0.311601947518963 2.11431439339984
-0.27161933672177 0.301964432461653 2.06652830517835
-0.23899741288621 0.324288595321072 2.09977786130912
0.13199155368625 0.27822857292779 2.17727741136993
0.145690968963588 0.26625032009577 2.13582399953023
0.106012128507538 0.294118678835389 2.13506852204991
-0.214510286923935 0.332552781054931 2.13948238357376
-0.188838151257669 0.332288696312344 2.1037355965212
-0.174029521807262 0.332975329056393 2.15815654137955
-0.144961181002688 0.331094616923059 2.11733100610148
-0.131628325299266 0.329077926967767 2.16762179645534
-0.100891744115941 0.327613376308859 2.12275377460761
-0.0848718740122886 0.325751165068334 2.17065245732601
-0.0560793623329424 0.323880094512593 2.12643678763561
-0.0406266087360871 0.322147835809816 2.17694868833299
-0.0125496385750832 0.320281306228202 2.13038492117548
0.00385945007714027 0.319035517168253 2.17917889301854
0.0316126644429392 0.317087365594201 2.13851709341731
0.0494609334102187 0.31235562342157 2.19447562692993
0.0692658702640581 0.310632629697077 2.15139474929448
-0.179126473167987 0.0909648979230585 1.81766619931022
-0.156885838113226 0.0559078165399075 1.80373309792338
-0.11116553759434 0.058214645227511 1.81131497782673
-0.0624806913612621 0.0538963641611585 1.81714241267351
-0.0175870468283184 0.0556121843213914 1.82464697633354
0.0277800748689913 0.0547141564610342 1.83131012220194
0.0737555426147788 0.0506126428749744 1.83880646269977
-0.224127108805857 0.099996555979254 1.82903051107749
-0.181350563362671 0.127082200928533 1.84330524132463
-0.13551654221895 0.101042394576519 1.82872097953507
-0.0846400195280931 0.0938801745318135 1.83297902520392
-0.0403325669231519 0.0971613066132464 1.84288170554437
0.00417246682904245 0.0970712631458374 1.85076413587327
0.0493233870241221 0.0940863385638368 1.85675636223559
0.0926572324415494 0.0842480555836737 1.86428928678989
0.127262504157835 0.0875175822545137 1.8893427136571
-0.228847051274902 0.135415375049758 1.85995769393885
-0.188816247307519 0.160516147576591 1.87673954488805
-0.143037916906077 0.143534171710693 1.86389737535379
-0.103955536439832 0.127089833378556 1.85525139687187
-0.0611667434899078 0.132480627591983 1.86931233388321
-0.0174807330836326 0.133148572183785 1.878889856204
0.030592723317583 0.129334191879461 1.88479528781688
0.0803616594690978 0.121422316167187 1.89120899868189
0.125059384016965 0.120027947707279 1.92018309259078
-0.235515886639658 0.167696241749808 1.89450959491363
-0.190318741434129 0.192634886772525 1.90915609673834
-0.144382396634919 0.177330779602313 1.89804397433933
-0.0979045860765462 0.160480496011253 1.89034775172035
-0.050961213791422 0.167366587770596 1.90692067734566
-0.000809268722382697 0.163308754931643 1.91300145923973
0.0469512447223301 0.159057980656874 1.91841078198499
0.0889749785815615 0.151188298379945 1.9263492197651
0.124105793214119 0.154627233955863 1.9556723405635
-0.238820491098603 0.19897271745053 1.92683956989216
-0.192667482235627 0.223195809049632 1.94005992587358
-0.143803362389279 0.211402747810764 1.93286248082287
-0.101371335770825 0.193244211085032 1.9230095609495
-0.0634867175947876 0.202087842532053 1.93973155824304
-0.0188254804302799 0.19607650455148 1.9427044259863
0.0291446237928684 0.192374380522521 1.94870276538104
0.0781335590078854 0.185955396639313 1.95666732295858
0.123250803539805 0.185693033883121 1.98754208176948
-0.241866420898207 0.229386408581407 1.95823317090338
-0.198833045407053 0.25344055765308 1.97098634271572
-0.148902988022333 0.243565799986473 1.96457969635553
-0.0997674963302155 0.231225350083719 1.96201889933675
-0.0482434271956719 0.231423998646915 1.97271357098048
-0.00011948425369783 0.226668819702709 1.97767133649795
0.0462510743272143 0.22314189001321 1.98358278123333
0.0876754741718002 0.215981476202042 1.99266301452156
0.122653916066779 0.219734817262619 2.02279166479805
-0.246317663658946 0.262130654200513 1.99257886562223
-0.208334825768919 0.284217123634955 2.00369998174164
-0.161400119575089 0.277276860250938 1.99643368222542
-0.114871304389383 0.267036471483667 1.99541491173629
-0.0702588075590581 0.262521935756532 1.99990171223695
-0.0213127256183697 0.260283256587644 2.00759005596198
0.0274580100363552 0.256596223041839 2.01376646441099
0.0764898151113046 0.250869612759066 2.02280363840298
0.12125869344267 0.25022475691454 2.05447678936544
-0.241898508538691 0.296769771368057 2.0317746569636
-0.185293181757721 0.306544312750623 2.03225355338258
-0.136603928837468 0.30005402248418 2.03074861108305
-0.0920059274778812 0.295186939426847 2.03416452724761
-0.047172462858999 0.291013464934015 2.03872904178095
-0.000830864107070894 0.28797173085399 2.04537630955815
0.0442106228654755 0.285004274783231 2.05197638476757
0.0848337498308625 0.278248771724411 2.06202904391708
0.1166325103746 0.277383580639212 2.09536775062967
-0.216866177954853 0.31883410603376 2.06301709760612
-0.162694688668508 0.322155392982194 2.06872961268317
-0.116958881326675 0.318649297922163 2.07466676311252
-0.071926673323174 0.314576263840715 2.07875698470808
-0.0262026088869768 0.310459870823266 2.08299760470525
0.0209065441532541 0.307274023447903 2.09027798445723
0.0677829986445359 0.302085617317884 2.1004420396104
3 0 1 2
3 0 2 4
3 3 0 4
3 3 4 6
3 5 3 6
3 5 6 8
3 7 5 8
3 7 8 10
3 9 7 10
3 9 10 12
3 11 9 12
3 13 11 14
3 14 11 12
3 13 14 15
3 16 17 18
3 16 18 1
3 0 19 1
3 19 16 1
3 0 3 20
3 19 0 20
3 3 5 21
3 20 3 21
3 5 7 22
3 21 5 22
3 7 9 23
3 22 7 23
3 9 11 24
3 23 9 24
3 24 11 25
3 25 11 13
3 13 15 26
3 27 13 26
3 25 13 27
3 27 26 28
3 17 16 30
3 30 16 29
3 29 19 31
3 29 16 19
3 31 20 32
3 31 19 20
3 32 21 33
3 32 20 21
3 21 22 33
3 33 22 34
3 22 23 34
3 34 23 35
3 23 24 35
3 35 24 36
3 24 25 36
3 36 25 37
3 37 27 38
3 37 25 27
3 38 28 39
3 38 27 28
3 30 40 41
3 30 29 40
3 29 31 42
3 40 29 42
3 31 32 43
3 42 31 43
3 32 33 44
3 43 32 44
3 33 34 45
3 44 33 45
3 34 35 46
3 45 34 46
3 35 36 47
3 46 35 47
3 36 37 47
3 47 37 48
3 37 38 48
3 48 38 49
3 49 39 50
3 49 38 39
3 40 51 52
3 41 40 52
3 51 42 53
3 51 40 42
3 42 43 53
3 53 43 54
3 43 44 54
3 54 44 55
3 44 45 55
3 55 45 56
3 45 46 56
3 56 46 57
3 46 47 58
3 57 46 58
3 47 48 59
3 58 47 59
3 48 49 60
3 59 48 60
3 49 50 61
3 60 49 61
3 51 62 63
3 52 51 63
3 51 53 64
3 62 51 64
3 53 54 65
3 64 53 65
3 54 55 66
3 65 54 66
3 55 56 67
3 66 55 67
3 56 57 67
3 67 57 68
3 57 58 69
3 68 57 69
3 58 59 69
3 69 59 70
3 59 60 70
3 70 60 71
3 71 61 72
3 71 60 61
3 62 73 74
3 63 62 74
3 62 64 75
3 73 62 75
3 64 65 75
3 75 65 76
3 65 66 76
3 76 66 77
3 66 67 77
3 77 67 78
3 67 68 78
3 78 68 79
3 79 69 80
3 79 68 69
3 80 70 81
3 80 69 70
3 81 71 82
3 81 70 71
3 82 72 83
3 82 71 72
3 74 73 85
3 85 73 84
3 84 73 86
3 86 73 75
3 75 76 86
3 86 76 87
3 76 77 88
3 87 76 88
3 77 78 89
3 88 77 89
3 78 79 90
3 89 78 90
3 79 80 91
3 90 79 91
3 80 81 92
3 91 80 92
3 81 82 93
3 92 81 93
3 93 83 94
3 93 82 83
3 84 95 85
3 84 86 96
3 97 84 96
3 95 84 97
3 96 87 98
3 96 86 87
3 87 88 98
3 98 88 99
3 88 89 99
3 99 89 100
3 89 90 100
3 100 90 101
3 101 91 102
3 101 90 91
3 102 92 103
3 102 91 92
3 92 93 103
3 105 103 104
3 103 93 104
3 93 94 104
3 96 106 97
3 96 98 107
3 106 96 107
3 98 99 108
3 107 98 108
3 99 100 109
3 108 99 109
3 100 101 110
3 109 100 110
3 101 102 111
3 110 101 111
3 111 102 112
3 112 102 103
3 103 105 112
3 117 114 115
3 116 113 117
3 117 113 114
3 116 117 119
3 118 116 119
3 118 119 121
3 120 118 121
3 120 121 123
3 122 120 123
3 122 123 125
3 124 122 125
3 124 125 127
3 126 124 127
3 126 127 128
3 129 130 131
3 114 129 131
3 114 113 129
3 113 2 129
3 129 2 1
3 4 113 116
3 4 2 113
3 6 116 118
3 6 4 116
3 8 118 120
3 8 6 118
3 10 120 122
3 10 8 120
3 12 122 124
3 12 10 122
3 14 124 126
3 14 12 124
3 133 126 128
3 15 14 126
3 15 126 133
3 132 15 133
3 132 133 134
3 135 136 137
3 137 17 135
3 137 18 17
3 18 137 130
3 129 18 130
3 18 129 1
3 15 132 26
3 139 132 134
3 139 138 132
3 138 28 26
3 132 138 26
3 138 139 140
3 136 135 142
3 142 135 141
3 17 30 135
3 135 30 141
3 143 39 28
3 138 143 28
3 143 140 144
3 143 138 140
3 141 145 146
3 142 141 146
3 41 145 141
3 30 41 141
3 147 39 143
3 147 50 39
3 147 144 148
3 147 143 144
3 145 149 150
3 146 145 150
3 52 149 145
3 41 52 145
3 151 50 147
3 151 155 50
3 151 148 152
3 151 147 148
3 149 153 154
3 150 149 154
3 63 153 149
3 52 63 149
3 155 61 50
3 155 72 61
3 155 151 156
3 156 151 152
3 154 157 158
3 154 153 157
3 74 157 153
3 63 74 153
3 159 72 155
3 159 83 72
3 159 156 160
3 159 155 156
3 158 157 162
3 162 157 161
3 74 85 161
3 157 74 161
3 163 83 159
3 163 94 83
3 163 160 164
3 163 159 160
3 161 165 162
3 165 95 166
3 165 161 95
3 161 85 95
3 165 166 167
3 95 97 166
3 105 104 168
3 170 94 163
3 170 168 94
3 169 168 170
3 94 168 104
3 163 164 170
3 166 171 167
3 173 171 172
3 172 171 106
3 171 97 106
3 171 166 97
3 172 107 174
3 172 106 107
3 174 108 175
3 174 107 108
3 175 109 176
3 175 108 109
3 176 110 177
3 176 109 110
3 177 111 178
3 177 110 111
3 178 112 180
3 178 111 112
3 181 105 168
3 181 180 105
3 179 178 180
3 180 112 105
3 168 169 181
3 172 182 173
3 182 172 183
3 183 172 174
3 174 175 184
3 183 174 184
3 175 176 185
3 184 175 185
3 176 177 186
3 185 176 186
3 177 178 187
3 186 177 187
3 187 179 188
3 187 178 179
3 179 180 229
3 189 190 191
3 114 131 191
3 115 114 191
3 115 191 192
3 115 192 193
3 117 115 193
3 119 193 194
3 119 117 193
3 119 194 121
3 121 194 195
3 121 195 123
3 123 195 196
3 123 196 125
3 125 196 197
3 127 197 198
3 127 125 197
3 128 198 199
3 200 128 199
3 128 127 198
3 200 199 201
3 202 203 204
3 131 130 189
3 190 189 204
3 189 130 202
3 189 202 204
3 131 189 191
3 128 200 133
3 134 200 205
3 206 205 201
3 134 133 200
3 205 200 201
3 205 206 207
3 136 208 203
3 202 137 136
3 202 136 203
3 137 202 130
3 134 205 139
3 139 205 207
3 140 139 207
3 211 207 209
3 136 142 208
3 208 142 210
3 211 140 207
3 211 144 140
3 146 212 210
3 142 146 210
3 148 144 213
3 213 144 211
3 150 214 212
3 146 150 212
3 215 148 213
3 215 152 148
3 154 216 150
3 150 216 214
3 219 152 217
3 217 152 215
3 158 218 216
3 154 158 216
3 219 156 152
3 219 160 156
3 158 220 218
3 158 162 220
3 221 160 219
3 221 164 160
3 162 165 222
3 223 220 222
3 220 162 222
3 165 167 222
3 169 170 224
3 225 164 221
3 224 170 164
3 224 164 225
3 222 226 223
3 167 171 227
3 226 167 227
3 226 227 228
3 226 222 167
3 171 173 227
3 180 181 229
3 181 169 230
3 231 169 224
3 230 169 231
3 230 229 181
3 224 225 271
3 227 232 228
3 232 182 233
3 232 173 182
3 227 173 232
3 182 183 234
3 233 182 234
3 183 184 234
3 234 184 235
3 184 185 235
3 235 185 236
3 185 186 236
3 236 186 237
3 186 187 237
3 237 187 238
3 238 188 239
3 238 187 188
3 188 179 229
3 240 239 188
3 240 188 229
3 229 230 240
3 191 190 242
3 242 190 241
3 192 242 243
3 192 191 242
3 192 243 244
3 193 192 244
3 194 244 245
3 194 193 244
3 194 245 246
3 195 194 246
3 195 246 247
3 196 195 247
3 196 247 248
3 197 196 248
3 197 248 249
3 198 197 249
3 199 198 249
3 250 199 249
3 201 199 251
3 251 199 250
3 204 252 253
3 204 203 252
3 190 253 241
3 190 204 253
3 206 251 254
3 206 201 251
3 207 206 255
3 255 206 254
3 203 256 252
3 203 208 256
3 257 209 255
3 255 209 207
3 210 258 208
3 208 258 256
3 211 209 259
3 259 209 257
3 212 260 210
3 210 260 258
3 213 211 259
3 261 213 259
3 214 262 260
3 212 214 260
3 215 213 261
3 263 215 261
3 216 264 214
3 214 264 262
3 217 215 263
3 265 217 263
3 218 266 264
3 216 218 264
3 219 217 265
3 267 219 265
3 218 268 266
3 218 220 268
3 221 219 267
3 269 221 267
3 223 270 268
3 220 223 268
3 225 221 269
3 271 225 269
3 223 226 272
3 270 223 272
3 272 228 273
3 272 226 228
3 274 231 275
3 274 230 231
3 275 231 271
3 271 231 224
3 273 228 276
3 276 228 232
3 276 233 277
3 276 232 233
3 233 234 278
3 277 233 278
3 234 235 279
3 278 234 279
3 235 236 280
3 279 235 280
3 236 237 281
3 280 236 281
3 237 238 282
3 281 237 282
3 238 239 283
3 282 238 283
3 327 239 284
3 284 239 240
3 240 230 274
3 284 240 274
3 241 285 286
3 242 241 286
3 242 286 243
3 243 286 287
3 243 287 288
3 244 243 288
3 245 288 289
3 245 244 288
3 245 289 246
3 246 289 290
3 246 290 247
3 247 290 291
3 247 291 248
3 248 291 292
3 248 292 293
3 249 248 293
3 249 293 250
3 250 293 294
3 250 294 295
3 251 250 295
3 252 296 297
3 253 252 297
3 241 297 285
3 241 253 297
3 254 295 298
3 254 251 295
3 254 298 299
3 255 254 299
3 256 300 252
3 252 300 296
3 257 255 299
3 301 257 299
3 258 302 300
3 256 258 300
3 259 257 303
3 303 257 301
3 260 304 258
3 258 304 302
3 261 259 303
3 305 261 303
3 262 306 304
3 260 262 304
3 263 261 305
3 307 263 305
3 264 308 262
3 262 308 306
3 265 263 307
3 309 265 307
3 266 310 308
3 264 266 308
3 267 265 309
3 311 267 309
3 266 312 310
3 266 268 312
3 269 267 311
3 313 269 311
3 270 314 312
3 268 270 312
3 271 269 315
3 315 269 313
3 270 272 316
3 314 270 316
3 316 273 317
3 316 272 273
3 318 275 319
3 318 274 275
3 275 271 315
3 319 275 315
3 273 276 320
3 317 273 320
3 276 277 320
3 320 277 321
3 277 278 322
3 321 277 322
3 322 279 323
3 322 278 279
3 279 280 323
3 323 280 324
3 280 281 324
3 324 281 325
3 281 282 325
3 325 282 326
3 282 283 326
3 326 283 327
3 283 239 327
3 327 284 328
3 284 274 318
3 328 284 318
3 285 329 330
3 286 285 330
3 286 330 287
3 287 330 331
3 287 331 332
3 288 287 332
3 288 332 289
3 289 332 333
3 289 333 334
3 290 289 334
3 290 334 335
3 291 290 335
3 291 335 292
3 292 335 336
3 292 336 337
3 293 292 337
3 293 337 294
3 294 337 338
3 294 338 339
3 295 294 339
3 296 340 341
3 297 296 341
3 285 341 329
3 285 297 341
3 298 339 342
3 298 295 339
3 298 342 343
3 299 298 343
3 300 344 296
3 296 344 340
3 301 299 343
3 345 301 343
3 302 346 344
3 300 302 344
3 303 301 347
3 347 301 345
3 304 348 302
3 302 348 346
3 305 303 347
3 349 305 347
3 306 350 348
3 304 306 348
3 307 305 351
3 351 305 349
3 308 352 306
3 306 352 350
3 309 307 353
3 353 307 351
3 310 354 352
3 308 310 352
3 311 309 355
3 355 309 353
3 312 356 310
3 310 356 354
3 313 311 355
3 357 313 355
3 314 358 356
3 312 314 356
3 315 313 359
3 359 313 357
3 314 316 360
3 358 314 360
3 360 317 361
3 360 316 317
3 362 319 363
3 362 318 319
3 319 315 359
3 363 319 359
3 317 320 364
3 361 317 364
3 320 321 364
3 364 321 365
3 321 322 366
3 365 321 366
3 322 323 366
3 366 323 367
3 323 324 368
3 367 323 368
3 324 325 369
3 368 324 369
3 325 326 370
3 369 325 370
3 326 327 371
3 370 326 371
3 327 328 371
3 371 328 372
3 328 318 362
3 372 328 362
3 329 373 374
3 330 329 374
3 330 374 331
3 331 374 375
3 331 375 376
3 332 331 376
3 332 376 333
3 333 376 377
3 333 377 378
3 334 333 378
3 334 378 379
3 335 334 379
3 335 379 336
3 336 379 380
3 336 380 381
3 337 336 381
3 337 381 338
3 338 381 382
3 338 382 383
3 339 338 383
3 340 384 385
3 341 340 385
3 329 385 373
3 329 341 385
3 342 383 386
3 342 339 383
3 342 386 387
3 343 342 387
3 344 388 340
3 340 388 384
3 345 343 387
3 389 345 387
3 346 390 388
3 344 346 388
3 347 345 391
3 391 345 389
3 348 392 346
3 346 392 390
3 349 347 391
3 393 349 391
3 350 394 348
3 348 394 392
3 351 349 395
3 395 349 393
3 352 396 350
3 350 396 394
3 353 351 395
3 397 353 395
3 354 398 396
3 352 354 396
3 355 353 399
3 399 353 397
3 356 400 354
3 354 400 398
3 357 355 399
3 401 357 399
3 358 402 400
3 356 358 400
3 359 357 403
3 403 357 401
3 358 360 404
3 402 358 404
3 404 361 405
3 404 360 361
3 406 363 407
3 406 362 363
3 363 359 403
3 407 363 403
3 361 364 408
3 405 361 408
3 364 365 408
3 408 365 409
3 365 366 410
3 409 365 410
3 366 367 410
3 410 367 411
3 367 368 412
3 411 367 412
3 368 369 412
3 412 369 413
3 369 370 413
3 413 370 414
3 370 371 415
3 414 370 415
3 371 372 415
3 415 372 416
3 372 362 406
3 416 372 406
3 373 417 418
3 374 373 418
3 374 418 375
3 375 418 419
3 375 419 420
3 376 375 420
3 376 420 377
3 377 420 421
3 377 421 422
3 378 377 422
3 378 422 423
3 379 378 423
3 380 423 424
3 380 379 423
3 380 424 425
3 381 380 425
3 382 425 426
3 382 381 425
3 382 426 427
3 383 382 427
3 384 428 429
3 385 384 429
3 373 429 417
3 373 385 429
3 386 427 430
3 386 383 427
3 386 430 431
3 387 386 431
3 384 432 428
3 384 388 432
3 389 387 431
3 433 389 431
3 390 434 432
3 388 390 432
3 435 389 433
3 435 391 389
3 390 436 434
3 390 392 436
3 393 391 435
3 437 393 435
3 394 438 436
3 392 394 436
3 395 393 439
3 439 393 437
3 396 440 438
3 394 396 438
3 397 395 439
3 441 397 439
3 398 442 440
3 396 398 440
3 399 397 443
3 443 397 441
3 400 444 398
3 398 444 442
3 401 399 443
3 445 401 443
3 402 446 444
3 400 402 444
3 403 401 447
3 447 401 445
3 402 404 448
3 446 402 448
3 448 405 449
3 448 404 405
3 450 407 451
3 450 406 407
3 407 403 447
3 451 407 447
3 405 408 452
3 449 405 452
3 408 409 452
3 452 409 453
3 409 410 454
3 453 409 454
3 410 411 454
3 454 411 455
3 411 412 456
3 455 411 456
3 412 413 456
3 456 413 457
3 457 414 458
3 457 413 414
3 414 415 459
3 458 414 459
3 415 416 459
3 459 416 460
3 416 406 450
3 460 416 450
3 418 461 462
3 418 417 461
3 419 462 463
3 419 418 462
3 419 463 464
3 420 419 464
3 420 464 421
3 421 464 465
3 421 465 466
3 422 421 466
3 422 466 467
3 423 422 467
3 424 467 468
3 424 423 467
3 424 468 469
3 425 424 469
3 426 469 470
3 426 425 469
3 427 426 471
3 471 426 470
3 429 428 473
3 473 428 472
3 417 473 505
3 417 429 473
3 430 427 471
3 520 430 471
3 431 474 475
3 431 430 474
3 428 476 472
3 428 432 476
3 433 431 475
3 477 433 475
3 434 478 476
3 432 434 476
3 479 433 477
3 479 435 433
3 434 480 478
3 434 436 480
3 437 435 479
3 481 437 479
3 438 482 436
3 436 482 480
3 439 437 483
3 483 437 481
3 440 484 482
3 438 440 482
3 441 439 483
3 485 441 483
3 442 486 440
3 440 486 484
3 443 441 487
3 487 441 485
3 444 488 442
3 442 488 486
3 445 443 487
3 489 445 487
3 444 446 488
3 488 446 490
3 491 445 489
3 491 447 445
3 490 446 492
3 492 446 448
3 492 449 493
3 492 448 449
3 494 451 495
3 494 450 451
3 451 447 491
3 495 451 491
3 449 452 496
3 493 449 496
3 496 453 497
3 496 452 453
3 453 454 498
3 497 453 498
3 498 455 499
3 498 454 455
3 455 456 500
3 499 455 500
3 456 457 501
3 500 456 501
3 457 458 502
3 501 457 502
3 458 459 503
3 502 458 503
3 503 460 504
3 503 459 460
3 504 460 494
3 494 460 450
3 461 505 506
3 462 461 506
3 507 463 462
3 507 462 506
3 465 463 508
3 508 463 507
3 464 463 465
3 465 508 509
3 465 509 466
3 466 509 510
3 466 510 467
3 467 510 511
3 467 511 468
3 468 511 512
3 468 512 513
3 469 468 513
3 469 513 470
3 515 470 514
3 470 513 514
3 470 515 471
3 472 516 473
3 518 516 517
3 518 505 516
3 461 417 505
3 505 473 516
3 505 518 506
3 515 514 519
3 474 430 520
3 521 520 519
3 520 471 515
3 520 515 519
3 474 520 524
3 476 522 472
3 516 472 523
3 472 522 523
3 516 523 517
3 520 521 524
3 477 475 524
3 524 475 474
3 525 477 524
3 478 526 522
3 476 478 522
3 527 477 525
3 527 479 477
3 478 528 526
3 478 480 528
3 481 479 527
3 529 481 527
3 482 530 480
3 480 530 528
3 483 481 531
3 531 481 529
3 484 532 530
3 482 484 530
3 485 483 531
3 533 485 531
3 486 534 484
3 484 534 532
3 535 485 533
3 535 487 485
3 486 536 534
3 486 488 536
3 537 489 535
3 535 489 487
3 490 538 539
3 536 490 539
3 488 490 536
3 538 540 539
3 541 542 543
3 541 489 537
3 542 541 537
3 541 491 489
3 490 492 538
3 545 493 544
3 538 492 493
3 538 493 545
3 540 538 545
3 544 546 545
3 547 548 549
3 543 495 541
3 547 494 495
3 547 495 543
3 608 547 543
3 495 491 541
3 493 496 544
3 544 497 550
3 546 544 550
3 544 496 497
3 550 497 551
3 551 497 498
3 498 499 551
3 551 499 552
3 499 500 552
3 552 500 553
3 500 501 553
3 553 501 554
3 554 502 555
3 554 501 502
3 502 503 556
3 555 502 556
3 503 504 556
3 549 504 547
3 556 504 549
3 504 494 547
3 506 557 507
3 507 557 558
3 508 507 558
3 508 558 559
3 509 508 559
3 509 559 560
3 510 509 560
3 510 560 561
3 511 510 561
3 511 561 562
3 512 511 562
3 514 512 563
3 563 512 562
3 513 512 514
3 517 564 518
3 518 564 557
3 566 564 565
3 557 564 566
3 557 506 518
3 558 566 567
3 558 557 566
3 559 567 568
3 559 558 567
3 560 568 569
3 560 559 568
3 561 569 570
3 561 560 569
3 562 570 571
3 562 561 570
3 563 562 571
3 572 563 571
3 574 514 563
3 572 574 563
3 573 519 574
3 574 519 514
3 519 573 521
3 522 575 523
3 577 575 576
3 577 517 575
3 564 517 577
3 575 517 523
3 564 577 565
3 573 574 572
3 521 573 579
3 580 573 578
3 579 573 580
3 579 524 521
3 524 579 525
3 522 581 575
3 522 526 581
3 576 581 582
3 576 575 581
3 583 580 584
3 583 579 580
3 583 525 579
3 583 527 525
3 526 585 581
3 526 528 585
3 582 585 586
3 582 581 585
3 587 584 588
3 587 583 584
3 587 527 583
3 587 529 527
3 528 589 585
3 528 530 589
3 586 589 590
3 586 585 589
3 591 588 592
3 591 587 588
3 591 529 587
3 591 531 529
3 532 593 589
3 530 532 589
3 590 593 594
3 590 589 593
3 595 592 596
3 595 591 592
3 595 531 591
3 595 533 531
3 534 597 593
3 532 534 593
3 594 597 598
3 594 593 597
3 599 596 600
3 599 595 596
3 599 533 595
3 599 535 533
3 534 601 597
3 534 536 601
3 602 597 601
3 602 598 597
3 603 599 600
3 604 603 600
3 603 535 599
3 603 537 535
3 536 539 601
3 606 540 605
3 606 602 540
3 602 601 539
3 540 602 539
3 605 607 606
3 608 609 610
3 608 543 609
3 604 542 603
3 609 543 542
3 609 542 604
3 542 537 603
3 540 545 605
3 605 546 607
3 612 607 611
3 605 545 546
3 607 546 611
3 612 613 614
3 612 611 613
3 614 615 616
3 614 613 615
3 616 617 618
3 616 615 617
3 618 619 620
3 618 617 619
3 620 621 622
3 620 619 621
3 622 623 624
3 622 621 623
3 610 548 608
3 624 623 548
3 624 548 610
3 548 623 549
3 548 547 608
3 546 550 611
3 611 550 613
3 613 550 551
3 551 552 615
3 613 551 615
3 552 553 617
3 615 552 617
3 553 554 619
3 617 553 619
3 554 555 621
3 619 554 621
3 621 555 623
3 623 555 556
3 556 549 623
3 565 625 626
3 567 566 626
3 626 566 565
3 567 626 627
3 568 567 627
3 568 627 628
3 569 568 628
3 569 628 629
3 570 569 629
3 570 629 630
3 571 570 630
3 572 571 631
3 631 571 630
3 572 631 578
3 576 632 577
3 625 632 633
3 565 577 632
3 565 632 625
3 625 633 634
3 626 625 634
3 626 634 627
3 627 634 635
3 627 635 628
3 628 635 636
3 628 636 629
3 629 636 637
3 629 637 630
3 630 637 638
3 631 638 639
3 631 630 638
3 640 578 639
3 578 573 572
3 578 631 639
3 578 640 580
3 576 641 632
3 576 582 641
3 633 641 642
3 633 632 641
3 633 642 643
3 634 633 643
3 634 643 644
3 635 634 644
3 635 644 645
3 636 635 645
3 636 645 646
3 637 636 646
3 637 646 647
3 638 637 647
3 638 647 648
3 639 638 648
3 640 648 649
3 640 639 648
3 584 580 640
3 649 584 640
3 582 650 641
3 582 586 650
3 642 650 651
3 642 641 650
3 642 651 652
3 643 642 652
3 643 652 653
3 644 643 653
3 644 653 645
3 645 653 654
3 645 654 646
3 646 654 655
3 646 655 647
3 647 655 656
3 647 656 648
3 648 656 657
3 648 657 649
3 649 657 658
3 588 584 649
3 658 588 649
3 586 659 650
3 586 590 659
3 650 659 651
3 651 659 660
3 651 660 661
3 652 651 661
3 652 661 662
3 653 652 662
3 653 662 654
3 654 662 663
3 654 663 664
3 655 654 664
3 655 664 665
3 656 655 665
3 656 665 666
3 657 656 666
3 657 666 658
3 658 666 667
3 592 588 658
3 667 592 658
3 590 668 659
3 590 594 668
3 660 668 669
3 660 659 668
3 660 669 670
3 661 660 670
3 661 670 671
3 662 661 671
3 662 671 663
3 663 671 672
3 663 672 664
3 664 672 673
3 664 673 665
3 665 673 674
3 665 674 666
3 666 674 675
3 666 675 667
3 667 675 676
3 596 592 667
3 676 596 667
3 594 677 668
3 594 598 677
3 668 677 669
3 669 677 678
3 669 678 679
3 670 669 679
3 670 679 680
3 671 670 680
3 671 680 681
3 672 671 681
3 672 681 682
3 673 672 682
3 673 682 683
3 674 673 683
3 674 683 684
3 675 674 684
3 676 684 685
3 676 675 684
3 600 596 676
3 685 600 676
3 598 686 677
3 598 602 606
3 678 686 687
3 678 677 686
3 678 687 679
3 679 687 688
3 679 688 680
3 680 688 689
3 680 689 681
3 681 689 690
3 681 690 682
3 682 690 691
3 683 691 692
3 683 682 691
3 684 692 693
3 684 683 692
3 685 693 694
3 685 684 693
3 694 604 685
3 685 604 600
3 598 606 686
3 606 607 695
3 686 606 695
3 686 695 687
3 688 687 696
3 696 687 695
3 688 696 697
3 689 688 697
3 689 697 698
3 690 689 698
3 690 698 699
3 691 690 699
3 691 699 700
3 692 691 700
3 692 700 701
3 693 692 701
3 610 609 694
3 701 610 694
3 701 694 693
3 609 604 694
3 607 612 695
3 695 612 696
3 696 612 614
3 614 616 697
3 696 614 697
3 616 618 698
3 697 616 698
3 618 620 699
3 698 618 699
3 620 622 700
3 699 620 700
3 622 624 701
3 700 622 701
3 624 610 701
