OFF
702 1400 0
-0.250289209464046 -0.354471113422464 2.10813952418114
-0.295903490986263 -0.340158508879962 2.09133300144674
-0.267629082242339 -0.357440430475817 2.06262312091519
-0.203328944534547 -0.360796856684187 2.11232537080256
-0.221550775716138 -0.367936239930564 2.06708364247294
-0.156457997172254 -0.365079324625409 2.11507864025788
-0.175105894131025 -0.371735129956027 2.06884647800673
-0.111022762013102 -0.368807548207796 2.11907554055088
-0.129728696184665 -0.375319177602334 2.07032686106726
-0.0660742318163052 -0.372369569847995 2.12344152646273
-0.0849165066829381 -0.378679893740438 2.07462588945754
-0.018520930323413 -0.375318248492706 2.13075028842193
-0.0390715997663273 -0.381921677866454 2.08278886400653
0.0295486342126727 -0.370836297484242 2.13926669620156
0.00828375834885314 -0.383490674433671 2.09157924190257
0.0547160507671194 -0.374614449769858 2.10080625368874
-0.318775767371884 -0.313737317315576 2.12138744860948
-0.348768906939031 -0.295006983195933 2.09517173529337
-0.327304183828918 -0.322862028419373 2.06480628738944
-0.278101967383992 -0.330452420603521 2.13995838058982
-0.231275969003342 -0.339650977132649 2.15126308206468
-0.183509285114283 -0.344597448207213 2.15465298164301
-0.136683308867029 -0.348278207641902 2.15966169040631
-0.0914135649592185 -0.351458661087373 2.16515664995143
-0.0470491131910566 -0.356426885622499 2.16728735717651
0.00162322977623325 -0.357078001834711 2.17438474731322
0.0753286655999506 -0.354502108347721 2.14586522069058
0.046686808365262 -0.344902482206076 2.18280739277193
0.0925372406416926 -0.324073273972734 2.18170487908198
-0.305972485250566 -0.295444372506275 2.16417374041101
-0.346404985084858 -0.273713278720787 2.13761699096692
-0.259808737819876 -0.30943504313396 2.18073975998552
-0.209773761175269 -0.315672717851877 2.18828887849612
-0.162114345103279 -0.319735832697672 2.1931335128917
-0.114448977808802 -0.32202724536266 2.20006191622012
-0.0696995808942054 -0.324595106723869 2.20607575141985
-0.0273522048968516 -0.333332755083149 2.20435673068458
0.0139144388046131 -0.325262403417734 2.21542776932659
0.0594147982494534 -0.311406097347791 2.21760616563727
0.10394629436552 -0.288180461645706 2.21242606236621
-0.324606716429936 -0.259817868593504 2.1872020911185
-0.358068165188133 -0.237083321740757 2.16221091148642
-0.28341800029275 -0.275556413059149 2.20729241384048
-0.234261337134751 -0.286258988753095 2.21771076547048
-0.18545542807202 -0.288310935768536 2.22534525071876
-0.137940159469099 -0.29276979561055 2.22969666974037
-0.0864108704217626 -0.293572453742254 2.23915316397447
-0.0314501347166022 -0.302348370252604 2.23993399952109
0.0189233644221992 -0.29502860618693 2.24959658678
0.0692114746466308 -0.278830622698739 2.24916612427093
0.113634664763312 -0.251735963426009 2.24285247019806
-0.308867837784625 -0.238265125759481 2.23116701088777
-0.349618190035546 -0.218959466588734 2.20136182708682
-0.259401359740045 -0.255778496522843 2.24484535626907
-0.211942478637535 -0.258161952718028 2.25542361992921
-0.166369235862766 -0.259145282534906 2.26346619212119
-0.122334258893971 -0.26646872826888 2.26374912840238
-0.0889126961643177 -0.255362533866519 2.28354300542546
-0.0538874511088196 -0.273341519517521 2.26948790052499
-0.0115877777520402 -0.270018557010634 2.28045204244707
0.036239631207 -0.262995738630243 2.28211249517471
0.0840552693886415 -0.243372792881544 2.27904612722126
-0.312410335453693 -0.200439991847359 2.27386844459666
-0.34051104428248 -0.200746527985752 2.23898932746455
-0.279216642844029 -0.226151356906139 2.2695093170751
-0.232079068081475 -0.228979180272905 2.28564100571922
-0.187325414007631 -0.227857747804016 2.29599930761946
-0.138347680989286 -0.232518441098836 2.30040760450094
-0.0929470828748283 -0.227153250672024 2.31587474284433
-0.0453915685417024 -0.23964316610721 2.31079715681022
0.00264050867134202 -0.239209327903469 2.31610059720426
0.0503126545200806 -0.231106955740984 2.31303033117064
0.0974976821785179 -0.207958476361879 2.30728422237358
-0.302000976192224 -0.178163148677138 2.31062544761833
-0.346347441569552 -0.163753635977832 2.27643281557127
-0.263050622397165 -0.20197994918904 2.30720293003386
-0.217109190571735 -0.196433368313262 2.32690946142368
-0.167008396295949 -0.200669171787861 2.33204475215157
-0.121189512909016 -0.200485605600355 2.34150858026863
-0.0695990260173961 -0.204273065818701 2.34747018947925
-0.0245778486645351 -0.210369119322221 2.34900433042599
0.0217636005085139 -0.206998631749606 2.35033607479507
0.0655873712426238 -0.198644889321437 2.34174069917279
0.101677656903912 -0.172502341815347 2.34225439828554
-0.29758162399118 -0.140727280139053 2.34889751476818
-0.331419863260889 -0.147712871465074 2.31531298453547
-0.263818191196643 -0.170190391810804 2.34244622485478
-0.229327005615885 -0.15907702715969 2.36092482451398
-0.186490708812227 -0.16724197121202 2.36195908259168
-0.141348152274825 -0.167443879911288 2.36961446051473
-0.0940883890413178 -0.170678634014592 2.37524389876414
-0.0454198086316756 -0.17465901814412 2.3805406404127
0.00290349933582779 -0.17734837361172 2.38197836613297
0.0543998123359104 -0.170595053874725 2.37466192615663
0.101389454988645 -0.13846206357026 2.36884834787286
-0.339195312932599 -0.10969943991169 2.33475228138332
-0.26052393517963 -0.122637274657313 2.37593170814651
-0.304357326132054 -0.0979585067487993 2.3667132778501
-0.211028333035119 -0.12332525898348 2.38506636779639
-0.164927235647143 -0.127944477187972 2.38980516772925
-0.118222355517869 -0.128912604594654 2.39629908799629
-0.0723579367080101 -0.133404622246756 2.40107129855818
-0.0256247703845879 -0.137786796978516 2.40573087568574
0.0210525975040543 -0.138864890211709 2.40352107343918
0.0652994848578444 -0.131525504002501 2.39369187822426
0.0466813853664856 -0.0939840650646991 2.4127652968693
-0.277716321237867 -0.0718808840513632 2.38631877959523
-0.235151549257179 -0.0812075156165702 2.39562690716628
-0.186083444815213 -0.0830062195112851 2.40166598290446
-0.140299723701011 -0.0840864466740862 2.40738253214449
-0.0939823449348505 -0.0854793582036949 2.41308252852192
-0.0493307223594106 -0.092097826779019 2.41757236917587
-0.00156783435270444 -0.0962035642598221 2.42020046982037
-0.245667852234806 -0.362454914605086 2.02293314214883
-0.269667069907829 -0.346496714731924 1.98845996438856
-0.246269545186499 -0.337109066565102 1.95139019989227
-0.195988183180268 -0.368505678763291 2.02310428458471
-0.21778099952299 -0.357119829239631 1.98271306259927
-0.149907035167649 -0.370915163816618 2.02222960543387
-0.169636109950495 -0.356793868151583 1.97709819007879
-0.104458304291804 -0.373739627178785 2.02453268391513
-0.124308279364484 -0.358128426389777 1.97764185051947
-0.059077963162892 -0.377517831559157 2.03195084107737
-0.0766845259397264 -0.361832686269814 1.98349936214806
-0.0141056705158648 -0.381685889150832 2.04203734696309
-0.0309020840502126 -0.366794681064358 1.99236264118531
0.0319528743705617 -0.380494955103915 2.05059915658728
0.0133755958313734 -0.371377066512187 2.00334424457058
0.0612478795097792 -0.364681284883715 2.01271895314194
-0.297397154545835 -0.343174309272117 2.03207501232995
-0.336170612250183 -0.312041656091656 2.01811378102343
-0.306536766804654 -0.325339700511604 1.98473290696783
0.0992703081509633 -0.354350795049781 2.10626877319531
0.0750316048817462 -0.369052884976858 2.06056164617334
0.114518375652116 -0.347465703960717 2.06390604326468
-0.374378473452158 -0.259006096869603 2.08787284799952
-0.384903581790667 -0.243469727587699 2.03920293432589
-0.361734760125396 -0.286524256833799 2.04938746784685
0.120178378982863 -0.328134885191734 2.1415934675946
0.14066203431382 -0.323525002841438 2.09742317790799
0.157571484716567 -0.293936002956845 2.1266544907062
-0.376692504842734 -0.232485500950248 2.12113740847769
-0.392778192168537 -0.213577207051293 2.07598557875743
0.133862138778739 -0.294160986922069 2.17207086998081
0.164613238133874 -0.256647783910763 2.15975102788429
-0.38065264526651 -0.196221130264781 2.15742315487502
-0.393483941816873 -0.186152646786848 2.11425956518079
0.141469026797097 -0.255671723225885 2.20264751179776
0.170776068953212 -0.216404905610344 2.18666074829142
-0.375193320442428 -0.179611448385999 2.19637089589232
-0.395966406554489 -0.148698755622519 2.15611283675515
0.149870664305494 -0.216331455865344 2.23072117898212
0.174939453446131 -0.176287560122027 2.21558125782247
-0.367370598750058 -0.164080526062373 2.23636184449448
-0.391468682697401 -0.133875363777932 2.20245707812695
0.126695200239724 -0.212308599313166 2.27034259828402
0.158897870567608 -0.172986534504701 2.25864338305596
-0.381408131088837 -0.125114656810448 2.25113737332697
-0.399995897002897 -0.0889988910857533 2.22220806594772
0.133869638190213 -0.174331643097645 2.30140340121471
0.163754055128845 -0.134809323861983 2.2869255675552
-0.365872492364697 -0.120131494371089 2.29301577875908
-0.390461529939623 -0.0808716732778614 2.27018671500546
0.137107172810464 -0.138989792419219 2.33208624650661
0.160488532315539 -0.0999811132505203 2.32085926195117
-0.369035840517463 -0.0762733832258836 2.31341438580072
-0.336969734836701 -0.0671532039351606 2.35154804240712
-0.357022582665448 -0.032670367533599 2.33414503724536
0.0938445324755514 -0.093048050201919 2.39195784635404
0.116842127685998 -0.0526359858096338 2.3803359227142
0.130608866232106 -0.0988540594265077 2.36101735793965
-0.31166601537751 -0.0406920401465977 2.37247646285601
-0.259243404068964 -0.0310738186941217 2.39491525091785
-0.291425361179505 -0.00205511650482735 2.37943356700478
-0.209578789922529 -0.0398757055835937 2.40305727461412
-0.162343463239599 -0.0369552244016384 2.40833664652968
-0.115720238761865 -0.0383310335466428 2.41359776147761
-0.068882774361431 -0.0397714447806199 2.41886460579039
-0.0258420898234077 -0.0505322799080798 2.42402707040121
-0.000655593565435764 -0.013607202751369 2.42043820982742
0.0248595214647334 -0.0536970300562891 2.42192077168411
0.073546371681751 -0.0520615137742758 2.40700563519674
-0.258136960755328 0.0272791712186984 2.38347361897883
-0.226338353348811 0.00296962816669629 2.39650727037086
-0.182254332373403 0.00840780926651544 2.39945883893104
-0.136159829537949 0.00847855074852421 2.40378886918439
-0.0894583999147686 0.00648692662092287 2.40872366548065
-0.0410377062419141 0.00478644072402876 2.41371730613192
0.0146801912994659 0.0245104862075215 2.40710828015729
-0.334489465957537 -0.293152007520379 1.96975433777812
-0.318370542751402 -0.277731818456334 1.93141091896988
-0.287487780221424 -0.313990406490263 1.94350454792495
-0.238738599222762 -0.313004710811874 1.91650630761212
-0.196578144088218 -0.337491027517893 1.94140507812435
-0.146091663837553 -0.332479743685005 1.93483415389365
-0.0960658904796284 -0.337718422776084 1.94260439914861
-0.0439757690063967 -0.34177433550855 1.94884697015826
0.00138100838566282 -0.347466457403356 1.95726248457758
0.0455332215743754 -0.35125941561762 1.97308749097642
0.0878318183436922 -0.332886414103795 1.97282780709219
0.100727155808605 -0.348299053185268 2.02019923906559
0.127120525848892 -0.321187644775417 2.00335637051683
-0.364448005058169 -0.272613992295223 2.00398322584898
-0.382418923832352 -0.225850980816207 1.99282727323052
-0.358866479398433 -0.251303795761656 1.96161789916535
0.143825989823112 -0.320020079572585 2.04797350478051
0.15949700122084 -0.290006087430493 2.01774193734733
0.169587648278821 -0.288756031898998 2.0729785580633
-0.396770787007404 -0.194369524101787 2.03056268207345
0.189085248870228 -0.246354991881608 2.07186958979431
-0.399904506355523 -0.164658514504184 2.0643011647118
0.181249884793458 -0.255793058579294 2.11406204499419
-0.400965150531884 -0.144116682828652 2.10785565471392
0.186654800342849 -0.214660003264963 2.13937822113539
-0.403252330936051 -0.104926667141925 2.12486717969768
0.189027099526255 -0.175323847380674 2.16484660245088
-0.403149433555858 -0.0989042096231696 2.17235876331587
0.189477224937163 -0.139008775165357 2.19348113655065
-0.40655244825993 -0.051969797831291 2.19255710234843
0.181676854271897 -0.128149991875824 2.23936665782867
-0.402691526290381 -0.0428484653069675 2.24329457827625
0.181686750203083 -0.0904523282759746 2.27358593337891
-0.385832692984561 -0.03608643591856 2.29156154806012
-0.392532030252314 0.00222218185763769 2.26399553125953
0.150036999918276 -0.0563981700206872 2.34622205050003
0.174287451658529 -0.0584388613556836 2.30503095239293
-0.368743782295347 0.00654527548877906 2.3102930673775
-0.333837889630898 0.000941328453916042 2.35129125393408
-0.34108920897435 0.0433808960320359 2.32510053510925
0.0491991970768401 -0.0113329651976987 2.41129670844284
0.095626561601601 -0.0104473567898867 2.38959764804768
0.134467331698898 -0.0111376418767767 2.35744269774842
-0.304224320915778 0.0387567155559539 2.35829627643782
-0.263843343598334 0.0655567961993726 2.36241117150263
-0.21123857370413 0.0493938033641432 2.38137593738534
-0.162206005859675 0.0516475862406377 2.38391872135661
-0.114849276889373 0.0506527591010181 2.38796090321739
-0.0674604193735297 0.0475201832924729 2.39318537200826
-0.0214702785463949 0.0482583829204839 2.39605044042097
0.0320871794326349 0.0600924563730456 2.38368034473243
0.0660060533709589 0.0281203467781844 2.39094467538365
-0.307313170556665 -0.24469847584428 1.89715675100419
-0.27566850542907 -0.284088043507624 1.9051812067027
-0.227257309426901 -0.280276952199708 1.88496527828765
-0.18978320382809 -0.30912243554839 1.90722359747284
-0.146202940780332 -0.296639210062861 1.89825266534928
-0.105918165348531 -0.304465565214732 1.90703879347526
-0.0588449905314335 -0.313390198013092 1.91718332875557
-0.0026601973325749 -0.314377422305034 1.9208356527279
0.0449681517539126 -0.324259188132402 1.93775820186888
0.0901084173000986 -0.300320621763148 1.9375669752895
0.128151895156366 -0.296755365461914 1.96981439791684
-0.37086053757386 -0.198631421663316 1.94967320589473
-0.342921065236872 -0.235407998891103 1.92723527230139
0.160768819112772 -0.260823450328296 1.9811356373566
0.18106100879983 -0.254534737675108 2.02952316927207
-0.389935050478689 -0.178133385312439 1.99013984479892
0.197408625105811 -0.207168098074657 2.04518455835712
-0.395371036218896 -0.138338783996035 2.02060701600172
0.19650836956945 -0.206247228805276 2.09497101159249
-0.399289804397144 -0.116303390972906 2.06897450867274
0.197050021184069 -0.164552701374767 2.1182772897354
-0.39857243101253 -0.0734385834476488 2.0903960962948
0.1966531378858 -0.126300026817393 2.14642437700665
-0.403433465839526 -0.059453904302522 2.14184913164373
0.193567222126314 -0.0967248796064044 2.1924102152873
-0.402446551664098 -0.0147683665711053 2.16202565570177
0.190478140752907 -0.07645847268619 2.23240483664834
-0.403819825760008 -0.00589470609268724 2.21367538439391
0.185488616075112 -0.0339928424112533 2.26908932301304
-0.388924249054501 0.0385821531859201 2.23402944134384
0.164259692442654 -0.0158570039940323 2.31727913330849
-0.370118747375781 0.0443356976591483 2.28177710156512
-0.337381289640715 0.0810383347741052 2.29512319068713
0.108263049434257 0.0300828159503028 2.36323707316954
0.143478083838032 0.0270795116399901 2.32686323655364
-0.303377387337311 0.0780756984050676 2.3319405528806
-0.259928342498361 0.104607445554193 2.33152362747022
-0.224191966387499 0.0855211315770023 2.35714231202323
-0.179306151382691 0.0895628935645418 2.3563840657636
-0.135187592715672 0.0901106389171243 2.35816557135538
-0.0884352053987654 0.0862411773557967 2.36388031565371
-0.0451269375591375 0.0861654358055181 2.36615700490536
-0.00249995892469471 0.0843357346691517 2.36938474083792
0.0752286903880549 0.0669682001158834 2.36066111541287
-0.304078807430552 -0.209300673828777 1.86941637224615
-0.2654285506532 -0.248334921531319 1.87266682549783
-0.218552434118896 -0.24489565193049 1.85435195380089
-0.178751716765113 -0.271363449170041 1.87485691406445
-0.12495928415424 -0.261912874017629 1.8694773111894
-0.0789858723064274 -0.274411958136916 1.88257228019473
-0.0332504023559032 -0.28619264683891 1.8950375979649
0.0100933908338099 -0.27397159671947 1.88674269326952
0.0478432281832827 -0.291238822321132 1.90821940542733
0.0943323406271675 -0.264935326261555 1.90617169787407
0.131066378728754 -0.264230533412089 1.93887787247139
-0.366061442622051 -0.160189202121719 1.92060854535381
-0.341565048408917 -0.20045271442677 1.90345435643635
0.166535730082935 -0.226146729715704 1.95123372418339
0.186692632125136 -0.219279914186611 1.9977857416429
-0.38524310481171 -0.144848634649292 1.96543472354542
0.203531360838879 -0.172206321390319 2.01766289995473
-0.388856091782086 -0.100159963149401 1.98848746762778
0.202741506848177 -0.16274078597317 2.06985081731058
-0.393223591405931 -0.0860065337031024 2.03567871786492
0.203036340915539 -0.117506318679609 2.09648969561918
-0.392594937989418 -0.0411012841531937 2.05919393656988
0.200321327812417 -0.0817473546351528 2.1432213982237
-0.397206263895245 -0.0258445755368367 2.10921769326193
0.198381442372379 -0.0517760192524576 2.17947127710429
-0.39636394028231 0.0199498778566595 2.13143987849026
0.1947420535471 -0.0338738359286655 2.22245244990378
-0.397732712292687 0.0302533463466223 2.18358897456354
0.191016323154533 0.00856512451179155 2.23923226619524
-0.382743674614188 0.0743707243433957 2.20371590103437
0.172874928266431 0.0153761178370631 2.28441047394452
-0.364125232719679 0.0802208251398711 2.25141441338111
-0.330434013709162 0.117471453019481 2.26500129816608
0.11491926469142 0.0678672505998764 2.33131632138231
0.150885371992955 0.0617376184463432 2.29539906084873
-0.297153234326561 0.114297011843335 2.30131699317397
-0.248604181895416 0.139367110401402 2.30391928818545
-0.208282370406734 0.120401960454242 2.32838690772134
-0.15734079192426 0.12728328521389 2.32507137755767
-0.104631913198487 0.120715503349766 2.333410428934
-0.0562538070275109 0.122335111812868 2.33448844782808
-0.0101565224569123 0.120255365280452 2.3386305031848
0.0377421784715692 0.0993554310723215 2.35092184930553
0.0790437819295086 0.1052998688201 2.32957109939679
-0.298624554203977 -0.174513417012318 1.84025444345318
-0.260595333009291 -0.2125647747558 1.84287015964635
-0.212662779035775 -0.211061105867825 1.82554109970499
-0.167696438182387 -0.237935893935074 1.84667750222759
-0.120517716291262 -0.222743847896656 1.83602452011522
-0.0784125683586456 -0.23735289006692 1.85073674769774
-0.0337292285108177 -0.251005440044229 1.86475723318008
0.012574727640442 -0.236351959591187 1.85452179868249
0.0558096319949488 -0.253976647256761 1.87700104304585
0.101221531691751 -0.228644469267098 1.87573296803717
0.137087490952846 -0.230083334337266 1.91000028671826
-0.359679857499916 -0.12373604285382 1.88933665576079
-0.33628475598232 -0.166620444214547 1.87536256699216
0.172788546115689 -0.191255003213858 1.9220681171542
0.193180744313181 -0.183437208340154 1.96862020828862
-0.378934499266588 -0.111469655975739 1.93497804659624
0.209561144865573 -0.137445204730812 1.98933659906359
-0.382624512553385 -0.0669899504839537 1.95560599684117
0.208594942813566 -0.126757196041349 2.04208358748804
-0.387016997028821 -0.0479249914307616 2.00618555029346
0.209839532883916 -0.0817274628001925 2.06030601800065
-0.387188005619016 -0.00391966609993463 2.03607661396791
0.205763549416944 -0.0675147377085519 2.10499214302002
-0.391168393939249 0.0105909523473563 2.08013024936951
0.20516543263714 -0.0256599886650726 2.13722515998749
-0.39008921382996 0.0546954572129185 2.09919967279696
0.201218007303967 -0.00327528719890966 2.1860650543722
-0.39184793410379 0.0648285751735165 2.15257254950785
0.19808746111846 0.0415099249928045 2.206190537485
-0.376667078366174 0.10937319881397 2.17420834740864
0.178318162877455 0.053942065619287 2.25404840467004
-0.357498295960055 0.116105862424062 2.22187954306996
-0.322200366349867 0.153247409250515 2.23717666654376
0.120267609646021 0.104267107291625 2.30114504870337
0.156216145925574 0.0986755712611561 2.26533766911232
-0.28742696366076 0.149795091844943 2.27379136734757
-0.239124984407974 0.174233320224143 2.27541446221526
-0.19765962536273 0.154403321436233 2.29969260492266
-0.15283319283949 0.168842822008748 2.28956678127933
-0.115614821597434 0.1524438175365 2.3055676956097
-0.0679352360466652 0.155850933902084 2.30507289587415
-0.0175568045813778 0.156524229152587 2.30706666256135
0.0326118367911804 0.136032364637208 2.32238335089515
0.0802878938263225 0.140749301446582 2.30195040490789
-0.292462408001323 -0.139651785290866 1.81043429820044
-0.255075432248385 -0.17714840756459 1.81300806977362
-0.208799464014443 -0.176213285428969 1.79628265316886
-0.164430747323546 -0.203214349295132 1.81698938746712
-0.114778740645403 -0.185717005632145 1.80447925371191
-0.0726917415875452 -0.199495190543323 1.81847575241185
-0.0306832778869676 -0.214728668767371 1.83372028138833
0.0155500840550237 -0.199056605349509 1.8226051132939
0.0591337286839597 -0.218609062374962 1.84604257606457
0.104369005830981 -0.194469232437312 1.84481489409698
0.143237869497546 -0.195436457129961 1.88075010200878
-0.354759515633594 -0.0866845804359541 1.86080630487588
-0.330170694947154 -0.132325027142329 1.84587755721599
0.178683105145892 -0.156500960913319 1.89233687421665
0.199297128396619 -0.148166326908138 1.93883574920754
-0.373069469159961 -0.0742285646632447 1.90517626108425
0.215397656973275 -0.103072035812405 1.95864080803415
-0.37583659867001 -0.026618802247355 1.92252647747993
0.214971859345578 -0.0910265938695193 2.00958163145487
-0.380500055648831 -0.0209188922383775 1.9668402475057
0.215626593603218 -0.043337450173013 2.03466383362186
-0.38190457181972 0.00881017734607452 1.99826405085552
0.211069278278418 -0.0298368963183772 2.08309169109716
-0.384334042862646 0.0467074842031477 2.04389910550031
0.211609905684494 0.0136375347402037 2.1064442080309
-0.384221236151921 0.0887421115471945 2.07004982877315
0.207172600691218 0.0270375240514731 2.15375681383374
-0.385951840885325 0.0991518928540217 2.12337375745813
0.204596944423077 0.0743537620604631 2.17501243653609
-0.369729121010126 0.144939597833462 2.14747575525015
0.185211300680548 0.0881540108210766 2.22281594050634
-0.350244181233452 0.151636232113382 2.19409550790094
-0.315194852286378 0.188371305830289 2.20847388640386
0.124936737050189 0.139854217682271 2.27213051971654
0.162465476482068 0.133529621761189 2.23531992220592
-0.279473350642847 0.184807754117659 2.24536669564255
-0.233013914380976 0.209826660669771 2.24512122229203
-0.190962945362448 0.192000417191001 2.26770698601696
-0.140437914116226 0.205550615521267 2.25863570640608
-0.10090612641236 0.187689974315556 2.2760121745644
-0.0526438622066244 0.190866852447991 2.27574481699962
-0.00457046269927616 0.192072153519593 2.27716322425203
0.0358140466677236 0.169393379337143 2.29446926951859
0.0873319856137501 0.173929745277058 2.27302002606311
-0.293792943174967 -0.102811446551155 1.78617394649864
-0.248755434592237 -0.140850501415368 1.78207283497883
-0.200884003022657 -0.142269250639787 1.76702579835639
-0.159418631181042 -0.170114545880663 1.7887841790173
-0.109669224666087 -0.150325220350576 1.7743572329623
-0.066017008719591 -0.161374118784704 1.78603840740466
-0.0261054293621808 -0.176153642284926 1.80078423590981
0.0173556245032849 -0.161303484253315 1.79024561743587
0.061825680270816 -0.183572157541331 1.81526337780774
0.108383782965944 -0.159857545054195 1.81410691163232
0.145508878863035 -0.163476108373452 1.84979945011218
-0.349472559071244 -0.0490197758908267 1.83215756015844
-0.327509653656764 -0.0959555767918297 1.81977853630613
0.179162464509345 -0.12727125724695 1.85874536778754
0.205124962453679 -0.112885701007501 1.90786938745381
-0.36704327990717 -0.0357014980579217 1.87454558216786
0.222255708374846 -0.0649803965913703 1.93925524976445
-0.369674885207384 0.0117940264888354 1.89756297104176
0.220679074152822 -0.0526030714075532 1.9846625616737
-0.37488252743146 0.0246554044847933 1.94731364337401
0.221660062318556 -0.00599351895373954 2.00492198464855
-0.378445775243599 0.0504630488957032 1.99501974755356
0.217188745131264 0.00649322865929201 2.05322448174403
-0.377659926231011 0.0927574345355091 2.01546921020373
0.217879022856232 0.0503864222280394 2.0750752371314
-0.378954927428582 0.12719409262465 2.04906630367251
0.213356472792844 0.0640309563323553 2.123755883183
-0.379605216538281 0.134745708064916 2.09881492830994
0.210454191334259 0.109572508697769 2.14567715658313
-0.363485269166922 0.180156911290972 2.11830702130444
0.191520050726357 0.122281901101262 2.1928279536302
-0.343430643646683 0.187248595275411 2.16523930536891
-0.309178271072495 0.223432565294452 2.17862689718747
0.131605827739592 0.174803102005595 2.24180123472775
0.168693821244564 0.168447600593071 2.20522553480867
-0.273742346069278 0.219740542209307 2.21544786570684
-0.227554202711521 0.244960062528873 2.21498017562319
-0.183848184754299 0.227690266362196 2.23738199261834
-0.135250311426289 0.239892055390114 2.22934557566097
-0.0875893142443603 0.224808539365062 2.24477538437482
-0.0375825634292346 0.225746231727622 2.2465226035789
0.00892784651640531 0.226163236368502 2.24853901197455
0.0480915039330859 0.202458909571227 2.26499162689853
0.0942826755567676 0.20891465478542 2.2427527898165
-0.25649985846317 -0.102810341220362 1.76062117002607
-0.214972816470562 -0.1061408828351 1.74691175994041
-0.168573064562849 -0.103208999561672 1.74069981866785
-0.153580590191472 -0.137240763309328 1.76168127530097
-0.116409346367527 -0.109186163698815 1.74743612499377
-0.0696224906158701 -0.121100140191394 1.75715829707659
-0.0227188135393051 -0.132281467494227 1.76696387744923
0.0251611512622657 -0.12135230140438 1.76450932999993
0.0647169014678177 -0.14933007631553 1.78660784055374
0.10906946205655 -0.12305551091903 1.78696122341672
0.14948171108223 -0.127444231728597 1.8196591516132
-0.337258166265469 -0.0115401667660541 1.80762019328176
-0.320472800226073 -0.0580122630425699 1.79229021805055
0.198108481023509 -0.089894548736098 1.8622932890296
0.215787321906635 -0.0676959550574841 1.89609913397867
-0.357492905795974 0.00398119456741287 1.84736760068764
0.221150506079849 -0.0245095042530667 1.90767297791411
-0.354695436079205 0.0479258034660211 1.86939357414926
0.223991451534922 -0.0136768869272054 1.95325338352653
-0.364392769449973 0.060565230522584 1.91455413731203
0.220376827312216 0.0295086980390721 1.97298730158274
-0.371347540788841 0.0769536029627974 1.96072012178528
0.220578007219132 0.0438118707882411 2.02090449278749
-0.365453928561931 0.122243169387957 1.97651254803776
0.217361959405412 0.0858354725819571 2.04384844915388
-0.368543815405952 0.148753822986494 2.0129226435206
0.217194613037136 0.100360730819236 2.09146843938208
-0.372505707144265 0.169105752075353 2.06794418988396
0.211152720164943 0.141515557985707 2.11451016769006
-0.354833390721625 0.209960354558159 2.08369985611012
0.195676267502883 0.157193592714637 2.16297467011232
-0.337398671650329 0.220912314369561 2.13335136611932
-0.301925882090463 0.253446070214061 2.14584121417653
0.136539231016619 0.209782070199437 2.21007982648031
0.168442937033801 0.202632528639847 2.17294345331522
-0.266489966100592 0.253974128246941 2.18482228023009
-0.217950128630859 0.276802773219766 2.17980062869732
-0.180636398410124 0.262497145919146 2.20466410274159
-0.138854869801538 0.271394740835102 2.19414457001235
-0.0946985652104959 0.261480429530942 2.20806469882739
-0.0500283694572428 0.257202036600042 2.21440320143407
4.51185248178387e-05 0.256715201340252 2.21604653029351
0.0520295495195031 0.238811714517133 2.23263857425238
0.0973808255336452 0.24030483412546 2.21004213898652
-0.28199641916479 -0.062192071575852 1.75975602409938
-0.236617150399296 -0.0627543144128535 1.73739907917613
-0.188947897701808 -0.0639162824862687 1.72774520314319
-0.137075988732073 -0.067801028259053 1.73065312406997
-0.0865449212530868 -0.0743530798876815 1.7371663743254
-0.0403839845051765 -0.0842771674471549 1.74428333980707
0.00372744324332137 -0.0837790594742616 1.74826370152887
0.0507321261025724 -0.0734391136390775 1.75046158538083
0.0712915989381828 -0.108649417600505 1.76528171674549
0.103201716474726 -0.0729549678794683 1.76499161518334
0.139768648385995 -0.0905896224325513 1.79131998063565
-0.302078187585605 -0.0205087990479222 1.76892754591722
-0.277030105464799 0.0215667528600927 1.75579962834796
-0.259561434456656 -0.021333504895957 1.74153260274085
0.149853236325831 -0.0495144405426449 1.78944249753457
0.176120767267451 -0.0836788722915697 1.82391657053885
0.17928873440442 -0.0361383402181067 1.81770657123199
-0.334361665316879 0.0424286242221803 1.82040581608721
-0.314521280788106 0.020768725814395 1.78596794432203
0.20349374136644 -0.0427284675567412 1.85532997148541
0.208670888537099 -0.000867096837828894 1.87308750461102
-0.331228140131489 0.0796822271896865 1.84745216138286
0.214455400027625 0.0243126759585524 1.91684534420279
-0.341147644368991 0.0988943169543101 1.88720350546779
0.209336804548648 0.061085769332548 1.94507205938593
-0.353644182912108 0.108854746937458 1.92708541936358
0.211890143007962 0.081255488692163 1.98766159191056
-0.34274117564595 0.147989174054417 1.94151988301075
0.206910181089368 0.117905092210953 2.01556740836886
-0.346664984676707 0.175670632502951 1.97854695158028
0.209261761818318 0.137894579372829 2.05793862421265
-0.360174326684273 0.189914558044737 2.03147214324439
0.201613899555146 0.173078229354995 2.08512814884505
-0.326529711623896 0.246821411776436 2.09625626994065
-0.338438833429491 0.23210114948238 2.04743316880181
-0.307649608067628 0.265095559863265 2.05424536780317
0.192125952821505 0.187544645796012 2.1296909762591
0.178680514753909 0.214211873703624 2.08669078960958
0.165418542642475 0.226005728287702 2.13220081212951
-0.258825581404704 0.279770848957667 2.14848960744366
-0.29263413166155 0.274008496744829 2.10710268183296
-0.250865101190615 0.295965591077957 2.10640422785147
0.132693214558548 0.241468839005156 2.17171200045306
0.100210713431441 0.274161755457023 2.13649469846386
0.0879360496620638 0.266310222453329 2.17520397765943
-0.21168318314186 0.297501218421325 2.14019377441077
-0.167679163833192 0.291642918469208 2.15980273510106
-0.114758655682534 0.289441266746262 2.16212657454623
-0.0702709739147717 0.28451098543008 2.17080275873478
-0.0264450099367598 0.281299272335026 2.17575679652158
0.0162960761561127 0.280624198030649 2.1751390681952
0.0495447660030932 0.265816402653218 2.19807297908104
-0.210738068176894 -0.021225642977254 1.7255185915969
-0.159443284317712 -0.0249285750646389 1.72255287418015
-0.108661186701699 -0.0289343529732966 1.72820912267754
-0.0607734225304524 -0.0337269315239084 1.73375258527012
-0.0159324568536339 -0.037245930756633 1.73890713186225
0.0281368028905454 -0.0330344966367973 1.7437901584088
0.0767280440914394 -0.0316308671674545 1.75158293094939
-0.23281748935128 0.019854575380914 1.73498969503047
-0.205707245218006 0.0573356609052305 1.739911848721
-0.181416586016754 0.0183048550994394 1.72562483067246
-0.130609352149593 0.0150648249177353 1.72873292835258
-0.082933488925857 0.0140072409340171 1.73466720109564
-0.0356532728485471 0.0106289376532853 1.7401178424915
0.00911941096215949 0.0121315039247749 1.74625492787353
0.0560589688092881 0.0114066312922889 1.75235481326448
0.1042125992255 0.0124664010231476 1.7670107624953
0.15135094213461 0.00312425005043044 1.79423517475684
0.120244493258515 -0.0279595344927766 1.76904176923495
-0.295161014975563 0.060733735981655 1.78476960755865
-0.263310418294841 0.0992651471057067 1.78798589406195
-0.252606671221936 0.0620570685534141 1.75714258919613
0.127164798546582 0.0455388254049756 1.79216560914229
0.185265246385208 0.0054589930187425 1.83186349092259
0.163255828589712 0.0456909269960207 1.82406139493809
-0.303077436097178 0.0908845085879202 1.81649657006486
-0.269906102406726 0.129225919014499 1.8247538975803
0.193635805584634 0.0406845911343052 1.86730830429619
0.165614301660204 0.0797805331292507 1.85899941782802
-0.307774830945538 0.122525094313462 1.85685592046329
-0.277001756462773 0.15856593052278 1.86338582560895
0.192509603020941 0.0702569922221323 1.90115331881364
0.163577578125279 0.11110384771038 1.89514531771852
-0.318943989815133 0.145886101583512 1.8976263390468
-0.281931857120572 0.185781886995765 1.89798757129851
0.190998991268677 0.101904182745258 1.93892242040644
0.162444466185508 0.141452825065459 1.93151167861472
-0.315927771822231 0.183179350506068 1.93351486785225
-0.280100819482316 0.218700261130894 1.9329115773612
0.190217198200318 0.129395077615586 1.9731500404205
0.161676192708067 0.171152134891155 1.96766512873696
-0.313258186717222 0.21710173915212 1.9666735980136
-0.279611482101583 0.253236634834744 1.97258269105008
0.189053806496787 0.160486690384865 2.01115566388794
0.160359367877662 0.201062860764916 2.00320411594919
-0.33679335221051 0.215311264815156 2.00305051922544
-0.307681114898408 0.25208883550927 2.00877042425292
0.187251319174919 0.188422644821972 2.04486721198563
0.157039682117935 0.228295711908634 2.04048089947514
-0.274532565890103 0.288104764226184 2.06592120152061
-0.269460776182848 0.281910730715659 2.01756429875549
-0.237020568960732 0.302277450477703 2.0522186033441
0.134795281897381 0.255805268704039 2.12538846471374
0.148509926873637 0.246945949780039 2.08316336726711
0.10846930892152 0.274271549344971 2.08446223886571
-0.212509655713893 0.308059773781684 2.09234521622152
-0.186956680536737 0.310642848089079 2.0566054028236
-0.171975218756237 0.307706858132685 2.11090403978527
-0.143022386858458 0.309078522329413 2.0699762752674
-0.12949526712757 0.303716247646152 2.11996886187789
-0.0988933655532735 0.305808582058008 2.07503371446803
-0.0826895342975927 0.300803687963165 2.12264437254726
-0.0540240389267059 0.302419081146518 2.07833619090994
-0.0383801720598243 0.297353037080459 2.12856412191424
-0.0104381132961566 0.299128176392655 2.08191570467989
0.00614988839562401 0.294680490256238 2.13046174629921
0.033789141689537 0.295956013641017 2.08969579400505
0.0518856844746121 0.287547823834852 2.14514058677598
0.0715663080308117 0.289112486169972 2.1019967443739
-0.17506658376174 0.0901256614915404 1.75428440058461
-0.152418426095842 0.0564292322515422 1.73787136528292
-0.106706781531253 0.0588030071210195 1.74548470785171
-0.05795050901695 0.0547308107275721 1.75087580310632
-0.013058011399538 0.0565095755297062 1.75837256823865
0.0323391195944914 0.0557464293321011 1.7648454194954
0.0783890518353638 0.0517375762702016 1.77192313146603
-0.220142497848529 0.0977422289088707 1.76636436362337
-0.177674422477461 0.124323321193585 1.7823999812675
-0.131554600354458 0.0999788196583961 1.76591250258379
-0.0805751043368113 0.0932089826476006 1.76953316587026
-0.0362810557542482 0.0963731301308881 1.77953340051098
0.00824764848588122 0.0963189967408571 1.7872813301229
0.0534535097521007 0.0935184698982637 1.7929390065526
0.0969368696093155 0.0837499797602281 1.79965711186221
0.131580743461311 0.0857116950815972 1.82479358954953
-0.225219076438817 0.130839311101054 1.79971211828812
-0.185462217155221 0.155228453813959 1.8181160968426
-0.139510144594502 0.139795771453266 1.80400214277124
-0.100246297196693 0.124516523856097 1.79412810862172
-0.0574842457002863 0.129473242598618 1.80842808432541
-0.0137786556436537 0.130045452948339 1.81792211203325
0.0343599843808508 0.1264623177585 1.82342786437081
0.0842490070853849 0.118778908253068 1.82914897457411
0.129058333242061 0.115947108253964 1.85784451707028
-0.232191322042369 0.160526460808139 1.83646021367431
-0.187273662692714 0.184971962566045 1.85271011485409
-0.141179613383819 0.171093626924918 1.84043928961121
-0.0945125238210523 0.155440651138163 1.8314661143226
-0.0476072840539232 0.161767618498831 1.84836665547977
0.00261341626754337 0.157956837946874 1.85402516418846
0.0504431538580142 0.153969076950208 1.85900617445347
0.0925922554847948 0.146118404088187 1.86627013127251
0.127773785448992 0.14795660043841 1.89567636890259
-0.235794040705212 0.189412096113912 1.87091316879021
-0.189916086771346 0.213256528097097 1.88568789762838
-0.140927066302934 0.202644452767376 1.87756130869195
-0.0982956191643797 0.185784316885709 1.86635484172308
-0.0604732984371923 0.193933592199065 1.88356357995913
-0.0157278337814141 0.188319649899074 1.88599817984224
0.0323063145329639 0.184840602217745 1.8916047402801
0.0814011887504283 0.178527198547069 1.89897953279667
0.126621654363165 0.176696766253394 1.92964945825119
-0.239130025978233 0.217506237870046 1.90437088661801
-0.196370795803272 0.241173671641468 1.91867535090438
-0.146338248096688 0.232433642449586 1.91146961383497
-0.0970551527985699 0.220953981967524 1.90792915594747
-0.0455023439556848 0.221083388087808 1.91848549610232
0.00269583784739728 0.21662898325734 1.92297978119378
0.0491280118800148 0.213309626301955 1.92851586275094
0.0906724413989408 0.206078410988398 1.93697003131065
0.125700229474041 0.208171702281637 1.96720224472825
-0.243891606115273 0.247699370252898 1.94094038265651
-0.206162330726024 0.269451818404868 1.95349108415078
-0.159165960567881 0.263659482439327 1.94564104937244
-0.112511458690704 0.254131913011477 1.94379254365431
-0.0678291231512287 0.249904135442886 1.94784249088462
-0.0188324518351394 0.247779181782531 1.95523519153354
0.030002658207234 0.244313284506822 1.96101848447299
0.0791349933167955 0.238615830275866 1.96951172590179
0.124014790328134 0.236343280335979 2.00095208428066
-0.239791940884315 0.279559686465475 1.98245929912634
-0.183317377154789 0.290024217371748 1.98348461150378
-0.134553091895907 0.284299848122774 1.98140900342617
-0.0898842638548321 0.279795334559373 1.9843660061306
-0.0449851593565361 0.275905220121241 1.98851686831927
0.00141421644876363 0.273017833331797 1.99482107424918
0.0465124721955188 0.27019065331549 2.00108659248438
0.0872537016072408 0.26328452202694 2.01054115744776
0.119173026207022 0.260503882951595 2.04365918662261
-0.214944011317204 0.299707646721581 2.0151117512509
-0.1608014393714 0.303336147963783 2.02091088125709
-0.115004143944873 0.300027376289765 2.02647561778496
-0.0699092175401923 0.296273337606378 2.03015992004185
-0.0241214267120123 0.292474651223983 2.03398951673641
0.023049440457574 0.289409266248808 2.04091328438295
0.0700234045101848 0.284141112007776 2.05057365772339
3 0 1 2
3 0 2 4
3 3 0 4
3 3 4 6
3 5 3 6
3 5 6 8
3 7 5 8
3 7 8 10
3 9 7 10
3 9 10 12
3 11 9 12
3 13 11 14
3 14 11 12
3 13 14 15
3 16 17 18
3 16 18 1
3 0 19 1
3 19 16 1
3 0 3 20
3 19 0 20
3 3 5 21
3 20 3 21
3 5 7 22
3 21 5 22
3 7 9 23
3 22 7 23
3 9 11 24
3 23 9 24
3 24 11 25
3 25 11 13
3 13 15 26
3 27 13 26
3 25 13 27
3 27 26 28
3 17 16 30
3 30 16 29
3 29 19 31
3 29 16 19
3 31 20 32
3 31 19 20
3 32 21 33
3 32 20 21
3 21 22 33
3 33 22 34
3 22 23 34
3 34 23 35
3 23 24 35
3 35 24 36
3 24 25 36
3 36 25 37
3 37 27 38
3 37 25 27
3 38 28 39
3 38 27 28
3 30 40 41
3 30 29 40
3 29 31 42
3 40 29 42
3 31 32 43
3 42 31 43
3 32 33 44
3 43 32 44
3 33 34 45
3 44 33 45
3 34 35 46
3 45 34 46
3 35 36 47
3 46 35 47
3 36 37 47
3 47 37 48
3 37 38 48
3 48 38 49
3 49 39 50
3 49 38 39
3 40 51 52
3 41 40 52
3 51 42 53
3 51 40 42
3 42 43 53
3 53 43 54
3 43 44 54
3 54 44 55
3 44 45 55
3 55 45 56
3 45 46 56
3 56 46 57
3 46 47 58
3 57 46 58
3 47 48 59
3 58 47 59
3 48 49 60
3 59 48 60
3 49 50 61
3 60 49 61
3 51 62 63
3 52 51 63
3 51 53 64
3 62 51 64
3 53 54 65
3 64 53 65
3 54 55 66
3 65 54 66
3 55 56 67
3 66 55 67
3 56 57 67
3 67 57 68
3 57 58 69
3 68 57 69
3 58 59 69
3 69 59 70
3 59 60 70
3 70 60 71
3 71 61 72
3 71 60 61
3 62 73 74
3 63 62 74
3 62 64 75
3 73 62 75
3 64 65 75
3 75 65 76
3 65 66 76
3 76 66 77
3 66 67 77
3 77 67 78
3 67 68 78
3 78 68 79
3 79 69 80
3 79 68 69
3 80 70 81
3 80 69 70
3 81 71 82
3 81 70 71
3 82 72 83
3 82 71 72
3 74 73 85
3 85 73 84
3 84 73 86
3 86 73 75
3 75 76 86
3 86 76 87
3 76 77 88
3 87 76 88
3 77 78 89
3 88 77 89
3 78 79 90
3 89 78 90
3 79 80 91
3 90 79 91
3 80 81 92
3 91 80 92
3 81 82 93
3 92 81 93
3 93 83 94
3 93 82 83
3 84 95 85
3 84 86 96
3 97 84 96
3 95 84 97
3 96 87 98
3 96 86 87
3 87 88 98
3 98 88 99
3 88 89 99
3 99 89 100
3 89 90 100
3 100 90 101
3 101 91 102
3 101 90 91
3 102 92 103
3 102 91 92
3 92 93 103
3 105 103 104
3 103 93 104
3 93 94 104
3 96 106 97
3 96 98 107
3 106 96 107
3 98 99 108
3 107 98 108
3 99 100 109
3 108 99 109
3 100 101 110
3 109 100 110
3 101 102 111
3 110 101 111
3 111 102 112
3 112 102 103
3 103 105 112
3 117 114 115
3 116 113 117
3 117 113 114
3 116 117 119
3 118 116 119
3 118 119 121
3 120 118 121
3 120 121 123
3 122 120 123
3 122 123 125
3 124 122 125
3 124 125 127
3 126 124 127
3 126 127 128
3 129 130 131
3 114 129 131
3 114 113 129
3 113 2 129
3 129 2 1
3 4 113 116
3 4 2 113
3 6 116 118
3 6 4 116
3 8 118 120
3 8 6 118
3 10 120 122
3 10 8 120
3 12 122 124
3 12 10 122
3 14 124 126
3 14 12 124
3 133 126 128
3 15 14 126
3 15 126 133
3 132 15 133
3 132 133 134
3 135 136 137
3 137 17 135
3 137 18 17
3 18 137 130
3 129 18 130
3 18 129 1
3 15 132 26
3 139 132 134
3 139 138 132
3 138 28 26
3 132 138 26
3 138 139 140
3 136 135 142
3 142 135 141
3 17 30 135
3 135 30 141
3 143 39 28
3 138 143 28
3 143 140 144
3 143 138 140
3 141 145 146
3 142 141 146
3 41 145 141
3 30 41 141
3 147 39 143
3 147 50 39
3 147 144 148
3 147 143 144
3 145 149 150
3 146 145 150
3 52 149 145
3 41 52 145
3 151 50 147
3 151 155 50
3 151 148 152
3 151 147 148
3 149 153 154
3 150 149 154
3 63 153 149
3 52 63 149
3 155 61 50
3 155 72 61
3 155 151 156
3 156 151 152
3 154 157 158
3 154 153 157
3 74 157 153
3 63 74 153
3 159 72 155
3 159 83 72
3 159 156 160
3 159 155 156
3 158 157 162
3 162 157 161
3 74 85 161
3 157 74 161
3 163 83 159
3 163 94 83
3 163 160 164
3 163 159 160
3 161 165 162
3 165 95 166
3 165 161 95
3 161 85 95
3 165 166 167
3 95 97 166
3 105 104 168
3 170 94 163
3 170 168 94
3 169 168 170
3 94 168 104
3 163 164 170
3 166 171 167
3 173 171 172
3 172 171 106
3 171 97 106
3 171 166 97
3 172 107 174
3 172 106 107
3 174 108 175
3 174 107 108
3 175 109 176
3 175 108 109
3 176 110 177
3 176 109 110
3 177 111 178
3 177 110 111
3 178 112 180
3 178 111 112
3 181 105 168
3 181 180 105
3 179 178 180
3 180 112 105
3 168 169 181
3 172 182 173
3 182 172 183
3 183 172 174
3 174 175 184
3 183 174 184
3 175 176 185
3 184 175 185
3 176 177 186
3 185 176 186
3 177 178 187
3 186 177 187
3 187 179 188
3 187 178 179
3 179 180 229
3 189 190 191
3 114 131 191
3 115 114 191
3 115 191 192
3 115 192 193
3 117 115 193
3 119 193 194
3 119 117 193
3 119 194 121
3 121 194 195
3 121 195 123
3 123 195 196
3 123 196 125
3 125 196 197
3 127 197 198
3 127 125 197
3 128 198 199
3 200 128 199
3 128 127 198
3 200 199 201
3 202 203 204
3 131 130 189
3 190 189 204
3 189 130 202
3 189 202 204
3 131 189 191
3 128 200 133
3 134 200 205
3 206 205 201
3 134 133 200
3 205 200 201
3 205 206 207
3 136 208 203
3 202 137 136
3 202 136 203
3 137 202 130
3 134 205 139
3 139 205 207
3 140 139 207
3 211 207 209
3 136 142 208
3 208 142 210
3 211 140 207
3 211 144 140
3 146 212 210
3 142 146 210
3 148 144 213
3 213 144 211
3 150 214 212
3 146 150 212
3 215 148 213
3 215 152 148
3 154 216 150
3 150 216 214
3 219 152 217
3 217 152 215
3 158 218 216
3 154 158 216
3 219 156 152
3 219 160 156
3 158 220 218
3 158 162 220
3 221 160 219
3 221 164 160
3 162 165 222
3 223 220 222
3 220 162 222
3 165 167 222
3 169 170 224
3 225 164 221
3 224 170 164
3 224 164 225
3 222 226 223
3 167 171 227
3 226 167 227
3 226 227 228
3 226 222 167
3 171 173 227
3 180 181 229
3 181 169 230
3 231 169 224
3 230 169 231
3 230 229 181
3 224 225 271
3 227 232 228
3 232 182 233
3 232 173 182
3 227 173 232
3 182 183 234
3 233 182 234
3 183 184 234
3 234 184 235
3 184 185 235
3 235 185 236
3 185 186 236
3 236 186 237
3 186 187 237
3 237 187 238
3 238 188 239
3 238 187 188
3 188 179 229
3 240 239 188
3 240 188 229
3 229 230 240
3 191 190 242
3 242 190 241
3 192 242 243
3 192 191 242
3 192 243 244
3 193 192 244
3 194 244 245
3 194 193 244
3 194 245 246
3 195 194 246
3 195 246 247
3 196 195 247
3 196 247 248
3 197 196 248
3 197 248 249
3 198 197 249
3 199 198 249
3 250 199 249
3 201 199 251
3 251 199 250
3 204 252 253
3 204 203 252
3 190 253 241
3 190 204 253
3 206 251 254
3 206 201 251
3 207 206 255
3 255 206 254
3 203 256 252
3 203 208 256
3 257 209 255
3 255 209 207
3 210 258 208
3 208 258 256
3 211 209 259
3 259 209 257
3 212 260 210
3 210 260 258
3 213 211 259
3 261 213 259
3 214 262 260
3 212 214 260
3 215 213 261
3 263 215 261
3 216 264 214
3 214 264 262
3 217 215 263
3 265 217 263
3 218 266 264
3 216 218 264
3 219 217 265
3 267 219 265
3 218 268 266
3 218 220 268
3 221 219 267
3 269 221 267
3 223 270 268
3 220 223 268
3 225 221 269
3 271 225 269
3 223 226 272
3 270 223 272
3 272 228 273
3 272 226 228
3 274 231 275
3 274 230 231
3 275 231 271
3 271 231 224
3 273 228 276
3 276 228 232
3 276 233 277
3 276 232 233
3 233 234 278
3 277 233 278
3 234 235 279
3 278 234 279
3 235 236 280
3 279 235 280
3 236 237 281
3 280 236 281
3 237 238 282
3 281 237 282
3 238 239 283
3 282 238 283
3 327 239 284
3 284 239 240
3 240 230 274
3 284 240 274
3 241 285 286
3 242 241 286
3 242 286 243
3 243 286 287
3 243 287 288
3 244 243 288
3 245 288 289
3 245 244 288
3 245 289 246
3 246 289 290
3 246 290 247
3 247 290 291
3 247 291 248
3 248 291 292
3 248 292 293
3 249 248 293
3 249 293 250
3 250 293 294
3 250 294 295
3 251 250 295
3 252 296 297
3 253 252 297
3 241 297 285
3 241 253 297
3 254 295 298
3 254 251 295
3 254 298 299
3 255 254 299
3 256 300 252
3 252 300 296
3 257 255 299
3 301 257 299
3 258 302 300
3 256 258 300
3 259 257 303
3 303 257 301
3 260 304 258
3 258 304 302
3 261 259 303
3 305 261 303
3 262 306 304
3 260 262 304
3 263 261 305
3 307 263 305
3 264 308 262
3 262 308 306
3 265 263 307
3 309 265 307
3 266 310 308
3 264 266 308
3 267 265 309
3 311 267 309
3 266 312 310
3 266 268 312
3 269 267 311
3 313 269 311
3 270 314 312
3 268 270 312
3 271 269 315
3 315 269 313
3 270 272 316
3 314 270 316
3 316 273 317
3 316 272 273
3 318 275 319
3 318 274 275
3 275 271 315
3 319 275 315
3 273 276 320
3 317 273 320
3 276 277 320
3 320 277 321
3 277 278 322
3 321 277 322
3 322 279 323
3 322 278 279
3 279 280 323
3 323 280 324
3 280 281 324
3 324 281 325
3 281 282 325
3 325 282 326
3 282 283 326
3 326 283 327
3 283 239 327
3 327 284 328
3 284 274 318
3 328 284 318
3 285 329 330
3 286 285 330
3 286 330 287
3 287 330 331
3 287 331 332
3 288 287 332
3 288 332 289
3 289 332 333
3 289 333 334
3 290 289 334
3 290 334 335
3 291 290 335
3 291 335 292
3 292 335 336
3 292 336 337
3 293 292 337
3 293 337 294
3 294 337 338
3 294 338 339
3 295 294 339
3 296 340 341
3 297 296 341
3 285 341 329
3 285 297 341
3 298 339 342
3 298 295 339
3 298 342 343
3 299 298 343
3 300 344 296
3 296 344 340
3 301 299 343
3 345 301 343
3 302 346 344
3 300 302 344
3 303 301 347
3 347 301 345
3 304 348 302
3 302 348 346
3 305 303 347
3 349 305 347
3 306 350 348
3 304 306 348
3 307 305 351
3 351 305 349
3 308 352 306
3 306 352 350
3 309 307 353
3 353 307 351
3 310 354 352
3 308 310 352
3 311 309 355
3 355 309 353
3 312 356 310
3 310 356 354
3 313 311 355
3 357 313 355
3 314 358 356
3 312 314 356
3 315 313 359
3 359 313 357
3 314 316 360
3 358 314 360
3 360 317 361
3 360 316 317
3 362 319 363
3 362 318 319
3 319 315 359
3 363 319 359
3 317 320 364
3 361 317 364
3 320 321 364
3 364 321 365
3 321 322 366
3 365 321 366
3 322 323 366
3 366 323 367
3 323 324 368
3 367 323 368
3 324 325 369
3 368 324 369
3 325 326 370
3 369 325 370
3 326 327 371
3 370 326 371
3 327 328 371
3 371 328 372
3 328 318 362
3 372 328 362
3 329 373 374
3 330 329 374
3 330 374 331
3 331 374 375
3 331 375 376
3 332 331 376
3 332 376 333
3 333 376 377
3 333 377 378
3 334 333 378
3 334 378 379
3 335 334 379
3 335 379 336
3 336 379 380
3 336 380 381
3 337 336 381
3 337 381 338
3 338 381 382
3 338 382 383
3 339 338 383
3 340 384 385
3 341 340 385
3 329 385 373
3 329 341 385
3 342 383 386
3 342 339 383
3 342 386 387
3 343 342 387
3 344 388 340
3 340 388 384
3 345 343 387
3 389 345 387
3 346 390 388
3 344 346 388
3 347 345 391
3 391 345 389
3 348 392 346
3 346 392 390
3 349 347 391
3 393 349 391
3 350 394 348
3 348 394 392
3 351 349 395
3 395 349 393
3 352 396 350
3 350 396 394
3 353 351 395
3 397 353 395
3 354 398 396
3 352 354 396
3 355 353 399
3 399 353 397
3 356 400 354
3 354 400 398
3 357 355 399
3 401 357 399
3 358 402 400
3 356 358 400
3 359 357 403
3 403 357 401
3 358 360 404
3 402 358 404
3 404 361 405
3 404 360 361
3 406 363 407
3 406 362 363
3 363 359 403
3 407 363 403
3 361 364 408
3 405 361 408
3 364 365 408
3 408 365 409
3 365 366 410
3 409 365 410
3 366 367 410
3 410 367 411
3 367 368 412
3 411 367 412
3 368 369 412
3 412 369 413
3 369 370 413
3 413 370 414
3 370 371 415
3 414 370 415
3 371 372 415
3 415 372 416
3 372 362 406
3 416 372 406
3 373 417 418
3 374 373 418
3 374 418 375
3 375 418 419
3 375 419 420
3 376 375 420
3 376 420 377
3 377 420 421
3 377 421 422
3 378 377 422
3 378 422 423
3 379 378 423
3 380 423 424
3 380 379 423
3 380 424 425
3 381 380 425
3 382 425 426
3 382 381 425
3 382 426 427
3 383 382 427
3 384 428 429
3 385 384 429
3 373 429 417
3 373 385 429
3 386 427 430
3 386 383 427
3 386 430 431
3 387 386 431
3 384 432 428
3 384 388 432
3 389 387 431
3 433 389 431
3 390 434 432
3 388 390 432
3 435 389 433
3 435 391 389
3 390 436 434
3 390 392 436
3 393 391 435
3 437 393 435
3 394 438 436
3 392 394 436
3 395 393 439
3 439 393 437
3 396 440 438
3 394 396 438
3 397 395 439
3 441 397 439
3 398 442 440
3 396 398 440
3 399 397 443
3 443 397 441
3 400 444 398
3 398 444 442
3 401 399 443
3 445 401 443
3 402 446 444
3 400 402 444
3 403 401 447
3 447 401 445
3 402 404 448
3 446 402 448
3 448 405 449
3 448 404 405
3 450 407 451
3 450 406 407
3 407 403 447
3 451 407 447
3 405 408 452
3 449 405 452
3 408 409 452
3 452 409 453
3 409 410 454
3 453 409 454
3 410 411 454
3 454 411 455
3 411 412 456
3 455 411 456
3 412 413 456
3 456 413 457
3 457 414 458
3 457 413 414
3 414 415 459
3 458 414 459
3 415 416 459
3 459 416 460
3 416 406 450
3 460 416 450
3 418 461 462
3 418 417 461
3 419 462 463
3 419 418 462
3 419 463 464
3 420 419 464
3 420 464 421
3 421 464 465
3 421 465 466
3 422 421 466
3 422 466 467
3 423 422 467
3 424 467 468
3 424 423 467
3 424 468 469
3 425 424 469
3 426 469 470
3 426 425 469
3 427 426 471
3 471 426 470
3 429 428 473
3 473 428 472
3 417 473 505
3 417 429 473
3 430 427 471
3 520 430 471
3 431 474 475
3 431 430 474
3 428 476 472
3 428 432 476
3 433 431 475
3 477 433 475
3 434 478 476
3 432 434 476
3 479 433 477
3 479 435 433
3 434 480 478
3 434 436 480
3 437 435 479
3 481 437 479
3 438 482 436
3 436 482 480
3 439 437 483
3 483 437 481
3 440 484 482
3 438 440 482
3 441 439 483
3 485 441 483
3 442 486 440
3 440 486 484
3 443 441 487
3 487 441 485
3 444 488 442
3 442 488 486
3 445 443 487
3 489 445 487
3 444 446 488
3 488 446 490
3 491 445 489
3 491 447 445
3 490 446 492
3 492 446 448
3 492 449 493
3 492 448 449
3 494 451 495
3 494 450 451
3 451 447 491
3 495 451 491
3 449 452 496
3 493 449 496
3 496 453 497
3 496 452 453
3 453 454 498
3 497 453 498
3 498 455 499
3 498 454 455
3 455 456 500
3 499 455 500
3 456 457 501
3 500 456 501
3 457 458 502
3 501 457 502
3 458 459 503
3 502 458 503
3 503 460 504
3 503 459 460
3 504 460 494
3 494 460 450
3 461 505 506
3 462 461 506
3 507 463 462
3 507 462 506
3 465 463 508
3 508 463 507
3 464 463 465
3 465 508 509
3 465 509 466
3 466 509 510
3 466 510 467
3 467 510 511
3 467 511 468
3 468 511 512
3 468 512 513
3 469 468 513
3 469 513 470
3 515 470 514
3 470 513 514
3 470 515 471
3 472 516 473
3 518 516 517
3 518 505 516
3 461 417 505
3 505 473 516
3 505 518 506
3 515 514 519
3 474 430 520
3 521 520 519
3 520 471 515
3 520 515 519
3 474 520 524
3 476 522 472
3 516 472 523
3 472 522 523
3 516 523 517
3 520 521 524
3 477 475 524
3 524 475 474
3 525 477 524
3 478 526 522
3 476 478 522
3 527 477 525
3 527 479 477
3 478 528 526
3 478 480 528
3 481 479 527
3 529 481 527
3 482 530 480
3 480 530 528
3 483 481 531
3 531 481 529
3 484 532 530
3 482 484 530
3 485 483 531
3 533 485 531
3 486 534 484
3 484 534 532
3 535 485 533
3 535 487 485
3 486 536 534
3 486 488 536
3 537 489 535
3 535 489 487
3 490 538 539
3 536 490 539
3 488 490 536
3 538 540 539
3 541 542 543
3 541 489 537
3 542 541 537
3 541 491 489
3 490 492 538
3 545 493 544
3 538 492 493
3 538 493 545
3 540 538 545
3 544 546 545
3 547 548 549
3 543 495 541
3 547 494 495
3 547 495 543
3 608 547 543
3 495 491 541
3 493 496 544
3 544 497 550
3 546 544 550
3 544 496 497
3 550 497 551
3 551 497 498
3 498 499 551
3 551 499 552
3 499 500 552
3 552 500 553
3 500 501 553
3 553 501 554
3 554 502 555
3 554 501 502
3 502 503 556
3 555 502 556
3 503 504 556
3 549 504 547
3 556 504 549
3 504 494 547
3 506 557 507
3 507 557 558
3 508 507 558
3 508 558 559
3 509 508 559
3 509 559 560
3 510 509 560
3 510 560 561
3 511 510 561
3 511 561 562
3 512 511 562
3 514 512 563
3 563 512 562
3 513 512 514
3 517 564 518
3 518 564 557
3 566 564 565
3 557 564 566
3 557 506 518
3 558 566 567
3 558 557 566
3 559 567 568
3 559 558 567
3 560 568 569
3 560 559 568
3 561 569 570
3 561 560 569
3 562 570 571
3 562 561 570
3 563 562 571
3 572 563 571
3 574 514 563
3 572 574 563
3 573 519 574
3 574 519 514
3 519 573 521
3 522 575 523
3 577 575 576
3 577 517 575
3 564 517 577
3 575 517 523
3 564 577 565
3 573 574 572
3 521 573 579
3 580 573 578
3 579 573 580
3 579 524 521
3 524 579 525
3 522 581 575
3 522 526 581
3 576 581 582
3 576 575 581
3 583 580 584
3 583 579 580
3 583 525 579
3 583 527 525
3 526 585 581
3 526 528 585
3 582 585 586
3 582 581 585
3 587 584 588
3 587 583 584
3 587 527 583
3 587 529 527
3 528 589 585
3 528 530 589
3 586 589 590
3 586 585 589
3 591 588 592
3 591 587 588
3 591 529 587
3 591 531 529
3 532 593 589
3 530 532 589
3 590 593 594
3 590 589 593
3 595 592 596
3 595 591 592
3 595 531 591
3 595 533 531
3 534 597 593
3 532 534 593
3 594 597 598
3 594 593 597
3 599 596 600
3 599 595 596
3 599 533 595
3 599 535 533
3 534 601 597
3 534 536 601
3 602 597 601
3 602 598 597
3 603 599 600
3 604 603 600
3 603 535 599
3 603 537 535
3 536 539 601
3 606 540 605
3 606 602 540
3 602 601 539
3 540 602 539
3 605 607 606
3 608 609 610
3 608 543 609
3 604 542 603
3 609 543 542
3 609 542 604
3 542 537 603
3 540 545 605
3 605 546 607
3 612 607 611
3 605 545 546
3 607 546 611
3 612 613 614
3 612 611 613
3 614 615 616
3 614 613 615
3 616 617 618
3 616 615 617
3 618 619 620
3 618 617 619
3 620 621 622
3 620 619 621
3 622 623 624
3 622 621 623
3 610 548 608
3 624 623 548
3 624 548 610
3 548 623 549
3 548 547 608
3 546 550 611
3 611 550 613
3 613 550 551
3 551 552 615
3 613 551 615
3 552 553 617
3 615 552 617
3 553 554 619
3 617 553 619
3 554 555 621
3 619 554 621
3 621 555 623
3 623 555 556
3 556 549 623
3 565 625 626
3 567 566 626
3 626 566 565
3 567 626 627
3 568 567 627
3 568 627 628
3 569 568 628
3 569 628 629
3 570 569 629
3 570 629 630
3 571 570 630
3 572 571 631
3 631 571 630
3 572 631 578
3 576 632 577
3 625 632 633
3 565 577 632
3 565 632 625
3 625 633 634
3 626 625 634
3 626 634 627
3 627 634 635
3 627 635 628
3 628 635 636
3 628 636 629
3 629 636 637
3 629 637 630
3 630 637 638
3 631 638 639
3 631 630 638
3 640 578 639
3 578 573 572
3 578 631 639
3 578 640 580
3 576 641 632
3 576 582 641
3 633 641 642
3 633 632 641
3 633 642 643
3 634 633 643
3 634 643 644
3 635 634 644
3 635 644 645
3 636 635 645
3 636 645 646
3 637 636 646
3 637 646 647
3 638 637 647
3 638 647 648
3 639 638 648
3 640 648 649
3 640 639 648
3 584 580 640
3 649 584 640
3 582 650 641
3 582 586 650
3 642 650 651
3 642 641 650
3 642 651 652
3 643 642 652
3 643 652 653
3 644 643 653
3 644 653 645
3 645 653 654
3 645 654 646
3 646 654 655
3 646 655 647
3 647 655 656
3 647 656 648
3 648 656 657
3 648 657 649
3 649 657 658
3 588 584 649
3 658 588 649
3 586 659 650
3 586 590 659
3 650 659 651
3 651 659 660
3 651 660 661
3 652 651 661
3 652 661 662
3 653 652 662
3 653 662 654
3 654 662 663
3 654 663 664
3 655 654 664
3 655 664 665
3 656 655 665
3 656 665 666
3 657 656 666
3 657 666 658
3 658 666 667
3 592 588 658
3 667 592 658
3 590 668 659
3 590 594 668
3 660 668 669
3 660 659 668
3 660 669 670
3 661 660 670
3 661 670 671
3 662 661 671
3 662 671 663
3 663 671 672
3 663 672 664
3 664 672 673
3 664 673 665
3 665 673 674
3 665 674 666
3 666 674 675
3 666 675 667
3 667 675 676
3 596 592 667
3 676 596 667
3 594 677 668
3 594 598 677
3 668 677 669
3 669 677 678
3 669 678 679
3 670 669 679
3 670 679 680
3 671 670 680
3 671 680 681
3 672 671 681
3 672 681 682
3 673 672 682
3 673 682 683
3 674 673 683
3 674 683 684
3 675 674 684
3 676 684 685
3 676 675 684
3 600 596 676
3 685 600 676
3 598 686 677
3 598 602 606
3 678 686 687
3 678 677 686
3 678 687 679
3 679 687 688
3 679 688 680
3 680 688 689
3 680 689 681
3 681 689 690
3 681 690 682
3 682 690 691
3 683 691 692
3 683 682 691
3 684 692 693
3 684 683 692
3 685 693 694
3 685 684 693
3 694 604 685
3 685 604 600
3 598 606 686
3 606 607 695
3 686 606 695
3 686 695 687
3 688 687 696
3 696 687 695
3 688 696 697
3 689 688 697
3 689 697 698
3 690 689 698
3 690 698 699
3 691 690 699
3 691 699 700
3 692 691 700
3 692 700 701
3 693 692 701
3 610 609 694
3 701 610 694
3 701 694 693
3 609 604 694
3 607 612 695
3 695 612 696
3 696 612 614
3 614 616 697
3 696 614 697
3 616 618 698
3 697 616 698
3 618 620 699
3 698 618 699
3 620 622 700
3 699 620 700
3 622 624 701
3 700 622 701
3 624 610 701
