OFF
702 1400 0
-0.259425854076617 -0.324034271700655 2.22799961554609
-0.304996820160723 -0.310494775903525 2.21045134959983
-0.277149696041434 -0.33027891365107 2.18296517460455
-0.212512367367034 -0.330597610690174 2.23234129356944
-0.231165005597378 -0.340967696413182 2.18790751907137
-0.165675199460999 -0.335232865556497 2.2350980753646
-0.18475580684258 -0.345191706578278 2.18964250871482
-0.120257499896747 -0.339202299102028 2.23906186403441
-0.139413836206901 -0.349210080555637 2.19108659820348
-0.0753216582940391 -0.342971675366698 2.24338414815646
-0.0946124703768071 -0.352782228164499 2.19532756120952
-0.0277514118052597 -0.345935503402166 2.25057557099015
-0.0487473138180842 -0.355951582124777 2.20340477714809
0.0204317405681839 -0.341404794042708 2.25839584087409
-0.00134734771595126 -0.357423612988151 2.21196858323265
0.0452558490597353 -0.348437181596116 2.22017035079354
-0.327324502562248 -0.281562306244985 2.23853830356487
-0.357296426473656 -0.264534000809652 2.21116316789306
-0.336395417606964 -0.294902536480857 2.18288600080474
-0.286708186995352 -0.297300560598411 2.25806404190372
-0.239907879086787 -0.306179261661851 2.26972524634792
-0.19217796610249 -0.311438614404275 2.27316177079018
-0.145361307434761 -0.315300101894146 2.27812126578009
-0.100091096263915 -0.318606262756842 2.28353761684857
-0.0557730386199258 -0.323942162319103 2.28574344810356
-0.00705846984777851 -0.324645425857999 2.29253977643131
0.066450193761741 -0.325176985439857 2.263407599809
0.0382087508426781 -0.312414662971634 2.29969502067445
0.0842911148526448 -0.292298161277506 2.29668243393825
-0.313977629393698 -0.260194445496578 2.27970258580882
-0.354355219518934 -0.240072097388172 2.25182733256723
-0.267855319024033 -0.273438234998988 2.29698257341819
-0.217840470452523 -0.279693180617886 2.30464985727061
-0.170196215416982 -0.283958739242341 2.30946953534385
-0.122509115629756 -0.286297906008222 2.31623040782634
-0.077747997059485 -0.288947047787145 2.32212048101548
-0.0355208129780701 -0.298311941150497 2.32079176665666
0.00592197891843438 -0.289923593546913 2.33092907297069
0.0515975840340104 -0.276502392623725 2.33172644434299
0.0963579021732873 -0.254293847997183 2.32447301510975
-0.332013572268317 -0.222676746505326 2.30004747008043
-0.365396934639156 -0.201519546247741 2.27360864962494
-0.290859197827885 -0.237330982259671 2.3210094362304
-0.241752973918885 -0.247805965605462 2.33188685353897
-0.192917187613987 -0.249866180264431 2.33932554311048
-0.145425520792688 -0.254562411307916 2.34368490378848
-0.0938378906022817 -0.255270652749708 2.35282558091865
-0.0389797790920577 -0.264636958535554 2.35390669213303
0.0115492868340971 -0.257217341018111 2.36263576576803
0.0620196039475205 -0.241721032812215 2.36061945243465
0.106708392698083 -0.215740980040508 2.35193892094246
-0.315683973284649 -0.198004559965885 2.34211615918997
-0.356432941953367 -0.18054601539091 2.31119093583169
-0.266322940520887 -0.215022964767124 2.35676573531066
-0.218815262085465 -0.217170861151206 2.3671740469797
-0.173196110276079 -0.218094518127258 2.37495930278685
-0.129249432744134 -0.225916436873639 2.3755063201799
-0.0955480227345664 -0.213734469533787 2.39416002254962
-0.0608459933893957 -0.233170497907326 2.38129271318091
-0.0184269290707221 -0.229536078706511 2.39168168971381
0.0294911393449201 -0.222996105587846 2.39247263846116
0.0775091947894225 -0.204257336958293 2.38758154772628
-0.318452211087082 -0.156968930148499 2.38180389572104
-0.346822535857139 -0.159608840679675 2.34724304854062
-0.285597769181009 -0.183346186687045 2.37921092454106
-0.238373794942136 -0.185506364577121 2.39519243906783
-0.193531552209798 -0.184143584586161 2.40513012891158
-0.144579500871595 -0.189054680713477 2.40955181180502
-0.0990010994316129 -0.183076371803503 2.42425218903667
-0.0516363022196993 -0.196504410132638 2.41982832390473
-0.00356300108530429 -0.196255988197229 2.4247569283303
0.044176059271062 -0.189001378432511 2.42074928420278
0.0915843774481523 -0.166945940247991 2.41291948771062
-0.307498635253027 -0.132063116899749 2.41666661816015
-0.351934753322542 -0.119778743768058 2.38176812647822
-0.268858602534136 -0.156550489287919 2.41482267157575
-0.22270461760312 -0.150072205601099 2.43373215629799
-0.172619016708606 -0.154517665513369 2.43883835823327
-0.126729572753041 -0.15417176873494 2.44794918162459
-0.07514278593872 -0.158125093296973 2.45383464066199
-0.0301859286982007 -0.164639336348621 2.45552800758018
0.0162008407172957 -0.161747571822101 2.45628230335555
0.0600522844781244 -0.154619553009402 2.44677280263802
0.0964504088526675 -0.128961396488393 2.44502897295635
-0.302344522165106 -0.0918540434107813 2.45191419365742
-0.336520382301432 -0.100982583916674 2.41919682936604
-0.268980641368289 -0.122139466455074 2.44752009600215
-0.23421976583225 -0.110064605295443 2.46485464710519
-0.191475756448033 -0.118652965203825 2.46622361052544
-0.146281042286527 -0.118822021975886 2.47356562800483
-0.0990206107743765 -0.122196497571389 2.47910674321214
-0.0503628341387142 -0.126357263157416 2.48436397172269
-0.00206485147669096 -0.129523227916686 2.48567672414488
0.0494494102982653 -0.123987002966422 2.47751345757559
0.0967675045565786 -0.0929770858652226 2.46892647486114
-0.343698204095042 -0.0614947766874719 2.43570612409745
-0.264869416878047 -0.0721978232220959 2.47722462039459
-0.308479281820004 -0.0477624026807546 2.46643216433899
-0.215316404094914 -0.0727914202830106 2.48604938824672
-0.169237669306346 -0.0776003330503543 2.49081689705959
-0.122498747588877 -0.0786417871138918 2.49704928577676
-0.0766549145768577 -0.0833184021257142 2.50184192344273
-0.0299419961153846 -0.0879048646841078 2.50650792376551
0.0167010493833118 -0.0897244917461672 2.5040712358574
0.0609541304947913 -0.0837077830541277 2.4934067744244
0.042926360300215 -0.0445850924299596 2.509661101391
-0.281383140612557 -0.0205853739883392 2.48379216114537
-0.238860530276991 -0.0296927073162188 2.49350149680259
-0.189771890959609 -0.0316262837810161 2.49932828125225
-0.143961346190305 -0.032827891369106 2.50480049032572
-0.0976210013861639 -0.0343490806084305 2.51027663529563
-0.0530170287241043 -0.0411524567412806 2.5149595713359
-0.00528689450552865 -0.0456321235512705 2.51757191448875
-0.255555472121237 -0.338598877945275 2.1436306760514
-0.27963030259813 -0.325042716833839 2.10819538840717
-0.256410358531512 -0.318820566056783 2.07035548118938
-0.205950554727641 -0.345230099481716 2.14393005091529
-0.227918580982472 -0.336714398489418 2.10293122305306
-0.159909039055399 -0.348267131348491 2.14293097331924
-0.179817887060731 -0.337413986632859 2.09698166368479
-0.114480269590048 -0.351465882327749 2.14513637555845
-0.134506042603194 -0.33926107370727 2.09731909396734
-0.0690916812109725 -0.355221545834393 2.15251541896391
-0.0868854208701742 -0.343090587174592 2.10312125618191
-0.0240951227365602 -0.359155791380055 2.16258760087476
-0.0410975568281092 -0.347920345942907 2.11202945632028
0.0220388548861801 -0.357877854682037 2.17071997147012
0.00320648275639897 -0.352190318039495 2.1230306480643
0.0512250236930172 -0.345384103114615 2.13153766644412
-0.30698246271695 -0.318036995594392 2.15161252310938
-0.345493543553336 -0.287594079869133 2.1355605876822
-0.316276261060415 -0.303782136107044 2.10310164788179
0.0900861072361642 -0.328364029589067 2.22375548584492
0.0653246645168247 -0.346235529912231 2.1794803452392
0.105087179374646 -0.324943221459601 2.18088620972043
-0.382536322895749 -0.228887774740615 2.20128988755484
-0.393252741126603 -0.217009158241321 2.15164138281034
-0.370514064512787 -0.259435803555242 2.16495092308261
0.11157264414525 -0.299770496411318 2.25681594534063
0.131768099542199 -0.298821399053701 2.21228406420457
0.149249122888543 -0.267284027408368 2.23903693484435
-0.384281885412855 -0.199862746173905 2.2324303509618
-0.400491566279281 -0.184283573012672 2.18606769085886
0.125889466776095 -0.263726031127449 2.28449568909227
0.156983757380781 -0.227652197422149 2.26911802234489
-0.387535521110235 -0.160871045043981 2.26584447645901
-0.400579770913337 -0.153992159779542 2.2221221653285
0.134183885749427 -0.223097414748382 2.31196817232582
0.163826626787553 -0.185539300007141 2.29280940895679
-0.38158125617263 -0.141385868840851 2.30336096519911
-0.402298982732843 -0.11340488539473 2.26098564953581
0.143263695158484 -0.181822519228546 2.33687429604915
0.168684266931744 -0.143372396215137 2.31852879090554
-0.37326847540482 -0.122925122329674 2.3419845202809
-0.397270231631934 -0.0951203156292015 2.30602049543157
0.120443166903572 -0.174481486094479 2.37622496440042
0.153014940716311 -0.136574463296836 2.36131706155291
-0.386732500139338 -0.082769038757452 2.35381315177778
-0.40511662944779 -0.0487570719491224 2.32231762345392
0.128302884689709 -0.134321088444188 2.40422250963018
0.158537576502876 -0.0963993983338484 2.38654459710811
-0.370817065672409 -0.0747740148752488 2.39507775354312
-0.395117887683011 -0.0370848023430778 2.36946303548272
0.132192185689881 -0.0967683533693179 2.43207265255848
0.155943474285014 -0.0590288120527316 2.41771948160972
-0.37330711319075 -0.029442347375742 2.41206255377953
-0.340843050882173 -0.0178142648914006 2.4491632401096
-0.360622496145867 0.0154735675575603 2.42929514868363
0.0899355048144751 -0.0458319311698259 2.48852406538322
0.11331652794767 -0.00671888540240077 2.47367176417969
0.126389486641119 -0.0544509702424915 2.45787346706204
-0.315069357506235 0.00986328048732385 2.46782176099341
-0.262365893951262 0.0205309907663672 2.48909814359742
-0.29432270380736 0.0486683260365404 2.47164825406438
-0.212746958402483 0.0117697381703154 2.4975563555216
-0.165441270525574 0.0145052249296895 2.50227504937495
-0.118798291261713 0.012963590761572 2.50731023472236
-0.0719418088494211 0.0113553517199822 2.51235465026152
-0.0289921475535456 0.000493709465308152 2.51803782376767
-0.00340154306722215 0.036720721743024 2.51144803010969
0.0216510011851927 -0.00344786201771517 2.51583759080949
0.0702373325329855 -0.00356326713463649 2.50051112083688
-0.260661476344634 0.0778140547148257 2.47319367456198
-0.229051461821386 0.0541881850130981 2.48784313351708
-0.184885097643685 0.0592936615642664 2.49006863582176
-0.138760950912526 0.0591291492233318 2.49406780848773
-0.0920495311907705 0.0569475272156814 2.49882449882805
-0.043615139989677 0.055039504233632 2.5036058032818
0.0122782818675092 0.0735094716143982 2.49512128803058
-0.343963085185313 -0.272498855475696 2.0858808863476
-0.327959893008231 -0.260270683871104 2.04635634534644
-0.297413402826219 -0.295870311109573 2.06099412410698
-0.248865504989412 -0.297562917999867 2.03367021659832
-0.206805309857225 -0.3205808319939 2.06009270847183
-0.156315522934707 -0.316711626538503 2.05281360381104
-0.106296424054003 -0.321953499980437 2.06062455637658
-0.0542110439906059 -0.326159025458836 2.06680740483841
-0.00886083958300218 -0.331745863762909 2.07532823742406
0.0353643544069884 -0.334855043039034 2.09109847869605
0.0778728430643855 -0.317078773805937 2.08913925609092
0.090950704756671 -0.328963020494338 2.13746757028878
0.117530511464125 -0.303553342849182 2.11841021406176
-0.373413349020211 -0.249023620914324 2.11863048535802
-0.390918509263321 -0.20303842495641 2.10403187033552
-0.367908237731415 -0.231102589877005 2.07471432425237
0.134591887928837 -0.299166281181933 2.16269099463366
0.150381354293977 -0.271759663697675 2.13013430466101
0.160911374747856 -0.266392773495746 2.18504134632054
-0.404607918065946 -0.16857571556807 2.13932975868949
0.180897156387354 -0.224445752967995 2.18054129797604
-0.407131914691732 -0.136323433261776 2.17070282398551
0.173276718632559 -0.230516189218089 2.22338697501771
-0.407615229502178 -0.112483692926591 2.21255397213636
0.17935993623348 -0.187628942531098 2.24542622775524
-0.409310196546426 -0.0720770501087819 2.22651501826167
0.182390877877189 -0.146484091205788 2.26777603787011
-0.408770498498981 -0.06242440833342 2.27340069123086
0.183488705823389 -0.108084163294179 2.29352800742942
-0.411465553582764 -0.0140382101973376 2.28995076455491
0.176170417562083 -0.0936359379311891 2.33849389962322
-0.407106744528959 -0.0010929394122544 2.33980873921226
0.17688735708005 -0.053423003314868 2.36971054014188
-0.389798093879885 0.00915021611556792 2.38729699093351
-0.39625867493733 0.0453067077415839 2.35691137585503
0.146200982329052 -0.0135002039176096 2.43972421302745
0.170107606701172 -0.018998956043658 2.39864876500571
-0.372065154595249 0.0528816172490851 2.4025767462073
-0.336912673167721 0.0500153954342391 2.44364698711231
-0.343866001538171 0.0904027968123959 2.41431848023773
0.0464046182238759 0.0376714163734044 2.50182088976767
0.0926705890773288 0.0363148675273311 2.47980377330762
0.131251606098894 0.0326771253037493 2.44753467506957
-0.306803323835321 0.0878896215811217 2.44752092187613
-0.266079447198618 0.114427214381753 2.4492878551025
-0.213523813071878 0.0991226936849708 2.46908289149494
-0.164449991307251 0.100961059402008 2.4711122820202
-0.117078493004975 0.0996965412981364 2.47489789116041
-0.069690899125128 0.0963912220021769 2.48002651013928
-0.0236745439189751 0.0967808466027078 2.4825144521024
0.0299214659736958 0.106968651006827 2.46890775404563
0.0635169622707175 0.0752339693126115 2.47838028841208
-0.316779100263431 -0.23010617932588 2.0095880469613
-0.28553896271565 -0.269149389188047 2.0204045311708
-0.237243522101491 -0.267499788133594 1.99962758940245
-0.199940827019958 -0.295008836449197 2.02378466856
-0.156287196526634 -0.283789722908187 2.01358467321166
-0.116030736143018 -0.291413360904912 2.02267359806982
-0.0689889953538912 -0.300111172513411 2.03315535129873
-0.012793220444027 -0.301506817216017 2.03649183554775
0.0348446168118323 -0.310644807964729 2.05380123151239
0.0802604743292471 -0.287349599877854 2.05146279888623
0.118590628598516 -0.281785576563064 2.08308169267217
-0.379373709824016 -0.179360195628972 2.0588341570878
-0.352042421064059 -0.218093729653732 2.03910332822349
0.151714147883994 -0.245494404396641 2.09138350024231
0.172451178198333 -0.235756157430104 2.13900509443823
-0.397893423594768 -0.155579520163893 2.09773216574215
0.189474921841301 -0.187530998713107 2.15086462364891
-0.402626081343828 -0.113497273858765 2.12508349573805
0.188969254206265 -0.182775752542673 2.20043761347302
-0.405912582282538 -0.0877634173621759 2.17163773484034
0.190180802903795 -0.13942329058808 2.22046274261691
-0.404526090169228 -0.0433912279951636 2.18969257395338
0.190450736497359 -0.0991186644783997 2.24558538975079
-0.408825666367303 -0.0254349337143719 2.23994892576306
0.188067322668882 -0.0660612140158253 2.28917935537032
-0.407157842364612 0.0206534596341141 2.25662051137005
0.185525098665829 -0.0427446515808264 2.32751621001873
-0.408028594605247 0.0334863920202673 2.30744255228645
0.18131818275888 0.00247282138622564 2.36085775539422
-0.392454569002374 0.0792090535987266 2.32421290695481
0.160676007801471 0.0245185273697489 2.40765221137691
-0.373215304581867 0.0883828950613679 2.37124779359628
-0.339946595322029 0.125596575893046 2.38150828813321
0.105579337663513 0.0745406306462568 2.45031799912896
0.140475263320721 0.0683173273748091 2.41404515330846
-0.305697170807853 0.125053467776302 2.41821309298246
-0.26194360919726 0.150937478318966 2.41546158873653
-0.226237803829831 0.133437644957772 2.44222993295864
-0.181314736298185 0.136855963000622 2.44085870310734
-0.137180368320893 0.136995493953544 2.44229365967747
-0.0904340696092051 0.133001041947692 2.44797209827718
-0.0471134288030556 0.132567013402612 2.44995422172606
-0.00448730812800507 0.130465825803424 2.45302411421099
0.0729621810284429 0.111523087948075 2.44513582333472
-0.313342539025348 -0.196987438743581 1.97918519882006
-0.275130113501329 -0.236129584068706 1.98516711188513
-0.228359323288503 -0.234685671516595 1.9663245615957
-0.188715795732463 -0.25998765125632 1.98853481445703
-0.134858994601712 -0.251641791244679 1.98207951457021
-0.0889362082402845 -0.263662923918976 1.99578535186786
-0.0432477438940894 -0.275013297947819 2.00880976049519
0.000171566488423633 -0.264000699005243 1.9993055473012
0.0378801080602277 -0.28003007416563 2.02179068660464
0.0846581851392014 -0.254536395834922 2.01741022350538
0.121648924092409 -0.251772774033637 2.04971545173913
-0.374346973084002 -0.143327318031528 2.02686614654922
-0.350458711853441 -0.185088742361513 2.01269489525262
0.157657868969072 -0.213291867873639 2.05886388389852
0.178252278734803 -0.203116664143228 2.10461188604556
-0.393000883704359 -0.124352116918837 2.07050819951767
0.195796127842397 -0.154865731745434 2.12069380841925
-0.395910304282811 -0.0779828997647973 2.09007835581289
0.195519846178969 -0.141408546800601 2.17200293811176
-0.399747252061528 -0.0601919640248143 2.13606932399403
0.196551914942558 -0.094267732978417 2.19508003286499
-0.398409340531884 -0.0136235340724324 2.15605515591339
0.19461783930175 -0.0549924730892914 2.23893935509023
-0.402455287322251 0.0054880152871778 2.20478693931647
0.193309973674128 -0.0223023601721734 2.27278819294275
-0.400903233795623 0.0528409503130466 2.22341373886138
0.190212707578154 -0.0011065548687378 2.31428830516271
-0.401748820966334 0.0671376743483318 2.27462361959934
0.187115756121448 0.0425390908666212 2.32777812224888
-0.386087321618222 0.112483338891059 2.29119454613793
0.169404411353209 0.0530248307920323 2.3724203423854
-0.367034341694777 0.121751971015136 2.33817427104757
-0.332803665191466 0.159518736810266 2.34862621543613
0.112433265413778 0.109675352164229 2.41554044722765
0.14804694127347 0.100361040440276 2.37995825283397
-0.29928364902667 0.158734820911653 2.38485204943862
-0.250424506584143 0.183330820330329 2.3851886283705
-0.210141164624788 0.165806839986051 2.4107689386399
-0.159149244945712 0.171784984259427 2.40658854302593
-0.106458553360628 0.165228701395299 2.41505067090792
-0.0580578746499582 0.16633031125012 2.4156729000251
-0.0119576857125302 0.164007354118937 2.41965009289195
0.0357852088455162 0.143525380265236 2.43318799362565
0.0769881035170875 0.147302222971202 2.41116368342401
-0.307704442285794 -0.164613982260275 1.94739697165214
-0.270106323216011 -0.202817348540503 1.9526746329972
-0.222294366535899 -0.203240419151427 1.93495670764807
-0.177485646420588 -0.228963260099709 1.95779281086594
-0.130215018278153 -0.215217134796629 1.94568298658267
-0.0881724643879813 -0.229169889027915 1.96118980920219
-0.0435460554516972 -0.242253971460206 1.97591588832586
0.002846777405568 -0.229001914041923 1.96426973026149
0.0460433656724912 -0.245378188656398 1.98774472523165
0.091738921449331 -0.220779698025337 1.98422359886082
0.127848487671208 -0.220022564696111 2.01825611966651
-0.367778304368577 -0.109466585677641 1.99283980493327
-0.344997542961227 -0.153582992691145 1.98204826408313
0.164095649837945 -0.180824378134181 2.0270585383179
0.184936516993256 -0.169703972540893 2.07273185315989
-0.386535058768617 -0.0934926919481873 2.03753164890392
0.202015830665111 -0.122461207762075 2.08973682259684
-0.389542641755763 -0.047517203103422 2.05470085389601
0.20158190355073 -0.107740121007286 2.14151049521157
-0.393320698952018 -0.0245689381671987 2.10369229428347
0.203496367042614 -0.0614619221095614 2.1562055961068
-0.392743819735013 0.0216021304488918 2.13010958449684
0.19993229871236 -0.0438079800088909 2.19969238387324
-0.396213673165858 0.0395032779865298 2.17294220483467
0.200074868041026 0.000404275848137615 2.2286129863915
-0.394468957190323 0.0849261839330476 2.18855407437481
0.196767461264646 0.0265230381877786 2.27561153556337
-0.395697026658238 0.0991519249854866 2.2409998299885
0.194319010804501 0.0727576008580496 2.2922524768238
-0.37982707581194 0.145037132825246 2.25904094937279
0.175066680960816 0.0890734210207248 2.33914491259983
-0.360213640971457 0.155176772092796 2.30592180648187
-0.324364515931827 0.192946427501578 2.31807638118421
0.117976650917054 0.143580253520075 2.38262254028914
0.153579932508471 0.134811066424229 2.34710861813739
-0.289352987726799 0.191890070400917 2.35461158814167
-0.240755871109016 0.215783908494233 2.35402218114475
-0.199340725793959 0.197369055045922 2.37947236733287
-0.154426942310055 0.210434405683295 2.36796197203629
-0.117281801768023 0.194856350516902 2.38492447469202
-0.0695706733697283 0.197627779678693 2.38384579292124
-0.0191739391291884 0.197831681543477 2.38544028058752
0.0308667847385877 0.177961075006064 2.40194770257353
0.0784361397871136 0.180506151578225 2.38088968190422
-0.301362720276238 -0.132225680276942 1.91494197309122
-0.264400582470718 -0.169871305960989 1.92013948920012
-0.218247082273737 -0.170794402636747 1.90307837663106
-0.17404072345218 -0.196668794614553 1.92549986176293
-0.124284255479177 -0.180797552837049 1.91134430355099
-0.0822555930488477 -0.193976750232603 1.92607373447437
-0.0403129553982906 -0.208509948091308 1.94215996622434
0.00601448971530248 -0.19430913528537 1.92955881409853
0.0495444966997742 -0.212537988454073 1.95413511813485
0.0950497361411694 -0.189122949113778 1.95074719737519
0.134180309864649 -0.187804419456097 1.98638598149605
-0.362642571053699 -0.0747806783901143 1.96151068697634
-0.338707977640807 -0.121732840361977 1.94997128884093
0.170169230936236 -0.148533210887141 1.99470226814555
0.191237569368048 -0.136904356089219 2.04028125788656
-0.380462298530798 -0.058727077391671 2.0049139005512
0.208019458252158 -0.0906231688776031 2.05644858236419
-0.382535537338381 -0.0098942879711104 2.01856808856272
0.208127927300604 -0.074694226826692 2.10631338463597
-0.386790004951272 -0.00074871682585614 2.06234256803144
0.209536732522309 -0.0252302462910044 2.12764715754215
-0.387602594543397 0.0313223872884176 2.09139475624586
0.205511839368651 -0.00799283444669867 2.17492255627142
-0.389234459611942 0.0726417089214875 2.13399425254783
0.206743652720787 0.0371376980032952 2.19485685228722
-0.388425793571798 0.116557116863023 2.15683207104181
0.202828980894814 0.0541876651393373 2.24102725430144
-0.389622873806556 0.131054574045357 2.20920754854949
0.200973840641004 0.103025591762741 2.25859646768069
-0.372677537378484 0.178355785602994 2.22960479894064
0.182120797971763 0.120696466277718 2.30532684342269
-0.35275650287063 0.188374807119714 2.27543798253053
-0.317167814337642 0.225671679334795 2.28670951483425
0.122840241974041 0.176772136275493 2.35092505663221
0.16000721831846 0.16717555057414 2.31445660042291
-0.281207445877568 0.224514119061391 2.32352413025298
-0.234460260823885 0.248865971541846 2.32103955175213
-0.192449040371721 0.232311522466117 2.34464428108586
-0.141839553433587 0.244501113538637 2.33421506863507
-0.102387814169279 0.227543069351581 2.35264578743198
-0.0540950196793047 0.230095260029846 2.35180763226084
-0.00600126681136504 0.230813731488208 2.35280317424443
0.0342459038071285 0.209036253753561 2.37152859329776
0.0856468055088548 0.211275879836383 2.3494451589349
-0.302446823120512 -0.0973451079457363 1.887928718162
-0.257892726615514 -0.136138725265366 1.88646115900427
-0.210158669246442 -0.139299223036258 1.87124369726039
-0.168857192499091 -0.165898702646218 1.89479832230448
-0.11899115114584 -0.147890938042951 1.87855467863229
-0.075383171540814 -0.158546340974573 1.89075510703183
-0.0355357153818346 -0.172639456350724 1.90632341704457
0.00801447280465854 -0.159179598156448 1.89437912123816
0.0524110376719327 -0.180005901546525 1.92073397124893
0.0992345199669789 -0.157025611703252 1.91744080097021
0.136588447331611 -0.158347547076803 1.95305344825043
-0.357133958494066 -0.0394969040787487 1.93001385470685
-0.335820605774402 -0.0875121984860605 1.92113402639621
0.170733430745341 -0.121979579741062 1.9589590028004
0.197241106748886 -0.104182299337048 2.00665349681294
-0.374219659152267 -0.0227450739562808 1.97136970297002
0.215175414950569 -0.0542213333633095 2.03414377633677
-0.376115057731019 0.0264076759861475 1.99068200543049
0.214094421385589 -0.0383725880266465 2.07847386378498
-0.380787536479295 0.0431175198215598 2.03932985266285
0.21577958604848 0.00964042746834311 2.09508011261296
-0.383679285751987 0.0725569779206079 2.08493204245652
0.211827793669758 0.0258564151026935 2.14230794181395
-0.382238524668072 0.116284924589482 2.10206108287399
0.213202594357396 0.0712871862300262 2.16071172930037
-0.382869498832728 0.153215005083738 2.13291713842701
0.209216104361499 0.0886871400867563 2.20822784838954
-0.383047535842524 0.164574897338881 2.18194056727256
0.207018629839044 0.135810943012338 2.22659947761925
-0.366244914867349 0.211147744776295 2.19777134681546
0.188599186780402 0.152338548067842 2.27275996273952
-0.345747196516977 0.22157761813081 2.2438818722759
-0.310969502086825 0.25825873365094 2.25421338050664
0.129685960904926 0.209202054237894 2.31795228957709
0.166413681619397 0.199598137832611 2.28172339495139
-0.275296746541536 0.256971088555417 2.29096818998668
-0.22882018073755 0.281509210778877 2.28824846301244
-0.185148948440022 0.265474997576314 2.31161576381057
-0.136474311832755 0.276423537779624 2.30233513001933
-0.0888765080261616 0.261984456895943 2.31855623112325
-0.0388502082381845 0.262437585149048 2.31988708547654
0.00767604724116697 0.262435360918782 2.32155008731747
0.0466838488675831 0.239584894217546 2.3395118047412
0.0927749976942126 0.243743013343815 2.31652957460195
-0.265354329145174 -0.0997671163542777 1.86219937071675
-0.223976209552151 -0.104652659403797 1.84850563722085
-0.177594435206685 -0.10277861789348 1.84177213085463
-0.162841981760431 -0.135279407875714 1.86520758523143
-0.12545425556924 -0.108862529918287 1.84859455651193
-0.0787372163650946 -0.12056954889718 1.85888714081453
-0.0318941083456508 -0.131541170233098 1.86920572435782
0.0160907396414652 -0.121423583473494 1.86559306525195
0.055483846646478 -0.148105478858005 1.88950994237213
0.100143746347001 -0.122429801552351 1.88754010719243
0.140752367164545 -0.124790185327461 1.92020405909251
-0.344669088971282 -0.00416713825236638 1.90258340557759
-0.328550051351105 -0.0518831368037727 1.89076086378483
0.190144481897452 -0.0846769741022252 1.9594922304474
0.208343158006602 -0.0601655159301731 1.99136934975191
-0.364412985125256 0.0146109776154599 1.94115508775656
0.214302894706129 -0.0162866844784441 1.9995496205239
-0.360929245797911 0.0600805167742922 1.95971532924158
0.217622211613006 -0.00201907566585427 2.04414118271948
-0.370128954850241 0.076271638722297 2.00383429091814
0.214667901147941 0.0425965833780103 2.06051808098373
-0.376534535695927 0.0962438169661259 2.04864864518355
0.215406536636621 0.0605363187183962 2.10719032916755
-0.369987180193143 0.142537047847672 2.06086949333203
0.212861835260374 0.104235300543559 2.12685437471646
-0.37248439797427 0.171803455244654 2.09515212026503
0.213232302405991 0.122378147428305 2.17321572135362
-0.375782538370057 0.196370848595668 2.14847034999808
0.207852571608533 0.165253313068146 2.19306324462236
-0.357510083389675 0.238094651189336 2.16091591210329
0.192935511007051 0.184798920862009 2.24028167189371
-0.339565658843714 0.252614335140125 2.20945830290435
-0.303617514435531 0.285572284310567 2.21916731279656
0.134785789686906 0.241576360916374 2.28360100956481
0.166316076424993 0.231201586468224 2.24690935264714
-0.267878491585222 0.28865792231278 2.25775108635261
-0.219113676031664 0.310433481884901 2.25065900581525
-0.181780269422886 0.297622365408524 2.27629588984222
-0.139979298090324 0.305169872568047 2.26483998183232
-0.0958366823957897 0.295811468899431 2.27918196741382
-0.0511723717617756 0.291482910561612 2.28552787856229
-0.00109689507109829 0.290507026343026 2.28686429960124
0.050799707625329 0.27329258947404 2.30443181567077
0.0959899254995212 0.272486001355855 2.28148055964652
-0.290377348204766 -0.0590244734838364 1.85838459902307
-0.245181466709469 -0.0618621292997668 1.83583006195548
-0.197604987083967 -0.0643496708588288 1.82597126545508
-0.145761482753124 -0.068638127924291 1.82881773496933
-0.0952622723008423 -0.0752922140690342 1.83547306901613
-0.0491677647676397 -0.0852078797840455 1.84301937551002
-0.00502416572712451 -0.0849487660673241 1.8466504873001
0.0421144103652334 -0.0750502917305317 1.8477276287898
0.0623719708362547 -0.109268119161558 1.86507309654549
0.0946964804579982 -0.0740973151412138 1.8618213088408
0.13125530067297 -0.0901055846615119 1.88917989706195
-0.309896239834532 -0.0165154425610099 1.86445786861594
-0.28445697479092 0.0241150509724492 1.84796218750637
-0.26760450198782 -0.0199666735233375 1.83691998084745
0.141807485094509 -0.0494235092360167 1.88407944933571
0.167936298394385 -0.0811585478422909 1.92090098825247
0.171615193387662 -0.0342784871799244 1.91103042895113
-0.3410396483762 0.0505848361399758 1.91115899477641
-0.321721343229669 0.0260996986357433 1.87835594313995
0.196030241916263 -0.0382554339137766 1.94888438101722
0.201836029824165 0.0047798441147143 1.96333307873636
-0.337259887441576 0.0897653411408635 1.9352371205995
0.208253305275797 0.0331747641340299 2.00498373479211
-0.346646133095774 0.112096227308058 1.97345884517476
0.203785206565584 0.0720685796406187 2.0303316158723
-0.358716955598404 0.125245296544454 2.01254001608003
0.206903704692804 0.0954186618442931 2.07122481857779
-0.347243552191955 0.165235993293242 2.02384655762992
0.202570300604725 0.134162993361732 2.09626132063531
-0.350556085979636 0.1957273407006 2.05865988954729
0.205483258924903 0.157319097778543 2.13695209309127
-0.363488720733981 0.214161761531934 2.11042268251602
0.198459458020063 0.194579739433264 2.16140531531918
-0.32867893686037 0.275460201329597 2.17040695896448
-0.341136243253041 0.257179243402729 2.12294296625722
-0.30990953620455 0.290217816439031 2.1269875958611
0.189485994759467 0.212543793581574 2.20478634389928
0.176024131753541 0.235991194953368 2.15995405069092
0.163252885073976 0.251410075234548 2.20451064895789
-0.260191474291774 0.311489819406979 2.2194902585491
-0.294383390091682 0.302980828899562 2.17889949162512
-0.252365646202654 0.324303122792736 2.17623064962733
0.131017129662959 0.270265825366859 2.24293597464329
0.0986509273468051 0.300553252623937 2.20552877316046
0.086583444671195 0.295851540129002 2.2448097099936
-0.212909149525895 0.327948162299491 2.20953549712722
-0.16882726380609 0.32307252807913 2.22923829579481
-0.115919971144962 0.320404256113562 2.23136582746026
-0.0714278080786512 0.315607685530313 2.24009382902538
-0.0276057702462396 0.312246574864638 2.2449830667275
0.0151183912339891 0.310999582735739 2.24412937448682
0.0483663838120679 0.297589608840818 2.26790865199194
-0.218908102196666 -0.0216912289577672 1.82061452660865
-0.167684791708318 -0.026242702853769 1.81759482712222
-0.116911234968152 -0.0304271918763211 1.82319811451207
-0.0690418478367966 -0.0353691094425161 1.82876910817904
-0.0242069772779142 -0.0390336680445378 1.83387501664087
0.0199450844404893 -0.035002603175547 1.83812068997219
0.068608082978098 -0.0336029148850239 1.84545278701315
-0.24042923261968 0.0202642073969564 1.82704642256555
-0.212842943141528 0.0576759143717134 1.82888640084328
-0.189123804162675 0.0173663331219082 1.8174803096387
-0.138335744935177 0.0137491343878075 1.8204839729391
-0.0906313009637697 0.0125635255212963 1.82615868597101
-0.0433534846909687 0.00903194374202278 1.83153244402396
0.00147973825522683 0.0104500671890001 1.83723207420019
0.0484531387239403 0.00961795768333407 1.84305129882006
0.0967274154607544 0.0112076538848891 1.85725549374706
0.143961030275379 0.00340537359657052 1.88479778547898
0.112297949854488 -0.0291370544089975 1.86228200828248
-0.301902220251857 0.0656129025746135 1.87395514549912
-0.269576840455529 0.103882260843637 1.87398140764316
-0.259549422080584 0.0642848961438345 1.84602035695538
0.120260142506113 0.0458301717935878 1.87963510566216
0.178189414503419 0.00820700101520022 1.92190416393701
0.156595191981669 0.0479884213364988 1.9111792473452
-0.309218775435599 0.0982079431940362 1.90332128772552
-0.275536175928642 0.13665901118719 1.90837919743604
0.187246562622002 0.0459465630066583 1.95447619715035
0.159623583048278 0.084630548604275 1.94337416063658
-0.313232577984273 0.13291202268537 1.94115758780573
-0.281988368380114 0.168966285179028 1.9446864929121
0.186729075203513 0.0780441152230588 1.98595253102974
0.158233987462488 0.118661741703943 1.97701596912425
-0.323811708396621 0.159472950159672 1.98008460841383
-0.28633125907742 0.198819552710605 1.9771243828262
0.185881857184418 0.112516463847029 2.02118420786999
0.15773815446054 0.151727364672985 2.01094641712164
-0.320080636331283 0.199373946216911 2.0129762502227
-0.283844133514688 0.234299420681834 2.00939900798559
0.185687214278091 0.142563984589563 2.05319981475735
0.157597842733067 0.184124434514632 2.04471210062271
-0.316756842288312 0.235708792543605 2.0434079418874
-0.282642964597366 0.271773721926786 2.0462911719291
0.185182470858245 0.176496340300402 2.08870769768485
0.156906784989418 0.216691814883073 2.07785260962804
-0.340030406743909 0.237009220782989 2.07997350347102
-0.310444447918335 0.273756193087392 2.0826494047829
0.183968491685853 0.206960483632699 2.12018145201442
0.154194963316091 0.246747664640847 2.11294532972139
-0.276435192164005 0.31364656777967 2.13663378488443
-0.271809400865358 0.303692628004645 2.08886349825334
-0.238865822756161 0.326261139607527 2.12162741270802
0.132930608959665 0.280972916873604 2.19563355762844
0.146214309759064 0.268726540414867 2.15412322843554
0.106509020201833 0.296562296447915 2.15358730657082
-0.213980102347031 0.334807715959822 2.16102312496675
-0.188674696615341 0.334321589249186 2.12501810869713
-0.173310802981549 0.335382802054979 2.17927887546088
-0.144660103197791 0.333248366637725 2.13817155940461
-0.130812125694347 0.33157765026891 2.18833566908353
-0.100534925930949 0.329833418683707 2.14316631501836
-0.0840246543958889 0.328302975731579 2.19090996960417
-0.0556844468686542 0.326155284937577 2.1464155301587
-0.0397146340416408 0.324771912255984 2.1967771403821
-0.0121139474707579 0.322612547730185 2.14994206972281
0.00479421787092553 0.321704774274368 2.19857283941785
0.032131585216414 0.319503105848492 2.157643153959
0.0505547291130703 0.315158427968596 2.21344655085455
0.0699193291251812 0.313160316949702 2.17017778535648
-0.181708926951188 0.0910935395896985 1.8404855335975
-0.159585776296082 0.0559590020964635 1.8265604986881
-0.113792063153358 0.0583475752162703 1.83365858265867
-0.0650469557165927 0.0541014467215039 1.83901635223043
-0.0200802045009308 0.0558979461483523 1.8460495384869
0.0253533456583854 0.0550753414667531 1.85225401585882
0.0714061228601124 0.0510553176176269 1.85930683722764
-0.22659771931719 0.100170600113573 1.85224899096206
-0.183697661734888 0.127380265118012 1.86590373796746
-0.13799575784002 0.101274437378365 1.85102585372903
-0.0870730155551897 0.0941754078193174 1.85481095709784
-0.0426690690459197 0.0975528505179133 1.8642376042865
0.00191430463078196 0.0975457949287715 1.87166468896505
0.0471263615195206 0.0946316998776472 1.87721447345838
0.0905423130049714 0.0848734901834421 1.88436929163755
0.125399541958172 0.0883342387837007 1.90904489987382
-0.231027572524199 0.135792588789215 1.88298515149582
-0.190845990001662 0.161032358773729 1.89918820695191
-0.145188721179866 0.143995788281062 1.88599224444126
-0.106184537842925 0.127520411171209 1.8770570722937
-0.0632582204969357 0.133034293352714 1.89064308702945
-0.0194770576184616 0.133796008178456 1.89976844491464
0.0286571135342348 0.130053876859117 1.90520708910522
0.0784949329595914 0.122218897723099 1.91116404527962
0.123487662741059 0.121048965202712 1.93968797358042
-0.237366803597741 0.168299655565138 1.91738669710095
-0.19204086831463 0.193366501369385 1.93140278778763
-0.146209153299197 0.178019457861865 1.9199238989772
-0.099799912544523 0.161149522467322 1.91186546076879
-0.0526946610538985 0.168178313131822 1.92791076253596
-0.00248013544227073 0.164195319058936 1.9335051066275
0.0453363614214275 0.16001326811233 1.93845380105775
0.0874449474195113 0.152225442411615 1.94601433391577
0.122871230729433 0.155884554119774 1.97495280623814
-0.240363953997655 0.199789751605588 1.94953878203869
-0.194096256009736 0.224132155077451 1.96212384151855
-0.14529950667608 0.212324286989996 1.95450588754799
-0.102956916539502 0.194128937077753 1.94434106236028
-0.0649098800391624 0.20311007798909 1.96061501168036
-0.0202160992037107 0.197149080101713 1.96317092459345
0.0278155915389118 0.193519754785746 1.96870277592514
0.0768881966019334 0.187187493378287 1.97620845396222
0.122319016889593 0.187162557503672 2.00662103797267
-0.24311137527151 0.230410985529929 1.98075768961558
-0.199967798322092 0.25457920501205 1.9929086492515
-0.150098512481531 0.244695617299619 1.98605769233416
-0.100982578484346 0.232371616753707 1.98307692613594
-0.0493519936099151 0.232676845479782 1.99324229400675
-0.00117632773503402 0.227987622905908 1.99773912168462
0.0452548819851413 0.224531821057785 2.00319927850541
0.0867753128583997 0.21746048988088 2.01190290766143
0.122057234716188 0.221439292649439 2.04164630445046
-0.247235585173128 0.263381543372452 2.01492725410271
-0.209157501854866 0.285567769799125 2.02551112190952
-0.162294392437904 0.278610819797955 2.01781158734858
-0.115770795906631 0.268395394585464 2.01638535050875
-0.0711113877106249 0.263941273427247 2.02044556593289
-0.0220875798626094 0.261787342628549 2.0276475168627
0.0267465100383526 0.258174843283727 2.03334913119799
0.0758724352178331 0.252542154047992 2.04192227386761
0.120963358269598 0.252139845722993 2.07313931415575
-0.242441677168403 0.298285435324689 2.05384311464349
-0.185841727332202 0.308101352993222 2.0536774044623
-0.137165578824037 0.301634149747236 2.0517178336965
-0.0925313538783194 0.296820305831058 2.05470975218566
-0.0476504494075272 0.292707908624102 2.05884313277494
-0.00124103512463074 0.289742200842682 2.06503610728431
0.0438677976371067 0.286849571517407 2.07119469798837
0.0845966402789275 0.280189112529256 2.08087616921567
0.116735325369932 0.279568834744373 2.11389282060691
-0.217107625771899 0.320575532179438 2.08467945615874
-0.162883043399215 0.323971749766724 2.08981505735117
-0.117086304214846 0.320536523782417 2.09530727307123
-0.0720115923341244 0.316521522327775 2.09896369060608
-0.0262434899154588 0.312464639619758 2.10276370661762
0.0209400206581577 0.309359583426111 2.10958285678342
0.0679218311556909 0.304271173077885 2.11930124777689
3 0 1 2
3 0 2 4
3 3 0 4
3 3 4 6
3 5 3 6
3 5 6 8
3 7 5 8
3 7 8 10
3 9 7 10
3 9 10 12
3 11 9 12
3 13 11 14
3 14 11 12
3 13 14 15
3 16 17 18
3 16 18 1
3 0 19 1
3 19 16 1
3 0 3 20
3 19 0 20
3 3 5 21
3 20 3 21
3 5 7 22
3 21 5 22
3 7 9 23
3 22 7 23
3 9 11 24
3 23 9 24
3 24 11 25
3 25 11 13
3 13 15 26
3 27 13 26
3 25 13 27
3 27 26 28
3 17 16 30
3 30 16 29
3 29 19 31
3 29 16 19
3 31 20 32
3 31 19 20
3 32 21 33
3 32 20 21
3 21 22 33
3 33 22 34
3 22 23 34
3 34 23 35
3 23 24 35
3 35 24 36
3 24 25 36
3 36 25 37
3 37 27 38
3 37 25 27
3 38 28 39
3 38 27 28
3 30 40 41
3 30 29 40
3 29 31 42
3 40 29 42
3 31 32 43
3 42 31 43
3 32 33 44
3 43 32 44
3 33 34 45
3 44 33 45
3 34 35 46
3 45 34 46
3 35 36 47
3 46 35 47
3 36 37 47
3 47 37 48
3 37 38 48
3 48 38 49
3 49 39 50
3 49 38 39
3 40 51 52
3 41 40 52
3 51 42 53
3 51 40 42
3 42 43 53
3 53 43 54
3 43 44 54
3 54 44 55
3 44 45 55
3 55 45 56
3 45 46 56
3 56 46 57
3 46 47 58
3 57 46 58
3 47 48 59
3 58 47 59
3 48 49 60
3 59 48 60
3 49 50 61
3 60 49 61
3 51 62 63
3 52 51 63
3 51 53 64
3 62 51 64
3 53 54 65
3 64 53 65
3 54 55 66
3 65 54 66
3 55 56 67
3 66 55 67
3 56 57 67
3 67 57 68
3 57 58 69
3 68 57 69
3 58 59 69
3 69 59 70
3 59 60 70
3 70 60 71
3 71 61 72
3 71 60 61
3 62 73 74
3 63 62 74
3 62 64 75
3 73 62 75
3 64 65 75
3 75 65 76
3 65 66 76
3 76 66 77
3 66 67 77
3 77 67 78
3 67 68 78
3 78 68 79
3 79 69 80
3 79 68 69
3 80 70 81
3 80 69 70
3 81 71 82
3 81 70 71
3 82 72 83
3 82 71 72
3 74 73 85
3 85 73 84
3 84 73 86
3 86 73 75
3 75 76 86
3 86 76 87
3 76 77 88
3 87 76 88
3 77 78 89
3 88 77 89
3 78 79 90
3 89 78 90
3 79 80 91
3 90 79 91
3 80 81 92
3 91 80 92
3 81 82 93
3 92 81 93
3 93 83 94
3 93 82 83
3 84 95 85
3 84 86 96
3 97 84 96
3 95 84 97
3 96 87 98
3 96 86 87
3 87 88 98
3 98 88 99
3 88 89 99
3 99 89 100
3 89 90 100
3 100 90 101
3 101 91 102
3 101 90 91
3 102 92 103
3 102 91 92
3 92 93 103
3 105 103 104
3 103 93 104
3 93 94 104
3 96 106 97
3 96 98 107
3 106 96 107
3 98 99 108
3 107 98 108
3 99 100 109
3 108 99 109
3 100 101 110
3 109 100 110
3 101 102 111
3 110 101 111
3 111 102 112
3 112 102 103
3 103 105 112
3 117 114 115
3 116 113 117
3 117 113 114
3 116 117 119
3 118 116 119
3 118 119 121
3 120 118 121
3 120 121 123
3 122 120 123
3 122 123 125
3 124 122 125
3 124 125 127
3 126 124 127
3 126 127 128
3 129 130 131
3 114 129 131
3 114 113 129
3 113 2 129
3 129 2 1
3 4 113 116
3 4 2 113
3 6 116 118
3 6 4 116
3 8 118 120
3 8 6 118
3 10 120 122
3 10 8 120
3 12 122 124
3 12 10 122
3 14 124 126
3 14 12 124
3 133 126 128
3 15 14 126
3 15 126 133
3 132 15 133
3 132 133 134
3 135 136 137
3 137 17 135
3 137 18 17
3 18 137 130
3 129 18 130
3 18 129 1
3 15 132 26
3 139 132 134
3 139 138 132
3 138 28 26
3 132 138 26
3 138 139 140
3 136 135 142
3 142 135 141
3 17 30 135
3 135 30 141
3 143 39 28
3 138 143 28
3 143 140 144
3 143 138 140
3 141 145 146
3 142 141 146
3 41 145 141
3 30 41 141
3 147 39 143
3 147 50 39
3 147 144 148
3 147 143 144
3 145 149 150
3 146 145 150
3 52 149 145
3 41 52 145
3 151 50 147
3 151 155 50
3 151 148 152
3 151 147 148
3 149 153 154
3 150 149 154
3 63 153 149
3 52 63 149
3 155 61 50
3 155 72 61
3 155 151 156
3 156 151 152
3 154 157 158
3 154 153 157
3 74 157 153
3 63 74 153
3 159 72 155
3 159 83 72
3 159 156 160
3 159 155 156
3 158 157 162
3 162 157 161
3 74 85 161
3 157 74 161
3 163 83 159
3 163 94 83
3 163 160 164
3 163 159 160
3 161 165 162
3 165 95 166
3 165 161 95
3 161 85 95
3 165 166 167
3 95 97 166
3 105 104 168
3 170 94 163
3 170 168 94
3 169 168 170
3 94 168 104
3 163 164 170
3 166 171 167
3 173 171 172
3 172 171 106
3 171 97 106
3 171 166 97
3 172 107 174
3 172 106 107
3 174 108 175
3 174 107 108
3 175 109 176
3 175 108 109
3 176 110 177
3 176 109 110
3 177 111 178
3 177 110 111
3 178 112 180
3 178 111 112
3 181 105 168
3 181 180 105
3 179 178 180
3 180 112 105
3 168 169 181
3 172 182 173
3 182 172 183
3 183 172 174
3 174 175 184
3 183 174 184
3 175 176 185
3 184 175 185
3 176 177 186
3 185 176 186
3 177 178 187
3 186 177 187
3 187 179 188
3 187 178 179
3 179 180 229
3 189 190 191
3 114 131 191
3 115 114 191
3 115 191 192
3 115 192 193
3 117 115 193
3 119 193 194
3 119 117 193
3 119 194 121
3 121 194 195
3 121 195 123
3 123 195 196
3 123 196 125
3 125 196 197
3 127 197 198
3 127 125 197
3 128 198 199
3 200 128 199
3 128 127 198
3 200 199 201
3 202 203 204
3 131 130 189
3 190 189 204
3 189 130 202
3 189 202 204
3 131 189 191
3 128 200 133
3 134 200 205
3 206 205 201
3 134 133 200
3 205 200 201
3 205 206 207
3 136 208 203
3 202 137 136
3 202 136 203
3 137 202 130
3 134 205 139
3 139 205 207
3 140 139 207
3 211 207 209
3 136 142 208
3 208 142 210
3 211 140 207
3 211 144 140
3 146 212 210
3 142 146 210
3 148 144 213
3 213 144 211
3 150 214 212
3 146 150 212
3 215 148 213
3 215 152 148
3 154 216 150
3 150 216 214
3 219 152 217
3 217 152 215
3 158 218 216
3 154 158 216
3 219 156 152
3 219 160 156
3 158 220 218
3 158 162 220
3 221 160 219
3 221 164 160
3 162 165 222
3 223 220 222
3 220 162 222
3 165 167 222
3 169 170 224
3 225 164 221
3 224 170 164
3 224 164 225
3 222 226 223
3 167 171 227
3 226 167 227
3 226 227 228
3 226 222 167
3 171 173 227
3 180 181 229
3 181 169 230
3 231 169 224
3 230 169 231
3 230 229 181
3 224 225 271
3 227 232 228
3 232 182 233
3 232 173 182
3 227 173 232
3 182 183 234
3 233 182 234
3 183 184 234
3 234 184 235
3 184 185 235
3 235 185 236
3 185 186 236
3 236 186 237
3 186 187 237
3 237 187 238
3 238 188 239
3 238 187 188
3 188 179 229
3 240 239 188
3 240 188 229
3 229 230 240
3 191 190 242
3 242 190 241
3 192 242 243
3 192 191 242
3 192 243 244
3 193 192 244
3 194 244 245
3 194 193 244
3 194 245 246
3 195 194 246
3 195 246 247
3 196 195 247
3 196 247 248
3 197 196 248
3 197 248 249
3 198 197 249
3 199 198 249
3 250 199 249
3 201 199 251
3 251 199 250
3 204 252 253
3 204 203 252
3 190 253 241
3 190 204 253
3 206 251 254
3 206 201 251
3 207 206 255
3 255 206 254
3 203 256 252
3 203 208 256
3 257 209 255
3 255 209 207
3 210 258 208
3 208 258 256
3 211 209 259
3 259 209 257
3 212 260 210
3 210 260 258
3 213 211 259
3 261 213 259
3 214 262 260
3 212 214 260
3 215 213 261
3 263 215 261
3 216 264 214
3 214 264 262
3 217 215 263
3 265 217 263
3 218 266 264
3 216 218 264
3 219 217 265
3 267 219 265
3 218 268 266
3 218 220 268
3 221 219 267
3 269 221 267
3 223 270 268
3 220 223 268
3 225 221 269
3 271 225 269
3 223 226 272
3 270 223 272
3 272 228 273
3 272 226 228
3 274 231 275
3 274 230 231
3 275 231 271
3 271 231 224
3 273 228 276
3 276 228 232
3 276 233 277
3 276 232 233
3 233 234 278
3 277 233 278
3 234 235 279
3 278 234 279
3 235 236 280
3 279 235 280
3 236 237 281
3 280 236 281
3 237 238 282
3 281 237 282
3 238 239 283
3 282 238 283
3 327 239 284
3 284 239 240
3 240 230 274
3 284 240 274
3 241 285 286
3 242 241 286
3 242 286 243
3 243 286 287
3 243 287 288
3 244 243 288
3 245 288 289
3 245 244 288
3 245 289 246
3 246 289 290
3 246 290 247
3 247 290 291
3 247 291 248
3 248 291 292
3 248 292 293
3 249 248 293
3 249 293 250
3 250 293 294
3 250 294 295
3 251 250 295
3 252 296 297
3 253 252 297
3 241 297 285
3 241 253 297
3 254 295 298
3 254 251 295
3 254 298 299
3 255 254 299
3 256 300 252
3 252 300 296
3 257 255 299
3 301 257 299
3 258 302 300
3 256 258 300
3 259 257 303
3 303 257 301
3 260 304 258
3 258 304 302
3 261 259 303
3 305 261 303
3 262 306 304
3 260 262 304
3 263 261 305
3 307 263 305
3 264 308 262
3 262 308 306
3 265 263 307
3 309 265 307
3 266 310 308
3 264 266 308
3 267 265 309
3 311 267 309
3 266 312 310
3 266 268 312
3 269 267 311
3 313 269 311
3 270 314 312
3 268 270 312
3 271 269 315
3 315 269 313
3 270 272 316
3 314 270 316
3 316 273 317
3 316 272 273
3 318 275 319
3 318 274 275
3 275 271 315
3 319 275 315
3 273 276 320
3 317 273 320
3 276 277 320
3 320 277 321
3 277 278 322
3 321 277 322
3 322 279 323
3 322 278 279
3 279 280 323
3 323 280 324
3 280 281 324
3 324 281 325
3 281 282 325
3 325 282 326
3 282 283 326
3 326 283 327
3 283 239 327
3 327 284 328
3 284 274 318
3 328 284 318
3 285 329 330
3 286 285 330
3 286 330 287
3 287 330 331
3 287 331 332
3 288 287 332
3 288 332 289
3 289 332 333
3 289 333 334
3 290 289 334
3 290 334 335
3 291 290 335
3 291 335 292
3 292 335 336
3 292 336 337
3 293 292 337
3 293 337 294
3 294 337 338
3 294 338 339
3 295 294 339
3 296 340 341
3 297 296 341
3 285 341 329
3 285 297 341
3 298 339 342
3 298 295 339
3 298 342 343
3 299 298 343
3 300 344 296
3 296 344 340
3 301 299 343
3 345 301 343
3 302 346 344
3 300 302 344
3 303 301 347
3 347 301 345
3 304 348 302
3 302 348 346
3 305 303 347
3 349 305 347
3 306 350 348
3 304 306 348
3 307 305 351
3 351 305 349
3 308 352 306
3 306 352 350
3 309 307 353
3 353 307 351
3 310 354 352
3 308 310 352
3 311 309 355
3 355 309 353
3 312 356 310
3 310 356 354
3 313 311 355
3 357 313 355
3 314 358 356
3 312 314 356
3 315 313 359
3 359 313 357
3 314 316 360
3 358 314 360
3 360 317 361
3 360 316 317
3 362 319 363
3 362 318 319
3 319 315 359
3 363 319 359
3 317 320 364
3 361 317 364
3 320 321 364
3 364 321 365
3 321 322 366
3 365 321 366
3 322 323 366
3 366 323 367
3 323 324 368
3 367 323 368
3 324 325 369
3 368 324 369
3 325 326 370
3 369 325 370
3 326 327 371
3 370 326 371
3 327 328 371
3 371 328 372
3 328 318 362
3 372 328 362
3 329 373 374
3 330 329 374
3 330 374 331
3 331 374 375
3 331 375 376
3 332 331 376
3 332 376 333
3 333 376 377
3 333 377 378
3 334 333 378
3 334 378 379
3 335 334 379
3 335 379 336
3 336 379 380
3 336 380 381
3 337 336 381
3 337 381 338
3 338 381 382
3 338 382 383
3 339 338 383
3 340 384 385
3 341 340 385
3 329 385 373
3 329 341 385
3 342 383 386
3 342 339 383
3 342 386 387
3 343 342 387
3 344 388 340
3 340 388 384
3 345 343 387
3 389 345 387
3 346 390 388
3 344 346 388
3 347 345 391
3 391 345 389
3 348 392 346
3 346 392 390
3 349 347 391
3 393 349 391
3 350 394 348
3 348 394 392
3 351 349 395
3 395 349 393
3 352 396 350
3 350 396 394
3 353 351 395
3 397 353 395
3 354 398 396
3 352 354 396
3 355 353 399
3 399 353 397
3 356 400 354
3 354 400 398
3 357 355 399
3 401 357 399
3 358 402 400
3 356 358 400
3 359 357 403
3 403 357 401
3 358 360 404
3 402 358 404
3 404 361 405
3 404 360 361
3 406 363 407
3 406 362 363
3 363 359 403
3 407 363 403
3 361 364 408
3 405 361 408
3 364 365 408
3 408 365 409
3 365 366 410
3 409 365 410
3 366 367 410
3 410 367 411
3 367 368 412
3 411 367 412
3 368 369 412
3 412 369 413
3 369 370 413
3 413 370 414
3 370 371 415
3 414 370 415
3 371 372 415
3 415 372 416
3 372 362 406
3 416 372 406
3 373 417 418
3 374 373 418
3 374 418 375
3 375 418 419
3 375 419 420
3 376 375 420
3 376 420 377
3 377 420 421
3 377 421 422
3 378 377 422
3 378 422 423
3 379 378 423
3 380 423 424
3 380 379 423
3 380 424 425
3 381 380 425
3 382 425 426
3 382 381 425
3 382 426 427
3 383 382 427
3 384 428 429
3 385 384 429
3 373 429 417
3 373 385 429
3 386 427 430
3 386 383 427
3 386 430 431
3 387 386 431
3 384 432 428
3 384 388 432
3 389 387 431
3 433 389 431
3 390 434 432
3 388 390 432
3 435 389 433
3 435 391 389
3 390 436 434
3 390 392 436
3 393 391 435
3 437 393 435
3 394 438 436
3 392 394 436
3 395 393 439
3 439 393 437
3 396 440 438
3 394 396 438
3 397 395 439
3 441 397 439
3 398 442 440
3 396 398 440
3 399 397 443
3 443 397 441
3 400 444 398
3 398 444 442
3 401 399 443
3 445 401 443
3 402 446 444
3 400 402 444
3 403 401 447
3 447 401 445
3 402 404 448
3 446 402 448
3 448 405 449
3 448 404 405
3 450 407 451
3 450 406 407
3 407 403 447
3 451 407 447
3 405 408 452
3 449 405 452
3 408 409 452
3 452 409 453
3 409 410 454
3 453 409 454
3 410 411 454
3 454 411 455
3 411 412 456
3 455 411 456
3 412 413 456
3 456 413 457
3 457 414 458
3 457 413 414
3 414 415 459
3 458 414 459
3 415 416 459
3 459 416 460
3 416 406 450
3 460 416 450
3 418 461 462
3 418 417 461
3 419 462 463
3 419 418 462
3 419 463 464
3 420 419 464
3 420 464 421
3 421 464 465
3 421 465 466
3 422 421 466
3 422 466 467
3 423 422 467
3 424 467 468
3 424 423 467
3 424 468 469
3 425 424 469
3 426 469 470
3 426 425 469
3 427 426 471
3 471 426 470
3 429 428 473
3 473 428 472
3 417 473 505
3 417 429 473
3 430 427 471
3 520 430 471
3 431 474 475
3 431 430 474
3 428 476 472
3 428 432 476
3 433 431 475
3 477 433 475
3 434 478 476
3 432 434 476
3 479 433 477
3 479 435 433
3 434 480 478
3 434 436 480
3 437 435 479
3 481 437 479
3 438 482 436
3 436 482 480
3 439 437 483
3 483 437 481
3 440 484 482
3 438 440 482
3 441 439 483
3 485 441 483
3 442 486 440
3 440 486 484
3 443 441 487
3 487 441 485
3 444 488 442
3 442 488 486
3 445 443 487
3 489 445 487
3 444 446 488
3 488 446 490
3 491 445 489
3 491 447 445
3 490 446 492
3 492 446 448
3 492 449 493
3 492 448 449
3 494 451 495
3 494 450 451
3 451 447 491
3 495 451 491
3 449 452 496
3 493 449 496
3 496 453 497
3 496 452 453
3 453 454 498
3 497 453 498
3 498 455 499
3 498 454 455
3 455 456 500
3 499 455 500
3 456 457 501
3 500 456 501
3 457 458 502
3 501 457 502
3 458 459 503
3 502 458 503
3 503 460 504
3 503 459 460
3 504 460 494
3 494 460 450
3 461 505 506
3 462 461 506
3 507 463 462
3 507 462 506
3 465 463 508
3 508 463 507
3 464 463 465
3 465 508 509
3 465 509 466
3 466 509 510
3 466 510 467
3 467 510 511
3 467 511 468
3 468 511 512
3 468 512 513
3 469 468 513
3 469 513 470
3 515 470 514
3 470 513 514
3 470 515 471
3 472 516 473
3 518 516 517
3 518 505 516
3 461 417 505
3 505 473 516
3 505 518 506
3 515 514 519
3 474 430 520
3 521 520 519
3 520 471 515
3 520 515 519
3 474 520 524
3 476 522 472
3 516 472 523
3 472 522 523
3 516 523 517
3 520 521 524
3 477 475 524
3 524 475 474
3 525 477 524
3 478 526 522
3 476 478 522
3 527 477 525
3 527 479 477
3 478 528 526
3 478 480 528
3 481 479 527
3 529 481 527
3 482 530 480
3 480 530 528
3 483 481 531
3 531 481 529
3 484 532 530
3 482 484 530
3 485 483 531
3 533 485 531
3 486 534 484
3 484 534 532
3 535 485 533
3 535 487 485
3 486 536 534
3 486 488 536
3 537 489 535
3 535 489 487
3 490 538 539
3 536 490 539
3 488 490 536
3 538 540 539
3 541 542 543
3 541 489 537
3 542 541 537
3 541 491 489
3 490 492 538
3 545 493 544
3 538 492 493
3 538 493 545
3 540 538 545
3 544 546 545
3 547 548 549
3 543 495 541
3 547 494 495
3 547 495 543
3 608 547 543
3 495 491 541
3 493 496 544
3 544 497 550
3 546 544 550
3 544 496 497
3 550 497 551
3 551 497 498
3 498 499 551
3 551 499 552
3 499 500 552
3 552 500 553
3 500 501 553
3 553 501 554
3 554 502 555
3 554 501 502
3 502 503 556
3 555 502 556
3 503 504 556
3 549 504 547
3 556 504 549
3 504 494 547
3 506 557 507
3 507 557 558
3 508 507 558
3 508 558 559
3 509 508 559
3 509 559 560
3 510 509 560
3 510 560 561
3 511 510 561
3 511 561 562
3 512 511 562
3 514 512 563
3 563 512 562
3 513 512 514
3 517 564 518
3 518 564 557
3 566 564 565
3 557 564 566
3 557 506 518
3 558 566 567
3 558 557 566
3 559 567 568
3 559 558 567
3 560 568 569
3 560 559 568
3 561 569 570
3 561 560 569
3 562 570 571
3 562 561 570
3 563 562 571
3 572 563 571
3 574 514 563
3 572 574 563
3 573 519 574
3 574 519 514
3 519 573 521
3 522 575 523
3 577 575 576
3 577 517 575
3 564 517 577
3 575 517 523
3 564 577 565
3 573 574 572
3 521 573 579
3 580 573 578
3 579 573 580
3 579 524 521
3 524 579 525
3 522 581 575
3 522 526 581
3 576 581 582
3 576 575 581
3 583 580 584
3 583 579 580
3 583 525 579
3 583 527 525
3 526 585 581
3 526 528 585
3 582 585 586
3 582 581 585
3 587 584 588
3 587 583 584
3 587 527 583
3 587 529 527
3 528 589 585
3 528 530 589
3 586 589 590
3 586 585 589
3 591 588 592
3 591 587 588
3 591 529 587
3 591 531 529
3 532 593 589
3 530 532 589
3 590 593 594
3 590 589 593
3 595 592 596
3 595 591 592
3 595 531 591
3 595 533 531
3 534 597 593
3 532 534 593
3 594 597 598
3 594 593 597
3 599 596 600
3 599 595 596
3 599 533 595
3 599 535 533
3 534 601 597
3 534 536 601
3 602 597 601
3 602 598 597
3 603 599 600
3 604 603 600
3 603 535 599
3 603 537 535
3 536 539 601
3 606 540 605
3 606 602 540
3 602 601 539
3 540 602 539
3 605 607 606
3 608 609 610
3 608 543 609
3 604 542 603
3 609 543 542
3 609 542 604
3 542 537 603
3 540 545 605
3 605 546 607
3 612 607 611
3 605 545 546
3 607 546 611
3 612 613 614
3 612 611 613
3 614 615 616
3 614 613 615
3 616 617 618
3 616 615 617
3 618 619 620
3 618 617 619
3 620 621 622
3 620 619 621
3 622 623 624
3 622 621 623
3 610 548 608
3 624 623 548
3 624 548 610
3 548 623 549
3 548 547 608
3 546 550 611
3 611 550 613
3 613 550 551
3 551 552 615
3 613 551 615
3 552 553 617
3 615 552 617
3 553 554 619
3 617 553 619
3 554 555 621
3 619 554 621
3 621 555 623
3 623 555 556
3 556 549 623
3 565 625 626
3 567 566 626
3 626 566 565
3 567 626 627
3 568 567 627
3 568 627 628
3 569 568 628
3 569 628 629
3 570 569 629
3 570 629 630
3 571 570 630
3 572 571 631
3 631 571 630
3 572 631 578
3 576 632 577
3 625 632 633
3 565 577 632
3 565 632 625
3 625 633 634
3 626 625 634
3 626 634 627
3 627 634 635
3 627 635 628
3 628 635 636
3 628 636 629
3 629 636 637
3 629 637 630
3 630 637 638
3 631 638 639
3 631 630 638
3 640 578 639
3 578 573 572
3 578 631 639
3 578 640 580
3 576 641 632
3 576 582 641
3 633 641 642
3 633 632 641
3 633 642 643
3 634 633 643
3 634 643 644
3 635 634 644
3 635 644 645
3 636 635 645
3 636 645 646
3 637 636 646
3 637 646 647
3 638 637 647
3 638 647 648
3 639 638 648
3 640 648 649
3 640 639 648
3 584 580 640
3 649 584 640
3 582 650 641
3 582 586 650
3 642 650 651
3 642 641 650
3 642 651 652
3 643 642 652
3 643 652 653
3 644 643 653
3 644 653 645
3 645 653 654
3 645 654 646
3 646 654 655
3 646 655 647
3 647 655 656
3 647 656 648
3 648 656 657
3 648 657 649
3 649 657 658
3 588 584 649
3 658 588 649
3 586 659 650
3 586 590 659
3 650 659 651
3 651 659 660
3 651 660 661
3 652 651 661
3 652 661 662
3 653 652 662
3 653 662 654
3 654 662 663
3 654 663 664
3 655 654 664
3 655 664 665
3 656 655 665
3 656 665 666
3 657 656 666
3 657 666 658
3 658 666 667
3 592 588 658
3 667 592 658
3 590 668 659
3 590 594 668
3 660 668 669
3 660 659 668
3 660 669 670
3 661 660 670
3 661 670 671
3 662 661 671
3 662 671 663
3 663 671 672
3 663 672 664
3 664 672 673
3 664 673 665
3 665 673 674
3 665 674 666
3 666 674 675
3 666 675 667
3 667 675 676
3 596 592 667
3 676 596 667
3 594 677 668
3 594 598 677
3 668 677 669
3 669 677 678
3 669 678 679
3 670 669 679
3 670 679 680
3 671 670 680
3 671 680 681
3 672 671 681
3 672 681 682
3 673 672 682
3 673 682 683
3 674 673 683
3 674 683 684
3 675 674 684
3 676 684 685
3 676 675 684
3 600 596 676
3 685 600 676
3 598 686 677
3 598 602 606
3 678 686 687
3 678 677 686
3 678 687 679
3 679 687 688
3 679 688 680
3 680 688 689
3 680 689 681
3 681 689 690
3 681 690 682
3 682 690 691
3 683 691 692
3 683 682 691
3 684 692 693
3 684 683 692
3 685 693 694
3 685 684 693
3 694 604 685
3 685 604 600
3 598 606 686
3 606 607 695
3 686 606 695
3 686 695 687
3 688 687 696
3 696 687 695
3 688 696 697
3 689 688 697
3 689 697 698
3 690 689 698
3 690 698 699
3 691 690 699
3 691 699 700
3 692 691 700
3 692 700 701
3 693 692 701
3 610 609 694
3 701 610 694
3 701 694 693
3 609 604 694
3 607 612 695
3 695 612 696
3 696 612 614
3 614 616 697
3 696 614 697
3 616 618 698
3 697 616 698
3 618 620 699
3 698 618 699
3 620 622 700
3 699 620 700
3 622 624 701
3 700 622 701
3 624 610 701
