OFF
702 1400 0
-0.260834381233128 -0.326865598469964 2.20536452662768
-0.306235439612956 -0.313196517019306 2.18747954286233
-0.278128848867384 -0.332788588384513 2.16012018358107
-0.213964717880292 -0.333465205271953 2.21010611594467
-0.232193877951519 -0.343517683097826 2.16542429279859
-0.167156173877083 -0.338125527938031 2.21327586860815
-0.185803530626954 -0.347759473858812 2.16757116639669
-0.121778494025909 -0.342128434781844 2.21764374739816
-0.140477581688211 -0.351793442289566 2.16941845535681
-0.0768860539736291 -0.345933773686802 2.22236692640925
-0.0957188264160995 -0.355400964631251 2.17406043715831
-0.0293866111788305 -0.348954248110217 2.22998984307161
-0.0499328431970003 -0.358633036305977 2.18255138889235
0.0187201160845113 -0.344484906861173 2.23830055313814
-0.00261666469165815 -0.360171462881272 2.19155555078133
0.0439067803975014 -0.351249026999232 2.20026428691047
-0.328828078019132 -0.284461268283357 2.21555708468727
-0.358537028290484 -0.267235654074865 2.18801922073753
-0.337369262924243 -0.297405412170572 2.15972770761351
-0.288400394541559 -0.300342480221723 2.23535662291436
-0.241713736872407 -0.309309283831779 2.24739972345791
-0.194018994954806 -0.314598616485774 2.25125324632521
-0.147251896681982 -0.318500809360502 2.25663084940729
-0.102035497485135 -0.321850743340235 2.26245448778916
-0.0577407393036797 -0.327207482947049 2.26504436952993
-0.00909314404949509 -0.327964785575226 2.2722991498653
0.0646896072343304 -0.328298583542355 2.24386529525664
0.0361045236162963 -0.315790517637205 2.27997172360205
0.0822145502801685 -0.295658701897363 2.27754087435249
-0.315872724076076 -0.26338746808004 2.25699711820802
-0.355981942352273 -0.24306309060308 2.22888202065445
-0.269917775780214 -0.27675901449967 2.27462119036721
-0.21997854742808 -0.283074192396801 2.28271987320586
-0.172382580049589 -0.287379554289475 2.28796268478732
-0.12476215581486 -0.289772343955198 2.29516062458423
-0.0800593031097951 -0.292468573542983 2.30145776330267
-0.0378218738500218 -0.301828888765718 2.30046486176844
0.00352293512601046 -0.293517626738331 2.31105561477508
0.0491895827442347 -0.280107912836482 2.31238309599283
0.0940181228968982 -0.257853873709082 2.30571395059802
-0.334099630565457 -0.226012819193702 2.2774348966942
-0.367228564033688 -0.204664643512006 2.2508300776698
-0.293147533801538 -0.240820289570155 2.29868337376173
-0.244147684285306 -0.251378054474504 2.30995338075423
-0.195385066321582 -0.253496843994145 2.31784200745952
-0.147937318978512 -0.25822958476554 2.32262002649035
-0.0964391200315451 -0.259008835808989 2.33224631580814
-0.0415942870276379 -0.268389172277542 2.33378334687818
0.00884974452516513 -0.261037722553987 2.34304562638497
0.059337793192617 -0.245533577068482 2.3416199996746
0.104108597649958 -0.219497995725405 2.333549920284
-0.31817012516013 -0.201641548760783 2.31983111386068
-0.358621798308326 -0.183959234206735 2.2886438318771
-0.268951748938329 -0.218769351541155 2.33482903211642
-0.22154546538398 -0.220996719948487 2.34567380184854
-0.176002576699014 -0.221981051086919 2.35388639854135
-0.13206351470118 -0.229811939154804 2.35479641492515
-0.0985406449901945 -0.217766615720391 2.37385614647365
-0.0637186690073483 -0.237115081141824 2.36118237179971
-0.0214002795641113 -0.233559530117108 2.37200035801902
0.026508427767084 -0.227031095167137 2.37329396845414
0.0745718759211466 -0.20826388925275 2.36899341026843
-0.321314051284192 -0.160888064541965 2.35978072885949
-0.349354077309825 -0.163279406637602 2.32493341854056
-0.288437796117186 -0.187250221972306 2.35731374349028
-0.241368282725829 -0.189529359940291 2.37372853429685
-0.196622646646801 -0.188242482191848 2.38410223081949
-0.147715185902905 -0.193190700289347 2.38895495131874
-0.102278539972307 -0.187322272979944 2.40413074498799
-0.0548744673014892 -0.200724299704489 2.40006302020694
-0.00685027252267743 -0.200516618643548 2.40545085107136
0.0409251735107559 -0.193239514157713 2.40194957064718
0.0884070747445296 -0.171134808859754 2.39472823019567
-0.310691684542632 -0.136231425254244 2.3949219473478
-0.354792772155775 -0.1236945319071 2.35968986664654
-0.272037134829171 -0.160709753812569 2.39327243486215
-0.226064991919814 -0.154371282526459 2.41266606667975
-0.176030527700593 -0.158858866771338 2.41821735544369
-0.130229916615422 -0.158583108896731 2.42776700443303
-0.0787017301013937 -0.162584276884814 2.43411528186133
-0.0337633828458368 -0.169115773039347 2.43619046159386
0.0126142515343218 -0.16623501077654 2.43740696440336
0.0565546493088347 -0.159045009830321 2.42836629485896
0.0929690845165139 -0.133379511034909 2.42715119153479
-0.305871375397136 -0.0962739421468989 2.43050129830405
-0.339734572822619 -0.105166125695331 2.39739603398153
-0.272468757031618 -0.126531456340744 2.42621044685744
-0.237873912135693 -0.114584009057488 2.44396045001351
-0.195145332243561 -0.123187003174888 2.44567546535389
-0.150022600821749 -0.123413558794018 2.45344616484534
-0.102817263383616 -0.126832929983567 2.45941302733915
-0.054211981995411 -0.13103672630113 2.4651037537158
-0.00592885929389896 -0.134217731188466 2.46685391116514
0.0456611036801276 -0.128629952769779 2.45922106591044
0.0930604688271658 -0.0975656133244695 2.45130524166502
-0.347067217280605 -0.0657955242084698 2.41411587015942
-0.268637984673128 -0.0768022141533004 2.45630623260229
-0.312141797113852 -0.0522856269197697 2.44527253609826
-0.21917129614344 -0.077464338653041 2.46559807192794
-0.17314030982573 -0.0823124827271646 2.47076995549733
-0.126462919005673 -0.0834037305088257 2.47743962291863
-0.0806670561535051 -0.0881197300976974 2.48263533485283
-0.0340009364406159 -0.0927447860018754 2.48771333424486
0.0126631041857426 -0.0945526987226249 2.4857081040796
0.0570160621017931 -0.0884658378327836 2.47550849832228
0.0388363703353587 -0.0494572303867224 2.49186746887046
-0.285210784477212 -0.0252356503250045 2.46308210011841
-0.242783053184229 -0.0344167241115436 2.47313111054017
-0.193752235498933 -0.0363974781794763 2.47941125189475
-0.147995948156312 -0.0376433729407072 2.48531081627388
-0.101709939153155 -0.0392089329624555 2.49121709508359
-0.0571529478466031 -0.0460507130699182 2.49627622195183
-0.00945009421394259 -0.0505545347288627 2.49931115354338
-0.256161428571481 -0.340831999757398 2.12093509626421
-0.279896972610368 -0.327021993222965 2.08536918216522
-0.256317372885941 -0.320534449799294 2.04779720060765
-0.20656196201211 -0.3474711450995 2.12165981700513
-0.228138077152894 -0.338662271386472 2.08051506975424
-0.160513179703195 -0.350506554484996 2.1210777330519
-0.179982939162487 -0.339325437111171 2.07501904097462
-0.115107643234782 -0.353726329841751 2.12369292074452
-0.134676460855445 -0.34118032172909 2.07577486136848
-0.0697915882443408 -0.357539687877358 2.1314770523978
-0.0871134597050251 -0.345056613897527 2.08200295534577
-0.0248932037690015 -0.361550674750667 2.14194913274541
-0.0414127672438858 -0.349954932261872 2.09131232045699
0.0211612976758947 -0.36033599109734 2.15052933701363
0.00278426431405553 -0.354308142024521 2.10270436905365
0.0507199671913154 -0.347568202733833 2.11171635024653
-0.307661019593582 -0.320321051263283 2.12857246272314
-0.346015871887065 -0.289760435626336 2.11237082165083
-0.316491635461308 -0.305721416291072 2.08007760109766
0.0887019202083914 -0.331207197118085 2.20441846280202
0.0643623261350257 -0.348761290919673 2.15978388432133
0.104110771774371 -0.327484271251351 2.16171932878963
-0.383679867950978 -0.231517271592468 2.17815908708489
-0.393922329974333 -0.219285581170636 2.12849627510122
-0.371313680737532 -0.261808279767066 2.14172051771713
0.109874129304815 -0.302851417004851 2.23788400756297
0.130492832489175 -0.301588974234522 2.19355432270906
0.14771993735074 -0.270244217418182 2.22069545667972
-0.385720396147779 -0.202713596378693 2.20948658733399
-0.401486970221351 -0.186804083163434 2.16308332049601
0.123928587378714 -0.267005872195941 2.26595378183355
0.155169825114608 -0.230827635470385 2.25112916469991
-0.389290057241176 -0.163959441589125 2.24314391478619
-0.401916949050089 -0.156769102339682 2.19934925037688
0.131963130704905 -0.226574097294091 2.29379146998875
0.161788973504645 -0.188884628509465 2.27518272642509
-0.383692334642405 -0.144741520821233 2.28085265797747
-0.404004070392303 -0.116458243272255 2.23848148136041
0.140807504491827 -0.185477954594672 2.3190750426308
0.166403671255264 -0.146901759277461 2.30124561779805
-0.3757468007315 -0.126556138498647 2.31968358448782
-0.399403486484565 -0.0984941040019593 2.2836907226943
0.117613629832811 -0.178413416901023 2.35825767733646
0.15032790653795 -0.140405546277775 2.34392986297606
-0.389320749969867 -0.0864833282055314 2.33166796224748
-0.407402293259681 -0.0522466539818726 2.30024080311144
0.125208466387858 -0.13845352014467 2.38661292995258
0.15561214893919 -0.100411057835809 2.36949314870991
-0.373798612192694 -0.078783048930829 2.37313792436366
-0.397852393612634 -0.0409102135832446 2.34756089531148
0.128834332485294 -0.10109969741875 2.4147644851104
0.152723232013662 -0.0632621768353263 2.40090617639604
-0.376447915294663 -0.0335726701676294 2.39041932185235
-0.344338052159227 -0.0222118860045384 2.42790902500699
-0.36392562395211 0.0112183837018294 2.40809005935239
0.0860446223584666 -0.0505597992944245 2.47117075780985
0.109568099310494 -0.0113452246699413 2.45681956928387
0.122788406922162 -0.0589656476569939 2.44080834993033
-0.318741767879457 0.00532954526774212 2.44700797745323
-0.26624276427044 0.015839764946539 2.4688604251963
-0.298030450622929 0.0441039832501223 2.45130699427687
-0.216707095873638 0.00701278185677608 2.47772843438749
-0.169448349170924 0.00970904611704176 2.482916698464
-0.122855520891949 0.00812613234830222 2.48838478578651
-0.0760492905684986 0.00647652424038361 2.49386366349992
-0.0331562757931354 -0.00443031410327763 2.49987842033837
-0.00750216060876931 0.031839440046386 2.49378973041112
0.0175053227452025 -0.0083622759192244 2.49813267269961
0.0662354109740371 -0.00837483516114827 2.483269162432
-0.264383930424624 0.0732339699444793 2.45337958027788
-0.232916114854493 0.0495010047719541 2.46816147232065
-0.188772679720885 0.0545852574042574 2.47084363297503
-0.142688720988 0.0543868401486968 2.47528060672957
-0.0960248367840793 0.0521659213577503 2.48046633143563
-0.0476382792299238 0.0502182128821936 2.48569501719332
0.00833438710695479 0.06874115973708 2.47787438013797
-0.344011545938957 -0.274313470308789 2.06281625811757
-0.327632009770298 -0.261807242314904 2.02353363169997
-0.297228190796047 -0.297513453080927 2.03820879416972
-0.248422356101713 -0.299018089703309 2.01133714010034
-0.206616926061116 -0.32222786036629 2.03799506614294
-0.156059900026279 -0.318313206320624 2.0312247410979
-0.106117736383596 -0.323616356863225 2.03947430805683
-0.054093824823294 -0.327871888349816 2.0461229134544
-0.00882712287098328 -0.333524467530465 2.055035400928
0.0352457083379407 -0.336750724006378 2.07120364472197
0.0777718662179529 -0.318966121876074 2.06977545284723
0.09038823756304 -0.331194364270849 2.11814061594028
0.117149678219162 -0.305653377673734 2.09951794248412
-0.373771136858202 -0.251067527798817 2.09544958185485
-0.391134042420765 -0.204977856164555 2.08101143370243
-0.367847080092131 -0.232836177347617 2.05171604527069
0.133788790120059 -0.301582497024286 2.14398919489382
0.149889050412826 -0.273947591886125 2.11177954372356
0.159895951614375 -0.268971477981693 2.16682105790833
-0.405157182882782 -0.170764682503466 2.11642088799953
0.179925897578009 -0.226996004658274 2.16280915836213
-0.407978154873493 -0.138735390577604 2.14799644935251
0.171897430614714 -0.233369212553142 2.20553619018448
-0.408858772827704 -0.115192980086332 2.1900091240386
0.177772737133499 -0.190640068264679 2.22793599214088
-0.410684493665186 -0.0748861547579799 2.20423962232127
0.180592856507216 -0.14965511064207 2.25060490445248
-0.410590841576326 -0.0655663115038125 2.25119558943946
0.181447403479935 -0.111438901324647 2.27663785896936
-0.413440841528991 -0.0172983713942757 2.2680620021242
0.173701962312087 -0.097309035602763 2.32163335936437
-0.409556385596984 -0.00470751953924188 2.31804978403815
0.174123689237528 -0.0573185721977958 2.35313983077988
-0.392700249142462 0.00519653207438453 2.36577216976499
-0.398869242432695 0.0415683717736912 2.33558360576017
0.14277401486668 -0.0178895888613084 2.42313948140681
0.16707046007457 -0.0230997912303805 2.38225559783965
-0.37511132852137 0.0488163432201962 2.3815298805438
-0.340351738236861 0.0456547140424949 2.42291166216562
-0.347023300980386 0.0862499198482547 2.39380544638364
0.0423934790917347 0.0328523900641387 2.48464432581979
0.0888669671002459 0.0316464443253924 2.46305974085278
0.12775336750344 0.028232989262315 2.43113453243976
-0.310278650918303 0.0834968932495806 2.42734067853375
-0.269572049116991 0.11001638915348 2.42968352291453
-0.217208130438289 0.0945655539046118 2.44986911700345
-0.168155764928372 0.0963835782323636 2.4523787429567
-0.120822535291782 0.0950865473132592 2.45660624540669
-0.0734861090644377 0.0917392406122206 2.46216234222662
-0.0274955150412956 0.0921056762544071 2.46509109542869
0.0262281893162942 0.102383268907169 2.4520680179751
0.059730272895906 0.0705781691181833 2.46163474804537
-0.316099957967229 -0.231384098334329 1.9870883395685
-0.284966311443959 -0.270506789760391 1.99792465955017
-0.236475098317855 -0.268715700086659 1.97762080956206
-0.199405614121511 -0.296399854546038 2.00193632325777
-0.155656228651483 -0.285113941316764 1.99223233940699
-0.115488557571108 -0.292806684810989 2.00164992463416
-0.06854923554562 -0.301584268455884 2.0125172392585
-0.0123878590508747 -0.303010299274833 2.01637875389901
0.0350824839360745 -0.312276541082456 2.03407578476478
0.0805197815202128 -0.288970799498937 2.0323352393064
0.118547358238832 -0.283635753427182 2.0643563919765
-0.379158062408128 -0.180981090661522 2.03609478457174
-0.351642143915124 -0.219577016837124 2.01635091658358
0.151592225017247 -0.247408351353644 2.073230445988
0.171875289077714 -0.238010553643905 2.12111523297223
-0.398046139244482 -0.157474631483641 2.07498234468217
0.188787856930838 -0.189872758015442 2.13347807627973
-0.403036851276055 -0.115586836873074 2.10258513823791
0.187810338840146 -0.185469118593408 2.1830764815386
-0.406765219685823 -0.0901833727084841 2.14928731071885
0.188833404102041 -0.142259901463983 2.20341920745063
-0.405548400452909 -0.0459405025050895 2.16766878378605
0.188866188315467 -0.102134479404657 2.22882850847912
-0.410325466773749 -0.028340536672684 2.21800799908649
0.186069445561015 -0.069386721277098 2.27263115792621
-0.408814064006281 0.0176282698741709 2.23502116726095
0.183163453693094 -0.0463423061442052 2.31110646888592
-0.410168119708443 0.0301005785851731 2.28592234852988
0.178641575334069 -0.00136190672547285 2.34472629838039
-0.394752105997371 0.0757012891934636 2.30316411654476
0.157555837687259 0.0203538841115996 2.39147723148563
-0.375961181981185 0.0845390364296192 2.35044397084242
-0.342789737326014 0.121675016425654 2.36128449916086
0.10205796422729 0.0700787920583923 2.43397008843953
0.137297434961501 0.0641086769708336 2.39798798312016
-0.308891464800284 0.120867508742017 2.39830902881503
-0.265112317127091 0.146765116951044 2.39615797115414
-0.229663991358718 0.129071599954315 2.42314034713376
-0.184729721571668 0.132494151788624 2.42222126952764
-0.140611014172313 0.13261819375024 2.42407741526596
-0.0939211267697139 0.12857794976353 2.43017229819022
-0.0506213510157769 0.128124664300325 2.43256375505741
-0.00802651156962757 0.125996631329603 2.43602446614507
0.0694935922017413 0.107100992589991 2.42873995045093
-0.312372253982658 -0.198051001709855 1.95695525146875
-0.274220597334619 -0.23723918042063 1.96302303799618
-0.227272399110784 -0.235667308437915 1.94463746473872
-0.187843530937278 -0.261130925478838 1.96704423491537
-0.133927252984675 -0.25274597656437 1.96116147132676
-0.0881377155737674 -0.264869526737946 1.97521841654555
-0.0425759643571597 -0.276317474581054 1.98859650688974
0.000932474229207572 -0.265242976721527 1.97958455998934
0.0384243154268594 -0.281435938991985 2.00231353448265
0.0852433347131059 -0.255917465234081 1.99855966752427
0.121924872589317 -0.253387456260826 2.0312344893085
-0.373825194967672 -0.144723022236369 2.00443245605756
-0.34980525601983 -0.186385774224939 1.99019351018082
0.157847086521735 -0.214976726250754 2.04099811708136
0.178005403310667 -0.205128678989836 2.08701118494674
-0.392892897530001 -0.126055542894764 2.04802836595775
0.195397841083302 -0.156995116094945 2.10360125961109
-0.39598612239915 -0.079825924233257 2.06789830212575
0.194633622985754 -0.143902096243783 2.15499958399892
-0.400259967257372 -0.0623611203734399 2.11397566742875
0.19544834995179 -0.0969262440240518 2.17841921944016
-0.399110000961738 -0.0159357526600884 2.13430311102599
0.193098725845645 -0.0579627687014217 2.22253558478617
-0.403618868710881 0.00283022019280234 2.18312847423514
0.191470273982124 -0.0255133604771994 2.25660143087028
-0.402241785559473 0.0500496850944705 2.20210458456878
0.187979027006089 -0.00461201467345285 2.29821944946973
-0.403574293821069 0.0639829952344822 2.25340419968697
0.184756044130972 0.0389372424967134 2.31198837267793
-0.388068930904448 0.10920812201523 2.27044471286848
0.16662089135872 0.0491082680807171 2.35653314528367
-0.369463752585014 0.118141071119681 2.31766830758552
-0.335332178469021 0.155828648770183 2.32871335594222
0.109244649989897 0.105458431105971 2.39950944731646
0.145195097653138 0.0963924011951945 2.36420285751414
-0.30215873228345 0.154783823743451 2.36525029431747
-0.253303713642673 0.179370939801722 2.36622658861043
-0.213266745543429 0.161661150711803 2.39206443596292
-0.162237009808984 0.167662655557886 2.38841234074851
-0.109629645654022 0.161040189431121 2.39732915700024
-0.0612370299860601 0.162131536325185 2.39842008494002
-0.0151769325071862 0.159774887321852 2.40281954385127
0.0324337835589023 0.13919168074251 2.41666589039418
0.0738447643635272 0.143119657551709 2.39506230326182
-0.306429959564235 -0.16545361084131 1.92545256187551
-0.268885824812418 -0.203697966000452 1.93081695431071
-0.220907316569976 -0.204001130779254 1.91355260066086
-0.176319472790468 -0.229890658058231 1.93663138137747
-0.128934931524061 -0.216064688164556 1.92507007109397
-0.0870427047733457 -0.230132116238319 1.94087722267976
-0.0425592586727837 -0.243325668545213 1.95593445331968
0.00394308517918955 -0.22999693660822 1.94482491304006
0.0469132786567866 -0.246544469414459 1.96859347689075
0.0926415943388367 -0.221927124616345 1.96568222802238
0.128425443162024 -0.221415696774497 2.00006159830401
-0.366930976909515 -0.110622633216426 1.97071122010668
-0.34405079955994 -0.154664142713411 1.95982449710667
0.164589196794446 -0.182285279299247 2.00948659275633
0.184994720972048 -0.171491553952168 2.05543402934608
-0.386111674956152 -0.094963818012231 2.01533458128493
0.201913800252167 -0.124372623242922 2.07293551185843
-0.389280212324768 -0.0491108795473309 2.03280000813565
0.200987586312813 -0.110019008723505 2.1248058091582
-0.39352347313296 -0.0265101612114549 2.08191477250866
0.202764451083752 -0.0638464147868012 2.13984632692662
-0.39319577765532 0.0194723378823954 2.10866315529637
0.198787315435754 -0.0465008754966445 2.18342131543805
-0.397072459461091 0.0370697041005385 2.15158667299193
0.198656776278775 -0.00249483994031714 2.21265480544769
-0.395474110772965 0.0823805457341566 2.16753621219921
0.194903291757446 0.023290372066155 2.25980378746988
-0.397200857980604 0.0962341564555632 2.22006746917123
0.192298906314691 0.0694060567696118 2.27674815000723
-0.38150102640714 0.141988361979668 2.23858388330634
0.172601715298489 0.0853912438790798 2.32356965344471
-0.362334431036393 0.151792930019036 2.28572013200578
-0.326600697180833 0.189471128266564 2.29848312395751
0.115103077133643 0.139595250871073 2.36688711717703
0.151042509547948 0.131073848973518 2.33165256202958
-0.29193876738754 0.188151495533092 2.33534168520796
-0.243336980809189 0.212043066099387 2.33538458355538
-0.202167068409661 0.193443212932625 2.36109677601713
-0.157145009681083 0.206584457952772 2.35010757945137
-0.120163923547209 0.19088203600517 2.36731214216998
-0.0724445396482912 0.193655305208482 2.36670755534109
-0.0220652659584624 0.193841831769019 2.36878331528085
0.0278149262686246 0.1738486422681 2.38562519246153
0.075582810949947 0.176537265563129 2.36503971974776
-0.299777720793494 -0.132836731069327 1.89328995395456
-0.262868745746642 -0.170522714799203 1.89857210591208
-0.216554900518082 -0.171330351352915 1.88194517855487
-0.17256544996022 -0.197368413110738 1.90460255915178
-0.122675586282434 -0.181403171877746 1.89103440439204
-0.0807898058097877 -0.194691548010669 1.90606957312894
-0.0390030395797781 -0.20934350198509 1.922451024767
0.00744306474236373 -0.195059258295711 1.91039266395306
0.0507360754042133 -0.213467173128421 1.93525249531501
0.0962727523177159 -0.190034171589585 1.93246423679826
0.135062203482673 -0.188973115825664 1.9684825084529
-0.361495273601639 -0.07571604505532 1.93967922394949
-0.337454343731708 -0.122588073546172 1.92803557241135
0.170972361418918 -0.14976619969708 1.97741946378904
0.191606271717192 -0.138463396390763 2.02327835428174
-0.379726710332902 -0.0599684989617071 1.98302353439208
0.208235866547122 -0.0923000431038039 2.03993259860851
-0.38192731875635 -0.0112335173702986 1.99700335498649
0.207870267635814 -0.0767251321230027 2.08990789201811
-0.386598011196494 -0.00239809214536702 2.04079909578653
0.209078439627602 -0.0274138541389539 2.11160439295762
-0.387685559714032 0.0294662788119376 2.07006895678239
0.204604396028416 -0.0105116462103477 2.1589603826317
-0.389720880754238 0.070482662192854 2.11294296022985
0.205648683914436 0.0344762383990377 2.17922508549613
-0.389127437726108 0.114234913367426 2.13609833307353
0.201295370545219 0.0511988291833395 2.2254758765939
-0.39082251345437 0.12836072803512 2.18856153911595
0.199275565054699 0.0999111581199811 2.24337255998354
-0.374069709734098 0.175514063733949 2.20945420206215
0.179979258026432 0.117252466716205 2.29004542782173
-0.354585557155683 0.185205409651833 2.25554492497469
-0.319103863001136 0.222417130043423 2.26741910344822
0.120270079951273 0.173010497091312 2.33547359348223
0.157782183356967 0.163668298383426 2.29929359476218
-0.283495802362061 0.220994201103879 2.30456537169629
-0.236725790007496 0.245357436739173 2.30269886326259
-0.194942155550722 0.228630956541206 2.32658460015241
-0.144234994887255 0.240888111586623 2.31672454038373
-0.104961470479662 0.223795045951961 2.33540939459283
-0.056662749169115 0.226347306510692 2.33504930181807
-0.00858062100263184 0.227052914212342 2.33650787603739
0.031485237739658 0.205138350684866 2.35546080369101
0.0830942450390998 0.207528341974792 2.33388431182601
-0.300602664786175 -0.0977653405418023 1.86651566440516
-0.25603865895024 -0.136552934829126 1.86519736881741
-0.208162004878586 -0.139611180637643 1.85041314585921
-0.167088134723711 -0.166381998013906 1.87417078011659
-0.117068703361479 -0.148265493170591 1.85853088355487
-0.0735794584213078 -0.159012393835721 1.87107016784974
-0.0338828228456239 -0.173220351488412 1.88691690263362
0.00977985563480549 -0.159681367775614 1.8754836483314
0.0539223092840982 -0.180699384345173 1.90211173067508
0.100776243939878 -0.157701951880857 1.8994276864651
0.137789238936907 -0.159280895649946 1.93538417665705
-0.355685079136323 -0.0402104604164714 1.90848731658991
-0.33429065643279 -0.0881641396612128 1.89947054465784
0.171878349052247 -0.122959830140563 1.94187241885408
0.197931527986061 -0.105504412888562 1.98994221302882
-0.373162986761052 -0.0237502721286173 1.9497963484303
0.215605846214738 -0.0557418090242357 2.01795568714028
-0.375239633008849 0.0252645158961126 1.96943784746301
0.214103546038209 -0.0402077000907524 2.06238475963591
-0.380374331619969 0.0416295142417861 2.01815628009707
0.215633012477345 0.00768614144486766 2.07934641086368
-0.383698703614431 0.0707451907937765 2.06393651110088
0.211232465491487 0.0235672794009971 2.12664828622231
-0.382418834721246 0.114350393296944 2.08138819836241
0.212434326357461 0.0688662315700842 2.14538607955135
-0.383341699400371 0.151060804404696 2.11249799063243
0.207996400172355 0.0859292657289532 2.19298429114032
-0.383986019346857 0.162072781598185 2.1615968361901
0.20562654343825 0.132921864915507 2.21166791653134
-0.367332472784622 0.20853017189687 2.17791682529963
0.186769183572934 0.149123922037504 2.25776695472006
-0.347274282196549 0.218630323166261 2.22429327631378
-0.312594625229174 0.255233066116825 2.23521540656022
0.127431226115088 0.205672602930713 2.30279834839124
0.164501811884464 0.196321427690261 2.26685365925171
-0.277273601742656 0.253680514342693 2.27229821148182
-0.230771947024685 0.278231715152614 2.27019531507887
-0.187326087336488 0.262026941769622 2.29386313850139
-0.138564693585331 0.273035164756224 2.28512434847519
-0.091124297189701 0.25847568863242 2.3016951827881
-0.0411129172062392 0.258913349438246 2.30350556787665
0.00539538987226212 0.258893734845008 2.3056115158721
0.0442291525799315 0.235911774245149 2.32378138295888
0.0905373090115676 0.240227222928489 2.30126919942274
-0.263266939192164 -0.100009290086333 1.84112419263194
-0.221760537356785 -0.104802578705351 1.82779082696926
-0.175316639028515 -0.102886413341888 1.82151278990556
-0.160789764460548 -0.135554353654945 1.84485657590932
-0.123244120700967 -0.109024826297568 1.82878812710824
-0.0766278426873431 -0.1208101610661 1.83944185160018
-0.0298857103890232 -0.13186031622921 1.85012798977435
0.0181319014104395 -0.121723137373174 1.84704431243766
0.0572940340030882 -0.148578707789012 1.87114541491111
0.101972023192435 -0.122895079835057 1.86978312488348
0.142267592087506 -0.125491926692735 1.90281475765906
-0.342957668280007 -0.00468855911911934 1.88142807775886
-0.326729283426248 -0.0523214568301873 1.86942145597398
0.191285409538831 -0.0856642793368415 1.94285502738096
0.209180961504598 -0.0613816843352816 1.97507705290437
-0.363067028035812 0.0138179277110904 1.91994219637029
0.215064835499338 -0.017562684084627 1.98362470666707
-0.359757812173409 0.0591542837298693 1.93885679148397
0.217960072564305 -0.00361205552627379 2.02834592657625
-0.369376430833394 0.0750332345643791 1.98299986513623
0.214852279345005 0.0408866995929435 2.04500996549681
-0.37620747131932 0.0946878790605021 2.02789170797667
0.215147329695068 0.058494917545951 2.09181319233867
-0.369774359524688 0.140892493475694 2.04050237403288
0.212417772421857 0.102053658347178 2.11176154620318
-0.372596421562416 0.16991534915064 2.07496637006245
0.212347642813468 0.119867231792538 2.15825182781068
-0.376400909478433 0.194104413917138 2.12842367251421
0.206781393825889 0.162601217052855 2.17835080509758
-0.358245611202741 0.235736710858953 2.14133828926692
0.191416341147554 0.181813277238792 2.22556246948895
-0.340763543490349 0.249909631394637 2.19015112498652
-0.304907757499379 0.282793575295553 2.20043554123107
0.132859687089527 0.238289084674839 2.26872766663868
0.164737441202009 0.228170977731635 2.23226528439849
-0.26953765770718 0.28560121850851 2.23937882920574
-0.220706361260381 0.307420657514944 2.23290608591025
-0.183619484870193 0.294423567442283 2.25880583545078
-0.141710907160448 0.302047095851435 2.24780234391667
-0.0977073777565318 0.292581910607795 2.26249732463467
-0.0531057585213864 0.288203085763491 2.26923743624991
-0.00304533227573585 0.287211724648357 2.27104372090167
0.0486806986005921 0.269866897059699 2.28898212982501
0.094087408013076 0.269217652103085 2.26645712704329
-0.288250342592834 -0.0592376091311264 1.8373603514283
-0.242841855254561 -0.0619206847220354 1.81521768853462
-0.195173771242636 -0.0643439733836934 1.80579502523307
-0.143359953744892 -0.0686587452667179 1.80910459528187
-0.0929267689095414 -0.0753659356552077 1.81619318149182
-0.0469067447637385 -0.0853404120338341 1.82410759818491
-0.0027997161995769 -0.0851123655110027 1.82816068034836
0.0443269857059658 -0.0752274495850297 1.82975685973758
0.0644166269715562 -0.109569859157444 1.84705133690748
0.0967724955860373 -0.074380768346068 1.84435705498623
0.133068254830415 -0.0905870473663756 1.87194833547827
-0.307823946937886 -0.0167703679780353 1.84354879919722
-0.282226590109301 0.0239730226999805 1.82758470995139
-0.265272043366272 -0.0200313143641342 1.81639112847421
0.143670682785723 -0.0498710947019791 1.86723726934807
0.169445954973456 -0.0818695992193816 1.90407996659322
0.173221161922561 -0.0349211629876901 1.8945776276764
-0.339407175981433 0.0500007875163779 1.89042594628536
-0.319778628434448 0.0257465654209177 1.85763552236709
0.197274379051088 -0.0391693890269845 1.93263321476012
0.202944567355638 0.00376164484710547 1.94744140469315
-0.335854835085923 0.0890091017482672 1.91481625179694
0.208966376474052 0.0318597120878807 1.98935162408263
-0.345603493726841 0.111069505202815 1.95310427300627
0.20425912375097 0.0705733317727688 2.01493101595763
-0.358045277101106 0.123942550848346 1.99216099354545
0.206989252844471 0.0936324564348622 2.05601664071801
-0.346677965645281 0.16385068086684 2.00385962947846
0.202419646265906 0.132198787837804 2.08128489805475
-0.350320296423657 0.194094780319803 2.03885521635424
0.204946162549673 0.155065399857581 2.12216477368084
-0.363744351607004 0.212163216289897 2.09062194324545
0.197691757948436 0.192152538718481 2.14681364825949
-0.329504191922501 0.273030546747128 2.15136824143546
-0.341509859257671 0.255088139244469 2.10365930648774
-0.310321345693523 0.288093442062518 2.10823535036295
0.188306496300714 0.209809583011162 2.19023356967409
0.175273455646976 0.233575943332702 2.1454425340823
0.162079252627689 0.24867999807766 2.18998372397377
-0.261485395180881 0.308702944085104 2.20135583553624
-0.295289629978412 0.300486131295855 2.1603819648094
-0.253247249234968 0.321821760214739 2.15826467974145
0.129479998139625 0.267266657906302 2.22823308445517
0.0974731211962351 0.29782249109538 2.19073509902326
0.085031833163766 0.292843786953188 2.22986499928071
-0.214109539158815 0.325225779265419 2.19196878356128
-0.170217555889936 0.320205241696661 2.21205541444466
-0.117333065793486 0.317515584550043 2.21466771892003
-0.0729262976129531 0.312651887293731 2.2237847943151
-0.0291529888399388 0.309250917147683 2.22906717551376
0.0135772995498269 0.30800487055725 2.22861157039757
0.0465966071154869 0.29442260287097 2.25261069082692
-0.216422652913363 -0.0216460542020318 1.80053833851045
-0.165173146663827 -0.026182161619728 1.79797438147612
-0.114455478184623 -0.030412389394143 1.80403112309271
-0.0666415800004562 -0.0353994482718381 1.81002254430846
-0.0218575639802587 -0.0391055170932196 1.81552907424971
0.0222522729103196 -0.035109973486846 1.82022350720547
0.0708433086543871 -0.0337681703917966 1.82802844223229
-0.238001849942755 0.0202653039736677 1.80706239334122
-0.210432361412679 0.057659703019659 1.80943028864701
-0.186607795336963 0.0174291687445286 1.79796499430969
-0.13585083674409 0.0137846505380368 1.80142645663707
-0.0882026638626115 0.0125530901946358 1.80754666016124
-0.0409783568615873 0.00897780149852561 1.81334522860634
0.0037986252813163 0.0103500766917806 1.81948147085776
0.0507144301638347 0.00947106995671369 1.82574172104327
0.0988513231327705 0.0109541893105174 1.84041591520443
0.145820076216946 0.00295110618462657 1.86835074425703
0.114371151148687 -0.0294270230255649 1.84530421814355
-0.299916407226801 0.0652875995825564 1.85370401793157
-0.267590724558445 0.103551920237421 1.85430953906783
-0.257299554067748 0.0641526316089335 1.82616511454892
0.122171670127872 0.0454142998219212 1.8632636113152
0.179693766881422 0.00748535436632999 1.90581452555569
0.158204764777381 0.0473444279065952 1.89516686242784
-0.307510588754208 0.0976744498951789 1.88322958813362
-0.273875658853671 0.136084630385225 1.8888806159435
0.188442285134455 0.0449918922156431 1.93873817763037
0.160928333129138 0.0837569582615989 1.92764822467728
-0.3118827244337 0.132109822388962 1.9212711298849
-0.280671638333616 0.168134393978856 1.92535304061613
0.187626739672843 0.0768654842247879 1.97043501128982
0.159220197479572 0.117548890922679 1.96151578906611
-0.322830707668748 0.158395302638687 1.96028303823513
-0.285321689671515 0.197757399059865 1.95795901516874
0.186445838644765 0.111087221477639 2.00590062594907
0.158402983984129 0.150373123324476 1.99567363594403
-0.319410953768858 0.198061594414827 1.99349088468735
-0.283140182756883 0.23300719918877 1.99050668593722
0.18594787895481 0.14090697047057 2.03812522957962
0.157942809553847 0.182529945075796 2.02966537403357
-0.316375219443547 0.234179319945952 2.0242097834561
-0.282288445551182 0.270218791749404 2.02767346873899
0.185106777966322 0.174586728470313 2.07386646249352
0.156937877121328 0.214861572765103 2.06302794473437
-0.3399959035978 0.235223209829262 2.06056035131956
-0.310434832665623 0.271946722393201 2.06377843946456
0.183594710728782 0.204827054761827 2.1055424992477
0.153893547393019 0.244668131967842 2.09830553209517
-0.276939152334735 0.311449170914676 2.11836580727964
-0.271859140347418 0.301833689077996 2.07057234397913
-0.239227903309011 0.324165323810426 2.10380774084032
0.131844455299081 0.278308696065653 2.18102816307373
0.145522244455232 0.266355401011932 2.13956040820131
0.105825328317002 0.294199034038617 2.13884382325199
-0.2147180583595 0.332429315810663 2.14349828289723
-0.189070920652272 0.332195487420059 2.10773334578404
-0.174224437665486 0.332870033774622 2.16214412725369
-0.145183651203547 0.331023718764603 2.12129741761196
-0.131814143901369 0.328995638563059 2.17157801863456
-0.101108224518806 0.327568127933405 2.1266878143103
-0.0850534845492515 0.325697162052793 2.17457447932451
-0.0562909186047486 0.323861649214193 2.1303378341883
-0.0408015380124121 0.322119249631786 2.18083816645018
-0.0127561683475621 0.320288750959941 2.13425392970668
0.00368803150891196 0.319034100049764 2.18303585270254
0.0314138498282945 0.31711945204739 2.14235377715879
0.0493044673834348 0.312376936056935 2.19829787342977
0.0690801676851947 0.310683387120684 2.15520240013412
-0.179408462238808 0.0909904867067454 1.82156210874352
-0.157155549100926 0.0559529211701815 1.80759955256105
-0.111431387746509 0.0582855889115673 1.81515017972994
-0.0627397415567646 0.0539957083370699 1.82094166632573
-0.0178419177867036 0.0557368769863882 1.82841532583411
0.0275304380480677 0.0548648280548857 1.83504620470979
0.0735137446702468 0.0507893498337485 1.8425085875973
-0.224406772877546 0.0999892983112486 1.8329616291881
-0.181637270779709 0.127096285016169 1.84721694006098
-0.135797122676101 0.101091122719672 1.83259018181549
-0.0849131131292854 0.093959303462113 1.83680961738403
-0.0406007800234859 0.0972644700430398 1.84668242198014
0.00390983702260063 0.0971993818216618 1.85453350972007
0.0490668344640432 0.0942405645420425 1.86049279897127
0.092412160817212 0.0844266387078194 1.86799136323769
0.127032985370751 0.0877081192335524 1.89302172931156
-0.229127271460278 0.135392957753197 1.86390607993858
-0.189100494692381 0.160512354637045 1.88066965982967
-0.143320519468949 0.143564299457778 1.86778860198559
-0.104233877382132 0.127148008434822 1.85910865559021
-0.0614386067770581 0.132560242275125 1.87314161510331
-0.017746297635544 0.133251958297066 1.88268866909013
0.0303336963338091 0.129465562193962 1.88855878105306
0.0801121090613512 0.121582540645617 1.89493436475927
0.124831079734194 0.120204946753395 1.92387645967359
-0.235792134124209 0.167656010184353 1.89847538184787
-0.190600418775445 0.192617377271201 1.913099915447
-0.144662269233873 0.177346608928319 1.90194945424962
-0.0981792762519952 0.160528661322678 1.8942139015363
-0.0512286029169303 0.167437822718605 1.91075651581545
-0.00106984440681522 0.163409215499966 1.916800420067
0.0466971326651324 0.159186423541273 1.92217447146996
0.0887313928278041 0.151340112284607 1.93008024614676
0.123880657640837 0.154789652273715 1.9593800018619
-0.239093697885728 0.198917667501192 1.9308199962919
-0.192946671881251 0.223164645371215 1.94401743017553
-0.144080206624142 0.211405226823447 1.93678096932135
-0.101643688897487 0.193277324754633 1.92689105027119
-0.0637528943196576 0.202138255553648 1.94358987947074
-0.0190857970821793 0.196153905532197 1.946528962865
0.0288908393884742 0.192479663943183 1.95249209951515
0.0778894019923228 0.186088431587279 1.96041966640099
0.123028516493051 0.185842359393669 1.99126257661656
-0.242136702274152 0.229317072161266 1.96222771511396
-0.199109530517502 0.253393324689687 1.97496009273212
-0.149177780615715 0.243552569911434 1.96851443650953
-0.100036336147893 0.231244108766935 1.96591421558234
-0.048504889965904 0.231471030615112 1.97657272034932
-0.000374483432662609 0.226744241000231 1.98149476025992
0.0460024365644578 0.223244219478916 1.9873721964298
0.0874377194350462 0.216106349187592 1.996420467322
0.122434980253644 0.219869881423074 2.02652598333331
-0.246584410426053 0.262044982628853 1.99658943360447
-0.20860768242733 0.284151014410019 2.00769253314474
-0.161673736497524 0.27724320308775 2.0003904873907
-0.115139205734413 0.267032552124446 1.99933495360978
-0.0705207267829621 0.262544377270504 2.00378859341778
-0.0215678460916566 0.26033353018636 2.01144162407193
0.0272095372406197 0.256674813736846 2.0175822725066
0.0762512881098171 0.250975559592711 2.02658269815676
0.121042839382885 0.250346460511037 2.0582240945687
-0.242159506015485 0.296671447244798 2.03579575449993
-0.185560027136254 0.306481484067019 2.03623868693963
-0.136867764891905 0.3000224839866 2.03469693972015
-0.0922643127587575 0.295182174303992 2.03807956680312
-0.0474250263609932 0.291035169307261 2.04261089959782
-0.00107685417989345 0.288020035354477 2.04922437014798
0.0439711267874113 0.285078378315892 2.05579159190735
0.0846055662129698 0.278344530719485 2.0658130115233
0.116428316287387 0.277486263858417 2.09912899940744
-0.217119107396954 0.318739259100521 2.06702927260029
-0.162945715688983 0.322092448704752 2.07270499082205
-0.117203541689531 0.31861285151142 2.07860858736789
-0.0721659090225412 0.314566598896093 2.08266552716609
-0.0264362870814448 0.310477364332669 2.08687236158281
0.0206799753452789 0.307318351808445 2.0941183472168
0.0675668303527398 0.30215549924897 2.1042473818183
3 0 1 2
3 0 2 4
3 3 0 4
3 3 4 6
3 5 3 6
3 5 6 8
3 7 5 8
3 7 8 10
3 9 7 10
3 9 10 12
3 11 9 12
3 13 11 14
3 14 11 12
3 13 14 15
3 16 17 18
3 16 18 1
3 0 19 1
3 19 16 1
3 0 3 20
3 19 0 20
3 3 5 21
3 20 3 21
3 5 7 22
3 21 5 22
3 7 9 23
3 22 7 23
3 9 11 24
3 23 9 24
3 24 11 25
3 25 11 13
3 13 15 26
3 27 13 26
3 25 13 27
3 27 26 28
3 17 16 30
3 30 16 29
3 29 19 31
3 29 16 19
3 31 20 32
3 31 19 20
3 32 21 33
3 32 20 21
3 21 22 33
3 33 22 34
3 22 23 34
3 34 23 35
3 23 24 35
3 35 24 36
3 24 25 36
3 36 25 37
3 37 27 38
3 37 25 27
3 38 28 39
3 38 27 28
3 30 40 41
3 30 29 40
3 29 31 42
3 40 29 42
3 31 32 43
3 42 31 43
3 32 33 44
3 43 32 44
3 33 34 45
3 44 33 45
3 34 35 46
3 45 34 46
3 35 36 47
3 46 35 47
3 36 37 47
3 47 37 48
3 37 38 48
3 48 38 49
3 49 39 50
3 49 38 39
3 40 51 52
3 41 40 52
3 51 42 53
3 51 40 42
3 42 43 53
3 53 43 54
3 43 44 54
3 54 44 55
3 44 45 55
3 55 45 56
3 45 46 56
3 56 46 57
3 46 47 58
3 57 46 58
3 47 48 59
3 58 47 59
3 48 49 60
3 59 48 60
3 49 50 61
3 60 49 61
3 51 62 63
3 52 51 63
3 51 53 64
3 62 51 64
3 53 54 65
3 64 53 65
3 54 55 66
3 65 54 66
3 55 56 67
3 66 55 67
3 56 57 67
3 67 57 68
3 57 58 69
3 68 57 69
3 58 59 69
3 69 59 70
3 59 60 70
3 70 60 71
3 71 61 72
3 71 60 61
3 62 73 74
3 63 62 74
3 62 64 75
3 73 62 75
3 64 65 75
3 75 65 76
3 65 66 76
3 76 66 77
3 66 67 77
3 77 67 78
3 67 68 78
3 78 68 79
3 79 69 80
3 79 68 69
3 80 70 81
3 80 69 70
3 81 71 82
3 81 70 71
3 82 72 83
3 82 71 72
3 74 73 85
3 85 73 84
3 84 73 86
3 86 73 75
3 75 76 86
3 86 76 87
3 76 77 88
3 87 76 88
3 77 78 89
3 88 77 89
3 78 79 90
3 89 78 90
3 79 80 91
3 90 79 91
3 80 81 92
3 91 80 92
3 81 82 93
3 92 81 93
3 93 83 94
3 93 82 83
3 84 95 85
3 84 86 96
3 97 84 96
3 95 84 97
3 96 87 98
3 96 86 87
3 87 88 98
3 98 88 99
3 88 89 99
3 99 89 100
3 89 90 100
3 100 90 101
3 101 91 102
3 101 90 91
3 102 92 103
3 102 91 92
3 92 93 103
3 105 103 104
3 103 93 104
3 93 94 104
3 96 106 97
3 96 98 107
3 106 96 107
3 98 99 108
3 107 98 108
3 99 100 109
3 108 99 109
3 100 101 110
3 109 100 110
3 101 102 111
3 110 101 111
3 111 102 112
3 112 102 103
3 103 105 112
3 117 114 115
3 116 113 117
3 117 113 114
3 116 117 119
3 118 116 119
3 118 119 121
3 120 118 121
3 120 121 123
3 122 120 123
3 122 123 125
3 124 122 125
3 124 125 127
3 126 124 127
3 126 127 128
3 129 130 131
3 114 129 131
3 114 113 129
3 113 2 129
3 129 2 1
3 4 113 116
3 4 2 113
3 6 116 118
3 6 4 116
3 8 118 120
3 8 6 118
3 10 120 122
3 10 8 120
3 12 122 124
3 12 10 122
3 14 124 126
3 14 12 124
3 133 126 128
3 15 14 126
3 15 126 133
3 132 15 133
3 132 133 134
3 135 136 137
3 137 17 135
3 137 18 17
3 18 137 130
3 129 18 130
3 18 129 1
3 15 132 26
3 139 132 134
3 139 138 132
3 138 28 26
3 132 138 26
3 138 139 140
3 136 135 142
3 142 135 141
3 17 30 135
3 135 30 141
3 143 39 28
3 138 143 28
3 143 140 144
3 143 138 140
3 141 145 146
3 142 141 146
3 41 145 141
3 30 41 141
3 147 39 143
3 147 50 39
3 147 144 148
3 147 143 144
3 145 149 150
3 146 145 150
3 52 149 145
3 41 52 145
3 151 50 147
3 151 155 50
3 151 148 152
3 151 147 148
3 149 153 154
3 150 149 154
3 63 153 149
3 52 63 149
3 155 61 50
3 155 72 61
3 155 151 156
3 156 151 152
3 154 157 158
3 154 153 157
3 74 157 153
3 63 74 153
3 159 72 155
3 159 83 72
3 159 156 160
3 159 155 156
3 158 157 162
3 162 157 161
3 74 85 161
3 157 74 161
3 163 83 159
3 163 94 83
3 163 160 164
3 163 159 160
3 161 165 162
3 165 95 166
3 165 161 95
3 161 85 95
3 165 166 167
3 95 97 166
3 105 104 168
3 170 94 163
3 170 168 94
3 169 168 170
3 94 168 104
3 163 164 170
3 166 171 167
3 173 171 172
3 172 171 106
3 171 97 106
3 171 166 97
3 172 107 174
3 172 106 107
3 174 108 175
3 174 107 108
3 175 109 176
3 175 108 109
3 176 110 177
3 176 109 110
3 177 111 178
3 177 110 111
3 178 112 180
3 178 111 112
3 181 105 168
3 181 180 105
3 179 178 180
3 180 112 105
3 168 169 181
3 172 182 173
3 182 172 183
3 183 172 174
3 174 175 184
3 183 174 184
3 175 176 185
3 184 175 185
3 176 177 186
3 185 176 186
3 177 178 187
3 186 177 187
3 187 179 188
3 187 178 179
3 179 180 229
3 189 190 191
3 114 131 191
3 115 114 191
3 115 191 192
3 115 192 193
3 117 115 193
3 119 193 194
3 119 117 193
3 119 194 121
3 121 194 195
3 121 195 123
3 123 195 196
3 123 196 125
3 125 196 197
3 127 197 198
3 127 125 197
3 128 198 199
3 200 128 199
3 128 127 198
3 200 199 201
3 202 203 204
3 131 130 189
3 190 189 204
3 189 130 202
3 189 202 204
3 131 189 191
3 128 200 133
3 134 200 205
3 206 205 201
3 134 133 200
3 205 200 201
3 205 206 207
3 136 208 203
3 202 137 136
3 202 136 203
3 137 202 130
3 134 205 139
3 139 205 207
3 140 139 207
3 211 207 209
3 136 142 208
3 208 142 210
3 211 140 207
3 211 144 140
3 146 212 210
3 142 146 210
3 148 144 213
3 213 144 211
3 150 214 212
3 146 150 212
3 215 148 213
3 215 152 148
3 154 216 150
3 150 216 214
3 219 152 217
3 217 152 215
3 158 218 216
3 154 158 216
3 219 156 152
3 219 160 156
3 158 220 218
3 158 162 220
3 221 160 219
3 221 164 160
3 162 165 222
3 223 220 222
3 220 162 222
3 165 167 222
3 169 170 224
3 225 164 221
3 224 170 164
3 224 164 225
3 222 226 223
3 167 171 227
3 226 167 227
3 226 227 228
3 226 222 167
3 171 173 227
3 180 181 229
3 181 169 230
3 231 169 224
3 230 169 231
3 230 229 181
3 224 225 271
3 227 232 228
3 232 182 233
3 232 173 182
3 227 173 232
3 182 183 234
3 233 182 234
3 183 184 234
3 234 184 235
3 184 185 235
3 235 185 236
3 185 186 236
3 236 186 237
3 186 187 237
3 237 187 238
3 238 188 239
3 238 187 188
3 188 179 229
3 240 239 188
3 240 188 229
3 229 230 240
3 191 190 242
3 242 190 241
3 192 242 243
3 192 191 242
3 192 243 244
3 193 192 244
3 194 244 245
3 194 193 244
3 194 245 246
3 195 194 246
3 195 246 247
3 196 195 247
3 196 247 248
3 197 196 248
3 197 248 249
3 198 197 249
3 199 198 249
3 250 199 249
3 201 199 251
3 251 199 250
3 204 252 253
3 204 203 252
3 190 253 241
3 190 204 253
3 206 251 254
3 206 201 251
3 207 206 255
3 255 206 254
3 203 256 252
3 203 208 256
3 257 209 255
3 255 209 207
3 210 258 208
3 208 258 256
3 211 209 259
3 259 209 257
3 212 260 210
3 210 260 258
3 213 211 259
3 261 213 259
3 214 262 260
3 212 214 260
3 215 213 261
3 263 215 261
3 216 264 214
3 214 264 262
3 217 215 263
3 265 217 263
3 218 266 264
3 216 218 264
3 219 217 265
3 267 219 265
3 218 268 266
3 218 220 268
3 221 219 267
3 269 221 267
3 223 270 268
3 220 223 268
3 225 221 269
3 271 225 269
3 223 226 272
3 270 223 272
3 272 228 273
3 272 226 228
3 274 231 275
3 274 230 231
3 275 231 271
3 271 231 224
3 273 228 276
3 276 228 232
3 276 233 277
3 276 232 233
3 233 234 278
3 277 233 278
3 234 235 279
3 278 234 279
3 235 236 280
3 279 235 280
3 236 237 281
3 280 236 281
3 237 238 282
3 281 237 282
3 238 239 283
3 282 238 283
3 327 239 284
3 284 239 240
3 240 230 274
3 284 240 274
3 241 285 286
3 242 241 286
3 242 286 243
3 243 286 287
3 243 287 288
3 244 243 288
3 245 288 289
3 245 244 288
3 245 289 246
3 246 289 290
3 246 290 247
3 247 290 291
3 247 291 248
3 248 291 292
3 248 292 293
3 249 248 293
3 249 293 250
3 250 293 294
3 250 294 295
3 251 250 295
3 252 296 297
3 253 252 297
3 241 297 285
3 241 253 297
3 254 295 298
3 254 251 295
3 254 298 299
3 255 254 299
3 256 300 252
3 252 300 296
3 257 255 299
3 301 257 299
3 258 302 300
3 256 258 300
3 259 257 303
3 303 257 301
3 260 304 258
3 258 304 302
3 261 259 303
3 305 261 303
3 262 306 304
3 260 262 304
3 263 261 305
3 307 263 305
3 264 308 262
3 262 308 306
3 265 263 307
3 309 265 307
3 266 310 308
3 264 266 308
3 267 265 309
3 311 267 309
3 266 312 310
3 266 268 312
3 269 267 311
3 313 269 311
3 270 314 312
3 268 270 312
3 271 269 315
3 315 269 313
3 270 272 316
3 314 270 316
3 316 273 317
3 316 272 273
3 318 275 319
3 318 274 275
3 275 271 315
3 319 275 315
3 273 276 320
3 317 273 320
3 276 277 320
3 320 277 321
3 277 278 322
3 321 277 322
3 322 279 323
3 322 278 279
3 279 280 323
3 323 280 324
3 280 281 324
3 324 281 325
3 281 282 325
3 325 282 326
3 282 283 326
3 326 283 327
3 283 239 327
3 327 284 328
3 284 274 318
3 328 284 318
3 285 329 330
3 286 285 330
3 286 330 287
3 287 330 331
3 287 331 332
3 288 287 332
3 288 332 289
3 289 332 333
3 289 333 334
3 290 289 334
3 290 334 335
3 291 290 335
3 291 335 292
3 292 335 336
3 292 336 337
3 293 292 337
3 293 337 294
3 294 337 338
3 294 338 339
3 295 294 339
3 296 340 341
3 297 296 341
3 285 341 329
3 285 297 341
3 298 339 342
3 298 295 339
3 298 342 343
3 299 298 343
3 300 344 296
3 296 344 340
3 301 299 343
3 345 301 343
3 302 346 344
3 300 302 344
3 303 301 347
3 347 301 345
3 304 348 302
3 302 348 346
3 305 303 347
3 349 305 347
3 306 350 348
3 304 306 348
3 307 305 351
3 351 305 349
3 308 352 306
3 306 352 350
3 309 307 353
3 353 307 351
3 310 354 352
3 308 310 352
3 311 309 355
3 355 309 353
3 312 356 310
3 310 356 354
3 313 311 355
3 357 313 355
3 314 358 356
3 312 314 356
3 315 313 359
3 359 313 357
3 314 316 360
3 358 314 360
3 360 317 361
3 360 316 317
3 362 319 363
3 362 318 319
3 319 315 359
3 363 319 359
3 317 320 364
3 361 317 364
3 320 321 364
3 364 321 365
3 321 322 366
3 365 321 366
3 322 323 366
3 366 323 367
3 323 324 368
3 367 323 368
3 324 325 369
3 368 324 369
3 325 326 370
3 369 325 370
3 326 327 371
3 370 326 371
3 327 328 371
3 371 328 372
3 328 318 362
3 372 328 362
3 329 373 374
3 330 329 374
3 330 374 331
3 331 374 375
3 331 375 376
3 332 331 376
3 332 376 333
3 333 376 377
3 333 377 378
3 334 333 378
3 334 378 379
3 335 334 379
3 335 379 336
3 336 379 380
3 336 380 381
3 337 336 381
3 337 381 338
3 338 381 382
3 338 382 383
3 339 338 383
3 340 384 385
3 341 340 385
3 329 385 373
3 329 341 385
3 342 383 386
3 342 339 383
3 342 386 387
3 343 342 387
3 344 388 340
3 340 388 384
3 345 343 387
3 389 345 387
3 346 390 388
3 344 346 388
3 347 345 391
3 391 345 389
3 348 392 346
3 346 392 390
3 349 347 391
3 393 349 391
3 350 394 348
3 348 394 392
3 351 349 395
3 395 349 393
3 352 396 350
3 350 396 394
3 353 351 395
3 397 353 395
3 354 398 396
3 352 354 396
3 355 353 399
3 399 353 397
3 356 400 354
3 354 400 398
3 357 355 399
3 401 357 399
3 358 402 400
3 356 358 400
3 359 357 403
3 403 357 401
3 358 360 404
3 402 358 404
3 404 361 405
3 404 360 361
3 406 363 407
3 406 362 363
3 363 359 403
3 407 363 403
3 361 364 408
3 405 361 408
3 364 365 408
3 408 365 409
3 365 366 410
3 409 365 410
3 366 367 410
3 410 367 411
3 367 368 412
3 411 367 412
3 368 369 412
3 412 369 413
3 369 370 413
3 413 370 414
3 370 371 415
3 414 370 415
3 371 372 415
3 415 372 416
3 372 362 406
3 416 372 406
3 373 417 418
3 374 373 418
3 374 418 375
3 375 418 419
3 375 419 420
3 376 375 420
3 376 420 377
3 377 420 421
3 377 421 422
3 378 377 422
3 378 422 423
3 379 378 423
3 380 423 424
3 380 379 423
3 380 424 425
3 381 380 425
3 382 425 426
3 382 381 425
3 382 426 427
3 383 382 427
3 384 428 429
3 385 384 429
3 373 429 417
3 373 385 429
3 386 427 430
3 386 383 427
3 386 430 431
3 387 386 431
3 384 432 428
3 384 388 432
3 389 387 431
3 433 389 431
3 390 434 432
3 388 390 432
3 435 389 433
3 435 391 389
3 390 436 434
3 390 392 436
3 393 391 435
3 437 393 435
3 394 438 436
3 392 394 436
3 395 393 439
3 439 393 437
3 396 440 438
3 394 396 438
3 397 395 439
3 441 397 439
3 398 442 440
3 396 398 440
3 399 397 443
3 443 397 441
3 400 444 398
3 398 444 442
3 401 399 443
3 445 401 443
3 402 446 444
3 400 402 444
3 403 401 447
3 447 401 445
3 402 404 448
3 446 402 448
3 448 405 449
3 448 404 405
3 450 407 451
3 450 406 407
3 407 403 447
3 451 407 447
3 405 408 452
3 449 405 452
3 408 409 452
3 452 409 453
3 409 410 454
3 453 409 454
3 410 411 454
3 454 411 455
3 411 412 456
3 455 411 456
3 412 413 456
3 456 413 457
3 457 414 458
3 457 413 414
3 414 415 459
3 458 414 459
3 415 416 459
3 459 416 460
3 416 406 450
3 460 416 450
3 418 461 462
3 418 417 461
3 419 462 463
3 419 418 462
3 419 463 464
3 420 419 464
3 420 464 421
3 421 464 465
3 421 465 466
3 422 421 466
3 422 466 467
3 423 422 467
3 424 467 468
3 424 423 467
3 424 468 469
3 425 424 469
3 426 469 470
3 426 425 469
3 427 426 471
3 471 426 470
3 429 428 473
3 473 428 472
3 417 473 505
3 417 429 473
3 430 427 471
3 520 430 471
3 431 474 475
3 431 430 474
3 428 476 472
3 428 432 476
3 433 431 475
3 477 433 475
3 434 478 476
3 432 434 476
3 479 433 477
3 479 435 433
3 434 480 478
3 434 436 480
3 437 435 479
3 481 437 479
3 438 482 436
3 436 482 480
3 439 437 483
3 483 437 481
3 440 484 482
3 438 440 482
3 441 439 483
3 485 441 483
3 442 486 440
3 440 486 484
3 443 441 487
3 487 441 485
3 444 488 442
3 442 488 486
3 445 443 487
3 489 445 487
3 444 446 488
3 488 446 490
3 491 445 489
3 491 447 445
3 490 446 492
3 492 446 448
3 492 449 493
3 492 448 449
3 494 451 495
3 494 450 451
3 451 447 491
3 495 451 491
3 449 452 496
3 493 449 496
3 496 453 497
3 496 452 453
3 453 454 498
3 497 453 498
3 498 455 499
3 498 454 455
3 455 456 500
3 499 455 500
3 456 457 501
3 500 456 501
3 457 458 502
3 501 457 502
3 458 459 503
3 502 458 503
3 503 460 504
3 503 459 460
3 504 460 494
3 494 460 450
3 461 505 506
3 462 461 506
3 507 463 462
3 507 462 506
3 465 463 508
3 508 463 507
3 464 463 465
3 465 508 509
3 465 509 466
3 466 509 510
3 466 510 467
3 467 510 511
3 467 511 468
3 468 511 512
3 468 512 513
3 469 468 513
3 469 513 470
3 515 470 514
3 470 513 514
3 470 515 471
3 472 516 473
3 518 516 517
3 518 505 516
3 461 417 505
3 505 473 516
3 505 518 506
3 515 514 519
3 474 430 520
3 521 520 519
3 520 471 515
3 520 515 519
3 474 520 524
3 476 522 472
3 516 472 523
3 472 522 523
3 516 523 517
3 520 521 524
3 477 475 524
3 524 475 474
3 525 477 524
3 478 526 522
3 476 478 522
3 527 477 525
3 527 479 477
3 478 528 526
3 478 480 528
3 481 479 527
3 529 481 527
3 482 530 480
3 480 530 528
3 483 481 531
3 531 481 529
3 484 532 530
3 482 484 530
3 485 483 531
3 533 485 531
3 486 534 484
3 484 534 532
3 535 485 533
3 535 487 485
3 486 536 534
3 486 488 536
3 537 489 535
3 535 489 487
3 490 538 539
3 536 490 539
3 488 490 536
3 538 540 539
3 541 542 543
3 541 489 537
3 542 541 537
3 541 491 489
3 490 492 538
3 545 493 544
3 538 492 493
3 538 493 545
3 540 538 545
3 544 546 545
3 547 548 549
3 543 495 541
3 547 494 495
3 547 495 543
3 608 547 543
3 495 491 541
3 493 496 544
3 544 497 550
3 546 544 550
3 544 496 497
3 550 497 551
3 551 497 498
3 498 499 551
3 551 499 552
3 499 500 552
3 552 500 553
3 500 501 553
3 553 501 554
3 554 502 555
3 554 501 502
3 502 503 556
3 555 502 556
3 503 504 556
3 549 504 547
3 556 504 549
3 504 494 547
3 506 557 507
3 507 557 558
3 508 507 558
3 508 558 559
3 509 508 559
3 509 559 560
3 510 509 560
3 510 560 561
3 511 510 561
3 511 561 562
3 512 511 562
3 514 512 563
3 563 512 562
3 513 512 514
3 517 564 518
3 518 564 557
3 566 564 565
3 557 564 566
3 557 506 518
3 558 566 567
3 558 557 566
3 559 567 568
3 559 558 567
3 560 568 569
3 560 559 568
3 561 569 570
3 561 560 569
3 562 570 571
3 562 561 570
3 563 562 571
3 572 563 571
3 574 514 563
3 572 574 563
3 573 519 574
3 574 519 514
3 519 573 521
3 522 575 523
3 577 575 576
3 577 517 575
3 564 517 577
3 575 517 523
3 564 577 565
3 573 574 572
3 521 573 579
3 580 573 578
3 579 573 580
3 579 524 521
3 524 579 525
3 522 581 575
3 522 526 581
3 576 581 582
3 576 575 581
3 583 580 584
3 583 579 580
3 583 525 579
3 583 527 525
3 526 585 581
3 526 528 585
3 582 585 586
3 582 581 585
3 587 584 588
3 587 583 584
3 587 527 583
3 587 529 527
3 528 589 585
3 528 530 589
3 586 589 590
3 586 585 589
3 591 588 592
3 591 587 588
3 591 529 587
3 591 531 529
3 532 593 589
3 530 532 589
3 590 593 594
3 590 589 593
3 595 592 596
3 595 591 592
3 595 531 591
3 595 533 531
3 534 597 593
3 532 534 593
3 594 597 598
3 594 593 597
3 599 596 600
3 599 595 596
3 599 533 595
3 599 535 533
3 534 601 597
3 534 536 601
3 602 597 601
3 602 598 597
3 603 599 600
3 604 603 600
3 603 535 599
3 603 537 535
3 536 539 601
3 606 540 605
3 606 602 540
3 602 601 539
3 540 602 539
3 605 607 606
3 608 609 610
3 608 543 609
3 604 542 603
3 609 543 542
3 609 542 604
3 542 537 603
3 540 545 605
3 605 546 607
3 612 607 611
3 605 545 546
3 607 546 611
3 612 613 614
3 612 611 613
3 614 615 616
3 614 613 615
3 616 617 618
3 616 615 617
3 618 619 620
3 618 617 619
3 620 621 622
3 620 619 621
3 622 623 624
3 622 621 623
3 610 548 608
3 624 623 548
3 624 548 610
3 548 623 549
3 548 547 608
3 546 550 611
3 611 550 613
3 613 550 551
3 551 552 615
3 613 551 615
3 552 553 617
3 615 552 617
3 553 554 619
3 617 553 619
3 554 555 621
3 619 554 621
3 621 555 623
3 623 555 556
3 556 549 623
3 565 625 626
3 567 566 626
3 626 566 565
3 567 626 627
3 568 567 627
3 568 627 628
3 569 568 628
3 569 628 629
3 570 569 629
3 570 629 630
3 571 570 630
3 572 571 631
3 631 571 630
3 572 631 578
3 576 632 577
3 625 632 633
3 565 577 632
3 565 632 625
3 625 633 634
3 626 625 634
3 626 634 627
3 627 634 635
3 627 635 628
3 628 635 636
3 628 636 629
3 629 636 637
3 629 637 630
3 630 637 638
3 631 638 639
3 631 630 638
3 640 578 639
3 578 573 572
3 578 631 639
3 578 640 580
3 576 641 632
3 576 582 641
3 633 641 642
3 633 632 641
3 633 642 643
3 634 633 643
3 634 643 644
3 635 634 644
3 635 644 645
3 636 635 645
3 636 645 646
3 637 636 646
3 637 646 647
3 638 637 647
3 638 647 648
3 639 638 648
3 640 648 649
3 640 639 648
3 584 580 640
3 649 584 640
3 582 650 641
3 582 586 650
3 642 650 651
3 642 641 650
3 642 651 652
3 643 642 652
3 643 652 653
3 644 643 653
3 644 653 645
3 645 653 654
3 645 654 646
3 646 654 655
3 646 655 647
3 647 655 656
3 647 656 648
3 648 656 657
3 648 657 649
3 649 657 658
3 588 584 649
3 658 588 649
3 586 659 650
3 586 590 659
3 650 659 651
3 651 659 660
3 651 660 661
3 652 651 661
3 652 661 662
3 653 652 662
3 653 662 654
3 654 662 663
3 654 663 664
3 655 654 664
3 655 664 665
3 656 655 665
3 656 665 666
3 657 656 666
3 657 666 658
3 658 666 667
3 592 588 658
3 667 592 658
3 590 668 659
3 590 594 668
3 660 668 669
3 660 659 668
3 660 669 670
3 661 660 670
3 661 670 671
3 662 661 671
3 662 671 663
3 663 671 672
3 663 672 664
3 664 672 673
3 664 673 665
3 665 673 674
3 665 674 666
3 666 674 675
3 666 675 667
3 667 675 676
3 596 592 667
3 676 596 667
3 594 677 668
3 594 598 677
3 668 677 669
3 669 677 678
3 669 678 679
3 670 669 679
3 670 679 680
3 671 670 680
3 671 680 681
3 672 671 681
3 672 681 682
3 673 672 682
3 673 682 683
3 674 673 683
3 674 683 684
3 675 674 684
3 676 684 685
3 676 675 684
3 600 596 676
3 685 600 676
3 598 686 677
3 598 602 606
3 678 686 687
3 678 677 686
3 678 687 679
3 679 687 688
3 679 688 680
3 680 688 689
3 680 689 681
3 681 689 690
3 681 690 682
3 682 690 691
3 683 691 692
3 683 682 691
3 684 692 693
3 684 683 692
3 685 693 694
3 685 684 693
3 694 604 685
3 685 604 600
3 598 606 686
3 606 607 695
3 686 606 695
3 686 695 687
3 688 687 696
3 696 687 695
3 688 696 697
3 689 688 697
3 689 697 698
3 690 689 698
3 690 698 699
3 691 690 699
3 691 699 700
3 692 691 700
3 692 700 701
3 693 692 701
3 610 609 694
3 701 610 694
3 701 694 693
3 609 604 694
3 607 612 695
3 695 612 696
3 696 612 614
3 614 616 697
3 696 614 697
3 616 618 698
3 697 616 698
3 618 620 699
3 698 618 699
3 620 622 700
3 699 620 700
3 622 624 701
3 700 622 701
3 624 610 701
