OFF
702 1400 0
-0.254436138527909 -0.341804740226575 2.1509089828825
-0.299936711966039 -0.327836578271012 2.13351470789374
-0.271679328787541 -0.34620751615772 2.1054720050806
-0.207518617630089 -0.348218923540701 2.15542642764867
-0.225665369938947 -0.356775853740923 2.11040094338488
-0.160676645980486 -0.352638421124742 2.15844362238592
-0.179244606026902 -0.360743037387612 2.11241099605474
-0.115270621980924 -0.356455348639793 2.16268148811009
-0.133889739135078 -0.364499665882214 2.11412879015721
-0.0703513632701743 -0.360091433723431 2.16728140986391
-0.0891056440972829 -0.367936124186788 2.11865471237999
-0.0228314907773912 -0.363029065654732 2.17480877506734
-0.0432977010200956 -0.37112971700276 2.12704113736105
0.0252390058802904 -0.358502507233368 2.18329628005654
0.00402753730135842 -0.372637973100434 2.13600268953472
0.0504811211153978 -0.363687820155399 2.14504935760051
-0.3227494305646 -0.30031333784497 2.16261009054449
-0.352583902778783 -0.282321486808967 2.13570516486164
-0.331185156852914 -0.311281202949349 2.10634316862724
-0.282205644421578 -0.316599278076446 2.18183511990638
-0.235454229330328 -0.325646119120981 2.19356302236507
-0.187721427419653 -0.330712393521232 2.1972410069297
-0.140926920363104 -0.33445494561477 2.20249216091351
-0.0956872976974552 -0.337673545466194 2.20820851762615
-0.0513537042809476 -0.342786831381376 2.21061985562183
-0.00270275049356289 -0.343440800213684 2.21786215424479
0.071084227928948 -0.342183246100598 2.1894651426251
0.0424006800578662 -0.331213350772443 2.2259911383544
0.0883577152719052 -0.310659287974195 2.22431333955202
-0.309959114514664 -0.280664491350005 2.20479484224175
-0.35021687760866 -0.259633434216417 2.17742157850665
-0.263906878483876 -0.294321652144272 2.22193943210573
-0.213922477560982 -0.300550628291516 2.22982335146964
-0.166296062896579 -0.304684915470376 2.23492547070943
-0.118659894705519 -0.306978918280695 2.2420510314017
-0.0739388030501976 -0.309565369353043 2.24826415316187
-0.0316317712970475 -0.318564593709551 2.24694855055501
0.00964768642392719 -0.310332732099315 2.25785163175677
0.0552116058469519 -0.296636243470323 2.25968487588891
0.0998717355431724 -0.27381684652383 2.25384829225504
-0.328470432404321 -0.244196873604788 2.22657169359765
-0.361756042171635 -0.222145052855482 2.20074781671871
-0.287410549247407 -0.259458589481523 2.24728398969534
-0.23833389232582 -0.270049715717118 2.25818236115453
-0.189557724337764 -0.272086430439907 2.26600858888818
-0.142076236327354 -0.276632004175307 2.27063061060311
-0.0905749122330419 -0.277372715211257 2.28024321361655
-0.0356610241031657 -0.286388950300293 2.28146029178933
0.0147248217133263 -0.278999279608025 2.29100457083054
0.0650945599618706 -0.263073259639504 2.29016471742942
0.109668591350337 -0.2364243855874 2.28306571422227
-0.312731074930963 -0.221265205823915 2.26983320575469
-0.353310922876923 -0.202765165766493 2.23929350823561
-0.263386790983416 -0.238555849217599 2.28421802520911
-0.215966495096579 -0.240818875094012 2.29499393226547
-0.170418573569881 -0.241757983400501 2.30318388233775
-0.126421760349498 -0.24928525701167 2.30382628831011
-0.0929933473675141 -0.23768909768448 2.32332542345412
-0.0580245778700105 -0.256300398003517 2.3099701866436
-0.0157356905606842 -0.252821890082965 2.32092768849328
0.0321221853255461 -0.245983787598196 2.32247759141474
0.0800431402018088 -0.226710619748504 2.31888246251791
-0.316187968878109 -0.182017428213355 2.31123808859319
-0.344204469738465 -0.183350391362219 2.27631538105518
-0.283113276701149 -0.208023691915177 2.30782685704569
-0.236030096977017 -0.210543695025017 2.3241670739779
-0.191296843396185 -0.209297821867483 2.33459901560678
-0.142354066686019 -0.214050435655273 2.33928844468535
-0.0969650588750296 -0.20839572534445 2.35468630710955
-0.0494606025681451 -0.221283011109612 2.35015295210532
-0.00144006725186958 -0.220909421692376 2.3555643988514
0.0462795410110435 -0.213149676234306 2.35234977668696
0.0935941576603116 -0.190439406861401 2.34595701395533
-0.305756781084261 -0.158576583433295 2.34725762343481
-0.349946547576601 -0.145098729999642 2.31248707356608
-0.266918292263106 -0.182686498034963 2.34473423721996
-0.220997917008522 -0.176711526005198 2.36436446754774
-0.170931740529989 -0.181020748295798 2.36976922518066
-0.125135797267028 -0.180747352742074 2.37934130173315
-0.0735797205135554 -0.184588235418408 2.38556083122152
-0.0285936175587732 -0.190851882302825 2.38741532189259
0.0177607806115101 -0.187667671420195 2.38875480400363
0.0616468500045909 -0.179822298168754 2.37999972503361
0.0978666259807211 -0.153855728116531 2.37973427454501
-0.301243071060858 -0.119905160326216 2.38426942571054
-0.335033727048558 -0.127841779788575 2.3508486651951
-0.267612374914119 -0.149733746553561 2.3788939996471
-0.233111102785849 -0.138179648955355 2.39708115039212
-0.190319015360973 -0.146516918317565 2.39849943047859
-0.145196901373976 -0.146685861298032 2.40627517974241
-0.0979678920969186 -0.14996406504139 2.41213295175271
-0.049333019086966 -0.154005546598513 2.41768679754902
-0.00102748991659929 -0.156883967500507 2.41933977234672
0.0505198352462402 -0.150633261955597 2.41193640671024
0.097684362763789 -0.118944896980007 2.40517562685728
-0.342665665431528 -0.0891621371281293 2.36898712208037
-0.264161218876065 -0.101105219097614 2.41078105822056
-0.30784742124888 -0.0765320710975708 2.40062904735525
-0.214692186799321 -0.101732031782829 2.4200628647391
-0.168626600865858 -0.106417945661369 2.42507371154675
-0.12194319551357 -0.107399191820939 2.43171832738879
-0.0761137272734656 -0.11195569261248 2.43675769940978
-0.0294146978686748 -0.116410466600567 2.44168310196851
0.0172619313387432 -0.117792286658916 2.43963248177951
0.0615690335333317 -0.111004004481121 2.42967925972869
0.0430931386757097 -0.0727547651362073 2.44743948393182
-0.281123800387443 -0.0499458343873979 2.41942216715066
-0.238629305175654 -0.0591663430747661 2.4291477625176
-0.189585771765382 -0.06100455940575 2.43537170309862
-0.143822172778878 -0.0621192657055788 2.4412407219832
-0.0975264545477476 -0.0635496664177538 2.44710503475337
-0.0529197538139279 -0.0702348502101127 2.45193004887831
-0.0051846616053341 -0.0744863049763633 2.4548185724125
-0.249646552705237 -0.352653703301897 2.06602915353042
-0.273480924037917 -0.33773790133847 2.03097964323479
-0.249945944633445 -0.329709719961996 1.99367826806955
-0.199998469575289 -0.358940632054729 2.06653206741826
-0.221634965562675 -0.348803199998083 2.02572631121053
-0.153928003826081 -0.361605531190667 2.06585873076673
-0.173475456931816 -0.348902783290417 2.02022947142734
-0.108499802037423 -0.364575874318933 2.06837357588112
-0.128156366709729 -0.35044225953361 2.02093580869733
-0.0631572901414906 -0.368328172822627 2.07603230396784
-0.0805662890099061 -0.354183878360174 2.02703815800571
-0.0182313049149354 -0.372378932811024 2.0863698378101
-0.0348311631767022 -0.359072993536548 2.03618178479234
0.0278115621626711 -0.371130065683785 2.09500738301532
0.00939594974474516 -0.363504507982117 2.04742593737723
0.0572781890754329 -0.356735730417578 2.05669680594282
-0.301300563906376 -0.332823195476841 2.07438680488909
-0.339882894946222 -0.301983297307841 2.05929231886083
-0.31023466133027 -0.316535410400074 2.02645173753216
0.0951231038845372 -0.343473237953976 2.14994840994374
0.070922725378966 -0.359574396542666 2.10469465852699
0.110509129095222 -0.338082788398421 2.10741933505602
-0.377994390779516 -0.246458540051711 2.12714107597543
-0.388322258740647 -0.232505205606482 2.07795208559916
-0.365394964712824 -0.275309303241172 2.08962941077412
0.116076127943309 -0.316195275954412 2.18443230418356
0.136690652279944 -0.313164985907217 2.14018635102845
0.153676964321734 -0.28269970239096 2.16845718013714
-0.380256537374789 -0.218830219975365 2.1594951538566
-0.396136565601107 -0.20136187931472 2.11369512743636
0.12985577663236 -0.281290032176588 2.21379364510691
0.160824951591231 -0.244361718394179 2.20030813938577
-0.384123215215892 -0.181354612066074 2.19453898782639
-0.396798167388882 -0.172670679136549 2.15102982899416
0.137581085632922 -0.2418386737208 2.24308748587316
0.167124002805502 -0.203273132875635 2.22587477553301
-0.3786758081012 -0.163480053954086 2.23292437851123
-0.399194835163726 -0.133827505856341 2.19160219408545
0.146111528083088 -0.201624350647357 2.26985341027994
0.171418090273849 -0.162232950610321 2.25345004168665
-0.370873010972804 -0.146660455781487 2.27239459471643
-0.394736077004477 -0.117486339854859 2.23743708192637
0.122859723786266 -0.196165519724273 2.30925768846005
0.155288014736497 -0.157415808263246 2.29633583868014
-0.384750743470574 -0.107153819238411 2.28582373254332
-0.403086058648138 -0.0719334450106215 2.25565587120723
0.130148832040744 -0.157207864204769 2.3390513995293
0.160266707713051 -0.118339402781511 2.32333974676531
-0.369292745875462 -0.10085098887009 2.32755278069563
-0.393628367243956 -0.062254896885158 2.30336105299586
0.13348878710484 -0.120876997295538 2.36854509113943
0.157093175801719 -0.0823811520239698 2.3560826300633
-0.372285644125412 -0.0563207250445054 2.34646685000103
-0.340267498851996 -0.0460899897585539 2.38435826062084
-0.360104266648141 -0.0121092641258688 2.36576094280676
0.0903111431502223 -0.0727474052817289 2.42673565420693
0.113539788489769 -0.032860275911036 2.41383060134942
0.127121416311976 -0.0797654327746564 2.39610248782039
-0.314882451750805 -0.0190696257733273 2.40445725322684
-0.262467229629981 -0.00896605289848476 2.42669914782212
-0.294465062188478 0.0196777483093755 2.41017288566388
-0.212867515223123 -0.0177361392800903 2.43526031460108
-0.165631169113289 -0.0148741951352315 2.44056257326167
-0.119028450602351 -0.0163036773895027 2.44598847870454
-0.0722118340115193 -0.017798591435955 2.45142282760581
-0.0292384977777835 -0.0285933495369208 2.45705423147021
-0.00385814782064696 0.00806637126112236 2.45229991300561
0.0214515779198255 -0.0320770508431039 2.45518726173827
0.0701823634892726 -0.0311812406393769 2.44035305613556
-0.261039721041503 0.048965895899754 2.4133178878789
-0.229395591306213 0.0249486671546715 2.42723920827973
-0.185292162249494 0.0302646609990586 2.43012264908637
-0.139208614036021 0.0302524059006082 2.43456829773073
-0.0925299866164312 0.0281961709208207 2.43968883968749
-0.0441308035598394 0.0264243838586108 2.44486296039161
0.0117014599775268 0.0456412033156622 2.43774442829227
-0.337988615126077 -0.284728501941311 2.01033351405697
-0.321698707963495 -0.270677832258009 1.97153870399061
-0.29102812785682 -0.306664173759627 1.98491722521865
-0.242208722955942 -0.306821838976603 1.95802856458254
-0.200232815415648 -0.330670476311604 1.98384131607153
-0.149705880639545 -0.326130916902927 1.97723859227703
-0.0997262059027074 -0.33135403369712 1.98531012460702
-0.0476725379507764 -0.33545629566326 1.9918207294569
-0.00236564212188804 -0.341087979910096 2.0005401166426
0.0417281249935002 -0.344568071304288 2.01659825957577
0.0841189815479459 -0.326423113304627 2.01583557433863
0.0968208390166554 -0.340307877686232 2.06372887109206
0.123391168713906 -0.313905026314514 2.04605890538122
-0.367927246195743 -0.262910611572221 2.04377897626811
-0.385635715372165 -0.216458273313531 2.03102049545228
-0.362135150555254 -0.243055636645003 2.00074026800763
0.139993109627747 -0.311329887516909 2.09065563870404
0.155888574001604 -0.282420497786387 2.05947953584065
0.165850241883492 -0.279375433816332 2.11466975982488
-0.39992152328753 -0.183663096992491 2.0676457773799
0.185563224418325 -0.237131923112245 2.11219618812084
-0.402988479238534 -0.152826300994446 2.10036481301314
0.177577380217778 -0.245116187328344 2.15465971513323
-0.404052456218426 -0.130835719108582 2.1432060043517
0.183126896782647 -0.203187432943853 2.17860199045663
-0.406184363214526 -0.0910883826359075 2.1588930920957
0.185634446489397 -0.163034491284586 2.20274847841193
-0.40616737490369 -0.0834830919184654 2.20615714145143
0.186196934048231 -0.125785630605386 2.23015522232374
-0.409383994358185 -0.0358837903177723 2.22476768323321
0.178338997952748 -0.113361405755515 2.27563193611442
-0.40560141390488 -0.0250915000113015 2.27518212009464
0.178454547998982 -0.074541972466074 2.30857295925083
-0.388826932880732 -0.0168038987988842 2.32324019045243
-0.395266324989092 0.0205949172741433 2.29439267091243
0.146798683270845 -0.0379240455850663 2.37994824599107
0.171139253774942 -0.041459596553736 2.33891177561552
-0.371569970906968 0.0263449521926453 2.3405819730467
-0.33679304618223 0.0219416468568866 2.38183549743929
-0.343767026406044 0.0635177329015803 2.35422309171211
0.0460296466946725 0.00978767794745702 2.44321781987193
0.0925138076283226 0.00971850339290989 2.42162264221173
0.131429150608002 0.00776244992016508 2.38961025898921
-0.307007132025426 0.0598232675450577 2.38765094461736
-0.266502236653872 0.0865461290052938 2.39097391607624
-0.214025856889539 0.0707662237756683 2.41060528525349
-0.164988953101412 0.072861540389202 2.41319945413061
-0.117647846602637 0.0717684737892118 2.41739630233845
-0.0702882413372057 0.0685782217921714 2.42284625676926
-0.0243021178864267 0.0691846124586728 2.42580520072434
0.0293442004159174 0.0803341428497317 2.41318670748376
0.0630841866101949 0.0484554855386404 2.42160340758843
-0.310391806383351 -0.238862433142053 1.93622936269472
-0.278965109402889 -0.278117688723656 1.9456475571672
-0.230486081223866 -0.275223292230172 1.92544215262395
-0.193211887353019 -0.303493688529659 1.94874928538087
-0.149547661538203 -0.291532533691652 1.93948030334755
-0.109324314905859 -0.299259803447354 1.94862812832494
-0.0623215137655667 -0.308072860875748 1.95918801268652
-0.00615148908416209 -0.309214950751381 1.96301802926695
0.0413850921194949 -0.318760871410624 1.98038554055198
0.0866453606370658 -0.295065269708942 1.97951281223652
0.124627280139282 -0.290612475868516 2.01172243725672
-0.373835241452285 -0.190753176189124 1.98701173475522
-0.3460260483319 -0.22839643663297 1.96588768845367
0.157396485457251 -0.254483871752251 2.02192243056255
0.177601597009173 -0.246682244108884 2.07012577263847
-0.392905473595286 -0.168820576639218 2.02672121377466
0.194148568058725 -0.198900084028197 2.08423906924518
-0.398216010552945 -0.128003872808152 2.05582797659
0.193131181712612 -0.196311841419441 2.1339644683006
-0.402142336891749 -0.10434565643473 2.10342211905007
0.19382524633555 -0.153865073050023 2.15586651693291
-0.401262065433674 -0.0607931142473599 2.12340190774209
0.193551662901617 -0.114691819129476 2.18271916072046
-0.406178627980739 -0.0450732719485469 2.17434628650777
0.190501872171506 -0.0835818383844016 2.22768333985835
-0.405016629452997 0.000256030819073366 2.19302160377476
0.187416813141918 -0.0619754484831633 2.26697056090056
-0.40647163863438 0.0108571185721438 2.24434238019849
0.182550939817423 -0.0182837129347724 2.30220310512546
-0.391402677009461 0.0559151079803603 2.26323843367628
0.161295575888286 0.001556720326699 2.34970468785948
-0.372685353301042 0.0631678352992355 2.31081625375699
-0.339796697348935 0.100133780229996 2.32301453355539
0.105418149065985 0.0492823961000781 2.39395620042903
0.140706513764532 0.0448915877389051 2.35779508050945
-0.305898256342231 0.0982350442524675 2.35999900656776
-0.262315604968759 0.124523158070182 2.35880967811639
-0.226738313626341 0.106127220460411 2.38514480251697
-0.181831043395362 0.109919680924675 2.3843692446346
-0.137714779286508 0.110308764737736 2.38624670591628
-0.0909965346910677 0.106401571473359 2.39220960937982
-0.0476948915878451 0.106188070546339 2.39460068359767
-0.00508566304310849 0.104256751295475 2.39799907171171
0.0725758755151508 0.0862238035672204 2.39006345289564
-0.306911847232837 -0.204427653815108 1.90733074745082
-0.268466206714476 -0.243521895939614 1.91198405238853
-0.221528751351399 -0.240928010631616 1.89368704593808
-0.181911750830997 -0.266892149756988 1.91516846901116
-0.128059531209213 -0.257892353536067 1.90961676532769
-0.0821816461111282 -0.270173812778183 1.92324193805361
-0.036536550775298 -0.281757149186551 1.93621319760824
0.00688823854325415 -0.270034265103069 1.92762800224618
0.0444982273484997 -0.286760485910353 1.94976798292764
0.0911237410647119 -0.26076999313311 1.94696435262117
0.127780751543887 -0.259154236603041 1.9797245885569
-0.368772044262064 -0.153327690019881 1.95669198760574
-0.344436313119596 -0.194262353864339 1.94095618652341
0.163410617840544 -0.220854489668748 1.99089419344926
0.183487836974646 -0.212535748644091 2.03724338982424
-0.38798599196699 -0.136403427848622 2.00093053402796
0.200514129696137 -0.164908037190163 2.05558115969474
-0.391430841865327 -0.0909521776735131 2.02246833595149
0.199644188082042 -0.153700311475091 2.10742157861554
-0.395842605613593 -0.0752085123286071 2.06914897496958
0.200101068535069 -0.107603055981179 2.13253548098416
-0.395045924624843 -0.0295463022228328 2.09115283873617
0.197451410752807 -0.0702896974535566 2.17803954039677
-0.399702897138411 -0.0126041440427181 2.14062690872447
0.195573435154497 -0.0391147095818858 2.213262986535
-0.398684920387639 0.0339025048923001 2.16130932432734
0.191918897473044 -0.0197686908797253 2.25561260812376
-0.400129467228086 0.0459492474193668 2.2130814452025
0.188365348608512 0.0232250989774238 2.270955847325
-0.384968296180118 0.0906399102698602 2.23176274621281
0.17014794823153 0.0316312781091983 2.31583382377124
-0.366437424140906 0.0979884204709458 2.27928773245469
-0.332592858275156 0.135505378934517 2.29171086181092
0.112342119201829 0.0859458745472551 2.36080878599424
0.148364725300337 0.0784420679634669 2.32521036460193
-0.299417365763956 0.133381768431788 2.32819913433884
-0.250749512584638 0.158284759484044 2.33008947202497
-0.210583433501776 0.139948813249268 2.3552821091792
-0.159599976879092 0.14646386768461 2.35187168317833
-0.106945305738157 0.139918161146039 2.36056310227712
-0.0585624561728616 0.141333956735667 2.36171279953746
-0.0124864680767601 0.139166146229855 2.36604241055681
0.0352764454315573 0.118452271650324 2.37915002220426
0.0766594830889225 0.123475990622849 2.35772060896138
-0.301211622399162 -0.17066153040336 1.87703757078365
-0.263380518395771 -0.208791584135132 1.88102204493927
-0.215398775450615 -0.208104474562074 1.86377770403045
-0.170619820709197 -0.234479784303533 1.88591730211416
-0.123339472178575 -0.219885325021004 1.87488614210836
-0.0813443441940528 -0.234202400281125 1.89018803145444
-0.036764568318861 -0.247599373353165 1.90477335590832
0.00963730173262775 -0.233524901501329 1.89417521164544
0.052728024423788 -0.250601971170187 1.91734342923935
0.0982695565586229 -0.225550873764642 1.91534862108073
0.134043916157423 -0.22602110470056 1.94973845350491
-0.36213097378536 -0.117971691580071 1.9242368172126
-0.338917460521987 -0.161414057894643 1.91176398982817
0.169909926749707 -0.186988022642464 1.96059593747865
0.190227214808658 -0.177720004344506 2.00691406023593
-0.381435334949204 -0.104092258007794 1.96939260308516
0.206787701229147 -0.131142961388408 2.02612551837899
-0.38495232888152 -0.0589304908641415 1.9885137503348
0.205746187194893 -0.118693909444063 2.07848340430082
-0.389372694524738 -0.0381647655303769 2.03841668441631
0.207172365858484 -0.073087169732286 2.09519490217749
-0.389395777609425 0.00681501098211825 2.06682078202664
0.203058538713419 -0.0573693828157584 2.13937060325474
-0.393410967852157 0.0228089166260604 2.11035464884969
0.202591824024775 -0.0144585976422809 2.17018605128321
-0.392156915465281 0.0675200722047878 2.12794313395859
0.198637440076215 0.00956465317421801 2.21824058881917
-0.393995253313043 0.0794393757512657 2.18094301944832
0.195682667986768 0.0550122015702287 2.23685080879884
-0.378643811685399 0.124606507275307 2.20111857636363
0.175859069764816 0.0691338922429595 2.28421494640398
-0.35955810793439 0.132833446297307 2.24858822204018
-0.324111587428888 0.170290593546975 2.26272847048105
0.117947005959975 0.121290476855436 2.32945269586641
0.153954475331652 0.114328217482333 2.29394607587985
-0.289445621957407 0.167891884585269 2.29952876094522
-0.241025616909009 0.192131869290557 2.3004609066423
-0.199719888684929 0.172919589660293 2.32549604581282
-0.154796862083221 0.18679116251299 2.31501073792346
-0.117700577166308 0.170752336012685 2.33164760826786
-0.0700034120655405 0.173905518572626 2.33116384376541
-0.0196272613894518 0.17439625931458 2.33326560626012
0.0304002072736631 0.154180093887125 2.34938916246125
0.0781491886720704 0.15797619849535 2.32893468729766
-0.294801532163631 -0.136846562502557 1.8460859122814
-0.257609774638806 -0.174420427077009 1.85000825994006
-0.211288923724786 -0.174273190321252 1.83338188505138
-0.167107167178843 -0.200786108519639 1.85509471243799
-0.11733745099016 -0.183961931465889 1.84213690915341
-0.0753545477639101 -0.197472447630616 1.85669567402746
-0.0334605408778811 -0.212395340100641 1.87255016904816
0.0128780039474502 -0.197331911243901 1.86103858077596
0.0563054349249039 -0.216305356858594 1.88522977578995
0.101664259491631 -0.192443705411706 1.88331470003371
0.140439766201516 -0.192401667293454 1.91936357749457
-0.356954823971807 -0.0819189155998518 1.89449784664824
-0.332559118403297 -0.128153546674754 1.88116606416493
0.176051676141893 -0.153276290961592 1.929736025773
0.196593511953874 -0.143494601895547 1.97598427973452
-0.375310449421797 -0.0678971073766235 1.93837904591958
0.212871850677619 -0.0978438263831125 1.99431416921886
-0.377880835340923 -0.0197211414599663 1.9541221687427
0.212381968421264 -0.0841011314883541 2.04482297853372
-0.382623974654615 -0.0125208527105632 1.99820851005581
0.213214880304606 -0.0356043886514893 2.06830003458872
-0.383956002340842 0.0182481160785029 2.02861807964994
0.208606999967832 -0.020470971817432 2.11623789635506
-0.386306699717359 0.0576605463922856 2.07295543373885
0.209308867484817 0.0237562346703741 2.13812670786399
-0.386046722125519 0.100544376332659 2.09768785154013
0.204823218225949 0.0387512891650441 2.18495361624398
-0.387855435514977 0.112738411097251 2.1506296496021
0.202433276191496 0.0867634390726196 2.204610256835
-0.371461934161317 0.15922516974636 2.17323122584508
0.183000331240056 0.102248746348465 2.25187537029183
-0.352057687270494 0.167379408142559 2.21965204794872
-0.316859558086658 0.204400844975861 2.23288699357595
0.122865774246148 0.155864799603511 2.29927807086362
0.160452193785337 0.148128575722632 2.26279740759814
-0.281246747380941 0.201895575230142 2.26997142819669
-0.234661769673614 0.226662573760777 2.26901184714675
-0.192756236756351 0.209393468941959 2.29229016333751
-0.142141746446976 0.222383339500285 2.28290339581082
-0.102742787144889 0.204918245417367 2.30096990857857
-0.054464665222833 0.20784604288167 2.3007226704604
-0.00638943110693747 0.208860645171809 2.30222560655176
0.0338382080603822 0.186573603018609 2.32038488509154
0.0854305901470472 0.190136310988612 2.29893074990636
-0.295887666063634 -0.100831252634737 1.82060526638542
-0.25103189388675 -0.139208040810989 1.8178945798136
-0.203131532733307 -0.141365133770376 1.80302842791292
-0.161859888341363 -0.168672326637867 1.82581292362563
-0.111976573329387 -0.149622000422456 1.81086308815823
-0.0684091059202804 -0.160489875869826 1.82302076132446
-0.0286084507629114 -0.174965379950604 1.83835619645528
0.0149522907920369 -0.160690433433421 1.82744104308418
0.0592486107697766 -0.182330122504258 1.85330468353457
0.105927930256493 -0.158897599021199 1.8514784410882
0.142946972680271 -0.161504883564817 1.88736878260699
-0.351408694887486 -0.0452589136346593 1.86462102129661
-0.329651606219169 -0.0926900014583786 1.85387393552708
0.176760004108381 -0.125187982234843 1.89518837968296
0.202674203278428 -0.10929752502727 1.94387218075795
-0.36901592065914 -0.0304452057833703 1.90649453112469
0.219968537634408 -0.0604554925083612 1.9736851789065
-0.371465219341484 0.0178052683749588 1.92790581479618
0.218343037885578 -0.0465603048547742 2.01864949186287
-0.376729862317839 0.0323472831222665 1.97718539799674
0.219508571765181 0.000694713992003115 2.03734338556018
-0.38028010874752 0.0597517448724539 2.02399346191174
0.214981902645179 0.0148102897920045 2.08519004224079
-0.379331850197963 0.102701372056113 2.04302090179492
0.215839194609639 0.059405104355912 2.10556433978692
-0.38053603467682 0.138247316156556 2.0754455981813
0.211266183899027 0.0746906937230681 2.1537501302312
-0.381270060764711 0.147460023564082 2.12491238151037
0.208539079718305 0.120953024042336 2.17413046764789
-0.364969946281072 0.193416977763863 2.14291894696577
0.189553748077045 0.135324059566023 2.22078085369612
-0.344994802668894 0.20197366940171 2.189640418902
-0.31059396221274 0.238415148670732 2.20190145852332
0.129784484593379 0.189747455609827 2.26781596853258
0.166929435325831 0.181990368763126 2.23156995187231
-0.275267193270796 0.235780490797811 2.2389176375808
-0.228951953073036 0.260741903723585 2.2377285555093
-0.185388152190476 0.244014609575849 2.26080876679862
-0.136710093695173 0.255700933673266 2.25249628249981
-0.0891633414692918 0.240906194256314 2.26854571063153
-0.0391569345989637 0.241654779163037 2.27039126246137
0.0073499122344468 0.241909233606117 2.27251410950016
0.0463536546753996 0.218574738314366 2.28985150013656
0.0926309245402811 0.224055654152393 2.26753019389276
-0.258532659502845 -0.101868076919391 1.79516421620572
-0.216989463189414 -0.105859848352973 1.78168221895436
-0.170560515505221 -0.103366327255213 1.7754970511738
-0.155790528886627 -0.136751685402539 1.79764252725045
-0.118444109730455 -0.109372611376258 1.78256547463149
-0.0717416051596007 -0.121186004948617 1.79280232649688
-0.0249188051079391 -0.132264957414259 1.80309837513634
0.0230213114561408 -0.121660484836254 1.80040525628178
0.062381866681163 -0.149079287099222 1.82352912721297
0.10686484386118 -0.123026932814778 1.82312062453253
0.147174444103935 -0.126520223714209 1.85605234627557
-0.338946223692367 -0.00868084307472753 1.83887754773876
-0.322357046896476 -0.055721518876662 1.82515215450826
0.195884784678638 -0.0878076177339813 1.89753545103301
0.213592165706415 -0.064579480326371 1.9306270877213
-0.359199902288425 0.00825961959567359 1.878031384905
0.219143877129189 -0.021057451376647 1.94076605400873
-0.356235621522433 0.0529012684772792 1.89858458951333
0.221927705928707 -0.00872212240820509 1.98596649539436
-0.365979773683115 0.0670902668988229 1.94327232472628
0.218481786386798 0.0351160190591939 2.00423753176877
-0.372965035351069 0.0850461210225548 1.98884686959639
0.218637607465847 0.051011035563509 2.05165063762695
-0.36688265855224 0.130808396526354 2.00313319355294
0.215576570376501 0.0937931415245107 2.07316976090089
-0.369928391941604 0.158535709245524 2.03862934609788
0.215365713341704 0.109902006710002 2.1202774524464
-0.373922571769007 0.180733958744311 2.0929299208158
0.20947427243741 0.151833055410093 2.14191592723049
-0.356083860815694 0.222004405165003 2.10735839868982
0.19395827268471 0.169197857544045 2.18978916352722
-0.338715844021645 0.234522962329366 2.15666179632288
-0.303110744337391 0.267280287950328 2.16815069825634
0.134971090647416 0.223622236444414 2.23495698549827
0.166929217779214 0.215078431148433 2.19816358778493
-0.267768070872421 0.268935476218086 2.20718481515613
-0.219102043947683 0.29134360854464 2.20153032437479
-0.181921563331272 0.277692607674463 2.22695511175591
-0.140070266304994 0.286027318935159 2.21625345663069
-0.095998495411467 0.276365701346649 2.23061224996028
-0.0513659895042836 0.272080933443698 2.23720678030467
-0.00129974758945754 0.271402002732913 2.23899625246597
0.050553364048987 0.253806383147723 2.25631274211671
0.0959666995447977 0.254319704404989 2.23379759189665
-0.283822687027749 -0.0611759766428207 1.79287633577372
-0.23839226874181 -0.0627089816308106 1.77066926196668
-0.19070598440021 -0.0644282465333244 1.76118413893706
-0.138861509744366 -0.068469778112474 1.76435567865056
-0.0883800712160671 -0.0750500118526002 1.77121610706567
-0.0422871090306902 -0.084958605317179 1.77878111899766
0.00181639687578466 -0.0845456276991206 1.78285784136305
0.0488669064416336 -0.0743702708604605 1.78483193528177
0.0692129547059546 -0.109166849251955 1.80087344937086
0.101302571491392 -0.0736600399424341 1.7994747041399
0.137715961359215 -0.0905855362188684 1.82647279651937
-0.303717205622228 -0.0191108784420764 1.80059806402947
-0.278426066495247 0.0223783454771292 1.78613765994654
-0.261138254419608 -0.0210603890156138 1.77335710826414
0.148011298232154 -0.0496463200137203 1.82325083451139
0.174022498166909 -0.0827691384486488 1.85891523784133
0.177444393315396 -0.0354788611182874 1.85112918617118
-0.335809962808347 0.04567004339338 1.84986104794581
-0.315994452311873 0.0227738942436476 1.81621775787368
0.201523900126025 -0.0409276970887021 1.88901480250937
0.206867797395897 0.00147753441612406 1.90537775752951
-0.33255551878395 0.0837905836547725 1.87565615818538
0.212671667555402 0.0280764019305432 1.94828516242799
-0.342475594735661 0.10436886052106 1.91471760885387
0.207668819161638 0.0657968967220399 1.97525447177461
-0.355019453782671 0.115717844775841 1.95421182176656
0.210219259498389 0.0873654906057879 2.01715311625109
-0.343955355055489 0.155258382662789 1.96735960777661
0.205355207101589 0.124951159586795 2.04380619360684
-0.347830625870713 0.18418056459753 2.00343110475473
0.207703521548232 0.146333326103759 2.0854921365049
-0.3613976591559 0.20025140096412 2.05581556309227
0.200165999127136 0.182443120336273 2.11147131642338
-0.327626187161064 0.259124190864549 2.11875057309975
-0.339489646683593 0.24283987248483 2.07041541186008
-0.308551837627614 0.27589101859961 2.07620223148014
0.190641868992732 0.198437060367454 2.15550117847701
0.177435758145337 0.223718760079564 2.11159934255922
0.164121920967832 0.237091947888117 2.15665527055375
-0.259885368557406 0.293465691347588 2.1700309694075
-0.293621108359365 0.286490774739549 2.12877141556447
-0.251740734330594 0.308205735824895 2.12744911746188
0.131378133915588 0.254027983405214 2.19554233786977
0.099146487418551 0.285685985109445 2.15916803489109
0.0867379010456212 0.279192893141568 2.19808575550679
-0.212634358718668 0.31067596174222 2.16127076260839
-0.168708412049873 0.305258867346397 2.18117932937139
-0.115805472080698 0.302874776038252 2.18371364076747
-0.0713644692656186 0.298017499039466 2.19266583624943
-0.0275674379969626 0.294756714096288 2.19783884732681
0.0151711011692176 0.293850315704604 2.19735566423893
0.0482888019611537 0.279653037696163 2.22085812454433
-0.21227594040513 -0.0217287511008362 1.75747602381523
-0.160993302587727 -0.0257819712733604 1.75476964214922
-0.110245952203489 -0.0298472576239238 1.76068916221991
-0.0623965662159718 -0.0346883709079241 1.76651467737216
-0.0175865829535656 -0.0382545797407743 1.77190099926965
0.0264911992842273 -0.0341000266775366 1.77675574765061
0.0750696724379685 -0.0326767876637759 1.78462419970682
-0.234171842357918 0.0197535116194021 1.76551208860361
-0.206885798475191 0.0572437914067105 1.76925046214021
-0.18275662011296 0.0176379439761391 1.75633851372528
-0.131974055240789 0.0142527061398631 1.75968580364335
-0.0843187624590076 0.0131585605920217 1.76577661035534
-0.0370695843721286 0.00973081464989557 1.77146053372486
0.00769493749085298 0.0112164719194893 1.77766094845744
0.0546152024802431 0.0104640174345739 1.78390423914213
0.102737558217395 0.0117750647638727 1.79864235690551
0.149761654470895 0.0031150742723181 1.8262866459401
0.118561181319198 -0.0286391179514731 1.80206429559326
-0.296430819630705 0.0625804571703502 1.81373587043086
-0.264395049257681 0.101040057839374 1.81574663744524
-0.253802921504982 0.0627698198228565 1.78619132526909
0.125793992005515 0.0455557423541913 1.82273844996047
0.183595123265113 0.00653823318652567 1.86390445565038
0.16180721046857 0.0465952218271763 1.85470553169086
-0.304273273978064 0.0938131754430268 1.84441733358224
-0.27093007118515 0.132244791617758 1.85147610795948
0.192055791821349 0.0428866709860123 1.8981747339702
0.164251420341163 0.0818210727013394 1.88849153993821
-0.308910382721002 0.126807383480142 1.88368498956664
-0.277972732119064 0.16289386517295 1.88908788353812
0.19099536455593 0.0735785831793567 1.93101011528261
0.162283653258074 0.114344272526054 1.92356565751611
-0.320061746938385 0.15157243105922 1.92362310790611
-0.282850685023459 0.191274745818197 1.92274833768335
0.189551357714397 0.10647711007207 1.96769708059089
0.161214050509162 0.14589659466467 1.95889501487823
-0.316946035802988 0.190028606859878 1.95825380776779
-0.280939750985659 0.225332169242815 1.95655807732711
0.188823943690741 0.135099786320531 2.00098527288506
0.16050653809782 0.176790704509835 1.99403423238606
-0.314187206773744 0.22502634997438 1.99026791967611
-0.280373980023932 0.26117190410115 1.99505471522581
0.187723782401218 0.167449240355188 2.03792809016795
0.159253047688725 0.207878288428556 2.02855083780853
-0.337819970785257 0.224568538622523 2.02662274169386
-0.308537449792899 0.261372472715316 2.03118714533788
0.185979187752831 0.196504519911928 2.07068296927614
0.155979026666313 0.236357479054127 2.06488847081699
-0.275348297949383 0.299113662594802 2.08718953413861
-0.270189425285346 0.291282427596335 2.03907989957094
-0.237732184704321 0.312635188165656 2.07311926347414
0.133665478574882 0.266798102243963 2.14877147101599
0.147438686833293 0.25646529553026 2.10690179568064
0.107532769144203 0.284016436656603 2.10718268894839
-0.213290753967483 0.319633870062142 2.1130942569982
-0.187637788925475 0.320895151453194 2.07735498407881
-0.172804114334311 0.319701066022753 2.13176033738259
-0.143744741398868 0.319561500242311 2.09088536689952
-0.130367041055864 0.31580582366603 2.14106432365419
-0.0996452029029785 0.316244479567231 2.09616445775786
-0.0835832118978019 0.312753176761134 2.14395787911128
-0.0548016787959609 0.312745674196353 2.0996954980635
-0.0393063520471523 0.30928346929042 2.15010530278576
-0.0112417180153893 0.309361002900884 2.10349677456182
0.00520494839108034 0.306455945796167 2.15220744768725
0.0329498845530111 0.30623218737847 2.11149397818954
0.0508683021985812 0.299591935912079 2.16723574826856
0.0706620010875847 0.299617004380535 2.12411527627597
-0.176116069221041 0.0903439826920227 1.7825998298594
-0.15359737309459 0.0560065456592756 1.76738060321063
-0.107893139890229 0.0584076019219812 1.77502980166699
-0.059171268077725 0.0542770799493376 1.78068124363514
-0.0142888725494107 0.0560836157810317 1.78823166308897
0.0310878851964463 0.0553129880348252 1.79484495934353
0.07709965192054 0.0513154909028938 1.8021728859676
-0.221182568818774 0.0985824174572486 1.7943008744122
-0.17862086421904 0.125474401011743 1.80955064319962
-0.132583714567792 0.100365157885002 1.79400598293988
-0.0816478735645685 0.0934684021072114 1.79798389332548
-0.0373630822827973 0.0967461308802356 1.80798854310548
0.00714570487134104 0.0967310026225155 1.81585025298333
0.0523229562234766 0.0938978647459949 1.82171637913596
0.0957401403978478 0.0841446760847419 1.82887056338762
0.130331846922628 0.0867740430233859 1.85401791120415
-0.226174390312554 0.132799893779926 1.82651123413204
-0.186340661970221 0.157593698332962 1.84419416124084
-0.14043230186559 0.141471321963313 1.83072360781126
-0.101221662082451 0.125676984702722 1.82146799825297
-0.0584703566972315 0.130897489447809 1.83570610318538
-0.0147857955495111 0.131570752605045 1.84528986148013
0.0333206294562056 0.127935893783924 1.85103794851147
0.0831562880509835 0.120201651480289 1.85714279072183
0.127880506215703 0.11810895213313 1.8860338599301
-0.233087293524731 0.163732355887534 1.8622289627572
-0.188087294019375 0.188485030052695 1.87777062071867
-0.142033660158114 0.173976994649129 1.86609061853965
-0.0954239742879858 0.157802682002761 1.85776718370146
-0.0485290233385667 0.164459082608336 1.87456945234084
0.00165791242545439 0.160591530248943 1.88048325208089
0.0494546908860004 0.156536269380378 1.88571959881132
0.0915459354792112 0.148724630698916 1.89335178923772
0.126664226112787 0.15137055419956 1.92277203022593
-0.236629134691585 0.193770436352023 1.89568841146989
-0.190668266616692 0.217868353310711 1.90977830891645
-0.141713437039312 0.206748884604474 1.9021386889167
-0.0991399316937453 0.189313411739219 1.89161299190624
-0.0613193586729221 0.197846232530817 1.90863869396857
-0.0166087449310666 0.19209586927002 1.91137631578238
0.0313934662490129 0.188568922763547 1.9172214049317
0.0804378254163312 0.182263078872812 1.92493116962933
0.125573377289257 0.181235113183635 1.95576314270385
-0.239905787978453 0.222982904989854 1.92818031354289
-0.19706333383017 0.24690361365976 1.94179797502649
-0.147057842568647 0.237680737026587 1.93501889121648
-0.097824517489267 0.225845956613859 1.9319925727913
-0.0462976824114627 0.226073409697842 1.94267333563668
0.00186638108949319 0.221533689384026 1.94743977839289
0.0482676174703205 0.218171898759314 1.95320490988542
0.0897543997506956 0.211022117349193 1.96200437502873
0.124718211983111 0.213951346786506 1.99224120659356
-0.244605081923239 0.254404176768061 1.9637084185481
-0.206797833298049 0.276377235681688 1.97562412093492
-0.159812090541364 0.270093837075552 1.96809471926154
-0.113201651074124 0.260279545967379 1.96668733846203
-0.068551153871788 0.255968839939045 1.97099293924722
-0.0195840019393191 0.253850139726972 1.97858045478486
0.029218792260283 0.250338285648919 1.9846038303539
0.0783009699942761 0.244685224131402 1.99341094181952
0.123091753529752 0.243242816891954 2.0250267917944
-0.240447000324735 0.287613290232137 2.0041506312639
-0.183923263966233 0.297827217933124 2.00497338881841
-0.135183415698937 0.291795950458709 2.00321752079004
-0.0905451426068046 0.287172215827403 2.00643999800664
-0.0456764306219018 0.283201281551132 2.01083574570065
0.000692299044874209 0.28029704099559 2.01735405728303
0.0457603259916102 0.277458105607668 2.02382829314462
0.0864431067254448 0.270670614227864 2.03361463743306
0.118266964721052 0.268840464832684 2.06689032988966
-0.215578121478279 0.308718023911482 2.03617673963261
-0.161432352873852 0.312270839903945 2.04199286099993
-0.11566600210895 0.308923721178274 2.0477846193599
-0.0705996466501572 0.305072229399362 2.05171003573765
-0.0248410172074991 0.301177548339559 2.05578396614598
0.022296782371034 0.298112301914329 2.06292945201096
0.0692199244075603 0.292937950149927 2.07288306372924
3 0 1 2
3 0 2 4
3 3 0 4
3 3 4 6
3 5 3 6
3 5 6 8
3 7 5 8
3 7 8 10
3 9 7 10
3 9 10 12
3 11 9 12
3 13 11 14
3 14 11 12
3 13 14 15
3 16 17 18
3 16 18 1
3 0 19 1
3 19 16 1
3 0 3 20
3 19 0 20
3 3 5 21
3 20 3 21
3 5 7 22
3 21 5 22
3 7 9 23
3 22 7 23
3 9 11 24
3 23 9 24
3 24 11 25
3 25 11 13
3 13 15 26
3 27 13 26
3 25 13 27
3 27 26 28
3 17 16 30
3 30 16 29
3 29 19 31
3 29 16 19
3 31 20 32
3 31 19 20
3 32 21 33
3 32 20 21
3 21 22 33
3 33 22 34
3 22 23 34
3 34 23 35
3 23 24 35
3 35 24 36
3 24 25 36
3 36 25 37
3 37 27 38
3 37 25 27
3 38 28 39
3 38 27 28
3 30 40 41
3 30 29 40
3 29 31 42
3 40 29 42
3 31 32 43
3 42 31 43
3 32 33 44
3 43 32 44
3 33 34 45
3 44 33 45
3 34 35 46
3 45 34 46
3 35 36 47
3 46 35 47
3 36 37 47
3 47 37 48
3 37 38 48
3 48 38 49
3 49 39 50
3 49 38 39
3 40 51 52
3 41 40 52
3 51 42 53
3 51 40 42
3 42 43 53
3 53 43 54
3 43 44 54
3 54 44 55
3 44 45 55
3 55 45 56
3 45 46 56
3 56 46 57
3 46 47 58
3 57 46 58
3 47 48 59
3 58 47 59
3 48 49 60
3 59 48 60
3 49 50 61
3 60 49 61
3 51 62 63
3 52 51 63
3 51 53 64
3 62 51 64
3 53 54 65
3 64 53 65
3 54 55 66
3 65 54 66
3 55 56 67
3 66 55 67
3 56 57 67
3 67 57 68
3 57 58 69
3 68 57 69
3 58 59 69
3 69 59 70
3 59 60 70
3 70 60 71
3 71 61 72
3 71 60 61
3 62 73 74
3 63 62 74
3 62 64 75
3 73 62 75
3 64 65 75
3 75 65 76
3 65 66 76
3 76 66 77
3 66 67 77
3 77 67 78
3 67 68 78
3 78 68 79
3 79 69 80
3 79 68 69
3 80 70 81
3 80 69 70
3 81 71 82
3 81 70 71
3 82 72 83
3 82 71 72
3 74 73 85
3 85 73 84
3 84 73 86
3 86 73 75
3 75 76 86
3 86 76 87
3 76 77 88
3 87 76 88
3 77 78 89
3 88 77 89
3 78 79 90
3 89 78 90
3 79 80 91
3 90 79 91
3 80 81 92
3 91 80 92
3 81 82 93
3 92 81 93
3 93 83 94
3 93 82 83
3 84 95 85
3 84 86 96
3 97 84 96
3 95 84 97
3 96 87 98
3 96 86 87
3 87 88 98
3 98 88 99
3 88 89 99
3 99 89 100
3 89 90 100
3 100 90 101
3 101 91 102
3 101 90 91
3 102 92 103
3 102 91 92
3 92 93 103
3 105 103 104
3 103 93 104
3 93 94 104
3 96 106 97
3 96 98 107
3 106 96 107
3 98 99 108
3 107 98 108
3 99 100 109
3 108 99 109
3 100 101 110
3 109 100 110
3 101 102 111
3 110 101 111
3 111 102 112
3 112 102 103
3 103 105 112
3 117 114 115
3 116 113 117
3 117 113 114
3 116 117 119
3 118 116 119
3 118 119 121
3 120 118 121
3 120 121 123
3 122 120 123
3 122 123 125
3 124 122 125
3 124 125 127
3 126 124 127
3 126 127 128
3 129 130 131
3 114 129 131
3 114 113 129
3 113 2 129
3 129 2 1
3 4 113 116
3 4 2 113
3 6 116 118
3 6 4 116
3 8 118 120
3 8 6 118
3 10 120 122
3 10 8 120
3 12 122 124
3 12 10 122
3 14 124 126
3 14 12 124
3 133 126 128
3 15 14 126
3 15 126 133
3 132 15 133
3 132 133 134
3 135 136 137
3 137 17 135
3 137 18 17
3 18 137 130
3 129 18 130
3 18 129 1
3 15 132 26
3 139 132 134
3 139 138 132
3 138 28 26
3 132 138 26
3 138 139 140
3 136 135 142
3 142 135 141
3 17 30 135
3 135 30 141
3 143 39 28
3 138 143 28
3 143 140 144
3 143 138 140
3 141 145 146
3 142 141 146
3 41 145 141
3 30 41 141
3 147 39 143
3 147 50 39
3 147 144 148
3 147 143 144
3 145 149 150
3 146 145 150
3 52 149 145
3 41 52 145
3 151 50 147
3 151 155 50
3 151 148 152
3 151 147 148
3 149 153 154
3 150 149 154
3 63 153 149
3 52 63 149
3 155 61 50
3 155 72 61
3 155 151 156
3 156 151 152
3 154 157 158
3 154 153 157
3 74 157 153
3 63 74 153
3 159 72 155
3 159 83 72
3 159 156 160
3 159 155 156
3 158 157 162
3 162 157 161
3 74 85 161
3 157 74 161
3 163 83 159
3 163 94 83
3 163 160 164
3 163 159 160
3 161 165 162
3 165 95 166
3 165 161 95
3 161 85 95
3 165 166 167
3 95 97 166
3 105 104 168
3 170 94 163
3 170 168 94
3 169 168 170
3 94 168 104
3 163 164 170
3 166 171 167
3 173 171 172
3 172 171 106
3 171 97 106
3 171 166 97
3 172 107 174
3 172 106 107
3 174 108 175
3 174 107 108
3 175 109 176
3 175 108 109
3 176 110 177
3 176 109 110
3 177 111 178
3 177 110 111
3 178 112 180
3 178 111 112
3 181 105 168
3 181 180 105
3 179 178 180
3 180 112 105
3 168 169 181
3 172 182 173
3 182 172 183
3 183 172 174
3 174 175 184
3 183 174 184
3 175 176 185
3 184 175 185
3 176 177 186
3 185 176 186
3 177 178 187
3 186 177 187
3 187 179 188
3 187 178 179
3 179 180 229
3 189 190 191
3 114 131 191
3 115 114 191
3 115 191 192
3 115 192 193
3 117 115 193
3 119 193 194
3 119 117 193
3 119 194 121
3 121 194 195
3 121 195 123
3 123 195 196
3 123 196 125
3 125 196 197
3 127 197 198
3 127 125 197
3 128 198 199
3 200 128 199
3 128 127 198
3 200 199 201
3 202 203 204
3 131 130 189
3 190 189 204
3 189 130 202
3 189 202 204
3 131 189 191
3 128 200 133
3 134 200 205
3 206 205 201
3 134 133 200
3 205 200 201
3 205 206 207
3 136 208 203
3 202 137 136
3 202 136 203
3 137 202 130
3 134 205 139
3 139 205 207
3 140 139 207
3 211 207 209
3 136 142 208
3 208 142 210
3 211 140 207
3 211 144 140
3 146 212 210
3 142 146 210
3 148 144 213
3 213 144 211
3 150 214 212
3 146 150 212
3 215 148 213
3 215 152 148
3 154 216 150
3 150 216 214
3 219 152 217
3 217 152 215
3 158 218 216
3 154 158 216
3 219 156 152
3 219 160 156
3 158 220 218
3 158 162 220
3 221 160 219
3 221 164 160
3 162 165 222
3 223 220 222
3 220 162 222
3 165 167 222
3 169 170 224
3 225 164 221
3 224 170 164
3 224 164 225
3 222 226 223
3 167 171 227
3 226 167 227
3 226 227 228
3 226 222 167
3 171 173 227
3 180 181 229
3 181 169 230
3 231 169 224
3 230 169 231
3 230 229 181
3 224 225 271
3 227 232 228
3 232 182 233
3 232 173 182
3 227 173 232
3 182 183 234
3 233 182 234
3 183 184 234
3 234 184 235
3 184 185 235
3 235 185 236
3 185 186 236
3 236 186 237
3 186 187 237
3 237 187 238
3 238 188 239
3 238 187 188
3 188 179 229
3 240 239 188
3 240 188 229
3 229 230 240
3 191 190 242
3 242 190 241
3 192 242 243
3 192 191 242
3 192 243 244
3 193 192 244
3 194 244 245
3 194 193 244
3 194 245 246
3 195 194 246
3 195 246 247
3 196 195 247
3 196 247 248
3 197 196 248
3 197 248 249
3 198 197 249
3 199 198 249
3 250 199 249
3 201 199 251
3 251 199 250
3 204 252 253
3 204 203 252
3 190 253 241
3 190 204 253
3 206 251 254
3 206 201 251
3 207 206 255
3 255 206 254
3 203 256 252
3 203 208 256
3 257 209 255
3 255 209 207
3 210 258 208
3 208 258 256
3 211 209 259
3 259 209 257
3 212 260 210
3 210 260 258
3 213 211 259
3 261 213 259
3 214 262 260
3 212 214 260
3 215 213 261
3 263 215 261
3 216 264 214
3 214 264 262
3 217 215 263
3 265 217 263
3 218 266 264
3 216 218 264
3 219 217 265
3 267 219 265
3 218 268 266
3 218 220 268
3 221 219 267
3 269 221 267
3 223 270 268
3 220 223 268
3 225 221 269
3 271 225 269
3 223 226 272
3 270 223 272
3 272 228 273
3 272 226 228
3 274 231 275
3 274 230 231
3 275 231 271
3 271 231 224
3 273 228 276
3 276 228 232
3 276 233 277
3 276 232 233
3 233 234 278
3 277 233 278
3 234 235 279
3 278 234 279
3 235 236 280
3 279 235 280
3 236 237 281
3 280 236 281
3 237 238 282
3 281 237 282
3 238 239 283
3 282 238 283
3 327 239 284
3 284 239 240
3 240 230 274
3 284 240 274
3 241 285 286
3 242 241 286
3 242 286 243
3 243 286 287
3 243 287 288
3 244 243 288
3 245 288 289
3 245 244 288
3 245 289 246
3 246 289 290
3 246 290 247
3 247 290 291
3 247 291 248
3 248 291 292
3 248 292 293
3 249 248 293
3 249 293 250
3 250 293 294
3 250 294 295
3 251 250 295
3 252 296 297
3 253 252 297
3 241 297 285
3 241 253 297
3 254 295 298
3 254 251 295
3 254 298 299
3 255 254 299
3 256 300 252
3 252 300 296
3 257 255 299
3 301 257 299
3 258 302 300
3 256 258 300
3 259 257 303
3 303 257 301
3 260 304 258
3 258 304 302
3 261 259 303
3 305 261 303
3 262 306 304
3 260 262 304
3 263 261 305
3 307 263 305
3 264 308 262
3 262 308 306
3 265 263 307
3 309 265 307
3 266 310 308
3 264 266 308
3 267 265 309
3 311 267 309
3 266 312 310
3 266 268 312
3 269 267 311
3 313 269 311
3 270 314 312
3 268 270 312
3 271 269 315
3 315 269 313
3 270 272 316
3 314 270 316
3 316 273 317
3 316 272 273
3 318 275 319
3 318 274 275
3 275 271 315
3 319 275 315
3 273 276 320
3 317 273 320
3 276 277 320
3 320 277 321
3 277 278 322
3 321 277 322
3 322 279 323
3 322 278 279
3 279 280 323
3 323 280 324
3 280 281 324
3 324 281 325
3 281 282 325
3 325 282 326
3 282 283 326
3 326 283 327
3 283 239 327
3 327 284 328
3 284 274 318
3 328 284 318
3 285 329 330
3 286 285 330
3 286 330 287
3 287 330 331
3 287 331 332
3 288 287 332
3 288 332 289
3 289 332 333
3 289 333 334
3 290 289 334
3 290 334 335
3 291 290 335
3 291 335 292
3 292 335 336
3 292 336 337
3 293 292 337
3 293 337 294
3 294 337 338
3 294 338 339
3 295 294 339
3 296 340 341
3 297 296 341
3 285 341 329
3 285 297 341
3 298 339 342
3 298 295 339
3 298 342 343
3 299 298 343
3 300 344 296
3 296 344 340
3 301 299 343
3 345 301 343
3 302 346 344
3 300 302 344
3 303 301 347
3 347 301 345
3 304 348 302
3 302 348 346
3 305 303 347
3 349 305 347
3 306 350 348
3 304 306 348
3 307 305 351
3 351 305 349
3 308 352 306
3 306 352 350
3 309 307 353
3 353 307 351
3 310 354 352
3 308 310 352
3 311 309 355
3 355 309 353
3 312 356 310
3 310 356 354
3 313 311 355
3 357 313 355
3 314 358 356
3 312 314 356
3 315 313 359
3 359 313 357
3 314 316 360
3 358 314 360
3 360 317 361
3 360 316 317
3 362 319 363
3 362 318 319
3 319 315 359
3 363 319 359
3 317 320 364
3 361 317 364
3 320 321 364
3 364 321 365
3 321 322 366
3 365 321 366
3 322 323 366
3 366 323 367
3 323 324 368
3 367 323 368
3 324 325 369
3 368 324 369
3 325 326 370
3 369 325 370
3 326 327 371
3 370 326 371
3 327 328 371
3 371 328 372
3 328 318 362
3 372 328 362
3 329 373 374
3 330 329 374
3 330 374 331
3 331 374 375
3 331 375 376
3 332 331 376
3 332 376 333
3 333 376 377
3 333 377 378
3 334 333 378
3 334 378 379
3 335 334 379
3 335 379 336
3 336 379 380
3 336 380 381
3 337 336 381
3 337 381 338
3 338 381 382
3 338 382 383
3 339 338 383
3 340 384 385
3 341 340 385
3 329 385 373
3 329 341 385
3 342 383 386
3 342 339 383
3 342 386 387
3 343 342 387
3 344 388 340
3 340 388 384
3 345 343 387
3 389 345 387
3 346 390 388
3 344 346 388
3 347 345 391
3 391 345 389
3 348 392 346
3 346 392 390
3 349 347 391
3 393 349 391
3 350 394 348
3 348 394 392
3 351 349 395
3 395 349 393
3 352 396 350
3 350 396 394
3 353 351 395
3 397 353 395
3 354 398 396
3 352 354 396
3 355 353 399
3 399 353 397
3 356 400 354
3 354 400 398
3 357 355 399
3 401 357 399
3 358 402 400
3 356 358 400
3 359 357 403
3 403 357 401
3 358 360 404
3 402 358 404
3 404 361 405
3 404 360 361
3 406 363 407
3 406 362 363
3 363 359 403
3 407 363 403
3 361 364 408
3 405 361 408
3 364 365 408
3 408 365 409
3 365 366 410
3 409 365 410
3 366 367 410
3 410 367 411
3 367 368 412
3 411 367 412
3 368 369 412
3 412 369 413
3 369 370 413
3 413 370 414
3 370 371 415
3 414 370 415
3 371 372 415
3 415 372 416
3 372 362 406
3 416 372 406
3 373 417 418
3 374 373 418
3 374 418 375
3 375 418 419
3 375 419 420
3 376 375 420
3 376 420 377
3 377 420 421
3 377 421 422
3 378 377 422
3 378 422 423
3 379 378 423
3 380 423 424
3 380 379 423
3 380 424 425
3 381 380 425
3 382 425 426
3 382 381 425
3 382 426 427
3 383 382 427
3 384 428 429
3 385 384 429
3 373 429 417
3 373 385 429
3 386 427 430
3 386 383 427
3 386 430 431
3 387 386 431
3 384 432 428
3 384 388 432
3 389 387 431
3 433 389 431
3 390 434 432
3 388 390 432
3 435 389 433
3 435 391 389
3 390 436 434
3 390 392 436
3 393 391 435
3 437 393 435
3 394 438 436
3 392 394 436
3 395 393 439
3 439 393 437
3 396 440 438
3 394 396 438
3 397 395 439
3 441 397 439
3 398 442 440
3 396 398 440
3 399 397 443
3 443 397 441
3 400 444 398
3 398 444 442
3 401 399 443
3 445 401 443
3 402 446 444
3 400 402 444
3 403 401 447
3 447 401 445
3 402 404 448
3 446 402 448
3 448 405 449
3 448 404 405
3 450 407 451
3 450 406 407
3 407 403 447
3 451 407 447
3 405 408 452
3 449 405 452
3 408 409 452
3 452 409 453
3 409 410 454
3 453 409 454
3 410 411 454
3 454 411 455
3 411 412 456
3 455 411 456
3 412 413 456
3 456 413 457
3 457 414 458
3 457 413 414
3 414 415 459
3 458 414 459
3 415 416 459
3 459 416 460
3 416 406 450
3 460 416 450
3 418 461 462
3 418 417 461
3 419 462 463
3 419 418 462
3 419 463 464
3 420 419 464
3 420 464 421
3 421 464 465
3 421 465 466
3 422 421 466
3 422 466 467
3 423 422 467
3 424 467 468
3 424 423 467
3 424 468 469
3 425 424 469
3 426 469 470
3 426 425 469
3 427 426 471
3 471 426 470
3 429 428 473
3 473 428 472
3 417 473 505
3 417 429 473
3 430 427 471
3 520 430 471
3 431 474 475
3 431 430 474
3 428 476 472
3 428 432 476
3 433 431 475
3 477 433 475
3 434 478 476
3 432 434 476
3 479 433 477
3 479 435 433
3 434 480 478
3 434 436 480
3 437 435 479
3 481 437 479
3 438 482 436
3 436 482 480
3 439 437 483
3 483 437 481
3 440 484 482
3 438 440 482
3 441 439 483
3 485 441 483
3 442 486 440
3 440 486 484
3 443 441 487
3 487 441 485
3 444 488 442
3 442 488 486
3 445 443 487
3 489 445 487
3 444 446 488
3 488 446 490
3 491 445 489
3 491 447 445
3 490 446 492
3 492 446 448
3 492 449 493
3 492 448 449
3 494 451 495
3 494 450 451
3 451 447 491
3 495 451 491
3 449 452 496
3 493 449 496
3 496 453 497
3 496 452 453
3 453 454 498
3 497 453 498
3 498 455 499
3 498 454 455
3 455 456 500
3 499 455 500
3 456 457 501
3 500 456 501
3 457 458 502
3 501 457 502
3 458 459 503
3 502 458 503
3 503 460 504
3 503 459 460
3 504 460 494
3 494 460 450
3 461 505 506
3 462 461 506
3 507 463 462
3 507 462 506
3 465 463 508
3 508 463 507
3 464 463 465
3 465 508 509
3 465 509 466
3 466 509 510
3 466 510 467
3 467 510 511
3 467 511 468
3 468 511 512
3 468 512 513
3 469 468 513
3 469 513 470
3 515 470 514
3 470 513 514
3 470 515 471
3 472 516 473
3 518 516 517
3 518 505 516
3 461 417 505
3 505 473 516
3 505 518 506
3 515 514 519
3 474 430 520
3 521 520 519
3 520 471 515
3 520 515 519
3 474 520 524
3 476 522 472
3 516 472 523
3 472 522 523
3 516 523 517
3 520 521 524
3 477 475 524
3 524 475 474
3 525 477 524
3 478 526 522
3 476 478 522
3 527 477 525
3 527 479 477
3 478 528 526
3 478 480 528
3 481 479 527
3 529 481 527
3 482 530 480
3 480 530 528
3 483 481 531
3 531 481 529
3 484 532 530
3 482 484 530
3 485 483 531
3 533 485 531
3 486 534 484
3 484 534 532
3 535 485 533
3 535 487 485
3 486 536 534
3 486 488 536
3 537 489 535
3 535 489 487
3 490 538 539
3 536 490 539
3 488 490 536
3 538 540 539
3 541 542 543
3 541 489 537
3 542 541 537
3 541 491 489
3 490 492 538
3 545 493 544
3 538 492 493
3 538 493 545
3 540 538 545
3 544 546 545
3 547 548 549
3 543 495 541
3 547 494 495
3 547 495 543
3 608 547 543
3 495 491 541
3 493 496 544
3 544 497 550
3 546 544 550
3 544 496 497
3 550 497 551
3 551 497 498
3 498 499 551
3 551 499 552
3 499 500 552
3 552 500 553
3 500 501 553
3 553 501 554
3 554 502 555
3 554 501 502
3 502 503 556
3 555 502 556
3 503 504 556
3 549 504 547
3 556 504 549
3 504 494 547
3 506 557 507
3 507 557 558
3 508 507 558
3 508 558 559
3 509 508 559
3 509 559 560
3 510 509 560
3 510 560 561
3 511 510 561
3 511 561 562
3 512 511 562
3 514 512 563
3 563 512 562
3 513 512 514
3 517 564 518
3 518 564 557
3 566 564 565
3 557 564 566
3 557 506 518
3 558 566 567
3 558 557 566
3 559 567 568
3 559 558 567
3 560 568 569
3 560 559 568
3 561 569 570
3 561 560 569
3 562 570 571
3 562 561 570
3 563 562 571
3 572 563 571
3 574 514 563
3 572 574 563
3 573 519 574
3 574 519 514
3 519 573 521
3 522 575 523
3 577 575 576
3 577 517 575
3 564 517 577
3 575 517 523
3 564 577 565
3 573 574 572
3 521 573 579
3 580 573 578
3 579 573 580
3 579 524 521
3 524 579 525
3 522 581 575
3 522 526 581
3 576 581 582
3 576 575 581
3 583 580 584
3 583 579 580
3 583 525 579
3 583 527 525
3 526 585 581
3 526 528 585
3 582 585 586
3 582 581 585
3 587 584 588
3 587 583 584
3 587 527 583
3 587 529 527
3 528 589 585
3 528 530 589
3 586 589 590
3 586 585 589
3 591 588 592
3 591 587 588
3 591 529 587
3 591 531 529
3 532 593 589
3 530 532 589
3 590 593 594
3 590 589 593
3 595 592 596
3 595 591 592
3 595 531 591
3 595 533 531
3 534 597 593
3 532 534 593
3 594 597 598
3 594 593 597
3 599 596 600
3 599 595 596
3 599 533 595
3 599 535 533
3 534 601 597
3 534 536 601
3 602 597 601
3 602 598 597
3 603 599 600
3 604 603 600
3 603 535 599
3 603 537 535
3 536 539 601
3 606 540 605
3 606 602 540
3 602 601 539
3 540 602 539
3 605 607 606
3 608 609 610
3 608 543 609
3 604 542 603
3 609 543 542
3 609 542 604
3 542 537 603
3 540 545 605
3 605 546 607
3 612 607 611
3 605 545 546
3 607 546 611
3 612 613 614
3 612 611 613
3 614 615 616
3 614 613 615
3 616 617 618
3 616 615 617
3 618 619 620
3 618 617 619
3 620 621 622
3 620 619 621
3 622 623 624
3 622 621 623
3 610 548 608
3 624 623 548
3 624 548 610
3 548 623 549
3 548 547 608
3 546 550 611
3 611 550 613
3 613 550 551
3 551 552 615
3 613 551 615
3 552 553 617
3 615 552 617
3 553 554 619
3 617 553 619
3 554 555 621
3 619 554 621
3 621 555 623
3 623 555 556
3 556 549 623
3 565 625 626
3 567 566 626
3 626 566 565
3 567 626 627
3 568 567 627
3 568 627 628
3 569 568 628
3 569 628 629
3 570 569 629
3 570 629 630
3 571 570 630
3 572 571 631
3 631 571 630
3 572 631 578
3 576 632 577
3 625 632 633
3 565 577 632
3 565 632 625
3 625 633 634
3 626 625 634
3 626 634 627
3 627 634 635
3 627 635 628
3 628 635 636
3 628 636 629
3 629 636 637
3 629 637 630
3 630 637 638
3 631 638 639
3 631 630 638
3 640 578 639
3 578 573 572
3 578 631 639
3 578 640 580
3 576 641 632
3 576 582 641
3 633 641 642
3 633 632 641
3 633 642 643
3 634 633 643
3 634 643 644
3 635 634 644
3 635 644 645
3 636 635 645
3 636 645 646
3 637 636 646
3 637 646 647
3 638 637 647
3 638 647 648
3 639 638 648
3 640 648 649
3 640 639 648
3 584 580 640
3 649 584 640
3 582 650 641
3 582 586 650
3 642 650 651
3 642 641 650
3 642 651 652
3 643 642 652
3 643 652 653
3 644 643 653
3 644 653 645
3 645 653 654
3 645 654 646
3 646 654 655
3 646 655 647
3 647 655 656
3 647 656 648
3 648 656 657
3 648 657 649
3 649 657 658
3 588 584 649
3 658 588 649
3 586 659 650
3 586 590 659
3 650 659 651
3 651 659 660
3 651 660 661
3 652 651 661
3 652 661 662
3 653 652 662
3 653 662 654
3 654 662 663
3 654 663 664
3 655 654 664
3 655 664 665
3 656 655 665
3 656 665 666
3 657 656 666
3 657 666 658
3 658 666 667
3 592 588 658
3 667 592 658
3 590 668 659
3 590 594 668
3 660 668 669
3 660 659 668
3 660 669 670
3 661 660 670
3 661 670 671
3 662 661 671
3 662 671 663
3 663 671 672
3 663 672 664
3 664 672 673
3 664 673 665
3 665 673 674
3 665 674 666
3 666 674 675
3 666 675 667
3 667 675 676
3 596 592 667
3 676 596 667
3 594 677 668
3 594 598 677
3 668 677 669
3 669 677 678
3 669 678 679
3 670 669 679
3 670 679 680
3 671 670 680
3 671 680 681
3 672 671 681
3 672 681 682
3 673 672 682
3 673 682 683
3 674 673 683
3 674 683 684
3 675 674 684
3 676 684 685
3 676 675 684
3 600 596 676
3 685 600 676
3 598 686 677
3 598 602 606
3 678 686 687
3 678 677 686
3 678 687 679
3 679 687 688
3 679 688 680
3 680 688 689
3 680 689 681
3 681 689 690
3 681 690 682
3 682 690 691
3 683 691 692
3 683 682 691
3 684 692 693
3 684 683 692
3 685 693 694
3 685 684 693
3 694 604 685
3 685 604 600
3 598 606 686
3 606 607 695
3 686 606 695
3 686 695 687
3 688 687 696
3 696 687 695
3 688 696 697
3 689 688 697
3 689 697 698
3 690 689 698
3 690 698 699
3 691 690 699
3 691 699 700
3 692 691 700
3 692 700 701
3 693 692 701
3 610 609 694
3 701 610 694
3 701 694 693
3 609 604 694
3 607 612 695
3 695 612 696
3 696 612 614
3 614 616 697
3 696 614 697
3 616 618 698
3 697 616 698
3 618 620 699
3 698 618 699
3 620 622 700
3 699 620 700
3 622 624 701
3 700 622 701
3 624 610 701
