OFF
702 1400 0
-0.251232652046198 -0.351319126851435 2.12343054233601
-0.296812441412703 -0.337021238115653 2.1065182476069
-0.268584560071231 -0.354594487928515 2.07793972682666
-0.204288045234662 -0.357730806216672 2.12766103651845
-0.222532384404753 -0.365171763940828 2.08247701120646
-0.157427754335529 -0.362110062511753 2.13044329857487
-0.17609704025806 -0.369073996922192 2.08426518673961
-0.112001649077917 -0.365921917109399 2.13446501246957
-0.130728863838563 -0.372760875429715 2.08576935436331
-0.0670617912216484 -0.369563512264149 2.13885456353856
-0.0859248459887037 -0.376201342781889 2.09009041382924
-0.0195153273462967 -0.372575729622812 2.14618187611099
-0.0400874229803808 -0.379495786530604 2.09827430656697
0.0285662362107677 -0.368149579408035 2.15465964475516
0.00726472333172469 -0.38111648088347 2.10707260330279
0.0537201600609224 -0.372286614176972 2.11622731478076
-0.319615051764012 -0.310312293707515 2.13637060822997
-0.349563574896112 -0.291708493515269 2.11001416608363
-0.328172156381295 -0.319850088686945 2.07986194984473
-0.278981600782899 -0.326986594435843 2.15506613054379
-0.232177774778517 -0.336215940996632 2.16643736070646
-0.184423358160951 -0.341256542489055 2.1698612641967
-0.137606294175008 -0.345016661886969 2.17489427789125
-0.0923441481731795 -0.348268833590069 2.18040981018857
-0.0479921352298949 -0.353332293901549 2.18257500453384
0.000679132144985398 -0.354051467912658 2.18967320077406
0.0743879324633951 -0.351880550760647 2.16112867817619
0.0457740880147289 -0.341925147911162 2.19799832349551
0.0916767265733225 -0.321220612916456 2.19673199178062
-0.306761400123469 -0.291723359342785 2.1790139874076
-0.347141726729806 -0.270095217226695 2.15229431089811
-0.260631360087712 -0.305702557500736 2.19568326667097
-0.210611488767125 -0.312008068504372 2.20327600452071
-0.16296196728646 -0.31615389166018 2.20814781917486
-0.115301821009027 -0.318512070229202 2.21508972342732
-0.0705584248099291 -0.321146370938427 2.22111945031533
-0.028233365504686 -0.330003637930728 2.21946416748912
0.0130545959460922 -0.321952430473736 2.23046946860829
0.0585899321542931 -0.308194471272788 2.23253757233661
0.103179261645957 -0.285121603573946 2.22717546065971
-0.325303504642461 -0.255874082174153 2.20176935986101
-0.358710116258423 -0.233248050490551 2.17660692310315
-0.284152525503839 -0.271561475657612 2.22197668001059
-0.235021920179601 -0.282307476474046 2.23247295539414
-0.186220561067938 -0.284423643996508 2.24011898670923
-0.138716233351383 -0.288968626766158 2.24450065406557
-0.0871881716647685 -0.289828404184449 2.25395881533569
-0.0322496358494235 -0.298736503612038 2.2548025754048
0.0181431188656592 -0.29146962856945 2.2644044894505
0.068471824442901 -0.275402182153283 2.2638454209548
0.112962478556376 -0.248468856768058 2.25732006355089
-0.309505935765701 -0.234023793871793 2.24556603683184
-0.350210551957913 -0.214845172912002 2.21561668984855
-0.26008234098142 -0.251556092007524 2.25937453199529
-0.212628542300185 -0.253977738905047 2.2699669131263
-0.167057106277474 -0.255014043155624 2.27801307086327
-0.123040686511487 -0.262446019056536 2.27834867806332
-0.0895892508370124 -0.251272261149541 2.29805386932228
-0.0546108256607004 -0.269446927551957 2.28413449565297
-0.0123018061731138 -0.266146378225235 2.29506930695179
0.0355433078059684 -0.259231526887283 2.29667181383247
0.0834079087851507 -0.2397532598916 2.29345079614414
-0.312948823795315 -0.195862778984433 2.28797577569902
-0.341053749105853 -0.196366579117166 2.25310234782456
-0.279820438889708 -0.221690436375598 2.28381167408757
-0.232688502150513 -0.22451294408923 2.2999607578826
-0.187931116234585 -0.223424691833538 2.31030646689652
-0.138964831355593 -0.228174748922753 2.31474644187377
-0.0935492968847053 -0.222805242169804 2.3301681659004
-0.0460259070925457 -0.235453588323609 2.32518283008062
0.00200764754715983 -0.235100018155091 2.3304788430914
0.049699738761167 -0.227141616346258 2.32734248624244
0.0969423396834242 -0.20415693809292 2.32141476132551
-0.302479663787348 -0.173330384860337 2.32455962017666
-0.346793158371232 -0.159072410844768 2.29026088100544
-0.263589769154114 -0.197270844783424 2.32131706746513
-0.217632516311127 -0.191688733157176 2.34097662081503
-0.167542029896637 -0.19601115632884 2.34614021042739
-0.121721870927664 -0.195870298190661 2.35559859321955
-0.0701404836479236 -0.199741795102881 2.36158490886075
-0.0251346483697922 -0.205939287150889 2.36316216921738
0.021215277918769 -0.202675429713751 2.36446417101269
0.0650590796250577 -0.194498434717082 2.35580125113749
0.101215149315906 -0.168443722137024 2.35611104603918
-0.297962156455137 -0.135612725221316 2.36254246274878
-0.331821285718491 -0.142770956714377 2.32901538889168
-0.264273694863635 -0.165209521805227 2.35631504975713
-0.229752754929783 -0.154041397663078 2.37470485974062
-0.186937054929988 -0.162306049851695 2.37579833252438
-0.141794374795974 -0.162562849331694 2.38345133672829
-0.0945423389368346 -0.165873300116239 2.38910159802931
-0.0458834021425896 -0.169935463020835 2.39442478801184
0.00243312412566685 -0.172735429070954 2.39587918152361
0.0539455422209068 -0.166168305472745 2.38850683158434
0.101015381697511 -0.134199436465952 2.38244260029973
-0.339498994760602 -0.104589772843916 2.34816257772228
-0.260856282216749 -0.117408898395218 2.389433780974
-0.304628308089023 -0.0926913519768588 2.38002953432192
-0.211361644742117 -0.118151355513195 2.39856940244617
-0.165271848404359 -0.122850151136895 2.40333978767492
-0.118568897228513 -0.123886007157887 2.40983712965225
-0.0727154549450715 -0.128456753301913 2.41463996625638
-0.0259930026520535 -0.132920714565601 2.41932925730759
0.0206812776019055 -0.134133358239313 2.41712398133949
0.064945514668784 -0.126981235150586 2.40723503998003
0.046423964355023 -0.0892475229035268 2.42602087770505
-0.277919718443428 -0.0665310199613298 2.39943184124611
-0.235377630166734 -0.0758930465775488 2.40880789007785
-0.186313600285879 -0.0777689017908713 2.41485659110114
-0.140532166307167 -0.0789205077679598 2.42057752210286
-0.0942178656241036 -0.0803862596336636 2.4262842602874
-0.049582600336476 -0.0870825017831638 2.43082117860035
-0.00182993916731622 -0.0912882426237595 2.43347684409984
-0.24664005116415 -0.3599691861699 2.03828766210563
-0.270602490351286 -0.344215995891314 2.00369481485003
-0.247185150403187 -0.335172513269864 1.96655207460606
-0.196975763000709 -0.366143602912529 2.03850123435803
-0.218743924063486 -0.355013657038155 1.99802547993913
-0.150900918913191 -0.368675831267276 2.03764132397293
-0.170598935295121 -0.354852160236452 1.99240432247141
-0.105459213236427 -0.371597007519644 2.03996231869264
-0.125274555069468 -0.356296697964332 1.99295450963339
-0.0600877811095205 -0.375432408011392 2.04740557703972
-0.0776596896386242 -0.360075803308636 1.99883641636499
-0.0151251077766455 -0.379636112608167 2.0575201351331
-0.0318889932975347 -0.36508486170645 2.00773381954902
0.0309371578570851 -0.378495456078006 2.06606876381657
0.0123781165709315 -0.369694251052469 2.01874669014437
0.0602680629485106 -0.363047248895248 2.02806573490628
-0.298319699833603 -0.340488619434769 2.0472853108585
-0.337016033286285 -0.30936659918122 2.0330883841257
-0.307419158382815 -0.322995427318685 1.99980827635021
0.098325868471667 -0.352093891255337 2.12153027538647
0.0740455805809501 -0.367085725969365 2.07593948512296
0.113586937524788 -0.345573032106444 2.07911462855283
-0.375083122123541 -0.255700360042431 2.10244089056313
-0.385573995573767 -0.24051204674862 2.0536538647618
-0.362512659481613 -0.283545264672469 2.06416711553229
0.119303483124298 -0.325660018740725 2.15665071754438
0.139794209553582 -0.32144137722905 2.11244462253253
0.156781095133338 -0.291671282943253 2.14144626523627
-0.377326977199201 -0.228919138009007 2.13550082089875
-0.393369562496105 -0.210317961589613 2.09020631422514
0.133075859070986 -0.291487465357677 2.18686497507399
0.163920099113705 -0.254147652888862 2.17425465065386
-0.381192087821835 -0.192367092507682 2.17150709222117
-0.394002356560252 -0.18259835552351 2.12826844285994
0.140782765697422 -0.252783621088158 2.2171442620374
0.170186998550105 -0.213714796218351 2.20085376460369
-0.37568699876228 -0.175472365406126 2.21032557339458
-0.396386236024611 -0.144817760721862 2.16983281114737
0.149286309176448 -0.213250040595958 2.24491404237083
0.174454345543548 -0.173386976285269 2.22946473697589
-0.367821131784114 -0.159654299208841 2.25019532899278
-0.39184649474795 -0.129649994770703 2.21606138239062
0.126125065456957 -0.208864405215103 2.28450527080179
0.158425490815734 -0.169714677299161 2.272501533061
-0.381758977136746 -0.120540776347234 2.26467208033003
-0.400258648143517 -0.0846017046280137 2.2354675653092
0.133398282064223 -0.1706680409817 2.31527267760726
0.163380684283512 -0.13133358024542 2.30048905434546
-0.366206593624844 -0.115275050849144 2.30650967493199
-0.390698980094492 -0.0761300216278955 2.2833815499477
0.136727932374746 -0.135099682119429 2.34568271397117
0.160206333439016 -0.0962374752134929 2.33415432454048
-0.369257397300568 -0.0712536255339508 2.32657084548984
-0.337164558612095 -0.0619214475789143 2.36463065013373
-0.357132252073256 -0.0275229721421589 2.34696476757813
0.0935872111637784 -0.0885902853599979 2.40520298263211
0.11668534392308 -0.0483268076645479 2.39326891082482
0.130333669558925 -0.094726532111627 2.37430502033333
-0.311792150079359 -0.0353640501444772 2.38535299837801
-0.259343206072929 -0.0257057607126034 2.4077129019525
-0.29145353843741 0.00327408484788846 2.39201127516632
-0.209700094625582 -0.0345699099717845 2.41591826634034
-0.162457027180505 -0.0317279557674509 2.42117116455756
-0.115836883144866 -0.0331807495117226 2.42643887776471
-0.0690026620035387 -0.0346986389659009 2.43171279914165
-0.0259886950933645 -0.0455278838522816 2.43695429175743
-0.000709637258989829 -0.00869505396867045 2.433079667289
0.0247045704845305 -0.0488364595975093 2.43486822450369
0.0733938743945607 -0.0474382954992374 2.41993696816302
-0.25809094861045 0.0325545951861856 2.39582301667996
-0.226352351532737 0.00826590556566948 2.40904052011506
-0.182254474150064 0.0136155259758239 2.41194659096932
-0.136159500901443 0.0136034115390614 2.41627217213829
-0.0894627361154163 0.0115321179133146 2.42121830307412
-0.0410459734748724 0.00974807364448812 2.42622089804635
0.0147207574885161 0.029280299627437 2.4194559023473
-0.335292213346325 -0.29085348323332 1.9845850459961
-0.319138386336563 -0.275769107907527 1.94612291948222
-0.288345823168534 -0.312011369014143 1.95849234357645
-0.239597049577033 -0.311356029163131 1.93148332976616
-0.197495880863046 -0.335756400419856 1.95656611133939
-0.146997604539345 -0.330922981655812 1.94995272715377
-0.0969843978489578 -0.336227806994784 1.95775890769662
-0.0449040252761345 -0.340366847043176 1.9640281992159
0.00043912354527019 -0.346108377627133 1.97248349764431
0.0445832461876473 -0.349890824211021 1.9883335709241
0.0869279593317883 -0.331626989102352 1.98792921357744
0.0997892344718798 -0.346707527758037 2.03541665080694
0.126249101244166 -0.319792953436039 2.01836373878411
-0.365195459252297 -0.269977585422907 2.01865752298114
-0.383049666629324 -0.22325656856648 2.00714395247328
-0.359564568296045 -0.249007758179502 1.97612920038995
0.14296197320394 -0.318324598475281 2.0629692120981
0.158705469859497 -0.288583423178718 2.03250656616845
0.168804829574189 -0.286934295986242 2.08773112028938
-0.397318367103139 -0.191449957313316 2.04463745646235
0.188409053664193 -0.24459228956147 2.08629469286223
-0.400373823650124 -0.161472718336883 2.07814684063513
0.180554216914876 -0.253686025501181 2.12855908467497
-0.401378312037829 -0.140594136891357 2.12154224654292
0.186065284181278 -0.212373359000091 2.15355792165101
-0.403565051685967 -0.10126889411659 2.1382522422466
0.188539234189126 -0.172848722788969 2.17872301878449
-0.403442174073804 -0.0948818838318874 2.18569612591684
0.189083727933744 -0.136315894294105 2.20707755272047
-0.406724915383711 -0.0477851938776309 2.20553340959795
0.181315381413175 -0.125085148291074 2.25287889720458
-0.402835890969776 -0.0382839309824842 2.25619896378919
0.181423695286124 -0.0871257415029056 2.28680741710149
-0.385955189313214 -0.0311936294709544 2.30441115322358
-0.392560808072499 0.00691874809627586 2.27655206000467
0.149867178525752 -0.0524346930180766 2.35918224216502
0.174108240063926 -0.0548530005824779 2.31800605829586
-0.368757056387948 0.011537598656876 2.32281305172814
-0.333861235982228 0.00616099327992953 2.36385023850833
-0.341008290882014 0.0484161464351276 2.3373346974222
0.0491497970860948 -0.00661675728377622 2.42391687057197
0.0955770463559969 -0.00601492347401866 2.40220783967937
0.134412696706762 -0.00705017898254425 2.37005596178919
-0.304151803996689 0.043954372224906 2.37056197844803
-0.26370303527324 0.0706834641497113 2.37446745750087
-0.211137221762234 0.0545342231448468 2.39355158082087
-0.162098875364264 0.0566839400133784 2.39607294888958
-0.114744393059098 0.0556008993489975 2.40011877668238
-0.0673630469940479 0.0523891857704428 2.40536328456714
-0.0213709026774056 0.0530335112350422 2.40821882564596
0.0322149390218308 0.0646371881943016 2.39575374973726
0.0660539112714976 0.0326364991230321 2.40326082353803
-0.308001316761651 -0.243027973781032 1.9116149632345
-0.276455151841048 -0.282434306382084 1.91993933652848
-0.228036558565277 -0.278900684546047 1.89969074598703
-0.190632971676384 -0.307668566674955 1.92216704280528
-0.147022313778318 -0.295364496626001 1.91309685830174
-0.106756488863796 -0.303224563509484 1.92193957884127
-0.0597049148005354 -0.312189534811443 1.93214855144994
-0.00352241666291332 -0.313290211173119 1.93580375097431
0.04408260581732 -0.323161588734073 1.95279784823499
0.0892830039352585 -0.299339004138682 1.95241893640447
0.127338607975957 -0.295621867406585 1.98463488620597
-0.371427129740912 -0.196398692523101 1.9637810034071
-0.343582650564553 -0.233416911751492 1.94162410751539
0.160047078942262 -0.259686292235026 1.9956769458026
0.18035994611748 -0.253077015563644 2.04401305035192
-0.390445852769564 -0.175542252263598 2.0040904622854
0.196828402093966 -0.205632742751063 2.05930857744438
-0.395778501727954 -0.135501093457299 2.03425131791874
0.195935512827789 -0.204326988619943 2.10908655591787
-0.39963685550772 -0.113084807000877 2.08244833903637
0.196584542194391 -0.162456063174241 2.13207163734478
-0.398809348223328 -0.0700585677464561 2.10353977645338
0.196286860880781 -0.123987308112974 2.15992391586687
-0.403629930824983 -0.0556666430823368 2.15488420404629
0.193280106371027 -0.09405191725857 2.20568133420217
-0.402528423774198 -0.0108299815365194 2.17471659847164
0.19024613284625 -0.0734710012988127 2.24551925977453
-0.403874110198473 -0.0015561838886879 2.22629671102711
0.185367301086026 -0.0307122409388602 2.28187668080704
-0.388864492431706 0.0430381282078093 2.2463070971837
0.164189006828895 -0.0121531349408649 2.32992741531666
-0.370039721325129 0.0491110819517154 2.29400758407439
-0.337208570562259 0.0858326127271647 2.30706849989578
0.108312908940055 0.0342794853214287 2.37553549334341
0.143516581766138 0.0309079957827123 2.33918292874551
-0.303208508407209 0.0830673713257558 2.34390475864236
-0.259692816904155 0.10948557817138 2.34328036207533
-0.224002032587703 0.0905067512986245 2.36904205849483
-0.179106256808473 0.0944294654328695 2.36824909128109
-0.134986278191014 0.0948797302194564 2.3700227187552
-0.0882432066659961 0.0909365266926086 2.37576320352157
-0.0449350365436757 0.0907691723283147 2.37803685854661
-0.00231247490257769 0.0888569417479113 2.38127506891009
0.0753712990918198 0.0712270934703385 2.37267881805887
-0.304680615982832 -0.207852684412467 1.88360307164941
-0.266128470370849 -0.246958050818779 1.88715027842947
-0.219245695613271 -0.243777759889259 1.86880567206591
-0.179509693190958 -0.270187371383748 1.88951019621413
-0.12569417283182 -0.260913979506105 1.884053706907
-0.0797510624935772 -0.273427838070924 1.89724058941454
-0.034044147626394 -0.285227564581804 1.90979233720489
0.00932944929934011 -0.273179869761365 1.90140019461569
0.0470378506621229 -0.290376574806429 1.92300589449457
0.0935928599849739 -0.26420680471174 1.92075226916183
0.130331870104064 -0.26334321292858 1.95344905019149
-0.366534168134066 -0.158193205602239 1.93442134155867
-0.342141003567744 -0.198648961554737 1.91757511697415
0.165898284302466 -0.225255054370995 1.96550891834002
0.186077134402026 -0.218081460208877 2.01200513044871
-0.385672588829811 -0.142460289181959 1.97912985998844
0.203036390221168 -0.170899060553649 2.03151851433863
-0.389170669021155 -0.0975867987678223 2.00183874234816
0.20227566736094 -0.161030740840016 2.08363220270128
-0.39349772471728 -0.083060127829538 2.04892017326793
0.202687133835397 -0.115593755904089 2.10992259812
-0.39275358563715 -0.037977198616652 2.0720895043678
0.200066931883302 -0.0794699524260911 2.15637829957863
-0.397321400984541 -0.0223249003159273 2.1219948982532
0.198206215582665 -0.049216102001132 2.19239690710742
-0.39636148370078 0.0236367273741761 2.14386438214937
0.194616284029891 -0.0309749919043034 2.23523951239563
-0.397699016126951 0.034344112940751 2.19593285747118
0.190999158782321 0.0116009328608702 2.25169295277549
-0.382596866140178 0.0785769743721583 2.21571887516972
0.17287955384701 0.0188046388400759 2.29681896335867
-0.363958916001112 0.0847465748314684 2.26336948883613
-0.330172602343535 0.122015526183078 2.27666690319319
0.115061038796952 0.0718005786914238 2.34332472815916
0.151007953939711 0.0653044804092483 2.30745269353848
-0.296896245120953 0.119036453086288 2.31300319676421
-0.248283937879643 0.144003414903086 2.31540874770215
-0.20800754418853 0.12512534847133 2.34001810606511
-0.15704913109492 0.131852620576071 2.33664560936241
-0.10435611761775 0.125216347674625 2.34503057481686
-0.0559739765417002 0.126722301926864 2.34609214897225
-0.0098816571616368 0.124558318079023 2.3502462892049
0.0379654950470334 0.103632857075723 2.3626939836629
0.0792797767714275 0.109308945925666 2.34129479089857
-0.299141713989992 -0.173304438888208 1.85417418274906
-0.261208190635795 -0.211430261250178 1.85707916763027
-0.213273757223378 -0.210180592656142 1.83973513433822
-0.168373108850837 -0.23700534312483 1.86107378689685
-0.12115735110114 -0.222014535131517 1.85030048722454
-0.0790876430058338 -0.236616106936165 1.86512111466097
-0.0344374120997988 -0.250273030047169 1.87924245755666
0.0119022684775969 -0.235815356915308 1.86889090426273
0.0550949206277585 -0.253375626506535 1.89150140467998
0.100570353100719 -0.228168436647171 1.8900349426821
0.136436045952635 -0.229434246994575 1.92430936895616
-0.360063954957574 -0.121997665148541 1.90286967407951
-0.336778358780719 -0.165047008273977 1.88922369008579
0.172236009325103 -0.190604382794425 1.9360754829165
0.192652550123066 -0.182480432646724 1.98256444019501
-0.379283015512937 -0.109332379367341 1.94841701518138
0.209150840004078 -0.136371981920148 2.002925382403
-0.382858893770769 -0.0646862904496154 1.96870278775813
0.208216905393167 -0.125276487732351 2.05558874384975
-0.387198220027344 -0.0452221459196338 2.01913467386558
0.209576756490896 -0.0801113098368681 2.07346443585486
-0.387255361151372 -0.000988093547700949 2.04868664392934
0.20554111157728 -0.0655453334516714 2.11804033592515
-0.391194724980635 0.0138706644364749 2.09262777562606
0.205051684115605 -0.0234427112452735 2.14995075441356
-0.390002527930725 0.0581175707498625 2.11135756037892
0.201165600954051 -0.000673424804022264 2.19861748085594
-0.391730312468822 0.0686649995043056 2.16465112145584
0.198149906610294 0.0442728894236655 2.21839840717325
-0.376435116038787 0.113336206153209 2.18594266648427
0.17841683326443 0.0571222554966528 2.26616092734178
-0.357244606945355 0.120386744048034 2.23355913580035
-0.321851689273558 0.15755571436125 2.24856744504998
0.120497992338362 0.107953880597777 2.31287413943815
0.156428702979104 0.101996749625853 2.27710784815103
-0.287083383095871 0.154297311609222 2.28520474901793
-0.238719838978346 0.178625520506957 2.28663600553599
-0.197302098901892 0.158878296129123 2.31106244617581
-0.152440465115957 0.173126561382082 2.30082226622924
-0.115261896100573 0.156757302395392 2.31694570045384
-0.067573930477778 0.160040377665182 2.31642082091339
-0.0171937612169726 0.160602048141552 2.31840522523927
0.0329246585545355 0.140102176522386 2.33387485009589
0.0806103748146448 0.144541798436537 2.31340234631595
-0.292894800623329 -0.138688663293721 1.82408646717639
-0.255602127677533 -0.176258472596874 1.82694529761602
-0.209325645614583 -0.175568519000139 1.81020939543204
-0.165022981094023 -0.202521337775691 1.83111941198945
-0.11532832808912 -0.185245812527466 1.81847109434953
-0.0732747485976335 -0.199022009446695 1.83256962957117
-0.031303243299589 -0.214243662146227 1.8479273500111
0.0149683197253689 -0.198774022931036 1.83668826607249
0.0585049525437964 -0.218255512823207 1.8602717448323
0.103800763888763 -0.194239876569865 1.858854853535
0.142670708528753 -0.19502880866048 1.89479324865554
-0.355053195664809 -0.0851790887597256 1.87405498551602
-0.330580922631046 -0.130994731887865 1.85947545595174
0.178215074385059 -0.156094835644815 1.90607751589309
0.198854735930779 -0.147455031156986 1.95250926799971
-0.373327222164372 -0.0723363323332844 1.91832939464663
0.215070801279201 -0.102250562734554 1.97196582792846
-0.375972667807441 -0.0245878059245041 1.93531339697646
0.214680505430114 -0.0898129229754917 2.02281260021908
-0.380617263779277 -0.0185357478858685 1.97958243063155
0.215457895967887 -0.0419342129245001 2.04752746936307
-0.381943711659239 0.0114374037570997 2.01077692337641
0.21093950602393 -0.0280504137208143 2.09585050454285
-0.384273097602023 0.0496903321163613 2.05611955058383
0.211591999009549 0.0156007150933865 2.11886814315218
-0.384051766972196 0.091924288536004 2.08194641425126
0.207193252730044 0.0293750791232636 2.16607672270867
-0.38575074417125 0.102747924548252 2.13518890001171
0.204738936069331 0.0768596243404978 2.18696825631062
-0.36941030604177 0.148678501566935 2.15893693238215
0.185392956423474 0.0910756693727099 2.23466586816052
-0.349903837855129 0.15568413362407 2.20550224076042
-0.314760636942365 0.192440209207343 2.2195949767021
0.125253800571228 0.143305064504879 2.283586562662
0.162762761307947 0.136603205870273 2.24682258788651
-0.279044486818702 0.189070324565975 2.25651115813853
-0.23252220656081 0.213969473482844 2.25606958954629
-0.19051398286289 0.196211456229668 2.27878825235864
-0.139955901555327 0.209564195920754 2.26960895346166
-0.100467465571849 0.191738091632998 2.28711894542342
-0.0521973800162648 0.194791216232387 2.28682322319363
-0.00412095368878253 0.195886260484729 2.28822838498631
0.0362080584211452 0.173239491170172 2.30570491839115
0.0877350866089217 0.177481057638924 2.28421722018899
-0.294134997676631 -0.102032636654861 1.7995437866113
-0.249193858708618 -0.140215437567855 1.79573147331141
-0.201327677162459 -0.141870398411085 1.7806918626184
-0.159930368133584 -0.169652023386274 1.80266022115757
-0.110132736858485 -0.150099568799148 1.78807752370451
-0.0665073056197498 -0.161168307045853 1.79983969751976
-0.026631585126638 -0.17593456975038 1.81469541496781
0.0168656668637245 -0.161275393098806 1.80403940796777
0.0612820266264438 -0.183463097891476 1.82922394182214
0.107899595513409 -0.159875450636287 1.82788142402568
0.145019075268554 -0.163313106377622 1.86359767795455
-0.349674289977476 -0.0477490239232892 1.84511716243019
-0.327830928233765 -0.0948337664205396 1.83309745262916
0.1787646514411 -0.127125472124549 1.87226230321758
0.20476827743186 -0.112428242350116 1.9212721767972
-0.367207115102864 -0.0340611287815917 1.88740300799005
0.222022810377918 -0.064326440846409 1.95228750824652
-0.369716750551062 0.0136163785856057 1.91005488230915
0.220481956911977 -0.0515965584693338 1.99759847595041
-0.374886941237909 0.0268728281496446 1.95970565926397
0.221582392490741 -0.0048352930636566 2.01749897936607
-0.378380341413661 0.0530552636108218 2.00721228879642
0.217147434181802 0.00803355290109144 2.06570444292917
-0.377485893959333 0.0955034555955991 2.02733600860601
0.217950479624173 0.0520915113083213 2.08721713348624
-0.378690749775121 0.130200469230819 2.06066753580265
0.213467243092556 0.0661211413352986 2.13579184029449
-0.379316976021468 0.138135832120554 2.11035670244385
0.210681899720634 0.111836997910036 2.15736267191821
-0.36308072542348 0.183654748001441 2.12949786841012
0.191784608048782 0.124956068173439 2.20441594343988
-0.343003546606979 0.19105638358354 2.17637261593456
-0.308658788008383 0.227255766443383 2.18947889555048
0.132007824999857 0.178002899494829 2.25298901022676
0.169075987164621 0.171273052187729 2.21646019976228
-0.273228544483839 0.223757581979603 2.22632424922294
-0.226977073484566 0.248856313708185 2.22565895077861
-0.183312423188376 0.231649141967928 2.24818925981361
-0.134684785143639 0.243666325565278 2.24005531479428
-0.0870603678344779 0.228581812851986 2.25559669366378
-0.0370512370698167 0.229406913320738 2.25733255609481
0.00946027972163811 0.229722220909146 2.25934188829306
0.048565774182408 0.206046449148801 2.27597299900554
0.0947708064213382 0.212214684049764 2.25368141469653
-0.256844617471915 -0.102321882295655 1.77398870032408
-0.215327485162823 -0.105862307889493 1.76030189059925
-0.168921125327355 -0.103095166268082 1.75406379593276
-0.154012290564429 -0.137002331278501 1.77530497200585
-0.116771945405015 -0.109151785569118 1.76084156887597
-0.0700142617099976 -0.12110852759833 1.77065119030208
-0.0231379032477401 -0.132332297672852 1.78053857684414
0.0247691886376288 -0.121542985725402 1.77799617664208
0.0642565828732098 -0.149449660667653 1.80030582975797
0.108675217519268 -0.123284983126707 1.80045362136243
0.149079596731599 -0.127524068874183 1.83318100351395
-0.337368019986277 -0.0104900027662728 1.82029145143685
-0.320701312176471 -0.0571206915209629 1.80531773770092
0.197805109949124 -0.0897704514239526 1.87552128991013
0.215543232403118 -0.0673573012874778 1.90915406918522
-0.3575595738423 0.0053873205628126 1.85992004583261
0.221016348160929 -0.024096821615726 1.92039520095526
-0.354649195848818 0.0494927303197671 1.88160738142521
0.223889187133606 -0.0129213961210891 1.96589076784096
-0.364310087490849 0.0625032693085688 1.92667025865139
0.220385347552601 0.030423553343427 1.98529247506247
-0.371218881281394 0.0792634487112566 1.97270948836638
0.220627407584761 0.0450940314975222 2.0330983001748
-0.365209614530703 0.124658061839074 1.98815286983207
0.217519541611865 0.0873007031912711 2.05571884920949
-0.368229028956494 0.151455472445681 2.02435838224808
0.21739360580844 0.102191903839798 2.10322580537823
-0.372134072255516 0.172239600154217 2.07922220311601
0.211457725431063 0.143537700374969 2.12595103244019
-0.354357313040724 0.213169435921542 2.09466194747526
0.196025721093812 0.159626701185502 2.17429487020731
-0.336890033772907 0.224458721130389 2.14422638526541
-0.30133414701071 0.25699803457885 2.1564629031466
0.137026102265778 0.212724490835705 2.2209992866731
0.168907936619353 0.205209381750501 2.18391634736553
-0.265893064308528 0.257736395213018 2.19543585502955
-0.217296390067498 0.280403404140787 2.19023491319372
-0.180016291789943 0.266195329122734 2.21520454782655
-0.138213550830083 0.274906515548689 2.20461351500179
-0.0940809479692693 0.26498826535965 2.21860581531008
-0.0494210281957602 0.260646183892379 2.22497335363783
0.00065124096350723 0.260045836716872 2.22661627223311
0.0525920932840998 0.242139485397676 2.24334117198301
0.0979446967188572 0.243344624687073 2.22073021158804
-0.282238877377808 -0.0616473530475022 1.77281347767576
-0.236863433970203 -0.0624957388336774 1.75045779575548
-0.189198237493132 -0.0638519669955722 1.74080922928293
-0.137335983443163 -0.0678449252324295 1.7437426715229
-0.0868209196484575 -0.0744740141806199 1.75030194736203
-0.0406844048661482 -0.0844593783864319 1.75749119616973
0.00342854060166073 -0.0840418315051226 1.7614639969143
0.0504593405719058 -0.0738037578231512 1.76357849104797
0.0709315634421192 -0.108950804798193 1.77866712589962
0.102931455748713 -0.0733401485049238 1.77810007058574
0.139456521499232 -0.0908640015495432 1.80456020143181
-0.302214662891103 -0.0198443586575561 1.78166599693081
-0.277062012395357 0.0220658113137556 1.76821302209197
-0.259702897514897 -0.0209867077354832 1.75427471745754
0.149644345474134 -0.0498300008110482 1.80236624380924
0.17582923379045 -0.0837945354829785 1.83709973336013
0.17911630462997 -0.0363112685905911 1.83052426170234
-0.334334298783412 0.0435679925505827 1.83266165543623
-0.314552022222469 0.0215941343256724 1.79838965290095
0.203308447479861 -0.0426729993802623 1.86819521858812
0.208592815757237 -0.000689561375406163 1.88563005667746
-0.331104210764349 0.0810203539430594 1.85942061403922
0.214445163723498 0.02481112629564 1.92919259802419
-0.340971265664303 0.100562326429416 1.89902393275045
0.209422066596924 0.0618128567294041 1.95713626110125
-0.353438636110879 0.110860438014037 1.93882913679388
0.212030514341293 0.0823028163180727 1.99956930192346
-0.34243563109779 0.150077055227119 1.95296149360527
0.207145706783142 0.119178245303262 2.02719301353646
-0.346285953584339 0.178052075327477 1.98977503042441
0.209551921359457 0.13948680897975 2.06940914592457
-0.35975401376408 0.192736341602252 2.04259028700777
0.201995456987554 0.174897548795148 2.09632807281482
-0.325959607810498 0.250054483083355 2.10693235706615
-0.337910714868503 0.234989464092836 2.05822481399627
-0.307037792362281 0.267957579996378 2.0647806937767
0.192548492496775 0.189729895812275 2.14077917256357
0.179165908904526 0.216099637464832 2.09757639391944
0.165938295462602 0.228276298460448 2.14299551136605
-0.258167409301709 0.283233717744862 2.15890535404171
-0.291994559084356 0.277238643199456 2.11756671105748
-0.250170427559861 0.299084415830127 2.11669609266188
0.133256022087417 0.244125027074631 2.18238936497729
0.100852401648419 0.276628040660893 2.146924487771
0.0885619225118329 0.269105200289692 2.18569397619093
-0.210981342844511 0.30078097413779 2.15046962725751
-0.166990232339457 0.294962709313202 2.17011942939298
-0.114075202314423 0.292645659059126 2.17245578522414
-0.0695992010578764 0.287670137230247 2.18116596144268
-0.025780963935925 0.284386187047808 2.18614094654052
0.0169582234304752 0.283598702719937 2.18552492243947
0.0501718339238013 0.268883887588331 2.20856924370611
-0.210881037090944 -0.0211249376667455 1.73825634927504
-0.159596043444113 -0.0249797775084957 1.73531497656167
-0.108823623696881 -0.0290698951964116 1.74099768474615
-0.0609475213825443 -0.0339403624828033 1.74657389489278
-0.0161150394509482 -0.0375326049433381 1.75175166149217
0.0279651825531981 -0.033394809469906 1.75659856325363
0.0765605942693019 -0.0320537561337217 1.76437633524128
-0.232855957604881 0.020082357795409 1.74741324007383
-0.205650895290799 0.0575317446861607 1.75204494731779
-0.181460069719116 0.0183312096448168 1.73805635118977
-0.130660843228612 0.0149871668260923 1.74118509624059
-0.0829871940614655 0.0138551094849407 1.74712341521688
-0.035715085102874 0.0103996884982964 1.75259598658801
0.00906186281182089 0.0118365708799288 1.75871767283169
0.0560000637384192 0.0110403419572908 1.76481910268682
0.104157695284401 0.0120913980869004 1.77946252738509
0.151275116003937 0.00284002994745774 1.80675407611884
0.120087921150934 -0.0283579969604463 1.78180287375794
-0.295091277289541 0.0614998497267608 1.79688259418185
-0.263143404801888 0.0999744738507167 1.79980002336402
-0.252536534539278 0.062503590423989 1.76924273348987
0.127195671478554 0.0452982477242722 1.80436055558088
0.185199005346766 0.00537845314471457 1.84436055660462
0.163290201386584 0.0456045579041674 1.83625127242438
-0.302928516550682 0.0919134270810183 1.8283775295728
-0.269659879096512 0.130233473421407 1.8363372029589
0.193661853560837 0.0408542301573533 1.87953289324089
0.16573806994475 0.0799556322230214 1.87092605746571
-0.30754211272826 0.123875005098137 1.86849288335369
-0.276677696451696 0.159887318230115 1.87474306413438
0.192613569092192 0.0706886260813275 1.91314970697337
0.163783910625879 0.11156086244519 1.90683030570962
-0.318648264941956 0.147576740196452 1.90908346031849
-0.281535725567539 0.187380746437149 1.90913501003069
0.19118650009817 0.102628871676609 1.95067457654542
0.162730928250567 0.142191205110621 1.94296242314433
-0.315534488064714 0.185137000715141 1.94468404611882
-0.279618242231445 0.220561848190392 1.94380482396294
0.190477419990586 0.130383902358149 1.98468995468925
0.162041125255173 0.172169345920308 1.97888659953603
-0.312776109904001 0.219306403962307 1.97758085073044
-0.279037898607694 0.255400762085014 1.98320927930648
0.189396194540812 0.161769531416763 2.0224555808607
0.160803242902248 0.202355555299398 2.01419475118125
-0.336312024966515 0.217854868420059 2.0139723876139
-0.307106666993472 0.254601850880606 2.01940706577462
0.187667492134033 0.189968212298171 2.05595156525492
0.157555937134901 0.229882379955014 2.05126139406447
-0.27386171797136 0.290972332397123 2.07627662005258
-0.268810444762072 0.284394063686605 2.02796833746318
-0.236315530949858 0.304944730235863 2.06246242138663
0.135389499558916 0.258099660092486 2.13595683572359
0.149077508603906 0.24888154543033 2.09379995439374
0.109105975929116 0.276317114672018 2.09489204459732
-0.211786066019349 0.310973513766038 2.10254139731378
-0.186230286772748 0.313217436224141 2.06678069214594
-0.17125076652337 0.310661123529099 2.12109906333382
-0.142298718204335 0.311645236346488 2.08015959257399
-0.128780082853406 0.306633287164538 2.13019080820629
-0.0981775609022233 0.308303092070593 2.08523839872912
-0.081981563695093 0.303623460988006 2.13288479001322
-0.0533165795735272 0.304826037670941 2.08856315224303
-0.0376804338365979 0.300106785160978 2.13882725502266
-0.00973871875652883 0.301452938922334 2.09216428226657
0.00684294590161158 0.297336718805724 2.14074171527941
0.0344811940287297 0.298229247112908 2.09996489854876
0.0525621183783971 0.290201874326268 2.15547119569428
0.0722422494150284 0.291385307666105 2.11231498899221
-0.174926285121509 0.0903539388541176 1.76616253988685
-0.152364735274297 0.0564754040439461 1.75000712393406
-0.106646485666048 0.0587924470151116 1.75759825070336
-0.0579000787391295 0.0546389790924966 1.76301648998666
-0.013002483970276 0.0563621992793099 1.77049568313563
0.0323932363880442 0.0555344506507562 1.77697048841124
0.0784336420609562 0.0514641054342586 1.78407502951481
-0.219981647886349 0.0981766677491864 1.77818729916773
-0.177445131605672 0.124773139957198 1.7940146607543
-0.131388444210199 0.100186518913395 1.77771100126313
-0.0804257949032804 0.0933162901748757 1.78137941273139
-0.0361229041978471 0.0964455965653335 1.79135140243541
0.00840630717550729 0.0963388254664934 1.79909587009947
0.0536055441656222 0.0934679794918334 1.80477119959661
0.097064842066757 0.0836418881173969 1.81156062352222
0.131716093554549 0.0857094484524794 1.83667844185086
-0.224971468403484 0.13154176047334 1.81128010079762
-0.185151440634978 0.155971388262363 1.82949282282386
-0.139239815120135 0.140314959872046 1.81549413539812
-0.10001557749904 0.124861398947204 1.80573461144528
-0.0572397283504069 0.129820124551402 1.81999256305116
-0.0135318740386799 0.130355170600996 1.82947833061049
0.0345981458018903 0.126693185211339 1.83500751528386
0.0844682369963133 0.118928304798183 1.84078342269563
0.129273195380292 0.1162042492976 1.86949621055818
-0.231865194197371 0.161527942514344 1.84779950676599
-0.186884459039058 0.185984369357457 1.86385735894756
-0.14082675547866 0.171896044989129 1.8516897875697
-0.0942001492757907 0.156057039724703 1.84283336164069
-0.0472774102321271 0.162395517862525 1.85968093062071
0.0029341053836292 0.158501822941604 1.86536444620804
0.050754151455971 0.154431970204582 1.87037203957593
0.0928840811775416 0.146531190267641 1.87769266789893
0.128073108533404 0.148506697428013 1.9070810253421
-0.235391655099295 0.190686507086478 1.88202972456547
-0.189452291807547 0.214528126570004 1.89661698910518
-0.140490979517625 0.203730513528191 1.88856818991226
-0.0979032697158154 0.186677390740262 1.87748814722206
-0.0600587996839528 0.194863369990234 1.89463064227752
-0.0153273706799646 0.18915558873568 1.89710465206151
0.0326984301663936 0.185598725499434 1.90273385040449
0.0817779936427908 0.179218516741075 1.91015292650372
0.126996812404427 0.177509934979923 1.9408323088014
-0.238653477866083 0.219045282818039 1.91527079603203
-0.195833321882881 0.242714153033048 1.92938942589896
-0.145823677152815 0.233792973219407 1.92224697731985
-0.0965700115710423 0.222162310405908 1.9187908178505
-0.0450159710952246 0.222242960648688 1.92934162678424
0.00317129334687144 0.217701810208001 1.933866065784
0.0495955200825899 0.214308126898047 1.93942369122859
0.0911224604615441 0.207037455377571 1.94792978453892
0.126158472619524 0.209274784736414 1.97814214531073
-0.243335288865447 0.249530488632254 1.95160753778513
-0.205550072742155 0.271283629625672 1.96398758743917
-0.158569236674366 0.265312744224302 1.95617845305082
-0.111939067909299 0.255653735186006 1.9543994074248
-0.0672671127586676 0.251344647547957 1.95847806795831
-0.0182752003812179 0.24915313685217 1.96588286731214
0.030551610676089 0.245608763925501 1.97168862622298
0.0796702996631362 0.23985298621016 1.98022138094143
0.124547415374183 0.23770908092883 2.01167459943497
-0.239151181988633 0.281698538270122 1.99288001361514
-0.182650336232225 0.292028321871074 1.99382023729498
-0.133900834470382 0.28616532764327 1.99178469175217
-0.0892431945336143 0.281571146982556 1.9947725681443
-0.0443536103985487 0.277599940898009 1.99894952761441
0.00203898406097158 0.274644199879153 2.00527193730882
0.0471306103223986 0.271751644437647 2.01155530432958
0.087855273305021 0.264815758746652 2.02105933171976
0.119770847999085 0.262209328499956 2.05419513873146
-0.214249275522411 0.302034195135971 2.02537460778374
-0.160097148773893 0.305570738460557 2.03114124085043
-0.114307769062315 0.302189459871304 2.03672749108926
-0.0692220681697822 0.298350245856761 2.04043684248534
-0.0234436027916237 0.294465756658933 2.04429177040849
0.0237200950163758 0.291334841340024 2.05123502838595
0.0706816193497046 0.286022757796567 2.06093175782001
3 0 1 2
3 0 2 4
3 3 0 4
3 3 4 6
3 5 3 6
3 5 6 8
3 7 5 8
3 7 8 10
3 9 7 10
3 9 10 12
3 11 9 12
3 13 11 14
3 14 11 12
3 13 14 15
3 16 17 18
3 16 18 1
3 0 19 1
3 19 16 1
3 0 3 20
3 19 0 20
3 3 5 21
3 20 3 21
3 5 7 22
3 21 5 22
3 7 9 23
3 22 7 23
3 9 11 24
3 23 9 24
3 24 11 25
3 25 11 13
3 13 15 26
3 27 13 26
3 25 13 27
3 27 26 28
3 17 16 30
3 30 16 29
3 29 19 31
3 29 16 19
3 31 20 32
3 31 19 20
3 32 21 33
3 32 20 21
3 21 22 33
3 33 22 34
3 22 23 34
3 34 23 35
3 23 24 35
3 35 24 36
3 24 25 36
3 36 25 37
3 37 27 38
3 37 25 27
3 38 28 39
3 38 27 28
3 30 40 41
3 30 29 40
3 29 31 42
3 40 29 42
3 31 32 43
3 42 31 43
3 32 33 44
3 43 32 44
3 33 34 45
3 44 33 45
3 34 35 46
3 45 34 46
3 35 36 47
3 46 35 47
3 36 37 47
3 47 37 48
3 37 38 48
3 48 38 49
3 49 39 50
3 49 38 39
3 40 51 52
3 41 40 52
3 51 42 53
3 51 40 42
3 42 43 53
3 53 43 54
3 43 44 54
3 54 44 55
3 44 45 55
3 55 45 56
3 45 46 56
3 56 46 57
3 46 47 58
3 57 46 58
3 47 48 59
3 58 47 59
3 48 49 60
3 59 48 60
3 49 50 61
3 60 49 61
3 51 62 63
3 52 51 63
3 51 53 64
3 62 51 64
3 53 54 65
3 64 53 65
3 54 55 66
3 65 54 66
3 55 56 67
3 66 55 67
3 56 57 67
3 67 57 68
3 57 58 69
3 68 57 69
3 58 59 69
3 69 59 70
3 59 60 70
3 70 60 71
3 71 61 72
3 71 60 61
3 62 73 74
3 63 62 74
3 62 64 75
3 73 62 75
3 64 65 75
3 75 65 76
3 65 66 76
3 76 66 77
3 66 67 77
3 77 67 78
3 67 68 78
3 78 68 79
3 79 69 80
3 79 68 69
3 80 70 81
3 80 69 70
3 81 71 82
3 81 70 71
3 82 72 83
3 82 71 72
3 74 73 85
3 85 73 84
3 84 73 86
3 86 73 75
3 75 76 86
3 86 76 87
3 76 77 88
3 87 76 88
3 77 78 89
3 88 77 89
3 78 79 90
3 89 78 90
3 79 80 91
3 90 79 91
3 80 81 92
3 91 80 92
3 81 82 93
3 92 81 93
3 93 83 94
3 93 82 83
3 84 95 85
3 84 86 96
3 97 84 96
3 95 84 97
3 96 87 98
3 96 86 87
3 87 88 98
3 98 88 99
3 88 89 99
3 99 89 100
3 89 90 100
3 100 90 101
3 101 91 102
3 101 90 91
3 102 92 103
3 102 91 92
3 92 93 103
3 105 103 104
3 103 93 104
3 93 94 104
3 96 106 97
3 96 98 107
3 106 96 107
3 98 99 108
3 107 98 108
3 99 100 109
3 108 99 109
3 100 101 110
3 109 100 110
3 101 102 111
3 110 101 111
3 111 102 112
3 112 102 103
3 103 105 112
3 117 114 115
3 116 113 117
3 117 113 114
3 116 117 119
3 118 116 119
3 118 119 121
3 120 118 121
3 120 121 123
3 122 120 123
3 122 123 125
3 124 122 125
3 124 125 127
3 126 124 127
3 126 127 128
3 129 130 131
3 114 129 131
3 114 113 129
3 113 2 129
3 129 2 1
3 4 113 116
3 4 2 113
3 6 116 118
3 6 4 116
3 8 118 120
3 8 6 118
3 10 120 122
3 10 8 120
3 12 122 124
3 12 10 122
3 14 124 126
3 14 12 124
3 133 126 128
3 15 14 126
3 15 126 133
3 132 15 133
3 132 133 134
3 135 136 137
3 137 17 135
3 137 18 17
3 18 137 130
3 129 18 130
3 18 129 1
3 15 132 26
3 139 132 134
3 139 138 132
3 138 28 26
3 132 138 26
3 138 139 140
3 136 135 142
3 142 135 141
3 17 30 135
3 135 30 141
3 143 39 28
3 138 143 28
3 143 140 144
3 143 138 140
3 141 145 146
3 142 141 146
3 41 145 141
3 30 41 141
3 147 39 143
3 147 50 39
3 147 144 148
3 147 143 144
3 145 149 150
3 146 145 150
3 52 149 145
3 41 52 145
3 151 50 147
3 151 155 50
3 151 148 152
3 151 147 148
3 149 153 154
3 150 149 154
3 63 153 149
3 52 63 149
3 155 61 50
3 155 72 61
3 155 151 156
3 156 151 152
3 154 157 158
3 154 153 157
3 74 157 153
3 63 74 153
3 159 72 155
3 159 83 72
3 159 156 160
3 159 155 156
3 158 157 162
3 162 157 161
3 74 85 161
3 157 74 161
3 163 83 159
3 163 94 83
3 163 160 164
3 163 159 160
3 161 165 162
3 165 95 166
3 165 161 95
3 161 85 95
3 165 166 167
3 95 97 166
3 105 104 168
3 170 94 163
3 170 168 94
3 169 168 170
3 94 168 104
3 163 164 170
3 166 171 167
3 173 171 172
3 172 171 106
3 171 97 106
3 171 166 97
3 172 107 174
3 172 106 107
3 174 108 175
3 174 107 108
3 175 109 176
3 175 108 109
3 176 110 177
3 176 109 110
3 177 111 178
3 177 110 111
3 178 112 180
3 178 111 112
3 181 105 168
3 181 180 105
3 179 178 180
3 180 112 105
3 168 169 181
3 172 182 173
3 182 172 183
3 183 172 174
3 174 175 184
3 183 174 184
3 175 176 185
3 184 175 185
3 176 177 186
3 185 176 186
3 177 178 187
3 186 177 187
3 187 179 188
3 187 178 179
3 179 180 229
3 189 190 191
3 114 131 191
3 115 114 191
3 115 191 192
3 115 192 193
3 117 115 193
3 119 193 194
3 119 117 193
3 119 194 121
3 121 194 195
3 121 195 123
3 123 195 196
3 123 196 125
3 125 196 197
3 127 197 198
3 127 125 197
3 128 198 199
3 200 128 199
3 128 127 198
3 200 199 201
3 202 203 204
3 131 130 189
3 190 189 204
3 189 130 202
3 189 202 204
3 131 189 191
3 128 200 133
3 134 200 205
3 206 205 201
3 134 133 200
3 205 200 201
3 205 206 207
3 136 208 203
3 202 137 136
3 202 136 203
3 137 202 130
3 134 205 139
3 139 205 207
3 140 139 207
3 211 207 209
3 136 142 208
3 208 142 210
3 211 140 207
3 211 144 140
3 146 212 210
3 142 146 210
3 148 144 213
3 213 144 211
3 150 214 212
3 146 150 212
3 215 148 213
3 215 152 148
3 154 216 150
3 150 216 214
3 219 152 217
3 217 152 215
3 158 218 216
3 154 158 216
3 219 156 152
3 219 160 156
3 158 220 218
3 158 162 220
3 221 160 219
3 221 164 160
3 162 165 222
3 223 220 222
3 220 162 222
3 165 167 222
3 169 170 224
3 225 164 221
3 224 170 164
3 224 164 225
3 222 226 223
3 167 171 227
3 226 167 227
3 226 227 228
3 226 222 167
3 171 173 227
3 180 181 229
3 181 169 230
3 231 169 224
3 230 169 231
3 230 229 181
3 224 225 271
3 227 232 228
3 232 182 233
3 232 173 182
3 227 173 232
3 182 183 234
3 233 182 234
3 183 184 234
3 234 184 235
3 184 185 235
3 235 185 236
3 185 186 236
3 236 186 237
3 186 187 237
3 237 187 238
3 238 188 239
3 238 187 188
3 188 179 229
3 240 239 188
3 240 188 229
3 229 230 240
3 191 190 242
3 242 190 241
3 192 242 243
3 192 191 242
3 192 243 244
3 193 192 244
3 194 244 245
3 194 193 244
3 194 245 246
3 195 194 246
3 195 246 247
3 196 195 247
3 196 247 248
3 197 196 248
3 197 248 249
3 198 197 249
3 199 198 249
3 250 199 249
3 201 199 251
3 251 199 250
3 204 252 253
3 204 203 252
3 190 253 241
3 190 204 253
3 206 251 254
3 206 201 251
3 207 206 255
3 255 206 254
3 203 256 252
3 203 208 256
3 257 209 255
3 255 209 207
3 210 258 208
3 208 258 256
3 211 209 259
3 259 209 257
3 212 260 210
3 210 260 258
3 213 211 259
3 261 213 259
3 214 262 260
3 212 214 260
3 215 213 261
3 263 215 261
3 216 264 214
3 214 264 262
3 217 215 263
3 265 217 263
3 218 266 264
3 216 218 264
3 219 217 265
3 267 219 265
3 218 268 266
3 218 220 268
3 221 219 267
3 269 221 267
3 223 270 268
3 220 223 268
3 225 221 269
3 271 225 269
3 223 226 272
3 270 223 272
3 272 228 273
3 272 226 228
3 274 231 275
3 274 230 231
3 275 231 271
3 271 231 224
3 273 228 276
3 276 228 232
3 276 233 277
3 276 232 233
3 233 234 278
3 277 233 278
3 234 235 279
3 278 234 279
3 235 236 280
3 279 235 280
3 236 237 281
3 280 236 281
3 237 238 282
3 281 237 282
3 238 239 283
3 282 238 283
3 327 239 284
3 284 239 240
3 240 230 274
3 284 240 274
3 241 285 286
3 242 241 286
3 242 286 243
3 243 286 287
3 243 287 288
3 244 243 288
3 245 288 289
3 245 244 288
3 245 289 246
3 246 289 290
3 246 290 247
3 247 290 291
3 247 291 248
3 248 291 292
3 248 292 293
3 249 248 293
3 249 293 250
3 250 293 294
3 250 294 295
3 251 250 295
3 252 296 297
3 253 252 297
3 241 297 285
3 241 253 297
3 254 295 298
3 254 251 295
3 254 298 299
3 255 254 299
3 256 300 252
3 252 300 296
3 257 255 299
3 301 257 299
3 258 302 300
3 256 258 300
3 259 257 303
3 303 257 301
3 260 304 258
3 258 304 302
3 261 259 303
3 305 261 303
3 262 306 304
3 260 262 304
3 263 261 305
3 307 263 305
3 264 308 262
3 262 308 306
3 265 263 307
3 309 265 307
3 266 310 308
3 264 266 308
3 267 265 309
3 311 267 309
3 266 312 310
3 266 268 312
3 269 267 311
3 313 269 311
3 270 314 312
3 268 270 312
3 271 269 315
3 315 269 313
3 270 272 316
3 314 270 316
3 316 273 317
3 316 272 273
3 318 275 319
3 318 274 275
3 275 271 315
3 319 275 315
3 273 276 320
3 317 273 320
3 276 277 320
3 320 277 321
3 277 278 322
3 321 277 322
3 322 279 323
3 322 278 279
3 279 280 323
3 323 280 324
3 280 281 324
3 324 281 325
3 281 282 325
3 325 282 326
3 282 283 326
3 326 283 327
3 283 239 327
3 327 284 328
3 284 274 318
3 328 284 318
3 285 329 330
3 286 285 330
3 286 330 287
3 287 330 331
3 287 331 332
3 288 287 332
3 288 332 289
3 289 332 333
3 289 333 334
3 290 289 334
3 290 334 335
3 291 290 335
3 291 335 292
3 292 335 336
3 292 336 337
3 293 292 337
3 293 337 294
3 294 337 338
3 294 338 339
3 295 294 339
3 296 340 341
3 297 296 341
3 285 341 329
3 285 297 341
3 298 339 342
3 298 295 339
3 298 342 343
3 299 298 343
3 300 344 296
3 296 344 340
3 301 299 343
3 345 301 343
3 302 346 344
3 300 302 344
3 303 301 347
3 347 301 345
3 304 348 302
3 302 348 346
3 305 303 347
3 349 305 347
3 306 350 348
3 304 306 348
3 307 305 351
3 351 305 349
3 308 352 306
3 306 352 350
3 309 307 353
3 353 307 351
3 310 354 352
3 308 310 352
3 311 309 355
3 355 309 353
3 312 356 310
3 310 356 354
3 313 311 355
3 357 313 355
3 314 358 356
3 312 314 356
3 315 313 359
3 359 313 357
3 314 316 360
3 358 314 360
3 360 317 361
3 360 316 317
3 362 319 363
3 362 318 319
3 319 315 359
3 363 319 359
3 317 320 364
3 361 317 364
3 320 321 364
3 364 321 365
3 321 322 366
3 365 321 366
3 322 323 366
3 366 323 367
3 323 324 368
3 367 323 368
3 324 325 369
3 368 324 369
3 325 326 370
3 369 325 370
3 326 327 371
3 370 326 371
3 327 328 371
3 371 328 372
3 328 318 362
3 372 328 362
3 329 373 374
3 330 329 374
3 330 374 331
3 331 374 375
3 331 375 376
3 332 331 376
3 332 376 333
3 333 376 377
3 333 377 378
3 334 333 378
3 334 378 379
3 335 334 379
3 335 379 336
3 336 379 380
3 336 380 381
3 337 336 381
3 337 381 338
3 338 381 382
3 338 382 383
3 339 338 383
3 340 384 385
3 341 340 385
3 329 385 373
3 329 341 385
3 342 383 386
3 342 339 383
3 342 386 387
3 343 342 387
3 344 388 340
3 340 388 384
3 345 343 387
3 389 345 387
3 346 390 388
3 344 346 388
3 347 345 391
3 391 345 389
3 348 392 346
3 346 392 390
3 349 347 391
3 393 349 391
3 350 394 348
3 348 394 392
3 351 349 395
3 395 349 393
3 352 396 350
3 350 396 394
3 353 351 395
3 397 353 395
3 354 398 396
3 352 354 396
3 355 353 399
3 399 353 397
3 356 400 354
3 354 400 398
3 357 355 399
3 401 357 399
3 358 402 400
3 356 358 400
3 359 357 403
3 403 357 401
3 358 360 404
3 402 358 404
3 404 361 405
3 404 360 361
3 406 363 407
3 406 362 363
3 363 359 403
3 407 363 403
3 361 364 408
3 405 361 408
3 364 365 408
3 408 365 409
3 365 366 410
3 409 365 410
3 366 367 410
3 410 367 411
3 367 368 412
3 411 367 412
3 368 369 412
3 412 369 413
3 369 370 413
3 413 370 414
3 370 371 415
3 414 370 415
3 371 372 415
3 415 372 416
3 372 362 406
3 416 372 406
3 373 417 418
3 374 373 418
3 374 418 375
3 375 418 419
3 375 419 420
3 376 375 420
3 376 420 377
3 377 420 421
3 377 421 422
3 378 377 422
3 378 422 423
3 379 378 423
3 380 423 424
3 380 379 423
3 380 424 425
3 381 380 425
3 382 425 426
3 382 381 425
3 382 426 427
3 383 382 427
3 384 428 429
3 385 384 429
3 373 429 417
3 373 385 429
3 386 427 430
3 386 383 427
3 386 430 431
3 387 386 431
3 384 432 428
3 384 388 432
3 389 387 431
3 433 389 431
3 390 434 432
3 388 390 432
3 435 389 433
3 435 391 389
3 390 436 434
3 390 392 436
3 393 391 435
3 437 393 435
3 394 438 436
3 392 394 436
3 395 393 439
3 439 393 437
3 396 440 438
3 394 396 438
3 397 395 439
3 441 397 439
3 398 442 440
3 396 398 440
3 399 397 443
3 443 397 441
3 400 444 398
3 398 444 442
3 401 399 443
3 445 401 443
3 402 446 444
3 400 402 444
3 403 401 447
3 447 401 445
3 402 404 448
3 446 402 448
3 448 405 449
3 448 404 405
3 450 407 451
3 450 406 407
3 407 403 447
3 451 407 447
3 405 408 452
3 449 405 452
3 408 409 452
3 452 409 453
3 409 410 454
3 453 409 454
3 410 411 454
3 454 411 455
3 411 412 456
3 455 411 456
3 412 413 456
3 456 413 457
3 457 414 458
3 457 413 414
3 414 415 459
3 458 414 459
3 415 416 459
3 459 416 460
3 416 406 450
3 460 416 450
3 418 461 462
3 418 417 461
3 419 462 463
3 419 418 462
3 419 463 464
3 420 419 464
3 420 464 421
3 421 464 465
3 421 465 466
3 422 421 466
3 422 466 467
3 423 422 467
3 424 467 468
3 424 423 467
3 424 468 469
3 425 424 469
3 426 469 470
3 426 425 469
3 427 426 471
3 471 426 470
3 429 428 473
3 473 428 472
3 417 473 505
3 417 429 473
3 430 427 471
3 520 430 471
3 431 474 475
3 431 430 474
3 428 476 472
3 428 432 476
3 433 431 475
3 477 433 475
3 434 478 476
3 432 434 476
3 479 433 477
3 479 435 433
3 434 480 478
3 434 436 480
3 437 435 479
3 481 437 479
3 438 482 436
3 436 482 480
3 439 437 483
3 483 437 481
3 440 484 482
3 438 440 482
3 441 439 483
3 485 441 483
3 442 486 440
3 440 486 484
3 443 441 487
3 487 441 485
3 444 488 442
3 442 488 486
3 445 443 487
3 489 445 487
3 444 446 488
3 488 446 490
3 491 445 489
3 491 447 445
3 490 446 492
3 492 446 448
3 492 449 493
3 492 448 449
3 494 451 495
3 494 450 451
3 451 447 491
3 495 451 491
3 449 452 496
3 493 449 496
3 496 453 497
3 496 452 453
3 453 454 498
3 497 453 498
3 498 455 499
3 498 454 455
3 455 456 500
3 499 455 500
3 456 457 501
3 500 456 501
3 457 458 502
3 501 457 502
3 458 459 503
3 502 458 503
3 503 460 504
3 503 459 460
3 504 460 494
3 494 460 450
3 461 505 506
3 462 461 506
3 507 463 462
3 507 462 506
3 465 463 508
3 508 463 507
3 464 463 465
3 465 508 509
3 465 509 466
3 466 509 510
3 466 510 467
3 467 510 511
3 467 511 468
3 468 511 512
3 468 512 513
3 469 468 513
3 469 513 470
3 515 470 514
3 470 513 514
3 470 515 471
3 472 516 473
3 518 516 517
3 518 505 516
3 461 417 505
3 505 473 516
3 505 518 506
3 515 514 519
3 474 430 520
3 521 520 519
3 520 471 515
3 520 515 519
3 474 520 524
3 476 522 472
3 516 472 523
3 472 522 523
3 516 523 517
3 520 521 524
3 477 475 524
3 524 475 474
3 525 477 524
3 478 526 522
3 476 478 522
3 527 477 525
3 527 479 477
3 478 528 526
3 478 480 528
3 481 479 527
3 529 481 527
3 482 530 480
3 480 530 528
3 483 481 531
3 531 481 529
3 484 532 530
3 482 484 530
3 485 483 531
3 533 485 531
3 486 534 484
3 484 534 532
3 535 485 533
3 535 487 485
3 486 536 534
3 486 488 536
3 537 489 535
3 535 489 487
3 490 538 539
3 536 490 539
3 488 490 536
3 538 540 539
3 541 542 543
3 541 489 537
3 542 541 537
3 541 491 489
3 490 492 538
3 545 493 544
3 538 492 493
3 538 493 545
3 540 538 545
3 544 546 545
3 547 548 549
3 543 495 541
3 547 494 495
3 547 495 543
3 608 547 543
3 495 491 541
3 493 496 544
3 544 497 550
3 546 544 550
3 544 496 497
3 550 497 551
3 551 497 498
3 498 499 551
3 551 499 552
3 499 500 552
3 552 500 553
3 500 501 553
3 553 501 554
3 554 502 555
3 554 501 502
3 502 503 556
3 555 502 556
3 503 504 556
3 549 504 547
3 556 504 549
3 504 494 547
3 506 557 507
3 507 557 558
3 508 507 558
3 508 558 559
3 509 508 559
3 509 559 560
3 510 509 560
3 510 560 561
3 511 510 561
3 511 561 562
3 512 511 562
3 514 512 563
3 563 512 562
3 513 512 514
3 517 564 518
3 518 564 557
3 566 564 565
3 557 564 566
3 557 506 518
3 558 566 567
3 558 557 566
3 559 567 568
3 559 558 567
3 560 568 569
3 560 559 568
3 561 569 570
3 561 560 569
3 562 570 571
3 562 561 570
3 563 562 571
3 572 563 571
3 574 514 563
3 572 574 563
3 573 519 574
3 574 519 514
3 519 573 521
3 522 575 523
3 577 575 576
3 577 517 575
3 564 517 577
3 575 517 523
3 564 577 565
3 573 574 572
3 521 573 579
3 580 573 578
3 579 573 580
3 579 524 521
3 524 579 525
3 522 581 575
3 522 526 581
3 576 581 582
3 576 575 581
3 583 580 584
3 583 579 580
3 583 525 579
3 583 527 525
3 526 585 581
3 526 528 585
3 582 585 586
3 582 581 585
3 587 584 588
3 587 583 584
3 587 527 583
3 587 529 527
3 528 589 585
3 528 530 589
3 586 589 590
3 586 585 589
3 591 588 592
3 591 587 588
3 591 529 587
3 591 531 529
3 532 593 589
3 530 532 589
3 590 593 594
3 590 589 593
3 595 592 596
3 595 591 592
3 595 531 591
3 595 533 531
3 534 597 593
3 532 534 593
3 594 597 598
3 594 593 597
3 599 596 600
3 599 595 596
3 599 533 595
3 599 535 533
3 534 601 597
3 534 536 601
3 602 597 601
3 602 598 597
3 603 599 600
3 604 603 600
3 603 535 599
3 603 537 535
3 536 539 601
3 606 540 605
3 606 602 540
3 602 601 539
3 540 602 539
3 605 607 606
3 608 609 610
3 608 543 609
3 604 542 603
3 609 543 542
3 609 542 604
3 542 537 603
3 540 545 605
3 605 546 607
3 612 607 611
3 605 545 546
3 607 546 611
3 612 613 614
3 612 611 613
3 614 615 616
3 614 613 615
3 616 617 618
3 616 615 617
3 618 619 620
3 618 617 619
3 620 621 622
3 620 619 621
3 622 623 624
3 622 621 623
3 610 548 608
3 624 623 548
3 624 548 610
3 548 623 549
3 548 547 608
3 546 550 611
3 611 550 613
3 613 550 551
3 551 552 615
3 613 551 615
3 552 553 617
3 615 552 617
3 553 554 619
3 617 553 619
3 554 555 621
3 619 554 621
3 621 555 623
3 623 555 556
3 556 549 623
3 565 625 626
3 567 566 626
3 626 566 565
3 567 626 627
3 568 567 627
3 568 627 628
3 569 568 628
3 569 628 629
3 570 569 629
3 570 629 630
3 571 570 630
3 572 571 631
3 631 571 630
3 572 631 578
3 576 632 577
3 625 632 633
3 565 577 632
3 565 632 625
3 625 633 634
3 626 625 634
3 626 634 627
3 627 634 635
3 627 635 628
3 628 635 636
3 628 636 629
3 629 636 637
3 629 637 630
3 630 637 638
3 631 638 639
3 631 630 638
3 640 578 639
3 578 573 572
3 578 631 639
3 578 640 580
3 576 641 632
3 576 582 641
3 633 641 642
3 633 632 641
3 633 642 643
3 634 633 643
3 634 643 644
3 635 634 644
3 635 644 645
3 636 635 645
3 636 645 646
3 637 636 646
3 637 646 647
3 638 637 647
3 638 647 648
3 639 638 648
3 640 648 649
3 640 639 648
3 584 580 640
3 649 584 640
3 582 650 641
3 582 586 650
3 642 650 651
3 642 641 650
3 642 651 652
3 643 642 652
3 643 652 653
3 644 643 653
3 644 653 645
3 645 653 654
3 645 654 646
3 646 654 655
3 646 655 647
3 647 655 656
3 647 656 648
3 648 656 657
3 648 657 649
3 649 657 658
3 588 584 649
3 658 588 649
3 586 659 650
3 586 590 659
3 650 659 651
3 651 659 660
3 651 660 661
3 652 651 661
3 652 661 662
3 653 652 662
3 653 662 654
3 654 662 663
3 654 663 664
3 655 654 664
3 655 664 665
3 656 655 665
3 656 665 666
3 657 656 666
3 657 666 658
3 658 666 667
3 592 588 658
3 667 592 658
3 590 668 659
3 590 594 668
3 660 668 669
3 660 659 668
3 660 669 670
3 661 660 670
3 661 670 671
3 662 661 671
3 662 671 663
3 663 671 672
3 663 672 664
3 664 672 673
3 664 673 665
3 665 673 674
3 665 674 666
3 666 674 675
3 666 675 667
3 667 675 676
3 596 592 667
3 676 596 667
3 594 677 668
3 594 598 677
3 668 677 669
3 669 677 678
3 669 678 679
3 670 669 679
3 670 679 680
3 671 670 680
3 671 680 681
3 672 671 681
3 672 681 682
3 673 672 682
3 673 682 683
3 674 673 683
3 674 683 684
3 675 674 684
3 676 684 685
3 676 675 684
3 600 596 676
3 685 600 676
3 598 686 677
3 598 602 606
3 678 686 687
3 678 677 686
3 678 687 679
3 679 687 688
3 679 688 680
3 680 688 689
3 680 689 681
3 681 689 690
3 681 690 682
3 682 690 691
3 683 691 692
3 683 682 691
3 684 692 693
3 684 683 692
3 685 693 694
3 685 684 693
3 694 604 685
3 685 604 600
3 598 606 686
3 606 607 695
3 686 606 695
3 686 695 687
3 688 687 696
3 696 687 695
3 688 696 697
3 689 688 697
3 689 697 698
3 690 689 698
3 690 698 699
3 691 690 699
3 691 699 700
3 692 691 700
3 692 700 701
3 693 692 701
3 610 609 694
3 701 610 694
3 701 694 693
3 609 604 694
3 607 612 695
3 695 612 696
3 696 612 614
3 614 616 697
3 696 614 697
3 616 618 698
3 697 616 698
3 618 620 699
3 698 618 699
3 620 622 700
3 699 620 700
3 622 624 701
3 700 622 701
3 624 610 701
