OFF
702 1400 0
-0.260955263594792 -0.324732486725492 2.21920285040676
-0.306421864973773 -0.311141122889769 2.20142546246224
-0.278426171754978 -0.330877309765216 2.17405598433757
-0.21406921310335 -0.331320641232718 2.22379603138543
-0.232473638769769 -0.34159183804315 2.17923596474532
-0.167249891426944 -0.335977387649175 2.22680793469962
-0.186076367480239 -0.345835067496034 2.18122453224378
-0.121856624977998 -0.33997035182521 2.23102018530754
-0.140744595345266 -0.349871695999885 2.18291659915286
-0.0769471711607365 -0.343763844083944 2.23558861745853
-0.0959690912316142 -0.353467745344851 2.18740336262745
-0.0294193186313971 -0.346758654870592 2.24304271246071
-0.0501513772956381 -0.356669353763297 2.19573316461886
0.0187203067420636 -0.342260461539987 2.25114473977882
-0.00280107916451035 -0.358175173169098 2.20456176647931
0.0437579050319112 -0.349221531150835 2.21304564384795
-0.328898632616315 -0.282259733272599 2.22944599841579
-0.358709737012923 -0.265164338414789 2.20193739991805
-0.337659010535345 -0.295480914509066 2.17371559207932
-0.288398498980436 -0.298052304516238 2.24916822108441
-0.241667770182468 -0.306971030200686 2.26107532653353
-0.193959764406389 -0.31225358988651 2.26477070649171
-0.147173157127123 -0.316141153736571 2.26998678084005
-0.101935375845664 -0.319473823919499 2.2756521168568
-0.05763223576301 -0.324829217908336 2.27809737411138
-0.00895711112099366 -0.325563030923137 2.28516756707505
0.0647149475623393 -0.326058614418229 2.25645046307136
0.0362728899110808 -0.313362434446077 2.29260415246369
0.0823780818569414 -0.293255203365949 2.28989414768035
-0.315777827099757 -0.260982188001957 2.27072956849945
-0.355990598080809 -0.240788214468768 2.24266847614783
-0.269758277127348 -0.274277472654234 2.28824241727833
-0.219789621227321 -0.280565207718269 2.29617932343308
-0.172174771348581 -0.28485682888051 2.3012594202653
-0.124527429777386 -0.287226121926381 2.30828493630761
-0.0798011986066522 -0.28990259035246 2.31442247751124
-0.0375702181101887 -0.299278900496966 2.31331302747571
0.00381730406486196 -0.290925638082271 2.32370198171764
0.0494920241849916 -0.277521495156166 2.3247856017453
0.0942998532475087 -0.255312944016351 2.31783171930637
-0.333916354369281 -0.223500899209913 2.29105034870052
-0.367142797101406 -0.202277422106686 2.26446737001081
-0.292885940667155 -0.238212628080883 2.31221407642178
-0.243845418641432 -0.248726775020241 2.32334711839521
-0.195053151582656 -0.250818915457553 2.33105751622253
-0.147588424117345 -0.25554019754086 2.3356755429801
-0.0960535434204076 -0.256284840150134 2.34510627741263
-0.0412054665297046 -0.265671833674387 2.34647802737788
0.00927583318746371 -0.258287421605954 2.3555081320987
0.0597617738648793 -0.242803925973521 2.35380955801527
0.104507369548544 -0.216820877247919 2.3454360608464
-0.317816912737269 -0.198921923573028 2.33326206663262
-0.358384673026762 -0.181385267207463 2.30214340383021
-0.268545042334982 -0.215987423493383 2.34815499238711
-0.221097683974633 -0.218172986709398 2.35882726576504
-0.175523590720753 -0.219128212000583 2.36686840565499
-0.131583251002601 -0.226966038077271 2.36764759423611
-0.0979839164944649 -0.214834306320349 2.38651692867557
-0.0632159869552618 -0.234255153387926 2.37380553753476
-0.0208551745653222 -0.230656661658277 2.38444176266099
0.027059775284217 -0.224134472251286 2.38551728823273
0.0751108035739034 -0.205401707983969 2.38093688538922
-0.320796224633831 -0.157968154666961 2.37301901569831
-0.348971504347624 -0.160526497287918 2.33829287123792
-0.287936209253946 -0.184351002394335 2.37055685201002
-0.240804071847739 -0.186560365013458 2.3868005972167
-0.19601830528664 -0.185233382272364 2.39699450776857
-0.147093638929021 -0.190170150141154 2.40168266516838
-0.101597160821707 -0.184237820855733 2.41665296560224
-0.0542124651189043 -0.197672545714366 2.4124689971361
-0.00616772660553556 -0.197450567694881 2.41766985898207
0.0415955868386487 -0.190203683762651 2.41394735712103
0.0890545831980088 -0.168147928557902 2.4064317715876
-0.31003189320507 -0.133138728493906 2.40799498656129
-0.354265954034359 -0.120766712138537 2.3728714871933
-0.271390002151263 -0.157635203523035 2.40631848993648
-0.225341590628075 -0.151211865102467 2.42550211880919
-0.175287112797014 -0.155684805543386 2.43088216359263
-0.129449815875793 -0.155373333043228 2.44025302320301
-0.0778984232615562 -0.15935626807722 2.44642182576492
-0.0329539783021898 -0.165889149973678 2.44835578244009
0.0134287200413791 -0.16301456948313 2.44937838811817
0.0573355520114143 -0.155881503618344 2.44013188317177
0.0937512837088094 -0.130232015828367 2.4386474111932
-0.305064139847947 -0.0930049270224991 2.44335492797862
-0.339057393431459 -0.102053773446306 2.41042587267474
-0.271685776845712 -0.123292350774075 2.43908640003757
-0.237019568575233 -0.11126533256158 2.45664237449256
-0.194286774758489 -0.119870906242663 2.4582350951947
-0.149134360789319 -0.120070466603723 2.46583217867581
-0.101907118834161 -0.123472380914814 2.47163338771609
-0.0532812040107581 -0.127660462011118 2.47715697652391
-0.0049924478166633 -0.13084540400206 2.47873620125194
0.0465689493110333 -0.125309511705124 2.47087591520647
0.0939449121775765 -0.0942976893623765 2.46262132300274
-0.346315643394354 -0.0625980412260549 2.42697663883344
-0.267726388973507 -0.0734140998422926 2.46891779284219
-0.311266588577293 -0.0489415729762901 2.4579299062276
-0.218224269308298 -0.0740427555362783 2.47802135816957
-0.172174795929319 -0.0788770942366973 2.48303930125895
-0.125472207270605 -0.0799472572297204 2.48953368827725
-0.07965773105812 -0.0846492718050212 2.49457570744711
-0.0329734379183786 -0.0892611626269756 2.49949619381423
0.0136820484002655 -0.0910914001160291 2.49731949652144
0.0579966819837805 -0.0850673703255513 2.48691800506866
0.0398899810388496 -0.0459725723733214 2.50315169592949
-0.28426023281447 -0.0218098952670094 2.47549948388591
-0.24179616906532 -0.030951746290116 2.48543009105665
-0.192741896366762 -0.0329139750144146 2.4915303069093
-0.146963422820981 -0.0341423947905 2.49725894458959
-0.100655283746842 -0.0356905819469624 2.50299384729311
-0.0560807180430772 -0.0425187071870979 2.50791472038898
-0.00836757704740827 -0.0470198653331363 2.51078756143432
-0.256612552602442 -0.339122555687375 2.13482695136261
-0.280482203963466 -0.325484485721252 2.09928445048686
-0.257046621952403 -0.319191310315633 2.06158950413968
-0.207012276795435 -0.34577107476178 2.13539297961815
-0.228745331386158 -0.337162569238337 2.09428843974954
-0.160966835778048 -0.348821507646568 2.13464792611018
-0.180611990591337 -0.33786594061976 2.08860951303498
-0.11555230546537 -0.352040130593716 2.13710349219624
-0.135303380938101 -0.339728970879684 2.08919929904818
-0.0702073941289375 -0.355826432078401 2.1447312167559
-0.0877175785248482 -0.343586587193436 2.095262637985
-0.0252697944962328 -0.359796795242859 2.15504944172888
-0.0419823942416202 -0.348450302312203 2.10441950900203
0.020817868047146 -0.358551328279628 2.16344519293596
0.00225733492751019 -0.352758094156122 2.11566211090157
0.0502292065543111 -0.345985775987252 2.1244546893767
-0.308077181530814 -0.318560050142129 2.14256074635386
-0.346486985394992 -0.288070797210658 2.12635483635793
-0.317091866603572 -0.304201009361688 2.09402793144575
0.0885736860243427 -0.329170976668133 2.21692607062533
0.0640572215224785 -0.346941846755225 2.17247444759899
0.103818060396282 -0.325665892475972 2.17414953074874
-0.383881821425293 -0.229489126531391 2.19199592656592
-0.394313441512882 -0.21750347425835 2.14231250262052
-0.371664170550202 -0.259965409237495 2.15566188881188
0.109882198798569 -0.300653626829775 2.25016706085648
0.130329472968419 -0.299618530923023 2.20575216248345
0.14766916251432 -0.268142857933786 2.23266916921389
-0.385794037405456 -0.20052846547577 2.22318649043172
-0.401736212612271 -0.184847263699811 2.17676550807959
0.124053959961063 -0.264671737123671 2.27800243225208
0.155246425766902 -0.228576400975403 2.26287610400313
-0.389223924710337 -0.161605384530294 2.25666293480366
-0.402018475671555 -0.154631018135094 2.21288200647766
0.132206074369407 -0.224103248543087 2.30560605438687
0.16196887843658 -0.186515267321764 2.28669358615122
-0.383475591181405 -0.142200431304967 2.29425304975378
-0.403944262694552 -0.114124239017692 2.25181971475481
0.141158289579742 -0.182883398740789 2.3306491525
0.166694682599171 -0.14440368543633 2.31252791403339
-0.375375372861291 -0.123823005850952 2.33296141047661
-0.399164335387582 -0.0959352448454414 2.29692031297636
0.11811797652436 -0.175616702929493 2.36988537916996
0.150785840372119 -0.13768965772731 2.35524098406959
-0.388893038092846 -0.0836871304149762 2.34479744708839
-0.407087718775958 -0.0496034244526398 2.31326947563901
0.125832275410825 -0.135517379906677 2.39801061921875
0.15617876434699 -0.0975691090534114 2.38058308039382
-0.373208621153356 -0.0757834654003095 2.38616796756619
-0.39735196272771 -0.0380327857244834 2.36049491331397
0.129576208243198 -0.098024070736316 2.42596057037081
0.153420536916731 -0.0602626951284565 2.41182067265863
-0.375779963959652 -0.0304864538783359 2.40323292573639
-0.343522457654656 -0.0189466290594539 2.44054075735567
-0.363178421939637 0.0143891844721183 2.42063061156977
0.0870174998029341 -0.0471911784303986 2.48227825489984
0.110494837506563 -0.00805513678242059 2.4676400070034
0.123641432576692 -0.055758593104233 2.4518163646599
-0.317845709373781 0.0086833032812038 2.45940240167878
-0.26525994942252 0.0192889234219365 2.4809986569509
-0.297108430293246 0.0474733090342997 2.46342707048637
-0.215692486658915 0.0104933720341391 2.4897190108407
-0.168413354613007 0.0132031049927247 2.49471081264754
-0.121800098876897 0.0116352900044989 2.50000643233202
-0.0749734172383335 0.0100007792290078 2.50531235037185
-0.0320601103291622 -0.000887130818321456 2.51121562437198
-0.00642088939537215 0.0353449230943895 2.50484620868648
0.0185933889997772 -0.00484114646940137 2.5092935705319
0.0672655769543437 -0.00494096001850195 2.49424186793815
-0.263447020614203 0.0766044278823327 2.4652235871385
-0.2319280280477 0.052937449962173 2.4800022423114
-0.187773300562043 0.0580234188703474 2.48248808963825
-0.141672563155807 0.0578350560215204 2.48674765393973
-0.0949895008926185 0.0556278119185876 2.49176383587436
-0.0465835451677646 0.0536935352855617 2.49681494459131
0.00936295729515062 0.0721623373432651 2.48868515285226
-0.344670704704832 -0.272872599392566 2.0767161746663
-0.328440282150556 -0.260567478203622 2.03730834475605
-0.297988617958963 -0.296207804848558 2.0520443331384
-0.2492875275597 -0.297859803617015 2.0249919040794
-0.207384902990164 -0.320946875414667 2.05160373652278
-0.156853505530685 -0.31707949664266 2.04461832664032
-0.1068810829756 -0.322354462591521 2.05270103585285
-0.0548328687686694 -0.326590385417086 2.05916951571178
-0.00953339225274356 -0.332210223952517 2.0679349724722
0.0346008997145811 -0.335367136721803 2.08394851247152
0.0771255569767621 -0.317601125525166 2.08226676341325
0.0899260466941089 -0.329590451433597 2.13064336174609
0.116621448239746 -0.304150061100004 2.11178964208679
-0.374298079120463 -0.249455752442185 2.10934761467648
-0.391705472513714 -0.203434349289257 2.09474619179759
-0.368538885617784 -0.231445101452316 2.06550075673752
0.133433560550467 -0.299861020865437 2.15617524131129
0.149415783965308 -0.272391935227121 2.123765584403
0.159636869993715 -0.267143014180504 2.17874236398535
-0.40558308875775 -0.169040664472827 2.13003791017643
0.179661397105911 -0.225193433726673 2.17444289335741
-0.408273994064982 -0.136852979672892 2.16146340102141
0.171796811992288 -0.231350574012557 2.21723204190574
-0.408986236510856 -0.113100338743965 2.20336077771255
0.177769219499354 -0.188511394547977 2.23939473978689
-0.410747010658014 -0.0727223075585109 2.21739626053251
0.180687078118042 -0.147414226828471 2.26184709637848
-0.410469333359297 -0.0631675686350361 2.26430426578131
0.181651723206642 -0.109068415431871 2.28768489493388
-0.413242230374355 -0.0148150584322367 2.28093971642841
0.174083953754136 -0.0947114595430216 2.33263872350409
-0.409161243248756 -0.00197517633445101 2.33084843170736
0.174637401540527 -0.054563904552082 2.36394272136055
-0.39211809834821 0.00816317783696323 2.37845505583252
-0.398395002606437 0.0443850796024044 2.3481088715019
0.143568541474551 -0.0147767639550332 2.43386487289575
0.167705285194194 -0.0201979541809995 2.39291388153844
-0.374457656009753 0.0518566759328797 2.39392601257579
-0.339538927577503 0.0488930525739086 2.43518829810702
-0.346313175834944 0.0893438176514423 2.40590524078391
0.0434392244417033 0.0362989203410117 2.49550285321816
0.0898285228424331 0.0349726883471052 2.4737449166527
0.128590226676891 0.0313892164416073 2.44168697241181
-0.309439673541549 0.0867489922681006 2.43931140741298
-0.268717827387508 0.11326914339111 2.44136392859905
-0.216279948851928 0.097905726958488 2.46142385951134
-0.167217794100111 0.0997233499603897 2.46373453359735
-0.119868874504421 0.098435009176262 2.4677852971235
-0.0725121170410061 0.0951030677841781 2.47317488069841
-0.0265104432931661 0.0954720259901036 2.47592378797942
0.0271649620836188 0.105670129975095 2.46264164207791
0.06069604844065 0.073904477765647 2.47223778132375
-0.317041945804905 -0.230330185064809 2.00066684834571
-0.285876153286995 -0.269406357258716 2.01157835165198
-0.237463455150338 -0.267729713079544 1.99107831261725
-0.200306901045042 -0.295301587999652 2.01538850540567
-0.156592646186154 -0.284075931126224 2.00545893245955
-0.116390705848395 -0.291732034923107 2.01475942071183
-0.0694118193408403 -0.300467495054623 2.02548883881352
-0.0132362674055344 -0.301888994997106 2.0291401086854
0.0342999517329905 -0.311079061188332 2.04669949806587
0.0797358673659294 -0.287794311359148 2.0446664961011
0.117888403272881 -0.282309082827048 2.07651315680233
-0.379897571370003 -0.17966587427153 2.04966396373695
-0.352467714627925 -0.218367402162973 2.03000725218651
0.150976224679903 -0.246046434383571 2.08507780030933
0.171446776258196 -0.236414418908511 2.13283609707511
-0.398629242129729 -0.155960076418704 2.08850614518586
0.188418835088071 -0.188219807622259 2.14489225218536
-0.403502838402366 -0.11393332602103 2.11591798690405
0.187634376398006 -0.183567701501017 2.19447140021354
-0.407044203805305 -0.0882954303224036 2.16250646908826
0.188746734365612 -0.140257471834429 2.21459343467776
-0.405745431891105 -0.0439614287051178 2.18066136531802
0.188887675638495 -0.100005376581877 2.23980121348386
-0.410323317219437 -0.0261084514858192 2.23092994325025
0.186268501185283 -0.0670380384746659 2.28344985692565
-0.408734838270483 0.0199445380482704 2.24770678128969
0.183517086606318 -0.0438005585651381 2.32182027073979
-0.409888816953254 0.0326718324583135 2.29854974064691
0.179136365966009 0.00134875230002061 2.35523173084068
-0.394395036789313 0.0783542067896178 2.31550321529626
0.158237049203861 0.0233038440730728 2.40195459627198
-0.375419092382205 0.0874235444821529 2.36266516894194
-0.342196860524803 0.124604569202453 2.37319120885073
0.102916220508846 0.0732554655362839 2.44441239586985
0.138014694535869 0.0670960210693324 2.40832454694764
-0.308155733130093 0.123973454821044 2.41008787652322
-0.264378910325292 0.149848421335142 2.40763781039935
-0.228830738039628 0.132280834988812 2.43457106705563
-0.183899526982228 0.135686889396541 2.4334610074685
-0.139773936665435 0.135808581862741 2.43514578523967
-0.0930617971159273 0.131786579338242 2.44108011497437
-0.0497532014284174 0.131333847165139 2.44330625224669
-0.00714580745634606 0.129211926628227 2.44661273453815
0.070340899111272 0.110259612326667 2.43912301432183
-0.313422755266522 -0.197149321340389 1.97035305860658
-0.275257478502804 -0.236316700229901 1.97646929678656
-0.22838041236399 -0.23484926202077 1.95789456402079
-0.188871337234912 -0.260210804030612 1.98027580521354
-0.134976185031116 -0.251869630066417 1.97414256057235
-0.0891355465723075 -0.263934745719077 1.98808274579266
-0.0435251550307324 -0.275327605435516 2.00134158872505
-4.92183215499709e-05 -0.264309833730816 1.99210602962328
0.0375263575910122 -0.280398713639436 2.01477055042398
0.0843367326378316 -0.254911701594946 2.01070784294988
0.121145084270346 -0.25222784789646 2.04322741128069
-0.374678433563673 -0.143568153537239 2.01780010950762
-0.350723972354171 -0.185307991636587 2.003677090935
0.157114208057559 -0.213778205260753 2.05265954657269
0.177452878680683 -0.203705281845994 2.09854439021593
-0.39357268736727 -0.124677659764442 2.06137546773019
0.194921164713347 -0.155493870484441 2.11482585647693
-0.396577680263862 -0.0783483471431268 2.08102552764684
0.194359095165145 -0.142143539892326 2.16616055915362
-0.400668876874186 -0.0606519955842609 2.12703107045203
0.195275946588796 -0.0950512660631279 2.18934139013663
-0.399428891841054 -0.0141257657089427 2.14712123032464
0.193106621025648 -0.0558668364973195 2.23327089434739
-0.403744155120224 0.00488555556422935 2.19586911114298
0.191617968467052 -0.0232468901861805 2.26717990251953
-0.402282091306883 0.052199048656752 2.21460311039006
0.188292943509601 -0.00213656750881914 2.30870595481793
-0.403412623413553 0.066389314813064 2.2658370977868
0.18513392382208 0.0414819129865346 2.32226904513284
-0.38783036549885 0.111695079085704 2.2825908562592
0.167173808638519 0.0518805632425834 2.36683217596367
-0.369040359879347 0.120859384845135 2.32969679353643
-0.334857079336985 0.158592770723393 2.34042087277545
0.109978116824774 0.108460271961114 2.40974750984648
0.145789420336826 0.099208145285451 2.37434791151903
-0.301542718111175 0.157722092563319 2.37683395164359
-0.252678278109891 0.182300898253896 2.37749809559317
-0.212545931994425 0.164710100577701 2.40326917303249
-0.161529248868072 0.170679787487007 2.39938965373364
-0.108889385675044 0.164088159334809 2.40813589145751
-0.0604926446426588 0.16517218680519 2.40903408680806
-0.0144164410621132 0.162825437835738 2.41326703446643
0.0332424793806425 0.14229923746071 2.42703193150183
0.0745704900085754 0.146108103933445 2.40524887882939
-0.307594471962538 -0.1647115938771 1.93866480910071
-0.27003920438113 -0.20293852163227 1.9440752927473
-0.222127954501888 -0.203340756183945 1.92662715785057
-0.177457445588117 -0.229126200318673 1.94966256666308
-0.130114630364362 -0.215370774493686 1.93784892213387
-0.0881649740550965 -0.229369954852672 1.95356409062838
-0.0436268069233227 -0.24249970772509 1.9685149518762
0.00283544460017769 -0.229239019551352 1.95715897122608
0.045893268758346 -0.245678707121996 1.9808436381721
0.0916159895754709 -0.221088307267765 1.97763226368626
0.127532763122971 -0.220414240431138 2.01186992581202
-0.36790645350282 -0.10963880283197 1.98388215003518
-0.345079351652065 -0.15374028837328 1.97312760652349
0.163742289995494 -0.18124667811568 2.02095889687219
0.184328143271903 -0.170228482226312 2.06677241951809
-0.386910460507836 -0.093751762698318 2.02850043897083
0.201326354057324 -0.123027003389131 2.08397218668737
-0.390000164307801 -0.0478111414122848 2.04574821495157
0.200604424837295 -0.108413688775042 2.13577316851388
-0.394047765143263 -0.0249637443049766 2.09476526488216
0.202450778262848 -0.0621668585167931 2.15057534822137
-0.393605300101354 0.0211519793592992 2.12128163425292
0.19864657377626 -0.0446023739164578 2.19407801335753
-0.397311511529761 0.0389650002953029 2.16413119216174
0.198639943373108 -0.000450528904585624 2.22309110836798
-0.395640365026895 0.0843546862644119 2.17984738018529
0.195075284781367 0.0255713529651818 2.27012457712247
-0.397160385401481 0.0984715229730868 2.23231490923328
0.192547776056515 0.0717719601811861 2.28684780090015
-0.38137781834338 0.144313695642456 2.25054113783407
0.173035867874954 0.0879965071460421 2.33366455260186
-0.362026524922733 0.15434902407187 2.297553194801
-0.326234449508205 0.192081207146382 2.30998903091894
0.115718576092171 0.142431826761463 2.37693225961361
0.151519276381386 0.13372468473162 2.34160201045692
-0.291430438167651 0.190936941937458 2.34671934260749
-0.242823011143064 0.214815605577561 2.34645457136236
-0.201558433170098 0.196333827162658 2.37210006877098
-0.156576035662973 0.209408023664078 2.36087109578351
-0.119532473862984 0.193782160289098 2.37801083580362
-0.0718151110783061 0.19653977966742 2.37720773478897
-0.0214281362423671 0.196723403638649 2.37908758534676
0.0285119820184141 0.176801608312885 2.39583621780131
0.0762004864890587 0.179374555999052 2.37505286699935
-0.301058799162424 -0.132257868256108 1.90631380989872
-0.264138868344045 -0.169926675690102 1.91164171688616
-0.21788992504657 -0.170829745899997 1.89483996227353
-0.173819472232879 -0.19676567409953 1.9174570384158
-0.123978598222594 -0.180881709965196 1.90361618546989
-0.0820381857535617 -0.194105710619111 1.91855551121213
-0.040191909163635 -0.208686507063371 1.93484830273509
0.0062106643070395 -0.194475053612551 1.92253895441302
0.0495950723416085 -0.21276972267589 1.94732293188543
0.0951263423837824 -0.189362985020544 1.94424121618141
0.134055173550522 -0.188131886568609 1.98010336551177
-0.362582371185575 -0.0748894173928402 1.95265498378395
-0.338598147188915 -0.121825481380932 1.94115320646113
0.170009236328184 -0.148890202533504 1.98870490548255
0.190823255717193 -0.137363438546373 2.03442645141944
-0.380642053020763 -0.0589203001778155 1.99599013035558
0.207528471332372 -0.0911216895982211 2.05078490154366
-0.382776622076322 -0.0101153744720982 2.00973419575874
0.207360116646709 -0.0752967271757424 2.10068263382707
-0.38727560385979 -0.00105960909207082 2.05350289799326
0.208664311429085 -0.0258777858406749 2.12212715019584
-0.38824206348935 0.0309511583690916 2.08261685312361
0.204377729110665 -0.00873757019467587 2.16941488303044
-0.390101395236414 0.072182168662787 2.12529252634168
0.205511442314245 0.0363509084656846 2.18944990904655
-0.38940763690066 0.116049617556289 2.14822609509902
0.201341267630249 0.0533059453178067 2.23563289753201
-0.390896182896057 0.130438305808559 2.20062408925145
0.199402655224686 0.102107776759555 2.25329316114477
-0.374051112103086 0.177691207575377 2.2212154400958
0.180291384189782 0.119687578425426 2.29995293968924
-0.354386338351787 0.187607998166545 2.26718133031541
-0.318849855008543 0.22486932679138 2.27873168137966
0.120772118663719 0.175688050148774 2.34533207951142
0.158141618050727 0.166154974332252 2.30905442982127
-0.283098631587846 0.223622957190997 2.31574655056412
-0.236330240271898 0.247964205701159 2.31357713712153
-0.194458556421616 0.231346472518097 2.3373844618431
-0.14378694539919 0.243540742256903 2.3272670316887
-0.104445572869312 0.226531057480894 2.34588512558379
-0.0561479847131522 0.229068741969079 2.34532537855491
-0.00806040012296758 0.229768957250231 2.34659434539526
0.0320731598480558 0.207938967964799 2.36550158024994
0.0835988492130895 0.210207313547242 2.34371386266005
-0.30197879689365 -0.0973207190221772 1.87936766444931
-0.257429709829089 -0.136126181080324 1.8780711513688
-0.209611387194384 -0.139271020921171 1.86311728485279
-0.16845241332407 -0.165933419077101 1.88684954248912
-0.118489465647244 -0.147908622613643 1.87092571763786
-0.0749546401191053 -0.158604095848284 1.88335028074977
-0.0352004396120256 -0.172743026674068 1.89911423067187
0.00842096632102401 -0.159272960586663 1.88744447746004
0.0526610171503425 -0.180169071731186 1.91400645113774
0.0995098319320675 -0.157197723537881 1.91102603141402
0.136661335852866 -0.158606432058099 1.94684649129002
-0.356884273064454 -0.0395419422277085 1.92126346164417
-0.335536633119928 -0.0875457964028796 1.91240416680046
0.170784181111839 -0.12226233898328 1.95302086129845
0.197027489816944 -0.104573401337439 2.00090149484867
-0.374198135017717 -0.0228705781169159 1.96255688688292
0.214822267803259 -0.054675864162736 2.0285968854456
-0.376186760336104 0.0262424572593079 1.9819606368936
0.213495743218273 -0.0389191649378963 2.07295311038713
-0.381128850537014 0.0428524640464667 2.03061603122944
0.215102556846305 0.00905857276933795 2.08966872498728
-0.384268883638285 0.0721978041556505 2.07626244211792
0.210889011548884 0.0251774410124381 2.13690717216315
-0.382910817236001 0.115889475420123 2.09349051965908
0.21217446252507 0.0705692988309251 2.15541315215812
-0.383704288086413 0.152755388460317 2.12441947046124
0.207924974205009 0.0878715415972866 2.20294215713689
-0.384155869429301 0.164013160897459 2.17346469509162
0.205638938766005 0.134957696266396 2.22139931123627
-0.367427924157835 0.21054726373496 2.18948733192529
0.186964112054851 0.151395272675597 2.26748927681556
-0.347187910848395 0.220874133314638 2.23573467671305
-0.312457292514539 0.257521938267663 2.24633915078171
0.127814721870328 0.208184301017035 2.31246625784846
0.164743615536907 0.198643543095315 2.27642566634608
-0.276993381413196 0.256145705518815 2.28329231750416
-0.230494214734012 0.280673804400341 2.28088661814645
-0.1869610340864 0.264576242207896 2.30446699015715
-0.138231140636748 0.275527721385869 2.29548458885237
-0.0907305207707575 0.261038858112402 2.31194442051583
-0.0407124026487435 0.261472381897032 2.31355906774058
0.00580370114609743 0.26145103960033 2.31548511583291
0.0447018825249247 0.238550072088764 2.33361941707266
0.0909236098468959 0.242740565689113 2.31090689753478
-0.264742180849823 -0.0997015864912439 1.85384347103014
-0.223288870956939 -0.104572504579158 1.84037376780753
-0.17686915331948 -0.10270004016864 1.83390655646955
-0.162260018686039 -0.135254555392962 1.8573572169671
-0.124770367123016 -0.108815696535241 1.84101099410111
-0.0781160841179559 -0.120559853907095 1.85154313452502
-0.0313356426110681 -0.131568711864159 1.86210352035613
0.0166721502535461 -0.1214597630695 1.85878335732771
0.0559207096511345 -0.14820468964397 1.88286689775972
0.100599367913014 -0.122539989652406 1.88120317685129
0.141021851277426 -0.124982094775849 1.9140912326044
-0.344253010674293 -0.00415928940708624 1.89397767862798
-0.328082863833869 -0.0518559688911518 1.88214697690097
0.190204015246388 -0.0849674579943549 1.95374163880125
0.208230086738909 -0.0605286021106372 1.98577220543129
-0.364208622777076 0.014545051836687 1.93247618380987
0.214157711914098 -0.0166689193744046 1.99407754293554
-0.36081513918121 0.0599746420776935 1.95115062073897
0.217229435227163 -0.0024953783962542 2.03871682157027
-0.370258943905665 0.0760768884545563 1.99525053082896
0.21419704225755 0.0420870491946408 2.05516977030235
-0.376911370324102 0.0959577936312795 2.0400695061642
0.214677551070214 0.0599292410259526 2.10188276355835
-0.370418202053094 0.142223253022835 2.05242370593969
0.212035873703673 0.103588005919862 2.12162320412156
-0.373099752296872 0.171418997647701 2.08675262948952
0.212150044214032 0.121634080557915 2.16802364330323
-0.376691387060293 0.195876341995946 2.14010248080288
0.206672077871529 0.164469602556025 2.18792980948107
-0.358476061626881 0.237567970372491 2.15273815936269
0.191494574363538 0.183921792154745 2.23510379661467
-0.340801726020302 0.25198043294624 2.20141141775399
-0.304898364847239 0.284905983225866 2.21139225781184
0.133119240587584 0.240628400619434 2.27821196020323
0.164853150402834 0.230319499231983 2.24167761835859
-0.269377110839574 0.287899190365828 2.25018385126635
-0.220565901623393 0.30967307397485 2.24341305482613
-0.183382233485735 0.296796004220578 2.26923385410446
-0.141514697631955 0.304353303232963 2.25803025779926
-0.0974569343712621 0.294950183955454 2.27260206737521
-0.0528306326218704 0.290593385411124 2.27919138817605
-0.00276383377983463 0.289597871763174 2.28080889962512
0.0490270008361476 0.272329406808581 2.29863364077028
0.0943460247582428 0.271555442779058 2.27593664582757
-0.289729998684337 -0.0589426667678165 1.84997225199109
-0.244408214102806 -0.061748522553921 1.82766776471492
-0.196777552294503 -0.0642315209881959 1.81807297865798
-0.14495236912477 -0.0685433415375839 1.82120359951869
-0.0944937659590065 -0.0752282705027818 1.8281304805838
-0.048445892469517 -0.085175146504933 1.83591660914001
-0.0043234520129796 -0.0849384509677163 1.83979780385066
0.0428114898553762 -0.0750581019461826 1.84116211403511
0.062959525590568 -0.109318812627689 1.85855044580131
0.0953133238011874 -0.0741521857878964 1.85555484919006
0.131711643548288 -0.0902297285370927 1.88308627335838
-0.309269122353468 -0.0164398192456749 1.85602370163163
-0.283723789570491 0.024216398792524 1.8397569068079
-0.266823452402088 -0.0198478875325552 1.82871825307405
0.142305709488257 -0.0495406655378963 1.87813043406447
0.168215569681361 -0.0813611521722846 1.91503286031431
0.171965444287698 -0.0344618654783425 1.90528105817131
-0.340654349957982 0.0505734722648342 1.90268782844378
-0.321158797252676 0.0261502446785077 1.86994353965961
0.196164740108846 -0.0385258968478324 1.94326408224508
0.201902696190302 0.00447722406725292 1.95783510299071
-0.336998095657372 0.0897024446695004 1.92686860657527
0.20809354590185 0.0327831307648824 1.99958051091631
-0.346593090998096 0.111956792933215 1.96508313734262
0.203494799147261 0.0716255432236003 2.02498378607275
-0.358880461195988 0.125028456983219 2.00412276886731
0.20638957022156 0.0948893115163185 2.06594257978363
-0.347458199554765 0.164991644242914 2.01557738789398
0.201927228296247 0.133582843851581 2.09103493142634
-0.350957656280015 0.195411494567994 2.05043495141795
0.20461754466255 0.156653125760499 2.13178973177541
-0.36417682560129 0.213742362570944 2.10216212502828
0.197467665956833 0.193865092093915 2.15628050695902
-0.329686920659232 0.274903960348278 2.1624699902733
-0.341881545707539 0.256726139005431 2.11489829238308
-0.310667487029005 0.289745704759279 2.11918832597739
0.188254852082954 0.211741728301933 2.19964747438137
0.175054350526073 0.235287027358647 2.15478877899267
0.162036339871062 0.250617323412123 2.19930451195865
-0.261466433860503 0.310808177905892 2.21201480381135
-0.295431016413197 0.302395291999992 2.17121369025111
-0.253391931861019 0.323708963753539 2.16882695557862
0.129589921792412 0.269403806332846 2.23758619043981
0.0974456147117602 0.299780003670677 2.20005982394107
0.0851546595192684 0.295000508361817 2.23926200604932
-0.214123228922193 0.327271320650229 2.2023619058968
-0.170155055605027 0.32233981047074 2.22230343731997
-0.117261509491768 0.319649311637658 2.22472452769287
-0.0728209755721768 0.314819596035477 2.23369394613242
-0.0290283813272394 0.311433561770094 2.23882387510385
0.013699517659332 0.31017397773376 2.23820917985518
0.0468081479484313 0.296703297199395 2.26214805650636
-0.218036183855973 -0.0215548448494046 1.81268485023724
-0.166798095873568 -0.0261172491432651 1.80994535320918
-0.116058399607475 -0.0303304865438026 1.81582690873738
-0.0682228896228912 -0.035300106463829 1.8216581698673
-0.0234188027181979 -0.0389903802305491 1.82700985980257
0.020709849362775 -0.034983025406502 1.83151351973985
0.0693310574431591 -0.0336149903550725 1.83912356611961
-0.239579722001855 0.020394335645658 1.81908244353078
-0.211992135156207 0.0577928443588251 1.82115640208026
-0.188221959567147 0.0174991409968086 1.80980056513008
-0.137452875606477 0.0138586048061323 1.8130838089588
-0.0897816732401343 0.0126451245802969 1.81902568927472
-0.042536151375506 0.00908644732344624 1.82465931483208
0.00226458039212375 0.0104776076475521 1.83061530711192
0.0492040485084281 0.00961757080704449 1.83669830000945
0.0973977399344947 0.0111614241313775 1.85117851774407
0.144472308136171 0.00328587823637814 1.87897111721734
0.11292650134371 -0.0291989068372939 1.85620883882676
-0.301302277518383 0.0656658632164641 1.86573729946148
-0.268965141113091 0.103924206350288 1.86602616060479
-0.25879261440532 0.0643818212457495 1.83803973091781
0.120814769102475 0.0457293134913704 1.87376299887916
0.178491859731469 0.00799865776845573 1.91628037951689
0.156971549311098 0.047809602814914 1.90551652430982
-0.308774203763207 0.0982020999174434 1.89512951920634
-0.275108265174705 0.136631210879752 1.9004579898689
0.187376914406602 0.0456672154154561 1.94898174626531
0.159829720056042 0.0843835422626276 1.93780439971636
-0.312990645732872 0.132828609644955 1.93301481700386
-0.281755189267289 0.168864926910085 1.93679552412734
0.186691851884618 0.0776992802347887 1.98052152684082
0.158260945000492 0.118345024670259 1.9715087171772
-0.323781122015326 0.159311921425216 1.97193670828303
-0.28627176002654 0.198651995337961 1.96927053185713
0.18565659795976 0.112098421765235 2.01581967073365
0.157583972427227 0.151340036948201 2.00550470880729
-0.320223163696096 0.199143034167029 2.00493206971986
-0.283955674199509 0.234063694072473 2.00163263304321
0.185290659578132 0.142079227333268 2.04789626437439
0.15726323015493 0.183666721315004 2.03933655484389
-0.317059723179047 0.235413268155582 2.03545778498602
-0.282950989810359 0.271460632299788 2.03860907745719
0.184596137467303 0.175937686380722 2.08347141960903
0.156395341449871 0.216165203846314 2.07254047877402
-0.340539275974727 0.236645328513408 2.07189379516537
-0.310956994935339 0.273376689406569 2.07481358221977
0.183214078684816 0.206336585649133 2.11500127566311
0.153494865838836 0.246148773210073 2.10767991380702
-0.277240624823945 0.313143041597827 2.12907248365458
-0.272347990833946 0.30328711087821 2.08130846048556
-0.239582899616659 0.325776216032425 2.11430512837621
0.131774348797438 0.280208798425329 2.19031778353265
0.145288608147885 0.268044478945697 2.14885777872312
0.10559602288525 0.2958946476828 2.14815541024191
-0.214917592733153 0.334232308802926 2.15385866580839
-0.189409136874795 0.333812696534496 2.11799637809182
-0.174351998224097 0.334755670226549 2.17234524731897
-0.145469982795764 0.332697259581793 2.13139623052473
-0.131906455618261 0.330917356744373 2.18163424750783
-0.101374868177483 0.329257066286542 2.13663327729671
-0.0851353560948652 0.327621584597496 2.1844662295573
-0.0565446775396027 0.325557081109161 2.14012836757573
-0.0408603726926475 0.324063395925152 2.19057647866068
-0.0129959703885417 0.321992344904557 2.14389382203206
0.0036366144872239 0.32097754890277 2.19261742184186
0.0312042921924594 0.318851977096379 2.15183846600142
0.0493101532511804 0.314384828414901 2.20773596093617
0.0689184854730184 0.312470369968903 2.16457331035333
-0.18091336467454 0.0911757506544766 1.83300106807824
-0.15872322676784 0.0560628653990547 1.81912810207521
-0.11296961363914 0.0584212360179293 1.82648997783437
-0.0642569657030478 0.0541475533163261 1.83211442164868
-0.0193301264379444 0.0559142650072765 1.83940548998251
0.0260673404949857 0.055063448233348 1.84586504142907
0.0720781890126088 0.0510132433208646 1.85316975414452
-0.22586501427833 0.100243380252826 1.84452942131559
-0.183034031331848 0.127410098276768 1.85848324722986
-0.137257198882485 0.101319955647705 1.84380960523143
-0.086358983527654 0.0941959227223018 1.84786777459347
-0.0420079620946848 0.0975387760423712 1.85755237533552
0.0025326927213179 0.0975012449133522 1.86523140554617
0.0477116933469207 0.0945603811864169 1.87103066144769
0.0910833188044897 0.0847726777736688 1.87841049139644
0.125801567658204 0.0881702729971816 1.90328996840518
-0.230457049857742 0.135802732272934 1.8753142704162
-0.19035954894029 0.16099516410271 1.89179687845246
-0.144633918139695 0.143970768766232 1.87882379060434
-0.105585179328735 0.127500925264061 1.87007496655265
-0.0627345916466772 0.132972043185248 1.88391495997732
-0.0190054891829801 0.133700011804122 1.89328929986924
0.02909593852914 0.129930362165673 1.89899221348064
0.078896727349452 0.122066220621308 1.90521452660719
0.123727048281806 0.120821716093654 1.93398990661481
-0.236980172214556 0.168240173816689 1.90974714485058
-0.191726089583196 0.193262508317642 1.92407155573956
-0.145835177217905 0.177923999497307 1.91282002057988
-0.099386585944823 0.161055280394489 1.9049889632709
-0.0523705470107984 0.168034772882453 1.92131498827899
-0.00218975691572777 0.164023236692299 1.9271848598985
0.0455966295303077 0.159814796232256 1.93239511884835
0.0876592557593355 0.151997066834619 1.94017737319927
0.122922507082591 0.155583950375486 1.96932326828892
-0.24014887661671 0.199664209919407 1.94194737609861
-0.19394518886944 0.22396476883153 1.95484459599715
-0.145109974982262 0.212156384659165 1.94747807274453
-0.102716487423099 0.193968011388709 1.93751490761764
-0.0647591773845763 0.202902420757342 1.95402242859667
-0.0200825028353863 0.196921073936371 1.95681858192455
0.0279159556312447 0.193264070303389 1.96261435678694
0.0769432719454882 0.186899673372182 1.97038417092404
0.122201367426843 0.186796079996593 2.00105303757759
-0.24306286070388 0.23022124636905 1.97321404687046
-0.199980845519513 0.254349577292667 1.98565914628727
-0.150076825122476 0.2444635101186 1.97906968416644
-0.100948823261602 0.232129224341008 1.97634099281074
-0.0493764543420156 0.232395899953001 1.98679875601039
-0.00122851391853378 0.227681109755332 1.99155812953732
0.045169950978517 0.224198317046184 1.99727352323699
0.0866381997347834 0.217094896478231 2.00619702178426
0.121752643734077 0.220999841643 2.03614767720081
-0.247369535068501 0.263121916151398 2.00742843584337
-0.209344713534785 0.285273228094406 2.01827369547754
-0.162441072394228 0.278316571729005 2.01082477676598
-0.115913472987327 0.26808848941332 2.00964032601796
-0.0712791883979015 0.263610892881809 2.01394370300484
-0.0222975944428498 0.261425466570875 2.02141823419161
0.0265022957354523 0.257784665172092 2.02738834120574
0.0755771217419784 0.252117596546351 2.03622736115257
0.120490653606273 0.251635069596007 2.06769796046712
-0.242784448002752 0.297943025160814 2.04644349412801
-0.186181282464507 0.307740224466982 2.04661830203765
-0.137496932709681 0.301260742944063 2.04492051608414
-0.0928819063625828 0.296425659032088 2.04815472288208
-0.0480264318752397 0.292289558712412 2.05253322886711
-0.0016537471592218 0.289295339274444 2.05898232587259
0.0434185950709833 0.286374707330239 2.06538983802082
0.0840898718327997 0.279680386733001 2.07528754181034
0.116041125691942 0.278980498295013 2.10848402695565
-0.217617951078849 0.320160292896366 2.07746901560543
-0.163422178714733 0.323527558755739 2.08291821788551
-0.117658348792837 0.320065488514207 2.08866212522482
-0.0726063410867288 0.316027712417316 2.0925649758292
-0.0268617796347173 0.311947522655737 2.09661525570504
0.0202814025951443 0.308812389871393 2.10369460346219
0.0672058484564122 0.303687933806468 2.11366786229025
3 0 1 2
3 0 2 4
3 3 0 4
3 3 4 6
3 5 3 6
3 5 6 8
3 7 5 8
3 7 8 10
3 9 7 10
3 9 10 12
3 11 9 12
3 13 11 14
3 14 11 12
3 13 14 15
3 16 17 18
3 16 18 1
3 0 19 1
3 19 16 1
3 0 3 20
3 19 0 20
3 3 5 21
3 20 3 21
3 5 7 22
3 21 5 22
3 7 9 23
3 22 7 23
3 9 11 24
3 23 9 24
3 24 11 25
3 25 11 13
3 13 15 26
3 27 13 26
3 25 13 27
3 27 26 28
3 17 16 30
3 30 16 29
3 29 19 31
3 29 16 19
3 31 20 32
3 31 19 20
3 32 21 33
3 32 20 21
3 21 22 33
3 33 22 34
3 22 23 34
3 34 23 35
3 23 24 35
3 35 24 36
3 24 25 36
3 36 25 37
3 37 27 38
3 37 25 27
3 38 28 39
3 38 27 28
3 30 40 41
3 30 29 40
3 29 31 42
3 40 29 42
3 31 32 43
3 42 31 43
3 32 33 44
3 43 32 44
3 33 34 45
3 44 33 45
3 34 35 46
3 45 34 46
3 35 36 47
3 46 35 47
3 36 37 47
3 47 37 48
3 37 38 48
3 48 38 49
3 49 39 50
3 49 38 39
3 40 51 52
3 41 40 52
3 51 42 53
3 51 40 42
3 42 43 53
3 53 43 54
3 43 44 54
3 54 44 55
3 44 45 55
3 55 45 56
3 45 46 56
3 56 46 57
3 46 47 58
3 57 46 58
3 47 48 59
3 58 47 59
3 48 49 60
3 59 48 60
3 49 50 61
3 60 49 61
3 51 62 63
3 52 51 63
3 51 53 64
3 62 51 64
3 53 54 65
3 64 53 65
3 54 55 66
3 65 54 66
3 55 56 67
3 66 55 67
3 56 57 67
3 67 57 68
3 57 58 69
3 68 57 69
3 58 59 69
3 69 59 70
3 59 60 70
3 70 60 71
3 71 61 72
3 71 60 61
3 62 73 74
3 63 62 74
3 62 64 75
3 73 62 75
3 64 65 75
3 75 65 76
3 65 66 76
3 76 66 77
3 66 67 77
3 77 67 78
3 67 68 78
3 78 68 79
3 79 69 80
3 79 68 69
3 80 70 81
3 80 69 70
3 81 71 82
3 81 70 71
3 82 72 83
3 82 71 72
3 74 73 85
3 85 73 84
3 84 73 86
3 86 73 75
3 75 76 86
3 86 76 87
3 76 77 88
3 87 76 88
3 77 78 89
3 88 77 89
3 78 79 90
3 89 78 90
3 79 80 91
3 90 79 91
3 80 81 92
3 91 80 92
3 81 82 93
3 92 81 93
3 93 83 94
3 93 82 83
3 84 95 85
3 84 86 96
3 97 84 96
3 95 84 97
3 96 87 98
3 96 86 87
3 87 88 98
3 98 88 99
3 88 89 99
3 99 89 100
3 89 90 100
3 100 90 101
3 101 91 102
3 101 90 91
3 102 92 103
3 102 91 92
3 92 93 103
3 105 103 104
3 103 93 104
3 93 94 104
3 96 106 97
3 96 98 107
3 106 96 107
3 98 99 108
3 107 98 108
3 99 100 109
3 108 99 109
3 100 101 110
3 109 100 110
3 101 102 111
3 110 101 111
3 111 102 112
3 112 102 103
3 103 105 112
3 117 114 115
3 116 113 117
3 117 113 114
3 116 117 119
3 118 116 119
3 118 119 121
3 120 118 121
3 120 121 123
3 122 120 123
3 122 123 125
3 124 122 125
3 124 125 127
3 126 124 127
3 126 127 128
3 129 130 131
3 114 129 131
3 114 113 129
3 113 2 129
3 129 2 1
3 4 113 116
3 4 2 113
3 6 116 118
3 6 4 116
3 8 118 120
3 8 6 118
3 10 120 122
3 10 8 120
3 12 122 124
3 12 10 122
3 14 124 126
3 14 12 124
3 133 126 128
3 15 14 126
3 15 126 133
3 132 15 133
3 132 133 134
3 135 136 137
3 137 17 135
3 137 18 17
3 18 137 130
3 129 18 130
3 18 129 1
3 15 132 26
3 139 132 134
3 139 138 132
3 138 28 26
3 132 138 26
3 138 139 140
3 136 135 142
3 142 135 141
3 17 30 135
3 135 30 141
3 143 39 28
3 138 143 28
3 143 140 144
3 143 138 140
3 141 145 146
3 142 141 146
3 41 145 141
3 30 41 141
3 147 39 143
3 147 50 39
3 147 144 148
3 147 143 144
3 145 149 150
3 146 145 150
3 52 149 145
3 41 52 145
3 151 50 147
3 151 155 50
3 151 148 152
3 151 147 148
3 149 153 154
3 150 149 154
3 63 153 149
3 52 63 149
3 155 61 50
3 155 72 61
3 155 151 156
3 156 151 152
3 154 157 158
3 154 153 157
3 74 157 153
3 63 74 153
3 159 72 155
3 159 83 72
3 159 156 160
3 159 155 156
3 158 157 162
3 162 157 161
3 74 85 161
3 157 74 161
3 163 83 159
3 163 94 83
3 163 160 164
3 163 159 160
3 161 165 162
3 165 95 166
3 165 161 95
3 161 85 95
3 165 166 167
3 95 97 166
3 105 104 168
3 170 94 163
3 170 168 94
3 169 168 170
3 94 168 104
3 163 164 170
3 166 171 167
3 173 171 172
3 172 171 106
3 171 97 106
3 171 166 97
3 172 107 174
3 172 106 107
3 174 108 175
3 174 107 108
3 175 109 176
3 175 108 109
3 176 110 177
3 176 109 110
3 177 111 178
3 177 110 111
3 178 112 180
3 178 111 112
3 181 105 168
3 181 180 105
3 179 178 180
3 180 112 105
3 168 169 181
3 172 182 173
3 182 172 183
3 183 172 174
3 174 175 184
3 183 174 184
3 175 176 185
3 184 175 185
3 176 177 186
3 185 176 186
3 177 178 187
3 186 177 187
3 187 179 188
3 187 178 179
3 179 180 229
3 189 190 191
3 114 131 191
3 115 114 191
3 115 191 192
3 115 192 193
3 117 115 193
3 119 193 194
3 119 117 193
3 119 194 121
3 121 194 195
3 121 195 123
3 123 195 196
3 123 196 125
3 125 196 197
3 127 197 198
3 127 125 197
3 128 198 199
3 200 128 199
3 128 127 198
3 200 199 201
3 202 203 204
3 131 130 189
3 190 189 204
3 189 130 202
3 189 202 204
3 131 189 191
3 128 200 133
3 134 200 205
3 206 205 201
3 134 133 200
3 205 200 201
3 205 206 207
3 136 208 203
3 202 137 136
3 202 136 203
3 137 202 130
3 134 205 139
3 139 205 207
3 140 139 207
3 211 207 209
3 136 142 208
3 208 142 210
3 211 140 207
3 211 144 140
3 146 212 210
3 142 146 210
3 148 144 213
3 213 144 211
3 150 214 212
3 146 150 212
3 215 148 213
3 215 152 148
3 154 216 150
3 150 216 214
3 219 152 217
3 217 152 215
3 158 218 216
3 154 158 216
3 219 156 152
3 219 160 156
3 158 220 218
3 158 162 220
3 221 160 219
3 221 164 160
3 162 165 222
3 223 220 222
3 220 162 222
3 165 167 222
3 169 170 224
3 225 164 221
3 224 170 164
3 224 164 225
3 222 226 223
3 167 171 227
3 226 167 227
3 226 227 228
3 226 222 167
3 171 173 227
3 180 181 229
3 181 169 230
3 231 169 224
3 230 169 231
3 230 229 181
3 224 225 271
3 227 232 228
3 232 182 233
3 232 173 182
3 227 173 232
3 182 183 234
3 233 182 234
3 183 184 234
3 234 184 235
3 184 185 235
3 235 185 236
3 185 186 236
3 236 186 237
3 186 187 237
3 237 187 238
3 238 188 239
3 238 187 188
3 188 179 229
3 240 239 188
3 240 188 229
3 229 230 240
3 191 190 242
3 242 190 241
3 192 242 243
3 192 191 242
3 192 243 244
3 193 192 244
3 194 244 245
3 194 193 244
3 194 245 246
3 195 194 246
3 195 246 247
3 196 195 247
3 196 247 248
3 197 196 248
3 197 248 249
3 198 197 249
3 199 198 249
3 250 199 249
3 201 199 251
3 251 199 250
3 204 252 253
3 204 203 252
3 190 253 241
3 190 204 253
3 206 251 254
3 206 201 251
3 207 206 255
3 255 206 254
3 203 256 252
3 203 208 256
3 257 209 255
3 255 209 207
3 210 258 208
3 208 258 256
3 211 209 259
3 259 209 257
3 212 260 210
3 210 260 258
3 213 211 259
3 261 213 259
3 214 262 260
3 212 214 260
3 215 213 261
3 263 215 261
3 216 264 214
3 214 264 262
3 217 215 263
3 265 217 263
3 218 266 264
3 216 218 264
3 219 217 265
3 267 219 265
3 218 268 266
3 218 220 268
3 221 219 267
3 269 221 267
3 223 270 268
3 220 223 268
3 225 221 269
3 271 225 269
3 223 226 272
3 270 223 272
3 272 228 273
3 272 226 228
3 274 231 275
3 274 230 231
3 275 231 271
3 271 231 224
3 273 228 276
3 276 228 232
3 276 233 277
3 276 232 233
3 233 234 278
3 277 233 278
3 234 235 279
3 278 234 279
3 235 236 280
3 279 235 280
3 236 237 281
3 280 236 281
3 237 238 282
3 281 237 282
3 238 239 283
3 282 238 283
3 327 239 284
3 284 239 240
3 240 230 274
3 284 240 274
3 241 285 286
3 242 241 286
3 242 286 243
3 243 286 287
3 243 287 288
3 244 243 288
3 245 288 289
3 245 244 288
3 245 289 246
3 246 289 290
3 246 290 247
3 247 290 291
3 247 291 248
3 248 291 292
3 248 292 293
3 249 248 293
3 249 293 250
3 250 293 294
3 250 294 295
3 251 250 295
3 252 296 297
3 253 252 297
3 241 297 285
3 241 253 297
3 254 295 298
3 254 251 295
3 254 298 299
3 255 254 299
3 256 300 252
3 252 300 296
3 257 255 299
3 301 257 299
3 258 302 300
3 256 258 300
3 259 257 303
3 303 257 301
3 260 304 258
3 258 304 302
3 261 259 303
3 305 261 303
3 262 306 304
3 260 262 304
3 263 261 305
3 307 263 305
3 264 308 262
3 262 308 306
3 265 263 307
3 309 265 307
3 266 310 308
3 264 266 308
3 267 265 309
3 311 267 309
3 266 312 310
3 266 268 312
3 269 267 311
3 313 269 311
3 270 314 312
3 268 270 312
3 271 269 315
3 315 269 313
3 270 272 316
3 314 270 316
3 316 273 317
3 316 272 273
3 318 275 319
3 318 274 275
3 275 271 315
3 319 275 315
3 273 276 320
3 317 273 320
3 276 277 320
3 320 277 321
3 277 278 322
3 321 277 322
3 322 279 323
3 322 278 279
3 279 280 323
3 323 280 324
3 280 281 324
3 324 281 325
3 281 282 325
3 325 282 326
3 282 283 326
3 326 283 327
3 283 239 327
3 327 284 328
3 284 274 318
3 328 284 318
3 285 329 330
3 286 285 330
3 286 330 287
3 287 330 331
3 287 331 332
3 288 287 332
3 288 332 289
3 289 332 333
3 289 333 334
3 290 289 334
3 290 334 335
3 291 290 335
3 291 335 292
3 292 335 336
3 292 336 337
3 293 292 337
3 293 337 294
3 294 337 338
3 294 338 339
3 295 294 339
3 296 340 341
3 297 296 341
3 285 341 329
3 285 297 341
3 298 339 342
3 298 295 339
3 298 342 343
3 299 298 343
3 300 344 296
3 296 344 340
3 301 299 343
3 345 301 343
3 302 346 344
3 300 302 344
3 303 301 347
3 347 301 345
3 304 348 302
3 302 348 346
3 305 303 347
3 349 305 347
3 306 350 348
3 304 306 348
3 307 305 351
3 351 305 349
3 308 352 306
3 306 352 350
3 309 307 353
3 353 307 351
3 310 354 352
3 308 310 352
3 311 309 355
3 355 309 353
3 312 356 310
3 310 356 354
3 313 311 355
3 357 313 355
3 314 358 356
3 312 314 356
3 315 313 359
3 359 313 357
3 314 316 360
3 358 314 360
3 360 317 361
3 360 316 317
3 362 319 363
3 362 318 319
3 319 315 359
3 363 319 359
3 317 320 364
3 361 317 364
3 320 321 364
3 364 321 365
3 321 322 366
3 365 321 366
3 322 323 366
3 366 323 367
3 323 324 368
3 367 323 368
3 324 325 369
3 368 324 369
3 325 326 370
3 369 325 370
3 326 327 371
3 370 326 371
3 327 328 371
3 371 328 372
3 328 318 362
3 372 328 362
3 329 373 374
3 330 329 374
3 330 374 331
3 331 374 375
3 331 375 376
3 332 331 376
3 332 376 333
3 333 376 377
3 333 377 378
3 334 333 378
3 334 378 379
3 335 334 379
3 335 379 336
3 336 379 380
3 336 380 381
3 337 336 381
3 337 381 338
3 338 381 382
3 338 382 383
3 339 338 383
3 340 384 385
3 341 340 385
3 329 385 373
3 329 341 385
3 342 383 386
3 342 339 383
3 342 386 387
3 343 342 387
3 344 388 340
3 340 388 384
3 345 343 387
3 389 345 387
3 346 390 388
3 344 346 388
3 347 345 391
3 391 345 389
3 348 392 346
3 346 392 390
3 349 347 391
3 393 349 391
3 350 394 348
3 348 394 392
3 351 349 395
3 395 349 393
3 352 396 350
3 350 396 394
3 353 351 395
3 397 353 395
3 354 398 396
3 352 354 396
3 355 353 399
3 399 353 397
3 356 400 354
3 354 400 398
3 357 355 399
3 401 357 399
3 358 402 400
3 356 358 400
3 359 357 403
3 403 357 401
3 358 360 404
3 402 358 404
3 404 361 405
3 404 360 361
3 406 363 407
3 406 362 363
3 363 359 403
3 407 363 403
3 361 364 408
3 405 361 408
3 364 365 408
3 408 365 409
3 365 366 410
3 409 365 410
3 366 367 410
3 410 367 411
3 367 368 412
3 411 367 412
3 368 369 412
3 412 369 413
3 369 370 413
3 413 370 414
3 370 371 415
3 414 370 415
3 371 372 415
3 415 372 416
3 372 362 406
3 416 372 406
3 373 417 418
3 374 373 418
3 374 418 375
3 375 418 419
3 375 419 420
3 376 375 420
3 376 420 377
3 377 420 421
3 377 421 422
3 378 377 422
3 378 422 423
3 379 378 423
3 380 423 424
3 380 379 423
3 380 424 425
3 381 380 425
3 382 425 426
3 382 381 425
3 382 426 427
3 383 382 427
3 384 428 429
3 385 384 429
3 373 429 417
3 373 385 429
3 386 427 430
3 386 383 427
3 386 430 431
3 387 386 431
3 384 432 428
3 384 388 432
3 389 387 431
3 433 389 431
3 390 434 432
3 388 390 432
3 435 389 433
3 435 391 389
3 390 436 434
3 390 392 436
3 393 391 435
3 437 393 435
3 394 438 436
3 392 394 436
3 395 393 439
3 439 393 437
3 396 440 438
3 394 396 438
3 397 395 439
3 441 397 439
3 398 442 440
3 396 398 440
3 399 397 443
3 443 397 441
3 400 444 398
3 398 444 442
3 401 399 443
3 445 401 443
3 402 446 444
3 400 402 444
3 403 401 447
3 447 401 445
3 402 404 448
3 446 402 448
3 448 405 449
3 448 404 405
3 450 407 451
3 450 406 407
3 407 403 447
3 451 407 447
3 405 408 452
3 449 405 452
3 408 409 452
3 452 409 453
3 409 410 454
3 453 409 454
3 410 411 454
3 454 411 455
3 411 412 456
3 455 411 456
3 412 413 456
3 456 413 457
3 457 414 458
3 457 413 414
3 414 415 459
3 458 414 459
3 415 416 459
3 459 416 460
3 416 406 450
3 460 416 450
3 418 461 462
3 418 417 461
3 419 462 463
3 419 418 462
3 419 463 464
3 420 419 464
3 420 464 421
3 421 464 465
3 421 465 466
3 422 421 466
3 422 466 467
3 423 422 467
3 424 467 468
3 424 423 467
3 424 468 469
3 425 424 469
3 426 469 470
3 426 425 469
3 427 426 471
3 471 426 470
3 429 428 473
3 473 428 472
3 417 473 505
3 417 429 473
3 430 427 471
3 520 430 471
3 431 474 475
3 431 430 474
3 428 476 472
3 428 432 476
3 433 431 475
3 477 433 475
3 434 478 476
3 432 434 476
3 479 433 477
3 479 435 433
3 434 480 478
3 434 436 480
3 437 435 479
3 481 437 479
3 438 482 436
3 436 482 480
3 439 437 483
3 483 437 481
3 440 484 482
3 438 440 482
3 441 439 483
3 485 441 483
3 442 486 440
3 440 486 484
3 443 441 487
3 487 441 485
3 444 488 442
3 442 488 486
3 445 443 487
3 489 445 487
3 444 446 488
3 488 446 490
3 491 445 489
3 491 447 445
3 490 446 492
3 492 446 448
3 492 449 493
3 492 448 449
3 494 451 495
3 494 450 451
3 451 447 491
3 495 451 491
3 449 452 496
3 493 449 496
3 496 453 497
3 496 452 453
3 453 454 498
3 497 453 498
3 498 455 499
3 498 454 455
3 455 456 500
3 499 455 500
3 456 457 501
3 500 456 501
3 457 458 502
3 501 457 502
3 458 459 503
3 502 458 503
3 503 460 504
3 503 459 460
3 504 460 494
3 494 460 450
3 461 505 506
3 462 461 506
3 507 463 462
3 507 462 506
3 465 463 508
3 508 463 507
3 464 463 465
3 465 508 509
3 465 509 466
3 466 509 510
3 466 510 467
3 467 510 511
3 467 511 468
3 468 511 512
3 468 512 513
3 469 468 513
3 469 513 470
3 515 470 514
3 470 513 514
3 470 515 471
3 472 516 473
3 518 516 517
3 518 505 516
3 461 417 505
3 505 473 516
3 505 518 506
3 515 514 519
3 474 430 520
3 521 520 519
3 520 471 515
3 520 515 519
3 474 520 524
3 476 522 472
3 516 472 523
3 472 522 523
3 516 523 517
3 520 521 524
3 477 475 524
3 524 475 474
3 525 477 524
3 478 526 522
3 476 478 522
3 527 477 525
3 527 479 477
3 478 528 526
3 478 480 528
3 481 479 527
3 529 481 527
3 482 530 480
3 480 530 528
3 483 481 531
3 531 481 529
3 484 532 530
3 482 484 530
3 485 483 531
3 533 485 531
3 486 534 484
3 484 534 532
3 535 485 533
3 535 487 485
3 486 536 534
3 486 488 536
3 537 489 535
3 535 489 487
3 490 538 539
3 536 490 539
3 488 490 536
3 538 540 539
3 541 542 543
3 541 489 537
3 542 541 537
3 541 491 489
3 490 492 538
3 545 493 544
3 538 492 493
3 538 493 545
3 540 538 545
3 544 546 545
3 547 548 549
3 543 495 541
3 547 494 495
3 547 495 543
3 608 547 543
3 495 491 541
3 493 496 544
3 544 497 550
3 546 544 550
3 544 496 497
3 550 497 551
3 551 497 498
3 498 499 551
3 551 499 552
3 499 500 552
3 552 500 553
3 500 501 553
3 553 501 554
3 554 502 555
3 554 501 502
3 502 503 556
3 555 502 556
3 503 504 556
3 549 504 547
3 556 504 549
3 504 494 547
3 506 557 507
3 507 557 558
3 508 507 558
3 508 558 559
3 509 508 559
3 509 559 560
3 510 509 560
3 510 560 561
3 511 510 561
3 511 561 562
3 512 511 562
3 514 512 563
3 563 512 562
3 513 512 514
3 517 564 518
3 518 564 557
3 566 564 565
3 557 564 566
3 557 506 518
3 558 566 567
3 558 557 566
3 559 567 568
3 559 558 567
3 560 568 569
3 560 559 568
3 561 569 570
3 561 560 569
3 562 570 571
3 562 561 570
3 563 562 571
3 572 563 571
3 574 514 563
3 572 574 563
3 573 519 574
3 574 519 514
3 519 573 521
3 522 575 523
3 577 575 576
3 577 517 575
3 564 517 577
3 575 517 523
3 564 577 565
3 573 574 572
3 521 573 579
3 580 573 578
3 579 573 580
3 579 524 521
3 524 579 525
3 522 581 575
3 522 526 581
3 576 581 582
3 576 575 581
3 583 580 584
3 583 579 580
3 583 525 579
3 583 527 525
3 526 585 581
3 526 528 585
3 582 585 586
3 582 581 585
3 587 584 588
3 587 583 584
3 587 527 583
3 587 529 527
3 528 589 585
3 528 530 589
3 586 589 590
3 586 585 589
3 591 588 592
3 591 587 588
3 591 529 587
3 591 531 529
3 532 593 589
3 530 532 589
3 590 593 594
3 590 589 593
3 595 592 596
3 595 591 592
3 595 531 591
3 595 533 531
3 534 597 593
3 532 534 593
3 594 597 598
3 594 593 597
3 599 596 600
3 599 595 596
3 599 533 595
3 599 535 533
3 534 601 597
3 534 536 601
3 602 597 601
3 602 598 597
3 603 599 600
3 604 603 600
3 603 535 599
3 603 537 535
3 536 539 601
3 606 540 605
3 606 602 540
3 602 601 539
3 540 602 539
3 605 607 606
3 608 609 610
3 608 543 609
3 604 542 603
3 609 543 542
3 609 542 604
3 542 537 603
3 540 545 605
3 605 546 607
3 612 607 611
3 605 545 546
3 607 546 611
3 612 613 614
3 612 611 613
3 614 615 616
3 614 613 615
3 616 617 618
3 616 615 617
3 618 619 620
3 618 617 619
3 620 621 622
3 620 619 621
3 622 623 624
3 622 621 623
3 610 548 608
3 624 623 548
3 624 548 610
3 548 623 549
3 548 547 608
3 546 550 611
3 611 550 613
3 613 550 551
3 551 552 615
3 613 551 615
3 552 553 617
3 615 552 617
3 553 554 619
3 617 553 619
3 554 555 621
3 619 554 621
3 621 555 623
3 623 555 556
3 556 549 623
3 565 625 626
3 567 566 626
3 626 566 565
3 567 626 627
3 568 567 627
3 568 627 628
3 569 568 628
3 569 628 629
3 570 569 629
3 570 629 630
3 571 570 630
3 572 571 631
3 631 571 630
3 572 631 578
3 576 632 577
3 625 632 633
3 565 577 632
3 565 632 625
3 625 633 634
3 626 625 634
3 626 634 627
3 627 634 635
3 627 635 628
3 628 635 636
3 628 636 629
3 629 636 637
3 629 637 630
3 630 637 638
3 631 638 639
3 631 630 638
3 640 578 639
3 578 573 572
3 578 631 639
3 578 640 580
3 576 641 632
3 576 582 641
3 633 641 642
3 633 632 641
3 633 642 643
3 634 633 643
3 634 643 644
3 635 634 644
3 635 644 645
3 636 635 645
3 636 645 646
3 637 636 646
3 637 646 647
3 638 637 647
3 638 647 648
3 639 638 648
3 640 648 649
3 640 639 648
3 584 580 640
3 649 584 640
3 582 650 641
3 582 586 650
3 642 650 651
3 642 641 650
3 642 651 652
3 643 642 652
3 643 652 653
3 644 643 653
3 644 653 645
3 645 653 654
3 645 654 646
3 646 654 655
3 646 655 647
3 647 655 656
3 647 656 648
3 648 656 657
3 648 657 649
3 649 657 658
3 588 584 649
3 658 588 649
3 586 659 650
3 586 590 659
3 650 659 651
3 651 659 660
3 651 660 661
3 652 651 661
3 652 661 662
3 653 652 662
3 653 662 654
3 654 662 663
3 654 663 664
3 655 654 664
3 655 664 665
3 656 655 665
3 656 665 666
3 657 656 666
3 657 666 658
3 658 666 667
3 592 588 658
3 667 592 658
3 590 668 659
3 590 594 668
3 660 668 669
3 660 659 668
3 660 669 670
3 661 660 670
3 661 670 671
3 662 661 671
3 662 671 663
3 663 671 672
3 663 672 664
3 664 672 673
3 664 673 665
3 665 673 674
3 665 674 666
3 666 674 675
3 666 675 667
3 667 675 676
3 596 592 667
3 676 596 667
3 594 677 668
3 594 598 677
3 668 677 669
3 669 677 678
3 669 678 679
3 670 669 679
3 670 679 680
3 671 670 680
3 671 680 681
3 672 671 681
3 672 681 682
3 673 672 682
3 673 682 683
3 674 673 683
3 674 683 684
3 675 674 684
3 676 684 685
3 676 675 684
3 600 596 676
3 685 600 676
3 598 686 677
3 598 602 606
3 678 686 687
3 678 677 686
3 678 687 679
3 679 687 688
3 679 688 680
3 680 688 689
3 680 689 681
3 681 689 690
3 681 690 682
3 682 690 691
3 683 691 692
3 683 682 691
3 684 692 693
3 684 683 692
3 685 693 694
3 685 684 693
3 694 604 685
3 685 604 600
3 598 606 686
3 606 607 695
3 686 606 695
3 686 695 687
3 688 687 696
3 696 687 695
3 688 696 697
3 689 688 697
3 689 697 698
3 690 689 698
3 690 698 699
3 691 690 699
3 691 699 700
3 692 691 700
3 692 700 701
3 693 692 701
3 610 609 694
3 701 610 694
3 701 694 693
3 609 604 694
3 607 612 695
3 695 612 696
3 696 612 614
3 614 616 697
3 696 614 697
3 616 618 698
3 697 616 698
3 618 620 699
3 698 618 699
3 620 622 700
3 699 620 700
3 622 624 701
3 700 622 701
3 624 610 701
