OFF
702 1400 0
-0.253131793356717 -0.344885225407567 2.14386537528089
-0.298655172587987 -0.330810278814539 2.12661746654478
-0.270405280181988 -0.348934236722143 2.0984070079733
-0.206206369402415 -0.351301665738397 2.14829670715629
-0.224380135017879 -0.359508664299502 2.10321700745707
-0.159359030333396 -0.355711452561638 2.15124396576829
-0.177955069649668 -0.363458341946033 2.10516110931804
-0.11394717136339 -0.359529562589296 2.15541775993007
-0.132596267011497 -0.367195887424828 2.1068154375882
-0.06902194049146 -0.363170105256377 2.15995541110584
-0.0878063974305176 -0.370636311372388 2.1112807989375
-0.0214944421799933 -0.366133923604261 2.16742413757387
-0.0419900113463184 -0.373864241834385 2.11960774550369
0.0265790331668885 -0.361641133574997 2.17591271382821
0.00534288388331035 -0.375410427282096 2.12852227161236
0.0517966860691691 -0.366499862059323 2.13760681782491
-0.321466192836689 -0.303538861823686 2.15595033813152
-0.351333369732268 -0.285352399738792 2.12921306446492
-0.329935487400663 -0.314059119888714 2.09960304658318
-0.280896587441838 -0.319949846185169 2.17501388733919
-0.234130070427734 -0.329057073693687 2.18663434926967
-0.186390950980663 -0.334118295980789 2.19023651367163
-0.139589916762568 -0.337869193048708 2.1954231476767
-0.094343799322304 -0.341101027698307 2.20108032713112
-0.0500047857207444 -0.346201512750672 2.20341799136521
-0.00134805470264901 -0.346878627913186 2.21061923505567
0.072417068675654 -0.345338954452085 2.18217937087496
0.0437525683089329 -0.334684455975539 2.21881352115772
0.08969360039235 -0.314084311463263 2.21726781446375
-0.308658908901862 -0.284221295567217 2.1982826867687
-0.348951896077631 -0.262999491481957 2.17110919533274
-0.26258427433643 -0.297982840472818 2.21528302139696
-0.212589625460506 -0.30423898579626 2.2230799690988
-0.164956512849711 -0.308379802708113 2.22811380891645
-0.117313476492109 -0.310696691506327 2.23518584518085
-0.0725859773595397 -0.313300775553179 2.24134524593278
-0.0302734818586448 -0.322258509126238 2.23992626083038
0.0110080794134028 -0.314084910981455 2.25086515233317
0.0565635006009089 -0.300370689419898 2.2527754050362
0.101202940066498 -0.277472715008776 2.24709025050306
-0.327180336404275 -0.24794371693429 2.22036619420761
-0.360500765015674 -0.225708623967666 2.19474516942486
-0.286094273579088 -0.263342120287818 2.24092483719996
-0.237002019205929 -0.273985217223143 2.25170165297209
-0.188218652171236 -0.276049647259212 2.25947557350066
-0.140730524712709 -0.280597973881453 2.26402612340371
-0.0892216169770788 -0.281378864833713 2.27359481224822
-0.034300394274168 -0.290364897419134 2.27469907634299
0.0160871536340741 -0.283015928891824 2.28426577020133
0.0664448231920024 -0.267047235938022 2.28351746609092
0.110994487804825 -0.240309800534766 2.276600852762
-0.311425574310566 -0.225349979645535 2.26379956503809
-0.352041162738345 -0.206633830441099 2.23343958477422
-0.262058319851649 -0.242720271679979 2.2780085368456
-0.214628489471744 -0.245035751924152 2.28873120733257
-0.169073886614844 -0.246007876671522 2.29688004123845
-0.125071224303815 -0.253508261509016 2.29742962638293
-0.0916367859097455 -0.242045412955435 2.31699713540454
-0.0566645211980935 -0.260523210320348 2.30346682145846
-0.0143700812709353 -0.257102518788451 2.31442109344211
0.0334840059235691 -0.250242517064044 2.31599107564642
0.0813884633127588 -0.230906357143226 2.31251634561895
-0.314880124213845 -0.1864395900233 2.30552186303822
-0.342921374263295 -0.187511394888153 2.27061002918498
-0.281789307880342 -0.212393598556416 2.301877026904
-0.234692311117878 -0.215011123692699 2.31816200084065
-0.189952291838603 -0.213816991612277 2.32857095398036
-0.141002678300722 -0.218571837819814 2.33318617304718
-0.0956064102056396 -0.213008549583281 2.34859593011979
-0.0480960738727293 -0.22582453278765 2.34392417166723
-7.18464452371809e-05 -0.225459827862582 2.34930336373576
0.0476398031065458 -0.217639925006368 2.34611650409541
0.0949333967796716 -0.194844673681055 2.33987236976814
-0.304439227841179 -0.163282181835336 2.34172147494154
-0.348664246523882 -0.149556577162954 2.30709295154114
-0.265585324250134 -0.187342888419767 2.33897552366818
-0.219654801628946 -0.181493065319786 2.35861970241007
-0.169581580125427 -0.185809485579483 2.36395297845779
-0.123778807459053 -0.185580102718814 2.37349348230065
-0.0722154223332956 -0.189433685903194 2.37964418860269
-0.0272234845096887 -0.195679535809638 2.38141527776557
0.0191295916811967 -0.192472698058319 2.38274650287001
0.0630035624961381 -0.184525302540221 2.37402285882589
0.0992044983406437 -0.158531249289971 2.37394018110742
-0.29992600002 -0.12490696799183 2.37904036812046
-0.333735559262649 -0.132598490307761 2.34558144132533
-0.266277884910512 -0.154666946146563 2.37340019659749
-0.231771524025928 -0.143234811251293 2.39165464132306
-0.188972434453093 -0.151552287896047 2.39297442880613
-0.143844496394077 -0.151751243198746 2.40071559230584
-0.0966088464901003 -0.155042380468132 2.40651224855086
-0.0479670099443405 -0.159093305090952 2.4119978110704
0.000341775747383949 -0.161950015542741 2.41359224243791
0.0518791376372806 -0.155602585851907 2.40620182027475
0.0990159313445381 -0.123826676081466 2.39966213280054
-0.341381879294378 -0.0940717762411679 2.36403654769737
-0.262838126923349 -0.106294431561703 2.40567552096034
-0.306549409037935 -0.0816718855054402 2.39575376473444
-0.213361835456387 -0.106960232375601 2.41491582685097
-0.167289222297828 -0.111653051333868 2.41985509288619
-0.120600244108663 -0.112654040445484 2.42645747393019
-0.0747638203366028 -0.117217851141925 2.43142647953646
-0.0280579927637242 -0.121678391233781 2.43628170371475
0.018618092684402 -0.123009887551055 2.43418591059608
0.0629129718997993 -0.116109590455395 2.42425533738578
0.0444227312834381 -0.0780180604875641 2.4423366789195
-0.27983103138393 -0.0552186105014895 2.41474096524171
-0.237322782102782 -0.0644864457553001 2.42436089672587
-0.188273372230828 -0.0663392807300508 2.4305339866142
-0.142504675409007 -0.0674681417460891 2.43636039279973
-0.0962036366461704 -0.0689122640994357 2.44217916046228
-0.0515886107287415 -0.0756038453426915 2.44691755648331
-0.00384836687232097 -0.079843912225232 2.44973684954383
-0.248396941113437 -0.355046483426099 2.05889740735935
-0.272267812266276 -0.339866008675188 2.02398664578443
-0.248766075780722 -0.331520528191481 1.98673398307879
-0.198744004296953 -0.361301353098855 2.05931336994799
-0.220417813201022 -0.350851123688995 2.0186064425293
-0.152672147299306 -0.363927421814022 2.05858491961233
-0.17226230694035 -0.350871586204444 2.01307379089886
-0.107239986778016 -0.366885076547433 2.06104255482646
-0.126941616212681 -0.352383928431406 2.01373458659767
-0.0618891668157678 -0.370666167879902 2.06863766654962
-0.0793443855470615 -0.356140175083353 2.01977181427712
-0.0169526863151537 -0.374767595599338 2.07890939580423
-0.0335990428226396 -0.361069725948005 2.02884232916317
0.0290956220720567 -0.373555064884986 2.08752307846284
0.0106395065652278 -0.365559705817603 2.04001809015864
0.058523693306255 -0.358831217806908 2.04930820890063
-0.300058993888892 -0.335321319080694 2.06745231499023
-0.338674542495408 -0.304388714723126 2.05263501127208
-0.309040073155444 -0.318654309887532 2.01965658566466
0.0964277536716119 -0.346293128502655 2.14263597248906
0.0722056083217956 -0.36204664739811 2.09727164771658
0.111778582149531 -0.340549066680537 2.10014048157738
-0.376775875678149 -0.249440001435749 2.1209567936168
-0.387149973771375 -0.235098271464207 2.07188939055555
-0.364183388829607 -0.277978473059609 2.08320468092965
0.117386597454525 -0.319278746447771 2.17732322403017
0.137966350749605 -0.315877152587691 2.13308807335195
0.154951622546332 -0.285628362667043 2.16159104381694
-0.379034010170025 -0.22207490176832 2.15353408450798
-0.394960290936465 -0.204249601166961 2.10788791400683
0.131162826013628 -0.284601246971881 2.20695478927379
0.162095564500517 -0.247543090431172 2.19374465132955
-0.382901757424275 -0.184885668535631 2.18888156175519
-0.395614975693582 -0.175860628105241 2.14545306037111
0.138881407500522 -0.245381616200398 2.23655991133027
0.168383969555804 -0.206657287131545 2.21963692508843
-0.377438904048928 -0.167317031109044 2.22740574249888
-0.398009622905615 -0.137347355132525 2.18633883302688
0.147402712969773 -0.205378095800794 2.26364275916313
0.172668925973168 -0.165837519243436 2.24753883808847
-0.369619106235614 -0.1508103562495 2.26700449172458
-0.393528831624497 -0.121372796061613 2.23230063397054
0.124176026140183 -0.20025374382007 2.30310672263233
0.156566988507119 -0.161377735406724 2.29047383219549
-0.383515278624884 -0.111423248797733 2.28076166049256
-0.401898065470038 -0.0759742212425563 2.2508919769623
0.131459129386204 -0.16153214280099 2.33320803927507
0.161537537865344 -0.122516581445185 2.31778808219169
-0.368031077246739 -0.10544566106207 2.32252883387721
-0.392412187127942 -0.0666735159907545 2.29866667302515
0.134794744730483 -0.125437683172174 2.36299106614238
0.158362329935811 -0.0868256154173892 2.35082195129004
-0.371041984944802 -0.0610714115165533 2.34180327981233
-0.339003288445166 -0.0511231508448243 2.37975249068965
-0.358878116379049 -0.0170080423302848 2.36144408041897
0.0916254574294297 -0.0778097398352751 2.42159908472701
0.114815975562619 -0.0378031392305154 2.40899887759516
0.128418184158545 -0.0845541017346424 2.3908834755778
-0.313622833479949 -0.0242472523876655 2.40004999738085
-0.261198505361432 -0.0142853089418972 2.42233427601188
-0.293229038217999 0.0144675681891252 2.40606273648383
-0.211586221308457 -0.0230882162156747 2.43078825469509
-0.164348047953758 -0.0202349253669521 2.4360788855123
-0.117740332613344 -0.0216743749736771 2.44145904327733
-0.0709186661541854 -0.02317916757081 2.44684696070681
-0.0279334622329475 -0.0339878670733259 2.45235980007631
-0.00258292273209847 0.00272731529402611 2.44788248305069
0.022757710493239 -0.0374197530388602 2.45042778264277
0.0714769025611133 -0.0363692092837225 2.43556567390706
-0.259822406497908 0.0437535909657028 2.40941920576687
-0.228150813364326 0.0196478674224699 2.42312342649766
-0.1840490970931 0.0249723506382873 2.42601738164879
-0.137962290280961 0.0249576043902816 2.4304291135546
-0.0912784414064242 0.0228939378105955 2.435498812215
-0.042874202374958 0.021115522453887 2.44062312266654
0.0129390049726853 0.0404294457221654 2.43361887006144
-0.336828697833514 -0.286738647452213 2.00381545771189
-0.32057744951041 -0.272364082572111 1.96512322988189
-0.28987121996311 -0.308434857911532 1.97818893776174
-0.241071530912788 -0.308340566928633 1.95126421525987
-0.19905952848089 -0.332366043242379 1.97685328705937
-0.148540739393024 -0.327736892503167 1.97025043831588
-0.0985514000163047 -0.33298872642241 1.978243101149
-0.0464900220978527 -0.337105665713742 1.98468240360374
-0.00117268896295455 -0.342774652900933 1.99332302232071
0.0429353776858818 -0.346352124142906 2.00932037975919
0.0853126349835274 -0.328170957827798 2.00867295072716
0.0980597178841337 -0.342431963566518 2.05644352045209
0.12459808141482 -0.315868391613239 2.03896746325386
-0.366758330636541 -0.265212596358938 2.03745750160945
-0.384509506578233 -0.218671788276 2.02508667388152
-0.361012177217053 -0.245007314591731 1.99457595406756
0.141231011345087 -0.313640651437724 2.08357135569213
0.157082770194178 -0.284469522730191 2.05261760013131
0.167082895495978 -0.281862027927475 2.10782327492841
-0.398791856471167 -0.186183110483306 2.06198544717845
0.186763745127859 -0.239585713219495 2.10567576323365
-0.401856832505858 -0.155613162419275 2.09495412468103
0.178814905984505 -0.247917624907369 2.14807940120138
-0.402905030517345 -0.133969245801212 2.13797188343668
0.184351977823793 -0.206179134638315 2.1723546847529
-0.405053893312861 -0.0943511442908445 2.153980285212
0.18684850858028 -0.166220244297622 2.19682208810762
-0.405007550842152 -0.0871269018546306 2.20130405588382
0.187404462412447 -0.129193014825061 2.22452766189562
-0.408244604552279 -0.0396814311943041 2.2202998769005
0.17957111172927 -0.11714129030336 2.27010873881497
-0.404432637704579 -0.0292929532037932 2.27079686020438
0.179683077656714 -0.078588453139995 2.30336139236753
-0.387628716002844 -0.0213807011263694 2.31890787928011
-0.394116176219626 0.0162446619625331 2.29036735527715
0.148053531038849 -0.0425696965276799 2.37505252746003
0.172366401868152 -0.045756893336518 2.3339711267714
-0.370389941276892 0.0216394935364146 2.33658416280137
-0.335579493820404 0.0169290986390109 2.37777544578442
-0.342603628527741 0.0587212569540477 2.3505040447206
0.0472969219068363 0.00455781985599775 2.438778104662
0.093765203330965 0.00469625957896496 2.41714911122886
0.132658352101066 0.003026340955598 2.38509357981011
-0.305816484408711 0.0547841652302936 2.38387417500689
-0.265328331086192 0.0815086718167593 2.38738276464408
-0.212826202084462 0.0656090616036996 2.40684799886714
-0.163788916583114 0.0677188715470115 2.40942313569115
-0.116443960136133 0.0666262632389158 2.41357644763688
-0.069078077751717 0.0634264551165214 2.41896591290957
-0.0230902343358574 0.0640422424791361 2.4218960447978
0.0305387648471048 0.075331873576563 2.40932860499019
0.064307798154744 0.0434108457569527 2.41746350962437
-0.309319379549153 -0.240257056042412 1.93006313953448
-0.277857605505435 -0.279564182884356 1.93914175806669
-0.229395560072419 -0.276472023955821 1.91892491403482
-0.192083942508928 -0.304902326772575 1.94197625563446
-0.14843514583558 -0.292835304201174 1.93277205093063
-0.108199540535205 -0.3006069367129 1.94182792240803
-0.0611826655247961 -0.309470795600789 1.95228210453152
-0.00500903056375779 -0.310603084919888 1.95606175070039
0.0425471636285776 -0.320254246839656 1.97331704175964
0.0877897689216243 -0.296519656659973 1.97260220170754
0.125792196382402 -0.292299056605459 2.0048188987491
-0.372759888703517 -0.192604414662219 1.98127785360891
-0.344939266828069 -0.230056133043125 1.95983086314916
0.158542981955418 -0.256230118492985 2.01528572557431
0.178777987945343 -0.248802513528094 2.06353558910855
-0.391816597237282 -0.171006268017704 2.02117669221834
0.195301070971414 -0.201123662573044 2.07802134462629
-0.397134971945023 -0.130429256737481 2.05061526898476
0.194318450748055 -0.198936883511773 2.12776671467049
-0.401043213490164 -0.107158125300898 2.09840135196596
0.194998199046501 -0.156667469327301 2.15000956007642
-0.400179467331488 -0.0637673509528249 2.11873077421668
0.194716293897534 -0.117712049779111 2.17717716884701
-0.405069783062171 -0.0484620432073576 2.16980374283875
0.191677305508924 -0.0869675739800551 2.22239277774941
-0.40392654515641 -0.00328385239937489 2.18884284700382
0.18860568463971 -0.0656806636833172 2.26185506362155
-0.405351360521301 0.00690233899994539 2.24024842658378
0.183734422663454 -0.0222777492826383 2.29744206236106
-0.390300809688676 0.0518175043196584 2.25949591200234
0.16249982296386 -0.00283606260173934 2.3451174883644
-0.37155365772548 0.0587001908554725 2.3071169382756
-0.338682550483794 0.0955904283534824 2.3195886458991
0.1066207833041 0.0444911017364104 2.38979293758892
0.141885646638773 0.0404173117015568 2.35357183705706
-0.304755526876695 0.0934182817687495 2.35653184004061
-0.261192630588959 0.119746636869007 2.35552252555113
-0.225582767404927 0.101164845580902 2.38168256441845
-0.180678812377262 0.104995907564496 2.38090477720378
-0.136561467941428 0.105401756531805 2.38275307711065
-0.0898360538550477 0.101480433882379 2.38865016640414
-0.0465325194988549 0.101278990457404 2.3910078022557
-0.00391942529265465 0.0993511681232294 2.39435938340814
0.0737491625504628 0.0814389132896449 2.38622197532984
-0.305885405314484 -0.20558804737444 1.9014403904538
-0.267408316213089 -0.24469069869433 1.90575044417021
-0.220486221718565 -0.241915532157285 1.88744064075951
-0.180834797603544 -0.268023249001977 1.90868320357119
-0.126993150635966 -0.258940070738443 1.90316484979026
-0.081096445688481 -0.271297728859444 1.91665709477499
-0.035433512733256 -0.282952186691433 1.9295012433092
0.00797652207877755 -0.271129109583717 1.92097905794845
0.0456147943169772 -0.288005967919493 1.94295605912325
0.0922195759072546 -0.261960016918869 1.94032787412298
0.128899535533563 -0.260581755850553 1.97307327232242
-0.367745869106621 -0.154932201796478 1.95125696032973
-0.343392378120418 -0.195721141575425 1.93517405578812
0.164510137346523 -0.222347489405077 1.98452508304803
0.184615514513585 -0.214387941411963 2.03092512173029
-0.386939365111469 -0.138378823791061 1.99564446773577
0.201621141011004 -0.166897224437788 2.04963361751988
-0.390400952486507 -0.0931050845881757 2.01755031162351
0.200781340480352 -0.156108178623788 2.10156328315998
-0.394789626961042 -0.0777412360798206 2.06435950316074
0.201223651774057 -0.1102144465558 2.12704746479469
-0.394009493760952 -0.0322572314939957 2.0867299942601
0.198580744132582 -0.0732708564524199 2.1728526285153
-0.398642179209911 -0.0157176136852399 2.13634236153149
0.196706349706739 -0.042382046027004 2.20832749081298
-0.397642329299061 0.0306216091952521 2.15739809020537
0.193069127239592 -0.0233805189174202 2.25083427984989
-0.399057386869101 0.0422497790996809 2.2092666403851
0.189496041447317 0.0194856720489336 2.26652604185921
-0.383914521345841 0.0867994268510724 2.22829635320404
0.1713056730881 0.0275168144735147 2.31148359455408
-0.365353928568586 0.0937781839816587 2.27586545538886
-0.331527141554684 0.13121829665731 2.28856574661192
0.113494038902172 0.0814254603516772 2.35693696995498
0.149495790582822 0.0742347712304896 2.32125292961637
-0.2983232702065 0.128824758013041 2.32501147279829
-0.249671913135926 0.153746900064751 2.32706684715493
-0.20947414909422 0.135237621938642 2.35208156660764
-0.158497904313374 0.141816812521546 2.34868649542767
-0.10583216473098 0.135239372189401 2.35728641321312
-0.0574495095292792 0.13668084860126 2.35841212826914
-0.0113688021382291 0.134511546937512 2.36269046318264
0.0364185975106574 0.113727282688887 2.37559584130345
0.0777822273698098 0.118953424591287 2.35417737087041
-0.300231714027629 -0.171574830913904 1.87141611549433
-0.262370345301536 -0.209708380977299 1.87506557843417
-0.214401820796579 -0.208847654001262 1.8577922789552
-0.169587665523775 -0.235368097882078 1.87968591041619
-0.122325934702118 -0.220651043791651 1.86873816139456
-0.0803092898152513 -0.235060568819718 1.8838935029254
-0.035709186121744 -0.24854237911015 1.89833782831017
0.0106747585757498 -0.234349419606279 1.88781953287691
0.053794770745839 -0.251581436286588 1.91081790561458
0.0993168408307345 -0.226482150623845 1.90899173902692
0.135116846471631 -0.227203576938982 1.94335051718016
-0.361154065350838 -0.119311062487059 1.9190828855871
-0.337918589770653 -0.162634724411614 1.90624346176788
0.170962836570547 -0.18823331379267 1.9544959536066
0.191307578745775 -0.179324095606142 2.00087239320828
-0.380435115215297 -0.105809869139519 1.96436313435316
0.207848796279347 -0.132891389025448 2.02044642312289
-0.383970418777891 -0.0608061844141996 1.98385012282918
0.206836914139299 -0.120865350969276 2.07290366635208
-0.388368924224868 -0.0404464088532639 2.03392197619952
0.20824268671231 -0.0753937185285649 2.0899810578581
-0.388403351476514 0.00430302421904769 2.06268759184513
0.20415012239214 -0.060035349570231 2.13428496722539
-0.392397949705364 0.0199427455342391 2.10635184075855
0.203675323759818 -0.0173745894912135 2.16544550733206
-0.391163015037509 0.0645116326805634 2.12429910026814
0.199739101860071 0.00625783469862067 2.21369493213762
-0.392970867764007 0.0760021907489035 2.17739463575651
0.196765438564804 0.0515518145211717 2.2326729019827
-0.37763697302683 0.121016389800344 2.19792225575851
0.176966604570533 0.0652770885948609 2.28016376161979
-0.358522219674392 0.128874394147528 2.2454426918461
-0.323092171329989 0.166242021076952 2.25985839349315
0.119050477119351 0.11702559912392 2.32586260480079
0.155036771246769 0.110375688892667 2.29027473751584
-0.288397400687468 0.163571956919044 2.29661282169515
-0.239994121746547 0.187838655334158 2.29770487425674
-0.198656196578268 0.168455165657651 2.32255420697901
-0.153750865909683 0.182443254169269 2.31214818990541
-0.116630843315497 0.166297735312673 2.32862817499212
-0.0689363214445125 0.169489206944457 2.32813498200586
-0.018559001471871 0.16999942943283 2.33020382090399
0.0314948163379181 0.149690195971354 2.34612740055405
0.0792259851551441 0.153685512331527 2.32566929312634
-0.293868677712743 -0.137506952727596 1.8407332551365
-0.256647099830097 -0.175084293646565 1.84432554234461
-0.210338624110865 -0.174769601998072 1.82766705214509
-0.16612188232412 -0.201424643186705 1.84913325444071
-0.116373803455397 -0.184460620796813 1.83627507252309
-0.0743705091562598 -0.198057634524717 1.85069382179976
-0.0324541437827033 -0.213077482476157 1.86639694334887
0.0138650936163942 -0.197888284403028 1.85497324873367
0.0573239275505114 -0.217024613715051 1.87897903906743
0.102664202060161 -0.193115509638254 1.87722315164664
0.141466207646814 -0.193335880347857 1.91324285532677
-0.356025680828479 -0.083016112589089 1.88963160654705
-0.331606643320984 -0.129124172253166 1.87590989287049
0.177057673804222 -0.15426960172612 1.92390420127438
0.197626543706868 -0.144846004245903 1.97021474926789
-0.374359036320147 -0.0693615936388506 1.93363776440767
0.213885628828995 -0.09933263595255 1.98889998200888
-0.376952382286518 -0.0213159070620546 1.94977043467837
0.213423088441245 -0.0859977001191401 2.03951822979274
-0.381668214761991 -0.0144744927092856 1.99391681610105
0.214238504329157 -0.0376910990222202 2.06338467813331
-0.382999915688332 0.0160474926874952 2.02457428894343
0.209655077021166 -0.022947750472109 2.11144627740593
-0.385346227982566 0.0550997023767607 2.06922948064612
0.210341341374964 0.0211021558698256 2.13369022654954
-0.385098795455074 0.0977830453002431 2.09430644144723
0.205879426123358 0.0357161860804872 2.18063970461149
-0.386877263580751 0.109548815038575 2.1473460834482
0.203469523703506 0.0835666608558472 2.20068431274184
-0.370500469488845 0.155863804943461 2.17030951503805
0.184060291738492 0.0986565872826718 2.24808685355941
-0.351067893462382 0.163657791901974 2.21678034333136
-0.315886590522391 0.200596837161333 2.23028744249334
0.123922219872303 0.151845468144135 2.29596396080204
0.161487301117728 0.14443060859884 2.25939469207886
-0.280244689442893 0.197818611081691 2.26732445507926
-0.233678208125344 0.22262622084301 2.26653043012221
-0.191743166272301 0.205200431092522 2.28963821650159
-0.141144933409462 0.218302111153311 2.28031944073743
-0.101720161690649 0.200720517883748 2.29821584657836
-0.0534443474409723 0.203685126222054 2.29795693166735
-0.00536875959953467 0.204722353910112 2.29943286609114
0.0348882185893422 0.182318822222705 2.31738257564399
0.0864622172398108 0.186091583494065 2.29592015197865
-0.294999410520842 -0.101288306384909 1.81554443524711
-0.250118131251321 -0.139609558935727 1.8124918356881
-0.202227196880044 -0.141612161617492 1.79757378928299
-0.16091920671677 -0.169072190625057 1.82010735122012
-0.111060592978601 -0.149865959734411 1.80527505682299
-0.0674763992388178 -0.160799927396065 1.81731292861276
-0.0276540876744153 -0.17536973338171 1.83250214173287
0.0158883527570115 -0.160975806293242 1.8216705388853
0.0602192194286847 -0.182791138520936 1.84732660140342
0.106880361393084 -0.159310909127071 1.84565512176262
0.143927687187652 -0.162180508741147 1.88149623082088
-0.350527854314571 -0.0461125782952038 1.86004709970237
-0.328744670514735 -0.0934397889919293 1.84890228551772
0.177720410125664 -0.125903345565108 1.88958349385195
0.203659052553892 -0.110386918017281 1.93837480600006
-0.368114857179639 -0.03164946820926 1.90205146783077
0.220940300880927 -0.0617741830584259 1.96856774318873
-0.37058299489155 0.0164251427371108 1.92385262531357
0.219337950771492 -0.0482429081066772 2.01364373459555
-0.375821772126774 0.030565823182705 1.97325161668602
0.220483356416903 -0.00113921134566931 2.03271692872643
-0.379357200032119 0.0575896829195959 2.02028155795163
0.21598180319585 0.0125871230560714 2.08067906516227
-0.378425735746929 0.100385284340399 2.03965375481511
0.216822112814894 0.0570169404563691 2.10141139840096
-0.379631535882835 0.135667945097847 2.07236468622812
0.212273628559408 0.0719104841890433 2.14972211890957
-0.380335738109078 0.144481260823015 2.12190461951586
0.209528352287925 0.118005121890097 2.17047654712144
-0.364055334980511 0.19030341859133 2.14026898997681
0.19056707991089 0.131986089664781 2.21725507518643
-0.344051929784351 0.198497836125205 2.18704328394089
-0.309668216423418 0.23486421306842 2.1995724184496
0.130793451543161 0.18598551275715 2.26477084708849
0.167917251994006 0.178547581085387 2.22843637175813
-0.274312314417396 0.231956946173044 2.23654034414931
-0.228015878942306 0.256960618009818 2.23551858929624
-0.184423104535828 0.240079416611659 2.25843143130462
-0.135759576251067 0.251867536820629 2.25017781501737
-0.0881904168817884 0.236978355186131 2.2660727655412
-0.0381832141636172 0.237748210322339 2.2678877499414
0.00832498902475005 0.238019186089385 2.26997859601972
0.0473582171492755 0.214573972459364 2.28709889885062
0.0936150918206628 0.220268021848562 2.26478867240199
-0.257662416996606 -0.10209310029361 1.79006856871944
-0.216126308702742 -0.105946071196059 1.77652449355628
-0.169703729419453 -0.103369219772266 1.77032569525125
-0.154893493863444 -0.136921232475845 1.79219064712209
-0.117577837154433 -0.109394567952689 1.77730741028984
-0.0708593443609931 -0.121256279276912 1.78741461428353
-0.0240210393579356 -0.132383963483291 1.79758684307784
0.023909461972212 -0.121723468927369 1.79494423034346
0.0633066939798499 -0.149299220158615 1.81781765348406
0.10777065977351 -0.123212256963825 1.81758658169031
0.148106998184896 -0.126941616288229 1.85045962433305
-0.338110586417582 -0.00931927371642694 1.83459009553558
-0.321497785280773 -0.0562358260347087 1.82047399327771
0.196820096716531 -0.0885292837808284 1.89221771173883
0.214535178692006 -0.0655557234739624 1.92548249080662
-0.358347569205622 0.00729052039624222 1.87389395036143
0.220063136597965 -0.0221127943846123 1.93596775353712
-0.355400173729474 0.051767252878024 1.89480402263895
0.222871405478985 -0.0101400407734268 1.98126407504183
-0.365121586402977 0.0655886860074602 1.93961174494081
0.219407499593678 0.0335469624244351 1.99989026323501
-0.372086158835785 0.0831717016855858 1.98533458396564
0.219586838422562 0.0490595588417329 2.04742977971318
-0.366026088260491 0.128821772079732 1.99998473197281
0.216510964440287 0.091664669235095 2.06929515811408
-0.369065566042104 0.156259978416328 2.03570536488777
0.21632324702456 0.107393302912573 2.11653126131715
-0.373035674625687 0.178017107204932 2.09018594631557
0.210417669076434 0.149144375320888 2.13851119793795
-0.355215949482306 0.219182852300217 2.10493345988784
0.194924479976906 0.166111668121621 2.18653412393732
-0.337820609968127 0.231316317393511 2.15432342331176
-0.302230564088157 0.264005753353777 2.16604987988915
0.135931556700769 0.220127684625148 2.23218210055651
0.167868697456202 0.211903719454987 2.19529771292098
-0.266860348435033 0.265371944984719 2.20507023179785
-0.218214584754016 0.287860098147723 2.19956092329243
-0.181005607077121 0.274031582452609 2.22484771650372
-0.139168192177207 0.282482512206163 2.21418298970023
-0.0950789393570352 0.272737392974592 2.22843126071539
-0.0504385268423631 0.268431910550469 2.2349584378706
-0.000370506474461879 0.267774791891027 2.23670579831048
0.0515079522414031 0.250077727229811 2.25384205381286
0.0969043134291243 0.250805281607565 2.23129859390669
-0.282983304076182 -0.0614021874786928 1.78812712446523
-0.237568165409383 -0.0627233622410241 1.76587522984651
-0.189887658728733 -0.0643316615616909 1.75634172047317
-0.138037976734254 -0.068361120521109 1.75944270927768
-0.08754679235053 -0.0749599061066727 1.76621300604552
-0.0414411756840937 -0.0848957931568016 1.77366425113172
0.00266501314407476 -0.0844837800848909 1.77771194198979
0.0497096530858349 -0.0742906348434504 1.77973358163054
0.0700924641039288 -0.109200608715247 1.79547932585783
0.102155565191554 -0.0736604842110334 1.79434328014145
0.138600959997439 -0.0907766192215312 1.821177502652
-0.302902297966184 -0.0194150681765536 1.79620208199565
-0.277651581793134 0.0222075977852685 1.78205797661643
-0.260342033509139 -0.0211142385233899 1.76891519764659
0.148864553318535 -0.0498053372949272 1.81827799693034
0.174925764444894 -0.0831956127568137 1.85365533525881
0.178308002746874 -0.0358416749960918 1.84624808613229
-0.335005223187548 0.0449436072116193 1.84600888450807
-0.31519807788438 0.0223336055180867 1.81216772779974
0.20241930746847 -0.0415781670596948 1.88407096320988
0.207744836281307 0.000697703464719156 1.90077116405498
-0.331759126503953 0.0828574196747057 1.8721079340853
0.21356122508063 0.0269541882498783 1.9438872478876
-0.341665189507775 0.103113126562476 1.91134116704208
0.208551185439322 0.0644525360210628 1.97116326818426
-0.354188095442529 0.114134458497686 1.95093469891691
0.211117011347743 0.0856846865897902 2.0132324697055
-0.343142681316427 0.153575770953038 1.96439257365932
0.206245631438212 0.123050861255494 2.04019108056788
-0.347012129416445 0.182203571874206 2.00069876613139
0.208609308633419 0.144098158140722 2.08204623299792
-0.360552102477872 0.197842003316612 2.05322091613038
0.201065022422033 0.179992002567655 2.10832102987279
-0.326776526230494 0.25623021593612 2.11660356574569
-0.338663897156184 0.24032729254228 2.06814744178798
-0.30774554969992 0.273353106319715 2.07417778049422
0.19156185248201 0.195623777924965 2.1524852833508
0.17830528125062 0.221248821759725 2.1087982446705
0.165015041786403 0.234248922810071 2.15397018250435
-0.259022608812727 0.290206410906882 2.16810949798514
-0.292783714883462 0.283539757725311 2.12681974335718
-0.250919912706978 0.305294949996846 2.12564185857643
0.132287763845736 0.2508474064855 2.19301636685405
0.100006637307034 0.282774134271579 2.1569218943234
0.0876313772901452 0.275958716478657 2.19579508890298
-0.211790420428479 0.307520871977604 2.15945372654261
-0.167845948963733 0.301975316452107 2.17928589673646
-0.114939460386316 0.299609143231091 2.18176225973404
-0.0704884038198723 0.294712035978275 2.1906425517158
-0.0266852469222964 0.291441352134214 2.19575711748412
0.0160535639484815 0.290569784892573 2.19523541843759
0.0491987400170849 0.276207560142544 2.21859851439277
-0.211490962117284 -0.0216192859358334 1.75299354468658
-0.160207437291597 -0.0256134803573197 1.75021712083988
-0.109452838098764 -0.0296896275333785 1.75606661030256
-0.0615957145137952 -0.0345429146517328 1.76181796408405
-0.0167792299805042 -0.0381199984958943 1.76714263254782
0.0272991244139915 -0.0339728196509734 1.77199849101997
0.0758823460357125 -0.0325778923407516 1.77984265800276
-0.233410688742779 0.0197810369152736 1.76137959456049
-0.2061487973175 0.0572597027230672 1.76539999145433
-0.18200073241535 0.0177766344038664 1.75215170520354
-0.131213300956819 0.0144012637028336 1.75543450255878
-0.0835527627435657 0.0132925438661974 1.76148147275442
-0.0362969648129338 0.00985328459508586 1.76710306635458
0.00847103427429384 0.0113213094390687 1.7732825403438
0.0553964122953639 0.0105525093339223 1.77948527981745
0.103528656633117 0.0117795691045103 1.79419831693866
0.150579299390549 0.0029311365914806 1.82173756235634
0.119383780164353 -0.028649418562762 1.79728293863488
-0.295664836160042 0.0621730111782916 1.80999237371817
-0.263655188395375 0.100638320662903 1.81228956052708
-0.253057382581881 0.0626151255243105 1.7824191084148
0.12657859424052 0.0453816708324753 1.81854896690449
0.184437999936116 0.00607556091086496 1.8593570018533
0.162614591399546 0.0461895986425338 1.85049706383386
-0.303507092702629 0.0931518318793499 1.84093022500574
-0.27018627534543 0.131549430959633 1.84827407314674
0.192897831356003 0.0421528086535679 1.89391285905086
0.165058415874043 0.0811438469178406 1.88456401753457
-0.308138945211439 0.125825222894489 1.88046583945535
-0.277223216172878 0.161889366149236 1.88613672283586
0.191839572556896 0.0725783913612812 1.92699524486583
0.163093152977086 0.113381963401874 1.91990048517506
-0.31927865329346 0.150259609626942 1.92061034656226
-0.282096733264816 0.189994584395814 1.92002832242141
0.190398988248398 0.105179206520765 1.96394714899521
0.162026938318599 0.144647827022842 1.95548370498914
-0.31616502287778 0.188437756984591 1.95554750237054
-0.280185328767297 0.223779866582583 1.95410998162995
0.189675560240979 0.133532213476136 1.99746541448594
0.161323145898146 0.175257293728515 1.99087122296121
-0.313407720772313 0.223178408862491 1.98784054982967
-0.279616913225739 0.25930866620335 1.99289372980208
0.188579403577352 0.165582160984104 2.03466848674221
0.160072778446411 0.206064849781908 2.02563810710766
-0.337013369067186 0.222410606463253 2.02420776113401
-0.30775390092005 0.259197737465973 2.02904717197991
0.186838092403784 0.194371318433417 2.06765768550113
0.156805093579166 0.234247964423884 2.06220641811166
-0.274550592872289 0.296510477271967 2.08532758196292
-0.269421537798711 0.289070854095169 2.03715265126199
-0.236954560892158 0.310172130054285 2.0713392379364
0.134531501327821 0.263995599773432 2.1463482565176
0.14828127743645 0.25401044055817 2.10438662969727
0.108355825627176 0.281529557121636 2.10491866953769
-0.212488722083121 0.316866175965414 2.11135145697896
-0.186862996800409 0.318433923571739 2.07560477257078
-0.171988404722934 0.316812254898151 2.12998788494256
-0.142959050910394 0.317023043565486 2.08909189453563
-0.129541707600076 0.312872867153329 2.13922917216656
-0.0988532684819166 0.313695489905625 2.0943118624486
-0.0827535824751645 0.309830840412036 2.14206385161948
-0.0540046578597337 0.310200779785366 2.09778182864947
-0.0384697297497059 0.306343736936655 2.14815076406685
-0.0104394927272276 0.306817094412223 2.10152387972783
0.00604512351474784 0.303531559234415 2.15019753332965
0.0337602205820452 0.303655906189641 2.1094633206653
0.0517244448026393 0.296579712903158 2.16513666885565
0.0714863575930422 0.296966521770342 2.12200334727286
-0.175392995037088 0.0902735062176497 1.77899314873692
-0.152860889763278 0.056076101211235 1.76348128747667
-0.10715276942527 0.0584485016813858 1.77111618709458
-0.0584237983770875 0.0543078161306274 1.77669856156743
-0.0135371615883094 0.0560859171447727 1.78423049548746
0.0318449955445613 0.0552948469352546 1.79080420980214
0.0778650022282533 0.0512717143057183 1.79806606615421
-0.220456762479008 0.0983848027866721 1.79079312199579
-0.177903138395915 0.125183817877789 1.80622797844284
-0.131859450969404 0.100233935382458 1.79044786714288
-0.0809157602500551 0.0933421915083297 1.79433285778184
-0.0366259751518182 0.096571231131763 1.80433123270291
0.00788858937796856 0.0965249493678235 1.81216004153451
0.0530721693539221 0.0936773122646916 1.8179701370144
0.0965015953843469 0.0838981998997141 1.82501377520933
0.131109918306447 0.0863498824754708 1.85015621085243
-0.225449402591322 0.13233802695695 1.82328178700609
-0.185620456338 0.15701735460485 1.84113480905273
-0.139710477002964 0.141037240360792 1.82750124373754
-0.100495345497839 0.125346350440346 1.81809002147153
-0.0577373211305384 0.130482884032577 1.83233848766482
-0.0140462076801249 0.131110500344139 1.84189543760863
0.0340670325314471 0.127464237956482 1.84757889755341
0.0839127085993291 0.119717102382709 1.85358480612226
0.128659682086107 0.117424037414096 1.88242538825618
-0.232358183977132 0.162976695814453 1.85925264036549
-0.187364516805036 0.187635883102364 1.87496035702662
-0.141309103019064 0.173255735392798 1.86313018598585
-0.0946939702511686 0.157182722860272 1.85464263986457
-0.0477914439865855 0.163737442253433 1.87146372807779
0.00240259483716193 0.159858663397106 1.87730950015202
0.050206113326275 0.155795911930679 1.88247807535057
0.0923085598723728 0.147953475750767 1.89001631722763
0.127446601678476 0.150387667994529 1.91943125483003
-0.23589692676379 0.192741645452476 1.8929556179422
-0.189942991083337 0.21675848885271 1.9072056437164
-0.140985838002147 0.205736341294102 1.8994409066068
-0.098407600948647 0.188417034722281 1.8887439575891
-0.0605806291938013 0.19683975010266 1.90581022192783
-0.0158638981949445 0.191099852305492 1.90846875047835
0.0321451222827094 0.187560641777402 1.9142501550321
0.0811996567734758 0.181228354572745 1.9218730212681
0.126358629481206 0.179984647820253 1.95266272242768
-0.239170602195047 0.22168899769291 1.92568423429607
-0.196335299479545 0.245530188229387 1.93946289025646
-0.146328211897281 0.236398397086785 1.93257317552595
-0.0970886527416993 0.224623992749144 1.92941562178014
-0.045554141802275 0.224802646404521 1.94006021797285
0.00261666295168785 0.220259503033224 1.9447547326084
0.0490245321241673 0.216884929388659 1.95045868269474
0.090522901617451 0.209694486815124 1.95916993576164
0.125506863300443 0.212405284645768 1.98940383286546
-0.243866265755507 0.252819588923651 1.96146779144669
-0.206066022348183 0.274723264855058 1.9735325296966
-0.159081342724312 0.268534717076318 1.96591841339643
-0.11246492473991 0.258765795104641 1.9643979411623
-0.0678081881008455 0.254452830575893 1.96863604152957
-0.0188339542238933 0.252308479183177 1.9761704575169
0.0299757693301923 0.248783503096255 1.98212967929162
0.0790684623165368 0.243095162810412 1.99085508863107
0.12388354145763 0.241430462948965 2.02242555353023
-0.239702221674189 0.285704775464641 2.00217322931502
-0.183185235556358 0.29595261777188 2.00303695913559
-0.134442380068146 0.289970943436248 2.00119693739722
-0.089798440707572 0.285353678553957 2.004349436307
-0.0449236667232065 0.281379906148575 2.00868025894506
0.00145192226473052 0.278456775637091 2.01514107499528
0.0465267299162421 0.275598362613611 2.02155929337474
0.0872215652452722 0.268761665368278 2.03126089995916
0.119071226273503 0.266686484845755 2.06449750344365
-0.214824907321618 0.30656876578466 2.03435017252798
-0.160677432224156 0.310113762507635 2.04015516742925
-0.114904439245723 0.3067531865983 2.04588632563279
-0.0698324539592896 0.302902785229321 2.04974765035848
-0.0240680546970874 0.299008500049778 2.05375663041707
0.0230771811892101 0.295919871913588 2.06084274094836
0.0700113406289007 0.290699426826178 2.07072004785759
3 0 1 2
3 0 2 4
3 3 0 4
3 3 4 6
3 5 3 6
3 5 6 8
3 7 5 8
3 7 8 10
3 9 7 10
3 9 10 12
3 11 9 12
3 13 11 14
3 14 11 12
3 13 14 15
3 16 17 18
3 16 18 1
3 0 19 1
3 19 16 1
3 0 3 20
3 19 0 20
3 3 5 21
3 20 3 21
3 5 7 22
3 21 5 22
3 7 9 23
3 22 7 23
3 9 11 24
3 23 9 24
3 24 11 25
3 25 11 13
3 13 15 26
3 27 13 26
3 25 13 27
3 27 26 28
3 17 16 30
3 30 16 29
3 29 19 31
3 29 16 19
3 31 20 32
3 31 19 20
3 32 21 33
3 32 20 21
3 21 22 33
3 33 22 34
3 22 23 34
3 34 23 35
3 23 24 35
3 35 24 36
3 24 25 36
3 36 25 37
3 37 27 38
3 37 25 27
3 38 28 39
3 38 27 28
3 30 40 41
3 30 29 40
3 29 31 42
3 40 29 42
3 31 32 43
3 42 31 43
3 32 33 44
3 43 32 44
3 33 34 45
3 44 33 45
3 34 35 46
3 45 34 46
3 35 36 47
3 46 35 47
3 36 37 47
3 47 37 48
3 37 38 48
3 48 38 49
3 49 39 50
3 49 38 39
3 40 51 52
3 41 40 52
3 51 42 53
3 51 40 42
3 42 43 53
3 53 43 54
3 43 44 54
3 54 44 55
3 44 45 55
3 55 45 56
3 45 46 56
3 56 46 57
3 46 47 58
3 57 46 58
3 47 48 59
3 58 47 59
3 48 49 60
3 59 48 60
3 49 50 61
3 60 49 61
3 51 62 63
3 52 51 63
3 51 53 64
3 62 51 64
3 53 54 65
3 64 53 65
3 54 55 66
3 65 54 66
3 55 56 67
3 66 55 67
3 56 57 67
3 67 57 68
3 57 58 69
3 68 57 69
3 58 59 69
3 69 59 70
3 59 60 70
3 70 60 71
3 71 61 72
3 71 60 61
3 62 73 74
3 63 62 74
3 62 64 75
3 73 62 75
3 64 65 75
3 75 65 76
3 65 66 76
3 76 66 77
3 66 67 77
3 77 67 78
3 67 68 78
3 78 68 79
3 79 69 80
3 79 68 69
3 80 70 81
3 80 69 70
3 81 71 82
3 81 70 71
3 82 72 83
3 82 71 72
3 74 73 85
3 85 73 84
3 84 73 86
3 86 73 75
3 75 76 86
3 86 76 87
3 76 77 88
3 87 76 88
3 77 78 89
3 88 77 89
3 78 79 90
3 89 78 90
3 79 80 91
3 90 79 91
3 80 81 92
3 91 80 92
3 81 82 93
3 92 81 93
3 93 83 94
3 93 82 83
3 84 95 85
3 84 86 96
3 97 84 96
3 95 84 97
3 96 87 98
3 96 86 87
3 87 88 98
3 98 88 99
3 88 89 99
3 99 89 100
3 89 90 100
3 100 90 101
3 101 91 102
3 101 90 91
3 102 92 103
3 102 91 92
3 92 93 103
3 105 103 104
3 103 93 104
3 93 94 104
3 96 106 97
3 96 98 107
3 106 96 107
3 98 99 108
3 107 98 108
3 99 100 109
3 108 99 109
3 100 101 110
3 109 100 110
3 101 102 111
3 110 101 111
3 111 102 112
3 112 102 103
3 103 105 112
3 117 114 115
3 116 113 117
3 117 113 114
3 116 117 119
3 118 116 119
3 118 119 121
3 120 118 121
3 120 121 123
3 122 120 123
3 122 123 125
3 124 122 125
3 124 125 127
3 126 124 127
3 126 127 128
3 129 130 131
3 114 129 131
3 114 113 129
3 113 2 129
3 129 2 1
3 4 113 116
3 4 2 113
3 6 116 118
3 6 4 116
3 8 118 120
3 8 6 118
3 10 120 122
3 10 8 120
3 12 122 124
3 12 10 122
3 14 124 126
3 14 12 124
3 133 126 128
3 15 14 126
3 15 126 133
3 132 15 133
3 132 133 134
3 135 136 137
3 137 17 135
3 137 18 17
3 18 137 130
3 129 18 130
3 18 129 1
3 15 132 26
3 139 132 134
3 139 138 132
3 138 28 26
3 132 138 26
3 138 139 140
3 136 135 142
3 142 135 141
3 17 30 135
3 135 30 141
3 143 39 28
3 138 143 28
3 143 140 144
3 143 138 140
3 141 145 146
3 142 141 146
3 41 145 141
3 30 41 141
3 147 39 143
3 147 50 39
3 147 144 148
3 147 143 144
3 145 149 150
3 146 145 150
3 52 149 145
3 41 52 145
3 151 50 147
3 151 155 50
3 151 148 152
3 151 147 148
3 149 153 154
3 150 149 154
3 63 153 149
3 52 63 149
3 155 61 50
3 155 72 61
3 155 151 156
3 156 151 152
3 154 157 158
3 154 153 157
3 74 157 153
3 63 74 153
3 159 72 155
3 159 83 72
3 159 156 160
3 159 155 156
3 158 157 162
3 162 157 161
3 74 85 161
3 157 74 161
3 163 83 159
3 163 94 83
3 163 160 164
3 163 159 160
3 161 165 162
3 165 95 166
3 165 161 95
3 161 85 95
3 165 166 167
3 95 97 166
3 105 104 168
3 170 94 163
3 170 168 94
3 169 168 170
3 94 168 104
3 163 164 170
3 166 171 167
3 173 171 172
3 172 171 106
3 171 97 106
3 171 166 97
3 172 107 174
3 172 106 107
3 174 108 175
3 174 107 108
3 175 109 176
3 175 108 109
3 176 110 177
3 176 109 110
3 177 111 178
3 177 110 111
3 178 112 180
3 178 111 112
3 181 105 168
3 181 180 105
3 179 178 180
3 180 112 105
3 168 169 181
3 172 182 173
3 182 172 183
3 183 172 174
3 174 175 184
3 183 174 184
3 175 176 185
3 184 175 185
3 176 177 186
3 185 176 186
3 177 178 187
3 186 177 187
3 187 179 188
3 187 178 179
3 179 180 229
3 189 190 191
3 114 131 191
3 115 114 191
3 115 191 192
3 115 192 193
3 117 115 193
3 119 193 194
3 119 117 193
3 119 194 121
3 121 194 195
3 121 195 123
3 123 195 196
3 123 196 125
3 125 196 197
3 127 197 198
3 127 125 197
3 128 198 199
3 200 128 199
3 128 127 198
3 200 199 201
3 202 203 204
3 131 130 189
3 190 189 204
3 189 130 202
3 189 202 204
3 131 189 191
3 128 200 133
3 134 200 205
3 206 205 201
3 134 133 200
3 205 200 201
3 205 206 207
3 136 208 203
3 202 137 136
3 202 136 203
3 137 202 130
3 134 205 139
3 139 205 207
3 140 139 207
3 211 207 209
3 136 142 208
3 208 142 210
3 211 140 207
3 211 144 140
3 146 212 210
3 142 146 210
3 148 144 213
3 213 144 211
3 150 214 212
3 146 150 212
3 215 148 213
3 215 152 148
3 154 216 150
3 150 216 214
3 219 152 217
3 217 152 215
3 158 218 216
3 154 158 216
3 219 156 152
3 219 160 156
3 158 220 218
3 158 162 220
3 221 160 219
3 221 164 160
3 162 165 222
3 223 220 222
3 220 162 222
3 165 167 222
3 169 170 224
3 225 164 221
3 224 170 164
3 224 164 225
3 222 226 223
3 167 171 227
3 226 167 227
3 226 227 228
3 226 222 167
3 171 173 227
3 180 181 229
3 181 169 230
3 231 169 224
3 230 169 231
3 230 229 181
3 224 225 271
3 227 232 228
3 232 182 233
3 232 173 182
3 227 173 232
3 182 183 234
3 233 182 234
3 183 184 234
3 234 184 235
3 184 185 235
3 235 185 236
3 185 186 236
3 236 186 237
3 186 187 237
3 237 187 238
3 238 188 239
3 238 187 188
3 188 179 229
3 240 239 188
3 240 188 229
3 229 230 240
3 191 190 242
3 242 190 241
3 192 242 243
3 192 191 242
3 192 243 244
3 193 192 244
3 194 244 245
3 194 193 244
3 194 245 246
3 195 194 246
3 195 246 247
3 196 195 247
3 196 247 248
3 197 196 248
3 197 248 249
3 198 197 249
3 199 198 249
3 250 199 249
3 201 199 251
3 251 199 250
3 204 252 253
3 204 203 252
3 190 253 241
3 190 204 253
3 206 251 254
3 206 201 251
3 207 206 255
3 255 206 254
3 203 256 252
3 203 208 256
3 257 209 255
3 255 209 207
3 210 258 208
3 208 258 256
3 211 209 259
3 259 209 257
3 212 260 210
3 210 260 258
3 213 211 259
3 261 213 259
3 214 262 260
3 212 214 260
3 215 213 261
3 263 215 261
3 216 264 214
3 214 264 262
3 217 215 263
3 265 217 263
3 218 266 264
3 216 218 264
3 219 217 265
3 267 219 265
3 218 268 266
3 218 220 268
3 221 219 267
3 269 221 267
3 223 270 268
3 220 223 268
3 225 221 269
3 271 225 269
3 223 226 272
3 270 223 272
3 272 228 273
3 272 226 228
3 274 231 275
3 274 230 231
3 275 231 271
3 271 231 224
3 273 228 276
3 276 228 232
3 276 233 277
3 276 232 233
3 233 234 278
3 277 233 278
3 234 235 279
3 278 234 279
3 235 236 280
3 279 235 280
3 236 237 281
3 280 236 281
3 237 238 282
3 281 237 282
3 238 239 283
3 282 238 283
3 327 239 284
3 284 239 240
3 240 230 274
3 284 240 274
3 241 285 286
3 242 241 286
3 242 286 243
3 243 286 287
3 243 287 288
3 244 243 288
3 245 288 289
3 245 244 288
3 245 289 246
3 246 289 290
3 246 290 247
3 247 290 291
3 247 291 248
3 248 291 292
3 248 292 293
3 249 248 293
3 249 293 250
3 250 293 294
3 250 294 295
3 251 250 295
3 252 296 297
3 253 252 297
3 241 297 285
3 241 253 297
3 254 295 298
3 254 251 295
3 254 298 299
3 255 254 299
3 256 300 252
3 252 300 296
3 257 255 299
3 301 257 299
3 258 302 300
3 256 258 300
3 259 257 303
3 303 257 301
3 260 304 258
3 258 304 302
3 261 259 303
3 305 261 303
3 262 306 304
3 260 262 304
3 263 261 305
3 307 263 305
3 264 308 262
3 262 308 306
3 265 263 307
3 309 265 307
3 266 310 308
3 264 266 308
3 267 265 309
3 311 267 309
3 266 312 310
3 266 268 312
3 269 267 311
3 313 269 311
3 270 314 312
3 268 270 312
3 271 269 315
3 315 269 313
3 270 272 316
3 314 270 316
3 316 273 317
3 316 272 273
3 318 275 319
3 318 274 275
3 275 271 315
3 319 275 315
3 273 276 320
3 317 273 320
3 276 277 320
3 320 277 321
3 277 278 322
3 321 277 322
3 322 279 323
3 322 278 279
3 279 280 323
3 323 280 324
3 280 281 324
3 324 281 325
3 281 282 325
3 325 282 326
3 282 283 326
3 326 283 327
3 283 239 327
3 327 284 328
3 284 274 318
3 328 284 318
3 285 329 330
3 286 285 330
3 286 330 287
3 287 330 331
3 287 331 332
3 288 287 332
3 288 332 289
3 289 332 333
3 289 333 334
3 290 289 334
3 290 334 335
3 291 290 335
3 291 335 292
3 292 335 336
3 292 336 337
3 293 292 337
3 293 337 294
3 294 337 338
3 294 338 339
3 295 294 339
3 296 340 341
3 297 296 341
3 285 341 329
3 285 297 341
3 298 339 342
3 298 295 339
3 298 342 343
3 299 298 343
3 300 344 296
3 296 344 340
3 301 299 343
3 345 301 343
3 302 346 344
3 300 302 344
3 303 301 347
3 347 301 345
3 304 348 302
3 302 348 346
3 305 303 347
3 349 305 347
3 306 350 348
3 304 306 348
3 307 305 351
3 351 305 349
3 308 352 306
3 306 352 350
3 309 307 353
3 353 307 351
3 310 354 352
3 308 310 352
3 311 309 355
3 355 309 353
3 312 356 310
3 310 356 354
3 313 311 355
3 357 313 355
3 314 358 356
3 312 314 356
3 315 313 359
3 359 313 357
3 314 316 360
3 358 314 360
3 360 317 361
3 360 316 317
3 362 319 363
3 362 318 319
3 319 315 359
3 363 319 359
3 317 320 364
3 361 317 364
3 320 321 364
3 364 321 365
3 321 322 366
3 365 321 366
3 322 323 366
3 366 323 367
3 323 324 368
3 367 323 368
3 324 325 369
3 368 324 369
3 325 326 370
3 369 325 370
3 326 327 371
3 370 326 371
3 327 328 371
3 371 328 372
3 328 318 362
3 372 328 362
3 329 373 374
3 330 329 374
3 330 374 331
3 331 374 375
3 331 375 376
3 332 331 376
3 332 376 333
3 333 376 377
3 333 377 378
3 334 333 378
3 334 378 379
3 335 334 379
3 335 379 336
3 336 379 380
3 336 380 381
3 337 336 381
3 337 381 338
3 338 381 382
3 338 382 383
3 339 338 383
3 340 384 385
3 341 340 385
3 329 385 373
3 329 341 385
3 342 383 386
3 342 339 383
3 342 386 387
3 343 342 387
3 344 388 340
3 340 388 384
3 345 343 387
3 389 345 387
3 346 390 388
3 344 346 388
3 347 345 391
3 391 345 389
3 348 392 346
3 346 392 390
3 349 347 391
3 393 349 391
3 350 394 348
3 348 394 392
3 351 349 395
3 395 349 393
3 352 396 350
3 350 396 394
3 353 351 395
3 397 353 395
3 354 398 396
3 352 354 396
3 355 353 399
3 399 353 397
3 356 400 354
3 354 400 398
3 357 355 399
3 401 357 399
3 358 402 400
3 356 358 400
3 359 357 403
3 403 357 401
3 358 360 404
3 402 358 404
3 404 361 405
3 404 360 361
3 406 363 407
3 406 362 363
3 363 359 403
3 407 363 403
3 361 364 408
3 405 361 408
3 364 365 408
3 408 365 409
3 365 366 410
3 409 365 410
3 366 367 410
3 410 367 411
3 367 368 412
3 411 367 412
3 368 369 412
3 412 369 413
3 369 370 413
3 413 370 414
3 370 371 415
3 414 370 415
3 371 372 415
3 415 372 416
3 372 362 406
3 416 372 406
3 373 417 418
3 374 373 418
3 374 418 375
3 375 418 419
3 375 419 420
3 376 375 420
3 376 420 377
3 377 420 421
3 377 421 422
3 378 377 422
3 378 422 423
3 379 378 423
3 380 423 424
3 380 379 423
3 380 424 425
3 381 380 425
3 382 425 426
3 382 381 425
3 382 426 427
3 383 382 427
3 384 428 429
3 385 384 429
3 373 429 417
3 373 385 429
3 386 427 430
3 386 383 427
3 386 430 431
3 387 386 431
3 384 432 428
3 384 388 432
3 389 387 431
3 433 389 431
3 390 434 432
3 388 390 432
3 435 389 433
3 435 391 389
3 390 436 434
3 390 392 436
3 393 391 435
3 437 393 435
3 394 438 436
3 392 394 436
3 395 393 439
3 439 393 437
3 396 440 438
3 394 396 438
3 397 395 439
3 441 397 439
3 398 442 440
3 396 398 440
3 399 397 443
3 443 397 441
3 400 444 398
3 398 444 442
3 401 399 443
3 445 401 443
3 402 446 444
3 400 402 444
3 403 401 447
3 447 401 445
3 402 404 448
3 446 402 448
3 448 405 449
3 448 404 405
3 450 407 451
3 450 406 407
3 407 403 447
3 451 407 447
3 405 408 452
3 449 405 452
3 408 409 452
3 452 409 453
3 409 410 454
3 453 409 454
3 410 411 454
3 454 411 455
3 411 412 456
3 455 411 456
3 412 413 456
3 456 413 457
3 457 414 458
3 457 413 414
3 414 415 459
3 458 414 459
3 415 416 459
3 459 416 460
3 416 406 450
3 460 416 450
3 418 461 462
3 418 417 461
3 419 462 463
3 419 418 462
3 419 463 464
3 420 419 464
3 420 464 421
3 421 464 465
3 421 465 466
3 422 421 466
3 422 466 467
3 423 422 467
3 424 467 468
3 424 423 467
3 424 468 469
3 425 424 469
3 426 469 470
3 426 425 469
3 427 426 471
3 471 426 470
3 429 428 473
3 473 428 472
3 417 473 505
3 417 429 473
3 430 427 471
3 520 430 471
3 431 474 475
3 431 430 474
3 428 476 472
3 428 432 476
3 433 431 475
3 477 433 475
3 434 478 476
3 432 434 476
3 479 433 477
3 479 435 433
3 434 480 478
3 434 436 480
3 437 435 479
3 481 437 479
3 438 482 436
3 436 482 480
3 439 437 483
3 483 437 481
3 440 484 482
3 438 440 482
3 441 439 483
3 485 441 483
3 442 486 440
3 440 486 484
3 443 441 487
3 487 441 485
3 444 488 442
3 442 488 486
3 445 443 487
3 489 445 487
3 444 446 488
3 488 446 490
3 491 445 489
3 491 447 445
3 490 446 492
3 492 446 448
3 492 449 493
3 492 448 449
3 494 451 495
3 494 450 451
3 451 447 491
3 495 451 491
3 449 452 496
3 493 449 496
3 496 453 497
3 496 452 453
3 453 454 498
3 497 453 498
3 498 455 499
3 498 454 455
3 455 456 500
3 499 455 500
3 456 457 501
3 500 456 501
3 457 458 502
3 501 457 502
3 458 459 503
3 502 458 503
3 503 460 504
3 503 459 460
3 504 460 494
3 494 460 450
3 461 505 506
3 462 461 506
3 507 463 462
3 507 462 506
3 465 463 508
3 508 463 507
3 464 463 465
3 465 508 509
3 465 509 466
3 466 509 510
3 466 510 467
3 467 510 511
3 467 511 468
3 468 511 512
3 468 512 513
3 469 468 513
3 469 513 470
3 515 470 514
3 470 513 514
3 470 515 471
3 472 516 473
3 518 516 517
3 518 505 516
3 461 417 505
3 505 473 516
3 505 518 506
3 515 514 519
3 474 430 520
3 521 520 519
3 520 471 515
3 520 515 519
3 474 520 524
3 476 522 472
3 516 472 523
3 472 522 523
3 516 523 517
3 520 521 524
3 477 475 524
3 524 475 474
3 525 477 524
3 478 526 522
3 476 478 522
3 527 477 525
3 527 479 477
3 478 528 526
3 478 480 528
3 481 479 527
3 529 481 527
3 482 530 480
3 480 530 528
3 483 481 531
3 531 481 529
3 484 532 530
3 482 484 530
3 485 483 531
3 533 485 531
3 486 534 484
3 484 534 532
3 535 485 533
3 535 487 485
3 486 536 534
3 486 488 536
3 537 489 535
3 535 489 487
3 490 538 539
3 536 490 539
3 488 490 536
3 538 540 539
3 541 542 543
3 541 489 537
3 542 541 537
3 541 491 489
3 490 492 538
3 545 493 544
3 538 492 493
3 538 493 545
3 540 538 545
3 544 546 545
3 547 548 549
3 543 495 541
3 547 494 495
3 547 495 543
3 608 547 543
3 495 491 541
3 493 496 544
3 544 497 550
3 546 544 550
3 544 496 497
3 550 497 551
3 551 497 498
3 498 499 551
3 551 499 552
3 499 500 552
3 552 500 553
3 500 501 553
3 553 501 554
3 554 502 555
3 554 501 502
3 502 503 556
3 555 502 556
3 503 504 556
3 549 504 547
3 556 504 549
3 504 494 547
3 506 557 507
3 507 557 558
3 508 507 558
3 508 558 559
3 509 508 559
3 509 559 560
3 510 509 560
3 510 560 561
3 511 510 561
3 511 561 562
3 512 511 562
3 514 512 563
3 563 512 562
3 513 512 514
3 517 564 518
3 518 564 557
3 566 564 565
3 557 564 566
3 557 506 518
3 558 566 567
3 558 557 566
3 559 567 568
3 559 558 567
3 560 568 569
3 560 559 568
3 561 569 570
3 561 560 569
3 562 570 571
3 562 561 570
3 563 562 571
3 572 563 571
3 574 514 563
3 572 574 563
3 573 519 574
3 574 519 514
3 519 573 521
3 522 575 523
3 577 575 576
3 577 517 575
3 564 517 577
3 575 517 523
3 564 577 565
3 573 574 572
3 521 573 579
3 580 573 578
3 579 573 580
3 579 524 521
3 524 579 525
3 522 581 575
3 522 526 581
3 576 581 582
3 576 575 581
3 583 580 584
3 583 579 580
3 583 525 579
3 583 527 525
3 526 585 581
3 526 528 585
3 582 585 586
3 582 581 585
3 587 584 588
3 587 583 584
3 587 527 583
3 587 529 527
3 528 589 585
3 528 530 589
3 586 589 590
3 586 585 589
3 591 588 592
3 591 587 588
3 591 529 587
3 591 531 529
3 532 593 589
3 530 532 589
3 590 593 594
3 590 589 593
3 595 592 596
3 595 591 592
3 595 531 591
3 595 533 531
3 534 597 593
3 532 534 593
3 594 597 598
3 594 593 597
3 599 596 600
3 599 595 596
3 599 533 595
3 599 535 533
3 534 601 597
3 534 536 601
3 602 597 601
3 602 598 597
3 603 599 600
3 604 603 600
3 603 535 599
3 603 537 535
3 536 539 601
3 606 540 605
3 606 602 540
3 602 601 539
3 540 602 539
3 605 607 606
3 608 609 610
3 608 543 609
3 604 542 603
3 609 543 542
3 609 542 604
3 542 537 603
3 540 545 605
3 605 546 607
3 612 607 611
3 605 545 546
3 607 546 611
3 612 613 614
3 612 611 613
3 614 615 616
3 614 613 615
3 616 617 618
3 616 615 617
3 618 619 620
3 618 617 619
3 620 621 622
3 620 619 621
3 622 623 624
3 622 621 623
3 610 548 608
3 624 623 548
3 624 548 610
3 548 623 549
3 548 547 608
3 546 550 611
3 611 550 613
3 613 550 551
3 551 552 615
3 613 551 615
3 552 553 617
3 615 552 617
3 553 554 619
3 617 553 619
3 554 555 621
3 619 554 621
3 621 555 623
3 623 555 556
3 556 549 623
3 565 625 626
3 567 566 626
3 626 566 565
3 567 626 627
3 568 567 627
3 568 627 628
3 569 568 628
3 569 628 629
3 570 569 629
3 570 629 630
3 571 570 630
3 572 571 631
3 631 571 630
3 572 631 578
3 576 632 577
3 625 632 633
3 565 577 632
3 565 632 625
3 625 633 634
3 626 625 634
3 626 634 627
3 627 634 635
3 627 635 628
3 628 635 636
3 628 636 629
3 629 636 637
3 629 637 630
3 630 637 638
3 631 638 639
3 631 630 638
3 640 578 639
3 578 573 572
3 578 631 639
3 578 640 580
3 576 641 632
3 576 582 641
3 633 641 642
3 633 632 641
3 633 642 643
3 634 633 643
3 634 643 644
3 635 634 644
3 635 644 645
3 636 635 645
3 636 645 646
3 637 636 646
3 637 646 647
3 638 637 647
3 638 647 648
3 639 638 648
3 640 648 649
3 640 639 648
3 584 580 640
3 649 584 640
3 582 650 641
3 582 586 650
3 642 650 651
3 642 641 650
3 642 651 652
3 643 642 652
3 643 652 653
3 644 643 653
3 644 653 645
3 645 653 654
3 645 654 646
3 646 654 655
3 646 655 647
3 647 655 656
3 647 656 648
3 648 656 657
3 648 657 649
3 649 657 658
3 588 584 649
3 658 588 649
3 586 659 650
3 586 590 659
3 650 659 651
3 651 659 660
3 651 660 661
3 652 651 661
3 652 661 662
3 653 652 662
3 653 662 654
3 654 662 663
3 654 663 664
3 655 654 664
3 655 664 665
3 656 655 665
3 656 665 666
3 657 656 666
3 657 666 658
3 658 666 667
3 592 588 658
3 667 592 658
3 590 668 659
3 590 594 668
3 660 668 669
3 660 659 668
3 660 669 670
3 661 660 670
3 661 670 671
3 662 661 671
3 662 671 663
3 663 671 672
3 663 672 664
3 664 672 673
3 664 673 665
3 665 673 674
3 665 674 666
3 666 674 675
3 666 675 667
3 667 675 676
3 596 592 667
3 676 596 667
3 594 677 668
3 594 598 677
3 668 677 669
3 669 677 678
3 669 678 679
3 670 669 679
3 670 679 680
3 671 670 680
3 671 680 681
3 672 671 681
3 672 681 682
3 673 672 682
3 673 682 683
3 674 673 683
3 674 683 684
3 675 674 684
3 676 684 685
3 676 675 684
3 600 596 676
3 685 600 676
3 598 686 677
3 598 602 606
3 678 686 687
3 678 677 686
3 678 687 679
3 679 687 688
3 679 688 680
3 680 688 689
3 680 689 681
3 681 689 690
3 681 690 682
3 682 690 691
3 683 691 692
3 683 682 691
3 684 692 693
3 684 683 692
3 685 693 694
3 685 684 693
3 694 604 685
3 685 604 600
3 598 606 686
3 606 607 695
3 686 606 695
3 686 695 687
3 688 687 696
3 696 687 695
3 688 696 697
3 689 688 697
3 689 697 698
3 690 689 698
3 690 698 699
3 691 690 699
3 691 699 700
3 692 691 700
3 692 700 701
3 693 692 701
3 610 609 694
3 701 610 694
3 701 694 693
3 609 604 694
3 607 612 695
3 695 612 696
3 696 612 614
3 614 616 697
3 696 614 697
3 616 618 698
3 697 616 698
3 618 620 699
3 698 618 699
3 620 622 700
3 699 620 700
3 622 624 701
3 700 622 701
3 624 610 701
