OFF
702 1400 0
-0.250643758962874 -0.353495870781842 2.11366538583337
-0.296246606012133 -0.33918425703459 2.09682701931666
-0.267987302031886 -0.356555802813582 2.0681563831221
-0.203688643443439 -0.359850878055869 2.11786465137673
-0.221917594849335 -0.36707949878289 2.07263996475508
-0.156821189519182 -0.364165846908685 2.12062663208934
-0.17547583202497 -0.370912822718528 2.07441040915406
-0.111388954580981 -0.367922513637435 2.12463099728362
-0.130101581872996 -0.374531071190475 2.07589793264678
-0.0664432767867244 -0.37151172390232 2.12900407575186
-0.0852920796029234 -0.377919017969396 2.08020359275083
-0.0188922415390315 -0.374482964177089 2.13631844299054
-0.0394496585803053 -0.381179975657978 2.08837288878771
0.0291812498169756 -0.370021239283756 2.14482329812276
0.00790461683244893 -0.382767955916733 2.09716569009508
0.054344499055372 -0.373908973650954 2.10637105061684
-0.31909616589695 -0.312674846397606 2.12682100114218
-0.349074464471171 -0.293980175497862 2.10056289084184
-0.327633654538459 -0.321922985794359 2.07026125175806
-0.278435743616937 -0.329380784704611 2.14542943695215
-0.231617086646022 -0.338592062746616 2.1567541691023
-0.183854430070221 -0.343570306834656 2.16015428786815
-0.137031388175192 -0.347278328610887 2.16517031490191
-0.0917641502887455 -0.350483633740614 2.17067147579369
-0.0474037762923688 -0.355483714937664 2.17281253999742
0.00126819940449562 -0.356158815205893 2.17991020795187
0.0749749848006366 -0.353709837775327 2.15138298950857
0.0463420823847227 -0.344001268551415 2.18830362694707
0.0922097397820051 -0.323212685405136 2.18715192921946
-0.306276579339006 -0.294293869031461 2.16956466149724
-0.346691755639316 -0.272590577919881 2.14295885197111
-0.260124006058465 -0.308284560265814 2.1861617692082
-0.210094017135922 -0.31454629005229 2.19372401837703
-0.1624378571059 -0.318637735681996 2.19857683290595
-0.114774221277437 -0.32095268232858 2.20550932348546
-0.0700268084386329 -0.323543768746083 2.21152795833156
-0.0276867375980862 -0.332320470848473 2.20982805056248
0.0135868786994039 -0.324258821814116 2.22087942005112
0.0590987694076204 -0.310435260846705 2.22302471824569
0.10364936928863 -0.287258570391143 2.21778994606638
-0.324880650432991 -0.258598896434524 2.19251122461754
-0.358323904287686 -0.235894324031728 2.16746849320468
-0.283704461943689 -0.274325200728478 2.21263678152281
-0.234556411684359 -0.285044470726082 2.22307857813187
-0.185752017093009 -0.287119269312954 2.23071656807659
-0.138240345768027 -0.291607477024778 2.23507708506915
-0.0867114876876338 -0.292431045499275 2.24453412968671
-0.0317580265182243 -0.301250707680336 2.24533384745827
0.0186217821670301 -0.29395044454636 2.25497827533201
0.0689232939848635 -0.277795201585913 2.25450920099963
0.11336876562164 -0.250752024373722 2.24813195815852
-0.309122734091994 -0.236957846045583 2.23642591698414
-0.349857860383453 -0.217687212533274 2.20657728492079
-0.259670429179295 -0.254480627044834 2.25014340301015
-0.212213258418156 -0.256879025839818 2.26072596165957
-0.166640632083277 -0.257881588498766 2.26876965229611
-0.122611734873392 -0.265240873253106 2.26906839195859
-0.0891804470057643 -0.254116762700748 2.28883576742754
-0.054170496041769 -0.272157161023198 2.27482130875566
-0.0118677895420231 -0.268843990070196 2.28577670811089
0.035965470150427 -0.261857020693028 2.28741977083554
0.0837972802259176 -0.242280856381078 2.28430695816309
-0.312632729062739 -0.199031380130115 2.27904006492198
-0.340734612883762 -0.199395077153112 2.2441624436845
-0.279460482464244 -0.224780248191431 2.27473944122656
-0.232324838221164 -0.227609935162857 2.29087644316105
-0.187569993385832 -0.226501720086217 2.30123102210513
-0.138596023979268 -0.231192842105645 2.30564884620346
-0.0931905803675614 -0.225829632658299 2.32110244192899
-0.0456455737338993 -0.238370657038922 2.31605250502942
0.00238698814837519 -0.237964413718479 2.32135374095985
0.0500657536786907 -0.229908678385783 2.31826361090518
0.0972698051158722 -0.20681265004743 2.31246294698543
-0.30220392218369 -0.176678440343063 2.31574532126159
-0.346539336998239 -0.162311078133184 2.28152063674365
-0.263273420536381 -0.200535362292645 2.31237679182273
-0.217326879903937 -0.19498143151563 2.33206933746404
-0.167229477938975 -0.199246919125142 2.33721314547116
-0.121410205641316 -0.19907951426588 2.34667539022207
-0.0698227177897891 -0.202895988977382 2.35264444332495
-0.024806569476862 -0.209025816532586 2.35419152839438
0.0215376938815015 -0.205690693133065 2.35551434609936
0.0653681466441641 -0.197393143135735 2.34689863657189
0.101480109398973 -0.17127941513155 2.34735113156497
-0.297752510945101 -0.139158058720571 2.3539308152598
-0.331597426561594 -0.146193046820372 2.32036332766617
-0.264013690891894 -0.168663960973058 2.34754667564008
-0.229512809684868 -0.157536601345205 2.36599873421497
-0.186683269903135 -0.165734654716491 2.3670507646359
-0.141540692080167 -0.165956334702472 2.37470547001763
-0.0942834769879645 -0.169217280217904 2.38034118524062
-0.0456180723110104 -0.173225789208138 2.38564588997355
0.00270302753460773 -0.175951889505896 2.38708861928855
0.0542047270694773 -0.169258169065572 2.37975534405256
0.101220841177266 -0.137177650430483 2.37386648904441
-0.339340836537668 -0.108128437451495 2.33971507108989
-0.260679114539943 -0.121036470408803 2.38092228661734
-0.304492274207056 -0.0963426961331567 2.37164803424815
-0.211183856167927 -0.121744421534741 2.39005728332728
-0.165086478196173 -0.126390920847082 2.39480558515737
-0.118382243605991 -0.127382792088888 2.40130056489445
-0.072521437772643 -0.131901817902335 2.40608198968349
-0.0257917966544236 -0.136311981324361 2.41075050642369
0.0208846023308985 -0.137433873924846 2.4085420411747
0.0651372976096074 -0.130153874252939 2.39869484490638
0.0465508404363838 -0.0925531094203728 2.41768206847261
-0.277829133471097 -0.0702420144067956 2.39119266485385
-0.235271860890236 -0.0795824396076083 2.40052122940293
-0.186205103598225 -0.0814078937075348 2.40656322337644
-0.140422141391038 -0.0825128938674695 2.41228111557391
-0.0941057814159392 -0.0839310581486734 2.4179831630771
-0.0494595420562616 -0.0905761742483229 2.42248715431383
-0.00170000459960701 -0.0947154415202692 2.42512353675532
-0.246031296129616 -0.361680043170261 2.02847753416467
-0.2700181936485 -0.345781517538011 1.99396822806995
-0.246613882254369 -0.336498815256129 1.9568763261571
-0.196356656528685 -0.367771588640506 2.02866140450356
-0.218141102471566 -0.356460881539498 1.98824456337468
-0.150277545504972 -0.370221294671721 2.02779114498766
-0.169996108991065 -0.356187796083535 1.98262776151808
-0.104831110699365 -0.373078122575272 2.03009960763392
-0.12466938603266 -0.357558681902748 1.98317337669628
-0.0594537199417197 -0.37687683191343 2.03752533725411
-0.0770485640755254 -0.361288907460273 1.98903823879328
-0.0144846295822357 -0.38105889930683 2.04762031796521
-0.0312700156697539 -0.366268403315659 1.99791180740386
0.0315751153165729 -0.379886409214423 2.05617821676339
0.0130041425071766 -0.370862156442075 2.00890285625907
0.0608822115444774 -0.364184463975818 2.01826090763666
-0.297744350452295 -0.342335512473208 2.03757618212635
-0.336492353971794 -0.311203009205554 2.02354412741072
-0.306870435181634 -0.324602592567942 1.99019328593852
0.098915688224625 -0.353669722613472 2.11178570540551
0.0746635838500422 -0.368457111748149 2.06611321695804
0.114168329029879 -0.346895022750345 2.06940682718498
-0.374654367149626 -0.257974999783539 2.09318160574089
-0.385167888465148 -0.242542226730099 2.0444762409601
-0.362034501262752 -0.285592343391799 2.05475949730029
0.119846430884735 -0.327389737691543 2.14704930979019
0.140332723031981 -0.322898750943643 2.10286799570734
0.157267480841143 -0.293256427343376 2.13203055225717
-0.376945521054316 -0.231375826522366 2.12638495389445
-0.393016729794379 -0.212558412268855 2.08119002262506
0.133559168130533 -0.293356979531587 2.17744791685127
0.164341031899597 -0.255897808724866 2.16504080572999
-0.380874623882668 -0.195024573227198 2.16258704250595
-0.393698719357282 -0.185045054685169 2.11940065818257
0.141198782203195 -0.254803601643927 2.20793549694993
0.170537945434874 -0.215598083337656 2.19185746447697
-0.375400490158364 -0.17832961931467 2.20149622733199
-0.396149012200345 -0.14749266601054 2.1611674764216
0.149633784318796 -0.215405655782852 2.2359181261909
0.174735362891126 -0.175417593744772 2.22068524610813
-0.367563826990137 -0.162712974858311 2.24145104705767
-0.391637762872174 -0.13256613637081 2.20747728657467
0.126462720749911 -0.211272191343064 2.27553073355032
0.158697671347236 -0.172003936086332 2.26374003878368
-0.381568652194616 -0.123701497021345 2.25613699275306
-0.40012723849257 -0.0876371640804829 2.22712490621741
0.133669473045744 -0.173229643895318 2.30650366604036
0.163586262962671 -0.133765622534524 2.291933955676
-0.36602776985506 -0.118634622108134 2.29800340619775
-0.390584856148278 -0.0794071943079577 2.27508444256566
0.13693712841394 -0.137819801506009 2.3371048183938
0.160350523981625 -0.0988565269384419 2.32578729446127
-0.369154208254634 -0.0747269620170613 2.3183008597883
-0.337079534386057 -0.0655454285059427 2.35641258119535
-0.357104248522943 -0.0310862150344784 2.33893056953582
0.0937141923051429 -0.0917042058232201 2.39687134601551
0.116744976775636 -0.0513381431196911 2.38515565604486
0.130472873996148 -0.0976120593491386 2.3659434235173
-0.311753325323396 -0.0390570461159221 2.37727927530042
-0.259322158590906 -0.029430558118767 2.39969451685411
-0.291480457106463 -0.000420972694568839 2.38414672707227
-0.209664642310144 -0.0382548174911803 2.40785559425567
-0.162426769553081 -0.0353613335235999 2.41312704499687
-0.115804561499813 -0.0367636615368689 2.4183901652103
-0.0689681670088305 -0.0382307558752931 2.42365915850003
-0.0259362817860335 -0.0490153386125568 2.42884536793999
-0.000719273913577415 -0.0121195361735943 2.42517070967758
0.0247626318465606 -0.0522269799815097 2.42674512005176
0.0734504234772898 -0.0506662475004578 2.41182504450754
-0.258167638152584 0.0288949442226107 2.38811827181596
-0.226388849969602 0.00458917427646575 2.40120718139415
-0.182300256413181 0.00999759362951839 2.40414510486461
-0.136205595267975 0.0100401023864467 2.40847381886697
-0.089505701397916 0.00802114360665696 2.41341204000122
-0.0410863011058439 0.00629203232021842 2.41840839112131
0.0146477549254717 0.0259545709408367 2.41175250092608
-0.334796836238677 -0.292426372118912 1.97514119416971
-0.318666156018272 -0.277108049862652 1.93676190495169
-0.287813144894514 -0.313364238014379 1.94893838286215
-0.239063883646648 -0.312481250462062 1.92193673319459
-0.196923081334964 -0.336945013836026 1.94689088150925
-0.146432638703296 -0.331990766878549 1.94030716379487
-0.0964110188587763 -0.337252986289751 1.94808823473649
-0.0443241116865643 -0.341337678852299 1.95433885581786
0.00102815504591268 -0.347047979605004 1.96276635589439
0.0451776303297535 -0.350841030554255 1.97859897682897
0.0874914393900268 -0.332503757241274 1.97829586091752
0.100375256965201 -0.347817761332389 2.02570240331819
0.126790647719899 -0.320767174650639 2.00879638189239
-0.364737423006362 -0.271784614180582 2.00932335334994
-0.382669860174108 -0.225032577494845 1.99805999656964
-0.35913936036713 -0.25057684272543 1.96690884009571
0.143498264309706 -0.319510537534606 2.05341029021756
0.159193349574995 -0.289579371358325 2.02310917502615
0.169286503225843 -0.288210261001513 2.07834251505924
-0.396994609204968 -0.193452262763573 2.03572303495844
0.188819223882215 -0.245828074052125 2.07713525073554
-0.400102792845295 -0.163660912432236 2.06939296425587
0.180977162636309 -0.25516228126273 2.11934956063355
-0.40114524268072 -0.143017786849932 2.11289997608768
0.186416856730612 -0.213975429232114 2.14457064455095
-0.403399474493615 -0.103786748390274 2.12982110389615
0.188822449683418 -0.174582605468607 2.16994815365808
-0.403290316719965 -0.0976548356376071 2.17729866520225
0.189303449092826 -0.138201958414161 2.19849882414877
-0.406653876250048 -0.0506711474117052 2.19738876044789
0.181513308680798 -0.127230886081108 2.24435936605817
-0.402784039188336 -0.0414359971419743 2.24810496347622
0.181555374111473 -0.0894544032814084 2.27849158450034
-0.38591831736106 -0.0345766199936754 2.29635578778402
-0.392586624554427 0.00367384552790086 2.26870163502973
0.149935808126651 -0.0552065386816612 2.35104973163275
0.174183460615068 -0.0573623563406795 2.30986285031088
-0.368793565217566 0.00808400508791959 2.31498848575484
-0.333891237271295 0.00254570997147888 2.35599862666089
-0.341108064528545 0.0449307432694748 2.32971025208833
0.049137141357548 -0.00990773355695042 2.41602275146287
0.09556464531497 -0.00911068301435948 2.39432055600443
0.134403971879731 -0.00990735120173904 2.36216632182299
-0.304246137652072 0.0403525878589655 2.36291565976526
-0.263842843458868 0.0671285968131388 2.3669677179859
-0.211250987094896 0.0509657826967588 2.38596841750014
-0.162216499586659 0.0531847670395654 2.38850478109611
-0.114860503924682 0.0521599997012966 2.39254807440296
-0.0674741206782689 0.0490001909020819 2.39777858233015
-0.0214833071719007 0.0497068628060432 2.40064080119715
0.0320836144633536 0.0614679542855015 2.38824211172067
0.0659761612021308 0.0294845734139643 2.39557934039272
-0.307582312221415 -0.244162996430451 1.90243134876575
-0.275970103336592 -0.283560173775366 1.91054586832488
-0.227556303385421 -0.279835872665679 1.89032000289142
-0.19010553379391 -0.308660994945587 1.91264387924729
-0.146515174737119 -0.296234638756369 1.9036430938283
-0.10623666790866 -0.304074105686231 1.912446255756
-0.0591706384162388 -0.313014342173988 1.92261018675545
-0.00298658566012686 -0.314039726269982 1.9262633870448
0.0446340051372023 -0.323921917014956 1.94320750815489
0.0897940984501059 -0.300021293951998 1.94295993963458
0.127841379601597 -0.296413202159518 1.97519810950504
-0.371090060351205 -0.197922236730591 1.95484296427093
-0.343181689121109 -0.234773633040866 1.93248923938521
0.160488386915934 -0.260482323848843 1.98643561871487
0.180787074714002 -0.25409883082164 2.03480801171385
-0.390146491406364 -0.177315092654467 1.99526268036921
0.19717437673877 -0.206709759597814 2.05035968284245
-0.395548667218345 -0.137445818477094 2.02563810183239
0.196276213237133 -0.205673293902917 2.10014390149845
-0.399447873301501 -0.115295662934978 2.07395472876745
0.196853056988754 -0.16392557547961 2.1233539179296
-0.39869438779492 -0.0723821614466437 2.09527735558973
0.196488641518194 -0.125607754061097 2.15141269395607
-0.403542453048314 -0.0582747962075126 2.1466981127439
0.193428475534535 -0.0959240518401525 2.19733025854318
-0.402517950420756 -0.0135436657320237 2.16677147234689
0.190357265864915 -0.0755628804934881 2.23727809682708
-0.403882488641073 -0.00454974209497983 2.21840062669844
0.185403931480878 -0.0330086128220862 2.27386464397806
-0.388949496556551 0.0399615870657311 2.23865165567848
0.164191337886532 -0.0147440565122399 2.32201301368883
-0.37013795705452 0.0458096701560284 2.2863854500985
-0.337369722948626 0.0825158393251144 2.29964602261675
0.108234030705344 0.0313480784027864 2.36786623814476
0.143445592458685 0.0282316718191034 2.33149855463459
-0.303367306574633 0.0796099500954367 2.33646927931024
-0.259896289300697 0.106104627837912 2.33599007216132
-0.224175067243221 0.0870478385779967 2.36165183427587
-0.179285936728871 0.0910506199716341 2.36088315438125
-0.135166891558845 0.0915658904070488 2.36266229902507
-0.0884175761936272 0.0876708568490934 2.36838479685957
-0.0451093253190858 0.0875644564893973 2.37066058225174
-0.00248379231982658 0.0857068607136064 2.37389147492449
0.0752301974180147 0.0682548012825859 2.36520601341443
-0.304319340561694 -0.208831977168743 1.87460930355198
-0.26570137518821 -0.247890657824094 1.87794884017788
-0.218822911752466 -0.244532518858375 1.85962492218552
-0.179043606549978 -0.270985936231567 1.88018990151658
-0.125243500123871 -0.261592404316522 1.87478717898987
-0.0792801182282835 -0.27409936308806 1.8879098091
-0.0335540992961531 -0.28588918384647 1.90040113825678
0.00979959063908925 -0.273723246622956 1.89207698914276
0.0475356710206235 -0.290972177675829 1.91359254351563
0.0940465220957515 -0.264712033218524 1.91148300983523
0.130782004459649 -0.263962252199636 1.94418656176641
-0.366259868487699 -0.159551161557986 1.92568957879582
-0.341797324391797 -0.199874438367507 1.90862771390072
0.16628325000639 -0.225879470266251 1.9564536456026
0.186447080566227 -0.218921998280445 2.00298919873911
-0.385427608746561 -0.144091324965312 1.97048072314263
0.203325364320935 -0.171816654823658 2.02275729175067
-0.38900292635228 -0.0993466113288536 1.9934304018029
0.202544751109437 -0.162230100246282 2.07492325347236
-0.393357430350204 -0.0850807370747798 2.04058898366982
0.202877801407826 -0.116934559938046 2.10145770092626
-0.392690917117389 -0.0401218963147026 2.06400053104757
0.200193685095104 -0.0810656463766345 2.14810685304657
-0.397288256976308 -0.0247460096971403 2.11398907268408
0.198279617797037 -0.0510091674107891 2.18428754178455
-0.39640737084232 0.0210988721521719 2.13610553340549
0.194656220269565 -0.0330048665472146 2.22722739128093
-0.397766208146914 0.031523747765448 2.18823075523358
0.190966126608797 0.009475765217099 2.24390935155781
-0.38274005924089 0.0756749952579466 2.20825548132184
0.172831590481777 0.0164060028027715 2.28907217587676
-0.364115500711246 0.0816196761114829 2.25593990988218
-0.330393044873615 0.118873599034471 2.26943998962739
0.114920720645617 0.0690532420026152 2.33585824049491
0.150880775058199 0.0628109474593538 2.29995432546494
-0.297113940170655 0.115755347947081 2.30576208699697
-0.248544048422992 0.140791117631932 2.30830533785117
-0.208237322811631 0.121849034402693 2.3328156449367
-0.157290144733795 0.128680449191641 2.32948298730554
-0.104586507281164 0.122088218356899 2.33783586255201
-0.0562070461167977 0.123670193794038 2.33890894417141
-0.0101113913058031 0.121561785050954 2.34305464472954
0.0377702920960164 0.100650551102951 2.35539298657032
0.0790762405155764 0.106511469577948 2.33402755725588
-0.298837023716155 -0.174116621384193 1.84536706559458
-0.260839295692608 -0.212193364351223 1.84806961477476
-0.212905973763983 -0.210769422102969 1.83073594504327
-0.167961367445802 -0.237632655729374 1.85193317592461
-0.120770349668396 -0.222504351295163 1.84124400682321
-0.078676936660614 -0.237114323354987 1.85598885452562
-0.0340045580139114 -0.250771539712932 1.87003969156111
0.0123112589181399 -0.236180110648127 1.85976933305893
0.0555321347769979 -0.253788738151414 1.88228810577068
0.100964988916875 -0.228497217082878 1.88096046999814
0.13683065699644 -0.229886766319258 1.91523012862098
-0.359848895090128 -0.123175544752344 1.8943335195711
-0.336489731554048 -0.166111453358106 1.88045781983767
0.1725642159051 -0.191060315762568 1.92720746863829
0.192964131035358 -0.183152062226793 1.9737408957815
-0.379092142075993 -0.110787938382979 1.93994696811293
0.209383212387501 -0.137125988631142 1.99435072552168
-0.382744723921833 -0.0662577200297707 1.9604723433659
0.20842727969055 -0.126315528502296 2.04707294103357
-0.387120050028971 -0.0470724937097198 2.01100788950428
0.209709691379267 -0.0812449251271843 2.06519141187589
-0.387253774596107 -0.00299820290685295 2.04079736074773
0.205646685770853 -0.0669257762207892 2.10984473118165
-0.391220954969129 0.0116173000982395 2.08481750253301
0.205084132512565 -0.0249962984182887 2.14198112128759
-0.390104697731588 0.055764768969087 2.10378510256773
0.201156571512292 -0.00249572193356408 2.19076934355941
-0.391853591761883 0.0660224410570677 2.15713450442011
0.198063696478024 0.0423383791476009 2.21079153438025
-0.376635230363222 0.110604254679868 2.1786671075475
0.17830598975868 0.0548972787237723 2.25862108373656
-0.357459600472777 0.117430976336666 2.22632216985703
-0.322130479406177 0.154578431613456 2.24153269559155
0.120298439398044 0.105378952173887 2.30560294380866
0.156241371882597 0.0996750201918173 2.26980766851492
-0.287358974331512 0.151181757229179 2.2781544020369
-0.239036705708413 0.175583604583066 2.27971991915102
-0.197587155068776 0.155775289778513 2.30404271673633
-0.152749035751235 0.170154217627985 2.29388249902382
-0.11554384750078 0.153761313631997 2.30992028037993
-0.0678614665830715 0.157127742467062 2.30941644120222
-0.0174824410077497 0.157763861413152 2.31140740171602
0.0326696011132741 0.137265792882966 2.32677008011605
0.0803490076327041 0.141896045709088 2.3063251261733
-0.292646770030787 -0.139328996345805 1.81546642382055
-0.255290828394139 -0.176850569723318 1.8181257646628
-0.209014546935479 -0.175992406332 1.8013970892833
-0.164667680736981 -0.202982411033396 1.82216495919312
-0.115001517156109 -0.185555151020693 1.8096132639846
-0.072925583214745 -0.199335904388636 1.82364046843074
-0.0309293579493974 -0.214569002485944 1.83891905903394
0.0153166858751933 -0.198960964443567 1.82776662122681
0.0588847290628112 -0.218495434168792 1.85124804838438
0.104139973168928 -0.19439601793151 1.84996356058062
0.143008980171875 -0.195312570546231 1.88589994158803
-0.354898595230654 -0.0861940904598928 1.86571764770395
-0.330348023549611 -0.131889228269231 1.85089362005559
0.178486795675223 -0.156379852849616 1.89739598377071
0.199108962894211 -0.147955068436969 1.94387499710783
-0.373197030991709 -0.0736205721807064 1.91005920414688
0.215247403726012 -0.102828574945942 1.96357557521414
-0.375924221568814 -0.0259686329881703 1.92729961060227
0.21483295258374 -0.0906653003989689 2.01448848564505
-0.380581768728139 -0.0201626454421192 1.97160022890579
0.21552789668788 -0.042918980598619 2.03946058942537
-0.381960796562702 0.00963999122015 2.0029554005878
0.210983068719696 -0.0293029698421277 2.08785728607729
-0.384357627186137 0.0476444745335674 2.04850296759244
0.211560365284315 0.0142247543790233 2.11110943509204
-0.384209270317001 0.0897392093155206 2.07455664761804
0.207135434471836 0.0277375286003954 2.15839111206258
-0.385929820729983 0.100273407686551 2.12785646263607
0.204599577886101 0.0751047949066098 2.17953758682915
-0.369668499071986 0.146103124294197 2.1518523655905
0.185226658434829 0.0890313549695971 2.22730960748713
-0.350176769843352 0.152891128990977 2.19845606297508
-0.315096610887214 0.189630199059905 2.21274879004456
0.124996297813491 0.140895150191984 2.27650627950418
0.162518798334328 0.134454535889861 2.23970944094331
-0.279377091993729 0.186122146110863 2.24964883731451
-0.232896934113991 0.21110188711409 2.24934449723108
-0.19086015745982 0.193292931850743 2.27197028331588
-0.140324150602388 0.206780267595757 2.26286651725963
-0.100806721889431 0.188926986251167 2.28028316338187
-0.052541847349094 0.192063219076534 2.28000728248262
-0.00446742718111914 0.193231926273502 2.28142171487788
0.0358987261205355 0.170559656894728 2.29877903226404
0.0874198363978812 0.175003809208168 2.27731810497735
-0.293947406196833 -0.10254363139019 1.79112118162323
-0.248941562186559 -0.14062937787043 1.78710671902336
-0.20107172485236 -0.142122529856124 1.77206180985963
-0.159628874433663 -0.169951929896623 1.79388334281585
-0.109863461814242 -0.15023719757444 1.77940955055939
-0.0662201103326777 -0.161295311778382 1.79111510187956
-0.0263204056016437 -0.176073868238159 1.80589399802716
0.0171526650075959 -0.161284104272842 1.79532007303905
0.0616049090667454 -0.183531871510814 1.82038803775561
0.10818262760128 -0.159858604043045 1.81917571374072
0.145305662632427 -0.163425601204181 1.85487558559383
-0.349581175413874 -0.0485998730029344 1.83698195830399
-0.32765752410882 -0.0955823017350869 1.82471070099748
0.178989494213345 -0.1272281269646 1.86373712404397
0.204965221374853 -0.112750817481762 1.91282718357305
-0.367139716677464 -0.0351692803622197 1.87933957833881
0.222136518868752 -0.0647874575381444 1.944102024025
-0.369731326622387 0.0123813825660738 1.90224740237282
0.220571359083236 -0.0523041117702985 1.98948070054037
-0.374926975941875 0.0253618102448882 1.9519684009994
0.22159153319048 -0.00564877619959387 2.00963252042284
-0.378467551704684 0.051282385281851 1.99961493008622
0.217131859399503 0.00695307085725811 2.05790619367684
-0.377646089486979 0.0936231672171973 2.01996674875012
0.217859113380087 0.0508959678167578 2.07965561538075
-0.378911641161619 0.128138301007141 2.05348434198742
0.213349176784862 0.0646565127226701 2.12830476692319
-0.379554341521087 0.135805198410722 2.1032154293016
0.21048524141801 0.110250905148838 2.15012099277697
-0.363396227486296 0.181247864994841 2.12260231083431
0.191562903061556 0.123084732012754 2.19724281359441
-0.343334476821306 0.188431166807434 2.16951761334133
-0.309051757337509 0.22461751001692 2.1828208474564
0.131693554572953 0.175768432674653 2.24609628550909
0.168775289960156 0.169297820326595 2.20953442612646
-0.273617923423264 0.22098105715124 2.21964935764475
-0.227408897945846 0.246161123641511 2.21912234533662
-0.18371661645757 0.228906817306418 2.24156286050994
-0.135108857266138 0.2410497331285 2.23349711276248
-0.0874599711820434 0.225962337130908 2.24896049667277
-0.0374524134843763 0.226862591829587 2.25070430961916
0.00905838000572708 0.227245680525717 2.25271859881683
0.0482028086837083 0.20354690515792 2.26922488424212
0.0943987238392779 0.209913026406636 2.24697006947799
-0.256655015094318 -0.102632397300089 1.76556754703889
-0.215131114610782 -0.106028989394411 1.75186482833864
-0.168729113451202 -0.103149919899607 1.74564499086243
-0.153764301563048 -0.137145610865262 1.7667045291983
-0.116570189395019 -0.10915478011903 1.75239377631217
-0.0697929687189135 -0.121085088256102 1.76214224852957
-0.0228983170648749 -0.132282653857733 1.77197243575279
0.0249906275781055 -0.121398885009162 1.76949149628709
0.064523756247693 -0.149358396218732 1.79165351114396
0.108898096271261 -0.12311987162064 1.7919451811426
0.149307564842441 -0.127466657946623 1.82465214597321
-0.33733636560732 -0.011187110063923 1.8123578914776
-0.320589946145263 -0.0577083499269592 1.79713474913422
0.19796658934859 -0.0898590560429466 1.8671983412692
0.215664731737622 -0.0675972014012563 1.90095244787699
-0.357557168432179 0.00444267680631433 1.85206988755573
0.221064030404453 -0.024388627724888 1.91242650015856
-0.354722675879958 0.048435645872694 1.87399435607143
0.223915172616116 -0.0134532489126214 1.95798172404475
-0.36440832128378 0.0611872571702048 1.91912588095624
0.22033688295167 0.0297807278421933 1.97761605306414
-0.371348270379817 0.0776878478719958 1.96525410800906
0.22055120043704 0.0441942312854929 2.0255001153762
-0.36541668752371 0.123008822895546 1.98094186650847
0.217370609235755 0.0862733031190826 2.04834714490377
-0.368483620942289 0.149605953659623 2.01729078344591
0.217216576783807 0.100908511349671 2.09593350382155
-0.372427168880445 0.170088036364731 2.07226533106315
0.211209423769761 0.142121379903387 2.1188803792132
-0.354720564064116 0.210964209086964 2.08792626907658
0.195747268633574 0.157924003659246 2.16730896783578
-0.337275445697935 0.222016220550328 2.13755194979538
-0.301775360133462 0.25454927757416 2.14996583309591
0.136655112322111 0.210670026668224 2.2142941455432
0.168551888678121 0.203408381941012 2.17717357458921
-0.266337978571643 0.255137876297356 2.18894469964671
-0.217779363649573 0.277914619039608 2.1838691953463
-0.180476844318284 0.263635451952053 2.20876468119865
-0.138688233381484 0.272474107376072 2.19822361563258
-0.0945397929677884 0.262555323962324 2.21216548547237
-0.0498729908701945 0.258254525765651 2.218512734896
0.000200120068365131 0.257729962118572 2.22015594240416
0.052170131335552 0.239821699979912 2.23678795686608
0.0975220269238537 0.241225082028416 2.21418701408987
-0.282117911908763 -0.0619951038046738 1.76460933141365
-0.236739721370955 -0.062646548755425 1.74225261922267
-0.189071706053987 -0.0638703111970272 1.73260026892713
-0.137202958350317 -0.0677913490993203 1.73551585933421
-0.0866771670610281 -0.0743702558610352 1.74204295596379
-0.0405242847799879 -0.0843161720015127 1.74918165348358
0.00358764697846575 -0.0838454603277807 1.75315976309214
0.0506009455517033 -0.0735394514561631 1.75533262351144
0.0711316124437942 -0.10873250884316 1.77023343391629
0.10307130692384 -0.0730652954290246 1.76986019834481
0.13962430705625 -0.090669481154563 1.79622827002745
-0.302164867513225 -0.0202741469070244 1.77368516584015
-0.277082257752142 0.0217502238660082 1.76045959762159
-0.259649543648367 -0.0211973026786534 1.74629114517711
0.149742898476881 -0.0496071159857742 1.79425578468977
0.175983013009595 -0.0837136976060469 1.82880793031764
0.179190231099461 -0.036190261139802 1.82248819649708
-0.334394776929177 0.0428086122291573 1.82501890640916
-0.314573277024195 0.0210528823308807 1.790630602771
0.203390769312677 -0.0427136457565686 1.86012610013599
0.208603097332923 -0.000815728728696674 1.87778688662287
-0.331229642865595 0.0801218983415989 1.85197916074495
0.214409651732139 0.0244601171552006 1.9214863785863
-0.341132153714682 0.099433858258354 1.89168632378964
0.209322301051312 0.0613024607664089 1.94962831253342
-0.353619365411899 0.109496624277193 1.93154546303121
0.211893498332157 0.0815682523753802 1.99217113839166
-0.342683528934252 0.148655192011483 1.94588933794468
0.206944670212854 0.118286251264291 2.01999245591689
-0.346583397033054 0.176425238893929 1.98285254601647
0.209313954570979 0.138371474878043 2.06231738645453
-0.360079512265904 0.190802417040542 2.0357450716809
0.201695992436613 0.173624084435387 2.08942586198003
-0.326385996784485 0.247830652658332 2.10039691274382
-0.338308622132908 0.233007679280448 2.05160819505172
-0.307491868675742 0.265992175253919 2.05834349769795
0.192221232479834 0.188201127084136 2.1339554327884
0.17879676272605 0.214780226382361 2.09089417417553
0.165545788033782 0.226690029710968 2.13637719644075
-0.258653176722151 0.28084434811525 2.15255242256475
-0.292467597251905 0.275014571436995 2.11117973769758
-0.250680394301862 0.296935353714018 2.11042959772715
0.132834346353727 0.242271378380957 2.17585341777508
0.100378023855461 0.274909888009086 2.14056159373405
0.0880978869778452 0.267157855423623 2.1792891868178
-0.211496315053702 0.298516436190276 2.14421454143995
-0.167496645106618 0.292666901820498 2.16383587486061
-0.114577918645852 0.290426735992607 2.16616347659505
-0.0700941086127237 0.285479595522964 2.17484990975891
-0.0262706905085173 0.282242980161574 2.17981025820094
0.016469804667349 0.281531042003522 2.1791930303817
0.0497068171798347 0.266748627750861 2.20216021734719
-0.210826531955412 -0.0211668681709681 1.73027571870853
-0.159534915111011 -0.0249191643185194 1.72731728126485
-0.108756005419029 -0.0289539901879268 1.73298149813014
-0.060872083551936 -0.0337734745450686 1.7385348161615
-0.0160339135319719 -0.0373177542035132 1.7436963566257
0.0280389531816261 -0.0331316102111009 1.74856856332495
0.0766315493612396 -0.0317502995398934 1.75635687369079
-0.232871631649644 0.0199533839262279 1.739652574628
-0.205730188499885 0.057423232009224 1.74448757766683
-0.181472280769959 0.0183394428858508 1.73029003734021
-0.130667667903344 0.0150644632534512 1.73340434302216
-0.082992539654951 0.0139810395111477 1.73933985904808
-0.0357149955181336 0.0105761158224863 1.74479710854446
0.00905908244739637 0.0120557098244856 1.7509296024846
0.0559981858547101 0.0113059890298868 1.75702998141116
0.104153069387576 0.0123596365701857 1.77168225429959
0.151284376423603 0.0030412308077668 1.79892697839661
0.120151493364547 -0.0280747857559257 1.77380611832695
-0.295179913291114 0.0609989544626768 1.78933959333736
-0.263297293867927 0.0995112590202947 1.79246619330818
-0.252625223983207 0.062223264110748 1.76170854180483
0.127133353527745 0.0454709595362426 1.7967601698883
0.18520160867431 0.00543465008811546 1.8365489684503
0.163225348177082 0.0456667146472905 1.8286546261177
-0.30307048609762 0.0912293919007599 1.82099711179803
-0.269867153171949 0.129562230390008 1.82916514497525
0.193602317505049 0.0407349693840877 1.87191221727933
0.165613017532173 0.0798348614681222 1.86351385535302
-0.307740568182572 0.122966882883597 1.86128347856687
-0.276937447219272 0.158997157698609 1.86772946062355
0.19250153787469 0.0703862927515125 1.90568894821596
0.163603230377377 0.111243155998278 1.89958744885713
-0.318889266017428 0.146431134960938 1.90200017309182
-0.281844057267169 0.186296943426037 1.90226845107021
0.191018174163276 0.102121770574328 1.94338497891492
0.162496252527177 0.141676875539647 1.9358837281281
-0.315841170343384 0.183804562272527 1.93780249885073
-0.279984794650974 0.219294266781074 1.93711637852547
0.190260088258714 0.129692191029928 1.97754910768565
0.161753568669036 0.171460135814928 1.97196858689271
-0.313142575175109 0.217801129472719 1.97088281814666
-0.279465763641283 0.253921648513283 1.97670770159231
0.189123490135235 0.160872350487825 2.01548293270879
0.160462492547428 0.201453848852343 2.00743851024584
-0.336678246663782 0.216114094000177 2.00726435589442
-0.307535373053392 0.252880609655163 2.01289868152582
0.187345065576953 0.188887485001225 2.04912998949369
0.157166382215802 0.228775364908953 2.04465245255313
-0.274355448576927 0.289000784941428 2.06996539961987
-0.269290086388921 0.282691009659712 2.02162278913182
-0.236832078983305 0.30311071310484 2.05622921355663
0.134947064050205 0.25649915789784 2.12949688014602
0.148653232224484 0.247531084071922 2.08729199323904
0.108635319423308 0.274892799523822 2.08852881479722
-0.212315309327958 0.308965262976146 2.09634177322902
-0.186761154677451 0.311444692621297 2.06059546315745
-0.171780683824233 0.308621550771257 2.11490035771688
-0.142827816453875 0.30987478667075 2.07396882077024
-0.12930381375353 0.304616639665847 2.12397330971909
-0.0987013866466734 0.306579931550724 2.07903269717159
-0.0825004405691289 0.301671449648628 2.12665437318797
-0.0538347977238784 0.303160853754539 2.08234187296876
-0.0381937967210311 0.29819772419096 2.13258096988106
-0.0102515202148035 0.299842075113053 2.08592788968592
0.00633408312357428 0.295492638784172 2.13448365180045
0.0339732969447593 0.296651196663576 2.09371418096765
0.0520643410929808 0.288355932460376 2.14917777511215
0.0717451042143203 0.289804742133843 2.10602995057265
-0.175061966687273 0.0902208830198539 1.75878368829306
-0.152442193705113 0.0564679118703116 1.74244787102506
-0.106728393572313 0.0588213388553978 1.75005458515432
-0.0579753704288552 0.0547211628279241 1.75545385287478
-0.0130812134175018 0.056479991835568 1.76294538280943
0.0323154418832739 0.0556941369661894 1.76941885310185
0.0783622232002946 0.0516634390403612 1.7765046539439
-0.220131227802579 0.0979026717753444 1.77084716461776
-0.177640699826283 0.124485462405086 1.78682036719679
-0.131541518400785 0.100064756459936 1.77038795124418
-0.0805675564695492 0.0932610202059759 1.7740229599126
-0.0362706328249964 0.0964114992356564 1.78401477153573
0.00825821790728458 0.0963383166283488 1.7917617026551
0.0534618925270503 0.0935133653039889 1.79742470511717
0.0969373172098904 0.0837243462267168 1.80416425088461
0.131583476263583 0.0857153165172623 1.82929527818412
-0.225179472915263 0.131080794169945 1.80411860367066
-0.185401914341747 0.155479353537709 1.82246528467045
-0.139463029962793 0.139976054587198 1.8083858322426
-0.100212128114619 0.124641516904459 1.79854610012421
-0.0574456000303006 0.129595751238198 1.81283354397465
-0.0137392972900557 0.130153621099014 1.82232514399764
0.0343965021346836 0.126543281448735 1.82783795556261
0.0842792896848209 0.118831725198925 1.83357554010961
0.129087018002767 0.116028975825633 1.86227642929332
-0.232126120983345 0.160858410478088 1.84079828781084
-0.187187774856256 0.185304080138818 1.85699063934483
-0.141105575837647 0.171359257436859 1.84475072155834
-0.0944517202115616 0.155646932128205 1.8358125247259
-0.0475407997779605 0.161973974699636 1.85269726343787
0.00267687455287145 0.15813461632486 1.85836330456661
0.0505034221598051 0.154118697693941 1.86335231654811
0.0926461937707013 0.146249855723516 1.87063332114887
0.127830020245265 0.148126711528234 1.90003436866246
-0.235703969066489 0.189826426112419 1.87518460337827
-0.189805866410501 0.21366682844478 1.88990314933946
-0.140825878485101 0.202995416101085 1.88179985010899
-0.0982087243776477 0.18607412867742 1.87063125231396
-0.0603792006898723 0.194231716249946 1.88782020829018
-0.0156383412196016 0.188586304344944 1.89026664453181
0.0323930555233307 0.185080371089665 1.89588002639416
0.0814828749017332 0.178743289955606 1.9032681480158
0.126702625479678 0.176946119080006 1.9339410946384
-0.239015766660622 0.21800043348085 1.90857750361918
-0.196236545992199 0.241665339317605 1.92282627183751
-0.146211454434744 0.232867226515022 1.91563947750476
-0.0969379887813877 0.221338567555833 1.91212429129202
-0.045384808761112 0.221449578272085 1.92267902811574
0.00280978303423222 0.216965588866576 1.92718238360819
0.0492393365722239 0.213620511623737 1.93272495805534
0.0907779816520907 0.206374372441068 1.94119475716006
0.125808299834913 0.208508355353917 1.97142119358478
-0.243751335257509 0.248281785852124 1.94507736687414
-0.206003702220071 0.270031836886756 1.9575769192686
-0.159012360307203 0.264182439712474 1.94973910401654
-0.112365823477681 0.254611948743302 1.9479114272341
-0.0676869006846389 0.250356476206857 1.9519700103052
-0.018691810888529 0.248207955240168 1.95936637999085
0.0301405629251552 0.244714915900196 1.96515644371157
0.0792683837283385 0.23899633144988 1.97366158939021
0.124147119798598 0.236759104055227 2.00510599525709
-0.23962414716826 0.280234387164303 1.98652257186653
-0.183140898966608 0.290654423309568 1.98752234200108
-0.134381432158093 0.284884847758831 1.98545873750563
-0.0897162754688536 0.280350129938443 1.98842501770399
-0.0448203011296896 0.276432372574798 1.99258373113206
0.00157683284752898 0.273521063387451 1.99889343219595
0.0466728961015904 0.270670950430115 2.00516433899769
0.0874086375789334 0.263752868129077 2.01463380178959
0.119326529177349 0.261022170158668 2.04775736707937
-0.214758649592412 0.300437009178489 2.01912784184022
-0.160612933036071 0.304033982635583 2.02491724487934
-0.11481824834459 0.300700083186978 2.03048846552426
-0.0697263517875198 0.296917162483771 2.03418030149567
-0.0239416241883659 0.293089354874343 2.0380175173583
0.0232268698310092 0.290000837587756 2.04494717001299
0.0701967074059005 0.284716034019699 2.05461850758519
3 0 1 2
3 0 2 4
3 3 0 4
3 3 4 6
3 5 3 6
3 5 6 8
3 7 5 8
3 7 8 10
3 9 7 10
3 9 10 12
3 11 9 12
3 13 11 14
3 14 11 12
3 13 14 15
3 16 17 18
3 16 18 1
3 0 19 1
3 19 16 1
3 0 3 20
3 19 0 20
3 3 5 21
3 20 3 21
3 5 7 22
3 21 5 22
3 7 9 23
3 22 7 23
3 9 11 24
3 23 9 24
3 24 11 25
3 25 11 13
3 13 15 26
3 27 13 26
3 25 13 27
3 27 26 28
3 17 16 30
3 30 16 29
3 29 19 31
3 29 16 19
3 31 20 32
3 31 19 20
3 32 21 33
3 32 20 21
3 21 22 33
3 33 22 34
3 22 23 34
3 34 23 35
3 23 24 35
3 35 24 36
3 24 25 36
3 36 25 37
3 37 27 38
3 37 25 27
3 38 28 39
3 38 27 28
3 30 40 41
3 30 29 40
3 29 31 42
3 40 29 42
3 31 32 43
3 42 31 43
3 32 33 44
3 43 32 44
3 33 34 45
3 44 33 45
3 34 35 46
3 45 34 46
3 35 36 47
3 46 35 47
3 36 37 47
3 47 37 48
3 37 38 48
3 48 38 49
3 49 39 50
3 49 38 39
3 40 51 52
3 41 40 52
3 51 42 53
3 51 40 42
3 42 43 53
3 53 43 54
3 43 44 54
3 54 44 55
3 44 45 55
3 55 45 56
3 45 46 56
3 56 46 57
3 46 47 58
3 57 46 58
3 47 48 59
3 58 47 59
3 48 49 60
3 59 48 60
3 49 50 61
3 60 49 61
3 51 62 63
3 52 51 63
3 51 53 64
3 62 51 64
3 53 54 65
3 64 53 65
3 54 55 66
3 65 54 66
3 55 56 67
3 66 55 67
3 56 57 67
3 67 57 68
3 57 58 69
3 68 57 69
3 58 59 69
3 69 59 70
3 59 60 70
3 70 60 71
3 71 61 72
3 71 60 61
3 62 73 74
3 63 62 74
3 62 64 75
3 73 62 75
3 64 65 75
3 75 65 76
3 65 66 76
3 76 66 77
3 66 67 77
3 77 67 78
3 67 68 78
3 78 68 79
3 79 69 80
3 79 68 69
3 80 70 81
3 80 69 70
3 81 71 82
3 81 70 71
3 82 72 83
3 82 71 72
3 74 73 85
3 85 73 84
3 84 73 86
3 86 73 75
3 75 76 86
3 86 76 87
3 76 77 88
3 87 76 88
3 77 78 89
3 88 77 89
3 78 79 90
3 89 78 90
3 79 80 91
3 90 79 91
3 80 81 92
3 91 80 92
3 81 82 93
3 92 81 93
3 93 83 94
3 93 82 83
3 84 95 85
3 84 86 96
3 97 84 96
3 95 84 97
3 96 87 98
3 96 86 87
3 87 88 98
3 98 88 99
3 88 89 99
3 99 89 100
3 89 90 100
3 100 90 101
3 101 91 102
3 101 90 91
3 102 92 103
3 102 91 92
3 92 93 103
3 105 103 104
3 103 93 104
3 93 94 104
3 96 106 97
3 96 98 107
3 106 96 107
3 98 99 108
3 107 98 108
3 99 100 109
3 108 99 109
3 100 101 110
3 109 100 110
3 101 102 111
3 110 101 111
3 111 102 112
3 112 102 103
3 103 105 112
3 117 114 115
3 116 113 117
3 117 113 114
3 116 117 119
3 118 116 119
3 118 119 121
3 120 118 121
3 120 121 123
3 122 120 123
3 122 123 125
3 124 122 125
3 124 125 127
3 126 124 127
3 126 127 128
3 129 130 131
3 114 129 131
3 114 113 129
3 113 2 129
3 129 2 1
3 4 113 116
3 4 2 113
3 6 116 118
3 6 4 116
3 8 118 120
3 8 6 118
3 10 120 122
3 10 8 120
3 12 122 124
3 12 10 122
3 14 124 126
3 14 12 124
3 133 126 128
3 15 14 126
3 15 126 133
3 132 15 133
3 132 133 134
3 135 136 137
3 137 17 135
3 137 18 17
3 18 137 130
3 129 18 130
3 18 129 1
3 15 132 26
3 139 132 134
3 139 138 132
3 138 28 26
3 132 138 26
3 138 139 140
3 136 135 142
3 142 135 141
3 17 30 135
3 135 30 141
3 143 39 28
3 138 143 28
3 143 140 144
3 143 138 140
3 141 145 146
3 142 141 146
3 41 145 141
3 30 41 141
3 147 39 143
3 147 50 39
3 147 144 148
3 147 143 144
3 145 149 150
3 146 145 150
3 52 149 145
3 41 52 145
3 151 50 147
3 151 155 50
3 151 148 152
3 151 147 148
3 149 153 154
3 150 149 154
3 63 153 149
3 52 63 149
3 155 61 50
3 155 72 61
3 155 151 156
3 156 151 152
3 154 157 158
3 154 153 157
3 74 157 153
3 63 74 153
3 159 72 155
3 159 83 72
3 159 156 160
3 159 155 156
3 158 157 162
3 162 157 161
3 74 85 161
3 157 74 161
3 163 83 159
3 163 94 83
3 163 160 164
3 163 159 160
3 161 165 162
3 165 95 166
3 165 161 95
3 161 85 95
3 165 166 167
3 95 97 166
3 105 104 168
3 170 94 163
3 170 168 94
3 169 168 170
3 94 168 104
3 163 164 170
3 166 171 167
3 173 171 172
3 172 171 106
3 171 97 106
3 171 166 97
3 172 107 174
3 172 106 107
3 174 108 175
3 174 107 108
3 175 109 176
3 175 108 109
3 176 110 177
3 176 109 110
3 177 111 178
3 177 110 111
3 178 112 180
3 178 111 112
3 181 105 168
3 181 180 105
3 179 178 180
3 180 112 105
3 168 169 181
3 172 182 173
3 182 172 183
3 183 172 174
3 174 175 184
3 183 174 184
3 175 176 185
3 184 175 185
3 176 177 186
3 185 176 186
3 177 178 187
3 186 177 187
3 187 179 188
3 187 178 179
3 179 180 229
3 189 190 191
3 114 131 191
3 115 114 191
3 115 191 192
3 115 192 193
3 117 115 193
3 119 193 194
3 119 117 193
3 119 194 121
3 121 194 195
3 121 195 123
3 123 195 196
3 123 196 125
3 125 196 197
3 127 197 198
3 127 125 197
3 128 198 199
3 200 128 199
3 128 127 198
3 200 199 201
3 202 203 204
3 131 130 189
3 190 189 204
3 189 130 202
3 189 202 204
3 131 189 191
3 128 200 133
3 134 200 205
3 206 205 201
3 134 133 200
3 205 200 201
3 205 206 207
3 136 208 203
3 202 137 136
3 202 136 203
3 137 202 130
3 134 205 139
3 139 205 207
3 140 139 207
3 211 207 209
3 136 142 208
3 208 142 210
3 211 140 207
3 211 144 140
3 146 212 210
3 142 146 210
3 148 144 213
3 213 144 211
3 150 214 212
3 146 150 212
3 215 148 213
3 215 152 148
3 154 216 150
3 150 216 214
3 219 152 217
3 217 152 215
3 158 218 216
3 154 158 216
3 219 156 152
3 219 160 156
3 158 220 218
3 158 162 220
3 221 160 219
3 221 164 160
3 162 165 222
3 223 220 222
3 220 162 222
3 165 167 222
3 169 170 224
3 225 164 221
3 224 170 164
3 224 164 225
3 222 226 223
3 167 171 227
3 226 167 227
3 226 227 228
3 226 222 167
3 171 173 227
3 180 181 229
3 181 169 230
3 231 169 224
3 230 169 231
3 230 229 181
3 224 225 271
3 227 232 228
3 232 182 233
3 232 173 182
3 227 173 232
3 182 183 234
3 233 182 234
3 183 184 234
3 234 184 235
3 184 185 235
3 235 185 236
3 185 186 236
3 236 186 237
3 186 187 237
3 237 187 238
3 238 188 239
3 238 187 188
3 188 179 229
3 240 239 188
3 240 188 229
3 229 230 240
3 191 190 242
3 242 190 241
3 192 242 243
3 192 191 242
3 192 243 244
3 193 192 244
3 194 244 245
3 194 193 244
3 194 245 246
3 195 194 246
3 195 246 247
3 196 195 247
3 196 247 248
3 197 196 248
3 197 248 249
3 198 197 249
3 199 198 249
3 250 199 249
3 201 199 251
3 251 199 250
3 204 252 253
3 204 203 252
3 190 253 241
3 190 204 253
3 206 251 254
3 206 201 251
3 207 206 255
3 255 206 254
3 203 256 252
3 203 208 256
3 257 209 255
3 255 209 207
3 210 258 208
3 208 258 256
3 211 209 259
3 259 209 257
3 212 260 210
3 210 260 258
3 213 211 259
3 261 213 259
3 214 262 260
3 212 214 260
3 215 213 261
3 263 215 261
3 216 264 214
3 214 264 262
3 217 215 263
3 265 217 263
3 218 266 264
3 216 218 264
3 219 217 265
3 267 219 265
3 218 268 266
3 218 220 268
3 221 219 267
3 269 221 267
3 223 270 268
3 220 223 268
3 225 221 269
3 271 225 269
3 223 226 272
3 270 223 272
3 272 228 273
3 272 226 228
3 274 231 275
3 274 230 231
3 275 231 271
3 271 231 224
3 273 228 276
3 276 228 232
3 276 233 277
3 276 232 233
3 233 234 278
3 277 233 278
3 234 235 279
3 278 234 279
3 235 236 280
3 279 235 280
3 236 237 281
3 280 236 281
3 237 238 282
3 281 237 282
3 238 239 283
3 282 238 283
3 327 239 284
3 284 239 240
3 240 230 274
3 284 240 274
3 241 285 286
3 242 241 286
3 242 286 243
3 243 286 287
3 243 287 288
3 244 243 288
3 245 288 289
3 245 244 288
3 245 289 246
3 246 289 290
3 246 290 247
3 247 290 291
3 247 291 248
3 248 291 292
3 248 292 293
3 249 248 293
3 249 293 250
3 250 293 294
3 250 294 295
3 251 250 295
3 252 296 297
3 253 252 297
3 241 297 285
3 241 253 297
3 254 295 298
3 254 251 295
3 254 298 299
3 255 254 299
3 256 300 252
3 252 300 296
3 257 255 299
3 301 257 299
3 258 302 300
3 256 258 300
3 259 257 303
3 303 257 301
3 260 304 258
3 258 304 302
3 261 259 303
3 305 261 303
3 262 306 304
3 260 262 304
3 263 261 305
3 307 263 305
3 264 308 262
3 262 308 306
3 265 263 307
3 309 265 307
3 266 310 308
3 264 266 308
3 267 265 309
3 311 267 309
3 266 312 310
3 266 268 312
3 269 267 311
3 313 269 311
3 270 314 312
3 268 270 312
3 271 269 315
3 315 269 313
3 270 272 316
3 314 270 316
3 316 273 317
3 316 272 273
3 318 275 319
3 318 274 275
3 275 271 315
3 319 275 315
3 273 276 320
3 317 273 320
3 276 277 320
3 320 277 321
3 277 278 322
3 321 277 322
3 322 279 323
3 322 278 279
3 279 280 323
3 323 280 324
3 280 281 324
3 324 281 325
3 281 282 325
3 325 282 326
3 282 283 326
3 326 283 327
3 283 239 327
3 327 284 328
3 284 274 318
3 328 284 318
3 285 329 330
3 286 285 330
3 286 330 287
3 287 330 331
3 287 331 332
3 288 287 332
3 288 332 289
3 289 332 333
3 289 333 334
3 290 289 334
3 290 334 335
3 291 290 335
3 291 335 292
3 292 335 336
3 292 336 337
3 293 292 337
3 293 337 294
3 294 337 338
3 294 338 339
3 295 294 339
3 296 340 341
3 297 296 341
3 285 341 329
3 285 297 341
3 298 339 342
3 298 295 339
3 298 342 343
3 299 298 343
3 300 344 296
3 296 344 340
3 301 299 343
3 345 301 343
3 302 346 344
3 300 302 344
3 303 301 347
3 347 301 345
3 304 348 302
3 302 348 346
3 305 303 347
3 349 305 347
3 306 350 348
3 304 306 348
3 307 305 351
3 351 305 349
3 308 352 306
3 306 352 350
3 309 307 353
3 353 307 351
3 310 354 352
3 308 310 352
3 311 309 355
3 355 309 353
3 312 356 310
3 310 356 354
3 313 311 355
3 357 313 355
3 314 358 356
3 312 314 356
3 315 313 359
3 359 313 357
3 314 316 360
3 358 314 360
3 360 317 361
3 360 316 317
3 362 319 363
3 362 318 319
3 319 315 359
3 363 319 359
3 317 320 364
3 361 317 364
3 320 321 364
3 364 321 365
3 321 322 366
3 365 321 366
3 322 323 366
3 366 323 367
3 323 324 368
3 367 323 368
3 324 325 369
3 368 324 369
3 325 326 370
3 369 325 370
3 326 327 371
3 370 326 371
3 327 328 371
3 371 328 372
3 328 318 362
3 372 328 362
3 329 373 374
3 330 329 374
3 330 374 331
3 331 374 375
3 331 375 376
3 332 331 376
3 332 376 333
3 333 376 377
3 333 377 378
3 334 333 378
3 334 378 379
3 335 334 379
3 335 379 336
3 336 379 380
3 336 380 381
3 337 336 381
3 337 381 338
3 338 381 382
3 338 382 383
3 339 338 383
3 340 384 385
3 341 340 385
3 329 385 373
3 329 341 385
3 342 383 386
3 342 339 383
3 342 386 387
3 343 342 387
3 344 388 340
3 340 388 384
3 345 343 387
3 389 345 387
3 346 390 388
3 344 346 388
3 347 345 391
3 391 345 389
3 348 392 346
3 346 392 390
3 349 347 391
3 393 349 391
3 350 394 348
3 348 394 392
3 351 349 395
3 395 349 393
3 352 396 350
3 350 396 394
3 353 351 395
3 397 353 395
3 354 398 396
3 352 354 396
3 355 353 399
3 399 353 397
3 356 400 354
3 354 400 398
3 357 355 399
3 401 357 399
3 358 402 400
3 356 358 400
3 359 357 403
3 403 357 401
3 358 360 404
3 402 358 404
3 404 361 405
3 404 360 361
3 406 363 407
3 406 362 363
3 363 359 403
3 407 363 403
3 361 364 408
3 405 361 408
3 364 365 408
3 408 365 409
3 365 366 410
3 409 365 410
3 366 367 410
3 410 367 411
3 367 368 412
3 411 367 412
3 368 369 412
3 412 369 413
3 369 370 413
3 413 370 414
3 370 371 415
3 414 370 415
3 371 372 415
3 415 372 416
3 372 362 406
3 416 372 406
3 373 417 418
3 374 373 418
3 374 418 375
3 375 418 419
3 375 419 420
3 376 375 420
3 376 420 377
3 377 420 421
3 377 421 422
3 378 377 422
3 378 422 423
3 379 378 423
3 380 423 424
3 380 379 423
3 380 424 425
3 381 380 425
3 382 425 426
3 382 381 425
3 382 426 427
3 383 382 427
3 384 428 429
3 385 384 429
3 373 429 417
3 373 385 429
3 386 427 430
3 386 383 427
3 386 430 431
3 387 386 431
3 384 432 428
3 384 388 432
3 389 387 431
3 433 389 431
3 390 434 432
3 388 390 432
3 435 389 433
3 435 391 389
3 390 436 434
3 390 392 436
3 393 391 435
3 437 393 435
3 394 438 436
3 392 394 436
3 395 393 439
3 439 393 437
3 396 440 438
3 394 396 438
3 397 395 439
3 441 397 439
3 398 442 440
3 396 398 440
3 399 397 443
3 443 397 441
3 400 444 398
3 398 444 442
3 401 399 443
3 445 401 443
3 402 446 444
3 400 402 444
3 403 401 447
3 447 401 445
3 402 404 448
3 446 402 448
3 448 405 449
3 448 404 405
3 450 407 451
3 450 406 407
3 407 403 447
3 451 407 447
3 405 408 452
3 449 405 452
3 408 409 452
3 452 409 453
3 409 410 454
3 453 409 454
3 410 411 454
3 454 411 455
3 411 412 456
3 455 411 456
3 412 413 456
3 456 413 457
3 457 414 458
3 457 413 414
3 414 415 459
3 458 414 459
3 415 416 459
3 459 416 460
3 416 406 450
3 460 416 450
3 418 461 462
3 418 417 461
3 419 462 463
3 419 418 462
3 419 463 464
3 420 419 464
3 420 464 421
3 421 464 465
3 421 465 466
3 422 421 466
3 422 466 467
3 423 422 467
3 424 467 468
3 424 423 467
3 424 468 469
3 425 424 469
3 426 469 470
3 426 425 469
3 427 426 471
3 471 426 470
3 429 428 473
3 473 428 472
3 417 473 505
3 417 429 473
3 430 427 471
3 520 430 471
3 431 474 475
3 431 430 474
3 428 476 472
3 428 432 476
3 433 431 475
3 477 433 475
3 434 478 476
3 432 434 476
3 479 433 477
3 479 435 433
3 434 480 478
3 434 436 480
3 437 435 479
3 481 437 479
3 438 482 436
3 436 482 480
3 439 437 483
3 483 437 481
3 440 484 482
3 438 440 482
3 441 439 483
3 485 441 483
3 442 486 440
3 440 486 484
3 443 441 487
3 487 441 485
3 444 488 442
3 442 488 486
3 445 443 487
3 489 445 487
3 444 446 488
3 488 446 490
3 491 445 489
3 491 447 445
3 490 446 492
3 492 446 448
3 492 449 493
3 492 448 449
3 494 451 495
3 494 450 451
3 451 447 491
3 495 451 491
3 449 452 496
3 493 449 496
3 496 453 497
3 496 452 453
3 453 454 498
3 497 453 498
3 498 455 499
3 498 454 455
3 455 456 500
3 499 455 500
3 456 457 501
3 500 456 501
3 457 458 502
3 501 457 502
3 458 459 503
3 502 458 503
3 503 460 504
3 503 459 460
3 504 460 494
3 494 460 450
3 461 505 506
3 462 461 506
3 507 463 462
3 507 462 506
3 465 463 508
3 508 463 507
3 464 463 465
3 465 508 509
3 465 509 466
3 466 509 510
3 466 510 467
3 467 510 511
3 467 511 468
3 468 511 512
3 468 512 513
3 469 468 513
3 469 513 470
3 515 470 514
3 470 513 514
3 470 515 471
3 472 516 473
3 518 516 517
3 518 505 516
3 461 417 505
3 505 473 516
3 505 518 506
3 515 514 519
3 474 430 520
3 521 520 519
3 520 471 515
3 520 515 519
3 474 520 524
3 476 522 472
3 516 472 523
3 472 522 523
3 516 523 517
3 520 521 524
3 477 475 524
3 524 475 474
3 525 477 524
3 478 526 522
3 476 478 522
3 527 477 525
3 527 479 477
3 478 528 526
3 478 480 528
3 481 479 527
3 529 481 527
3 482 530 480
3 480 530 528
3 483 481 531
3 531 481 529
3 484 532 530
3 482 484 530
3 485 483 531
3 533 485 531
3 486 534 484
3 484 534 532
3 535 485 533
3 535 487 485
3 486 536 534
3 486 488 536
3 537 489 535
3 535 489 487
3 490 538 539
3 536 490 539
3 488 490 536
3 538 540 539
3 541 542 543
3 541 489 537
3 542 541 537
3 541 491 489
3 490 492 538
3 545 493 544
3 538 492 493
3 538 493 545
3 540 538 545
3 544 546 545
3 547 548 549
3 543 495 541
3 547 494 495
3 547 495 543
3 608 547 543
3 495 491 541
3 493 496 544
3 544 497 550
3 546 544 550
3 544 496 497
3 550 497 551
3 551 497 498
3 498 499 551
3 551 499 552
3 499 500 552
3 552 500 553
3 500 501 553
3 553 501 554
3 554 502 555
3 554 501 502
3 502 503 556
3 555 502 556
3 503 504 556
3 549 504 547
3 556 504 549
3 504 494 547
3 506 557 507
3 507 557 558
3 508 507 558
3 508 558 559
3 509 508 559
3 509 559 560
3 510 509 560
3 510 560 561
3 511 510 561
3 511 561 562
3 512 511 562
3 514 512 563
3 563 512 562
3 513 512 514
3 517 564 518
3 518 564 557
3 566 564 565
3 557 564 566
3 557 506 518
3 558 566 567
3 558 557 566
3 559 567 568
3 559 558 567
3 560 568 569
3 560 559 568
3 561 569 570
3 561 560 569
3 562 570 571
3 562 561 570
3 563 562 571
3 572 563 571
3 574 514 563
3 572 574 563
3 573 519 574
3 574 519 514
3 519 573 521
3 522 575 523
3 577 575 576
3 577 517 575
3 564 517 577
3 575 517 523
3 564 577 565
3 573 574 572
3 521 573 579
3 580 573 578
3 579 573 580
3 579 524 521
3 524 579 525
3 522 581 575
3 522 526 581
3 576 581 582
3 576 575 581
3 583 580 584
3 583 579 580
3 583 525 579
3 583 527 525
3 526 585 581
3 526 528 585
3 582 585 586
3 582 581 585
3 587 584 588
3 587 583 584
3 587 527 583
3 587 529 527
3 528 589 585
3 528 530 589
3 586 589 590
3 586 585 589
3 591 588 592
3 591 587 588
3 591 529 587
3 591 531 529
3 532 593 589
3 530 532 589
3 590 593 594
3 590 589 593
3 595 592 596
3 595 591 592
3 595 531 591
3 595 533 531
3 534 597 593
3 532 534 593
3 594 597 598
3 594 593 597
3 599 596 600
3 599 595 596
3 599 533 595
3 599 535 533
3 534 601 597
3 534 536 601
3 602 597 601
3 602 598 597
3 603 599 600
3 604 603 600
3 603 535 599
3 603 537 535
3 536 539 601
3 606 540 605
3 606 602 540
3 602 601 539
3 540 602 539
3 605 607 606
3 608 609 610
3 608 543 609
3 604 542 603
3 609 543 542
3 609 542 604
3 542 537 603
3 540 545 605
3 605 546 607
3 612 607 611
3 605 545 546
3 607 546 611
3 612 613 614
3 612 611 613
3 614 615 616
3 614 613 615
3 616 617 618
3 616 615 617
3 618 619 620
3 618 617 619
3 620 621 622
3 620 619 621
3 622 623 624
3 622 621 623
3 610 548 608
3 624 623 548
3 624 548 610
3 548 623 549
3 548 547 608
3 546 550 611
3 611 550 613
3 613 550 551
3 551 552 615
3 613 551 615
3 552 553 617
3 615 552 617
3 553 554 619
3 617 553 619
3 554 555 621
3 619 554 621
3 621 555 623
3 623 555 556
3 556 549 623
3 565 625 626
3 567 566 626
3 626 566 565
3 567 626 627
3 568 567 627
3 568 627 628
3 569 568 628
3 569 628 629
3 570 569 629
3 570 629 630
3 571 570 630
3 572 571 631
3 631 571 630
3 572 631 578
3 576 632 577
3 625 632 633
3 565 577 632
3 565 632 625
3 625 633 634
3 626 625 634
3 626 634 627
3 627 634 635
3 627 635 628
3 628 635 636
3 628 636 629
3 629 636 637
3 629 637 630
3 630 637 638
3 631 638 639
3 631 630 638
3 640 578 639
3 578 573 572
3 578 631 639
3 578 640 580
3 576 641 632
3 576 582 641
3 633 641 642
3 633 632 641
3 633 642 643
3 634 633 643
3 634 643 644
3 635 634 644
3 635 644 645
3 636 635 645
3 636 645 646
3 637 636 646
3 637 646 647
3 638 637 647
3 638 647 648
3 639 638 648
3 640 648 649
3 640 639 648
3 584 580 640
3 649 584 640
3 582 650 641
3 582 586 650
3 642 650 651
3 642 641 650
3 642 651 652
3 643 642 652
3 643 652 653
3 644 643 653
3 644 653 645
3 645 653 654
3 645 654 646
3 646 654 655
3 646 655 647
3 647 655 656
3 647 656 648
3 648 656 657
3 648 657 649
3 649 657 658
3 588 584 649
3 658 588 649
3 586 659 650
3 586 590 659
3 650 659 651
3 651 659 660
3 651 660 661
3 652 651 661
3 652 661 662
3 653 652 662
3 653 662 654
3 654 662 663
3 654 663 664
3 655 654 664
3 655 664 665
3 656 655 665
3 656 665 666
3 657 656 666
3 657 666 658
3 658 666 667
3 592 588 658
3 667 592 658
3 590 668 659
3 590 594 668
3 660 668 669
3 660 659 668
3 660 669 670
3 661 660 670
3 661 670 671
3 662 661 671
3 662 671 663
3 663 671 672
3 663 672 664
3 664 672 673
3 664 673 665
3 665 673 674
3 665 674 666
3 666 674 675
3 666 675 667
3 667 675 676
3 596 592 667
3 676 596 667
3 594 677 668
3 594 598 677
3 668 677 669
3 669 677 678
3 669 678 679
3 670 669 679
3 670 679 680
3 671 670 680
3 671 680 681
3 672 671 681
3 672 681 682
3 673 672 682
3 673 682 683
3 674 673 683
3 674 683 684
3 675 674 684
3 676 684 685
3 676 675 684
3 600 596 676
3 685 600 676
3 598 686 677
3 598 602 606
3 678 686 687
3 678 677 686
3 678 687 679
3 679 687 688
3 679 688 680
3 680 688 689
3 680 689 681
3 681 689 690
3 681 690 682
3 682 690 691
3 683 691 692
3 683 682 691
3 684 692 693
3 684 683 692
3 685 693 694
3 685 684 693
3 694 604 685
3 685 604 600
3 598 606 686
3 606 607 695
3 686 606 695
3 686 695 687
3 688 687 696
3 696 687 695
3 688 696 697
3 689 688 697
3 689 697 698
3 690 689 698
3 690 698 699
3 691 690 699
3 691 699 700
3 692 691 700
3 692 700 701
3 693 692 701
3 610 609 694
3 701 610 694
3 701 694 693
3 609 604 694
3 607 612 695
3 695 612 696
3 696 612 614
3 614 616 697
3 696 614 697
3 616 618 698
3 697 616 698
3 618 620 699
3 698 618 699
3 620 622 700
3 699 620 700
3 622 624 701
3 700 622 701
3 624 610 701
