OFF
702 1400 0
-0.250935483545645 -0.352440146707648 2.11846799451689
-0.296527238215145 -0.338131425288853 2.10159716372776
-0.2682859678889 -0.355601340605574 2.07296855996882
-0.203985609795977 -0.358825869251392 2.12267925614313
-0.222225158807901 -0.366154225571376 2.07747489847167
-0.157121729206638 -0.363175165932993 2.12544801858934
-0.175786636077357 -0.37002404335449 2.07925093251702
-0.11169245788007 -0.36696171095485 2.12945786154568
-0.130415461957904 -0.373678567908617 2.08074359266105
-0.0667495611618235 -0.370579425422077 2.13383603178068
-0.0856085691739631 -0.377095072016526 2.08505384146235
-0.0192004876886491 -0.373573938695502 2.14115366063831
-0.0397682854903441 -0.380375601153171 2.09322729412257
0.0288777200358973 -0.369132925625944 2.14964268095348
0.00758538828079935 -0.381982897629666 2.10201982586336
0.054033938000245 -0.373141404795167 2.11119823113975
-0.319350569495026 -0.311525069062773 2.13152520313331
-0.34931478781827 -0.292871249973144 2.1052220072125
-0.327901501093652 -0.320910543840108 2.07499011246388
-0.278703188031746 -0.328219203072482 2.15017268199358
-0.231891631822699 -0.33744280878001 2.16151671765288
-0.184133075446556 -0.342454534413021 2.16492523405245
-0.137312860376319 -0.346191071792031 2.16994648431428
-0.092047959283247 -0.349422276404424 2.17545172034803
-0.0476918208676395 -0.354456058100566 2.17760155189749
0.000980201130298702 -0.355155985676098 2.18469649693049
0.0746864605167121 -0.352845248472964 2.1561563897681
0.0460655908279021 -0.343016813648021 2.19305463597504
0.0919514902290134 -0.322271794368264 2.19184550271786
-0.30651076105567 -0.293045973164532 2.17422046004815
-0.346909227182006 -0.271375211918794 2.14756280706313
-0.260369019326113 -0.30703487722472 2.19084916051925
-0.210343877312637 -0.313321423651085 2.19842287589288
-0.162690898428694 -0.317442537939265 2.20328182078969
-0.115028680175201 -0.319781837933869 2.2102158824199
-0.0702830129744959 -0.322397040835624 2.21623706424297
-0.0279508719502715 -0.331215485219347 2.21455579687685
0.0133308815819561 -0.323162027118858 2.22558271815743
0.0588551680712773 -0.309373242620423 2.22768844836188
0.10342573964014 -0.286249422269533 2.22239025504673
-0.325081146719496 -0.257275897317124 2.19707718201713
-0.358506662695053 -0.234606015228052 2.17197940201898
-0.28391699220626 -0.272986969641179 2.2172392200004
-0.234777458347751 -0.283722882638717 2.2277039748603
-0.185974203800657 -0.285821236034499 2.23534281440816
-0.138466110035274 -0.290340244592217 2.23971049313202
-0.086937117903589 -0.291185119592939 2.2491649274951
-0.0319913963495607 -0.300051266881328 2.24998223965565
0.0183957420392374 -0.292770844505925 2.25960334609014
0.0687114640415296 -0.276661317940761 2.25908830217521
0.11318021704302 -0.249673859305827 2.25263774468611
-0.309300020034956 -0.23553633683258 2.2409348466324
-0.350020887826698 -0.216306250085581 2.21104064391698
-0.259861937292097 -0.253067611928279 2.25469268462495
-0.212405917321807 -0.255480829273871 2.26527703494145
-0.166833444554435 -0.256503055057689 2.27331912063572
-0.122811039073368 -0.263900459007214 2.27363270869051
-0.0893680921441906 -0.252755288067017 2.29336847425473
-0.0543754014981322 -0.270862468197387 2.27939709926601
-0.0120687625862189 -0.267558626111967 2.29034012377715
0.0357708047333775 -0.260609746464679 2.29196092583826
0.0836196019082407 -0.241083902106176 2.28879361183325
-0.312772529558042 -0.197497724326147 2.28345199755056
-0.340877976607097 -0.197925945970122 2.24857798021105
-0.279623447292173 -0.223286833462981 2.27921434373516
-0.232488816719145 -0.226116821926491 2.29535425340159
-0.187732044641414 -0.22502163414971 2.30570188592868
-0.138761827309333 -0.229744701782905 2.31012725840804
-0.0933502216817176 -0.224382045800001 2.32556292946993
-0.0458167852957672 -0.236977981905985 2.32054081537756
0.00221661099887366 -0.236600607494948 2.32583662182756
0.049902187056558 -0.228594956429758 2.32272152229958
0.0971260850864366 -0.205555592853654 2.31685740430352
-0.302320553662452 -0.175060038981363 2.32009891078
-0.346646448934878 -0.160741235785894 2.28584156095041
-0.263411460077357 -0.198959909792006 2.31678797652803
-0.217458193772927 -0.193396150562062 2.33646204565938
-0.167364100549916 -0.197692718130548 2.34161220685043
-0.121543815898993 -0.197541564124257 2.35106982182329
-0.0699591636878602 -0.20138832294281 2.35704393931864
-0.024948304788912 -0.207553948268392 2.35860262867946
0.0213990103672919 -0.204256405764104 2.35991267915327
0.0652359734670855 -0.196019697243584 2.35127174894088
0.10137103666944 -0.169936820642362 2.35165404668778
-0.29783243196292 -0.137445892244626 2.35818773827413
-0.331686680692486 -0.144536948155599 2.32464146630504
-0.264120290278187 -0.166997860777627 2.35187615021303
-0.229607870238512 -0.155853756093066 2.37029649754376
-0.186785492538816 -0.164086935572725 2.37136563214719
-0.141642414453368 -0.164328898124097 2.37901677219917
-0.0943875735507126 -0.167617156861636 2.38465652358905
-0.0457252349933446 -0.171655068949662 2.38996705285622
0.00259357172652067 -0.174420167727941 2.39141236490373
0.0541004811355337 -0.167790776741127 2.38405727603441
0.101144371832075 -0.135767015731388 2.37808196399879
-0.339394651141278 -0.106416053088408 2.343896320468
-0.260740521609766 -0.119287978832357 2.38512931537842
-0.304532711067501 -0.0945793363025126 2.37579580950815
-0.211245056268304 -0.120016264799569 2.39426159172016
-0.165151358986712 -0.124691320896299 2.39901758829348
-0.118447413410089 -0.125707823419146 2.40551083780331
-0.0725901724564069 -0.130255112542627 2.41029965213918
-0.0258640109073397 -0.134694596816831 2.41497520079891
0.0208111724404366 -0.135863395152744 2.41276536960594
0.0650693639855137 -0.128647761641606 2.40289552547383
0.0465179067961045 -0.0909820605471798 2.4217880362179
-0.277844696989556 -0.0684522383811469 2.3952710734289
-0.235294823774547 -0.0778063391489691 2.40461966675689
-0.186229135180693 -0.079659670024435 2.41066185282461
-0.140446634054955 -0.0807904778672745 2.41637839105105
-0.0941310135423351 -0.082234960681301 2.42207983849279
-0.0494902429423682 -0.0889079697050536 2.42659677825441
-0.00173413564786128 -0.0930826756538924 2.42923941147078
-0.246338198899212 -0.360846629478187 2.03330097282241
-0.270314258610555 -0.345015381239018 1.99875322735461
-0.246905214325015 -0.335848432217148 1.96163553302605
-0.196668943871914 -0.366981582678497 2.03349592990301
-0.218447157379066 -0.355755218583387 1.99305222343784
-0.150592096612676 -0.369474233016157 2.03262775656606
-0.170302465488207 -0.355539074563492 1.98743035893423
-0.105147988555684 -0.372365300224136 2.03493939566059
-0.12497692076132 -0.356948616026219 1.98797535992125
-0.0597732794292639 -0.376185073181899 2.04237070451193
-0.0773588663922899 -0.360705887320248 1.99384542674635
-0.0148069602949727 -0.380381002919268 2.05247227509041
-0.0315839080094065 -0.365703087410716 2.00272755877088
0.031254600547302 -0.379227296965098 2.06102294993774
0.0126871990510165 -0.370307791344248 2.01372631262434
0.0605720220039092 -0.363648460114461 2.02306286634304
-0.298033292549561 -0.341433155022045 2.04235473182198
-0.336755082743172 -0.31030247381093 2.02824648077751
-0.307148125276276 -0.32381363693277 1.99492738603218
0.0986234967616039 -0.352927745839646 2.11655695431764
0.0743540769259417 -0.367810667028335 2.07092471173926
0.113878164650003 -0.346275131808826 2.07415946897745
-0.374863556865519 -0.256862511580845 2.09775082065578
-0.385367981244698 -0.241545294076514 2.04900703039089
-0.362271680525727 -0.284589350086042 2.05939845206204
0.119580739530362 -0.326576004860837 2.15175120261075
0.140066870835415 -0.322216339039172 2.10755666244937
0.157030532052858 -0.292514371979936 2.13664163152124
-0.377128111637953 -0.230176339188169 2.13088611494617
-0.393186903373438 -0.211460586912044 2.08564458019397
0.133326375860517 -0.292477604878997 2.18206126203922
0.164140166927264 -0.255077564777756 2.16955541134762
-0.38102171865723 -0.193728991777838 2.16699530181226
-0.393841019700217 -0.183848826271926 2.12378465663835
0.141002893856493 -0.253853006536006 2.21244926401862
0.170375185540507 -0.214714755778013 2.19626816078573
-0.375529207455152 -0.176939245914639 2.2058610842506
-0.396254237054726 -0.146187397156561 2.16545534267768
0.149475312157553 -0.214390964325731 2.24033008701089
0.174610791088527 -0.174464262231252 2.2249925139705
-0.367675022945349 -0.161227214418158 2.24577504603015
-0.391725482096341 -0.131146256584976 2.21172634485867
0.126311604413416 -0.210135543614319 2.2799340819497
0.158580137623691 -0.170926130558205 2.26803987805652
-0.381644004727459 -0.12216587515213 2.2603622615189
-0.400173425366958 -0.0861596063745811 2.23125955407641
0.133554854732819 -0.172020147736933 2.3108087829834
0.163505141950361 -0.132620040818283 2.29613528199061
-0.366094746928278 -0.117005485457768 2.30221414056987
-0.390619302182455 -0.0778152206184712 2.27919697731263
0.136856648906386 -0.136534918529426 2.34131880917687
0.160303405238167 -0.0976214764374607 2.32989935879284
-0.369180496854887 -0.0730432184418533 2.32239931037872
-0.337094168784817 -0.0637924174989384 2.36048446237913
-0.35709005947905 -0.0293604247858694 2.34291603802885
0.0936800491083675 -0.0902281620556503 2.40097091500525
0.116745396775656 -0.049912618998953 2.38914974044302
0.130430611876398 -0.0962477222678405 2.37005488624855
-0.311742619997184 -0.0372730514659167 2.38128091374168
-0.259300877947596 -0.0276355049688295 2.40366664487383
-0.291434982788797 0.00136255883841304 2.38804750346062
-0.209650416671926 -0.0364827080995296 2.41184578620268
-0.162409514392828 -0.0336174761643072 2.41710550699509
-0.115788072868817 -0.035047517667056 2.42236796018002
-0.0689525016674239 -0.0365424995020088 2.42763643287639
-0.0259296783179249 -0.0473517852884395 2.43284634178395
-0.000680424247861022 -0.0104878195501621 2.42907486515636
0.0247661818083343 -0.0506136024464375 2.43074971595024
0.0734539416204501 -0.0491341322257469 2.415821259689
-0.258095904807936 0.0306591027385595 2.39194088937687
-0.22633738348096 0.00635887251462431 2.40508914094078
-0.182243754760413 0.0117358350056139 2.40800918488309
-0.136148670517196 0.0117486971102389 2.41233358093075
-0.0894501183271715 0.00970112600876624 2.41727270898537
-0.0410317988805267 0.00794203061696667 2.422269067696
0.0147189869894211 0.0275381872627465 2.4155577473641
-0.335047490250771 -0.291651419723898 1.9797954422301
-0.318906861635306 -0.276445743121326 1.94137556210333
-0.288084760763397 -0.312697867267059 1.95364208898604
-0.239337257001059 -0.311927148617384 1.92663382925491
-0.197215758576958 -0.33636412885585 1.9516467423866
-0.146721572654647 -0.331471390760587 1.94504575753779
-0.0967038962003739 -0.336757862432115 1.95283573374967
-0.0446200355852021 -0.340872558071503 1.95909206008504
0.000727953993939476 -0.346601326532589 1.96753003632637
0.0448755372275446 -0.350392816203845 1.98336830610891
0.0872055030123084 -0.332093782757667 1.98301435611751
0.100080206513629 -0.347297654322448 2.03045880825045
0.126517910293625 -0.320313828020651 2.01348112861054
-0.364966639290306 -0.270895697033937 2.01392732482347
-0.382858812649034 -0.224156842231212 2.00254584744876
-0.35935379689994 -0.249801623248558 1.97145810230365
0.143230791643337 -0.318957653765424 2.05809015004544
0.158949489930733 -0.28911810445125 2.02771101554696
0.169049000783482 -0.287616403093172 2.08293974754912
-0.397152140817733 -0.192467485276598 2.04012914958768
0.188619047445194 -0.245254727530315 2.08162211665785
-0.400230861073243 -0.162587230016712 2.07372291874495
0.1807726794179 -0.254473810441959 2.12386091787247
-0.401251013663674 -0.14183178746796 2.11717698998457
0.186251113883338 -0.213227296947634 2.14897589361147
-0.403469004229673 -0.102555546394782 2.13399774832094
0.188693877900377 -0.173771722883554 2.17425216685795
-0.403350000560964 -0.0963021079966433 2.1814594322705
0.189209683713641 -0.137318483441821 2.20270948409916
-0.406670173073734 -0.0492641458651303 2.20142938449878
0.181433517083624 -0.126223065080563 2.24854247378924
-0.402787447707105 -0.0399025070559518 2.25212140607549
0.181512142948489 -0.0883593063377824 2.2825777841278
-0.38591117173397 -0.0329344347512934 2.30035296163444
-0.392548259776031 0.00525092947587936 2.27260150006644
0.149929616145388 -0.0538977180786019 2.35505081934357
0.174171512882214 -0.0561804842614208 2.31386739045335
-0.368746996183106 0.00975863898475122 2.31887473354286
-0.333845750362754 0.00429459253939176 2.35989575379627
-0.341027577816561 0.0466184934544015 2.333499522119
0.049177072345182 -0.00834352535463483 2.41991673271149
0.0956032380761062 -0.00764311349082929 2.39820834125229
0.134438846452084 -0.00855648795366087 2.36605271945519
-0.304166613453216 0.0420928544459629 2.36671319636274
-0.26373929962974 0.0688434396143364 2.3706929580601
-0.211159972334299 0.0526828881352548 2.3897302219142
-0.162123307056894 0.0548650274159816 2.39225642927528
-0.114767858395461 0.0538087713187191 2.39629802538714
-0.0673837978243622 0.0506204965684382 2.40153229992247
-0.0213921111425688 0.0512938537780392 2.40438851336548
0.0321840243286698 0.0629757936490329 2.39195485518223
0.0660489834588983 0.0309813759415548 2.39937092419939
-0.307797115928924 -0.243598566353241 1.90695969721945
-0.276218971634138 -0.283002746462791 1.91517225795236
-0.22780378665856 -0.279373067642941 1.89493251061092
-0.19037641785533 -0.308173984986431 1.91732676205276
-0.146775936320869 -0.295809259871882 1.90829020010672
-0.106503550807214 -0.30366174012561 1.91710975411497
-0.0594444909645353 -0.312617498042815 1.92729227545555
-0.00326102562140314 -0.313683172388936 1.93094297802151
0.0443523954312276 -0.323563999346452 1.94790803022599
0.0895335649624108 -0.29970400973784 1.94759511382917
0.127587025788703 -0.296046957405044 1.97982047051264
-0.371259095135426 -0.197167563500218 1.95925844040947
-0.343385379459987 -0.23410076278132 1.93699667102096
0.160266814653572 -0.260116271487897 1.99096290854347
0.180575646118956 -0.253626804048903 2.03931693930481
-0.390293541574081 -0.176440092133501 1.99962695760438
0.197006262246267 -0.206212543850654 2.05474564623474
-0.395657656130742 -0.136488363692716 2.0299006165444
0.196113658149341 -0.205047733547771 2.1045271273385
-0.399532783736816 -0.114211049033593 2.07816068569702
0.196729552169669 -0.163241210711698 2.1276300476715
-0.398739394050205 -0.0712437393012589 2.09937321954309
0.196401609127481 -0.124851317171707 2.15559058551234
-0.403570197053573 -0.0570003935796471 2.15075810255354
0.193371953715239 -0.0950473717837943 2.20143222115503
-0.402504300924005 -0.0122189018643084 2.17071669143627
0.190322461015469 -0.0745812086046214 2.24132803760234
-0.403856076757213 -0.00309152367327458 2.22232275576456
0.185410139307503 -0.0319289793699827 2.27780588139489
-0.388881874292042 0.0414583307743219 2.2424583108905
0.16421818225189 -0.013522379632403 2.32590922527298
-0.370060723152349 0.0474120683620299 2.29017525235277
-0.337258833856284 0.0841231185446898 2.30333874953608
0.108305898007894 0.0327365225081748 2.37164929265779
0.143511300443439 0.0294958288075026 2.33528650922899
-0.303255563923673 0.081281536211311 2.34016623640027
-0.259761199420979 0.107736470242202 2.33961518928065
-0.224054435447141 0.0887139307363987 2.36532244417624
-0.179161857729345 0.0926750560619325 2.36453942565341
-0.135042208772376 0.0931558917293991 2.36631322918671
-0.0882958195436773 0.0892342184974213 2.37204143380426
-0.0449874675117035 0.089095374680977 2.37431354310384
-0.00236329125367185 0.0872083923775267 2.37754530564319
0.0753344381593859 0.0696654619045534 2.3688975165919
-0.304505524141078 -0.208341844845348 1.87904692025231
-0.2659217724024 -0.24742595524427 1.88248300888519
-0.219042069463305 -0.244156207256631 1.86414628064813
-0.179284234523826 -0.270591992864132 1.88477535208238
-0.12547635368255 -0.261259885227433 1.87934368287043
-0.0795228163866495 -0.273773797204792 1.89249413271129
-0.0338060672215478 -0.285571981515289 1.90501146780111
0.0095575783032238 -0.273465731603935 1.89665222872774
0.0472804104091031 -0.290692823430712 1.91820847399688
0.0938142482360782 -0.264479285494104 1.91602742999485
0.130553428768964 -0.263678181723055 1.94872561024269
-0.366397721926377 -0.158875593410747 1.93000639560591
-0.341972406003794 -0.199264056563853 1.913045678162
0.166089452057205 -0.225595484666598 1.96089184609293
0.18626376215132 -0.218536627453091 2.00740758463448
-0.385547617655626 -0.143284111994656 1.97475952540496
0.203185502389007 -0.171395724791489 2.02705338188421
-0.389081259673112 -0.0984776024007825 1.99759480769151
0.202418225013835 -0.161674858514061 2.079194680221
-0.393418759093009 -0.0840871047763192 2.04471707837006
0.202793770380278 -0.116311793673839 2.10561295249568
-0.392710339678688 -0.0390690342925384 2.06801329318816
0.200145697599794 -0.0803211175690164 2.15217029110161
-0.397289430178853 -0.0235610629875372 2.11796269232563
0.198261561641158 -0.0501703570360946 2.18827402345681
-0.39636597588674 0.0223395376673772 2.13996153499265
0.194658077974523 -0.0320529016919547 2.23116793038212
-0.397710740237237 0.0328991285399842 2.19205999821802
0.191007074962907 0.010473576946388 2.24774132643217
-0.382643720240417 0.0770882404902433 2.2119701653309
0.172882881390568 0.0175355298631977 2.29288789576311
-0.3640094692557 0.0831386142527771 2.25963751060596
-0.330252852304266 0.120397186513637 2.27303902391889
0.115022913957185 0.0703536287991523 2.33954418233201
0.150974090167654 0.0639875853651164 2.30365310699176
-0.296973128129502 0.117342598301914 2.309365963051
-0.248380898267882 0.142341867366556 2.3118406380416
-0.208088638596994 0.123427030715924 2.33639573048886
-0.157135755636797 0.13020485580061 2.3330409437347
-0.104437184418601 0.123587472338687 2.34140588609426
-0.0560562445266499 0.125129434801268 2.34247050806256
-0.00996208410683697 0.122990917519772 2.34661740232565
0.0379022552842696 0.102069056422272 2.35900492559989
0.0792113730329495 0.107838706768067 2.33762079045925
-0.298995264465045 -0.17370638470223 1.84971533071173
-0.261030941662073 -0.211809644926482 1.85251197448501
-0.213097997225767 -0.210472481645249 1.83517035111737
-0.168175166328752 -0.237321027041624 1.85643225200362
-0.12097179769095 -0.222261871670632 1.84570006123211
-0.0788899345481193 -0.236871212665371 1.86047846392413
-0.0342283297166518 -0.250531858842514 1.87456018235267
0.0120994031326769 -0.236007730332789 1.86424825604988
0.0553068043138915 -0.253596794218275 1.88680813884652
0.100761862740891 -0.228348920066253 1.88541157012219
0.136629485219281 -0.229682357372493 1.91968141253061
-0.359957536312151 -0.122586114995246 1.89855665326062
-0.336637611707533 -0.165578061775254 1.88478888508637
0.172398451814035 -0.190856942104011 1.93155597892157
0.192809686239661 -0.182847520925371 1.97806713386966
-0.379185576478774 -0.11006467892092 1.94413996318857
0.209271349186436 -0.13678332167346 1.99855747221013
-0.38279689833163 -0.0654788069674732 1.96455150665363
0.208329885644136 -0.125836974191091 2.05125190253435
-0.387150558449339 -0.0461603046536679 2.01503812788075
0.209653808341344 -0.080721247474964 2.06925471580249
-0.387242563195003 -0.00200973244988678 2.04471458484929
0.205607620604413 -0.0662841518715452 2.11387156912424
-0.391192722949394 0.0127220091799753 2.08869749468329
0.205085111204242 -0.0242719926441023 2.14590047177442
-0.390035691066211 0.0569169272219588 2.1075518147581
0.201181982287723 -0.00164302497200931 2.19463123943467
-0.391770545542032 0.0673127964387407 2.16087491789526
0.198130588586587 0.0432449447043316 2.2145387705678
-0.376510792069262 0.111936166472587 2.18229183638912
0.178388446925838 0.0559438060059044 2.26233778195182
-0.357324693362753 0.118868015534928 2.22992750536732
-0.321961346354276 0.15602308302934 2.24503958562928
0.120429903905921 0.106596934247086 2.30919542081029
0.156364443992072 0.100769544880164 2.27341160699786
-0.287189440450601 0.152689521240552 2.28166671042261
-0.23884548490252 0.177052584045074 2.28316530167713
-0.197411183492454 0.15727002857294 2.30753500072434
-0.152561325154888 0.171583244797322 2.29733389380331
-0.115369139540197 0.155198611195968 2.31341023903324
-0.067683850062481 0.158521596256824 2.31289343664179
-0.0173040966407554 0.159118290280705 2.31487817602216
0.0328312476961703 0.138615335401339 2.33028876067792
0.0805128195394723 0.143151050311149 2.30982767112216
-0.292777065784126 -0.139000968157016 1.81972508992264
-0.255454042630763 -0.176548604342257 1.82247716143229
-0.209178581471275 -0.175774203302598 1.80574213088237
-0.164853642511012 -0.202750091127804 1.82657505142201
-0.115173271544516 -0.185398948165542 1.81397422495965
-0.0731082217475837 -0.19918089677616 1.82803286369446
-0.0311240470836442 -0.214411908098217 1.84334661297069
0.0151347286293225 -0.198873372700605 1.83215001182415
0.0586876852308244 -0.218386112087361 1.85567744876259
0.103964084447424 -0.194330070869292 1.85432709847706
0.142835618027279 -0.195188897174195 1.89026217254862
-0.354977232805729 -0.0856824896399809 1.86984566989846
-0.330468426861883 -0.131437138184587 1.85513653828689
0.178348890318955 -0.156258222293742 1.90165519367954
0.198982828045668 -0.147732607972554 1.94811059130282
-0.373260416487301 -0.0729792361176939 1.91415652957659
0.215162970964373 -0.102570067137318 1.96769401146978
-0.375943895658277 -0.0252808892113144 1.93127503225461
0.21476401527639 -0.0902760244645543 2.01857562715874
-0.38059217931715 -0.0193573019326587 1.9755610525294
0.215503473947715 -0.0424665119252405 2.04342524849644
-0.381941950371073 0.0105267806755291 2.00683988540035
0.210975191929882 -0.0287225349720315 2.09178731231175
-0.384300953459587 0.0486499423664208 2.05229014454283
0.211593115397158 0.0148640946740235 2.11492780426171
-0.384112974326318 0.0908111448655499 2.07823586898199
0.207184535278151 0.0285018726613947 2.16217510566509
-0.385819245499149 0.10148338725145 2.13150867434403
0.204692502816026 0.0759253865640768 2.18320037580199
-0.369515199859814 0.147360045288414 2.15538559223872
0.18533635128722 0.0899914158667199 2.2309383193967
-0.350013134206895 0.154250204417496 2.20196997018289
-0.314899195636445 0.190994756692549 2.21616532383036
0.125156426614203 0.142034299948715 2.28000742389003
0.162669789811528 0.135466268829233 2.2432237939055
-0.279179348735013 0.187549692068088 2.25307098763785
-0.23267716701022 0.212487483556153 2.25269841478301
-0.190654031582784 0.194699413308029 2.27536593164514
-0.140106977176972 0.208118711839528 2.26622303884153
-0.100603713708198 0.190275195611378 2.28368177570685
-0.0523361129635977 0.193368054778006 2.2833934676507
-0.00426054724901617 0.194497894697826 2.2848005259219
0.0360871771762617 0.171834506044139 2.30221220437154
0.0876101920760511 0.176178122846686 2.2807352720322
-0.294047470774115 -0.102276965002935 1.79528579348226
-0.249075669189934 -0.14041263229767 1.79136483285273
-0.201208573220495 -0.141986632282164 1.77631944257859
-0.159788292258976 -0.169796646223968 1.79820843770458
-0.110006830493006 -0.150163051768697 1.78367965044585
-0.0663721747534572 -0.161229704883408 1.79540952501166
-0.0264841647968283 -0.176005603677062 1.81022260762601
0.0170009697751017 -0.161281406429924 1.7996068663571
0.061435877568828 -0.183504149851228 1.82472770727045
0.108034380903457 -0.159875239712931 1.82345049207761
0.145157579370724 -0.163383563755081 1.85915600771561
-0.349629279261941 -0.0481667348127491 1.84101326594672
-0.327748291936314 -0.0951998073647244 1.82886043368521
0.178874206037969 -0.127193286801297 1.86792170535984
0.204867292764085 -0.112613211090325 1.91697214542628
-0.367171996517955 -0.0346121471199694 1.88333793238078
0.22208387793178 -0.0645850720375003 1.94812242719524
-0.369719456001045 0.0129993248458151 1.90612408116536
0.220533980681182 -0.0519841218897756 1.99346911178064
-0.37489899716027 0.0261116892958341 1.95581213034129
0.221597255720198 -0.00527822729407305 2.01350123081998
-0.3784122257739 0.0521573757618586 2.00339241052355
0.21715322031862 0.00745119922281355 2.0617428624145
-0.377551455968724 0.094549420612383 2.02363560065588
0.217921327807061 0.0514490173408178 2.08337955457714
-0.378783385547131 0.129151423201169 2.05706476313955
0.213428088396023 0.0653381439037923 2.13199369894802
-0.379414673313369 0.136946278957782 2.10677610112687
0.210606473345684 0.110990796388561 2.15369329034078
-0.363214607106154 0.182424170600467 2.12604501385224
0.191699876618424 0.123962032383664 2.20078379506256
-0.343142141918544 0.18970992000187 2.1729399311776
-0.308826223149815 0.225899916975203 2.18614728390735
0.131881656344361 0.176823620510101 2.24950756694031
0.168954249993688 0.17022658304401 2.21295903233517
-0.273392181233348 0.222326522098211 2.22298176585722
-0.227160975576766 0.247464307437948 2.22238603290346
-0.183481863194574 0.2302289462952 2.24486670766609
-0.134864146726871 0.242308193537476 2.23676544995349
-0.087227167506269 0.227218361567624 2.25226310419074
-0.0372186714924076 0.228078885438843 2.25400005384421
0.00929262998451648 0.228426028560672 2.25600912217944
0.0484176439358982 0.204735036946275 2.27257251279341
0.0946170899054814 0.211003287840686 2.25029725567192
-0.256757556163508 -0.102464160918498 1.76972907655651
-0.215237951119794 -0.105932546746555 1.75603132689601
-0.168834004617633 -0.103110432913842 1.74979991024008
-0.153897270964899 -0.137065266847925 1.77094512232925
-0.116679777226898 -0.109144076432476 1.75655931266674
-0.06991220668054 -0.121090704242666 1.76633406412937
-0.0230265501745844 -0.13230448662512 1.77618864218652
0.0248717604088454 -0.12146943734431 1.77367546604154
0.0643822371728651 -0.149407001847152 1.79590544911687
0.108779769645837 -0.123207043250984 1.79612585072862
0.149188432238436 -0.127505726338876 1.82884016810172
-0.337353715300258 -0.0108280214972538 1.81629230556153
-0.320649825613464 -0.057402894538202 1.80118688744249
0.197884633536077 -0.0898322564554033 1.8712854360019
0.21560558634649 -0.0674996416672935 1.90498078103971
-0.357556996746024 0.00492132670242402 1.85596596416656
0.221044129507176 -0.0242666002105436 1.91634359388198
-0.354681590950624 0.0489678029147462 1.87777738250167
0.223909181287925 -0.0132170620095858 1.96187038960537
-0.364351756642991 0.0618435610497943 1.92287696790919
0.220370923200753 0.030070224454596 1.98139420427557
-0.371272821781034 0.0784684119423876 1.96896339658569
0.220602441561485 0.0446061717054501 2.02924115897249
-0.365299735246769 0.123824172716082 1.98453444089535
0.217461161020313 0.086746437435108 2.05198058653334
-0.368339777649501 0.150517047653078 2.02081536946378
0.217324497707617 0.101503651436668 2.09952930427685
-0.372260099927096 0.171143393382057 2.07573761544033
0.211355900457347 0.142780470932757 2.12237105401611
-0.354515925737416 0.21204389299084 2.09129215638753
0.195912230512567 0.158720783027554 2.1707604006118
-0.337056420867632 0.223207594743953 2.1408877686115
-0.301526447267697 0.255740964421547 2.15321502322917
0.136871082920396 0.211639219558951 2.21761565401066
0.168757968566832 0.204254303453532 2.18051090833188
-0.266084924147109 0.256398112015906 2.19218902859085
-0.217506677633767 0.279118852006976 2.18705076264335
-0.180214467264154 0.264870556300219 2.21197935851639
-0.138419046671436 0.273645239737734 2.20141187797233
-0.0942780869781841 0.263723196627337 2.21537509851324
-0.0496145104345193 0.259399201427545 2.2217292818471
0.000458270528522098 0.258834596485588 2.22336927114182
0.0524139898778814 0.240923084039541 2.24004238656114
0.0977649995570235 0.242228473052612 2.21743379506129
-0.282184627667191 -0.0618069682969784 1.7686690591589
-0.236809115789669 -0.0625557962195113 1.74630995999111
-0.189143100786528 -0.0638464127388919 1.73665643898992
-0.137277566011367 -0.067805806364349 1.73957734614443
-0.0867569986120209 -0.074412618994941 1.74611667994172
-0.0406122563360604 -0.0843809969566777 1.75327663762994
0.00350044493659651 -0.0839390795223003 1.75724951371793
0.050523033374699 -0.0736690904884877 1.75939168220481
0.0710239875003467 -0.10884198499524 1.7743807480181
0.102995147936751 -0.0732040863715796 1.77391321936718
0.139535038965412 -0.0907729531117717 1.80032298390758
-0.302193866780167 -0.0200451939847901 1.77763978936428
-0.277075370276141 0.021922969164034 1.76430430582258
-0.259681930334302 -0.0210761079404837 1.75024435499943
0.149689722621973 -0.0497247351206342 1.79824437293213
0.175902914926373 -0.0837658540481552 1.83288140599466
0.179151531127438 -0.0362616186938833 1.82643963502822
-0.334363239586018 0.0431973421959216 1.82881466164267
-0.314564176879881 0.0213360664608436 1.79448041040293
0.20334980655041 -0.042709933224822 1.86409192703367
0.208600798148623 -0.000771527021145559 1.88164482896842
-0.331162624490479 0.0805767702141013 1.85567893405127
0.214433758230974 0.0246110589979218 1.92527888631658
-0.341044365140176 0.0999991465043621 1.89533738605046
0.209381585956379 0.0615298672251484 1.95332679212769
-0.353518963466597 0.110175036547469 1.93517174754183
0.211974655738705 0.081902313146142 1.99581731852241
-0.342547195354639 0.149360546799544 1.94941424678817
0.207060866204188 0.118695833217593 2.02354491495921
-0.346419078497832 0.17722864357994 1.98630653498996
0.209451843281882 0.138887331971652 2.06581802778142
-0.359897552407877 0.191753215040617 2.03916327735968
0.201867559571542 0.174216000599517 2.09283678213064
-0.326147633584466 0.248917111434935 2.10366572013849
-0.3380879013457 0.233979725400838 2.05491622769746
-0.307241388772697 0.266954122006112 2.06156418983646
0.192409835939457 0.188915454709295 2.13732971907094
0.179004838901035 0.215395991190414 2.09420172186411
0.165768634340786 0.227433995986477 2.13965528486383
-0.258380806908875 0.282004455305919 2.15573030583629
-0.292204223690422 0.276098581352254 2.11437577144083
-0.250397739331427 0.297980430659414 2.1135656650035
0.133074654182144 0.243145340988424 2.17909443031117
0.100643890278132 0.27572199187815 2.14372204850825
0.0883605210832899 0.268080066549256 2.18247049435439
-0.211209127533795 0.299613439513826 2.14734288065926
-0.167212813194072 0.293775313619435 2.1669751332952
-0.114295869800964 0.29149435143455 2.16930365137367
-0.0698156381463008 0.286530171399349 2.17799868349124
-0.0259946343701361 0.283267547039515 2.18296332047052
0.0167451573443991 0.282516257083019 2.18234402926326
0.0499712380119857 0.267763368461803 2.20534599200127
-0.21086040475281 -0.0211298560302013 1.73422446008596
-0.159572399380165 -0.0249350486078105 1.73127097886157
-0.108796546362788 -0.0290002242172956 1.7369408941715
-0.0609163836474412 -0.0338477810540555 1.7425021849449
-0.016080881424558 -0.0374184499092026 1.7476687092455
0.0279961209388809 -0.0332587884666901 1.75252616324292
0.0765906447851888 -0.0319004729725057 1.76030648664037
-0.232868289837269 0.0200337528599519 1.74349793177933
-0.205693300375572 0.057491864395476 1.74823444251498
-0.181471258451673 0.0183504040580366 1.73413488299386
-0.130669268742076 0.0150385159237735 1.73725294626008
-0.0829945629608899 0.0139281697551052 1.74318688012077
-0.035719536877175 0.0104954581508666 1.74864853342597
0.00905640266397606 0.0119511888757601 1.7547731415166
0.055995394110622 0.0111756173130394 1.76087114969327
0.104152556170312 0.0122242442214734 1.7755162924363
0.151278152501092 0.00293402428345791 1.80278051375237
0.120115446534565 -0.0282187269448087 1.77774229590937
-0.295135647299609 0.0612615447462046 1.79308528924916
-0.263218721724715 0.0997535416092331 1.79611030004969
-0.252582470164324 0.0623774462240495 1.7654473189079
0.127164425361145 0.0453793895569141 1.80050719542378
0.18520099498618 0.00539385275493255 1.8403931610485
0.163259553466926 0.0456249651287303 1.83239776073182
-0.302996554577518 0.091579955957726 1.82466596435875
-0.269758604380447 0.129904237106442 1.83273273143926
0.193636187981431 0.0407772240127278 1.87566508155995
0.165680662032111 0.0798801908700513 1.86716911140628
-0.307634836065839 0.123424677393968 1.86487130491797
-0.276799291901471 0.1594441124194 1.87122214466843
0.192564757185561 0.0705159523712629 1.9093658281046
0.16370199064766 0.111382572203035 1.90316229392608
-0.318759000340181 0.147003018514229 1.90552875935396
-0.281678558193286 0.186836628295979 1.90569151974842
0.191112949437975 0.102349207482916 1.94698055626074
0.162625287906047 0.141910154800718 1.93938057640811
-0.3156745457654 0.18446534566036 1.94123493068011
-0.279786891680711 0.219921472907587 1.940454616688
0.190382409805791 0.130007730279688 1.98107399993465
0.16191228458776 0.17178641687634 1.97538907255356
-0.312942829023038 0.218544159788492 1.97422778859299
-0.279233573616862 0.254649707664155 1.97995703902908
0.189276899042551 0.161285971867996 2.01892791293048
0.160651017811642 0.201872040039713 2.01078214598595
-0.336476588538132 0.21697114571144 2.0106156711887
-0.307300716275814 0.253726206572343 2.01615312185161
0.187526365855091 0.189388784023006 2.05250323971281
0.157382519288446 0.229291716474354 2.04792626189445
-0.274083568792763 0.289963139102567 2.07312408462116
-0.269028292372239 0.283525049331199 2.02479733915441
-0.236549028488609 0.304004659054506 2.05934837601524
0.135195618244271 0.257252428674717 2.13270139790911
0.148889920985846 0.248164139362996 2.09051838067695
0.108896314476803 0.275564290074705 2.09168873292115
-0.212023354553693 0.309940294512157 2.09944357200868
-0.186470353315622 0.312305543515085 2.06368870101351
-0.171487317802174 0.309608309958167 2.1179992873475
-0.142537172193188 0.310731080692071 2.07706203901426
-0.129013156771515 0.305589119829267 2.12707860546339
-0.0984131986348314 0.307410214247496 2.08213032526099
-0.082212154190776 0.302609446263117 2.12976294707296
-0.0535493396666223 0.303959975642547 2.08544416760026
-0.0379080442370563 0.299111761288063 2.13569439268292
-0.00996867716693803 0.300611879290503 2.0890347097468
0.0066176054453668 0.296372208144346 2.13759994717726
0.0342540294875593 0.297401877417829 2.09682512656027
0.0523429103050124 0.289232761321192 2.15230814643998
0.0720209214119455 0.290553621103637 2.10915496049374
-0.174994779289152 0.0902989199175621 1.76244368004123
-0.152406360914645 0.0564842271308503 1.74619234089399
-0.106689790013511 0.0588167342997701 1.75378883984736
-0.0579399051958848 0.0546873203607363 1.75919415868978
-0.0130435131862346 0.056425660997019 1.7666770719158
0.0323530336343877 0.0556162745854515 1.77314840318531
0.0783968963804374 0.051563051352856 1.78024031786681
-0.220056110316582 0.098051419984182 1.77449153569082
-0.177540622384125 0.124637486653739 1.79039270768873
-0.131464568422499 0.100134026779941 1.77401872202432
-0.0804962989440033 0.0932945794374114 1.77766651264553
-0.0361956772912426 0.0964314989013152 1.78764618796369
0.00833381375070139 0.0963388118760771 1.79538922881731
0.0535355027542871 0.0934884305100942 1.80105533711945
0.0970028898852009 0.0836782926188112 1.80781598602064
0.131653138294619 0.0857030256499622 1.83293867644819
-0.225071936100189 0.131319128454347 1.80767831477305
-0.185271124982789 0.155729450746864 1.82595880078881
-0.139347269670786 0.140149535427708 1.81191493704232
-0.100110849711102 0.124755154228309 1.80211095590021
-0.0573386286798962 0.129708180951259 1.81638176696123
-0.013630965023498 0.130251741127363 1.82586792893719
0.0345021396985865 0.126612998169723 1.83138559234674
0.0843786292360945 0.118872085633283 1.83713837728258
0.129186540416316 0.116103282587804 1.86584227573489
-0.231988850688174 0.161196753524188 1.84428221338739
-0.187027413361006 0.185644105245964 1.86040778665679
-0.140958694921028 0.171627246957267 1.84819944528654
-0.0943195738105309 0.155850846842426 1.83929729074638
-0.0474015068907014 0.162179668709694 1.85616149352264
0.00281328386032356 0.158310460556761 1.86183278333185
0.0506367296878916 0.154265071363997 1.86682771620995
0.0927732113251037 0.146377668591378 1.8741250235037
0.127961424376377 0.14829875281145 1.90351796356892
-0.235537895833258 0.190255927677904 1.87859451877572
-0.189617374592679 0.214093389974417 1.8932477548093
-0.140647590388332 0.203357967665349 1.88516736745313
-0.0980464453942838 0.186370462789859 1.8740382842788
-0.0602081259044305 0.19453862829701 1.89120283948514
-0.0154720438583766 0.188859964408543 1.89365966092972
0.0325567598502512 0.185325977407114 1.89927763629384
0.0816416498742009 0.178964464667388 1.90667750331961
0.126862655550162 0.177205924998422 1.93735083870863
-0.238821684785797 0.21851831607404 1.91191542232381
-0.196020243175245 0.242181835268495 1.92609961565273
-0.146003615137257 0.233321130206803 1.91893083524605
-0.0967406828058014 0.221739960496658 1.9154407155846
-0.0451864406267443 0.221832452211184 1.92599044172445
0.00300459038882331 0.217317424369895 1.93050088552179
0.0494316870431745 0.21394552703993 1.93604778732764
0.0909647034468819 0.206684404549872 1.94453234468756
0.125999712431489 0.208864865370758 1.97475002610187
-0.243527092476389 0.248897260531915 1.94833800873788
-0.205759091506339 0.270645896995303 1.96077835618921
-0.158773667330086 0.264734909870661 1.95295127779495
-0.112135775276726 0.255118546225063 1.95114388379952
-0.0674602514555651 0.250834001900357 1.95520929106504
-0.0184663894510935 0.248661138796498 1.96260668268768
0.0303634188832681 0.245139790464914 1.96840123339996
0.0794869609659258 0.239399600535866 1.97691653262147
0.124366635414444 0.237203283938589 2.00836248327969
-0.239367809121231 0.280952285817063 1.98970083196043
-0.182875283456886 0.291324926767199 1.99066876004812
-0.134121126006132 0.285506992742879 1.98861550800423
-0.0894597168847296 0.280940417682089 1.99158933273088
-0.0445668338796003 0.276993652014072 1.99575398496721
0.00182829802639572 0.274057515291566 2.00206690240465
0.0469224101737051 0.271183625031419 2.00834098731152
0.0876529063798029 0.264253829092662 2.01782443758303
0.119571462083694 0.261579800461416 2.05095198602321
-0.214481430515129 0.301216397719381 2.02225196811087
-0.160332017294131 0.304780338651885 2.02802720835273
-0.114539776687926 0.301420253552201 2.03360278539787
-0.0694508959536657 0.297606954688103 2.03730019839952
-0.0236692105507479 0.293748529260965 2.04114304277465
0.0234971823445778 0.290636091790345 2.04807629361644
0.0704632340817544 0.285334576280734 2.05775686583725
3 0 1 2
3 0 2 4
3 3 0 4
3 3 4 6
3 5 3 6
3 5 6 8
3 7 5 8
3 7 8 10
3 9 7 10
3 9 10 12
3 11 9 12
3 13 11 14
3 14 11 12
3 13 14 15
3 16 17 18
3 16 18 1
3 0 19 1
3 19 16 1
3 0 3 20
3 19 0 20
3 3 5 21
3 20 3 21
3 5 7 22
3 21 5 22
3 7 9 23
3 22 7 23
3 9 11 24
3 23 9 24
3 24 11 25
3 25 11 13
3 13 15 26
3 27 13 26
3 25 13 27
3 27 26 28
3 17 16 30
3 30 16 29
3 29 19 31
3 29 16 19
3 31 20 32
3 31 19 20
3 32 21 33
3 32 20 21
3 21 22 33
3 33 22 34
3 22 23 34
3 34 23 35
3 23 24 35
3 35 24 36
3 24 25 36
3 36 25 37
3 37 27 38
3 37 25 27
3 38 28 39
3 38 27 28
3 30 40 41
3 30 29 40
3 29 31 42
3 40 29 42
3 31 32 43
3 42 31 43
3 32 33 44
3 43 32 44
3 33 34 45
3 44 33 45
3 34 35 46
3 45 34 46
3 35 36 47
3 46 35 47
3 36 37 47
3 47 37 48
3 37 38 48
3 48 38 49
3 49 39 50
3 49 38 39
3 40 51 52
3 41 40 52
3 51 42 53
3 51 40 42
3 42 43 53
3 53 43 54
3 43 44 54
3 54 44 55
3 44 45 55
3 55 45 56
3 45 46 56
3 56 46 57
3 46 47 58
3 57 46 58
3 47 48 59
3 58 47 59
3 48 49 60
3 59 48 60
3 49 50 61
3 60 49 61
3 51 62 63
3 52 51 63
3 51 53 64
3 62 51 64
3 53 54 65
3 64 53 65
3 54 55 66
3 65 54 66
3 55 56 67
3 66 55 67
3 56 57 67
3 67 57 68
3 57 58 69
3 68 57 69
3 58 59 69
3 69 59 70
3 59 60 70
3 70 60 71
3 71 61 72
3 71 60 61
3 62 73 74
3 63 62 74
3 62 64 75
3 73 62 75
3 64 65 75
3 75 65 76
3 65 66 76
3 76 66 77
3 66 67 77
3 77 67 78
3 67 68 78
3 78 68 79
3 79 69 80
3 79 68 69
3 80 70 81
3 80 69 70
3 81 71 82
3 81 70 71
3 82 72 83
3 82 71 72
3 74 73 85
3 85 73 84
3 84 73 86
3 86 73 75
3 75 76 86
3 86 76 87
3 76 77 88
3 87 76 88
3 77 78 89
3 88 77 89
3 78 79 90
3 89 78 90
3 79 80 91
3 90 79 91
3 80 81 92
3 91 80 92
3 81 82 93
3 92 81 93
3 93 83 94
3 93 82 83
3 84 95 85
3 84 86 96
3 97 84 96
3 95 84 97
3 96 87 98
3 96 86 87
3 87 88 98
3 98 88 99
3 88 89 99
3 99 89 100
3 89 90 100
3 100 90 101
3 101 91 102
3 101 90 91
3 102 92 103
3 102 91 92
3 92 93 103
3 105 103 104
3 103 93 104
3 93 94 104
3 96 106 97
3 96 98 107
3 106 96 107
3 98 99 108
3 107 98 108
3 99 100 109
3 108 99 109
3 100 101 110
3 109 100 110
3 101 102 111
3 110 101 111
3 111 102 112
3 112 102 103
3 103 105 112
3 117 114 115
3 116 113 117
3 117 113 114
3 116 117 119
3 118 116 119
3 118 119 121
3 120 118 121
3 120 121 123
3 122 120 123
3 122 123 125
3 124 122 125
3 124 125 127
3 126 124 127
3 126 127 128
3 129 130 131
3 114 129 131
3 114 113 129
3 113 2 129
3 129 2 1
3 4 113 116
3 4 2 113
3 6 116 118
3 6 4 116
3 8 118 120
3 8 6 118
3 10 120 122
3 10 8 120
3 12 122 124
3 12 10 122
3 14 124 126
3 14 12 124
3 133 126 128
3 15 14 126
3 15 126 133
3 132 15 133
3 132 133 134
3 135 136 137
3 137 17 135
3 137 18 17
3 18 137 130
3 129 18 130
3 18 129 1
3 15 132 26
3 139 132 134
3 139 138 132
3 138 28 26
3 132 138 26
3 138 139 140
3 136 135 142
3 142 135 141
3 17 30 135
3 135 30 141
3 143 39 28
3 138 143 28
3 143 140 144
3 143 138 140
3 141 145 146
3 142 141 146
3 41 145 141
3 30 41 141
3 147 39 143
3 147 50 39
3 147 144 148
3 147 143 144
3 145 149 150
3 146 145 150
3 52 149 145
3 41 52 145
3 151 50 147
3 151 155 50
3 151 148 152
3 151 147 148
3 149 153 154
3 150 149 154
3 63 153 149
3 52 63 149
3 155 61 50
3 155 72 61
3 155 151 156
3 156 151 152
3 154 157 158
3 154 153 157
3 74 157 153
3 63 74 153
3 159 72 155
3 159 83 72
3 159 156 160
3 159 155 156
3 158 157 162
3 162 157 161
3 74 85 161
3 157 74 161
3 163 83 159
3 163 94 83
3 163 160 164
3 163 159 160
3 161 165 162
3 165 95 166
3 165 161 95
3 161 85 95
3 165 166 167
3 95 97 166
3 105 104 168
3 170 94 163
3 170 168 94
3 169 168 170
3 94 168 104
3 163 164 170
3 166 171 167
3 173 171 172
3 172 171 106
3 171 97 106
3 171 166 97
3 172 107 174
3 172 106 107
3 174 108 175
3 174 107 108
3 175 109 176
3 175 108 109
3 176 110 177
3 176 109 110
3 177 111 178
3 177 110 111
3 178 112 180
3 178 111 112
3 181 105 168
3 181 180 105
3 179 178 180
3 180 112 105
3 168 169 181
3 172 182 173
3 182 172 183
3 183 172 174
3 174 175 184
3 183 174 184
3 175 176 185
3 184 175 185
3 176 177 186
3 185 176 186
3 177 178 187
3 186 177 187
3 187 179 188
3 187 178 179
3 179 180 229
3 189 190 191
3 114 131 191
3 115 114 191
3 115 191 192
3 115 192 193
3 117 115 193
3 119 193 194
3 119 117 193
3 119 194 121
3 121 194 195
3 121 195 123
3 123 195 196
3 123 196 125
3 125 196 197
3 127 197 198
3 127 125 197
3 128 198 199
3 200 128 199
3 128 127 198
3 200 199 201
3 202 203 204
3 131 130 189
3 190 189 204
3 189 130 202
3 189 202 204
3 131 189 191
3 128 200 133
3 134 200 205
3 206 205 201
3 134 133 200
3 205 200 201
3 205 206 207
3 136 208 203
3 202 137 136
3 202 136 203
3 137 202 130
3 134 205 139
3 139 205 207
3 140 139 207
3 211 207 209
3 136 142 208
3 208 142 210
3 211 140 207
3 211 144 140
3 146 212 210
3 142 146 210
3 148 144 213
3 213 144 211
3 150 214 212
3 146 150 212
3 215 148 213
3 215 152 148
3 154 216 150
3 150 216 214
3 219 152 217
3 217 152 215
3 158 218 216
3 154 158 216
3 219 156 152
3 219 160 156
3 158 220 218
3 158 162 220
3 221 160 219
3 221 164 160
3 162 165 222
3 223 220 222
3 220 162 222
3 165 167 222
3 169 170 224
3 225 164 221
3 224 170 164
3 224 164 225
3 222 226 223
3 167 171 227
3 226 167 227
3 226 227 228
3 226 222 167
3 171 173 227
3 180 181 229
3 181 169 230
3 231 169 224
3 230 169 231
3 230 229 181
3 224 225 271
3 227 232 228
3 232 182 233
3 232 173 182
3 227 173 232
3 182 183 234
3 233 182 234
3 183 184 234
3 234 184 235
3 184 185 235
3 235 185 236
3 185 186 236
3 236 186 237
3 186 187 237
3 237 187 238
3 238 188 239
3 238 187 188
3 188 179 229
3 240 239 188
3 240 188 229
3 229 230 240
3 191 190 242
3 242 190 241
3 192 242 243
3 192 191 242
3 192 243 244
3 193 192 244
3 194 244 245
3 194 193 244
3 194 245 246
3 195 194 246
3 195 246 247
3 196 195 247
3 196 247 248
3 197 196 248
3 197 248 249
3 198 197 249
3 199 198 249
3 250 199 249
3 201 199 251
3 251 199 250
3 204 252 253
3 204 203 252
3 190 253 241
3 190 204 253
3 206 251 254
3 206 201 251
3 207 206 255
3 255 206 254
3 203 256 252
3 203 208 256
3 257 209 255
3 255 209 207
3 210 258 208
3 208 258 256
3 211 209 259
3 259 209 257
3 212 260 210
3 210 260 258
3 213 211 259
3 261 213 259
3 214 262 260
3 212 214 260
3 215 213 261
3 263 215 261
3 216 264 214
3 214 264 262
3 217 215 263
3 265 217 263
3 218 266 264
3 216 218 264
3 219 217 265
3 267 219 265
3 218 268 266
3 218 220 268
3 221 219 267
3 269 221 267
3 223 270 268
3 220 223 268
3 225 221 269
3 271 225 269
3 223 226 272
3 270 223 272
3 272 228 273
3 272 226 228
3 274 231 275
3 274 230 231
3 275 231 271
3 271 231 224
3 273 228 276
3 276 228 232
3 276 233 277
3 276 232 233
3 233 234 278
3 277 233 278
3 234 235 279
3 278 234 279
3 235 236 280
3 279 235 280
3 236 237 281
3 280 236 281
3 237 238 282
3 281 237 282
3 238 239 283
3 282 238 283
3 327 239 284
3 284 239 240
3 240 230 274
3 284 240 274
3 241 285 286
3 242 241 286
3 242 286 243
3 243 286 287
3 243 287 288
3 244 243 288
3 245 288 289
3 245 244 288
3 245 289 246
3 246 289 290
3 246 290 247
3 247 290 291
3 247 291 248
3 248 291 292
3 248 292 293
3 249 248 293
3 249 293 250
3 250 293 294
3 250 294 295
3 251 250 295
3 252 296 297
3 253 252 297
3 241 297 285
3 241 253 297
3 254 295 298
3 254 251 295
3 254 298 299
3 255 254 299
3 256 300 252
3 252 300 296
3 257 255 299
3 301 257 299
3 258 302 300
3 256 258 300
3 259 257 303
3 303 257 301
3 260 304 258
3 258 304 302
3 261 259 303
3 305 261 303
3 262 306 304
3 260 262 304
3 263 261 305
3 307 263 305
3 264 308 262
3 262 308 306
3 265 263 307
3 309 265 307
3 266 310 308
3 264 266 308
3 267 265 309
3 311 267 309
3 266 312 310
3 266 268 312
3 269 267 311
3 313 269 311
3 270 314 312
3 268 270 312
3 271 269 315
3 315 269 313
3 270 272 316
3 314 270 316
3 316 273 317
3 316 272 273
3 318 275 319
3 318 274 275
3 275 271 315
3 319 275 315
3 273 276 320
3 317 273 320
3 276 277 320
3 320 277 321
3 277 278 322
3 321 277 322
3 322 279 323
3 322 278 279
3 279 280 323
3 323 280 324
3 280 281 324
3 324 281 325
3 281 282 325
3 325 282 326
3 282 283 326
3 326 283 327
3 283 239 327
3 327 284 328
3 284 274 318
3 328 284 318
3 285 329 330
3 286 285 330
3 286 330 287
3 287 330 331
3 287 331 332
3 288 287 332
3 288 332 289
3 289 332 333
3 289 333 334
3 290 289 334
3 290 334 335
3 291 290 335
3 291 335 292
3 292 335 336
3 292 336 337
3 293 292 337
3 293 337 294
3 294 337 338
3 294 338 339
3 295 294 339
3 296 340 341
3 297 296 341
3 285 341 329
3 285 297 341
3 298 339 342
3 298 295 339
3 298 342 343
3 299 298 343
3 300 344 296
3 296 344 340
3 301 299 343
3 345 301 343
3 302 346 344
3 300 302 344
3 303 301 347
3 347 301 345
3 304 348 302
3 302 348 346
3 305 303 347
3 349 305 347
3 306 350 348
3 304 306 348
3 307 305 351
3 351 305 349
3 308 352 306
3 306 352 350
3 309 307 353
3 353 307 351
3 310 354 352
3 308 310 352
3 311 309 355
3 355 309 353
3 312 356 310
3 310 356 354
3 313 311 355
3 357 313 355
3 314 358 356
3 312 314 356
3 315 313 359
3 359 313 357
3 314 316 360
3 358 314 360
3 360 317 361
3 360 316 317
3 362 319 363
3 362 318 319
3 319 315 359
3 363 319 359
3 317 320 364
3 361 317 364
3 320 321 364
3 364 321 365
3 321 322 366
3 365 321 366
3 322 323 366
3 366 323 367
3 323 324 368
3 367 323 368
3 324 325 369
3 368 324 369
3 325 326 370
3 369 325 370
3 326 327 371
3 370 326 371
3 327 328 371
3 371 328 372
3 328 318 362
3 372 328 362
3 329 373 374
3 330 329 374
3 330 374 331
3 331 374 375
3 331 375 376
3 332 331 376
3 332 376 333
3 333 376 377
3 333 377 378
3 334 333 378
3 334 378 379
3 335 334 379
3 335 379 336
3 336 379 380
3 336 380 381
3 337 336 381
3 337 381 338
3 338 381 382
3 338 382 383
3 339 338 383
3 340 384 385
3 341 340 385
3 329 385 373
3 329 341 385
3 342 383 386
3 342 339 383
3 342 386 387
3 343 342 387
3 344 388 340
3 340 388 384
3 345 343 387
3 389 345 387
3 346 390 388
3 344 346 388
3 347 345 391
3 391 345 389
3 348 392 346
3 346 392 390
3 349 347 391
3 393 349 391
3 350 394 348
3 348 394 392
3 351 349 395
3 395 349 393
3 352 396 350
3 350 396 394
3 353 351 395
3 397 353 395
3 354 398 396
3 352 354 396
3 355 353 399
3 399 353 397
3 356 400 354
3 354 400 398
3 357 355 399
3 401 357 399
3 358 402 400
3 356 358 400
3 359 357 403
3 403 357 401
3 358 360 404
3 402 358 404
3 404 361 405
3 404 360 361
3 406 363 407
3 406 362 363
3 363 359 403
3 407 363 403
3 361 364 408
3 405 361 408
3 364 365 408
3 408 365 409
3 365 366 410
3 409 365 410
3 366 367 410
3 410 367 411
3 367 368 412
3 411 367 412
3 368 369 412
3 412 369 413
3 369 370 413
3 413 370 414
3 370 371 415
3 414 370 415
3 371 372 415
3 415 372 416
3 372 362 406
3 416 372 406
3 373 417 418
3 374 373 418
3 374 418 375
3 375 418 419
3 375 419 420
3 376 375 420
3 376 420 377
3 377 420 421
3 377 421 422
3 378 377 422
3 378 422 423
3 379 378 423
3 380 423 424
3 380 379 423
3 380 424 425
3 381 380 425
3 382 425 426
3 382 381 425
3 382 426 427
3 383 382 427
3 384 428 429
3 385 384 429
3 373 429 417
3 373 385 429
3 386 427 430
3 386 383 427
3 386 430 431
3 387 386 431
3 384 432 428
3 384 388 432
3 389 387 431
3 433 389 431
3 390 434 432
3 388 390 432
3 435 389 433
3 435 391 389
3 390 436 434
3 390 392 436
3 393 391 435
3 437 393 435
3 394 438 436
3 392 394 436
3 395 393 439
3 439 393 437
3 396 440 438
3 394 396 438
3 397 395 439
3 441 397 439
3 398 442 440
3 396 398 440
3 399 397 443
3 443 397 441
3 400 444 398
3 398 444 442
3 401 399 443
3 445 401 443
3 402 446 444
3 400 402 444
3 403 401 447
3 447 401 445
3 402 404 448
3 446 402 448
3 448 405 449
3 448 404 405
3 450 407 451
3 450 406 407
3 407 403 447
3 451 407 447
3 405 408 452
3 449 405 452
3 408 409 452
3 452 409 453
3 409 410 454
3 453 409 454
3 410 411 454
3 454 411 455
3 411 412 456
3 455 411 456
3 412 413 456
3 456 413 457
3 457 414 458
3 457 413 414
3 414 415 459
3 458 414 459
3 415 416 459
3 459 416 460
3 416 406 450
3 460 416 450
3 418 461 462
3 418 417 461
3 419 462 463
3 419 418 462
3 419 463 464
3 420 419 464
3 420 464 421
3 421 464 465
3 421 465 466
3 422 421 466
3 422 466 467
3 423 422 467
3 424 467 468
3 424 423 467
3 424 468 469
3 425 424 469
3 426 469 470
3 426 425 469
3 427 426 471
3 471 426 470
3 429 428 473
3 473 428 472
3 417 473 505
3 417 429 473
3 430 427 471
3 520 430 471
3 431 474 475
3 431 430 474
3 428 476 472
3 428 432 476
3 433 431 475
3 477 433 475
3 434 478 476
3 432 434 476
3 479 433 477
3 479 435 433
3 434 480 478
3 434 436 480
3 437 435 479
3 481 437 479
3 438 482 436
3 436 482 480
3 439 437 483
3 483 437 481
3 440 484 482
3 438 440 482
3 441 439 483
3 485 441 483
3 442 486 440
3 440 486 484
3 443 441 487
3 487 441 485
3 444 488 442
3 442 488 486
3 445 443 487
3 489 445 487
3 444 446 488
3 488 446 490
3 491 445 489
3 491 447 445
3 490 446 492
3 492 446 448
3 492 449 493
3 492 448 449
3 494 451 495
3 494 450 451
3 451 447 491
3 495 451 491
3 449 452 496
3 493 449 496
3 496 453 497
3 496 452 453
3 453 454 498
3 497 453 498
3 498 455 499
3 498 454 455
3 455 456 500
3 499 455 500
3 456 457 501
3 500 456 501
3 457 458 502
3 501 457 502
3 458 459 503
3 502 458 503
3 503 460 504
3 503 459 460
3 504 460 494
3 494 460 450
3 461 505 506
3 462 461 506
3 507 463 462
3 507 462 506
3 465 463 508
3 508 463 507
3 464 463 465
3 465 508 509
3 465 509 466
3 466 509 510
3 466 510 467
3 467 510 511
3 467 511 468
3 468 511 512
3 468 512 513
3 469 468 513
3 469 513 470
3 515 470 514
3 470 513 514
3 470 515 471
3 472 516 473
3 518 516 517
3 518 505 516
3 461 417 505
3 505 473 516
3 505 518 506
3 515 514 519
3 474 430 520
3 521 520 519
3 520 471 515
3 520 515 519
3 474 520 524
3 476 522 472
3 516 472 523
3 472 522 523
3 516 523 517
3 520 521 524
3 477 475 524
3 524 475 474
3 525 477 524
3 478 526 522
3 476 478 522
3 527 477 525
3 527 479 477
3 478 528 526
3 478 480 528
3 481 479 527
3 529 481 527
3 482 530 480
3 480 530 528
3 483 481 531
3 531 481 529
3 484 532 530
3 482 484 530
3 485 483 531
3 533 485 531
3 486 534 484
3 484 534 532
3 535 485 533
3 535 487 485
3 486 536 534
3 486 488 536
3 537 489 535
3 535 489 487
3 490 538 539
3 536 490 539
3 488 490 536
3 538 540 539
3 541 542 543
3 541 489 537
3 542 541 537
3 541 491 489
3 490 492 538
3 545 493 544
3 538 492 493
3 538 493 545
3 540 538 545
3 544 546 545
3 547 548 549
3 543 495 541
3 547 494 495
3 547 495 543
3 608 547 543
3 495 491 541
3 493 496 544
3 544 497 550
3 546 544 550
3 544 496 497
3 550 497 551
3 551 497 498
3 498 499 551
3 551 499 552
3 499 500 552
3 552 500 553
3 500 501 553
3 553 501 554
3 554 502 555
3 554 501 502
3 502 503 556
3 555 502 556
3 503 504 556
3 549 504 547
3 556 504 549
3 504 494 547
3 506 557 507
3 507 557 558
3 508 507 558
3 508 558 559
3 509 508 559
3 509 559 560
3 510 509 560
3 510 560 561
3 511 510 561
3 511 561 562
3 512 511 562
3 514 512 563
3 563 512 562
3 513 512 514
3 517 564 518
3 518 564 557
3 566 564 565
3 557 564 566
3 557 506 518
3 558 566 567
3 558 557 566
3 559 567 568
3 559 558 567
3 560 568 569
3 560 559 568
3 561 569 570
3 561 560 569
3 562 570 571
3 562 561 570
3 563 562 571
3 572 563 571
3 574 514 563
3 572 574 563
3 573 519 574
3 574 519 514
3 519 573 521
3 522 575 523
3 577 575 576
3 577 517 575
3 564 517 577
3 575 517 523
3 564 577 565
3 573 574 572
3 521 573 579
3 580 573 578
3 579 573 580
3 579 524 521
3 524 579 525
3 522 581 575
3 522 526 581
3 576 581 582
3 576 575 581
3 583 580 584
3 583 579 580
3 583 525 579
3 583 527 525
3 526 585 581
3 526 528 585
3 582 585 586
3 582 581 585
3 587 584 588
3 587 583 584
3 587 527 583
3 587 529 527
3 528 589 585
3 528 530 589
3 586 589 590
3 586 585 589
3 591 588 592
3 591 587 588
3 591 529 587
3 591 531 529
3 532 593 589
3 530 532 589
3 590 593 594
3 590 589 593
3 595 592 596
3 595 591 592
3 595 531 591
3 595 533 531
3 534 597 593
3 532 534 593
3 594 597 598
3 594 593 597
3 599 596 600
3 599 595 596
3 599 533 595
3 599 535 533
3 534 601 597
3 534 536 601
3 602 597 601
3 602 598 597
3 603 599 600
3 604 603 600
3 603 535 599
3 603 537 535
3 536 539 601
3 606 540 605
3 606 602 540
3 602 601 539
3 540 602 539
3 605 607 606
3 608 609 610
3 608 543 609
3 604 542 603
3 609 543 542
3 609 542 604
3 542 537 603
3 540 545 605
3 605 546 607
3 612 607 611
3 605 545 546
3 607 546 611
3 612 613 614
3 612 611 613
3 614 615 616
3 614 613 615
3 616 617 618
3 616 615 617
3 618 619 620
3 618 617 619
3 620 621 622
3 620 619 621
3 622 623 624
3 622 621 623
3 610 548 608
3 624 623 548
3 624 548 610
3 548 623 549
3 548 547 608
3 546 550 611
3 611 550 613
3 613 550 551
3 551 552 615
3 613 551 615
3 552 553 617
3 615 552 617
3 553 554 619
3 617 553 619
3 554 555 621
3 619 554 621
3 621 555 623
3 623 555 556
3 556 549 623
3 565 625 626
3 567 566 626
3 626 566 565
3 567 626 627
3 568 567 627
3 568 627 628
3 569 568 628
3 569 628 629
3 570 569 629
3 570 629 630
3 571 570 630
3 572 571 631
3 631 571 630
3 572 631 578
3 576 632 577
3 625 632 633
3 565 577 632
3 565 632 625
3 625 633 634
3 626 625 634
3 626 634 627
3 627 634 635
3 627 635 628
3 628 635 636
3 628 636 629
3 629 636 637
3 629 637 630
3 630 637 638
3 631 638 639
3 631 630 638
3 640 578 639
3 578 573 572
3 578 631 639
3 578 640 580
3 576 641 632
3 576 582 641
3 633 641 642
3 633 632 641
3 633 642 643
3 634 633 643
3 634 643 644
3 635 634 644
3 635 644 645
3 636 635 645
3 636 645 646
3 637 636 646
3 637 646 647
3 638 637 647
3 638 647 648
3 639 638 648
3 640 648 649
3 640 639 648
3 584 580 640
3 649 584 640
3 582 650 641
3 582 586 650
3 642 650 651
3 642 641 650
3 642 651 652
3 643 642 652
3 643 652 653
3 644 643 653
3 644 653 645
3 645 653 654
3 645 654 646
3 646 654 655
3 646 655 647
3 647 655 656
3 647 656 648
3 648 656 657
3 648 657 649
3 649 657 658
3 588 584 649
3 658 588 649
3 586 659 650
3 586 590 659
3 650 659 651
3 651 659 660
3 651 660 661
3 652 651 661
3 652 661 662
3 653 652 662
3 653 662 654
3 654 662 663
3 654 663 664
3 655 654 664
3 655 664 665
3 656 655 665
3 656 665 666
3 657 656 666
3 657 666 658
3 658 666 667
3 592 588 658
3 667 592 658
3 590 668 659
3 590 594 668
3 660 668 669
3 660 659 668
3 660 669 670
3 661 660 670
3 661 670 671
3 662 661 671
3 662 671 663
3 663 671 672
3 663 672 664
3 664 672 673
3 664 673 665
3 665 673 674
3 665 674 666
3 666 674 675
3 666 675 667
3 667 675 676
3 596 592 667
3 676 596 667
3 594 677 668
3 594 598 677
3 668 677 669
3 669 677 678
3 669 678 679
3 670 669 679
3 670 679 680
3 671 670 680
3 671 680 681
3 672 671 681
3 672 681 682
3 673 672 682
3 673 682 683
3 674 673 683
3 674 683 684
3 675 674 684
3 676 684 685
3 676 675 684
3 600 596 676
3 685 600 676
3 598 686 677
3 598 602 606
3 678 686 687
3 678 677 686
3 678 687 679
3 679 687 688
3 679 688 680
3 680 688 689
3 680 689 681
3 681 689 690
3 681 690 682
3 682 690 691
3 683 691 692
3 683 682 691
3 684 692 693
3 684 683 692
3 685 693 694
3 685 684 693
3 694 604 685
3 685 604 600
3 598 606 686
3 606 607 695
3 686 606 695
3 686 695 687
3 688 687 696
3 696 687 695
3 688 696 697
3 689 688 697
3 689 697 698
3 690 689 698
3 690 698 699
3 691 690 699
3 691 699 700
3 692 691 700
3 692 700 701
3 693 692 701
3 610 609 694
3 701 610 694
3 701 694 693
3 609 604 694
3 607 612 695
3 695 612 696
3 696 612 614
3 614 616 697
3 696 614 697
3 616 618 698
3 697 616 698
3 618 620 699
3 698 618 699
3 620 622 700
3 699 620 700
3 622 624 701
3 700 622 701
3 624 610 701
