OFF
702 1400 0
-0.251531529113558 -0.350209734098869 2.12744507719528
-0.297101470098308 -0.335935870314455 2.11048601397498
-0.268879926810599 -0.353607411310516 2.08196189475484
-0.204590951420983 -0.356634936249486 2.13169969412411
-0.222834107968736 -0.364196811891668 2.08653527026033
-0.157733402285881 -0.361031876051264 2.13450018344404
-0.176401127014235 -0.368119378511402 2.08834024416392
-0.112309871035298 -0.364857034970054 2.13853830490994
-0.131035161973537 -0.371826828072645 2.08986046081855
-0.0673725363619793 -0.36851060149197 2.14294371092165
-0.0862335486240337 -0.37527939151882 2.09419677641267
-0.019828592681021 -0.371527710110152 2.15028535003346
-0.0403989008111572 -0.37857530239885 2.10239560799653
0.0282544091287251 -0.367103442755071 2.15875594129586
0.00695131929901018 -0.380196523021204 2.11120416833363
0.0534105385822702 -0.371365701782871 2.12033874165955
-0.319892865203163 -0.309127965092573 2.14025812696329
-0.349828070841863 -0.290584181436066 2.11384432350621
-0.328448620638371 -0.318824824428352 2.08377634217425
-0.279270777537472 -0.325770341237311 2.15900671378838
-0.232473364477838 -0.334992420828738 2.17041018786146
-0.184722128551701 -0.340049334583517 2.17385433881679
-0.137907728367639 -0.343820591773468 2.17890377042974
-0.0926480227541065 -0.347081649686938 2.18443406219974
-0.0482990556223986 -0.352163200050693 2.18661917300959
0.000370979825104908 -0.352888557999378 2.19372518274678
0.0740842947663232 -0.350840928906109 2.16518320819222
0.0454716291040934 -0.340762954572081 2.20202045405865
0.0913858004734749 -0.320087422021793 2.20069954027454
-0.307033964827661 -0.290422562059387 2.18284896174613
-0.347399265808254 -0.268849766272656 2.15606192421507
-0.260913569542191 -0.304378743700956 2.19956415180486
-0.21089806185832 -0.310689722296058 2.20718105434439
-0.163251397721627 -0.314847606620027 2.21207050416965
-0.115593366798902 -0.317211859057506 2.21902485410192
-0.0708521309525809 -0.319853272827473 2.22506748583319
-0.028531758671434 -0.328738573829278 2.22344289324043
0.0127593417040931 -0.320678202288296 2.23442969420338
0.0583019993620036 -0.306939347218326 2.23646329515261
0.102904643068961 -0.283906643237643 2.2310395979184
-0.325558997110094 -0.254497279928757 2.20549812446287
-0.358950216898754 -0.231925919454136 2.18026625254757
-0.284419014802768 -0.270148655200344 2.22575570314002
-0.235295555173908 -0.280891198298854 2.23628889790079
-0.186496260622891 -0.283012027110519 2.2439468054136
-0.138994952646016 -0.287570410344281 2.24834724991163
-0.0874684761631598 -0.288431100774489 2.25781396033527
-0.0325349490304464 -0.297366925606475 2.25869003985876
0.0178606754119937 -0.290099957936145 2.26827681053167
0.0681982790798071 -0.274061877362808 2.26767712269181
0.112704507341639 -0.247172050339299 2.26107898223017
-0.309754520083626 -0.23252881272196 2.24923314646474
-0.350445081425522 -0.213414711505014 2.21922351437186
-0.260342191677114 -0.250048183012001 2.26309825389625
-0.21289096933168 -0.252465207770062 2.27370322491192
-0.167321049888774 -0.25350324199404 2.28175774469381
-0.12330876555703 -0.260958416835994 2.2821201022212
-0.0898534870661395 -0.249745979349534 2.30179677784767
-0.0548834429763716 -0.267980151388289 2.28793428613727
-0.0125738904540175 -0.264671183108493 2.29886448962493
0.0352748336693717 -0.257778025942296 2.300452605819
0.0831505205743005 -0.238335501299401 2.29718080113478
-0.313181360377048 -0.194243130356573 2.29153167808724
-0.341282487946086 -0.194832567273287 2.25665653211665
-0.280066705829476 -0.220100963473409 2.28744638303096
-0.232938214531268 -0.222902562147347 2.30360915726143
-0.188181444479532 -0.221808935371793 2.31395696364789
-0.139218299215386 -0.226573026921272 2.31841648296621
-0.0938016175201549 -0.221183811478484 2.33382795034298
-0.0462846128501738 -0.233872687043261 2.32888492342674
0.00174851057413079 -0.233530179107786 2.33418557238886
0.0494453392801674 -0.225607129224386 2.33103180164067
0.0967012714930905 -0.202665712951923 2.32504306311731
-0.302704074163799 -0.171610539334522 2.32805129021873
-0.347005713145231 -0.157427687486556 2.29370612125689
-0.263826979971899 -0.195581679940922 2.3248827512459
-0.217868957657192 -0.189967873513143 2.3445314779047
-0.167781460200095 -0.194302853527516 2.34971350219645
-0.12196233497778 -0.194159773398108 2.35917685815184
-0.0703837848083289 -0.198042263969848 2.3651804742603
-0.0253815507989335 -0.204259905008976 2.36678101825288
0.0209700120584836 -0.201017774788451 2.36807903724661
0.0648193172145176 -0.192890037329958 2.35939763775465
0.100989681119025 -0.16685442195736 2.35963618164084
-0.29817024758526 -0.133785420629989 2.36592517122588
-0.332029396816165 -0.141022192856298 2.33241498269905
-0.264497349500934 -0.163418665787634 2.35978756574576
-0.229972416485578 -0.152216263272066 2.37814900850401
-0.187161398353539 -0.160501253558852 2.3792715001281
-0.142019759934611 -0.160760690338506 2.38693055766882
-0.0947702125713238 -0.164080730737528 2.3925959822525
-0.046114139933824 -0.168154201762436 2.39793668242229
0.0022006683051129 -0.170976508282782 2.39940490302559
0.0537175521988334 -0.16445911091159 2.39201964206969
0.100805682300983 -0.132533843707875 2.38586833387919
-0.339688331099575 -0.102781448053699 2.35145050267053
-0.261057501731655 -0.115524122705407 2.39276799714484
-0.304814822652036 -0.0908098757985853 2.38328695971745
-0.211564346938387 -0.116267310188458 2.40191158845103
-0.165477700121033 -0.12097760092741 2.40670102769659
-0.118776084676239 -0.122020298950037 2.41320687081491
-0.072925725206899 -0.12660231672569 2.41802836214394
-0.0262062838558888 -0.131078357099411 2.42273610166757
0.0204675791859649 -0.132323054010155 2.42053987254686
0.064736898824346 -0.125223969270158 2.41063547738061
0.0462339209498819 -0.0874257787373867 2.42930966189361
-0.27809410770247 -0.064608099640505 2.4026165113094
-0.235558271819085 -0.0739662989985305 2.41202469282748
-0.18649598786947 -0.0758515914422519 2.41808461123032
-0.140715862540809 -0.0770117828999652 2.42381427314648
-0.0944030417880691 -0.0784864530398825 2.42953071600048
-0.049771997595651 -0.0851940585688941 2.43409230742909
-0.00202196808159683 -0.0894183413638158 2.4367658033194
-0.246933750422343 -0.359109099453464 2.04232817352514
-0.270883480184068 -0.343443081267476 2.00768697124323
-0.247456832561148 -0.334520186994322 1.97052094266952
-0.197272892395202 -0.365310180079247 2.04256551943454
-0.219030201563354 -0.354285646575349 2.00205509625997
-0.151199348534452 -0.367870226261332 2.04171840453256
-0.17088447543692 -0.354166919921001 1.99643919065714
-0.105759528277335 -0.370809649456686 2.04405323392237
-0.125560961428576 -0.355634779847004 1.99699892557036
-0.0603910824745232 -0.374648405485335 2.05151294722717
-0.0779488694570866 -0.359423000771667 2.00289739607756
-0.0154319098530396 -0.378847495488982 2.06164496831543
-0.0321819750163489 -0.364431413769832 2.01181469754663
0.0306299783035956 -0.377707391711814 2.07019570441374
0.0120813061777302 -0.369033200181178 2.02284612106122
0.0599738146228342 -0.362385546431226 2.03215152440854
-0.298603722342988 -0.339574116384296 2.05126319944604
-0.337281268298992 -0.30847210795476 2.03697153731492
-0.307688012546032 -0.322213626536958 2.00373457874475
0.0980267316124664 -0.35118222237528 2.12558842274468
0.0737435200558594 -0.366292802192451 2.08003841002146
0.113296337071729 -0.344792741023295 2.08315585734768
-0.375326917296207 -0.254584125721151 2.10616367984693
-0.385803737489383 -0.239531537034824 2.05733159013658
-0.362767310356233 -0.282546772265849 2.06797227018809
0.119014788331273 -0.324658190651313 2.16063457240872
0.13951299257443 -0.320578982928792 2.11641885880866
0.156512870741524 -0.290734287108428 2.1453360915375
-0.377559895002693 -0.22770594990322 2.13914557197372
-0.393586955957894 -0.209227335754303 2.09379543660155
0.132802438201296 -0.290405772057166 2.19075127265149
0.163668690766367 -0.253119638763987 2.17803640978819
-0.381409095699552 -0.191047560573611 2.17504527713621
-0.394208940447739 -0.181397165164315 2.13177697639691
0.140527105373856 -0.251618558450102 2.22091914907117
0.169954731889478 -0.212613296785649 2.20451894623265
-0.375899242496452 -0.174043404417932 2.21381527173401
-0.39657688298862 -0.143494934187203 2.17323136906018
0.149049158734048 -0.212009325031653 2.24857521843269
0.174240928263086 -0.172205059435353 2.23301340053325
-0.368029326866691 -0.158114155137835 2.25363993668368
-0.392034192563806 -0.128195719931207 2.21941631445209
0.125885710614415 -0.20749620273061 2.28815082677046
0.158209073333458 -0.168399204193167 2.27603747372944
-0.38194733832561 -0.118951172016229 2.26800159546831
-0.400423822824697 -0.0830867440944664 2.23869083411007
0.133176351631102 -0.169214813472305 2.31880824075174
0.163182117697177 -0.129939866792497 2.30391420412341
-0.36639694328634 -0.113572739725386 2.30982558978037
-0.390865087534627 -0.074481458250982 2.28658119039614
0.136522022679662 -0.133560285590266 2.34911543728563
0.160023148813283 -0.0947445776976973 2.3374772202293
-0.369425866139235 -0.0694916736720654 2.32975870534102
-0.337332340102642 -0.0600668533779785 2.36779509474594
-0.357279041320767 -0.0257087587698775 2.35002720949148
0.0933999518395926 -0.0868548270383058 2.40849552942867
0.116521628102209 -0.0466388213713072 2.39644752469765
0.130146634549606 -0.0931008227978137 2.37761983267893
-0.3119477416552 -0.0334634521471031 2.38844337299404
-0.259496101558012 -0.0237692274026406 2.41078139053632
-0.291588650525297 0.00518263215264084 2.3949920236689
-0.209858833035241 -0.0326368500137788 2.4190182894567
-0.162614822463701 -0.0298056591777529 2.42426851693428
-0.115996100032872 -0.0312688121097173 2.42954593528183
-0.0691633370724854 -0.0327971601903317 2.43482977580182
-0.0261559473439372 -0.043634816460018 2.44010772751786
-0.000856174713798508 -0.00682727963777439 2.43612933903225
0.0245357332264029 -0.0469773007465653 2.43803725782506
0.0732275415550738 -0.0456492002719452 2.42310777207326
-0.258210399865781 0.0344557190405912 2.39872281794909
-0.22648671495795 0.0101879982641333 2.41201442918266
-0.182386240230526 0.0155217707469186 2.41491019780563
-0.136291785830506 0.0154968485176 2.41924124969253
-0.089596745443028 0.0134142240378187 2.42419888909934
-0.0411815560104127 0.0116180655375335 2.42921236312897
0.0145967029793239 0.0310999300965501 2.42239737388628
-0.335541600739588 -0.290100625446445 1.98841494132395
-0.319374987022006 -0.275136695365065 1.94991116125724
-0.288603814102126 -0.311359873853337 1.96238923588202
-0.239851535083916 -0.310809638960703 1.93538420383069
-0.197766726570534 -0.33516034324205 1.96054259307552
-0.147265026813029 -0.330373885348098 1.9539212003646
-0.0972556580641908 -0.335683560226705 1.96174864311599
-0.0451783029204938 -0.339833046846177 1.96803606850577
0.000160692643201246 -0.345574975342985 1.97651333978919
0.0443008770309023 -0.349335732533612 1.99237953393186
0.0866556799900463 -0.331096434025889 1.99192724504381
0.0995031124897725 -0.346046319342819 2.03945971969195
0.125979774744164 -0.319195846385048 2.02233198992963
-0.365437332376098 -0.269109603290529 2.02242322166518
-0.383264485719534 -0.22241234832421 2.01077215195977
-0.359789940078096 -0.248266247836525 1.97983495680677
0.142688245546516 -0.317607382517856 2.06693499645374
0.158451659874039 -0.287963301163308 2.03638812752444
0.168545479461837 -0.286159645799022 2.09160886365187
-0.397520059296696 -0.190489340463438 2.0481716087086
0.188173165969702 -0.243832767864456 2.09005202048017
-0.400562932261887 -0.160413412414369 2.08159359211929
0.180308393622632 -0.252799625887128 2.13234166604655
-0.401560997667347 -0.139408571790342 2.12492817357344
0.185839273581142 -0.211417701280912 2.15722129242578
-0.403728049455047 -0.100033857600323 2.14152384394265
0.188332033526797 -0.171821647135302 2.18227200207543
-0.403607195287999 -0.0935094089666385 2.18894902777252
0.188893319053153 -0.135207080927468 2.21052057949041
-0.406866337501954 -0.0463536131398262 2.20864931535847
0.181125807226787 -0.123839339867308 2.25628825632916
-0.402977999612991 -0.0367076572082636 2.25928757413213
0.181251047289451 -0.0857818034563413 2.29010660926444
-0.386099026758586 -0.0294869081436119 2.30748100451766
-0.392680422113436 0.00854817595445738 2.27951076657023
0.149705175842276 -0.0508637480621267 2.36237683342436
0.173949709092625 -0.0534147394730841 2.32121070117594
-0.368879532445455 0.0132880216412545 2.32576099082783
-0.333991465880171 0.00801121234705385 2.36681771939951
-0.341112174631401 0.0501932465149589 2.34017895476341
0.0490054647873515 -0.00480297095675626 2.42696645550023
0.0954355717851159 -0.00428960132103733 2.40526126448994
0.134274399200084 -0.00543941180685349 2.37311711782406
-0.304262026939768 0.0458075463421774 2.37342339050985
-0.263799013313758 0.0725256010393587 2.3772561564171
-0.211244321460303 0.056402847354151 2.39639323236392
-0.162205094279749 0.0585328983075152 2.39891416026255
-0.114851687625097 0.0574355509521591 2.40296871337983
-0.0674727283877356 0.0542129999959901 2.40822811533436
-0.0214805701240355 0.0548403098979034 2.41108721825901
0.0321131027440624 0.0663783353942388 2.39859489809207
0.0659335856492643 0.034380939960722 2.40619870782997
-0.308215876200762 -0.242501862047199 1.91530975771642
-0.276692370468563 -0.281901238737062 1.92375205976043
-0.228269477086996 -0.278452955227545 1.90349903987708
-0.190884348558025 -0.307176124082221 1.92606306010438
-0.147265868794664 -0.294922381940738 1.91696240651998
-0.107005407238345 -0.30277892246043 1.92583263877932
-0.0599599650305272 -0.311740133413182 1.93607312312974
-0.00377850804863412 -0.312861103204814 1.93973814524672
0.0438190917820068 -0.322709351602399 1.95676641867246
0.0890326348857138 -0.298912824353135 1.95632379932776
0.127086517872654 -0.295123240287142 1.9885333408989
-0.371622111234751 -0.195686683919479 1.96733290473469
-0.343795418809331 -0.232784283394545 1.94528670522437
0.159813467655176 -0.259173798079009 1.99947505369244
0.180124326347212 -0.252435599858973 2.04779419915198
-0.390634060415866 -0.174703024307537 2.007579484945
0.196617099669489 -0.204956249634515 2.06295407858432
-0.395948197110844 -0.134571674985364 2.03762351111941
0.195719118817055 -0.203505710235567 2.11272795679208
-0.399799841819868 -0.112013647467603 2.08575489240588
0.196388503865779 -0.161568693148929 2.13559164255207
-0.398951122162675 -0.0689269091749773 2.10672161421083
0.196108738296977 -0.123019201672167 2.16333225514642
-0.403769778160674 -0.0543835554735805 2.15802353595348
0.193113114718238 -0.0929496428670437 2.20900234824507
-0.402645915672967 -0.00949020324362598 2.1777260044198
0.190085815948949 -0.0722516631183942 2.24878008708837
-0.403992519701645 -6.61818687453103e-05 2.22927885773283
0.185226268410664 -0.0293850105748901 2.28501282847566
-0.388960702821657 0.0445776900157199 2.24916166526723
0.164052580701313 -0.0106750467354558 2.33300705575263
-0.370138160873339 0.0507785433576031 2.29684657437312
-0.337288334502302 0.0875197226927588 2.30980487107657
0.108196716814108 0.0359203090531303 2.37847373156414
0.143402772125328 0.0324240946426513 2.3421352584369
-0.303294098852947 0.0848425806248383 2.3466530134716
-0.259763805254032 0.11123493359983 2.34595718688714
-0.224086476270391 0.092311243193824 2.37177801365567
-0.179188456640035 0.0962069538199589 2.37097899050855
-0.135068444274143 0.0966380970446779 2.37275652541773
-0.0883282198552923 0.0926858480781332 2.37851394709605
-0.0450204140532033 0.0925012707611144 2.38079320175987
-0.00239928929267523 0.0905749979542594 2.3840419846429
0.0752757753087501 0.0728775894879411 2.37550606678126
-0.304872551827791 -0.207409754686147 1.88719641054649
-0.266342343310569 -0.246525867399346 1.89086152266316
-0.219455684854768 -0.243424549322209 1.87251332146976
-0.179736636764183 -0.269795876520252 1.89329901627632
-0.12591538552339 -0.260567935268223 1.88782203543607
-0.0799807071587171 -0.273068775925034 1.90105057354151
-0.0342817571563308 -0.28485719892893 1.91364188152601
0.00909944146425769 -0.272857734986248 1.90521998213636
0.046795852849426 -0.290012468488513 1.92687990254588
0.0933655172570144 -0.263874945397236 1.92455593382458
0.130101180299983 -0.262936776009603 1.95725442070078
-0.366704701661219 -0.157569163779077 1.93786319504097
-0.34233183460985 -0.19808699221921 1.92113720089437
0.165687138478363 -0.224833380842747 1.96920803598174
0.185864505376753 -0.217536127505487 2.01568564504007
-0.385839681076419 -0.141696187575343 1.98252365423269
0.202847442056149 -0.170306692159535 2.03506418070834
-0.389315720588754 -0.0967551388031493 2.00510194755978
0.202086066342937 -0.1602869262045 2.08714895338932
-0.393640278031639 -0.0820896686788569 2.05214055835939
0.202519464887803 -0.114774152836658 2.11330757380533
-0.392874037448562 -0.0369401799903799 2.07517919329156
0.199913717352775 -0.0785143966738841 2.15965805381147
-0.397439064769364 -0.0211407687065346 2.12503846370985
0.198065443762983 -0.0481552414396922 2.19558858953255
-0.396456410809268 0.0248835278900867 2.14677473526182
0.194480548908796 -0.029788041473125 2.23837771231244
-0.397794129040335 0.0357425421604937 2.19881179455622
0.190884930317445 0.0128373833906637 2.25470723609995
-0.382669952647327 0.0800242636554069 2.2184712933006
0.172764024740663 0.020181836300189 2.29981003076433
-0.364034172637702 0.0863217214468496 2.2661060271279
-0.33022890992027 0.123610479319941 2.27929934751692
0.114969250557069 0.0733441535018574 2.34615513395568
0.150916772724399 0.0667243282424849 2.31030633435841
-0.296958438388572 0.120718455110513 2.31564806107092
-0.248332682038665 0.145665550225902 2.31798697913346
-0.20806955446092 0.126836757763217 2.34265572316423
-0.157107054234125 0.133526202645838 2.33926976882368
-0.104418679282274 0.126885290225474 2.34768017072598
-0.0560358411472567 0.128367710450405 2.34874309935832
-0.00994520462823313 0.126190432651035 2.35290894857014
0.0378889732665171 0.105274836346757 2.36542291062737
0.0792088693716324 0.110866148683685 2.34401224220685
-0.299311206215251 -0.172950015898907 1.85766815215401
-0.261399005921589 -0.211088110376398 1.86068813237235
-0.213461868053319 -0.209915083994386 1.84334622096946
-0.168578477268386 -0.236702550088206 1.86476785598922
-0.1213532211077 -0.221769001216617 1.85395673261292
-0.0792932837906099 -0.236350680065213 1.86882460236076
-0.0346522226746389 -0.249991160470955 1.88299075747571
0.0116966138782132 -0.235589039805805 1.87260282050327
0.0548769578564874 -0.25310743921685 1.89526924000422
0.10036642406472 -0.227929616637388 1.89373509390714
0.136227414170872 -0.229115786492282 1.92801728878556
-0.360210890845423 -0.121468803013578 1.90620750200339
-0.336947392617625 -0.164570321210439 1.89268912224357
0.172047363882936 -0.190271668893357 1.93967502868599
0.192462945203615 -0.182024215441823 1.98614265616904
-0.379428295920093 -0.108660968113623 1.95171566326455
0.208984226169694 -0.135866013906681 2.00637180521889
-0.382981975779208 -0.0639543013514201 1.97187150699465
0.208050249802785 -0.124617390140316 2.05900267083508
-0.387316478105241 -0.0443416598415168 2.02224624464746
0.209432865446756 -0.0794013372802242 2.076747523377
-0.38735272967274 -2.21012332683734e-05 2.05166985760702
0.205400032818297 -0.0647039853357591 2.12128053441164
-0.391289046043228 0.0149661379798249 2.0955672656139
0.204930046920825 -0.0225087730664731 2.1530687133278
-0.390074689372977 0.0592664913513077 2.11416884936473
0.201050812240679 0.000403629762994295 2.20166877140263
-0.391802890661977 0.0699693154675946 2.16743140676898
0.19805754032684 0.0454087490045473 2.22131896698189
-0.37648560239381 0.114693638447885 2.18859517866967
0.17832596526906 0.0584073675646924 2.26904170355753
-0.357296774813332 0.121871627013649 2.23619327999983
-0.321885163047768 0.159064480492999 2.25109796799484
0.120429650140015 0.109406035968447 2.31560051523182
0.156361252021461 0.10332549112026 2.27985589424372
-0.287122931627205 0.155893180027382 2.28774867692414
-0.238746176101215 0.180198837442134 2.28911512685564
-0.197342159205188 0.160499732947211 2.3136036084944
-0.15247149743229 0.17469358226466 2.30332747655598
-0.115303823122917 0.158350690184846 2.3195026930893
-0.0676139973311639 0.161606006486213 2.31897394103939
-0.0172337586157573 0.162145723516682 2.32096266965478
0.0328715679284938 0.141663225985219 2.33649758442016
0.0805621090546889 0.146017259534894 2.31601793920988
-0.293041735284123 -0.138425046517362 1.82748095787486
-0.255770073974993 -0.176006911755102 1.83045309624812
-0.209491266148463 -0.17539092334978 1.81372073973627
-0.165205879556664 -0.202307370928524 1.83471404105254
-0.115500252556038 -0.185095913302168 1.82202157794049
-0.0734559054097597 -0.1988543052417 1.83616496400187
-0.0314945747523652 -0.214054451321733 1.85157171036853
0.014786804667747 -0.198642904358384 1.840293304933
0.058309958578064 -0.218079884319708 1.86393830862685
0.103619142271785 -0.194093367688632 1.86245716585327
0.14248445186162 -0.194799489737743 1.89840229565048
-0.355176510335301 -0.0847366723363296 1.8772867976242
-0.330727748575021 -0.130607837264335 1.86284303559567
0.17804891762397 -0.155852520037764 1.9095778588232
0.198687910172926 -0.147089503013809 1.95598681241194
-0.373448635274568 -0.0717555772942664 1.92152162963148
0.214926574814029 -0.101837746343468 1.97531417006688
-0.376069790221157 -0.023956569588498 1.93836683372908
0.21453718764835 -0.0892525478478905 2.02612462787295
-0.380716222609489 -0.0177736536405354 1.98261758779544
0.215338037608687 -0.0413028284596439 2.05070069385043
-0.382029819231021 0.0122905257561834 2.01372490593953
0.210821647297983 -0.0272765228076991 2.09898274460762
-0.38434344937323 0.0506760109564012 2.05895617886556
0.211495471686916 0.0164407823728228 2.12187382735715
-0.384101894941925 0.0929845305852773 2.08466053194572
0.207098794888851 0.0303543568729093 2.16904175856855
-0.385801130957208 0.103963396855424 2.13787121698535
0.204668167548446 0.0779006068672532 2.18979526533747
-0.369438194937669 0.149953630996992 2.16148793888794
0.185324445693892 0.092265497417875 2.23744917792901
-0.349933310328745 0.157083492997458 2.20803505126075
-0.314771535602223 0.193860936731498 2.22202533715743
0.125208327423252 0.144669549904241 2.2862111481525
0.162717885831037 0.137840520615523 2.24947119342979
-0.27906155427752 0.190578442082164 2.25895535769177
-0.232525529571193 0.215450620443484 2.25844711749777
-0.190529735289506 0.197735439085106 2.28122213203323
-0.139963243469743 0.211033709679055 2.27201014662008
-0.10048666600015 0.193236727920409 2.28957641146408
-0.0522148736412614 0.196262438748191 2.2892775512175
-0.00413801640588547 0.19733511488766 2.29068522101866
0.0361764884864394 0.174716929870041 2.30823210107739
0.0877083504522195 0.178867853620598 2.2867382943332
-0.294258898209028 -0.101839643544193 1.80283197512292
-0.24933833070387 -0.140058042324021 1.79913567971799
-0.201471311883449 -0.141782914979739 1.78410659310013
-0.160091859890007 -0.169523499528085 1.80616029074109
-0.110281776014912 -0.15004078661925 1.79152686776258
-0.0666638149390149 -0.161099368828049 1.80332623982693
-0.0267979595907646 -0.175844429687111 1.81822941726044
0.016708595234536 -0.161240125929453 1.80753610743667
0.0611098000298628 -0.183379151511151 1.83279010836754
0.107740496882933 -0.159821133236807 1.83138473582521
0.14485391038554 -0.163175648803161 1.86711519639459
-0.349773632656831 -0.0473936152642726 1.84824123021186
-0.327954778855387 -0.0945250078375088 1.83636064500326
0.17861838140006 -0.126981610780673 1.87567887689635
0.204624369600744 -0.11215667078346 1.92464901644879
-0.36730385920879 -0.0335735573549307 1.89048514481999
0.221901746710998 -0.063974657293448 1.95552682103782
-0.369789904625068 0.0141707873701193 1.91299841899244
0.220362609062276 -0.0511126323581546 2.00080051426978
-0.374958595739236 0.0275739534844491 1.96260994738331
0.221486451103719 -0.00429448661760028 2.0205655122582
-0.378443134068576 0.05389591157252 2.01004006583184
0.217052947679994 0.00871648351022646 2.06873294391824
-0.37752767935709 0.0964017630130397 2.03004075766956
0.217877724012628 0.0528361710746825 2.09011792344163
-0.378717334160816 0.131195911965347 2.06327142209465
0.213396537973589 0.067009017148331 2.13865122619197
-0.379344993857486 0.139275627175386 2.11293730243951
0.210633831499076 0.112788737424963 2.1600891160445
-0.363085934138017 0.184840904549198 2.13194835832513
0.191738269167555 0.126054543393162 2.20710192402477
-0.343010157214768 0.192367351547291 2.1788038281287
-0.308647015844019 0.228585684426225 2.19180918112678
0.131985013996953 0.179274821517392 2.25551394128181
0.16905373105341 0.172418727779697 2.21900917886034
-0.273223003400492 0.225174842409457 2.2286687122841
-0.226957651979198 0.250246103064848 2.22793613258632
-0.183305106284303 0.233080307956354 2.25052139332531
-0.134669914301418 0.245047120147452 2.24235840050583
-0.0870556185055632 0.229981537381026 2.25794907582067
-0.0370462442700892 0.23078416679641 2.2596884560545
0.0094652041219763 0.231079721605998 2.26170236886959
0.0485557240498961 0.20743076064975 2.2784066679107
0.0947667448514356 0.213508940593913 2.25610276372228
-0.256965700210157 -0.102223474430629 1.77728224692735
-0.215448924964192 -0.105826390757032 1.76361066998389
-0.169040321780577 -0.103102862992726 1.7573700708089
-0.154152625442508 -0.13695650318271 1.7787112117726
-0.11689527375956 -0.109168484331922 1.76417154231552
-0.0701453214233543 -0.121122449049439 1.77402131495731
-0.0232763001121947 -0.132343284829792 1.78394674168488
0.0246370175559083 -0.121587733553193 1.78137874426044
0.0641064464152589 -0.149451327912767 1.80377387156265
0.108539453383362 -0.123310761183704 1.8038510716656
0.148937673719987 -0.127477173954964 1.83659538488565
-0.33744396585834 -0.0102134899287014 1.82330907303143
-0.320801170540061 -0.0568965474250755 1.80847256762133
0.197679010365466 -0.0896277754514532 1.8788318176888
0.215425536717911 -0.0671269797839284 1.91240158274234
-0.357631405870473 0.00578974561548087 1.86288908635728
0.220921142748744 -0.0238371114355653 1.92351791099115
-0.354699291595858 0.0499562317962422 1.88444882196153
0.223794819984308 -0.0125314285308004 1.96898123091175
-0.364358282752736 0.0631026580641967 1.92947265145451
0.22031256605425 0.0308715020368083 1.98825679328253
-0.37126322728957 0.0800000253943448 1.9754622854632
0.220557118191106 0.0456803661670933 2.03601991895939
-0.365230786581365 0.125435904866869 1.99077472271728
0.217469835781407 0.0879541371856471 2.05851765609435
-0.368239681766978 0.152339814297697 2.02690204499696
0.217346548473729 0.102983058824028 2.10598123071349
-0.372139692214364 0.173285042041845 2.08170492376492
0.211430766209042 0.144397816975351 2.12858580634464
-0.354342217134927 0.214249682222812 2.09702805874575
0.196001974172137 0.160635376222778 2.17688097588537
-0.336874514191222 0.225672994148115 2.1465616291554
-0.301302157209189 0.258228086233361 2.15870797721002
0.137026129251202 0.213900768122352 2.22342429491879
0.168908151921156 0.206260661584479 2.18636706867933
-0.265865222851989 0.259059932546549 2.19768281798038
-0.217255477157479 0.28168504313605 2.19242194055091
-0.179986117000624 0.267528913785395 2.21743706742059
-0.138177353286317 0.276186373354474 2.20682577308431
-0.0940518479403241 0.266284460156963 2.22085198722034
-0.0493950676092352 0.261936298237559 2.2272373696195
0.000676671534936252 0.26131318206217 2.22888794597642
0.0526057108551175 0.243426830285025 2.24567082786206
0.0979616094198639 0.244541479133178 2.22306183513063
-0.282337438564835 -0.0615385650142126 1.77598611705744
-0.236959859739287 -0.062476704842769 1.75363835720117
-0.189294290838689 -0.0638871076536739 1.7439994023671
-0.137434584437175 -0.0679000633546438 1.74695054324663
-0.0869239417720022 -0.0745378866605367 1.75353498470442
-0.0407937676828309 -0.0845277366849524 1.76075860761764
0.00331893683989128 -0.0841229322350081 1.76473540055269
0.0503551158607253 -0.073904635222447 1.7668257721185
0.0708062353432384 -0.109019046655675 1.78201865017402
0.102825782838853 -0.0734277856032896 1.78135215495495
0.139338112172542 -0.0908949426056611 1.80786729423203
-0.302291252927979 -0.0196991057963539 1.78471505678219
-0.277113975904248 0.022158052115872 1.77114362505295
-0.259776925662537 -0.0209442304801554 1.75733223388738
0.149548768771032 -0.0498730826653408 1.80555560159146
0.175710910460284 -0.0837511803698834 1.84039049969886
0.179024875016622 -0.036288989142056 1.8336777998119
-0.33438194466373 0.0438784614970709 1.83552288022476
-0.314607761613292 0.0217944707234494 1.80131706046849
0.203209116587013 -0.0425547919869767 1.87136990192061
0.208514549557451 -0.000523901197875806 1.8886835899873
-0.331134373093875 0.0814064544515473 1.8621735412242
0.214375843135902 0.0250997395327352 1.93217271886218
-0.340995296431815 0.101068572594889 1.90171887742255
0.209369844633597 0.0621850761372092 1.96000840915231
-0.353461644722152 0.111488885200599 1.9414925866097
0.211984613286482 0.082796520107125 2.00238218358139
-0.342438712836601 0.150740249153771 1.95551250438628
0.207116872181262 0.119754552270634 2.02989830623946
-0.346277938964993 0.17882398244464 1.99224433653746
0.209529333206573 0.140184083534231 2.07205567505146
-0.359744081996257 0.193668695386824 2.04501521049768
0.201989212057816 0.175676858939768 2.09887094570223
-0.325925653353946 0.251154523562455 2.10919485399253
-0.337879362502276 0.235954945032569 2.06052977247497
-0.306989070038977 0.268924945380302 2.06699370924774
0.192545221840367 0.190643194205253 2.1432777445341
0.179182192518233 0.216894940714596 2.09999712354103
0.165955979719588 0.229210486617214 2.14537918700366
-0.258121275748242 0.284446998605913 2.16107947299455
-0.291946893716069 0.27835071594414 2.11975438023237
-0.250110646980565 0.300170871013557 2.11882538731926
0.133277833829956 0.245191315605092 2.18472306556279
0.100896242197673 0.277609198003541 2.14916028376552
0.0885971004520495 0.270205536549563 2.18794996211423
-0.210924577086465 0.30194377739935 2.15259849850555
-0.166938968493371 0.296158309895115 2.17227028885246
-0.114025494454715 0.293818945094452 2.17461961226355
-0.0695532545873416 0.288844237711771 2.18334943715501
-0.0257374120169238 0.285550628471003 2.1883391052816
0.017001407194519 0.284737859959175 2.1877304232975
0.0502042261133675 0.270071647584379 2.21082123271206
-0.210953279321465 -0.0211557416362065 1.74132011026205
-0.159670071513769 -0.0250472924471604 1.73839599223461
-0.108900573602921 -0.0291488381190676 1.74409654018912
-0.0610278096081389 -0.0340294460617653 1.74969250995401
-0.0161979156893745 -0.0376313161238801 1.75488597241059
0.0278840103415115 -0.0335037273749975 1.75972607453014
0.0764792444202617 -0.0321668552294267 1.76750567597866
-0.232906591667529 0.0200900028845378 1.75035491053464
-0.205681468491378 0.057537693702375 1.75488125856093
-0.181510583290583 0.0182834758712062 1.74100921826135
-0.130713570023597 0.0149205834692936 1.74415365427545
-0.0830412444235697 0.0137795302326553 1.75010087046424
-0.0357716829906556 0.0103139941243239 1.75558902848144
0.00900533392067125 0.0117439938522631 1.7617118215778
0.0559423771408177 0.0109396448251548 1.76782108744145
0.104098870179645 0.0120066644019689 1.78246710155533
0.15120800753396 0.00280854184238591 1.80979092813784
0.120006563871979 -0.0284445300752793 1.78492657787251
-0.29512488651678 0.0616849423859968 1.79969663166313
-0.263156189706464 0.100150288480243 1.80250629803121
-0.252566372025461 0.0625851538977654 1.77205901258105
0.127152207993686 0.0452728773308374 1.8072714905017
0.185128898718316 0.00543731594712693 1.84739390571895
0.163243178379855 0.045651785257551 1.83916545578305
-0.302949066222287 0.0921939967383233 1.83110234414451
-0.269660278249388 0.130518656264687 1.83895483785566
0.193607160051108 0.0410102449864351 1.88246425820274
0.165705900238005 0.0801018817358118 1.87374080738919
-0.307549757791091 0.124274261852023 1.87112433279229
-0.276666260864616 0.160287564672408 1.87727374630577
0.192571367710755 0.0709425383061468 1.9159943222774
0.163764940563173 0.111812130755238 1.90955305586183
-0.318647604654125 0.148099667801754 1.91164471813517
-0.281513175796044 0.187883242412929 1.91158527453884
0.191157493450593 0.102992209371785 1.95342627647646
0.16272459467926 0.142547661477154 1.94559610520126
-0.31551731685212 0.185761254111798 1.94713664258127
-0.279581482250214 0.221163648661126 1.94615898382783
0.190459714766523 0.130846115362414 1.98736097109676
0.162047093527898 0.172630190679371 1.98143314795017
-0.312743977871764 0.220024355426429 1.97993458460822
-0.278986568664247 0.256116320230524 1.98546235071907
0.189391350727433 0.162341680052236 2.02503532952726
0.160821699495081 0.2029193031519 2.01665350054765
-0.336284935588727 0.218691262746535 2.01632739136553
-0.307059997278758 0.25543777995926 2.02165897973237
0.187674254640015 0.190638289335596 2.05844922588927
0.157585213836688 0.230555245078278 2.05363980827666
-0.273801679310669 0.291954679631891 2.07842679710482
-0.268748387816439 0.285233622411542 2.03013838460332
-0.236246197768425 0.305866324803611 2.0645765956353
0.135424419935862 0.259030112681352 2.13825047438722
0.149112275371428 0.249682303870251 2.09612211153028
0.109155717430848 0.277142899448482 2.09712993742293
-0.211718097603184 0.311997777391286 2.10464082885458
-0.186156913658379 0.314123971535462 2.06887679316506
-0.171185142496827 0.311716894860552 2.12320411833543
-0.14222777872562 0.312566404698865 2.08226539262912
-0.128717742991049 0.307692077638867 2.13231252585534
-0.0981090601613337 0.30921473600918 2.08735908591002
-0.0819212017807497 0.304664340049154 2.13502075827532
-0.0532503871823283 0.305722666188272 2.09069921254363
-0.0376227075292267 0.301140545239016 2.14097863400278
-0.00967480957175566 0.302336058320573 2.0943152613618
0.00689891753143231 0.298351557769789 2.14290638394885
0.0345424119406459 0.299110677454819 2.10213042162849
0.0526124377114066 0.291234302718048 2.15766189425123
0.0722982540813199 0.292281804710049 2.11450476711762
-0.174940451251542 0.0903837749385174 1.76890728174959
-0.152395660275664 0.0564461487619677 1.75285281052333
-0.106677029044904 0.0587600473553 1.7604425979173
-0.0579335476217172 0.0545954991466004 1.76587862201261
-0.0130358847747063 0.0563157043288793 1.77335810053768
0.0323586171968825 0.055481766294521 1.77984064911878
0.0783959467019698 0.0514067168044353 1.78696240681568
-0.219992906142281 0.098266103491339 1.78090398304217
-0.177443609808539 0.124884951023239 1.79665921276366
-0.131398555004993 0.10022584869392 1.780432343027
-0.0804401221529108 0.0933382602805004 1.78412668425476
-0.0361366805685617 0.0964720988642356 1.79409480250813
0.00839156106110367 0.0963632922936192 1.80184481563718
0.0535885488379814 0.0934840562732629 1.80753379110169
0.097041640774649 0.083653791519856 1.81435681235488
0.131691092609467 0.085775101816839 1.83947263133755
-0.224968230047333 0.131729726608548 1.81389933606209
-0.185136892483978 0.156190147775813 1.83204587604177
-0.139232254916586 0.14046796081327 1.81809806460337
-0.100015387365545 0.124964606548581 1.80838801949391
-0.0572384807612184 0.129941120539722 1.82263659780407
-0.0135314461642704 0.130479627784079 1.83212594581586
0.0345959057488843 0.12680722053026 1.83767141719253
0.0844610424053436 0.119031694482804 1.84347570964881
0.129261143425191 0.116366247737838 1.87220157435749
-0.231849718067747 0.161825433974099 1.850330848545
-0.186857407664241 0.186303569568486 1.86632306066144
-0.140806042987826 0.172154707645334 1.85420182921743
-0.0941871255206977 0.156264458198028 1.84539687148354
-0.0472628727613676 0.162625945352861 1.86223154727957
0.00294582909025516 0.158721132368873 1.86793226687756
0.0507630437444935 0.154639517968326 1.87295729479746
0.0928877650733103 0.146736827170756 1.88030577982007
0.128074443574143 0.148778168720296 1.90969245041674
-0.235364129910113 0.19108503978695 1.88447597999999
-0.18941335816031 0.21494358051372 1.8989995062931
-0.140457055316488 0.204095758719581 1.89098783410893
-0.0978774421104501 0.186987172001933 1.87996231059533
-0.0600304748001042 0.195201999225907 1.89708548156597
-0.0153024822382405 0.189476817303052 1.89958131916808
0.0327206968647742 0.185909878980773 1.90522648673378
0.0817958760224066 0.179524216598569 1.9126698335339
0.127010166553747 0.17787971249969 1.9433593897056
-0.238614228271987 0.219541847310802 1.91763431902939
-0.195782703689145 0.243227996229184 1.93168934433444
-0.145777141891739 0.234258650422 1.92457870356746
-0.0965294802343782 0.222590935192544 1.92116210121916
-0.0449766350507987 0.222673821489455 1.93171873166357
0.00320759498763358 0.218119308904775 1.93626201689778
0.0496292983740472 0.214716223006885 1.94183494934627
0.0911512387903644 0.207447405971186 1.95036699646084
0.126184950000587 0.209753041400711 1.98057688984207
-0.243283505948803 0.250134830448199 1.95388198319871
-0.205487771590885 0.271902987224819 1.96620339321925
-0.158509316818163 0.265883655861585 1.95841715875663
-0.11188426245514 0.256193890196092 1.95667163734655
-0.0672151614318741 0.251872080181648 1.96076805736558
-0.0182253269441987 0.249675104440904 1.96818497488331
0.0305988485070707 0.246120727732993 1.97400676083969
0.0797133667590913 0.240362700572154 1.9825619760963
0.124585624441863 0.238285305998666 2.01402658669674
-0.239086517309746 0.282420082866051 1.99506153141963
-0.182580106475845 0.292721477859041 1.99597849208877
-0.1338336008296 0.28682580152068 1.99396571868027
-0.0891788445660822 0.282215745553333 1.99697218388441
-0.0442919401537935 0.278231980905673 2.00116594872214
0.00209828266328919 0.275269069798047 2.00750238894909
0.0471875768118434 0.272369946201995 2.01379944957766
0.0879073076870385 0.265439247585144 2.02332836116997
0.119817575512572 0.262911335084819 2.05647536041113
-0.214177218326688 0.302836155563063 2.0274999860037
-0.160023827324883 0.306359622526879 2.03326275014607
-0.114236967377878 0.302969373371107 2.03886419619643
-0.0691538190328819 0.299116136840622 2.04258999551245
-0.0233779482156335 0.295217666387544 2.04646158395249
0.023783208974985 0.292080957479998 2.05341946888048
0.0707406711868767 0.286771182975292 2.06313711254177
3 0 1 2
3 0 2 4
3 3 0 4
3 3 4 6
3 5 3 6
3 5 6 8
3 7 5 8
3 7 8 10
3 9 7 10
3 9 10 12
3 11 9 12
3 13 11 14
3 14 11 12
3 13 14 15
3 16 17 18
3 16 18 1
3 0 19 1
3 19 16 1
3 0 3 20
3 19 0 20
3 3 5 21
3 20 3 21
3 5 7 22
3 21 5 22
3 7 9 23
3 22 7 23
3 9 11 24
3 23 9 24
3 24 11 25
3 25 11 13
3 13 15 26
3 27 13 26
3 25 13 27
3 27 26 28
3 17 16 30
3 30 16 29
3 29 19 31
3 29 16 19
3 31 20 32
3 31 19 20
3 32 21 33
3 32 20 21
3 21 22 33
3 33 22 34
3 22 23 34
3 34 23 35
3 23 24 35
3 35 24 36
3 24 25 36
3 36 25 37
3 37 27 38
3 37 25 27
3 38 28 39
3 38 27 28
3 30 40 41
3 30 29 40
3 29 31 42
3 40 29 42
3 31 32 43
3 42 31 43
3 32 33 44
3 43 32 44
3 33 34 45
3 44 33 45
3 34 35 46
3 45 34 46
3 35 36 47
3 46 35 47
3 36 37 47
3 47 37 48
3 37 38 48
3 48 38 49
3 49 39 50
3 49 38 39
3 40 51 52
3 41 40 52
3 51 42 53
3 51 40 42
3 42 43 53
3 53 43 54
3 43 44 54
3 54 44 55
3 44 45 55
3 55 45 56
3 45 46 56
3 56 46 57
3 46 47 58
3 57 46 58
3 47 48 59
3 58 47 59
3 48 49 60
3 59 48 60
3 49 50 61
3 60 49 61
3 51 62 63
3 52 51 63
3 51 53 64
3 62 51 64
3 53 54 65
3 64 53 65
3 54 55 66
3 65 54 66
3 55 56 67
3 66 55 67
3 56 57 67
3 67 57 68
3 57 58 69
3 68 57 69
3 58 59 69
3 69 59 70
3 59 60 70
3 70 60 71
3 71 61 72
3 71 60 61
3 62 73 74
3 63 62 74
3 62 64 75
3 73 62 75
3 64 65 75
3 75 65 76
3 65 66 76
3 76 66 77
3 66 67 77
3 77 67 78
3 67 68 78
3 78 68 79
3 79 69 80
3 79 68 69
3 80 70 81
3 80 69 70
3 81 71 82
3 81 70 71
3 82 72 83
3 82 71 72
3 74 73 85
3 85 73 84
3 84 73 86
3 86 73 75
3 75 76 86
3 86 76 87
3 76 77 88
3 87 76 88
3 77 78 89
3 88 77 89
3 78 79 90
3 89 78 90
3 79 80 91
3 90 79 91
3 80 81 92
3 91 80 92
3 81 82 93
3 92 81 93
3 93 83 94
3 93 82 83
3 84 95 85
3 84 86 96
3 97 84 96
3 95 84 97
3 96 87 98
3 96 86 87
3 87 88 98
3 98 88 99
3 88 89 99
3 99 89 100
3 89 90 100
3 100 90 101
3 101 91 102
3 101 90 91
3 102 92 103
3 102 91 92
3 92 93 103
3 105 103 104
3 103 93 104
3 93 94 104
3 96 106 97
3 96 98 107
3 106 96 107
3 98 99 108
3 107 98 108
3 99 100 109
3 108 99 109
3 100 101 110
3 109 100 110
3 101 102 111
3 110 101 111
3 111 102 112
3 112 102 103
3 103 105 112
3 117 114 115
3 116 113 117
3 117 113 114
3 116 117 119
3 118 116 119
3 118 119 121
3 120 118 121
3 120 121 123
3 122 120 123
3 122 123 125
3 124 122 125
3 124 125 127
3 126 124 127
3 126 127 128
3 129 130 131
3 114 129 131
3 114 113 129
3 113 2 129
3 129 2 1
3 4 113 116
3 4 2 113
3 6 116 118
3 6 4 116
3 8 118 120
3 8 6 118
3 10 120 122
3 10 8 120
3 12 122 124
3 12 10 122
3 14 124 126
3 14 12 124
3 133 126 128
3 15 14 126
3 15 126 133
3 132 15 133
3 132 133 134
3 135 136 137
3 137 17 135
3 137 18 17
3 18 137 130
3 129 18 130
3 18 129 1
3 15 132 26
3 139 132 134
3 139 138 132
3 138 28 26
3 132 138 26
3 138 139 140
3 136 135 142
3 142 135 141
3 17 30 135
3 135 30 141
3 143 39 28
3 138 143 28
3 143 140 144
3 143 138 140
3 141 145 146
3 142 141 146
3 41 145 141
3 30 41 141
3 147 39 143
3 147 50 39
3 147 144 148
3 147 143 144
3 145 149 150
3 146 145 150
3 52 149 145
3 41 52 145
3 151 50 147
3 151 155 50
3 151 148 152
3 151 147 148
3 149 153 154
3 150 149 154
3 63 153 149
3 52 63 149
3 155 61 50
3 155 72 61
3 155 151 156
3 156 151 152
3 154 157 158
3 154 153 157
3 74 157 153
3 63 74 153
3 159 72 155
3 159 83 72
3 159 156 160
3 159 155 156
3 158 157 162
3 162 157 161
3 74 85 161
3 157 74 161
3 163 83 159
3 163 94 83
3 163 160 164
3 163 159 160
3 161 165 162
3 165 95 166
3 165 161 95
3 161 85 95
3 165 166 167
3 95 97 166
3 105 104 168
3 170 94 163
3 170 168 94
3 169 168 170
3 94 168 104
3 163 164 170
3 166 171 167
3 173 171 172
3 172 171 106
3 171 97 106
3 171 166 97
3 172 107 174
3 172 106 107
3 174 108 175
3 174 107 108
3 175 109 176
3 175 108 109
3 176 110 177
3 176 109 110
3 177 111 178
3 177 110 111
3 178 112 180
3 178 111 112
3 181 105 168
3 181 180 105
3 179 178 180
3 180 112 105
3 168 169 181
3 172 182 173
3 182 172 183
3 183 172 174
3 174 175 184
3 183 174 184
3 175 176 185
3 184 175 185
3 176 177 186
3 185 176 186
3 177 178 187
3 186 177 187
3 187 179 188
3 187 178 179
3 179 180 229
3 189 190 191
3 114 131 191
3 115 114 191
3 115 191 192
3 115 192 193
3 117 115 193
3 119 193 194
3 119 117 193
3 119 194 121
3 121 194 195
3 121 195 123
3 123 195 196
3 123 196 125
3 125 196 197
3 127 197 198
3 127 125 197
3 128 198 199
3 200 128 199
3 128 127 198
3 200 199 201
3 202 203 204
3 131 130 189
3 190 189 204
3 189 130 202
3 189 202 204
3 131 189 191
3 128 200 133
3 134 200 205
3 206 205 201
3 134 133 200
3 205 200 201
3 205 206 207
3 136 208 203
3 202 137 136
3 202 136 203
3 137 202 130
3 134 205 139
3 139 205 207
3 140 139 207
3 211 207 209
3 136 142 208
3 208 142 210
3 211 140 207
3 211 144 140
3 146 212 210
3 142 146 210
3 148 144 213
3 213 144 211
3 150 214 212
3 146 150 212
3 215 148 213
3 215 152 148
3 154 216 150
3 150 216 214
3 219 152 217
3 217 152 215
3 158 218 216
3 154 158 216
3 219 156 152
3 219 160 156
3 158 220 218
3 158 162 220
3 221 160 219
3 221 164 160
3 162 165 222
3 223 220 222
3 220 162 222
3 165 167 222
3 169 170 224
3 225 164 221
3 224 170 164
3 224 164 225
3 222 226 223
3 167 171 227
3 226 167 227
3 226 227 228
3 226 222 167
3 171 173 227
3 180 181 229
3 181 169 230
3 231 169 224
3 230 169 231
3 230 229 181
3 224 225 271
3 227 232 228
3 232 182 233
3 232 173 182
3 227 173 232
3 182 183 234
3 233 182 234
3 183 184 234
3 234 184 235
3 184 185 235
3 235 185 236
3 185 186 236
3 236 186 237
3 186 187 237
3 237 187 238
3 238 188 239
3 238 187 188
3 188 179 229
3 240 239 188
3 240 188 229
3 229 230 240
3 191 190 242
3 242 190 241
3 192 242 243
3 192 191 242
3 192 243 244
3 193 192 244
3 194 244 245
3 194 193 244
3 194 245 246
3 195 194 246
3 195 246 247
3 196 195 247
3 196 247 248
3 197 196 248
3 197 248 249
3 198 197 249
3 199 198 249
3 250 199 249
3 201 199 251
3 251 199 250
3 204 252 253
3 204 203 252
3 190 253 241
3 190 204 253
3 206 251 254
3 206 201 251
3 207 206 255
3 255 206 254
3 203 256 252
3 203 208 256
3 257 209 255
3 255 209 207
3 210 258 208
3 208 258 256
3 211 209 259
3 259 209 257
3 212 260 210
3 210 260 258
3 213 211 259
3 261 213 259
3 214 262 260
3 212 214 260
3 215 213 261
3 263 215 261
3 216 264 214
3 214 264 262
3 217 215 263
3 265 217 263
3 218 266 264
3 216 218 264
3 219 217 265
3 267 219 265
3 218 268 266
3 218 220 268
3 221 219 267
3 269 221 267
3 223 270 268
3 220 223 268
3 225 221 269
3 271 225 269
3 223 226 272
3 270 223 272
3 272 228 273
3 272 226 228
3 274 231 275
3 274 230 231
3 275 231 271
3 271 231 224
3 273 228 276
3 276 228 232
3 276 233 277
3 276 232 233
3 233 234 278
3 277 233 278
3 234 235 279
3 278 234 279
3 235 236 280
3 279 235 280
3 236 237 281
3 280 236 281
3 237 238 282
3 281 237 282
3 238 239 283
3 282 238 283
3 327 239 284
3 284 239 240
3 240 230 274
3 284 240 274
3 241 285 286
3 242 241 286
3 242 286 243
3 243 286 287
3 243 287 288
3 244 243 288
3 245 288 289
3 245 244 288
3 245 289 246
3 246 289 290
3 246 290 247
3 247 290 291
3 247 291 248
3 248 291 292
3 248 292 293
3 249 248 293
3 249 293 250
3 250 293 294
3 250 294 295
3 251 250 295
3 252 296 297
3 253 252 297
3 241 297 285
3 241 253 297
3 254 295 298
3 254 251 295
3 254 298 299
3 255 254 299
3 256 300 252
3 252 300 296
3 257 255 299
3 301 257 299
3 258 302 300
3 256 258 300
3 259 257 303
3 303 257 301
3 260 304 258
3 258 304 302
3 261 259 303
3 305 261 303
3 262 306 304
3 260 262 304
3 263 261 305
3 307 263 305
3 264 308 262
3 262 308 306
3 265 263 307
3 309 265 307
3 266 310 308
3 264 266 308
3 267 265 309
3 311 267 309
3 266 312 310
3 266 268 312
3 269 267 311
3 313 269 311
3 270 314 312
3 268 270 312
3 271 269 315
3 315 269 313
3 270 272 316
3 314 270 316
3 316 273 317
3 316 272 273
3 318 275 319
3 318 274 275
3 275 271 315
3 319 275 315
3 273 276 320
3 317 273 320
3 276 277 320
3 320 277 321
3 277 278 322
3 321 277 322
3 322 279 323
3 322 278 279
3 279 280 323
3 323 280 324
3 280 281 324
3 324 281 325
3 281 282 325
3 325 282 326
3 282 283 326
3 326 283 327
3 283 239 327
3 327 284 328
3 284 274 318
3 328 284 318
3 285 329 330
3 286 285 330
3 286 330 287
3 287 330 331
3 287 331 332
3 288 287 332
3 288 332 289
3 289 332 333
3 289 333 334
3 290 289 334
3 290 334 335
3 291 290 335
3 291 335 292
3 292 335 336
3 292 336 337
3 293 292 337
3 293 337 294
3 294 337 338
3 294 338 339
3 295 294 339
3 296 340 341
3 297 296 341
3 285 341 329
3 285 297 341
3 298 339 342
3 298 295 339
3 298 342 343
3 299 298 343
3 300 344 296
3 296 344 340
3 301 299 343
3 345 301 343
3 302 346 344
3 300 302 344
3 303 301 347
3 347 301 345
3 304 348 302
3 302 348 346
3 305 303 347
3 349 305 347
3 306 350 348
3 304 306 348
3 307 305 351
3 351 305 349
3 308 352 306
3 306 352 350
3 309 307 353
3 353 307 351
3 310 354 352
3 308 310 352
3 311 309 355
3 355 309 353
3 312 356 310
3 310 356 354
3 313 311 355
3 357 313 355
3 314 358 356
3 312 314 356
3 315 313 359
3 359 313 357
3 314 316 360
3 358 314 360
3 360 317 361
3 360 316 317
3 362 319 363
3 362 318 319
3 319 315 359
3 363 319 359
3 317 320 364
3 361 317 364
3 320 321 364
3 364 321 365
3 321 322 366
3 365 321 366
3 322 323 366
3 366 323 367
3 323 324 368
3 367 323 368
3 324 325 369
3 368 324 369
3 325 326 370
3 369 325 370
3 326 327 371
3 370 326 371
3 327 328 371
3 371 328 372
3 328 318 362
3 372 328 362
3 329 373 374
3 330 329 374
3 330 374 331
3 331 374 375
3 331 375 376
3 332 331 376
3 332 376 333
3 333 376 377
3 333 377 378
3 334 333 378
3 334 378 379
3 335 334 379
3 335 379 336
3 336 379 380
3 336 380 381
3 337 336 381
3 337 381 338
3 338 381 382
3 338 382 383
3 339 338 383
3 340 384 385
3 341 340 385
3 329 385 373
3 329 341 385
3 342 383 386
3 342 339 383
3 342 386 387
3 343 342 387
3 344 388 340
3 340 388 384
3 345 343 387
3 389 345 387
3 346 390 388
3 344 346 388
3 347 345 391
3 391 345 389
3 348 392 346
3 346 392 390
3 349 347 391
3 393 349 391
3 350 394 348
3 348 394 392
3 351 349 395
3 395 349 393
3 352 396 350
3 350 396 394
3 353 351 395
3 397 353 395
3 354 398 396
3 352 354 396
3 355 353 399
3 399 353 397
3 356 400 354
3 354 400 398
3 357 355 399
3 401 357 399
3 358 402 400
3 356 358 400
3 359 357 403
3 403 357 401
3 358 360 404
3 402 358 404
3 404 361 405
3 404 360 361
3 406 363 407
3 406 362 363
3 363 359 403
3 407 363 403
3 361 364 408
3 405 361 408
3 364 365 408
3 408 365 409
3 365 366 410
3 409 365 410
3 366 367 410
3 410 367 411
3 367 368 412
3 411 367 412
3 368 369 412
3 412 369 413
3 369 370 413
3 413 370 414
3 370 371 415
3 414 370 415
3 371 372 415
3 415 372 416
3 372 362 406
3 416 372 406
3 373 417 418
3 374 373 418
3 374 418 375
3 375 418 419
3 375 419 420
3 376 375 420
3 376 420 377
3 377 420 421
3 377 421 422
3 378 377 422
3 378 422 423
3 379 378 423
3 380 423 424
3 380 379 423
3 380 424 425
3 381 380 425
3 382 425 426
3 382 381 425
3 382 426 427
3 383 382 427
3 384 428 429
3 385 384 429
3 373 429 417
3 373 385 429
3 386 427 430
3 386 383 427
3 386 430 431
3 387 386 431
3 384 432 428
3 384 388 432
3 389 387 431
3 433 389 431
3 390 434 432
3 388 390 432
3 435 389 433
3 435 391 389
3 390 436 434
3 390 392 436
3 393 391 435
3 437 393 435
3 394 438 436
3 392 394 436
3 395 393 439
3 439 393 437
3 396 440 438
3 394 396 438
3 397 395 439
3 441 397 439
3 398 442 440
3 396 398 440
3 399 397 443
3 443 397 441
3 400 444 398
3 398 444 442
3 401 399 443
3 445 401 443
3 402 446 444
3 400 402 444
3 403 401 447
3 447 401 445
3 402 404 448
3 446 402 448
3 448 405 449
3 448 404 405
3 450 407 451
3 450 406 407
3 407 403 447
3 451 407 447
3 405 408 452
3 449 405 452
3 408 409 452
3 452 409 453
3 409 410 454
3 453 409 454
3 410 411 454
3 454 411 455
3 411 412 456
3 455 411 456
3 412 413 456
3 456 413 457
3 457 414 458
3 457 413 414
3 414 415 459
3 458 414 459
3 415 416 459
3 459 416 460
3 416 406 450
3 460 416 450
3 418 461 462
3 418 417 461
3 419 462 463
3 419 418 462
3 419 463 464
3 420 419 464
3 420 464 421
3 421 464 465
3 421 465 466
3 422 421 466
3 422 466 467
3 423 422 467
3 424 467 468
3 424 423 467
3 424 468 469
3 425 424 469
3 426 469 470
3 426 425 469
3 427 426 471
3 471 426 470
3 429 428 473
3 473 428 472
3 417 473 505
3 417 429 473
3 430 427 471
3 520 430 471
3 431 474 475
3 431 430 474
3 428 476 472
3 428 432 476
3 433 431 475
3 477 433 475
3 434 478 476
3 432 434 476
3 479 433 477
3 479 435 433
3 434 480 478
3 434 436 480
3 437 435 479
3 481 437 479
3 438 482 436
3 436 482 480
3 439 437 483
3 483 437 481
3 440 484 482
3 438 440 482
3 441 439 483
3 485 441 483
3 442 486 440
3 440 486 484
3 443 441 487
3 487 441 485
3 444 488 442
3 442 488 486
3 445 443 487
3 489 445 487
3 444 446 488
3 488 446 490
3 491 445 489
3 491 447 445
3 490 446 492
3 492 446 448
3 492 449 493
3 492 448 449
3 494 451 495
3 494 450 451
3 451 447 491
3 495 451 491
3 449 452 496
3 493 449 496
3 496 453 497
3 496 452 453
3 453 454 498
3 497 453 498
3 498 455 499
3 498 454 455
3 455 456 500
3 499 455 500
3 456 457 501
3 500 456 501
3 457 458 502
3 501 457 502
3 458 459 503
3 502 458 503
3 503 460 504
3 503 459 460
3 504 460 494
3 494 460 450
3 461 505 506
3 462 461 506
3 507 463 462
3 507 462 506
3 465 463 508
3 508 463 507
3 464 463 465
3 465 508 509
3 465 509 466
3 466 509 510
3 466 510 467
3 467 510 511
3 467 511 468
3 468 511 512
3 468 512 513
3 469 468 513
3 469 513 470
3 515 470 514
3 470 513 514
3 470 515 471
3 472 516 473
3 518 516 517
3 518 505 516
3 461 417 505
3 505 473 516
3 505 518 506
3 515 514 519
3 474 430 520
3 521 520 519
3 520 471 515
3 520 515 519
3 474 520 524
3 476 522 472
3 516 472 523
3 472 522 523
3 516 523 517
3 520 521 524
3 477 475 524
3 524 475 474
3 525 477 524
3 478 526 522
3 476 478 522
3 527 477 525
3 527 479 477
3 478 528 526
3 478 480 528
3 481 479 527
3 529 481 527
3 482 530 480
3 480 530 528
3 483 481 531
3 531 481 529
3 484 532 530
3 482 484 530
3 485 483 531
3 533 485 531
3 486 534 484
3 484 534 532
3 535 485 533
3 535 487 485
3 486 536 534
3 486 488 536
3 537 489 535
3 535 489 487
3 490 538 539
3 536 490 539
3 488 490 536
3 538 540 539
3 541 542 543
3 541 489 537
3 542 541 537
3 541 491 489
3 490 492 538
3 545 493 544
3 538 492 493
3 538 493 545
3 540 538 545
3 544 546 545
3 547 548 549
3 543 495 541
3 547 494 495
3 547 495 543
3 608 547 543
3 495 491 541
3 493 496 544
3 544 497 550
3 546 544 550
3 544 496 497
3 550 497 551
3 551 497 498
3 498 499 551
3 551 499 552
3 499 500 552
3 552 500 553
3 500 501 553
3 553 501 554
3 554 502 555
3 554 501 502
3 502 503 556
3 555 502 556
3 503 504 556
3 549 504 547
3 556 504 549
3 504 494 547
3 506 557 507
3 507 557 558
3 508 507 558
3 508 558 559
3 509 508 559
3 509 559 560
3 510 509 560
3 510 560 561
3 511 510 561
3 511 561 562
3 512 511 562
3 514 512 563
3 563 512 562
3 513 512 514
3 517 564 518
3 518 564 557
3 566 564 565
3 557 564 566
3 557 506 518
3 558 566 567
3 558 557 566
3 559 567 568
3 559 558 567
3 560 568 569
3 560 559 568
3 561 569 570
3 561 560 569
3 562 570 571
3 562 561 570
3 563 562 571
3 572 563 571
3 574 514 563
3 572 574 563
3 573 519 574
3 574 519 514
3 519 573 521
3 522 575 523
3 577 575 576
3 577 517 575
3 564 517 577
3 575 517 523
3 564 577 565
3 573 574 572
3 521 573 579
3 580 573 578
3 579 573 580
3 579 524 521
3 524 579 525
3 522 581 575
3 522 526 581
3 576 581 582
3 576 575 581
3 583 580 584
3 583 579 580
3 583 525 579
3 583 527 525
3 526 585 581
3 526 528 585
3 582 585 586
3 582 581 585
3 587 584 588
3 587 583 584
3 587 527 583
3 587 529 527
3 528 589 585
3 528 530 589
3 586 589 590
3 586 585 589
3 591 588 592
3 591 587 588
3 591 529 587
3 591 531 529
3 532 593 589
3 530 532 589
3 590 593 594
3 590 589 593
3 595 592 596
3 595 591 592
3 595 531 591
3 595 533 531
3 534 597 593
3 532 534 593
3 594 597 598
3 594 593 597
3 599 596 600
3 599 595 596
3 599 533 595
3 599 535 533
3 534 601 597
3 534 536 601
3 602 597 601
3 602 598 597
3 603 599 600
3 604 603 600
3 603 535 599
3 603 537 535
3 536 539 601
3 606 540 605
3 606 602 540
3 602 601 539
3 540 602 539
3 605 607 606
3 608 609 610
3 608 543 609
3 604 542 603
3 609 543 542
3 609 542 604
3 542 537 603
3 540 545 605
3 605 546 607
3 612 607 611
3 605 545 546
3 607 546 611
3 612 613 614
3 612 611 613
3 614 615 616
3 614 613 615
3 616 617 618
3 616 615 617
3 618 619 620
3 618 617 619
3 620 621 622
3 620 619 621
3 622 623 624
3 622 621 623
3 610 548 608
3 624 623 548
3 624 548 610
3 548 623 549
3 548 547 608
3 546 550 611
3 611 550 613
3 613 550 551
3 551 552 615
3 613 551 615
3 552 553 617
3 615 552 617
3 553 554 619
3 617 553 619
3 554 555 621
3 619 554 621
3 621 555 623
3 623 555 556
3 556 549 623
3 565 625 626
3 567 566 626
3 626 566 565
3 567 626 627
3 568 567 627
3 568 627 628
3 569 568 628
3 569 628 629
3 570 569 629
3 570 629 630
3 571 570 630
3 572 571 631
3 631 571 630
3 572 631 578
3 576 632 577
3 625 632 633
3 565 577 632
3 565 632 625
3 625 633 634
3 626 625 634
3 626 634 627
3 627 634 635
3 627 635 628
3 628 635 636
3 628 636 629
3 629 636 637
3 629 637 630
3 630 637 638
3 631 638 639
3 631 630 638
3 640 578 639
3 578 573 572
3 578 631 639
3 578 640 580
3 576 641 632
3 576 582 641
3 633 641 642
3 633 632 641
3 633 642 643
3 634 633 643
3 634 643 644
3 635 634 644
3 635 644 645
3 636 635 645
3 636 645 646
3 637 636 646
3 637 646 647
3 638 637 647
3 638 647 648
3 639 638 648
3 640 648 649
3 640 639 648
3 584 580 640
3 649 584 640
3 582 650 641
3 582 586 650
3 642 650 651
3 642 641 650
3 642 651 652
3 643 642 652
3 643 652 653
3 644 643 653
3 644 653 645
3 645 653 654
3 645 654 646
3 646 654 655
3 646 655 647
3 647 655 656
3 647 656 648
3 648 656 657
3 648 657 649
3 649 657 658
3 588 584 649
3 658 588 649
3 586 659 650
3 586 590 659
3 650 659 651
3 651 659 660
3 651 660 661
3 652 651 661
3 652 661 662
3 653 652 662
3 653 662 654
3 654 662 663
3 654 663 664
3 655 654 664
3 655 664 665
3 656 655 665
3 656 665 666
3 657 656 666
3 657 666 658
3 658 666 667
3 592 588 658
3 667 592 658
3 590 668 659
3 590 594 668
3 660 668 669
3 660 659 668
3 660 669 670
3 661 660 670
3 661 670 671
3 662 661 671
3 662 671 663
3 663 671 672
3 663 672 664
3 664 672 673
3 664 673 665
3 665 673 674
3 665 674 666
3 666 674 675
3 666 675 667
3 667 675 676
3 596 592 667
3 676 596 667
3 594 677 668
3 594 598 677
3 668 677 669
3 669 677 678
3 669 678 679
3 670 669 679
3 670 679 680
3 671 670 680
3 671 680 681
3 672 671 681
3 672 681 682
3 673 672 682
3 673 682 683
3 674 673 683
3 674 683 684
3 675 674 684
3 676 684 685
3 676 675 684
3 600 596 676
3 685 600 676
3 598 686 677
3 598 602 606
3 678 686 687
3 678 677 686
3 678 687 679
3 679 687 688
3 679 688 680
3 680 688 689
3 680 689 681
3 681 689 690
3 681 690 682
3 682 690 691
3 683 691 692
3 683 682 691
3 684 692 693
3 684 683 692
3 685 693 694
3 685 684 693
3 694 604 685
3 685 604 600
3 598 606 686
3 606 607 695
3 686 606 695
3 686 695 687
3 688 687 696
3 696 687 695
3 688 696 697
3 689 688 697
3 689 697 698
3 690 689 698
3 690 698 699
3 691 690 699
3 691 699 700
3 692 691 700
3 692 700 701
3 693 692 701
3 610 609 694
3 701 610 694
3 701 694 693
3 609 604 694
3 607 612 695
3 695 612 696
3 696 612 614
3 614 616 697
3 696 614 697
3 616 618 698
3 697 616 698
3 618 620 699
3 698 618 699
3 620 622 700
3 699 620 700
3 622 624 701
3 700 622 701
3 624 610 701
