OFF
702 1400 0
-0.250862522652936 -0.352707158851655 2.11725516444802
-0.296457099537543 -0.338397657572575 2.10039262413354
-0.268211313483818 -0.35584269824356 2.07175330901961
-0.203911317995021 -0.359085146452966 2.12146330861476
-0.22214825089956 -0.366388236927258 2.07625380679535
-0.157046529139736 -0.363425791902247 2.12423027331155
-0.175708905217891 -0.370248854296546 2.07802834509766
-0.111616501924234 -0.367204810871941 2.12823865201439
-0.130336949960154 -0.373894232553869 2.07951962590656
-0.0666728949430577 -0.370815346729183 2.13261545682443
-0.0855293902901373 -0.377303544346942 2.08382863687376
-0.0191233140540544 -0.37380400779519 2.13993218097617
-0.0396885539770194 -0.38057915740904 2.09200096170709
0.0289537180312276 -0.369357786351226 2.14842513227369
0.00766528592527671 -0.382181602524968 2.10079348422103
0.0541116640755433 -0.373335712921471 2.10997863984547
-0.319287011687692 -0.311815813516037 2.13033742105671
-0.349254816374392 -0.293151611962718 2.10404567853864
-0.327834622699944 -0.321166510492388 2.07379606577547
-0.278636314699959 -0.328512981744736 2.14897495323117
-0.231822949872569 -0.337733510640564 2.16031402561029
-0.184063351475079 -0.342736800540846 2.16372033388821
-0.137242413669106 -0.34646615804956 2.16874018254543
-0.0919769129680555 -0.349690843638607 2.17424431073571
-0.0476197001872221 -0.354716131373405 2.17639184571758
0.0010523225052804 -0.355409812475117 2.1834873994345
0.0747586848699506 -0.353064127866868 2.15495040928685
0.0461348233367965 -0.343266016108868 2.1918543988125
0.092016123180115 -0.322509988526813 2.19065972910899
-0.306452250542929 -0.293361561788954 2.17304493946449
-0.346854967636051 -0.271682514758441 2.14640046926255
-0.260307752649073 -0.30735096608258 2.18966556904442
-0.210281374954138 -0.313631273730549 2.19723629784491
-0.162627584096246 -0.317744917113509 2.20209360985776
-0.114964996163999 -0.320078090962867 2.20902719445661
-0.0702188778746539 -0.322687225493 2.21504765665146
-0.0278847355018883 -0.331495140468278 2.21336159367794
0.0133949821126685 -0.323439636545016 2.22439464063718
0.0589161477949851 -0.309642073502673 2.22651031240181
0.103481678358648 -0.286504885506499 2.22122809816827
-0.325031106439409 -0.257610464131163 2.19592445910195
-0.358461130174046 -0.234931754210457 2.17084066229138
-0.283863888467684 -0.273325438402068 2.21607719921672
-0.234722189811628 -0.284057184785855 2.22653606066295
-0.185918634637882 -0.286149615020665 2.23417460431443
-0.138409629521183 -0.290660866127845 2.23854038892541
-0.0868806557072221 -0.291500388668798 2.24799539990284
-0.0319329767616975 -0.300354815935671 2.24880816079954
0.0184523283509107 -0.293069405691172 2.2584350907504
0.06876446899404 -0.27694833260508 2.25793159948049
0.113227344706883 -0.249946782241319 2.25149952591923
-0.309255779226452 -0.235895847127002 2.2397965647579
-0.349980283573656 -0.216655445914982 2.20991395488401
-0.259814088341927 -0.253425024113395 2.25354410616205
-0.212357761502208 -0.255834529681832 2.26412792620953
-0.166785236686934 -0.256851814386697 2.2721703434948
-0.122761190024171 -0.264239606800891 2.27248009449111
-0.089321157225849 -0.253099788722976 2.29222381847211
-0.0543241273460959 -0.27119009912957 2.27824146319881
-0.0120184637267038 -0.26788392720633 2.28918755414201
0.0358195180765722 -0.260925436657881 2.29081391058405
0.0836640299704589 -0.241386875622017 2.28766031243534
-0.312737692154792 -0.197885604096526 2.28233831123267
-0.340842285490192 -0.198297463422512 2.24746340881922
-0.279582769521436 -0.223664568210818 2.27808465053038
-0.232447859840222 -0.226494521061255 2.29422375131723
-0.187691557809472 -0.225396070446303 2.30457307094601
-0.138720384925257 -0.230111092084978 2.30899644887369
-0.0933103112287522 -0.224748329573456 2.32443658912963
-0.0457739589402356 -0.237330408289388 2.31940734293481
0.00225923698435779 -0.23694576268035 2.32470444346482
0.0499430948192025 -0.228927462489508 2.32159558160944
0.0971619828984228 -0.205873772592113 2.31574744603672
-0.302291514595128 -0.1754693717851 2.31900000345155
-0.346619856685939 -0.161138225638487 2.28475098198225
-0.263377022084075 -0.199358415308609 2.31567441385885
-0.217425424624096 -0.193797178857435 2.33535309361666
-0.167330486700602 -0.198085920268282 2.3405015614035
-0.12151044233731 -0.197930688657558 2.34996027440755
-0.0699250636368834 -0.201769823764644 2.35593302276682
-0.0249128652270648 -0.207926425363991 2.35748869563155
0.0214336851904235 -0.204619402119539 2.35880189883741
0.06526899868846 -0.19636731711107 2.35016727322063
0.101398238043374 -0.170276639642544 2.35056728430627
-0.297812605681117 -0.137878946645409 2.35711332610594
-0.331664544053798 -0.144955781647715 2.32356172005254
-0.26409373974081 -0.167419298122861 2.35078330246552
-0.229584205047147 -0.156279454414355 2.36921163118456
-0.186760016229069 -0.164503779888428 2.37027636005622
-0.141617051536204 -0.164740643605357 2.37792832864727
-0.0943616012784411 -0.168022026996181 2.3835669786611
-0.0456984791301222 -0.172052536199005 2.38887595100457
0.00262091140356049 -0.174807801096981 2.39032052526554
0.0541265014050488 -0.168162157790733 2.3829708655697
0.101163381685695 -0.136124040554268 2.37701736135733
-0.339381430833111 -0.106849106922904 2.34284113544442
-0.260725329423039 -0.119730249691152 2.38406748995161
-0.304522823316214 -0.0950253190489037 2.37474906006032
-0.21122990134137 -0.120453427503778 2.39320037415452
-0.165135266320594 -0.125121293356311 2.39795434435681
-0.118431236355979 -0.126131597646083 2.40444795423933
-0.0725730868530579 -0.130671770558313 2.40923481992523
-0.0258460383490087 -0.135103871460798 2.41390850890615
0.0208294523900142 -0.136260831110032 2.41169894047738
0.0650862486451672 -0.129028929614905 2.40183474791059
0.0465259847442517 -0.0913796308332902 2.42075128750379
-0.277841057450994 -0.0689049142707668 2.39424185540988
-0.23528930307388 -0.0782555934847727 2.40358530801941
-0.186223333799587 -0.0801019067979998 2.40962736324289
-0.140440705908748 -0.0812262178303471 2.41534416769218
-0.0941248883892623 -0.0826640751283158 2.42104568949714
-0.049482729418606 -0.0893300622095257 2.42555927484271
-0.00172575006209687 -0.0934958362397371 2.42820024312559
-0.246261514043183 -0.361057355828418 2.03208280688278
-0.270240351943572 -0.345209040290134 1.99754481614003
-0.246832545543049 -0.33601279208159 1.96043358927534
-0.196590896836118 -0.367181362050847 2.03227486952062
-0.218370733949885 -0.355933614156985 1.99183797931361
-0.150513476189223 -0.369663177277768 2.03140608663144
-0.170225969331457 -0.355703090367379 1.98621730901386
-0.105068774982909 -0.372545613489535 2.03371684316426
-0.124900123352199 -0.357102881362391 1.98676238647157
-0.0596933768809755 -0.376360092503486 2.04114666428883
-0.0772813600835381 -0.360853345669367 1.99263105550683
-0.0147263429089223 -0.380552551793641 2.05124649358722
-0.0315054817674961 -0.365846103656491 2.00151094430551
0.0313347738423644 -0.379394126235916 2.05979892241485
0.0127664117869344 -0.370448074140296 2.0125076762642
0.0606495461669544 -0.363784128072564 2.02184959586091
-0.29796113089733 -0.341661283919644 2.04114802953002
-0.336689553595285 -0.310530087835673 2.02705913313215
-0.307078861068425 -0.324013029474735 1.99373192642596
0.0986965990981404 -0.353115595941963 2.11535145208542
0.0744314889494037 -0.367974316031489 2.06970903199434
0.113950704514385 -0.346432074174075 2.07295862564358
-0.374811449890761 -0.257143729713615 2.09659729829561
-0.385318229833014 -0.241797230922737 2.0478632268147
-0.362212559639553 -0.284842870565011 2.0582272232301
0.119647202265185 -0.326782024600559 2.15056324893455
0.140133321168368 -0.322389118344847 2.1063719947216
0.157089728728708 -0.292702248050919 2.13547660002384
-0.377082673511636 -0.230479567613646 2.12974985077307
-0.393144654380945 -0.211738045375526 2.08452011766804
0.133384578313546 -0.292700234641801 2.18089572648771
0.164190302700185 -0.255285220297313 2.16841481836305
-0.380985189990022 -0.194056525487521 2.16588259288343
-0.393805754652887 -0.184151183513087 2.12267808700621
0.141051825464785 -0.25409365085691 2.21130895057826
0.170415742841932 -0.214938362978656 2.19515388696219
-0.375497266107492 -0.177290776539534 2.20475938086383
-0.3962282729668 -0.14651733843994 2.16437314721758
0.149514840672207 -0.214647819247933 2.23921555696949
0.174641751310258 -0.17470557197701 2.22390444228976
-0.367647451491319 -0.161602895343272 2.24468370035789
-0.391703876347241 -0.131505213944666 2.21065399776472
0.126349324559582 -0.210423259381866 2.27882179807078
0.158609374404664 -0.171198945079742 2.26695374239511
-0.381625457707365 -0.122554143806017 2.25929595133458
-0.400162272554113 -0.0865331312489613 2.23021620665376
0.133583406989005 -0.172326290310141 2.3097213812549
0.163525228761119 -0.132909995668104 2.29507410209941
-0.366078259821165 -0.117417443961412 2.3011515097778
-0.39061105113042 -0.0782177209883548 2.27815924276447
0.136876627634186 -0.136860129287147 2.34025449696675
0.160314956489896 -0.0979340604218696 2.32886080976079
-0.369174248615657 -0.0734689719173985 2.32136513172888
-0.337090810923631 -0.0642357314541352 2.35945697949726
-0.357093995387813 -0.0297968052908526 2.34191046197919
0.093688410004157 -0.0906017125688627 2.39993569112085
0.116745026361992 -0.0502733674394459 2.38814118120096
0.130440985355167 -0.0965930198275503 2.36901656685446
-0.311745626462533 -0.0377242138024697 2.38027118729958
-0.259306520490236 -0.0280895040740645 2.40266431355019
-0.291446749758108 0.000911523915275651 2.38706328745668
-0.209654265829654 -0.036930944164937 2.41083879856395
-0.162414117733117 -0.0340585948626059 2.41610141030173
-0.115792472893315 -0.0354816578474457 2.42136395399966
-0.0689566840351617 -0.0369696173221085 2.42663247975514
-0.0259315652301508 -0.0477726904774204 2.43183631499616
-0.000690447925047591 -0.0109006579226157 2.42808930959619
0.0247650663225665 -0.0510218456376559 2.42973868181738
0.0734528193772576 -0.0495218364804737 2.41481225327556
-0.258114288244126 0.0302129665558839 2.39097640994366
-0.226350636092135 0.00591129051117548 2.4041095865733
-0.182258270590184 0.0112961862583557 2.4070340828093
-0.136163284306617 0.0113165178489521 2.41135949425149
-0.089464384113935 0.00927615238324492 2.41629831390402
-0.0410457822606355 0.00752460878843051 2.42129458897723
0.0147007794395851 0.0271375430293141 2.41459720366158
-0.334985066541297 -0.291847220949784 1.97862024342763
-0.318846993551113 -0.276613021922852 1.94021059018562
-0.288017078250601 -0.312866225728544 1.95245426714094
-0.239269160844036 -0.312067116905755 1.9254475791246
-0.197142759097586 -0.336510931029695 1.95044555270189
-0.146649521787546 -0.331602655243815 1.94384884793649
-0.0966308372952518 -0.336883030353242 1.95163648624114
-0.0445461966025878 -0.340990174042871 1.95789128045269
0.000802885656530278 -0.346714307224175 1.96632652956451
0.044950968972337 -0.350506231200786 1.98216330136612
0.0872768619937526 -0.332197536417562 1.98182214997086
0.100153923955235 -0.347429317873522 2.02925700896631
0.126585980382439 -0.320428588911586 2.01229741883114
-0.364909583312989 -0.271120318401755 2.01276493144414
-0.382811928449209 -0.224378078378175 2.00141339061474
-0.359300521018674 -0.249997443041359 1.97030952699798
0.143297589969341 -0.319097633141239 2.05690767624748
0.159010295659637 -0.289234875986956 2.02654825255343
0.169108271788183 -0.287766757766667 2.0817781681065
-0.397113137142055 -0.192716300295016 2.03901693316775
0.188668902923678 -0.245399874793731 2.08048845079693
-0.400199248239289 -0.162858535042069 2.07263001501687
0.180823672770726 -0.254648110457157 2.12272108995151
-0.401224971724163 -0.142131519137485 2.11609752146737
0.186292366487443 -0.213416680820696 2.14786294201468
-0.403452083444563 -0.10286669556198 2.13294371121369
0.188725785580968 -0.173976971544707 2.17316486316191
-0.403335504832449 -0.0966440267236996 2.18040944515889
0.189232846727575 -0.137542089692867 2.20164583750332
-0.406666597194652 -0.0496197729043954 2.2004098400403
0.181453211199021 -0.126478145236392 2.24748584649227
-0.402787060058387 -0.040290161339516 2.25110800991512
0.181522656795059 -0.0886364610447921 2.2815457183777
-0.385913385598429 -0.0333496228300363 2.29934444541172
-0.39255838328244 0.00485225891433215 2.27161762022439
0.149930874003124 -0.0542289438767747 2.3540404072891
0.174174173627973 -0.0564795845480044 2.31285603605596
-0.368759130350174 0.00933524951177899 2.31789428913184
-0.333857558382262 0.00385236865487231 2.3589125187094
-0.341048247504084 0.0461917853671925 2.33254359640655
0.0491667683275304 -0.00873930816049572 2.41893366058864
0.095593248308775 -0.00801446228767668 2.39722674334985
0.134429757824046 -0.00889831592397213 2.36507138492516
-0.304186996646944 0.0416528142260599 2.36575513333616
-0.26376573377572 0.0684098227657568 2.36975313469959
-0.211183218673343 0.0522486438487185 2.38878105890377
-0.162147095963872 0.0544400745485352 2.39130975384573
-0.114791500812888 0.0533917526325308 2.39535169930016
-0.0674068443713717 0.0502106450964413 2.40058494024276
-0.0214153709979534 0.0508924011902075 2.40344259567523
0.0321584289712723 0.0625943485870176 2.39101769120962
0.066030358649721 0.0306026756445647 2.39841374037126
-0.307743823127149 -0.243741046271556 1.9058162876005
-0.276157073675535 -0.283143506426498 1.91400397065611
-0.227742259421267 -0.279489903806477 1.89376764130468
-0.190308957445154 -0.308297001331843 1.91614401966064
-0.146711037168188 -0.29591669671797 1.90711643558786
-0.106437093698485 -0.303765920200573 1.91593177347812
-0.0593762597239654 -0.312717792570212 1.92610951098212
-0.00319263752200138 -0.31377331121051 1.92976074990432
0.0444226165410397 -0.323654529544121 1.9467204287561
0.0895984726461179 -0.299784270954585 1.94642398138822
0.127650417243475 -0.296139645603512 1.97865253618688
-0.371217287622669 -0.197358134030939 1.95814375770001
-0.343334855577458 -0.234270667019432 1.93585863928844
0.160321953247151 -0.260208912883028 1.98981899924953
0.180628287147837 -0.253746293423753 2.03817767445097
-0.390257231242815 -0.176661102957036 1.99852529868927
0.197047997688927 -0.206338392375586 2.05363750103324
-0.395630909689435 -0.136730222151622 2.02882475568203
0.196154052573482 -0.205206081094202 2.10341970788763
-0.399512051785725 -0.114485089192781 2.07709918403361
0.196760124831158 -0.163414420697512 2.12654976198843
-0.398728701575962 -0.0715313760650206 2.09833960907613
0.196423016197811 -0.125042750961646 2.15453519513589
-0.403563795917046 -0.057322450663875 2.14973361707957
0.193385720901912 -0.0952692314219254 2.20039609245053
-0.402508316466796 -0.012553681635773 2.16972128047074
0.190330799141089 -0.0748296384831323 2.24030511279094
-0.403863248030668 -0.00346009054276095 2.22133322644732
0.185408176741709 -0.0322021822759225 2.27681051536393
-0.388899414799096 0.0410800268227916 2.2414980098848
0.164211071930352 -0.0138315218227185 2.32492532838579
-0.370080627917844 0.0470069982937496 2.28921921579476
-0.337287209354217 0.0837168109881274 2.30240724657477
0.108287483044073 0.0323852281599117 2.37069417748779
0.143494396926973 0.029175976342907 2.33433006891055
-0.303284106782139 0.0808589143484512 2.33923362553428
-0.259795628979542 0.107323895241839 2.33870069427643
-0.224085183642487 0.0882926401244781 2.36439638223156
-0.179193473092577 0.0922642797992571 2.36361691562107
-0.135073970965854 0.0927537993918648 2.36539199552308
-0.0883268330840752 0.0888388309228939 2.3711186766517
-0.0450185005416725 0.0887081670107952 2.37339164241007
-0.00239397489073621 0.0868285898571082 2.37662311200703
0.0753078512562312 0.0693085944662399 2.36796564147976
-0.304459484845982 -0.208465488637875 1.87792646397811
-0.265867095722933 -0.24754321837806 1.88133803680136
-0.218987724565555 -0.24425112352567 1.86300445904436
-0.179224445424886 -0.270691425071833 1.88361724328447
-0.125418528344689 -0.261343800804872 1.87819280674943
-0.0794624881429072 -0.273855998519271 1.89133613933018
-0.0337433818698916 -0.28565211073437 1.90384681649832
0.00961774531197176 -0.273530773525328 1.89549638227111
0.0473439486423285 -0.290763438670031 1.91704227049339
0.0938719889145762 -0.264538118676886 1.91487925253663
0.130610279655181 -0.263750040971038 1.94757874904633
-0.366363815513383 -0.159046109643355 1.92891667019869
-0.341929128006368 -0.19941811387846 1.91193028534272
0.166137548025022 -0.22566732519168 1.95977046845116
0.186309273556188 -0.218634153337603 2.00629121831363
-0.385518158702819 -0.143487937919742 1.97367948797863
0.203220077529631 -0.171502236462047 2.02596796770491
-0.389062285349994 -0.0986970428137285 1.99654375982163
0.202449500476729 -0.161815374405225 2.07811554542908
-0.393404016330504 -0.0843380898641442 2.0436752626545
0.202814359212016 -0.11646937752212 2.10456325309497
-0.392706138827934 -0.0393349873657018 2.06700069695927
0.200157251788204 -0.0805095080312427 2.15114387567923
-0.397289771412107 -0.0238604491816952 2.11696004741867
0.198265610132043 -0.0503825998201556 2.18726712183023
-0.396377027596977 0.0220260729900975 2.13898868715664
0.194657155888409 -0.032293782910925 2.23017269599951
-0.397725277656499 0.0325515585068856 2.19109396133703
0.190996312558545 0.0102211185210347 2.24677360101535
-0.382668541579588 0.0767311003891777 2.21103312477938
0.172869564435409 0.0172497371214049 2.29192434649149
-0.36403667531431 0.0827546985288955 2.25870479312573
-0.330288656348228 0.120012091563595 2.2721312161089
0.114996810269225 0.0700246537162594 2.33861362777346
0.150950184393665 0.0636899130867848 2.30271921568431
-0.297009041157533 0.116941352577336 2.30845689341624
-0.248422439339345 0.141949842055791 2.31094885063235
-0.208126497402713 0.123028059503425 2.33549254653335
-0.157175053822398 0.129819417851372 2.33214327230275
-0.104475190423853 0.123208355820851 2.34050507172652
-0.0560946186201727 0.124760412004108 2.34157175188146
-0.0100000726987984 0.122629479677623 2.34571826568491
0.0378686605007596 0.101710255778944 2.35809325834537
0.0791769555028845 0.107502987885793 2.33671377451728
-0.298956309415003 -0.173809777078427 1.84861747350617
-0.260983553982091 -0.21190638006315 1.85139022446085
-0.21305053214024 -0.210547280333868 1.83405052048314
-0.1681221789019 -0.237399600815455 1.85529597917541
-0.120921935446299 -0.222322963264507 1.84457459363579
-0.078837137530966 -0.236932508824309 1.85934443449348
-0.0341727943499327 -0.250592332695922 1.87341826318376
0.0121519234831767 -0.236051189753445 1.86311677573732
0.055362754644094 -0.253645255469483 1.88566618634963
0.100812213777503 -0.228386348501863 1.88428699336761
0.136679388196966 -0.229734025397708 1.91855674770213
-0.359931036885371 -0.122734798582833 1.8974906208735
-0.336601229634244 -0.165712603925331 1.88369547123432
0.172439440629593 -0.190908350410315 1.93045728469796
0.192847878677365 -0.182924559026812 1.97697407289958
-0.379162858140719 -0.110247227544741 1.94308162497268
0.209298827054726 -0.13686999583026 1.99749465454973
-0.382784562785433 -0.0656754147461509 1.96352201365083
0.208353778628112 -0.125958050574857 2.05019615546018
-0.387143626141419 -0.0463906447646463 2.01402106338861
0.2096672526128 -0.0808537201385842 2.06822826615159
-0.387246117981833 -0.00225935846814314 2.04372615814084
0.205616877343441 -0.0664464786905666 2.11285438875972
-0.391200517185543 0.012442961665308 2.08771853066871
0.20508430647352 -0.0244552271730401 2.1449105318256
-0.390053747232214 0.0566258939575645 2.10660154689314
0.201175074449062 -0.00185875292972524 2.19365588613501
-0.391792077510979 0.0669867763156239 2.15993134597024
0.198113241543929 0.0430156093559885 2.21359247084031
-0.376542737501967 0.111599641515379 2.1813775464486
0.178367231123839 0.0556790533625907 2.26139927980495
-0.3573592193473 0.118504858315232 2.2290181224963
-0.322004484447767 0.155657994903267 2.24415508004578
0.120396379635082 0.106288847154555 2.30828850648873
0.156332995223892 0.100492687162372 2.27250170503391
-0.287232631894951 0.152308420265689 2.28078079457522
-0.23889414135225 0.176681281603116 2.28229625004463
-0.197455960237985 0.156892155300834 2.30665401455892
-0.152609072268302 0.171221984663959 2.2964631773088
-0.115413584188129 0.154835214786779 2.31252970165198
-0.0677290254710504 0.158169164155454 2.31201609814282
-0.0173494494468433 0.158775800687461 2.314002325909
0.0327901295871218 0.138274027693492 2.32940070077132
0.0804711335536257 0.142833646270494 2.30894360107028
-0.292745196284775 -0.139083523969628 1.81864989279456
-0.255413863382031 -0.176624617081621 1.82137841797515
-0.209138212495866 -0.175829042515847 1.80464490530829
-0.164807713472466 -0.202808560339671 1.82546128804714
-0.115130938110269 -0.185438171146628 1.81287280847667
-0.0730631223554298 -0.199219861259743 1.82692342199505
-0.0310758859570106 -0.214451446126306 1.84222820383198
0.015179667817695 -0.198895337901718 1.83104269839412
0.0587364622162571 -0.218413629415989 1.85455842236949
0.10400752683422 -0.19434662491564 1.85322467061732
0.142878470302372 -0.195220101758683 1.88916002989061
-0.354958336732143 -0.0858114431488466 1.86880369650574
-0.330439011835904 -0.131551073800283 1.8540654171115
0.17838281543318 -0.156288911740685 1.90057908443181
0.199013842913073 -0.147788841515092 1.94704045510987
-0.373245314417967 -0.0731410184775023 1.91312238925233
0.215183491975868 -0.102635410841393 1.966653527602
-0.375939798733265 -0.02545438800106 1.93027177758188
0.214780690327846 -0.0903744735690616 2.0175431005422
-0.380590364812811 -0.0195605724357905 1.97456153025925
0.215508951048872 -0.0425809306513327 2.04242375287878
-0.381947477319207 0.010302907576112 2.00585971660005
0.210976554672375 -0.0288693451655066 2.09079462493574
-0.384315966403389 0.0483960448967845 2.05133464988781
0.211584258722896 0.0147023976970023 2.11396340566996
-0.384137949842893 0.0905404449846855 2.07730772826399
0.207171612132336 0.0283085342178529 2.16121944926274
-0.385847757338467 0.101177739453233 2.13058740951977
0.204668550925249 0.0757178395994725 2.18227543009542
-0.369554458020622 0.147042529025602 2.15449444488222
0.185308227172193 0.08974857695112 2.23002206677849
-0.350054940797058 0.153906808446122 2.20108370997715
-0.314949502899984 0.190649969115218 2.21530366929845
0.125115636230582 0.141746196209615 2.27912361176625
0.16263126172004 0.135210395294539 2.24233654832632
-0.279229690566466 0.187188922253824 2.25220787116601
-0.232733061278622 0.212137315649733 2.25185249554537
-0.190706453815498 0.194343909790811 2.27450938518362
-0.140162193626957 0.207780405060398 2.26537630641119
-0.100655332551828 0.189934371135299 2.28282432607345
-0.0523884162441078 0.193038176215666 2.28253908027311
-0.00431313417448016 0.194177819697307 2.28394792258526
0.0360392633488236 0.171512133257048 2.30134577504794
0.0875617751662334 0.17588116919814 2.27987279213987
-0.294023257219179 -0.102343955675298 1.79423440122068
-0.249042870034221 -0.140467045059295 1.79028968139399
-0.20117509755366 -0.142020612456667 1.77524431974693
-0.159749093445436 -0.169835588907016 1.79711617213057
-0.10997169423171 -0.150181475302544 1.78260121529495
-0.0663348273062422 -0.161246009695268 1.79432486121255
-0.0264438461448001 -0.176022624559262 1.80912922594525
0.017038235480613 -0.161281849460018 1.79852399124749
0.0614775505760192 -0.183510981620842 1.82363137982591
0.1080708129102 -0.159870860835059 1.82237051492761
0.145194016946761 -0.163394075577522 1.85807455852128
-0.349618120374807 -0.0482757976507427 1.83999575677904
-0.327726384561561 -0.095296096395693 1.82781288925868
0.178902384484743 -0.127201978651617 1.86686447280017
0.204891154742546 -0.112647937569899 1.91592493085631
-0.367164778296173 -0.0347525852441695 1.8823288252598
0.222096355943237 -0.0646361832537029 1.94710674445214
-0.369723346674604 0.0128435232879933 1.90514580510919
0.220542664574507 -0.0520650039055665 1.99246156141713
-0.374906890174756 0.0259224909032355 1.95484223819952
0.221595092331297 -0.00537188074291483 2.01252400349516
-0.37842695860144 0.0519365165231182 2.0024393306561
0.217147171357999 0.0073252514653633 2.06077378693199
-0.377576078975001 0.0943156088648315 2.02271004041559
0.217905000426033 0.0513091918933924 2.08243903826972
-0.378816448481495 0.128895638814984 2.05616161960304
0.213407608821575 0.0651657712086516 2.13106208577228
-0.379450553780316 0.136658097752204 2.10587799081734
0.210575345163542 0.11080370459957 2.1527912315304
-0.363261044898595 0.182127087662546 2.12517676097769
0.191664834326118 0.123740169192354 2.19988972897678
-0.343191223088942 0.189386882925372 2.17207683453062
-0.308883659885264 0.225575951578277 2.18530841588211
0.131833772762729 0.176556796994538 2.24864648052776
0.168908630074785 0.169991738948289 2.21209448395931
-0.273449622374736 0.2219865569693 2.22214134639332
-0.227224008885227 0.247135028558359 2.2215629345566
-0.183541543665274 0.229894822046017 2.24403337695811
-0.134926345256551 0.241990160417905 2.23594102140796
-0.0872863399111258 0.226900895642715 2.25142992337782
-0.0372780747182905 0.227771439974756 2.25316852453076
0.0092331045618719 0.228127647541599 2.25517883474013
0.0483630391515297 0.204434636217317 2.27172770607315
0.0945615704564909 0.210727637071225 2.24945753089384
-0.256732746660659 -0.102506257068355 1.76867838364081
-0.215212071906466 -0.105956499206342 1.75497929439569
-0.16880862033911 -0.103119998759293 1.74875072482876
-0.1538647768584 -0.137085214749591 1.76987422829662
-0.116653196010994 -0.109146400602157 1.7555073515006
-0.069883175715328 -0.121088942564521 1.76527537228375
-0.0229952345697425 -0.132298664742444 1.77512369771612
0.0249007139546483 -0.121451310126701 1.77261859955653
0.0644169349409754 -0.1493944840759 1.79483131529784
0.108808620775006 -0.123184777767344 1.79506968692362
0.149217530024494 -0.127495678207477 1.82778209192023
-0.337350343615821 -0.0109183169859436 1.81529929636928
-0.32063574332053 -0.0574796546515912 1.80016402769792
0.197904409570693 -0.0898389018792718 1.87025285925049
0.215619651401131 -0.0675242046656825 1.90396307467779
-0.357557997350442 0.00480078238730217 1.85498272341932
0.221048309688125 -0.0242973335958934 1.91535405478132
-0.354692884671086 0.0488337372790967 1.8768227785436
0.223909909182689 -0.0132766985321989 1.96088807279121
-0.364366900173061 0.0616780747448373 1.92193049711962
0.220361577078092 0.0299971213557874 1.98043989190294
-0.371292672408729 0.0782714766073359 1.96802755138092
0.220588815596782 0.0445020722031956 2.02829627288364
-0.365330035390493 0.12361845522093 1.98362815102988
0.217437646882062 0.0866268737292918 2.05106296867197
-0.368376816446965 0.150287106010413 2.01992632451371
0.217296660888133 0.101353202707475 2.09862124827474
-0.372302929882462 0.170876937725648 2.07486185610512
0.211318365799996 0.142613861561729 2.12148964416847
-0.354568211937481 0.211771290884216 2.090443319103
0.19587009155033 0.158519330765257 2.16988898535327
-0.33711227355462 0.222906702822942 2.14004654596505
-0.301589821263147 0.255439986706847 2.15239568342195
0.136816130564774 0.211394192533151 2.21677727269608
0.168705467727439 0.204040460947265 2.17966844057907
-0.266149292135893 0.256079747051996 2.19137088194461
-0.21757600034387 0.278814644388733 2.18624842115168
-0.180281156055188 0.264558490585028 2.21116858257187
-0.138487463094175 0.273349345298921 2.20060771143925
-0.0943445959082919 0.26342808443966 2.21456545658565
-0.0496801945676855 0.25910992365265 2.22091780971679
0.000392675381847646 0.258555416747883 2.22255852727619
0.0523520242490857 0.240644672197294 2.23922115383794
0.0977032328928623 0.241974839486226 2.21661440576282
-0.282168858178657 -0.0618540543216028 1.76764418990606
-0.236792694811595 -0.062578259901312 1.74528560181638
-0.189126183590812 -0.0638519871366434 1.73563228777565
-0.137259830900914 -0.0678017133933745 1.73855175949909
-0.0867379339666289 -0.0744015055934665 1.74508790997756
-0.0405911261360711 -0.0843642404512922 1.75224240745832
0.00352138921351083 -0.0839150674579914 1.75621653404853
0.0505416404579982 -0.0736359887002909 1.75836639376448
0.0710501095393422 -0.108814030328617 1.77333308361679
0.10301333459891 -0.0731687098894287 1.77288937698059
0.139556567643525 -0.0907465626767523 1.79928853583147
-0.302187601576818 -0.0201025706881882 1.77664157681378
-0.277078171956792 0.0218798343531072 1.76333387539297
-0.259674841283329 -0.0211062328381226 1.74924640894576
0.149702145348458 -0.0496947420457413 1.79723678050677
0.175922173359403 -0.0837524832287999 1.83185229270308
0.179160339324924 -0.0362433552670651 1.82544141612532
-0.334372183826366 0.0430995757214785 1.82785676827719
-0.314567502278158 0.0212649957712438 1.79350877304936
0.203359233762785 -0.0427107040963215 1.86309004550417
0.208600494640838 -0.000782526105236422 1.88067026930127
-0.331180485334701 0.0804622780334097 1.85474535776582
0.214426848221409 0.0245730430626302 1.92432091389133
-0.341067417027307 0.0998567153269419 1.89441618707116
0.209365836524295 0.061472518042715 1.95239265720726
-0.353545148840348 0.110003976426609 1.93425686977084
0.211953441633156 0.0818179680294472 1.99489644952793
-0.342582425981258 0.149182682253745 1.94852503052216
0.207030847560917 0.118592393557526 2.02264780527282
-0.346461323028836 0.177025972511038 1.98543530783543
0.209416405031368 0.138756992435071 2.06493406224436
-0.359944182725361 0.191513240900298 2.03830116825613
0.201823658806269 0.174066431489528 2.09197556722135
-0.326208409398598 0.248642796019358 2.10284142488673
-0.338144287926389 0.23373438202036 2.05408198985305
-0.307305271494613 0.266711333615346 2.06075201976472
0.192361691981867 0.18873490546975 2.13647782536524
0.178951728834393 0.215240430327649 2.09336672538634
0.165711853624505 0.227245990055885 2.13882779994512
-0.25845009152527 0.281711457232837 2.15492894940581
-0.292271292548667 0.275824877025217 2.11356985222279
-0.25046966974562 0.297716566102809 2.11277485765567
0.133013515056534 0.242924454034074 2.17827641609548
0.100576258048232 0.275516818650336 2.14292446916893
0.0882937510631555 0.267847015774878 2.18166767996789
-0.211282156696884 0.29933639459981 2.14655398266943
-0.167284968430261 0.293495339507575 2.16618340530589
-0.114367568452203 0.291224663031753 2.16851160007961
-0.0698864201287909 0.286264757874187 2.17720438212327
-0.0260647979609659 0.28300868143601 2.18216785941335
0.016675173618435 0.282267320817825 2.18154901547035
0.0499040426466116 0.267506917876057 2.20454212785439
-0.210852956954772 -0.0211387036527873 1.73322755011452
-0.159564040423327 -0.0249305461522118 1.73027272211782
-0.108787405596888 -0.0289880809165699 1.73594110895522
-0.0609062842245862 -0.0338285717382768 1.7415003003295
-0.0160700993488234 -0.0373925974429921 1.74666548721504
0.0280058690833758 -0.033226263215949 1.75152660291747
0.0765999198955435 -0.0318621637026234 1.75930886860184
-0.232870219501957 0.0200139727428528 1.74252724663667
-0.205703684119468 0.0574750599839543 1.74728865441447
-0.181472610750527 0.0183481565500005 1.73316423152152
-0.130669951730134 0.0150455706307839 1.73628125617715
-0.082995128515162 0.013942002015789 1.74221551086777
-0.0357194570053658 0.0105162858474159 1.74767596955103
0.00905602384674907 0.0119780236278779 1.75380249998212
0.0559950545504986 0.0112089590816747 1.75990103007685
0.104151663505682 0.0122588184793851 1.77454790316234
0.151278737473395 0.00296141586169982 1.80180712148947
0.120123521037469 -0.0281820290996994 1.77674801476623
-0.295147843437607 0.0611957007718032 1.79213998173039
-0.263239565366375 0.099692840620752 1.79519066443749
-0.252594315775275 0.0623390201082377 1.76450367174902
0.127155598005911 0.0454028708312521 1.79956081601162
0.185200213704807 0.00540440141427162 1.83942209865113
0.163249977722354 0.0456358009052535 1.83145232322696
-0.30301619538594 0.0914918620094373 1.82374014967108
-0.269786964855705 0.129818309411715 1.83183250766421
0.193626752310501 0.0407667591587184 1.87471715384135
0.16566269441905 0.0798689975535931 1.86624594520539
-0.30766244923272 0.123309455533589 1.86396604202319
-0.276835073583296 0.159331635169342 1.87034092506987
0.192547959849243 0.0704833755885516 1.9084371651223
0.163676218425011 0.111347576901449 1.9022595164441
-0.318792752705682 0.146858931540214 1.90463854288573
-0.281721195101964 0.186700692135147 1.90482795917411
0.191088238493627 0.10229189397387 1.94607250785616
0.162591923472655 0.141851412754013 1.93849757484595
-0.315717425279298 0.184298770167779 1.94036908067573
-0.279837659353098 0.219763395263844 1.93961255646812
0.190350792395905 0.129928126527181 1.98018387394595
0.161871477689961 0.171704145427795 1.97452543231461
-0.312994022452868 0.218356778425096 1.97338410259893
-0.279292941328419 0.254466114790992 1.9791375151739
0.18923748654905 0.161181553524046 2.01805804893424
0.160602735158899 0.201766516229226 2.00993799105
-0.336528221136957 0.216754909097867 2.00977044230157
-0.30736066367176 0.253512872182122 2.01533237743342
0.187479959131252 0.18926218412939 2.05165156420403
0.157327317211913 0.229161357356208 2.04709981826422
-0.274152832837826 0.289720236257526 2.07232756602874
-0.26909507153514 0.283314630793581 2.0239967640879
-0.236621124500263 0.303779058029787 2.05856179159939
0.135132341948261 0.257062112437 2.13189259289725
0.14882958670614 0.248004247584186 2.08970398728684
0.108829847481971 0.275394717306829 2.09089124268122
-0.212097645369191 0.30969414422476 2.0986613666422
-0.186544395375628 0.312088287693345 2.06290859658422
-0.171561938699116 0.309359156319773 2.11721774907146
-0.142611154861684 0.310514941574119 2.0762818709003
-0.129087079962889 0.305343544325927 2.12629538629997
-0.0984865521869077 0.307200623350588 2.08134896627204
-0.0822854726098886 0.302372562428179 2.12897881745035
-0.0536219971693577 0.303758236266525 2.08466155034504
-0.0379807128760885 0.298880905826282 2.13490896121798
-0.0100406673692109 0.300417525835988 2.08825087237993
0.00654550502288637 0.296150042385166 2.13681371145855
0.0341825845532079 0.297212327964438 2.09604017183562
0.0522720808305796 0.289011246967453 2.15151827523608
0.0719507343740653 0.290364492093884 2.10836638569062
-0.175012786113985 0.0902797315550763 1.76151984630861
-0.152416477004147 0.0564806264003762 1.74524706466704
-0.1067005922477 0.0588183950909402 1.75284607509503
-0.0579499055019303 0.0546963420716048 1.75824977953935
-0.0130540646919338 0.0564398352370295 1.76573480081825
0.0323425208533496 0.0556363697920694 1.77220659825857
0.0783871319734641 0.0515888099321778 1.77929688844855
-0.220076105977934 0.0980143679216414 1.77357174408931
-0.177566891335132 0.124599588505251 1.78949109215929
-0.131485020309527 0.100117029398346 1.77310221900228
-0.0805153066351333 0.0932865784637271 1.77674668576439
-0.0362156021867689 0.0964268973445528 1.78672936301622
0.00831374020379938 0.0963391127126974 1.79447331582612
0.053515940425779 0.0934951318105794 1.80013856195674
0.0969853665760314 0.083690299246958 1.80689379485925
0.13163461702021 0.0857064554836567 1.83201855138913
-0.225100068876361 0.131259417845362 1.80677999145897
-0.185305097627701 0.155666745648538 1.82507718200361
-0.139377465182878 0.140106183213325 1.81102421677512
-0.100137401383807 0.124726913156069 1.80121110740292
-0.0573665955956601 0.129680213942663 1.81548606440986
-0.0136592602728272 0.130227362173491 1.82497353281776
0.0344745345675621 0.126595769637815 1.83048988667862
0.0843526235659144 0.118862244561423 1.83623873854358
0.129160527353343 0.116084806547187 1.86494181428911
-0.232024439010521 0.16111174425174 1.84340311649456
-0.187068803126727 0.185558650031487 1.85954553161993
-0.140996695880577 0.171559985607095 1.84732910570101
-0.0943538655429799 0.155799761765238 1.83841773675159
-0.0474375770097659 0.162128098870978 1.8552870682364
0.00277795184765685 0.158266405555969 1.86095694445287
0.0506021898095789 0.154228437017035 1.86595029727838
0.0927402702081017 0.146345694239972 1.87324340687843
0.127927415627151 0.148255550939734 1.90263835665973
-0.235580707550814 0.190147857540572 1.87773419139977
-0.189665819832844 0.213986043131064 1.89240389485961
-0.140693468092069 0.20326678226062 1.88431761460419
-0.0980882954048151 0.186295998717693 1.87317844339496
-0.0602521706417066 0.194461460139403 1.89034912211425
-0.0155148771453831 0.18879117587464 1.89280323681829
0.0325145911519858 0.185264250934734 1.89841996830024
0.0816007373695609 0.178908880192867 1.90581677958892
0.1268214676443 0.177140519570499 1.93648995637465
-0.238871520742777 0.218387887641285 1.91107335349852
-0.196075663610875 0.242051739210109 1.92527383328881
-0.146056905794305 0.233206837024252 1.91810039904782
-0.0967913171033117 0.221638915990548 1.91460384318699
-0.0452373260013961 0.221736054913511 1.92515475445064
0.00295461235974497 0.21722884412845 1.92966332162159
0.0493823390523682 0.213863697891865 1.93520904970377
0.0909167888264611 0.206606330403698 1.94368980227091
0.125950654444734 0.208774994373904 1.97390965816774
-0.243584491855256 0.248742143937053 1.94751554000021
-0.205821610473764 0.270491122656803 1.95997082178807
-0.158834699721576 0.264595689136822 1.95214093726929
-0.112194625808359 0.254990896739366 1.95032832413588
-0.0675182362677234 0.250713674510448 1.954391927539
-0.0185240517861708 0.248546933733301 1.9617889791403
0.0303064144636788 0.245032711448739 1.96758231164906
0.0794310499981475 0.239297948260376 1.97609495887415
0.124310529864279 0.237091233428023 2.00754045926124
-0.239433253105363 0.280771251360173 1.9888992435986
-0.182943062249043 0.291155854885976 1.98987513684503
-0.134187564432042 0.285350122483804 1.98781917651207
-0.0895252030061699 0.280791574691478 1.99079101430877
-0.0446315317436005 0.276852115099185 1.99495408657442
0.00176411641801874 0.273922225227329 2.00126611216072
0.0468587318205624 0.271054316981951 2.00753931716237
0.0875905658564925 0.264127448960448 2.01701915985527
0.119508997270866 0.261439041904198 2.05014566429727
-0.214552099674241 0.301019785854864 2.02146406496698
-0.16040360777008 0.304592049516599 2.02724280045461
-0.114610740365863 0.301238555383111 2.03281719755174
-0.0695210909832031 0.297432909413527 2.03651312156381
-0.0237386300483439 0.293582196967767 2.04035446278897
0.0234283049107577 0.290475775823433 2.0472867241255
0.0703953270480335 0.28517844994869 2.05696488155
3 0 1 2
3 0 2 4
3 3 0 4
3 3 4 6
3 5 3 6
3 5 6 8
3 7 5 8
3 7 8 10
3 9 7 10
3 9 10 12
3 11 9 12
3 13 11 14
3 14 11 12
3 13 14 15
3 16 17 18
3 16 18 1
3 0 19 1
3 19 16 1
3 0 3 20
3 19 0 20
3 3 5 21
3 20 3 21
3 5 7 22
3 21 5 22
3 7 9 23
3 22 7 23
3 9 11 24
3 23 9 24
3 24 11 25
3 25 11 13
3 13 15 26
3 27 13 26
3 25 13 27
3 27 26 28
3 17 16 30
3 30 16 29
3 29 19 31
3 29 16 19
3 31 20 32
3 31 19 20
3 32 21 33
3 32 20 21
3 21 22 33
3 33 22 34
3 22 23 34
3 34 23 35
3 23 24 35
3 35 24 36
3 24 25 36
3 36 25 37
3 37 27 38
3 37 25 27
3 38 28 39
3 38 27 28
3 30 40 41
3 30 29 40
3 29 31 42
3 40 29 42
3 31 32 43
3 42 31 43
3 32 33 44
3 43 32 44
3 33 34 45
3 44 33 45
3 34 35 46
3 45 34 46
3 35 36 47
3 46 35 47
3 36 37 47
3 47 37 48
3 37 38 48
3 48 38 49
3 49 39 50
3 49 38 39
3 40 51 52
3 41 40 52
3 51 42 53
3 51 40 42
3 42 43 53
3 53 43 54
3 43 44 54
3 54 44 55
3 44 45 55
3 55 45 56
3 45 46 56
3 56 46 57
3 46 47 58
3 57 46 58
3 47 48 59
3 58 47 59
3 48 49 60
3 59 48 60
3 49 50 61
3 60 49 61
3 51 62 63
3 52 51 63
3 51 53 64
3 62 51 64
3 53 54 65
3 64 53 65
3 54 55 66
3 65 54 66
3 55 56 67
3 66 55 67
3 56 57 67
3 67 57 68
3 57 58 69
3 68 57 69
3 58 59 69
3 69 59 70
3 59 60 70
3 70 60 71
3 71 61 72
3 71 60 61
3 62 73 74
3 63 62 74
3 62 64 75
3 73 62 75
3 64 65 75
3 75 65 76
3 65 66 76
3 76 66 77
3 66 67 77
3 77 67 78
3 67 68 78
3 78 68 79
3 79 69 80
3 79 68 69
3 80 70 81
3 80 69 70
3 81 71 82
3 81 70 71
3 82 72 83
3 82 71 72
3 74 73 85
3 85 73 84
3 84 73 86
3 86 73 75
3 75 76 86
3 86 76 87
3 76 77 88
3 87 76 88
3 77 78 89
3 88 77 89
3 78 79 90
3 89 78 90
3 79 80 91
3 90 79 91
3 80 81 92
3 91 80 92
3 81 82 93
3 92 81 93
3 93 83 94
3 93 82 83
3 84 95 85
3 84 86 96
3 97 84 96
3 95 84 97
3 96 87 98
3 96 86 87
3 87 88 98
3 98 88 99
3 88 89 99
3 99 89 100
3 89 90 100
3 100 90 101
3 101 91 102
3 101 90 91
3 102 92 103
3 102 91 92
3 92 93 103
3 105 103 104
3 103 93 104
3 93 94 104
3 96 106 97
3 96 98 107
3 106 96 107
3 98 99 108
3 107 98 108
3 99 100 109
3 108 99 109
3 100 101 110
3 109 100 110
3 101 102 111
3 110 101 111
3 111 102 112
3 112 102 103
3 103 105 112
3 117 114 115
3 116 113 117
3 117 113 114
3 116 117 119
3 118 116 119
3 118 119 121
3 120 118 121
3 120 121 123
3 122 120 123
3 122 123 125
3 124 122 125
3 124 125 127
3 126 124 127
3 126 127 128
3 129 130 131
3 114 129 131
3 114 113 129
3 113 2 129
3 129 2 1
3 4 113 116
3 4 2 113
3 6 116 118
3 6 4 116
3 8 118 120
3 8 6 118
3 10 120 122
3 10 8 120
3 12 122 124
3 12 10 122
3 14 124 126
3 14 12 124
3 133 126 128
3 15 14 126
3 15 126 133
3 132 15 133
3 132 133 134
3 135 136 137
3 137 17 135
3 137 18 17
3 18 137 130
3 129 18 130
3 18 129 1
3 15 132 26
3 139 132 134
3 139 138 132
3 138 28 26
3 132 138 26
3 138 139 140
3 136 135 142
3 142 135 141
3 17 30 135
3 135 30 141
3 143 39 28
3 138 143 28
3 143 140 144
3 143 138 140
3 141 145 146
3 142 141 146
3 41 145 141
3 30 41 141
3 147 39 143
3 147 50 39
3 147 144 148
3 147 143 144
3 145 149 150
3 146 145 150
3 52 149 145
3 41 52 145
3 151 50 147
3 151 155 50
3 151 148 152
3 151 147 148
3 149 153 154
3 150 149 154
3 63 153 149
3 52 63 149
3 155 61 50
3 155 72 61
3 155 151 156
3 156 151 152
3 154 157 158
3 154 153 157
3 74 157 153
3 63 74 153
3 159 72 155
3 159 83 72
3 159 156 160
3 159 155 156
3 158 157 162
3 162 157 161
3 74 85 161
3 157 74 161
3 163 83 159
3 163 94 83
3 163 160 164
3 163 159 160
3 161 165 162
3 165 95 166
3 165 161 95
3 161 85 95
3 165 166 167
3 95 97 166
3 105 104 168
3 170 94 163
3 170 168 94
3 169 168 170
3 94 168 104
3 163 164 170
3 166 171 167
3 173 171 172
3 172 171 106
3 171 97 106
3 171 166 97
3 172 107 174
3 172 106 107
3 174 108 175
3 174 107 108
3 175 109 176
3 175 108 109
3 176 110 177
3 176 109 110
3 177 111 178
3 177 110 111
3 178 112 180
3 178 111 112
3 181 105 168
3 181 180 105
3 179 178 180
3 180 112 105
3 168 169 181
3 172 182 173
3 182 172 183
3 183 172 174
3 174 175 184
3 183 174 184
3 175 176 185
3 184 175 185
3 176 177 186
3 185 176 186
3 177 178 187
3 186 177 187
3 187 179 188
3 187 178 179
3 179 180 229
3 189 190 191
3 114 131 191
3 115 114 191
3 115 191 192
3 115 192 193
3 117 115 193
3 119 193 194
3 119 117 193
3 119 194 121
3 121 194 195
3 121 195 123
3 123 195 196
3 123 196 125
3 125 196 197
3 127 197 198
3 127 125 197
3 128 198 199
3 200 128 199
3 128 127 198
3 200 199 201
3 202 203 204
3 131 130 189
3 190 189 204
3 189 130 202
3 189 202 204
3 131 189 191
3 128 200 133
3 134 200 205
3 206 205 201
3 134 133 200
3 205 200 201
3 205 206 207
3 136 208 203
3 202 137 136
3 202 136 203
3 137 202 130
3 134 205 139
3 139 205 207
3 140 139 207
3 211 207 209
3 136 142 208
3 208 142 210
3 211 140 207
3 211 144 140
3 146 212 210
3 142 146 210
3 148 144 213
3 213 144 211
3 150 214 212
3 146 150 212
3 215 148 213
3 215 152 148
3 154 216 150
3 150 216 214
3 219 152 217
3 217 152 215
3 158 218 216
3 154 158 216
3 219 156 152
3 219 160 156
3 158 220 218
3 158 162 220
3 221 160 219
3 221 164 160
3 162 165 222
3 223 220 222
3 220 162 222
3 165 167 222
3 169 170 224
3 225 164 221
3 224 170 164
3 224 164 225
3 222 226 223
3 167 171 227
3 226 167 227
3 226 227 228
3 226 222 167
3 171 173 227
3 180 181 229
3 181 169 230
3 231 169 224
3 230 169 231
3 230 229 181
3 224 225 271
3 227 232 228
3 232 182 233
3 232 173 182
3 227 173 232
3 182 183 234
3 233 182 234
3 183 184 234
3 234 184 235
3 184 185 235
3 235 185 236
3 185 186 236
3 236 186 237
3 186 187 237
3 237 187 238
3 238 188 239
3 238 187 188
3 188 179 229
3 240 239 188
3 240 188 229
3 229 230 240
3 191 190 242
3 242 190 241
3 192 242 243
3 192 191 242
3 192 243 244
3 193 192 244
3 194 244 245
3 194 193 244
3 194 245 246
3 195 194 246
3 195 246 247
3 196 195 247
3 196 247 248
3 197 196 248
3 197 248 249
3 198 197 249
3 199 198 249
3 250 199 249
3 201 199 251
3 251 199 250
3 204 252 253
3 204 203 252
3 190 253 241
3 190 204 253
3 206 251 254
3 206 201 251
3 207 206 255
3 255 206 254
3 203 256 252
3 203 208 256
3 257 209 255
3 255 209 207
3 210 258 208
3 208 258 256
3 211 209 259
3 259 209 257
3 212 260 210
3 210 260 258
3 213 211 259
3 261 213 259
3 214 262 260
3 212 214 260
3 215 213 261
3 263 215 261
3 216 264 214
3 214 264 262
3 217 215 263
3 265 217 263
3 218 266 264
3 216 218 264
3 219 217 265
3 267 219 265
3 218 268 266
3 218 220 268
3 221 219 267
3 269 221 267
3 223 270 268
3 220 223 268
3 225 221 269
3 271 225 269
3 223 226 272
3 270 223 272
3 272 228 273
3 272 226 228
3 274 231 275
3 274 230 231
3 275 231 271
3 271 231 224
3 273 228 276
3 276 228 232
3 276 233 277
3 276 232 233
3 233 234 278
3 277 233 278
3 234 235 279
3 278 234 279
3 235 236 280
3 279 235 280
3 236 237 281
3 280 236 281
3 237 238 282
3 281 237 282
3 238 239 283
3 282 238 283
3 327 239 284
3 284 239 240
3 240 230 274
3 284 240 274
3 241 285 286
3 242 241 286
3 242 286 243
3 243 286 287
3 243 287 288
3 244 243 288
3 245 288 289
3 245 244 288
3 245 289 246
3 246 289 290
3 246 290 247
3 247 290 291
3 247 291 248
3 248 291 292
3 248 292 293
3 249 248 293
3 249 293 250
3 250 293 294
3 250 294 295
3 251 250 295
3 252 296 297
3 253 252 297
3 241 297 285
3 241 253 297
3 254 295 298
3 254 251 295
3 254 298 299
3 255 254 299
3 256 300 252
3 252 300 296
3 257 255 299
3 301 257 299
3 258 302 300
3 256 258 300
3 259 257 303
3 303 257 301
3 260 304 258
3 258 304 302
3 261 259 303
3 305 261 303
3 262 306 304
3 260 262 304
3 263 261 305
3 307 263 305
3 264 308 262
3 262 308 306
3 265 263 307
3 309 265 307
3 266 310 308
3 264 266 308
3 267 265 309
3 311 267 309
3 266 312 310
3 266 268 312
3 269 267 311
3 313 269 311
3 270 314 312
3 268 270 312
3 271 269 315
3 315 269 313
3 270 272 316
3 314 270 316
3 316 273 317
3 316 272 273
3 318 275 319
3 318 274 275
3 275 271 315
3 319 275 315
3 273 276 320
3 317 273 320
3 276 277 320
3 320 277 321
3 277 278 322
3 321 277 322
3 322 279 323
3 322 278 279
3 279 280 323
3 323 280 324
3 280 281 324
3 324 281 325
3 281 282 325
3 325 282 326
3 282 283 326
3 326 283 327
3 283 239 327
3 327 284 328
3 284 274 318
3 328 284 318
3 285 329 330
3 286 285 330
3 286 330 287
3 287 330 331
3 287 331 332
3 288 287 332
3 288 332 289
3 289 332 333
3 289 333 334
3 290 289 334
3 290 334 335
3 291 290 335
3 291 335 292
3 292 335 336
3 292 336 337
3 293 292 337
3 293 337 294
3 294 337 338
3 294 338 339
3 295 294 339
3 296 340 341
3 297 296 341
3 285 341 329
3 285 297 341
3 298 339 342
3 298 295 339
3 298 342 343
3 299 298 343
3 300 344 296
3 296 344 340
3 301 299 343
3 345 301 343
3 302 346 344
3 300 302 344
3 303 301 347
3 347 301 345
3 304 348 302
3 302 348 346
3 305 303 347
3 349 305 347
3 306 350 348
3 304 306 348
3 307 305 351
3 351 305 349
3 308 352 306
3 306 352 350
3 309 307 353
3 353 307 351
3 310 354 352
3 308 310 352
3 311 309 355
3 355 309 353
3 312 356 310
3 310 356 354
3 313 311 355
3 357 313 355
3 314 358 356
3 312 314 356
3 315 313 359
3 359 313 357
3 314 316 360
3 358 314 360
3 360 317 361
3 360 316 317
3 362 319 363
3 362 318 319
3 319 315 359
3 363 319 359
3 317 320 364
3 361 317 364
3 320 321 364
3 364 321 365
3 321 322 366
3 365 321 366
3 322 323 366
3 366 323 367
3 323 324 368
3 367 323 368
3 324 325 369
3 368 324 369
3 325 326 370
3 369 325 370
3 326 327 371
3 370 326 371
3 327 328 371
3 371 328 372
3 328 318 362
3 372 328 362
3 329 373 374
3 330 329 374
3 330 374 331
3 331 374 375
3 331 375 376
3 332 331 376
3 332 376 333
3 333 376 377
3 333 377 378
3 334 333 378
3 334 378 379
3 335 334 379
3 335 379 336
3 336 379 380
3 336 380 381
3 337 336 381
3 337 381 338
3 338 381 382
3 338 382 383
3 339 338 383
3 340 384 385
3 341 340 385
3 329 385 373
3 329 341 385
3 342 383 386
3 342 339 383
3 342 386 387
3 343 342 387
3 344 388 340
3 340 388 384
3 345 343 387
3 389 345 387
3 346 390 388
3 344 346 388
3 347 345 391
3 391 345 389
3 348 392 346
3 346 392 390
3 349 347 391
3 393 349 391
3 350 394 348
3 348 394 392
3 351 349 395
3 395 349 393
3 352 396 350
3 350 396 394
3 353 351 395
3 397 353 395
3 354 398 396
3 352 354 396
3 355 353 399
3 399 353 397
3 356 400 354
3 354 400 398
3 357 355 399
3 401 357 399
3 358 402 400
3 356 358 400
3 359 357 403
3 403 357 401
3 358 360 404
3 402 358 404
3 404 361 405
3 404 360 361
3 406 363 407
3 406 362 363
3 363 359 403
3 407 363 403
3 361 364 408
3 405 361 408
3 364 365 408
3 408 365 409
3 365 366 410
3 409 365 410
3 366 367 410
3 410 367 411
3 367 368 412
3 411 367 412
3 368 369 412
3 412 369 413
3 369 370 413
3 413 370 414
3 370 371 415
3 414 370 415
3 371 372 415
3 415 372 416
3 372 362 406
3 416 372 406
3 373 417 418
3 374 373 418
3 374 418 375
3 375 418 419
3 375 419 420
3 376 375 420
3 376 420 377
3 377 420 421
3 377 421 422
3 378 377 422
3 378 422 423
3 379 378 423
3 380 423 424
3 380 379 423
3 380 424 425
3 381 380 425
3 382 425 426
3 382 381 425
3 382 426 427
3 383 382 427
3 384 428 429
3 385 384 429
3 373 429 417
3 373 385 429
3 386 427 430
3 386 383 427
3 386 430 431
3 387 386 431
3 384 432 428
3 384 388 432
3 389 387 431
3 433 389 431
3 390 434 432
3 388 390 432
3 435 389 433
3 435 391 389
3 390 436 434
3 390 392 436
3 393 391 435
3 437 393 435
3 394 438 436
3 392 394 436
3 395 393 439
3 439 393 437
3 396 440 438
3 394 396 438
3 397 395 439
3 441 397 439
3 398 442 440
3 396 398 440
3 399 397 443
3 443 397 441
3 400 444 398
3 398 444 442
3 401 399 443
3 445 401 443
3 402 446 444
3 400 402 444
3 403 401 447
3 447 401 445
3 402 404 448
3 446 402 448
3 448 405 449
3 448 404 405
3 450 407 451
3 450 406 407
3 407 403 447
3 451 407 447
3 405 408 452
3 449 405 452
3 408 409 452
3 452 409 453
3 409 410 454
3 453 409 454
3 410 411 454
3 454 411 455
3 411 412 456
3 455 411 456
3 412 413 456
3 456 413 457
3 457 414 458
3 457 413 414
3 414 415 459
3 458 414 459
3 415 416 459
3 459 416 460
3 416 406 450
3 460 416 450
3 418 461 462
3 418 417 461
3 419 462 463
3 419 418 462
3 419 463 464
3 420 419 464
3 420 464 421
3 421 464 465
3 421 465 466
3 422 421 466
3 422 466 467
3 423 422 467
3 424 467 468
3 424 423 467
3 424 468 469
3 425 424 469
3 426 469 470
3 426 425 469
3 427 426 471
3 471 426 470
3 429 428 473
3 473 428 472
3 417 473 505
3 417 429 473
3 430 427 471
3 520 430 471
3 431 474 475
3 431 430 474
3 428 476 472
3 428 432 476
3 433 431 475
3 477 433 475
3 434 478 476
3 432 434 476
3 479 433 477
3 479 435 433
3 434 480 478
3 434 436 480
3 437 435 479
3 481 437 479
3 438 482 436
3 436 482 480
3 439 437 483
3 483 437 481
3 440 484 482
3 438 440 482
3 441 439 483
3 485 441 483
3 442 486 440
3 440 486 484
3 443 441 487
3 487 441 485
3 444 488 442
3 442 488 486
3 445 443 487
3 489 445 487
3 444 446 488
3 488 446 490
3 491 445 489
3 491 447 445
3 490 446 492
3 492 446 448
3 492 449 493
3 492 448 449
3 494 451 495
3 494 450 451
3 451 447 491
3 495 451 491
3 449 452 496
3 493 449 496
3 496 453 497
3 496 452 453
3 453 454 498
3 497 453 498
3 498 455 499
3 498 454 455
3 455 456 500
3 499 455 500
3 456 457 501
3 500 456 501
3 457 458 502
3 501 457 502
3 458 459 503
3 502 458 503
3 503 460 504
3 503 459 460
3 504 460 494
3 494 460 450
3 461 505 506
3 462 461 506
3 507 463 462
3 507 462 506
3 465 463 508
3 508 463 507
3 464 463 465
3 465 508 509
3 465 509 466
3 466 509 510
3 466 510 467
3 467 510 511
3 467 511 468
3 468 511 512
3 468 512 513
3 469 468 513
3 469 513 470
3 515 470 514
3 470 513 514
3 470 515 471
3 472 516 473
3 518 516 517
3 518 505 516
3 461 417 505
3 505 473 516
3 505 518 506
3 515 514 519
3 474 430 520
3 521 520 519
3 520 471 515
3 520 515 519
3 474 520 524
3 476 522 472
3 516 472 523
3 472 522 523
3 516 523 517
3 520 521 524
3 477 475 524
3 524 475 474
3 525 477 524
3 478 526 522
3 476 478 522
3 527 477 525
3 527 479 477
3 478 528 526
3 478 480 528
3 481 479 527
3 529 481 527
3 482 530 480
3 480 530 528
3 483 481 531
3 531 481 529
3 484 532 530
3 482 484 530
3 485 483 531
3 533 485 531
3 486 534 484
3 484 534 532
3 535 485 533
3 535 487 485
3 486 536 534
3 486 488 536
3 537 489 535
3 535 489 487
3 490 538 539
3 536 490 539
3 488 490 536
3 538 540 539
3 541 542 543
3 541 489 537
3 542 541 537
3 541 491 489
3 490 492 538
3 545 493 544
3 538 492 493
3 538 493 545
3 540 538 545
3 544 546 545
3 547 548 549
3 543 495 541
3 547 494 495
3 547 495 543
3 608 547 543
3 495 491 541
3 493 496 544
3 544 497 550
3 546 544 550
3 544 496 497
3 550 497 551
3 551 497 498
3 498 499 551
3 551 499 552
3 499 500 552
3 552 500 553
3 500 501 553
3 553 501 554
3 554 502 555
3 554 501 502
3 502 503 556
3 555 502 556
3 503 504 556
3 549 504 547
3 556 504 549
3 504 494 547
3 506 557 507
3 507 557 558
3 508 507 558
3 508 558 559
3 509 508 559
3 509 559 560
3 510 509 560
3 510 560 561
3 511 510 561
3 511 561 562
3 512 511 562
3 514 512 563
3 563 512 562
3 513 512 514
3 517 564 518
3 518 564 557
3 566 564 565
3 557 564 566
3 557 506 518
3 558 566 567
3 558 557 566
3 559 567 568
3 559 558 567
3 560 568 569
3 560 559 568
3 561 569 570
3 561 560 569
3 562 570 571
3 562 561 570
3 563 562 571
3 572 563 571
3 574 514 563
3 572 574 563
3 573 519 574
3 574 519 514
3 519 573 521
3 522 575 523
3 577 575 576
3 577 517 575
3 564 517 577
3 575 517 523
3 564 577 565
3 573 574 572
3 521 573 579
3 580 573 578
3 579 573 580
3 579 524 521
3 524 579 525
3 522 581 575
3 522 526 581
3 576 581 582
3 576 575 581
3 583 580 584
3 583 579 580
3 583 525 579
3 583 527 525
3 526 585 581
3 526 528 585
3 582 585 586
3 582 581 585
3 587 584 588
3 587 583 584
3 587 527 583
3 587 529 527
3 528 589 585
3 528 530 589
3 586 589 590
3 586 585 589
3 591 588 592
3 591 587 588
3 591 529 587
3 591 531 529
3 532 593 589
3 530 532 589
3 590 593 594
3 590 589 593
3 595 592 596
3 595 591 592
3 595 531 591
3 595 533 531
3 534 597 593
3 532 534 593
3 594 597 598
3 594 593 597
3 599 596 600
3 599 595 596
3 599 533 595
3 599 535 533
3 534 601 597
3 534 536 601
3 602 597 601
3 602 598 597
3 603 599 600
3 604 603 600
3 603 535 599
3 603 537 535
3 536 539 601
3 606 540 605
3 606 602 540
3 602 601 539
3 540 602 539
3 605 607 606
3 608 609 610
3 608 543 609
3 604 542 603
3 609 543 542
3 609 542 604
3 542 537 603
3 540 545 605
3 605 546 607
3 612 607 611
3 605 545 546
3 607 546 611
3 612 613 614
3 612 611 613
3 614 615 616
3 614 613 615
3 616 617 618
3 616 615 617
3 618 619 620
3 618 617 619
3 620 621 622
3 620 619 621
3 622 623 624
3 622 621 623
3 610 548 608
3 624 623 548
3 624 548 610
3 548 623 549
3 548 547 608
3 546 550 611
3 611 550 613
3 613 550 551
3 551 552 615
3 613 551 615
3 552 553 617
3 615 552 617
3 553 554 619
3 617 553 619
3 554 555 621
3 619 554 621
3 621 555 623
3 623 555 556
3 556 549 623
3 565 625 626
3 567 566 626
3 626 566 565
3 567 626 627
3 568 567 627
3 568 627 628
3 569 568 628
3 569 628 629
3 570 569 629
3 570 629 630
3 571 570 630
3 572 571 631
3 631 571 630
3 572 631 578
3 576 632 577
3 625 632 633
3 565 577 632
3 565 632 625
3 625 633 634
3 626 625 634
3 626 634 627
3 627 634 635
3 627 635 628
3 628 635 636
3 628 636 629
3 629 636 637
3 629 637 630
3 630 637 638
3 631 638 639
3 631 630 638
3 640 578 639
3 578 573 572
3 578 631 639
3 578 640 580
3 576 641 632
3 576 582 641
3 633 641 642
3 633 632 641
3 633 642 643
3 634 633 643
3 634 643 644
3 635 634 644
3 635 644 645
3 636 635 645
3 636 645 646
3 637 636 646
3 637 646 647
3 638 637 647
3 638 647 648
3 639 638 648
3 640 648 649
3 640 639 648
3 584 580 640
3 649 584 640
3 582 650 641
3 582 586 650
3 642 650 651
3 642 641 650
3 642 651 652
3 643 642 652
3 643 652 653
3 644 643 653
3 644 653 645
3 645 653 654
3 645 654 646
3 646 654 655
3 646 655 647
3 647 655 656
3 647 656 648
3 648 656 657
3 648 657 649
3 649 657 658
3 588 584 649
3 658 588 649
3 586 659 650
3 586 590 659
3 650 659 651
3 651 659 660
3 651 660 661
3 652 651 661
3 652 661 662
3 653 652 662
3 653 662 654
3 654 662 663
3 654 663 664
3 655 654 664
3 655 664 665
3 656 655 665
3 656 665 666
3 657 656 666
3 657 666 658
3 658 666 667
3 592 588 658
3 667 592 658
3 590 668 659
3 590 594 668
3 660 668 669
3 660 659 668
3 660 669 670
3 661 660 670
3 661 670 671
3 662 661 671
3 662 671 663
3 663 671 672
3 663 672 664
3 664 672 673
3 664 673 665
3 665 673 674
3 665 674 666
3 666 674 675
3 666 675 667
3 667 675 676
3 596 592 667
3 676 596 667
3 594 677 668
3 594 598 677
3 668 677 669
3 669 677 678
3 669 678 679
3 670 669 679
3 670 679 680
3 671 670 680
3 671 680 681
3 672 671 681
3 672 681 682
3 673 672 682
3 673 682 683
3 674 673 683
3 674 683 684
3 675 674 684
3 676 684 685
3 676 675 684
3 600 596 676
3 685 600 676
3 598 686 677
3 598 602 606
3 678 686 687
3 678 677 686
3 678 687 679
3 679 687 688
3 679 688 680
3 680 688 689
3 680 689 681
3 681 689 690
3 681 690 682
3 682 690 691
3 683 691 692
3 683 682 691
3 684 692 693
3 684 683 692
3 685 693 694
3 685 684 693
3 694 604 685
3 685 604 600
3 598 606 686
3 606 607 695
3 686 606 695
3 686 695 687
3 688 687 696
3 696 687 695
3 688 696 697
3 689 688 697
3 689 697 698
3 690 689 698
3 690 698 699
3 691 690 699
3 691 699 700
3 692 691 700
3 692 700 701
3 693 692 701
3 610 609 694
3 701 610 694
3 701 694 693
3 609 604 694
3 607 612 695
3 695 612 696
3 696 612 614
3 614 616 697
3 696 614 697
3 616 618 698
3 697 616 698
3 618 620 699
3 698 618 699
3 620 622 700
3 699 620 700
3 622 624 701
3 700 622 701
3 624 610 701
