OFF
702 1400 0
-0.2612128939895 -0.326472307877775 2.19988993696749
-0.306582716447675 -0.312774077794197 2.18194807985372
-0.278468673607898 -0.332418353407014 2.15463384776034
-0.214354501954477 -0.333114212869764 2.20468358025517
-0.232549629318358 -0.343188314800053 2.15999275661642
-0.16755375481587 -0.337818172286315 2.20790360573265
-0.186165655380015 -0.347474237038563 2.16218912003183
-0.12218439721911 -0.341862231042622 2.21231976209683
-0.140845577312975 -0.351551547036843 2.16408466538221
-0.077300432567909 -0.34570792452508 2.21709056463191
-0.096095020838102 -0.355199363636442 2.16877396333019
-0.0298115435932755 -0.348768763638793 2.2247629748057
-0.0503206547762828 -0.35846932738651 2.17731290686624
0.0182913923956407 -0.344339784970918 2.23311712456529
-0.00301491783339079 -0.360046710022623 2.18636506419525
0.0435087693150737 -0.351162715333216 2.19511172427041
-0.32917443666335 -0.283991467186155 2.20997780852316
-0.358839127451202 -0.266760864719694 2.18239538801473
-0.33767349322539 -0.296976759418196 2.15415155781434
-0.288782067180063 -0.29989518734082 2.22983128103473
-0.242116222519407 -0.308897613710583 2.24192835107522
-0.194430576551007 -0.314230854206117 2.24583357826364
-0.147672696182935 -0.318174680393777 2.25126073806289
-0.102465403994493 -0.321564312490117 2.25713191385998
-0.0581785610089813 -0.326962708767391 2.25977020971339
-0.00953890991379944 -0.327761844981395 2.26707360561191
0.0642714382579247 -0.328194154764184 2.23871279626132
0.035663251886112 -0.315625626483637 2.27477990947234
0.0817956263946234 -0.295541755632931 2.27237663132393
-0.316238969179321 -0.262893700468206 2.25141185912752
-0.356300271016585 -0.242554528074939 2.2232392024821
-0.27031470483618 -0.276295177513059 2.26909308656109
-0.220389774199099 -0.282652715747715 2.27724659332061
-0.172803293310257 -0.287000653117846 2.28254013676913
-0.125192380963586 -0.28943430595136 2.28978713224335
-0.080498451654918 -0.29216930354 2.29613072122294
-0.0382693845687921 -0.301572415320835 2.29518776476977
0.00307321104229392 -0.293292780690821 2.30581187854606
0.0487518280655953 -0.27992722415316 2.30717246050873
0.0936089992799559 -0.257723628100036 2.30052774208315
-0.334448855913611 -0.225482822943209 2.27179846151571
-0.367530349990481 -0.204125438653981 2.24514205292482
-0.29353243385629 -0.240312034752538 2.29310043487832
-0.244554218772234 -0.250908404274584 2.30442810498881
-0.195801521783999 -0.253068576789802 2.31236666922158
-0.148363227636358 -0.257844158787468 2.31719565399537
-0.0968753328203027 -0.258665964237523 2.32687338597208
-0.0420413856027461 -0.268099361191291 2.32847280413343
0.00840077843084623 -0.26078975043257 2.33777826662404
0.0589055835796812 -0.245336997332343 2.3363886351975
0.103710155366509 -0.219353050670388 2.32833956867599
-0.318536905754685 -0.201089690738212 2.31418869787232
-0.358940261399491 -0.183394970467769 2.28294586840394
-0.269350362034602 -0.218252994755762 2.32925032627278
-0.221957017098714 -0.220517771581432 2.34014379049303
-0.176423238291831 -0.22154000299338 2.34840214338609
-0.132492894711969 -0.229413686043452 2.34936242208637
-0.0989768612159467 -0.217384700108676 2.36844448101812
-0.0641616595598456 -0.236778978459503 2.35582222326066
-0.0218504325743478 -0.233255814891469 2.36667875325208
0.0260634393946593 -0.226773786631427 2.36801378567625
0.0741497190899679 -0.20805812556883 2.3637439375461
-0.321679684888351 -0.160297603505066 2.35409898532406
-0.349687742648069 -0.162692095135423 2.31922619186898
-0.288827220903796 -0.186694561705193 2.35168781902447
-0.241776182392359 -0.189005821548262 2.3681510134573
-0.197039527346495 -0.187754133380382 2.37856766138443
-0.148141808846731 -0.192746574912036 2.38347297769134
-0.102714322207824 -0.186909757612467 2.39868833071003
-0.0553196038615437 -0.200362439166733 2.39467923569042
-0.00730055550104493 -0.200197633685283 2.4001142122962
0.0404855208774152 -0.192971067369742 2.39665356183146
0.0879964460098468 -0.170919929515212 2.38945939673876
-0.311067440243247 -0.135620285517792 2.3892287449809
-0.355121335116822 -0.123070955901483 2.35394209301944
-0.272435620970318 -0.160138424867332 2.38763907315933
-0.226476324510283 -0.153828345476216 2.40707237097459
-0.176451833965334 -0.158360651064662 2.4126769566659
-0.130660397908336 -0.158121861622808 2.42227149560429
-0.0791424881659744 -0.16216852536327 2.42867410955092
-0.0342127168898371 -0.168742773545059 2.43079938151428
0.0121665359258253 -0.165906963647081 2.43205903681769
0.0561229362650158 -0.158768619384353 2.42305529945993
0.0925640287923488 -0.133140366279611 2.42185329521135
-0.306242478970365 -0.0956359890161902 2.42477732910161
-0.340081875937537 -0.104523987798438 2.39164661397886
-0.272865725907343 -0.125930444533232 2.42054627664436
-0.238276525731362 -0.114001563099084 2.43831975185086
-0.19555822282544 -0.122645434353092 2.4400845214058
-0.150443412924231 -0.122909866783758 2.44789989037134
-0.10324739446201 -0.126370782778488 2.45391631221418
-0.0546519407455356 -0.130617758206429 2.45965867469007
-0.00637374881486723 -0.133845126873001 2.46145924582046
0.0452292312006478 -0.128315344489721 2.45387229423817
0.0926672048171216 -0.0973051159798527 2.44597560746912
-0.347391867199995 -0.0651312779515911 2.4083242426072
-0.26901519307025 -0.0761782908523584 2.45060164664683
-0.312483742337817 -0.0516283562973503 2.43950330699993
-0.219558360974695 -0.0768812508748509 2.45994282255133
-0.173537328973193 -0.081770479708679 2.46516437758093
-0.126867635930188 -0.0829021255016417 2.47188101573339
-0.0810816193559446 -0.0876589554139431 2.4771260499991
-0.0344251405088269 -0.0923258101388054 2.48225414882474
0.0122390331483871 -0.0941818197353299 2.48029652034442
0.0566080386355508 -0.0881480544264416 2.4701352341425
0.0384510064359847 -0.0491068930756068 2.4864416275844
-0.285543422579302 -0.0245892993896338 2.45731537647123
-0.243134749275879 -0.0338035415382796 2.4674143506404
-0.19411213172242 -0.0358273750074673 2.47374457269782
-0.148362936512893 -0.0371134381057682 2.47969033794611
-0.102084344331741 -0.038719685977902 2.48564362363587
-0.0575391753576805 -0.0456011863354123 2.49075273979251
-0.0098438312278431 -0.0501496523844769 2.49383868680062
-0.256470677097369 -0.340518400062322 2.11547759049915
-0.280157454850207 -0.32671646869388 2.07987604801588
-0.256534433828635 -0.320285739402673 2.04232157904616
-0.206878568132259 -0.347206124333683 2.11625709448434
-0.22840539343259 -0.338412424729679 2.07508329375179
-0.160832273062318 -0.35028775353743 2.11572309468797
-0.180245549050664 -0.339128271940245 2.06963532276437
-0.115432554916148 -0.353550267447999 2.11838589344711
-0.134941702033303 -0.341027451147114 2.07043744605144
-0.0701279980269324 -0.357401679048637 2.12621807058724
-0.0873887313700467 -0.344945410450629 2.07671585747437
-0.0252439545687459 -0.361447914935134 2.13673795789626
-0.0417021171931682 -0.34988080711515 2.08607460941129
0.0208032590128389 -0.360271314465098 2.14536246934363
0.00247932811360264 -0.354267751537294 2.09751407680457
0.0504128049302982 -0.347567383604013 2.10656731196234
-0.307957362975742 -0.319949564380788 2.12304597381184
-0.34626586372588 -0.289365312066869 2.10677940144164
-0.316725710737893 -0.305384293903724 2.07452948490908
0.0883196841609956 -0.331161670521412 2.19929224936993
0.0640066300706421 -0.348731274948369 2.15464930988248
0.103774267661009 -0.327492005078171 2.15660503426545
-0.383936749614119 -0.231026325352112 2.17247875920479
-0.394118144332738 -0.218828634428814 2.1227950323848
-0.371564782444468 -0.261361977608586 2.13607931236109
0.109487085746998 -0.302797175893692 2.23275344995525
0.130150677210606 -0.301594612021999 2.18844300570156
0.147382175758694 -0.270242850654706 2.21557325804015
-0.385979512197035 -0.202192797497714 2.20377863980359
-0.401684569863489 -0.186308906152369 2.15734574412152
0.123549497244687 -0.266940655925989 2.26080521746953
0.154841242990743 -0.230806639710721 2.24597927597096
-0.389543815611204 -0.163405209762499 2.23739800124689
-0.402120424656461 -0.156241281605648 2.19358454390458
0.131596784439362 -0.226492141311131 2.28861489248126
0.161478364382172 -0.188848853973761 2.27000209066215
-0.383964141477229 -0.144159335579093 2.27509516100031
-0.404206034818962 -0.115893594772451 2.23267888279732
0.140457076495754 -0.185382334107523 2.31387066240335
0.166109097976948 -0.146847430043616 2.29603222214884
-0.376038789148629 -0.125947331486978 2.31391773420736
-0.399632130148142 -0.0978938426730589 2.27787666476085
0.117231656814702 -0.178259945145154 2.3530241275515
0.149997768430744 -0.140297316996417 2.33869481536963
-0.389584718190205 -0.0858504289905548 2.32585313322008
-0.407601284379086 -0.0516237801373001 2.29437777377753
0.124838259220686 -0.138282411672289 2.38135135225254
0.155296562738758 -0.100285380830556 2.36422776749311
-0.374095784239938 -0.0781286923396282 2.36733151949749
-0.398086731522978 -0.0402547566572548 2.34169716915679
0.128473506747141 -0.10090719168252 2.40947328214965
0.152413618240238 -0.0631057365020958 2.39560492777934
-0.376717190443323 -0.0329003594995582 2.38457013870045
-0.344632991361823 -0.0215381238961931 2.42208136823765
-0.364167817014599 0.0118939366511714 2.40221342382276
0.085678498371535 -0.0502747180134703 2.46579244463708
0.109255040995352 -0.0110962855338988 2.4514296277354
0.122443796378467 -0.0587440232404383 2.4354737452185
-0.319028180183366 0.00599485839655626 2.44118107296266
-0.26654030651026 0.0164723904493836 2.46307591275102
-0.298282597811804 0.0447525274714839 2.44546606408787
-0.217022188290871 0.00760413379829162 2.47200057817786
-0.169765918548759 0.0102581025705259 2.47723302357334
-0.123180093115633 0.0086338068472083 2.48274843598925
-0.0763809427276049 0.00694261462871821 2.48827490835766
-0.0335047279958097 -0.00400143916292555 2.49434162376871
-0.00780861125756101 0.032237406817113 2.48824601357699
0.0171546340824066 -0.00798523297873704 2.49264930415903
0.065899299228164 -0.00805937346148419 2.47783384881616
-0.264609213532224 0.0738509356961703 2.44754594123551
-0.233179561994877 0.0500999011217442 2.46237991392948
-0.189033760600268 0.0551427200514659 2.46510106671273
-0.142954413438578 0.0549025079314068 2.46958363531675
-0.096297887889478 0.0526398861815308 2.47481732201956
-0.0479184615722523 0.050648802888535 2.48009542504399
0.00808025236982385 0.0691092252778772 2.47231351377229
-0.344197394968568 -0.273964408215215 2.05721313847425
-0.327766766856383 -0.261509374302825 2.01793558417055
-0.297412900107589 -0.297232682679956 2.03267241222101
-0.248582145613102 -0.298809650701412 2.00585022343339
-0.206826065076468 -0.322037192821505 2.03256994426422
-0.156258532467256 -0.3181787412439 2.02584597993954
-0.106329809770225 -0.323524121786553 2.03414947478793
-0.0543167239062196 -0.327825373805606 2.04085313095245
-0.00906445827226973 -0.33351495272572 2.04981524770611
0.0349892029027074 -0.336770575128564 2.06602978281664
0.0775343930069395 -0.319029467240289 2.0646277133136
0.0900909760295504 -0.331227220050302 2.11301612916059
0.116896102125487 -0.305729374976134 2.09439716623151
-0.373966000190493 -0.250659935021538 2.08979645606633
-0.391268884659386 -0.204565907819825 2.07530027421096
-0.367980770759391 -0.232473363567075 2.04605260555693
0.133495448061242 -0.301635473950701 2.13888116440949
0.149654864324503 -0.274045210633851 2.1066628679285
0.15961249609145 -0.269030096563836 2.16170977760977
-0.405292893703089 -0.170307363950606 2.11066549040291
0.179688072076631 -0.227078107845234 2.1576803452158
-0.408113139239705 -0.13824722708245 2.1422097979418
0.171611205670567 -0.233405353443818 2.20040508630564
-0.409011741692918 -0.114666610464939 2.18420065941866
0.177506895439784 -0.190662163127501 2.22277271134113
-0.410811433255447 -0.074345356659104 2.19839354875823
0.180345403350584 -0.149659886288064 2.24540798418735
-0.410754763435642 -0.0649838666239611 2.24534128980989
0.181212277490704 -0.111421413466912 2.27140781787011
-0.413573420220009 -0.0166981449117798 2.26216201130647
0.173436570644674 -0.0972438676949625 2.31638309551159
-0.409725686439795 -0.00406671613052553 2.31214239586583
0.1738669975934 -0.0572258463321167 2.34785443893453
-0.392906723037413 0.00586302582118981 2.35987255791082
-0.399009849512325 0.0422141158624362 2.32964563782219
0.142487589807755 -0.0177035464974557 2.41778811094453
0.166819096404106 -0.0229742086811636 2.37693283832401
-0.375290004928655 0.0494793506355597 2.37560885209859
-0.340574340778392 0.0463200162484852 2.41702766587732
-0.34717690654127 0.0868959297673227 2.38787884688823
0.0420969919792392 0.0331927017356705 2.47914889693546
0.0885904922707512 0.0319214399384815 2.45761120845489
0.127504902503958 0.0284410074914568 2.42572738794693
-0.310468051637381 0.084136251080389 2.42145271178624
-0.269737452089415 0.110617403743732 2.4238121242309
-0.217408811716389 0.0951325560132332 2.44406303496286
-0.168357159544348 0.0969041238585214 2.4466193924423
-0.121029427794456 0.0955638728677182 2.45089469695682
-0.0737018445740017 0.0921745259804028 2.45650041869344
-0.0277138156574067 0.0924979179828023 2.45947417439612
0.026032870673434 0.102710600232151 2.44649493340413
0.0594939050037385 0.070880782386973 2.45612292273155
-0.316168613638903 -0.231130106375495 1.98147467154972
-0.285084533661552 -0.270274029828795 1.99237641405465
-0.236571594165806 -0.268549122848683 1.97211878649386
-0.199553593010014 -0.296248426816592 1.99649540281202
-0.15578348266104 -0.285014574066021 1.98682452583953
-0.115632767032056 -0.292738805449603 1.9962885259459
-0.0687129124163403 -0.301553308177877 2.00720989209182
-0.0125568101826894 -0.303031646586764 2.01112802512588
0.034886853770845 -0.312329261878544 2.02888005888402
0.0803489730790708 -0.289070186554264 2.0271636020497
0.118350279166139 -0.283744419250468 2.05921747021413
-0.379224845395727 -0.180620985064264 2.03037415693553
-0.351727852312827 -0.21926174150809 2.01069170475477
0.151422363406477 -0.247541957679477 2.06809191308121
0.171667588217611 -0.23812172613579 2.11598830359249
-0.398127847324662 -0.157061225213622 2.06922218950933
0.188615785576377 -0.189989767884082 2.12832505418348
-0.403104125005002 -0.115143973014034 2.09678283871221
0.187593800279523 -0.185541064782245 2.17791854138457
-0.406853244393111 -0.0896953085075488 2.14345873415783
0.188639756184597 -0.142314814958581 2.19822388322919
-0.405610576492261 -0.0454373425622792 2.16180209785906
0.188687379151848 -0.10216686994604 2.22359755841279
-0.410419726468629 -0.0277878949387672 2.21212092964289
0.185880035748974 -0.0693774205995798 2.26736832908883
-0.40887941330073 0.0181944968893791 2.22909474718956
0.18295905012259 -0.0462959336747875 2.30582027592265
-0.410271203275515 0.0307133941263498 2.27998347225353
0.178448752512249 -0.00128119506892474 2.3393956712995
-0.394826883554267 0.0763140927870126 2.29719992139402
0.157338569480176 0.0204970705181813 2.38610649413929
-0.376073757970535 0.0851752175156146 2.34449040641358
-0.342876129902573 0.122287878939194 2.35533063970074
0.101848302031634 0.0703147977620852 2.42850045115844
0.137117241443698 0.0642777203224383 2.39255841332339
-0.309015153191737 0.12147964486108 2.3923892656718
-0.265208203128966 0.147331865298559 2.39025836078187
-0.229804060252936 0.129627170055151 2.41729136635935
-0.184865529354224 0.133004302912396 2.41641353930919
-0.140748569759903 0.133086205717911 2.41831305874408
-0.0940687436799997 0.12900504290048 2.42445754425612
-0.0507718156082687 0.128510907550294 2.42689207990117
-0.0081825398292095 0.12634367651437 2.43039666136722
0.0693258905313174 0.10736463662132 2.42320534098878
-0.312378125868369 -0.197827530198304 1.95131568071077
-0.274271411802274 -0.237048146140905 1.95745586940233
-0.227303592524246 -0.235539219644519 1.93911519070455
-0.187922124132244 -0.261022026976356 1.96158341862262
-0.133991776097389 -0.252695829550288 1.9557463558971
-0.0882281699236853 -0.264852318772472 1.96985918813478
-0.0426910100589808 -0.276333583740442 1.98329234156917
0.000837262126135413 -0.265310291741853 1.97431345120942
0.038290597699204 -0.281520243500168 1.99709374057203
0.0851386181559894 -0.256051599392836 1.99336336075026
0.121790456456152 -0.253528949538047 2.02607206191568
-0.373824784101944 -0.144396392492725 1.9986849114562
-0.349832234813615 -0.186095607785032 1.98450665441759
0.157741177953263 -0.215145226924437 2.03583697477544
0.177863946100859 -0.205276286537228 2.08186112498717
-0.392916855288872 -0.125671243758219 2.04224541017539
0.195287845874785 -0.15714527892004 2.09842557995624
-0.395983719405078 -0.0794209298773668 2.06207122303175
0.194486019978766 -0.144005814523737 2.14981147781364
-0.400285585761056 -0.0619109327325426 2.10812882460677
0.195324349570049 -0.0970099905261927 2.17319017594438
-0.399109518942025 -0.0154686747211944 2.1284161529337
0.192969990194734 -0.0580049943623294 2.21726958270296
-0.40364782149775 0.00334516674296887 2.17722036276516
0.19134022862064 -0.0255237111023498 2.25130497507614
-0.402242518435481 0.0505800943616005 2.19615587762919
0.187828764684145 -0.00458191657333712 2.29290095321018
-0.403611701981694 0.0645603245868643 2.24744175989971
0.184635488056911 0.0389827426448963 2.30662801103701
-0.388078208062146 0.109785172137943 2.2644573760106
0.166466590882066 0.049211363200326 2.35114583657896
-0.369510678016525 0.118741632989523 2.31169133386953
-0.335352574868843 0.156405120452987 2.32273654348464
0.109104062874465 0.10565663381051 2.3940155028865
0.145080237784356 0.096523539220366 2.35875243026002
-0.302216179379496 0.155359855145589 2.35930707494661
-0.253337744877584 0.179899327112999 2.36030968613896
-0.213343853232779 0.162172787819453 2.38620270133182
-0.162304609012806 0.168120391546374 2.38259557666508
-0.109712656115507 0.161453644531964 2.39157011886477
-0.0613200779439822 0.162497929064938 2.39270777466821
-0.0152666990777934 0.160099477442285 2.39715472169072
0.0323098874557262 0.139481344501972 2.41106626358493
0.0737460042967008 0.143349008511499 2.3895000236194
-0.306372431951912 -0.165264074877382 1.919789925777
-0.268871608906335 -0.203540890499613 1.92522528397367
-0.220876447435167 -0.203907024854559 1.9080085046584
-0.176337093360126 -0.22982026502898 1.93115420571153
-0.128927478424097 -0.216051617212819 1.91962733107302
-0.0870648337069767 -0.230146558307226 1.93548825314058
-0.0426093655624536 -0.243370863030336 1.95060103285318
0.00391711397389727 -0.230098175454856 1.93952549988735
0.0468474204822403 -0.246667210598992 1.96335109231424
0.0926030134308002 -0.222097862928841 1.9604630550934
0.12835347969835 -0.221591385931937 1.99487721117348
-0.366863489637134 -0.110332857655433 1.96494021555058
-0.344016365064791 -0.154406716669339 1.95411516763391
0.164546789077891 -0.182488517303464 2.00430308992197
0.184917768449395 -0.171674203383452 2.05026101270885
-0.386072556831868 -0.094615344740298 2.00953072529504
0.201866404725869 -0.124556546904457 2.06773730926434
-0.389212739694648 -0.0487437737928716 2.02695229125231
0.200903370650908 -0.110155908546988 2.11959390040055
-0.393481911088454 -0.0260951965709429 2.07604275811129
0.202711290604264 -0.0639717468507115 2.13459514994365
-0.393134877349957 0.0199107181288254 2.10275060282445
0.19870847894308 -0.046583533497992 2.17815077530026
-0.397036343554155 0.0375500792669121 2.14565463330059
0.198592867810451 -0.0025514162873869 2.2073450287077
-0.3954086907546 0.0828734748089383 2.16156549285955
0.194818571564867 0.0232794179038652 2.25446736951155
-0.397173404913289 0.0967754920205185 2.21408269810114
0.192243314216635 0.069412711644267 2.27136819432137
-0.381446370351043 0.142530537034946 2.23257393566399
0.172515914124758 0.0854590631547262 2.31815604545623
-0.362316471913418 0.152357981163688 2.27972032684786
-0.326557911682126 0.19001202643806 2.29248506604068
0.115028521464716 0.139758604442936 2.36136865854593
0.150994151237928 0.131170212360683 2.3261771259641
-0.291933623760868 0.188690762248269 2.32937893127444
-0.243308192859431 0.212534110811123 2.32944851546622
-0.202182118480362 0.193916272026716 2.3552177830376
-0.157136227380821 0.207003049081542 2.34426130114944
-0.120187718816286 0.19127923246172 2.3615162445212
-0.0724650312335723 0.194004598553652 2.36095622974671
-0.0220876656691785 0.194142967333229 2.36308147840799
0.0277560310395853 0.174115261706624 2.37999026120684
0.0755468117489514 0.176738169051871 2.35944950111264
-0.29965612515266 -0.132682422040102 1.8876049355429
-0.262789825511568 -0.170400309430152 1.89295693139537
-0.216460454288015 -0.171268696148893 1.8763763850673
-0.172519225424637 -0.197330251406564 1.89910022848183
-0.122600189085057 -0.181426605030628 1.88556708058945
-0.0807424565002261 -0.194743174838722 1.90065532224986
-0.0389864184249487 -0.209422026038132 1.91709095904074
0.00748570521652174 -0.195194615324295 1.90506570234361
0.0507359058297335 -0.213623381016991 1.92998453172945
0.0962985625426511 -0.190238075997333 1.92722034769101
0.135053560284278 -0.189183497600998 1.96327587803592
-0.361362555879336 -0.0754592857949845 1.93388260349675
-0.337356746390135 -0.122365486352755 1.92230428561364
0.170993830814139 -0.150004312594658 1.97221340020257
0.191593789002925 -0.138681226573705 2.01808254996123
-0.379621014976685 -0.0596551214327162 1.97719492046549
0.208252826163253 -0.0925196126151172 2.0347121724052
-0.381786974288404 -0.0109055696322611 1.99112927769913
0.207853485949274 -0.0768999201361648 2.08467322924207
-0.386492013481414 -0.0020265781423633 2.03491252946638
0.209089277098557 -0.0275705949743051 2.10632710807037
-0.387576730501441 0.0298648674501029 2.06415299368994
0.20458539416457 -0.0106218577469704 2.15366363521291
-0.389613524305042 0.0709213533235362 2.10698852622692
0.20565441645274 0.0343829675439809 2.17388939534395
-0.388999420554823 0.114693563816881 2.13010560679757
0.201272173558239 0.0511509853383099 2.22012100340015
-0.390732125840923 0.128867692794765 2.18255455063927
0.199283137309287 0.0998811874884971 2.23797241830772
-0.373953070299632 0.176022934326327 2.20342183019945
0.179958114368419 0.117283129240503 2.28461082471912
-0.35450469784361 0.185735911682829 2.24952311006979
-0.318997765197815 0.222922939439614 2.2613992024281
0.120259649196751 0.173140763169218 2.32993057892226
0.15779806407522 0.163729173492713 2.29379588265713
-0.283427733295651 0.221497695865253 2.29858179869615
-0.236631725952118 0.245812829545316 2.29673975341312
-0.194888270459752 0.229066129045865 2.32068150817209
-0.144159273185152 0.241264178155532 2.31086055076297
-0.104921167807861 0.22414875987006 2.32959927890322
-0.0566196037016208 0.226652759878299 2.32928452527017
-0.00853825797007653 0.227311940600829 2.33078986357725
0.0314871272550694 0.205374480625195 2.34980172790972
0.0831197060819398 0.207694062681414 2.32827400074749
-0.30041986169531 -0.0976340485755355 1.86079870919562
-0.25589313321405 -0.136467011806172 1.85955878682541
-0.20800500508421 -0.139585918595571 1.84482448244213
-0.166981165189379 -0.166376356785203 1.86864635558197
-0.116928384027089 -0.1483234192709 1.85303968485998
-0.0734622059573111 -0.159102326422799 1.86563136761556
-0.0337953288508332 -0.173335582579187 1.8815298335732
0.00989201574047122 -0.15985011276011 1.8701276012339
0.0539873242980596 -0.18088824884205 1.89681783535443
0.100866702139446 -0.157939727277768 1.89415955071614
0.137842683690416 -0.159523437806421 1.9301538933036
-0.355486378806638 -0.0399872318590495 1.90266491752267
-0.334130735276415 -0.0879701199333613 1.89371182903555
0.171961452756529 -0.123230470527641 1.93664347252838
0.197984609124035 -0.105758189143559 1.98472340131273
-0.372988597317636 -0.0234729833812941 1.94394206748979
0.215680758017698 -0.0559882653666675 2.01271007674186
-0.375035892036104 0.0255612853002869 1.96353797186285
0.21415013884238 -0.0404131777649437 2.05712383339606
-0.380202304691179 0.0419746804765847 2.01223676669459
0.215710478744612 0.00749418361098546 2.07404444220265
-0.383542832415959 0.0711343334070046 2.05798782281899
0.211279131301226 0.0234217307120394 2.12132783434175
-0.382236832761094 0.114753742977407 2.07540202999678
0.212507539079968 0.0687361093323298 2.14002656533041
-0.383153863901163 0.151492696825311 2.10647828237781
0.208039694759353 0.0858458521560856 2.18760520694229
-0.383835594644603 0.162548956968414 2.15556666980133
0.205698124260182 0.132857373181822 2.20624474544098
-0.367151984513328 0.209004286722315 2.17186179979295
0.186811481396913 0.149119118615667 2.25231076713593
-0.347129449873147 0.219125753352615 2.21824901024836
-0.31242422105002 0.255703753803239 2.22917280553061
0.127485412646426 0.205766681146011 2.29723341340686
0.164582069678476 0.196346762377271 2.26133359930655
-0.277141292291697 0.254149115979034 2.26629177072996
-0.23061322280918 0.278652270851154 2.26421290624592
-0.187206810849424 0.262425433143854 2.28793792276437
-0.138425923472013 0.273377479451594 2.27923742545988
-0.0910163553912056 0.258785662977641 2.29586793511478
-0.0410063723621919 0.259175294984901 2.29772722351002
0.00549979586714477 0.259111391700119 2.29987902786796
0.044292797031287 0.236107062287023 2.3181075658766
0.090627364380642 0.240356529390079 2.29563721307812
-0.263061397152262 -0.0999376283748156 1.83544605250852
-0.221546667388465 -0.104783963800993 1.82215786622987
-0.175094728567782 -0.102919479024063 1.81592391023739
-0.160623309003817 -0.135581054063037 1.83931100680317
-0.123035523640246 -0.109103101864447 1.82325601777075
-0.0764414903130927 -0.120925222314378 1.83396614677909
-0.0297209044097518 -0.132012259907627 1.84470816056862
0.0183097674822097 -0.121925490832774 1.84166281145278
0.0574214492550842 -0.148798479148298 1.86582634347712
0.102126250633757 -0.123160429622626 1.86448528150516
0.142386671974283 -0.125767900859811 1.89755890872128
-0.342697045608893 -0.00450205254472438 1.87558669988584
-0.326504171907096 -0.0521616901421436 1.86363838739577
0.191404576376652 -0.0859533413793441 1.93761208615299
0.209292502270776 -0.0616598816516128 1.96983015640345
-0.36282592853086 0.0140586195397099 1.91406452806114
0.215211483293511 -0.0178391606291654 1.97834468596916
-0.359490304768232 0.0594084675471112 1.93294210456926
0.218076536316322 -0.00385165695774874 2.02305633050634
-0.369136610275762 0.0753361981887026 1.97706155654528
0.214996541463583 0.0406649590508454 2.03967777177508
-0.375992326887802 0.0950375180953464 2.02192917138796
0.215262993511881 0.0583144807321291 2.08646561020269
-0.369525739823325 0.141246918404411 2.03450513233789
0.212557066137104 0.10189362789167 2.10637257116838
-0.372352906458294 0.170303190846589 2.06894054098341
0.212458850763885 0.119748589100578 2.15284692232005
-0.376186003890676 0.194543538492376 2.12237256394797
0.206915266801141 0.162505930882371 2.17290244307128
-0.358002083317242 0.236169260956042 2.13526808999218
0.191522822198743 0.181775199696835 2.22008185895912
-0.340554022371095 0.250368216288252 2.18408552679189
-0.304675731967171 0.283225686658411 2.19437607058538
0.13297982145579 0.238347454150635 2.26313914516048
0.164883399839957 0.22816529814782 2.2267172012335
-0.269341227630447 0.286032845374393 2.2333516932388
-0.220481929183773 0.307798043438913 2.22690770801915
-0.183433505680566 0.29478718208197 2.25285553219917
-0.141506559829384 0.302359324951182 2.24188658690073
-0.0975269473852593 0.292863538242763 2.25663333278085
-0.0529363591780235 0.288446441211177 2.26342128881682
-0.00287874550093632 0.287407000240424 2.2652777942501
0.0488123391331897 0.270026797030675 2.28328257513562
0.0942405409948957 0.269312458220947 2.26080292378875
-0.288000566632348 -0.0591445331234744 1.8316213800443
-0.242572983788466 -0.0618923625925329 1.80952587626703
-0.194898074618792 -0.0643713388851149 1.80015235733313
-0.143091853296195 -0.0687345914202401 1.80351682662096
-0.0926723613801727 -0.07548553013215 1.81066107265803
-0.0466700848385918 -0.08549863748446 1.81862970034058
-0.0025668642153007 -0.0853107653476191 1.8227260503883
0.0445680394941789 -0.0754712139138115 1.82435989979371
0.0646065140282186 -0.109818156332075 1.84170466288996
0.0969999614041786 -0.0746636065210946 1.83901102303129
0.133252414735712 -0.0908813648451468 1.86665244702478
-0.307538058630687 -0.0166524001246926 1.83775281410401
-0.281884531090274 0.0240513546431257 1.82177778425945
-0.264962692216375 -0.0199797234045077 1.81064000453955
0.143899919230586 -0.050180160154732 1.86191567504582
0.169607097176682 -0.0821714626850614 1.89881216339446
0.173438297031925 -0.0352352635758645 1.88927185848051
-0.339101088648856 0.0501917214536187 1.88453948986214
-0.319464363815703 0.0258888853001642 1.85178998205324
0.197449794585039 -0.0394735247000258 1.92735489295651
0.203148042854572 0.00346500899494208 1.94213053117572
-0.335534018717136 0.0892181603731503 1.9088986315827
0.209156487248818 0.0315943363310334 1.98402169488097
-0.345298457512483 0.111322261556495 1.94715741828443
0.204462507919228 0.0703353360968716 2.00956204259193
-0.357765902204233 0.124242369547334 1.98619040855373
0.207175081806945 0.0934282592951342 2.05062984309382
-0.346370477158355 0.164149582812619 1.99786479553647
0.202618908564065 0.132021557665166 2.07585932301915
-0.350017222028327 0.19442838472461 2.0328299014655
0.20512788121191 0.154921987555512 2.11672134484981
-0.36347429278865 0.212556153685704 2.08456730464777
0.197886053075397 0.192038208764396 2.14133010998369
-0.329233521247569 0.27344345440919 2.14529324120604
-0.34121001890167 0.255470561407598 2.09758844972662
-0.309993254393323 0.288448947766471 2.1021659181094
0.188475582862061 0.209743156724458 2.18472506122338
0.175510273339441 0.233482608491676 2.13990011192308
0.162287225130442 0.248639346581801 2.18441484371527
-0.261228579787302 0.309092752491181 2.19531615284908
-0.295000594535172 0.300873069459023 2.15431629656005
-0.252934974875158 0.3221650684838 2.15222150393357
0.129668800064443 0.267292352847136 2.22261553215774
0.0977292356005566 0.297846587801313 2.18505889528458
0.0852444800856045 0.292915026424839 2.22418092001647
-0.213827112129016 0.325560204928052 2.18596113093142
-0.169959939864212 0.32051396631579 2.20609546494966
-0.117080745942949 0.317774144464407 2.20876228130258
-0.0726878310276654 0.312874482178652 2.21792743759202
-0.0289231455398776 0.309434765052324 2.22325597962956
0.013806311875676 0.308145903224453 2.22284359854242
0.04678846088593 0.294552212146983 2.24688730579724
-0.216099342376697 -0.0216570410294937 1.79483681087403
-0.164851867582399 -0.0262462908896968 1.79232739860651
-0.11414441553781 -0.0305214689474251 1.79843788154328
-0.0663414184654959 -0.0355506534209523 1.80448085419219
-0.0215665505411334 -0.0392962728251469 1.81003481193734
0.0225425894937122 -0.0353403395193314 1.81476916902846
0.0711272246327359 -0.0340398266002703 1.82262079914936
-0.237643307810901 0.0202814984890015 1.80130236857816
-0.210039030118021 0.0576506059457128 1.80366422525103
-0.186243162127181 0.0173862670311165 1.7922581527748
-0.135493282417296 0.0136944515916964 1.79577287725809
-0.087852406557557 0.0124210413052112 1.80194113345893
-0.04063740771084 0.0088040394861095 1.80778941857041
0.00413485110009665 0.0101373264392952 1.81396857100961
0.0510435719944325 0.00921732086226433 1.8202758387854
0.0991674405806588 0.0106657080457912 1.83499614886577
0.146100688129398 0.00264085046754273 1.86298435558535
0.114642324498895 -0.0297265262653988 1.83993560754735
-0.299559009987966 0.0654066749691971 1.84784294143188
-0.26719594309674 0.103639415670842 1.8484463408309
-0.256916206657755 0.0642049248001729 1.82034707545766
0.122499498151371 0.045122955345422 1.85783620613473
0.179941956994901 0.00717478244425069 1.90047746451757
0.158503057747672 0.0470456824516787 1.88977323093151
-0.307150086429841 0.0978272848566838 1.87733223737086
-0.273482597327779 0.136209071693138 1.88298229991949
0.188695303979408 0.0447018758308855 1.93337640063288
0.161230809479238 0.0834843560490146 1.9222249107333
-0.311525471386221 0.132300788568064 1.91533885385201
-0.280282648388336 0.168297979286186 1.91941953033096
0.187880208911426 0.0766044302880484 1.96504409529381
0.159522893134623 0.117308065352871 1.956060750736
-0.322485749229336 0.158631796765868 1.9543165926126
-0.28493537662618 0.197954562997983 1.95199458438295
0.186698379940321 0.110858841311766 2.00047812211411
0.158704650889726 0.150163449072715 1.99018861053192
-0.319059295729194 0.19832418381643 1.98749255247271
-0.282750906167123 0.233231104370119 1.98451307099647
0.186198310296454 0.140707708595583 2.03267572334812
0.158242947926688 0.18235092067574 2.0241513063345
-0.316017935578829 0.234466176030301 2.01818233984976
-0.281898803993104 0.27047486307331 2.02164761260591
0.185355471205865 0.174420048633226 2.06838618444082
0.157237280730361 0.214713179367022 2.0574841431158
-0.339673356386238 0.235565828192548 2.05450866696311
-0.310079001944988 0.272262828945911 2.05772327454622
0.183842253021589 0.204690011654134 2.10003384620974
0.154187823964492 0.244554098604149 2.09273222728383
-0.276597868008187 0.311780529788734 2.11230852672483
-0.271480347766446 0.302117521787092 2.06452865219658
-0.238859687251222 0.324446298283864 2.09777634975156
0.132090709938173 0.278290065048469 2.17540317629722
0.145797447194227 0.266286336432157 2.13395955524284
0.106128935692322 0.294168708176706 2.13317911554493
-0.21438074261294 0.332721244491746 2.13748367560779
-0.18869864222094 0.332430162456213 2.1017442566743
-0.17390508549831 0.333138348567935 2.15616902458308
-0.14482593717894 0.331226894887014 2.11535261460075
-0.131507972253449 0.329230250695097 2.16564815015029
-0.100759294705602 0.327732353297017 2.12078951833384
-0.0847535861961449 0.325888029680568 2.16869362713996
-0.0559493091007638 0.323984640352344 2.12448700082582
-0.0405114055448069 0.32227176783981 2.17500410315318
-0.0124220072199524 0.320372017299104 2.12844917594208
0.00397289142977521 0.319144417517219 2.17724837845647
0.0317368428844688 0.31716608242967 2.1365953670194
0.0495676398806261 0.312455552850618 2.19256125977174
0.0693840773672956 0.310704061672455 2.14948682033267
-0.178993997168064 0.0909613540234362 1.81579701189049
-0.156762162616079 0.055889318869628 1.80188751874288
-0.111043164294039 0.0581833149238883 1.80948113550516
-0.0623615306025951 0.0538502591801714 1.81532441968907
-0.0174693808623036 0.0555535084047112 1.82284077969737
0.0278955344239988 0.0546423220726429 1.82951714836116
0.0738673987464283 0.0505278421860428 1.83702846748518
-0.223994550128774 0.100014955180714 1.82714417789418
-0.181212199665097 0.127092141860887 1.84141755788247
-0.135383526263931 0.101028500257592 1.82685909018617
-0.0845108064683737 0.0938499346659797 1.83113500957849
-0.040204955723418 0.0971198946052749 1.84104854647312
0.00429782164062388 0.097017608445694 1.84894355688655
0.0494459670866144 0.0940192722661262 1.85494997752966
0.0927741174616757 0.084169000314991 1.8624999742558
0.127373518967694 0.087438369786163 1.88756152791247
-0.228710346774267 0.135450780801051 1.85805250631231
-0.188675163503976 0.160545331746303 1.87483321494963
-0.142899384611817 0.143540401025027 1.86201234310015
-0.103820541156554 0.12707761250934 1.85338550946973
-0.0610337550228234 0.132459842319381 1.86745583102321
-0.0173502030746169 0.133116679793769 1.8770453275022
0.030720201733612 0.129287785065073 1.88296618696089
0.0804844562404369 0.121361032198599 1.88939783001487
0.125173513483167 0.119964786506216 1.91838520005291
-0.235377195134961 0.167751154859879 1.8925865554464
-0.190175128866841 0.192680647969157 1.90723345083098
-0.144241213809673 0.177354384255247 1.89614184039369
-0.0977673557107722 0.160483438032138 1.88846704652413
-0.0508261552706361 0.167360700994783 1.90504978696055
-0.000677399714762161 0.16328768663751 1.9111467025941
0.0470800434855994 0.159022266078903 1.91657158097269
0.0890986825933998 0.151141270282512 1.9245257480432
0.124222486447757 0.154581970437873 1.95385705918406
-0.238679551884479 0.199044818560486 1.92490012344952
-0.192521480218305 0.223257706090851 1.9381214964305
-0.143659618472871 0.211443362493826 1.93094365071319
-0.101231411446964 0.19326456381317 1.9211116673886
-0.0633482958292053 0.202102725574054 1.93783995937493
-0.0186900815077609 0.196076660351264 1.94082838095674
0.0292769857107871 0.19236010533011 1.94684206354115
0.0782613444756432 0.185927294209862 1.95482359487837
0.123369797343115 0.185663842197359 1.9857111877425
-0.24172328346178 0.229475140757751 1.95627781727899
-0.198684774620238 0.253519986183812 1.96903121095021
-0.148756502010122 0.243623950416786 1.96264351517883
-0.099624772354609 0.231264413811585 1.96010266395094
-0.0481036472840292 0.231449665091694 1.97081174964604
1.71694711241926e-05 0.22667948473 1.97578542274887
0.0463847792478958 0.223138661199794 1.98171167344531
0.0878040203312207 0.215967716025398 1.9908071161716
0.122775338778117 0.219723275409697 2.0209437582174
-0.246172313264165 0.262237987278722 1.99060605566462
-0.208184596019603 0.284316177872269 2.00172694450779
-0.161250367491931 0.277355296974128 1.99447730040383
-0.114724986160015 0.267097529502062 1.9934767023782
-0.0701153952446031 0.262569032948399 1.99797830235188
-0.021172295159015 0.260316404642425 2.00568154003011
0.0275953587531814 0.256614737802059 2.01187350970891
0.0766225366450313 0.250874815279749 2.02092732688172
0.121382259800914 0.25022939161246 2.05261340283471
-0.241751623937883 0.296894887171595 2.02978595133441
-0.185142891230291 0.306649132174951 2.03027595812501
-0.136455574796017 0.300140438346115 2.02878794197208
-0.0918603058023389 0.295258869965998 2.03221882808673
-0.0470296452445643 0.29107139288366 2.03679803562063
-0.000691026384716478 0.288016139424357 2.04345986108075
0.0443475210701991 0.285035612178934 2.05007409100498
0.084965362529062 0.27827034942052 2.06014153343255
0.116754420437073 0.277410119015294 2.0934896202438
-0.216720085120095 0.31896559534495 2.06102452430342
-0.162549004569313 0.322270059246484 2.06675065539554
-0.116816145641332 0.318750313292094 2.07270242267006
-0.0717865717543112 0.314662969858934 2.07680734364527
-0.0260651995798396 0.310532090962424 2.08106287933726
0.0210407429650439 0.307332759065472 2.08835810417076
0.0679124485550609 0.30213237989252 2.09853792895021
3 0 1 2
3 0 2 4
3 3 0 4
3 3 4 6
3 5 3 6
3 5 6 8
3 7 5 8
3 7 8 10
3 9 7 10
3 9 10 12
3 11 9 12
3 13 11 14
3 14 11 12
3 13 14 15
3 16 17 18
3 16 18 1
3 0 19 1
3 19 16 1
3 0 3 20
3 19 0 20
3 3 5 21
3 20 3 21
3 5 7 22
3 21 5 22
3 7 9 23
3 22 7 23
3 9 11 24
3 23 9 24
3 24 11 25
3 25 11 13
3 13 15 26
3 27 13 26
3 25 13 27
3 27 26 28
3 17 16 30
3 30 16 29
3 29 19 31
3 29 16 19
3 31 20 32
3 31 19 20
3 32 21 33
3 32 20 21
3 21 22 33
3 33 22 34
3 22 23 34
3 34 23 35
3 23 24 35
3 35 24 36
3 24 25 36
3 36 25 37
3 37 27 38
3 37 25 27
3 38 28 39
3 38 27 28
3 30 40 41
3 30 29 40
3 29 31 42
3 40 29 42
3 31 32 43
3 42 31 43
3 32 33 44
3 43 32 44
3 33 34 45
3 44 33 45
3 34 35 46
3 45 34 46
3 35 36 47
3 46 35 47
3 36 37 47
3 47 37 48
3 37 38 48
3 48 38 49
3 49 39 50
3 49 38 39
3 40 51 52
3 41 40 52
3 51 42 53
3 51 40 42
3 42 43 53
3 53 43 54
3 43 44 54
3 54 44 55
3 44 45 55
3 55 45 56
3 45 46 56
3 56 46 57
3 46 47 58
3 57 46 58
3 47 48 59
3 58 47 59
3 48 49 60
3 59 48 60
3 49 50 61
3 60 49 61
3 51 62 63
3 52 51 63
3 51 53 64
3 62 51 64
3 53 54 65
3 64 53 65
3 54 55 66
3 65 54 66
3 55 56 67
3 66 55 67
3 56 57 67
3 67 57 68
3 57 58 69
3 68 57 69
3 58 59 69
3 69 59 70
3 59 60 70
3 70 60 71
3 71 61 72
3 71 60 61
3 62 73 74
3 63 62 74
3 62 64 75
3 73 62 75
3 64 65 75
3 75 65 76
3 65 66 76
3 76 66 77
3 66 67 77
3 77 67 78
3 67 68 78
3 78 68 79
3 79 69 80
3 79 68 69
3 80 70 81
3 80 69 70
3 81 71 82
3 81 70 71
3 82 72 83
3 82 71 72
3 74 73 85
3 85 73 84
3 84 73 86
3 86 73 75
3 75 76 86
3 86 76 87
3 76 77 88
3 87 76 88
3 77 78 89
3 88 77 89
3 78 79 90
3 89 78 90
3 79 80 91
3 90 79 91
3 80 81 92
3 91 80 92
3 81 82 93
3 92 81 93
3 93 83 94
3 93 82 83
3 84 95 85
3 84 86 96
3 97 84 96
3 95 84 97
3 96 87 98
3 96 86 87
3 87 88 98
3 98 88 99
3 88 89 99
3 99 89 100
3 89 90 100
3 100 90 101
3 101 91 102
3 101 90 91
3 102 92 103
3 102 91 92
3 92 93 103
3 105 103 104
3 103 93 104
3 93 94 104
3 96 106 97
3 96 98 107
3 106 96 107
3 98 99 108
3 107 98 108
3 99 100 109
3 108 99 109
3 100 101 110
3 109 100 110
3 101 102 111
3 110 101 111
3 111 102 112
3 112 102 103
3 103 105 112
3 117 114 115
3 116 113 117
3 117 113 114
3 116 117 119
3 118 116 119
3 118 119 121
3 120 118 121
3 120 121 123
3 122 120 123
3 122 123 125
3 124 122 125
3 124 125 127
3 126 124 127
3 126 127 128
3 129 130 131
3 114 129 131
3 114 113 129
3 113 2 129
3 129 2 1
3 4 113 116
3 4 2 113
3 6 116 118
3 6 4 116
3 8 118 120
3 8 6 118
3 10 120 122
3 10 8 120
3 12 122 124
3 12 10 122
3 14 124 126
3 14 12 124
3 133 126 128
3 15 14 126
3 15 126 133
3 132 15 133
3 132 133 134
3 135 136 137
3 137 17 135
3 137 18 17
3 18 137 130
3 129 18 130
3 18 129 1
3 15 132 26
3 139 132 134
3 139 138 132
3 138 28 26
3 132 138 26
3 138 139 140
3 136 135 142
3 142 135 141
3 17 30 135
3 135 30 141
3 143 39 28
3 138 143 28
3 143 140 144
3 143 138 140
3 141 145 146
3 142 141 146
3 41 145 141
3 30 41 141
3 147 39 143
3 147 50 39
3 147 144 148
3 147 143 144
3 145 149 150
3 146 145 150
3 52 149 145
3 41 52 145
3 151 50 147
3 151 155 50
3 151 148 152
3 151 147 148
3 149 153 154
3 150 149 154
3 63 153 149
3 52 63 149
3 155 61 50
3 155 72 61
3 155 151 156
3 156 151 152
3 154 157 158
3 154 153 157
3 74 157 153
3 63 74 153
3 159 72 155
3 159 83 72
3 159 156 160
3 159 155 156
3 158 157 162
3 162 157 161
3 74 85 161
3 157 74 161
3 163 83 159
3 163 94 83
3 163 160 164
3 163 159 160
3 161 165 162
3 165 95 166
3 165 161 95
3 161 85 95
3 165 166 167
3 95 97 166
3 105 104 168
3 170 94 163
3 170 168 94
3 169 168 170
3 94 168 104
3 163 164 170
3 166 171 167
3 173 171 172
3 172 171 106
3 171 97 106
3 171 166 97
3 172 107 174
3 172 106 107
3 174 108 175
3 174 107 108
3 175 109 176
3 175 108 109
3 176 110 177
3 176 109 110
3 177 111 178
3 177 110 111
3 178 112 180
3 178 111 112
3 181 105 168
3 181 180 105
3 179 178 180
3 180 112 105
3 168 169 181
3 172 182 173
3 182 172 183
3 183 172 174
3 174 175 184
3 183 174 184
3 175 176 185
3 184 175 185
3 176 177 186
3 185 176 186
3 177 178 187
3 186 177 187
3 187 179 188
3 187 178 179
3 179 180 229
3 189 190 191
3 114 131 191
3 115 114 191
3 115 191 192
3 115 192 193
3 117 115 193
3 119 193 194
3 119 117 193
3 119 194 121
3 121 194 195
3 121 195 123
3 123 195 196
3 123 196 125
3 125 196 197
3 127 197 198
3 127 125 197
3 128 198 199
3 200 128 199
3 128 127 198
3 200 199 201
3 202 203 204
3 131 130 189
3 190 189 204
3 189 130 202
3 189 202 204
3 131 189 191
3 128 200 133
3 134 200 205
3 206 205 201
3 134 133 200
3 205 200 201
3 205 206 207
3 136 208 203
3 202 137 136
3 202 136 203
3 137 202 130
3 134 205 139
3 139 205 207
3 140 139 207
3 211 207 209
3 136 142 208
3 208 142 210
3 211 140 207
3 211 144 140
3 146 212 210
3 142 146 210
3 148 144 213
3 213 144 211
3 150 214 212
3 146 150 212
3 215 148 213
3 215 152 148
3 154 216 150
3 150 216 214
3 219 152 217
3 217 152 215
3 158 218 216
3 154 158 216
3 219 156 152
3 219 160 156
3 158 220 218
3 158 162 220
3 221 160 219
3 221 164 160
3 162 165 222
3 223 220 222
3 220 162 222
3 165 167 222
3 169 170 224
3 225 164 221
3 224 170 164
3 224 164 225
3 222 226 223
3 167 171 227
3 226 167 227
3 226 227 228
3 226 222 167
3 171 173 227
3 180 181 229
3 181 169 230
3 231 169 224
3 230 169 231
3 230 229 181
3 224 225 271
3 227 232 228
3 232 182 233
3 232 173 182
3 227 173 232
3 182 183 234
3 233 182 234
3 183 184 234
3 234 184 235
3 184 185 235
3 235 185 236
3 185 186 236
3 236 186 237
3 186 187 237
3 237 187 238
3 238 188 239
3 238 187 188
3 188 179 229
3 240 239 188
3 240 188 229
3 229 230 240
3 191 190 242
3 242 190 241
3 192 242 243
3 192 191 242
3 192 243 244
3 193 192 244
3 194 244 245
3 194 193 244
3 194 245 246
3 195 194 246
3 195 246 247
3 196 195 247
3 196 247 248
3 197 196 248
3 197 248 249
3 198 197 249
3 199 198 249
3 250 199 249
3 201 199 251
3 251 199 250
3 204 252 253
3 204 203 252
3 190 253 241
3 190 204 253
3 206 251 254
3 206 201 251
3 207 206 255
3 255 206 254
3 203 256 252
3 203 208 256
3 257 209 255
3 255 209 207
3 210 258 208
3 208 258 256
3 211 209 259
3 259 209 257
3 212 260 210
3 210 260 258
3 213 211 259
3 261 213 259
3 214 262 260
3 212 214 260
3 215 213 261
3 263 215 261
3 216 264 214
3 214 264 262
3 217 215 263
3 265 217 263
3 218 266 264
3 216 218 264
3 219 217 265
3 267 219 265
3 218 268 266
3 218 220 268
3 221 219 267
3 269 221 267
3 223 270 268
3 220 223 268
3 225 221 269
3 271 225 269
3 223 226 272
3 270 223 272
3 272 228 273
3 272 226 228
3 274 231 275
3 274 230 231
3 275 231 271
3 271 231 224
3 273 228 276
3 276 228 232
3 276 233 277
3 276 232 233
3 233 234 278
3 277 233 278
3 234 235 279
3 278 234 279
3 235 236 280
3 279 235 280
3 236 237 281
3 280 236 281
3 237 238 282
3 281 237 282
3 238 239 283
3 282 238 283
3 327 239 284
3 284 239 240
3 240 230 274
3 284 240 274
3 241 285 286
3 242 241 286
3 242 286 243
3 243 286 287
3 243 287 288
3 244 243 288
3 245 288 289
3 245 244 288
3 245 289 246
3 246 289 290
3 246 290 247
3 247 290 291
3 247 291 248
3 248 291 292
3 248 292 293
3 249 248 293
3 249 293 250
3 250 293 294
3 250 294 295
3 251 250 295
3 252 296 297
3 253 252 297
3 241 297 285
3 241 253 297
3 254 295 298
3 254 251 295
3 254 298 299
3 255 254 299
3 256 300 252
3 252 300 296
3 257 255 299
3 301 257 299
3 258 302 300
3 256 258 300
3 259 257 303
3 303 257 301
3 260 304 258
3 258 304 302
3 261 259 303
3 305 261 303
3 262 306 304
3 260 262 304
3 263 261 305
3 307 263 305
3 264 308 262
3 262 308 306
3 265 263 307
3 309 265 307
3 266 310 308
3 264 266 308
3 267 265 309
3 311 267 309
3 266 312 310
3 266 268 312
3 269 267 311
3 313 269 311
3 270 314 312
3 268 270 312
3 271 269 315
3 315 269 313
3 270 272 316
3 314 270 316
3 316 273 317
3 316 272 273
3 318 275 319
3 318 274 275
3 275 271 315
3 319 275 315
3 273 276 320
3 317 273 320
3 276 277 320
3 320 277 321
3 277 278 322
3 321 277 322
3 322 279 323
3 322 278 279
3 279 280 323
3 323 280 324
3 280 281 324
3 324 281 325
3 281 282 325
3 325 282 326
3 282 283 326
3 326 283 327
3 283 239 327
3 327 284 328
3 284 274 318
3 328 284 318
3 285 329 330
3 286 285 330
3 286 330 287
3 287 330 331
3 287 331 332
3 288 287 332
3 288 332 289
3 289 332 333
3 289 333 334
3 290 289 334
3 290 334 335
3 291 290 335
3 291 335 292
3 292 335 336
3 292 336 337
3 293 292 337
3 293 337 294
3 294 337 338
3 294 338 339
3 295 294 339
3 296 340 341
3 297 296 341
3 285 341 329
3 285 297 341
3 298 339 342
3 298 295 339
3 298 342 343
3 299 298 343
3 300 344 296
3 296 344 340
3 301 299 343
3 345 301 343
3 302 346 344
3 300 302 344
3 303 301 347
3 347 301 345
3 304 348 302
3 302 348 346
3 305 303 347
3 349 305 347
3 306 350 348
3 304 306 348
3 307 305 351
3 351 305 349
3 308 352 306
3 306 352 350
3 309 307 353
3 353 307 351
3 310 354 352
3 308 310 352
3 311 309 355
3 355 309 353
3 312 356 310
3 310 356 354
3 313 311 355
3 357 313 355
3 314 358 356
3 312 314 356
3 315 313 359
3 359 313 357
3 314 316 360
3 358 314 360
3 360 317 361
3 360 316 317
3 362 319 363
3 362 318 319
3 319 315 359
3 363 319 359
3 317 320 364
3 361 317 364
3 320 321 364
3 364 321 365
3 321 322 366
3 365 321 366
3 322 323 366
3 366 323 367
3 323 324 368
3 367 323 368
3 324 325 369
3 368 324 369
3 325 326 370
3 369 325 370
3 326 327 371
3 370 326 371
3 327 328 371
3 371 328 372
3 328 318 362
3 372 328 362
3 329 373 374
3 330 329 374
3 330 374 331
3 331 374 375
3 331 375 376
3 332 331 376
3 332 376 333
3 333 376 377
3 333 377 378
3 334 333 378
3 334 378 379
3 335 334 379
3 335 379 336
3 336 379 380
3 336 380 381
3 337 336 381
3 337 381 338
3 338 381 382
3 338 382 383
3 339 338 383
3 340 384 385
3 341 340 385
3 329 385 373
3 329 341 385
3 342 383 386
3 342 339 383
3 342 386 387
3 343 342 387
3 344 388 340
3 340 388 384
3 345 343 387
3 389 345 387
3 346 390 388
3 344 346 388
3 347 345 391
3 391 345 389
3 348 392 346
3 346 392 390
3 349 347 391
3 393 349 391
3 350 394 348
3 348 394 392
3 351 349 395
3 395 349 393
3 352 396 350
3 350 396 394
3 353 351 395
3 397 353 395
3 354 398 396
3 352 354 396
3 355 353 399
3 399 353 397
3 356 400 354
3 354 400 398
3 357 355 399
3 401 357 399
3 358 402 400
3 356 358 400
3 359 357 403
3 403 357 401
3 358 360 404
3 402 358 404
3 404 361 405
3 404 360 361
3 406 363 407
3 406 362 363
3 363 359 403
3 407 363 403
3 361 364 408
3 405 361 408
3 364 365 408
3 408 365 409
3 365 366 410
3 409 365 410
3 366 367 410
3 410 367 411
3 367 368 412
3 411 367 412
3 368 369 412
3 412 369 413
3 369 370 413
3 413 370 414
3 370 371 415
3 414 370 415
3 371 372 415
3 415 372 416
3 372 362 406
3 416 372 406
3 373 417 418
3 374 373 418
3 374 418 375
3 375 418 419
3 375 419 420
3 376 375 420
3 376 420 377
3 377 420 421
3 377 421 422
3 378 377 422
3 378 422 423
3 379 378 423
3 380 423 424
3 380 379 423
3 380 424 425
3 381 380 425
3 382 425 426
3 382 381 425
3 382 426 427
3 383 382 427
3 384 428 429
3 385 384 429
3 373 429 417
3 373 385 429
3 386 427 430
3 386 383 427
3 386 430 431
3 387 386 431
3 384 432 428
3 384 388 432
3 389 387 431
3 433 389 431
3 390 434 432
3 388 390 432
3 435 389 433
3 435 391 389
3 390 436 434
3 390 392 436
3 393 391 435
3 437 393 435
3 394 438 436
3 392 394 436
3 395 393 439
3 439 393 437
3 396 440 438
3 394 396 438
3 397 395 439
3 441 397 439
3 398 442 440
3 396 398 440
3 399 397 443
3 443 397 441
3 400 444 398
3 398 444 442
3 401 399 443
3 445 401 443
3 402 446 444
3 400 402 444
3 403 401 447
3 447 401 445
3 402 404 448
3 446 402 448
3 448 405 449
3 448 404 405
3 450 407 451
3 450 406 407
3 407 403 447
3 451 407 447
3 405 408 452
3 449 405 452
3 408 409 452
3 452 409 453
3 409 410 454
3 453 409 454
3 410 411 454
3 454 411 455
3 411 412 456
3 455 411 456
3 412 413 456
3 456 413 457
3 457 414 458
3 457 413 414
3 414 415 459
3 458 414 459
3 415 416 459
3 459 416 460
3 416 406 450
3 460 416 450
3 418 461 462
3 418 417 461
3 419 462 463
3 419 418 462
3 419 463 464
3 420 419 464
3 420 464 421
3 421 464 465
3 421 465 466
3 422 421 466
3 422 466 467
3 423 422 467
3 424 467 468
3 424 423 467
3 424 468 469
3 425 424 469
3 426 469 470
3 426 425 469
3 427 426 471
3 471 426 470
3 429 428 473
3 473 428 472
3 417 473 505
3 417 429 473
3 430 427 471
3 520 430 471
3 431 474 475
3 431 430 474
3 428 476 472
3 428 432 476
3 433 431 475
3 477 433 475
3 434 478 476
3 432 434 476
3 479 433 477
3 479 435 433
3 434 480 478
3 434 436 480
3 437 435 479
3 481 437 479
3 438 482 436
3 436 482 480
3 439 437 483
3 483 437 481
3 440 484 482
3 438 440 482
3 441 439 483
3 485 441 483
3 442 486 440
3 440 486 484
3 443 441 487
3 487 441 485
3 444 488 442
3 442 488 486
3 445 443 487
3 489 445 487
3 444 446 488
3 488 446 490
3 491 445 489
3 491 447 445
3 490 446 492
3 492 446 448
3 492 449 493
3 492 448 449
3 494 451 495
3 494 450 451
3 451 447 491
3 495 451 491
3 449 452 496
3 493 449 496
3 496 453 497
3 496 452 453
3 453 454 498
3 497 453 498
3 498 455 499
3 498 454 455
3 455 456 500
3 499 455 500
3 456 457 501
3 500 456 501
3 457 458 502
3 501 457 502
3 458 459 503
3 502 458 503
3 503 460 504
3 503 459 460
3 504 460 494
3 494 460 450
3 461 505 506
3 462 461 506
3 507 463 462
3 507 462 506
3 465 463 508
3 508 463 507
3 464 463 465
3 465 508 509
3 465 509 466
3 466 509 510
3 466 510 467
3 467 510 511
3 467 511 468
3 468 511 512
3 468 512 513
3 469 468 513
3 469 513 470
3 515 470 514
3 470 513 514
3 470 515 471
3 472 516 473
3 518 516 517
3 518 505 516
3 461 417 505
3 505 473 516
3 505 518 506
3 515 514 519
3 474 430 520
3 521 520 519
3 520 471 515
3 520 515 519
3 474 520 524
3 476 522 472
3 516 472 523
3 472 522 523
3 516 523 517
3 520 521 524
3 477 475 524
3 524 475 474
3 525 477 524
3 478 526 522
3 476 478 522
3 527 477 525
3 527 479 477
3 478 528 526
3 478 480 528
3 481 479 527
3 529 481 527
3 482 530 480
3 480 530 528
3 483 481 531
3 531 481 529
3 484 532 530
3 482 484 530
3 485 483 531
3 533 485 531
3 486 534 484
3 484 534 532
3 535 485 533
3 535 487 485
3 486 536 534
3 486 488 536
3 537 489 535
3 535 489 487
3 490 538 539
3 536 490 539
3 488 490 536
3 538 540 539
3 541 542 543
3 541 489 537
3 542 541 537
3 541 491 489
3 490 492 538
3 545 493 544
3 538 492 493
3 538 493 545
3 540 538 545
3 544 546 545
3 547 548 549
3 543 495 541
3 547 494 495
3 547 495 543
3 608 547 543
3 495 491 541
3 493 496 544
3 544 497 550
3 546 544 550
3 544 496 497
3 550 497 551
3 551 497 498
3 498 499 551
3 551 499 552
3 499 500 552
3 552 500 553
3 500 501 553
3 553 501 554
3 554 502 555
3 554 501 502
3 502 503 556
3 555 502 556
3 503 504 556
3 549 504 547
3 556 504 549
3 504 494 547
3 506 557 507
3 507 557 558
3 508 507 558
3 508 558 559
3 509 508 559
3 509 559 560
3 510 509 560
3 510 560 561
3 511 510 561
3 511 561 562
3 512 511 562
3 514 512 563
3 563 512 562
3 513 512 514
3 517 564 518
3 518 564 557
3 566 564 565
3 557 564 566
3 557 506 518
3 558 566 567
3 558 557 566
3 559 567 568
3 559 558 567
3 560 568 569
3 560 559 568
3 561 569 570
3 561 560 569
3 562 570 571
3 562 561 570
3 563 562 571
3 572 563 571
3 574 514 563
3 572 574 563
3 573 519 574
3 574 519 514
3 519 573 521
3 522 575 523
3 577 575 576
3 577 517 575
3 564 517 577
3 575 517 523
3 564 577 565
3 573 574 572
3 521 573 579
3 580 573 578
3 579 573 580
3 579 524 521
3 524 579 525
3 522 581 575
3 522 526 581
3 576 581 582
3 576 575 581
3 583 580 584
3 583 579 580
3 583 525 579
3 583 527 525
3 526 585 581
3 526 528 585
3 582 585 586
3 582 581 585
3 587 584 588
3 587 583 584
3 587 527 583
3 587 529 527
3 528 589 585
3 528 530 589
3 586 589 590
3 586 585 589
3 591 588 592
3 591 587 588
3 591 529 587
3 591 531 529
3 532 593 589
3 530 532 589
3 590 593 594
3 590 589 593
3 595 592 596
3 595 591 592
3 595 531 591
3 595 533 531
3 534 597 593
3 532 534 593
3 594 597 598
3 594 593 597
3 599 596 600
3 599 595 596
3 599 533 595
3 599 535 533
3 534 601 597
3 534 536 601
3 602 597 601
3 602 598 597
3 603 599 600
3 604 603 600
3 603 535 599
3 603 537 535
3 536 539 601
3 606 540 605
3 606 602 540
3 602 601 539
3 540 602 539
3 605 607 606
3 608 609 610
3 608 543 609
3 604 542 603
3 609 543 542
3 609 542 604
3 542 537 603
3 540 545 605
3 605 546 607
3 612 607 611
3 605 545 546
3 607 546 611
3 612 613 614
3 612 611 613
3 614 615 616
3 614 613 615
3 616 617 618
3 616 615 617
3 618 619 620
3 618 617 619
3 620 621 622
3 620 619 621
3 622 623 624
3 622 621 623
3 610 548 608
3 624 623 548
3 624 548 610
3 548 623 549
3 548 547 608
3 546 550 611
3 611 550 613
3 613 550 551
3 551 552 615
3 613 551 615
3 552 553 617
3 615 552 617
3 553 554 619
3 617 553 619
3 554 555 621
3 619 554 621
3 621 555 623
3 623 555 556
3 556 549 623
3 565 625 626
3 567 566 626
3 626 566 565
3 567 626 627
3 568 567 627
3 568 627 628
3 569 568 628
3 569 628 629
3 570 569 629
3 570 629 630
3 571 570 630
3 572 571 631
3 631 571 630
3 572 631 578
3 576 632 577
3 625 632 633
3 565 577 632
3 565 632 625
3 625 633 634
3 626 625 634
3 626 634 627
3 627 634 635
3 627 635 628
3 628 635 636
3 628 636 629
3 629 636 637
3 629 637 630
3 630 637 638
3 631 638 639
3 631 630 638
3 640 578 639
3 578 573 572
3 578 631 639
3 578 640 580
3 576 641 632
3 576 582 641
3 633 641 642
3 633 632 641
3 633 642 643
3 634 633 643
3 634 643 644
3 635 634 644
3 635 644 645
3 636 635 645
3 636 645 646
3 637 636 646
3 637 646 647
3 638 637 647
3 638 647 648
3 639 638 648
3 640 648 649
3 640 639 648
3 584 580 640
3 649 584 640
3 582 650 641
3 582 586 650
3 642 650 651
3 642 641 650
3 642 651 652
3 643 642 652
3 643 652 653
3 644 643 653
3 644 653 645
3 645 653 654
3 645 654 646
3 646 654 655
3 646 655 647
3 647 655 656
3 647 656 648
3 648 656 657
3 648 657 649
3 649 657 658
3 588 584 649
3 658 588 649
3 586 659 650
3 586 590 659
3 650 659 651
3 651 659 660
3 651 660 661
3 652 651 661
3 652 661 662
3 653 652 662
3 653 662 654
3 654 662 663
3 654 663 664
3 655 654 664
3 655 664 665
3 656 655 665
3 656 665 666
3 657 656 666
3 657 666 658
3 658 666 667
3 592 588 658
3 667 592 658
3 590 668 659
3 590 594 668
3 660 668 669
3 660 659 668
3 660 669 670
3 661 660 670
3 661 670 671
3 662 661 671
3 662 671 663
3 663 671 672
3 663 672 664
3 664 672 673
3 664 673 665
3 665 673 674
3 665 674 666
3 666 674 675
3 666 675 667
3 667 675 676
3 596 592 667
3 676 596 667
3 594 677 668
3 594 598 677
3 668 677 669
3 669 677 678
3 669 678 679
3 670 669 679
3 670 679 680
3 671 670 680
3 671 680 681
3 672 671 681
3 672 681 682
3 673 672 682
3 673 682 683
3 674 673 683
3 674 683 684
3 675 674 684
3 676 684 685
3 676 675 684
3 600 596 676
3 685 600 676
3 598 686 677
3 598 602 606
3 678 686 687
3 678 677 686
3 678 687 679
3 679 687 688
3 679 688 680
3 680 688 689
3 680 689 681
3 681 689 690
3 681 690 682
3 682 690 691
3 683 691 692
3 683 682 691
3 684 692 693
3 684 683 692
3 685 693 694
3 685 684 693
3 694 604 685
3 685 604 600
3 598 606 686
3 606 607 695
3 686 606 695
3 686 695 687
3 688 687 696
3 696 687 695
3 688 696 697
3 689 688 697
3 689 697 698
3 690 689 698
3 690 698 699
3 691 690 699
3 691 699 700
3 692 691 700
3 692 700 701
3 693 692 701
3 610 609 694
3 701 610 694
3 701 694 693
3 609 604 694
3 607 612 695
3 695 612 696
3 696 612 614
3 614 616 697
3 696 614 697
3 616 618 698
3 697 616 698
3 618 620 699
3 698 618 699
3 620 622 700
3 699 620 700
3 622 624 701
3 700 622 701
3 624 610 701
