OFF
702 1400 0
-0.260670104837427 -0.326356979968288 2.21010006913069
-0.306095330213021 -0.312741921927765 2.19223525376277
-0.277999363945784 -0.332353109910864 2.16487867814736
-0.213792114852505 -0.332919595911349 2.21481058385388
-0.232052893395157 -0.343045047685482 2.17015815838352
-0.166977851460414 -0.337545119967948 2.21794666441053
-0.185657973330607 -0.347253711714205 2.17227114662234
-0.121593856099662 -0.341512520958212 2.22228119454396
-0.140327842506503 -0.351255656055429 2.17408517693062
-0.0766949254286562 -0.345282183922067 2.22697116935617
-0.0955627948686127 -0.354827700745022 2.17869379849383
-0.0291870272372385 -0.348261320187701 2.2345575747332
-0.0497674755794221 -0.358018361459137 2.18714999287479
0.0189238606250001 -0.343749313336763 2.24282101132364
-0.00244262732829471 -0.359513681293743 2.1961157718482
0.0440824166790382 -0.350549070623469 2.20477249903843
-0.328682693536087 -0.283982996816541 2.22029279160127
-0.358426386772134 -0.266814404697542 2.19275682204631
-0.33726314343487 -0.297009057360016 2.16448849363729
-0.288227762198766 -0.29981079975952 2.24007943817139
-0.241524995444249 -0.308730740482804 2.25209484815051
-0.193823540336791 -0.313983761789914 2.25591480008452
-0.14704933017414 -0.317848163577081 2.26125772694978
-0.1018257970305 -0.321160705930073 2.2670472598468
-0.0575253595668754 -0.326485075039108 2.26960657286444
-0.00887109939220294 -0.327200798640492 2.27682076551377
0.0648875294860943 -0.327525484957222 2.24832428957745
0.0363251628499554 -0.314986639752444 2.28443801908679
0.0824199628885147 -0.294828169919003 2.281940200963
-0.315705672427863 -0.262844101569353 2.26169287203458
-0.355852140827678 -0.242584306564529 2.23358432880685
-0.269726974357097 -0.276161621443062 2.27929589547179
-0.219776737835833 -0.282433219055531 2.28736048466511
-0.172173511425831 -0.286700434468289 2.29256846248565
-0.124545404168522 -0.289052389340795 2.29972892974442
-0.0798354387157239 -0.291710914459577 2.3059915077601
-0.0375927808536301 -0.301045094449024 2.30497527664923
0.00375563664701614 -0.292692451954142 2.31551928388296
0.0494146512283027 -0.279251223385218 2.31678936263005
0.0942229604193389 -0.256977164371884 2.31005144807798
-0.333939466237609 -0.225453396668737 2.28209510817033
-0.367105030649026 -0.204163196703417 2.25548947050256
-0.292959583676269 -0.240205135927298 2.30332877483688
-0.243943249980101 -0.250715588570656 2.31457128906714
-0.195172538050806 -0.25279185556413 2.32242109061123
-0.147717650182604 -0.257487181639277 2.32716498768689
-0.0962107471462234 -0.258219754619996 2.33674827780192
-0.0413585178857719 -0.267562291609398 2.33825121883886
0.00908860737221386 -0.260165357032353 2.34746028318156
0.0595653023846782 -0.244630328347431 2.34597026929664
0.104312213812856 -0.218576685487 2.33782630095559
-0.31798962773625 -0.201013791725228 2.3244443178086
-0.358479453852202 -0.183400482153329 2.29326749993017
-0.268747299244118 -0.218089032774283 2.33942353560492
-0.221330324072996 -0.220270717089786 2.35023078503152
-0.175779802211643 -0.22121417880848 2.35840575904639
-0.131834883453625 -0.229015223019539 2.35928889639036
-0.0983035977864381 -0.216922027458515 2.37830345606521
-0.0634798597869788 -0.236265150533245 2.3656263684083
-0.0211545682297012 -0.232667269248893 2.37640327885867
0.0267509613381342 -0.226105899222599 2.37764697866299
0.0747984735408767 -0.207313324351141 2.37327964906379
-0.321125979052962 -0.16020774929262 2.36434084256209
-0.349194207924554 -0.162665004288785 2.32952083338783
-0.288234666987533 -0.186551859579843 2.36188178607856
-0.241149668329532 -0.188777912795173 2.37825940820323
-0.196396032375743 -0.187447730622731 2.38859305549274
-0.147481227658341 -0.192357481789251 2.3934106999318
-0.10203546520069 -0.186438736473763 2.40853958206279
-0.0546261598576324 -0.199815467855219 2.40444963885571
-0.00659752416671885 -0.199569168471564 2.40979609817783
0.0411701588221589 -0.192265775837035 2.40624400359857
0.0886314530407793 -0.170140079407191 2.39895182919117
-0.310489661727289 -0.135496153795755 2.39943921253488
-0.354629002567452 -0.123036167344985 2.36422775897439
-0.271820587863708 -0.159951559295745 2.39779010903178
-0.225836030892663 -0.153556652152086 2.41713572299983
-0.175793926669204 -0.158004081049461 2.42265034085524
-0.129985361394779 -0.157685458434675 2.43216042188161
-0.0784491717611827 -0.161644409436081 2.4384700844731
-0.0335048196631955 -0.168143819085442 2.44051575201744
0.0128719496566811 -0.165231219271877 2.44168864194278
0.056799909845346 -0.158025003265571 2.43260056510918
0.0931965558187806 -0.132337502262027 2.43131921813143
-0.305664997996732 -0.0954869079193267 2.43495975469413
-0.339550668760617 -0.104446402791934 2.40189565993094
-0.272246342411767 -0.125728523039183 2.43068171088464
-0.237644137571618 -0.113734297705598 2.44838576072775
-0.194908509038521 -0.122307133478886 2.45007598724672
-0.149779015759356 -0.122493698443506 2.45780838783643
-0.102566377872744 -0.125874187848379 2.46373953824518
-0.0539535214873627 -0.130038568326161 2.46939442801338
-0.00566685760761128 -0.133185758823178 2.47110763096091
0.0459129107775689 -0.127574860248927 2.46342302397547
0.093285235232294 -0.0964905437022748 2.45542418558582
-0.346894684944545 -0.0650577450793508 2.41856791016572
-0.268422270378335 -0.0759556746180335 2.46070617920846
-0.311951467197797 -0.0514825162662789 2.44967618602884
-0.218947238729143 -0.076572900563224 2.46995659738517
-0.172908699277029 -0.0813840128549656 2.47509572820977
-0.126224924711154 -0.0824357636144629 2.48172695069303
-0.0804215743643297 -0.0871148519642134 2.48688993028057
-0.0337481275284331 -0.0917025915101106 2.49193432869026
0.0129153511069185 -0.0934828822394525 2.4898916562821
0.0572555999353353 -0.0873811219941362 2.47964580030308
0.0390644703030179 -0.0483620094525267 2.49596695909054
-0.285022883768884 -0.0243906841228386 2.46742570071583
-0.242580605255698 -0.0335303938406906 2.47745095931013
-0.193543158224472 -0.0354706514210387 2.48369185942002
-0.147781043869106 -0.0366787018128681 2.48955397925649
-0.101488994050028 -0.0382060632373693 2.4954227975044
-0.0569232455737177 -0.0450119226142882 2.50045315881228
-0.00921489029040999 -0.0494805483736009 2.5034534394633
-0.256060197846582 -0.3404358232159 2.12568584939642
-0.279835122012539 -0.326689930401463 2.09012140101553
-0.256291870877992 -0.320238449868975 2.05252042674684
-0.206455812964425 -0.347041696476288 2.12637721972449
-0.228072816767134 -0.338303157445712 2.08523893695521
-0.16040557604554 -0.350047935945505 2.12575989649613
-0.17992197079081 -0.338942507649961 2.07970262960458
-0.114995732276649 -0.353234585884243 2.12834064310377
-0.134613663691888 -0.340766876464861 2.08042222967197
-0.069670566031246 -0.357007804984335 2.13609121517616
-0.0870428412306828 -0.344603696240236 2.0866149300826
-0.0247606443234675 -0.360975247377618 2.14653035997146
-0.0413310271665023 -0.349459537647888 2.09589188821474
0.0213003707195052 -0.359718861051651 2.15506949643898
0.00287855123826196 -0.35376840038289 2.10725206797582
0.0508175339924421 -0.346984950045235 2.11621381618758
-0.307566602734664 -0.319947959835075 2.13333921202951
-0.345955198263055 -0.289434499415784 2.11712861171373
-0.316448170131301 -0.30542042790939 2.08483200330001
0.0888680163344892 -0.330472433863939 2.20886094531147
0.0645017375644866 -0.348103404273256 2.16427124934561
0.104237944857128 -0.326797898094163 2.16614359505323
-0.38360092038876 -0.231125911531653 2.18286936626974
-0.393893787638262 -0.218968837833655 2.13319865441773
-0.371246132929863 -0.261458686171902 2.14646168700465
0.110050326762436 -0.302057129587641 2.24226956093409
0.130630314399772 -0.300841914755227 2.19792056992236
0.147860170175624 -0.269448855905564 2.22500407045322
-0.385633452812287 -0.202280741401436 2.21415918418398
-0.401450040928183 -0.186444984500062 2.16774770946347
0.124105397321212 -0.266164081896518 2.27027825995833
0.155310366519354 -0.229985838755278 2.25537746663863
-0.389199612506932 -0.163482910900067 2.2477665277032
-0.401868607530975 -0.156360706512479 2.20397288917268
0.132137368785374 -0.225689043864375 2.29805375132564
0.161922725157014 -0.18800566800206 2.27936798073853
-0.383582197224486 -0.144209784738916 2.28544415426753
-0.403948564627445 -0.115997719261158 2.24305173222908
0.140976554629383 -0.184552605864308 2.32327352928425
0.16653232534691 -0.145984190524915 2.30536948199763
-0.375615340002007 -0.125966133045276 2.32424336626826
-0.399321060845405 -0.097968761370016 2.28823241460669
0.117811570851318 -0.177449566491746 2.36246629309638
0.150488810063614 -0.139440053463983 2.34805853994557
-0.389205161648322 -0.085885806439282 2.33618454291792
-0.407335866645786 -0.0517039286927622 2.30472607552014
0.12540458565925 -0.13744598414657 2.39076036964395
0.155768823704661 -0.0994072022956677 2.37356258245428
-0.373652615181019 -0.0781187056961415 2.37763064363232
-0.397752925995333 -0.040296554059384 2.35202243523697
0.129030156988234 -0.100051334001112 2.41885770773917
0.152882536365591 -0.0622172709772873 2.4049272419125
-0.376316619463415 -0.0328864618721992 2.39485246275327
-0.344182144513613 -0.0214535122002839 2.43229911482659
-0.363808432029915 0.0119368619051159 2.41245121679105
0.0862557279518018 -0.0494621728187139 2.47523140006519
0.109741366164153 -0.0102519693588657 2.4608064846271
0.12297902521691 -0.057885638779888 2.44484909498181
-0.318587507210115 0.00613066945401061 2.451338485976
-0.266076711518842 0.016704930692133 2.47313162492241
-0.297897803144349 0.0449244202592053 2.45556675904376
-0.216527740010936 0.00792232061347134 2.48196931940201
-0.169266344653327 0.0106564292791613 2.48711346400108
-0.122667838868318 0.0091113143254907 2.49254385260452
-0.0758558784672292 0.00749965872533883 2.49798494023783
-0.0329506391747481 -0.00337102963736397 2.50397791235323
-0.00732538390765471 0.0329070460852068 2.4978176890323
0.017712001343518 -0.00727241095087278 2.50219420706267
0.0664293684069922 -0.00727359592775917 2.48728904892871
-0.264268519477671 0.0740791017014743 2.45757072737332
-0.232772620457348 0.0503868604996312 2.47235813541988
-0.188630232984909 0.0555034994245428 2.47499557932357
-0.142542380036122 0.0553411377353668 2.47939339778878
-0.0958726437735348 0.0531576784567108 2.48454223578962
-0.0474803765346189 0.0512486088479607 2.48973218759155
0.00847350051394237 0.0697972558281507 2.48183835205749
-0.344003287967167 -0.274054037769265 2.06755127543256
-0.327665481250863 -0.261590904605937 2.02823758741612
-0.297225864741336 -0.297257215982541 2.04293554878973
-0.248442039888401 -0.298766854353026 2.01602423799467
-0.206598725067405 -0.321912928948251 2.04267810622469
-0.156050065367687 -0.317974645013545 2.03585918979964
-0.106097424306356 -0.323234008114904 2.04407327652707
-0.0540650874707067 -0.327446588922433 2.05068319047217
-0.00878711114622399 -0.333057515591376 2.05956467412499
0.0353016137523963 -0.336232973362986 2.07569960808068
0.0778149338847069 -0.318422674749549 2.07421072137314
0.0904805979668033 -0.330576530954481 2.12258175063353
0.117209460961396 -0.305043636321607 2.10390128373136
-0.373750128480183 -0.250782843670503 2.10017822622038
-0.391155404959489 -0.204724273730904 2.08569192480152
-0.367875330411485 -0.232607486518341 2.05641474886719
0.133883911375365 -0.300901097521257 2.14835267831781
0.149938624876749 -0.273299810535538 2.11609150780091
0.159989310881305 -0.268241894917768 2.17111758584979
-0.405170580747386 -0.170471824058146 2.12106654441855
0.179988455608851 -0.226258925038586 2.16703115901325
-0.407985447135107 -0.138401209385975 2.15260067990327
0.172000658832782 -0.232578899411704 2.20977371784619
-0.408845509743955 -0.114801926015308 2.19458186057628
0.177867250415522 -0.189815338556616 2.23211003563123
-0.410685342954533 -0.0744768677141092 2.2087587852344
0.180680023514098 -0.14879758215509 2.2547204619271
-0.410557641049697 -0.0650927389593808 2.25570186690506
0.181531904786043 -0.110545247854126 2.28070039350564
-0.413424689730052 -0.0168036355801481 2.27250469243216
0.17381570731994 -0.0963588847375033 2.32568313928875
-0.409505727599997 -0.00414188791243603 2.32247186936685
0.174238289504648 -0.0563250922971009 2.3571345247135
-0.392615276900591 0.0058384038866487 2.37016623092853
-0.398833772163043 0.0421648902232454 2.33993324720036
0.142922748037037 -0.0168207938324491 2.4271069847489
0.167187639236268 -0.0220711098848484 2.38620949545629
-0.375041334373582 0.0494911660051754 2.3858492282658
-0.340244341605502 0.0464087674275097 2.42720554554994
-0.346967234110407 0.0869597686568578 2.39804956337363
0.0425617517349525 0.033939949891645 2.48862822979343
0.0890175544704877 0.0327347171196846 2.46700556790452
0.127878876633589 0.0293028949786574 2.43505180473759
-0.310192154110938 0.0842765298198678 2.43155708460956
-0.269500860347385 0.11082568698482 2.43382884134805
-0.217109651347166 0.0954365549486141 2.45399074435019
-0.168056354701157 0.0972899274014386 2.45645592095841
-0.120718694444823 0.09602947962212 2.4606447020283
-0.0733753658280419 0.0927205779960443 2.46616487661906
-0.027382534539126 0.0931209445771118 2.46905378396096
0.0263233108997573 0.103415666593615 2.45597071355307
0.0598542820425669 0.0716454893958735 2.46555226436931
-0.316184410545667 -0.23121014869997 1.99174087642671
-0.285016020278721 -0.270297713432377 2.00260404780791
-0.236543352769582 -0.268502849318887 1.98225629499924
-0.199435066107557 -0.296129588525533 2.00657792353882
-0.15570135482098 -0.284828496629215 1.99682109577292
-0.115520644939612 -0.292482212106384 2.00621482808888
-0.0685663420521724 -0.301214377142105 2.01705397880024
-0.0124007686936777 -0.302598581100243 2.02086939721947
0.0350907095247516 -0.311809715238564 2.03853846925267
0.0805113018518396 -0.288476816601936 2.03672718935455
0.11856274179993 -0.283073228526795 2.06870847575443
-0.379233456280174 -0.180781188801764 2.04073227572856
-0.351709266788647 -0.219386176215195 2.0210176732562
0.151591558004579 -0.246812226993742 2.07750471267367
0.171909403104205 -0.237335736543846 2.1253592361094
-0.398103614417795 -0.157233848800928 2.07960379887528
0.18880114724691 -0.189170079353421 2.13764177091423
-0.403098040607288 -0.115311589251245 2.10715354691926
0.187863142206232 -0.184699230945088 2.18723492615821
-0.406803057858745 -0.0898466921156412 2.15382411042603
0.188875424584223 -0.141461569082082 2.20751766478019
-0.405599371336093 -0.0455779352668684 2.17214401956389
0.188903766138892 -0.101301412080246 2.23287203590913
-0.410344891303225 -0.0279122344342784 2.22246318898604
0.186123108971451 -0.0684955897406429 2.27663224040294
-0.408848915702928 0.0180807766289612 2.23941218291902
0.183234975475526 -0.0454004580893721 2.31507847545814
-0.410167604389494 0.0306218222489205 2.29029740121378
0.178712508489887 -0.000377060981997666 2.34864062163915
-0.394766590591823 0.076256097878637 2.30746360384439
0.157652577476422 0.0213889397827046 2.39537983607862
-0.375941036538588 0.0851707400603008 2.35471523760833
-0.342784554383183 0.122343090949883 2.36547659558119
0.10215863436159 0.0711358094559165 2.43785211593601
0.137371228791606 0.065139407472474 2.4018480768326
-0.308854136764426 0.12160829005489 2.40247318424639
-0.265093733672117 0.147531411852833 2.4002492668811
-0.229610837931916 0.129897892039912 2.42722547947474
-0.184679610435195 0.133348420193381 2.42626328557535
-0.14055942325387 0.133503708069696 2.42808151954279
-0.0938617209972859 0.129502186320982 2.43414198013997
-0.0505596312261607 0.129080346877706 2.43649701452135
-0.00796047198158951 0.12698476589344 2.43992419484839
0.0695656792185465 0.108129623965459 2.43259921539659
-0.312504186061108 -0.197915886543422 1.96155905803891
-0.274321821855608 -0.237070895355232 1.96764778841771
-0.227390386250983 -0.235493628498095 1.94921992952552
-0.187925795480469 -0.260900908786257 1.9716277623452
-0.134020041291007 -0.252488935161503 1.96568741984651
-0.0882106156981158 -0.264563447640776 1.97972175592761
-0.0426299966513889 -0.275963435445332 1.99307650902802
0.000863497061585797 -0.264872968754824 1.98401221251775
0.0383852942967384 -0.281010424509448 2.00673122920007
0.0851844447454397 -0.255466651389845 2.00290242271579
0.12189223364678 -0.252868078814117 2.03554236449796
-0.373951282659214 -0.144563005747844 2.00901584613583
-0.34991636752433 -0.186229559522195 1.99481334279916
0.157797732318128 -0.214420662709054 2.04522272714643
0.17798893729978 -0.204496564885909 2.0912050249227
-0.392993888773075 -0.125848315937007 2.05260248357985
0.195364166109308 -0.156329045378655 2.10771438088636
-0.396100266985205 -0.079593581139284 2.07241182400793
0.194635334900739 -0.143166225452657 2.15909538831776
-0.400346119523805 -0.0620685448562535 2.11846890333889
0.195439453138603 -0.0961578592022333 2.18245006006295
-0.399209045668917 -0.0156146744344006 2.13873185324453
0.193102130768374 -0.0571356067112014 2.22651509800307
-0.403688420893542 0.00321513565714312 2.18753534868813
0.191481637974302 -0.0246406935988905 2.26053792040109
-0.402325902685576 0.0504614015257303 2.20644568693491
0.188012332167691 -0.00368471043758327 2.30213029014559
-0.40362365581643 0.0644640059719261 2.25772732230796
0.184772729744357 0.0398812353941298 2.31584240176004
-0.388133220020051 0.109722481027748 2.27469270752198
0.166669022058589 0.0501013860153833 2.36038872128598
-0.369493521688029 0.118732127146188 2.32188811048574
-0.335377095414239 0.156456979569258 2.33285241265061
0.109292806610049 0.106472942308945 2.40333699278606
0.145218972851501 0.097382015766223 2.36801209359602
-0.302171765681266 0.155483722958625 2.3693623552128
-0.25333196792474 0.180103935027485 2.37026323577425
-0.213261399922768 0.162455563144753 2.39609101829401
-0.162238726496691 0.168485268769895 2.39238706965371
-0.109619456296367 0.161909238563077 2.40126792903241
-0.0612266477415846 0.163033564370718 2.40231596751381
-0.0151612812625818 0.16071290656431 2.40667924283181
0.0324746563380548 0.14017964428156 2.42051299065863
0.0738645920455658 0.144105008133388 2.39886863687389
-0.306610063212917 -0.165357761923648 1.93000675157657
-0.269036436843566 -0.203570305800636 1.9353913178456
-0.221072511478593 -0.203865869341953 1.91808635974752
-0.176448096206864 -0.229694783268074 1.94116237157915
-0.129082474068648 -0.215853813125122 1.92954163687941
-0.0871675941911443 -0.229872342887157 1.94533216898462
-0.0426627069144656 -0.243016337731247 1.96036936958941
0.00382142848754333 -0.229672560980352 1.94920183888876
0.0468226943155929 -0.246159600098745 1.97295624217097
0.0925324492207554 -0.221516511904352 1.96997221791615
0.128345321960503 -0.220934770442355 2.00432023414704
-0.367108112237881 -0.110504300257307 1.97524212666501
-0.344208542916409 -0.154545764618505 1.96439606960208
0.164491601699415 -0.181767973781149 2.01366077317518
0.184929341410132 -0.170898127888504 2.05957593514578
-0.386260874614366 -0.0947969391126596 2.01986042485333
0.20183265219992 -0.123744300608387 2.07699849013008
-0.389444374454134 -0.0489222224260256 2.03726583859995
0.200941406845196 -0.109320347213051 2.12884988465488
-0.393660395242399 -0.0262571025303822 2.0863532638719
0.202701025783651 -0.0631260748292196 2.14382572500258
-0.39333981621125 0.0197621485259866 2.11303845359009
0.198749821687745 -0.0457235331427035 2.18738034007426
-0.397191287371142 0.0374156910091336 2.15594116840746
0.198615578273041 -0.00167764191727813 2.21655372844214
-0.395608845905895 0.0827493394545074 2.17182736010466
0.194885577893883 0.0241695975104479 2.26367060037925
-0.397299733337619 0.0966736729255316 2.2243410819503
0.192265613123603 0.0703067144024563 2.28055410861941
-0.38161391268191 0.142463371669839 2.24278147636751
0.172598023695272 0.0863431180445888 2.32737054173114
-0.362413440420473 0.152344881533847 2.28988786130358
-0.326693381196661 0.190063747175769 2.30256874714543
0.1151011020081 0.140568907832547 2.37066301391016
0.151015959550403 0.132022700053451 2.33540941396189
-0.291999114750168 0.188817091667036 2.33939941467648
-0.243412893131596 0.212740317395012 2.33936806823613
-0.202208908676818 0.194202447738876 2.36507044399524
-0.157204832494828 0.207357939234783 2.35402477948346
-0.120198830519191 0.191703133569655 2.37121915770328
-0.0724817985494508 0.194506622256786 2.37056995959797
-0.0221009017582694 0.194728768674188 2.37260236666486
0.0278066858433543 0.174791097334308 2.38942889308386
0.0755551996216555 0.17748263813184 2.3687989093442
-0.300006573041367 -0.132780589242049 1.8977938936992
-0.263068540256873 -0.170435288116055 1.90309599938653
-0.216768403412805 -0.171235534013113 1.88643058055816
-0.172742644291986 -0.197213948077033 1.90908590780274
-0.122874810552148 -0.181234824244285 1.89545326284171
-0.0809675444452656 -0.194475363217995 1.91047075331558
-0.0391572532561212 -0.209077701194084 1.92683647423801
0.00726920901638568 -0.194779748356978 1.91471886574758
0.0505954370317128 -0.213125464476511 1.93956680292605
0.096114430382639 -0.189666674627272 1.93670755230263
0.134933945935795 -0.188531108208902 1.97269114516281
-0.361721683222931 -0.075636666716327 1.94415778870007
-0.337660163810855 -0.122508927022983 1.93255768170369
0.170826163219371 -0.149288645622362 1.98154375803205
0.191491881415419 -0.13790969487992 2.02736948252652
-0.379926335648838 -0.0598417068526017 1.98749610447209
0.208105606824124 -0.0917127912982168 2.04394635474377
-0.382146764271267 -0.0110890888124536 2.0014111475178
0.207772560756463 -0.0760697704104085 2.0939005982454
-0.386785788864685 -0.00219680071898648 2.04519874487464
0.208967129004833 -0.026728082300519 2.11552860763522
-0.387869095551261 0.0297068668931665 2.07442592572596
0.204522537178596 -0.00976402242281836 2.16286525023864
-0.389894514836838 0.0707805300579624 2.11724552731148
0.205554816084471 0.0352522119536389 2.18306751555282
-0.389309804946487 0.114564793469981 2.1403405341487
0.201230127083279 0.0520352215493309 2.22929910335763
-0.390969256502365 0.128761258089821 2.19278580584054
0.19919386310371 0.100770662830466 2.24713088041822
-0.374229345762187 0.175954021227255 2.21359963203528
0.179926146441311 0.118163243916011 2.29379648079795
-0.354712136099044 0.185721085457708 2.25966037572536
-0.319244571871808 0.222972093896129 2.27145330272028
0.120219476784473 0.173944504381981 2.33919941806325
0.157706731537272 0.164577230672895 2.30300015287239
-0.283603861940914 0.221623151502097 2.30857100879218
-0.236851352571182 0.246014237823212 2.30663118000875
-0.195036428306063 0.229347639747468 2.33050401587473
-0.144345712311907 0.241624286074655 2.32058383251166
-0.10504510196278 0.224582354969503 2.33925844092505
-0.0567483799273928 0.227165546690315 2.33885354319718
-0.00866549309135529 0.227904434658323 2.34027002054736
0.0314308230681898 0.20604189346494 2.3592186173556
0.0830198050588479 0.208435946212835 2.33759473836482
-0.300877256829159 -0.0977464026636862 1.87097238688966
-0.256289119832535 -0.136506759247329 1.86966901177899
-0.208423133371799 -0.139554074138957 1.85484803566094
-0.167311535136828 -0.166265634936045 1.87860711115537
-0.117317306423493 -0.14813799977552 1.86289967454574
-0.0738103662075983 -0.158839437208827 1.87541643690314
-0.0340909508091217 -0.17299987085195 1.89124862245795
0.0095531071893085 -0.159448133098527 1.87975951973876
0.0537319900880919 -0.180400976301862 1.90637854811156
0.10056861339655 -0.157376755358744 1.90362298047057
0.137613341878686 -0.158882425853449 1.93954992157395
-0.355961290366106 -0.0401700124702494 1.91291240030875
-0.33454332679732 -0.0881220507585602 1.90394291244363
0.171684301032837 -0.122530345295507 1.94595932844395
0.197767163465172 -0.1049922370004 1.99398290474523
-0.373414617843215 -0.0236647051678063 1.95421382105706
0.215432972244151 -0.05517986789337 2.02191317656864
-0.375506428718328 0.0253755447586106 1.97379004652106
0.213958512792319 -0.0395859757978017 2.06632223451447
-0.380610160760246 0.0418038296064076 2.0224904300432
0.215471253211334 0.00833200932436793 2.08321706376061
-0.383914389428455 0.0709799365337881 2.06823363148856
0.21110077729113 0.0242749741956444 2.13050092549318
-0.382648032146003 0.114609795501758 2.08562457406417
0.212289121539873 0.0696002895076436 2.14917572310424
-0.38356824168231 0.151362121865633 2.11668491629107
0.207880749257582 0.086725530288688 2.19675433649316
-0.384177783253467 0.162440833873991 2.16576919100619
0.20549622768983 0.133742092552073 2.21537570558424
-0.367540583420876 0.208931332457266 2.18201138587662
0.186667710199196 0.14999492408902 2.26146865942901
-0.347449358395257 0.2191079659544 2.22835680724308
-0.312784247481312 0.255748173394541 2.23919920605826
0.127331406514764 0.206566532929488 2.30647342651284
0.164377350814924 0.197190317315322 2.27050986055136
-0.277430544274347 0.25426933473006 2.27625387167216
-0.230946716908853 0.278847888020761 2.27407762775404
-0.187470094655163 0.262703779623872 2.29773041514748
-0.138723372191704 0.273731763151392 2.2889348723338
-0.0912593525514292 0.259225840660072 2.30548501303603
-0.0412467397230241 0.259698518626026 2.30725201688904
0.00526335286052146 0.259712046688078 2.3093182051335
0.0441276003290259 0.236780236736485 2.32748625593844
0.0904136798481268 0.241095015529732 2.30492858798014
-0.26356178768671 -0.100000791529576 1.84555207911182
-0.22206367901742 -0.104785307437519 1.83218978015548
-0.175626421277061 -0.102847512750141 1.82586940229455
-0.161058312942546 -0.135474029281761 1.84924540264888
-0.123543714803001 -0.10894208387688 1.83310858036378
-0.0769106776776946 -0.120682498970335 1.84373853045318
-0.0301522378636516 -0.131687609070299 1.85439978121677
0.01785610328397 -0.121523416499829 1.8512611710715
0.0570563138079073 -0.148320504295221 1.87536546555537
0.101716371398611 -0.122609698628937 1.87392983851969
0.142041836038462 -0.125135136334193 1.90693050996705
-0.343280164289949 -0.00467688728961438 1.88579373567805
-0.327030999581122 -0.0523155958981446 1.87383838230072
0.191067879137478 -0.08522086542813 1.94687433548604
0.208975126787944 -0.060882574744568 1.97904780619075
-0.363368664560162 0.0138691805801834 1.92429969963771
0.21483773845114 -0.0170481031926254 1.98753049616791
-0.360072839832382 0.0592335127617494 1.94314944499632
0.217762095527813 -0.00303442864027114 2.03223010473699
-0.369664082255271 0.0751665740467419 1.98727897573112
0.214639537712662 0.0414850494889995 2.04883593138875
-0.376469569432335 0.0948781627723396 2.03214972714221
0.214963104525325 0.0591574655300446 2.0956147669107
-0.370055803395318 0.141104161283071 2.04469169213611
0.212222201701191 0.102741669435412 2.1155058660921
-0.372867331872574 0.17017229379212 2.07911837057098
0.212180187488 0.120618775014592 2.16197178835688
-0.376641904576592 0.194431984339096 2.13254578098424
0.206603260909907 0.163376584616719 2.18201706510654
-0.358502718663899 0.236093713738955 2.14538792129798
0.191266037304969 0.182643210176045 2.22921554036421
-0.340988187885086 0.250344768562722 2.19416635861415
-0.305145069495727 0.283266074110109 2.20437512338674
0.132709489363754 0.239139901079576 2.27235354466621
0.164562662544503 0.228992667606574 2.235877777023
-0.269743542347841 0.286150002483308 2.24328426538108
-0.220932028053474 0.307992335037361 2.23673992294742
-0.183814569098612 0.295054821899907 2.26262568682551
-0.14192038766902 0.302690557701106 2.25157593578222
-0.0978981566716755 0.29327411781937 2.26624619917352
-0.0532879493123785 0.288933539486879 2.27295413694157
-0.00322536225643928 0.287977223475258 2.27471895249919
0.0485272736241489 0.270690612090678 2.29263680882326
0.0939151318899848 0.270040098856197 2.27007388162903
-0.288574969670984 -0.0592505622856399 1.84175386142608
-0.243183681024483 -0.0619343796271304 1.81957605322762
-0.195522096820504 -0.0643395392555885 1.81011593994455
-0.143702668592333 -0.06861606485858 1.81338708360883
-0.0932590834931901 -0.075280734909576 1.82044169100095
-0.0472258210871079 -0.085214429000969 1.82833037067193
-0.00311550319668465 -0.0849521388965201 1.83234540597774
0.0440060920513919 -0.0750343866644675 1.83388775351966
0.0641328860893389 -0.10934002637913 1.85121198416699
0.096463495937372 -0.0741336085885933 1.84844190940041
0.132793375541597 -0.0902785077542885 1.87602426711095
-0.308170956505335 -0.0167876401528149 1.84790097358787
-0.282613814422242 0.0239505205941021 1.83185929495055
-0.265640158733075 -0.0200580468062228 1.82071139784317
0.143365231261383 -0.0495621477765881 1.87124846133534
0.169192829479054 -0.0814934438823181 1.90811281793239
0.172929311284834 -0.0345556041890869 1.89854306319951
-0.339757634013061 0.0500270157942173 1.89471377137547
-0.320141308027013 0.0257407363549919 1.86193976559636
0.197017803061815 -0.0387361149321872 1.93658383449607
0.202672657743303 0.00421881656846202 1.95132844952345
-0.336209880385252 0.0890709623574196 1.91904766520622
0.208711961098315 0.0323781025295331 1.99319504105117
-0.345940195324631 0.111177374907724 1.95731380963358
0.204001334073756 0.0711236072432764 2.01872548804124
-0.358356987858219 0.124095739418212 1.99636351921704
0.206751539268328 0.0942406865620528 2.05977719217343
-0.347005700042521 0.164027223661865 2.00799784451007
0.202178388446045 0.132838567096836 2.08499658869237
-0.350637838589114 0.194316792031187 2.04295514480026
0.204724930619134 0.155762720046143 2.12584298137908
-0.364029427952376 0.212447288918722 2.09470858010591
0.197467418249079 0.192878815500473 2.1504473152539
-0.329777054877831 0.273419928980412 2.15534227782154
-0.341811788021233 0.255404464987178 2.10766820977322
-0.310640896404108 0.288436283450505 2.1121724360996
0.188107755716293 0.21058913077821 2.19385106365235
0.175020955700874 0.234285709923508 2.14903873607201
0.161854976293566 0.249442094089122 2.19357050074927
-0.261738834677955 0.309204925900736 2.20522284310949
-0.295572706986702 0.300910075209033 2.16428917821618
-0.253546067268458 0.322270139083671 2.16210675725214
0.12927631000265 0.268059845836737 2.23182228131658
0.0972174910646015 0.298543521102767 2.19430994073947
0.0848128929400561 0.293610256739748 2.23345724058369
-0.214381797757967 0.325745726946665 2.19577268353847
-0.170469402754877 0.320781232779318 2.21582860774442
-0.11758095769494 0.318129562854495 2.21839934863992
-0.0731632540475113 0.313307237542772 2.22748507680431
-0.0293832397432652 0.309941979667466 2.23273465744972
0.0133474468689476 0.308723114706164 2.23224420474563
0.0463960966614883 0.295195177927504 2.25623362162897
-0.216803290506626 -0.0216626862379443 1.80481905012087
-0.165553047987322 -0.0261689492257384 1.80221745972317
-0.114827475733454 -0.030357885951036 1.80823659343402
-0.0670052345804347 -0.0353056316749517 1.81419392566866
-0.022214123196181 -0.0389750236021329 1.81966720739429
0.0218970952521971 -0.0349443615486377 1.82431843845821
0.0704938977822596 -0.0335602660313578 1.8320799630799
-0.238404219734815 0.0202435076763212 1.8113042446514
-0.210857098975362 0.0576590418048023 1.81359741925107
-0.187016120032153 0.0174283713020735 1.80216677250951
-0.136253857203055 0.0138216187235915 1.80558979577955
-0.0885996792041146 0.012629435564727 1.81167091652831
-0.0413681139429651 0.00909281095073494 1.8174339700871
0.003413191389792 0.0105026140742687 1.82353002502839
0.0503348916762981 0.00966269916916606 1.82975133664054
0.0984833295157816 0.0111972123569126 1.84438230670045
0.145481143171806 0.0032629142773963 1.87228786538576
0.114033647935029 -0.0291671681612157 1.84931254598955
-0.300308232387597 0.0652892707112412 1.85793720617097
-0.268006993277755 0.103575409270629 1.85846275082199
-0.257714196641024 0.0641443607697903 1.83036343557198
0.121800724344903 0.0457037126610114 1.86716290267918
0.179383872309162 0.00787044801544266 1.90971642166157
0.157859802097369 0.0477009276113238 1.89903264977708
-0.307898290391158 0.0977115331935975 1.88742494730229
-0.27428358838271 0.136151285511933 1.89299467266251
0.188136071154291 0.0454276744597663 1.94258125965273
0.160587389695099 0.0841596224941925 1.93146184832306
-0.312260362630586 0.132196061763542 1.92542309150811
-0.281069288827056 0.168246484252979 1.92942903737842
0.187326835259236 0.077344060170789 1.97423516472638
0.158886168609952 0.117996735407625 1.96528462163488
-0.323192136979092 0.158527756162421 1.9644083705462
-0.285710784473395 0.197911034302102 1.9619984397762
0.18615393389638 0.111613506355939 2.00965494749753
0.15807674800577 0.150867125974769 1.99939823821608
-0.319769864378847 0.198241655545091 1.99755900752459
-0.283524443420305 0.233206738297349 1.99449600039664
0.185664073363702 0.141476980035549 2.04183915868013
0.157624659363598 0.183070111738007 2.03334635344789
-0.316731424886615 0.234403338029381 2.02822588097718
-0.282665202951981 0.2704696861231 2.03161112192619
0.184831560651504 0.175205045731103 2.07753500979788
0.156627161449981 0.215446688084908 2.06666552906743
-0.340321713463306 0.235481584549094 2.06459517955869
-0.310781847630377 0.272228691889639 2.06773775965712
0.183326850243798 0.205487685940342 2.10917094718792
0.153593549791352 0.24529949158304 2.10190491624437
-0.277265289882077 0.311827564766025 2.12224238687926
-0.272219853648484 0.302150018447872 2.07445778875944
-0.239574791767847 0.324548325500289 2.1076346921863
0.131593230444438 0.27903883399216 2.18460029950991
0.14524336822959 0.267037724985277 2.14313724373671
0.10552771300982 0.294854516056413 2.14241654271054
-0.215036431326084 0.332882552156746 2.14729291611109
-0.189419717964721 0.332616485896279 2.11150640635802
-0.174527187999856 0.333375125051348 2.16590349477163
-0.145520119246335 0.331491830368542 2.12503452109396
-0.132106331758674 0.329541234997307 2.17530639351715
-0.101437859299052 0.328072296214887 2.13039193335289
-0.0853409887815063 0.326277287315136 2.17826736105428
-0.0566150442030697 0.324399976365431 2.1340086795141
-0.0410813831030898 0.322736741220691 2.18449807887361
-0.0130746437289826 0.320860766291416 2.13789241542275
0.00341204972841556 0.319683549769413 2.18666192402292
0.031104336324794 0.317731291775527 2.1459588025113
0.0490458404251025 0.313076953096577 2.20189400720459
0.0687858071703619 0.311337319482631 2.1587839893806
-0.179844577233073 0.0910265698739688 1.82565710771046
-0.157580769286114 0.0559844232913985 1.8117234457515
-0.111851702689721 0.0583571690287746 1.81923176026865
-0.0631523393373807 0.0541068984270034 1.82498745396172
-0.0182492900543071 0.0558875027841682 1.83242031661383
0.027129274251133 0.0550540484094513 1.83901356720684
0.0731215876624026 0.0510187034386286 1.84644217858758
-0.224838986543395 0.100011686370419 1.83708280022166
-0.182074997152691 0.12716597206249 1.85126443996976
-0.136230423145321 0.101170657321603 1.83663404877182
-0.0853381885583466 0.0940777272612381 1.84081970426447
-0.0410195989580355 0.0974252287969276 1.85065007105863
0.003497743741167 0.0973998427285056 1.85846316260739
0.0486617361338765 0.0944785635446506 1.86438786218469
0.0920198422830368 0.0847031105770832 1.87186275840049
0.126659896849236 0.0880413554586555 1.89685898959164
-0.229556117281454 0.135454565363032 1.86798283658595
-0.189531412667637 0.160622910181119 1.88467780614851
-0.143751423574646 0.143687041111914 1.87178077957195
-0.104661520433792 0.127284327490202 1.86308985739517
-0.0618578109875107 0.132743597802526 1.87707879013843
-0.0181578197958781 0.133476802721437 1.88658751084093
0.0299296306837928 0.129729725586189 1.89242166453342
0.0797186012334549 0.121887824301929 1.89876543831981
0.124463175731949 0.120578921909349 1.92767112614202
-0.236212466278003 0.167760534559668 1.90251367719695
-0.191024550919503 0.19277128425798 1.91706540118696
-0.145086002092788 0.177515170458053 1.9058965401251
-0.0985986835058416 0.160716905243729 1.89814423270182
-0.0516384049338202 0.167679238384855 1.91463721541176
-0.00147188472096001 0.163691540754766 1.92064371417091
0.046302409608531 0.159507185987371 1.92598267244942
0.0883485157196568 0.151699049323296 1.93386320946964
0.123520548982402 0.155211537796468 1.96312814290354
-0.239506766608538 0.199064254851648 1.93481832556547
-0.193364294965813 0.223359285491019 1.94794311138972
-0.144496376360397 0.211621777144794 1.94068093912539
-0.102056517762342 0.193507978886543 1.9307795208514
-0.0641572514725301 0.202416397869475 1.94743379930826
-0.0194837676638667 0.196465139041136 1.95034285323612
0.0285003317614034 0.192830276296087 1.9562699665445
0.0775098064307402 0.186481778161141 1.96416434866511
0.122675411230169 0.186307269840149 1.99496894263984
-0.242542746260789 0.22950461005079 1.96618703742779
-0.19952041317909 0.253626249346294 1.97884966981229
-0.149587785450784 0.243809177532742 1.97237476624899
-0.100440568131514 0.231529148467677 1.96974934343854
-0.0489001916942357 0.23180418091682 1.98036344334648
-0.000762525840235187 0.227115447198551 1.98525076902089
0.0456216712383251 0.223653646191003 1.99109331214537
0.0870693149002112 0.216555122863333 2.00011588752293
0.122089828123248 0.220382606589054 2.03018628086796
-0.246982422424935 0.262276595422086 2.00050776264421
-0.209010638165325 0.284422501206636 2.01154813343162
-0.162078456299896 0.277535247360874 2.00421539521085
-0.115538198651761 0.267353442935958 2.00313401891284
-0.0709130141490716 0.262900397820667 2.0075556229546
-0.021952180917212 0.260731874874354 2.01516979188321
0.0268328064751158 0.257113301109889 2.02127371054597
0.0758859351060995 0.251458276153432 2.03023996685805
0.120704908876531 0.250901607554219 2.06184386706413
-0.242546588886803 0.296959533300302 2.03966289806676
-0.18595315880244 0.306806992569184 2.04004399941022
-0.137258031886175 0.30037757356631 2.03846943442446
-0.0926485598613173 0.295570919114969 2.04182052150909
-0.0478027240385186 0.291459293422137 2.04631916302811
-0.00144696187169847 0.288483367608429 2.05289710111573
0.0436085224162191 0.28558000935692 2.05942980219909
0.0842558913140668 0.278886318430032 2.06942565761309
0.11610765173391 0.278094334683402 2.10271555417199
-0.217493899721845 0.319086340073447 2.07084477940236
-0.163317875023929 0.322482539336998 2.07646956433098
-0.117568414535251 0.319040785408769 2.08233878283879
-0.0725247036121032 0.315029392075876 2.08636272453825
-0.0267888477086759 0.310975672157443 2.0905360274992
0.020335638544891 0.307857232987095 2.09774601955732
0.0672344873312501 0.302738750791293 2.10784199318672
3 0 1 2
3 0 2 4
3 3 0 4
3 3 4 6
3 5 3 6
3 5 6 8
3 7 5 8
3 7 8 10
3 9 7 10
3 9 10 12
3 11 9 12
3 13 11 14
3 14 11 12
3 13 14 15
3 16 17 18
3 16 18 1
3 0 19 1
3 19 16 1
3 0 3 20
3 19 0 20
3 3 5 21
3 20 3 21
3 5 7 22
3 21 5 22
3 7 9 23
3 22 7 23
3 9 11 24
3 23 9 24
3 24 11 25
3 25 11 13
3 13 15 26
3 27 13 26
3 25 13 27
3 27 26 28
3 17 16 30
3 30 16 29
3 29 19 31
3 29 16 19
3 31 20 32
3 31 19 20
3 32 21 33
3 32 20 21
3 21 22 33
3 33 22 34
3 22 23 34
3 34 23 35
3 23 24 35
3 35 24 36
3 24 25 36
3 36 25 37
3 37 27 38
3 37 25 27
3 38 28 39
3 38 27 28
3 30 40 41
3 30 29 40
3 29 31 42
3 40 29 42
3 31 32 43
3 42 31 43
3 32 33 44
3 43 32 44
3 33 34 45
3 44 33 45
3 34 35 46
3 45 34 46
3 35 36 47
3 46 35 47
3 36 37 47
3 47 37 48
3 37 38 48
3 48 38 49
3 49 39 50
3 49 38 39
3 40 51 52
3 41 40 52
3 51 42 53
3 51 40 42
3 42 43 53
3 53 43 54
3 43 44 54
3 54 44 55
3 44 45 55
3 55 45 56
3 45 46 56
3 56 46 57
3 46 47 58
3 57 46 58
3 47 48 59
3 58 47 59
3 48 49 60
3 59 48 60
3 49 50 61
3 60 49 61
3 51 62 63
3 52 51 63
3 51 53 64
3 62 51 64
3 53 54 65
3 64 53 65
3 54 55 66
3 65 54 66
3 55 56 67
3 66 55 67
3 56 57 67
3 67 57 68
3 57 58 69
3 68 57 69
3 58 59 69
3 69 59 70
3 59 60 70
3 70 60 71
3 71 61 72
3 71 60 61
3 62 73 74
3 63 62 74
3 62 64 75
3 73 62 75
3 64 65 75
3 75 65 76
3 65 66 76
3 76 66 77
3 66 67 77
3 77 67 78
3 67 68 78
3 78 68 79
3 79 69 80
3 79 68 69
3 80 70 81
3 80 69 70
3 81 71 82
3 81 70 71
3 82 72 83
3 82 71 72
3 74 73 85
3 85 73 84
3 84 73 86
3 86 73 75
3 75 76 86
3 86 76 87
3 76 77 88
3 87 76 88
3 77 78 89
3 88 77 89
3 78 79 90
3 89 78 90
3 79 80 91
3 90 79 91
3 80 81 92
3 91 80 92
3 81 82 93
3 92 81 93
3 93 83 94
3 93 82 83
3 84 95 85
3 84 86 96
3 97 84 96
3 95 84 97
3 96 87 98
3 96 86 87
3 87 88 98
3 98 88 99
3 88 89 99
3 99 89 100
3 89 90 100
3 100 90 101
3 101 91 102
3 101 90 91
3 102 92 103
3 102 91 92
3 92 93 103
3 105 103 104
3 103 93 104
3 93 94 104
3 96 106 97
3 96 98 107
3 106 96 107
3 98 99 108
3 107 98 108
3 99 100 109
3 108 99 109
3 100 101 110
3 109 100 110
3 101 102 111
3 110 101 111
3 111 102 112
3 112 102 103
3 103 105 112
3 117 114 115
3 116 113 117
3 117 113 114
3 116 117 119
3 118 116 119
3 118 119 121
3 120 118 121
3 120 121 123
3 122 120 123
3 122 123 125
3 124 122 125
3 124 125 127
3 126 124 127
3 126 127 128
3 129 130 131
3 114 129 131
3 114 113 129
3 113 2 129
3 129 2 1
3 4 113 116
3 4 2 113
3 6 116 118
3 6 4 116
3 8 118 120
3 8 6 118
3 10 120 122
3 10 8 120
3 12 122 124
3 12 10 122
3 14 124 126
3 14 12 124
3 133 126 128
3 15 14 126
3 15 126 133
3 132 15 133
3 132 133 134
3 135 136 137
3 137 17 135
3 137 18 17
3 18 137 130
3 129 18 130
3 18 129 1
3 15 132 26
3 139 132 134
3 139 138 132
3 138 28 26
3 132 138 26
3 138 139 140
3 136 135 142
3 142 135 141
3 17 30 135
3 135 30 141
3 143 39 28
3 138 143 28
3 143 140 144
3 143 138 140
3 141 145 146
3 142 141 146
3 41 145 141
3 30 41 141
3 147 39 143
3 147 50 39
3 147 144 148
3 147 143 144
3 145 149 150
3 146 145 150
3 52 149 145
3 41 52 145
3 151 50 147
3 151 155 50
3 151 148 152
3 151 147 148
3 149 153 154
3 150 149 154
3 63 153 149
3 52 63 149
3 155 61 50
3 155 72 61
3 155 151 156
3 156 151 152
3 154 157 158
3 154 153 157
3 74 157 153
3 63 74 153
3 159 72 155
3 159 83 72
3 159 156 160
3 159 155 156
3 158 157 162
3 162 157 161
3 74 85 161
3 157 74 161
3 163 83 159
3 163 94 83
3 163 160 164
3 163 159 160
3 161 165 162
3 165 95 166
3 165 161 95
3 161 85 95
3 165 166 167
3 95 97 166
3 105 104 168
3 170 94 163
3 170 168 94
3 169 168 170
3 94 168 104
3 163 164 170
3 166 171 167
3 173 171 172
3 172 171 106
3 171 97 106
3 171 166 97
3 172 107 174
3 172 106 107
3 174 108 175
3 174 107 108
3 175 109 176
3 175 108 109
3 176 110 177
3 176 109 110
3 177 111 178
3 177 110 111
3 178 112 180
3 178 111 112
3 181 105 168
3 181 180 105
3 179 178 180
3 180 112 105
3 168 169 181
3 172 182 173
3 182 172 183
3 183 172 174
3 174 175 184
3 183 174 184
3 175 176 185
3 184 175 185
3 176 177 186
3 185 176 186
3 177 178 187
3 186 177 187
3 187 179 188
3 187 178 179
3 179 180 229
3 189 190 191
3 114 131 191
3 115 114 191
3 115 191 192
3 115 192 193
3 117 115 193
3 119 193 194
3 119 117 193
3 119 194 121
3 121 194 195
3 121 195 123
3 123 195 196
3 123 196 125
3 125 196 197
3 127 197 198
3 127 125 197
3 128 198 199
3 200 128 199
3 128 127 198
3 200 199 201
3 202 203 204
3 131 130 189
3 190 189 204
3 189 130 202
3 189 202 204
3 131 189 191
3 128 200 133
3 134 200 205
3 206 205 201
3 134 133 200
3 205 200 201
3 205 206 207
3 136 208 203
3 202 137 136
3 202 136 203
3 137 202 130
3 134 205 139
3 139 205 207
3 140 139 207
3 211 207 209
3 136 142 208
3 208 142 210
3 211 140 207
3 211 144 140
3 146 212 210
3 142 146 210
3 148 144 213
3 213 144 211
3 150 214 212
3 146 150 212
3 215 148 213
3 215 152 148
3 154 216 150
3 150 216 214
3 219 152 217
3 217 152 215
3 158 218 216
3 154 158 216
3 219 156 152
3 219 160 156
3 158 220 218
3 158 162 220
3 221 160 219
3 221 164 160
3 162 165 222
3 223 220 222
3 220 162 222
3 165 167 222
3 169 170 224
3 225 164 221
3 224 170 164
3 224 164 225
3 222 226 223
3 167 171 227
3 226 167 227
3 226 227 228
3 226 222 167
3 171 173 227
3 180 181 229
3 181 169 230
3 231 169 224
3 230 169 231
3 230 229 181
3 224 225 271
3 227 232 228
3 232 182 233
3 232 173 182
3 227 173 232
3 182 183 234
3 233 182 234
3 183 184 234
3 234 184 235
3 184 185 235
3 235 185 236
3 185 186 236
3 236 186 237
3 186 187 237
3 237 187 238
3 238 188 239
3 238 187 188
3 188 179 229
3 240 239 188
3 240 188 229
3 229 230 240
3 191 190 242
3 242 190 241
3 192 242 243
3 192 191 242
3 192 243 244
3 193 192 244
3 194 244 245
3 194 193 244
3 194 245 246
3 195 194 246
3 195 246 247
3 196 195 247
3 196 247 248
3 197 196 248
3 197 248 249
3 198 197 249
3 199 198 249
3 250 199 249
3 201 199 251
3 251 199 250
3 204 252 253
3 204 203 252
3 190 253 241
3 190 204 253
3 206 251 254
3 206 201 251
3 207 206 255
3 255 206 254
3 203 256 252
3 203 208 256
3 257 209 255
3 255 209 207
3 210 258 208
3 208 258 256
3 211 209 259
3 259 209 257
3 212 260 210
3 210 260 258
3 213 211 259
3 261 213 259
3 214 262 260
3 212 214 260
3 215 213 261
3 263 215 261
3 216 264 214
3 214 264 262
3 217 215 263
3 265 217 263
3 218 266 264
3 216 218 264
3 219 217 265
3 267 219 265
3 218 268 266
3 218 220 268
3 221 219 267
3 269 221 267
3 223 270 268
3 220 223 268
3 225 221 269
3 271 225 269
3 223 226 272
3 270 223 272
3 272 228 273
3 272 226 228
3 274 231 275
3 274 230 231
3 275 231 271
3 271 231 224
3 273 228 276
3 276 228 232
3 276 233 277
3 276 232 233
3 233 234 278
3 277 233 278
3 234 235 279
3 278 234 279
3 235 236 280
3 279 235 280
3 236 237 281
3 280 236 281
3 237 238 282
3 281 237 282
3 238 239 283
3 282 238 283
3 327 239 284
3 284 239 240
3 240 230 274
3 284 240 274
3 241 285 286
3 242 241 286
3 242 286 243
3 243 286 287
3 243 287 288
3 244 243 288
3 245 288 289
3 245 244 288
3 245 289 246
3 246 289 290
3 246 290 247
3 247 290 291
3 247 291 248
3 248 291 292
3 248 292 293
3 249 248 293
3 249 293 250
3 250 293 294
3 250 294 295
3 251 250 295
3 252 296 297
3 253 252 297
3 241 297 285
3 241 253 297
3 254 295 298
3 254 251 295
3 254 298 299
3 255 254 299
3 256 300 252
3 252 300 296
3 257 255 299
3 301 257 299
3 258 302 300
3 256 258 300
3 259 257 303
3 303 257 301
3 260 304 258
3 258 304 302
3 261 259 303
3 305 261 303
3 262 306 304
3 260 262 304
3 263 261 305
3 307 263 305
3 264 308 262
3 262 308 306
3 265 263 307
3 309 265 307
3 266 310 308
3 264 266 308
3 267 265 309
3 311 267 309
3 266 312 310
3 266 268 312
3 269 267 311
3 313 269 311
3 270 314 312
3 268 270 312
3 271 269 315
3 315 269 313
3 270 272 316
3 314 270 316
3 316 273 317
3 316 272 273
3 318 275 319
3 318 274 275
3 275 271 315
3 319 275 315
3 273 276 320
3 317 273 320
3 276 277 320
3 320 277 321
3 277 278 322
3 321 277 322
3 322 279 323
3 322 278 279
3 279 280 323
3 323 280 324
3 280 281 324
3 324 281 325
3 281 282 325
3 325 282 326
3 282 283 326
3 326 283 327
3 283 239 327
3 327 284 328
3 284 274 318
3 328 284 318
3 285 329 330
3 286 285 330
3 286 330 287
3 287 330 331
3 287 331 332
3 288 287 332
3 288 332 289
3 289 332 333
3 289 333 334
3 290 289 334
3 290 334 335
3 291 290 335
3 291 335 292
3 292 335 336
3 292 336 337
3 293 292 337
3 293 337 294
3 294 337 338
3 294 338 339
3 295 294 339
3 296 340 341
3 297 296 341
3 285 341 329
3 285 297 341
3 298 339 342
3 298 295 339
3 298 342 343
3 299 298 343
3 300 344 296
3 296 344 340
3 301 299 343
3 345 301 343
3 302 346 344
3 300 302 344
3 303 301 347
3 347 301 345
3 304 348 302
3 302 348 346
3 305 303 347
3 349 305 347
3 306 350 348
3 304 306 348
3 307 305 351
3 351 305 349
3 308 352 306
3 306 352 350
3 309 307 353
3 353 307 351
3 310 354 352
3 308 310 352
3 311 309 355
3 355 309 353
3 312 356 310
3 310 356 354
3 313 311 355
3 357 313 355
3 314 358 356
3 312 314 356
3 315 313 359
3 359 313 357
3 314 316 360
3 358 314 360
3 360 317 361
3 360 316 317
3 362 319 363
3 362 318 319
3 319 315 359
3 363 319 359
3 317 320 364
3 361 317 364
3 320 321 364
3 364 321 365
3 321 322 366
3 365 321 366
3 322 323 366
3 366 323 367
3 323 324 368
3 367 323 368
3 324 325 369
3 368 324 369
3 325 326 370
3 369 325 370
3 326 327 371
3 370 326 371
3 327 328 371
3 371 328 372
3 328 318 362
3 372 328 362
3 329 373 374
3 330 329 374
3 330 374 331
3 331 374 375
3 331 375 376
3 332 331 376
3 332 376 333
3 333 376 377
3 333 377 378
3 334 333 378
3 334 378 379
3 335 334 379
3 335 379 336
3 336 379 380
3 336 380 381
3 337 336 381
3 337 381 338
3 338 381 382
3 338 382 383
3 339 338 383
3 340 384 385
3 341 340 385
3 329 385 373
3 329 341 385
3 342 383 386
3 342 339 383
3 342 386 387
3 343 342 387
3 344 388 340
3 340 388 384
3 345 343 387
3 389 345 387
3 346 390 388
3 344 346 388
3 347 345 391
3 391 345 389
3 348 392 346
3 346 392 390
3 349 347 391
3 393 349 391
3 350 394 348
3 348 394 392
3 351 349 395
3 395 349 393
3 352 396 350
3 350 396 394
3 353 351 395
3 397 353 395
3 354 398 396
3 352 354 396
3 355 353 399
3 399 353 397
3 356 400 354
3 354 400 398
3 357 355 399
3 401 357 399
3 358 402 400
3 356 358 400
3 359 357 403
3 403 357 401
3 358 360 404
3 402 358 404
3 404 361 405
3 404 360 361
3 406 363 407
3 406 362 363
3 363 359 403
3 407 363 403
3 361 364 408
3 405 361 408
3 364 365 408
3 408 365 409
3 365 366 410
3 409 365 410
3 366 367 410
3 410 367 411
3 367 368 412
3 411 367 412
3 368 369 412
3 412 369 413
3 369 370 413
3 413 370 414
3 370 371 415
3 414 370 415
3 371 372 415
3 415 372 416
3 372 362 406
3 416 372 406
3 373 417 418
3 374 373 418
3 374 418 375
3 375 418 419
3 375 419 420
3 376 375 420
3 376 420 377
3 377 420 421
3 377 421 422
3 378 377 422
3 378 422 423
3 379 378 423
3 380 423 424
3 380 379 423
3 380 424 425
3 381 380 425
3 382 425 426
3 382 381 425
3 382 426 427
3 383 382 427
3 384 428 429
3 385 384 429
3 373 429 417
3 373 385 429
3 386 427 430
3 386 383 427
3 386 430 431
3 387 386 431
3 384 432 428
3 384 388 432
3 389 387 431
3 433 389 431
3 390 434 432
3 388 390 432
3 435 389 433
3 435 391 389
3 390 436 434
3 390 392 436
3 393 391 435
3 437 393 435
3 394 438 436
3 392 394 436
3 395 393 439
3 439 393 437
3 396 440 438
3 394 396 438
3 397 395 439
3 441 397 439
3 398 442 440
3 396 398 440
3 399 397 443
3 443 397 441
3 400 444 398
3 398 444 442
3 401 399 443
3 445 401 443
3 402 446 444
3 400 402 444
3 403 401 447
3 447 401 445
3 402 404 448
3 446 402 448
3 448 405 449
3 448 404 405
3 450 407 451
3 450 406 407
3 407 403 447
3 451 407 447
3 405 408 452
3 449 405 452
3 408 409 452
3 452 409 453
3 409 410 454
3 453 409 454
3 410 411 454
3 454 411 455
3 411 412 456
3 455 411 456
3 412 413 456
3 456 413 457
3 457 414 458
3 457 413 414
3 414 415 459
3 458 414 459
3 415 416 459
3 459 416 460
3 416 406 450
3 460 416 450
3 418 461 462
3 418 417 461
3 419 462 463
3 419 418 462
3 419 463 464
3 420 419 464
3 420 464 421
3 421 464 465
3 421 465 466
3 422 421 466
3 422 466 467
3 423 422 467
3 424 467 468
3 424 423 467
3 424 468 469
3 425 424 469
3 426 469 470
3 426 425 469
3 427 426 471
3 471 426 470
3 429 428 473
3 473 428 472
3 417 473 505
3 417 429 473
3 430 427 471
3 520 430 471
3 431 474 475
3 431 430 474
3 428 476 472
3 428 432 476
3 433 431 475
3 477 433 475
3 434 478 476
3 432 434 476
3 479 433 477
3 479 435 433
3 434 480 478
3 434 436 480
3 437 435 479
3 481 437 479
3 438 482 436
3 436 482 480
3 439 437 483
3 483 437 481
3 440 484 482
3 438 440 482
3 441 439 483
3 485 441 483
3 442 486 440
3 440 486 484
3 443 441 487
3 487 441 485
3 444 488 442
3 442 488 486
3 445 443 487
3 489 445 487
3 444 446 488
3 488 446 490
3 491 445 489
3 491 447 445
3 490 446 492
3 492 446 448
3 492 449 493
3 492 448 449
3 494 451 495
3 494 450 451
3 451 447 491
3 495 451 491
3 449 452 496
3 493 449 496
3 496 453 497
3 496 452 453
3 453 454 498
3 497 453 498
3 498 455 499
3 498 454 455
3 455 456 500
3 499 455 500
3 456 457 501
3 500 456 501
3 457 458 502
3 501 457 502
3 458 459 503
3 502 458 503
3 503 460 504
3 503 459 460
3 504 460 494
3 494 460 450
3 461 505 506
3 462 461 506
3 507 463 462
3 507 462 506
3 465 463 508
3 508 463 507
3 464 463 465
3 465 508 509
3 465 509 466
3 466 509 510
3 466 510 467
3 467 510 511
3 467 511 468
3 468 511 512
3 468 512 513
3 469 468 513
3 469 513 470
3 515 470 514
3 470 513 514
3 470 515 471
3 472 516 473
3 518 516 517
3 518 505 516
3 461 417 505
3 505 473 516
3 505 518 506
3 515 514 519
3 474 430 520
3 521 520 519
3 520 471 515
3 520 515 519
3 474 520 524
3 476 522 472
3 516 472 523
3 472 522 523
3 516 523 517
3 520 521 524
3 477 475 524
3 524 475 474
3 525 477 524
3 478 526 522
3 476 478 522
3 527 477 525
3 527 479 477
3 478 528 526
3 478 480 528
3 481 479 527
3 529 481 527
3 482 530 480
3 480 530 528
3 483 481 531
3 531 481 529
3 484 532 530
3 482 484 530
3 485 483 531
3 533 485 531
3 486 534 484
3 484 534 532
3 535 485 533
3 535 487 485
3 486 536 534
3 486 488 536
3 537 489 535
3 535 489 487
3 490 538 539
3 536 490 539
3 488 490 536
3 538 540 539
3 541 542 543
3 541 489 537
3 542 541 537
3 541 491 489
3 490 492 538
3 545 493 544
3 538 492 493
3 538 493 545
3 540 538 545
3 544 546 545
3 547 548 549
3 543 495 541
3 547 494 495
3 547 495 543
3 608 547 543
3 495 491 541
3 493 496 544
3 544 497 550
3 546 544 550
3 544 496 497
3 550 497 551
3 551 497 498
3 498 499 551
3 551 499 552
3 499 500 552
3 552 500 553
3 500 501 553
3 553 501 554
3 554 502 555
3 554 501 502
3 502 503 556
3 555 502 556
3 503 504 556
3 549 504 547
3 556 504 549
3 504 494 547
3 506 557 507
3 507 557 558
3 508 507 558
3 508 558 559
3 509 508 559
3 509 559 560
3 510 509 560
3 510 560 561
3 511 510 561
3 511 561 562
3 512 511 562
3 514 512 563
3 563 512 562
3 513 512 514
3 517 564 518
3 518 564 557
3 566 564 565
3 557 564 566
3 557 506 518
3 558 566 567
3 558 557 566
3 559 567 568
3 559 558 567
3 560 568 569
3 560 559 568
3 561 569 570
3 561 560 569
3 562 570 571
3 562 561 570
3 563 562 571
3 572 563 571
3 574 514 563
3 572 574 563
3 573 519 574
3 574 519 514
3 519 573 521
3 522 575 523
3 577 575 576
3 577 517 575
3 564 517 577
3 575 517 523
3 564 577 565
3 573 574 572
3 521 573 579
3 580 573 578
3 579 573 580
3 579 524 521
3 524 579 525
3 522 581 575
3 522 526 581
3 576 581 582
3 576 575 581
3 583 580 584
3 583 579 580
3 583 525 579
3 583 527 525
3 526 585 581
3 526 528 585
3 582 585 586
3 582 581 585
3 587 584 588
3 587 583 584
3 587 527 583
3 587 529 527
3 528 589 585
3 528 530 589
3 586 589 590
3 586 585 589
3 591 588 592
3 591 587 588
3 591 529 587
3 591 531 529
3 532 593 589
3 530 532 589
3 590 593 594
3 590 589 593
3 595 592 596
3 595 591 592
3 595 531 591
3 595 533 531
3 534 597 593
3 532 534 593
3 594 597 598
3 594 593 597
3 599 596 600
3 599 595 596
3 599 533 595
3 599 535 533
3 534 601 597
3 534 536 601
3 602 597 601
3 602 598 597
3 603 599 600
3 604 603 600
3 603 535 599
3 603 537 535
3 536 539 601
3 606 540 605
3 606 602 540
3 602 601 539
3 540 602 539
3 605 607 606
3 608 609 610
3 608 543 609
3 604 542 603
3 609 543 542
3 609 542 604
3 542 537 603
3 540 545 605
3 605 546 607
3 612 607 611
3 605 545 546
3 607 546 611
3 612 613 614
3 612 611 613
3 614 615 616
3 614 613 615
3 616 617 618
3 616 615 617
3 618 619 620
3 618 617 619
3 620 621 622
3 620 619 621
3 622 623 624
3 622 621 623
3 610 548 608
3 624 623 548
3 624 548 610
3 548 623 549
3 548 547 608
3 546 550 611
3 611 550 613
3 613 550 551
3 551 552 615
3 613 551 615
3 552 553 617
3 615 552 617
3 553 554 619
3 617 553 619
3 554 555 621
3 619 554 621
3 621 555 623
3 623 555 556
3 556 549 623
3 565 625 626
3 567 566 626
3 626 566 565
3 567 626 627
3 568 567 627
3 568 627 628
3 569 568 628
3 569 628 629
3 570 569 629
3 570 629 630
3 571 570 630
3 572 571 631
3 631 571 630
3 572 631 578
3 576 632 577
3 625 632 633
3 565 577 632
3 565 632 625
3 625 633 634
3 626 625 634
3 626 634 627
3 627 634 635
3 627 635 628
3 628 635 636
3 628 636 629
3 629 636 637
3 629 637 630
3 630 637 638
3 631 638 639
3 631 630 638
3 640 578 639
3 578 573 572
3 578 631 639
3 578 640 580
3 576 641 632
3 576 582 641
3 633 641 642
3 633 632 641
3 633 642 643
3 634 633 643
3 634 643 644
3 635 634 644
3 635 644 645
3 636 635 645
3 636 645 646
3 637 636 646
3 637 646 647
3 638 637 647
3 638 647 648
3 639 638 648
3 640 648 649
3 640 639 648
3 584 580 640
3 649 584 640
3 582 650 641
3 582 586 650
3 642 650 651
3 642 641 650
3 642 651 652
3 643 642 652
3 643 652 653
3 644 643 653
3 644 653 645
3 645 653 654
3 645 654 646
3 646 654 655
3 646 655 647
3 647 655 656
3 647 656 648
3 648 656 657
3 648 657 649
3 649 657 658
3 588 584 649
3 658 588 649
3 586 659 650
3 586 590 659
3 650 659 651
3 651 659 660
3 651 660 661
3 652 651 661
3 652 661 662
3 653 652 662
3 653 662 654
3 654 662 663
3 654 663 664
3 655 654 664
3 655 664 665
3 656 655 665
3 656 665 666
3 657 656 666
3 657 666 658
3 658 666 667
3 592 588 658
3 667 592 658
3 590 668 659
3 590 594 668
3 660 668 669
3 660 659 668
3 660 669 670
3 661 660 670
3 661 670 671
3 662 661 671
3 662 671 663
3 663 671 672
3 663 672 664
3 664 672 673
3 664 673 665
3 665 673 674
3 665 674 666
3 666 674 675
3 666 675 667
3 667 675 676
3 596 592 667
3 676 596 667
3 594 677 668
3 594 598 677
3 668 677 669
3 669 677 678
3 669 678 679
3 670 669 679
3 670 679 680
3 671 670 680
3 671 680 681
3 672 671 681
3 672 681 682
3 673 672 682
3 673 682 683
3 674 673 683
3 674 683 684
3 675 674 684
3 676 684 685
3 676 675 684
3 600 596 676
3 685 600 676
3 598 686 677
3 598 602 606
3 678 686 687
3 678 677 686
3 678 687 679
3 679 687 688
3 679 688 680
3 680 688 689
3 680 689 681
3 681 689 690
3 681 690 682
3 682 690 691
3 683 691 692
3 683 682 691
3 684 692 693
3 684 683 692
3 685 693 694
3 685 684 693
3 694 604 685
3 685 604 600
3 598 606 686
3 606 607 695
3 686 606 695
3 686 695 687
3 688 687 696
3 696 687 695
3 688 696 697
3 689 688 697
3 689 697 698
3 690 689 698
3 690 698 699
3 691 690 699
3 691 699 700
3 692 691 700
3 692 700 701
3 693 692 701
3 610 609 694
3 701 610 694
3 701 694 693
3 609 604 694
3 607 612 695
3 695 612 696
3 696 612 614
3 614 616 697
3 696 614 697
3 616 618 698
3 697 616 698
3 618 620 699
3 698 618 699
3 620 622 700
3 699 620 700
3 622 624 701
3 700 622 701
3 624 610 701
