OFF
702 1400 0
-0.250225799737677 -0.354615419123979 2.10709859043403
-0.295841980266035 -0.340302858720792 2.09029718505503
-0.267565622020344 -0.357571634676 2.06158131513315
-0.203264718451235 -0.36093672006318 2.1112819886752
-0.22148597815634 -0.368063203407278 2.06603799640103
-0.156393219104897 -0.365214276650113 2.11403349547545
-0.175040611721163 -0.371856903093887 2.06779923442865
-0.110957492215049 -0.368938184554524 2.11802882886712
-0.129662957638827 -0.375435798618153 2.06927809946991
-0.0660084883823233 -0.372496074846755 2.12239330697041
-0.0848503200261876 -0.378792377943884 2.07357568849497
-0.0184547689772826 -0.375441284544179 2.12970074842312
-0.0390049527103269 -0.382031192131344 2.0817372561344
0.0296142970473083 -0.370956205673589 2.13821832319815
0.00835066198102323 -0.383597241198463 2.09052677736844
0.0547819139296987 -0.374718330982594 2.09975644073485
-0.318717334328968 -0.313894591740042 2.12036064787236
-0.348712988889272 -0.295159203157307 2.09415142460739
-0.327245011800546 -0.323001394641847 2.06377649017033
-0.278041323883152 -0.33061085721634 2.13892569138801
-0.2312141016377 -0.339807374589942 2.1502269818883
-0.183446778658167 -0.344749036207473 2.15361488991934
-0.136620309502555 -0.348425646073386 2.15862203794115
-0.0913501315369888 -0.351602306708205 2.16411561529814
-0.0469850467756183 -0.35656572311656 2.16624434747333
0.00168742663538239 -0.357213160375183 2.17334117958714
0.0753923412433248 -0.354618531434351 2.14482200429585
0.0467495484612314 -0.345034856103723 2.18176759232472
0.0925973800401519 -0.324199572473492 2.18067174217128
-0.305916029145543 -0.295614398805365 2.16315298084068
-0.346351419787876 -0.273879435824515 2.13660380027286
-0.259750424470822 -0.309604876290978 2.17971398717309
-0.209714618866714 -0.315838853532663 2.18726066520372
-0.162054663451854 -0.319897660038235 2.19210360486924
-0.114388962723554 -0.322185462331402 2.19903090728414
-0.0696392043572735 -0.324749769646006 2.20504356926997
-0.0272907531714589 -0.333481570063261 2.20332132403891
0.0139749633405551 -0.325409793994885 2.21439477999684
0.0594736130174763 -0.311548555601016 2.21657750438739
0.104002181565077 -0.288315641790125 2.21140487749601
-0.324554533096712 -0.259997937005575 2.18619340419457
-0.358018986636655 -0.237259178186058 2.16121008116458
-0.28336371740149 -0.275738089014013 2.20627816217453
-0.234205649408161 -0.286438038199232 2.21669258239828
-0.185399431774617 -0.288486469610557 2.22432603902423
-0.137883578028548 -0.292940873676021 2.22867563167227
-0.0863541231517074 -0.293740288137674 2.23813149702738
-0.0313922900601131 -0.302509624782434 2.23890900717047
0.0189803653658215 -0.295186830523727 2.24857369669393
0.0692664560196086 -0.278982444284067 2.24814831409553
0.113686229041661 -0.251880140601404 2.24184343433759
-0.308818028892409 -0.238457975996447 2.23016543746747
-0.349570992838301 -0.219147397982182 2.20036701179799
-0.259349275412179 -0.255969774184432 2.24383756573397
-0.211890023819275 -0.258350869340992 2.25441469885674
-0.166316602597089 -0.259331222812764 2.26245662320204
-0.122280712437816 -0.266649281803668 2.26273679723035
-0.0888603935298956 -0.255545564070247 2.28253416355998
-0.0538330094802515 -0.273515476844832 2.26847278768446
-0.0115336731637874 -0.270190925210172 2.27943774813196
0.0362928729399342 -0.263162710772242 2.28110022177176
0.0841060467786159 -0.243532786542229 2.27804009935656
-0.312364935136425 -0.200647601354067 2.27287957460612
-0.340465850217263 -0.200945941799593 2.23800055257857
-0.279168073067362 -0.226353371653193 2.26851159600084
-0.232030033552611 -0.229180735765239 2.28464200705833
-0.187276446763071 -0.228057205463945 2.29500037233154
-0.138298103091847 -0.232713280001773 2.29940676497424
-0.0928980646558371 -0.227347624255039 2.31487538464169
-0.0453410316858705 -0.239829917260876 2.30979328001763
0.00269102834985226 -0.239391878435942 2.31509653069175
0.0503621437936369 -0.231282543609414 2.31202864884646
0.0975442494969414 -0.208126266068934 2.30628997209389
-0.301958090955994 -0.17838178693532 2.30964397145244
-0.34630658934906 -0.163966331777551 2.27545648138847
-0.263004796993542 -0.202192590268411 2.30621319776307
-0.217063917695394 -0.196646898047166 2.32592126728041
-0.166962560562659 -0.20087818673102 2.33105478834611
-0.121143634005616 -0.200692090182059 2.34051835803386
-0.0695526342784576 -0.204475127241163 2.34647833746014
-0.0245306877407945 -0.210566090799332 2.34801012069967
0.0218103508882045 -0.207190281694902 2.34934267189046
0.0656330212088484 -0.198828203308807 2.34074979187076
0.101720056233174 -0.172681337457507 2.3412720038078
-0.297543130005355 -0.14095820164168 2.34792855626897
-0.331380735061843 -0.147936745028752 2.31434192187021
-0.26377607544985 -0.170414945987221 2.34146715361885
-0.229286143816323 -0.159303483912664 2.35994923760525
-0.186448823802292 -0.167463442255563 2.36098045962673
-0.141306188793096 -0.167662298458988 2.36863545470425
-0.0940459838153336 -0.170893057130848 2.37426347867933
-0.0453768711972866 -0.174869158884163 2.37955854627278
0.00294678122190718 -0.177552981276986 2.38099503338819
0.0544422019231199 -0.170790799232195 2.37368049889868
0.101427803848188 -0.138650013041328 2.36787736614369
-0.339160779862149 -0.109930800872905 2.33379401609495
-0.260487503537801 -0.122872648037748 2.37496855456661
-0.304324030566013 -0.0981962472129523 2.36575870410969
-0.210991752078603 -0.123557533941748 2.38410263797919
-0.164890046859808 -0.128172602256195 2.38883956761475
-0.118185001045635 -0.129137093266613 2.39533283732937
-0.0723199900014268 -0.13362500169782 2.40010322188701
-0.0255862459124959 -0.138002921319761 2.40476100378553
0.0210912403050728 -0.139074463599657 2.40255051480092
0.0653371448454874 -0.131726275056076 2.39272347223826
0.0467145064925574 -0.0941935504313656 2.41180960563456
-0.277686134253685 -0.0721218829788851 2.38537276171751
-0.235120136436583 -0.081446336421413 2.39467746519654
-0.186051766136395 -0.0832409572216824 2.40071559547559
-0.14026787082919 -0.0843174020215092 2.40643146304682
-0.0939502790704871 -0.0857064591931573 2.41213066920628
-0.0492978015526198 -0.0923208747048525 2.41661797942009
-0.00153438444428848 -0.0964215478572612 2.41924437044823
-0.245604046397257 -0.362570078621411 2.02188950434962
-0.269605491976628 -0.346603309667345 1.98742184593962
-0.246209395905465 -0.337200321901183 1.95035506767797
-0.195923623390676 -0.368614716031088 2.02205827186051
-0.21771814004331 -0.357218038439128 1.98167102126402
-0.149842181962443 -0.37101817186671 2.02118246369511
-0.169573330797227 -0.356884202251928 1.97605592268444
-0.104393083726551 -0.373837750065058 2.02348427826793
-0.124245330638209 -0.358213300614984 1.97659881965931
-0.0590122206504047 -0.377612792593663 2.03090085196279
-0.0766210754331104 -0.361913596189844 1.98245475705808
-0.0140393388135135 -0.381778633679049 2.04098564637499
-0.0308379541178826 -0.36687286349222 1.99131605286957
0.0320191175279061 -0.380584837096857 2.04954753367662
0.0134403728080698 -0.371453418953986 2.00229581066745
0.0613118884410158 -0.364754821911359 2.01167242976311
-0.297335684044057 -0.343298978247956 2.03103819861582
-0.336113114441406 -0.312166472690717 2.01708767584758
-0.306477848137371 -0.32544963653444 1.98370213880847
0.0993336870643802 -0.354450963133469 2.10522544283981
0.0750964933834026 -0.369140745580361 2.05951355839896
0.114580600349385 -0.347549772167973 2.06286491725836
-0.374327087419619 -0.259159059817169 2.08686478580976
-0.384854470832892 -0.243607684735459 2.03820015692452
-0.36168021892696 -0.286662741779208 2.04837009402166
0.120238742393055 -0.328244295291016 2.14055877854847
0.140721513984768 -0.323617055238508 2.09638989403212
0.157627486331331 -0.294035752460054 2.12563100721112
-0.376644186505957 -0.232649905767145 2.12013825176051
-0.392732543892207 -0.213728477880027 2.0749928758586
0.133918487109566 -0.294278913675629 2.17104747380117
0.164664830557151 -0.256757755105835 2.15873999456359
-0.380608586229918 -0.196398195339372 2.15643618160354
-0.393441438631479 -0.186316838796049 2.11327605932051
0.141520798764877 -0.255798956594715 2.20163696465255
0.170822841034513 -0.216523133920693 2.18566316219017
-0.375151055692854 -0.179800892449282 2.19538945087856
-0.395928271692338 -0.148877290581705 2.15514190252035
0.14991773642511 -0.21646705784257 2.22972376077602
0.174981434928729 -0.176414968544088 2.21459709068157
-0.367329986716268 -0.16428240460966 2.23538554954124
-0.39143206790011 -0.134068877024724 2.2014910795722
0.126742049700128 -0.21246036956427 2.26934668811444
0.158939743313171 -0.173130376701573 2.2576604320236
-0.381372265394142 -0.125323238715591 2.25017423898187
-0.399964729384113 -0.0892000902389886 2.22125717087462
0.133911978453441 -0.174492936077154 2.30042017131272
0.163791374281744 -0.134962045809903 2.28595538024565
-0.365836953329791 -0.120352182823021 2.29205420438749
-0.390431037490035 -0.0810877713132679 2.26923847546835
0.137145329247528 -0.139160971281149 2.33111484090365
0.160521754425372 -0.100145620364349 2.31990077189443
-0.36900561740534 -0.0765013069850524 2.31246753606606
-0.336940379710573 -0.0673899214727109 2.35060402457279
-0.356997641513554 -0.0329037488378765 2.33321272079857
0.0938773907962771 -0.0932446893063597 2.39100214128353
0.1168698742334 -0.0528258686180347 2.37939360638206
0.130642229938984 -0.09903574903991 2.36005945179194
-0.311639807283857 -0.040932626143243 2.371541138718
-0.259218236186807 -0.0313154028841653 2.39398278461357
-0.291403913582082 -0.00229551798354015 2.37851105465336
-0.209552469752507 -0.0401138370082491 2.40212151070908
-0.162317469921626 -0.0371892464683066 2.40740153212479
-0.115694037660556 -0.0385610160495548 2.41266186048083
-0.0688563573972537 -0.0399973629695317 2.41792789504947
-0.0258142975870292 -0.0507545707866594 2.42308645165691
-0.000632422754619416 -0.0138251577855465 2.41950979507316
0.0248876924505917 -0.0539123036418477 2.42097873857391
0.0735742341093616 -0.0522657269168162 2.40606381180917
-0.258119136316465 0.0270415568935788 2.38256070884015
-0.226317411939926 0.00273160383013336 2.39558598786717
-0.18223404749591 0.00817428228682324 2.39853907210456
-0.13613952345514 0.00824930958059548 2.40286880447043
-0.0894378116874618 0.00626184419075614 2.40780260719175
-0.0410168717087006 0.00456571128568206 2.41279533988453
0.0146985239979842 0.0242989065527779 2.40619253844891
-0.33443465852311 -0.293260403281636 1.96873455648358
-0.318317923712911 -0.277825353987458 1.93039619717669
-0.287430563502641 -0.314084150117895 1.94247745420617
-0.238681694924562 -0.313083335264378 1.915479206004
-0.196518017681428 -0.337572750059909 1.94036947197906
-0.146032207662134 -0.332552979442511 1.93379987620424
-0.0960057281386127 -0.337788036400842 1.94156801595104
-0.043915058448949 -0.341839557960386 1.9478088636767
0.00144248611055307 -0.347528855183997 1.956222153083
0.0455952820539473 -0.351321622859336 1.97204557915771
0.0878915897882648 -0.332943270460053 1.97179176006523
0.100789177801932 -0.348370184997911 2.01915793227991
0.127179054956217 -0.321249846409221 2.00232396995322
-0.364395513690356 -0.272737593812721 2.00297053700335
-0.382372331152928 -0.225973082104737 1.99183038791856
-0.358816937680778 -0.25141250067037 1.96061231817659
0.143884686396521 -0.320095160073515 2.04694137667578
0.159551749805633 -0.290069083933269 2.01671976408223
0.169642628593384 -0.288836290880762 2.07195673043249
-0.39672784805154 -0.194506064830767 2.02957644907007
0.189134943603826 -0.246432454877118 2.07086184152957
-0.399865028875553 -0.164806758220088 2.0633249124769
0.181301050259905 -0.255885641526808 2.11305118480773
-0.400927924412951 -0.144279661779507 2.10688629421343
0.186701023496663 -0.214760403478913 2.13838111197988
-0.403219863464826 -0.105095636503663 2.12391097290539
0.189068605118323 -0.1754324932503 2.16386266303775
-0.403117382617347 -0.0990890883967794 2.17140457220589
0.189514411222131 -0.139126967226161 2.19250936726404
-0.406526097553645 -0.0521618747996397 2.19161866890822
0.181713010844625 -0.128284538953075 2.23839858082554
-0.402665955097478 -0.0430570723203414 2.24235917305463
0.181718454549793 -0.0905983487467899 2.27263049278064
-0.385807625070816 -0.0363091266955494 2.29062828960504
-0.392511923889413 0.00200789642006535 2.26307516428488
0.150064975228397 -0.0565724838717911 2.3452782433608
0.17431539189072 -0.0585963470094558 2.3040862943452
-0.368723889504087 0.00631842922739287 2.3093739813
-0.333817012047296 0.00070508247961111 2.35037004343413
-0.341073797470402 0.0431525253497765 2.32419360478967
0.0492220203122129 -0.0115416500989338 2.41036870907963
0.095649122058118 -0.0106429880926641 2.38866962312944
0.134489752254306 -0.0113176584014848 2.35651417242606
-0.304208101308626 0.0385218047545728 2.35738753695019
-0.263830431247535 0.0653255304507553 2.36151113516551
-0.211223516947078 0.049162728430894 2.38047011448011
-0.162191212177869 0.0514217618718973 2.38301331206029
-0.114834331399705 0.0504314742271317 2.38705483001068
-0.067445047698985 0.0473030456805555 2.39227791790595
-0.0214549790186682 0.0480460092246116 2.39514291301099
0.0321009188008997 0.0598908954833521 2.38277641208076
0.0660238229882152 0.0279205744802292 2.39002978698183
-0.307264903501616 -0.244779153239534 1.8961530286998
-0.275615279526216 -0.284167469749047 1.9041640577075
-0.227204700050823 -0.280343575326636 1.88394907061122
-0.189726848240948 -0.309191854579418 1.90619745663966
-0.146148202234927 -0.296700197802422 1.89723040627471
-0.105862391349243 -0.30452448372035 1.9060136292115
-0.0587880349013485 -0.313446657661515 1.91615484369401
-0.00260309364382671 -0.314428112908273 1.91980644477948
0.0450266037410102 -0.324309623082758 1.93672534798567
0.0901638879651381 -0.300365375425864 1.93654183227613
0.128207147926328 -0.29680619513629 1.96879018313616
-0.370817635660441 -0.198737618337923 1.9486853679686
-0.342873743333601 -0.235503193076103 1.9262349112517
0.160819678590263 -0.260874017912335 1.98012324096007
0.181111424730715 -0.254599002054214 2.02851273701605
-0.389894415991789 -0.178255524224856 1.9891590096868
0.197453255031722 -0.207235581232143 2.04418989123627
-0.395335141236657 -0.138471816381822 2.0196395584855
0.196553234059522 -0.2063315152817 2.09397665667656
-0.399256312901081 -0.116453128033802 2.06801446327312
0.19708985941651 -0.164644736664527 2.11729690810636
-0.398544124658359 -0.0735954156705803 2.08945041540728
0.19668841222591 -0.12640155043184 2.14545682103104
-0.40340653925247 -0.0596285924182236 2.1409081702121
0.193599137797846 -0.0968422062473706 2.19145259350952
-0.402425045579333 -0.0149496989999993 2.16109966738523
0.190507814394084 -0.0765895935615107 2.2314540286089
-0.403799061922152 -0.00609352590085463 2.21275237770257
0.185513261350731 -0.0341368857504732 2.26815278458792
-0.388908878607713 0.0383783608008939 2.23312124082866
0.164282418497468 -0.0160198468232144 2.31634882034034
-0.370103758339479 0.0441182379827118 2.28087069617252
-0.337370775628184 0.0808204732989804 2.29422886111428
0.108280380127402 0.0298975924861971 2.36232254965028
0.143495532970243 0.02691086620515 2.32594746268987
-0.303366246611248 0.0778497264215178 2.33104499092617
-0.259920507437014 0.104387019849356 2.3306366575706
-0.224181576256126 0.0852965664626002 2.35624869272081
-0.179296269995655 0.089344169434764 2.35549148859806
-0.135177767354668 0.0898968090264572 2.35727287014026
-0.0884248586893178 0.0860312511836003 2.36298599090679
-0.0451165657911206 0.0859601370403583 2.36526235270197
-0.0024893371075301 0.0841346597775818 2.36848917784753
0.0752414121526522 0.0667797260386073 2.35975918842219
-0.304035140917588 -0.209371650772976 1.86842449630569
-0.265380003055998 -0.248402174830354 1.87166159341697
-0.218504443422869 -0.244950930506508 1.85334754897839
-0.178700288123565 -0.271420646379736 1.87384335709858
-0.124909069972399 -0.261961572625031 1.86846654786663
-0.0789340108808846 -0.274459323698858 1.88155700521649
-0.0331969875194527 -0.286238497924179 1.89401805387242
0.0101452260046161 -0.27400927257263 1.88572694465018
0.0478973629370334 -0.291278998459439 1.90719760346239
0.0943831866654585 -0.264969030973256 1.90515839033822
0.131117366141101 -0.264270630740709 1.93786454328177
-0.366023529488973 -0.160285059801011 1.91963356361875
-0.341522244183314 -0.200539769367711 1.90246570626638
0.166582063591628 -0.226186556903544 1.95023291486851
0.186738437258494 -0.219332839678945 1.99678709132785
-0.385206786579208 -0.144961909135068 1.96446501604982
0.203571446006269 -0.172263817874046 2.01667991286797
-0.388825174233799 -0.10028141877822 1.98753276620566
0.202780779868121 -0.162815877685365 2.06887100618138
-0.393194104522981 -0.0861443550153704 2.03472878927216
0.20307017043715 -0.117590307427367 2.09552504609914
-0.392570875537516 -0.041246913703362 2.05825905706211
0.20035103419485 -0.0818473506932121 2.1422687534403
-0.39718374956599 -0.0260075508051609 2.108287958006
0.198407672480621 -0.0518884116754055 2.17852869190102
-0.396346970133546 0.0197795543867059 2.13052548901397
0.194766356850052 -0.0340010921918263 2.22151588948554
-0.397716658856559 0.0300653685504794 2.18267804600584
0.191035461800154 0.00843177625221041 2.23830995875829
-0.382732971418248 0.0741778617735128 2.20281965749546
0.172893536147291 0.0152253647807948 2.28349057387706
-0.364114923295824 0.0800142884657752 2.25051999864285
-0.330428245836003 0.117264552500256 2.26411913630225
0.114931668432973 0.0676935548545166 2.33041442074041
0.15089828650354 0.0615804413480289 2.29449485647771
-0.297146816889382 0.114082079007416 2.30043353298922
-0.248600867056059 0.139157346535345 2.30304389430203
-0.208276523687257 0.120189013831504 2.32750487315226
-0.157335825371701 0.127077790513027 2.32419129503252
-0.104626071078615 0.12051377414307 2.33252777657196
-0.0562481593153358 0.122139042820109 2.33360600110879
-0.010150587186855 0.120063645602915 2.33774703760348
0.0377508009868224 0.0991655540417508 2.35003104224919
0.079051514476815 0.105122290276547 2.32868199850839
-0.298585422225923 -0.174573940568731 1.83927419379056
-0.260551446734085 -0.212621439232212 1.84187688772929
-0.212619201831997 -0.211105994499576 1.82454799870233
-0.167649367986512 -0.237982269892667 1.84567507658603
-0.120472612128684 -0.222780780910658 1.83502685938968
-0.0783655429534588 -0.237389513587409 1.84973389481671
-0.0336804057890487 -0.251041201308492 1.86374949087838
0.0126216542993706 -0.236378526746753 1.85351864681423
0.0558589097187188 -0.254005368041071 1.87599167969337
0.101267647076219 -0.228667114022167 1.87473178093906
0.137134025488021 -0.230113003006668 1.90899836525478
-0.35964670106183 -0.12382062444795 1.88837385246216
-0.336246359917791 -0.166697426130474 1.87438522408694
0.172830332054142 -0.191284276388565 1.92107896357415
0.193221883506718 -0.183479550617033 1.96763353089024
-0.37890254936817 -0.11157193656857 1.93401948736011
0.209596704607925 -0.137492456336693 1.98836522543156
-0.382597954334921 -0.0670996088676085 1.9546623742946
0.20862954216981 -0.126822252336188 2.04111580085407
-0.386992457049035 -0.0480521548705695 2.0052483471836
0.20986865518885 -0.0817984762353137 2.05935331818907
-0.387168733333585 -0.00405687479557384 2.03515416345392
0.205791216104041 -0.0676012406871908 2.10404423402552
-0.391150618787114 0.0104384780339794 2.07921268891247
0.205188115740445 -0.0257573750788334 2.13629128543958
-0.390076794624409 0.0545367212700899 2.09829689007878
0.201238246756137 -0.00338954025260604 2.18513870922214
-0.391836401821344 0.0646517260979646 2.15167317324692
0.198102267335893 0.0413885322219364 2.20527922757547
-0.376660938922134 0.109190982955294 2.17332379798136
0.178331757473146 0.0538021666918687 2.25314139785653
-0.357492660336436 0.115910050064917 2.22099711449319
-0.322199246717354 0.153050859676385 2.23630644297347
0.12027527105436 0.104104190036813 2.3002553157695
0.15622425189698 0.0985291335936398 2.26444581296602
-0.287425157791531 0.149590595518544 2.27291974187342
-0.239126209353479 0.174034290436912 2.27455069298126
-0.197658212118281 0.154201314810743 2.29882189709464
-0.152833648243596 0.168649788847319 2.28870060244135
-0.115613123886378 0.152250053675293 2.30469575851627
-0.0679339662597184 0.155663270490866 2.30420176865599
-0.0175556050075919 0.156342167990855 2.3061954097307
0.032615694018402 0.135851414376957 2.32150487740201
0.080291020259961 0.140581135494957 2.30107318156179
-0.292427824437519 -0.13970154668028 1.80946569485209
-0.255036163724466 -0.177194375789003 1.81202663462961
-0.208760429548485 -0.176247886346253 1.79530120984551
-0.164388207156796 -0.203250367868966 1.81599858136071
-0.114738466496399 -0.185742650933496 1.80349396824943
-0.0726496546322506 -0.199520288710974 1.81748555351119
-0.0306391882315425 -0.214753647893274 1.83272468162988
0.0155921446952559 -0.199072104282969 1.82161444599739
0.0591783870559852 -0.218626992653817 1.84504504850085
0.104410650559774 -0.194481122137287 1.84382514427395
0.143279886346449 -0.195455556166025 1.87975975491166
-0.354731171122056 -0.0867589869844414 1.85985589063221
-0.330136774469366 -0.132391365196471 1.84491167111413
0.178720356687331 -0.156519535026341 1.89135933274135
0.199333668487291 -0.148197924704301 1.93786085564421
-0.37304236371573 -0.0743201263791405 1.90423014796278
0.215428722961459 -0.103108272187016 1.9576809192754
-0.375815297499075 -0.0267165282011614 1.92159634417101
0.21500178331637 -0.0910799622270445 2.00862578111686
-0.380479153113744 -0.0210320554812591 1.96591205515145
0.215650757621881 -0.0433991490405991 2.03372396541832
-0.381887149255909 0.00868630236279063 1.99734583339901
0.211092101569509 -0.029915399034343 2.08215637809584
-0.384321017290818 0.046568004972599 2.04299360774531
0.211627481497894 0.0135512674677714 2.10552346504578
-0.384213259217048 0.0885938764852159 2.06915842115574
0.207188840471543 0.0269348417697698 2.1528405915619
-0.385944785653321 0.0989855645513477 2.12248584885797
0.204607443854155 0.0742436300821257 2.17411209411626
-0.36972759605408 0.144767205543188 2.14660308283279
0.185220417817392 0.088025438578618 2.22192035717837
-0.350243162990021 0.151450635180244 2.19322494210995
-0.315198305882093 0.188185248778977 2.20761539113132
0.124939765405843 0.139701606621096 2.2712526866823
0.1624690335963 0.133394023360309 2.23443970923552
-0.279476102213378 0.184613775095662 2.24450675454852
-0.233019782134073 0.209638545252976 2.24426934506531
-0.190966436206804 0.191809965080058 2.26684883798121
-0.140443155566039 0.205369492706289 2.2577817494271
-0.100909023187807 0.187507947687754 2.27515195310038
-0.05264715665782 0.190690922560866 2.27488532414684
-0.00457389759970006 0.191901731828173 2.27630380024784
0.0358135556534858 0.169222183890834 2.29360195977652
0.0873307791238962 0.173772153078192 2.27215387920287
-0.293763115262931 -0.102853242484408 1.78521770476425
-0.248720901077367 -0.140885314076134 1.78110352663204
-0.200849398820767 -0.142293059938888 1.76605568146131
-0.159380408798705 -0.170140486738747 1.78780443648722
-0.1096335670285 -0.15034013333649 1.77338377890735
-0.0659798942403376 -0.161387513759272 1.78506094414118
-0.0260663721678242 -0.176167012058312 1.79980153862701
0.0173927590500787 -0.161307912148686 1.78926759636114
0.0618657617130126 -0.183579436078984 1.81427757956714
0.108420904180859 -0.159858642206276 1.81312873934892
0.145546700521406 -0.163484550386345 1.84881980384622
-0.34944910366207 -0.0490839221073175 1.83121973804754
-0.327480443145869 -0.0960128360946219 1.81882482622469
0.179195842235548 -0.127278511810703 1.85777762431554
0.205156893941552 -0.112906194000159 1.9069062830706
-0.367021184796998 -0.0357820430278565 1.87361234521604
0.222281897087826 -0.065009282641743 1.93830808476356
-0.369658540405636 0.0117054342041611 1.89664567433999
0.220704040738569 -0.0526473775667338 1.98371955469416
-0.374867434516527 0.024549483963472 1.94640069204596
0.22167936950162 -0.0060444980791199 2.00399459585976
-0.378433559987876 0.0503406894448711 1.99411547057358
0.217206836895196 0.00642549848254739 2.05230130767951
-0.377652831935382 0.0926283143930825 2.0145791060753
0.217891804485382 0.0503114495698074 2.07416677251718
-0.378951883815597 0.127053545463984 2.04818775180713
0.213367897545884 0.0639390993949785 2.12285202178474
-0.379602763956463 0.134588400957444 2.09793890991159
0.210460101304018 0.109472938358143 2.14478858230121
-0.36348833232874 0.179995072925536 2.11744611383982
0.191524709599351 0.122164165590724 2.19194376961206
-0.343434260505385 0.187073518373886 2.16438063298446
-0.309186298117237 0.223257261278175 2.17778011617211
0.131604293245883 0.17466148689845 2.24093507375413
0.168692821007115 0.16832286453677 2.20435698659719
-0.273749655599658 0.219557304769232 2.21459959779412
-0.227564654951246 0.24478272941222 2.21414004073878
-0.183856330649178 0.22751086419264 2.23653576194936
-0.13526003281731 0.239721395781312 2.22850309736291
-0.0875970503454904 0.224638640255617 2.24392751607621
-0.0375904043792725 0.225581971243348 2.24567470091386
0.0089199674425199 0.226004089098154 2.24769092473955
0.0480866904197288 0.202299122767006 2.26413531866167
0.0942769021664906 0.208768072787353 2.24189832512784
-0.256470210193094 -0.102838928481445 1.75966467009982
-0.214942850122173 -0.106159704759668 1.74595385468096
-0.168543507073638 -0.103219963604028 1.7397425732027
-0.15354664973616 -0.137256893186707 1.76071251475205
-0.116378998061738 -0.109192892812337 1.74647651159118
-0.0695905915561018 -0.121104304295572 1.75619436269832
-0.0226854543342259 -0.132283080058025 1.76599586690175
0.0251931325284662 -0.121347132040511 1.76354464985915
0.0647525198045347 -0.149327390227556 1.78563350365758
0.109101812135471 -0.123047424323707 1.78599538601102
0.14951483643774 -0.127442076824797 1.81869155927547
-0.337239548126066 -0.0115945687291839 1.80669485268792
-0.320448505358484 -0.0580594332574897 1.79134918120885
0.19813723121202 -0.0899006368989887 1.86133794406611
0.215813545999354 -0.0677111777251937 1.89515110609088
-0.357475940672344 0.00391094739535471 1.84644760257298
0.221171435892459 -0.0245279423146661 1.90673939053562
-0.354683786277498 0.0478485173531319 1.86848828802151
0.22401135266954 -0.0137102531636267 1.95232340548748
-0.364382376066752 0.0604715962067472 1.91365315370663
0.220391491575 0.0294682632080086 1.97207182589521
-0.371338863424612 0.076843624503592 1.95982467838459
0.220591227233938 0.0437553955617764 2.01999380823915
-0.365450777669391 0.122128627119227 1.97563224629496
0.2173701096908 0.0857709022624873 2.04295187443506
-0.368543708904395 0.14862668771739 2.0120512491494
0.217201289350039 0.100280173857271 2.0905767328441
-0.37250774791977 0.168959676060203 2.06707964316318
0.211154435592371 0.141426521468494 2.11363229941467
-0.354840406298809 0.209811193462419 2.08284888207901
0.195676371513852 0.157086380795229 2.16210216317813
-0.337406702320735 0.220748676748746 2.1325039394646
-0.301937874911063 0.253282658593817 2.14500444667381
0.136533120178832 0.209651701717118 2.20922535983223
0.168437455394345 0.202518581928461 2.17208636939715
-0.266501751529895 0.253802058746434 2.18398544051948
-0.217964791135091 0.276638427658667 2.17897110431838
-0.180649106204684 0.262329110168326 2.20382952076302
-0.138868759182028 0.271235431890107 2.19331268031284
-0.0947111232722201 0.261321950647058 2.20722917665712
-0.050040350879978 0.257046993167129 2.21356593311649
3.32088347802934e-05 0.256565839760377 2.2152087495675
0.0520199842384867 0.238663262118044 2.23179442790409
0.0973709155715534 0.240169602193108 2.20919817830815
-0.281971832514796 -0.0622235450021933 1.75881331952889
-0.236592650920243 -0.0627726440472645 1.73645587099272
-0.18892332167071 -0.0639254420301093 1.72680127360545
-0.137050909175568 -0.0678047058411229 1.72970753034193
-0.0865189808755536 -0.0743526509429279 1.73621823132001
-0.0403567593216403 -0.0842733781188814 1.74333154746002
0.00375463400093223 -0.0837711139708426 1.74731176841707
0.050758044898131 -0.0734260548737343 1.74951279097634
0.0713220041368228 -0.108638766037448 1.76432097367816
0.103227676507454 -0.0729402494178196 1.76404261646879
0.139796987771796 -0.0905791780169024 1.79036481336662
-0.302058724766295 -0.020545849568763 1.76799895543692
-0.277015972051111 0.021537218650937 1.75488497009065
-0.259542061451344 -0.0213560788929808 1.74060344089521
0.149876449843211 -0.0495021140652855 1.78850103079731
0.17614847480704 -0.0836748316890916 1.82296346487419
0.179310481001946 -0.0361318263926986 1.81676938211639
-0.334349675016016 0.0423702928861341 1.81949854798448
-0.314506836167063 0.0207244109403036 1.78505327820471
0.203516571920106 -0.0427315539269753 1.85439040211764
0.208688633113987 -0.000875494792074966 1.87216193245981
-0.331220597116147 0.0796152160608462 1.8465573594367
0.214470317332575 0.0242903263302727 1.9159281709529
-0.341142213806439 0.0988127430208617 1.88631521142684
0.2093473427197 0.0610533170565217 1.94416724866408
-0.353639712313731 0.108758246247545 1.92620054950524
0.211898469338928 0.0812090745530896 1.9867635230283
-0.342741474952917 0.147889188744038 1.94064805641002
0.206914141405498 0.117848700271253 2.01468165966535
-0.346668469770952 0.175557743473314 1.97768443065065
0.20926353119824 0.137824273660336 2.05705955834354
-0.360179213421813 0.189782243082735 2.03061448889606
0.201611480384285 0.172997853997244 2.08426093032408
-0.326541227447318 0.246671561732977 2.09541745579643
-0.338448859352481 0.231966186259276 2.0465895053624
-0.307663693262254 0.264962143103162 2.0534125509253
0.192122045633187 0.187448148575752 2.1288286713449
0.178672986821728 0.214128117261959 2.08583752122085
0.165409866018735 0.225905062840384 2.13135158761145
-0.258840832627346 0.279611912554176 2.14766136486721
-0.292648955649761 0.273859227696777 2.10627274542137
-0.250882663398575 0.295821753870165 2.10558136153978
0.13268289060982 0.241350852815338 2.17086818598016
0.100196073455468 0.274051530817035 2.13566207295402
0.0879226585485244 0.266185492945831 2.1743688032697
-0.211700699810407 0.297350930029643 2.13937114786122
-0.16769581413431 0.291491533709417 2.15897783662797
-0.11477501605734 0.289295690178848 2.1613005688738
-0.0702866601133654 0.28436803791581 2.16997478950604
-0.0264602619692521 0.281160119270153 2.17492744472082
0.0162809034854458 0.280490572183404 2.1743091921246
0.0495315970454765 0.265679227561286 2.19723790550459
-0.210718821290924 -0.0212367710368825 1.72458912642741
-0.159423597726978 -0.0249323238381244 1.72162181012846
-0.10864096223682 -0.0289336768215902 1.72727636130211
-0.0607525630269927 -0.033722152848632 1.73281788297569
-0.0159111235378266 -0.0372372984945711 1.73797093688839
0.0281576459143997 -0.0330220163095104 1.74285506783124
0.076748766682788 -0.0316149512439536 1.75064797174269
-0.232803289117282 0.0198375211765874 1.73407415568351
-0.205697675938748 0.0573203285949686 1.7390086858792
-0.18140225896926 0.0182973386043989 1.72470841394212
-0.130594600412138 0.015062590710336 1.72781507098865
-0.082918564301492 0.0140089516141578 1.73374865645035
-0.035637889866533 0.0106347062625631 1.73919783531351
0.00913464961451813 0.0121407878985926 1.74533511195085
0.056074340103268 0.0114197129601941 1.75143442672824
0.104227941025488 0.0124805629182484 1.76609039471367
0.151367637323156 0.00313515281114339 1.79331134478698
0.120264880989104 -0.0279440553944207 1.76810773649888
-0.2951515533489 0.0606922301165432 1.78386820507433
-0.263305730357751 0.0992265250117233 1.78709718725882
-0.252597568403273 0.0620301215583316 1.75624133524192
0.12717620007173 0.04554740878491 1.79125616768366
0.185281914611526 0.0054615019027011 1.83094020513262
0.163267434603651 0.0456933094453881 1.82315175106066
-0.303071504754295 0.0908313787683469 1.81560532923959
-0.269904885758942 0.129174147334406 1.82387527924588
0.193648337812937 0.0406762565841855 1.86639676777676
0.165621909565237 0.079771493784053 1.85810118431551
-0.307772554804974 0.122457847064314 1.85597531783935
-0.2770039207618 0.15850032217218 1.86251709100999
0.192518691757495 0.0702371688585567 1.90025170259129
0.163581540746948 0.111082434719762 1.89425759772732
-0.31894433538556 0.145803794066421 1.89675364393587
-0.281937166268108 0.185704062804189 1.89712799345995
0.191004405789321 0.101871507013865 1.93803142252782
0.162444906338619 0.141419077055398 1.93063413917949
-0.315932507597279 0.183085384197781 1.93265465251016
-0.280109981049878 0.218610954267818 1.93206302090204
0.190219430994738 0.129350827802491 1.97226826257721
0.161673189760563 0.171106168695041 1.96679754952065
-0.313266912269138 0.216996986303187 1.96582473490667
-0.27962466417706 0.25313408669637 1.97174570750279
0.189052435884135 0.160429552163367 2.01028431569313
0.160352891209338 0.20100481409216 2.00234657168938
-0.336801599589645 0.215191387028445 2.00220121788654
-0.30769390008641 0.251970661403262 2.00793324955876
0.187246707827996 0.18835397845841 2.04400524018046
0.157030077247107 0.228224753023446 2.03963250626194
-0.274549433406081 0.287971553753748 2.0650958670937
-0.269477211919206 0.281794363874164 2.01673685509614
-0.237039296943817 0.302153502177279 2.05139775965162
0.134782848588418 0.255703073486104 2.12454944457556
0.148498300030304 0.246859618434718 2.08232128374065
0.10845429028532 0.274179796853773 2.08362959551334
-0.212528822184168 0.307925423354438 2.09152613795154
-0.186976419381922 0.310523660115988 2.05578701440657
-0.171994211451701 0.307571331183401 2.11008455955742
-0.143041837556933 0.308960320390756 2.06915705534767
-0.129513699866205 0.303582969490161 2.11914774710036
-0.098912374115267 0.30569417762875 2.07421309033656
-0.0827075861093331 0.30067533902556 2.12182195484474
-0.0540426027847176 0.3023091547434 2.07751411742065
-0.0383977531956409 0.297228219016654 2.12774023810975
-0.0104562427694603 0.299022475383211 2.0810922238198
0.00613265287430799 0.294560578928488 2.12963665594489
0.0337714612769227 0.295853209577506 2.08887094087587
0.0518694393500562 0.287428684630557 2.14431278546173
0.0715495654103688 0.289010260784946 2.10116933284006
-0.175060995285517 0.0901093225122074 1.75339201638529
-0.152408758718583 0.056421217060404 1.73696752715171
-0.106697356576421 0.0587981291892671 1.7445813464252
-0.0579405397647859 0.0547301944605287 1.74997073622733
-0.0130482113202306 0.0565120336823427 1.75746778430066
0.0323490597071103 0.0557523681529806 1.76394006284485
0.078399540211109 0.0517468744393475 1.77101610937246
-0.22013777233223 0.0977162288647779 1.76547484651006
-0.17767289337021 0.12429722950913 1.78151907866639
-0.13155015708385 0.0999639976916254 1.76502311771304
-0.0805697934281219 0.09319929279538 1.76864115574441
-0.0362760688940583 0.0963656008165091 1.77864214181659
0.00825269607817425 0.0963144124768183 1.78638974240009
0.0534589452544496 0.0935176159171704 1.79204616445087
0.0969435677738763 0.0837522865890304 1.7987606912738
0.131587373477078 0.0857098868314583 1.82389758369689
-0.225218236587682 0.130801497015401 1.79883373071428
-0.185464284249885 0.155189416750035 1.81724560768382
-0.139510390130696 0.139767186918821 1.80312616012679
-0.100244710483739 0.124496137884901 1.79324673032208
-0.0574831759887642 0.129453384845925 1.80754806886791
-0.0137775909082811 0.130027852361368 1.81704198317374
0.0343615333491227 0.126448863487419 1.82254619831946
0.0842515521439552 0.118769746234068 1.82826438447072
0.129061431682569 0.11593390358129 1.85695866357272
-0.232193919559522 0.160475456956753 1.83559182546191
-0.187279189318409 0.18492110027616 1.85184960809265
-0.141183498994676 0.171052616817425 1.83957380937594
-0.0945145244042148 0.155408459097454 1.83059506147283
-0.0476099539862894 0.16173559844583 1.84749739582569
0.00261125995824206 0.157929172170486 1.85315427649864
0.0504415284674497 0.153945694988703 1.85813361610137
0.0925916578846882 0.146097833735923 1.86539464666646
0.127773165016294 0.147930550476042 1.89480125363325
-0.235799991949431 0.189349091419871 1.87005448786354
-0.189924902662629 0.213194279093243 1.88483689002793
-0.140934618687221 0.202591026700746 1.87670640223752
-0.0983011518977654 0.185739955361988 1.86549398620669
-0.0604797251100795 0.193888168650637 1.88270519188631
-0.0157335449602978 0.18827898006241 1.88513759756485
0.0323010753390518 0.184804031887489 1.89074265642974
0.0813967867266581 0.178494267125085 1.89811498964169
0.126617694925384 0.176659181365562 1.92878398443998
-0.239139239414599 0.21743159924405 1.90352164581983
-0.196382855129726 0.24109955818152 1.91783374586205
-0.146349270479184 0.232368172976252 1.91062473022784
-0.0970647715232884 0.220895834563444 1.90708008031448
-0.0455119051512151 0.22102811849188 1.91763610384541
0.0026868622371848 0.216578206544695 1.92212855928773
0.0491194878962357 0.213262773312692 1.92766320398188
0.0906648764540799 0.206033895278359 1.93611465811372
0.125692615739138 0.208121410895316 1.96634732741577
-0.243904321169309 0.247611876871715 1.94010129545167
-0.206177665573088 0.269364812181966 1.95265902585617
-0.159180629865155 0.263580958099446 1.94480672195099
-0.112524955419763 0.254059816192211 1.94295469688963
-0.0678420655922797 0.249836242834163 1.94700291498581
-0.0188450783154906 0.247714909586909 1.95439456122005
0.0299905033083155 0.244253152263625 1.96017635140124
0.079123606764834 0.238558966597772 1.9686673397026
0.124003906798569 0.236281462524336 2.00010662153405
-0.23980833042623 0.279458781878772 1.98163086239264
-0.183335062463271 0.289929997887519 1.98265928928941
-0.134570079629165 0.284212394662772 1.98058142222109
-0.0899006705200586 0.279712450062425 1.98353660316937
-0.0450010530565551 0.275826532962617 1.98768584791083
0.0013987259954106 0.272942808268219 1.99398876198415
0.0464973772336774 0.270119141360102 2.00025301762079
0.087239532243682 0.263214911965078 2.00970498268641
0.119159434974717 0.26042714312098 2.04282185523671
-0.214962679857888 0.299598886795262 2.01428989418766
-0.160820519299642 0.303232182858272 2.02008986287754
-0.115022773358324 0.299927246275469 2.02565317051583
-0.06992735419951 0.296177585713069 2.02933589960682
-0.024139064046264 0.29238331498606 2.03316390332839
0.0230322328647035 0.289321480434814 2.04008631402973
0.0700069200318203 0.284055934786337 2.04974459315054
3 0 1 2
3 0 2 4
3 3 0 4
3 3 4 6
3 5 3 6
3 5 6 8
3 7 5 8
3 7 8 10
3 9 7 10
3 9 10 12
3 11 9 12
3 13 11 14
3 14 11 12
3 13 14 15
3 16 17 18
3 16 18 1
3 0 19 1
3 19 16 1
3 0 3 20
3 19 0 20
3 3 5 21
3 20 3 21
3 5 7 22
3 21 5 22
3 7 9 23
3 22 7 23
3 9 11 24
3 23 9 24
3 24 11 25
3 25 11 13
3 13 15 26
3 27 13 26
3 25 13 27
3 27 26 28
3 17 16 30
3 30 16 29
3 29 19 31
3 29 16 19
3 31 20 32
3 31 19 20
3 32 21 33
3 32 20 21
3 21 22 33
3 33 22 34
3 22 23 34
3 34 23 35
3 23 24 35
3 35 24 36
3 24 25 36
3 36 25 37
3 37 27 38
3 37 25 27
3 38 28 39
3 38 27 28
3 30 40 41
3 30 29 40
3 29 31 42
3 40 29 42
3 31 32 43
3 42 31 43
3 32 33 44
3 43 32 44
3 33 34 45
3 44 33 45
3 34 35 46
3 45 34 46
3 35 36 47
3 46 35 47
3 36 37 47
3 47 37 48
3 37 38 48
3 48 38 49
3 49 39 50
3 49 38 39
3 40 51 52
3 41 40 52
3 51 42 53
3 51 40 42
3 42 43 53
3 53 43 54
3 43 44 54
3 54 44 55
3 44 45 55
3 55 45 56
3 45 46 56
3 56 46 57
3 46 47 58
3 57 46 58
3 47 48 59
3 58 47 59
3 48 49 60
3 59 48 60
3 49 50 61
3 60 49 61
3 51 62 63
3 52 51 63
3 51 53 64
3 62 51 64
3 53 54 65
3 64 53 65
3 54 55 66
3 65 54 66
3 55 56 67
3 66 55 67
3 56 57 67
3 67 57 68
3 57 58 69
3 68 57 69
3 58 59 69
3 69 59 70
3 59 60 70
3 70 60 71
3 71 61 72
3 71 60 61
3 62 73 74
3 63 62 74
3 62 64 75
3 73 62 75
3 64 65 75
3 75 65 76
3 65 66 76
3 76 66 77
3 66 67 77
3 77 67 78
3 67 68 78
3 78 68 79
3 79 69 80
3 79 68 69
3 80 70 81
3 80 69 70
3 81 71 82
3 81 70 71
3 82 72 83
3 82 71 72
3 74 73 85
3 85 73 84
3 84 73 86
3 86 73 75
3 75 76 86
3 86 76 87
3 76 77 88
3 87 76 88
3 77 78 89
3 88 77 89
3 78 79 90
3 89 78 90
3 79 80 91
3 90 79 91
3 80 81 92
3 91 80 92
3 81 82 93
3 92 81 93
3 93 83 94
3 93 82 83
3 84 95 85
3 84 86 96
3 97 84 96
3 95 84 97
3 96 87 98
3 96 86 87
3 87 88 98
3 98 88 99
3 88 89 99
3 99 89 100
3 89 90 100
3 100 90 101
3 101 91 102
3 101 90 91
3 102 92 103
3 102 91 92
3 92 93 103
3 105 103 104
3 103 93 104
3 93 94 104
3 96 106 97
3 96 98 107
3 106 96 107
3 98 99 108
3 107 98 108
3 99 100 109
3 108 99 109
3 100 101 110
3 109 100 110
3 101 102 111
3 110 101 111
3 111 102 112
3 112 102 103
3 103 105 112
3 117 114 115
3 116 113 117
3 117 113 114
3 116 117 119
3 118 116 119
3 118 119 121
3 120 118 121
3 120 121 123
3 122 120 123
3 122 123 125
3 124 122 125
3 124 125 127
3 126 124 127
3 126 127 128
3 129 130 131
3 114 129 131
3 114 113 129
3 113 2 129
3 129 2 1
3 4 113 116
3 4 2 113
3 6 116 118
3 6 4 116
3 8 118 120
3 8 6 118
3 10 120 122
3 10 8 120
3 12 122 124
3 12 10 122
3 14 124 126
3 14 12 124
3 133 126 128
3 15 14 126
3 15 126 133
3 132 15 133
3 132 133 134
3 135 136 137
3 137 17 135
3 137 18 17
3 18 137 130
3 129 18 130
3 18 129 1
3 15 132 26
3 139 132 134
3 139 138 132
3 138 28 26
3 132 138 26
3 138 139 140
3 136 135 142
3 142 135 141
3 17 30 135
3 135 30 141
3 143 39 28
3 138 143 28
3 143 140 144
3 143 138 140
3 141 145 146
3 142 141 146
3 41 145 141
3 30 41 141
3 147 39 143
3 147 50 39
3 147 144 148
3 147 143 144
3 145 149 150
3 146 145 150
3 52 149 145
3 41 52 145
3 151 50 147
3 151 155 50
3 151 148 152
3 151 147 148
3 149 153 154
3 150 149 154
3 63 153 149
3 52 63 149
3 155 61 50
3 155 72 61
3 155 151 156
3 156 151 152
3 154 157 158
3 154 153 157
3 74 157 153
3 63 74 153
3 159 72 155
3 159 83 72
3 159 156 160
3 159 155 156
3 158 157 162
3 162 157 161
3 74 85 161
3 157 74 161
3 163 83 159
3 163 94 83
3 163 160 164
3 163 159 160
3 161 165 162
3 165 95 166
3 165 161 95
3 161 85 95
3 165 166 167
3 95 97 166
3 105 104 168
3 170 94 163
3 170 168 94
3 169 168 170
3 94 168 104
3 163 164 170
3 166 171 167
3 173 171 172
3 172 171 106
3 171 97 106
3 171 166 97
3 172 107 174
3 172 106 107
3 174 108 175
3 174 107 108
3 175 109 176
3 175 108 109
3 176 110 177
3 176 109 110
3 177 111 178
3 177 110 111
3 178 112 180
3 178 111 112
3 181 105 168
3 181 180 105
3 179 178 180
3 180 112 105
3 168 169 181
3 172 182 173
3 182 172 183
3 183 172 174
3 174 175 184
3 183 174 184
3 175 176 185
3 184 175 185
3 176 177 186
3 185 176 186
3 177 178 187
3 186 177 187
3 187 179 188
3 187 178 179
3 179 180 229
3 189 190 191
3 114 131 191
3 115 114 191
3 115 191 192
3 115 192 193
3 117 115 193
3 119 193 194
3 119 117 193
3 119 194 121
3 121 194 195
3 121 195 123
3 123 195 196
3 123 196 125
3 125 196 197
3 127 197 198
3 127 125 197
3 128 198 199
3 200 128 199
3 128 127 198
3 200 199 201
3 202 203 204
3 131 130 189
3 190 189 204
3 189 130 202
3 189 202 204
3 131 189 191
3 128 200 133
3 134 200 205
3 206 205 201
3 134 133 200
3 205 200 201
3 205 206 207
3 136 208 203
3 202 137 136
3 202 136 203
3 137 202 130
3 134 205 139
3 139 205 207
3 140 139 207
3 211 207 209
3 136 142 208
3 208 142 210
3 211 140 207
3 211 144 140
3 146 212 210
3 142 146 210
3 148 144 213
3 213 144 211
3 150 214 212
3 146 150 212
3 215 148 213
3 215 152 148
3 154 216 150
3 150 216 214
3 219 152 217
3 217 152 215
3 158 218 216
3 154 158 216
3 219 156 152
3 219 160 156
3 158 220 218
3 158 162 220
3 221 160 219
3 221 164 160
3 162 165 222
3 223 220 222
3 220 162 222
3 165 167 222
3 169 170 224
3 225 164 221
3 224 170 164
3 224 164 225
3 222 226 223
3 167 171 227
3 226 167 227
3 226 227 228
3 226 222 167
3 171 173 227
3 180 181 229
3 181 169 230
3 231 169 224
3 230 169 231
3 230 229 181
3 224 225 271
3 227 232 228
3 232 182 233
3 232 173 182
3 227 173 232
3 182 183 234
3 233 182 234
3 183 184 234
3 234 184 235
3 184 185 235
3 235 185 236
3 185 186 236
3 236 186 237
3 186 187 237
3 237 187 238
3 238 188 239
3 238 187 188
3 188 179 229
3 240 239 188
3 240 188 229
3 229 230 240
3 191 190 242
3 242 190 241
3 192 242 243
3 192 191 242
3 192 243 244
3 193 192 244
3 194 244 245
3 194 193 244
3 194 245 246
3 195 194 246
3 195 246 247
3 196 195 247
3 196 247 248
3 197 196 248
3 197 248 249
3 198 197 249
3 199 198 249
3 250 199 249
3 201 199 251
3 251 199 250
3 204 252 253
3 204 203 252
3 190 253 241
3 190 204 253
3 206 251 254
3 206 201 251
3 207 206 255
3 255 206 254
3 203 256 252
3 203 208 256
3 257 209 255
3 255 209 207
3 210 258 208
3 208 258 256
3 211 209 259
3 259 209 257
3 212 260 210
3 210 260 258
3 213 211 259
3 261 213 259
3 214 262 260
3 212 214 260
3 215 213 261
3 263 215 261
3 216 264 214
3 214 264 262
3 217 215 263
3 265 217 263
3 218 266 264
3 216 218 264
3 219 217 265
3 267 219 265
3 218 268 266
3 218 220 268
3 221 219 267
3 269 221 267
3 223 270 268
3 220 223 268
3 225 221 269
3 271 225 269
3 223 226 272
3 270 223 272
3 272 228 273
3 272 226 228
3 274 231 275
3 274 230 231
3 275 231 271
3 271 231 224
3 273 228 276
3 276 228 232
3 276 233 277
3 276 232 233
3 233 234 278
3 277 233 278
3 234 235 279
3 278 234 279
3 235 236 280
3 279 235 280
3 236 237 281
3 280 236 281
3 237 238 282
3 281 237 282
3 238 239 283
3 282 238 283
3 327 239 284
3 284 239 240
3 240 230 274
3 284 240 274
3 241 285 286
3 242 241 286
3 242 286 243
3 243 286 287
3 243 287 288
3 244 243 288
3 245 288 289
3 245 244 288
3 245 289 246
3 246 289 290
3 246 290 247
3 247 290 291
3 247 291 248
3 248 291 292
3 248 292 293
3 249 248 293
3 249 293 250
3 250 293 294
3 250 294 295
3 251 250 295
3 252 296 297
3 253 252 297
3 241 297 285
3 241 253 297
3 254 295 298
3 254 251 295
3 254 298 299
3 255 254 299
3 256 300 252
3 252 300 296
3 257 255 299
3 301 257 299
3 258 302 300
3 256 258 300
3 259 257 303
3 303 257 301
3 260 304 258
3 258 304 302
3 261 259 303
3 305 261 303
3 262 306 304
3 260 262 304
3 263 261 305
3 307 263 305
3 264 308 262
3 262 308 306
3 265 263 307
3 309 265 307
3 266 310 308
3 264 266 308
3 267 265 309
3 311 267 309
3 266 312 310
3 266 268 312
3 269 267 311
3 313 269 311
3 270 314 312
3 268 270 312
3 271 269 315
3 315 269 313
3 270 272 316
3 314 270 316
3 316 273 317
3 316 272 273
3 318 275 319
3 318 274 275
3 275 271 315
3 319 275 315
3 273 276 320
3 317 273 320
3 276 277 320
3 320 277 321
3 277 278 322
3 321 277 322
3 322 279 323
3 322 278 279
3 279 280 323
3 323 280 324
3 280 281 324
3 324 281 325
3 281 282 325
3 325 282 326
3 282 283 326
3 326 283 327
3 283 239 327
3 327 284 328
3 284 274 318
3 328 284 318
3 285 329 330
3 286 285 330
3 286 330 287
3 287 330 331
3 287 331 332
3 288 287 332
3 288 332 289
3 289 332 333
3 289 333 334
3 290 289 334
3 290 334 335
3 291 290 335
3 291 335 292
3 292 335 336
3 292 336 337
3 293 292 337
3 293 337 294
3 294 337 338
3 294 338 339
3 295 294 339
3 296 340 341
3 297 296 341
3 285 341 329
3 285 297 341
3 298 339 342
3 298 295 339
3 298 342 343
3 299 298 343
3 300 344 296
3 296 344 340
3 301 299 343
3 345 301 343
3 302 346 344
3 300 302 344
3 303 301 347
3 347 301 345
3 304 348 302
3 302 348 346
3 305 303 347
3 349 305 347
3 306 350 348
3 304 306 348
3 307 305 351
3 351 305 349
3 308 352 306
3 306 352 350
3 309 307 353
3 353 307 351
3 310 354 352
3 308 310 352
3 311 309 355
3 355 309 353
3 312 356 310
3 310 356 354
3 313 311 355
3 357 313 355
3 314 358 356
3 312 314 356
3 315 313 359
3 359 313 357
3 314 316 360
3 358 314 360
3 360 317 361
3 360 316 317
3 362 319 363
3 362 318 319
3 319 315 359
3 363 319 359
3 317 320 364
3 361 317 364
3 320 321 364
3 364 321 365
3 321 322 366
3 365 321 366
3 322 323 366
3 366 323 367
3 323 324 368
3 367 323 368
3 324 325 369
3 368 324 369
3 325 326 370
3 369 325 370
3 326 327 371
3 370 326 371
3 327 328 371
3 371 328 372
3 328 318 362
3 372 328 362
3 329 373 374
3 330 329 374
3 330 374 331
3 331 374 375
3 331 375 376
3 332 331 376
3 332 376 333
3 333 376 377
3 333 377 378
3 334 333 378
3 334 378 379
3 335 334 379
3 335 379 336
3 336 379 380
3 336 380 381
3 337 336 381
3 337 381 338
3 338 381 382
3 338 382 383
3 339 338 383
3 340 384 385
3 341 340 385
3 329 385 373
3 329 341 385
3 342 383 386
3 342 339 383
3 342 386 387
3 343 342 387
3 344 388 340
3 340 388 384
3 345 343 387
3 389 345 387
3 346 390 388
3 344 346 388
3 347 345 391
3 391 345 389
3 348 392 346
3 346 392 390
3 349 347 391
3 393 349 391
3 350 394 348
3 348 394 392
3 351 349 395
3 395 349 393
3 352 396 350
3 350 396 394
3 353 351 395
3 397 353 395
3 354 398 396
3 352 354 396
3 355 353 399
3 399 353 397
3 356 400 354
3 354 400 398
3 357 355 399
3 401 357 399
3 358 402 400
3 356 358 400
3 359 357 403
3 403 357 401
3 358 360 404
3 402 358 404
3 404 361 405
3 404 360 361
3 406 363 407
3 406 362 363
3 363 359 403
3 407 363 403
3 361 364 408
3 405 361 408
3 364 365 408
3 408 365 409
3 365 366 410
3 409 365 410
3 366 367 410
3 410 367 411
3 367 368 412
3 411 367 412
3 368 369 412
3 412 369 413
3 369 370 413
3 413 370 414
3 370 371 415
3 414 370 415
3 371 372 415
3 415 372 416
3 372 362 406
3 416 372 406
3 373 417 418
3 374 373 418
3 374 418 375
3 375 418 419
3 375 419 420
3 376 375 420
3 376 420 377
3 377 420 421
3 377 421 422
3 378 377 422
3 378 422 423
3 379 378 423
3 380 423 424
3 380 379 423
3 380 424 425
3 381 380 425
3 382 425 426
3 382 381 425
3 382 426 427
3 383 382 427
3 384 428 429
3 385 384 429
3 373 429 417
3 373 385 429
3 386 427 430
3 386 383 427
3 386 430 431
3 387 386 431
3 384 432 428
3 384 388 432
3 389 387 431
3 433 389 431
3 390 434 432
3 388 390 432
3 435 389 433
3 435 391 389
3 390 436 434
3 390 392 436
3 393 391 435
3 437 393 435
3 394 438 436
3 392 394 436
3 395 393 439
3 439 393 437
3 396 440 438
3 394 396 438
3 397 395 439
3 441 397 439
3 398 442 440
3 396 398 440
3 399 397 443
3 443 397 441
3 400 444 398
3 398 444 442
3 401 399 443
3 445 401 443
3 402 446 444
3 400 402 444
3 403 401 447
3 447 401 445
3 402 404 448
3 446 402 448
3 448 405 449
3 448 404 405
3 450 407 451
3 450 406 407
3 407 403 447
3 451 407 447
3 405 408 452
3 449 405 452
3 408 409 452
3 452 409 453
3 409 410 454
3 453 409 454
3 410 411 454
3 454 411 455
3 411 412 456
3 455 411 456
3 412 413 456
3 456 413 457
3 457 414 458
3 457 413 414
3 414 415 459
3 458 414 459
3 415 416 459
3 459 416 460
3 416 406 450
3 460 416 450
3 418 461 462
3 418 417 461
3 419 462 463
3 419 418 462
3 419 463 464
3 420 419 464
3 420 464 421
3 421 464 465
3 421 465 466
3 422 421 466
3 422 466 467
3 423 422 467
3 424 467 468
3 424 423 467
3 424 468 469
3 425 424 469
3 426 469 470
3 426 425 469
3 427 426 471
3 471 426 470
3 429 428 473
3 473 428 472
3 417 473 505
3 417 429 473
3 430 427 471
3 520 430 471
3 431 474 475
3 431 430 474
3 428 476 472
3 428 432 476
3 433 431 475
3 477 433 475
3 434 478 476
3 432 434 476
3 479 433 477
3 479 435 433
3 434 480 478
3 434 436 480
3 437 435 479
3 481 437 479
3 438 482 436
3 436 482 480
3 439 437 483
3 483 437 481
3 440 484 482
3 438 440 482
3 441 439 483
3 485 441 483
3 442 486 440
3 440 486 484
3 443 441 487
3 487 441 485
3 444 488 442
3 442 488 486
3 445 443 487
3 489 445 487
3 444 446 488
3 488 446 490
3 491 445 489
3 491 447 445
3 490 446 492
3 492 446 448
3 492 449 493
3 492 448 449
3 494 451 495
3 494 450 451
3 451 447 491
3 495 451 491
3 449 452 496
3 493 449 496
3 496 453 497
3 496 452 453
3 453 454 498
3 497 453 498
3 498 455 499
3 498 454 455
3 455 456 500
3 499 455 500
3 456 457 501
3 500 456 501
3 457 458 502
3 501 457 502
3 458 459 503
3 502 458 503
3 503 460 504
3 503 459 460
3 504 460 494
3 494 460 450
3 461 505 506
3 462 461 506
3 507 463 462
3 507 462 506
3 465 463 508
3 508 463 507
3 464 463 465
3 465 508 509
3 465 509 466
3 466 509 510
3 466 510 467
3 467 510 511
3 467 511 468
3 468 511 512
3 468 512 513
3 469 468 513
3 469 513 470
3 515 470 514
3 470 513 514
3 470 515 471
3 472 516 473
3 518 516 517
3 518 505 516
3 461 417 505
3 505 473 516
3 505 518 506
3 515 514 519
3 474 430 520
3 521 520 519
3 520 471 515
3 520 515 519
3 474 520 524
3 476 522 472
3 516 472 523
3 472 522 523
3 516 523 517
3 520 521 524
3 477 475 524
3 524 475 474
3 525 477 524
3 478 526 522
3 476 478 522
3 527 477 525
3 527 479 477
3 478 528 526
3 478 480 528
3 481 479 527
3 529 481 527
3 482 530 480
3 480 530 528
3 483 481 531
3 531 481 529
3 484 532 530
3 482 484 530
3 485 483 531
3 533 485 531
3 486 534 484
3 484 534 532
3 535 485 533
3 535 487 485
3 486 536 534
3 486 488 536
3 537 489 535
3 535 489 487
3 490 538 539
3 536 490 539
3 488 490 536
3 538 540 539
3 541 542 543
3 541 489 537
3 542 541 537
3 541 491 489
3 490 492 538
3 545 493 544
3 538 492 493
3 538 493 545
3 540 538 545
3 544 546 545
3 547 548 549
3 543 495 541
3 547 494 495
3 547 495 543
3 608 547 543
3 495 491 541
3 493 496 544
3 544 497 550
3 546 544 550
3 544 496 497
3 550 497 551
3 551 497 498
3 498 499 551
3 551 499 552
3 499 500 552
3 552 500 553
3 500 501 553
3 553 501 554
3 554 502 555
3 554 501 502
3 502 503 556
3 555 502 556
3 503 504 556
3 549 504 547
3 556 504 549
3 504 494 547
3 506 557 507
3 507 557 558
3 508 507 558
3 508 558 559
3 509 508 559
3 509 559 560
3 510 509 560
3 510 560 561
3 511 510 561
3 511 561 562
3 512 511 562
3 514 512 563
3 563 512 562
3 513 512 514
3 517 564 518
3 518 564 557
3 566 564 565
3 557 564 566
3 557 506 518
3 558 566 567
3 558 557 566
3 559 567 568
3 559 558 567
3 560 568 569
3 560 559 568
3 561 569 570
3 561 560 569
3 562 570 571
3 562 561 570
3 563 562 571
3 572 563 571
3 574 514 563
3 572 574 563
3 573 519 574
3 574 519 514
3 519 573 521
3 522 575 523
3 577 575 576
3 577 517 575
3 564 517 577
3 575 517 523
3 564 577 565
3 573 574 572
3 521 573 579
3 580 573 578
3 579 573 580
3 579 524 521
3 524 579 525
3 522 581 575
3 522 526 581
3 576 581 582
3 576 575 581
3 583 580 584
3 583 579 580
3 583 525 579
3 583 527 525
3 526 585 581
3 526 528 585
3 582 585 586
3 582 581 585
3 587 584 588
3 587 583 584
3 587 527 583
3 587 529 527
3 528 589 585
3 528 530 589
3 586 589 590
3 586 585 589
3 591 588 592
3 591 587 588
3 591 529 587
3 591 531 529
3 532 593 589
3 530 532 589
3 590 593 594
3 590 589 593
3 595 592 596
3 595 591 592
3 595 531 591
3 595 533 531
3 534 597 593
3 532 534 593
3 594 597 598
3 594 593 597
3 599 596 600
3 599 595 596
3 599 533 595
3 599 535 533
3 534 601 597
3 534 536 601
3 602 597 601
3 602 598 597
3 603 599 600
3 604 603 600
3 603 535 599
3 603 537 535
3 536 539 601
3 606 540 605
3 606 602 540
3 602 601 539
3 540 602 539
3 605 607 606
3 608 609 610
3 608 543 609
3 604 542 603
3 609 543 542
3 609 542 604
3 542 537 603
3 540 545 605
3 605 546 607
3 612 607 611
3 605 545 546
3 607 546 611
3 612 613 614
3 612 611 613
3 614 615 616
3 614 613 615
3 616 617 618
3 616 615 617
3 618 619 620
3 618 617 619
3 620 621 622
3 620 619 621
3 622 623 624
3 622 621 623
3 610 548 608
3 624 623 548
3 624 548 610
3 548 623 549
3 548 547 608
3 546 550 611
3 611 550 613
3 613 550 551
3 551 552 615
3 613 551 615
3 552 553 617
3 615 552 617
3 553 554 619
3 617 553 619
3 554 555 621
3 619 554 621
3 621 555 623
3 623 555 556
3 556 549 623
3 565 625 626
3 567 566 626
3 626 566 565
3 567 626 627
3 568 567 627
3 568 627 628
3 569 568 628
3 569 628 629
3 570 569 629
3 570 629 630
3 571 570 630
3 572 571 631
3 631 571 630
3 572 631 578
3 576 632 577
3 625 632 633
3 565 577 632
3 565 632 625
3 625 633 634
3 626 625 634
3 626 634 627
3 627 634 635
3 627 635 628
3 628 635 636
3 628 636 629
3 629 636 637
3 629 637 630
3 630 637 638
3 631 638 639
3 631 630 638
3 640 578 639
3 578 573 572
3 578 631 639
3 578 640 580
3 576 641 632
3 576 582 641
3 633 641 642
3 633 632 641
3 633 642 643
3 634 633 643
3 634 643 644
3 635 634 644
3 635 644 645
3 636 635 645
3 636 645 646
3 637 636 646
3 637 646 647
3 638 637 647
3 638 647 648
3 639 638 648
3 640 648 649
3 640 639 648
3 584 580 640
3 649 584 640
3 582 650 641
3 582 586 650
3 642 650 651
3 642 641 650
3 642 651 652
3 643 642 652
3 643 652 653
3 644 643 653
3 644 653 645
3 645 653 654
3 645 654 646
3 646 654 655
3 646 655 647
3 647 655 656
3 647 656 648
3 648 656 657
3 648 657 649
3 649 657 658
3 588 584 649
3 658 588 649
3 586 659 650
3 586 590 659
3 650 659 651
3 651 659 660
3 651 660 661
3 652 651 661
3 652 661 662
3 653 652 662
3 653 662 654
3 654 662 663
3 654 663 664
3 655 654 664
3 655 664 665
3 656 655 665
3 656 665 666
3 657 656 666
3 657 666 658
3 658 666 667
3 592 588 658
3 667 592 658
3 590 668 659
3 590 594 668
3 660 668 669
3 660 659 668
3 660 669 670
3 661 660 670
3 661 670 671
3 662 661 671
3 662 671 663
3 663 671 672
3 663 672 664
3 664 672 673
3 664 673 665
3 665 673 674
3 665 674 666
3 666 674 675
3 666 675 667
3 667 675 676
3 596 592 667
3 676 596 667
3 594 677 668
3 594 598 677
3 668 677 669
3 669 677 678
3 669 678 679
3 670 669 679
3 670 679 680
3 671 670 680
3 671 680 681
3 672 671 681
3 672 681 682
3 673 672 682
3 673 682 683
3 674 673 683
3 674 683 684
3 675 674 684
3 676 684 685
3 676 675 684
3 600 596 676
3 685 600 676
3 598 686 677
3 598 602 606
3 678 686 687
3 678 677 686
3 678 687 679
3 679 687 688
3 679 688 680
3 680 688 689
3 680 689 681
3 681 689 690
3 681 690 682
3 682 690 691
3 683 691 692
3 683 682 691
3 684 692 693
3 684 683 692
3 685 693 694
3 685 684 693
3 694 604 685
3 685 604 600
3 598 606 686
3 606 607 695
3 686 606 695
3 686 695 687
3 688 687 696
3 696 687 695
3 688 696 697
3 689 688 697
3 689 697 698
3 690 689 698
3 690 698 699
3 691 690 699
3 691 699 700
3 692 691 700
3 692 700 701
3 693 692 701
3 610 609 694
3 701 610 694
3 701 694 693
3 609 604 694
3 607 612 695
3 695 612 696
3 696 612 614
3 614 616 697
3 696 614 697
3 616 618 698
3 697 616 698
3 618 620 699
3 698 618 699
3 620 622 700
3 699 620 700
3 622 624 701
3 700 622 701
3 624 610 701
