OFF
702 1400 0
-0.261366994833471 -0.325307681496006 2.19239395940241
-0.306705716030487 -0.311600649850684 2.17438034850138
-0.278596954925752 -0.331357170971428 2.14714174232628
-0.214520818429883 -0.331996901570613 2.1972409082527
-0.232695897380606 -0.342171640276175 2.1525647277489
-0.167728608333371 -0.336752485306648 2.20050881715801
-0.186319159866822 -0.346511495004765 2.15480750694272
-0.12236781609185 -0.340842992776616 2.20496995298421
-0.141005823741105 -0.350642197219782 2.15674809792711
-0.0774924216101114 -0.344733521471239 2.20978482105972
-0.0962635203114724 -0.354334903811345 2.16148081256454
-0.0300132364540057 -0.34783450572064 2.21750104187028
-0.0504997690229873 -0.357640382702276 2.17006286857154
0.0180892035964601 -0.343444607206432 2.22587864136096
-0.00320283351735619 -0.35925384451277 2.17915457186422
0.0433258464196848 -0.350405814886871 2.18791112398567
-0.329280839174187 -0.282710997969166 2.2023131610023
-0.358902726435623 -0.265518747210057 2.17466089579841
-0.337755387947484 -0.295840425140291 2.14651690476367
-0.28892384118256 -0.298611750012473 2.22224080500658
-0.242278681347031 -0.307640927035565 2.23439756724838
-0.194602896892202 -0.313025029765271 2.23835308231125
-0.14785420207399 -0.317014292361366 2.24382597201716
-0.102655703772301 -0.320446121352721 2.24974018194295
-0.0583778648622267 -0.325894500889313 2.25242642297435
-0.00974471246404242 -0.326736308783922 2.2597682017972
0.0640859935820713 -0.327343032255797 2.23146363277802
0.0354674317087897 -0.314637251772381 2.26747438040443
0.0816275807159674 -0.294619889551481 2.26504962364292
-0.316348706282048 -0.261514890075153 2.24369803236861
-0.356362724498935 -0.241202263211938 2.21543915841626
-0.270454965972546 -0.274926612545116 2.26145060251472
-0.220544373535276 -0.28132609715566 2.26965889242676
-0.172967504262151 -0.285720913380918 2.27499990595551
-0.125365167471179 -0.288196054978648 2.28228906160689
-0.0806795323115148 -0.290971274490415 2.28867348147394
-0.038462008762403 -0.300431642378961 2.28778808337503
0.00288341140146589 -0.292176041966402 2.29841990581059
0.0485783034984926 -0.278865911149313 2.29977732684809
0.0934691403947646 -0.256738974029407 2.29310430755814
-0.334525151373521 -0.224023933920607 2.26396703183712
-0.367559171879242 -0.202697922241076 2.23722676354991
-0.293643780482576 -0.238846834293645 2.28534057446832
-0.244687750221726 -0.249475080049316 2.29673409031094
-0.195943787489875 -0.251676298407709 2.30471490141849
-0.148515315395841 -0.25649985687917 2.30959243640021
-0.0970357100191129 -0.257361421039763 2.31931072382411
-0.0422152422680488 -0.266861326979827 2.32097715314589
0.00822945461331547 -0.259591194076809 2.330299796447
0.0587552727943393 -0.244207771312456 2.32890480605588
0.103599452880357 -0.218304337436623 2.32081689935185
-0.318612973480403 -0.199533671771704 2.30630114160189
-0.358970201231246 -0.18187357698475 2.27497920222416
-0.269459896283579 -0.216718710233888 2.32144700549724
-0.222077607814835 -0.21901455748112 2.33238198358968
-0.176551320702997 -0.220072783148968 2.34067702441214
-0.132631948396286 -0.228000641216991 2.34169186904937
-0.0991144821718896 -0.215962059524991 2.36076535813086
-0.0643151247354953 -0.235436416650799 2.34822295698313
-0.0220074149444314 -0.231937872998266 2.35910113415334
0.0259138214241006 -0.225514203359731 2.36045379903653
0.074027481209576 -0.20687276362867 2.35616773629776
-0.321732399805341 -0.158626753781009 2.34609555987765
-0.349717708818782 -0.161081917587063 2.31120872478033
-0.28891242066672 -0.185072828924161 2.34378220865848
-0.241876622841011 -0.187399231523769 2.36028676838734
-0.197146107794801 -0.186176515972519 2.37073318271866
-0.148258550739131 -0.19121861043647 2.37568873753574
-0.102834811896951 -0.185398341093891 2.39092160858414
-0.0554546242101708 -0.198923472347205 2.38698518249617
-0.00743944019748306 -0.198805733844195 2.39245540907946
0.0403585174433408 -0.191650696499218 2.3890102466801
0.087903314437251 -0.169681180480835 2.38179018132542
-0.311114176667162 -0.133865629657284 2.38116448975179
-0.355125618121886 -0.121357416650269 2.3458103278688
-0.272513020391414 -0.158438094173772 2.379671708535
-0.226559981894441 -0.152133527391909 2.39912158739294
-0.176545575110055 -0.156715003022594 2.40477596835388
-0.130760985073922 -0.15650883269873 2.41440387690251
-0.0792531218691257 -0.160604383895418 2.42085604440431
-0.0343335004346272 -0.167230868521071 2.42303300988115
0.0120484456049687 -0.164451622602601 2.42431928928497
0.0560207216521395 -0.157395258324731 2.41532845848857
0.0924959003471655 -0.131817651880422 2.414082351051
-0.306263689288742 -0.0937889411793678 2.41660539639702
-0.340090042285573 -0.102725187998446 2.38347433952099
-0.272923128633742 -0.124138233573684 2.41248338822446
-0.238331657759145 -0.112204783414618 2.43024937572961
-0.195625919331136 -0.12089902015731 2.43206994645893
-0.150517289860257 -0.121200139445144 2.43991958743374
-0.103330267501929 -0.124705423239295 2.44598072070048
-0.0547446279359297 -0.128999336683746 2.45177102158164
-0.00647200864719331 -0.132284195810054 2.45361647776509
0.0451437033273657 -0.126842347996746 2.4460525869848
0.0926276879486991 -0.0959156420532169 2.43810505032471
-0.347361287413839 -0.0632768333895281 2.40003698335988
-0.269030333220989 -0.0743077436495305 2.44240323252207
-0.312458777545243 -0.049732494925896 2.43120436745696
-0.219581384956132 -0.0750487687386195 2.45178312368972
-0.173570611507488 -0.0799830470473924 2.45705248856882
-0.126907411702361 -0.0811564434511091 2.46380697032737
-0.0811314990996642 -0.0859579538855469 2.46909927152234
-0.0344849219185843 -0.0906709417319553 2.47427503541274
0.0121782422838744 -0.0925928064280638 2.47235729541362
0.0565625476649067 -0.0866447682203199 2.46221229731986
0.038444092674569 -0.0475349475974721 2.47839661332677
-0.285496611073589 -0.0226789291688242 2.44896126484875
-0.243107412981758 -0.031919963564032 2.45911736042914
-0.194092162212663 -0.0339896643137538 2.46548965796217
-0.148349088653055 -0.0353184285001591 2.47147301421574
-0.102077039521746 -0.0369680405186823 2.47746517462565
-0.0575446279295579 -0.0438929825995925 2.4826265396544
-0.00985752089988584 -0.0484946047844342 2.48576060417329
-0.256580492990727 -0.339594519895165 2.1080245264799
-0.280222982391212 -0.325860958099737 2.07236714922975
-0.256563839209063 -0.319565250438468 2.03481254165718
-0.206997689706171 -0.346344258268339 2.10885951410781
-0.228482597942075 -0.33763719267585 2.06764542727014
-0.160955047061589 -0.349486978986255 2.10836834326938
-0.180319701474337 -0.33843054035106 2.06223530349114
-0.115561582395725 -0.352800859048645 2.11107397934266
-0.135018961943172 -0.34038614078801 2.06307641160579
-0.0702678704713335 -0.356689139597536 2.11895053820319
-0.08747577451165 -0.344348199580251 2.06940106914418
-0.0253969143891881 -0.360764227014661 2.12951502464678
-0.0418025419327677 -0.349316710808932 2.07880749327697
0.0206453874069558 -0.359623277998857 2.13817049376499
0.00236469398594956 -0.353729038930388 2.09029198006781
0.0503001031051427 -0.347065598909827 2.09936222354127
-0.308046050468023 -0.318938074577332 2.11549740479969
-0.34630279923762 -0.288349585815269 2.09911739793666
-0.316759573194614 -0.304496398291079 2.06693411383073
0.0881595545963181 -0.330451263855357 2.19206939012232
0.0638567995265834 -0.348113415101965 2.14745737207379
0.103650489336954 -0.326920299816995 2.14938365289287
-0.383946634108264 -0.229779447995027 2.16462632310682
-0.394075408353489 -0.217706755493206 2.11490132736981
-0.371587069046506 -0.260232169904907 2.12832053872246
0.109338940273556 -0.302021286116176 2.22546737476338
0.130036879619289 -0.300968669436691 2.18116914740644
0.147288928760143 -0.269563943198188 2.20822497940855
-0.38597517800776 -0.200856394971656 2.19584442276799
-0.401625235687662 -0.185081329730895 2.14935589027593
0.123427065652305 -0.266105157205147 2.25342984084487
0.154776616367662 -0.230053045059552 2.2385268243453
-0.389514069381559 -0.161970910451664 2.22935319813341
-0.402048930325023 -0.154912535941742 2.18551065468067
0.131506207961871 -0.225589939799524 2.28113297799786
0.161450355911942 -0.188037265450236 2.26243787313694
-0.383937356194619 -0.142627550795716 2.26700086734747
-0.404111160991059 -0.114453653491377 2.22449114943827
0.140401102978444 -0.184421585633286 2.3062809877777
0.166116280096685 -0.145969669476127 2.28835461620897
-0.376017141587745 -0.124317964864572 2.30577856398627
-0.399547386334334 -0.0963342555417701 2.2696421245421
0.117155953405755 -0.177160308280754 2.34539721522301
0.149981872086806 -0.139280121169906 2.3309868411407
-0.38951989272564 -0.0841705302452992 2.31759240071273
-0.40746874389364 -0.0500082178278538 2.28600864613792
0.124793417373412 -0.137114060374036 2.37361888092042
0.155313644270915 -0.0992042508113681 2.35641243299974
-0.374051676132324 -0.0763535725267495 2.35906068096943
-0.397974496840205 -0.0385200163153923 2.33330332965411
0.128456308023574 -0.0996655422745247 2.40163952972154
0.152455686068199 -0.0619338178398048 2.38768399212338
-0.376627188741701 -0.0310741336283013 2.3761715839801
-0.344556066606059 -0.0196492108431299 2.41367495495277
-0.364032801179141 0.0137527522615422 2.39369964589074
0.085685307887864 -0.04882132403695 2.45778590283861
0.109323269384559 -0.00971353266292583 2.44333180746302
0.122462031864527 -0.0574224817225359 2.42751822266632
-0.318929720142184 0.00790358692544561 2.43271711586054
-0.266444529773771 0.0183739767201536 2.45462180256312
-0.298137069894958 0.0466461245989264 2.43690981419401
-0.216944576431241 0.00946645611994245 2.46360792279625
-0.169688792071765 0.0120737708151848 2.46886813378543
-0.123109209197122 0.0104044959030014 2.47442270149965
-0.0763163965518522 0.00866807934121419 2.47998867376589
-0.0334589150702209 -0.0023145738913386 2.48611768249693
-0.00771131587557118 0.0338738837379324 2.47994050619006
0.0171964771622811 -0.00636864825544548 2.48447413638511
0.0659519624656581 -0.00654709168901904 2.46969521880725
-0.264427526184593 0.0757065773653359 2.43893387122144
-0.233039696280382 0.0519561983251342 2.453857175626
-0.188889419169537 0.0569493978645747 2.45659715106291
-0.142813754204816 0.0566619844676827 2.46111465586071
-0.0961640905099612 0.0543535117708407 2.46638932561007
-0.047791208705524 0.0523144688958637 2.47170893885616
0.00823714612993896 0.0706806622418292 2.46391742440709
-0.344177656468982 -0.273089230202961 2.04951007849891
-0.327701809460226 -0.260764723722461 2.01021029876217
-0.297405217796655 -0.296486197389635 2.02506893065129
-0.248556701385437 -0.298200952287085 1.99828756989302
-0.206850576342743 -0.321408168978412 2.02510280219418
-0.156273117164633 -0.317633904235497 2.01840576943802
-0.106357531090307 -0.323020823846973 2.02676123674728
-0.054355045404242 -0.327370766369148 2.03351552120415
-0.00911684526327043 -0.333093996577939 2.04252708455257
0.0349205379739541 -0.336361567535593 2.05878338015319
0.0774897269148949 -0.318679529091307 2.05736366949066
0.0899946458972752 -0.330758959961096 2.10579512714068
0.116846596828673 -0.305347704447549 2.08712532549731
-0.373940132972505 -0.24965573795087 2.08200634514984
-0.391172485541327 -0.203579823829191 2.06736924824521
-0.367898932650477 -0.231598612621413 2.03821658683234
0.13341829368768 -0.301151647270223 2.13161011359816
0.14963733041109 -0.273672006182723 2.0993272982707
0.159560693501582 -0.268516774898327 2.15436745198032
-0.405178237285387 -0.169204964895851 2.10262867486274
0.179693637483924 -0.226602179722351 2.1502363853096
-0.407980259746479 -0.137053631812263 2.13408165484995
0.171576937263815 -0.232800159875115 2.19297252374726
-0.408879373721773 -0.113355225156745 2.17600614089389
0.177511490234883 -0.190002620900911 2.2152256553198
-0.410637281166656 -0.0729923735177964 2.19008557536362
0.18038640881318 -0.148941284651737 2.2377489969591
-0.410603234924683 -0.0635004830209938 2.23700714772272
0.181283620084629 -0.110631832817529 2.2636430993397
-0.413371723384606 -0.0151645760088378 2.25369151117955
0.173493004819676 -0.096319251330812 2.30857300413572
-0.409544622331591 -0.00239923991933275 2.3036394478842
0.173952025658509 -0.0562144830416877 2.33993332330414
-0.39274814361828 0.00764137092900127 2.35135433141781
-0.398781737668854 0.0439161595839342 2.32102197165348
0.142572123457358 -0.0164573182384146 2.40973352017099
0.166927020344567 -0.0218730408373779 2.36891116918107
-0.3750865326086 0.051278428183843 2.36698245455145
-0.340405674571052 0.0481893053530509 2.40843570860847
-0.346934026590097 0.0886925414925121 2.37916933262602
0.0422022069168182 0.0347392650284291 2.47087790658092
0.0887099550870399 0.0333479324948666 2.44937843554286
0.127643417809139 0.0297284902832515 2.41753337528944
-0.310253652627404 0.0859786821853781 2.41277804269674
-0.269490502773528 0.112413531034528 2.41509415869407
-0.217196998273872 0.0969172990833399 2.4354269568404
-0.168144996242882 0.0986324526089671 2.43801487919922
-0.120822221222419 0.0972428128788489 2.44232910679906
-0.0735032373176887 0.09380778572969 2.44797944065719
-0.0275170423124906 0.0940798974442204 2.45098650453392
0.0262524396644283 0.104186856472065 2.43801892749951
0.0596650278622931 0.0723406289050659 2.44776023340123
-0.316037272090159 -0.230501979903577 1.97367373992729
-0.285012064300728 -0.269655659846731 1.98470735173538
-0.236481941380424 -0.268049893838882 1.96448111229578
-0.199517954727122 -0.295729230398148 1.98896215172088
-0.1557261630762 -0.284578990373902 1.97929266360599
-0.115592517587242 -0.292328862643157 1.98880796673184
-0.0686922337713149 -0.301173714340021 1.99978869669146
-0.0125410127131739 -0.302713864909317 2.00375270714852
0.0348773952918401 -0.312023515420974 2.02156580883297
0.0803708991181626 -0.288828186392475 2.01981854758632
0.118355334204076 -0.283462536910396 2.05188575861003
-0.379064138806031 -0.179775506099145 2.02238573328979
-0.351602714140439 -0.218506402892196 2.00283120951798
0.151467760347482 -0.247278396285667 2.06068416290554
0.171689712785572 -0.237751267698994 2.10856923964647
-0.397965332002308 -0.156083381013849 2.06115406451128
0.188691177339945 -0.189607183590155 2.12078478639344
-0.402907650870086 -0.114083262126848 2.08859440440872
0.187638239236818 -0.185019304912818 2.17036494448711
-0.406658325180894 -0.0885001007659813 2.13519659249038
0.188725217316893 -0.141738162478269 2.19055085029323
-0.405371844492855 -0.0441929561979306 2.15341780739678
0.188806118345471 -0.101519927415815 2.21581288054586
-0.410195360397671 -0.02639747489212 2.2036838028252
0.186008890286302 -0.0686053116036092 2.25949025583468
-0.408607984271137 0.0196298946237505 2.22053090635912
0.183089368605618 -0.0454132521003258 2.29787572418081
-0.410021219685331 0.0322920091614968 2.27138359387017
0.178612592505803 -0.000299543334701714 2.33132252385078
-0.394530527185386 0.0779203587154548 2.28848473458809
0.15749608798525 0.0216358128401126 2.37795692141649
-0.375800948738885 0.0868886306515367 2.33576435190567
-0.342563254132995 0.123988269321356 2.34652610236061
0.102039097751199 0.0716430134973799 2.42017096454913
0.137326783119538 0.0654603764120648 2.38427209639126
-0.308730804824014 0.123239220791554 2.38361201673595
-0.26488879850921 0.149028673683797 2.38144187093176
-0.229527673565432 0.131353373436144 2.40855031169964
-0.184584163026365 0.134669862893091 2.4076965411762
-0.140468552980289 0.13469992278698 2.40962865211124
-0.0937986216431111 0.130575419486352 2.41581918815477
-0.050504185429773 0.130031993103758 2.41828730377926
-0.00792036287796195 0.127819369981521 2.42182958394814
0.0695686926260912 0.108720067881209 2.41474871130624
-0.312181266781031 -0.197288312332534 1.94342514300882
-0.27413000632204 -0.23654101485725 1.94970265931609
-0.227146701474263 -0.235143898425874 1.93139281133043
-0.187814962554746 -0.260615114473733 1.9539610690082
-0.133869554316596 -0.252375013472001 1.94814102008223
-0.0881322150460404 -0.264551466328894 1.96232163030443
-0.0426199428541767 -0.276054294453334 1.97582051952071
0.000929225423153962 -0.265112377285997 1.96684342037589
0.0383446283644098 -0.281307417239794 1.98969653326316
0.0852283886218834 -0.255909923145944 1.9859302479749
0.121859237226688 -0.253343810139517 2.01865907532221
-0.373593639132921 -0.143646174185911 1.99059996514066
-0.349644696593546 -0.185415675805884 1.97655550588924
0.157852466865526 -0.214979670467521 2.02834402593609
0.177953931068707 -0.205008881542037 2.07435553199808
-0.392693660804082 -0.124775291700068 2.03409403821237
0.195427965711264 -0.156854610708893 2.09079912223375
-0.395715221229592 -0.0784661072095898 2.05378895251586
0.194605130367849 -0.143571313651054 2.14214769484557
-0.400028479540914 -0.0608225790705193 2.09979450038289
0.195487095262936 -0.096511801795753 2.16539631368335
-0.398807206580864 -0.0143256621205105 2.1199535519355
0.19315068299482 -0.0573813968975289 2.20936538718069
-0.403357243730435 0.00462964610237556 2.16870189724191
0.191537844726477 -0.0248035354769881 2.24330915710957
-0.401904705785069 0.0519151739814793 2.18750710858643
0.188022742355844 -0.00374165312935698 2.28484415080523
-0.403293733714445 0.0660396894878181 2.23875290728371
0.184875802646013 0.0398650980619062 2.29844770497338
-0.387714205834499 0.111291515906307 2.2556543266865
0.166687226102746 0.0502409584177874 2.34292340057452
-0.369170057222094 0.1203552066797 2.30287701402855
-0.334971326035471 0.15800499500906 2.31384292383939
0.109366220259878 0.106879418009606 2.38559333925772
0.145356622413419 0.0976017501626721 2.35038256390203
-0.301863403112685 0.157018497628154 2.35044086530686
-0.252953940819979 0.181497352972174 2.35141164452225
-0.213002256405567 0.163791096650253 2.37738357551541
-0.16195268474776 0.16966255796132 2.37379791454049
-0.109376081997307 0.162952695257179 2.38283008032244
-0.0609830458987539 0.163937478184195 2.38400083766314
-0.0149361217979343 0.161491770027965 2.38848869967839
0.0326033711388451 0.140850806169791 2.40249288520699
0.0740604272031857 0.144604844279087 2.38094681804029
-0.306110004274042 -0.164820430120568 1.91181349005866
-0.268662888247054 -0.203130511722241 1.91738310503049
-0.220655506311917 -0.203606653027358 1.90020312720189
-0.176166947340737 -0.229513094982646 1.92345388935897
-0.128730993495943 -0.215837944097363 1.91192407491556
-0.086898419708048 -0.229942928878963 1.92785525222897
-0.0424713422840081 -0.243182718497049 1.94303779998707
0.0040804997326413 -0.230001127262753 1.93196004654205
0.0469716277799791 -0.246559434567416 1.95586353145599
0.0927611717246171 -0.222057476420904 1.95294127165772
0.128486771701812 -0.221501618401779 1.98738047931602
-0.366563188623305 -0.109685625642666 1.95676592257591
-0.343765232157914 -0.153818954557727 1.94608040565452
0.164723772648307 -0.182419592740869 1.9967245791466
0.185074722873955 -0.171503940232746 2.0426674154569
-0.385784869421084 -0.0938193498444489 2.00129827389046
0.202071505147987 -0.124359865413209 2.06002530607584
-0.38887845937945 -0.0478954955393629 2.01858994925564
0.201088748852316 -0.109813883031439 2.1118409451302
-0.393154604450177 -0.0251050222536798 2.06761409352914
0.202945453799536 -0.0635905749687617 2.12671512720795
-0.39276768384479 0.0209744763468254 2.09419423066519
0.198932944593682 -0.0460761729310634 2.17021927018462
-0.39667803950039 0.0387380822877867 2.13704615890209
0.198852819912657 -0.00196295111530888 2.19929094686605
-0.39500339137034 0.0841033904335254 2.15283220525584
0.195077133812793 0.0240036518804685 2.24633849763476
-0.396788962683598 0.0981536285933889 2.2053092448802
0.192549193764206 0.0701870485782449 2.26310912700777
-0.381016299454743 0.143939501708892 2.22368495016517
0.172807980006464 0.0863889413269191 2.3098375110557
-0.361908588675772 0.153873200059039 2.27081806909312
-0.326110687726329 0.191516254354594 2.28350471848985
0.115359072951953 0.140882796779103 2.35285626539842
0.151339583419089 0.132150041418622 2.3177155081593
-0.291515471392573 0.190252731732757 2.32042786654639
-0.242859224310644 0.214033200661297 2.32046736896527
-0.201776422698136 0.195433839045718 2.34631887230957
-0.156705496726536 0.208431768692275 2.33535958442368
-0.119790198321117 0.192708154416912 2.35268564752984
-0.0720636148012042 0.195370158744106 2.35215357095756
-0.0216876996863193 0.195449205818962 2.35431591156391
0.0281174471897744 0.175404063539135 2.37131737166686
0.0759267863826699 0.177907973624026 2.35080496787731
-0.299327617920978 -0.132337103308569 1.87954308272341
-0.262514238000028 -0.170087669468752 1.88502731023341
-0.216173766938115 -0.171062135114619 1.86848371907354
-0.172283212477838 -0.197117289786432 1.89131259246224
-0.122333585572813 -0.181315977192925 1.87777244691756
-0.0805043422981956 -0.194644736091585 1.89292878019096
-0.0387795578630671 -0.209331892450932 1.90943621327179
0.00771986973822562 -0.195198152482723 1.8974060463044
0.0509276701602287 -0.213613556522128 1.92240817006935
0.0965226508129758 -0.190295041321004 1.91961290995792
0.135252274317191 -0.189190411663217 1.95569419749787
-0.36099403642543 -0.0749056827151339 1.92561561492486
-0.337040511751237 -0.121874934278465 1.91418556469473
0.171236697291359 -0.150033100008724 1.96454954239285
0.191817351629969 -0.138609221072502 2.01040236249201
-0.379264051323246 -0.0589575402007309 1.96887024527786
0.208523922191548 -0.0924231631107329 2.02691602395829
-0.381377104189396 -0.0101666746901175 1.98266745305009
0.208107843713613 -0.0766641319319995 2.07683316811747
-0.386103044126655 -0.00115991242750989 2.02642234699641
0.209391573199006 -0.027276439638521 2.09835078549331
-0.387168052810627 0.0308140781460512 2.05557325340264
0.204874623620126 -0.0101903517046642 2.14563666311674
-0.389183318254243 0.0719920938639838 2.09829299281811
0.205987033583393 0.034869106723919 2.16573806185405
-0.388529565861051 0.115827570391416 2.12128878709492
0.201592307716325 0.0517712468242217 2.21191961771333
-0.390282724894741 0.13014968782109 2.17369683319219
0.199653252087954 0.100553423375386 2.22963405236987
-0.373457985405199 0.177340994251919 2.19444546214595
0.180316283730551 0.118109963520255 2.27620952438988
-0.354031175520264 0.187156908523663 2.24053402917405
-0.318484849508598 0.224330802811445 2.25233314607122
0.120656766974702 0.174170625209774 2.32132943578598
0.158209691607127 0.164610017601759 2.28524897681278
-0.282944238899003 0.222962879421771 2.28954601665516
-0.236115385948565 0.247212185556726 2.28767122511489
-0.194411424020934 0.230478073424254 2.31169048250717
-0.143659391625905 0.242583077565844 2.30187341301032
-0.104457402423919 0.225469028584892 2.32068882581697
-0.0561524117238268 0.22790960017357 2.3204030553068
-0.00807137941552136 0.228510706271678 2.32194233228854
0.0319114328995339 0.206574378231882 2.34104486692428
0.0835629033869295 0.208767246200395 2.3195492017668
-0.300026050440689 -0.0973624288706846 1.85263899591528
-0.255548815104572 -0.136256310442568 1.85154013144318
-0.207653874645657 -0.139478171201861 1.83685018887404
-0.166682464251077 -0.16625537530171 1.86077694228678
-0.116594769884291 -0.148310719384356 1.84515740890619
-0.0731519432063363 -0.159110850801423 1.85781133800364
-0.0335153417592067 -0.173351202506363 1.87377880959563
0.0101978863479982 -0.159954062119658 1.86237165421375
0.0542460980316218 -0.180974993912326 1.8891530559329
0.101157153472201 -0.158094670615872 1.88646588840916
0.138104386537801 -0.159626184084612 1.92249199677922
-0.355048746639684 -0.0395281914136055 1.89430384998621
-0.333748725252712 -0.0875633956410938 1.88550003855376
0.172265379677247 -0.123359523521878 1.92890607460492
0.198275563852249 -0.105787354066886 1.97695661066673
-0.372560093885115 -0.022876605215437 1.93552191107276
0.216015514771026 -0.0559627727562304 2.0048180219486
-0.374558305353874 0.0262145616686415 1.95497993959278
0.214472208454435 -0.0402623033133915 2.04918717107147
-0.379739486931369 0.0427699551180296 2.00362907405781
0.216082147145279 0.00768985284298156 2.06597573129463
-0.383076072500597 0.0720609872852892 2.04929641744798
0.211636447962279 0.0237545138139437 2.11321136610207
-0.381726400230186 0.115726913361135 2.06659030141606
0.212909775437988 0.0691190724981255 2.13178500033259
-0.382618795970084 0.152553275885602 2.09756364142097
0.208428893954192 0.0863667917023274 2.17931257078787
-0.383322536679408 0.163746835753022 2.1466205919123
0.20613449195195 0.133432942714537 2.19781963985209
-0.366590764572951 0.210225646399988 2.16279896432799
0.187234848330977 0.149847133014123 2.24382622444396
-0.346589475111218 0.22045009949668 2.20917275275143
-0.311844936698336 0.257013359951179 2.22002067252493
0.127949046076168 0.206696133419252 2.28854711135312
0.165060028625575 0.197128421741163 2.25270122801259
-0.276591549603038 0.255516237767095 2.25717005827321
-0.230030215012431 0.279953252766736 2.25505772661154
-0.186662463780808 0.263736245213251 2.27886003929587
-0.137860984712105 0.274600889809195 2.2701654384706
-0.0904827080032559 0.259993989248033 2.28687170846411
-0.040473652215826 0.260324034674178 2.28876711825262
0.00603078789431861 0.260205896948344 2.29095369606274
0.0447804139660434 0.237202122498439 2.30927495555437
0.0911370797132876 0.241329105822537 2.28682736311239
-0.262651841685992 -0.0997848522339093 1.82732064409275
-0.221133603584245 -0.104721860827123 1.81407687196857
-0.174674682383485 -0.10293486231783 1.80787232458868
-0.160262954916123 -0.135550003882853 1.83136086234861
-0.122628984252415 -0.109165479387967 1.81526032343646
-0.0760582654583647 -0.121018100037621 1.826037933178
-0.0293600645262867 -0.13213571650784 1.83684547886277
0.0186858901655477 -0.122119651994626 1.83380784929066
0.0577447845186941 -0.148975980105854 1.85807506677211
0.102483778525446 -0.12339966385375 1.85669602390251
0.142716282778901 -0.125967305743989 1.88980671804533
-0.342193356641731 -0.00413501805720404 1.86713664378527
-0.326053462182564 -0.0518486154173986 1.85533288083457
0.191756108282007 -0.0861050521203546 1.92978555459256
0.209651662809035 -0.0617452998064147 1.96194928765285
-0.362326638542327 0.0145586008674984 1.9055477529649
0.215621162482859 -0.0179087778839016 1.97034640384719
-0.358946183865948 0.0599563975188485 1.9243017013594
0.218471243976708 -0.00380074834118301 2.01502112245738
-0.368604492200617 0.0760191984719384 1.96836952819093
0.21543667723175 0.0407658550644253 2.03151648679279
-0.375467874869806 0.095854037589571 2.01317710404049
0.215691372445418 0.0585450220622328 2.07825527997588
-0.368950679378271 0.14208980956791 2.02562940388799
0.213027224090609 0.10218281064375 2.0980390340751
-0.371765659402797 0.171245338767845 2.05998181592169
0.212917750853052 0.120167016864441 2.14446349899632
-0.375606881534788 0.195639080173124 2.11334339911396
0.207414773286021 0.162987091180421 2.16439598467851
-0.357378546708339 0.237276912490347 2.1261367200033
0.192012399967476 0.182407361685981 2.21151020062919
-0.339948239614872 0.251588924773895 2.17492747730448
-0.304034997090241 0.284428393264658 2.18515336081698
0.133510948457996 0.239174854614365 2.2543665271506
0.165428256251967 0.228850181808968 2.21799677036497
-0.268725752585559 0.287298141959815 2.22414731282156
-0.219833510109264 0.308982059188629 2.21767922220275
-0.182821215475345 0.295995424837124 2.24369066489923
-0.140876373856403 0.303482750040726 2.23273191862708
-0.0969200451231701 0.293971059450061 2.24753771804499
-0.0523402614769327 0.289515117583516 2.25437110096538
-0.00228542636800909 0.288416027342392 2.25626773478885
0.0493697282894849 0.27101902995084 2.27435920537774
0.0948135989913918 0.270183378430681 2.25191543494661
-0.287535247538993 -0.0589702900444 1.82336406217985
-0.242094917501417 -0.0618383539035823 1.80131008855204
-0.19441633544912 -0.064405107753875 1.79197897215826
-0.142618321853673 -0.0688260658121941 1.795394101938
-0.0922129315363398 -0.0756223952278719 1.80259459660371
-0.0462295927491709 -0.0856728666285028 1.81062524860772
-0.00212921095578368 -0.085530712776045 1.81475387634097
0.0450171910515932 -0.0757476964017803 1.81639544643684
0.0649982558386303 -0.110072203820237 1.83385050193537
0.0974392528845581 -0.0749672513623859 1.83108327867041
0.133650165188172 -0.0911550286447581 1.85879663420156
-0.307022150863702 -0.0164360136299678 1.82936284311552
-0.281304034784514 0.0241899214873123 1.81329384790163
-0.264431070354412 -0.0198938239269753 1.80229107263405
0.144353949854804 -0.0504809704544022 1.85395469160195
0.169992288897043 -0.0824028338821486 1.89095906289043
0.173891419513728 -0.0354983388811669 1.88129120758861
-0.338533101936559 0.0505787319893712 1.87594007268168
-0.31890366621742 0.0261595383670649 1.84327285202879
0.197869193757392 -0.0396617971454535 1.91940372973818
0.203612180559472 0.00331023370752963 1.93406421612034
-0.334933461075686 0.0896680887279076 1.90019330923766
0.209626078680273 0.0315481091735991 1.97588150292323
-0.344697552812097 0.11189109109636 1.93838324236531
0.2049634346432 0.0703660084660949 2.00131058688434
-0.357177131243663 0.124935795692939 1.97737088785922
0.207675544018228 0.0935694820178773 2.04231605816403
-0.345738608834107 0.164860521893425 1.98894279940841
0.203150744557224 0.132238637942465 2.06743478864385
-0.349371972941759 0.195241108610424 2.02382089915584
0.205659155655562 0.1552493106391 2.10823486556547
-0.362843830097294 0.213530050188674 2.07549769597732
0.198447248337658 0.19244314814733 2.13273499040697
-0.32856910011605 0.274541551270138 2.13607964722106
-0.340533568258324 0.256451627628978 2.08841609013885
-0.309277459154963 0.289402164623181 2.09292511725259
0.189027616353355 0.210280838537517 2.17607355590958
0.176126300805928 0.233912349988585 2.1311731703357
0.162889961174582 0.249209892141726 2.17563575659917
-0.260555043033075 0.310241694904056 2.18605388047813
-0.294307320158027 0.301951796705495 2.14505190782146
-0.252212583098629 0.323183404726146 2.14292925175946
0.130267476021981 0.268011245997316 2.21376017724611
0.0983953825414528 0.298502283139773 2.17609501647192
0.0858752759284151 0.293695672255645 2.21522129484345
-0.213125344665397 0.326621686163621 2.17668840344342
-0.169279674905702 0.321574646189275 2.19686931927549
-0.116406067911989 0.318773782356962 2.19958308571112
-0.0720263434537112 0.313842142231837 2.20879485305966
-0.0282701133845204 0.310360587797191 2.2141654972343
0.0144579302488449 0.309015258824904 2.21378849428798
0.0474046090401532 0.29544576899596 2.23789442201136
-0.215558248207437 -0.0216783366169926 1.78652896453109
-0.1643149240705 -0.0263408972479003 1.78407044937762
-0.113617597695605 -0.0306647244379004 1.79023051909057
-0.0658256509184678 -0.0357389814480167 1.7963230130829
-0.021059803174884 -0.039527118050967 1.80192067383322
0.0230509123050363 -0.0356151547117438 1.80667683853622
0.0716313658377453 -0.0343557279839045 1.81456097323024
-0.237052588088625 0.0203058758192741 1.79286191322648
-0.209401626906507 0.0576456312178184 1.79514044751016
-0.18564955735372 0.0173189607524157 1.78386402732757
-0.134907124682769 0.0135712221191178 1.78742675967374
-0.0872725209250607 0.012253279847574 1.79363397837579
-0.0400665961245694 0.00859141895561138 1.79952742350901
0.00470276628458741 0.00988390628703554 1.80573615961031
0.0516055712799623 0.00892070152999037 1.81208086237418
0.0997203643747084 0.0103476938245582 1.82683289479148
0.146622427394843 0.00233991318208347 1.8548782101514
0.115139189601926 -0.0300506556271419 1.8318961019955
-0.298944162073556 0.0656403954016176 1.83923081502398
-0.266531994855936 0.103832729601361 1.8397520401501
-0.256282604464597 0.0643069959787158 1.81177013270622
0.123080170011017 0.0448380652642321 1.84959445837106
0.180441775292151 0.00693423899439191 1.89238374458475
0.159062534024827 0.0468029524326407 1.88155279741415
-0.306515020919066 0.0981526640847618 1.86862424019724
-0.272801976643098 0.136506384793823 1.87419266397942
0.189219419339505 0.0445412831797229 1.92518476608745
0.161813509177919 0.0833281405780483 1.91390510570351
-0.310873836483021 0.132737331932157 1.9065316382188
-0.279587386027936 0.168705244233489 1.91053550530017
0.18842224937916 0.076532781318175 1.95676306263606
0.160124404955966 0.11724796815653 1.9476455351906
-0.321828816523555 0.159190768562953 1.94542788359971
-0.284225769518833 0.198458273734915 1.94302454372974
0.187258607074036 0.110887070471378 1.99210086681747
0.15932350180378 0.150199134575583 1.98168133633828
-0.318375457030118 0.198970763717693 1.97849594643529
-0.282019631646519 0.233822224296601 1.97544648399184
0.186773406414127 0.140825956370278 2.02421500956568
0.158878393636844 0.182481471199287 2.01555409567132
-0.315309953907776 0.235193967630952 2.00908742745314
-0.281146727463941 0.271167941050979 2.01247800164086
0.185947845915012 0.17463850666306 2.05983100558657
0.157890014923782 0.214937547372294 2.04879610807989
-0.338990821424696 0.236425233645407 2.04539294642268
-0.309351288805859 0.273092679423935 2.0485275767383
0.184450451178012 0.204998269290561 2.0913932870029
0.154853160831562 0.244880266794272 2.08395884625312
-0.275859362257309 0.312718593195767 2.10302769214014
-0.270718999055013 0.302916173142788 2.05527867776022
-0.238094036717691 0.32529503772653 2.08848845640192
0.132738606068151 0.278874517044388 2.16651925509748
0.146460449157677 0.266737881142898 2.12511936422539
0.106828719848846 0.294669315489886 2.12423192278426
-0.21363379056685 0.333648638329882 2.12819083551451
-0.18792563170635 0.333224946107839 2.09247148322609
-0.173171473927205 0.334065278462243 2.14690506550544
-0.14406461290268 0.332002709290047 2.10611577407118
-0.13078649546554 0.330128655137332 2.15642656011511
-0.100006577525847 0.328466240923773 2.11159515653895
-0.0840387511381585 0.326734378172073 2.15951610234412
-0.0552042401586766 0.324670804193808 2.11533638166811
-0.0398059825051079 0.32307839142733 2.16586952236623
-0.0116846058916748 0.321012853421815 2.11934096846528
0.00467254721225975 0.319899696095475 2.16815557992641
0.0324640051069935 0.317772403027189 2.12752889360711
0.0502472311719963 0.313194396938067 2.18352091351146
0.0700932711880451 0.311297505543758 2.14046626512456
-0.178322412758474 0.090949755019023 1.80720371016065
-0.1561257873601 0.0558104293542246 1.79340828592841
-0.11040948796607 0.0580663277214453 1.80102951504662
-0.0617378548882211 0.0536865033479715 1.80692104057001
-0.016849112073171 0.0553525135008697 1.8144660397519
0.0285096271584551 0.0544011530157272 1.82117866863667
0.0744705421957575 0.0502480493713103 1.82873559844001
-0.223319576555116 0.100093126889138 1.81849218384415
-0.18051272723769 0.127154471940777 1.8327220883242
-0.134707125952271 0.100991139720524 1.81827021512333
-0.0838469388799817 0.0937586244496386 1.82260392067727
-0.0395442376531438 0.0969987614107235 1.83254129651191
0.00495251127356304 0.0968608015091506 1.84046967257635
0.0500922702149083 0.093820719168268 1.8465179953255
0.0934020069863827 0.0839353810806489 1.85412757577905
0.127987052110145 0.0872296081366575 1.87920568485631
-0.22801229921791 0.135620819174351 1.84929839548884
-0.18795704191477 0.16071006543055 1.86603908405517
-0.142193873699337 0.143610300613569 1.85329958504265
-0.103130035994622 0.12707300645462 1.84474761710071
-0.0603467363758832 0.132438926400948 1.85883475985085
-0.0166694822065787 0.133065858093785 1.86845489570657
0.0313915190617447 0.129191199457442 1.87442214025812
0.0811406754861231 0.121217928744147 1.88091281504548
0.125806407339631 0.119844412368381 1.90993719810104
-0.234662822522497 0.168025680641093 1.88373757483586
-0.189439321980392 0.192937247534306 1.89834876231817
-0.143517121245947 0.177520744535811 1.88733397003676
-0.097059511448711 0.160568366144464 1.87974067478342
-0.0501217236952506 0.167430917705889 1.89633916242169
1.71790421438917e-05 0.163309938956428 1.90248468733309
0.0477650201985186 0.158997782909911 1.90795693313678
0.0897675017919323 0.151084530912115 1.91596423504281
0.124874009170902 0.154561279053983 1.94531199799007
-0.237948519309576 0.199413307002195 1.91596158347909
-0.191768888203937 0.223603070788265 1.92914995733341
-0.142917087607191 0.211705560768752 1.92204133223489
-0.100505223124974 0.193444577310395 1.91229148078599
-0.062623074824531 0.202280151639158 1.9290233297999
-0.0179749382669324 0.196204598624416 1.93206171580222
0.0299828024835144 0.19244267102492 1.93812139399904
0.0789528538233105 0.185968653646506 1.94615721852187
0.124038042837928 0.18573266533021 1.97707898045471
-0.240976017858546 0.229934659255271 1.94725231357891
-0.197915817496117 0.25395911997139 1.95997085583214
-0.147995704507832 0.24398072462526 1.95364783973591
-0.0988781769891089 0.231550565887378 1.95117790589094
-0.0473647990694325 0.231698877926419 1.96192476877476
0.000746094736344835 0.226880239568001 1.9669474843331
0.0471046724732501 0.223295870568635 1.97291805248761
0.088507832459327 0.216096614786193 1.98206420601499
0.123461666597344 0.219890656990592 2.01221630804459
-0.245407972906922 0.262798547176072 1.98148604802577
-0.207399900171965 0.284858363678134 1.9925737995052
-0.160469383125538 0.277816589858078 1.98537845370237
-0.11395661582332 0.267495847116289 1.98444098629095
-0.0693562809429087 0.26292212542365 1.98898834634195
-0.0204218609735133 0.260627550948859 1.99673423049022
0.0283363528665798 0.256879970498233 2.00297274937613
0.0773493278634266 0.251101764042863 2.01207896154792
0.122084700917433 0.250486477245095 2.04380000531819
-0.240971354953171 0.297558482844955 2.02057275577185
-0.184350398142578 0.307240746371444 2.02107777444147
-0.135670475128085 0.300664905280393 2.01964408052425
-0.0910841271941598 0.295735155309729 2.02312170171433
-0.0462623381244896 0.291502380994553 2.02774588577109
6.73337691082243e-05 0.288405662267578 2.034450654623
0.0450970678622406 0.285385220436741 2.04110665309418
0.0856986354844085 0.278595385051278 2.05122307855285
0.117461848477158 0.277786707643977 2.08459707193435
-0.21593435280157 0.319683521329526 2.05176848835368
-0.161763287299207 0.322933747170926 2.05752572044199
-0.116039451262935 0.319371348471209 2.06352127418058
-0.0710182680212108 0.315237131229899 2.06767104336896
-0.0253054552520448 0.311058901697905 2.07197206240043
0.0217908835941615 0.307818872560985 2.07931119937117
0.0686482546200714 0.302586128232874 2.08954031117703
3 0 1 2
3 0 2 4
3 3 0 4
3 3 4 6
3 5 3 6
3 5 6 8
3 7 5 8
3 7 8 10
3 9 7 10
3 9 10 12
3 11 9 12
3 13 11 14
3 14 11 12
3 13 14 15
3 16 17 18
3 16 18 1
3 0 19 1
3 19 16 1
3 0 3 20
3 19 0 20
3 3 5 21
3 20 3 21
3 5 7 22
3 21 5 22
3 7 9 23
3 22 7 23
3 9 11 24
3 23 9 24
3 24 11 25
3 25 11 13
3 13 15 26
3 27 13 26
3 25 13 27
3 27 26 28
3 17 16 30
3 30 16 29
3 29 19 31
3 29 16 19
3 31 20 32
3 31 19 20
3 32 21 33
3 32 20 21
3 21 22 33
3 33 22 34
3 22 23 34
3 34 23 35
3 23 24 35
3 35 24 36
3 24 25 36
3 36 25 37
3 37 27 38
3 37 25 27
3 38 28 39
3 38 27 28
3 30 40 41
3 30 29 40
3 29 31 42
3 40 29 42
3 31 32 43
3 42 31 43
3 32 33 44
3 43 32 44
3 33 34 45
3 44 33 45
3 34 35 46
3 45 34 46
3 35 36 47
3 46 35 47
3 36 37 47
3 47 37 48
3 37 38 48
3 48 38 49
3 49 39 50
3 49 38 39
3 40 51 52
3 41 40 52
3 51 42 53
3 51 40 42
3 42 43 53
3 53 43 54
3 43 44 54
3 54 44 55
3 44 45 55
3 55 45 56
3 45 46 56
3 56 46 57
3 46 47 58
3 57 46 58
3 47 48 59
3 58 47 59
3 48 49 60
3 59 48 60
3 49 50 61
3 60 49 61
3 51 62 63
3 52 51 63
3 51 53 64
3 62 51 64
3 53 54 65
3 64 53 65
3 54 55 66
3 65 54 66
3 55 56 67
3 66 55 67
3 56 57 67
3 67 57 68
3 57 58 69
3 68 57 69
3 58 59 69
3 69 59 70
3 59 60 70
3 70 60 71
3 71 61 72
3 71 60 61
3 62 73 74
3 63 62 74
3 62 64 75
3 73 62 75
3 64 65 75
3 75 65 76
3 65 66 76
3 76 66 77
3 66 67 77
3 77 67 78
3 67 68 78
3 78 68 79
3 79 69 80
3 79 68 69
3 80 70 81
3 80 69 70
3 81 71 82
3 81 70 71
3 82 72 83
3 82 71 72
3 74 73 85
3 85 73 84
3 84 73 86
3 86 73 75
3 75 76 86
3 86 76 87
3 76 77 88
3 87 76 88
3 77 78 89
3 88 77 89
3 78 79 90
3 89 78 90
3 79 80 91
3 90 79 91
3 80 81 92
3 91 80 92
3 81 82 93
3 92 81 93
3 93 83 94
3 93 82 83
3 84 95 85
3 84 86 96
3 97 84 96
3 95 84 97
3 96 87 98
3 96 86 87
3 87 88 98
3 98 88 99
3 88 89 99
3 99 89 100
3 89 90 100
3 100 90 101
3 101 91 102
3 101 90 91
3 102 92 103
3 102 91 92
3 92 93 103
3 105 103 104
3 103 93 104
3 93 94 104
3 96 106 97
3 96 98 107
3 106 96 107
3 98 99 108
3 107 98 108
3 99 100 109
3 108 99 109
3 100 101 110
3 109 100 110
3 101 102 111
3 110 101 111
3 111 102 112
3 112 102 103
3 103 105 112
3 117 114 115
3 116 113 117
3 117 113 114
3 116 117 119
3 118 116 119
3 118 119 121
3 120 118 121
3 120 121 123
3 122 120 123
3 122 123 125
3 124 122 125
3 124 125 127
3 126 124 127
3 126 127 128
3 129 130 131
3 114 129 131
3 114 113 129
3 113 2 129
3 129 2 1
3 4 113 116
3 4 2 113
3 6 116 118
3 6 4 116
3 8 118 120
3 8 6 118
3 10 120 122
3 10 8 120
3 12 122 124
3 12 10 122
3 14 124 126
3 14 12 124
3 133 126 128
3 15 14 126
3 15 126 133
3 132 15 133
3 132 133 134
3 135 136 137
3 137 17 135
3 137 18 17
3 18 137 130
3 129 18 130
3 18 129 1
3 15 132 26
3 139 132 134
3 139 138 132
3 138 28 26
3 132 138 26
3 138 139 140
3 136 135 142
3 142 135 141
3 17 30 135
3 135 30 141
3 143 39 28
3 138 143 28
3 143 140 144
3 143 138 140
3 141 145 146
3 142 141 146
3 41 145 141
3 30 41 141
3 147 39 143
3 147 50 39
3 147 144 148
3 147 143 144
3 145 149 150
3 146 145 150
3 52 149 145
3 41 52 145
3 151 50 147
3 151 155 50
3 151 148 152
3 151 147 148
3 149 153 154
3 150 149 154
3 63 153 149
3 52 63 149
3 155 61 50
3 155 72 61
3 155 151 156
3 156 151 152
3 154 157 158
3 154 153 157
3 74 157 153
3 63 74 153
3 159 72 155
3 159 83 72
3 159 156 160
3 159 155 156
3 158 157 162
3 162 157 161
3 74 85 161
3 157 74 161
3 163 83 159
3 163 94 83
3 163 160 164
3 163 159 160
3 161 165 162
3 165 95 166
3 165 161 95
3 161 85 95
3 165 166 167
3 95 97 166
3 105 104 168
3 170 94 163
3 170 168 94
3 169 168 170
3 94 168 104
3 163 164 170
3 166 171 167
3 173 171 172
3 172 171 106
3 171 97 106
3 171 166 97
3 172 107 174
3 172 106 107
3 174 108 175
3 174 107 108
3 175 109 176
3 175 108 109
3 176 110 177
3 176 109 110
3 177 111 178
3 177 110 111
3 178 112 180
3 178 111 112
3 181 105 168
3 181 180 105
3 179 178 180
3 180 112 105
3 168 169 181
3 172 182 173
3 182 172 183
3 183 172 174
3 174 175 184
3 183 174 184
3 175 176 185
3 184 175 185
3 176 177 186
3 185 176 186
3 177 178 187
3 186 177 187
3 187 179 188
3 187 178 179
3 179 180 229
3 189 190 191
3 114 131 191
3 115 114 191
3 115 191 192
3 115 192 193
3 117 115 193
3 119 193 194
3 119 117 193
3 119 194 121
3 121 194 195
3 121 195 123
3 123 195 196
3 123 196 125
3 125 196 197
3 127 197 198
3 127 125 197
3 128 198 199
3 200 128 199
3 128 127 198
3 200 199 201
3 202 203 204
3 131 130 189
3 190 189 204
3 189 130 202
3 189 202 204
3 131 189 191
3 128 200 133
3 134 200 205
3 206 205 201
3 134 133 200
3 205 200 201
3 205 206 207
3 136 208 203
3 202 137 136
3 202 136 203
3 137 202 130
3 134 205 139
3 139 205 207
3 140 139 207
3 211 207 209
3 136 142 208
3 208 142 210
3 211 140 207
3 211 144 140
3 146 212 210
3 142 146 210
3 148 144 213
3 213 144 211
3 150 214 212
3 146 150 212
3 215 148 213
3 215 152 148
3 154 216 150
3 150 216 214
3 219 152 217
3 217 152 215
3 158 218 216
3 154 158 216
3 219 156 152
3 219 160 156
3 158 220 218
3 158 162 220
3 221 160 219
3 221 164 160
3 162 165 222
3 223 220 222
3 220 162 222
3 165 167 222
3 169 170 224
3 225 164 221
3 224 170 164
3 224 164 225
3 222 226 223
3 167 171 227
3 226 167 227
3 226 227 228
3 226 222 167
3 171 173 227
3 180 181 229
3 181 169 230
3 231 169 224
3 230 169 231
3 230 229 181
3 224 225 271
3 227 232 228
3 232 182 233
3 232 173 182
3 227 173 232
3 182 183 234
3 233 182 234
3 183 184 234
3 234 184 235
3 184 185 235
3 235 185 236
3 185 186 236
3 236 186 237
3 186 187 237
3 237 187 238
3 238 188 239
3 238 187 188
3 188 179 229
3 240 239 188
3 240 188 229
3 229 230 240
3 191 190 242
3 242 190 241
3 192 242 243
3 192 191 242
3 192 243 244
3 193 192 244
3 194 244 245
3 194 193 244
3 194 245 246
3 195 194 246
3 195 246 247
3 196 195 247
3 196 247 248
3 197 196 248
3 197 248 249
3 198 197 249
3 199 198 249
3 250 199 249
3 201 199 251
3 251 199 250
3 204 252 253
3 204 203 252
3 190 253 241
3 190 204 253
3 206 251 254
3 206 201 251
3 207 206 255
3 255 206 254
3 203 256 252
3 203 208 256
3 257 209 255
3 255 209 207
3 210 258 208
3 208 258 256
3 211 209 259
3 259 209 257
3 212 260 210
3 210 260 258
3 213 211 259
3 261 213 259
3 214 262 260
3 212 214 260
3 215 213 261
3 263 215 261
3 216 264 214
3 214 264 262
3 217 215 263
3 265 217 263
3 218 266 264
3 216 218 264
3 219 217 265
3 267 219 265
3 218 268 266
3 218 220 268
3 221 219 267
3 269 221 267
3 223 270 268
3 220 223 268
3 225 221 269
3 271 225 269
3 223 226 272
3 270 223 272
3 272 228 273
3 272 226 228
3 274 231 275
3 274 230 231
3 275 231 271
3 271 231 224
3 273 228 276
3 276 228 232
3 276 233 277
3 276 232 233
3 233 234 278
3 277 233 278
3 234 235 279
3 278 234 279
3 235 236 280
3 279 235 280
3 236 237 281
3 280 236 281
3 237 238 282
3 281 237 282
3 238 239 283
3 282 238 283
3 327 239 284
3 284 239 240
3 240 230 274
3 284 240 274
3 241 285 286
3 242 241 286
3 242 286 243
3 243 286 287
3 243 287 288
3 244 243 288
3 245 288 289
3 245 244 288
3 245 289 246
3 246 289 290
3 246 290 247
3 247 290 291
3 247 291 248
3 248 291 292
3 248 292 293
3 249 248 293
3 249 293 250
3 250 293 294
3 250 294 295
3 251 250 295
3 252 296 297
3 253 252 297
3 241 297 285
3 241 253 297
3 254 295 298
3 254 251 295
3 254 298 299
3 255 254 299
3 256 300 252
3 252 300 296
3 257 255 299
3 301 257 299
3 258 302 300
3 256 258 300
3 259 257 303
3 303 257 301
3 260 304 258
3 258 304 302
3 261 259 303
3 305 261 303
3 262 306 304
3 260 262 304
3 263 261 305
3 307 263 305
3 264 308 262
3 262 308 306
3 265 263 307
3 309 265 307
3 266 310 308
3 264 266 308
3 267 265 309
3 311 267 309
3 266 312 310
3 266 268 312
3 269 267 311
3 313 269 311
3 270 314 312
3 268 270 312
3 271 269 315
3 315 269 313
3 270 272 316
3 314 270 316
3 316 273 317
3 316 272 273
3 318 275 319
3 318 274 275
3 275 271 315
3 319 275 315
3 273 276 320
3 317 273 320
3 276 277 320
3 320 277 321
3 277 278 322
3 321 277 322
3 322 279 323
3 322 278 279
3 279 280 323
3 323 280 324
3 280 281 324
3 324 281 325
3 281 282 325
3 325 282 326
3 282 283 326
3 326 283 327
3 283 239 327
3 327 284 328
3 284 274 318
3 328 284 318
3 285 329 330
3 286 285 330
3 286 330 287
3 287 330 331
3 287 331 332
3 288 287 332
3 288 332 289
3 289 332 333
3 289 333 334
3 290 289 334
3 290 334 335
3 291 290 335
3 291 335 292
3 292 335 336
3 292 336 337
3 293 292 337
3 293 337 294
3 294 337 338
3 294 338 339
3 295 294 339
3 296 340 341
3 297 296 341
3 285 341 329
3 285 297 341
3 298 339 342
3 298 295 339
3 298 342 343
3 299 298 343
3 300 344 296
3 296 344 340
3 301 299 343
3 345 301 343
3 302 346 344
3 300 302 344
3 303 301 347
3 347 301 345
3 304 348 302
3 302 348 346
3 305 303 347
3 349 305 347
3 306 350 348
3 304 306 348
3 307 305 351
3 351 305 349
3 308 352 306
3 306 352 350
3 309 307 353
3 353 307 351
3 310 354 352
3 308 310 352
3 311 309 355
3 355 309 353
3 312 356 310
3 310 356 354
3 313 311 355
3 357 313 355
3 314 358 356
3 312 314 356
3 315 313 359
3 359 313 357
3 314 316 360
3 358 314 360
3 360 317 361
3 360 316 317
3 362 319 363
3 362 318 319
3 319 315 359
3 363 319 359
3 317 320 364
3 361 317 364
3 320 321 364
3 364 321 365
3 321 322 366
3 365 321 366
3 322 323 366
3 366 323 367
3 323 324 368
3 367 323 368
3 324 325 369
3 368 324 369
3 325 326 370
3 369 325 370
3 326 327 371
3 370 326 371
3 327 328 371
3 371 328 372
3 328 318 362
3 372 328 362
3 329 373 374
3 330 329 374
3 330 374 331
3 331 374 375
3 331 375 376
3 332 331 376
3 332 376 333
3 333 376 377
3 333 377 378
3 334 333 378
3 334 378 379
3 335 334 379
3 335 379 336
3 336 379 380
3 336 380 381
3 337 336 381
3 337 381 338
3 338 381 382
3 338 382 383
3 339 338 383
3 340 384 385
3 341 340 385
3 329 385 373
3 329 341 385
3 342 383 386
3 342 339 383
3 342 386 387
3 343 342 387
3 344 388 340
3 340 388 384
3 345 343 387
3 389 345 387
3 346 390 388
3 344 346 388
3 347 345 391
3 391 345 389
3 348 392 346
3 346 392 390
3 349 347 391
3 393 349 391
3 350 394 348
3 348 394 392
3 351 349 395
3 395 349 393
3 352 396 350
3 350 396 394
3 353 351 395
3 397 353 395
3 354 398 396
3 352 354 396
3 355 353 399
3 399 353 397
3 356 400 354
3 354 400 398
3 357 355 399
3 401 357 399
3 358 402 400
3 356 358 400
3 359 357 403
3 403 357 401
3 358 360 404
3 402 358 404
3 404 361 405
3 404 360 361
3 406 363 407
3 406 362 363
3 363 359 403
3 407 363 403
3 361 364 408
3 405 361 408
3 364 365 408
3 408 365 409
3 365 366 410
3 409 365 410
3 366 367 410
3 410 367 411
3 367 368 412
3 411 367 412
3 368 369 412
3 412 369 413
3 369 370 413
3 413 370 414
3 370 371 415
3 414 370 415
3 371 372 415
3 415 372 416
3 372 362 406
3 416 372 406
3 373 417 418
3 374 373 418
3 374 418 375
3 375 418 419
3 375 419 420
3 376 375 420
3 376 420 377
3 377 420 421
3 377 421 422
3 378 377 422
3 378 422 423
3 379 378 423
3 380 423 424
3 380 379 423
3 380 424 425
3 381 380 425
3 382 425 426
3 382 381 425
3 382 426 427
3 383 382 427
3 384 428 429
3 385 384 429
3 373 429 417
3 373 385 429
3 386 427 430
3 386 383 427
3 386 430 431
3 387 386 431
3 384 432 428
3 384 388 432
3 389 387 431
3 433 389 431
3 390 434 432
3 388 390 432
3 435 389 433
3 435 391 389
3 390 436 434
3 390 392 436
3 393 391 435
3 437 393 435
3 394 438 436
3 392 394 436
3 395 393 439
3 439 393 437
3 396 440 438
3 394 396 438
3 397 395 439
3 441 397 439
3 398 442 440
3 396 398 440
3 399 397 443
3 443 397 441
3 400 444 398
3 398 444 442
3 401 399 443
3 445 401 443
3 402 446 444
3 400 402 444
3 403 401 447
3 447 401 445
3 402 404 448
3 446 402 448
3 448 405 449
3 448 404 405
3 450 407 451
3 450 406 407
3 407 403 447
3 451 407 447
3 405 408 452
3 449 405 452
3 408 409 452
3 452 409 453
3 409 410 454
3 453 409 454
3 410 411 454
3 454 411 455
3 411 412 456
3 455 411 456
3 412 413 456
3 456 413 457
3 457 414 458
3 457 413 414
3 414 415 459
3 458 414 459
3 415 416 459
3 459 416 460
3 416 406 450
3 460 416 450
3 418 461 462
3 418 417 461
3 419 462 463
3 419 418 462
3 419 463 464
3 420 419 464
3 420 464 421
3 421 464 465
3 421 465 466
3 422 421 466
3 422 466 467
3 423 422 467
3 424 467 468
3 424 423 467
3 424 468 469
3 425 424 469
3 426 469 470
3 426 425 469
3 427 426 471
3 471 426 470
3 429 428 473
3 473 428 472
3 417 473 505
3 417 429 473
3 430 427 471
3 520 430 471
3 431 474 475
3 431 430 474
3 428 476 472
3 428 432 476
3 433 431 475
3 477 433 475
3 434 478 476
3 432 434 476
3 479 433 477
3 479 435 433
3 434 480 478
3 434 436 480
3 437 435 479
3 481 437 479
3 438 482 436
3 436 482 480
3 439 437 483
3 483 437 481
3 440 484 482
3 438 440 482
3 441 439 483
3 485 441 483
3 442 486 440
3 440 486 484
3 443 441 487
3 487 441 485
3 444 488 442
3 442 488 486
3 445 443 487
3 489 445 487
3 444 446 488
3 488 446 490
3 491 445 489
3 491 447 445
3 490 446 492
3 492 446 448
3 492 449 493
3 492 448 449
3 494 451 495
3 494 450 451
3 451 447 491
3 495 451 491
3 449 452 496
3 493 449 496
3 496 453 497
3 496 452 453
3 453 454 498
3 497 453 498
3 498 455 499
3 498 454 455
3 455 456 500
3 499 455 500
3 456 457 501
3 500 456 501
3 457 458 502
3 501 457 502
3 458 459 503
3 502 458 503
3 503 460 504
3 503 459 460
3 504 460 494
3 494 460 450
3 461 505 506
3 462 461 506
3 507 463 462
3 507 462 506
3 465 463 508
3 508 463 507
3 464 463 465
3 465 508 509
3 465 509 466
3 466 509 510
3 466 510 467
3 467 510 511
3 467 511 468
3 468 511 512
3 468 512 513
3 469 468 513
3 469 513 470
3 515 470 514
3 470 513 514
3 470 515 471
3 472 516 473
3 518 516 517
3 518 505 516
3 461 417 505
3 505 473 516
3 505 518 506
3 515 514 519
3 474 430 520
3 521 520 519
3 520 471 515
3 520 515 519
3 474 520 524
3 476 522 472
3 516 472 523
3 472 522 523
3 516 523 517
3 520 521 524
3 477 475 524
3 524 475 474
3 525 477 524
3 478 526 522
3 476 478 522
3 527 477 525
3 527 479 477
3 478 528 526
3 478 480 528
3 481 479 527
3 529 481 527
3 482 530 480
3 480 530 528
3 483 481 531
3 531 481 529
3 484 532 530
3 482 484 530
3 485 483 531
3 533 485 531
3 486 534 484
3 484 534 532
3 535 485 533
3 535 487 485
3 486 536 534
3 486 488 536
3 537 489 535
3 535 489 487
3 490 538 539
3 536 490 539
3 488 490 536
3 538 540 539
3 541 542 543
3 541 489 537
3 542 541 537
3 541 491 489
3 490 492 538
3 545 493 544
3 538 492 493
3 538 493 545
3 540 538 545
3 544 546 545
3 547 548 549
3 543 495 541
3 547 494 495
3 547 495 543
3 608 547 543
3 495 491 541
3 493 496 544
3 544 497 550
3 546 544 550
3 544 496 497
3 550 497 551
3 551 497 498
3 498 499 551
3 551 499 552
3 499 500 552
3 552 500 553
3 500 501 553
3 553 501 554
3 554 502 555
3 554 501 502
3 502 503 556
3 555 502 556
3 503 504 556
3 549 504 547
3 556 504 549
3 504 494 547
3 506 557 507
3 507 557 558
3 508 507 558
3 508 558 559
3 509 508 559
3 509 559 560
3 510 509 560
3 510 560 561
3 511 510 561
3 511 561 562
3 512 511 562
3 514 512 563
3 563 512 562
3 513 512 514
3 517 564 518
3 518 564 557
3 566 564 565
3 557 564 566
3 557 506 518
3 558 566 567
3 558 557 566
3 559 567 568
3 559 558 567
3 560 568 569
3 560 559 568
3 561 569 570
3 561 560 569
3 562 570 571
3 562 561 570
3 563 562 571
3 572 563 571
3 574 514 563
3 572 574 563
3 573 519 574
3 574 519 514
3 519 573 521
3 522 575 523
3 577 575 576
3 577 517 575
3 564 517 577
3 575 517 523
3 564 577 565
3 573 574 572
3 521 573 579
3 580 573 578
3 579 573 580
3 579 524 521
3 524 579 525
3 522 581 575
3 522 526 581
3 576 581 582
3 576 575 581
3 583 580 584
3 583 579 580
3 583 525 579
3 583 527 525
3 526 585 581
3 526 528 585
3 582 585 586
3 582 581 585
3 587 584 588
3 587 583 584
3 587 527 583
3 587 529 527
3 528 589 585
3 528 530 589
3 586 589 590
3 586 585 589
3 591 588 592
3 591 587 588
3 591 529 587
3 591 531 529
3 532 593 589
3 530 532 589
3 590 593 594
3 590 589 593
3 595 592 596
3 595 591 592
3 595 531 591
3 595 533 531
3 534 597 593
3 532 534 593
3 594 597 598
3 594 593 597
3 599 596 600
3 599 595 596
3 599 533 595
3 599 535 533
3 534 601 597
3 534 536 601
3 602 597 601
3 602 598 597
3 603 599 600
3 604 603 600
3 603 535 599
3 603 537 535
3 536 539 601
3 606 540 605
3 606 602 540
3 602 601 539
3 540 602 539
3 605 607 606
3 608 609 610
3 608 543 609
3 604 542 603
3 609 543 542
3 609 542 604
3 542 537 603
3 540 545 605
3 605 546 607
3 612 607 611
3 605 545 546
3 607 546 611
3 612 613 614
3 612 611 613
3 614 615 616
3 614 613 615
3 616 617 618
3 616 615 617
3 618 619 620
3 618 617 619
3 620 621 622
3 620 619 621
3 622 623 624
3 622 621 623
3 610 548 608
3 624 623 548
3 624 548 610
3 548 623 549
3 548 547 608
3 546 550 611
3 611 550 613
3 613 550 551
3 551 552 615
3 613 551 615
3 552 553 617
3 615 552 617
3 553 554 619
3 617 553 619
3 554 555 621
3 619 554 621
3 621 555 623
3 623 555 556
3 556 549 623
3 565 625 626
3 567 566 626
3 626 566 565
3 567 626 627
3 568 567 627
3 568 627 628
3 569 568 628
3 569 628 629
3 570 569 629
3 570 629 630
3 571 570 630
3 572 571 631
3 631 571 630
3 572 631 578
3 576 632 577
3 625 632 633
3 565 577 632
3 565 632 625
3 625 633 634
3 626 625 634
3 626 634 627
3 627 634 635
3 627 635 628
3 628 635 636
3 628 636 629
3 629 636 637
3 629 637 630
3 630 637 638
3 631 638 639
3 631 630 638
3 640 578 639
3 578 573 572
3 578 631 639
3 578 640 580
3 576 641 632
3 576 582 641
3 633 641 642
3 633 632 641
3 633 642 643
3 634 633 643
3 634 643 644
3 635 634 644
3 635 644 645
3 636 635 645
3 636 645 646
3 637 636 646
3 637 646 647
3 638 637 647
3 638 647 648
3 639 638 648
3 640 648 649
3 640 639 648
3 584 580 640
3 649 584 640
3 582 650 641
3 582 586 650
3 642 650 651
3 642 641 650
3 642 651 652
3 643 642 652
3 643 652 653
3 644 643 653
3 644 653 645
3 645 653 654
3 645 654 646
3 646 654 655
3 646 655 647
3 647 655 656
3 647 656 648
3 648 656 657
3 648 657 649
3 649 657 658
3 588 584 649
3 658 588 649
3 586 659 650
3 586 590 659
3 650 659 651
3 651 659 660
3 651 660 661
3 652 651 661
3 652 661 662
3 653 652 662
3 653 662 654
3 654 662 663
3 654 663 664
3 655 654 664
3 655 664 665
3 656 655 665
3 656 665 666
3 657 656 666
3 657 666 658
3 658 666 667
3 592 588 658
3 667 592 658
3 590 668 659
3 590 594 668
3 660 668 669
3 660 659 668
3 660 669 670
3 661 660 670
3 661 670 671
3 662 661 671
3 662 671 663
3 663 671 672
3 663 672 664
3 664 672 673
3 664 673 665
3 665 673 674
3 665 674 666
3 666 674 675
3 666 675 667
3 667 675 676
3 596 592 667
3 676 596 667
3 594 677 668
3 594 598 677
3 668 677 669
3 669 677 678
3 669 678 679
3 670 669 679
3 670 679 680
3 671 670 680
3 671 680 681
3 672 671 681
3 672 681 682
3 673 672 682
3 673 682 683
3 674 673 683
3 674 683 684
3 675 674 684
3 676 684 685
3 676 675 684
3 600 596 676
3 685 600 676
3 598 686 677
3 598 602 606
3 678 686 687
3 678 677 686
3 678 687 679
3 679 687 688
3 679 688 680
3 680 688 689
3 680 689 681
3 681 689 690
3 681 690 682
3 682 690 691
3 683 691 692
3 683 682 691
3 684 692 693
3 684 683 692
3 685 693 694
3 685 684 693
3 694 604 685
3 685 604 600
3 598 606 686
3 606 607 695
3 686 606 695
3 686 695 687
3 688 687 696
3 696 687 695
3 688 696 697
3 689 688 697
3 689 697 698
3 690 689 698
3 690 698 699
3 691 690 699
3 691 699 700
3 692 691 700
3 692 700 701
3 693 692 701
3 610 609 694
3 701 610 694
3 701 694 693
3 609 604 694
3 607 612 695
3 695 612 696
3 696 612 614
3 614 616 697
3 696 614 697
3 616 618 698
3 697 616 698
3 618 620 699
3 698 618 699
3 620 622 700
3 699 620 700
3 622 624 701
3 700 622 701
3 624 610 701
