OFF
702 1400 0
-0.114812764289771 -0.313169273812764 2.38489582370006
-0.162922124172938 -0.302307016953386 2.39653512786967
-0.154850082590185 -0.323327282931852 2.35891392630884
-0.0737214615686902 -0.318046169666908 2.36143258544289
-0.11388833600449 -0.332296627558568 2.33666634723568
-0.0337389207295546 -0.321124247646629 2.33663888473087
-0.0748724712835 -0.335054816623224 2.31127302383843
0.00574299811983068 -0.323487140872536 2.31362084231685
-0.0369063204682264 -0.337660554323959 2.28625485947118
0.0450270847373668 -0.325637036427514 2.2911651373462
0.0022081140477841 -0.339623891884823 2.26380236063219
0.088058110581136 -0.32669061074304 2.26947066832771
0.0443792485384981 -0.340863331400954 2.24382842728265
0.131446032849165 -0.320209132369586 2.24758965463186
0.0879651517510667 -0.340330361553835 2.22327976746536
0.129989048912999 -0.329423781970534 2.2024249963298
-0.166776278871726 -0.271965993820627 2.43101784806131
-0.208124081414417 -0.257931364239125 2.42544417248762
-0.205442958562311 -0.289758756015161 2.39170210642778
-0.12140267418574 -0.28501000719185 2.42396647153107
-0.0760133970296218 -0.291640327907659 2.40661895849748
-0.0348698589408578 -0.295263279149996 2.38188641752746
0.00631800518604183 -0.297402964960201 2.35885841721702
0.0464755487845564 -0.29899834087468 2.33707571660793
0.0841387482163825 -0.302888340747706 2.31333168454625
0.127719137141956 -0.301686386136673 2.29054794307983
0.170661286741839 -0.302344741363123 2.22415495962421
0.167832962502723 -0.287663913043381 2.26947280100975
0.202196454716887 -0.266533057869505 2.23930707618061
-0.133555069563147 -0.247154062528112 2.4557148508473
-0.183859803764932 -0.230369619712583 2.45564690042406
-0.0851726170574565 -0.257726347331432 2.44352352074874
-0.0396572230727114 -0.261954385890767 2.42094323588884
0.00214977865430269 -0.264483920820691 2.39733867309612
0.0449846491787234 -0.264944371679844 2.3751981573803
0.084958074968847 -0.2658632990318 2.3540664406227
0.119148539445639 -0.274097619831476 2.32885116975703
0.158137280233224 -0.263786465457776 2.3125971689486
0.194825192283695 -0.249050128957474 2.28606675557213
0.225519864069751 -0.226194753245711 2.25313065539283
-0.138977293643252 -0.208723863918787 2.48102308290474
-0.182835037060098 -0.190599700897553 2.47800641418547
-0.0924085655214006 -0.220562756755338 2.4747758944557
-0.0454905246561164 -0.228778201524432 2.45552313832549
-0.0013485700441555 -0.228876333759014 2.43325228688016
0.040097145915636 -0.23187451446835 2.40938221000524
0.0873695514182383 -0.230417265768349 2.38683152759375
0.133222161683663 -0.238110276890347 2.35622655094413
0.178848143939718 -0.228613526205259 2.33358774745111
0.21766642385844 -0.211886913178107 2.30188892164018
0.247223261285115 -0.185383243355834 2.26766390949577
-0.10303087957468 -0.180464844332001 2.50456942704994
-0.155222223697121 -0.166578248165904 2.5023615521412
-0.0532827093137848 -0.194907497854797 2.48852956879267
-0.0084967495151575 -0.194904606708046 2.46944701871263
0.0331541642606226 -0.193935015743136 2.44927695086437
0.0697234758471687 -0.200439709215964 2.42451475144852
0.107089566047041 -0.185918976920755 2.41950779490928
0.129166916776317 -0.205283915295245 2.38975636743884
0.169415278547849 -0.199664022521818 2.37335505548147
0.208386221398429 -0.191722857148236 2.34582794820798
0.243329547928149 -0.172053206987435 2.31307330486403
-0.085089824701836 -0.136620961321918 2.53654652758529
-0.127966588096018 -0.142691195307111 2.52509960515154
-0.0581034976756557 -0.162174144266583 2.51652977185334
-0.010323559173915 -0.161767078980258 2.50213912584204
0.031786742484379 -0.158376772196565 2.48406511421872
0.0744701848547399 -0.161542832426427 2.45940597220127
0.119622808731823 -0.153168592632895 2.4445619629418
0.156473283113087 -0.16554225661338 2.41402932812962
0.198387850673608 -0.163552257013399 2.39005842775424
0.234389392298914 -0.155269395273067 2.35870572994381
0.266913634603247 -0.132535219538355 2.32376824842049
-0.0576977503075892 -0.10883080280435 2.55735688853719
-0.114836090328982 -0.1005087212948 2.55430202471894
-0.0257022270867374 -0.132278789176248 2.53449727124103
0.0223193424505084 -0.123069276154169 2.52271419753016
0.0662888583591434 -0.125686871618442 2.49793047921055
0.108840703887492 -0.123343281790469 2.47862203953124
0.154448171870934 -0.12536833124518 2.45357564226845
0.192413657661677 -0.130453640777366 2.42909741964844
0.230364432335412 -0.126194942947389 2.40259712086793
0.260031618742148 -0.118567849774643 2.36904307675337
0.286882884051118 -0.0920924309624411 2.34528876880668
-0.0358290275620321 -0.0659236442129915 2.58115732462761
-0.0819216406403202 -0.078485706321039 2.57487948987279
-0.00920701287564213 -0.0954947525422746 2.55955914481505
0.0282645161972232 -0.0811511179041856 2.55286944704083
0.0643832438166745 -0.0883913110309321 2.52950919353965
0.105381872053977 -0.0867154463547356 2.50919171462994
0.147234105393008 -0.0883128142635179 2.48635581284571
0.190111068189001 -0.0906757565502465 2.46251231867768
0.230346839087077 -0.092357852841947 2.4356293301291
0.267129388301031 -0.0859968483376102 2.39878384778705
0.298538791885046 -0.0543980725697237 2.36287674526586
-0.0808683869985007 -0.0380752966960961 2.59066727973428
0.00795162445934514 -0.0433390837133462 2.57902182805282
-0.0353899861820067 -0.0210466497375843 2.59451180479424
0.0533795592110812 -0.0418494877625857 2.55739282416694
0.0939203406398598 -0.044969068787139 2.53468120076888
0.135591245841197 -0.0442033171206007 2.51260398665372
0.175946686957446 -0.0471958040739779 2.49004338996066
0.216929308088344 -0.0500833689962118 2.46687033053682
0.253560146701946 -0.0507562199655034 2.43784359944223
0.282960656605587 -0.0443133046051372 2.4031684560674
0.275070748349975 -0.00459475187964178 2.42507677599637
-0.00515249415435103 0.00813314282512911 2.59161438734512
0.0356456629553859 0.00100464211560597 2.575180216752
0.0790522389938599 0.000917148411001966 2.55144740936502
0.119539508371524 0.00143897836519783 2.52930009221735
0.160481285348876 0.00165764977025665 2.50686233792345
0.199908683286206 -0.00349817013383588 2.48503052611114
0.240523110493033 -0.00640678385019494 2.45959303934632
-0.159487467795482 -0.334001559549742 2.31478582226909
-0.200469658313431 -0.323873791108658 2.29939378069709
-0.203900996462899 -0.319894027427938 2.25487269647231
-0.118541880624271 -0.33917746125266 2.286477175414
-0.160689863129459 -0.334437304678399 2.265570389114
-0.0814864200027209 -0.340971296693747 2.25902325262444
-0.124981538549227 -0.334219932189385 2.23279186350845
-0.0430645709878724 -0.342699671098924 2.23453564060947
-0.0878263560272543 -0.334746715910178 2.20679371456145
-0.00164519273062765 -0.344590207224311 2.21429854044809
-0.0454996429723522 -0.336767490371642 2.1839810052409
0.0410253559497856 -0.346464759383648 2.19648484514042
-0.00279875868990791 -0.339600744278314 2.16480241700303
0.0831471947883617 -0.343259785183899 2.17619713215359
0.0398688249697009 -0.341758846168933 2.14816130208005
0.0833668126108416 -0.332961769668087 2.12683032195232
-0.198062941026461 -0.314362186210494 2.35024656295295
-0.240706778061209 -0.286337742394005 2.35822608723265
-0.234639717396331 -0.304113619328733 2.3156057340186
0.167153994148111 -0.307869223104992 2.17834794271473
0.122618400738267 -0.329757891208558 2.15760487704726
0.154320855954002 -0.307298302072751 2.13465019057271
-0.236756012662024 -0.223872858456386 2.43048581566018
-0.274987187579494 -0.216119769498931 2.39585657874904
-0.245943920272134 -0.256745651475062 2.39536888337817
0.201817616102777 -0.276241305890203 2.19140028180159
0.19241202752599 -0.278112838001127 2.14344323942946
0.219972444109645 -0.244145145097595 2.15356881850163
-0.222118230444497 -0.192621739003971 2.45547242402793
-0.263163791678796 -0.18108628396151 2.42653877887346
0.227038128512493 -0.237800821392204 2.20391419435325
0.240989341210375 -0.20213344439702 2.17169850091757
-0.208062947691842 -0.151306650313904 2.48272962781472
-0.244421559901163 -0.1481515681941 2.45449474192812
0.246933982424294 -0.194978400014959 2.21955434826905
0.257417995084078 -0.158160918560562 2.18504462745151
-0.18283459224295 -0.128859221431005 2.50884964519396
-0.226074282572826 -0.104787505379673 2.48521262608155
0.26594025503003 -0.151684972015984 2.23262399370166
0.273402230930449 -0.114036555095308 2.2011900851469
-0.1549795018478 -0.107281444645216 2.53454349622997
-0.197168445532544 -0.0829903915832491 2.51803166916855
0.269656066656961 -0.142020025619132 2.27752303525155
0.284956555618953 -0.104447734728437 2.24474611671504
-0.161789051761306 -0.0667402277101839 2.55015590451319
-0.197244808487748 -0.0357624767563189 2.53372341651546
0.289533812664633 -0.0996366428932931 2.29386376119532
0.301331126757905 -0.0623271680505042 2.26019587994123
-0.125520457768898 -0.0551761843147551 2.57404838889976
-0.162632208879619 -0.0202536964302165 2.56566636990371
0.306274358549989 -0.0599764202581758 2.31251277990927
0.314736549580838 -0.0227796248334924 2.28532454829904
-0.12077516030607 -0.00877174104287978 2.58722995370128
-0.0737070812932471 0.00656676728146652 2.59794977974589
-0.103522516019347 0.0376687062706962 2.59180514434548
0.301143500120942 -0.0061106102866863 2.38062340318418
0.308923401502063 0.0324065977585248 2.35318271693362
0.313629411253972 -0.0159990109181265 2.33491824637305
-0.0438272615018257 0.0363067164514691 2.59685343007637
0.010605360801531 0.0500583033255121 2.58299258386751
-0.0273635395334979 0.0758647012734432 2.58612920773747
0.0564253282178569 0.0433812372503815 2.56139890341245
0.0974268357264698 0.0478122529900292 2.53759093108098
0.138360942001793 0.0479855672223201 2.51461994617354
0.179478440211189 0.0480992712616701 2.49153529938414
0.218413088324104 0.0389277603780716 2.47166261201087
0.232963136206883 0.0752606333693828 2.44977838746884
0.258575532444364 0.0362717459054809 2.44059769297978
0.289215261815839 0.0363709857715676 2.39989458831328
-0.00106959448237127 0.105988846169838 2.56647966812685
0.0346934348753199 0.0844558233789251 2.5610652387343
0.0715409809635624 0.0909698199207714 2.53695066487683
0.111361222451426 0.0924220359254989 2.51337744289671
0.152233005729077 0.0919382155195706 2.49016956579605
0.194501248196722 0.0917779576206386 2.46596705206085
0.233786245773673 0.111129947635904 2.42572539766111
-0.269216892842695 -0.275032817219242 2.31630171664776
-0.279894221605511 -0.265400440272694 2.27433706906374
-0.244195530159638 -0.298898715552203 2.2700761922349
-0.220420587404518 -0.301286332865066 2.21972333129773
-0.169393196122351 -0.321019559118006 2.21776435794751
-0.132819687129869 -0.316281845616186 2.18230865022997
-0.0872860114929252 -0.319489102225841 2.15979651221446
-0.0410841998747289 -0.321728689086959 2.13471309677939
0.00108785073316806 -0.325358465454776 2.11550889773219
0.0463717306882524 -0.325998625030714 2.1027340904565
0.0785969362811958 -0.307221652805498 2.07560905870452
0.117984531060049 -0.315013755432947 2.10779278523176
0.126856006197638 -0.290383869758573 2.07569938513843
-0.27579635429533 -0.249978371948274 2.35896231172281
-0.301570613455353 -0.205755081161864 2.35519713446634
-0.297931908375468 -0.235304991730787 2.31927846149934
0.166044029114702 -0.282153532067245 2.10153898278117
0.158200485844283 -0.256868326753389 2.06466751395768
0.198159607031564 -0.247037781800728 2.10289181362261
-0.294604028793803 -0.169107267024234 2.39026027167748
0.208976597007477 -0.205004049291883 2.08570482746343
-0.280682021112382 -0.134643996571875 2.41574183738381
0.227974624876415 -0.208007748855182 2.12521085276368
-0.258473116677095 -0.10770932886795 2.44892878743143
0.242777877509438 -0.163410873173952 2.13762183648601
-0.254498612142834 -0.0664213018172107 2.45941604836861
0.255396904952653 -0.120613765966026 2.15213965901628
-0.227589712776947 -0.0532142242515649 2.49674184821392
0.268597396186281 -0.0803483405196589 2.17066980123954
-0.223468403375866 -0.0038043023713258 2.50955070638353
0.287684584394116 -0.0627312240844517 2.21078907933408
-0.191957424947634 0.0130194898852497 2.54691934486024
0.303614251872704 -0.0202534084445518 2.23389651602628
-0.151107725346631 0.0273378640393806 2.57495382145764
-0.176372943687989 0.0608766354198431 2.55238977584404
0.316476566895544 0.0239972190049135 2.30679261139896
0.312521827436273 0.0160679716509057 2.25977726851806
-0.130800906625942 0.0725925350539237 2.57506043670295
-0.0782742889095419 0.0738635086330883 2.58809945213496
-0.103613750244495 0.111685686827285 2.56648818616323
0.267819395144298 0.076891219792583 2.41294604088592
0.292786313442927 0.0751778503193303 2.36821516724458
0.305729428101414 0.0701914683500414 2.31973182451954
-0.0541091426475082 0.112763606568979 2.57201015815689
-0.0217698217925502 0.140505954505626 2.5485510347589
0.033436194839428 0.128254256757811 2.53475400145729
0.074379930143243 0.131636569407692 2.50777422203807
0.115164787749715 0.132011624701423 2.48335203094991
0.156877128900752 0.13045538242209 2.46010400678295
0.195698234266202 0.13234173310384 2.43534092805049
0.230710886300374 0.142983517053808 2.39265214147959
0.265639929017803 0.113030684385943 2.38224704220015
-0.294106360163421 -0.237818306458856 2.23660039937912
-0.259822096617912 -0.275020088898658 2.22898913027051
-0.23269058836368 -0.273585091995858 2.18394832520733
-0.186538453089423 -0.298102414731696 2.18312093866318
-0.157707214556483 -0.286455986170467 2.14893514840721
-0.119210155330556 -0.292217396877618 2.13324777795774
-0.0743190467165523 -0.29875039432907 2.11479370616572
-0.0266115961061716 -0.298289311799682 2.08487996971974
0.0227431721873651 -0.304724053953161 2.07164431551946
0.0567405645554601 -0.280392620864142 2.04226926186837
0.105815175740886 -0.271348809521149 2.04540064165875
-0.319925625840745 -0.185269425457545 2.31069763276468
-0.306509765103224 -0.224600342173803 2.28053664335899
0.1350986088273 -0.233603565672527 2.03122623410564
0.178846512980816 -0.219680783175894 2.05739780501238
-0.314083355870642 -0.159131436072264 2.35197993882298
0.196295530143855 -0.170227898250529 2.05493484204014
-0.304945697642057 -0.115239862608249 2.37503295894943
0.224239146878403 -0.161727051137481 2.09527389592286
-0.282422781198624 -0.0861388499215962 2.41358395027901
0.233885646357119 -0.116958436592918 2.10886160377104
-0.273842492413124 -0.0404989758350909 2.42542334649357
0.245920716561273 -0.0748660924220789 2.12727558748953
-0.249477492472278 -0.0188966158844311 2.4679239415417
0.266971844633168 -0.0386655179842163 2.16256408346583
-0.241584300399961 0.0283564255868 2.47839824321903
0.285509432975127 -0.0125785092684146 2.19411824651488
-0.213759377640813 0.0449929714131994 2.51959680171824
0.29832818187685 0.0349091063566304 2.22158791505752
-0.194479588765915 0.0922844515783767 2.52207923917486
0.307129613195379 0.059858947307143 2.27059683152472
-0.152250606602075 0.10555741991766 2.5486711665377
-0.121778327906474 0.144375430436409 2.5359611273771
0.283648114468714 0.111398366170592 2.33502144515777
0.291453811705427 0.103425247862609 2.28554746260031
-0.0726675642895558 0.147603655122439 2.54587436132671
-0.0404349233537078 0.174436590243871 2.51701301378247
0.00525492759391472 0.160048826213755 2.51878013675434
0.0407508254299899 0.164628822202663 2.49138101195896
0.077449763414494 0.166132190379643 2.46686879376203
0.119005259303778 0.163912737716752 2.44447166121626
0.155397852571906 0.164862980810958 2.42090322242022
0.191967421469546 0.164214684120086 2.39869800377592
0.25164244396557 0.146936197380916 2.34810332612003
-0.311131094950493 -0.207027107379899 2.20840368732417
-0.273968684698427 -0.244497458250142 2.19281496194593
-0.246943816497612 -0.2431634912205 2.15024137350554
-0.20016361896464 -0.265562767361075 2.14637092971259
-0.160678139316897 -0.256204729010039 2.10942227183157
-0.11460773409079 -0.265836302831367 2.0943886274954
-0.0691671920907322 -0.274857902567124 2.07890735280793
-0.0401100510327438 -0.26337097393028 2.04543233313612
0.00463119432640619 -0.276562427462018 2.04248903864995
0.038406611112857 -0.250156596719628 2.01056321977704
0.0869781107465099 -0.243889729692385 2.01515842880394
-0.336759415572437 -0.151647728279351 2.28017231458244
-0.322722534596168 -0.193670973352415 2.2566669365598
0.118949346117267 -0.203815467494286 1.99989370872313
0.161468092436004 -0.189603932205915 2.02460671463561
-0.327958203026633 -0.129941791937746 2.32560409213139
0.181780599965298 -0.139788971059185 2.02526930789103
-0.322128272746564 -0.0823182455707168 2.34108213429948
0.210328468463608 -0.122476235712128 2.06648929511818
-0.299843325992713 -0.0611924139529194 2.37985698573226
0.221339129954486 -0.0737044610447929 2.08248783021774
-0.290333579106294 -0.0132178771334791 2.39319305277305
0.242489973456395 -0.0312736719233353 2.11744776139171
-0.266722132694938 0.00942700724146432 2.43425540204838
0.258803201042921 0.00384912865878149 2.14421276286712
-0.257877299350863 0.0580860309537228 2.44632749057876
0.278862275501195 0.0280475466365282 2.17875526760045
-0.229906230461906 0.0762117781718233 2.48775984284115
0.281206182290448 0.0724880964737451 2.18952802472799
-0.210645280796908 0.123114807267996 2.49004657426526
0.291924340828355 0.0858356549811807 2.23560984384841
-0.168606032054704 0.136472753903195 2.5166977461885
-0.137278271295757 0.175883954770774 2.50355850701702
0.266735080873253 0.143962850080521 2.30119236328612
0.275732088158948 0.132981968925701 2.2520023543619
-0.0890212960193638 0.178814946592789 2.51351795886503
-0.05076506825737 0.204744520261916 2.48425346639105
-0.00203956828320589 0.190372369627675 2.48239423579362
0.0365924339175016 0.197462332172861 2.44906721033271
0.0847631915923376 0.193070583432575 2.42558973003702
0.124395397902934 0.195592261313934 2.39789215294773
0.164328921481423 0.194890822336009 2.37441315614279
0.2123520451188 0.176865381261425 2.35856913328949
0.232852884540046 0.180123888478901 2.31654400956882
-0.327117261951708 -0.177021639603282 2.17783516472141
-0.290924882518412 -0.213627426784587 2.1619891091304
-0.26227725456725 -0.214038999019429 2.11980817635186
-0.21090771580893 -0.236663197830797 2.11346076184663
-0.180411140019219 -0.22254073164567 2.07550511794546
-0.136323151703107 -0.234070699236061 2.06427897125112
-0.090644823176892 -0.244720861306825 2.05087630939171
-0.0605603331141749 -0.231080473395781 2.01383028073408
-0.0107617158687045 -0.244386227568567 2.00851449073328
0.0226910938464783 -0.218837952467421 1.97795695399493
0.0716806309991343 -0.214464429765921 1.98455877531544
-0.353383950184368 -0.120303911990674 2.24717718528434
-0.338133702582819 -0.164448421579317 2.22716793659106
0.103597029453484 -0.173694841730113 1.9688418618114
0.146209223240511 -0.15853991379068 1.99330787809537
-0.343856819392431 -0.101512314966197 2.29365784464006
0.166745972351319 -0.109672688654066 1.99503617448406
-0.339468967522952 -0.0544668530896461 2.30726093262749
0.195349214559095 -0.0910693363736602 2.03666767317356
-0.315748130120298 -0.0279705594655732 2.34820389427053
0.202286830866465 -0.0437706429759815 2.04538466444602
-0.303110034966772 0.0200761420264667 2.36722405766692
0.223354316203747 -0.0229643225352289 2.08197322900218
-0.282361019015942 0.0410817040766075 2.4032152931421
0.237219389058124 0.0233083649840106 2.10336816504998
-0.274973453163675 0.0875929344668989 2.4128144705735
0.259956377349771 0.0528262556997686 2.14227466580652
-0.246593648947978 0.105731187684243 2.45547625239169
0.26447573518388 0.100105598135072 2.15511171393499
-0.226349181935366 0.1532898786262 2.45881123339053
0.27484986968278 0.119391505353308 2.20365231386091
-0.183970213223913 0.167524355937242 2.48501651035215
-0.150342080769536 0.207114139747352 2.47231855589091
0.249915249431751 0.175405957992974 2.26969181898788
0.258906558860699 0.164973301301227 2.22053851799898
-0.10067528911298 0.20983956826291 2.48167409921831
-0.0631203781096296 0.234991326398793 2.45184189572604
-0.0134900248738541 0.219753524839736 2.44925916319267
0.0154832111418399 0.233176106108919 2.41319219158635
0.0565414976073359 0.219997826632353 2.40607082742246
0.0945167239608979 0.224034638405043 2.37731700191858
0.136394489802191 0.225792391850851 2.34928884072371
0.187962091958256 0.20866780866096 2.33449218270758
0.214280400555776 0.210953261434431 2.28960471756211
-0.342918118681754 -0.147032151740233 2.14631517076029
-0.307326699067205 -0.183106233659727 2.13074859112677
-0.279613656424819 -0.184013310535673 2.09008849116327
-0.228963416391597 -0.206837266793926 2.08376160240983
-0.19777258620379 -0.190681844683846 2.04260195350899
-0.154197703226926 -0.201500421140061 2.03071734909766
-0.10981666460883 -0.213567621483787 2.02004628391918
-0.080401683706507 -0.199056215266203 1.98221954366702
-0.0295701162163786 -0.214115053159413 1.97768848818264
0.00388479175420162 -0.189741577984587 1.9474036449177
0.0562215031521918 -0.184600271052888 1.95352727595472
-0.369668788154173 -0.0879729655933931 2.21716859467509
-0.353722024492549 -0.134967992940844 2.19600976393394
0.0876418474040564 -0.143802272278682 1.93756243492469
0.130350130585079 -0.128141294151879 1.96179641449556
-0.360130688940243 -0.0691734282384348 2.26205402437811
0.150225370030762 -0.0803047201624266 1.96306113222232
-0.357209089511427 -0.0195212762565655 2.27212897114457
0.178083964755148 -0.0606274763034683 2.0027719146384
-0.335963002453503 -0.00719288146969825 2.30973962768904
0.188235900518421 -0.00966229240626545 2.0170298317227
-0.321980020573119 0.026961706797521 2.33234905003968
0.211148336582709 0.0110043317604295 2.05698233322326
-0.301450001471362 0.071342430304816 2.36601707798386
0.22063893178526 0.0575387887537246 2.07040363703625
-0.290541977322436 0.116874899108522 2.38209788153363
0.243014425328567 0.0779375610133268 2.10940311698142
-0.262195945641858 0.135279497472091 2.42467220662563
0.248377599523498 0.127899222541631 2.12253059278167
-0.239809806989137 0.184459538851094 2.42923084580641
0.258891258982863 0.14853470929027 2.1706457119483
-0.197778671046185 0.198502748663027 2.45441181075065
-0.164841182280399 0.237546651737951 2.44116966834545
0.233296791615067 0.206212030392333 2.23961028258895
0.243062900574486 0.194926477326642 2.18880982694341
-0.114234603910246 0.240219474453632 2.45020483289271
-0.0793106825522104 0.265630780568571 2.41988865901621
-0.0303886379576752 0.252123615810909 2.41537581868004
0.00389925215127638 0.264917647885769 2.3769137840726
0.0477749367653168 0.250541364621964 2.36970592945642
0.0863769259396222 0.254394523614627 2.34081908507071
0.126001384731526 0.256554036998926 2.31362064508986
0.171018983877667 0.237419338811485 2.30640859334345
0.199879526990952 0.239431205651108 2.25847355253794
-0.361775905429111 -0.114355334841719 2.12342073773887
-0.323790728489838 -0.151865367827873 2.0980773017392
-0.293575556485478 -0.154817073039444 2.05809691982393
-0.244582465903171 -0.178360014456534 2.05441294878368
-0.214654394333565 -0.160231065090842 2.01139656407947
-0.171428612723801 -0.168681913386264 1.99642462641887
-0.129080065721848 -0.180409514143745 1.98653160426705
-0.101492917346633 -0.166665554477908 1.9508874505637
-0.048753047671232 -0.184153139954814 1.94741491477416
-0.0141423875642838 -0.160168272871955 1.9164600194589
0.036912868907524 -0.15771120162757 1.9237158885659
-0.385787807735035 -0.0550483020494495 2.18677971968325
-0.370361875217194 -0.102974914314173 2.16935389704035
0.0656354112751296 -0.120042880810439 1.90699770440138
0.113573481303634 -0.0979180963161235 1.92950548503436
-0.376884337409988 -0.0356879114994591 2.22954366078931
0.140687246570569 -0.0455187429434822 1.93912860818532
-0.370566829892808 0.0147191485888695 2.24409590395049
0.164382772026143 -0.0263768048759062 1.97503983497308
-0.347351397310505 0.0349460688081975 2.28556371517145
0.172122553898682 0.0227900043410467 1.98536347701401
-0.3253080265647 0.0676791287705618 2.32294339163692
0.195135740447803 0.0424370411143558 2.02528126703154
-0.317175723169961 0.112607922647318 2.33402861875574
0.203837026824962 0.0891582378664133 2.03736273322725
-0.302329143935073 0.151747958272967 2.35777649938213
0.22690897044131 0.110006292451925 2.07748100970772
-0.274882207328047 0.166799047180742 2.39717834982827
0.232573528445245 0.158310885889004 2.09153723581926
-0.255204443304137 0.214901272533572 2.3981444192486
0.243187078602935 0.177775811963858 2.13898928744983
-0.212571765285285 0.229391496436828 2.42319651397488
-0.180795811579845 0.267727022894127 2.40969064468218
0.217603346140284 0.236217892356003 2.20737473030661
0.227151436473473 0.224930788353994 2.15702466834799
-0.13044887040891 0.270257457731349 2.41885044556784
-0.0958935185842146 0.295828811582007 2.38849223335902
-0.0457943962151711 0.282869280957761 2.38279734320636
-0.0123313796718231 0.294458832377761 2.34644999438003
0.0367186033576073 0.282656520182974 2.33259478970203
0.0781259366069994 0.284632061710669 2.3045566521418
0.116910784931915 0.286079528767197 2.2788448181245
0.16055141735461 0.265781983582543 2.271782200322
0.184446282222549 0.269486547695452 2.22611844560695
-0.346341920331556 -0.117674235716504 2.0810592510441
-0.320296048853293 -0.122409958717192 2.04609182111854
-0.286612014869938 -0.119736064606758 2.01355941764302
-0.258872715375781 -0.149924806318546 2.02548954301673
-0.239869098280196 -0.12379754832654 1.98904897275358
-0.195148563052501 -0.133353432936218 1.97076695603564
-0.150360066625489 -0.142170789185724 1.95239928806779
-0.114123194937268 -0.130997354629746 1.92109424063971
-0.0664663848423558 -0.15464911454842 1.91881824935526
-0.0330307589612946 -0.127938514621859 1.89007403131919
0.0190346805176332 -0.126648490716231 1.89308917645484
-0.393902780243967 -0.0215702753272834 2.1556451117209
-0.38442184519045 -0.0695704196175155 2.13883706589076
0.0792096686565201 -0.082271172764929 1.89444401036861
0.110791102042386 -0.0548954402058789 1.90863331835559
-0.388907293978178 -0.000477950921551391 2.19760190741756
0.117410503745953 -0.0103693414369991 1.9098153464901
-0.378403694032113 0.0463537716522192 2.20858198683196
0.144941000346101 0.00734173670381482 1.94345133039186
-0.361453342751444 0.065590008618325 2.2490285272878
0.149005502629464 0.052973039162752 1.95644178211955
-0.342084137079519 0.08872720373313 2.28824268024127
0.175394147153831 0.0744291788055128 1.99310173232133
-0.332812517056848 0.135984169167323 2.29225472449659
0.181754844778138 0.119408851427289 2.00856529535091
-0.316984484232981 0.167693816875903 2.32021950282799
0.207650664891495 0.141033281222352 2.04517765853188
-0.290479826863437 0.19614707544653 2.36432373598577
0.211868326578868 0.185125222366765 2.06247672116569
-0.271238533055224 0.239200269387175 2.36190600273018
0.225737636481482 0.2077783324724 2.10861356328094
-0.229550455921177 0.25787938252255 2.39023235541353
-0.196932155088549 0.292489937952776 2.37570939853129
0.199696964315669 0.26601368666488 2.17503765318987
0.204804158603112 0.253775235831912 2.12736995446506
-0.14576813568437 0.299520366119189 2.386117217525
-0.111695561396891 0.322070351177018 2.35100258108496
-0.065653069484838 0.312315887795358 2.35069087663465
-0.0388069395666885 0.320154525488098 2.31672964926372
0.00600482203717862 0.31317469736216 2.30312704615658
0.0462764132688322 0.310613878889206 2.28249821200582
0.0878232549337443 0.311166960827166 2.25450096597982
0.141333750252087 0.296823270274838 2.23936500677253
0.16484874040651 0.295556302203459 2.1944761823399
-0.371636521269673 -0.0780685711439957 2.09066349027224
-0.347750559975909 -0.0813295063037642 2.04618591961065
-0.314609157602065 -0.0832068217201322 2.01061868355663
-0.270528292596212 -0.0857900585717039 1.98297005932857
-0.225177599782841 -0.0904792180964835 1.95930432388049
-0.182672439635903 -0.0984765516930697 1.93907254666671
-0.14470370495434 -0.096686464184981 1.9163331486449
-0.106427243270246 -0.0853982831548808 1.88933917090952
-0.0776196496003812 -0.117605678209405 1.89319921919339
-0.0555933522662625 -0.0818797927419351 1.87015715256918
-0.00896916083341017 -0.0947117182774059 1.87183966208918
-0.386856007946704 -0.0357927287397876 2.10501653239934
-0.378455766750668 0.00417026417335398 2.07497496367744
-0.368172156304474 -0.0401273465804685 2.05820881803529
-0.00608310077261492 -0.0542527268085688 1.85970973667102
0.038595907140443 -0.0823352039107051 1.8758594741213
0.0327174759875601 -0.0362575086170236 1.86357158005423
-0.389681899541549 0.0337568177468444 2.1580092621101
-0.39130190051506 0.00740362884273333 2.12124454940308
0.074729693770341 -0.0366438812572285 1.88029451819784
0.0849067296678649 0.00751451291384575 1.88669540552481
-0.375322008091541 0.074749011686273 2.17358450726311
0.112302376325975 0.0391702360296744 1.91549859623692
-0.362348318167063 0.0996502214351353 2.20907089108545
0.120711111211069 0.0797388639788717 1.93691558645384
-0.350441044100609 0.115389130038445 2.24723428031234
0.145326933539869 0.106214953893877 1.96725175877155
-0.337268979583839 0.156434863931805 2.24792503317807
0.153675125713534 0.146614706723638 1.98834430981986
-0.321879318468862 0.189382633443459 2.27673937059841
0.178019836870835 0.172876198169124 2.01864445118465
-0.303693252842466 0.21133078528904 2.32546321790746
0.183943517142626 0.211676243010483 2.04089564902536
-0.244829014777081 0.277984854950451 2.35114530642365
-0.281179140176278 0.255795086773431 2.32067415480917
-0.255681011694182 0.289920313360003 2.30429343674415
0.200531448550167 0.232629772122671 2.08053065974017
0.162074617756519 0.252202106195494 2.0508838588124
0.176426741620139 0.270600430095137 2.09379837009108
-0.163189630775373 0.319581138403503 2.34953397507506
-0.213891371158564 0.307036441939288 2.33684285622225
-0.182714573853581 0.329279697403964 2.30926571655663
0.17117728737147 0.291403765775113 2.14289881152165
0.121186489381864 0.317821450146158 2.1299672959943
0.134415117255975 0.315783979089327 2.16910262981504
-0.131619758835144 0.336571316588353 2.31319846087855
-0.0840585628638321 0.334465997316618 2.30378118942964
-0.0396379691090432 0.333473074301776 2.27485624107431
0.00190312512312529 0.330622329331276 2.25628345404308
0.0405821983723834 0.328890857694694 2.2349174996167
0.0749043253667295 0.32879787727997 2.20942984167748
0.116591488332971 0.318188881571594 2.21001302508404
-0.337900784245512 -0.0417033645408632 2.01671976546649
-0.29769961698964 -0.045013179539398 1.98467958268079
-0.252900891513664 -0.0473132448253735 1.95988755296541
-0.210430694266522 -0.0504532739929207 1.93679297986661
-0.170782472262493 -0.0524418854155902 1.91502766742849
-0.132705586199405 -0.0468452844922049 1.89261096415074
-0.0889989406574321 -0.0435079991975214 1.87019673065213
-0.354503202024525 -8.90508952280434e-06 2.03255386648144
-0.33353449213378 0.0382035429009756 2.01630127499297
-0.31813345666134 -0.00216686620615977 1.99507400512849
-0.274864911116751 -0.00409910682251543 1.96813643855955
-0.232721969021313 -0.00349205245819836 1.94505125007127
-0.19094182125386 -0.00525825886430283 1.9220764590067
-0.151294060583388 -0.00213583968424854 1.90056320006527
-0.109685641064168 -0.00118623741635816 1.87800452515637
-0.0623326852632302 0.00285278571067216 1.86138899172846
-0.00747739231803071 -0.00148277467292454 1.85663846206783
-0.0440482191443644 -0.0365327603632254 1.85824893819246
-0.380398950560433 0.047014421804996 2.10434577121684
-0.35668461146252 0.0860783013546245 2.08382460929356
-0.362038144182354 0.0447675063324342 2.05708365441061
-0.0325902493244843 0.0397344096123143 1.86430246745471
0.0414883366058305 0.00710248022844371 1.86664705958364
0.0150487729495896 0.0453212950856713 1.86868846830718
-0.371556966290622 0.0815301775495189 2.1309694614486
-0.343841020272868 0.1211969941387 2.11373709109449
0.0651487535867953 0.0474555066051478 1.88611656778308
0.0336640331182472 0.0843803624485463 1.89140829292349
-0.355272697965638 0.11888703637712 2.16245528447508
-0.330261906407446 0.155979187099768 2.14550841723063
0.0807720829226245 0.0818294817531401 1.91052192905861
0.0497006803790793 0.120821711352924 1.91799171619178
-0.343145861098749 0.148024082509714 2.19901600345421
-0.31704091151639 0.188080764449364 2.17302185049074
0.0981395637275074 0.11884704102737 1.93806103882765
0.0666959350778808 0.156348085730026 1.944333595687
-0.323775987242226 0.190404278441801 2.22174478400971
-0.29874122276862 0.225972099784551 2.19617409341127
0.11447544871081 0.151228025063851 1.96280980056721
0.0839299562504483 0.191205680449936 1.97036526502582
-0.305919798669003 0.229031186560232 2.24287473954321
-0.278950363693115 0.266166393029381 2.22373381961822
0.132317501981801 0.187738154801115 1.99039858165016
0.100343151033358 0.226169744538192 1.996201797716
-0.303776185105941 0.232450514537933 2.28605000245004
-0.280653541953402 0.270120958976841 2.26934340583626
0.147483224324367 0.22046412625968 2.01528123914331
0.116412112521023 0.258721819473571 2.02491343262434
-0.224467846694041 0.314958085950904 2.29159165201285
-0.247668940002232 0.301530217236576 2.25055653585491
-0.20345697439862 0.32745626401522 2.25697785510384
0.144649414086956 0.298527041424583 2.10288190571895
0.132262159575504 0.28353731023688 2.06199912502109
0.0977983635113777 0.310111041909267 2.08339328522556
-0.161014355690038 0.339682769525445 2.27410975144272
-0.16123685513467 0.337175518826389 2.23017087044958
-0.117431761874889 0.342802872247395 2.26525438378529
-0.11777506214013 0.3383592800103 2.21530074048515
-0.0773878695360469 0.340908619761836 2.24806308494326
-0.0787848921068395 0.336590806144328 2.19384660654876
-0.0376429826043206 0.339171306302664 2.22308822374787
-0.0401970588949638 0.334447693508354 2.1705649026755
0.00200992133303288 0.337358804906491 2.20224039282895
-0.00249847261610065 0.332424254061384 2.14824678959712
0.0394380781784646 0.335704244020841 2.17794913365143
0.0381344067221044 0.331169824605784 2.1289067272025
0.0856831308384408 0.33161366977951 2.16370944833706
0.0765313857534584 0.326877264368031 2.11739553817308
-0.303767407974289 0.0732793190589672 2.00609269293882
-0.291469652904609 0.0378295839755508 1.98351266592905
-0.25029755623684 0.0420530659263017 1.96253236809533
-0.207285688797885 0.0396151843498886 1.9387236135325
-0.16678349287619 0.043220094131986 1.91819854142584
-0.126204662659519 0.0441647252798289 1.89684799323051
-0.0844162271580759 0.0420047441515767 1.87597163557724
-0.334066273223501 0.0819458353931471 2.04134387584435
-0.293126727859488 0.111325346763666 2.02624318503176
-0.262820693152838 0.0854723456864425 1.98876390680151
-0.2187559760144 0.0801331483990957 1.96254096673301
-0.177433371143316 0.085480061784909 1.94421524421212
-0.136893433768492 0.0873064864104897 1.92431508100343
-0.0967324059925944 0.0861103877073763 1.90265674907606
-0.0566417993831789 0.078164003759021 1.88365787629807
-0.0142649902627613 0.0844839121292715 1.88326590695828
-0.322289120843644 0.119664952619029 2.06726352318998
-0.281952697225983 0.14719787900041 2.05590326511131
-0.251321289830427 0.130510947097958 2.01940357276123
-0.223671593311755 0.11451868621623 1.99020864949851
-0.181288232085787 0.122269746666034 1.97602333430665
-0.140469896014459 0.12496893394089 1.95793409945762
-0.0979418654538513 0.123022168353758 1.93452347045315
-0.0534532232942613 0.117084025775295 1.91072894058778
-0.000298798133480209 0.119369902303338 1.90777753154709
-0.309734011131508 0.154504337918522 2.09741228822389
-0.266468952750906 0.181844627535924 2.08129145533723
-0.234816370613563 0.166977371022474 2.04600801075196
-0.200613122710804 0.150869204687612 2.01323583376856
-0.153512107575192 0.16043630237125 1.99854824240352
-0.109186590465131 0.158320487234377 1.974064954854
-0.067170567070789 0.15588890793389 1.95046119034002
-0.0280408759892793 0.149900110304701 1.93246267707302
0.0172509938582499 0.156758587371043 1.93519281370787
-0.295694658099152 0.188253824530221 2.1238364125212
-0.252442955157012 0.214789855599991 2.10603850664244
-0.216385193666515 0.203828440146182 2.07200518584438
-0.186616959153309 0.186123174747488 2.03994796887022
-0.146878991678351 0.197395995085363 2.03062612529777
-0.108665722206708 0.192920314172968 2.00697629340285
-0.0661746890787885 0.191090166141312 1.98369584325892
-0.0215135452991785 0.186745965388262 1.96153589151903
0.0330123299776787 0.190329355060945 1.95981148908737
-0.281933523888346 0.221073351191995 2.1493968963963
-0.241460886026843 0.247313874138845 2.13307153499119
-0.204217249600588 0.238359285980185 2.09894978996463
-0.165182874941194 0.22724571389538 2.06852041206323
-0.11735112897023 0.229792344766739 2.04673087531795
-0.0752703227959392 0.22683106969748 2.02257426852631
-0.0341335402549936 0.22512289879766 2.00015864028715
0.00513094721525967 0.219918562877874 1.98339803241237
0.0507495180830002 0.227152874644145 1.98685132927961
-0.267743175357984 0.256420010820966 2.17804778801699
-0.232161340581612 0.280421701894459 2.16348622252562
-0.198049625593028 0.274233947793469 2.13029080703306
-0.160365552204775 0.265266655768232 2.10253594467342
-0.121411629882224 0.26240646094932 2.08005932334621
-0.0772474500709225 0.262202238217007 2.05749109865594
-0.0340070555835475 0.260424607477357 2.03388103284643
0.0112677530727687 0.256860482625579 2.01252520921036
0.066008080829958 0.260119355077355 2.01166901683796
-0.243687827085733 0.294308701512916 2.20527818952248
-0.198433254517042 0.30568898131758 2.1717752506336
-0.159560421535535 0.300478092103709 2.14216475319447
-0.12122067689261 0.297177282492417 2.11885150926263
-0.0820674020330043 0.294669551496026 2.09628993606797
-0.040557474789405 0.293505047497117 2.07445986596576
-0.000129648009927326 0.292373777838703 2.05335504689881
0.039029266001881 0.287630921604755 2.03783035720272
0.0842959512971437 0.290441303230314 2.04597947068201
-0.206758127659773 0.3195940571388 2.21457284536231
-0.159935393688576 0.324912116001006 2.18704896735792
-0.119297235899887 0.32320885279753 2.16502748791168
-0.0802688689215862 0.32076737841229 2.14196138614234
-0.0405909353536815 0.318314815844907 2.11861049445415
0.00191987953861131 0.317081129543783 2.09684505192927
0.0460774447453291 0.314085739466056 2.07764175444429
3 0 1 2
3 0 2 4
3 3 0 4
3 3 4 6
3 5 3 6
3 5 6 8
3 7 5 8
3 7 8 10
3 9 7 10
3 9 10 12
3 11 9 12
3 13 11 14
3 14 11 12
3 13 14 15
3 16 17 18
3 16 18 1
3 0 19 1
3 19 16 1
3 0 3 20
3 19 0 20
3 3 5 21
3 20 3 21
3 5 7 22
3 21 5 22
3 7 9 23
3 22 7 23
3 9 11 24
3 23 9 24
3 24 11 25
3 25 11 13
3 13 15 26
3 27 13 26
3 25 13 27
3 27 26 28
3 17 16 30
3 30 16 29
3 29 19 31
3 29 16 19
3 31 20 32
3 31 19 20
3 32 21 33
3 32 20 21
3 21 22 33
3 33 22 34
3 22 23 34
3 34 23 35
3 23 24 35
3 35 24 36
3 24 25 36
3 36 25 37
3 37 27 38
3 37 25 27
3 38 28 39
3 38 27 28
3 30 40 41
3 30 29 40
3 29 31 42
3 40 29 42
3 31 32 43
3 42 31 43
3 32 33 44
3 43 32 44
3 33 34 45
3 44 33 45
3 34 35 46
3 45 34 46
3 35 36 47
3 46 35 47
3 36 37 47
3 47 37 48
3 37 38 48
3 48 38 49
3 49 39 50
3 49 38 39
3 40 51 52
3 41 40 52
3 51 42 53
3 51 40 42
3 42 43 53
3 53 43 54
3 43 44 54
3 54 44 55
3 44 45 55
3 55 45 56
3 45 46 56
3 56 46 57
3 46 47 58
3 57 46 58
3 47 48 59
3 58 47 59
3 48 49 60
3 59 48 60
3 49 50 61
3 60 49 61
3 51 62 63
3 52 51 63
3 51 53 64
3 62 51 64
3 53 54 65
3 64 53 65
3 54 55 66
3 65 54 66
3 55 56 67
3 66 55 67
3 56 57 67
3 67 57 68
3 57 58 69
3 68 57 69
3 58 59 69
3 69 59 70
3 59 60 70
3 70 60 71
3 71 61 72
3 71 60 61
3 62 73 74
3 63 62 74
3 62 64 75
3 73 62 75
3 64 65 75
3 75 65 76
3 65 66 76
3 76 66 77
3 66 67 77
3 77 67 78
3 67 68 78
3 78 68 79
3 79 69 80
3 79 68 69
3 80 70 81
3 80 69 70
3 81 71 82
3 81 70 71
3 82 72 83
3 82 71 72
3 74 73 85
3 85 73 84
3 84 73 86
3 86 73 75
3 75 76 86
3 86 76 87
3 76 77 88
3 87 76 88
3 77 78 89
3 88 77 89
3 78 79 90
3 89 78 90
3 79 80 91
3 90 79 91
3 80 81 92
3 91 80 92
3 81 82 93
3 92 81 93
3 93 83 94
3 93 82 83
3 84 95 85
3 84 86 96
3 97 84 96
3 95 84 97
3 96 87 98
3 96 86 87
3 87 88 98
3 98 88 99
3 88 89 99
3 99 89 100
3 89 90 100
3 100 90 101
3 101 91 102
3 101 90 91
3 102 92 103
3 102 91 92
3 92 93 103
3 105 103 104
3 103 93 104
3 93 94 104
3 96 106 97
3 96 98 107
3 106 96 107
3 98 99 108
3 107 98 108
3 99 100 109
3 108 99 109
3 100 101 110
3 109 100 110
3 101 102 111
3 110 101 111
3 111 102 112
3 112 102 103
3 103 105 112
3 117 114 115
3 116 113 117
3 117 113 114
3 116 117 119
3 118 116 119
3 118 119 121
3 120 118 121
3 120 121 123
3 122 120 123
3 122 123 125
3 124 122 125
3 124 125 127
3 126 124 127
3 126 127 128
3 129 130 131
3 114 129 131
3 114 113 129
3 113 2 129
3 129 2 1
3 4 113 116
3 4 2 113
3 6 116 118
3 6 4 116
3 8 118 120
3 8 6 118
3 10 120 122
3 10 8 120
3 12 122 124
3 12 10 122
3 14 124 126
3 14 12 124
3 133 126 128
3 15 14 126
3 15 126 133
3 132 15 133
3 132 133 134
3 135 136 137
3 137 17 135
3 137 18 17
3 18 137 130
3 129 18 130
3 18 129 1
3 15 132 26
3 139 132 134
3 139 138 132
3 138 28 26
3 132 138 26
3 138 139 140
3 136 135 142
3 142 135 141
3 17 30 135
3 135 30 141
3 143 39 28
3 138 143 28
3 143 140 144
3 143 138 140
3 141 145 146
3 142 141 146
3 41 145 141
3 30 41 141
3 147 39 143
3 147 50 39
3 147 144 148
3 147 143 144
3 145 149 150
3 146 145 150
3 52 149 145
3 41 52 145
3 151 50 147
3 151 155 50
3 151 148 152
3 151 147 148
3 149 153 154
3 150 149 154
3 63 153 149
3 52 63 149
3 155 61 50
3 155 72 61
3 155 151 156
3 156 151 152
3 154 157 158
3 154 153 157
3 74 157 153
3 63 74 153
3 159 72 155
3 159 83 72
3 159 156 160
3 159 155 156
3 158 157 162
3 162 157 161
3 74 85 161
3 157 74 161
3 163 83 159
3 163 94 83
3 163 160 164
3 163 159 160
3 161 165 162
3 165 95 166
3 165 161 95
3 161 85 95
3 165 166 167
3 95 97 166
3 105 104 168
3 170 94 163
3 170 168 94
3 169 168 170
3 94 168 104
3 163 164 170
3 166 171 167
3 173 171 172
3 172 171 106
3 171 97 106
3 171 166 97
3 172 107 174
3 172 106 107
3 174 108 175
3 174 107 108
3 175 109 176
3 175 108 109
3 176 110 177
3 176 109 110
3 177 111 178
3 177 110 111
3 178 112 180
3 178 111 112
3 181 105 168
3 181 180 105
3 179 178 180
3 180 112 105
3 168 169 181
3 172 182 173
3 182 172 183
3 183 172 174
3 174 175 184
3 183 174 184
3 175 176 185
3 184 175 185
3 176 177 186
3 185 176 186
3 177 178 187
3 186 177 187
3 187 179 188
3 187 178 179
3 179 180 229
3 189 190 191
3 114 131 191
3 115 114 191
3 115 191 192
3 115 192 193
3 117 115 193
3 119 193 194
3 119 117 193
3 119 194 121
3 121 194 195
3 121 195 123
3 123 195 196
3 123 196 125
3 125 196 197
3 127 197 198
3 127 125 197
3 128 198 199
3 200 128 199
3 128 127 198
3 200 199 201
3 202 203 204
3 131 130 189
3 190 189 204
3 189 130 202
3 189 202 204
3 131 189 191
3 128 200 133
3 134 200 205
3 206 205 201
3 134 133 200
3 205 200 201
3 205 206 207
3 136 208 203
3 202 137 136
3 202 136 203
3 137 202 130
3 134 205 139
3 139 205 207
3 140 139 207
3 211 207 209
3 136 142 208
3 208 142 210
3 211 140 207
3 211 144 140
3 146 212 210
3 142 146 210
3 148 144 213
3 213 144 211
3 150 214 212
3 146 150 212
3 215 148 213
3 215 152 148
3 154 216 150
3 150 216 214
3 219 152 217
3 217 152 215
3 158 218 216
3 154 158 216
3 219 156 152
3 219 160 156
3 158 220 218
3 158 162 220
3 221 160 219
3 221 164 160
3 162 165 222
3 223 220 222
3 220 162 222
3 165 167 222
3 169 170 224
3 225 164 221
3 224 170 164
3 224 164 225
3 222 226 223
3 167 171 227
3 226 167 227
3 226 227 228
3 226 222 167
3 171 173 227
3 180 181 229
3 181 169 230
3 231 169 224
3 230 169 231
3 230 229 181
3 224 225 271
3 227 232 228
3 232 182 233
3 232 173 182
3 227 173 232
3 182 183 234
3 233 182 234
3 183 184 234
3 234 184 235
3 184 185 235
3 235 185 236
3 185 186 236
3 236 186 237
3 186 187 237
3 237 187 238
3 238 188 239
3 238 187 188
3 188 179 229
3 240 239 188
3 240 188 229
3 229 230 240
3 191 190 242
3 242 190 241
3 192 242 243
3 192 191 242
3 192 243 244
3 193 192 244
3 194 244 245
3 194 193 244
3 194 245 246
3 195 194 246
3 195 246 247
3 196 195 247
3 196 247 248
3 197 196 248
3 197 248 249
3 198 197 249
3 199 198 249
3 250 199 249
3 201 199 251
3 251 199 250
3 204 252 253
3 204 203 252
3 190 253 241
3 190 204 253
3 206 251 254
3 206 201 251
3 207 206 255
3 255 206 254
3 203 256 252
3 203 208 256
3 257 209 255
3 255 209 207
3 210 258 208
3 208 258 256
3 211 209 259
3 259 209 257
3 212 260 210
3 210 260 258
3 213 211 259
3 261 213 259
3 214 262 260
3 212 214 260
3 215 213 261
3 263 215 261
3 216 264 214
3 214 264 262
3 217 215 263
3 265 217 263
3 218 266 264
3 216 218 264
3 219 217 265
3 267 219 265
3 218 268 266
3 218 220 268
3 221 219 267
3 269 221 267
3 223 270 268
3 220 223 268
3 225 221 269
3 271 225 269
3 223 226 272
3 270 223 272
3 272 228 273
3 272 226 228
3 274 231 275
3 274 230 231
3 275 231 271
3 271 231 224
3 273 228 276
3 276 228 232
3 276 233 277
3 276 232 233
3 233 234 278
3 277 233 278
3 234 235 279
3 278 234 279
3 235 236 280
3 279 235 280
3 236 237 281
3 280 236 281
3 237 238 282
3 281 237 282
3 238 239 283
3 282 238 283
3 327 239 284
3 284 239 240
3 240 230 274
3 284 240 274
3 241 285 286
3 242 241 286
3 242 286 243
3 243 286 287
3 243 287 288
3 244 243 288
3 245 288 289
3 245 244 288
3 245 289 246
3 246 289 290
3 246 290 247
3 247 290 291
3 247 291 248
3 248 291 292
3 248 292 293
3 249 248 293
3 249 293 250
3 250 293 294
3 250 294 295
3 251 250 295
3 252 296 297
3 253 252 297
3 241 297 285
3 241 253 297
3 254 295 298
3 254 251 295
3 254 298 299
3 255 254 299
3 256 300 252
3 252 300 296
3 257 255 299
3 301 257 299
3 258 302 300
3 256 258 300
3 259 257 303
3 303 257 301
3 260 304 258
3 258 304 302
3 261 259 303
3 305 261 303
3 262 306 304
3 260 262 304
3 263 261 305
3 307 263 305
3 264 308 262
3 262 308 306
3 265 263 307
3 309 265 307
3 266 310 308
3 264 266 308
3 267 265 309
3 311 267 309
3 266 312 310
3 266 268 312
3 269 267 311
3 313 269 311
3 270 314 312
3 268 270 312
3 271 269 315
3 315 269 313
3 270 272 316
3 314 270 316
3 316 273 317
3 316 272 273
3 318 275 319
3 318 274 275
3 275 271 315
3 319 275 315
3 273 276 320
3 317 273 320
3 276 277 320
3 320 277 321
3 277 278 322
3 321 277 322
3 322 279 323
3 322 278 279
3 279 280 323
3 323 280 324
3 280 281 324
3 324 281 325
3 281 282 325
3 325 282 326
3 282 283 326
3 326 283 327
3 283 239 327
3 327 284 328
3 284 274 318
3 328 284 318
3 285 329 330
3 286 285 330
3 286 330 287
3 287 330 331
3 287 331 332
3 288 287 332
3 288 332 289
3 289 332 333
3 289 333 334
3 290 289 334
3 290 334 335
3 291 290 335
3 291 335 292
3 292 335 336
3 292 336 337
3 293 292 337
3 293 337 294
3 294 337 338
3 294 338 339
3 295 294 339
3 296 340 341
3 297 296 341
3 285 341 329
3 285 297 341
3 298 339 342
3 298 295 339
3 298 342 343
3 299 298 343
3 300 344 296
3 296 344 340
3 301 299 343
3 345 301 343
3 302 346 344
3 300 302 344
3 303 301 347
3 347 301 345
3 304 348 302
3 302 348 346
3 305 303 347
3 349 305 347
3 306 350 348
3 304 306 348
3 307 305 351
3 351 305 349
3 308 352 306
3 306 352 350
3 309 307 353
3 353 307 351
3 310 354 352
3 308 310 352
3 311 309 355
3 355 309 353
3 312 356 310
3 310 356 354
3 313 311 355
3 357 313 355
3 314 358 356
3 312 314 356
3 315 313 359
3 359 313 357
3 314 316 360
3 358 314 360
3 360 317 361
3 360 316 317
3 362 319 363
3 362 318 319
3 319 315 359
3 363 319 359
3 317 320 364
3 361 317 364
3 320 321 364
3 364 321 365
3 321 322 366
3 365 321 366
3 322 323 366
3 366 323 367
3 323 324 368
3 367 323 368
3 324 325 369
3 368 324 369
3 325 326 370
3 369 325 370
3 326 327 371
3 370 326 371
3 327 328 371
3 371 328 372
3 328 318 362
3 372 328 362
3 329 373 374
3 330 329 374
3 330 374 331
3 331 374 375
3 331 375 376
3 332 331 376
3 332 376 333
3 333 376 377
3 333 377 378
3 334 333 378
3 334 378 379
3 335 334 379
3 335 379 336
3 336 379 380
3 336 380 381
3 337 336 381
3 337 381 338
3 338 381 382
3 338 382 383
3 339 338 383
3 340 384 385
3 341 340 385
3 329 385 373
3 329 341 385
3 342 383 386
3 342 339 383
3 342 386 387
3 343 342 387
3 344 388 340
3 340 388 384
3 345 343 387
3 389 345 387
3 346 390 388
3 344 346 388
3 347 345 391
3 391 345 389
3 348 392 346
3 346 392 390
3 349 347 391
3 393 349 391
3 350 394 348
3 348 394 392
3 351 349 395
3 395 349 393
3 352 396 350
3 350 396 394
3 353 351 395
3 397 353 395
3 354 398 396
3 352 354 396
3 355 353 399
3 399 353 397
3 356 400 354
3 354 400 398
3 357 355 399
3 401 357 399
3 358 402 400
3 356 358 400
3 359 357 403
3 403 357 401
3 358 360 404
3 402 358 404
3 404 361 405
3 404 360 361
3 406 363 407
3 406 362 363
3 363 359 403
3 407 363 403
3 361 364 408
3 405 361 408
3 364 365 408
3 408 365 409
3 365 366 410
3 409 365 410
3 366 367 410
3 410 367 411
3 367 368 412
3 411 367 412
3 368 369 412
3 412 369 413
3 369 370 413
3 413 370 414
3 370 371 415
3 414 370 415
3 371 372 415
3 415 372 416
3 372 362 406
3 416 372 406
3 373 417 418
3 374 373 418
3 374 418 375
3 375 418 419
3 375 419 420
3 376 375 420
3 376 420 377
3 377 420 421
3 377 421 422
3 378 377 422
3 378 422 423
3 379 378 423
3 380 423 424
3 380 379 423
3 380 424 425
3 381 380 425
3 382 425 426
3 382 381 425
3 382 426 427
3 383 382 427
3 384 428 429
3 385 384 429
3 373 429 417
3 373 385 429
3 386 427 430
3 386 383 427
3 386 430 431
3 387 386 431
3 384 432 428
3 384 388 432
3 389 387 431
3 433 389 431
3 390 434 432
3 388 390 432
3 435 389 433
3 435 391 389
3 390 436 434
3 390 392 436
3 393 391 435
3 437 393 435
3 394 438 436
3 392 394 436
3 395 393 439
3 439 393 437
3 396 440 438
3 394 396 438
3 397 395 439
3 441 397 439
3 398 442 440
3 396 398 440
3 399 397 443
3 443 397 441
3 400 444 398
3 398 444 442
3 401 399 443
3 445 401 443
3 402 446 444
3 400 402 444
3 403 401 447
3 447 401 445
3 402 404 448
3 446 402 448
3 448 405 449
3 448 404 405
3 450 407 451
3 450 406 407
3 407 403 447
3 451 407 447
3 405 408 452
3 449 405 452
3 408 409 452
3 452 409 453
3 409 410 454
3 453 409 454
3 410 411 454
3 454 411 455
3 411 412 456
3 455 411 456
3 412 413 456
3 456 413 457
3 457 414 458
3 457 413 414
3 414 415 459
3 458 414 459
3 415 416 459
3 459 416 460
3 416 406 450
3 460 416 450
3 418 461 462
3 418 417 461
3 419 462 463
3 419 418 462
3 419 463 464
3 420 419 464
3 420 464 421
3 421 464 465
3 421 465 466
3 422 421 466
3 422 466 467
3 423 422 467
3 424 467 468
3 424 423 467
3 424 468 469
3 425 424 469
3 426 469 470
3 426 425 469
3 427 426 471
3 471 426 470
3 429 428 473
3 473 428 472
3 417 473 505
3 417 429 473
3 430 427 471
3 520 430 471
3 431 474 475
3 431 430 474
3 428 476 472
3 428 432 476
3 433 431 475
3 477 433 475
3 434 478 476
3 432 434 476
3 479 433 477
3 479 435 433
3 434 480 478
3 434 436 480
3 437 435 479
3 481 437 479
3 438 482 436
3 436 482 480
3 439 437 483
3 483 437 481
3 440 484 482
3 438 440 482
3 441 439 483
3 485 441 483
3 442 486 440
3 440 486 484
3 443 441 487
3 487 441 485
3 444 488 442
3 442 488 486
3 445 443 487
3 489 445 487
3 444 446 488
3 488 446 490
3 491 445 489
3 491 447 445
3 490 446 492
3 492 446 448
3 492 449 493
3 492 448 449
3 494 451 495
3 494 450 451
3 451 447 491
3 495 451 491
3 449 452 496
3 493 449 496
3 496 453 497
3 496 452 453
3 453 454 498
3 497 453 498
3 498 455 499
3 498 454 455
3 455 456 500
3 499 455 500
3 456 457 501
3 500 456 501
3 457 458 502
3 501 457 502
3 458 459 503
3 502 458 503
3 503 460 504
3 503 459 460
3 504 460 494
3 494 460 450
3 461 505 506
3 462 461 506
3 507 463 462
3 507 462 506
3 465 463 508
3 508 463 507
3 464 463 465
3 465 508 509
3 465 509 466
3 466 509 510
3 466 510 467
3 467 510 511
3 467 511 468
3 468 511 512
3 468 512 513
3 469 468 513
3 469 513 470
3 515 470 514
3 470 513 514
3 470 515 471
3 472 516 473
3 518 516 517
3 518 505 516
3 461 417 505
3 505 473 516
3 505 518 506
3 515 514 519
3 474 430 520
3 521 520 519
3 520 471 515
3 520 515 519
3 474 520 524
3 476 522 472
3 516 472 523
3 472 522 523
3 516 523 517
3 520 521 524
3 477 475 524
3 524 475 474
3 525 477 524
3 478 526 522
3 476 478 522
3 527 477 525
3 527 479 477
3 478 528 526
3 478 480 528
3 481 479 527
3 529 481 527
3 482 530 480
3 480 530 528
3 483 481 531
3 531 481 529
3 484 532 530
3 482 484 530
3 485 483 531
3 533 485 531
3 486 534 484
3 484 534 532
3 535 485 533
3 535 487 485
3 486 536 534
3 486 488 536
3 537 489 535
3 535 489 487
3 490 538 539
3 536 490 539
3 488 490 536
3 538 540 539
3 541 542 543
3 541 489 537
3 542 541 537
3 541 491 489
3 490 492 538
3 545 493 544
3 538 492 493
3 538 493 545
3 540 538 545
3 544 546 545
3 547 548 549
3 543 495 541
3 547 494 495
3 547 495 543
3 608 547 543
3 495 491 541
3 493 496 544
3 544 497 550
3 546 544 550
3 544 496 497
3 550 497 551
3 551 497 498
3 498 499 551
3 551 499 552
3 499 500 552
3 552 500 553
3 500 501 553
3 553 501 554
3 554 502 555
3 554 501 502
3 502 503 556
3 555 502 556
3 503 504 556
3 549 504 547
3 556 504 549
3 504 494 547
3 506 557 507
3 507 557 558
3 508 507 558
3 508 558 559
3 509 508 559
3 509 559 560
3 510 509 560
3 510 560 561
3 511 510 561
3 511 561 562
3 512 511 562
3 514 512 563
3 563 512 562
3 513 512 514
3 517 564 518
3 518 564 557
3 566 564 565
3 557 564 566
3 557 506 518
3 558 566 567
3 558 557 566
3 559 567 568
3 559 558 567
3 560 568 569
3 560 559 568
3 561 569 570
3 561 560 569
3 562 570 571
3 562 561 570
3 563 562 571
3 572 563 571
3 574 514 563
3 572 574 563
3 573 519 574
3 574 519 514
3 519 573 521
3 522 575 523
3 577 575 576
3 577 517 575
3 564 517 577
3 575 517 523
3 564 577 565
3 573 574 572
3 521 573 579
3 580 573 578
3 579 573 580
3 579 524 521
3 524 579 525
3 522 581 575
3 522 526 581
3 576 581 582
3 576 575 581
3 583 580 584
3 583 579 580
3 583 525 579
3 583 527 525
3 526 585 581
3 526 528 585
3 582 585 586
3 582 581 585
3 587 584 588
3 587 583 584
3 587 527 583
3 587 529 527
3 528 589 585
3 528 530 589
3 586 589 590
3 586 585 589
3 591 588 592
3 591 587 588
3 591 529 587
3 591 531 529
3 532 593 589
3 530 532 589
3 590 593 594
3 590 589 593
3 595 592 596
3 595 591 592
3 595 531 591
3 595 533 531
3 534 597 593
3 532 534 593
3 594 597 598
3 594 593 597
3 599 596 600
3 599 595 596
3 599 533 595
3 599 535 533
3 534 601 597
3 534 536 601
3 602 597 601
3 602 598 597
3 603 599 600
3 604 603 600
3 603 535 599
3 603 537 535
3 536 539 601
3 606 540 605
3 606 602 540
3 602 601 539
3 540 602 539
3 605 607 606
3 608 609 610
3 608 543 609
3 604 542 603
3 609 543 542
3 609 542 604
3 542 537 603
3 540 545 605
3 605 546 607
3 612 607 611
3 605 545 546
3 607 546 611
3 612 613 614
3 612 611 613
3 614 615 616
3 614 613 615
3 616 617 618
3 616 615 617
3 618 619 620
3 618 617 619
3 620 621 622
3 620 619 621
3 622 623 624
3 622 621 623
3 610 548 608
3 624 623 548
3 624 548 610
3 548 623 549
3 548 547 608
3 546 550 611
3 611 550 613
3 613 550 551
3 551 552 615
3 613 551 615
3 552 553 617
3 615 552 617
3 553 554 619
3 617 553 619
3 554 555 621
3 619 554 621
3 621 555 623
3 623 555 556
3 556 549 623
3 565 625 626
3 567 566 626
3 626 566 565
3 567 626 627
3 568 567 627
3 568 627 628
3 569 568 628
3 569 628 629
3 570 569 629
3 570 629 630
3 571 570 630
3 572 571 631
3 631 571 630
3 572 631 578
3 576 632 577
3 625 632 633
3 565 577 632
3 565 632 625
3 625 633 634
3 626 625 634
3 626 634 627
3 627 634 635
3 627 635 628
3 628 635 636
3 628 636 629
3 629 636 637
3 629 637 630
3 630 637 638
3 631 638 639
3 631 630 638
3 640 578 639
3 578 573 572
3 578 631 639
3 578 640 580
3 576 641 632
3 576 582 641
3 633 641 642
3 633 632 641
3 633 642 643
3 634 633 643
3 634 643 644
3 635 634 644
3 635 644 645
3 636 635 645
3 636 645 646
3 637 636 646
3 637 646 647
3 638 637 647
3 638 647 648
3 639 638 648
3 640 648 649
3 640 639 648
3 584 580 640
3 649 584 640
3 582 650 641
3 582 586 650
3 642 650 651
3 642 641 650
3 642 651 652
3 643 642 652
3 643 652 653
3 644 643 653
3 644 653 645
3 645 653 654
3 645 654 646
3 646 654 655
3 646 655 647
3 647 655 656
3 647 656 648
3 648 656 657
3 648 657 649
3 649 657 658
3 588 584 649
3 658 588 649
3 586 659 650
3 586 590 659
3 650 659 651
3 651 659 660
3 651 660 661
3 652 651 661
3 652 661 662
3 653 652 662
3 653 662 654
3 654 662 663
3 654 663 664
3 655 654 664
3 655 664 665
3 656 655 665
3 656 665 666
3 657 656 666
3 657 666 658
3 658 666 667
3 592 588 658
3 667 592 658
3 590 668 659
3 590 594 668
3 660 668 669
3 660 659 668
3 660 669 670
3 661 660 670
3 661 670 671
3 662 661 671
3 662 671 663
3 663 671 672
3 663 672 664
3 664 672 673
3 664 673 665
3 665 673 674
3 665 674 666
3 666 674 675
3 666 675 667
3 667 675 676
3 596 592 667
3 676 596 667
3 594 677 668
3 594 598 677
3 668 677 669
3 669 677 678
3 669 678 679
3 670 669 679
3 670 679 680
3 671 670 680
3 671 680 681
3 672 671 681
3 672 681 682
3 673 672 682
3 673 682 683
3 674 673 683
3 674 683 684
3 675 674 684
3 676 684 685
3 676 675 684
3 600 596 676
3 685 600 676
3 598 686 677
3 598 602 606
3 678 686 687
3 678 677 686
3 678 687 679
3 679 687 688
3 679 688 680
3 680 688 689
3 680 689 681
3 681 689 690
3 681 690 682
3 682 690 691
3 683 691 692
3 683 682 691
3 684 692 693
3 684 683 692
3 685 693 694
3 685 684 693
3 694 604 685
3 685 604 600
3 598 606 686
3 606 607 695
3 686 606 695
3 686 695 687
3 688 687 696
3 696 687 695
3 688 696 697
3 689 688 697
3 689 697 698
3 690 689 698
3 690 698 699
3 691 690 699
3 691 699 700
3 692 691 700
3 692 700 701
3 693 692 701
3 610 609 694
3 701 610 694
3 701 694 693
3 609 604 694
3 607 612 695
3 695 612 696
3 696 612 614
3 614 616 697
3 696 614 697
3 616 618 698
3 697 616 698
3 618 620 699
3 698 618 699
3 620 622 700
3 699 620 700
3 622 624 701
3 700 622 701
3 624 610 701
