OFF
702 1400 0
-0.26095704945265 -0.325124902087028 2.21597357920598
-0.306402879046008 -0.311531113992552 2.1981450057405
-0.278364187101299 -0.331236876470859 2.17079763067125
-0.214075559310621 -0.331704116161125 2.22062574496292
-0.232415892330391 -0.341943205595854 2.17603187610999
-0.167259151767566 -0.336350624023389 2.22369815125903
-0.18602024079258 -0.346175459221095 2.17808071178756
-0.12187062989541 -0.340334737861862 2.22796949486297
-0.14068973617472 -0.350201155079236 2.17983175403376
-0.0769664644318016 -0.344119808224502 2.23259652029696
-0.0959194619696085 -0.353788751047351 2.18437709106952
-0.0294480887327714 -0.347107888065501 2.2401134704624
-0.0501123706826867 -0.356984823347759 2.1927672232307
0.0186791199957061 -0.342603339781832 2.24828543141223
-0.00277384609497798 -0.358485105524855 2.20165967391924
0.0437709800127176 -0.349525858590999 2.2102150200246
-0.328926046008098 -0.282679192157581 2.22615864066042
-0.35870397221381 -0.265569007571558 2.19862331505276
-0.337606175946242 -0.295856335898363 2.17040525267285
-0.288448751537207 -0.298477158637073 2.24592338415558
-0.241732001925307 -0.307393076958386 2.25788731111067
-0.194027679806706 -0.312665725188303 2.26164389424543
-0.14724722746852 -0.316544895513463 2.26692106409517
-0.102016368998015 -0.319869968197015 2.27264582711824
-0.057715170492096 -0.325215336375706 2.27514754632178
-0.00904961405809555 -0.325941787250267 2.28228405492866
0.0646619915693063 -0.326393397107469 2.2536678857167
0.0361667825218145 -0.313735076608043 2.28979298598609
0.0822701585236695 -0.29361304517348 2.28716312587991
-0.315867831805678 -0.261432467860754 2.26747791434109
-0.356047501793492 -0.241226077207078 2.23937837133019
-0.269868771379662 -0.274729806027956 2.28504295586085
-0.219909358353602 -0.281010546564561 2.29304333162724
-0.172300366814143 -0.285293435325134 2.29818532671283
-0.124662083924065 -0.287655608179286 2.30527438353951
-0.0799436036934695 -0.290325011908347 2.31147119397692
-0.0377085760888524 -0.299688898116491 2.31041201348326
0.00366233786680249 -0.29133302506839 2.32086482263094
0.0493318589343466 -0.277917356065162 2.32202241006044
0.0941431339038928 -0.255690823874789 2.31514864308781
-0.334044527019419 -0.223973056142278 2.2878049287262
-0.367240189352272 -0.202736491570824 2.26119396180492
-0.293039230433055 -0.2386912369218 2.30901280444268
-0.244011189445168 -0.249201302395813 2.32020451702933
-0.195228999618301 -0.251286581501598 2.32798025993573
-0.147769377577216 -0.255998787032445 2.33265962140417
-0.0962473105044786 -0.256737255070396 2.34216059201297
-0.0413986074454869 -0.266110456539593 2.34359994984354
0.00906820828641951 -0.258719826150889 2.35270560997004
0.0595522020605518 -0.243221178252602 2.35108935413067
0.104302163744907 -0.217218984486355 2.34279903100118
-0.318009858270552 -0.19942486493376 2.3300591936175
-0.358539586860641 -0.181873340449404 2.29889938369047
-0.268753847753295 -0.216489349458443 2.34500564917829
-0.221320612120295 -0.218670884335176 2.35574133657901
-0.175757358479069 -0.219620400266832 2.36384434213996
-0.131815990642121 -0.227446910694172 2.36467742925954
-0.0982459495015574 -0.215321753096229 2.38360304333269
-0.0634552678604446 -0.234722540871827 2.37092331168597
-0.0211101048179232 -0.231121377679422 2.38162077141078
0.0268015362202083 -0.224587042967096 2.38276761573348
0.074853694047112 -0.205837390281486 2.37826889154241
-0.321055025543347 -0.158505035889702 2.36984608886312
-0.349181832367884 -0.161042124516584 2.33507911412912
-0.288184444907198 -0.184876877494522 2.36740715179694
-0.241074083766741 -0.187086937989874 2.38371385053772
-0.196302739826275 -0.185756254384473 2.39397043987857
-0.147383217844587 -0.190683606598585 2.39872176014153
-0.101908989191804 -0.18475136294353 2.41375954454121
-0.0545149147684926 -0.198169698611954 2.40962955804642
-0.0064774349379277 -0.197938973481338 2.41489666678292
0.041288968661146 -0.19067598957996 2.41124588466689
0.0887522223916954 -0.168601063718523 2.40381393387847
-0.31034558161375 -0.133701820017133 2.40485748795109
-0.354534688939827 -0.121312596033765 2.36968350528188
-0.271694726893759 -0.158186370055189 2.40321373832048
-0.225674492603397 -0.151766476436065 2.422466013479
-0.175626238347498 -0.156230270103445 2.42791116003643
-0.129801955837989 -0.15591412458773 2.43734530008742
-0.0782580067045981 -0.159888162487242 2.44358166982531
-0.0333144790635558 -0.166410417686607 2.44557199072739
0.0130659818784138 -0.163524063529745 2.44666077146363
0.0569835339951602 -0.156371346601381 2.43748059539693
0.0933942591724045 -0.13071071902081 2.43606755603498
-0.305437421733368 -0.0935961324942166 2.44025762701724
-0.339382893270407 -0.102626802999257 2.40727433509001
-0.27204494297914 -0.123870903017838 2.43600979022772
-0.237406194728011 -0.111849074613202 2.45362342595134
-0.194673280272928 -0.120444338654655 2.45526774442179
-0.149531301533368 -0.120637934888129 2.46292674337567
-0.102311152229932 -0.124031823261266 2.46879005741057
-0.0536917348119719 -0.128211266138749 2.47437702046504
-0.00540432671568153 -0.131384376863818 2.47601999601835
0.0461663137087807 -0.125827903698936 2.46823523358275
0.0935451017950377 -0.0947963212314505 2.46007161893964
-0.34667467813456 -0.0631868467366269 2.42384794608751
-0.268140210085823 -0.0740164396131495 2.46588811355186
-0.311671949423013 -0.0495466231493103 2.45486074045103
-0.218650483921829 -0.0746392016514588 2.4750592166838
-0.172606633525138 -0.0794651821078699 2.48013645365694
-0.125912727498794 -0.0805280402212123 2.48669416451012
-0.0801039433138132 -0.0852217806278734 2.49179526453744
-0.0334252005948307 -0.0898250593074416 2.49677610307862
0.0132337330064368 -0.0916407824023917 2.49466204327933
0.0575609775315657 -0.0855960281343693 2.48432651970049
0.0394212869677024 -0.0465196951221939 2.5005678370599
-0.284697194002977 -0.022422237572696 2.47249002072904
-0.242244326715742 -0.0315607964335005 2.4824713988924
-0.19319795314143 -0.0335147514501171 2.48863743035534
-0.147427065209832 -0.0347354800684348 2.49442799031044
-0.101126433469742 -0.0362758369747362 2.50022527744062
-0.0565568107955937 -0.0430959238623224 2.50520175646999
-0.00884643614439065 -0.0475864843714374 2.50813645934351
-0.256494398421404 -0.339443507631623 2.13159178114483
-0.280318886293128 -0.325782337859952 2.09602785567084
-0.256833219956424 -0.319451389459861 2.05837042466345
-0.206893132097245 -0.346078993203756 2.13222048159962
-0.228572002986063 -0.337442171753433 2.09109327528529
-0.160845878036542 -0.349116269694423 2.13153620900165
-0.180430709109355 -0.338127709899775 2.08547996099458
-0.115433888693562 -0.352324573690692 2.13405154424384
-0.135122445591749 -0.339978896576922 2.08613050146648
-0.0700984744010391 -0.356104882789008 2.14173846294033
-0.0875439720165715 -0.343828607493926 2.09225605875636
-0.0251740203306972 -0.360071605262901 2.15211516522462
-0.0418200930903943 -0.34868749717927 2.10147176165793
0.0209017129304005 -0.358820585330714 2.16057531998571
0.0024053124959864 -0.352992608082975 2.11277159908273
0.0503631965114531 -0.346214556652699 2.1216357728495
-0.307975231320206 -0.318901461278061 2.1392719130222
-0.346371050356326 -0.288409178410639 2.12303858735928
-0.316927103887454 -0.304504457608608 2.09073871835215
0.0885759004746745 -0.329466343834385 2.21417376264403
0.0641254357017615 -0.347206857832033 2.16967368870603
0.103878116206962 -0.325921483021151 2.17142115939584
-0.383872115614428 -0.229892381693691 2.18867693919336
-0.394238690992531 -0.217868193015427 2.13898921259453
-0.371596188906183 -0.260335064564962 2.15233437760157
0.109830892692796 -0.300970890287383 2.24746775343754
0.13033893094865 -0.299893235887149 2.20308189228908
0.147632990125144 -0.268435273562016 2.23004891286145
-0.385835131340337 -0.200958230564344 2.2198889433053
-0.401717752283474 -0.185242711157123 2.17345915282831
0.123954532056171 -0.26500834025687 2.27535253259098
0.155157897427394 -0.228891928083816 2.26029916810805
-0.389321683230545 -0.162063980399624 2.25339303178777
-0.402057932716986 -0.155056635041747 2.2096003718314
0.132057595383748 -0.224460638784087 2.30300110325898
0.161836098035415 -0.186848817867478 2.28416088032607
-0.383630343640398 -0.142688778157719 2.29100715788097
-0.404048327563824 -0.11458282648384 2.24856910397874
0.140964101192841 -0.183259225902363 2.3280907957406
0.166514865296235 -0.144757482781761 2.31003673197623
-0.375588378179397 -0.124341394426905 2.32974190707027
-0.399335387187382 -0.0964301018456117 2.29369135963176
0.117867877429945 -0.176031484403926 2.36730133740641
0.15054547603905 -0.13808336363782 2.35273345926773
-0.389133275693934 -0.084219072329802 2.34159275319437
-0.40729390734355 -0.0501140732023095 2.31006817716866
0.125532536735826 -0.13595350194219 2.39547053266509
0.155892583524833 -0.0979824694192862 2.37811633982549
-0.373507916132809 -0.0763455976979292 2.38299136857951
-0.397626255335972 -0.0385801221255687 2.3573165746782
0.129227787301361 -0.0984824671655184 2.4234568098563
0.153081211049049 -0.0607028380986512 2.40938115683119
-0.37611510224587 -0.0310635167517295 2.40009047907549
-0.343912077725892 -0.0195459883518103 2.4374522285169
-0.363549760726207 0.0138010444839599 2.41754283102654
0.0865777919639963 -0.0477080862215375 2.47975821598863
0.110064534505196 -0.00855347647600469 2.46518485318253
0.123245913622874 -0.0562401563376227 2.44933959608989
-0.318268841183114 0.00807521356649905 2.45637216018165
-0.265715725374091 0.0186771574752928 2.47804953027395
-0.297547720082067 0.0468674975144145 2.46045763388981
-0.216157896712513 0.00988783983878139 2.48683071327137
-0.168886415230542 0.0126062846606095 2.49188978050262
-0.122280057781572 0.0110467488638793 2.49724818842266
-0.0754602705667541 0.0094205668277732 2.50261713265264
-0.0325521459626221 -0.00146057377330058 2.50857034700927
-0.00691409747662682 0.0347837508545057 2.50226636103975
0.018105027180246 -0.00539919794919811 2.50671466013522
0.0667978895541361 -0.00547322533202499 2.49172982554207
-0.263896777099287 0.0760062723265459 2.46232468981226
-0.232391665221064 0.052335574750639 2.47712696621863
-0.188241789320075 0.057431491251996 2.47967776392493
-0.142146902298793 0.0572521304637167 2.48400056142225
-0.0954701793853443 0.0550534175412188 2.48907909561487
-0.0470706873456549 0.0531281119067689 2.49419515303382
0.00888188919809287 0.0716189080667224 2.48615768225707
-0.344490676746411 -0.273169148529379 2.07341514016639
-0.328209451180908 -0.260826791430954 2.0340399246452
-0.29776833482226 -0.2964710881508 2.0487880986063
-0.249029645617614 -0.298087297024009 2.0218013005841
-0.207157340194973 -0.321185117741 2.04845150082197
-0.156617445195551 -0.317298166525337 2.04153880795345
-0.10665474284609 -0.322566258747868 2.04968583491266
-0.0546143154828503 -0.326793398692768 2.05622235414981
-0.0093253990299952 -0.332408204110262 2.0650454146534
0.0347876951628939 -0.335566438742418 2.08111699714355
0.0773097662420911 -0.317787457422416 2.07950851855845
0.0900470067134117 -0.329813586431547 2.12789267573031
0.116761349858022 -0.30435023569091 2.10909687012344
-0.37416928926455 -0.249787554198732 2.1060252907112
-0.391569170524294 -0.203758746069984 2.0914382623163
-0.368354738847931 -0.231738822795507 2.06220140329592
0.133511246302684 -0.300093588689591 2.15350910188901
0.149530505653242 -0.272593169225778 2.12114433321729
0.159674557814739 -0.267387257287439 2.1761394671078
-0.405504698756303 -0.169398246339144 2.12673948446429
0.179693508982634 -0.225428660801319 2.1719024623813
-0.408247608219482 -0.137237480350261 2.15818803097577
0.171771782911551 -0.231623578235598 2.21467561474394
-0.409023948939898 -0.113519938266124 2.20010414847934
0.177702001604028 -0.188801248436829 2.23688216114055
-0.410815057192836 -0.0731540918970431 2.2141708070781
0.180577752362637 -0.147722002489415 2.25937271515699
-0.410604487111223 -0.0636383501818539 2.26108708801394
0.181496388918277 -0.109397463215492 2.28524373025729
-0.413413471973284 -0.0153004688639442 2.27775895811721
0.173862894025664 -0.0950800144868795 2.33019904626806
-0.409404619608592 -0.00250104913959758 2.32768391025978
0.174362325529836 -0.0549583969817737 2.36153718812342
-0.392429718489161 0.0076022896915365 2.37532235010041
-0.398674794808839 0.043847743809984 2.34499772849504
0.143186481726272 -0.0152379666949712 2.43144964823581
0.167380988244291 -0.0206184766342613 2.39052738826471
-0.374802509353857 0.0512876930310688 2.39085394805949
-0.339939737603908 0.0482992096511992 2.43216173157543
-0.34668477519404 0.0887725046031708 2.40290307226509
0.0429585529859142 0.0357591028290789 2.4929923770864
0.0893780838805566 0.0344636215589018 2.47129715685705
0.128184806497953 0.0309174035852689 2.43928957397768
-0.309856530749802 0.0861598944636447 2.43635774216952
-0.269144796458613 0.112689411350571 2.43848833780219
-0.216730350458791 0.0973235679854076 2.45860756259364
-0.167671917798925 0.0991526216547243 2.46098721480186
-0.120328262029355 0.0978737970463789 2.46510201248748
-0.0729780505193382 0.0945502596606731 2.47055393794575
-0.0269803023738139 0.0949294509542954 2.47336640812404
0.026710524367136 0.105153225305142 2.46016658127304
0.0602370675548409 0.0733887207464821 2.46978237312945
-0.31676901267719 -0.230555888723919 1.99743932296785
-0.285607571061133 -0.269632649901765 2.00836113844233
-0.237167192826482 -0.267925753021787 1.98792909653446
-0.20003656261716 -0.295507750125213 2.01226739986574
-0.156311767043006 -0.284261927264121 2.00240729899529
-0.11612056073571 -0.291914830454795 2.01175668519539
-0.0691540845257816 -0.300646434856976 2.02254342015023
-0.0129832194141433 -0.302055683017303 2.02627075180072
0.0345313224582511 -0.311247430188759 2.04388783716104
0.0799636233416255 -0.287948627285869 2.04193670396855
0.118070835509199 -0.282479539533903 2.07384035557737
-0.379705793879965 -0.179949517320265 2.04639211773168
-0.352238357791872 -0.218627191441336 2.02674093226284
0.151136935579386 -0.246215031102619 2.08248067793164
0.171539169887752 -0.236617224077284 2.13027508188787
-0.398497331739994 -0.156281178979597 2.08522822549297
0.188481460820881 -0.188428052521501 2.14239468323051
-0.403420101254685 -0.114278602429664 2.11266831768437
0.187627563565272 -0.183817455629043 2.19197656138949
-0.407032527439393 -0.0886804836219754 2.15927321364571
0.188700414481611 -0.140523699186732 2.21213615585528
-0.405770837960275 -0.0443612664691381 2.17746678106988
0.188795693141581 -0.100292576284578 2.23737760630902
-0.410422714750627 -0.0265514104266073 2.22774386160437
0.18610749541462 -0.0673623182821415 2.28105003733678
-0.408869893713286 0.0194880206169286 2.24456120209012
0.183296974702155 -0.0441575545650829 2.31943596347072
-0.410097255750474 0.0321726494921363 2.29541310450023
0.178857977700695 0.000962718413978199 2.35287894364468
-0.394639288708453 0.0778451037140773 2.31242589472619
0.157888439210034 0.022873197531793 2.39959128687767
-0.375730686357141 0.086880322992109 2.35962143258432
-0.342533123796623 0.124061610313212 2.37022409820133
0.102495633367756 0.0727743775518168 2.44201454246383
0.137645374783715 0.0666545472470052 2.40596987808154
-0.308542587461912 0.123409032183541 2.40716700450908
-0.264769512429762 0.149297946499846 2.40479868258146
-0.229253603837855 0.131717611569975 2.43176616332485
-0.184321841790261 0.13513682058226 2.43072072799506
-0.14019864453966 0.135269121817104 2.43246628428684
-0.093493610653749 0.131254894370674 2.43846149426851
-0.0501879945282953 0.130812097889134 2.44074680765419
-0.00758460851789335 0.128699022993849 2.4441101107829
0.0699175006906329 0.109774047814274 2.43671117817866
-0.31311721713835 -0.197348804505049 1.96715817284069
-0.27494968009252 -0.23651087299509 1.97329427880755
-0.228047522307517 -0.235015203605949 1.95478525478711
-0.188562325459385 -0.260384621633562 1.97719968422006
-0.134661073680959 -0.252023671006758 1.97114750565901
-0.0888363487395624 -0.264087913720807 1.98514066633778
-0.0432411174688009 -0.275479395953419 1.99845272864644
0.000244462802418147 -0.26444210109322 1.98928613993284
0.0377932379868753 -0.280539622864706 2.01198890936663
0.0846021855954975 -0.255036493913002 2.00801179679014
0.121365055421264 -0.252369706295402 2.04058417452
-0.374452718801749 -0.143823850636544 2.01456553360961
-0.350467452662492 -0.185545388833722 2.00044072533868
0.157310664448152 -0.213918142675461 2.05009777046831
0.177583473257291 -0.2038779034036 2.09601890942796
-0.393412030952376 -0.124974800994049 2.05813057964826
0.195016176828405 -0.155675315906374 2.11236451283603
-0.396456703249017 -0.078662690495901 2.07781505162018
0.194379876915351 -0.142367899523653 2.16370949058106
-0.400615987630731 -0.0610057769330474 2.1238296414137
0.19525198197117 -0.0952947012282143 2.18693075736412
-0.399416345104032 -0.01449596022551 2.14396021419838
0.193011546969465 -0.0561474656199207 2.2308898432194
-0.403803825914682 0.00447357748913459 2.19271792506578
0.19146735625742 -0.023556179496286 2.26482391699271
-0.402380455420661 0.0517718470972006 2.21149329977627
0.188079468463789 -0.0024813566398102 2.30636291784571
-0.403585308470089 0.065919127857063 2.26273747990662
0.184889879709931 0.0411249506092861 2.31995795946678
-0.388038486216006 0.111215162591969 2.27955036235116
0.16686566855574 0.0514815915858059 2.36450499184777
-0.369315771412642 0.120345345938808 2.32668970728133
-0.335157584399075 0.158079090881736 2.33749219340852
0.109595560447819 0.108009964858785 2.4073887208766
0.145458029799268 0.0987970743459939 2.37203071174973
-0.301893083131655 0.157187153997612 2.3739503126829
-0.253036323376037 0.181778699170523 2.37470211398011
-0.212934641204467 0.164177368807606 2.4005137016195
-0.161914306086614 0.170164172599862 2.39670931286242
-0.109284718087202 0.163579592175814 2.40552243947285
-0.0608895558987535 0.164676045890688 2.40648808899773
-0.0148185760472097 0.162338315300392 2.41078243926358
0.0328269830982913 0.141813632087804 2.42459576843274
0.0741838619489904 0.145651890427513 2.40287274712707
-0.307254238075391 -0.164883110122312 1.93550498388991
-0.269695996343397 -0.203104306083506 1.94093528031801
-0.22176069371068 -0.203478965537933 1.92355271834334
-0.177114851698837 -0.229271425309842 1.94662805940188
-0.129759600429157 -0.215493277465711 1.93489098527028
-0.0878277655690078 -0.229494121725402 1.95065216610412
-0.0433066092394227 -0.242624197594794 1.96565332408411
0.00316758518781966 -0.22934140810551 1.95437229045584
0.0461972965070043 -0.245789094672326 1.97810245158862
0.0919176655419163 -0.221183582717631 1.97497442876919
0.127787145322669 -0.220528254879615 2.0092619988447
-0.36764338598953 -0.109864419588078 1.98068517709559
-0.344789463899498 -0.153950716778507 1.96992532314027
0.163973432766603 -0.181358420594545 2.01843335927296
0.184493263638913 -0.170372782519478 2.06428430419294
-0.386713064133647 -0.09401972095398 2.02529050115757
0.201454905914376 -0.123181019966815 2.08154672011576
-0.38983903803476 -0.0480943238679598 2.04257225221645
0.200657760127113 -0.108611051923101 2.13335880802774
-0.393960275416368 -0.0252888631155251 2.0916026935087
0.202471117404102 -0.0623760653602865 2.14820200872444
-0.393566875431647 0.0208048781194785 2.11815802902556
0.19860230218077 -0.0448488559615529 2.19171400895955
-0.397336867661978 0.0385811943999282 2.16101726454231
0.198543711215628 -0.000721194373267163 2.22076381436077
-0.395699739511396 0.0839582280402565 2.17677351785403
0.194907275072051 0.0252605334930562 2.26781398395934
-0.397295756399567 0.098030945950138 2.22925064130532
0.192344145841319 0.0714465063456744 2.28457217303823
-0.381550796371886 0.14386221700161 2.2475367139983
0.172763452035058 0.087626742344485 2.33137553956338
-0.36226690335117 0.153863653671899 2.29458367573332
-0.326502276254179 0.191595208061861 2.30710012786363
0.115371845800681 0.142010400747688 2.37460968881513
0.151223467607888 0.133342434024927 2.3393214678953
-0.29174848771671 0.190429825532997 2.34387730027879
-0.243147272099655 0.214321932641742 2.34369925127212
-0.201912942953444 0.195830034697058 2.36938607428053
-0.15691872473343 0.208925823950556 2.35822985787004
-0.119894493555717 0.193295775233409 2.37540750752879
-0.0721768273012973 0.196067052260529 2.37467232192582
-0.0217925368243746 0.196262827002262 2.37662161266544
0.0281299502605876 0.176340684485384 2.39342231356716
0.0758462800515041 0.178943923352394 2.37270671056638
-0.30068296335385 -0.132400673023082 1.90319003218596
-0.263760096796753 -0.170063853054179 1.90853734301964
-0.217487850923703 -0.170940338856993 1.89179845761764
-0.173441448108739 -0.196883097561236 1.91445451609821
-0.123585935124662 -0.180974043754969 1.90069544341566
-0.0816624892804523 -0.194199064933197 1.91568141513534
-0.0398346692303873 -0.208782034292808 1.93201959188539
0.00658089810161183 -0.194547702088429 1.91978590127528
0.0499361886016552 -0.212851196134736 1.94461427631984
0.0954652523552833 -0.189429506033307 1.94161466342637
0.13434440097294 -0.188217679855741 1.97753132438033
-0.362285873308391 -0.0750875894034599 1.94949430193663
-0.33827302793318 -0.122007526593652 1.93798644653023
0.17027587449148 -0.148973387447281 1.98621496475438
0.191023858686469 -0.13747904275106 2.03197467023692
-0.380409485423773 -0.0591594879371585 1.99281785221325
0.207693925187602 -0.0912463887561581 2.04839456830102
-0.38257629119299 -0.010366609320734 2.0065995952482
0.207452638988543 -0.0754630374785542 2.09830517909089
-0.387137922791005 -0.00134852659006266 2.0503695931923
0.208713838285428 -0.0260616209700879 2.11979260314056
-0.388153161719668 0.0306377168147061 2.07950883106443
0.204357557503224 -0.00896196421641284 2.16708864963129
-0.39008243875853 0.0718326610541826 2.12221621764115
0.205451397146377 0.0361101188187239 2.18716274554391
-0.389432205037132 0.11568118086247 2.14518723102171
0.201213093446646 0.0530255486672583 2.23335405502727
-0.390996726287595 0.130025816694468 2.19759508926935
0.199236860503168 0.10181212460919 2.25105225810598
-0.374192901083664 0.17726613565814 2.21824891670463
0.180056648791486 0.119347854592908 2.29770033088111
-0.354594057235253 0.187149991212662 2.26425004544277
-0.319083675766112 0.224411359265577 2.27588027019302
0.120459740052193 0.175294306485179 2.34304418517677
0.157881687804847 0.165801622436529 2.30681003468376
-0.283383039412153 0.223143893233745 2.3129432172936
-0.23661836541356 0.24749967075948 2.31085838470506
-0.194774913209834 0.230873513592444 2.33470942410656
-0.144092774807531 0.243089999370843 2.32467184007473
-0.104772389488993 0.226075523999572 2.34332984948737
-0.0564747729032163 0.228626821485596 2.34283863235502
-0.00838917171369852 0.229339070187518 2.34417430822486
0.0317243204426291 0.207504266987704 2.36311853463423
0.0832792955550915 0.209804784967346 2.34140358926984
-0.301575461995895 -0.0974413445168449 1.87627174205514
-0.25701402788396 -0.136233584493645 1.87500418634828
-0.209174332092235 -0.139352950928428 1.86011347848731
-0.168040740056064 -0.16602390070644 1.88388010849959
-0.118060874833204 -0.147972247278524 1.86804001674408
-0.0745402511084417 -0.15866621345413 1.88051552667524
-0.0348038987606159 -0.172807446412331 1.89632235344444
0.00882982704371793 -0.15931579109876 1.8847238153757
0.0530390260406582 -0.180221974173302 1.91132919523209
0.0998856129869116 -0.157235399067635 1.90843232754463
0.136988215066372 -0.158663827957357 1.94430265732901
-0.356554282713127 -0.0397124310162472 1.91814008334761
-0.33518136011301 -0.0877030766180363 1.90927019235319
0.171092602153119 -0.122315602336683 1.95055420039179
0.197265217199097 -0.104659406643184 1.99848558688632
-0.373929460438915 -0.0230801793677695 1.9594235251748
0.215008258182119 -0.0547801116256463 2.0262469525809
-0.375958188482086 0.0260161346449557 1.97886540270478
0.21361644103801 -0.0390607233443309 2.07061441369937
-0.380971711991561 0.042584265189009 2.02752776610089
0.21518715474745 0.00890351111685951 2.08737215841621
-0.38418252449242 0.0718907208764542 2.07319423037309
0.21090425788332 0.0249818817916201 2.13461816946367
-0.382860090684347 0.115568396000937 2.09046052709658
0.212151854538631 0.0703586586996886 2.1531636825604
-0.38370616373273 0.152408318523799 2.12141903815422
0.207832291694112 0.0876201516566462 2.20070118678316
-0.384228255648513 0.163625114512006 2.17047295066679
0.205508009407092 0.134690293186894 2.21919437323581
-0.367535077715949 0.210150408166555 2.18655731051945
0.186765337289267 0.151084391753665 2.26527228304156
-0.347361493956349 0.220444264725972 2.2328410259
-0.31265550847676 0.257092677776692 2.24352375592348
0.127538640899156 0.207819835603628 2.31021514418615
0.164519659527205 0.198319152066252 2.27421743927938
-0.277242063823044 0.255695321824187 2.28052449743091
-0.230746340400454 0.280238073159914 2.27820316456321
-0.187241223187708 0.264132728109461 2.30182996940667
-0.138502021289004 0.275104949869615 2.29292370796186
-0.0910201183179861 0.260615313767974 2.30943677675276
-0.0410043878728248 0.261061108700263 2.31112056531291
0.00550902787972356 0.261050825031153 2.3131105598548
0.0443884981555156 0.238145351483984 2.33127926321122
0.0906402625137021 0.242367343134315 2.30863382355421
-0.264303137840743 -0.0997908155661896 1.8507968055123
-0.222830017293114 -0.104639228437269 1.83738006918511
-0.176401965211805 -0.102748741716918 1.83097825921485
-0.161816188427995 -0.135318799267235 1.85442187712638
-0.124311326441788 -0.108856130396118 1.83814924004405
-0.0776683596887479 -0.120596354938188 1.84873574641663
-0.0308994744012512 -0.131601269529645 1.8593512837935
0.0171100727924845 -0.12147649041474 1.85610555889344
0.056332791806383 -0.14823078121973 1.88022077543153
0.101006677724402 -0.122552542781692 1.87863986281438
0.141384570366959 -0.125011035073423 1.91158143004178
-0.34389518935973 -0.00430362723520012 1.89090116201682
-0.327695753287821 -0.0519860328518308 1.87905300386615
0.190501230925218 -0.0850160494466144 1.95133273066599
0.20847656426219 -0.0605989737002729 1.98340839016696
-0.363908827587771 0.0143632094741773 1.92938774707113
0.214380774519635 -0.0167446115785758 1.99175838209121
-0.360553442314553 0.0597781523416511 1.94810464716202
0.217387244560927 -0.00260741937941103 2.03641362679566
-0.370062273670577 0.0758410914050689 1.99220491893995
0.21432004554958 0.041960462136622 2.05289949972971
-0.376781751092249 0.0956828487969658 2.03703123938654
0.214731449539506 0.0597638712168895 2.09962794726307
-0.370318222840238 0.141939768354657 2.04943286889918
0.212050698194449 0.103405458639108 2.11940107611246
-0.373054951346605 0.171106179628518 2.08378236639895
0.212096138245088 0.12141291104439 2.16581663593967
-0.376726620489521 0.195518102389006 2.1371475708007
0.206579097899824 0.164230345749838 2.18575090450096
-0.358540083261286 0.237204149300359 2.14984299070516
0.191331430998839 0.183639105535396 2.23292015351621
-0.340936627006755 0.251580878331028 2.19855248966864
-0.305056024841242 0.284507876803646 2.20861010036027
0.13288138227101 0.240293896773284 2.27599519546054
0.164668311008374 0.230024067104405 2.23949595746825
-0.269588959505481 0.287478443468432 2.24745298269615
-0.2207744412207 0.30927124562107 2.2407674448748
-0.183622791080755 0.296382797256637 2.26662862364987
-0.141741958195496 0.30396082206285 2.25548890759095
-0.0977017028437478 0.294557563287922 2.27011345623235
-0.053083313748977 0.290207426600545 2.27676050936804
-0.00301851591511204 0.289224195515351 2.27844603939962
0.0487524807997753 0.27195498988215 2.29632760155021
0.0941028784289821 0.271212267140652 2.27369231213739
-0.289296750715452 -0.0590354894821934 1.84692516177142
-0.24394357664168 -0.0618104293637607 1.82468069173755
-0.196299090750937 -0.0642724692474723 1.81514935034099
-0.144477084152929 -0.0685727875376322 1.81834764500524
-0.0940262270535946 -0.0752497472093643 1.82533834006972
-0.0479863849818823 -0.0851905690297076 1.83317950047797
-0.00386938893459103 -0.0849450949955224 1.83712156228137
0.0432609298147729 -0.0750530548201378 1.83855891392656
0.0633944039244048 -0.109322750107592 1.85594640733941
0.0957426755973146 -0.0741448342887961 1.85302458266614
0.132107501048243 -0.0902353929697248 1.88059263971155
-0.308855794436525 -0.0165430174784084 1.85298511851423
-0.283299235287743 0.0241336874294956 1.83678732025922
-0.266371691595531 -0.0199167873348071 1.82573523721629
0.142697247353986 -0.0495393339708932 1.87568524945362
0.168565042768159 -0.0813834907025832 1.91259676703903
0.172315500869952 -0.0344750790451213 1.90288917841977
-0.340323470222493 0.0504228384843575 1.89966181503191
-0.320776239187522 0.0260321997689558 1.86692404524042
0.196463660096462 -0.0385641568418392 1.9409020477635
0.202169820761473 0.00442837354054567 1.95551674091063
-0.336711162913247 0.0895326512994507 1.92388016521254
0.208295529639339 0.0327011854061172 1.99729417329892
-0.346364774577927 0.111752550593991 1.96209997906829
0.203651241499824 0.0715211729718952 2.0227234284801
-0.358709382644045 0.124788349054095 2.00113354548492
0.206483334878978 0.0947516062581704 2.06370551741446
-0.347313806163091 0.164745089967496 2.01263712693793
0.201975919630344 0.133423009854893 2.08882391311633
-0.35086950182004 0.195134943519742 2.0475151580674
0.204603891871093 0.156460071077852 2.12960156671621
-0.364164790212381 0.213419122949759 2.0992393471682
0.197410174619376 0.193649678675366 2.15411345754179
-0.329774557619826 0.274539856510892 2.15964548118768
-0.34189879393048 0.256398344388794 2.11204194202506
-0.310699690922542 0.289422821564949 2.11640238337218
0.188132856564663 0.211487680229411 2.19748258244961
0.174987608749837 0.235066739037247 2.1526253941001
0.161904214277371 0.250356408754777 2.19713593048202
-0.261632073341871 0.310421366244766 2.20931393497523
-0.295538224240966 0.302033220363962 2.16845916383538
-0.253501725913137 0.323360315868636 2.1661479862851
0.129400058012005 0.269102167404148 2.23538858074493
0.0972990745309396 0.299500857899896 2.1978433480157
0.0849555379334315 0.294685367491868 2.23702459854954
-0.214280143427883 0.326905430414171 2.19973985941256
-0.17033808329429 0.321969282253339 2.21973772243715
-0.1174471824707 0.319291166850816 2.2222293064634
-0.073017704197308 0.314466080361099 2.23125580499389
-0.0292312806108697 0.311087696135189 2.2364431298855
0.0134977658833113 0.309840256116842 2.23588614415973
0.0465771319554183 0.296358655308292 2.25985930475458
-0.217561959635903 -0.0215971088940021 1.80976752393332
-0.166318908176527 -0.0261432815011235 1.80709469233405
-0.115586196693151 -0.0303476033973341 1.81304250747387
-0.0677573927151229 -0.035309056222403 1.81893540488482
-0.0229596991977556 -0.0389915891823395 1.82434562812634
0.0211616218435105 -0.0349759740619725 1.82891330201778
0.069771944930856 -0.0336010419922122 1.83659133901609
-0.239125740430264 0.02034086234641 1.8161704065725
-0.21155125582313 0.0577451393309848 1.81831343431664
-0.187754475118043 0.0174673803956752 1.80695675459838
-0.136988960044857 0.0138379315930185 1.81030677858979
-0.0893256424290186 0.0126324801582252 1.81631319613189
-0.042086939965268 0.00908197345407022 1.82200882153083
0.00270517844130552 0.0104803684044487 1.82802757208341
0.0496364718864339 0.00962804349260607 1.8341743900254
0.0978097847080669 0.0111729553018409 1.84872214797261
0.144848246854887 0.00328707912810543 1.87657288971919
0.113342647811864 -0.0291873225656924 1.85374021645104
-0.30092475804741 0.0655567118874225 1.86277801348211
-0.268598509225051 0.103823602691016 1.86314319330189
-0.258376703615221 0.0643073115444082 1.83513786898505
0.121186289115334 0.0457283957187005 1.87136758012336
0.17881517926964 0.0079780433416708 1.91393280931331
0.157298806404541 0.0477920798478538 1.90317251745786
-0.308445983439145 0.0980664216224238 1.8921870070649
-0.274797909505395 0.136500244488855 1.89759375936371
0.187644965880295 0.0456217686660909 1.94667771168161
0.160102582761063 0.084339891122551 1.93549472985385
-0.3127239765131 0.132660216016942 1.93009528469194
-0.281503600140099 0.168701873583305 1.93394894113708
0.186907782633389 0.0776273655821875 1.97824317655867
0.158478184330653 0.118272861500892 1.96922511984629
-0.323575196580034 0.159108162613519 1.96902433484583
-0.286072960013896 0.198460653001308 1.96644249406523
0.185814593775682 0.111996812673159 2.01356848895336
0.157745450679273 0.151239361958649 2.00324760539578
-0.320073496487201 0.198912747174019 2.00205770631206
-0.283811052376863 0.233846014618653 1.99883721911502
0.185396357028829 0.141950790893368 2.04566949734573
0.157369355366833 0.183537768451249 2.03710587904277
-0.316961944797374 0.235158403890558 2.03261792779797
-0.282867431966609 0.27121241473897 2.03584613079274
0.184643666586482 0.175779417744797 2.08127183915697
0.156446930540546 0.216008347084983 2.07033562200943
-0.340491908099636 0.23635372494829 2.06902262865601
-0.310923711831623 0.273090692892022 2.0720136714102
0.18320994786631 0.206151668263821 2.1128250614178
0.153489947122886 0.245961848132973 2.10549598476404
-0.277292847642027 0.312821016617449 2.12635197388216
-0.272331852218457 0.303006203672195 2.07858653534909
-0.239618308953872 0.325476737098792 2.11164694005926
0.13164651961972 0.279947119307079 2.18813223412917
0.145221095423935 0.267821014958442 2.14668074009022
0.105521901491793 0.295660952721745 2.14594697481877
-0.215009721074936 0.333906597432691 2.15124138473721
-0.189451867626883 0.333523798621921 2.11541387202424
-0.174469727152689 0.334425604327838 2.16978416191936
-0.145530875583303 0.332409162811288 2.12887320153641
-0.132035948652317 0.330591110316986 2.17912832372565
-0.101442064394275 0.328976612712457 2.13416801501352
-0.0852678878849459 0.32730571292891 2.18202187570582
-0.0566157118298729 0.325285921791857 2.13772166880933
-0.0410003764198728 0.323754489182855 2.18819003950026
-0.013071250196401 0.321729905758311 2.14154403679531
0.00349460447029429 0.32067905661765 2.19028960114988
0.0311189041467974 0.318594954529118 2.14954683817451
0.0491491137497238 0.314086180041755 2.20546544023408
0.0688172954523657 0.312213009858824 2.16232821604223
-0.180497927255766 0.0911266279155119 1.83022861475038
-0.158279138092994 0.0560313514610306 1.81635694953946
-0.112536336650888 0.0583960447881322 1.8237836973268
-0.0638303014726698 0.0541309399480936 1.82947156326418
-0.0189140139856767 0.0559038084813567 1.8368258742142
0.0264747595310835 0.055059970231514 1.84334713740873
0.0724766266104517 0.0510162081236321 1.85071174074001
-0.225467862117947 0.100172415281435 1.84170268667022
-0.18266353325574 0.127339160520906 1.85573801031272
-0.136859438395395 0.101273710968244 1.84110561698004
-0.0859649052389764 0.0941601564944217 1.84522784302166
-0.0416281568134681 0.097507015755017 1.85497620360911
0.00290190640966569 0.0974752139033475 1.86271644281639
0.048073693044555 0.0945418199835527 1.86857537090294
0.0914378048310858 0.0847597805537867 1.87600668549457
0.126120883367048 0.0881461037891292 1.9009367017644
-0.230111940860623 0.13570486324574 1.87251078487988
-0.190044028517815 0.160894472736277 1.88906948480479
-0.144295951684544 0.143893336685775 1.87614512036976
-0.105230719922242 0.127441416306013 1.86743629420456
-0.0624006989270076 0.132912669918402 1.88133975058982
-0.0186847274458383 0.133644734593009 1.89077481856889
0.0294098424318765 0.129883430877197 1.89654073329555
0.0792041769201863 0.122027666832535 1.90282497502712
0.123995230032122 0.120771399995918 1.93166093028716
-0.236691266809643 0.16811183784617 1.9069616491405
-0.191463763961776 0.193134551356009 1.92136910418123
-0.145553233600695 0.177817912306888 1.91016792102036
-0.0990893094670847 0.160968366500233 1.90238670426361
-0.0520976717618673 0.16794705744964 1.91878317288994
-0.00192390497472061 0.163944294270066 1.92471870347425
0.0458564212613472 0.159744524465626 1.92999116564715
0.0879104432723544 0.151931766779019 1.93782474407773
0.123132605993248 0.155503973171957 1.96702207996218
-0.239912831350055 0.19950818009035 1.93918364226008
-0.193733564728104 0.223810565484541 1.95216461311788
-0.144885042363733 0.212021615456741 1.94485542458155
-0.10247292571932 0.193853087900033 1.9349354277488
-0.0645407919657902 0.202784077809817 1.951502562478
-0.0198663706999015 0.196812566467117 1.95435516985405
0.0281250715623413 0.193163803339769 1.96021389789266
0.0771433966234755 0.186806283879136 1.96804582355042
0.12235930857276 0.186689467144156 1.99877680108848
-0.242878155239548 0.230038369906931 1.97047170460011
-0.199819889399812 0.254168054150249 1.9829961194045
-0.149904155478269 0.244301064132447 1.97646706112154
-0.100769078332226 0.231982429609136 1.97379566329764
-0.0492112116239812 0.232254434209112 1.98432455483439
-0.00106857341187541 0.227548788822338 1.9891462078157
0.0453229397470703 0.224073867943738 1.99492249959424
0.086780820474592 0.216974306479759 2.0038970980589
0.121852982584694 0.220863863590068 2.03389925338828
-0.247240861605411 0.262909357912572 2.00470751727775
-0.209237044332242 0.285061979732407 2.01562349406294
-0.162321305841253 0.278124298454621 2.00823329309592
-0.115789327579466 0.267909872512539 2.00710431137849
-0.0711597796294956 0.263440843993426 2.0114653340655
-0.0221879132920434 0.261262527039741 2.0190053933276
0.0266047157716355 0.257630039110144 2.02503956887158
0.0756688897729318 0.2519689700915 2.03394134482567
0.120539239710402 0.251472458374949 2.06547326469434
-0.242718940825116 0.297699206537876 2.04375781937754
-0.1861187495025 0.307511665230632 2.04401862130682
-0.137430341966153 0.301046853312443 2.04238239166614
-0.0928184844851156 0.296221222806934 2.04567392144967
-0.0479679435057724 0.292093688007697 2.05011066150756
-0.00160335285012693 0.289106722101798 2.05662102693598
0.0434609336568927 0.28619302431245 2.06308808065506
0.0841203918789421 0.279501534302995 2.07303612772687
0.116026163004538 0.278782695068182 2.10627592513954
-0.217601199897929 0.319897475874883 2.07483640469213
-0.163413893534213 0.323274955257423 2.08036293064117
-0.117657059595835 0.319820560326898 2.08616688055477
-0.0726093584793101 0.31579179938159 2.09012831796584
-0.0268692954069291 0.311720690525544 2.0942381015145
0.0202649639795199 0.308592496146822 2.1013796591191
0.0671770521219495 0.303472509401141 2.11141316712184
3 0 1 2
3 0 2 4
3 3 0 4
3 3 4 6
3 5 3 6
3 5 6 8
3 7 5 8
3 7 8 10
3 9 7 10
3 9 10 12
3 11 9 12
3 13 11 14
3 14 11 12
3 13 14 15
3 16 17 18
3 16 18 1
3 0 19 1
3 19 16 1
3 0 3 20
3 19 0 20
3 3 5 21
3 20 3 21
3 5 7 22
3 21 5 22
3 7 9 23
3 22 7 23
3 9 11 24
3 23 9 24
3 24 11 25
3 25 11 13
3 13 15 26
3 27 13 26
3 25 13 27
3 27 26 28
3 17 16 30
3 30 16 29
3 29 19 31
3 29 16 19
3 31 20 32
3 31 19 20
3 32 21 33
3 32 20 21
3 21 22 33
3 33 22 34
3 22 23 34
3 34 23 35
3 23 24 35
3 35 24 36
3 24 25 36
3 36 25 37
3 37 27 38
3 37 25 27
3 38 28 39
3 38 27 28
3 30 40 41
3 30 29 40
3 29 31 42
3 40 29 42
3 31 32 43
3 42 31 43
3 32 33 44
3 43 32 44
3 33 34 45
3 44 33 45
3 34 35 46
3 45 34 46
3 35 36 47
3 46 35 47
3 36 37 47
3 47 37 48
3 37 38 48
3 48 38 49
3 49 39 50
3 49 38 39
3 40 51 52
3 41 40 52
3 51 42 53
3 51 40 42
3 42 43 53
3 53 43 54
3 43 44 54
3 54 44 55
3 44 45 55
3 55 45 56
3 45 46 56
3 56 46 57
3 46 47 58
3 57 46 58
3 47 48 59
3 58 47 59
3 48 49 60
3 59 48 60
3 49 50 61
3 60 49 61
3 51 62 63
3 52 51 63
3 51 53 64
3 62 51 64
3 53 54 65
3 64 53 65
3 54 55 66
3 65 54 66
3 55 56 67
3 66 55 67
3 56 57 67
3 67 57 68
3 57 58 69
3 68 57 69
3 58 59 69
3 69 59 70
3 59 60 70
3 70 60 71
3 71 61 72
3 71 60 61
3 62 73 74
3 63 62 74
3 62 64 75
3 73 62 75
3 64 65 75
3 75 65 76
3 65 66 76
3 76 66 77
3 66 67 77
3 77 67 78
3 67 68 78
3 78 68 79
3 79 69 80
3 79 68 69
3 80 70 81
3 80 69 70
3 81 71 82
3 81 70 71
3 82 72 83
3 82 71 72
3 74 73 85
3 85 73 84
3 84 73 86
3 86 73 75
3 75 76 86
3 86 76 87
3 76 77 88
3 87 76 88
3 77 78 89
3 88 77 89
3 78 79 90
3 89 78 90
3 79 80 91
3 90 79 91
3 80 81 92
3 91 80 92
3 81 82 93
3 92 81 93
3 93 83 94
3 93 82 83
3 84 95 85
3 84 86 96
3 97 84 96
3 95 84 97
3 96 87 98
3 96 86 87
3 87 88 98
3 98 88 99
3 88 89 99
3 99 89 100
3 89 90 100
3 100 90 101
3 101 91 102
3 101 90 91
3 102 92 103
3 102 91 92
3 92 93 103
3 105 103 104
3 103 93 104
3 93 94 104
3 96 106 97
3 96 98 107
3 106 96 107
3 98 99 108
3 107 98 108
3 99 100 109
3 108 99 109
3 100 101 110
3 109 100 110
3 101 102 111
3 110 101 111
3 111 102 112
3 112 102 103
3 103 105 112
3 117 114 115
3 116 113 117
3 117 113 114
3 116 117 119
3 118 116 119
3 118 119 121
3 120 118 121
3 120 121 123
3 122 120 123
3 122 123 125
3 124 122 125
3 124 125 127
3 126 124 127
3 126 127 128
3 129 130 131
3 114 129 131
3 114 113 129
3 113 2 129
3 129 2 1
3 4 113 116
3 4 2 113
3 6 116 118
3 6 4 116
3 8 118 120
3 8 6 118
3 10 120 122
3 10 8 120
3 12 122 124
3 12 10 122
3 14 124 126
3 14 12 124
3 133 126 128
3 15 14 126
3 15 126 133
3 132 15 133
3 132 133 134
3 135 136 137
3 137 17 135
3 137 18 17
3 18 137 130
3 129 18 130
3 18 129 1
3 15 132 26
3 139 132 134
3 139 138 132
3 138 28 26
3 132 138 26
3 138 139 140
3 136 135 142
3 142 135 141
3 17 30 135
3 135 30 141
3 143 39 28
3 138 143 28
3 143 140 144
3 143 138 140
3 141 145 146
3 142 141 146
3 41 145 141
3 30 41 141
3 147 39 143
3 147 50 39
3 147 144 148
3 147 143 144
3 145 149 150
3 146 145 150
3 52 149 145
3 41 52 145
3 151 50 147
3 151 155 50
3 151 148 152
3 151 147 148
3 149 153 154
3 150 149 154
3 63 153 149
3 52 63 149
3 155 61 50
3 155 72 61
3 155 151 156
3 156 151 152
3 154 157 158
3 154 153 157
3 74 157 153
3 63 74 153
3 159 72 155
3 159 83 72
3 159 156 160
3 159 155 156
3 158 157 162
3 162 157 161
3 74 85 161
3 157 74 161
3 163 83 159
3 163 94 83
3 163 160 164
3 163 159 160
3 161 165 162
3 165 95 166
3 165 161 95
3 161 85 95
3 165 166 167
3 95 97 166
3 105 104 168
3 170 94 163
3 170 168 94
3 169 168 170
3 94 168 104
3 163 164 170
3 166 171 167
3 173 171 172
3 172 171 106
3 171 97 106
3 171 166 97
3 172 107 174
3 172 106 107
3 174 108 175
3 174 107 108
3 175 109 176
3 175 108 109
3 176 110 177
3 176 109 110
3 177 111 178
3 177 110 111
3 178 112 180
3 178 111 112
3 181 105 168
3 181 180 105
3 179 178 180
3 180 112 105
3 168 169 181
3 172 182 173
3 182 172 183
3 183 172 174
3 174 175 184
3 183 174 184
3 175 176 185
3 184 175 185
3 176 177 186
3 185 176 186
3 177 178 187
3 186 177 187
3 187 179 188
3 187 178 179
3 179 180 229
3 189 190 191
3 114 131 191
3 115 114 191
3 115 191 192
3 115 192 193
3 117 115 193
3 119 193 194
3 119 117 193
3 119 194 121
3 121 194 195
3 121 195 123
3 123 195 196
3 123 196 125
3 125 196 197
3 127 197 198
3 127 125 197
3 128 198 199
3 200 128 199
3 128 127 198
3 200 199 201
3 202 203 204
3 131 130 189
3 190 189 204
3 189 130 202
3 189 202 204
3 131 189 191
3 128 200 133
3 134 200 205
3 206 205 201
3 134 133 200
3 205 200 201
3 205 206 207
3 136 208 203
3 202 137 136
3 202 136 203
3 137 202 130
3 134 205 139
3 139 205 207
3 140 139 207
3 211 207 209
3 136 142 208
3 208 142 210
3 211 140 207
3 211 144 140
3 146 212 210
3 142 146 210
3 148 144 213
3 213 144 211
3 150 214 212
3 146 150 212
3 215 148 213
3 215 152 148
3 154 216 150
3 150 216 214
3 219 152 217
3 217 152 215
3 158 218 216
3 154 158 216
3 219 156 152
3 219 160 156
3 158 220 218
3 158 162 220
3 221 160 219
3 221 164 160
3 162 165 222
3 223 220 222
3 220 162 222
3 165 167 222
3 169 170 224
3 225 164 221
3 224 170 164
3 224 164 225
3 222 226 223
3 167 171 227
3 226 167 227
3 226 227 228
3 226 222 167
3 171 173 227
3 180 181 229
3 181 169 230
3 231 169 224
3 230 169 231
3 230 229 181
3 224 225 271
3 227 232 228
3 232 182 233
3 232 173 182
3 227 173 232
3 182 183 234
3 233 182 234
3 183 184 234
3 234 184 235
3 184 185 235
3 235 185 236
3 185 186 236
3 236 186 237
3 186 187 237
3 237 187 238
3 238 188 239
3 238 187 188
3 188 179 229
3 240 239 188
3 240 188 229
3 229 230 240
3 191 190 242
3 242 190 241
3 192 242 243
3 192 191 242
3 192 243 244
3 193 192 244
3 194 244 245
3 194 193 244
3 194 245 246
3 195 194 246
3 195 246 247
3 196 195 247
3 196 247 248
3 197 196 248
3 197 248 249
3 198 197 249
3 199 198 249
3 250 199 249
3 201 199 251
3 251 199 250
3 204 252 253
3 204 203 252
3 190 253 241
3 190 204 253
3 206 251 254
3 206 201 251
3 207 206 255
3 255 206 254
3 203 256 252
3 203 208 256
3 257 209 255
3 255 209 207
3 210 258 208
3 208 258 256
3 211 209 259
3 259 209 257
3 212 260 210
3 210 260 258
3 213 211 259
3 261 213 259
3 214 262 260
3 212 214 260
3 215 213 261
3 263 215 261
3 216 264 214
3 214 264 262
3 217 215 263
3 265 217 263
3 218 266 264
3 216 218 264
3 219 217 265
3 267 219 265
3 218 268 266
3 218 220 268
3 221 219 267
3 269 221 267
3 223 270 268
3 220 223 268
3 225 221 269
3 271 225 269
3 223 226 272
3 270 223 272
3 272 228 273
3 272 226 228
3 274 231 275
3 274 230 231
3 275 231 271
3 271 231 224
3 273 228 276
3 276 228 232
3 276 233 277
3 276 232 233
3 233 234 278
3 277 233 278
3 234 235 279
3 278 234 279
3 235 236 280
3 279 235 280
3 236 237 281
3 280 236 281
3 237 238 282
3 281 237 282
3 238 239 283
3 282 238 283
3 327 239 284
3 284 239 240
3 240 230 274
3 284 240 274
3 241 285 286
3 242 241 286
3 242 286 243
3 243 286 287
3 243 287 288
3 244 243 288
3 245 288 289
3 245 244 288
3 245 289 246
3 246 289 290
3 246 290 247
3 247 290 291
3 247 291 248
3 248 291 292
3 248 292 293
3 249 248 293
3 249 293 250
3 250 293 294
3 250 294 295
3 251 250 295
3 252 296 297
3 253 252 297
3 241 297 285
3 241 253 297
3 254 295 298
3 254 251 295
3 254 298 299
3 255 254 299
3 256 300 252
3 252 300 296
3 257 255 299
3 301 257 299
3 258 302 300
3 256 258 300
3 259 257 303
3 303 257 301
3 260 304 258
3 258 304 302
3 261 259 303
3 305 261 303
3 262 306 304
3 260 262 304
3 263 261 305
3 307 263 305
3 264 308 262
3 262 308 306
3 265 263 307
3 309 265 307
3 266 310 308
3 264 266 308
3 267 265 309
3 311 267 309
3 266 312 310
3 266 268 312
3 269 267 311
3 313 269 311
3 270 314 312
3 268 270 312
3 271 269 315
3 315 269 313
3 270 272 316
3 314 270 316
3 316 273 317
3 316 272 273
3 318 275 319
3 318 274 275
3 275 271 315
3 319 275 315
3 273 276 320
3 317 273 320
3 276 277 320
3 320 277 321
3 277 278 322
3 321 277 322
3 322 279 323
3 322 278 279
3 279 280 323
3 323 280 324
3 280 281 324
3 324 281 325
3 281 282 325
3 325 282 326
3 282 283 326
3 326 283 327
3 283 239 327
3 327 284 328
3 284 274 318
3 328 284 318
3 285 329 330
3 286 285 330
3 286 330 287
3 287 330 331
3 287 331 332
3 288 287 332
3 288 332 289
3 289 332 333
3 289 333 334
3 290 289 334
3 290 334 335
3 291 290 335
3 291 335 292
3 292 335 336
3 292 336 337
3 293 292 337
3 293 337 294
3 294 337 338
3 294 338 339
3 295 294 339
3 296 340 341
3 297 296 341
3 285 341 329
3 285 297 341
3 298 339 342
3 298 295 339
3 298 342 343
3 299 298 343
3 300 344 296
3 296 344 340
3 301 299 343
3 345 301 343
3 302 346 344
3 300 302 344
3 303 301 347
3 347 301 345
3 304 348 302
3 302 348 346
3 305 303 347
3 349 305 347
3 306 350 348
3 304 306 348
3 307 305 351
3 351 305 349
3 308 352 306
3 306 352 350
3 309 307 353
3 353 307 351
3 310 354 352
3 308 310 352
3 311 309 355
3 355 309 353
3 312 356 310
3 310 356 354
3 313 311 355
3 357 313 355
3 314 358 356
3 312 314 356
3 315 313 359
3 359 313 357
3 314 316 360
3 358 314 360
3 360 317 361
3 360 316 317
3 362 319 363
3 362 318 319
3 319 315 359
3 363 319 359
3 317 320 364
3 361 317 364
3 320 321 364
3 364 321 365
3 321 322 366
3 365 321 366
3 322 323 366
3 366 323 367
3 323 324 368
3 367 323 368
3 324 325 369
3 368 324 369
3 325 326 370
3 369 325 370
3 326 327 371
3 370 326 371
3 327 328 371
3 371 328 372
3 328 318 362
3 372 328 362
3 329 373 374
3 330 329 374
3 330 374 331
3 331 374 375
3 331 375 376
3 332 331 376
3 332 376 333
3 333 376 377
3 333 377 378
3 334 333 378
3 334 378 379
3 335 334 379
3 335 379 336
3 336 379 380
3 336 380 381
3 337 336 381
3 337 381 338
3 338 381 382
3 338 382 383
3 339 338 383
3 340 384 385
3 341 340 385
3 329 385 373
3 329 341 385
3 342 383 386
3 342 339 383
3 342 386 387
3 343 342 387
3 344 388 340
3 340 388 384
3 345 343 387
3 389 345 387
3 346 390 388
3 344 346 388
3 347 345 391
3 391 345 389
3 348 392 346
3 346 392 390
3 349 347 391
3 393 349 391
3 350 394 348
3 348 394 392
3 351 349 395
3 395 349 393
3 352 396 350
3 350 396 394
3 353 351 395
3 397 353 395
3 354 398 396
3 352 354 396
3 355 353 399
3 399 353 397
3 356 400 354
3 354 400 398
3 357 355 399
3 401 357 399
3 358 402 400
3 356 358 400
3 359 357 403
3 403 357 401
3 358 360 404
3 402 358 404
3 404 361 405
3 404 360 361
3 406 363 407
3 406 362 363
3 363 359 403
3 407 363 403
3 361 364 408
3 405 361 408
3 364 365 408
3 408 365 409
3 365 366 410
3 409 365 410
3 366 367 410
3 410 367 411
3 367 368 412
3 411 367 412
3 368 369 412
3 412 369 413
3 369 370 413
3 413 370 414
3 370 371 415
3 414 370 415
3 371 372 415
3 415 372 416
3 372 362 406
3 416 372 406
3 373 417 418
3 374 373 418
3 374 418 375
3 375 418 419
3 375 419 420
3 376 375 420
3 376 420 377
3 377 420 421
3 377 421 422
3 378 377 422
3 378 422 423
3 379 378 423
3 380 423 424
3 380 379 423
3 380 424 425
3 381 380 425
3 382 425 426
3 382 381 425
3 382 426 427
3 383 382 427
3 384 428 429
3 385 384 429
3 373 429 417
3 373 385 429
3 386 427 430
3 386 383 427
3 386 430 431
3 387 386 431
3 384 432 428
3 384 388 432
3 389 387 431
3 433 389 431
3 390 434 432
3 388 390 432
3 435 389 433
3 435 391 389
3 390 436 434
3 390 392 436
3 393 391 435
3 437 393 435
3 394 438 436
3 392 394 436
3 395 393 439
3 439 393 437
3 396 440 438
3 394 396 438
3 397 395 439
3 441 397 439
3 398 442 440
3 396 398 440
3 399 397 443
3 443 397 441
3 400 444 398
3 398 444 442
3 401 399 443
3 445 401 443
3 402 446 444
3 400 402 444
3 403 401 447
3 447 401 445
3 402 404 448
3 446 402 448
3 448 405 449
3 448 404 405
3 450 407 451
3 450 406 407
3 407 403 447
3 451 407 447
3 405 408 452
3 449 405 452
3 408 409 452
3 452 409 453
3 409 410 454
3 453 409 454
3 410 411 454
3 454 411 455
3 411 412 456
3 455 411 456
3 412 413 456
3 456 413 457
3 457 414 458
3 457 413 414
3 414 415 459
3 458 414 459
3 415 416 459
3 459 416 460
3 416 406 450
3 460 416 450
3 418 461 462
3 418 417 461
3 419 462 463
3 419 418 462
3 419 463 464
3 420 419 464
3 420 464 421
3 421 464 465
3 421 465 466
3 422 421 466
3 422 466 467
3 423 422 467
3 424 467 468
3 424 423 467
3 424 468 469
3 425 424 469
3 426 469 470
3 426 425 469
3 427 426 471
3 471 426 470
3 429 428 473
3 473 428 472
3 417 473 505
3 417 429 473
3 430 427 471
3 520 430 471
3 431 474 475
3 431 430 474
3 428 476 472
3 428 432 476
3 433 431 475
3 477 433 475
3 434 478 476
3 432 434 476
3 479 433 477
3 479 435 433
3 434 480 478
3 434 436 480
3 437 435 479
3 481 437 479
3 438 482 436
3 436 482 480
3 439 437 483
3 483 437 481
3 440 484 482
3 438 440 482
3 441 439 483
3 485 441 483
3 442 486 440
3 440 486 484
3 443 441 487
3 487 441 485
3 444 488 442
3 442 488 486
3 445 443 487
3 489 445 487
3 444 446 488
3 488 446 490
3 491 445 489
3 491 447 445
3 490 446 492
3 492 446 448
3 492 449 493
3 492 448 449
3 494 451 495
3 494 450 451
3 451 447 491
3 495 451 491
3 449 452 496
3 493 449 496
3 496 453 497
3 496 452 453
3 453 454 498
3 497 453 498
3 498 455 499
3 498 454 455
3 455 456 500
3 499 455 500
3 456 457 501
3 500 456 501
3 457 458 502
3 501 457 502
3 458 459 503
3 502 458 503
3 503 460 504
3 503 459 460
3 504 460 494
3 494 460 450
3 461 505 506
3 462 461 506
3 507 463 462
3 507 462 506
3 465 463 508
3 508 463 507
3 464 463 465
3 465 508 509
3 465 509 466
3 466 509 510
3 466 510 467
3 467 510 511
3 467 511 468
3 468 511 512
3 468 512 513
3 469 468 513
3 469 513 470
3 515 470 514
3 470 513 514
3 470 515 471
3 472 516 473
3 518 516 517
3 518 505 516
3 461 417 505
3 505 473 516
3 505 518 506
3 515 514 519
3 474 430 520
3 521 520 519
3 520 471 515
3 520 515 519
3 474 520 524
3 476 522 472
3 516 472 523
3 472 522 523
3 516 523 517
3 520 521 524
3 477 475 524
3 524 475 474
3 525 477 524
3 478 526 522
3 476 478 522
3 527 477 525
3 527 479 477
3 478 528 526
3 478 480 528
3 481 479 527
3 529 481 527
3 482 530 480
3 480 530 528
3 483 481 531
3 531 481 529
3 484 532 530
3 482 484 530
3 485 483 531
3 533 485 531
3 486 534 484
3 484 534 532
3 535 485 533
3 535 487 485
3 486 536 534
3 486 488 536
3 537 489 535
3 535 489 487
3 490 538 539
3 536 490 539
3 488 490 536
3 538 540 539
3 541 542 543
3 541 489 537
3 542 541 537
3 541 491 489
3 490 492 538
3 545 493 544
3 538 492 493
3 538 493 545
3 540 538 545
3 544 546 545
3 547 548 549
3 543 495 541
3 547 494 495
3 547 495 543
3 608 547 543
3 495 491 541
3 493 496 544
3 544 497 550
3 546 544 550
3 544 496 497
3 550 497 551
3 551 497 498
3 498 499 551
3 551 499 552
3 499 500 552
3 552 500 553
3 500 501 553
3 553 501 554
3 554 502 555
3 554 501 502
3 502 503 556
3 555 502 556
3 503 504 556
3 549 504 547
3 556 504 549
3 504 494 547
3 506 557 507
3 507 557 558
3 508 507 558
3 508 558 559
3 509 508 559
3 509 559 560
3 510 509 560
3 510 560 561
3 511 510 561
3 511 561 562
3 512 511 562
3 514 512 563
3 563 512 562
3 513 512 514
3 517 564 518
3 518 564 557
3 566 564 565
3 557 564 566
3 557 506 518
3 558 566 567
3 558 557 566
3 559 567 568
3 559 558 567
3 560 568 569
3 560 559 568
3 561 569 570
3 561 560 569
3 562 570 571
3 562 561 570
3 563 562 571
3 572 563 571
3 574 514 563
3 572 574 563
3 573 519 574
3 574 519 514
3 519 573 521
3 522 575 523
3 577 575 576
3 577 517 575
3 564 517 577
3 575 517 523
3 564 577 565
3 573 574 572
3 521 573 579
3 580 573 578
3 579 573 580
3 579 524 521
3 524 579 525
3 522 581 575
3 522 526 581
3 576 581 582
3 576 575 581
3 583 580 584
3 583 579 580
3 583 525 579
3 583 527 525
3 526 585 581
3 526 528 585
3 582 585 586
3 582 581 585
3 587 584 588
3 587 583 584
3 587 527 583
3 587 529 527
3 528 589 585
3 528 530 589
3 586 589 590
3 586 585 589
3 591 588 592
3 591 587 588
3 591 529 587
3 591 531 529
3 532 593 589
3 530 532 589
3 590 593 594
3 590 589 593
3 595 592 596
3 595 591 592
3 595 531 591
3 595 533 531
3 534 597 593
3 532 534 593
3 594 597 598
3 594 593 597
3 599 596 600
3 599 595 596
3 599 533 595
3 599 535 533
3 534 601 597
3 534 536 601
3 602 597 601
3 602 598 597
3 603 599 600
3 604 603 600
3 603 535 599
3 603 537 535
3 536 539 601
3 606 540 605
3 606 602 540
3 602 601 539
3 540 602 539
3 605 607 606
3 608 609 610
3 608 543 609
3 604 542 603
3 609 543 542
3 609 542 604
3 542 537 603
3 540 545 605
3 605 546 607
3 612 607 611
3 605 545 546
3 607 546 611
3 612 613 614
3 612 611 613
3 614 615 616
3 614 613 615
3 616 617 618
3 616 615 617
3 618 619 620
3 618 617 619
3 620 621 622
3 620 619 621
3 622 623 624
3 622 621 623
3 610 548 608
3 624 623 548
3 624 548 610
3 548 623 549
3 548 547 608
3 546 550 611
3 611 550 613
3 613 550 551
3 551 552 615
3 613 551 615
3 552 553 617
3 615 552 617
3 553 554 619
3 617 553 619
3 554 555 621
3 619 554 621
3 621 555 623
3 623 555 556
3 556 549 623
3 565 625 626
3 567 566 626
3 626 566 565
3 567 626 627
3 568 567 627
3 568 627 628
3 569 568 628
3 569 628 629
3 570 569 629
3 570 629 630
3 571 570 630
3 572 571 631
3 631 571 630
3 572 631 578
3 576 632 577
3 625 632 633
3 565 577 632
3 565 632 625
3 625 633 634
3 626 625 634
3 626 634 627
3 627 634 635
3 627 635 628
3 628 635 636
3 628 636 629
3 629 636 637
3 629 637 630
3 630 637 638
3 631 638 639
3 631 630 638
3 640 578 639
3 578 573 572
3 578 631 639
3 578 640 580
3 576 641 632
3 576 582 641
3 633 641 642
3 633 632 641
3 633 642 643
3 634 633 643
3 634 643 644
3 635 634 644
3 635 644 645
3 636 635 645
3 636 645 646
3 637 636 646
3 637 646 647
3 638 637 647
3 638 647 648
3 639 638 648
3 640 648 649
3 640 639 648
3 584 580 640
3 649 584 640
3 582 650 641
3 582 586 650
3 642 650 651
3 642 641 650
3 642 651 652
3 643 642 652
3 643 652 653
3 644 643 653
3 644 653 645
3 645 653 654
3 645 654 646
3 646 654 655
3 646 655 647
3 647 655 656
3 647 656 648
3 648 656 657
3 648 657 649
3 649 657 658
3 588 584 649
3 658 588 649
3 586 659 650
3 586 590 659
3 650 659 651
3 651 659 660
3 651 660 661
3 652 651 661
3 652 661 662
3 653 652 662
3 653 662 654
3 654 662 663
3 654 663 664
3 655 654 664
3 655 664 665
3 656 655 665
3 656 665 666
3 657 656 666
3 657 666 658
3 658 666 667
3 592 588 658
3 667 592 658
3 590 668 659
3 590 594 668
3 660 668 669
3 660 659 668
3 660 669 670
3 661 660 670
3 661 670 671
3 662 661 671
3 662 671 663
3 663 671 672
3 663 672 664
3 664 672 673
3 664 673 665
3 665 673 674
3 665 674 666
3 666 674 675
3 666 675 667
3 667 675 676
3 596 592 667
3 676 596 667
3 594 677 668
3 594 598 677
3 668 677 669
3 669 677 678
3 669 678 679
3 670 669 679
3 670 679 680
3 671 670 680
3 671 680 681
3 672 671 681
3 672 681 682
3 673 672 682
3 673 682 683
3 674 673 683
3 674 683 684
3 675 674 684
3 676 684 685
3 676 675 684
3 600 596 676
3 685 600 676
3 598 686 677
3 598 602 606
3 678 686 687
3 678 677 686
3 678 687 679
3 679 687 688
3 679 688 680
3 680 688 689
3 680 689 681
3 681 689 690
3 681 690 682
3 682 690 691
3 683 691 692
3 683 682 691
3 684 692 693
3 684 683 692
3 685 693 694
3 685 684 693
3 694 604 685
3 685 604 600
3 598 606 686
3 606 607 695
3 686 606 695
3 686 695 687
3 688 687 696
3 696 687 695
3 688 696 697
3 689 688 697
3 689 697 698
3 690 689 698
3 690 698 699
3 691 690 699
3 691 699 700
3 692 691 700
3 692 700 701
3 693 692 701
3 610 609 694
3 701 610 694
3 701 694 693
3 609 604 694
3 607 612 695
3 695 612 696
3 696 612 614
3 614 616 697
3 696 614 697
3 616 618 698
3 697 616 698
3 618 620 699
3 698 618 699
3 620 622 700
3 699 620 700
3 622 624 701
3 700 622 701
3 624 610 701
