OFF
702 1400 0
-0.261793510515164 -0.326013166941401 2.31707714696391
-0.310833950673172 -0.313321505756936 2.31568808271505
-0.29352946644031 -0.333371632541117 2.28074653888291
-0.216050990053005 -0.331988396877316 2.30547019771004
-0.248389556092356 -0.343468662428029 2.27008318658444
-0.170946242676119 -0.336069519421239 2.29236630768269
-0.204038540001931 -0.347164233925088 2.2561549310204
-0.126783074849904 -0.339475168228578 2.28086623721532
-0.160793718276514 -0.350671521333254 2.24230894409374
-0.0829563420213588 -0.342678531746678 2.26986277640763
-0.117124298144766 -0.353680808799074 2.23127108559197
-0.0356973947378955 -0.34498955170224 2.26066058762323
-0.0711692060362086 -0.356197111161573 2.22348028719165
0.0122235001974048 -0.339788598393461 2.25172537445958
-0.0236340052750477 -0.35699026490718 2.21560386467048
0.0228523391802145 -0.347343660589215 2.20748932868132
-0.322894233737207 -0.284054663618975 2.34919169011316
-0.360613378860639 -0.267912352030255 2.33324272996743
-0.349936078477162 -0.298633904674363 2.3000632217032
-0.277816163961221 -0.298956233977788 2.3541457817668
-0.229678051343035 -0.307096611392178 2.34950463846906
-0.183493470581792 -0.311778204855364 2.33674994256701
-0.137679909889561 -0.315040606035575 2.32571447247106
-0.0931780391951586 -0.317754797588753 2.31562109608299
-0.0506186620344057 -0.322574409331126 2.30285792612637
-0.00245347132801921 -0.322621490303447 2.29286262440009
0.0569634118809895 -0.322974472015296 2.24068984136488
0.0423679958079446 -0.30976713539384 2.28416136048974
0.0844021538410729 -0.28922999476962 2.26548814423149
-0.296837360527511 -0.261703128285013 2.38311322981508
-0.344574385881477 -0.242588123253277 2.37014860818575
-0.247373087002768 -0.274098849628629 2.38405937094664
-0.197596690244303 -0.279664407652746 2.37453405973786
-0.151044136055248 -0.283324886129378 2.36309465762074
-0.103830609382699 -0.28501904465152 2.35343788227685
-0.059659769482082 -0.287072026375469 2.34395153321542
-0.0201902553475619 -0.296014513520167 2.32862863653588
0.0220988171798236 -0.286980616351629 2.32408359509253
0.0651452537144439 -0.273062797994419 2.30924028104725
0.104472254431122 -0.250535545855744 2.28698656909372
-0.307607189711147 -0.223967399870083 2.40774680181245
-0.348293064848697 -0.203714145698742 2.39376279334697
-0.261557563144772 -0.237749955219603 2.41385468582697
-0.211485105691195 -0.247477909584621 2.40772438253661
-0.162966686479536 -0.248867060125816 2.39831450108275
-0.1167054122588 -0.252969194813086 2.3864999326403
-0.0650461891212247 -0.252942524408377 2.37774429865345
-0.012873321724726 -0.261702992297595 2.36043664156217
0.0375132874240264 -0.253570335749745 2.35152129131859
0.0840922145673671 -0.237585147462786 2.33238150817965
0.122807877544871 -0.211317557074022 2.30874861279249
-0.278493526853317 -0.198262200659452 2.44146303771657
-0.327561480931699 -0.181877051450956 2.42579423323196
-0.226801190901951 -0.21445141018073 2.43890185889281
-0.178532475481229 -0.215881107914724 2.43273639078222
-0.132945222231819 -0.216160936329938 2.42471801194157
-0.0912516609465472 -0.22350400758173 2.41055756142111
-0.0534497536894986 -0.210584055476971 2.41657724765381
-0.0247778281425802 -0.229912391486531 2.39308482754575
0.0185955094195503 -0.22561562172646 2.38852322559573
0.0638674948071861 -0.218553565022834 2.37302765128639
0.10711535419189 -0.199411984799829 2.35195585895144
-0.268438980353137 -0.156449282506738 2.47910992943728
-0.306735562507754 -0.160100980469259 2.45616796983777
-0.237931957199677 -0.182524888400556 2.46602246098136
-0.188054782159752 -0.183855053849814 2.46519966822846
-0.142513387899702 -0.181812944755162 2.45943314576719
-0.0948525096160588 -0.186113134686071 2.44718886045567
-0.0470934118380059 -0.179350820109418 2.44558523113667
-0.00375947257408868 -0.19236470904765 2.42568258775509
0.0431573669192638 -0.19150562978962 2.41412978325647
0.0866340118943999 -0.183829881700024 2.39416549787053
0.128262833630142 -0.16143952147887 2.37047985519272
-0.246815758294855 -0.130715914227094 2.50784874983413
-0.300604785782104 -0.119624456656714 2.48976286514633
-0.210641325185939 -0.154825431724234 2.49348820564863
-0.160932397095121 -0.14747046673614 2.49564553155952
-0.111981779752403 -0.151279036932515 2.48365659149685
-0.065715454986201 -0.150259480879736 2.4767750573595
-0.0150975259542577 -0.153544093614286 2.46500643141162
0.0279107840168646 -0.159545523997146 2.45156433433611
0.0717903571964593 -0.156147671415531 2.43660768710452
0.109757464396869 -0.148753003232304 2.41277481003748
0.143006822823713 -0.12275213131945 2.39846955855508
-0.23078218699285 -0.0897368910544254 2.53866060310713
-0.273814822995956 -0.0998989913344528 2.51951198564992
-0.200335500046467 -0.119751324437946 2.52376776833147
-0.161978151482399 -0.106954404296454 2.52819044263859
-0.12112739851922 -0.115059516406432 2.51522096057391
-0.0761016755894103 -0.114598574016095 2.50691627540463
-0.0296828097022149 -0.117357411425681 2.49627122322562
0.0179694706737417 -0.120893375726843 2.48490078873822
0.0639388655299498 -0.123519878555246 2.46992220401047
0.109600685998647 -0.117607678979966 2.44480145717312
0.150738352272601 -0.0862817973656315 2.42029156468829
-0.275685357542711 -0.0601576933839638 2.53684678290053
-0.187313637538658 -0.0691675836201028 2.54955817210305
-0.232418568472856 -0.0454229709154939 2.55369650243416
-0.137678314142004 -0.0690543582392845 2.54118847603195
-0.0926081152007448 -0.0732757016637493 2.53023575905906
-0.0464871061132196 -0.0736934262019759 2.52038019586062
-0.0016318561267101 -0.0777844777419427 2.50952814651752
0.0439975285132175 -0.0817788046437029 2.49826277661753
0.087124303133817 -0.0831541035020026 2.48029024068422
0.125099715266986 -0.076889986867847 2.45525235688567
0.112933979180154 -0.037633881910697 2.47600667340197
-0.201524623849071 -0.0176085956918863 2.56048516669915
-0.158067035549691 -0.0260630641293934 2.55545057717857
-0.109855090383722 -0.0273561396723023 2.54443599847787
-0.0648612688192117 -0.0279594687672531 2.53417992905415
-0.0193618949088647 -0.0288766010781411 2.52375421185624
0.0243250342901114 -0.0351092355393381 2.51325008510354
0.0702193043567845 -0.0390283291877086 2.49970703729212
-0.286293075189828 -0.34227098368502 2.236574474409
-0.321113423627358 -0.329703473181865 2.21110630620942
-0.312089337152818 -0.324016601384372 2.16756362722134
-0.239375562104497 -0.348368847433542 2.22025658307488
-0.273999171550412 -0.340932745821862 2.18892089593134
-0.196310809486112 -0.350937979067452 2.20385934158233
-0.230700985139156 -0.341245236899053 2.16713253117345
-0.152741943408762 -0.35360925998279 2.190687892573
-0.187893631518891 -0.342604937802837 2.15222043784348
-0.107460574859824 -0.356731145622097 2.18240956318898
-0.141040098713119 -0.345809497958675 2.14170705913699
-0.0616390611938734 -0.359980235455258 2.17680155894352
-0.0948500793821424 -0.349969458864336 2.13475091563162
-0.0154875072138113 -0.358046456947643 2.16890174686291
-0.0493623083665483 -0.353542381408097 2.1302560610701
-0.00140378890562298 -0.346054128746618 2.12198679990638
-0.332375079267025 -0.322094892189074 2.26108183008391
-0.37455072411274 -0.292398742813085 2.25845641771877
-0.357690321796706 -0.308941686091944 2.21831487570287
0.0659284485584002 -0.326727198282167 2.19544993684533
0.0280184691411026 -0.345768301359108 2.16238821427687
0.0655691989650072 -0.324031582737982 2.1499844166617
-0.388302655133992 -0.232746432762169 2.33188274081734
-0.415299969034999 -0.222007336975784 2.28856145232287
-0.388694726544177 -0.263907557171601 2.29410619113967
0.096799981892891 -0.29723266448307 2.2188865811348
0.100813746077925 -0.296987329909718 2.17014568300998
0.125741691613882 -0.264722118431215 2.18894626104907
-0.379958269530661 -0.203106146181441 2.3613284938781
-0.411084564962918 -0.188657978067133 2.32289199022852
0.118984407411052 -0.260475988890689 2.23955397491887
0.142476158508299 -0.22439928780491 2.21403421218187
-0.372437233459174 -0.16347099435754 2.39326485937745
-0.399547584568889 -0.15763285682411 2.35638590848607
0.135351285739562 -0.219204450911638 2.26198173977905
0.156178927831219 -0.181737137431319 2.23336754682399
-0.354536379547445 -0.143155089665126 2.42627146077413
-0.388775123345364 -0.116274043308642 2.39291063380715
0.151583132993622 -0.177331358880664 2.28171866548916
0.168694041294426 -0.139000243115866 2.25527783779131
-0.334025058654162 -0.12381555152862 2.45954229594368
-0.369195461028349 -0.0970133375895877 2.4333261408899
0.143214130609462 -0.16942333199895 2.32633441704544
0.168224056338559 -0.131488606597539 2.30073034280432
-0.343400589358256 -0.083569167408769 2.47457677372956
-0.371883135174249 -0.0504099005455116 2.45057748194978
0.1593563229893 -0.128613674441601 2.34941030743399
0.181233460699205 -0.0907461057470214 2.32198517575184
-0.314665447314687 -0.0745576078124804 2.5079395108082
-0.346802054297659 -0.0376635984603377 2.49141101908796
0.171754732454092 -0.0904560707102414 2.37372577072844
0.188649382251745 -0.0527707794177608 2.35161695272712
-0.312061100004449 -0.0289145691826446 2.52405081906429
-0.26920746648599 -0.0161814265343234 2.54786303741041
-0.29507889981688 0.0164786620380759 2.53529184602501
0.15010314251293 -0.038817920748246 2.4402961719329
0.166457994034246 0.000226301859318436 2.41782038594694
0.174257647021595 -0.047679973180006 2.39930027284972
-0.23913016292502 0.0121460751587733 2.55631162595104
-0.182529073411201 0.0238074753251248 2.55842538610981
-0.218965080753917 0.0512392854414116 2.55231317377175
-0.132816916036102 0.0157483835664048 2.54981770871472
-0.0867354987165044 0.0190814053436948 2.53828640312302
-0.0410992207009346 0.0181379547068264 2.52734395039151
0.00474230966494879 0.017130368629731 2.51633934367382
0.0472768513765327 0.00684364095059309 2.50739825123269
0.0685412098320085 0.0431962269425769 2.49200288218312
0.0942853007941846 0.0033942070954299 2.48833486710429
0.13487554569857 0.00347770916125451 2.45754573525542
-0.187244748432902 0.0807655676675992 2.54197106400904
-0.152153884466143 0.0577826466657287 2.54549214243591
-0.109907270474914 0.0634004077456264 2.53263326057451
-0.065131392214667 0.0638068707212446 2.52086836058034
-0.0195135662945942 0.0622185915218788 2.50965080124192
0.0277301495093936 0.0609225945749498 2.49787186309175
0.0771882896392547 0.0798048314848632 2.47076919154128
-0.39008209389876 -0.278314827138964 2.21093062788994
-0.388521247764525 -0.266734691067533 2.16813712499625
-0.354233187081109 -0.301699661975028 2.17219493142441
-0.317689566350829 -0.303440508871675 2.1301486181496
-0.268808201690162 -0.32546240963232 2.14122474255298
-0.223785250972463 -0.321209418450548 2.1173077888657
-0.173973638760151 -0.325759171356063 2.10790026489236
-0.122781932588227 -0.329284509655142 2.09624770787321
-0.0771215304357647 -0.334213962887035 2.08908624460723
-0.0301228503850872 -0.336528990394667 2.08908942783633
0.00894041416504943 -0.318347607710902 2.07264848518111
0.0377169583430891 -0.329094517675846 2.11393172839642
0.0559002949299883 -0.303802734608365 2.08663680856076
-0.407187271933033 -0.254483140710638 2.25130889579977
-0.429358932057903 -0.208996448498322 2.24273178895134
-0.417084742824674 -0.237413340824881 2.20782601627449
0.0867903239119664 -0.298323894023841 2.12251037571461
0.0902379450893706 -0.271428101700424 2.08610847664997
0.118537631493496 -0.264819959794685 2.1341701898423
-0.430953051654792 -0.173960799847318 2.28002765038816
0.13513133859974 -0.222765214670722 2.12253912234912
-0.423317888282999 -0.141097578714912 2.3099034344965
0.142476558383341 -0.228032058492259 2.16553890620312
-0.410093256588006 -0.116407164849026 2.34908988615601
0.154895058106962 -0.184637848974991 2.1835603814753
-0.407674521220944 -0.0757417013045544 2.36216468251915
0.164573705448696 -0.143011498803846 2.2029296914027
-0.391552688494561 -0.0651200254270872 2.40597104744591
0.173623496588539 -0.104079721792657 2.22619644117735
-0.389339297466951 -0.0164344031873264 2.42169375415583
0.181619687382941 -0.0887865303164861 2.2707657046585
-0.368677152051913 -0.00241929674767145 2.46696018131032
0.19211905066729 -0.0479336878735563 2.2992767795761
-0.336574023862833 0.0089827636050973 2.5056774623898
-0.353492940795669 0.0444351386905537 2.47867383395546
0.186111181137655 -0.00690425291779917 2.37489350304998
0.19489124236745 -0.0129945220902295 2.32825902502987
-0.315475760127648 0.0532050391349926 2.51339867449145
-0.268510056504204 0.0515580205074289 2.54027220940584
-0.285608739250473 0.0912567287446835 2.51436275372581
0.112179747159981 0.0444758768560787 2.4661517717626
0.148354898600633 0.043156154883243 2.42986471548684
0.173883223754074 0.0392632487241567 2.38654990692791
-0.239497988079255 0.0898208073605389 2.53318021942139
-0.201009301096154 0.116819023980007 2.52070956239439
-0.144606690500994 0.102483078988218 2.52188968833819
-0.0977502915302126 0.104882545110279 2.50724528890291
-0.051853254255821 0.104198109637227 2.49487669110379
-0.00545463419634959 0.101501258886006 2.4837993730799
0.0387018593634828 0.102429435006582 2.47063923726792
0.0844133567575897 0.11290187353042 2.4396190357155
0.119768710057022 0.0817266948837234 2.43772601421036
-0.390876672744161 -0.237217331178573 2.12927850091676
-0.357163147312482 -0.275696337415294 2.12955964678969
-0.31871070079621 -0.273963670924846 2.09370913353331
-0.274995040205447 -0.300572562425711 2.10432568594963
-0.237515708558179 -0.289104217647496 2.07984457820667
-0.196425629336938 -0.296112173039323 2.07496554502188
-0.148460140903367 -0.304093450582012 2.06912982894623
-0.0944036721861787 -0.304824764093775 2.05336885057003
-0.0435720118123441 -0.313099130248295 2.05376731058064
-0.00199229040199519 -0.289377307295989 2.03590290506976
0.0446423902337583 -0.282757395767181 2.05267481191877
-0.434098430240284 -0.186133425055233 2.1959173303192
-0.414349543237016 -0.224973556409291 2.16875085705653
0.0780091343526493 -0.245954092154875 2.04876150818345
0.113393600690081 -0.235017744751929 2.08645779396199
-0.438848380262487 -0.161753938777393 2.23839831459
0.132597249184741 -0.186380890472054 2.09112668079418
-0.434812266410993 -0.119169638489079 2.26507594398116
0.148721923781454 -0.180611006125583 2.13789261593695
-0.422676375939209 -0.092518417831523 2.30960416241531
0.155867974675564 -0.136844800108946 2.15565107230366
-0.416045850789055 -0.0477714956700797 2.32543261332849
0.16389430350902 -0.0960305698728161 2.17857398234338
-0.403486537643809 -0.0288302121214726 2.37391051744831
0.175760517271181 -0.0621091406394159 2.219895152955
-0.397085610767717 0.0176069364608447 2.38831477972275
0.185872914744084 -0.0380359712339849 2.25647467377099
-0.381020962030161 0.0314742046598569 2.43625169805962
0.192366708975821 0.00781168950929168 2.288565159773
-0.361487473994944 0.0776950476326737 2.44607174750248
0.188304864663625 0.0305968683656633 2.33922254517006
-0.327701084795089 0.0880391898168807 2.4837289891873
-0.29355414550535 0.125806643971965 2.48159620959566
0.149940639685264 0.0809009423385423 2.3971527592603
0.170695800925247 0.0743016541991956 2.35135049782098
-0.24894694016273 0.126382616718446 2.50462719376735
-0.209115097260058 0.152666430732582 2.48689269792317
-0.166193526679077 0.136100949788282 2.50034693803348
-0.124416214190278 0.139965922509431 2.48387376854252
-0.082381770816838 0.140602445337919 2.47036001943378
-0.0363902852457775 0.137221181278812 2.4600272045545
0.00507182637550238 0.137286951964198 2.44731169873989
0.0462742469958535 0.135701064165533 2.43588056196729
0.11686138274575 0.117421238051061 2.40267242975769
-0.398431540303903 -0.20469741736981 2.09897382655742
-0.359778526903231 -0.243301081328997 2.09235703179155
-0.322107192422286 -0.241750346045063 2.05884435985236
-0.276879984369899 -0.26616807455843 2.06680482303195
-0.228485369831323 -0.257386995478095 2.04245870962862
-0.180432321674284 -0.268636133716441 2.0400877676825
-0.132840536515038 -0.279231213563085 2.03714357791291
-0.0953442038882571 -0.26795747581835 2.01339969881103
-0.0520031442992965 -0.283119920112984 2.02212376332926
-0.00986516189899075 -0.257227856912465 2.00184332720348
0.0357867187356707 -0.253407642999057 2.01975678318423
-0.440732045515376 -0.150715557655666 2.16355748073289
-0.422302897151183 -0.192504700291788 2.1428325199776
0.0721180447379345 -0.21436718920804 2.01563418937588
0.106730381492946 -0.203034111430188 2.0516076751319
-0.443930729309972 -0.131043943955135 2.21062606327368
0.127844115015822 -0.154278994504372 2.06007621551824
-0.440868814011616 -0.0843148142393296 2.22929617724519
0.144621825509762 -0.139771309995039 2.10826163311277
-0.429306415843904 -0.065621817372554 2.27360522297798
0.152561809914289 -0.0921567951139782 2.12889385103274
-0.42210899394977 -0.0186399774761918 2.2912332118318
0.164835242191414 -0.0520089988758637 2.17021508227482
-0.409843428627039 0.00142752941554389 2.33817209541954
0.17444112019584 -0.0186441792282205 2.20200523384168
-0.402914961596387 0.0491679341534809 2.35443607669914
0.185131216527683 0.00336809052378534 2.24178332271962
-0.386720863941832 0.0645068577781953 2.40270648009698
0.186016600761899 0.0472471301935309 2.254835320169
-0.367165748772394 0.110347622904653 2.41231528774054
0.184185479365861 0.0584621491118619 2.3026625157704
-0.333574917130728 0.120783420799839 2.44998182846188
-0.298467184360565 0.159117944699914 2.44769658644113
0.144097167970953 0.115382367786238 2.36154674522589
0.165812784142876 0.105714731322391 2.31620193638875
-0.254703841261152 0.159435581011512 2.47052608413461
-0.209004016112543 0.18454942604146 2.45399995203426
-0.162171907995291 0.167983814357259 2.46479457842067
-0.115669136214223 0.174414334562457 2.44359244608526
-0.0631007877318955 0.168592237298193 2.43391911396618
-0.0173392229590244 0.170219025971419 2.418188279241
0.0274432002606685 0.168466916777262 2.40644492806069
0.0772964975843429 0.148775026429058 2.40343690703822
0.108615374470457 0.15253354267294 2.36876682171619
-0.404367164740252 -0.172927809873354 2.0666352952353
-0.366545394031104 -0.210613961908165 2.05954748406163
-0.327483764304822 -0.210895512078235 2.0267725411688
-0.277175645789639 -0.235666386250831 2.03358947297041
-0.236976176194446 -0.221672741928926 2.00605228624305
-0.191937803466723 -0.234856979756027 2.00671417064169
-0.144744054128407 -0.247161495284536 2.00575713615914
-0.10520668042115 -0.233661531652638 1.97895989700526
-0.0563594964821255 -0.24909226105829 1.98677323228775
-0.0149364413277476 -0.224088907822694 1.96768054471755
0.0305009447424494 -0.222248392720167 1.98754868371609
-0.446569775053793 -0.11749532500974 2.12877493360381
-0.428006288285355 -0.161580922362623 2.11164207403404
0.0669279985749395 -0.182495456167535 1.98300875491409
0.101731268033434 -0.170216358364486 2.01881396466271
-0.449461287089018 -0.100803675535182 2.17691400328706
0.122735276908567 -0.122455042836539 2.02832391288619
-0.447293051203202 -0.0545186710256067 2.19336301057297
0.139499504695721 -0.106675895228461 2.07697975561307
-0.434752762003203 -0.0306072913483848 2.24039539175564
0.145464359054838 -0.0600870978853198 2.0894371762367
-0.426100988162896 0.0161017297319464 2.26434090799843
0.156443348210259 -0.0415797570626066 2.13129891411029
-0.415257598412612 0.0348437308451355 2.30555113274905
0.165561685901179 0.00321794830679299 2.15777846575663
-0.409129613984129 0.0805945534595654 2.31894235845647
0.177820893509933 0.0302629034740063 2.20272592996551
-0.392878566800831 0.0958839226129622 2.36850621425218
0.180333430652366 0.0768019516291173 2.21848520580307
-0.372641594974888 0.142296582103504 2.37942040855735
0.177710029999874 0.0938755218411812 2.26885751659213
-0.338571073823244 0.153607052896826 2.41679134262232
-0.301366637158469 0.191996684568918 2.41556398996809
0.137666339520972 0.148658733116857 2.32815231437537
0.159385924821656 0.13953737140821 2.2828666505959
-0.25609027688915 0.192064124245532 2.43818678815163
-0.210936876332417 0.216454144458627 2.42088823401644
-0.163067860764939 0.199007205954679 2.4311933177832
-0.124874219228216 0.212307643842675 2.40502492784129
-0.0839296048968667 0.197476657209552 2.40873223923166
-0.0394178621480633 0.200730472409602 2.3916058388186
0.00856539616191354 0.201500965855863 2.37613237602557
0.061571073050577 0.182505793300115 2.37513655116549
0.0992301620285898 0.185120213781832 2.33925174920295
-0.409864921008382 -0.141149644510743 2.03343184124023
-0.372678347118325 -0.178286592968616 2.02647391629406
-0.334948737119864 -0.179072070025027 1.99488374685549
-0.285344716653763 -0.204009376406759 2.00151558069102
-0.243529066855025 -0.187907000933063 1.97118165273876
-0.198778444162945 -0.200334051949309 1.97110408527929
-0.153629361125987 -0.214087699346323 1.97235429694155
-0.114490948142252 -0.199659601655384 1.94466496838098
-0.0649279258001435 -0.216916192510823 1.95343219167935
-0.0236192247873317 -0.19309524460021 1.93454773901919
0.0251935487783936 -0.190628394389717 1.95490187965102
-0.452863004219323 -0.0834097499495133 2.09700119613898
-0.433416848058689 -0.130333526899074 2.07882059789899
0.0612126432637842 -0.150815205663453 1.94999008548805
0.0961897465680145 -0.138027328960319 1.98562183969509
-0.455307243596423 -0.0666550372059713 2.14361026216426
0.116648114678871 -0.0912477398798691 1.99445856333595
-0.453490402021621 -0.0175760164237742 2.15639014079251
0.133260271867426 -0.0742946413703841 2.04111550441089
-0.442920766715603 -0.00757614924964023 2.19888993473316
0.140929059001184 -0.0243895075823471 2.05994280624878
-0.434452163581843 0.0250762561929764 2.22600725098631
0.152756067910031 -0.00622541578589858 2.10553314608608
-0.422352682449462 0.0672448125568871 2.26600827371713
0.159860567295304 0.0393167269593005 2.12317111092504
-0.414649014943916 0.111627491382104 2.28654152178609
0.171422694158271 0.0572718273839427 2.16768699177835
-0.398397033368981 0.127187384165454 2.33602447583552
0.174762191893378 0.106438948852017 2.18407917901559
-0.376378662763494 0.175075597257809 2.348772309679
0.172437287070424 0.124868100363581 2.23414300061491
-0.342369026426176 0.186247157253126 2.38505522589964
-0.30569894623089 0.224143182217483 2.38309171390016
0.131018188594358 0.181240213213777 2.29614707553934
0.153902835955287 0.171288572753566 2.24944927416372
-0.259433490455063 0.22412525209885 2.4056596388018
-0.216667325860082 0.248914526407989 2.38719258150884
-0.168889536168024 0.233295787744163 2.39553005652785
-0.124954580578744 0.245803303268023 2.36847536185598
-0.0813208425990139 0.229647376429931 2.37281002757763
-0.0361767984998517 0.232693128102783 2.35571766495217
0.00942788310706766 0.233941321005481 2.34044771406786
0.0539912055276886 0.212981750215745 2.34486826665163
0.0949179362397347 0.215310260672669 2.30673262130143
-0.420565342980167 -0.106846424016679 2.00781279402217
-0.378454062003872 -0.145187952214692 1.99204151569806
-0.338578088897999 -0.148155507182832 1.9616902305956
-0.291315549863113 -0.173825130675502 1.97037858439367
-0.250135496102131 -0.155628662459903 1.93800808327427
-0.204791573876617 -0.165567969104476 1.93497776140496
-0.161796893303117 -0.17891451396847 1.93643896726868
-0.125039798445129 -0.165243056397847 1.9103150299411
-0.0740184859381094 -0.18505058154049 1.92050598778541
-0.0314293817060082 -0.16164835176935 1.90127369649067
0.0157464753764881 -0.161840614586688 1.92224333150277
-0.458871700497482 -0.0487259739323118 2.06493452753706
-0.440980612213388 -0.0966855712752164 2.05015735477915
0.0492673295577236 -0.124999083186097 1.91572885423904
0.0899733032312249 -0.105943240892316 1.95142287919795
-0.461325569675758 -0.0313076231549967 2.10935784064239
0.115264634292954 -0.0552393860689197 1.97047335633564
-0.457442754886773 0.0182097207168167 2.12739964748636
0.128895812259926 -0.0384930839950888 2.01232141821532
-0.44575472254029 0.0358678011847084 2.17450852216043
0.135258535938185 0.00986700792987143 2.02662785709449
-0.433630182460918 0.0662081967710215 2.21794882078428
0.147155636317036 0.0270097438839557 2.07216496696747
-0.427249196430673 0.11029255122455 2.23289759490451
0.153874673803115 0.0728220287187037 2.08830911542692
-0.418084762357103 0.147841714943816 2.26157508764873
0.165816093828737 0.0911539848369454 2.13411057765958
-0.401948219784662 0.160206621637755 2.30760873296667
0.16913226853314 0.138620347441953 2.15140062865372
-0.381588510074197 0.207271078995258 2.31611701394166
0.167043177174074 0.155899388412722 2.20080000555692
-0.346949529581414 0.218865202380038 2.35246032979698
-0.311348930330516 0.256117680144706 2.34989467951491
0.125820030333017 0.213054654952257 2.26228578109334
0.148371840051504 0.203095968489212 2.21596155495461
-0.265372196354763 0.255965421657674 2.37250521441074
-0.222943105177793 0.280933204977254 2.35390495785329
-0.173691051332378 0.265847253938041 2.36145164873413
-0.131170340962537 0.277117220114959 2.33614951449579
-0.0806529432512079 0.263520341942557 2.33562080149209
-0.033111387260351 0.264530640091246 2.3200199386756
0.0112542296859973 0.265055478472544 2.30591764784597
0.0544118058755606 0.24299434607485 2.31005355932634
0.0900043482851959 0.247166077942206 2.27282944838941
-0.394258458502862 -0.109404961241077 1.9711369127053
-0.359824907325262 -0.114133029269494 1.94438786459105
-0.318452454512463 -0.111906938299238 1.92239955410014
-0.296126997397208 -0.143759948578308 1.94000967774412
-0.266962174135152 -0.117296402520829 1.91136041862357
-0.219315173585222 -0.128293416293508 1.90550359664586
-0.171553161646225 -0.138553358829401 1.89961715419739
-0.127760599569554 -0.128004661407709 1.87989663205758
-0.0821715622272738 -0.153769428962202 1.88956999026801
-0.0412198200530032 -0.127668188996569 1.87226948790107
0.00804576788157332 -0.128924895223384 1.8893834525183
-0.456963304541365 -0.0138387657342765 2.03435290570267
-0.44495810952099 -0.0616147891056874 2.01854976458019
0.0670921284364176 -0.0874899019262432 1.90910348691719
0.0945388685706622 -0.0621355508825141 1.93259790046923
-0.462891079533414 0.00551981412875594 2.07701812111676
0.102160827430069 -0.018036844222534 1.93759759596622
-0.454134416868327 0.0513964174443223 2.09259875403702
0.120049762650811 -0.00281925996727029 1.978235030323
-0.448224106396135 0.0683946620729641 2.13697665130207
0.122024541133548 0.042090521310355 1.99394170325332
-0.439512971094991 0.0892168695743047 2.18100842976418
0.13812173270668 0.0609947773014392 2.0373489372804
-0.430018932140714 0.135818793116128 2.18957605286144
0.141603788751184 0.105060185531821 2.05602689991535
-0.421329005927077 0.165757165079702 2.22222932642738
0.15724628575723 0.12415719396906 2.09926219981212
-0.406908284359811 0.191381459606142 2.27314795256263
0.158134739435421 0.167372758584292 2.11908065426873
-0.386221800462088 0.233544001627065 2.27805098879371
0.159648217167191 0.18772788440025 2.1682488105609
-0.353237669137287 0.249249893589168 2.31747888928845
-0.316681565510898 0.282779777070751 2.31399197455359
0.118515133918809 0.244766608798392 2.22771549187502
0.136030706888886 0.233972686861638 2.18271806342901
-0.270100946803128 0.287038009177555 2.33823284743651
-0.226941966496933 0.309178131726987 2.31478935730757
-0.18294797358268 0.297294039314015 2.32655603534263
-0.14757350735146 0.305046266253987 2.30157456194077
-0.1010275108365 0.296453392610431 2.30035985169745
-0.0567660323993561 0.292729810472013 2.29136184566186
-0.00915213774110976 0.292312115165863 2.27577228815997
0.0459127140215194 0.276013896192223 2.27510746664486
0.0807513738841149 0.275213348562714 2.23829451469216
-0.419791042520224 -0.0690168821723045 1.97532703639452
-0.384779210977649 -0.0718397195550596 1.93891782906801
-0.343259804462046 -0.0740257722388198 1.91365391802367
-0.293417112918324 -0.0777053156850857 1.89894306306197
-0.243518442988008 -0.0836856243379279 1.88830825052943
-0.197411982631998 -0.0929549363462571 1.8800471996682
-0.154631869311151 -0.0921535213206177 1.86859603871342
-0.110054288636596 -0.081736224970404 1.85357922740225
-0.0845658250527099 -0.115372964254264 1.86362918842121
-0.0558201853169637 -0.0799362107708887 1.84912545787555
-0.0119220794352321 -0.094989333241221 1.86282451557633
-0.436843879240846 -0.0266008828820491 1.98694483343134
-0.419129778405952 0.0139483251838112 1.96220472302652
-0.406232903128876 -0.0301705549138204 1.94683170676366
-0.00439105439146514 -0.0543114826397135 1.85382504024543
0.0331370508667528 -0.0850026783139977 1.88019443750458
0.0324867151578275 -0.0382995776036814 1.86892058525667
-0.451586230676652 0.0411136279916708 2.04033736636692
-0.444021531178315 0.0161638916182754 2.00333675765033
0.0682792850278168 -0.041237012901089 1.89639959184307
0.0778798699555591 0.0021458740959027 1.90736595308331
-0.440587755691711 0.0808196959991534 2.06111274649318
0.0974571411767093 0.0314592053476562 1.94396771696783
-0.43694130101556 0.103832590530856 2.09990424514388
0.101122105136245 0.0708174588615139 1.96872057105608
-0.435378001654998 0.117655402912321 2.14055429618907
0.117423894544818 0.0950367611078733 2.00579997851869
-0.421447017687927 0.157989823846012 2.14670204924633
0.121113427313996 0.134240582592116 2.03021668959895
-0.413366870218713 0.189155104603236 2.18011012788308
0.13715685709969 0.158259611708895 2.06717780513946
-0.408437033830669 0.208513980528903 2.23290594481095
0.138142109939469 0.195939628669971 2.09197487899213
-0.356514456101214 0.271400430414656 2.27668577508353
-0.383905807775677 0.252014609283728 2.23648487582088
-0.353702504010253 0.285458392111667 2.22925387299892
0.143987146227435 0.214697523716171 2.13555378270973
0.115829927775969 0.237072440951708 2.09750813869127
0.118537841161272 0.253269837629265 2.14351301458467
-0.276124116953385 0.309156975364087 2.2992617111921
-0.321831726235063 0.299451886104018 2.27269620571587
-0.283529260367908 0.321158524877449 2.25569630343218
0.100798012870728 0.272570703126524 2.19024591495774
0.0572246072609968 0.301736544597737 2.16544853526056
0.0591601190928319 0.297717516111793 2.20656815881159
-0.235234323550679 0.325906630563651 2.2737065471899
-0.187017407463885 0.321905120174754 2.27748829952006
-0.136442441827412 0.31984178353687 2.26171670556802
-0.0915335646840191 0.315697565628955 2.25502672151337
-0.0485716394527556 0.312902240851889 2.24492563989733
-0.00861163055847844 0.312090526634494 2.22975406900969
0.0309208585722664 0.299526195969144 2.24115715398961
-0.365841241062769 -0.0317147739250992 1.91510931238393
-0.318551985772227 -0.0357846836229986 1.8950887178344
-0.268790780494987 -0.0393148255631344 1.88333195853437
-0.221762004445159 -0.0436336187992961 1.87253478333719
-0.177768423940427 -0.0467171185436416 1.86230141572432
-0.134837326006902 -0.0421320140942655 1.85136626929592
-0.0865759653285842 -0.0400662162111664 1.84185944303352
-0.384649212902958 0.0101339599977946 1.92774777132122
-0.358689287692298 0.0478657255300002 1.91959787200407
-0.339513453938907 0.00758321107364804 1.90151016236642
-0.290622953610454 0.00456680505750623 1.88729209806852
-0.243778092782476 0.00400370225582927 1.87658864347469
-0.197396517255318 0.00108453717568713 1.8657826643958
-0.153290647613969 0.00309456961723501 1.85602834377547
-0.107091437731929 0.00288010530442617 1.84570152701841
-0.0568868406372691 0.00527331725249725 1.84279239499417
-0.00301501142856705 -0.00145916695408382 1.85293968301199
-0.039853058957622 -0.0347920903639957 1.84291995366455
-0.427510186475173 0.0557857527028791 1.9918937876999
-0.397713066848986 0.0943877704218979 1.98042685519799
-0.397011178781592 0.054331205517347 1.95135281648322
-0.0277847778415632 0.0405968512338827 1.85538893841293
0.0416171356811406 0.00446815723123822 1.87627119619437
0.0170038826354465 0.0437892309236639 1.87281625434486
-0.425068493328705 0.0888995325102124 2.02148862987637
-0.392303443106903 0.127801245441963 2.01429885902199
0.0604669863658753 0.0429645524037962 1.90328886646553
0.0300691195246128 0.0811168606226967 1.90152647432106
-0.416702627118147 0.124331264343918 2.05791216635776
-0.386707377815347 0.160779488173409 2.05014198952978
0.070028709465251 0.0756964652041271 1.93258862042017
0.039505704306316 0.11581726983076 1.93312800634802
-0.414013509662882 0.151574960218858 2.09770240994065
-0.380385885543891 0.191247009531631 2.08167076784021
0.080503487352675 0.110876409796003 1.96549731498136
0.0498972493830549 0.149567781022382 1.964715588706
-0.400107334094684 0.192182380506829 2.12678034289027
-0.367783791712353 0.227408600948072 2.11065670910992
0.0905853080068329 0.141573370512272 1.99522851018238
0.0605793913474608 0.182650289764448 1.99603891328025
-0.387352089356367 0.229169615868043 2.15373594850394
-0.354872402574756 0.265645597219243 2.14439134958075
0.101484610515129 0.176222784768375 2.02829046076824
0.0705297385192866 0.215884350445579 2.02695643200027
-0.396982678050995 0.230976483319385 2.19597783768291
-0.368847472787085 0.268082094011226 2.18795205043534
0.110417316025433 0.207314296669559 2.05784819488242
0.0792768534381671 0.246626368874531 2.06043214511455
-0.319335569340802 0.309434138342092 2.2266917537355
-0.330886501245117 0.298547733486885 2.18031782454602
-0.289225697587989 0.322134105184193 2.19971245405521
0.0865014209015164 0.282320695590142 2.14489873233274
0.0852474162444285 0.269363136534695 2.10153899284269
0.0472125700623525 0.296759827586351 2.11396470571262
-0.252682942505902 0.331753580081654 2.22828618229826
-0.240964456459514 0.330793864718773 2.18587489717033
-0.208258184334514 0.33313537042719 2.23176850592692
-0.195079034052398 0.330458107488458 2.18345316564044
-0.165132365582677 0.32996796401582 2.22604368666262
-0.151795276309568 0.327614344506166 2.17335019331738
-0.120158820353325 0.327242770964153 2.21276319196797
-0.108411542953265 0.324479188208028 2.16136378376091
-0.0764054978796678 0.324302854384147 2.20342115423422
-0.066141922614723 0.321471547941922 2.15006736032403
-0.0338428537089344 0.321744967028826 2.19017169000079
-0.021839339529628 0.318990237851635 2.14246691808531
0.0143578181260602 0.315991487038355 2.18886822014904
0.0180641758714992 0.313307625615766 2.141642950969
-0.326037593736392 0.0818431099641497 1.91950433685637
-0.309299560337793 0.0466654524141914 1.89950066808674
-0.263835191541567 0.0496846575730009 1.89072411915394
-0.216065411120554 0.0460663495501605 1.87942028234602
-0.171391480153444 0.0484835438048974 1.87087049299886
-0.126512613585794 0.0482702085328404 1.8614247785386
-0.0807111923474985 0.044884347905534 1.85261984075548
-0.364496966923266 0.0906846197101792 1.94555198466733
-0.319970479857302 0.118622683036456 1.94352973514229
-0.281505585122337 0.0927014265671755 1.91454577342064
-0.232166447805059 0.086221649299399 1.90107317436379
-0.187243755132856 0.0902627099316402 1.89494122736097
-0.142767743617404 0.0908808872685719 1.88691993685024
-0.09828235668506 0.0885607892636398 1.87696555888238
-0.0548322413294628 0.0794124548131152 1.86923546345175
-0.0137682656710726 0.0837498300926686 1.88067337898787
-0.358927526314076 0.126883335235518 1.97541660531813
-0.316069762744769 0.152875736871321 1.9767401339504
-0.277234287268827 0.136055481099038 1.94921107299089
-0.243238652547422 0.119813577237231 1.92792494960422
-0.198343705194022 0.126060541706654 1.92617265081312
-0.15406453610242 0.127473772932184 1.92000819211341
-0.106851280289893 0.124354521986412 1.90897825199035
-0.0577903656513768 0.117172244303802 1.89792736912417
-0.0058102338498312 0.117066815932164 1.90964845029241
-0.353869762614522 0.160023252608795 2.00942434684637
-0.306901407595442 0.18585221057976 2.0069592864139
-0.267352463390034 0.17075825017146 1.98096128446317
-0.226083035637053 0.154218389503553 1.95801312296758
-0.176451558233168 0.162074783461887 1.95714487779537
-0.127223115522636 0.158739976950925 1.94556476536801
-0.0804663884400514 0.155167466024171 1.93418750132067
-0.0381439964070963 0.147983497607157 1.92724843572131
0.00488685122243798 0.152613030865128 1.94250489016188
-0.346405062613183 0.192135529247321 2.04020495060882
-0.299019295816023 0.217220733182763 2.0360869590398
-0.255439326072246 0.205775944321738 2.01266934255012
-0.218685164042014 0.187824556793959 1.98912855606617
-0.177538364666595 0.197541543751902 1.99149506628549
-0.134496860223585 0.192108193200889 1.97894485397366
-0.0873506365735078 0.189102552717305 1.96803538937541
-0.0385144653170616 0.183446390195431 1.95867646275228
0.014494309542551 0.184529200283432 1.97200997805006
-0.339004554343275 0.223362597319974 2.07003666490641
-0.294703377299688 0.248231630554948 2.06656480898911
-0.249888025519435 0.238737767091885 2.04347763964427
-0.204438403538069 0.226875897342445 2.02432642984441
-0.15241106856232 0.227937330940277 2.01650498899003
-0.105459648187884 0.223852279703711 2.00458938866031
-0.0598473887082756 0.221001686969753 1.99414865012178
-0.0177062303870499 0.214551340446428 1.98847248327483
0.025454145481869 0.219515532441111 2.00453029404385
-0.331947174583717 0.256984563571426 2.10307274677632
-0.292909132612699 0.27978619814219 2.09986275145385
-0.251259225864459 0.273168864070935 2.07694269107757
-0.207762933639549 0.263419571429967 2.06009460650733
-0.164273078642216 0.259523319836228 2.04894835059652
-0.115655708294621 0.258037592676296 2.039253755902
-0.0676971594247439 0.255060769934933 2.02823363745154
-0.01846341578421 0.250126547830147 2.01985065305702
0.0345024134392578 0.250845059449793 2.03406196804624
-0.314928671654387 0.292731585127917 2.13754343630937
-0.261859720200356 0.303140956574937 2.11817166822673
-0.2165795761988 0.297150692353315 2.10003724342875
-0.173466828550283 0.292872539438379 2.08789940573698
-0.129749586079464 0.289321773467832 2.07674203132497
-0.0839195436418329 0.286976009463096 2.06699079081931
-0.0393268468063397 0.284688820308883 2.05764400036961
0.00239109919469443 0.278660996149932 2.05314849824376
0.0437712252699858 0.279061482257284 2.07341926216303
-0.281076400576609 0.315919306767333 2.15769029323669
-0.228351503299585 0.319994755237157 2.14421105164463
-0.183326178662308 0.317158673046861 2.13401383093908
-0.139588603981532 0.313697503404862 2.1223406076159
-0.0951491508333883 0.310204766399973 2.11056973636061
-0.0483772087170386 0.307740790593846 2.1011495396062
-0.00078604911384017 0.303351584708388 2.09455818463792
3 0 1 2
3 0 2 4
3 3 0 4
3 3 4 6
3 5 3 6
3 5 6 8
3 7 5 8
3 7 8 10
3 9 7 10
3 9 10 12
3 11 9 12
3 13 11 14
3 14 11 12
3 13 14 15
3 16 17 18
3 16 18 1
3 0 19 1
3 19 16 1
3 0 3 20
3 19 0 20
3 3 5 21
3 20 3 21
3 5 7 22
3 21 5 22
3 7 9 23
3 22 7 23
3 9 11 24
3 23 9 24
3 24 11 25
3 25 11 13
3 13 15 26
3 27 13 26
3 25 13 27
3 27 26 28
3 17 16 30
3 30 16 29
3 29 19 31
3 29 16 19
3 31 20 32
3 31 19 20
3 32 21 33
3 32 20 21
3 21 22 33
3 33 22 34
3 22 23 34
3 34 23 35
3 23 24 35
3 35 24 36
3 24 25 36
3 36 25 37
3 37 27 38
3 37 25 27
3 38 28 39
3 38 27 28
3 30 40 41
3 30 29 40
3 29 31 42
3 40 29 42
3 31 32 43
3 42 31 43
3 32 33 44
3 43 32 44
3 33 34 45
3 44 33 45
3 34 35 46
3 45 34 46
3 35 36 47
3 46 35 47
3 36 37 47
3 47 37 48
3 37 38 48
3 48 38 49
3 49 39 50
3 49 38 39
3 40 51 52
3 41 40 52
3 51 42 53
3 51 40 42
3 42 43 53
3 53 43 54
3 43 44 54
3 54 44 55
3 44 45 55
3 55 45 56
3 45 46 56
3 56 46 57
3 46 47 58
3 57 46 58
3 47 48 59
3 58 47 59
3 48 49 60
3 59 48 60
3 49 50 61
3 60 49 61
3 51 62 63
3 52 51 63
3 51 53 64
3 62 51 64
3 53 54 65
3 64 53 65
3 54 55 66
3 65 54 66
3 55 56 67
3 66 55 67
3 56 57 67
3 67 57 68
3 57 58 69
3 68 57 69
3 58 59 69
3 69 59 70
3 59 60 70
3 70 60 71
3 71 61 72
3 71 60 61
3 62 73 74
3 63 62 74
3 62 64 75
3 73 62 75
3 64 65 75
3 75 65 76
3 65 66 76
3 76 66 77
3 66 67 77
3 77 67 78
3 67 68 78
3 78 68 79
3 79 69 80
3 79 68 69
3 80 70 81
3 80 69 70
3 81 71 82
3 81 70 71
3 82 72 83
3 82 71 72
3 74 73 85
3 85 73 84
3 84 73 86
3 86 73 75
3 75 76 86
3 86 76 87
3 76 77 88
3 87 76 88
3 77 78 89
3 88 77 89
3 78 79 90
3 89 78 90
3 79 80 91
3 90 79 91
3 80 81 92
3 91 80 92
3 81 82 93
3 92 81 93
3 93 83 94
3 93 82 83
3 84 95 85
3 84 86 96
3 97 84 96
3 95 84 97
3 96 87 98
3 96 86 87
3 87 88 98
3 98 88 99
3 88 89 99
3 99 89 100
3 89 90 100
3 100 90 101
3 101 91 102
3 101 90 91
3 102 92 103
3 102 91 92
3 92 93 103
3 105 103 104
3 103 93 104
3 93 94 104
3 96 106 97
3 96 98 107
3 106 96 107
3 98 99 108
3 107 98 108
3 99 100 109
3 108 99 109
3 100 101 110
3 109 100 110
3 101 102 111
3 110 101 111
3 111 102 112
3 112 102 103
3 103 105 112
3 117 114 115
3 116 113 117
3 117 113 114
3 116 117 119
3 118 116 119
3 118 119 121
3 120 118 121
3 120 121 123
3 122 120 123
3 122 123 125
3 124 122 125
3 124 125 127
3 126 124 127
3 126 127 128
3 129 130 131
3 114 129 131
3 114 113 129
3 113 2 129
3 129 2 1
3 4 113 116
3 4 2 113
3 6 116 118
3 6 4 116
3 8 118 120
3 8 6 118
3 10 120 122
3 10 8 120
3 12 122 124
3 12 10 122
3 14 124 126
3 14 12 124
3 133 126 128
3 15 14 126
3 15 126 133
3 132 15 133
3 132 133 134
3 135 136 137
3 137 17 135
3 137 18 17
3 18 137 130
3 129 18 130
3 18 129 1
3 15 132 26
3 139 132 134
3 139 138 132
3 138 28 26
3 132 138 26
3 138 139 140
3 136 135 142
3 142 135 141
3 17 30 135
3 135 30 141
3 143 39 28
3 138 143 28
3 143 140 144
3 143 138 140
3 141 145 146
3 142 141 146
3 41 145 141
3 30 41 141
3 147 39 143
3 147 50 39
3 147 144 148
3 147 143 144
3 145 149 150
3 146 145 150
3 52 149 145
3 41 52 145
3 151 50 147
3 151 155 50
3 151 148 152
3 151 147 148
3 149 153 154
3 150 149 154
3 63 153 149
3 52 63 149
3 155 61 50
3 155 72 61
3 155 151 156
3 156 151 152
3 154 157 158
3 154 153 157
3 74 157 153
3 63 74 153
3 159 72 155
3 159 83 72
3 159 156 160
3 159 155 156
3 158 157 162
3 162 157 161
3 74 85 161
3 157 74 161
3 163 83 159
3 163 94 83
3 163 160 164
3 163 159 160
3 161 165 162
3 165 95 166
3 165 161 95
3 161 85 95
3 165 166 167
3 95 97 166
3 105 104 168
3 170 94 163
3 170 168 94
3 169 168 170
3 94 168 104
3 163 164 170
3 166 171 167
3 173 171 172
3 172 171 106
3 171 97 106
3 171 166 97
3 172 107 174
3 172 106 107
3 174 108 175
3 174 107 108
3 175 109 176
3 175 108 109
3 176 110 177
3 176 109 110
3 177 111 178
3 177 110 111
3 178 112 180
3 178 111 112
3 181 105 168
3 181 180 105
3 179 178 180
3 180 112 105
3 168 169 181
3 172 182 173
3 182 172 183
3 183 172 174
3 174 175 184
3 183 174 184
3 175 176 185
3 184 175 185
3 176 177 186
3 185 176 186
3 177 178 187
3 186 177 187
3 187 179 188
3 187 178 179
3 179 180 229
3 189 190 191
3 114 131 191
3 115 114 191
3 115 191 192
3 115 192 193
3 117 115 193
3 119 193 194
3 119 117 193
3 119 194 121
3 121 194 195
3 121 195 123
3 123 195 196
3 123 196 125
3 125 196 197
3 127 197 198
3 127 125 197
3 128 198 199
3 200 128 199
3 128 127 198
3 200 199 201
3 202 203 204
3 131 130 189
3 190 189 204
3 189 130 202
3 189 202 204
3 131 189 191
3 128 200 133
3 134 200 205
3 206 205 201
3 134 133 200
3 205 200 201
3 205 206 207
3 136 208 203
3 202 137 136
3 202 136 203
3 137 202 130
3 134 205 139
3 139 205 207
3 140 139 207
3 211 207 209
3 136 142 208
3 208 142 210
3 211 140 207
3 211 144 140
3 146 212 210
3 142 146 210
3 148 144 213
3 213 144 211
3 150 214 212
3 146 150 212
3 215 148 213
3 215 152 148
3 154 216 150
3 150 216 214
3 219 152 217
3 217 152 215
3 158 218 216
3 154 158 216
3 219 156 152
3 219 160 156
3 158 220 218
3 158 162 220
3 221 160 219
3 221 164 160
3 162 165 222
3 223 220 222
3 220 162 222
3 165 167 222
3 169 170 224
3 225 164 221
3 224 170 164
3 224 164 225
3 222 226 223
3 167 171 227
3 226 167 227
3 226 227 228
3 226 222 167
3 171 173 227
3 180 181 229
3 181 169 230
3 231 169 224
3 230 169 231
3 230 229 181
3 224 225 271
3 227 232 228
3 232 182 233
3 232 173 182
3 227 173 232
3 182 183 234
3 233 182 234
3 183 184 234
3 234 184 235
3 184 185 235
3 235 185 236
3 185 186 236
3 236 186 237
3 186 187 237
3 237 187 238
3 238 188 239
3 238 187 188
3 188 179 229
3 240 239 188
3 240 188 229
3 229 230 240
3 191 190 242
3 242 190 241
3 192 242 243
3 192 191 242
3 192 243 244
3 193 192 244
3 194 244 245
3 194 193 244
3 194 245 246
3 195 194 246
3 195 246 247
3 196 195 247
3 196 247 248
3 197 196 248
3 197 248 249
3 198 197 249
3 199 198 249
3 250 199 249
3 201 199 251
3 251 199 250
3 204 252 253
3 204 203 252
3 190 253 241
3 190 204 253
3 206 251 254
3 206 201 251
3 207 206 255
3 255 206 254
3 203 256 252
3 203 208 256
3 257 209 255
3 255 209 207
3 210 258 208
3 208 258 256
3 211 209 259
3 259 209 257
3 212 260 210
3 210 260 258
3 213 211 259
3 261 213 259
3 214 262 260
3 212 214 260
3 215 213 261
3 263 215 261
3 216 264 214
3 214 264 262
3 217 215 263
3 265 217 263
3 218 266 264
3 216 218 264
3 219 217 265
3 267 219 265
3 218 268 266
3 218 220 268
3 221 219 267
3 269 221 267
3 223 270 268
3 220 223 268
3 225 221 269
3 271 225 269
3 223 226 272
3 270 223 272
3 272 228 273
3 272 226 228
3 274 231 275
3 274 230 231
3 275 231 271
3 271 231 224
3 273 228 276
3 276 228 232
3 276 233 277
3 276 232 233
3 233 234 278
3 277 233 278
3 234 235 279
3 278 234 279
3 235 236 280
3 279 235 280
3 236 237 281
3 280 236 281
3 237 238 282
3 281 237 282
3 238 239 283
3 282 238 283
3 327 239 284
3 284 239 240
3 240 230 274
3 284 240 274
3 241 285 286
3 242 241 286
3 242 286 243
3 243 286 287
3 243 287 288
3 244 243 288
3 245 288 289
3 245 244 288
3 245 289 246
3 246 289 290
3 246 290 247
3 247 290 291
3 247 291 248
3 248 291 292
3 248 292 293
3 249 248 293
3 249 293 250
3 250 293 294
3 250 294 295
3 251 250 295
3 252 296 297
3 253 252 297
3 241 297 285
3 241 253 297
3 254 295 298
3 254 251 295
3 254 298 299
3 255 254 299
3 256 300 252
3 252 300 296
3 257 255 299
3 301 257 299
3 258 302 300
3 256 258 300
3 259 257 303
3 303 257 301
3 260 304 258
3 258 304 302
3 261 259 303
3 305 261 303
3 262 306 304
3 260 262 304
3 263 261 305
3 307 263 305
3 264 308 262
3 262 308 306
3 265 263 307
3 309 265 307
3 266 310 308
3 264 266 308
3 267 265 309
3 311 267 309
3 266 312 310
3 266 268 312
3 269 267 311
3 313 269 311
3 270 314 312
3 268 270 312
3 271 269 315
3 315 269 313
3 270 272 316
3 314 270 316
3 316 273 317
3 316 272 273
3 318 275 319
3 318 274 275
3 275 271 315
3 319 275 315
3 273 276 320
3 317 273 320
3 276 277 320
3 320 277 321
3 277 278 322
3 321 277 322
3 322 279 323
3 322 278 279
3 279 280 323
3 323 280 324
3 280 281 324
3 324 281 325
3 281 282 325
3 325 282 326
3 282 283 326
3 326 283 327
3 283 239 327
3 327 284 328
3 284 274 318
3 328 284 318
3 285 329 330
3 286 285 330
3 286 330 287
3 287 330 331
3 287 331 332
3 288 287 332
3 288 332 289
3 289 332 333
3 289 333 334
3 290 289 334
3 290 334 335
3 291 290 335
3 291 335 292
3 292 335 336
3 292 336 337
3 293 292 337
3 293 337 294
3 294 337 338
3 294 338 339
3 295 294 339
3 296 340 341
3 297 296 341
3 285 341 329
3 285 297 341
3 298 339 342
3 298 295 339
3 298 342 343
3 299 298 343
3 300 344 296
3 296 344 340
3 301 299 343
3 345 301 343
3 302 346 344
3 300 302 344
3 303 301 347
3 347 301 345
3 304 348 302
3 302 348 346
3 305 303 347
3 349 305 347
3 306 350 348
3 304 306 348
3 307 305 351
3 351 305 349
3 308 352 306
3 306 352 350
3 309 307 353
3 353 307 351
3 310 354 352
3 308 310 352
3 311 309 355
3 355 309 353
3 312 356 310
3 310 356 354
3 313 311 355
3 357 313 355
3 314 358 356
3 312 314 356
3 315 313 359
3 359 313 357
3 314 316 360
3 358 314 360
3 360 317 361
3 360 316 317
3 362 319 363
3 362 318 319
3 319 315 359
3 363 319 359
3 317 320 364
3 361 317 364
3 320 321 364
3 364 321 365
3 321 322 366
3 365 321 366
3 322 323 366
3 366 323 367
3 323 324 368
3 367 323 368
3 324 325 369
3 368 324 369
3 325 326 370
3 369 325 370
3 326 327 371
3 370 326 371
3 327 328 371
3 371 328 372
3 328 318 362
3 372 328 362
3 329 373 374
3 330 329 374
3 330 374 331
3 331 374 375
3 331 375 376
3 332 331 376
3 332 376 333
3 333 376 377
3 333 377 378
3 334 333 378
3 334 378 379
3 335 334 379
3 335 379 336
3 336 379 380
3 336 380 381
3 337 336 381
3 337 381 338
3 338 381 382
3 338 382 383
3 339 338 383
3 340 384 385
3 341 340 385
3 329 385 373
3 329 341 385
3 342 383 386
3 342 339 383
3 342 386 387
3 343 342 387
3 344 388 340
3 340 388 384
3 345 343 387
3 389 345 387
3 346 390 388
3 344 346 388
3 347 345 391
3 391 345 389
3 348 392 346
3 346 392 390
3 349 347 391
3 393 349 391
3 350 394 348
3 348 394 392
3 351 349 395
3 395 349 393
3 352 396 350
3 350 396 394
3 353 351 395
3 397 353 395
3 354 398 396
3 352 354 396
3 355 353 399
3 399 353 397
3 356 400 354
3 354 400 398
3 357 355 399
3 401 357 399
3 358 402 400
3 356 358 400
3 359 357 403
3 403 357 401
3 358 360 404
3 402 358 404
3 404 361 405
3 404 360 361
3 406 363 407
3 406 362 363
3 363 359 403
3 407 363 403
3 361 364 408
3 405 361 408
3 364 365 408
3 408 365 409
3 365 366 410
3 409 365 410
3 366 367 410
3 410 367 411
3 367 368 412
3 411 367 412
3 368 369 412
3 412 369 413
3 369 370 413
3 413 370 414
3 370 371 415
3 414 370 415
3 371 372 415
3 415 372 416
3 372 362 406
3 416 372 406
3 373 417 418
3 374 373 418
3 374 418 375
3 375 418 419
3 375 419 420
3 376 375 420
3 376 420 377
3 377 420 421
3 377 421 422
3 378 377 422
3 378 422 423
3 379 378 423
3 380 423 424
3 380 379 423
3 380 424 425
3 381 380 425
3 382 425 426
3 382 381 425
3 382 426 427
3 383 382 427
3 384 428 429
3 385 384 429
3 373 429 417
3 373 385 429
3 386 427 430
3 386 383 427
3 386 430 431
3 387 386 431
3 384 432 428
3 384 388 432
3 389 387 431
3 433 389 431
3 390 434 432
3 388 390 432
3 435 389 433
3 435 391 389
3 390 436 434
3 390 392 436
3 393 391 435
3 437 393 435
3 394 438 436
3 392 394 436
3 395 393 439
3 439 393 437
3 396 440 438
3 394 396 438
3 397 395 439
3 441 397 439
3 398 442 440
3 396 398 440
3 399 397 443
3 443 397 441
3 400 444 398
3 398 444 442
3 401 399 443
3 445 401 443
3 402 446 444
3 400 402 444
3 403 401 447
3 447 401 445
3 402 404 448
3 446 402 448
3 448 405 449
3 448 404 405
3 450 407 451
3 450 406 407
3 407 403 447
3 451 407 447
3 405 408 452
3 449 405 452
3 408 409 452
3 452 409 453
3 409 410 454
3 453 409 454
3 410 411 454
3 454 411 455
3 411 412 456
3 455 411 456
3 412 413 456
3 456 413 457
3 457 414 458
3 457 413 414
3 414 415 459
3 458 414 459
3 415 416 459
3 459 416 460
3 416 406 450
3 460 416 450
3 418 461 462
3 418 417 461
3 419 462 463
3 419 418 462
3 419 463 464
3 420 419 464
3 420 464 421
3 421 464 465
3 421 465 466
3 422 421 466
3 422 466 467
3 423 422 467
3 424 467 468
3 424 423 467
3 424 468 469
3 425 424 469
3 426 469 470
3 426 425 469
3 427 426 471
3 471 426 470
3 429 428 473
3 473 428 472
3 417 473 505
3 417 429 473
3 430 427 471
3 520 430 471
3 431 474 475
3 431 430 474
3 428 476 472
3 428 432 476
3 433 431 475
3 477 433 475
3 434 478 476
3 432 434 476
3 479 433 477
3 479 435 433
3 434 480 478
3 434 436 480
3 437 435 479
3 481 437 479
3 438 482 436
3 436 482 480
3 439 437 483
3 483 437 481
3 440 484 482
3 438 440 482
3 441 439 483
3 485 441 483
3 442 486 440
3 440 486 484
3 443 441 487
3 487 441 485
3 444 488 442
3 442 488 486
3 445 443 487
3 489 445 487
3 444 446 488
3 488 446 490
3 491 445 489
3 491 447 445
3 490 446 492
3 492 446 448
3 492 449 493
3 492 448 449
3 494 451 495
3 494 450 451
3 451 447 491
3 495 451 491
3 449 452 496
3 493 449 496
3 496 453 497
3 496 452 453
3 453 454 498
3 497 453 498
3 498 455 499
3 498 454 455
3 455 456 500
3 499 455 500
3 456 457 501
3 500 456 501
3 457 458 502
3 501 457 502
3 458 459 503
3 502 458 503
3 503 460 504
3 503 459 460
3 504 460 494
3 494 460 450
3 461 505 506
3 462 461 506
3 507 463 462
3 507 462 506
3 465 463 508
3 508 463 507
3 464 463 465
3 465 508 509
3 465 509 466
3 466 509 510
3 466 510 467
3 467 510 511
3 467 511 468
3 468 511 512
3 468 512 513
3 469 468 513
3 469 513 470
3 515 470 514
3 470 513 514
3 470 515 471
3 472 516 473
3 518 516 517
3 518 505 516
3 461 417 505
3 505 473 516
3 505 518 506
3 515 514 519
3 474 430 520
3 521 520 519
3 520 471 515
3 520 515 519
3 474 520 524
3 476 522 472
3 516 472 523
3 472 522 523
3 516 523 517
3 520 521 524
3 477 475 524
3 524 475 474
3 525 477 524
3 478 526 522
3 476 478 522
3 527 477 525
3 527 479 477
3 478 528 526
3 478 480 528
3 481 479 527
3 529 481 527
3 482 530 480
3 480 530 528
3 483 481 531
3 531 481 529
3 484 532 530
3 482 484 530
3 485 483 531
3 533 485 531
3 486 534 484
3 484 534 532
3 535 485 533
3 535 487 485
3 486 536 534
3 486 488 536
3 537 489 535
3 535 489 487
3 490 538 539
3 536 490 539
3 488 490 536
3 538 540 539
3 541 542 543
3 541 489 537
3 542 541 537
3 541 491 489
3 490 492 538
3 545 493 544
3 538 492 493
3 538 493 545
3 540 538 545
3 544 546 545
3 547 548 549
3 543 495 541
3 547 494 495
3 547 495 543
3 608 547 543
3 495 491 541
3 493 496 544
3 544 497 550
3 546 544 550
3 544 496 497
3 550 497 551
3 551 497 498
3 498 499 551
3 551 499 552
3 499 500 552
3 552 500 553
3 500 501 553
3 553 501 554
3 554 502 555
3 554 501 502
3 502 503 556
3 555 502 556
3 503 504 556
3 549 504 547
3 556 504 549
3 504 494 547
3 506 557 507
3 507 557 558
3 508 507 558
3 508 558 559
3 509 508 559
3 509 559 560
3 510 509 560
3 510 560 561
3 511 510 561
3 511 561 562
3 512 511 562
3 514 512 563
3 563 512 562
3 513 512 514
3 517 564 518
3 518 564 557
3 566 564 565
3 557 564 566
3 557 506 518
3 558 566 567
3 558 557 566
3 559 567 568
3 559 558 567
3 560 568 569
3 560 559 568
3 561 569 570
3 561 560 569
3 562 570 571
3 562 561 570
3 563 562 571
3 572 563 571
3 574 514 563
3 572 574 563
3 573 519 574
3 574 519 514
3 519 573 521
3 522 575 523
3 577 575 576
3 577 517 575
3 564 517 577
3 575 517 523
3 564 577 565
3 573 574 572
3 521 573 579
3 580 573 578
3 579 573 580
3 579 524 521
3 524 579 525
3 522 581 575
3 522 526 581
3 576 581 582
3 576 575 581
3 583 580 584
3 583 579 580
3 583 525 579
3 583 527 525
3 526 585 581
3 526 528 585
3 582 585 586
3 582 581 585
3 587 584 588
3 587 583 584
3 587 527 583
3 587 529 527
3 528 589 585
3 528 530 589
3 586 589 590
3 586 585 589
3 591 588 592
3 591 587 588
3 591 529 587
3 591 531 529
3 532 593 589
3 530 532 589
3 590 593 594
3 590 589 593
3 595 592 596
3 595 591 592
3 595 531 591
3 595 533 531
3 534 597 593
3 532 534 593
3 594 597 598
3 594 593 597
3 599 596 600
3 599 595 596
3 599 533 595
3 599 535 533
3 534 601 597
3 534 536 601
3 602 597 601
3 602 598 597
3 603 599 600
3 604 603 600
3 603 535 599
3 603 537 535
3 536 539 601
3 606 540 605
3 606 602 540
3 602 601 539
3 540 602 539
3 605 607 606
3 608 609 610
3 608 543 609
3 604 542 603
3 609 543 542
3 609 542 604
3 542 537 603
3 540 545 605
3 605 546 607
3 612 607 611
3 605 545 546
3 607 546 611
3 612 613 614
3 612 611 613
3 614 615 616
3 614 613 615
3 616 617 618
3 616 615 617
3 618 619 620
3 618 617 619
3 620 621 622
3 620 619 621
3 622 623 624
3 622 621 623
3 610 548 608
3 624 623 548
3 624 548 610
3 548 623 549
3 548 547 608
3 546 550 611
3 611 550 613
3 613 550 551
3 551 552 615
3 613 551 615
3 552 553 617
3 615 552 617
3 553 554 619
3 617 553 619
3 554 555 621
3 619 554 621
3 621 555 623
3 623 555 556
3 556 549 623
3 565 625 626
3 567 566 626
3 626 566 565
3 567 626 627
3 568 567 627
3 568 627 628
3 569 568 628
3 569 628 629
3 570 569 629
3 570 629 630
3 571 570 630
3 572 571 631
3 631 571 630
3 572 631 578
3 576 632 577
3 625 632 633
3 565 577 632
3 565 632 625
3 625 633 634
3 626 625 634
3 626 634 627
3 627 634 635
3 627 635 628
3 628 635 636
3 628 636 629
3 629 636 637
3 629 637 630
3 630 637 638
3 631 638 639
3 631 630 638
3 640 578 639
3 578 573 572
3 578 631 639
3 578 640 580
3 576 641 632
3 576 582 641
3 633 641 642
3 633 632 641
3 633 642 643
3 634 633 643
3 634 643 644
3 635 634 644
3 635 644 645
3 636 635 645
3 636 645 646
3 637 636 646
3 637 646 647
3 638 637 647
3 638 647 648
3 639 638 648
3 640 648 649
3 640 639 648
3 584 580 640
3 649 584 640
3 582 650 641
3 582 586 650
3 642 650 651
3 642 641 650
3 642 651 652
3 643 642 652
3 643 652 653
3 644 643 653
3 644 653 645
3 645 653 654
3 645 654 646
3 646 654 655
3 646 655 647
3 647 655 656
3 647 656 648
3 648 656 657
3 648 657 649
3 649 657 658
3 588 584 649
3 658 588 649
3 586 659 650
3 586 590 659
3 650 659 651
3 651 659 660
3 651 660 661
3 652 651 661
3 652 661 662
3 653 652 662
3 653 662 654
3 654 662 663
3 654 663 664
3 655 654 664
3 655 664 665
3 656 655 665
3 656 665 666
3 657 656 666
3 657 666 658
3 658 666 667
3 592 588 658
3 667 592 658
3 590 668 659
3 590 594 668
3 660 668 669
3 660 659 668
3 660 669 670
3 661 660 670
3 661 670 671
3 662 661 671
3 662 671 663
3 663 671 672
3 663 672 664
3 664 672 673
3 664 673 665
3 665 673 674
3 665 674 666
3 666 674 675
3 666 675 667
3 667 675 676
3 596 592 667
3 676 596 667
3 594 677 668
3 594 598 677
3 668 677 669
3 669 677 678
3 669 678 679
3 670 669 679
3 670 679 680
3 671 670 680
3 671 680 681
3 672 671 681
3 672 681 682
3 673 672 682
3 673 682 683
3 674 673 683
3 674 683 684
3 675 674 684
3 676 684 685
3 676 675 684
3 600 596 676
3 685 600 676
3 598 686 677
3 598 602 606
3 678 686 687
3 678 677 686
3 678 687 679
3 679 687 688
3 679 688 680
3 680 688 689
3 680 689 681
3 681 689 690
3 681 690 682
3 682 690 691
3 683 691 692
3 683 682 691
3 684 692 693
3 684 683 692
3 685 693 694
3 685 684 693
3 694 604 685
3 685 604 600
3 598 606 686
3 606 607 695
3 686 606 695
3 686 695 687
3 688 687 696
3 696 687 695
3 688 696 697
3 689 688 697
3 689 697 698
3 690 689 698
3 690 698 699
3 691 690 699
3 691 699 700
3 692 691 700
3 692 700 701
3 693 692 701
3 610 609 694
3 701 610 694
3 701 694 693
3 609 604 694
3 607 612 695
3 695 612 696
3 696 612 614
3 614 616 697
3 696 614 697
3 616 618 698
3 697 616 698
3 618 620 699
3 698 618 699
3 620 622 700
3 699 620 700
3 622 624 701
3 700 622 701
3 624 610 701
