OFF
702 1400 0
-0.261202019918884 -0.325369164382847 2.18775299789117
-0.306535203531734 -0.311655661842192 2.1697303775048
-0.278421254257654 -0.331409999516318 2.14249554239843
-0.214357570575709 -0.332062850208554 2.19261046202396
-0.232522390569275 -0.34222895309619 2.14792814366782
-0.167566544713168 -0.336822640780988 2.19588918486032
-0.186146550862134 -0.34657281663944 2.15018170107228
-0.122207179724872 -0.340917434999261 2.20036088757501
-0.140834021270992 -0.350707395301889 2.15213284082534
-0.0773332843159755 -0.344812269330787 2.2051862346466
-0.0960931810263218 -0.354404383815615 2.15687603343478
-0.0298562543939864 -0.347918231988111 2.21291370614496
-0.0503318152961241 -0.357714845868176 2.16546888252607
0.0182444554918386 -0.343533467697446 2.22130391899059
-0.00303725855195895 -0.359333493645914 2.17457203130792
0.043489947891088 -0.350490535678732 2.18334152644714
-0.329114968983555 -0.282768740702727 2.19766226187058
-0.358728659522441 -0.265569700362908 2.17000543981784
-0.337576738966878 -0.29588850118193 2.1418617925292
-0.288764154591983 -0.298675880574393 2.21759732838765
-0.242122715032924 -0.307710686588214 2.22976417835595
-0.194448334438091 -0.313099176541568 2.23373062461446
-0.1477013093877 -0.317092998231509 2.23921444100882
-0.10250454622062 -0.320529335602144 2.24513928385011
-0.0582278019419448 -0.325981630406886 2.24783560475887
-0.00959653456217792 -0.326828447096979 2.25518928435014
0.0642411271525627 -0.327436411115678 2.22690289206955
0.0356146516805789 -0.314734188835547 2.26290860463295
0.0817769726878034 -0.294720065907136 2.2604985020143
-0.316191413925292 -0.261580325598912 2.23905375156404
-0.356196839658117 -0.241259994108971 2.21078825208014
-0.270303123395115 -0.274998520509987 2.25681551621586
-0.220395067335361 -0.281403254055623 2.2650351264588
-0.172819867093473 -0.285802673224941 2.2703872062337
-0.125219530643098 -0.288282734039114 2.27768774403369
-0.0805356953751459 -0.291062497454255 2.28408277578517
-0.0383186976956152 -0.300526042409224 2.28320630056489
0.00302473842305795 -0.292275408512617 2.29384968748849
0.0487203391877988 -0.278969090363468 2.29522056533244
0.0936145654571277 -0.256844607497784 2.28856222653028
-0.334369928480012 -0.224091210055818 2.25932429949399
-0.367395652963689 -0.202758287634695 2.23257929666538
-0.293495014370082 -0.238920772737799 2.28070556823949
-0.244542641236334 -0.249554706075024 2.29210948582748
-0.195800828549002 -0.251761044998272 2.30010200579985
-0.148373944462287 -0.256589119976877 2.30499050115387
-0.0968968139778903 -0.257456300115924 2.31472139056332
-0.0420775072484943 -0.266960785846072 2.31639985555069
0.0083654518652946 -0.259696123847958 2.32573615652579
0.0588928227816398 -0.244316449725853 2.32435615319974
0.103741039287552 -0.218415238272126 2.31628352472643
-0.318466304548827 -0.199609028218135 2.30166629653384
-0.358814390137131 -0.181940707693623 2.27033721890295
-0.269318328625751 -0.2168003749125 2.31682155303113
-0.221938928798593 -0.219101712151641 2.32776788757426
-0.17641477955917 -0.220164856046802 2.33607402524979
-0.132496283063674 -0.228096331553709 2.33709846112307
-0.0989825927251903 -0.216063462494561 2.3561821871508
-0.0641816627196766 -0.235538532857715 2.34364525789753
-0.0218763718936429 -0.232045071057553 2.35453447030135
0.0260450329604158 -0.225625388291195 2.35590003208783
0.0741612172347769 -0.206987041224962 2.35162888510905
-0.321592365209025 -0.158708284478966 2.34146654015535
-0.349569231190781 -0.161155620141793 2.30657238404014
-0.288773893278678 -0.185156567049968 2.33915704579478
-0.241742365047842 -0.187489330775674 2.35567287104428
-0.197014341062836 -0.186271817928275 2.3661305531423
-0.14812840855208 -0.191318556224717 2.37109739420287
-0.102707984148038 -0.185504316239647 2.38634244606742
-0.055327886820611 -0.199032538355762 2.38241556503782
-0.00731404914393553 -0.198919458181337 2.38789769431685
0.0404853220143327 -0.191767624127731 2.38446551650331
0.0880336313212325 -0.169800682832061 2.37726076313015
-0.310980876312367 -0.133953652462061 2.37654209104345
-0.354982582384035 -0.121436275858504 2.34117905554383
-0.272381283276342 -0.158528911434391 2.37505489976587
-0.226432564947941 -0.152231095853193 2.39451716838703
-0.176419919512253 -0.156817416662414 2.40018318876814
-0.1306376978809 -0.156616399893322 2.40982246201648
-0.0791317553462258 -0.160717042407856 2.41628671692968
-0.0342131951111842 -0.167347410606188 2.41847373109642
0.0121686494411486 -0.164572019741547 2.41977193850346
0.0561437040233087 -0.157517663371566 2.4107931297461
0.0926212003518815 -0.131942724790147 2.4095601763181
-0.306136011229118 -0.0938830627566346 2.41199066187479
-0.33995486500247 -0.102811305191712 2.37884979268768
-0.272796816925219 -0.124234311715607 2.40787200981406
-0.238208806608021 -0.112306447746418 2.42564848318281
-0.195504203619103 -0.121004336439084 2.4274782211009
-0.150397542253255 -0.121310269277578 2.43533897771366
-0.103212297236178 -0.124820241528651 2.44141122420694
-0.0546284300103762 -0.129118909720475 2.44721285726688
-0.00635652732426414 -0.132407862683885 2.4490697311094
0.0452614828333724 -0.126968854009012 2.44151949362964
0.0927498638770597 -0.0960446008076883 2.43358869891599
-0.347227108723661 -0.0633650509817836 2.39541699999806
-0.268907510560562 -0.0744089548501254 2.43780085500109
-0.31233124987176 -0.0498284848627728 2.42659520622764
-0.219460943886388 -0.0751553816424827 2.44719286501919
-0.173451864084332 -0.0800941281699878 2.45247282150623
-0.126790429928751 -0.0812722837124661 2.45923866299582
-0.0810162062061202 -0.086078247597712 2.46454151908704
-0.0343712821315767 -0.0907957385687575 2.46972806765214
0.0122922041086743 -0.0927209635444781 2.46782156700993
0.0566794865704419 -0.0867747794600697 2.45768851418793
0.0385601003861482 -0.0476661451686734 2.47387465434444
-0.285371352990555 -0.0227799040954395 2.44436314039647
-0.242985396485944 -0.0320259100732254 2.45452823624687
-0.19397188729944 -0.0341004932683178 2.4609123310763
-0.148230400704175 -0.0354338198473171 2.46690679429571
-0.101959965953254 -0.0370880372726459 2.47291014083498
-0.0574293776946843 -0.0440173138595842 2.47808141043996
-0.00974340969890113 -0.0486231916697063 2.4812265352234
-0.256395758374963 -0.339642770033254 2.10338244855843
-0.280028341714531 -0.325901597589852 2.06772143677274
-0.256359409095256 -0.319601692989545 2.03017370219805
-0.206813693973366 -0.346396542231811 2.10422861920661
-0.228287715932668 -0.337681139278276 2.06301062120514
-0.160771178330243 -0.349542804519208 2.10374833713145
-0.180123544352315 -0.338477401864437 2.0576122901786
-0.115378645359701 -0.352860690746673 2.10646467354284
-0.13482316824948 -0.34043670044475 2.05846429488218
-0.0700871901644993 -0.356753803685466 2.11435181516366
-0.0872818593009005 -0.344403518202711 2.06480008010035
-0.0252191707869327 -0.360834123810823 2.12492674948066
-0.0416113470383482 -0.349377138419748 2.07421700659538
0.0208210767652906 -0.359698191775439 2.13359379792526
0.00255269797673091 -0.353794792300276 2.08571171264199
0.0504863841992753 -0.347136585129025 2.09479489486978
-0.3078615401553 -0.31898348312506 2.11084592095294
-0.346111829020137 -0.288389344177143 2.09446138068499
-0.316561907239292 -0.304533288487378 2.06228280522159
0.0883241937687551 -0.330540181478777 2.18751410800742
0.0640310934616882 -0.348193225248865 2.14289322760236
0.103825970948892 -0.327003550439435 2.14483277632542
-0.383767273475403 -0.229826813647552 2.15997043460769
-0.393882790694268 -0.217745304074159 2.11024488171159
-0.371401116171682 -0.260274650852105 2.12366279817808
0.109497546811247 -0.30211725692121 2.22092191952707
0.130206532737629 -0.301059122588285 2.17662898673148
0.147454352982416 -0.269660117728859 2.20369415374817
-0.385801270913244 -0.200908637096053 2.19119269673521
-0.401438581447555 -0.185124842690297 2.1447028376753
0.123581573595551 -0.266206746888903 2.24889366528522
0.154937645736521 -0.230154696806585 2.23400422453843
-0.389345399695065 -0.1620282799228 2.22470686780146
-0.401868853666536 -0.154961847892802 2.1808623625016
0.131657043195513 -0.225696634052458 2.27660533681039
0.161608769169021 -0.188143299597724 2.25792370209768
-0.383776484703111 -0.142691431771347 2.26235903612388
-0.403937552460137 -0.114509091538576 2.2198488720228
0.140548949248481 -0.184533036471208 2.30176218834062
0.166271584940115 -0.146080251649918 2.28384838526692
-0.375864429326557 -0.12438872389909 2.30114164507766
-0.399383529361058 -0.096397335711254 2.26500389775045
0.117294689293777 -0.17727624072491 2.34087383221371
0.150127151102481 -0.139396311274131 2.32647769417658
-0.389366948490636 -0.0842421336464457 2.31295861593782
-0.407305296353507 -0.0500733157466163 2.28137593143699
0.124928315360779 -0.137235146285268 2.36910384728889
0.155455779866423 -0.0993249620493484 2.35191106964665
-0.373908382079489 -0.0764330813972324 2.35443198386811
-0.397821852847373 -0.0385934897715897 2.32867481604169
0.128587213814544 -0.0997914366215823 2.39713144268569
0.152593011035587 -0.0620593490810623 2.3831879325603
-0.376484570812908 -0.0311562007046581 2.37154955321543
-0.344421834448384 -0.0197398495719593 2.40906270335819
-0.363890998710867 0.0136668667196168 2.38908796304613
0.0858063143863011 -0.0489529121482781 2.4532754296165
0.109450926633429 -0.00984464885016644 2.43883349427222
0.122589852811091 -0.057552079630659 2.42301546559534
-0.318798036413573 0.00780786093405544 2.42811565090308
-0.266317446600594 0.0182705898002974 2.45003501602968
-0.29800337941824 0.0465480865361547 2.43231974530555
-0.216820419282284 0.0093577271331406 2.4590319503257
-0.169565733567133 0.0119604770556581 2.46430427768685
-0.12298765831737 0.0102866431366307 2.46987010449325
-0.0761963614044014 0.00854564896087044 2.475447377795
-0.0333412616487771 -0.00244136307652556 2.48158522191371
-0.0075892899120015 0.0337460655381903 2.47542025646992
0.0173142170250777 -0.00649915586729881 2.47995355926788
0.0660733446842523 -0.00667904962102918 2.46518668071642
-0.264292053644676 0.0756055613931793 2.43435683355155
-0.232909785371865 0.0518503072053753 2.44928407447297
-0.18875979546728 0.0568395926726976 2.45203578266074
-0.142685272804258 0.056547827155434 2.45656464479791
-0.0960370976990187 0.0542348350988266 2.46185048788081
-0.0476656944890469 0.0521911300944131 2.46718174442625
0.0083660305907975 0.0705541737945853 2.45940706040422
-0.343973208210931 -0.273121154188216 2.04485705121169
-0.327486665692914 -0.260791604463739 2.00556333922881
-0.297196560559229 -0.296517856837736 2.02042370636088
-0.248341551748747 -0.298232133331934 1.99365416033878
-0.206643889440393 -0.321446954810739 2.02047597007872
-0.156064477679933 -0.317675587355697 2.01379206459728
-0.106151384823269 -0.323067780051242 2.02215901681515
-0.0541509145984038 -0.327422901516837 2.02892547005247
-0.00891539634638033 -0.333151142798652 2.03794730635602
0.0351177048695533 -0.33642479902302 2.0542139735387
0.0776886336068244 -0.318745879552024 2.0528076514617
0.0901806151250785 -0.330834105706133 2.10124025334509
0.117039183590733 -0.305421950799142 2.08258119785027
-0.373741885171224 -0.249690563461537 2.0773497304369
-0.390966992612479 -0.203610933920634 2.0627158021191
-0.367688427053429 -0.231626850146421 2.03356438224729
0.133600198987687 -0.301234372379726 2.12707076248067
0.149829385626898 -0.273750799944847 2.09479639588353
0.159739530244774 -0.268605227199775 2.14983983490925
-0.404978769267385 -0.169240661518435 2.09797730611385
0.179876790594175 -0.226691549628565 2.14572051311105
-0.407786049630701 -0.137094182018049 2.12943477790821
0.171749025580012 -0.232895784787519 2.18845364090398
-0.408693677853224 -0.113402467528512 2.17136286264334
0.177681434273322 -0.190102302670967 2.21071514447935
-0.410451897561094 -0.0730417493325969 2.18544837279274
0.180554005327915 -0.149044826223643 2.23324582075224
-0.410428719108756 -0.063557430196457 2.23237148277367
0.181447818521983 -0.110739622327292 2.259146324192
-0.413197537868479 -0.0152239974619793 2.24906295789655
0.173647207614069 -0.0964336756790009 2.30407660774285
-0.409381796511219 -0.00246701923384922 2.29901389896257
0.174101618525605 -0.0563340026070149 2.33544350890065
-0.392596339380292 0.00756457406541014 2.34673455736943
-0.398619574225147 0.0438447292869456 2.3164065574831
0.142707565645233 -0.0165856295839161 2.40524234974891
0.167072140233621 -0.0219966826775116 2.36442515479941
-0.37493516725783 0.0511977208449111 2.36237409071859
-0.340264813562471 0.0480991842397446 2.40383542826991
-0.346782737846489 0.0886076538410457 2.3745739718026
0.0423265423600997 0.0346089833703841 2.46637015064743
0.0888395010751241 0.0332174613376896 2.44488196694087
0.127780560169177 0.0296000940747549 2.41304596036469
-0.310110897143261 0.085885488847694 2.40819132113574
-0.269346244129158 0.112316758016357 2.41052179056772
-0.217058992118621 0.0968131341775295 2.43086503079761
-0.168007497481999 0.0985240127329134 2.43346537029123
-0.120685901127179 0.0971299556149526 2.43779108609135
-0.0733685873662639 0.0936902958927827 2.44345257718882
-0.0273831168213517 0.0939583061506744 2.44647106658994
0.0263903674509513 0.104063128213896 2.43351842873941
0.0597980402355306 0.0722127022655882 2.44326286648768
-0.315810706626505 -0.230523885035028 1.96903455102739
-0.284791308411639 -0.269681783946636 1.98006952489305
-0.236256054584902 -0.268076571902519 1.9598555567703
-0.199300304268943 -0.295762763740669 1.9843412785911
-0.155505244314389 -0.284614408028132 1.97468442830316
-0.115374564522711 -0.292368971163777 1.98420841402517
-0.0684776954162808 -0.301219282221554 1.99519932464235
-0.0123275784673096 -0.302764487964871 1.99917698410838
0.0350856871523253 -0.312080740649163 2.01700031940805
0.0805814451019735 -0.288888707819765 2.01526805995082
0.118558363490228 -0.283531218060423 2.04734553646021
-0.37884564107515 -0.179800312869893 2.01773912612936
-0.351382421564791 -0.218530214459244 1.99818515190402
0.151671454884978 -0.247351101215638 2.05615797309151
0.171882303139207 -0.237833287005454 2.10404958968048
-0.397754567204987 -0.156112955152894 2.05650659958331
0.188884527755411 -0.189692511075397 2.11627711048202
-0.402700376581528 -0.11411687444653 2.08395249054928
0.187819678394126 -0.185112547032508 2.16585774592776
-0.406460574707741 -0.0885409355533714 2.13055787539679
0.188905062044199 -0.141834746797415 2.18605090204917
-0.405175121518009 -0.0442368319823888 2.14878655559775
0.188982871503911 -0.101620593553647 2.21131943927582
-0.410009680176033 -0.0264490796278205 2.19905422578202
0.186177419797933 -0.0687128035299755 2.2550014301586
-0.408422856230929 0.0195754468470478 2.21590914665194
0.18325022010387 -0.0455267064476691 2.29338991560725
-0.409847683218251 0.0322294696933523 2.26676352482985
0.178768711513771 -0.00041804137593832 2.32684288359521
-0.394357637610427 0.077853841863183 2.28387585962602
0.157642389069046 0.0215114528634728 2.37347559134808
-0.375639057363093 0.0868130144554425 2.33116155729441
-0.342401111511354 0.123908302788205 2.3419375186931
0.102178882661018 0.0715162047197225 2.41568397404301
0.137474966438268 0.0653365832187089 2.3797928438979
-0.30857790159465 0.123150611625604 2.37903168427251
-0.264733332528595 0.148936966364663 2.37687655001141
-0.229380307863673 0.131254512923592 2.40399089020891
-0.184436326837717 0.134567605632031 2.40314877843259
-0.140321194145843 0.134593884569909 2.40509181291396
-0.093653120833218 0.130464712614075 2.41129323430317
-0.0503593396931177 0.129917483404286 2.41377197769147
-0.00777656926493848 0.127700940100622 2.4173244404209
0.0697127350301174 0.108596686635639 2.41025966580214
-0.311944603785725 -0.197305642088743 1.93879226787307
-0.273897983709469 -0.236562348950852 1.94507286944581
-0.226910038641695 -0.235165973953523 1.92677487619041
-0.187585889133349 -0.260643922983612 1.94934875859166
-0.133638394474143 -0.252407125660078 1.94354339091632
-0.0879055237649492 -0.264589462515128 1.9577333563654
-0.0423974984419348 -0.276098046986263 1.9712416538033
0.00115475039509032 -0.265158106730631 1.96227709879811
0.038563222602312 -0.281359775060771 1.98513685853967
0.0854499097708584 -0.255965360860803 1.98138627447857
0.122072857915682 -0.253407407804279 2.01412458064034
-0.373364434274794 -0.143666284645704 1.98596054176338
-0.349415299442108 -0.185435403570279 1.97191527227396
0.1580667046245 -0.215047661498501 2.02382462824118
0.178157563259768 -0.205085875271139 2.06984271598348
-0.392473737527447 -0.124800916084724 2.02945292988196
0.195631312238436 -0.156935631771094 2.08629839869544
-0.395496532708082 -0.0784946715444525 2.04915456613057
0.194796811387958 -0.143660552831564 2.13764890828863
-0.399819791202509 -0.0608582252639004 2.09516189071681
0.195676720772479 -0.096604861134966 2.16090533609751
-0.398599853266278 -0.0143646567945936 2.11532874459691
0.193332501210583 -0.0574813654158706 2.20488014196818
-0.403160466371026 0.00458314575126628 2.16407901951708
0.191713822013991 -0.024908852872928 2.23882876673117
-0.401708866373713 0.0518655253267799 2.18289221770678
0.188190094656061 -0.00385339409868012 2.28036628634071
-0.403109468232013 0.0659818838049147 2.23413994896145
0.185043215492807 0.0397514095927372 2.29397609572824
-0.387530567408048 0.111229758074614 2.25105252369715
0.166844446650341 0.0501215261460318 2.33844896149254
-0.368997395397411 0.120284373267968 2.29828126089099
-0.334798420287713 0.157929702743126 2.30926170824768
0.109517333079814 0.106757609881671 2.3811138481297
0.145515720031023 0.0974827914158573 2.34591048538781
-0.301699634615203 0.156934698421711 2.34586768331194
-0.252788490187439 0.181409550486423 2.34685451672084
-0.21284462733496 0.163695963285648 2.37283347838028
-0.161793708384303 0.169563988277979 2.36926139971615
-0.10921987042023 0.162848534093005 2.37830549557018
-0.0608270483301452 0.163829322474539 2.37948838918671
-0.014781428837606 0.161379269274336 2.3839872532505
0.0327529738240604 0.140732308288449 2.39799987454867
0.0742156565693056 0.144486561524082 2.37646467470725
-0.305862965062591 -0.164833138836635 1.90718735672016
-0.268420240089548 -0.203147063094556 1.91276005952503
-0.220408644870806 -0.203624208588168 1.8955918876442
-0.175927878625097 -0.229537899146133 1.9188494806164
-0.128487997677012 -0.215864619120514 1.90733361334674
-0.0866604771980099 -0.229975463163421 1.92327286825327
-0.0422381998667885 -0.243221195336282 1.93846427536101
0.0043174185960182 -0.23004147834434 1.92740017062733
0.047201327187017 -0.246607014063682 1.9513115990098
0.092993518779172 -0.222108185888958 1.94840462511024
0.128710636971065 -0.221560692484856 1.98285276315918
-0.366322940177893 -0.109700832042738 1.95213371929424
-0.343525808573726 -0.15383422951264 1.94144672577942
0.164948395772232 -0.182483024392363 1.99221213613611
0.185288831685892 -0.171576383140896 2.03816176830498
-0.385554395709835 -0.093840228029658 1.99666387079256
0.202285022605057 -0.124436445584738 2.05553147027251
-0.388648655867065 -0.0479189203575106 2.01396218821823
0.201290584449694 -0.109898744103861 2.10734921040471
-0.392935143718294 -0.0251360188366436 2.06298894857614
0.203147240938001 -0.0636779820300447 2.12223130817351
-0.392551180242737 0.0209391611721587 2.08957661391565
0.199125340528383 -0.0461702820191292 2.16573728158433
-0.396470746083911 0.0386961622522114 2.13243043810043
0.199041487484381 -0.00206174392405281 2.19481605356291
-0.394796439547928 0.0840587916547862 2.14822421663212
0.195256197474331 0.0238975667270298 2.24186685674479
-0.396593895367459 0.0981007053709918 2.20070307863163
0.192727736575631 0.0700784563499396 2.25864431007121
-0.380822182134432 0.143882373335867 2.21909007313995
0.172976230926843 0.0862743639408861 2.30537041976281
-0.361725357422907 0.153806966220325 2.26622952175802
-0.325927639045036 0.191445158342966 2.27893110333977
0.115520961242831 0.140765797365156 2.34838374441816
0.151509482008123 0.132035880860872 2.31325048524747
-0.291341662280227 0.190172959366219 2.31586260839964
-0.242683557442374 0.213949595156385 2.31591798971643
-0.20160861782129 0.195342833149152 2.34177665961127
-0.156533959111801 0.208338985908567 2.3308306242707
-0.119624186332964 0.192609674100715 2.34816328674552
-0.0718972634879062 0.195268010936067 2.34764345214517
-0.0215218790735161 0.195342747600033 2.34981827363979
0.0282774824084995 0.175290946543699 2.36682882625812
0.0760920939577601 0.177794405492466 2.34632866029086
-0.299070038250827 -0.13234514065013 1.87492386970831
-0.262260984249043 -0.170099485864683 1.88041111846467
-0.215916496532416 -0.171074927253485 1.86387884026774
-0.17203364204202 -0.197137215446427 1.88671437249107
-0.122079423409444 -0.181337647155114 1.87318913934644
-0.0802549806446206 -0.194672140081986 1.88835367464414
-0.0385354379069576 -0.209365240167634 1.90486906469807
0.007968076720374 -0.195233216709239 1.89285268711258
0.0511682397740371 -0.213656051249242 1.91786253308669
0.0967657436262711 -0.190340671185437 1.91508231979886
0.135486521936167 -0.189244907261711 1.95117336969353
-0.360743344206688 -0.0749163030415451 1.92099040213047
-0.336790683055432 -0.121885593894775 1.90955870385253
0.171471829666002 -0.150091854476811 1.96004393738742
0.192042031912598 -0.138676990349856 2.00590369218939
-0.379022811178927 -0.0589737010551169 1.96424308147075
0.208748144788424 -0.0924949106378397 2.0224289386642
-0.381135443988047 -0.0101848956705399 1.97804763665227
0.208320949687608 -0.0767438987132367 2.07234851992944
-0.385871505880987 -0.00118481963927413 2.02180281198249
0.209603235098141 -0.027359778997665 2.093874421375
-0.38694121666393 0.0307845520815952 2.05095861160475
0.205075924624813 -0.0102809634142275 2.1411619353205
-0.388963819236636 0.0719558348518094 2.09368449325613
0.206186900851943 0.0347751644174093 2.1612708775513
-0.38831231318122 0.115787550000383 2.11668751992642
0.201782072965624 0.0516702006874418 2.20745407035698
-0.390077318275194 0.130101351561857 2.1690974402839
0.199842467127214 0.100449671573925 2.22517589391513
-0.373254005685898 0.17728798732626 2.18985784547649
0.180495351190337 0.118000219413902 2.27174941017107
-0.353837832593325 0.187094939527906 2.23595280221748
-0.318291506342376 0.224264134594994 2.24776671338719
0.12082907496142 0.174058293974938 2.31686359741282
0.158390177360442 0.164500553155483 2.28079089217744
-0.28276021525074 0.222887413772447 2.28498815810846
-0.235928993812255 0.247133339248782 2.283128868896
-0.194232293775004 0.230392073390282 2.30715574756258
-0.143476881736589 0.242494669648521 2.29735319260885
-0.104280896166784 0.225374503094783 2.31617554637728
-0.0559756445307492 0.227811321978981 2.31590212526447
-0.0078949475925494 0.228408398631273 2.31745339938863
0.0320814109595287 0.206465845378256 2.33656229029455
0.0837383725988341 0.208658118667746 2.31507976376671
-0.299759062489387 -0.0973660721743259 1.84802525336539
-0.255284613773068 -0.136263273612574 1.84693112281932
-0.207386292168472 -0.1394865313206 1.83225251531689
-0.166422910142719 -0.166270816455017 1.85618508853522
-0.116329940900837 -0.148327580323315 1.84058084758432
-0.0728910966475583 -0.159133169061276 1.85324378610448
-0.0332595680587102 -0.173379213185862 1.86921876993896
0.0104575350652132 -0.159983670679995 1.85782459548769
0.0544974641538338 -0.181012386022821 1.88461350701653
0.101410981552399 -0.158135318789798 1.88194164135556
0.138349175937439 -0.159675548880409 1.9179766456686
-0.354787523728915 -0.0395342292125354 1.88968581717882
-0.333489099597998 -0.0875696876550239 1.88087952887105
0.172511430939151 -0.123412609963508 1.92440502877068
0.198511102131327 -0.105850236896667 1.97246483511819
-0.372307763698341 -0.0228879147140431 1.93090222859504
0.216248072566749 -0.0560315455721575 2.0003386736498
-0.374306932656352 0.0262002699077716 1.95036768114595
0.214695018282507 -0.0403381118348523 2.04470997168043
-0.379498854247681 0.0427482233555843 1.99901820186134
0.216304570572197 0.00761120891831749 2.06150666533532
-0.382844440813588 0.0720321512230729 2.04468944270481
0.211848442642854 0.0236686000563456 2.10874378932396
-0.381495616914481 0.115695180922793 2.06199070420594
0.21312073850516 0.0690300619149739 2.12732505616147
-0.382392784439117 0.152516616980279 2.09296976286009
0.208629449007156 0.0862704669442474 2.1748542979298
-0.38310778770118 0.16370231903989 2.1420283427903
0.206334165735051 0.133333812410963 2.19336839108019
-0.366376367281036 0.210177203533212 2.15821835369384
0.187424425538769 0.149742067794847 2.23937294388713
-0.34638575311638 0.220392603368787 2.20459873990956
-0.311641026996778 0.256951381095662 2.21546115704346
0.128132024527824 0.206588516032795 2.28408832633084
0.165251126239005 0.197023668060765 2.24825008618952
-0.276396953851395 0.255445494308588 2.25261902500042
-0.229833177214476 0.279879188000173 2.25052215974654
-0.186472593586888 0.263654930863569 2.27433258892873
-0.137668110132316 0.274517139933779 2.26565181973197
-0.0902951182187854 0.259903818975103 2.28236745889771
-0.040286507320921 0.26022962589296 2.28427529927842
0.00621738072120398 0.260107478307189 2.28647336796088
0.0449606625474119 0.237097701661472 2.30480050633677
0.0913232072666629 0.241224660212497 2.28236505409543
-0.262378778690945 -0.0997873507559097 1.82271576211846
-0.22085765199225 -0.104725488068756 1.80948147005011
-0.174397056170084 -0.102941142367477 1.80328870998148
-0.159993706579406 -0.13556120550388 1.82677555216058
-0.12235367817977 -0.109177043968252 1.81068858488466
-0.0757865602228476 -0.121035065249373 1.8214758085072
-0.0290919097696012 -0.132158097216956 1.83229311819571
0.0189555824404834 -0.122145321279701 1.82926899611614
0.0580063579995797 -0.149008634939186 1.85354154726894
0.102747702163513 -0.123435614983252 1.85217770353232
0.142971807797743 -0.126011761574879 1.88529793971301
-0.341922627885945 -0.0041376852716543 1.86252750358996
-0.325783562692668 -0.0518506471563204 1.85072003862581
0.192004869448243 -0.0861598137969564 1.92529534268475
0.209894377024139 -0.0618066572679026 1.95746743330323
-0.362063947148955 0.0145513208786475 1.90093664370608
0.215865243676626 -0.0179719599688871 1.96587309836447
-0.358684566175217 0.0599458259119983 1.9196987515837
0.218705376253448 -0.00387136089605585 2.01055079635501
-0.36835251914195 0.0760022779306894 1.96376677729401
0.215670229726151 0.0406928197031534 2.02705259844081
-0.375225433150679 0.0958304289342046 2.00857585225445
0.215914753773754 0.0584644273373669 2.07379432077841
-0.368707685839752 0.142063679070877 2.02103722339854
0.21324913868744 0.102099233574379 2.09358445432698
-0.37152887689718 0.171213888071464 2.05539364061919
0.213129588213861 0.120075959768493 2.14001179136052
-0.375381389393134 0.195599323846903 2.10875820599276
0.207625042924186 0.162893251011294 2.1599498219499
-0.357152948954264 0.23723365841164 2.1215627549703
0.192212535036985 0.182307132860515 2.20706335659942
-0.339733594023633 0.251536429692049 2.17036013304025
-0.303820302562102 0.284371423942419 2.18060020247249
0.13370493984777 0.239072312697578 2.24991435971768
0.16563043714789 0.22875099654872 2.21355083858598
-0.268520485328344 0.287232106039871 2.21960335489894
-0.219624939159059 0.308913221291078 2.2131508636536
-0.182620104799646 0.29591948076844 2.23916937087947
-0.140671963611761 0.303405274925161 2.22822221445762
-0.0967200486708663 0.293887739510073 2.24303735815084
-0.0521423081453794 0.289427189672988 2.24988105560129
-0.00208803056235926 0.288323857149009 2.25178990079761
0.0495612769905582 0.270919879630987 2.26989134894013
0.0950106356800247 0.270084274584423 2.2474586922111
-0.287257996310681 -0.0589701941602175 1.81875960589397
-0.241812434516677 -0.0618382741095329 1.79671641720378
-0.194131746217025 -0.0644072722923166 1.78739668777593
-0.142334927161955 -0.0688328546015926 1.79082392441792
-0.0919318549853757 -0.0756343092983444 1.7980357979034
-0.045951295447044 -0.085689692078203 1.80607620925435
-0.00185192587074519 -0.0855516722879353 1.81021577475214
0.0452948371882785 -0.0757726285069736 1.81187059189802
0.0652688829389003 -0.110101522237354 1.82932505475427
0.0977133231168019 -0.0749986751844737 1.82657152405268
0.133916102307666 -0.0911937700862706 1.85429122928162
-0.306743040528887 -0.0164353535716709 1.82476042516483
-0.281017754727107 0.024191150345609 1.80870434980763
-0.264145532534434 -0.0198921465017601 1.79769863950126
0.144624282105097 -0.0505197732951779 1.84945849770785
0.170250951992951 -0.082449621306429 1.88646406329517
0.174156162182874 -0.0355438742511208 1.87680474015346
-0.338260251729792 0.0505743560390481 1.87134066451592
-0.318624650375592 0.0261588884072724 1.83867436431555
0.198124174887409 -0.0397153657037605 1.91492252357611
0.203866910438337 0.00325384806048589 1.92959136302831
-0.334663541594596 0.0896595169794567 1.89560109687945
0.209872677420217 0.0314845049316212 1.97141469183633
-0.344435338884474 0.111877126747625 1.93379219673158
0.205206790557572 0.0702986685198107 1.9968488828149
-0.35692354165042 0.124916523768347 1.97277885616801
0.20791057413255 0.0934953141614551 2.03785876677421
-0.345484745732786 0.164838483218078 1.98436003899399
0.203382596967517 0.132160773604425 2.06298261440662
-0.349124354671087 0.195213729280343 2.01924213897999
0.205882717956779 0.155164667543559 2.10378702249786
-0.362607564698216 0.213495394450292 2.07091854960397
0.198667670178708 0.192355119693356 2.12829136144944
-0.328343035325338 0.274494427171872 2.13151882377733
-0.340297127438221 0.256413132935433 2.08384938923598
-0.309039545494578 0.289360484068604 2.08837146777842
0.189238713566993 0.210186559981889 2.17163047126322
0.176350369506277 0.233826328136353 2.12673070678749
0.163104227503771 0.249117739072569 2.1711924828837
-0.260338543907266 0.310181160596834 2.18151564778071
-0.294081322826011 0.301900530538719 2.14050398576024
-0.251984392963162 0.323129170226675 2.13839517350655
0.130473784838145 0.267915508560798 2.20931186073424
0.0986134118137943 0.298415127125954 2.17164373198952
0.0860832434184149 0.29360318977886 2.21076613447136
-0.212905241541491 0.326558932333771 2.17216455262508
-0.169064965073295 0.321505189149934 2.19235550535208
-0.116192251715834 0.318699729585782 2.19508190624954
-0.0718151964513901 0.31376311359316 2.20430386176873
-0.0280605708351685 0.310277251879771 2.20968477389395
0.0146674589272816 0.308928623557493 2.20931812928741
0.0476071034143958 0.295352654654388 2.23343002134101
-0.215268950918777 -0.0216779601232555 1.78194834041593
-0.164025386469808 -0.0263441539507691 1.77950175611767
-0.113329926381459 -0.0306729615975078 1.78567367581807
-0.0655398880514978 -0.0357519596697806 1.79177717964806
-0.0207757250830107 -0.0395445195622063 1.79738530876507
0.0233341191653995 -0.0356367923813187 1.80215302191298
0.0719127185990797 -0.0343824578214313 1.81004938328224
-0.236761557573506 0.020306920461285 1.78828274184677
-0.209108226347808 0.0576441332234695 1.79057414344256
-0.185356536222071 0.0173174144230869 1.77929709693357
-0.134615281674093 0.0135651107315518 1.7828717834798
-0.0869823195035429 0.012242421205714 1.78909057904463
-0.0397781428465158 0.00857589742122468 1.79499511683094
0.00498978287950631 0.00986386253746518 1.80121514175442
0.0518909401656342 0.00889594589350147 1.80757129747878
0.100002192429993 0.0103167748337705 1.82233546805073
0.146896682769148 0.00230078212998589 1.85039109880115
0.115416588549932 -0.0300836032257879 1.82739597414225
-0.298661043189949 0.0656388271551167 1.83464363663884
-0.266246004112566 0.103828527735004 1.83517904510939
-0.255992794854797 0.0643065022546753 1.80719329931178
0.123359074402027 0.0448016371965236 1.8451083763052
0.18070710740755 0.0068863985683332 1.88790574317706
0.159333681429191 0.0467585397033796 1.87707593670351
-0.306236621633114 0.0981469494858051 1.86404043163055
-0.272521942120956 0.1364971201481 1.86962338654397
0.189479588325316 0.0444874610028047 1.92071500256136
0.162079519684623 0.0832782924377883 1.90943481674428
-0.310602101358564 0.132725845030093 1.9019523284138
-0.279313815859364 0.168690650518912 1.90596974122205
0.188677116814003 0.076473927682927 1.95229826133551
0.1603847303473 0.11719280991387 1.94318029868582
-0.321564629218986 0.159173868715943 1.94085012819762
-0.283957902141725 0.198438803771302 1.93846243001006
0.187507428148431 0.110822607744513 1.98764131804334
0.159577992802474 0.150138548753001 1.97722121584264
-0.318116327976102 0.198948257718518 1.97392546166548
-0.281757009658466 0.233797350555565 1.97089061983901
0.187016631958411 0.140756351251591 2.01976016907746
0.159127038015592 0.182415456126348 2.01109907135612
-0.315055549664578 0.235166285515267 2.004523543642
-0.280890335997122 0.271137024814886 2.00792837657416
0.186184913649038 0.17456322100151 2.05538141389521
0.158132982477309 0.214866247510191 2.04434607353901
-0.338745305818457 0.236393557658059 2.04082339855159
-0.309103667965344 0.273058166337726 2.04397127986316
0.184682093092269 0.204918009846712 2.08694822099598
0.155089778664712 0.244803533461579 2.07951288893961
-0.275622117577645 0.31267265466517 2.09848607476501
-0.270470706362666 0.30287753252412 2.0507367533904
-0.237852206086915 0.325248474288214 2.08395821556997
0.132957461574602 0.278786205142492 2.16207330473708
0.14668859740244 0.266655168208437 2.12067485398367
0.107059284531606 0.294589861936654 2.11978210950944
-0.213401131151025 0.333593747112856 2.1236679945666
-0.187684165331551 0.333173794771238 2.08795493835363
-0.172943415207868 0.334004186597517 2.14239230553102
-0.143826621263197 0.331945907844167 2.10160988719963
-0.130561104325828 0.330062694298685 2.15192365510789
-0.0997702215803342 0.32840509092604 2.10709960345242
-0.0838143930818351 0.326664242742799 2.1550242198779
-0.0549691100648651 0.324605527483393 2.11085130488294
-0.0395834858816437 0.32300375272314 2.16138799761318
-0.0114507559860998 0.320943508389072 2.11486607267548
0.00489422664954117 0.319821190854315 2.16368455088806
0.032695572173953 0.317698265422259 2.12306440165591
0.0504645788542609 0.313109829304141 2.17906008200346
0.070321125838416 0.311218322013686 2.13601004145718
-0.178029381359015 0.0909438665579771 1.80265047045093
-0.155832104108508 0.0558050211162964 1.78885487185247
-0.11011751531956 0.0580560949470439 1.79648777952032
-0.0614476863922806 0.0536714927372421 1.80239064464255
-0.0165606816521807 0.0553327557391937 1.80994702239254
0.0287963197854595 0.0543767454469467 1.81667072397032
0.0747550363691124 0.0502188085039827 1.82423835896164
-0.223028619041349 0.100088956059751 1.81392928169208
-0.180223166248316 0.12714463898733 1.82817414597735
-0.134416045900796 0.100980036094789 1.81372938976814
-0.0835575016917713 0.0937428222021274 1.81807451646487
-0.0392570069444798 0.0969778721794376 1.82802337965568
0.00523776723412556 0.096835134143467 1.83596274623293
0.0503757886394777 0.0937905264036982 1.84202175055055
0.0936828634541053 0.0839005551089199 1.84964045528224
0.12826195909645 0.0871880171616864 1.87472765462392
-0.227726174070785 0.1356120477191 1.84474006189491
-0.187673089669106 0.160695443277582 1.86149471098609
-0.141908113823413 0.14359413477046 1.84876378053355
-0.102843460534623 0.127055148299458 1.84021881359747
-0.0600632273907627 0.13241543135074 1.85431741039882
-0.0163883065589443 0.133037376459115 1.86394845725867
0.0316709115443429 0.129157975785493 1.86992697176598
0.0814178330331824 0.121179745912237 1.87642867311814
0.126076271407076 0.119798035310711 1.90546388826835
-0.234382674353753 0.168011876570028 1.87918282129965
-0.189160833766577 0.192917529823937 1.89380921989617
-0.143237119994132 0.177499192403531 1.8828033070064
-0.0967789647755784 0.160544385616452 1.87521877574194
-0.0498447475992663 0.167400568460718 1.89182998701183
0.000292308414629336 0.163274655512435 1.89798725642308
0.0480384545490436 0.158957861907109 1.90347062411822
0.0900383307954739 0.151040015321308 1.91148704487366
0.125137846212094 0.15450926874608 1.94084405640742
-0.23767387989734 0.199394563028685 1.91141107880309
-0.191495613343654 0.223578567498144 1.92461478403752
-0.142642990051294 0.21167836254144 1.9175163309354
-0.100230149086087 0.19341561672675 1.90777403112642
-0.062351448984542 0.202245512941149 1.92451668075126
-0.0177045435291245 0.196165958746128 1.92756513708927
0.0302514000417154 0.192399282318359 1.93363607786636
0.0792189518653703 0.185920117790258 1.94168297791641
0.124296467164781 0.18567559619281 1.9726158591857
-0.240706724299911 0.22991110562769 1.94270598196052
-0.197647785086202 0.253930128130157 1.9554390568765
-0.147726893044727 0.243948827082525 1.94912678674761
-0.0986097328587625 0.231515204290071 1.9466670045375
-0.0470990050444277 0.231657731767493 1.95742664063523
0.00101026518315979 0.226834499817541 1.96246048625523
0.0473670818069135 0.223245522120679 1.96844194983892
0.0887674107026465 0.216041535171355 1.97759718901434
0.123714078735983 0.219827964918671 2.00775855299438
-0.245144569470435 0.262769819593123 1.97694391962884
-0.207137508489686 0.284824858267698 1.98804463648266
-0.160205765551201 0.277780554512431 1.98085977048813
-0.113693579001915 0.267456305333993 1.97993215025009
-0.0690947306722359 0.262878342795962 1.98448981101705
-0.0201624099433922 0.260578670674163 1.99224743611896
0.0285939635517854 0.256826249597591 1.99849741801196
0.0776042287840488 0.251042719950395 2.00761482853706
0.122331700485884 0.250418798461978 2.03934684383924
-0.240714894097106 0.297523101048302 2.01603733126283
-0.184093303158442 0.30720083022084 2.01655792576685
-0.135413543791833 0.300621392247395 2.01513521955593
-0.0908284456144238 0.29568757508774 2.01862308061192
-0.0460081353192771 0.291450530114425 2.02325767519406
0.000319632065278769 0.288349086527455 2.02997341095713
0.0453474797601361 0.285324029930757 2.03664006690712
0.0859460083416385 0.278529369903439 2.04676544562251
0.117700896086632 0.277712811330689 2.0801471686068
-0.215683875192639 0.319641138312393 2.04724282847387
-0.1615139810551 0.322886175374633 2.05301399218603
-0.115791910568026 0.319319213863672 2.059020287796
-0.0707720809353406 0.315180786805981 2.06318053278063
-0.0250606626947854 0.310998268670907 2.06749219168259
0.0220336033355824 0.307753352060052 2.07484246217078
0.068888029607421 0.302515272924883 2.08508232675536
3 0 1 2
3 0 2 4
3 3 0 4
3 3 4 6
3 5 3 6
3 5 6 8
3 7 5 8
3 7 8 10
3 9 7 10
3 9 10 12
3 11 9 12
3 13 11 14
3 14 11 12
3 13 14 15
3 16 17 18
3 16 18 1
3 0 19 1
3 19 16 1
3 0 3 20
3 19 0 20
3 3 5 21
3 20 3 21
3 5 7 22
3 21 5 22
3 7 9 23
3 22 7 23
3 9 11 24
3 23 9 24
3 24 11 25
3 25 11 13
3 13 15 26
3 27 13 26
3 25 13 27
3 27 26 28
3 17 16 30
3 30 16 29
3 29 19 31
3 29 16 19
3 31 20 32
3 31 19 20
3 32 21 33
3 32 20 21
3 21 22 33
3 33 22 34
3 22 23 34
3 34 23 35
3 23 24 35
3 35 24 36
3 24 25 36
3 36 25 37
3 37 27 38
3 37 25 27
3 38 28 39
3 38 27 28
3 30 40 41
3 30 29 40
3 29 31 42
3 40 29 42
3 31 32 43
3 42 31 43
3 32 33 44
3 43 32 44
3 33 34 45
3 44 33 45
3 34 35 46
3 45 34 46
3 35 36 47
3 46 35 47
3 36 37 47
3 47 37 48
3 37 38 48
3 48 38 49
3 49 39 50
3 49 38 39
3 40 51 52
3 41 40 52
3 51 42 53
3 51 40 42
3 42 43 53
3 53 43 54
3 43 44 54
3 54 44 55
3 44 45 55
3 55 45 56
3 45 46 56
3 56 46 57
3 46 47 58
3 57 46 58
3 47 48 59
3 58 47 59
3 48 49 60
3 59 48 60
3 49 50 61
3 60 49 61
3 51 62 63
3 52 51 63
3 51 53 64
3 62 51 64
3 53 54 65
3 64 53 65
3 54 55 66
3 65 54 66
3 55 56 67
3 66 55 67
3 56 57 67
3 67 57 68
3 57 58 69
3 68 57 69
3 58 59 69
3 69 59 70
3 59 60 70
3 70 60 71
3 71 61 72
3 71 60 61
3 62 73 74
3 63 62 74
3 62 64 75
3 73 62 75
3 64 65 75
3 75 65 76
3 65 66 76
3 76 66 77
3 66 67 77
3 77 67 78
3 67 68 78
3 78 68 79
3 79 69 80
3 79 68 69
3 80 70 81
3 80 69 70
3 81 71 82
3 81 70 71
3 82 72 83
3 82 71 72
3 74 73 85
3 85 73 84
3 84 73 86
3 86 73 75
3 75 76 86
3 86 76 87
3 76 77 88
3 87 76 88
3 77 78 89
3 88 77 89
3 78 79 90
3 89 78 90
3 79 80 91
3 90 79 91
3 80 81 92
3 91 80 92
3 81 82 93
3 92 81 93
3 93 83 94
3 93 82 83
3 84 95 85
3 84 86 96
3 97 84 96
3 95 84 97
3 96 87 98
3 96 86 87
3 87 88 98
3 98 88 99
3 88 89 99
3 99 89 100
3 89 90 100
3 100 90 101
3 101 91 102
3 101 90 91
3 102 92 103
3 102 91 92
3 92 93 103
3 105 103 104
3 103 93 104
3 93 94 104
3 96 106 97
3 96 98 107
3 106 96 107
3 98 99 108
3 107 98 108
3 99 100 109
3 108 99 109
3 100 101 110
3 109 100 110
3 101 102 111
3 110 101 111
3 111 102 112
3 112 102 103
3 103 105 112
3 117 114 115
3 116 113 117
3 117 113 114
3 116 117 119
3 118 116 119
3 118 119 121
3 120 118 121
3 120 121 123
3 122 120 123
3 122 123 125
3 124 122 125
3 124 125 127
3 126 124 127
3 126 127 128
3 129 130 131
3 114 129 131
3 114 113 129
3 113 2 129
3 129 2 1
3 4 113 116
3 4 2 113
3 6 116 118
3 6 4 116
3 8 118 120
3 8 6 118
3 10 120 122
3 10 8 120
3 12 122 124
3 12 10 122
3 14 124 126
3 14 12 124
3 133 126 128
3 15 14 126
3 15 126 133
3 132 15 133
3 132 133 134
3 135 136 137
3 137 17 135
3 137 18 17
3 18 137 130
3 129 18 130
3 18 129 1
3 15 132 26
3 139 132 134
3 139 138 132
3 138 28 26
3 132 138 26
3 138 139 140
3 136 135 142
3 142 135 141
3 17 30 135
3 135 30 141
3 143 39 28
3 138 143 28
3 143 140 144
3 143 138 140
3 141 145 146
3 142 141 146
3 41 145 141
3 30 41 141
3 147 39 143
3 147 50 39
3 147 144 148
3 147 143 144
3 145 149 150
3 146 145 150
3 52 149 145
3 41 52 145
3 151 50 147
3 151 155 50
3 151 148 152
3 151 147 148
3 149 153 154
3 150 149 154
3 63 153 149
3 52 63 149
3 155 61 50
3 155 72 61
3 155 151 156
3 156 151 152
3 154 157 158
3 154 153 157
3 74 157 153
3 63 74 153
3 159 72 155
3 159 83 72
3 159 156 160
3 159 155 156
3 158 157 162
3 162 157 161
3 74 85 161
3 157 74 161
3 163 83 159
3 163 94 83
3 163 160 164
3 163 159 160
3 161 165 162
3 165 95 166
3 165 161 95
3 161 85 95
3 165 166 167
3 95 97 166
3 105 104 168
3 170 94 163
3 170 168 94
3 169 168 170
3 94 168 104
3 163 164 170
3 166 171 167
3 173 171 172
3 172 171 106
3 171 97 106
3 171 166 97
3 172 107 174
3 172 106 107
3 174 108 175
3 174 107 108
3 175 109 176
3 175 108 109
3 176 110 177
3 176 109 110
3 177 111 178
3 177 110 111
3 178 112 180
3 178 111 112
3 181 105 168
3 181 180 105
3 179 178 180
3 180 112 105
3 168 169 181
3 172 182 173
3 182 172 183
3 183 172 174
3 174 175 184
3 183 174 184
3 175 176 185
3 184 175 185
3 176 177 186
3 185 176 186
3 177 178 187
3 186 177 187
3 187 179 188
3 187 178 179
3 179 180 229
3 189 190 191
3 114 131 191
3 115 114 191
3 115 191 192
3 115 192 193
3 117 115 193
3 119 193 194
3 119 117 193
3 119 194 121
3 121 194 195
3 121 195 123
3 123 195 196
3 123 196 125
3 125 196 197
3 127 197 198
3 127 125 197
3 128 198 199
3 200 128 199
3 128 127 198
3 200 199 201
3 202 203 204
3 131 130 189
3 190 189 204
3 189 130 202
3 189 202 204
3 131 189 191
3 128 200 133
3 134 200 205
3 206 205 201
3 134 133 200
3 205 200 201
3 205 206 207
3 136 208 203
3 202 137 136
3 202 136 203
3 137 202 130
3 134 205 139
3 139 205 207
3 140 139 207
3 211 207 209
3 136 142 208
3 208 142 210
3 211 140 207
3 211 144 140
3 146 212 210
3 142 146 210
3 148 144 213
3 213 144 211
3 150 214 212
3 146 150 212
3 215 148 213
3 215 152 148
3 154 216 150
3 150 216 214
3 219 152 217
3 217 152 215
3 158 218 216
3 154 158 216
3 219 156 152
3 219 160 156
3 158 220 218
3 158 162 220
3 221 160 219
3 221 164 160
3 162 165 222
3 223 220 222
3 220 162 222
3 165 167 222
3 169 170 224
3 225 164 221
3 224 170 164
3 224 164 225
3 222 226 223
3 167 171 227
3 226 167 227
3 226 227 228
3 226 222 167
3 171 173 227
3 180 181 229
3 181 169 230
3 231 169 224
3 230 169 231
3 230 229 181
3 224 225 271
3 227 232 228
3 232 182 233
3 232 173 182
3 227 173 232
3 182 183 234
3 233 182 234
3 183 184 234
3 234 184 235
3 184 185 235
3 235 185 236
3 185 186 236
3 236 186 237
3 186 187 237
3 237 187 238
3 238 188 239
3 238 187 188
3 188 179 229
3 240 239 188
3 240 188 229
3 229 230 240
3 191 190 242
3 242 190 241
3 192 242 243
3 192 191 242
3 192 243 244
3 193 192 244
3 194 244 245
3 194 193 244
3 194 245 246
3 195 194 246
3 195 246 247
3 196 195 247
3 196 247 248
3 197 196 248
3 197 248 249
3 198 197 249
3 199 198 249
3 250 199 249
3 201 199 251
3 251 199 250
3 204 252 253
3 204 203 252
3 190 253 241
3 190 204 253
3 206 251 254
3 206 201 251
3 207 206 255
3 255 206 254
3 203 256 252
3 203 208 256
3 257 209 255
3 255 209 207
3 210 258 208
3 208 258 256
3 211 209 259
3 259 209 257
3 212 260 210
3 210 260 258
3 213 211 259
3 261 213 259
3 214 262 260
3 212 214 260
3 215 213 261
3 263 215 261
3 216 264 214
3 214 264 262
3 217 215 263
3 265 217 263
3 218 266 264
3 216 218 264
3 219 217 265
3 267 219 265
3 218 268 266
3 218 220 268
3 221 219 267
3 269 221 267
3 223 270 268
3 220 223 268
3 225 221 269
3 271 225 269
3 223 226 272
3 270 223 272
3 272 228 273
3 272 226 228
3 274 231 275
3 274 230 231
3 275 231 271
3 271 231 224
3 273 228 276
3 276 228 232
3 276 233 277
3 276 232 233
3 233 234 278
3 277 233 278
3 234 235 279
3 278 234 279
3 235 236 280
3 279 235 280
3 236 237 281
3 280 236 281
3 237 238 282
3 281 237 282
3 238 239 283
3 282 238 283
3 327 239 284
3 284 239 240
3 240 230 274
3 284 240 274
3 241 285 286
3 242 241 286
3 242 286 243
3 243 286 287
3 243 287 288
3 244 243 288
3 245 288 289
3 245 244 288
3 245 289 246
3 246 289 290
3 246 290 247
3 247 290 291
3 247 291 248
3 248 291 292
3 248 292 293
3 249 248 293
3 249 293 250
3 250 293 294
3 250 294 295
3 251 250 295
3 252 296 297
3 253 252 297
3 241 297 285
3 241 253 297
3 254 295 298
3 254 251 295
3 254 298 299
3 255 254 299
3 256 300 252
3 252 300 296
3 257 255 299
3 301 257 299
3 258 302 300
3 256 258 300
3 259 257 303
3 303 257 301
3 260 304 258
3 258 304 302
3 261 259 303
3 305 261 303
3 262 306 304
3 260 262 304
3 263 261 305
3 307 263 305
3 264 308 262
3 262 308 306
3 265 263 307
3 309 265 307
3 266 310 308
3 264 266 308
3 267 265 309
3 311 267 309
3 266 312 310
3 266 268 312
3 269 267 311
3 313 269 311
3 270 314 312
3 268 270 312
3 271 269 315
3 315 269 313
3 270 272 316
3 314 270 316
3 316 273 317
3 316 272 273
3 318 275 319
3 318 274 275
3 275 271 315
3 319 275 315
3 273 276 320
3 317 273 320
3 276 277 320
3 320 277 321
3 277 278 322
3 321 277 322
3 322 279 323
3 322 278 279
3 279 280 323
3 323 280 324
3 280 281 324
3 324 281 325
3 281 282 325
3 325 282 326
3 282 283 326
3 326 283 327
3 283 239 327
3 327 284 328
3 284 274 318
3 328 284 318
3 285 329 330
3 286 285 330
3 286 330 287
3 287 330 331
3 287 331 332
3 288 287 332
3 288 332 289
3 289 332 333
3 289 333 334
3 290 289 334
3 290 334 335
3 291 290 335
3 291 335 292
3 292 335 336
3 292 336 337
3 293 292 337
3 293 337 294
3 294 337 338
3 294 338 339
3 295 294 339
3 296 340 341
3 297 296 341
3 285 341 329
3 285 297 341
3 298 339 342
3 298 295 339
3 298 342 343
3 299 298 343
3 300 344 296
3 296 344 340
3 301 299 343
3 345 301 343
3 302 346 344
3 300 302 344
3 303 301 347
3 347 301 345
3 304 348 302
3 302 348 346
3 305 303 347
3 349 305 347
3 306 350 348
3 304 306 348
3 307 305 351
3 351 305 349
3 308 352 306
3 306 352 350
3 309 307 353
3 353 307 351
3 310 354 352
3 308 310 352
3 311 309 355
3 355 309 353
3 312 356 310
3 310 356 354
3 313 311 355
3 357 313 355
3 314 358 356
3 312 314 356
3 315 313 359
3 359 313 357
3 314 316 360
3 358 314 360
3 360 317 361
3 360 316 317
3 362 319 363
3 362 318 319
3 319 315 359
3 363 319 359
3 317 320 364
3 361 317 364
3 320 321 364
3 364 321 365
3 321 322 366
3 365 321 366
3 322 323 366
3 366 323 367
3 323 324 368
3 367 323 368
3 324 325 369
3 368 324 369
3 325 326 370
3 369 325 370
3 326 327 371
3 370 326 371
3 327 328 371
3 371 328 372
3 328 318 362
3 372 328 362
3 329 373 374
3 330 329 374
3 330 374 331
3 331 374 375
3 331 375 376
3 332 331 376
3 332 376 333
3 333 376 377
3 333 377 378
3 334 333 378
3 334 378 379
3 335 334 379
3 335 379 336
3 336 379 380
3 336 380 381
3 337 336 381
3 337 381 338
3 338 381 382
3 338 382 383
3 339 338 383
3 340 384 385
3 341 340 385
3 329 385 373
3 329 341 385
3 342 383 386
3 342 339 383
3 342 386 387
3 343 342 387
3 344 388 340
3 340 388 384
3 345 343 387
3 389 345 387
3 346 390 388
3 344 346 388
3 347 345 391
3 391 345 389
3 348 392 346
3 346 392 390
3 349 347 391
3 393 349 391
3 350 394 348
3 348 394 392
3 351 349 395
3 395 349 393
3 352 396 350
3 350 396 394
3 353 351 395
3 397 353 395
3 354 398 396
3 352 354 396
3 355 353 399
3 399 353 397
3 356 400 354
3 354 400 398
3 357 355 399
3 401 357 399
3 358 402 400
3 356 358 400
3 359 357 403
3 403 357 401
3 358 360 404
3 402 358 404
3 404 361 405
3 404 360 361
3 406 363 407
3 406 362 363
3 363 359 403
3 407 363 403
3 361 364 408
3 405 361 408
3 364 365 408
3 408 365 409
3 365 366 410
3 409 365 410
3 366 367 410
3 410 367 411
3 367 368 412
3 411 367 412
3 368 369 412
3 412 369 413
3 369 370 413
3 413 370 414
3 370 371 415
3 414 370 415
3 371 372 415
3 415 372 416
3 372 362 406
3 416 372 406
3 373 417 418
3 374 373 418
3 374 418 375
3 375 418 419
3 375 419 420
3 376 375 420
3 376 420 377
3 377 420 421
3 377 421 422
3 378 377 422
3 378 422 423
3 379 378 423
3 380 423 424
3 380 379 423
3 380 424 425
3 381 380 425
3 382 425 426
3 382 381 425
3 382 426 427
3 383 382 427
3 384 428 429
3 385 384 429
3 373 429 417
3 373 385 429
3 386 427 430
3 386 383 427
3 386 430 431
3 387 386 431
3 384 432 428
3 384 388 432
3 389 387 431
3 433 389 431
3 390 434 432
3 388 390 432
3 435 389 433
3 435 391 389
3 390 436 434
3 390 392 436
3 393 391 435
3 437 393 435
3 394 438 436
3 392 394 436
3 395 393 439
3 439 393 437
3 396 440 438
3 394 396 438
3 397 395 439
3 441 397 439
3 398 442 440
3 396 398 440
3 399 397 443
3 443 397 441
3 400 444 398
3 398 444 442
3 401 399 443
3 445 401 443
3 402 446 444
3 400 402 444
3 403 401 447
3 447 401 445
3 402 404 448
3 446 402 448
3 448 405 449
3 448 404 405
3 450 407 451
3 450 406 407
3 407 403 447
3 451 407 447
3 405 408 452
3 449 405 452
3 408 409 452
3 452 409 453
3 409 410 454
3 453 409 454
3 410 411 454
3 454 411 455
3 411 412 456
3 455 411 456
3 412 413 456
3 456 413 457
3 457 414 458
3 457 413 414
3 414 415 459
3 458 414 459
3 415 416 459
3 459 416 460
3 416 406 450
3 460 416 450
3 418 461 462
3 418 417 461
3 419 462 463
3 419 418 462
3 419 463 464
3 420 419 464
3 420 464 421
3 421 464 465
3 421 465 466
3 422 421 466
3 422 466 467
3 423 422 467
3 424 467 468
3 424 423 467
3 424 468 469
3 425 424 469
3 426 469 470
3 426 425 469
3 427 426 471
3 471 426 470
3 429 428 473
3 473 428 472
3 417 473 505
3 417 429 473
3 430 427 471
3 520 430 471
3 431 474 475
3 431 430 474
3 428 476 472
3 428 432 476
3 433 431 475
3 477 433 475
3 434 478 476
3 432 434 476
3 479 433 477
3 479 435 433
3 434 480 478
3 434 436 480
3 437 435 479
3 481 437 479
3 438 482 436
3 436 482 480
3 439 437 483
3 483 437 481
3 440 484 482
3 438 440 482
3 441 439 483
3 485 441 483
3 442 486 440
3 440 486 484
3 443 441 487
3 487 441 485
3 444 488 442
3 442 488 486
3 445 443 487
3 489 445 487
3 444 446 488
3 488 446 490
3 491 445 489
3 491 447 445
3 490 446 492
3 492 446 448
3 492 449 493
3 492 448 449
3 494 451 495
3 494 450 451
3 451 447 491
3 495 451 491
3 449 452 496
3 493 449 496
3 496 453 497
3 496 452 453
3 453 454 498
3 497 453 498
3 498 455 499
3 498 454 455
3 455 456 500
3 499 455 500
3 456 457 501
3 500 456 501
3 457 458 502
3 501 457 502
3 458 459 503
3 502 458 503
3 503 460 504
3 503 459 460
3 504 460 494
3 494 460 450
3 461 505 506
3 462 461 506
3 507 463 462
3 507 462 506
3 465 463 508
3 508 463 507
3 464 463 465
3 465 508 509
3 465 509 466
3 466 509 510
3 466 510 467
3 467 510 511
3 467 511 468
3 468 511 512
3 468 512 513
3 469 468 513
3 469 513 470
3 515 470 514
3 470 513 514
3 470 515 471
3 472 516 473
3 518 516 517
3 518 505 516
3 461 417 505
3 505 473 516
3 505 518 506
3 515 514 519
3 474 430 520
3 521 520 519
3 520 471 515
3 520 515 519
3 474 520 524
3 476 522 472
3 516 472 523
3 472 522 523
3 516 523 517
3 520 521 524
3 477 475 524
3 524 475 474
3 525 477 524
3 478 526 522
3 476 478 522
3 527 477 525
3 527 479 477
3 478 528 526
3 478 480 528
3 481 479 527
3 529 481 527
3 482 530 480
3 480 530 528
3 483 481 531
3 531 481 529
3 484 532 530
3 482 484 530
3 485 483 531
3 533 485 531
3 486 534 484
3 484 534 532
3 535 485 533
3 535 487 485
3 486 536 534
3 486 488 536
3 537 489 535
3 535 489 487
3 490 538 539
3 536 490 539
3 488 490 536
3 538 540 539
3 541 542 543
3 541 489 537
3 542 541 537
3 541 491 489
3 490 492 538
3 545 493 544
3 538 492 493
3 538 493 545
3 540 538 545
3 544 546 545
3 547 548 549
3 543 495 541
3 547 494 495
3 547 495 543
3 608 547 543
3 495 491 541
3 493 496 544
3 544 497 550
3 546 544 550
3 544 496 497
3 550 497 551
3 551 497 498
3 498 499 551
3 551 499 552
3 499 500 552
3 552 500 553
3 500 501 553
3 553 501 554
3 554 502 555
3 554 501 502
3 502 503 556
3 555 502 556
3 503 504 556
3 549 504 547
3 556 504 549
3 504 494 547
3 506 557 507
3 507 557 558
3 508 507 558
3 508 558 559
3 509 508 559
3 509 559 560
3 510 509 560
3 510 560 561
3 511 510 561
3 511 561 562
3 512 511 562
3 514 512 563
3 563 512 562
3 513 512 514
3 517 564 518
3 518 564 557
3 566 564 565
3 557 564 566
3 557 506 518
3 558 566 567
3 558 557 566
3 559 567 568
3 559 558 567
3 560 568 569
3 560 559 568
3 561 569 570
3 561 560 569
3 562 570 571
3 562 561 570
3 563 562 571
3 572 563 571
3 574 514 563
3 572 574 563
3 573 519 574
3 574 519 514
3 519 573 521
3 522 575 523
3 577 575 576
3 577 517 575
3 564 517 577
3 575 517 523
3 564 577 565
3 573 574 572
3 521 573 579
3 580 573 578
3 579 573 580
3 579 524 521
3 524 579 525
3 522 581 575
3 522 526 581
3 576 581 582
3 576 575 581
3 583 580 584
3 583 579 580
3 583 525 579
3 583 527 525
3 526 585 581
3 526 528 585
3 582 585 586
3 582 581 585
3 587 584 588
3 587 583 584
3 587 527 583
3 587 529 527
3 528 589 585
3 528 530 589
3 586 589 590
3 586 585 589
3 591 588 592
3 591 587 588
3 591 529 587
3 591 531 529
3 532 593 589
3 530 532 589
3 590 593 594
3 590 589 593
3 595 592 596
3 595 591 592
3 595 531 591
3 595 533 531
3 534 597 593
3 532 534 593
3 594 597 598
3 594 593 597
3 599 596 600
3 599 595 596
3 599 533 595
3 599 535 533
3 534 601 597
3 534 536 601
3 602 597 601
3 602 598 597
3 603 599 600
3 604 603 600
3 603 535 599
3 603 537 535
3 536 539 601
3 606 540 605
3 606 602 540
3 602 601 539
3 540 602 539
3 605 607 606
3 608 609 610
3 608 543 609
3 604 542 603
3 609 543 542
3 609 542 604
3 542 537 603
3 540 545 605
3 605 546 607
3 612 607 611
3 605 545 546
3 607 546 611
3 612 613 614
3 612 611 613
3 614 615 616
3 614 613 615
3 616 617 618
3 616 615 617
3 618 619 620
3 618 617 619
3 620 621 622
3 620 619 621
3 622 623 624
3 622 621 623
3 610 548 608
3 624 623 548
3 624 548 610
3 548 623 549
3 548 547 608
3 546 550 611
3 611 550 613
3 613 550 551
3 551 552 615
3 613 551 615
3 552 553 617
3 615 552 617
3 553 554 619
3 617 553 619
3 554 555 621
3 619 554 621
3 621 555 623
3 623 555 556
3 556 549 623
3 565 625 626
3 567 566 626
3 626 566 565
3 567 626 627
3 568 567 627
3 568 627 628
3 569 568 628
3 569 628 629
3 570 569 629
3 570 629 630
3 571 570 630
3 572 571 631
3 631 571 630
3 572 631 578
3 576 632 577
3 625 632 633
3 565 577 632
3 565 632 625
3 625 633 634
3 626 625 634
3 626 634 627
3 627 634 635
3 627 635 628
3 628 635 636
3 628 636 629
3 629 636 637
3 629 637 630
3 630 637 638
3 631 638 639
3 631 630 638
3 640 578 639
3 578 573 572
3 578 631 639
3 578 640 580
3 576 641 632
3 576 582 641
3 633 641 642
3 633 632 641
3 633 642 643
3 634 633 643
3 634 643 644
3 635 634 644
3 635 644 645
3 636 635 645
3 636 645 646
3 637 636 646
3 637 646 647
3 638 637 647
3 638 647 648
3 639 638 648
3 640 648 649
3 640 639 648
3 584 580 640
3 649 584 640
3 582 650 641
3 582 586 650
3 642 650 651
3 642 641 650
3 642 651 652
3 643 642 652
3 643 652 653
3 644 643 653
3 644 653 645
3 645 653 654
3 645 654 646
3 646 654 655
3 646 655 647
3 647 655 656
3 647 656 648
3 648 656 657
3 648 657 649
3 649 657 658
3 588 584 649
3 658 588 649
3 586 659 650
3 586 590 659
3 650 659 651
3 651 659 660
3 651 660 661
3 652 651 661
3 652 661 662
3 653 652 662
3 653 662 654
3 654 662 663
3 654 663 664
3 655 654 664
3 655 664 665
3 656 655 665
3 656 665 666
3 657 656 666
3 657 666 658
3 658 666 667
3 592 588 658
3 667 592 658
3 590 668 659
3 590 594 668
3 660 668 669
3 660 659 668
3 660 669 670
3 661 660 670
3 661 670 671
3 662 661 671
3 662 671 663
3 663 671 672
3 663 672 664
3 664 672 673
3 664 673 665
3 665 673 674
3 665 674 666
3 666 674 675
3 666 675 667
3 667 675 676
3 596 592 667
3 676 596 667
3 594 677 668
3 594 598 677
3 668 677 669
3 669 677 678
3 669 678 679
3 670 669 679
3 670 679 680
3 671 670 680
3 671 680 681
3 672 671 681
3 672 681 682
3 673 672 682
3 673 682 683
3 674 673 683
3 674 683 684
3 675 674 684
3 676 684 685
3 676 675 684
3 600 596 676
3 685 600 676
3 598 686 677
3 598 602 606
3 678 686 687
3 678 677 686
3 678 687 679
3 679 687 688
3 679 688 680
3 680 688 689
3 680 689 681
3 681 689 690
3 681 690 682
3 682 690 691
3 683 691 692
3 683 682 691
3 684 692 693
3 684 683 692
3 685 693 694
3 685 684 693
3 694 604 685
3 685 604 600
3 598 606 686
3 606 607 695
3 686 606 695
3 686 695 687
3 688 687 696
3 696 687 695
3 688 696 697
3 689 688 697
3 689 697 698
3 690 689 698
3 690 698 699
3 691 690 699
3 691 699 700
3 692 691 700
3 692 700 701
3 693 692 701
3 610 609 694
3 701 610 694
3 701 694 693
3 609 604 694
3 607 612 695
3 695 612 696
3 696 612 614
3 614 616 697
3 696 614 697
3 616 618 698
3 697 616 698
3 618 620 699
3 698 618 699
3 620 622 700
3 699 620 700
3 622 624 701
3 700 622 701
3 624 610 701
