OFF
702 1400 0
-0.250175184993653 -0.354757462747583 2.10515066562074
-0.29579169777935 -0.340442389544624 2.08835230336526
-0.267513288275313 -0.357700201110275 2.05963186221464
-0.203213847976822 -0.361077154823771 2.10933362386267
-0.221433136122043 -0.36819030352304 2.06408673930623
-0.156342172945471 -0.365352650081941 2.11208534169937
-0.174987591011481 -0.371981651770022 2.06584832888752
-0.110906347021256 -0.369074984810199 2.11608101482855
-0.129609762221411 -0.375558172516078 2.06732757824177
-0.0659572670095189 -0.372631450604945 2.12044586936785
-0.0847970588121011 -0.378913314509022 2.07162560352746
-0.0184036090327249 -0.375576014100512 2.12775397095764
-0.0389517632649657 -0.382151863007052 2.079787679723
0.0296648884040481 -0.371090644316114 2.13627460080925
0.008403653501544 -0.383717752634679 2.08857829565956
0.0548340370816085 -0.374838882388663 2.09781236484722
-0.318669722188113 -0.314045179703954 2.11842344396185
-0.348665669728213 -0.295303287798451 2.09221920611806
-0.327194921791295 -0.323134410721994 2.06183608763354
-0.27799328800846 -0.330764832241235 2.13698450857197
-0.231165869347676 -0.339962026681191 2.148284434147
-0.183398350439529 -0.344901774358913 2.15167237087019
-0.136571819308217 -0.348577047545262 2.15667992059175
-0.091301627131227 -0.351752624851362 2.16217400714289
-0.04693630264762 -0.35671393790829 2.16430264643018
0.00173597219873896 -0.357360591482655 2.17140091167144
0.0754416845196051 -0.35475221113929 2.14288505258815
0.0467970456202841 -0.345182156245249 2.17983273989943
0.092643606192578 -0.324343645734459 2.17874510237586
-0.305871006064593 -0.295777877637384 2.16122205573604
-0.346306866487606 -0.274036957887067 2.13467846853949
-0.259705081252084 -0.309770756532867 2.17778014054142
-0.209669138709706 -0.316004008181038 2.18532650998549
-0.162009091799305 -0.320061373133048 2.19016975715497
-0.114343480958039 -0.322348400589435 2.19709793386624
-0.0695937643028183 -0.324911823372295 2.20311128342483
-0.027244707119575 -0.333640414508921 2.20138767167621
0.0140201295856502 -0.325569592548927 2.21246510096198
0.059517835560367 -0.311706197941277 2.21465379440574
0.104045119947697 -0.288468835628412 2.20949010310682
-0.324512521766388 -0.260169960241376 2.18427324659593
-0.357977560862893 -0.237425308287684 2.15929607304136
-0.283321394804757 -0.27591395335372 2.20435435529314
-0.234163006156132 -0.286614149452894 2.21476700812083
-0.185356917226679 -0.288661960428465 2.22240145404825
-0.137840930533474 -0.293114774094888 2.22675122278041
-0.0863117441608529 -0.293913980441505 2.23620856881358
-0.0313493869601831 -0.302680116117947 2.23698512547487
0.0190224831075263 -0.295357253597024 2.24665385571113
0.0693075708328098 -0.279149576239332 2.24623535346561
0.113725854961215 -0.252042468774307 2.23994064386406
-0.308778850983529 -0.238643083562938 2.22825270065311
-0.349532023071872 -0.219325528842274 2.19845908203516
-0.259309459023177 -0.256156151251102 2.24192089209246
-0.211850414417406 -0.258537652445528 2.25249886251067
-0.166277202693748 -0.259517719129654 2.2605420089401
-0.122240862738364 -0.266833103776399 2.26082132561351
-0.0888219078224551 -0.255733624272206 2.28062337056004
-0.0537929222066914 -0.273696838285817 2.26655742590525
-0.0114941640666103 -0.270373140921229 2.27752487545542
0.0363318847566715 -0.263342457334832 2.27919121013399
0.0841439294157607 -0.243708554264045 2.27613898099381
-0.312329569499484 -0.200846601787625 2.27097881502628
-0.340429290768314 -0.201135544706174 2.23609875210197
-0.279130946842344 -0.226548889621742 2.26660373002584
-0.231993273382478 -0.229378456921178 2.2827348244614
-0.187240106184739 -0.22825543264212 2.29309505728889
-0.138261618824952 -0.232909843162735 2.29750161077805
-0.092862438411555 -0.227546288343495 2.31297347697101
-0.0453044508552459 -0.240023969854352 2.30788898144956
0.00272740290600386 -0.239584613659036 2.31319399110003
0.0503981125665507 -0.23147130581156 2.31013031124862
0.0975789579824703 -0.208310232101613 2.30440063504123
-0.301925361475122 -0.178591899818453 2.30775068564295
-0.346273612880071 -0.164168288869496 2.27356631525944
-0.26297045745699 -0.202399159424301 2.3043136059235
-0.217030590303284 -0.196856890795704 2.32402499758792
-0.166929140643876 -0.201086677683329 2.32915885324532
-0.121110544695539 -0.200900733919006 2.33862402647351
-0.0695195084237036 -0.20468244018013 2.34458453409893
-0.0244972312804075 -0.210771068083557 2.34611588581747
0.0218435504438639 -0.207392777290963 2.34745107925069
0.0656659852542799 -0.199025199453243 2.33886235266193
0.101751361384908 -0.172876237342745 2.33939414778682
-0.297514039314294 -0.141180290270271 2.34604739253542
-0.331350074773618 -0.148150209355038 2.31245738618908
-0.263744918203836 -0.170632846284428 2.3395777025382
-0.229256306741541 -0.159525134430428 2.35806450374261
-0.186418509384784 -0.16768273393511 2.35909455856767
-0.141276119891756 -0.167881206612793 2.36675101130089
-0.0940159018412211 -0.171110800084819 2.37237959423279
-0.0453467181528915 -0.175085541634316 2.37767502978866
0.0029770542114558 -0.177766790850569 2.37911228694001
0.0544722967414266 -0.170999036804475 2.37180165249756
0.101456076603398 -0.138853446628505 2.36601038863546
-0.339133160452623 -0.110150980030567 2.33192137874095
-0.260460459081857 -0.123101064719188 2.37309442574484
-0.304298224645085 -0.098424469208573 2.36389099435057
-0.210964972470269 -0.123785767177383 2.3822299579475
-0.164863137264749 -0.128399457778968 2.38696696456729
-0.118158249776136 -0.129363095424066 2.39346149966727
-0.0722931178533254 -0.133849651709019 2.39823199391893
-0.0255592559984821 -0.138226128638359 2.40288994999637
0.0211183718277327 -0.139294034127885 2.40068069166318
0.0653641460743954 -0.131939924593014 2.39085749242553
0.0467385089023325 -0.0944144781299465 2.40995500725553
-0.277662625823046 -0.0723547109940179 2.38351429244304
-0.235096356287815 -0.081679470026973 2.39281744652278
-0.186028076879994 -0.0834729434582148 2.39885665623991
-0.140244306679457 -0.0845483439325519 2.40457372236199
-0.09392681984515 -0.0859363179367628 2.41027404502982
-0.0492740784308305 -0.092549366703411 2.41476074361518
-0.001510492527591 -0.0966478825251185 2.41738743235256
-0.245550061812406 -0.362684565389119 2.01993919431394
-0.269551348391142 -0.346708274131723 1.98547583787229
-0.246154593878489 -0.337291957431064 1.94841285905154
-0.1958692652022 -0.368726138632758 2.020107702228
-0.217663136579373 -0.357317905758926 1.97972336590695
-0.149787643524174 -0.371126422103443 2.01923267835195
-0.169518159246976 -0.356979251315651 1.97410999732551
-0.104338445965986 -0.373943884419011 2.02153512257866
-0.124190094066211 -0.358305678632307 1.97465399690448
-0.0589575959013654 -0.377718451987629 2.0289520176219
-0.0765658039949645 -0.362004859066152 1.9805103552719
-0.0139847924327366 -0.381884697510504 2.03903699443968
-0.0307826700300116 -0.366964088402754 1.98937160697435
0.0320733004232853 -0.380690750201304 2.04760081585823
0.0134955744108255 -0.371545378251659 2.00035139101402
0.061366353576655 -0.364846777699667 2.00973176679015
-0.297283217157253 -0.343419640145398 2.02909231090993
-0.336062131639884 -0.312285105760458 2.01515044388353
-0.306424906940346 -0.325555725879441 1.98176165702676
0.0993843537018236 -0.354570469679073 2.10328935382588
0.0751496220983553 -0.369247144905034 2.05757195414677
0.114632260821235 -0.34765476710694 2.06093155270954
-0.374281782408235 -0.259302422185295 2.08494322403535
-0.384808502509757 -0.243736136228819 2.03628321911934
-0.361631890752222 -0.286792990928269 2.04644015959524
0.120286573694788 -0.328373797717165 2.13863177829684
0.140770542761493 -0.3237311386809 2.09446506718602
0.157673673196897 -0.294158133463756 2.12371621449532
-0.376601666364617 -0.23280406226473 2.11822509286733
-0.392689690517048 -0.213869198817401 2.07308523169007
0.133963159295678 -0.294417315586658 2.16913180173326
0.164707562121613 -0.256890291112274 2.15683736600096
-0.380569564372858 -0.196564217675607 2.15453448744438
-0.393401595547185 -0.186469856061623 2.11137716077153
0.141562025080275 -0.255946671892805 2.1997338605295
0.170862140105728 -0.216663900848336 2.18377361455511
-0.37511438791248 -0.179979037968897 2.19349324966654
-0.395892189028748 -0.149043862717632 2.15325489832175
0.149955547703822 -0.216623235856961 2.22783352412718
0.175017241710188 -0.176564735296846 2.21272051600813
-0.367295640433683 -0.164472858623055 2.23349457568153
-0.391398476179572 -0.134249999224706 2.19960896310341
0.126778274714067 -0.212630681345535 2.26745695030705
0.158973893235321 -0.173294930377996 2.25578436542393
-0.381340862704957 -0.125519308356291 2.2482952576241
-0.399934619891389 -0.0893880753451451 2.21938912339992
0.13394477346343 -0.17467274322832 2.29854282284692
0.16382217519978 -0.135135351244878 2.28409168927088
-0.365807273571615 -0.120560679091147 2.29017733522834
-0.390403053630296 -0.081290512254975 2.26737334274973
0.137174872450576 -0.139350399496257 2.32924890577534
0.160549226401569 -0.100329995160925 2.31804810991608
-0.368979377799865 -0.0767165365838356 2.31060459095601
-0.336915996850647 -0.0676153426427847 2.34874507392296
-0.356974837378377 -0.0331248654876032 2.33136413024056
0.0939020344950751 -0.0934559989422397 2.38914943739289
0.116892371900961 -0.0530320227788133 2.37755461181842
0.130668279448818 -0.0992348496070061 2.35820613569453
-0.311617790518483 -0.0411631606510098 2.36969150594012
-0.259197579237279 -0.0315498292126457 2.39213799515091
-0.291384556880861 -0.00252701490917606 2.37667446718741
-0.209531534840742 -0.0403477502815463 2.40027557955088
-0.162296896577845 -0.0374218850921941 2.40555812875245
-0.115673555542033 -0.0387924118747713 2.41081958948085
-0.0688359626433164 -0.0402275043727979 2.4160867429793
-0.0257934015072202 -0.0509836610860756 2.42124330797985
-0.000613724265514093 -0.0140515251736633 2.41767931752663
0.0249088576143556 -0.0541375373573941 2.4191362936387
0.0735957982540025 -0.0524831325604879 2.40422353568051
-0.258101757581163 0.0268108514334372 2.38073463076035
-0.22629894617581 0.00249872746973495 2.39375320211396
-0.182216022958853 0.00794322725679274 2.39670951378844
-0.136121649605653 0.00801976186399647 2.4010408237092
-0.0894199794168037 0.0060336487044199 2.40597556444092
-0.0409991012930985 0.0043389570523981 2.41096938631739
0.0147152780784917 0.0240777607186241 2.404374777757
-0.334383233505462 -0.293363459320742 1.96680343338584
-0.318266176023723 -0.277915131353627 1.92847055841994
-0.287376946964244 -0.314175853051596 1.94054125347257
-0.238627231805394 -0.313163339592233 1.91354497016494
-0.196462856006109 -0.337658071704382 1.93842881971059
-0.145977139881969 -0.332633030730076 1.93186253235476
-0.0959505935819343 -0.337867433599669 1.93963068283536
-0.043859879958357 -0.341917682864739 1.94587198967586
0.00149773816768131 -0.347606825432874 1.9542849870473
0.0456502390028694 -0.35140188535921 1.97010868696718
0.0879454015918378 -0.333020798280378 1.96986217454731
0.100842362218259 -0.348462059451966 2.01722384258204
0.127231104099281 -0.321334679362683 2.00039944896954
-0.36434653014187 -0.272853486531474 2.00104496933068
-0.382325907622807 -0.226086540722038 1.98991917910907
-0.358767865723372 -0.251514490054043 1.95869376459407
0.143935159935197 -0.32019322196876 2.04501778599198
0.159601356715228 -0.29015649346061 2.01480631116904
0.169690297258021 -0.288940742676776 2.07004400929049
-0.396684671234514 -0.194632504552216 2.02767482359
0.189179987462268 -0.246535335269195 2.06896334637381
-0.399824853170666 -0.164944195703632 2.0614326830322
0.181345266217899 -0.256002513385473 2.11114939845904
-0.400890504676355 -0.144431106432437 2.10500059518576
0.186741804733831 -0.214885044052024 2.13649266607904
-0.403185476792247 -0.105252674869531 2.12203773430176
0.189106059350681 -0.175565141268155 2.16198688022997
-0.403084972946975 -0.0992613183084984 2.16953325664372
0.189548621537691 -0.139268755964495 2.19064521546771
-0.406497314421783 -0.0523407895167537 2.1897622537163
0.181744994684204 -0.128441502133469 2.23653763316835
-0.402639452833976 -0.0432519819137768 2.24050579881639
0.181746919654903 -0.0907662675893047 2.27078160280297
-0.385783172514577 -0.0365184244696296 2.28877764042141
-0.392488948215759 0.00180699268935253 2.26123655166597
0.150088857270453 -0.0567656378665812 2.34343917062987
0.17434078859273 -0.0587747978175474 2.30224739356902
-0.368702744185586 0.00610420282440613 2.30753754747481
-0.333796895560589 0.0004799285782629 2.34853298791607
-0.341055463504939 0.0429352900679591 2.32236988884168
0.0492408832890276 -0.0117619637470928 2.40854064322143
0.0956686595139622 -0.0108534445383759 2.38684341094045
0.134510415221678 -0.0115153877016375 2.35468905526675
-0.304190595017951 0.0382962614872324 2.35556358017398
-0.263814746416311 0.0651012002584821 2.35969711621072
-0.211207456423596 0.048935633852114 2.37865269587433
-0.162175379251769 0.0511969305400642 2.38119826899351
-0.114818572586296 0.0502083217153174 2.38524106617376
-0.0674292685946792 0.0470811960409115 2.39046475014263
-0.0214393431828072 0.0478261290143295 2.39333153309143
0.0321162276166483 0.0596783329137913 2.38097062834825
0.0660408941056905 0.0277078215125369 2.38821491612204
-0.307214076520372 -0.244857281093973 1.89423833880481
-0.275562250142206 -0.28424617271861 1.90223783032047
-0.227151229803139 -0.280412771672428 1.88202569972645
-0.189672316823759 -0.309265816698363 1.9042661167103
-0.146094152931238 -0.296768556271606 1.8953045330008
-0.105808146917705 -0.304593124089385 1.9040866097451
-0.0587335721943731 -0.313515588384667 1.91422655548049
-0.00254869249071508 -0.314494686008541 1.91787973622177
0.045081055055954 -0.32437862045246 1.93479708207
0.090216842394065 -0.300431482614287 1.93462274983439
0.128258792461509 -0.296880234263831 1.96687352030921
-0.370771468217984 -0.198836547112954 1.94678326600473
-0.342824511910548 -0.235593182183386 1.9243219877141
0.160868685828656 -0.260949638758061 1.97821917485992
0.181158407883031 -0.254688834101447 2.02661136036552
-0.389850897626522 -0.178368602626453 1.98726281668087
0.197496737056951 -0.207329406807633 2.04230422053206
-0.395295146873924 -0.138594991935298 2.01775591096008
0.196594982109402 -0.206441328845852 2.09209124235048
-0.399219330284257 -0.116592030513565 2.06613772686477
0.197128205213142 -0.164761981103671 2.11542485008499
-0.398510554314639 -0.0737411351054781 2.08758741600821
0.196723408882278 -0.126527833096289 2.14359698552198
-0.403375579101557 -0.0597910839148718 2.13904947351277
0.19363072953648 -0.0969834027231061 2.18960211022987
-0.402397570092172 -0.0151185924296214 2.15925529960025
0.190536787327089 -0.0767437853314251 2.22960991972306
-0.403773882414536 -0.00627903457980065 2.21091079482981
0.185538333269212 -0.0343031366010825 2.26632208995827
-0.388887176780712 0.0381872663269821 2.23129438945979
0.16430472964195 -0.0162028534778537 2.31452320486093
-0.370084025442854 0.0439130438469902 2.27904631293474
-0.337353796586715 0.080613056941723 2.2924173249709
0.108298260451558 0.0296963574994192 2.36050973725346
0.143514826092592 0.0267234812162689 2.32413488349354
-0.303350321457616 0.0776326633482086 2.32923364849964
-0.259906234353989 0.104172812601554 2.32883527136354
-0.224166967802616 0.0850764074445707 2.35444240110215
-0.179281890210674 0.089127069418949 2.35368800522812
-0.135163482381885 0.0896819077438219 2.35547105068066
-0.0884105236635999 0.0858174560671472 2.36118451016901
-0.0451023030982482 0.0857483314524005 2.36346230894205
-0.00247506864582589 0.0839244969267014 2.36668998667706
0.0752570638653379 0.0665772358876099 2.35795706444516
-0.303985602307595 -0.209440704857305 1.86652124682298
-0.265328123693703 -0.248469836767374 1.86974715732436
-0.218452163841658 -0.245009790424773 1.8514357983017
-0.178647037637199 -0.271483565389126 1.87192447700444
-0.124856232222624 -0.262019395756703 1.86655250808978
-0.0788808297727949 -0.274518449723837 1.87964051532935
-0.0331434869530195 -0.286298740412452 1.8920993358224
0.0101982381593848 -0.27406414253223 1.883813601275
0.0479507356879763 -0.291338368726279 1.90528000536955
0.0944349765486096 -0.265024832741117 1.90325077828313
0.131168010279248 -0.264334592944835 1.93595839126493
-0.365978796977768 -0.160374393353749 1.91774392925978
-0.34147440663534 -0.200622069517809 1.90056401752139
0.166629900475653 -0.226252253237681 1.94834014425581
0.186784275561102 -0.219412168450159 1.99489719087621
-0.385164526130917 -0.145066793194838 1.96257963601497
0.203613659641068 -0.172348458319902 2.01480564049601
-0.388786495433838 -0.100393913834049 1.98566156039282
0.202820642240137 -0.162917269081283 2.0669997277181
-0.393157903032482 -0.086272227444066 2.03286195748977
0.203106296120932 -0.117700212194108 2.09366824781807
-0.392538284905302 -0.0413822789466094 2.05640661187823
0.200383341624835 -0.0819723857053637 2.14042329853136
-0.397153800867489 -0.0261592152927258 2.10644023120957
0.198436877891328 -0.0520251731981135 2.17669275621934
-0.396320644587009 0.0196208241070837 2.12869244076647
0.194792991338153 -0.0341518388249538 2.21968555262958
-0.397692735865532 0.0298898632692721 2.18084824026383
0.191058867070448 0.00827541922084951 2.2364930734363
-0.382712495893629 0.0739968493037074 2.20100447141805
0.172914992980474 0.0150534113179832 2.2816752485736
-0.364096421106839 0.0798191803049723 2.24870730528821
-0.330412540021703 0.117067204831077 2.26231949754167
0.114948251259634 0.067502945684364 2.3286139285936
0.150916463020562 0.0614035837380831 2.2926936224205
-0.297132134768715 0.113875199804548 2.29863399584617
-0.248587846943826 0.138952677351652 2.30125401730578
-0.208263137104448 0.119979048973768 2.32571028444834
-0.157322759690263 0.126872082555247 2.322400627979
-0.104612874356623 0.120308706876067 2.33073678541565
-0.056235101055936 0.121936666547596 2.33181716070932
-0.0101375382784377 0.11986283733097 2.33595908675343
0.0377647476967053 0.0989638222757624 2.34823801822477
0.0790658063967181 0.104929981710326 2.32689227387468
-0.298537085819844 -0.174633326572646 1.83738226449635
-0.260500809905589 -0.212679269118965 1.83997406547961
-0.212568076467468 -0.211155271192725 1.8226472779969
-0.167597267477037 -0.238035483469547 1.84376727046137
-0.120421107199378 -0.222827627208308 1.8331255084177
-0.0783136166117873 -0.237438422708835 1.84782928777056
-0.0336280948207995 -0.251091790253594 1.86184202094275
0.0126733894498702 -0.236422936835048 1.85161743010897
0.055910994098955 -0.254054254935477 1.87408627883896
0.101318183331011 -0.228712749337609 1.87283601883501
0.137183498026415 -0.230167352434305 1.9071033477013
-0.359603204313031 -0.123899556827521 1.88649610299045
-0.336199700646374 -0.166770411394773 1.8724945439059
0.172876960291386 -0.191340253364791 1.91919757352957
0.193266453455031 -0.183549145446658 1.96575532324901
-0.378861359129894 -0.111666684380753 1.93214500592087
0.209637689540793 -0.137567659972597 1.98650228417399
-0.382560250989174 -0.0672011965570118 1.95280199799644
0.208668080272212 -0.126914397094525 2.03925623864109
-0.386957653433996 -0.0481702065617629 2.00339391516251
0.20990375280516 -0.0818963815157975 2.05750820403512
-0.387137698728398 -0.00418450956486722 2.0333138020672
0.205823917025984 -0.0677137034314862 2.10220352311186
-0.391121978284884 0.0102964941427984 2.07737682941479
0.205217103823333 -0.0258801967542785 2.13446394221678
-0.390051565036502 0.0543886955991662 2.09647517686185
0.201264185259301 -0.0035282418770464 2.1833183878486
-0.391813605291673 0.0644865093791858 2.14985463467104
0.198124716677782 0.0412431865673459 2.20347312806212
-0.376641667482895 0.109019788185787 2.17152002201723
0.178351815281042 0.0536402640191003 2.25133860169406
-0.357475416726172 0.115724802736623 2.21919613223821
-0.322184850228905 0.152862926430767 2.23451853435996
0.120290584420686 0.103923565012222 2.29846665640901
0.156241121472687 0.0983622237747834 2.26265658326871
-0.287411777633391 0.14939312878366 2.27113189628638
-0.239114418565391 0.17383933165865 2.27277229716773
-0.197645994196661 0.1540011929047 2.2970385514554
-0.152821996381378 0.168455718029475 2.28692339168044
-0.115600981574727 0.152053201267962 2.30291455379116
-0.0679220216712072 0.155469568229361 2.30242326334382
-0.0175437703228888 0.156150989390945 2.30441881972894
0.03262829900802 0.135658486587198 2.319723420929
0.0803040165579278 0.140397737483166 2.29929484667512
-0.292380672751458 -0.139751009563817 1.80758513354005
-0.254986745023724 -0.177242309534252 1.81013533620255
-0.208710506924486 -0.176287563931949 1.79341177503222
-0.164337286988449 -0.203293882333266 1.81410200062101
-0.114688224135079 -0.185779049006131 1.80160466409258
-0.0725990189231375 -0.199558521857739 1.81559325864525
-0.030588109827994 -0.214794120159581 1.83082892753062
0.0156426129531445 -0.19910612078548 1.81972526881956
0.059229293305225 -0.218665770374527 1.84315108192901
0.104460082181258 -0.194516672088803 1.84194042894893
0.143328168458277 -0.195500165559269 1.87787603613395
-0.354689039982483 -0.0868284872737471 1.85799016774757
-0.330091275653508 -0.132454537504081 1.84303217605766
0.178765803968652 -0.156565634106093 1.88948926720697
0.199377026821823 -0.14825761077379 1.93599414538988
-0.373002508195486 -0.0744049759934089 1.90236778587291
0.215468583323954 -0.10317329285644 1.95582917884753
-0.375779015033998 -0.0268071114458233 1.91974912046739
0.215039172431609 -0.0911613123705739 2.00677787261972
-0.38044472036488 -0.0211371124762892 1.96406649092696
0.215684308349203 -0.0434884922545225 2.03189133496226
-0.381855640841639 0.00857109680994015 1.99550972971392
0.211123174343792 -0.0300205271302551 2.0803279061559
-0.384293424457676 0.0464380376552981 2.04116954148593
0.211655038719539 0.013438693336997 2.1037089189155
-0.384189185748945 0.0884555411177565 2.06734780510432
0.207213963599833 0.0268068471789215 2.15103017599559
-0.385923160964769 0.0988300555170648 2.12067849693304
0.204628880868632 0.0741086642231933 2.17231672885374
-0.369709657537493 0.144604994469218 2.14481092605943
0.185239379234181 0.0878739569454604 2.22012874600046
-0.350227214644502 0.151274727850448 2.19143557835352
-0.315185148205819 0.18800693399026 2.20583896270614
0.124953821398703 0.139530553100625 2.26947557693343
0.162484725579758 0.133237105366038 2.23266184806818
-0.279463963256836 0.184425897346551 2.2427303855087
-0.233009206074503 0.209453657653561 2.24250254972297
-0.190955501838023 0.191620492318788 2.26507775402179
-0.140432766987332 0.205186091381717 2.25601670793038
-0.100898098732343 0.187321470042345 2.27338252778919
-0.0526364231343414 0.190507558889147 2.27311854420348
-0.00456328798537328 0.191720931175157 2.2745390281508
0.0358250059901351 0.169038383779625 2.29183129091186
0.0873426662822266 0.173598449101527 2.27038640396208
-0.29371745962754 -0.10289503192055 1.78334889084843
-0.248672719725824 -0.140922958214637 1.77922406128125
-0.200800622292053 -0.142322884460387 1.76417738009243
-0.159330617101301 -0.170174666731509 1.78591862089881
-0.109584532496373 -0.15036657784322 1.77150597689874
-0.065930559770781 -0.161414954677492 1.78318107795189
-0.0260166066921146 -0.176196664192781 1.79791828777735
0.0174419465967082 -0.16133146686407 1.78739056578154
0.0619155045623209 -0.183608201608791 1.81239492010219
0.108469196686619 -0.159884119662955 1.81125523969819
0.14559401815667 -0.163519118625477 1.84694639353719
-0.349408372655167 -0.0491439295154614 1.82936625040314
-0.327436348955695 -0.0960674960010561 1.81695706288655
0.179240585399079 -0.127313836665573 1.85591693343209
0.205199079844857 -0.112955611219664 1.90505106377092
-0.366982716823628 -0.0358567193058183 1.87176251954198
0.222320018639146 -0.0650676760573517 1.93646876770822
-0.369623829114946 0.0116232193631302 1.8948109541712
0.220739856516607 -0.0527204020523511 1.98188413780814
-0.374835205580239 0.0244510202413268 1.94456990370761
0.221711577035 -0.00612395172046306 2.00217412333553
-0.378404557356588 0.0502267321142106 1.99229281252866
0.217236634342141 0.00633030564155533 2.05048467218831
-0.377627173037945 0.0925078555743337 2.01277000497711
0.217918110648348 0.0502093005692867 2.0723642021233
-0.378929517965772 0.126922248730156 2.04638962096846
0.213391708205661 0.063821086779462 2.12105365711199
-0.37958254709036 0.134441142912148 2.09614316564864
0.21048031485775 0.109347721270256 2.14300468892635
-0.363471622793977 0.179842581592692 2.1156654415163
0.191542538009821 0.12202267011051 2.19016329660253
-0.343419576470811 0.186907266464439 2.16260289926505
-0.309174336788412 0.223088869030431 2.17601511469919
0.131617176177188 0.174500551221004 2.23916937709649
0.168707333965378 0.1681759615637 2.20259051372003
-0.273738702503542 0.219379354648378 2.21283460497103
-0.227555269862503 0.244607823488749 2.21238467668672
-0.18384661600885 0.227331535746831 2.2347763432205
-0.135250814135147 0.239547686900863 2.22674922442024
-0.0875874046785799 0.224462987696972 2.24217042261959
-0.0375808769107367 0.225408897868564 2.24391959486703
0.00892940037406123 0.225833289424589 2.24593752145102
0.0480970572029565 0.20212552027876 2.26237564937551
0.0942876119097417 0.208604484465729 2.2401422839995
-0.256423694713058 -0.10287020067325 1.75779711916989
-0.214895664412305 -0.106183983220353 1.74408664165923
-0.168496296758409 -0.103239342714498 1.73787786524113
-0.153498009439975 -0.137282039564758 1.75883741968952
-0.116331639819536 -0.109211152678122 1.74461165037343
-0.0695428131442357 -0.121122736828558 1.75432726658527
-0.0226373045578504 -0.13230170473984 1.76412677426123
0.0252406783233336 -0.121361968160072 1.76168067066687
0.0648010776532741 -0.149346810483871 1.78376190335365
0.109148708116233 -0.123064178499812 1.78413369000132
0.149560906685621 -0.127466757095615 1.81682981757778
-0.337200344114021 -0.0116459640703474 1.80485377415908
-0.320405867871887 -0.0581048618342579 1.78949380110198
0.198179508218779 -0.0899359142957529 1.85948985209127
0.215853291046353 -0.0677561669723821 1.89331070864806
-0.357439049074673 0.00384556059807739 1.84461080148713
0.221208079972818 -0.0245763057861154 1.90491299137552
-0.354650395112093 0.0477762505671214 1.86666563957134
0.22404578208138 -0.0137730255852509 1.95050056126737
-0.364351298739939 0.0603842676068306 1.91183421527536
0.220422545438256 0.0293989419426986 1.97026267540006
-0.371310369173348 0.0767410838549502 1.95801074198458
0.220619769900183 0.0436707513339618 2.01818923375982
-0.365425658452101 0.122021395264056 1.97383299837935
0.217395241680833 0.0856787072104118 2.04116063480209
-0.368521479826579 0.148507606491241 2.01026037425033
0.217223906210156 0.100172727778826 2.08879012790163
-0.372488648922835 0.16882273623172 2.06529513818177
0.211173693054977 0.14131131607463 2.11185865593887
-0.35482440278956 0.209670314171946 2.08107804396494
0.1956930131975 0.156954693138204 2.16033300647807
-0.337393058182792 0.220593001671766 2.13073718634559
-0.301926694105567 0.253125207658515 2.14324929910793
0.136544875046409 0.20950122041549 2.20747102753705
0.168450909067619 0.202381987508927 2.17033083192826
-0.266491916619061 0.253634358010569 2.18223165163315
-0.217956220836558 0.276475376352895 2.17722625924156
-0.180640475258136 0.262160446945529 2.2020813533872
-0.13886033308716 0.271072755573097 2.19156877177753
-0.0947025438540033 0.261157592913938 2.2054835836513
-0.050031716715196 0.256883411391466 2.21182047761031
4.1817730311311e-05 0.256404874840929 2.21346482790888
0.0520291579840565 0.238500253427479 2.23004652909972
0.0973807558795053 0.240016670221082 2.20745229139544
-0.281927837671996 -0.0622561473599925 1.75695790561069
-0.236547868542301 -0.0627952442191712 1.73460181218262
-0.188878141807111 -0.0639419610924924 1.72494845326436
-0.137005583853299 -0.0678188992671066 1.72785521705225
-0.0864734640085765 -0.074365756116736 1.73436552575377
-0.0403108594941522 -0.0842858619288328 1.7414772230281
0.00380036810313701 -0.0837821031061151 1.74545909142229
0.0508030553845459 -0.0734347990276173 1.74766500860868
0.0713687259716194 -0.108650956290914 1.76246261594604
0.103272166882456 -0.0729503501571462 1.76219675746804
0.139841698480451 -0.0905954057379164 1.78851454138415
-0.302017655383407 -0.0205826541044261 1.76615620046357
-0.276977102451597 0.0215061799077376 1.75305652617885
-0.259500018411422 -0.0213814487251327 1.73876186124043
0.149918644952267 -0.0495171150034203 1.78666424299298
0.176191653852862 -0.0836992097935809 1.82111662588685
0.179350884486127 -0.0361540265152349 1.81493786340279
-0.334314289660142 0.0423149789354677 1.81767483451353
-0.314468931771747 0.0206813657127291 1.78322330888388
0.20355612221303 -0.0427642730639127 1.85255758554624
0.208724957443214 -0.000913578345408506 1.87034268290166
-0.33118846115542 0.0795514378526759 1.84474566810738
0.21450358760728 0.0242385993608865 1.91411716687415
-0.341112622201556 0.0987356188634311 1.88450932664727
0.209377354109422 0.0609922302941715 1.94236783428831
-0.353612088613696 0.108667574180537 1.92439742386926
0.211925780572528 0.0811345162786686 1.98497064211691
-0.342716794197941 0.147794575436428 1.93885781896467
0.206938212309201 0.117764893610788 2.01290033367133
-0.346646773422129 0.175451030833218 1.97590291262339
0.20928492061299 0.137727052715628 2.05528470136757
-0.360160193017279 0.189657744486449 2.02883706442561
0.201629745644513 0.172891446683461 2.08249706925567
-0.326527961107835 0.246528434619738 2.0936593659626
-0.338433025013118 0.231837937269578 2.04482631107131
-0.307650159977203 0.264833641045479 2.05166095243086
0.192137902478093 0.187326883553288 2.12706911207043
0.178688617326615 0.21401976368566 2.08408604819461
0.165423224040949 0.225781312049887 2.1296034336759
-0.258831394096214 0.279456314710351 2.14591609503723
-0.292637761631872 0.273714752527273 2.10452449730602
-0.25087282475849 0.295680119944907 2.10384154915961
0.132693947953837 0.241212402253612 2.16912386935085
0.100206264330043 0.273922305444009 2.1339271270153
0.0879320392335875 0.266043111820475 2.17263092454377
-0.211692095574161 0.297200942486266 2.13763314381541
-0.167687502737519 0.291338034121692 2.15723943994166
-0.114766645213024 0.28914476865694 2.15956325328897
-0.0702782722982393 0.284217132963873 2.16823739629399
-0.0264518397542718 0.281010380131451 2.17319050206117
0.0162893884465661 0.280343713271872 2.17257347598213
0.049540239184985 0.265527119141306 2.19549856949429
-0.210676246369023 -0.0212539523397552 1.72274923153061
-0.159380691005715 -0.0249453362306086 1.71978246191703
-0.108597994976029 -0.0289453114007444 1.7254374441977
-0.0607094820047214 -0.0337325550406513 1.73097904755135
-0.0158679955850664 -0.0372465352812937 1.73613248791137
0.0282003446287981 -0.033030050539563 1.74101945294274
0.0767911144244632 -0.0316224297431882 1.74881444462704
-0.232763611861322 0.0198159165598543 1.73224665929704
-0.205660517741555 0.0572988440631629 1.73719409711037
-0.181362169652462 0.0182819568802438 1.72288215783938
-0.130554412840658 0.0150494036395136 1.72598949227558
-0.0828785106075097 0.0139968579464061 1.73192434735546
-0.0355978080683459 0.0106238363162282 1.73737403996014
0.0091744300097439 0.0121307638213713 1.74351330742239
0.056113960165046 0.01141068302435 1.74961397340614
0.104267000642376 0.012469865135661 1.76427190327511
0.151406366394492 0.00311870338780514 1.79149145048761
0.120306410012891 -0.027954390116665 1.76627684999256
-0.295116117815211 0.0606507766809369 1.78205167762012
-0.263272822438582 0.0991860348565403 1.7852940637625
-0.252561286253836 0.0620001790865235 1.75442667175711
0.127212336269658 0.0455300965418192 1.78944902960682
0.185319229922935 0.00543513974890762 1.82912219649253
0.163302487044684 0.0456680558226493 1.82134587459614
-0.30303903017045 0.0907792710057562 1.81379817745129
-0.2698750965926 0.129121472674555 1.82208151438957
0.193682248241549 0.040639071738258 1.86459030774886
0.165653645564301 0.0797352025093952 1.85630629014343
-0.307743425362881 0.122392524444592 1.85417812570392
-0.276977274124961 0.158434835290403 1.86073246898905
0.192549606168893 0.0701890781767785 1.89845466197892
0.163610093350904 0.111034443902059 1.8924726521473
-0.318918045065871 0.145724720273559 1.89496354361636
-0.281913393149035 0.185627189600223 1.89535190832693
0.191032061818589 0.101811230339763 1.93624445164128
0.162470329285078 0.141359373023498 1.92885886087607
-0.315909766852382 0.182995009338686 1.93087658165538
-0.280089450365377 0.218523014992274 1.93029752548413
0.190244208799372 0.129279544826814 1.97049005661273
0.161695531000196 0.171034842585668 1.96503174295481
-0.313247417567551 0.216896162707623 1.96405760361887
-0.279607637313839 0.253033477828637 1.96999127350574
0.189073982219361 0.160346029395067 2.00851601335707
0.160372158162222 0.200922028066517 2.00059028609658
-0.336783216953969 0.215077446286947 2.00043271362315
-0.307678019221047 0.251856711235701 2.00617749523404
0.187265365382707 0.188259550394118 2.0422458108153
0.157046379544162 0.228129825748652 2.03788481688692
-0.274537738070997 0.287841390072018 2.06335274704234
-0.269463499729786 0.281679993428582 2.01499193187491
-0.237028030423393 0.30203007511628 2.0496604428204
0.134794565452825 0.255579575661437 2.1228097937216
0.148511994547794 0.246750494586244 2.08057926756584
0.108466225972412 0.274067739814902 2.08189497168314
-0.212519269878997 0.307790693384678 2.08979149221789
-0.186965826240477 0.310401969926943 2.05405406326682
-0.171985262224687 0.307433206527717 2.10835116591188
-0.143031596811533 0.308837109205544 2.06742508422288
-0.129504805725137 0.303444610878996 2.11741450869149
-0.0989020987988055 0.305572118198783 2.07248156134341
-0.0826985996677536 0.300539062302068 2.12008936363727
-0.0540322263139047 0.302188855126994 2.0757830175639
-0.0383887498713767 0.297092829463561 2.12600803715802
-0.0104457806482784 0.298903766367007 2.07936154129254
0.00614175964333127 0.294427377319165 2.12790510231938
0.0337818601655864 0.295734787235371 2.08714073465066
0.0518784992505668 0.287293657483816 2.14258049064169
0.071559979415811 0.288890274279516 2.09943820972943
-0.175026379844412 0.0900851563603376 1.75158895179012
-0.152371475457251 0.05640373004605 1.73515444706244
-0.106660479123675 0.0587810744344583 1.74277056739045
-0.0579035886552787 0.0547144752360468 1.7481602987207
-0.0130116247313447 0.0564967327115929 1.75565942982657
0.0323854758242436 0.0557378451802383 1.76213299521672
0.0784359692519557 0.0517329774293537 1.76920931193958
-0.220104041303549 0.0976853669444452 1.76367269597198
-0.177641371411709 0.124263897135857 1.77972686441886
-0.131516552151938 0.0999388397930964 1.76322467260914
-0.0805358858980333 0.0931761769377548 1.76684226426837
-0.0362426971380004 0.0963420643270888 1.77684575608404
0.00828580993095346 0.0962911913467791 1.78459484087839
0.0534920439892122 0.0934954219743094 1.7902518915133
0.0969770531563194 0.0837306735708366 1.79696475895974
0.131619889076592 0.0856824042387016 1.82210344428338
-0.225187706075 0.130759639859099 1.79704199420641
-0.18543590490513 0.155144161493079 1.81546301419535
-0.139480567206438 0.139729334597034 1.80134018141421
-0.100213596291357 0.124463911971123 1.79145718909373
-0.0574528548532435 0.129419265961596 1.80576155459843
-0.0137476257759759 0.129993438332357 1.81525712548133
0.0343915375809002 0.126415709454125 1.82076181778643
0.0842818456229488 0.118737893827908 1.82647922809875
0.129090936389688 0.115895681517222 1.85517410873692
-0.232166489947556 0.160421398079168 1.83380934733326
-0.187253841942981 0.184864656472359 1.85007646552736
-0.141156867676393 0.171002994808822 1.83779778345675
-0.0944866087593982 0.155364639920823 1.82881560315252
-0.0475830050185402 0.161689313932331 1.84572154233875
0.00263825715313451 0.157884229480775 1.85137889756893
0.0504686078340331 0.15390216088994 1.85635857451429
0.0926189851342281 0.146054621831805 1.86361851426489
0.127799386481007 0.14788013646688 1.89302689207456
-0.235775535682027 0.189283776858083 1.86828112571948
-0.189902441241237 0.213127112020101 1.88307270375491
-0.140911217933634 0.202529536434555 1.87494047481487
-0.0982763158023441 0.185684729491099 1.86372410426584
-0.0604559803808085 0.193829808468259 1.8809391913135
-0.0157095302055928 0.188222650008974 1.88337131029278
0.0323251192657239 0.184748922996402 1.88897687608134
0.0814209782244611 0.178439880622272 1.89634884477534
0.126640968309099 0.176597819050204 1.92701877509658
-0.239117673297463 0.217355364340812 1.90175715555217
-0.196363256882569 0.241021425546104 1.91607826965161
-0.146328881440312 0.232295487658448 1.90886814696999
-0.0970435430903868 0.220827377123418 1.9053214874868
-0.0454910407667 0.220959518542804 1.91587929056375
0.00270785447233685 0.216511194137578 1.92037194654014
0.0491405016669763 0.213196904053393 1.92590709520445
0.0906860591531022 0.205967929300226 1.93435763614483
0.125712648831663 0.208047968813576 1.96459215259727
-0.243885881727988 0.247523636054752 1.93834630010567
-0.206161014683386 0.269274919465831 1.95091226232263
-0.159163351518011 0.263496527824421 1.94305969223173
-0.112507017167972 0.253978907081695 1.94120619326625
-0.0678239987223616 0.249756842756959 1.94525456583149
-0.0188271274280046 0.247636219299507 1.95264718448227
0.0300084765839874 0.244175676851757 1.95842951279803
0.079141651286762 0.238481857925397 1.96692033476416
0.124021035027735 0.236197110199929 1.99836039902716
-0.239793289049749 0.279357507220674 1.97988619371123
-0.183320713142609 0.289831937737749 1.98091987487835
-0.134555301544875 0.284118060119531 1.97884182211973
-0.0898857096475517 0.279619973486293 1.98179706870275
-0.0449859881641921 0.275735546675359 1.98594658326077
0.00141375944390768 0.272852717202988 1.99225013830042
0.0465123767741857 0.270029876227846 1.99851501026449
0.0872546466311849 0.263125179530003 2.00796613889605
0.119173608615953 0.26032881687237 2.0410831936368
-0.214950002943009 0.299488719644163 2.01255250598824
-0.16080826597106 0.303123557419312 2.01835546204603
-0.115010500117012 0.299819714967956 2.02391925561107
-0.0699149697754003 0.296071706257452 2.02760230474389
-0.0241265705350372 0.292279084380999 2.03143063758044
0.0230446852400896 0.289217995245158 2.03835365822897
0.0700193774296636 0.283952307329425 2.04801183535868
3 0 1 2
3 0 2 4
3 3 0 4
3 3 4 6
3 5 3 6
3 5 6 8
3 7 5 8
3 7 8 10
3 9 7 10
3 9 10 12
3 11 9 12
3 13 11 14
3 14 11 12
3 13 14 15
3 16 17 18
3 16 18 1
3 0 19 1
3 19 16 1
3 0 3 20
3 19 0 20
3 3 5 21
3 20 3 21
3 5 7 22
3 21 5 22
3 7 9 23
3 22 7 23
3 9 11 24
3 23 9 24
3 24 11 25
3 25 11 13
3 13 15 26
3 27 13 26
3 25 13 27
3 27 26 28
3 17 16 30
3 30 16 29
3 29 19 31
3 29 16 19
3 31 20 32
3 31 19 20
3 32 21 33
3 32 20 21
3 21 22 33
3 33 22 34
3 22 23 34
3 34 23 35
3 23 24 35
3 35 24 36
3 24 25 36
3 36 25 37
3 37 27 38
3 37 25 27
3 38 28 39
3 38 27 28
3 30 40 41
3 30 29 40
3 29 31 42
3 40 29 42
3 31 32 43
3 42 31 43
3 32 33 44
3 43 32 44
3 33 34 45
3 44 33 45
3 34 35 46
3 45 34 46
3 35 36 47
3 46 35 47
3 36 37 47
3 47 37 48
3 37 38 48
3 48 38 49
3 49 39 50
3 49 38 39
3 40 51 52
3 41 40 52
3 51 42 53
3 51 40 42
3 42 43 53
3 53 43 54
3 43 44 54
3 54 44 55
3 44 45 55
3 55 45 56
3 45 46 56
3 56 46 57
3 46 47 58
3 57 46 58
3 47 48 59
3 58 47 59
3 48 49 60
3 59 48 60
3 49 50 61
3 60 49 61
3 51 62 63
3 52 51 63
3 51 53 64
3 62 51 64
3 53 54 65
3 64 53 65
3 54 55 66
3 65 54 66
3 55 56 67
3 66 55 67
3 56 57 67
3 67 57 68
3 57 58 69
3 68 57 69
3 58 59 69
3 69 59 70
3 59 60 70
3 70 60 71
3 71 61 72
3 71 60 61
3 62 73 74
3 63 62 74
3 62 64 75
3 73 62 75
3 64 65 75
3 75 65 76
3 65 66 76
3 76 66 77
3 66 67 77
3 77 67 78
3 67 68 78
3 78 68 79
3 79 69 80
3 79 68 69
3 80 70 81
3 80 69 70
3 81 71 82
3 81 70 71
3 82 72 83
3 82 71 72
3 74 73 85
3 85 73 84
3 84 73 86
3 86 73 75
3 75 76 86
3 86 76 87
3 76 77 88
3 87 76 88
3 77 78 89
3 88 77 89
3 78 79 90
3 89 78 90
3 79 80 91
3 90 79 91
3 80 81 92
3 91 80 92
3 81 82 93
3 92 81 93
3 93 83 94
3 93 82 83
3 84 95 85
3 84 86 96
3 97 84 96
3 95 84 97
3 96 87 98
3 96 86 87
3 87 88 98
3 98 88 99
3 88 89 99
3 99 89 100
3 89 90 100
3 100 90 101
3 101 91 102
3 101 90 91
3 102 92 103
3 102 91 92
3 92 93 103
3 105 103 104
3 103 93 104
3 93 94 104
3 96 106 97
3 96 98 107
3 106 96 107
3 98 99 108
3 107 98 108
3 99 100 109
3 108 99 109
3 100 101 110
3 109 100 110
3 101 102 111
3 110 101 111
3 111 102 112
3 112 102 103
3 103 105 112
3 117 114 115
3 116 113 117
3 117 113 114
3 116 117 119
3 118 116 119
3 118 119 121
3 120 118 121
3 120 121 123
3 122 120 123
3 122 123 125
3 124 122 125
3 124 125 127
3 126 124 127
3 126 127 128
3 129 130 131
3 114 129 131
3 114 113 129
3 113 2 129
3 129 2 1
3 4 113 116
3 4 2 113
3 6 116 118
3 6 4 116
3 8 118 120
3 8 6 118
3 10 120 122
3 10 8 120
3 12 122 124
3 12 10 122
3 14 124 126
3 14 12 124
3 133 126 128
3 15 14 126
3 15 126 133
3 132 15 133
3 132 133 134
3 135 136 137
3 137 17 135
3 137 18 17
3 18 137 130
3 129 18 130
3 18 129 1
3 15 132 26
3 139 132 134
3 139 138 132
3 138 28 26
3 132 138 26
3 138 139 140
3 136 135 142
3 142 135 141
3 17 30 135
3 135 30 141
3 143 39 28
3 138 143 28
3 143 140 144
3 143 138 140
3 141 145 146
3 142 141 146
3 41 145 141
3 30 41 141
3 147 39 143
3 147 50 39
3 147 144 148
3 147 143 144
3 145 149 150
3 146 145 150
3 52 149 145
3 41 52 145
3 151 50 147
3 151 155 50
3 151 148 152
3 151 147 148
3 149 153 154
3 150 149 154
3 63 153 149
3 52 63 149
3 155 61 50
3 155 72 61
3 155 151 156
3 156 151 152
3 154 157 158
3 154 153 157
3 74 157 153
3 63 74 153
3 159 72 155
3 159 83 72
3 159 156 160
3 159 155 156
3 158 157 162
3 162 157 161
3 74 85 161
3 157 74 161
3 163 83 159
3 163 94 83
3 163 160 164
3 163 159 160
3 161 165 162
3 165 95 166
3 165 161 95
3 161 85 95
3 165 166 167
3 95 97 166
3 105 104 168
3 170 94 163
3 170 168 94
3 169 168 170
3 94 168 104
3 163 164 170
3 166 171 167
3 173 171 172
3 172 171 106
3 171 97 106
3 171 166 97
3 172 107 174
3 172 106 107
3 174 108 175
3 174 107 108
3 175 109 176
3 175 108 109
3 176 110 177
3 176 109 110
3 177 111 178
3 177 110 111
3 178 112 180
3 178 111 112
3 181 105 168
3 181 180 105
3 179 178 180
3 180 112 105
3 168 169 181
3 172 182 173
3 182 172 183
3 183 172 174
3 174 175 184
3 183 174 184
3 175 176 185
3 184 175 185
3 176 177 186
3 185 176 186
3 177 178 187
3 186 177 187
3 187 179 188
3 187 178 179
3 179 180 229
3 189 190 191
3 114 131 191
3 115 114 191
3 115 191 192
3 115 192 193
3 117 115 193
3 119 193 194
3 119 117 193
3 119 194 121
3 121 194 195
3 121 195 123
3 123 195 196
3 123 196 125
3 125 196 197
3 127 197 198
3 127 125 197
3 128 198 199
3 200 128 199
3 128 127 198
3 200 199 201
3 202 203 204
3 131 130 189
3 190 189 204
3 189 130 202
3 189 202 204
3 131 189 191
3 128 200 133
3 134 200 205
3 206 205 201
3 134 133 200
3 205 200 201
3 205 206 207
3 136 208 203
3 202 137 136
3 202 136 203
3 137 202 130
3 134 205 139
3 139 205 207
3 140 139 207
3 211 207 209
3 136 142 208
3 208 142 210
3 211 140 207
3 211 144 140
3 146 212 210
3 142 146 210
3 148 144 213
3 213 144 211
3 150 214 212
3 146 150 212
3 215 148 213
3 215 152 148
3 154 216 150
3 150 216 214
3 219 152 217
3 217 152 215
3 158 218 216
3 154 158 216
3 219 156 152
3 219 160 156
3 158 220 218
3 158 162 220
3 221 160 219
3 221 164 160
3 162 165 222
3 223 220 222
3 220 162 222
3 165 167 222
3 169 170 224
3 225 164 221
3 224 170 164
3 224 164 225
3 222 226 223
3 167 171 227
3 226 167 227
3 226 227 228
3 226 222 167
3 171 173 227
3 180 181 229
3 181 169 230
3 231 169 224
3 230 169 231
3 230 229 181
3 224 225 271
3 227 232 228
3 232 182 233
3 232 173 182
3 227 173 232
3 182 183 234
3 233 182 234
3 183 184 234
3 234 184 235
3 184 185 235
3 235 185 236
3 185 186 236
3 236 186 237
3 186 187 237
3 237 187 238
3 238 188 239
3 238 187 188
3 188 179 229
3 240 239 188
3 240 188 229
3 229 230 240
3 191 190 242
3 242 190 241
3 192 242 243
3 192 191 242
3 192 243 244
3 193 192 244
3 194 244 245
3 194 193 244
3 194 245 246
3 195 194 246
3 195 246 247
3 196 195 247
3 196 247 248
3 197 196 248
3 197 248 249
3 198 197 249
3 199 198 249
3 250 199 249
3 201 199 251
3 251 199 250
3 204 252 253
3 204 203 252
3 190 253 241
3 190 204 253
3 206 251 254
3 206 201 251
3 207 206 255
3 255 206 254
3 203 256 252
3 203 208 256
3 257 209 255
3 255 209 207
3 210 258 208
3 208 258 256
3 211 209 259
3 259 209 257
3 212 260 210
3 210 260 258
3 213 211 259
3 261 213 259
3 214 262 260
3 212 214 260
3 215 213 261
3 263 215 261
3 216 264 214
3 214 264 262
3 217 215 263
3 265 217 263
3 218 266 264
3 216 218 264
3 219 217 265
3 267 219 265
3 218 268 266
3 218 220 268
3 221 219 267
3 269 221 267
3 223 270 268
3 220 223 268
3 225 221 269
3 271 225 269
3 223 226 272
3 270 223 272
3 272 228 273
3 272 226 228
3 274 231 275
3 274 230 231
3 275 231 271
3 271 231 224
3 273 228 276
3 276 228 232
3 276 233 277
3 276 232 233
3 233 234 278
3 277 233 278
3 234 235 279
3 278 234 279
3 235 236 280
3 279 235 280
3 236 237 281
3 280 236 281
3 237 238 282
3 281 237 282
3 238 239 283
3 282 238 283
3 327 239 284
3 284 239 240
3 240 230 274
3 284 240 274
3 241 285 286
3 242 241 286
3 242 286 243
3 243 286 287
3 243 287 288
3 244 243 288
3 245 288 289
3 245 244 288
3 245 289 246
3 246 289 290
3 246 290 247
3 247 290 291
3 247 291 248
3 248 291 292
3 248 292 293
3 249 248 293
3 249 293 250
3 250 293 294
3 250 294 295
3 251 250 295
3 252 296 297
3 253 252 297
3 241 297 285
3 241 253 297
3 254 295 298
3 254 251 295
3 254 298 299
3 255 254 299
3 256 300 252
3 252 300 296
3 257 255 299
3 301 257 299
3 258 302 300
3 256 258 300
3 259 257 303
3 303 257 301
3 260 304 258
3 258 304 302
3 261 259 303
3 305 261 303
3 262 306 304
3 260 262 304
3 263 261 305
3 307 263 305
3 264 308 262
3 262 308 306
3 265 263 307
3 309 265 307
3 266 310 308
3 264 266 308
3 267 265 309
3 311 267 309
3 266 312 310
3 266 268 312
3 269 267 311
3 313 269 311
3 270 314 312
3 268 270 312
3 271 269 315
3 315 269 313
3 270 272 316
3 314 270 316
3 316 273 317
3 316 272 273
3 318 275 319
3 318 274 275
3 275 271 315
3 319 275 315
3 273 276 320
3 317 273 320
3 276 277 320
3 320 277 321
3 277 278 322
3 321 277 322
3 322 279 323
3 322 278 279
3 279 280 323
3 323 280 324
3 280 281 324
3 324 281 325
3 281 282 325
3 325 282 326
3 282 283 326
3 326 283 327
3 283 239 327
3 327 284 328
3 284 274 318
3 328 284 318
3 285 329 330
3 286 285 330
3 286 330 287
3 287 330 331
3 287 331 332
3 288 287 332
3 288 332 289
3 289 332 333
3 289 333 334
3 290 289 334
3 290 334 335
3 291 290 335
3 291 335 292
3 292 335 336
3 292 336 337
3 293 292 337
3 293 337 294
3 294 337 338
3 294 338 339
3 295 294 339
3 296 340 341
3 297 296 341
3 285 341 329
3 285 297 341
3 298 339 342
3 298 295 339
3 298 342 343
3 299 298 343
3 300 344 296
3 296 344 340
3 301 299 343
3 345 301 343
3 302 346 344
3 300 302 344
3 303 301 347
3 347 301 345
3 304 348 302
3 302 348 346
3 305 303 347
3 349 305 347
3 306 350 348
3 304 306 348
3 307 305 351
3 351 305 349
3 308 352 306
3 306 352 350
3 309 307 353
3 353 307 351
3 310 354 352
3 308 310 352
3 311 309 355
3 355 309 353
3 312 356 310
3 310 356 354
3 313 311 355
3 357 313 355
3 314 358 356
3 312 314 356
3 315 313 359
3 359 313 357
3 314 316 360
3 358 314 360
3 360 317 361
3 360 316 317
3 362 319 363
3 362 318 319
3 319 315 359
3 363 319 359
3 317 320 364
3 361 317 364
3 320 321 364
3 364 321 365
3 321 322 366
3 365 321 366
3 322 323 366
3 366 323 367
3 323 324 368
3 367 323 368
3 324 325 369
3 368 324 369
3 325 326 370
3 369 325 370
3 326 327 371
3 370 326 371
3 327 328 371
3 371 328 372
3 328 318 362
3 372 328 362
3 329 373 374
3 330 329 374
3 330 374 331
3 331 374 375
3 331 375 376
3 332 331 376
3 332 376 333
3 333 376 377
3 333 377 378
3 334 333 378
3 334 378 379
3 335 334 379
3 335 379 336
3 336 379 380
3 336 380 381
3 337 336 381
3 337 381 338
3 338 381 382
3 338 382 383
3 339 338 383
3 340 384 385
3 341 340 385
3 329 385 373
3 329 341 385
3 342 383 386
3 342 339 383
3 342 386 387
3 343 342 387
3 344 388 340
3 340 388 384
3 345 343 387
3 389 345 387
3 346 390 388
3 344 346 388
3 347 345 391
3 391 345 389
3 348 392 346
3 346 392 390
3 349 347 391
3 393 349 391
3 350 394 348
3 348 394 392
3 351 349 395
3 395 349 393
3 352 396 350
3 350 396 394
3 353 351 395
3 397 353 395
3 354 398 396
3 352 354 396
3 355 353 399
3 399 353 397
3 356 400 354
3 354 400 398
3 357 355 399
3 401 357 399
3 358 402 400
3 356 358 400
3 359 357 403
3 403 357 401
3 358 360 404
3 402 358 404
3 404 361 405
3 404 360 361
3 406 363 407
3 406 362 363
3 363 359 403
3 407 363 403
3 361 364 408
3 405 361 408
3 364 365 408
3 408 365 409
3 365 366 410
3 409 365 410
3 366 367 410
3 410 367 411
3 367 368 412
3 411 367 412
3 368 369 412
3 412 369 413
3 369 370 413
3 413 370 414
3 370 371 415
3 414 370 415
3 371 372 415
3 415 372 416
3 372 362 406
3 416 372 406
3 373 417 418
3 374 373 418
3 374 418 375
3 375 418 419
3 375 419 420
3 376 375 420
3 376 420 377
3 377 420 421
3 377 421 422
3 378 377 422
3 378 422 423
3 379 378 423
3 380 423 424
3 380 379 423
3 380 424 425
3 381 380 425
3 382 425 426
3 382 381 425
3 382 426 427
3 383 382 427
3 384 428 429
3 385 384 429
3 373 429 417
3 373 385 429
3 386 427 430
3 386 383 427
3 386 430 431
3 387 386 431
3 384 432 428
3 384 388 432
3 389 387 431
3 433 389 431
3 390 434 432
3 388 390 432
3 435 389 433
3 435 391 389
3 390 436 434
3 390 392 436
3 393 391 435
3 437 393 435
3 394 438 436
3 392 394 436
3 395 393 439
3 439 393 437
3 396 440 438
3 394 396 438
3 397 395 439
3 441 397 439
3 398 442 440
3 396 398 440
3 399 397 443
3 443 397 441
3 400 444 398
3 398 444 442
3 401 399 443
3 445 401 443
3 402 446 444
3 400 402 444
3 403 401 447
3 447 401 445
3 402 404 448
3 446 402 448
3 448 405 449
3 448 404 405
3 450 407 451
3 450 406 407
3 407 403 447
3 451 407 447
3 405 408 452
3 449 405 452
3 408 409 452
3 452 409 453
3 409 410 454
3 453 409 454
3 410 411 454
3 454 411 455
3 411 412 456
3 455 411 456
3 412 413 456
3 456 413 457
3 457 414 458
3 457 413 414
3 414 415 459
3 458 414 459
3 415 416 459
3 459 416 460
3 416 406 450
3 460 416 450
3 418 461 462
3 418 417 461
3 419 462 463
3 419 418 462
3 419 463 464
3 420 419 464
3 420 464 421
3 421 464 465
3 421 465 466
3 422 421 466
3 422 466 467
3 423 422 467
3 424 467 468
3 424 423 467
3 424 468 469
3 425 424 469
3 426 469 470
3 426 425 469
3 427 426 471
3 471 426 470
3 429 428 473
3 473 428 472
3 417 473 505
3 417 429 473
3 430 427 471
3 520 430 471
3 431 474 475
3 431 430 474
3 428 476 472
3 428 432 476
3 433 431 475
3 477 433 475
3 434 478 476
3 432 434 476
3 479 433 477
3 479 435 433
3 434 480 478
3 434 436 480
3 437 435 479
3 481 437 479
3 438 482 436
3 436 482 480
3 439 437 483
3 483 437 481
3 440 484 482
3 438 440 482
3 441 439 483
3 485 441 483
3 442 486 440
3 440 486 484
3 443 441 487
3 487 441 485
3 444 488 442
3 442 488 486
3 445 443 487
3 489 445 487
3 444 446 488
3 488 446 490
3 491 445 489
3 491 447 445
3 490 446 492
3 492 446 448
3 492 449 493
3 492 448 449
3 494 451 495
3 494 450 451
3 451 447 491
3 495 451 491
3 449 452 496
3 493 449 496
3 496 453 497
3 496 452 453
3 453 454 498
3 497 453 498
3 498 455 499
3 498 454 455
3 455 456 500
3 499 455 500
3 456 457 501
3 500 456 501
3 457 458 502
3 501 457 502
3 458 459 503
3 502 458 503
3 503 460 504
3 503 459 460
3 504 460 494
3 494 460 450
3 461 505 506
3 462 461 506
3 507 463 462
3 507 462 506
3 465 463 508
3 508 463 507
3 464 463 465
3 465 508 509
3 465 509 466
3 466 509 510
3 466 510 467
3 467 510 511
3 467 511 468
3 468 511 512
3 468 512 513
3 469 468 513
3 469 513 470
3 515 470 514
3 470 513 514
3 470 515 471
3 472 516 473
3 518 516 517
3 518 505 516
3 461 417 505
3 505 473 516
3 505 518 506
3 515 514 519
3 474 430 520
3 521 520 519
3 520 471 515
3 520 515 519
3 474 520 524
3 476 522 472
3 516 472 523
3 472 522 523
3 516 523 517
3 520 521 524
3 477 475 524
3 524 475 474
3 525 477 524
3 478 526 522
3 476 478 522
3 527 477 525
3 527 479 477
3 478 528 526
3 478 480 528
3 481 479 527
3 529 481 527
3 482 530 480
3 480 530 528
3 483 481 531
3 531 481 529
3 484 532 530
3 482 484 530
3 485 483 531
3 533 485 531
3 486 534 484
3 484 534 532
3 535 485 533
3 535 487 485
3 486 536 534
3 486 488 536
3 537 489 535
3 535 489 487
3 490 538 539
3 536 490 539
3 488 490 536
3 538 540 539
3 541 542 543
3 541 489 537
3 542 541 537
3 541 491 489
3 490 492 538
3 545 493 544
3 538 492 493
3 538 493 545
3 540 538 545
3 544 546 545
3 547 548 549
3 543 495 541
3 547 494 495
3 547 495 543
3 608 547 543
3 495 491 541
3 493 496 544
3 544 497 550
3 546 544 550
3 544 496 497
3 550 497 551
3 551 497 498
3 498 499 551
3 551 499 552
3 499 500 552
3 552 500 553
3 500 501 553
3 553 501 554
3 554 502 555
3 554 501 502
3 502 503 556
3 555 502 556
3 503 504 556
3 549 504 547
3 556 504 549
3 504 494 547
3 506 557 507
3 507 557 558
3 508 507 558
3 508 558 559
3 509 508 559
3 509 559 560
3 510 509 560
3 510 560 561
3 511 510 561
3 511 561 562
3 512 511 562
3 514 512 563
3 563 512 562
3 513 512 514
3 517 564 518
3 518 564 557
3 566 564 565
3 557 564 566
3 557 506 518
3 558 566 567
3 558 557 566
3 559 567 568
3 559 558 567
3 560 568 569
3 560 559 568
3 561 569 570
3 561 560 569
3 562 570 571
3 562 561 570
3 563 562 571
3 572 563 571
3 574 514 563
3 572 574 563
3 573 519 574
3 574 519 514
3 519 573 521
3 522 575 523
3 577 575 576
3 577 517 575
3 564 517 577
3 575 517 523
3 564 577 565
3 573 574 572
3 521 573 579
3 580 573 578
3 579 573 580
3 579 524 521
3 524 579 525
3 522 581 575
3 522 526 581
3 576 581 582
3 576 575 581
3 583 580 584
3 583 579 580
3 583 525 579
3 583 527 525
3 526 585 581
3 526 528 585
3 582 585 586
3 582 581 585
3 587 584 588
3 587 583 584
3 587 527 583
3 587 529 527
3 528 589 585
3 528 530 589
3 586 589 590
3 586 585 589
3 591 588 592
3 591 587 588
3 591 529 587
3 591 531 529
3 532 593 589
3 530 532 589
3 590 593 594
3 590 589 593
3 595 592 596
3 595 591 592
3 595 531 591
3 595 533 531
3 534 597 593
3 532 534 593
3 594 597 598
3 594 593 597
3 599 596 600
3 599 595 596
3 599 533 595
3 599 535 533
3 534 601 597
3 534 536 601
3 602 597 601
3 602 598 597
3 603 599 600
3 604 603 600
3 603 535 599
3 603 537 535
3 536 539 601
3 606 540 605
3 606 602 540
3 602 601 539
3 540 602 539
3 605 607 606
3 608 609 610
3 608 543 609
3 604 542 603
3 609 543 542
3 609 542 604
3 542 537 603
3 540 545 605
3 605 546 607
3 612 607 611
3 605 545 546
3 607 546 611
3 612 613 614
3 612 611 613
3 614 615 616
3 614 613 615
3 616 617 618
3 616 615 617
3 618 619 620
3 618 617 619
3 620 621 622
3 620 619 621
3 622 623 624
3 622 621 623
3 610 548 608
3 624 623 548
3 624 548 610
3 548 623 549
3 548 547 608
3 546 550 611
3 611 550 613
3 613 550 551
3 551 552 615
3 613 551 615
3 552 553 617
3 615 552 617
3 553 554 619
3 617 553 619
3 554 555 621
3 619 554 621
3 621 555 623
3 623 555 556
3 556 549 623
3 565 625 626
3 567 566 626
3 626 566 565
3 567 626 627
3 568 567 627
3 568 627 628
3 569 568 628
3 569 628 629
3 570 569 629
3 570 629 630
3 571 570 630
3 572 571 631
3 631 571 630
3 572 631 578
3 576 632 577
3 625 632 633
3 565 577 632
3 565 632 625
3 625 633 634
3 626 625 634
3 626 634 627
3 627 634 635
3 627 635 628
3 628 635 636
3 628 636 629
3 629 636 637
3 629 637 630
3 630 637 638
3 631 638 639
3 631 630 638
3 640 578 639
3 578 573 572
3 578 631 639
3 578 640 580
3 576 641 632
3 576 582 641
3 633 641 642
3 633 632 641
3 633 642 643
3 634 633 643
3 634 643 644
3 635 634 644
3 635 644 645
3 636 635 645
3 636 645 646
3 637 636 646
3 637 646 647
3 638 637 647
3 638 647 648
3 639 638 648
3 640 648 649
3 640 639 648
3 584 580 640
3 649 584 640
3 582 650 641
3 582 586 650
3 642 650 651
3 642 641 650
3 642 651 652
3 643 642 652
3 643 652 653
3 644 643 653
3 644 653 645
3 645 653 654
3 645 654 646
3 646 654 655
3 646 655 647
3 647 655 656
3 647 656 648
3 648 656 657
3 648 657 649
3 649 657 658
3 588 584 649
3 658 588 649
3 586 659 650
3 586 590 659
3 650 659 651
3 651 659 660
3 651 660 661
3 652 651 661
3 652 661 662
3 653 652 662
3 653 662 654
3 654 662 663
3 654 663 664
3 655 654 664
3 655 664 665
3 656 655 665
3 656 665 666
3 657 656 666
3 657 666 658
3 658 666 667
3 592 588 658
3 667 592 658
3 590 668 659
3 590 594 668
3 660 668 669
3 660 659 668
3 660 669 670
3 661 660 670
3 661 670 671
3 662 661 671
3 662 671 663
3 663 671 672
3 663 672 664
3 664 672 673
3 664 673 665
3 665 673 674
3 665 674 666
3 666 674 675
3 666 675 667
3 667 675 676
3 596 592 667
3 676 596 667
3 594 677 668
3 594 598 677
3 668 677 669
3 669 677 678
3 669 678 679
3 670 669 679
3 670 679 680
3 671 670 680
3 671 680 681
3 672 671 681
3 672 681 682
3 673 672 682
3 673 682 683
3 674 673 683
3 674 683 684
3 675 674 684
3 676 684 685
3 676 675 684
3 600 596 676
3 685 600 676
3 598 686 677
3 598 602 606
3 678 686 687
3 678 677 686
3 678 687 679
3 679 687 688
3 679 688 680
3 680 688 689
3 680 689 681
3 681 689 690
3 681 690 682
3 682 690 691
3 683 691 692
3 683 682 691
3 684 692 693
3 684 683 692
3 685 693 694
3 685 684 693
3 694 604 685
3 685 604 600
3 598 606 686
3 606 607 695
3 686 606 695
3 686 695 687
3 688 687 696
3 696 687 695
3 688 696 697
3 689 688 697
3 689 697 698
3 690 689 698
3 690 698 699
3 691 690 699
3 691 699 700
3 692 691 700
3 692 700 701
3 693 692 701
3 610 609 694
3 701 610 694
3 701 694 693
3 609 604 694
3 607 612 695
3 695 612 696
3 696 612 614
3 614 616 697
3 696 614 697
3 616 618 698
3 697 616 698
3 618 620 699
3 698 618 699
3 620 622 700
3 699 620 700
3 622 624 701
3 700 622 701
3 624 610 701
