OFF
702 1400 0
-0.261307428147172 -0.325295416717774 2.19084332867035
-0.30664359915636 -0.311584908331902 2.17282594561879
-0.278534167826111 -0.331343778017443 2.14558973473989
-0.21446217428017 -0.331988298369678 2.19569413760595
-0.232634404449516 -0.342161831626012 2.15101652376238
-0.167670605596754 -0.336747547382566 2.19896589248345
-0.186258191900744 -0.346505324096935 2.15326311290732
-0.122310499894263 -0.340841601504267 2.20343075401629
-0.140945339593144 -0.350639581903428 2.15520742593231
-0.0774358051071098 -0.344735636880344 2.20824930714453
-0.0962037135815827 -0.354335785118221 2.15994381375812
-0.0299574945271681 -0.347840318097539 2.21596942171714
-0.050440923671626 -0.357644821648257 2.16852962443039
0.0181446063240706 -0.343454162288048 2.22435092825906
-0.00314485805075526 -0.359261959175115 2.17762519912392
0.0433838025218394 -0.350417546535114 2.186385507359
-0.329218730644961 -0.282693339823272 2.20075676895759
-0.358837006287883 -0.265498897437829 2.17310199792268
-0.337689754872001 -0.295822380711052 2.14495988661716
-0.288864611759334 -0.298597167002215 2.2206877892031
-0.242221155653948 -0.307629953023588 2.23284840683696
-0.194546118236611 -0.313017787092516 2.23680784319852
-0.147798184642243 -0.317010700456852 2.24228457146652
-0.10260043974192 -0.320446056025949 2.24820249052977
-0.0583232492280735 -0.32589790592523 2.25089237563442
-0.00969076306994633 -0.32674350347434 2.25823813113434
0.0641422067375293 -0.327356178442753 2.22993959592858
0.0355217033435269 -0.314647965152108 2.26594794199492
0.0816836251352095 -0.294634247176893 2.26352685519202
-0.316288310467343 -0.261498041434559 2.24214259007115
-0.356298421929879 -0.241182408327066 2.21388034576542
-0.270397075791141 -0.274913285628794 2.25989897622101
-0.220487657674156 -0.281316656031612 2.26811137506107
-0.172911570768386 -0.285715188849706 2.27345629683625
-0.125310024427758 -0.288194039254416 2.2807493531676
-0.0806251294099898 -0.290972742628348 2.28713743698128
-0.038408278179605 -0.30043643671551 2.28625553482335
0.0029369228632556 -0.292184036026438 2.29689069296004
0.0486327510679717 -0.278877493809073 2.29825177962243
0.0935258737509385 -0.256754122430043 2.29158231603098
-0.334463461161343 -0.22400555331344 2.26240991650406
-0.367493619264447 -0.20267707695988 2.23566684291258
-0.293585002675319 -0.2388315628141 2.28378687279098
-0.244630739635174 -0.249463603225675 2.29518444081591
-0.195887602303787 -0.251668616739978 2.30316924447632
-0.148459908452925 -0.256495882457164 2.30805067773763
-0.096981165007107 -0.257361448288362 2.31777317443506
-0.0421615812052571 -0.266865659225685 2.31944412932698
0.00828292589364543 -0.259599448578845 2.32877085653348
0.0588100681063024 -0.244220008369218 2.32737991596665
0.10365694669558 -0.218320143689279 2.31929554219007
-0.318552814344325 -0.199516330384197 2.30474520288772
-0.358906093849858 -0.181853217741907 2.2734198784531
-0.269402326775786 -0.216705160118438 2.31989516797488
-0.2220211124468 -0.219004680527316 2.33083402786062
-0.17649558644778 -0.220066446600175 2.33913279266744
-0.132576921104263 -0.227997755222302 2.3401512645545
-0.0990600658274767 -0.215961714896875 2.35922743090521
-0.0642612164231338 -0.235438873124925 2.3466879700917
-0.021954120180617 -0.231943603657627 2.35756958545329
0.0259675108236623 -0.225523697795437 2.35892613239692
0.0740829871548985 -0.206886065371737 2.35464390610008
-0.321672272467173 -0.158608966982004 2.34453916080221
-0.349654924851991 -0.161062104247498 2.30965005224285
-0.288854185431892 -0.185057636029684 2.34222862321303
-0.241819919082676 -0.187387656523101 2.35873703656778
-0.197090161401876 -0.186168407953138 2.36918709842126
-0.148203406166606 -0.19121432407414 2.37414667179673
-0.102780453913388 -0.18539755220434 2.38938322388756
-0.0554010091913544 -0.198926431195647 2.38545073586211
-0.00738626304273951 -0.198812443137443 2.39092488383295
0.0404125386770059 -0.191661183995701 2.38748358976761
0.0879596537380452 -0.169695445288315 2.38026729768572
-0.311054965624158 -0.133848502068569 2.37960883353624
-0.355062534814449 -0.121337003942765 2.34425101399643
-0.272455621093813 -0.158424011246298 2.37811932875845
-0.226503675537119 -0.152122962381285 2.39757292944715
-0.176490091419142 -0.156708344819848 2.40323141869483
-0.130706271882611 -0.156505728526881 2.41286306597264
-0.0791992582847597 -0.160605300030254 2.41931946130746
-0.0342803363485694 -0.167235308072668 2.42150012919781
0.0121017230056763 -0.164459705137959 2.42279018323081
0.0560752883740012 -0.157406845933995 2.41380290879154
0.09255258113698 -0.131832115789454 2.41255965229434
-0.306204219815991 -0.093772017158879 2.41504993500597
-0.340028569512 -0.102705769001476 2.38191616009793
-0.272865710648992 -0.1241239535005 2.41093080259294
-0.238274752201562 -0.112193135787337 2.42869955562695
-0.195569846843119 -0.120890723538765 2.43052365831942
-0.150461882529946 -0.121195352611222 2.43837698536277
-0.103275631366402 -0.124704318705969 2.44444199056283
-0.0546908029336379 -0.129002025856925 2.45023628158102
-0.00641859315793555 -0.132290673899196 2.4520856972792
0.045198164498557 -0.1268529253837 2.44452599529346
0.0926852313856223 -0.0959299956520232 2.43658218196024
-0.347298063556634 -0.0632567591157023 2.39847801184727
-0.268971438372196 -0.0742936195824482 2.44085071452546
-0.312397034021386 -0.0497150101912378 2.42964817874523
-0.219523314899941 -0.0750384882670709 2.45023464849343
-0.173513360402564 -0.0799763603030896 2.45550779640575
-0.126850804943517 -0.0811533943127331 2.46226609559797
-0.0810757027175122 -0.085958479880086 2.46756215997534
-0.034429919434513 -0.0906751119516368 2.47274175772198
0.0122332498950318 -0.0926006578542967 2.47082783894132
0.0566188516630969 -0.0866561629398662 2.46068643642988
0.0385021520919382 -0.0475448354569229 2.47686907602206
-0.285434189492151 -0.0226634766807942 2.44740714255581
-0.243046548354092 -0.0319077952641149 2.45756674696155
-0.194031981252364 -0.0339813206036937 2.46394305855183
-0.148289501270589 -0.035313653875183 2.46993015786374
-0.102018071684866 -0.0369668765545911 2.47592610615119
-0.0574866268438076 -0.0438952965785477 2.48109114345399
-0.00980013818617749 -0.0485006551263564 2.48422912626973
-0.256515158996495 -0.339583055913206 2.10647435874888
-0.280153655082415 -0.32584781320545 2.07081498147509
-0.25649094915154 -0.319554155954357 2.033262274949
-0.206932955322703 -0.346336691360841 2.10731343031379
-0.228413811873394 -0.337628142544368 2.06609754494953
-0.160890520132504 -0.3494830372843 2.1068260361342
-0.180250536228297 -0.338425306992609 2.06069135923529
-0.115497537505853 -0.352800475398603 2.10953539668871
-0.134950019564045 -0.340384467565095 2.06153617744241
-0.0702047751869934 -0.356692280148351 2.11741567474961
-0.0874076607951383 -0.34435023535538 2.06786473829952
-0.0253350029615561 -0.360770844986844 2.12798384679096
-0.0417355877823289 -0.349322292950672 2.07727491805241
0.0207066813151769 -0.359633475171851 2.13664307099787
0.00243036260165577 -0.353738038496102 2.08876303464989
0.0503655548347574 -0.34707832456217 2.09783716011154
-0.30797970123557 -0.318922523650822 2.11394292947945
-0.346232705018515 -0.288331107213158 2.09755964415814
-0.316688120845825 -0.304480405995006 2.06537885440839
0.088218740834615 -0.330466502280721 2.19054733540072
0.0639182402140901 -0.348126965591948 2.14593342108887
0.103713439959845 -0.326936971750101 2.14786284591974
-0.383877282086612 -0.229757678275072 2.16306520014234
-0.394001044714285 -0.217684438882235 2.11333931660246
-0.371517147679578 -0.260211555123646 2.12676057836588
0.109397635310689 -0.302038023142706 2.22394690714454
0.130099275715675 -0.300987257770814 2.17965036530801
0.147351585782154 -0.269583753020137 2.20670744870116
-0.385906100184011 -0.200834308759734 2.19428298875728
-0.401551119258678 -0.185058245938019 2.14779309886712
0.123486302549531 -0.266122862229664 2.25191034352177
0.154839907053525 -0.230073291789492 2.23700970673383
-0.389444668980958 -0.161948377422978 2.22779127967075
-0.401975393322722 -0.154889237111574 2.18394767704124
0.131566369809557 -0.225608141339078 2.27961393704737
0.161514999371264 -0.188057917186831 2.26092108957857
-0.383869508978377 -0.142605267315938 2.2654393071401
-0.40403762456323 -0.114429996523588 2.22292780004456
0.140462449869993 -0.184440360723003 2.30476246656114
0.166182116590238 -0.145990558154756 2.28683800243352
-0.3759510212141 -0.124296109640788 2.30421755864469
-0.399476112274419 -0.0963107306904531 2.26807905678574
0.117214676691296 -0.177177057724289 2.3438767586905
0.150044752749527 -0.13929952601161 2.32946887573131
-0.389451578330459 -0.0841475533149867 2.3160300907823
-0.407395161570816 -0.0499839875547952 2.28444469865167
0.124852986357948 -0.137131268971567 2.37209884703648
0.155377601367249 -0.0992239474490451 2.35489470176501
-0.373986133990111 -0.0763316041859076 2.35749959512666
-0.397903873780648 -0.0384962953005779 2.33174009983145
0.128516534755455 -0.0996828982997684 2.40011960687926
0.152520021400595 -0.0619531324823463 2.38616584017493
-0.376559481522888 -0.0310518767434665 2.37461006032238
-0.344490524000291 -0.019629288851822 2.4121159934433
-0.363962998663822 0.013774106185194 2.39213892580365
0.085744949310547 -0.0488350325795494 2.45626223084027
0.109387168406111 -0.00972917389683198 2.44180986992848
0.122523468613258 -0.057439236111541 2.42599759797483
-0.318863565172211 0.007921588236672 2.4311601091455
-0.266379340521138 0.0183879584794884 2.45306903031282
-0.298068209155134 0.0466625108558924 2.43535431130259
-0.216880822370338 0.00947658831596087 2.46205923852418
-0.169625262828699 0.0120802112540438 2.46732329636988
-0.123046265305288 0.0104072992832358 2.47288167718195
-0.0762540442270626 0.00866722894294719 2.47845148030032
-0.0333979277970144 -0.00231876556700462 2.48458404486675
-0.00764697679407156 0.0338676350067646 2.47840878997656
0.017257279371934 -0.00637683387041191 2.48294465677487
0.0660139574934322 -0.00655918781350221 2.46816972260933
-0.264356544432596 0.0757203213615795 2.43738097586555
-0.232971802442745 0.0519675477629348 2.45230696332374
-0.188821356543661 0.0569572872142884 2.45505051997883
-0.142746083488771 0.056666271189377 2.4595717897773
-0.0960970325768407 0.0543541545143843 2.46485028155974
-0.0477247460379916 0.0523113322994688 2.47017385624239
0.00830568996761311 0.0706730779655837 2.46238682612079
-0.344102309508886 -0.273071168295634 2.04795242183915
-0.327622282793153 -0.260748155820161 2.0086539261303
-0.297329715673705 -0.296471938472514 2.02351521205452
-0.248479146942235 -0.298190671545422 1.99673785006279
-0.206777038499642 -0.321401034869989 2.02355660547358
-0.156198735649773 -0.317630783368738 2.0168636850763
-0.106284256246057 -0.323021588428509 2.0252232566361
-0.0542826648638703 -0.327375588655554 2.03198181060445
-0.00904565141654988 -0.333102332984657 2.04099709782982
0.0349901465884144 -0.336373287159065 2.0572570068657
0.077560842492904 -0.318694605354269 2.05584068456754
0.0900608549710857 -0.330774776580004 2.10427322414789
0.116916330146238 -0.305365727797051 2.08560548828994
-0.373865596369295 -0.249635170935257 2.08044613963181
-0.391093127856976 -0.203557974672336 2.06580740381244
-0.367819398464016 -0.231578741182162 2.03665678424193
0.133484723448039 -0.30117075085478 2.13009160878669
0.149708559168693 -0.273692548330192 2.09780998038094
0.159627832031466 -0.268537821102385 2.15285091858225
-0.405099054862326 -0.169181836547881 2.10106551366492
0.179764411276396 -0.226624830936895 2.14872128594723
-0.407901116691705 -0.137030124942184 2.13251810321377
0.17164373265907 -0.232821957542667 2.19145679237486
-0.408801790481492 -0.113331436810757 2.17444239666725
0.177579835341434 -0.19002477375293 2.21371019370167
-0.410557672089402 -0.0729683761865307 2.18852148480619
0.180456144970086 -0.148963550584779 2.23623356389477
-0.410526711648734 -0.0634762524665497 2.23544301212293
0.181354255448001 -0.110654039263391 2.2621275470933
-0.413292759698695 -0.0151400438808283 2.25212690665458
0.173561096421048 -0.0963406189198596 2.30705674350777
-0.409468734107093 -0.00237475780777726 2.30207509169415
0.174020711237976 -0.056235729185975 2.33841689866767
-0.392675362927308 0.0076647713425574 2.34979129662348
-0.398703625127786 0.0439398821049266 2.31945826195795
0.142638236021684 -0.0164757444902225 2.40821433246213
0.166996041080848 -0.0218935886374328 2.36739399817276
-0.3750115950819 0.0513005173853237 2.36542064321234
-0.340334366314579 0.0482088742266749 2.40687674546036
-0.346857140845944 0.0887124767491643 2.37760963292576
0.0422673540195464 0.0347290434101792 2.46935026311006
0.0887767485373327 0.0333339434358664 2.44785459799705
0.127712527390601 0.0297112777335841 2.41601273620634
-0.310179725881201 0.0859959003422819 2.41122135265459
-0.269414685506383 0.112427553412748 2.4135406655274
-0.217124061454534 0.0969273091688932 2.43387781288511
-0.168072136172697 0.0986386161725891 2.43646973330907
-0.120749823192255 0.0972452746701453 2.44078783331239
-0.0734315714002332 0.093806552771535 2.44644204953136
-0.0274456009033884 0.0940750613012038 2.44945286829588
0.0263257351897822 0.104177724382075 2.43648963257213
0.059735021732357 0.0723289169127781 2.44623382758761
-0.315952379959765 -0.230486513602616 1.97211816823264
-0.284931154339337 -0.269642579082552 1.98315451083957
-0.236399253264494 -0.26804073324799 1.96293222746246
-0.199439444398117 -0.295722855040582 1.98741642511362
-0.15564598587312 -0.284576109314452 1.97775045805718
-0.115513727653367 -0.292329091526202 1.9872690782832
-0.0686150370052753 -0.301177578209025 1.99825368355233
-0.0124642612801002 -0.302722126954462 2.00222228829884
0.0349519589000165 -0.312035418863287 2.0200393099257
0.0804474302272745 -0.288843678230518 2.01829564822312
0.11842966793809 -0.283480856230938 2.05036593485545
-0.378979233863726 -0.179754835916612 2.02082475850677
-0.351519259577169 -0.21848799164432 2.00127267241462
0.151544222266791 -0.247299276843589 2.05916686211617
0.171763012845367 -0.237773498622045 2.10705354263188
-0.397881729451808 -0.156061028778409 2.05959142672626
0.188767267611448 -0.189630690956533 2.11927023628981
-0.402822984983342 -0.114060383172649 2.08703115191569
0.187710640693874 -0.185042480146312 2.16885028517157
-0.406575452876748 -0.0884766924536539 2.133632905004
0.188799375422916 -0.141761321873355 2.18903606234861
-0.405286974332336 -0.0441695576266064 2.15185400243139
0.188881377480578 -0.101542966278597 2.21429789715759
-0.410113195836654 -0.026373444102319 2.20211951432993
0.186083171596788 -0.0686279108570611 2.25797487852569
-0.40852357426333 0.0196538850827061 2.21896651632871
0.183162339347969 -0.0454354287006934 2.29635999180416
-0.409939967128886 0.0323163664758434 2.26981902464658
0.178686380947524 -0.000321199654268777 2.32980619913689
-0.394447081417858 0.077943583031256 2.28692120148903
0.157567793305562 0.0216160524371569 2.37643876154435
-0.375720659338524 0.0869106189831361 2.33420230348914
-0.342480924884303 0.124007696428424 2.34496658253751
0.102111290006128 0.0716278286891291 2.41864802354836
0.137401420973004 0.065442234596226 2.3827520689426
-0.308651563983261 0.123256172358425 2.38205526406704
-0.264807351501872 0.149042164664309 2.37988856988288
-0.229449831800523 0.131364218480369 2.40699998770428
-0.184505990862081 0.134677167370821 2.40614987162435
-0.140390536553297 0.134703765857625 2.40808558587239
-0.0937214356993912 0.130575621594952 2.41427995472115
-0.0504272441235312 0.130028801114127 2.4167516094613
-0.00784388528166803 0.12781284521276 2.42029737907992
0.0696442453173751 0.108707410542877 2.41322293186897
-0.312091290563674 -0.197273301630853 1.94186971959153
-0.27404363162267 -0.236528966433373 1.94815054111592
-0.227058721562302 -0.235135638831259 1.92984452388627
-0.187730830463899 -0.260609836037604 1.95241612211157
-0.133784298824934 -0.252374008880071 1.94660043821736
-0.0880490762272183 -0.26455398911963 1.96078484547679
-0.042538812019699 -0.276060330347848 1.97428750996575
0.00101195018609704 -0.265121884906314 1.96531391310514
0.0384242119266095 -0.281319753833204 1.98817016342506
0.085310277866613 -0.255925967682717 1.98440758018837
0.121938654787459 -0.253362572319911 2.01713938663651
-0.373503295142092 -0.143626094373229 1.98903925587415
-0.349556492118432 -0.185397550842132 1.97499696263506
0.157934111706603 -0.21500121610286 2.02682708457619
0.178032601996561 -0.205031777484287 2.07284018234949
-0.392605384560925 -0.12475349041317 2.03253167389846
0.195509082294094 -0.15687879901796 2.08928495803149
-0.395624909950998 -0.0784439692928362 2.05222610877292
0.194683097866999 -0.14359517906734 2.14063339655433
-0.399940537819162 -0.0607998705055335 2.09823121556648
0.19556686653645 -0.0965356198544813 2.16388185103264
-0.398717252991324 -0.0143029484287838 2.11839013331071
0.193229941689996 -0.0574048101576192 2.2078505370345
-0.403269780518959 0.00465296285994597 2.16713801160633
0.191616894153364 -0.0248266512599448 2.2417940115102
-0.40181505807274 0.0519384708594627 2.18594310407704
0.188100056350451 -0.00376428355441597 2.28332861217645
-0.403207160497939 0.0660633532885899 2.23718871821329
0.184955436596532 0.0398427835116076 2.29693169026572
-0.387625452719735 0.111314038715682 2.25409118288839
0.166764043706592 0.0502202985892228 2.34140584792539
-0.369084448315325 0.120376507808385 2.30131533928762
-0.334883650675385 0.158023660321395 2.31228385342829
0.109444009337937 0.106863482712695 2.38407081992035
0.145436557354956 0.097582806036225 2.34886303105667
-0.301778794980398 0.157034741954876 2.34888450406292
-0.252867486232356 0.181509753790245 2.3498591553915
-0.212919316693171 0.163800484621289 2.37583443856551
-0.161868990496515 0.169667911181862 2.37225291797067
-0.109293653800775 0.162953957060943 2.38128941200275
-0.0609006361578193 0.163934938191515 2.38246411725516
-0.014854271366059 0.161485629526324 2.38695575276205
0.0326824532855081 0.140840995626917 2.40096392503971
0.0741415643881835 0.144591663445749 2.37942122540645
-0.30601489132726 -0.164806056171332 1.91025839961606
-0.268571244823487 -0.203119056077681 1.91583126572576
-0.220562497365625 -0.203599061101856 1.89865521170559
-0.17607787624188 -0.229508886533478 1.92190973781514
-0.128639904924119 -0.215837526039695 1.91038372942089
-0.0868097425161512 -0.229945722159431 1.92631839449958
-0.0423849472631498 -0.243188931024381 1.94150463760603
0.0041688364722286 -0.230011058342953 1.93043062047079
0.0470567089041814 -0.246572620181279 1.95433769190867
0.0928484191333791 -0.222074279635844 1.95141904927807
0.128571249552575 -0.221521059426806 1.98586117218363
-0.366467408932724 -0.109666269232925 1.9552056171445
-0.343672052333478 -0.153801445537755 1.94452218407948
0.164810562104482 -0.182441838117454 1.99520803564791
0.18515861836891 -0.171527555894623 2.04115247930349
-0.385691478696973 -0.0937982571580396 1.99973631855926
0.202157692134006 -0.124384731290107 2.05851152145554
-0.388782867636844 -0.0478740726384336 2.01702751055494
0.201171847956374 -0.109838411088009 2.1103270070157
-0.393061223853655 -0.0250830164625376 2.06605119092952
0.203030974917894 -0.0636151744684874 2.12520110858039
-0.392672848706125 0.0209965852014181 2.09263112817994
0.199016290313111 -0.046100238023406 2.16870483570633
-0.396585306879018 0.0387607142318288 2.135482647661
0.198937261951021 -0.00198686386186173 2.19777628421861
-0.394908378726275 0.0841259698467909 2.15126860293649
0.195159776060852 0.0239802726982168 2.2448233960239
-0.396697130947426 0.0981766123215964 2.20374542597806
0.192634100008744 0.0701639524830858 2.26159358692945
-0.380922366223937 0.143961336660709 2.22212218962431
0.172890344318728 0.0863676334275982 2.30832027694812
-0.361817723885815 0.15389376853467 2.26925681927388
-0.32601789757671 0.191534069839622 2.28194620365257
0.1154422115038 0.140866225235594 2.35133406492388
0.1514249049905 0.132130462174251 2.31619629063213
-0.29142579684098 0.190268010844425 2.31887218375209
-0.242767682184505 0.21404465150741 2.31891554111119
-0.201688455889757 0.195442187443021 2.34477049351413
-0.156615612317422 0.208436515654978 2.33381482189511
-0.119702966555737 0.192710083963314 2.35114397923526
-0.0719761304276962 0.195368330364733 2.35061578772028
-0.0216003860415462 0.19544342461417 2.35278224274981
0.0282017945921812 0.175394449095097 2.36978787166382
0.0760130059872391 0.177894494278007 2.34927936055208
-0.299227313225719 -0.132323425377112 1.87798838326649
-0.262417351825038 -0.170076860409179 1.88347580733977
-0.216075606420601 -0.171055055416123 1.86693600633133
-0.172188967044312 -0.197113548632722 1.88976859557425
-0.122236991182166 -0.181316234327519 1.87623245073127
-0.0804100349209793 -0.194648208200753 1.89139226760247
-0.0386877547417264 -0.209338564517767 1.9079031825657
0.00781376729144873 -0.195208543770229 1.89587674284846
0.0510180762353794 -0.21362722172988 1.92088248832618
0.0966151196837278 -0.190312308178868 1.91809083543259
0.135341882661085 -0.189210544439929 1.95417528083444
-0.360892975766387 -0.0748869212380386 1.92405558984235
-0.336942213289133 -0.121858114848874 1.91262773210209
0.171328663088503 -0.15005601972135 1.96303336835551
0.191906470805806 -0.13863352959829 2.00888781201083
-0.379165268828435 -0.0589371237512283 1.96730864762309
0.208615326439216 -0.092448703258973 2.0254026061188
-0.381275609662662 -0.0101460227569339 1.98110543773268
0.208196410594698 -0.076689388397283 2.07531963698609
-0.386004414881115 -0.0011386686652302 2.0248599002762
0.209482268431378 -0.0273016890691233 2.09683711113375
-0.387069288860288 0.0308355521832708 2.05401055902587
0.204962800856059 -0.0102150080206172 2.14412253384077
-0.38908480372438 0.0720139411429602 2.09672992689944
0.206077114293739 0.034844463814886 2.1642237970963
-0.38842948058029 0.115849481723023 2.11972555436708
0.201679946159167 0.0517471818607931 2.21040490895014
-0.390185793494325 0.130172000569604 2.17213338516398
0.19974328191085 0.100529599901785 2.22811894018708
-0.373359035758716 0.177362087371349 2.19288315134944
0.180403890696202 0.11808789566241 2.27469274439534
-0.353935218263136 0.187176704807563 2.23897325575894
-0.318386931309553 0.224347861438021 2.25077508944781
0.120745099848078 0.174153478204005 2.31980750098131
0.158300219108967 0.164589734451364 2.28373015755453
-0.282849468183737 0.222977328746207 2.28799086982015
-0.236018554394137 0.247222940772433 2.2861197816061
-0.194317871363605 0.230485668098052 2.31014252943416
-0.143564084960994 0.242586629548046 2.30032954473103
-0.104364979473879 0.225469590721559 2.31914824553164
-0.0560597737111106 0.227906360113164 2.31886640843563
-0.00797882014660238 0.228503690818222 2.32040960976936
0.0320007055653972 0.206564312954552 2.33951552039405
0.0836541040713703 0.208753008769898 2.31802406331429
-0.299920796254611 -0.0973488313729851 1.85108406386356
-0.255446531726947 -0.1362462179249 1.84998902772062
-0.207550645176663 -0.139471921027133 1.83530301355549
-0.166583296337254 -0.166252228463893 1.85923324800195
-0.116492914521322 -0.148311592160583 1.84361771584431
-0.0730519715061845 -0.159115078103311 1.85627524765114
-0.0334177950404993 -0.173358468179098 1.87224602831571
0.0102974186699259 -0.15996482465328 1.86084237629738
0.0543417885247759 -0.180989087537087 1.88762748145457
0.101254863445099 -0.158112468897793 1.88494403084902
0.138199033083303 -0.159646708311885 1.92097316472931
-0.354942344809651 -0.039510055278263 1.8927441329762
-0.333645383991244 -0.0875469795606569 1.8839423026332
0.172362355650848 -0.123382703479449 1.9273898507633
0.198369997420477 -0.105812339014587 1.97544242299575
-0.372455748524138 -0.0228568840439628 1.9339606799346
0.216111592786337 -0.0559890135876681 2.00330503301846
-0.374451686720537 0.0262345377506623 1.95341829864549
0.214565897674157 -0.0402881996651836 2.04767397708739
-0.379635539400331 0.0427905834344583 2.0020669265985
0.216178238041204 0.00766391408471679 2.06446242795271
-0.382973550449106 0.0720821076662305 2.04773385020211
0.211729944596499 0.0237291623147194 2.11169761879321
-0.381621855029319 0.115748014368186 2.06502762507598
0.213005324342651 0.0690937140615762 2.13027112915904
-0.382513883127361 0.152574602734489 2.09600070715012
0.208521917837823 0.0863420247572832 2.17779824683156
-0.383220750163157 0.163768464607776 2.14505754378229
0.206229707452214 0.133408449209691 2.19630489206547
-0.366486642563334 0.21024603996256 2.16123704942918
0.187327597555773 0.149824357858339 2.24230985030588
-0.346488336647132 0.220469152455173 2.20761242010636
-0.311741807637842 0.257029733557999 2.21846299424925
0.128042615828124 0.206678247701962 2.28702560897329
0.165155773289253 0.197107435831827 2.25118280511516
-0.276491573004629 0.255530024352396 2.25561526697383
-0.229928143400917 0.27996336509731 2.25350661584501
-0.186563612669366 0.263743064998531 2.27731255227141
-0.13776056886104 0.274603826024958 2.26862188313898
-0.0903848063710798 0.259993281675337 2.28533209640221
-0.0403758797573164 0.260319401798471 2.28723158938837
0.00612837215419428 0.260197615986643 2.28942196638031
0.0448746914572583 0.23719088481782 2.30774650649434
0.0912335151941259 0.24131410780419 2.28530267992802
-0.262544710288762 -0.0997743227270932 1.82576877710704
-0.221025779133436 -0.104714664652024 1.81252842113055
-0.17456621082533 -0.102931352845449 1.8063276596753
-0.160158968293297 -0.135547510153097 1.82981753832773
-0.122521606738259 -0.109166027828221 1.81371994100647
-0.075952701178363 -0.121022258544849 1.82450141424288
-0.0292562580942941 -0.132143494964403 1.83531283014445
0.0187907325004113 -0.122131226127158 1.83227907479456
0.0578455312751884 -0.148990505381775 1.85654961748697
0.102586650053666 -0.12341771631468 1.85517410057322
0.142816247470079 -0.125988357299385 1.88828809378819
-0.342081950987251 -0.00411803012721638 1.86557779918894
-0.325944846716372 -0.0518329566165342 1.85377559423098
0.191855943579027 -0.0861297613487993 1.92827073571428
0.209750787485423 -0.0617712554497368 1.96043580808993
-0.362216899389612 0.0145773660134371 1.90398716982917
0.215723050408004 -0.0179351611355662 1.96883319172192
-0.358834404569514 0.0599749908401923 1.92274116630675
0.218570592820823 -0.00382713125407964 2.01350807213665
-0.368495048525701 0.0760387732645201 1.96680812341268
0.215538185345973 0.0407397937221601 2.0300029647422
-0.375360530464028 0.0958743776498225 2.01161503888813
0.215790461752895 0.0585191756371458 2.07674168928979
-0.368840714183192 0.142109699308656 2.02406763884831
0.21312813098167 0.102157273181488 2.09652500656913
-0.371656206125711 0.171265622638497 2.05841967441982
0.213016280747744 0.120141721391859 2.14294937208007
-0.375499867547796 0.195659934517779 2.11178082117295
0.207515044293801 0.162962328786953 2.16288119316579
-0.357269301641472 0.23729639678397 2.12457542185805
0.192110350730545 0.182384048028015 2.20999405333097
-0.339841853879305 0.251607282894824 2.17336753087395
-0.303926862955008 0.284443976961315 2.18359618292059
0.133609865631037 0.239156359305147 2.25284531609386
0.165529331601356 0.228828992326703 2.21647821836168
-0.268620577983032 0.287311143501253 2.22259300452838
-0.219726101342819 0.308991181180801 2.21612879867669
-0.182716953439501 0.296001765444505 2.24214332975646
-0.140770627833801 0.303485735201175 2.23118797207805
-0.0968162571576989 0.293970660497327 2.24599740967196
-0.0522373825688517 0.289511245359971 2.25283445633149
-0.00218278918228068 0.288408226224406 2.25473518426879
0.0494695185501506 0.271007255503127 2.27283096147982
0.0949151564613077 0.270167915500787 2.2503909072863
-0.28742458139561 -0.0589578226728856 1.82180995770834
-0.241982675904072 -0.0618295727693639 1.79975971023396
-0.194303533933211 -0.06440012499573 1.79043250126375
-0.142506147479068 -0.0688251414603149 1.793851884221
-0.0921018803912966 -0.0756254006663249 1.80105653022727
-0.0461199886592287 -0.0856794497353434 1.80909098870673
-0.00201993319913857 -0.0855407450475762 1.81322321793882
0.0451271041734428 -0.0757614300415943 1.8148685899339
0.0651040423187568 -0.110087421743803 1.83232544984622
0.0975480273447806 -0.0749850358447295 1.82956070016068
0.133755402032316 -0.0911755228896827 1.85727709468601
-0.306908627871262 -0.0164219829512124 1.82780693328832
-0.281186002846457 0.024201847678433 1.81173983483193
-0.264315608428714 -0.0198832805284298 1.80073865920501
0.14446278247904 -0.050502331371511 1.8524358221575
0.170095587061977 -0.0824260259203243 1.88944244782868
0.173999197921182 -0.0355218864700862 1.87977467550552
-0.338418110356048 0.0505954760171695 1.87438125227381
-0.318787927808734 0.0261745737220122 1.84171575773829
0.19797353130952 -0.0396870397124775 1.91788917699842
0.203718701736379 0.0032846128509671 1.93254991663641
-0.334817374911713 0.0896846713561992 1.89863458647773
0.209731405932639 0.0315222253074366 1.97436755272463
-0.344582837448662 0.111908633944751 1.93682361032362
0.205069739127518 0.0703406192100778 1.9997960608094
-0.357064573996332 0.12495451646203 1.97581017081695
0.207780324789099 0.0935440854785897 2.04080163696067
-0.345623855488031 0.164878400714039 1.98738281616043
0.203256516205919 0.132213723607321 2.06591980357162
-0.349257678056688 0.195259448592828 2.02226046644433
0.205763405199036 0.155224404015988 2.10671996969514
-0.362732317166397 0.213549709954068 2.07393607083558
0.198552423223011 0.192418932050561 2.13121931858907
-0.32845773530655 0.274558818646681 2.13452051513332
-0.340419733481371 0.256469596792432 2.0868560717675
-0.309161400244722 0.289417697050895 2.09136748647077
0.189130654836496 0.210257581459962 2.17455702495108
0.17623486632081 0.233889882175476 2.12965546704436
0.162996098633491 0.249188689315254 2.17411689516156
-0.260444951670658 0.310253861941372 2.18450012449841
-0.294194531726289 0.301966413312198 2.14349543664096
-0.252097950992169 0.323194698478783 2.14137611236613
0.130371978953639 0.267992801625409 2.21223855658052
0.0985053613657043 0.298486157057549 2.1745706394229
0.0859816807213444 0.293680728035535 2.21369591912838
-0.213013199793024 0.326630074175968 2.17513843941152
-0.169169575848962 0.32157968580869 2.1953229619422
-0.116296411241115 0.318774675408204 2.198041061279
-0.0719178275395068 0.3138395897139 2.20725647840625
-0.0281623103753854 0.31035461944963 2.21263071416191
0.0145656579232814 0.309005926640878 2.21225720810342
0.047509299795778 0.295433965740035 2.23636589505404
-0.215441639525408 -0.0216717178990049 1.78498055216736
-0.164198481764882 -0.0263383228250502 1.78252624611594
-0.113501999093973 -0.030666108014772 1.78869047860262
-0.0657109495283394 -0.0357440947598244 1.79478690181892
-0.0209458573622416 -0.0395357254891008 1.80038823815712
0.0231647771450191 -0.0356272089839767 1.80514798626978
0.071744685468321 -0.034371565043617 1.81303608278254
-0.236933193120712 0.0203142174764031 1.79131153429593
-0.209279480234881 0.0576518085718677 1.79359213965765
-0.185529662769608 0.0173232126617712 1.78231786215147
-0.134787816318854 0.0135714994179318 1.78588475807147
-0.0871538235851874 0.012249840356763 1.79209587428154
-0.0399486686024191 0.00858429483423023 1.79799319367895
0.00482028807311581 0.00987329081961012 1.80420558013938
0.0517224987309215 0.00890642754281879 1.8105541188543
0.0998361988198956 0.0103297082218989 1.82531007418958
0.146735340665157 0.00231837825519128 1.85335926074361
0.11525143171921 -0.0300698288355354 1.83037474369557
-0.298824987166646 0.0656538398479656 1.8376751528236
-0.266409857652043 0.103843626282745 1.83819883365909
-0.256161291703154 0.0643169456374134 1.81021796199373
0.123196858894382 0.0448183559987371 1.84807337257557
0.180551986310897 0.00691023165148372 1.89086753442632
0.159176766857322 0.0467805726755407 1.88003464077149
-0.306395688721708 0.0981668519197132 1.8670677962227
-0.272680081724257 0.136517947885555 1.87263878114569
0.18932991007539 0.0445167500042579 1.9236690839441
0.161927973294651 0.0833057069282992 1.91238699023729
-0.310754879392346 0.132752053228042 1.90497466440196
-0.279465926126099 0.168717523856874 1.9089809064003
0.188532677921489 0.0765084695488296 1.95524715461781
0.16023878200383 0.117225836958093 1.94612711130324
-0.321710955056328 0.159206547319223 1.94386988197976
-0.284104622306103 0.198471081586675 1.94146941643337
0.187368852251954 0.110863027839326 1.99058469111197
0.159437691433523 0.150177237430868 1.98016268144362
-0.318257166650102 0.198986436904877 1.97693802701691
-0.281898350203166 0.233835021478551 1.97389135919952
0.186883384122174 0.140802113298579 2.02269864377368
0.158992356538358 0.182459779295762 2.01403524219082
-0.315191312178553 0.235209553324801 2.00752957642501
-0.281025532370138 0.271180855636907 2.01092276048339
0.186057574907661 0.174614907528057 2.05831440244223
0.158003816291572 0.214916100283721 2.04727701076752
-0.338875048172515 0.23644286515468 2.04383315477892
-0.309232886689634 0.273107994471277 2.04697002197726
0.184559990900223 0.204974946581587 2.08987640898188
0.154966446032034 0.244859235365233 2.08243935039953
-0.275742294158795 0.312731546932831 2.10147267390595
-0.27059880203466 0.302928482362136 2.05372412878893
-0.237974791717649 0.325304946851745 2.08693645982397
0.13284782247145 0.278855640666998 2.16499778188501
0.146572092155608 0.266717716968345 2.12359907293265
0.106942633313433 0.294652265085833 2.12270825401276
-0.213517131410633 0.333656822470175 2.12664079482609
-0.187806088423243 0.33323092786542 2.09092354468997
-0.173056310865267 0.33407037302816 2.1453583277226
-0.143946280564188 0.332005308567584 2.10457142430196
-0.130672420155878 0.330130462639753 2.15488330417747
-0.0998889712971135 0.328465401171849 2.11005442327835
-0.0839251955605111 0.326732522995218 2.15797668191102
-0.055087238444611 0.324666458109942 2.11379932701882
-0.0396932338355541 0.323073087867798 2.16433373331164
-0.0115682193781644 0.321005103255974 2.11780748696168
0.00478485875722806 0.319890904363158 2.16662343994147
0.0325794675624006 0.317761220323381 2.12599903451495
0.0503577597602969 0.313182096561227 2.18199252979875
0.0702071671874284 0.311283427150951 2.13893951215466
-0.178198631176581 0.0909535475390357 1.80565777364753
-0.156003643943465 0.0558124061334176 1.79186433899795
-0.11028778986057 0.0580647457466371 1.79948929098063
-0.0616169829444568 0.0536811214097282 1.80538481409629
-0.0167287256226643 0.0553436375412958 1.81293347150836
0.0286293901603082 0.0543887418771794 1.81964981016042
0.0745893608587151 0.0502320599284249 1.82721051499387
-0.223195997323181 0.100100516626365 1.81694252589932
-0.18038818134601 0.127158564999225 1.83117579100317
-0.134583458501214 0.10099155609862 1.8167277907503
-0.0837241948165605 0.09375506083944 1.82106568699373
-0.0394220506366936 0.0969917619148324 1.83100666527632
0.00507403954283844 0.096850340768255 1.83893867660979
0.0502130649523134 0.0938067371445143 1.84499070173071
0.0935214020730179 0.0839180296361799 1.85260386944554
0.128104657742306 0.0872096615456136 1.8776847868866
-0.227888440851315 0.135628732935935 1.84774817571548
-0.187832577126971 0.160714911646096 1.86449201004393
-0.142069714075153 0.143611482069506 1.85175633499236
-0.10300647928027 0.127071071324383 1.84320764095511
-0.0602239083975744 0.132433695794475 1.85729825135566
-0.0165473909727434 0.133057239226268 1.86692195169529
0.0315128177007463 0.129178829051626 1.87289314142414
0.0812608162742697 0.121201676616591 1.879387919862
0.125924068997596 0.119824791778832 1.90841595812358
-0.234539227469965 0.168034290748517 1.88218664898606
-0.189314960578216 0.192942372738887 1.89680140528457
-0.143393073442201 0.177522201134678 1.88579044149552
-0.0969361775686831 0.160566129219126 1.87820102616944
-0.0499992059505757 0.167425071042138 1.89480331328265
0.0001388702351591 0.163300178157302 1.90095295433576
0.0478859248076956 0.158984292725078 1.90642912193574
0.0898871294413227 0.151067776158238 1.91443989441854
0.124991512969702 0.15454190959178 1.94379050739303
-0.237825086692003 0.199422337567653 1.91441023151582
-0.191644629818048 0.223608534068271 1.92760225591492
-0.142793185018018 0.211707144565189 1.92049768092091
-0.100381961246315 0.193442775072026 1.91075138551169
-0.0625004846732384 0.202275452846253 1.92748628440532
-0.0178530746259398 0.196196402105522 1.93052834787606
0.0301038748501635 0.192430731556939 1.93659196224919
0.0790727600985998 0.185952901523319 1.94463181924922
0.124155404502466 0.185713521278019 1.97555726493159
-0.24085273960638 0.229944085273078 1.9457005609458
-0.197791688085279 0.253965221786144 1.9584224997728
-0.147871844069391 0.243982866843303 1.95210361140343
-0.0987550931571501 0.231548831039789 1.9496377520275
-0.0472425817248453 0.231693143919675 1.96038882186866
0.000867522361854375 0.226870745350938 1.96541549142326
0.0472253300842007 0.223282758779852 1.97138986423919
0.0886271762698514 0.216080291308594 1.98053943579993
0.123578845823792 0.219871734860763 2.01069437378997
-0.245284905084436 0.262808493942999 1.97993376822983
-0.207276002535727 0.284865375561679 1.99102451348442
-0.160345452127167 0.277819872978112 1.98383303646683
-0.113833420614884 0.26749546581848 1.98289942016313
-0.0692338173322339 0.262918257743774 1.98745044623107
-0.0203002109207368 0.260619871946468 1.99520033895881
0.0284571981606665 0.256868486462815 2.00144285933296
0.0774689743827903 0.251086469354875 2.01055310399027
0.122201707697056 0.250467822172598 2.04227780483833
-0.240848744831794 0.297568276956275 2.01902066368193
-0.184227067808611 0.307246087919269 2.01953025866521
-0.135547545405814 0.300666409386595 2.01810057406986
-0.0909618697044136 0.295733168756624 2.02158186192586
-0.0461407916823724 0.291496891020061 2.02620972837605
0.000188088595535998 0.288396560685947 2.03291829707695
0.0452170410666841 0.285372609284731 2.03957798883214
0.085817247854139 0.278579630159121 2.04969776478889
0.117577670957766 0.277768621359969 2.0830743566162
-0.215812550112065 0.319691502259369 2.05021833013544
-0.161641699483655 0.322937494729825 2.05597997070703
-0.115918633770048 0.319371528526952 2.06197927714937
-0.0708981150713143 0.315233789789679 2.06613274452484
-0.0251859826669929 0.311051985103305 2.07043751845791
0.0219095014660461 0.307808287226231 2.0777805186184
0.068765624928858 0.302571907498123 2.08801348409184
3 0 1 2
3 0 2 4
3 3 0 4
3 3 4 6
3 5 3 6
3 5 6 8
3 7 5 8
3 7 8 10
3 9 7 10
3 9 10 12
3 11 9 12
3 13 11 14
3 14 11 12
3 13 14 15
3 16 17 18
3 16 18 1
3 0 19 1
3 19 16 1
3 0 3 20
3 19 0 20
3 3 5 21
3 20 3 21
3 5 7 22
3 21 5 22
3 7 9 23
3 22 7 23
3 9 11 24
3 23 9 24
3 24 11 25
3 25 11 13
3 13 15 26
3 27 13 26
3 25 13 27
3 27 26 28
3 17 16 30
3 30 16 29
3 29 19 31
3 29 16 19
3 31 20 32
3 31 19 20
3 32 21 33
3 32 20 21
3 21 22 33
3 33 22 34
3 22 23 34
3 34 23 35
3 23 24 35
3 35 24 36
3 24 25 36
3 36 25 37
3 37 27 38
3 37 25 27
3 38 28 39
3 38 27 28
3 30 40 41
3 30 29 40
3 29 31 42
3 40 29 42
3 31 32 43
3 42 31 43
3 32 33 44
3 43 32 44
3 33 34 45
3 44 33 45
3 34 35 46
3 45 34 46
3 35 36 47
3 46 35 47
3 36 37 47
3 47 37 48
3 37 38 48
3 48 38 49
3 49 39 50
3 49 38 39
3 40 51 52
3 41 40 52
3 51 42 53
3 51 40 42
3 42 43 53
3 53 43 54
3 43 44 54
3 54 44 55
3 44 45 55
3 55 45 56
3 45 46 56
3 56 46 57
3 46 47 58
3 57 46 58
3 47 48 59
3 58 47 59
3 48 49 60
3 59 48 60
3 49 50 61
3 60 49 61
3 51 62 63
3 52 51 63
3 51 53 64
3 62 51 64
3 53 54 65
3 64 53 65
3 54 55 66
3 65 54 66
3 55 56 67
3 66 55 67
3 56 57 67
3 67 57 68
3 57 58 69
3 68 57 69
3 58 59 69
3 69 59 70
3 59 60 70
3 70 60 71
3 71 61 72
3 71 60 61
3 62 73 74
3 63 62 74
3 62 64 75
3 73 62 75
3 64 65 75
3 75 65 76
3 65 66 76
3 76 66 77
3 66 67 77
3 77 67 78
3 67 68 78
3 78 68 79
3 79 69 80
3 79 68 69
3 80 70 81
3 80 69 70
3 81 71 82
3 81 70 71
3 82 72 83
3 82 71 72
3 74 73 85
3 85 73 84
3 84 73 86
3 86 73 75
3 75 76 86
3 86 76 87
3 76 77 88
3 87 76 88
3 77 78 89
3 88 77 89
3 78 79 90
3 89 78 90
3 79 80 91
3 90 79 91
3 80 81 92
3 91 80 92
3 81 82 93
3 92 81 93
3 93 83 94
3 93 82 83
3 84 95 85
3 84 86 96
3 97 84 96
3 95 84 97
3 96 87 98
3 96 86 87
3 87 88 98
3 98 88 99
3 88 89 99
3 99 89 100
3 89 90 100
3 100 90 101
3 101 91 102
3 101 90 91
3 102 92 103
3 102 91 92
3 92 93 103
3 105 103 104
3 103 93 104
3 93 94 104
3 96 106 97
3 96 98 107
3 106 96 107
3 98 99 108
3 107 98 108
3 99 100 109
3 108 99 109
3 100 101 110
3 109 100 110
3 101 102 111
3 110 101 111
3 111 102 112
3 112 102 103
3 103 105 112
3 117 114 115
3 116 113 117
3 117 113 114
3 116 117 119
3 118 116 119
3 118 119 121
3 120 118 121
3 120 121 123
3 122 120 123
3 122 123 125
3 124 122 125
3 124 125 127
3 126 124 127
3 126 127 128
3 129 130 131
3 114 129 131
3 114 113 129
3 113 2 129
3 129 2 1
3 4 113 116
3 4 2 113
3 6 116 118
3 6 4 116
3 8 118 120
3 8 6 118
3 10 120 122
3 10 8 120
3 12 122 124
3 12 10 122
3 14 124 126
3 14 12 124
3 133 126 128
3 15 14 126
3 15 126 133
3 132 15 133
3 132 133 134
3 135 136 137
3 137 17 135
3 137 18 17
3 18 137 130
3 129 18 130
3 18 129 1
3 15 132 26
3 139 132 134
3 139 138 132
3 138 28 26
3 132 138 26
3 138 139 140
3 136 135 142
3 142 135 141
3 17 30 135
3 135 30 141
3 143 39 28
3 138 143 28
3 143 140 144
3 143 138 140
3 141 145 146
3 142 141 146
3 41 145 141
3 30 41 141
3 147 39 143
3 147 50 39
3 147 144 148
3 147 143 144
3 145 149 150
3 146 145 150
3 52 149 145
3 41 52 145
3 151 50 147
3 151 155 50
3 151 148 152
3 151 147 148
3 149 153 154
3 150 149 154
3 63 153 149
3 52 63 149
3 155 61 50
3 155 72 61
3 155 151 156
3 156 151 152
3 154 157 158
3 154 153 157
3 74 157 153
3 63 74 153
3 159 72 155
3 159 83 72
3 159 156 160
3 159 155 156
3 158 157 162
3 162 157 161
3 74 85 161
3 157 74 161
3 163 83 159
3 163 94 83
3 163 160 164
3 163 159 160
3 161 165 162
3 165 95 166
3 165 161 95
3 161 85 95
3 165 166 167
3 95 97 166
3 105 104 168
3 170 94 163
3 170 168 94
3 169 168 170
3 94 168 104
3 163 164 170
3 166 171 167
3 173 171 172
3 172 171 106
3 171 97 106
3 171 166 97
3 172 107 174
3 172 106 107
3 174 108 175
3 174 107 108
3 175 109 176
3 175 108 109
3 176 110 177
3 176 109 110
3 177 111 178
3 177 110 111
3 178 112 180
3 178 111 112
3 181 105 168
3 181 180 105
3 179 178 180
3 180 112 105
3 168 169 181
3 172 182 173
3 182 172 183
3 183 172 174
3 174 175 184
3 183 174 184
3 175 176 185
3 184 175 185
3 176 177 186
3 185 176 186
3 177 178 187
3 186 177 187
3 187 179 188
3 187 178 179
3 179 180 229
3 189 190 191
3 114 131 191
3 115 114 191
3 115 191 192
3 115 192 193
3 117 115 193
3 119 193 194
3 119 117 193
3 119 194 121
3 121 194 195
3 121 195 123
3 123 195 196
3 123 196 125
3 125 196 197
3 127 197 198
3 127 125 197
3 128 198 199
3 200 128 199
3 128 127 198
3 200 199 201
3 202 203 204
3 131 130 189
3 190 189 204
3 189 130 202
3 189 202 204
3 131 189 191
3 128 200 133
3 134 200 205
3 206 205 201
3 134 133 200
3 205 200 201
3 205 206 207
3 136 208 203
3 202 137 136
3 202 136 203
3 137 202 130
3 134 205 139
3 139 205 207
3 140 139 207
3 211 207 209
3 136 142 208
3 208 142 210
3 211 140 207
3 211 144 140
3 146 212 210
3 142 146 210
3 148 144 213
3 213 144 211
3 150 214 212
3 146 150 212
3 215 148 213
3 215 152 148
3 154 216 150
3 150 216 214
3 219 152 217
3 217 152 215
3 158 218 216
3 154 158 216
3 219 156 152
3 219 160 156
3 158 220 218
3 158 162 220
3 221 160 219
3 221 164 160
3 162 165 222
3 223 220 222
3 220 162 222
3 165 167 222
3 169 170 224
3 225 164 221
3 224 170 164
3 224 164 225
3 222 226 223
3 167 171 227
3 226 167 227
3 226 227 228
3 226 222 167
3 171 173 227
3 180 181 229
3 181 169 230
3 231 169 224
3 230 169 231
3 230 229 181
3 224 225 271
3 227 232 228
3 232 182 233
3 232 173 182
3 227 173 232
3 182 183 234
3 233 182 234
3 183 184 234
3 234 184 235
3 184 185 235
3 235 185 236
3 185 186 236
3 236 186 237
3 186 187 237
3 237 187 238
3 238 188 239
3 238 187 188
3 188 179 229
3 240 239 188
3 240 188 229
3 229 230 240
3 191 190 242
3 242 190 241
3 192 242 243
3 192 191 242
3 192 243 244
3 193 192 244
3 194 244 245
3 194 193 244
3 194 245 246
3 195 194 246
3 195 246 247
3 196 195 247
3 196 247 248
3 197 196 248
3 197 248 249
3 198 197 249
3 199 198 249
3 250 199 249
3 201 199 251
3 251 199 250
3 204 252 253
3 204 203 252
3 190 253 241
3 190 204 253
3 206 251 254
3 206 201 251
3 207 206 255
3 255 206 254
3 203 256 252
3 203 208 256
3 257 209 255
3 255 209 207
3 210 258 208
3 208 258 256
3 211 209 259
3 259 209 257
3 212 260 210
3 210 260 258
3 213 211 259
3 261 213 259
3 214 262 260
3 212 214 260
3 215 213 261
3 263 215 261
3 216 264 214
3 214 264 262
3 217 215 263
3 265 217 263
3 218 266 264
3 216 218 264
3 219 217 265
3 267 219 265
3 218 268 266
3 218 220 268
3 221 219 267
3 269 221 267
3 223 270 268
3 220 223 268
3 225 221 269
3 271 225 269
3 223 226 272
3 270 223 272
3 272 228 273
3 272 226 228
3 274 231 275
3 274 230 231
3 275 231 271
3 271 231 224
3 273 228 276
3 276 228 232
3 276 233 277
3 276 232 233
3 233 234 278
3 277 233 278
3 234 235 279
3 278 234 279
3 235 236 280
3 279 235 280
3 236 237 281
3 280 236 281
3 237 238 282
3 281 237 282
3 238 239 283
3 282 238 283
3 327 239 284
3 284 239 240
3 240 230 274
3 284 240 274
3 241 285 286
3 242 241 286
3 242 286 243
3 243 286 287
3 243 287 288
3 244 243 288
3 245 288 289
3 245 244 288
3 245 289 246
3 246 289 290
3 246 290 247
3 247 290 291
3 247 291 248
3 248 291 292
3 248 292 293
3 249 248 293
3 249 293 250
3 250 293 294
3 250 294 295
3 251 250 295
3 252 296 297
3 253 252 297
3 241 297 285
3 241 253 297
3 254 295 298
3 254 251 295
3 254 298 299
3 255 254 299
3 256 300 252
3 252 300 296
3 257 255 299
3 301 257 299
3 258 302 300
3 256 258 300
3 259 257 303
3 303 257 301
3 260 304 258
3 258 304 302
3 261 259 303
3 305 261 303
3 262 306 304
3 260 262 304
3 263 261 305
3 307 263 305
3 264 308 262
3 262 308 306
3 265 263 307
3 309 265 307
3 266 310 308
3 264 266 308
3 267 265 309
3 311 267 309
3 266 312 310
3 266 268 312
3 269 267 311
3 313 269 311
3 270 314 312
3 268 270 312
3 271 269 315
3 315 269 313
3 270 272 316
3 314 270 316
3 316 273 317
3 316 272 273
3 318 275 319
3 318 274 275
3 275 271 315
3 319 275 315
3 273 276 320
3 317 273 320
3 276 277 320
3 320 277 321
3 277 278 322
3 321 277 322
3 322 279 323
3 322 278 279
3 279 280 323
3 323 280 324
3 280 281 324
3 324 281 325
3 281 282 325
3 325 282 326
3 282 283 326
3 326 283 327
3 283 239 327
3 327 284 328
3 284 274 318
3 328 284 318
3 285 329 330
3 286 285 330
3 286 330 287
3 287 330 331
3 287 331 332
3 288 287 332
3 288 332 289
3 289 332 333
3 289 333 334
3 290 289 334
3 290 334 335
3 291 290 335
3 291 335 292
3 292 335 336
3 292 336 337
3 293 292 337
3 293 337 294
3 294 337 338
3 294 338 339
3 295 294 339
3 296 340 341
3 297 296 341
3 285 341 329
3 285 297 341
3 298 339 342
3 298 295 339
3 298 342 343
3 299 298 343
3 300 344 296
3 296 344 340
3 301 299 343
3 345 301 343
3 302 346 344
3 300 302 344
3 303 301 347
3 347 301 345
3 304 348 302
3 302 348 346
3 305 303 347
3 349 305 347
3 306 350 348
3 304 306 348
3 307 305 351
3 351 305 349
3 308 352 306
3 306 352 350
3 309 307 353
3 353 307 351
3 310 354 352
3 308 310 352
3 311 309 355
3 355 309 353
3 312 356 310
3 310 356 354
3 313 311 355
3 357 313 355
3 314 358 356
3 312 314 356
3 315 313 359
3 359 313 357
3 314 316 360
3 358 314 360
3 360 317 361
3 360 316 317
3 362 319 363
3 362 318 319
3 319 315 359
3 363 319 359
3 317 320 364
3 361 317 364
3 320 321 364
3 364 321 365
3 321 322 366
3 365 321 366
3 322 323 366
3 366 323 367
3 323 324 368
3 367 323 368
3 324 325 369
3 368 324 369
3 325 326 370
3 369 325 370
3 326 327 371
3 370 326 371
3 327 328 371
3 371 328 372
3 328 318 362
3 372 328 362
3 329 373 374
3 330 329 374
3 330 374 331
3 331 374 375
3 331 375 376
3 332 331 376
3 332 376 333
3 333 376 377
3 333 377 378
3 334 333 378
3 334 378 379
3 335 334 379
3 335 379 336
3 336 379 380
3 336 380 381
3 337 336 381
3 337 381 338
3 338 381 382
3 338 382 383
3 339 338 383
3 340 384 385
3 341 340 385
3 329 385 373
3 329 341 385
3 342 383 386
3 342 339 383
3 342 386 387
3 343 342 387
3 344 388 340
3 340 388 384
3 345 343 387
3 389 345 387
3 346 390 388
3 344 346 388
3 347 345 391
3 391 345 389
3 348 392 346
3 346 392 390
3 349 347 391
3 393 349 391
3 350 394 348
3 348 394 392
3 351 349 395
3 395 349 393
3 352 396 350
3 350 396 394
3 353 351 395
3 397 353 395
3 354 398 396
3 352 354 396
3 355 353 399
3 399 353 397
3 356 400 354
3 354 400 398
3 357 355 399
3 401 357 399
3 358 402 400
3 356 358 400
3 359 357 403
3 403 357 401
3 358 360 404
3 402 358 404
3 404 361 405
3 404 360 361
3 406 363 407
3 406 362 363
3 363 359 403
3 407 363 403
3 361 364 408
3 405 361 408
3 364 365 408
3 408 365 409
3 365 366 410
3 409 365 410
3 366 367 410
3 410 367 411
3 367 368 412
3 411 367 412
3 368 369 412
3 412 369 413
3 369 370 413
3 413 370 414
3 370 371 415
3 414 370 415
3 371 372 415
3 415 372 416
3 372 362 406
3 416 372 406
3 373 417 418
3 374 373 418
3 374 418 375
3 375 418 419
3 375 419 420
3 376 375 420
3 376 420 377
3 377 420 421
3 377 421 422
3 378 377 422
3 378 422 423
3 379 378 423
3 380 423 424
3 380 379 423
3 380 424 425
3 381 380 425
3 382 425 426
3 382 381 425
3 382 426 427
3 383 382 427
3 384 428 429
3 385 384 429
3 373 429 417
3 373 385 429
3 386 427 430
3 386 383 427
3 386 430 431
3 387 386 431
3 384 432 428
3 384 388 432
3 389 387 431
3 433 389 431
3 390 434 432
3 388 390 432
3 435 389 433
3 435 391 389
3 390 436 434
3 390 392 436
3 393 391 435
3 437 393 435
3 394 438 436
3 392 394 436
3 395 393 439
3 439 393 437
3 396 440 438
3 394 396 438
3 397 395 439
3 441 397 439
3 398 442 440
3 396 398 440
3 399 397 443
3 443 397 441
3 400 444 398
3 398 444 442
3 401 399 443
3 445 401 443
3 402 446 444
3 400 402 444
3 403 401 447
3 447 401 445
3 402 404 448
3 446 402 448
3 448 405 449
3 448 404 405
3 450 407 451
3 450 406 407
3 407 403 447
3 451 407 447
3 405 408 452
3 449 405 452
3 408 409 452
3 452 409 453
3 409 410 454
3 453 409 454
3 410 411 454
3 454 411 455
3 411 412 456
3 455 411 456
3 412 413 456
3 456 413 457
3 457 414 458
3 457 413 414
3 414 415 459
3 458 414 459
3 415 416 459
3 459 416 460
3 416 406 450
3 460 416 450
3 418 461 462
3 418 417 461
3 419 462 463
3 419 418 462
3 419 463 464
3 420 419 464
3 420 464 421
3 421 464 465
3 421 465 466
3 422 421 466
3 422 466 467
3 423 422 467
3 424 467 468
3 424 423 467
3 424 468 469
3 425 424 469
3 426 469 470
3 426 425 469
3 427 426 471
3 471 426 470
3 429 428 473
3 473 428 472
3 417 473 505
3 417 429 473
3 430 427 471
3 520 430 471
3 431 474 475
3 431 430 474
3 428 476 472
3 428 432 476
3 433 431 475
3 477 433 475
3 434 478 476
3 432 434 476
3 479 433 477
3 479 435 433
3 434 480 478
3 434 436 480
3 437 435 479
3 481 437 479
3 438 482 436
3 436 482 480
3 439 437 483
3 483 437 481
3 440 484 482
3 438 440 482
3 441 439 483
3 485 441 483
3 442 486 440
3 440 486 484
3 443 441 487
3 487 441 485
3 444 488 442
3 442 488 486
3 445 443 487
3 489 445 487
3 444 446 488
3 488 446 490
3 491 445 489
3 491 447 445
3 490 446 492
3 492 446 448
3 492 449 493
3 492 448 449
3 494 451 495
3 494 450 451
3 451 447 491
3 495 451 491
3 449 452 496
3 493 449 496
3 496 453 497
3 496 452 453
3 453 454 498
3 497 453 498
3 498 455 499
3 498 454 455
3 455 456 500
3 499 455 500
3 456 457 501
3 500 456 501
3 457 458 502
3 501 457 502
3 458 459 503
3 502 458 503
3 503 460 504
3 503 459 460
3 504 460 494
3 494 460 450
3 461 505 506
3 462 461 506
3 507 463 462
3 507 462 506
3 465 463 508
3 508 463 507
3 464 463 465
3 465 508 509
3 465 509 466
3 466 509 510
3 466 510 467
3 467 510 511
3 467 511 468
3 468 511 512
3 468 512 513
3 469 468 513
3 469 513 470
3 515 470 514
3 470 513 514
3 470 515 471
3 472 516 473
3 518 516 517
3 518 505 516
3 461 417 505
3 505 473 516
3 505 518 506
3 515 514 519
3 474 430 520
3 521 520 519
3 520 471 515
3 520 515 519
3 474 520 524
3 476 522 472
3 516 472 523
3 472 522 523
3 516 523 517
3 520 521 524
3 477 475 524
3 524 475 474
3 525 477 524
3 478 526 522
3 476 478 522
3 527 477 525
3 527 479 477
3 478 528 526
3 478 480 528
3 481 479 527
3 529 481 527
3 482 530 480
3 480 530 528
3 483 481 531
3 531 481 529
3 484 532 530
3 482 484 530
3 485 483 531
3 533 485 531
3 486 534 484
3 484 534 532
3 535 485 533
3 535 487 485
3 486 536 534
3 486 488 536
3 537 489 535
3 535 489 487
3 490 538 539
3 536 490 539
3 488 490 536
3 538 540 539
3 541 542 543
3 541 489 537
3 542 541 537
3 541 491 489
3 490 492 538
3 545 493 544
3 538 492 493
3 538 493 545
3 540 538 545
3 544 546 545
3 547 548 549
3 543 495 541
3 547 494 495
3 547 495 543
3 608 547 543
3 495 491 541
3 493 496 544
3 544 497 550
3 546 544 550
3 544 496 497
3 550 497 551
3 551 497 498
3 498 499 551
3 551 499 552
3 499 500 552
3 552 500 553
3 500 501 553
3 553 501 554
3 554 502 555
3 554 501 502
3 502 503 556
3 555 502 556
3 503 504 556
3 549 504 547
3 556 504 549
3 504 494 547
3 506 557 507
3 507 557 558
3 508 507 558
3 508 558 559
3 509 508 559
3 509 559 560
3 510 509 560
3 510 560 561
3 511 510 561
3 511 561 562
3 512 511 562
3 514 512 563
3 563 512 562
3 513 512 514
3 517 564 518
3 518 564 557
3 566 564 565
3 557 564 566
3 557 506 518
3 558 566 567
3 558 557 566
3 559 567 568
3 559 558 567
3 560 568 569
3 560 559 568
3 561 569 570
3 561 560 569
3 562 570 571
3 562 561 570
3 563 562 571
3 572 563 571
3 574 514 563
3 572 574 563
3 573 519 574
3 574 519 514
3 519 573 521
3 522 575 523
3 577 575 576
3 577 517 575
3 564 517 577
3 575 517 523
3 564 577 565
3 573 574 572
3 521 573 579
3 580 573 578
3 579 573 580
3 579 524 521
3 524 579 525
3 522 581 575
3 522 526 581
3 576 581 582
3 576 575 581
3 583 580 584
3 583 579 580
3 583 525 579
3 583 527 525
3 526 585 581
3 526 528 585
3 582 585 586
3 582 581 585
3 587 584 588
3 587 583 584
3 587 527 583
3 587 529 527
3 528 589 585
3 528 530 589
3 586 589 590
3 586 585 589
3 591 588 592
3 591 587 588
3 591 529 587
3 591 531 529
3 532 593 589
3 530 532 589
3 590 593 594
3 590 589 593
3 595 592 596
3 595 591 592
3 595 531 591
3 595 533 531
3 534 597 593
3 532 534 593
3 594 597 598
3 594 593 597
3 599 596 600
3 599 595 596
3 599 533 595
3 599 535 533
3 534 601 597
3 534 536 601
3 602 597 601
3 602 598 597
3 603 599 600
3 604 603 600
3 603 535 599
3 603 537 535
3 536 539 601
3 606 540 605
3 606 602 540
3 602 601 539
3 540 602 539
3 605 607 606
3 608 609 610
3 608 543 609
3 604 542 603
3 609 543 542
3 609 542 604
3 542 537 603
3 540 545 605
3 605 546 607
3 612 607 611
3 605 545 546
3 607 546 611
3 612 613 614
3 612 611 613
3 614 615 616
3 614 613 615
3 616 617 618
3 616 615 617
3 618 619 620
3 618 617 619
3 620 621 622
3 620 619 621
3 622 623 624
3 622 621 623
3 610 548 608
3 624 623 548
3 624 548 610
3 548 623 549
3 548 547 608
3 546 550 611
3 611 550 613
3 613 550 551
3 551 552 615
3 613 551 615
3 552 553 617
3 615 552 617
3 553 554 619
3 617 553 619
3 554 555 621
3 619 554 621
3 621 555 623
3 623 555 556
3 556 549 623
3 565 625 626
3 567 566 626
3 626 566 565
3 567 626 627
3 568 567 627
3 568 627 628
3 569 568 628
3 569 628 629
3 570 569 629
3 570 629 630
3 571 570 630
3 572 571 631
3 631 571 630
3 572 631 578
3 576 632 577
3 625 632 633
3 565 577 632
3 565 632 625
3 625 633 634
3 626 625 634
3 626 634 627
3 627 634 635
3 627 635 628
3 628 635 636
3 628 636 629
3 629 636 637
3 629 637 630
3 630 637 638
3 631 638 639
3 631 630 638
3 640 578 639
3 578 573 572
3 578 631 639
3 578 640 580
3 576 641 632
3 576 582 641
3 633 641 642
3 633 632 641
3 633 642 643
3 634 633 643
3 634 643 644
3 635 634 644
3 635 644 645
3 636 635 645
3 636 645 646
3 637 636 646
3 637 646 647
3 638 637 647
3 638 647 648
3 639 638 648
3 640 648 649
3 640 639 648
3 584 580 640
3 649 584 640
3 582 650 641
3 582 586 650
3 642 650 651
3 642 641 650
3 642 651 652
3 643 642 652
3 643 652 653
3 644 643 653
3 644 653 645
3 645 653 654
3 645 654 646
3 646 654 655
3 646 655 647
3 647 655 656
3 647 656 648
3 648 656 657
3 648 657 649
3 649 657 658
3 588 584 649
3 658 588 649
3 586 659 650
3 586 590 659
3 650 659 651
3 651 659 660
3 651 660 661
3 652 651 661
3 652 661 662
3 653 652 662
3 653 662 654
3 654 662 663
3 654 663 664
3 655 654 664
3 655 664 665
3 656 655 665
3 656 665 666
3 657 656 666
3 657 666 658
3 658 666 667
3 592 588 658
3 667 592 658
3 590 668 659
3 590 594 668
3 660 668 669
3 660 659 668
3 660 669 670
3 661 660 670
3 661 670 671
3 662 661 671
3 662 671 663
3 663 671 672
3 663 672 664
3 664 672 673
3 664 673 665
3 665 673 674
3 665 674 666
3 666 674 675
3 666 675 667
3 667 675 676
3 596 592 667
3 676 596 667
3 594 677 668
3 594 598 677
3 668 677 669
3 669 677 678
3 669 678 679
3 670 669 679
3 670 679 680
3 671 670 680
3 671 680 681
3 672 671 681
3 672 681 682
3 673 672 682
3 673 682 683
3 674 673 683
3 674 683 684
3 675 674 684
3 676 684 685
3 676 675 684
3 600 596 676
3 685 600 676
3 598 686 677
3 598 602 606
3 678 686 687
3 678 677 686
3 678 687 679
3 679 687 688
3 679 688 680
3 680 688 689
3 680 689 681
3 681 689 690
3 681 690 682
3 682 690 691
3 683 691 692
3 683 682 691
3 684 692 693
3 684 683 692
3 685 693 694
3 685 684 693
3 694 604 685
3 685 604 600
3 598 606 686
3 606 607 695
3 686 606 695
3 686 695 687
3 688 687 696
3 696 687 695
3 688 696 697
3 689 688 697
3 689 697 698
3 690 689 698
3 690 698 699
3 691 690 699
3 691 699 700
3 692 691 700
3 692 700 701
3 693 692 701
3 610 609 694
3 701 610 694
3 701 694 693
3 609 604 694
3 607 612 695
3 695 612 696
3 696 612 614
3 614 616 697
3 696 614 697
3 616 618 698
3 697 616 698
3 618 620 699
3 698 618 699
3 620 622 700
3 699 620 700
3 622 624 701
3 700 622 701
3 624 610 701
