OFF
702 1400 0
-0.260935189819789 -0.325788573927465 2.18164081847846
-0.306263019700849 -0.312053532805175 2.1636211343069
-0.278142655925682 -0.331779318098855 2.13637223011425
-0.214092308510562 -0.332489503633517 2.18650341384762
-0.232245683384431 -0.342606101173297 2.14180521095414
-0.167302351580846 -0.337254814780426 2.18978936442371
-0.185870623199985 -0.346954349921218 2.14406634025502
-0.121944344771154 -0.341356371818801 2.19426863948926
-0.140558784145979 -0.351092939770539 2.14602499811258
-0.0770718931651334 -0.345258334679917 2.19910164794113
-0.0958193577111481 -0.354796961774549 2.15077603266056
-0.0295970451477236 -0.348374700540122 2.20683833066366
-0.0500604120554282 -0.358118699563323 2.15937741386008
0.0185016163060214 -0.344001092842341 2.21524609154656
-0.00276834104493608 -0.359749244553469 2.16849134707103
0.0437569004983173 -0.350917794128071 2.17728283572346
-0.328849007636566 -0.283196160135833 2.19157851931677
-0.358454642846277 -0.265965727410546 2.16393261520913
-0.337296502682746 -0.296254688492185 2.13576152629842
-0.288504145235508 -0.299126716268454 2.21150693262905
-0.241866311280671 -0.308176730069329 2.22367630139678
-0.194193208235427 -0.313571527205057 2.22764952362841
-0.147447805988042 -0.317573273613378 2.23314139028863
-0.102252759641519 -0.321017952650022 2.23907447970901
-0.0579769581702416 -0.326475027675804 2.24177660576806
-0.00934768014953138 -0.32733188916906 2.24914226775907
0.0644974646489739 -0.327912067356852 2.22087483280366
0.0358619544175854 -0.315247940008577 2.25688677968653
0.0820257405755747 -0.295233120368689 2.25451076740917
-0.315935568320779 -0.262053448954563 2.23299652841841
-0.355932647774311 -0.241700630603414 2.20474259344727
-0.270052550077227 -0.275492921152409 2.25075582654376
-0.220146942972705 -0.281908693944926 2.25898169446172
-0.172573347340662 -0.286315928335708 2.26434160198551
-0.12497505357735 -0.288805932117345 2.27165206681266
-0.0802930328346588 -0.291594529175183 2.27805592493091
-0.0380761949269408 -0.301058868734534 2.27718033439946
0.00326475443453816 -0.29282157057559 2.28784369127862
0.0489605392790217 -0.279518656940457 2.28924121561217
0.0938574459637988 -0.257388791498181 2.28261893536702
-0.334117915817138 -0.224585712428163 2.25330313443984
-0.36713565617578 -0.20322225282763 2.2265726528036
-0.293249293206696 -0.239440291467581 2.27467906374097
-0.244300389246105 -0.250088695505797 2.28608436963322
-0.195560791720063 -0.252305779926795 2.29408741784435
-0.14813540685208 -0.257141157980575 2.29898323424212
-0.0966608978897578 -0.258021094587326 2.30872683786993
-0.0418424314902285 -0.267529686362916 2.31040948698631
0.00859834687299653 -0.260277312199609 2.31976709892032
0.0591267177930434 -0.244898243933296 2.31841728840537
0.103978146283443 -0.218990107402567 2.31038482720873
-0.318224524044768 -0.200150397358107 2.29567603462849
-0.35856355943683 -0.182446232104461 2.26435553938481
-0.269081284305803 -0.217360311287935 2.31082557549567
-0.221704887839959 -0.219675559578353 2.32178197108295
-0.176182989690332 -0.220749657908715 2.33009902967549
-0.132265094479763 -0.228684073409551 2.33112647209898
-0.0987559755140224 -0.216673424090653 2.35023221013964
-0.0639525224365228 -0.236136254265111 2.33768328247699
-0.021649980214354 -0.232656433553535 2.34858753042707
0.0262713255358283 -0.226240237999961 2.34997281697354
0.0743894122134206 -0.207599244492687 2.34573477939118
-0.32135946294922 -0.15929296568752 2.335520041974
-0.349327163607754 -0.161701070208753 2.30061581063323
-0.288541471651065 -0.18574007845995 2.33319040935134
-0.241514426930561 -0.188092814456168 2.34971616549706
-0.196789131081612 -0.186888571383002 2.36018704377181
-0.147904727679221 -0.191942758792799 2.36516135464056
-0.102488112713967 -0.186147042629043 2.38042479806749
-0.0551075333008054 -0.199672944069349 2.3764957402033
-0.00709514835213337 -0.199567841924182 2.38199073629789
0.0407054278954581 -0.192414256628692 2.37857905257598
0.0882565561023995 -0.17044144700314 2.37141089085862
-0.310756265309585 -0.134577053523054 2.37062539282957
-0.354748062725271 -0.12201927650606 2.33526435310322
-0.272157294077888 -0.159152281372457 2.36912164085382
-0.226213485023687 -0.152877612406101 2.38860296616689
-0.176202535367961 -0.157472192207312 2.39427725731052
-0.130422866594735 -0.1572835956699 2.40392889822592
-0.0789188117832936 -0.161393430379867 2.41040234967293
-0.0340011078139241 -0.168028049200699 2.41259405453955
0.0123805050142134 -0.165256005849529 2.41390760245264
0.0563582335898653 -0.158193688300699 2.40494816964884
0.0928371125910678 -0.132618937539122 2.40375280096143
-0.305919157558591 -0.0945453598081351 2.40611894066464
-0.339729579099448 -0.103436036837459 2.37295937415376
-0.272580124768586 -0.124893484711816 2.40197603196934
-0.237996343087164 -0.112986459045022 2.41977468883951
-0.195292586834305 -0.121688115269715 2.42160627444865
-0.150188026997978 -0.122004499763119 2.42947866746625
-0.103004541055407 -0.125523057165921 2.43555960802758
-0.0544223936830282 -0.129830073017427 2.44136944624765
-0.00615112167431306 -0.133123057958569 2.44323554641593
0.0454691161366984 -0.127677963533893 2.43570495088563
0.0929608789307366 -0.0967470528145939 2.42782050393041
-0.347004591953121 -0.0640075766083914 2.38956767237915
-0.268696707043573 -0.0751009684724006 2.43196024545445
-0.31211645383946 -0.0505064823960069 2.42076989032965
-0.219252666846924 -0.0758596976447749 2.44136456255221
-0.173245194729117 -0.080806115237279 2.44665134269987
-0.126585607462154 -0.0819935921654865 2.45342828254184
-0.0808129920100192 -0.0868072424049608 2.45873804478162
-0.0341696416991741 -0.0915323291284009 2.46393182724104
0.0124942695492492 -0.0934574145447511 2.46203561598197
0.0568844866922064 -0.0875020266161795 2.45192084037293
0.0387624190031458 -0.0484103191203004 2.46814482363012
-0.285160158353096 -0.02347842226828 2.43857447809191
-0.242777284500122 -0.032737275166672 2.44874073384163
-0.19376555795728 -0.0348208606241031 2.45513557378734
-0.148025719804593 -0.0361626287330641 2.46114072233736
-0.101756949131434 -0.037825319194076 2.46715454456831
-0.0572280218810386 -0.0447620855835625 2.47233007391193
-0.00954308101742932 -0.0493733755517773 2.47548283201606
-0.256107115293163 -0.339970331905914 2.09725602719468
-0.27972966103079 -0.326189282149241 2.06160375409074
-0.256050498966128 -0.319849405509238 2.02406919948961
-0.206525556390637 -0.346727085957488 2.09810799285239
-0.227988272917933 -0.337965830430353 2.05689382747376
-0.160483044865805 -0.349874737973117 2.09763650237083
-0.179822702558142 -0.338758207355449 2.05150741802733
-0.11509137187658 -0.353197473949165 2.10036126857598
-0.134522635269756 -0.340720318876019 2.05236931132036
-0.069802173424517 -0.357101072876601 2.10825618238066
-0.0869831742599429 -0.344696023819242 2.05871338659583
-0.0249371321969232 -0.361194793353064 2.11883857054718
-0.0413153695971272 -0.349681813980725 2.06813700621594
0.0211008592672106 -0.360070232249412 2.12751907567491
0.00284543913038676 -0.354113842094678 2.07963861064007
0.0507769868483161 -0.347467541876714 2.08874177623104
-0.307574023467314 -0.31931705798114 2.10472836880771
-0.345818696406923 -0.288703472153003 2.0883670592487
-0.316260898308714 -0.304813532891047 2.05617873763042
0.0885908610443344 -0.330973868920775 2.18148908132779
0.0643088804487794 -0.348577214944676 2.13684252186214
0.104104116923392 -0.327391324213265 2.1388157501425
-0.383489114623284 -0.230210873192076 2.15392996097827
-0.393590928747263 -0.218074704786374 2.10421493366426
-0.371114574946696 -0.260619599034858 2.11759241482541
0.109756516834231 -0.302588286491214 2.2149334996232
0.130477306802165 -0.301482695570194 2.17064724697274
0.147719237048279 -0.270113952157819 2.19775122920998
-0.38553020768742 -0.201326689354681 2.18518321034775
-0.401154521142746 -0.185491538387034 2.13870644771435
0.123834599399402 -0.26670889794796 2.24294814170641
0.155196113448004 -0.23064193111101 2.22810636415917
-0.389081629032027 -0.162482768229074 2.21873883406451
-0.401593148605572 -0.155367989784782 2.17489874040985
0.131904384082755 -0.22622937565044 2.2707061322628
0.161862620977525 -0.188656930037089 2.25207342806324
-0.38352191311318 -0.143187237722318 2.25641355173252
-0.403670528119497 -0.114957701526642 2.2139288061701
0.14079131056742 -0.185093615932584 2.29591023407364
0.166520290611121 -0.146622382163965 2.27804521948559
-0.375619399784024 -0.124927177550026 2.29521820323961
-0.399127746899227 -0.0968954051949698 2.25910477062036
0.117526965970788 -0.17787852361171 2.33502359611643
0.150364814164577 -0.139984278058564 2.32067750696435
-0.389123397594735 -0.0847929404999824 2.30707537796799
-0.407051947028 -0.0505889433737332 2.2755252258795
0.12515475012466 -0.137868566505819 2.3632993009403
0.155688344938446 -0.0999409194584667 2.34615599501061
-0.373675521514382 -0.0770297789868321 2.34856134267808
-0.397580588828007 -0.0391611167422398 2.32283912174877
0.128807753248678 -0.100455606446854 2.39136869749246
0.152818810879563 -0.0627093292620091 2.37747273134644
-0.376254384800298 -0.0317714915080844 2.36572760996726
-0.344201138779908 -0.0203974038874294 2.40326170274108
-0.363663618292842 0.0130318927633412 2.38331824973907
0.0860140478345119 -0.0496765794286661 2.44755675126736
0.109664109706444 -0.0105535685517554 2.43316376560146
0.12280526457316 -0.0582442617770035 2.41729719090922
-0.318581262679384 0.0071284394578858 2.42235149285839
-0.266106062738224 0.0175650670515083 2.44429619075122
-0.297786122229551 0.0458631906292771 2.42660336707597
-0.216611794383632 0.00864033575605744 2.45329653698609
-0.169358402802159 0.0112353666204315 2.4585842457395
-0.122781876277373 0.00955352416503655 2.46416060878733
-0.0759921339111237 0.00780450013523398 2.46974840166495
-0.033139119398576 -0.00319098400827486 2.47588563350326
-0.00738401656300668 0.0330020769747374 2.46976698564535
0.0175166230567406 -0.00724910186900418 2.47426299345412
0.0662796625628591 -0.00741491501139804 2.4595088727373
-0.264074138097816 0.0749170234131333 2.42868110273514
-0.232696816004461 0.0511441937605661 2.44359075107304
-0.188547352225638 0.0561286376367704 2.4463596214722
-0.142474045826013 0.0558300149252908 2.4509003945212
-0.0958273715106014 0.0535093172286655 2.4561960953731
-0.0474574700859436 0.0514577851899486 2.46153796091455
0.00857707602933119 0.0698269681586522 2.45379818961835
-0.343666273478974 -0.273381267289697 2.03877998491813
-0.327168788538921 -0.261009545632442 1.99950412495443
-0.296884106358764 -0.296753247947752 2.01433355039985
-0.248022062035933 -0.298440353296016 1.98757512137015
-0.206332482309093 -0.321686155405495 2.01438265916247
-0.155751141791345 -0.317909603071705 2.0077163001189
-0.105840495181545 -0.323312996561167 2.01609061583958
-0.0538420034538481 -0.32767766031035 2.02286611909773
-0.00860911905427031 -0.333417621989007 2.03189371007329
0.0354195260462891 -0.336710853373134 2.04816848585237
0.0779915570540861 -0.319032181399732 2.04679275254682
0.0904701784305957 -0.331173754782425 2.09521545324942
0.117334750332408 -0.305742377426735 2.07659126222471
-0.3734426091116 -0.24998489802937 2.0712903010459
-0.390661926457227 -0.203888615288978 2.05670207734771
-0.367376778632304 -0.231873682255272 2.02752629330231
0.133884124852263 -0.301604023795025 2.12108976374129
0.150123016154722 -0.274085935095528 2.08884970797841
0.160018757350904 -0.269000824141297 2.14390135661641
-0.404681645595025 -0.169556246904936 2.09199733383409
0.180158842397964 -0.227083515596756 2.13983310727806
-0.407495950637503 -0.137443986459188 2.12348910919199
0.172019474455704 -0.233334026124375 2.18255728212842
-0.408413733163395 -0.113797987322593 2.16544277189345
0.177947739824552 -0.190565101205619 2.20486703015502
-0.410174025459201 -0.0734525857936041 2.17957183599897
0.180816024470482 -0.149532347259317 2.22744324455806
-0.410162914634716 -0.0640194613005392 2.22650526902755
0.181704542831795 -0.1112554580165 2.25338575621393
-0.412934168520905 -0.0157041507645135 2.24324872562126
0.17389259293339 -0.0969982094282531 2.29832954690272
-0.409131163699628 -0.00300182994976254 2.29321456484416
0.174340331675823 -0.0569327970457746 2.32974029376809
-0.392357963964176 0.00697700096870254 2.34095059293758
-0.398371646737316 0.0432904697208956 2.31066059120949
0.142929388454855 -0.017259284569814 2.39957411760575
0.167304576774053 -0.0226268209596659 2.35875751385792
-0.374699142572287 0.0505923259419617 2.35664240470443
-0.340039927343681 0.0474471189429489 2.39810954035027
-0.346548408047893 0.087987756652943 2.36889056271604
0.0425342526261262 0.0338727902942556 2.46073107874695
0.089052857915679 0.0325027752592459 2.43925373902066
0.1280022195496 0.0289185196925367 2.40742414454723
-0.309885607525189 0.085227394713183 2.40251465703535
-0.269120482808101 0.111654409882057 2.40488478130728
-0.216839274930277 0.0961264276686435 2.42522497720642
-0.16778840184784 0.0978324277926076 2.42784020385582
-0.120468013400266 0.0964316838650359 2.43217695928126
-0.0731523467461178 0.0929838815443068 2.43784725647194
-0.027167668286498 0.0932466856322676 2.44087824475578
0.0266096708208528 0.103363394422563 2.42795091445191
0.0600134390948218 0.0715009674455148 2.43766946955188
-0.315481879946682 -0.230702481054214 1.96301147869237
-0.284467030732734 -0.269873685114111 1.97401196330597
-0.235926344938885 -0.268248442024069 1.95381264439267
-0.198978241463765 -0.29596286612868 1.97827795900625
-0.155180158329589 -0.284805804518598 1.96864490346813
-0.115052329257016 -0.292572422254077 1.97817107777229
-0.0681587458953877 -0.301436669013282 1.98916477700858
-0.0120097509978195 -0.302988549083476 1.99315565526288
0.0353983953991756 -0.312326212110339 2.01098140367347
0.0808955698287446 -0.289134196185077 2.00928652395863
0.118864190674066 -0.283813282648414 2.04137990701869
-0.378527649016942 -0.180029448041041 2.0117546228009
-0.351060838433428 -0.218739137856599 1.9921657013974
0.151976435659975 -0.247644178403068 2.05024059807991
0.172174959774341 -0.238179455273295 2.09814793315168
-0.397445889745137 -0.156383608869554 2.05054289240173
0.189175925901654 -0.190052754284996 2.11043247696578
-0.402397251604243 -0.114417287916494 2.07803326666991
0.188098100682015 -0.185526835769003 2.16001779475626
-0.406168768046318 -0.0888920492490863 2.1246655247291
0.189179910398724 -0.142271135023266 2.18025843816827
-0.404886324770417 -0.0446079110723461 2.1429428661711
0.189252671727155 -0.10208457421514 2.20557084985116
-0.409733495911295 -0.0268748047616367 2.19322862588003
0.186436980826217 -0.0692243394011986 2.24928796759379
-0.408149246039843 0.0191312413782069 2.21013416567986
0.183500545880083 -0.0460800120297306 2.28770094549617
-0.409587053516499 0.0317298393475159 2.26100193784326
0.179012018328903 -0.00100768095263051 2.32120191179117
-0.394099667367268 0.0773348721846937 2.27816814596225
0.1578742202909 0.020871807922499 2.36785290439227
-0.375393273396414 0.0862416771051605 2.32546855689827
-0.342156657522026 0.123323805106035 2.33629380299917
0.102401574220217 0.0708327926975646 2.41010108611909
0.13770693156614 0.0646908597643256 2.37421260777965
-0.308343329719357 0.122524241510298 2.37339609815682
-0.264497124646139 0.148311107805431 2.37128073569279
-0.229152031444522 0.130597615278356 2.39838515463255
-0.18420769155865 0.133909754829598 2.39755858956169
-0.140093075306598 0.133932078759306 2.39951336335327
-0.0934268209311799 0.129794202621159 2.40572266594166
-0.0501337221416263 0.129242468515852 2.4082123046052
-0.00755198810844766 0.127020279580641 2.41177365211195
0.0699384000195833 0.107920520561719 2.40470861324538
-0.31160637465157 -0.19745142769336 1.93280647885623
-0.273563045486754 -0.236716545498405 1.93905435199941
-0.226570185771457 -0.235302165077862 1.92077036813909
-0.187253084308534 -0.260806360614844 1.94332688228835
-0.133303709806208 -0.252565479587674 1.93754482601883
-0.087575111902218 -0.264765191554092 1.95173363413197
-0.0420711505379854 -0.276290398557762 1.96524144996892
0.00148392905222855 -0.265342497397671 1.95630039745376
0.0388856606151302 -0.281570649924268 1.97915239970017
0.0857743911270891 -0.256174110035218 1.97544196850679
0.122388750647992 -0.253653396096525 2.00819276732321
-0.373036511424606 -0.143861002395948 1.98001693234366
-0.349085373677036 -0.185615770936591 1.96593246378023
0.158381605206525 -0.215305751826427 2.0179442113528
0.178460655525433 -0.205395008135115 2.06397847123363
-0.392156583087799 -0.125042295540469 2.02352480011354
0.195932023688265 -0.157263471665995 2.08049130980368
-0.395182696423206 -0.0787574451838442 2.04327613704414
0.195084436248033 -0.144044383758889 2.1318560473036
-0.399517442423237 -0.0611710185536803 2.08930152452211
0.195960114398093 -0.0970141269517533 2.15516402723392
-0.39830093858479 -0.0146995283950277 2.10951940952142
0.193605834669612 -0.0579385287646267 2.19918086295934
-0.402873713342937 0.00419527133233492 2.15828911315261
0.191979486877876 -0.0254030025582714 2.23316457003105
-0.401425155427478 0.0514570391807946 2.17715426533339
0.188445600103127 -0.00439272266244382 2.27472409742204
-0.402838781807759 0.0655175417971182 2.2284169920228
0.185296908740911 0.039197339140271 2.28838063137985
-0.387262502958092 0.110746291178384 2.24538305307432
0.167086760136144 0.0495196915738448 2.33285995041724
-0.368741498149442 0.119748608494444 2.29262655846733
-0.334543884624387 0.157380514255568 2.30365714557668
0.109750659722259 0.10611158381339 2.37557137517779
0.145758009719222 0.0968736762616421 2.34036747369995
-0.301454861215217 0.156344200344092 2.3402707993182
-0.252542969431337 0.180815926411953 2.34129731691745
-0.212606738017863 0.163072347722824 2.36726754286549
-0.161554629986858 0.16894214206231 2.36371542110479
-0.108983472836522 0.162214638484796 2.37276614287099
-0.0605909260663487 0.163192122552993 2.37396295321229
-0.0145466040384082 0.160735247371797 2.37847136605178
0.0329832231351501 0.14007103483137 2.39247407432325
0.0744517777142691 0.143847053398027 2.37095399126339
-0.305515002545909 -0.164944719277326 1.90123862654054
-0.268075341544433 -0.203266257674879 1.90677946952148
-0.220059209118585 -0.20372667172916 1.88962353425807
-0.175585690651954 -0.229667568922799 1.91286465219563
-0.128142188717427 -0.215983708156188 1.90137630293612
-0.086319485064754 -0.230113671969493 1.91731125878216
-0.0419017903367343 -0.24337781655884 1.9324999999203
0.004657308797142 -0.230187974567175 1.92146263972518
0.0475341822644001 -0.246781369321031 1.94536736664719
0.0933281562359427 -0.222281289675747 1.9424992775153
0.129036148765841 -0.221772861746862 1.97695747344205
-0.365984632317388 -0.109858961587794 1.94622905360086
-0.343186487155494 -0.153981622852428 1.93549997385917
0.165273035527286 -0.182706934626404 1.986369091
0.185601720328329 -0.171851272179741 2.03233599235417
-0.385227255951094 -0.0940461444950952 1.99077137376141
0.202595246010132 -0.124731018280241 2.04976162067422
-0.388324212012142 -0.0481436060436585 2.00811895448237
0.201587649371426 -0.110249811628062 2.1015949233561
-0.392622776498181 -0.0254140226468463 2.05716939987246
0.203442263726054 -0.064045389096059 2.1165279270084
-0.392243969289412 0.0206321096708649 2.08380741392529
0.19940953466306 -0.0465849924934022 2.16005190444363
-0.396174180323261 0.0383425143607289 2.1266795416769
0.199319782657296 -0.00250819898196533 2.18917875395276
-0.394502193445309 0.0836878177743745 2.14252324096729
0.195523071899293 0.0233999263557098 2.23625684162534
-0.396313003749449 0.0976725491535154 2.19501691105518
0.192992064105431 0.0695625912701656 2.25308399196469
-0.380544281946217 0.143433475458003 2.21345802445561
0.173228821135064 0.0857083378245561 2.29982249665297
-0.361459564805988 0.153305843900881 2.2606133400309
-0.325663665377002 0.190928668229222 2.27336547693531
0.115764383487604 0.140155206254358 2.34287998558403
0.151761871196559 0.131462124274512 2.30774677944888
-0.291087548819033 0.189614742837006 2.31030475290051
-0.242428478134206 0.213389279687037 2.31039899013076
-0.201361174952645 0.194752610891988 2.3362482503062
-0.156283074453285 0.207758821572996 2.32532836600778
-0.119378555179279 0.192009075499011 2.34265365736924
-0.0716513861994541 0.194665992217197 2.34214939382317
-0.0212765779951886 0.194736260540012 2.34433766934199
0.0285174364666673 0.174663842925699 2.36133955761621
0.0763375931132074 0.177187674577347 2.34085482961962
-0.298712166865924 -0.132421827093459 1.86901240452014
-0.261906131003791 -0.170183667196933 1.87446823572309
-0.215557295454922 -0.171143001182731 1.85794720755994
-0.171681582791673 -0.19723201062493 1.88076594417302
-0.121723121872244 -0.181419775465008 1.86727121739515
-0.079903258148637 -0.194772543361728 1.88243230022704
-0.0381887092695505 -0.209485386879542 1.89894272700634
0.00831857823075945 -0.195342197994712 1.88695411960049
0.0515113377546159 -0.21379410187438 1.91195532125021
0.0971105414415661 -0.190477599817172 1.90921264993701
0.135821780390987 -0.189422818897483 1.9453151522078
-0.360395329993122 -0.075040711462562 1.91512518389395
-0.336441574747144 -0.121998500102766 1.90364861294973
0.171806348996808 -0.150280963393057 1.9542379800064
0.192364844984317 -0.138916989886412 2.00011561947131
-0.378685622507484 -0.0591445424679534 1.95839037489126
0.209068477287979 -0.0927536599825442 2.01669567089013
-0.380799905091509 -0.0103707375361851 1.97224758433735
0.208628677826993 -0.0770570965234542 2.06663229009897
-0.385547213266894 -0.00141820198411621 2.01601129294707
0.20990728769087 -0.0276965420084584 2.08821239166936
-0.386623344947272 0.0305193893732089 2.04520166567335
0.205368126753477 -0.0106691338016437 2.13551730520636
-0.388655591469762 0.0716441224517052 2.0879718972871
0.206475624877501 0.0343649842844346 2.1556756815575
-0.38800838255066 0.115450690567544 2.11102289855662
0.202059232159696 0.0512098128862985 2.20187610668256
-0.389786712591596 0.129707383487728 2.16344793226424
0.200116936004778 0.0999700028117529 2.2196506177892
-0.372966963635336 0.17687064387031 2.18426426671902
0.180758179215436 0.117470538446753 2.26623811427763
-0.353562625642559 0.186626497841835 2.23037504752295
-0.318017902005044 0.223781304205142 2.24223893620407
0.12108224198653 0.173481847252442 2.31139758653678
0.158652526522156 0.163961900859344 2.27532444934878
-0.282496552460088 0.222362501408095 2.2794682885907
-0.235663837319196 0.246608492367774 2.27764788343929
-0.193974210278383 0.22983929102799 2.30166755368315
-0.143215697199249 0.241950461986792 2.29189168241753
-0.104025418235424 0.224808141789078 2.31070575379978
-0.0557199950673196 0.227243247817089 2.31044781546855
-0.00763968710628413 0.227836631507046 2.31201250462889
0.0323306894952772 0.205871582436295 2.33110805939038
0.0839934440823447 0.208085140407038 2.30964165206203
-0.299392603580504 -0.0974134073203103 1.84215178096326
-0.25491947294729 -0.136311242303714 1.84102702530758
-0.207017388636925 -0.139520478068334 1.82635762704011
-0.166061469458105 -0.166332559313761 1.85027184125481
-0.11596361733319 -0.148374395391194 1.83470048334997
-0.0725285834527792 -0.159195598800065 1.84736315836718
-0.0329018866837134 -0.173460710229499 1.86333311262755
0.010818793773591 -0.160054564689505 1.85196516478677
0.0548507392484726 -0.181114323524247 1.87874281105226
0.101765909556283 -0.158236306983177 1.87610835852171
0.138694470623359 -0.159817383205338 1.9121514663857
-0.354429735667544 -0.0396247565922349 1.88386079824565
-0.333130958517166 -0.0876514657980359 1.87500776787408
0.172856515636239 -0.123562899842308 1.9186284743074
0.198844150173556 -0.106054046962749 1.96671431170259
-0.371960231444399 -0.023022685743942 1.92509069184684
0.216575776858538 -0.056266530584788 1.99464718889092
-0.373962540947216 0.0260443181006849 1.94460915181084
0.215011589108005 -0.0406214458631324 2.03903516665218
-0.379166696828977 0.0425394052458319 1.99327631569608
0.216618662305311 0.00730945598204876 2.05588458507081
-0.382523200491015 0.0717736324785121 2.03897858546766
0.212150655090161 0.0233154923606331 2.10313801330594
-0.381177166736506 0.115417706242824 2.05632782626912
0.21341989110077 0.0686566041085404 2.12176909114414
-0.382081038835138 0.152205362889055 2.08734679581533
0.208916693627485 0.0858453364674415 2.16931591819296
-0.382808606437315 0.163337570436584 2.13641735751481
0.206618438780791 0.132888552512987 2.18788073184007
-0.366079565478415 0.209794069600066 2.15266249971391
0.187697161600012 0.149247398853582 2.23389813522458
-0.346100845349569 0.219958035690638 2.19905930789425
-0.311357494383685 0.256503496403864 2.20997082442127
0.128395238040868 0.20604750036462 2.2786597622339
0.165523459353624 0.196520209436038 2.2428209648948
-0.276123351229484 0.254955609023946 2.24713638292438
-0.229558010039625 0.279389638383388 2.24507853571578
-0.186204420635135 0.263137612356644 2.26888276235251
-0.137397185181864 0.274007254285711 2.26022680505463
-0.0900292372070517 0.259373736192881 2.27693906875175
-0.0400211212420187 0.259695381126569 2.27886053984559
0.00648217642287033 0.259568901025356 2.28107081993524
0.0452196398299965 0.236537533305677 2.29938313106034
0.0915883106476033 0.240687035191071 2.27696450358872
-0.262005700751913 -0.0998086297052259 1.81684958816081
-0.220481265473952 -0.10473405432952 1.80362094060648
-0.174018953251226 -0.102944886993905 1.79744246553871
-0.159623188293468 -0.135591151524129 1.8208975314628
-0.12197779965432 -0.109191022537038 1.80484934970684
-0.0754140376061216 -0.121062741808029 1.8156359934142
-0.028722720689549 -0.132199510329912 1.8264535588282
0.0193259864472344 -0.122185440322905 1.82345311746427
0.0583692056893482 -0.14907684135389 1.8477067154201
0.103111966903485 -0.123504210236112 1.84638264833389
0.143327170259674 -0.126118159351933 1.87951073217585
-0.341556166585133 -0.00419914219437595 1.85674453138211
-0.325415937961996 -0.0518998664276889 1.84488930833021
0.192351256101039 -0.0863119081092822 1.91956460203165
0.210233226524456 -0.0619946066254374 1.95176798867529
-0.361706911756151 0.0144487905638117 1.89516868797531
0.216203671999645 -0.0181693535266207 1.96022305299512
-0.358330637363645 0.0598226605262529 1.91398120218416
0.219032523786917 -0.00411761954223753 2.00491685921699
-0.368009627978212 0.0758314317599702 1.9580641494571
0.215994836783443 0.0404286590975158 2.02146646030035
-0.374893620681843 0.0956109750426433 2.00289300210788
0.216227683740423 0.0581492558158241 2.06822760518841
-0.368377272383001 0.141830332461839 2.01540653173005
0.213558616619867 0.101762558060094 2.08806461990978
-0.371206381662251 0.170943162336711 2.04979397835469
0.213427481021614 0.119688631323212 2.13451150680029
-0.375072056416025 0.195270528903072 2.10318408944883
0.207919410754337 0.16248437583076 2.15449477294913
-0.356845296535701 0.236890111912854 2.11603888872213
0.192495195463757 0.181847491568899 2.20162536478269
-0.339438308464424 0.251138917310384 2.16485646352906
-0.303526380791815 0.283961227063317 2.17514188069706
0.133978569387902 0.23856832591243 2.24452273333919
0.165913294701869 0.228285356355547 2.20815645128818
-0.26823680312777 0.286777890641426 2.21415750080723
-0.21933864966339 0.308463997706358 2.20774164660515
-0.182341262141374 0.295440342017383 2.23375578672242
-0.140389906408302 0.30293632867691 2.22282794003804
-0.096442320117727 0.293400808655165 2.23764436022469
-0.0518665826876793 0.288930941145227 2.24449502201834
-0.0018128593494908 0.287823444492638 2.24641595099896
0.0498309208440209 0.270397581825462 2.26451211375876
0.0952861998989062 0.269584558012709 2.24209062568766
-0.286882180675585 -0.0589861466269726 1.81293135693577
-0.241430885900995 -0.0618320688408029 1.79089711841782
-0.193747830796991 -0.0643928823708489 1.7815872508026
-0.141952106482762 -0.0688243557257045 1.78502340863797
-0.0915512320857642 -0.0756357706958573 1.7922412390684
-0.0455732246014089 -0.0857018316622869 1.80028288301654
-0.00147495009133769 -0.0855701624682349 1.80443430415366
0.0456717758748135 -0.0757948912201448 1.80611230495787
0.0656397679663923 -0.110143636415599 1.82353461012476
0.0980863883569519 -0.0750391562850952 1.82082798843011
0.134281136760459 -0.0912659868997583 1.84853962017943
-0.30636706029719 -0.01645706697802 1.81897340082378
-0.280635833619516 0.0241858579014551 1.80296848480077
-0.263762510956668 -0.0198861085869062 1.79191917015397
0.144992279810991 -0.0505871878592983 1.84375410587301
0.170607803558497 -0.0825584520692427 1.88073161925559
0.174517516307714 -0.0356423581610595 1.87112450857563
-0.337893870337864 0.0505030999423614 1.86561834456535
-0.318250604533256 0.0261224653388581 1.83293064299641
0.198475234415544 -0.0398564266561036 1.90924408040933
0.204215849984181 0.0030965204703524 1.92396131044915
-0.334301987422828 0.089561622453754 1.88992235461208
0.210211677750957 0.0312812859384281 1.96581700423029
-0.344083007318113 0.111737963175031 1.92813507338505
0.205540641103128 0.0700678745702142 1.99129228293227
-0.356581023024975 0.12473534176127 1.96713261754205
0.208234493600293 0.0932196565633768 2.03232816413719
-0.345143653326279 0.164644167710599 1.97876038085756
0.20370144290679 0.131857873951955 2.05749297407971
-0.348791269429807 0.194981494503452 2.01367462903541
0.206191679422111 0.154817136982483 2.09832311520355
-0.362287445283907 0.213207336367941 2.06536737102736
0.198971661771795 0.191981135565716 2.12286609439179
-0.328036488182034 0.274138798879041 2.12604324769893
-0.339978669241099 0.256110014937799 2.07835094464957
-0.30872092798198 0.289051112909604 2.08291726108515
0.189531934384138 0.209765679236689 2.16622212601672
0.176656489648498 0.233454950283758 2.1213447568746
0.163399173968122 0.248698400217768 2.1658196697476
-0.260043800479697 0.309768140684623 2.17609702505403
-0.293776030486731 0.301533658663259 2.13506739734925
-0.251677665151154 0.322762834799134 2.13299292086968
0.130759387279264 0.267455931941967 2.20395086724415
0.0989102774617232 0.297997949687744 2.16630757593153
0.0863695225721972 0.293143858208536 2.20542137783971
-0.21260734020425 0.326154130292926 2.16677639513473
-0.168772635400046 0.321076540062093 2.18697346089132
-0.115900763795978 0.318265908261609 2.18971083645288
-0.071526362785259 0.313317388807282 2.19893918219576
-0.0277733115540096 0.309823838825101 2.20432790435205
0.0149547583032873 0.308473833632098 2.20397113236772
0.047887438307848 0.294870198947017 2.22807694411659
-0.214881822718356 -0.0216567727214221 1.77617990880307
-0.16363780325906 -0.0263224267316972 1.77374184003627
-0.112944162667528 -0.0306600738128117 1.77992249237857
-0.0651559565564661 -0.0357477153618534 1.78603313916554
-0.020393441013126 -0.0395482532099077 1.79164901160869
0.023715297118937 -0.0356475645483476 1.79643269516456
0.0722918499046001 -0.0344038658594946 1.80434331676043
-0.236374376000928 0.0203220668712717 1.78255440171206
-0.208720111656449 0.0576556072331443 1.78489387464717
-0.184967094061739 0.0173402263403781 1.77357914841908
-0.134226945552898 0.0135819142655839 1.77716321031156
-0.0865956910205821 0.0122504597888003 1.78339320482633
-0.0393932353749394 0.0085755331102641 1.78930627102996
0.00537309034658916 0.00985484957490437 1.79553958225091
0.052272518204858 0.0088780483693305 1.80190712957872
0.100379907111748 0.0102807687472569 1.81668561360458
0.14726661499129 0.00223222418376337 1.84474493174718
0.115791289858877 -0.0301257469976855 1.82170613590562
-0.29828429671564 0.0656059470882984 1.82894828664949
-0.265867823203972 0.103793692253424 1.82953396170513
-0.255608816094719 0.064301793167807 1.80150784092926
0.123732166074476 0.0447397960536863 1.83950232801381
0.181067266620355 0.00677550684008404 1.8822735310703
0.159698364324911 0.0466603275743449 1.87148155374065
-0.305866337554708 0.0980822965027085 1.85837851511323
-0.272151557297224 0.136424951258691 1.86401225352153
0.189832588852513 0.0443403905550057 1.91512611782768
0.162437119027981 0.0831446442791901 1.90388098185686
-0.310240455249337 0.132619995291669 1.89632695124381
-0.278951751768936 0.168579095079294 1.90039190216346
0.189023052578738 0.0762924176484243 1.94674403777259
0.160734770482306 0.117022399392264 1.93766299002582
-0.321212218546195 0.159026026015536 1.93525066835264
-0.283603236629209 0.198291977814554 1.93291578987935
0.187845398419889 0.110602570461247 1.98212423273592
0.159920355226172 0.149931017211636 1.97173961214435
-0.31777105665823 0.198764166251059 1.96837028642837
-0.281409494056544 0.233615036323493 1.96538311630298
0.187347310434376 0.140501278364865 2.01427558802699
0.159461738380648 0.182170967044475 2.00565253754699
-0.314716906832362 0.234948665935211 1.99900867204917
-0.280551112384499 0.270914248097509 2.00246181373078
0.186507530368036 0.174269303654987 2.04993346958838
0.158460195497258 0.2145855115718 2.03893465552254
-0.338416250104022 0.23613732372075 2.03530355366023
-0.308773934412419 0.272797243353462 2.03849929988959
0.184997582031269 0.204589700969882 2.0815329719371
0.155408890803696 0.244484543108435 2.07413329949981
-0.275305223876338 0.31235084538634 2.09306616480115
-0.270141538677502 0.302607604098603 2.0453075556152
-0.237530936618312 0.324940934467523 2.0785620610689
0.133256056261444 0.278378050860406 2.15672485926841
0.146997682914727 0.266291611111868 2.11531684622592
0.107369762620051 0.294228910807413 2.11444405539181
-0.213090061899841 0.333241865999378 2.11828741028951
-0.187363631494403 0.332859803060752 2.08258074590448
-0.172637302314582 0.333630195855215 2.13702289808301
-0.143509765528201 0.331615196160329 2.09624599012044
-0.130257686654852 0.329676544975048 2.14656119369865
-0.0994549714023172 0.328066559757732 2.10174353650116
-0.0835119407934556 0.326272768228275 2.14967045964415
-0.0546550146666454 0.324261041987828 2.10550298459695
-0.0392828761896985 0.322603498028958 2.15604198273373
-0.0111378794906863 0.320592834874849 2.10952530838471
0.00519409344873922 0.319416582328725 2.15834687082236
0.0330061361043335 0.31733681370317 2.11773181210287
0.0507600840798151 0.312686555844822 2.1737271690098
0.0706279832502821 0.310841186503993 2.13068036374451
-0.177643098662041 0.0909408537661229 1.79701477175028
-0.155443610804872 0.0558161552773393 1.78318674181282
-0.109730957426503 0.058056999195964 1.79083423686947
-0.0610628787861165 0.0536639353681559 1.79674523616383
-0.0161778134732523 0.0553150867258452 1.80431533821426
0.0291773614899723 0.0543498551547915 1.81105003420365
0.0751338952038278 0.0501817531675538 1.81862532983031
-0.222644951754268 0.100075505992374 1.80829160570184
-0.179842165156341 0.127113852329843 1.82257734029225
-0.13403229192189 0.100963116946459 1.80811621121628
-0.0831752023064724 0.0937190514007719 1.81246694221453
-0.0388772172208139 0.0969414032546977 1.82243108933711
0.0056154413193496 0.0967881531683875 1.83038210785296
0.0507517264663945 0.0937350596174272 1.83644977040898
0.094056368132877 0.0838349813005666 1.84406917868375
0.128628936957457 0.0870936353608772 1.86916912871527
-0.227349220177485 0.135565160697846 1.83913987159295
-0.187299549776237 0.160628597446976 1.85593250712386
-0.141531901671694 0.143539283203525 1.84319507870728
-0.10246566414648 0.127008002986788 1.83464244577822
-0.0596889546834185 0.132351122987188 1.84875823871288
-0.0160165670590381 0.132960744258652 1.8584015529819
0.0320409015641948 0.129072824544367 1.86438859063188
0.0817857652513337 0.121085437118053 1.87089479143188
0.126436435227031 0.119670195111145 1.89994033707632
-0.234013527215211 0.167927673859717 1.8736161871524
-0.188794543045385 0.192815475061454 1.88828175185315
-0.142868545532249 0.17740724249058 1.87727121801209
-0.0964090785473014 0.160458786877336 1.86968052938717
-0.0494789905729646 0.167294891968197 1.88631166990451
0.000656258236759549 0.163160178678186 1.89247774505784
0.0484007683079573 0.158835419469289 1.897969075939
0.090398187324631 0.150907085205455 1.9059880043424
0.125490049654798 0.154342850975746 1.93535810035471
-0.237311993642099 0.199275321008281 1.90587778603528
-0.191136235587696 0.223442986068995 1.919120124938
-0.142282220857323 0.21154849939684 1.91202166394068
-0.0998675490650549 0.193294627726996 1.90227070733043
-0.0619929311971643 0.202104678369842 1.91903303515302
-0.0173470879794272 0.196019944785899 1.92208671041238
0.0306070862302958 0.192244652719856 1.92816626982731
0.0795722319172572 0.185754676525778 1.93621909677534
0.124641521899186 0.185474535262107 1.96716365916354
-0.240351886888246 0.229757832252968 1.9372051548726
-0.197295337911104 0.253761158627208 1.94997585564236
-0.147373183947141 0.243784672636336 1.94366595406847
-0.0982558860736141 0.231351697153401 1.94120564936295
-0.046748011229887 0.231480343912538 1.95197910944291
0.00135972135965449 0.226649621933355 1.957020462461
0.0477147997803055 0.223052192631838 1.96301031404813
0.0891123985706547 0.215836500195021 1.97216867973479
0.124051213047717 0.219588570996531 2.00234343311635
-0.244797465549049 0.262579361389967 1.97147773844139
-0.206792442323629 0.284620696009146 1.98261259846928
-0.159859084315654 0.277582281827675 1.97543251198614
-0.113347079671943 0.267257115655686 1.9745059778291
-0.0687496322794346 0.262672328454852 1.97907048189807
-0.0198194682032516 0.260362159209926 1.98683858414621
0.0289350889501845 0.256600893871291 1.99309741261683
0.077942692531763 0.250805382555662 2.00222151957485
0.122661711060671 0.250144984421595 2.03396470867292
-0.240376734984736 0.297289791170318 2.01061021389007
-0.183754884497367 0.306964590996483 2.01115639765924
-0.135075020941409 0.3003846837041 2.00973943852187
-0.0904910543392553 0.295445209701281 2.01323375170094
-0.0456721513327753 0.291201246721924 2.01787562023911
0.000653703020925739 0.288090551436976 2.02460026768294
0.0456796539198505 0.285056350719 2.03127557356737
0.0862752117353564 0.278248960001043 2.04140431185311
0.118021200771395 0.277394664952572 2.07479355343021
-0.215353089173524 0.319372732056469 2.04184646539587
-0.161184595339551 0.322609217803226 2.04763554673662
-0.115464268716715 0.319033803993227 2.05365008583688
-0.0704457163518557 0.314888968033985 2.05781776562825
-0.0247356174305174 0.31069984707482 2.06213699474824
0.0223565611262777 0.307444954753696 2.06949622349538
0.0692080503155507 0.302193758840211 2.07974280649781
3 0 1 2
3 0 2 4
3 3 0 4
3 3 4 6
3 5 3 6
3 5 6 8
3 7 5 8
3 7 8 10
3 9 7 10
3 9 10 12
3 11 9 12
3 13 11 14
3 14 11 12
3 13 14 15
3 16 17 18
3 16 18 1
3 0 19 1
3 19 16 1
3 0 3 20
3 19 0 20
3 3 5 21
3 20 3 21
3 5 7 22
3 21 5 22
3 7 9 23
3 22 7 23
3 9 11 24
3 23 9 24
3 24 11 25
3 25 11 13
3 13 15 26
3 27 13 26
3 25 13 27
3 27 26 28
3 17 16 30
3 30 16 29
3 29 19 31
3 29 16 19
3 31 20 32
3 31 19 20
3 32 21 33
3 32 20 21
3 21 22 33
3 33 22 34
3 22 23 34
3 34 23 35
3 23 24 35
3 35 24 36
3 24 25 36
3 36 25 37
3 37 27 38
3 37 25 27
3 38 28 39
3 38 27 28
3 30 40 41
3 30 29 40
3 29 31 42
3 40 29 42
3 31 32 43
3 42 31 43
3 32 33 44
3 43 32 44
3 33 34 45
3 44 33 45
3 34 35 46
3 45 34 46
3 35 36 47
3 46 35 47
3 36 37 47
3 47 37 48
3 37 38 48
3 48 38 49
3 49 39 50
3 49 38 39
3 40 51 52
3 41 40 52
3 51 42 53
3 51 40 42
3 42 43 53
3 53 43 54
3 43 44 54
3 54 44 55
3 44 45 55
3 55 45 56
3 45 46 56
3 56 46 57
3 46 47 58
3 57 46 58
3 47 48 59
3 58 47 59
3 48 49 60
3 59 48 60
3 49 50 61
3 60 49 61
3 51 62 63
3 52 51 63
3 51 53 64
3 62 51 64
3 53 54 65
3 64 53 65
3 54 55 66
3 65 54 66
3 55 56 67
3 66 55 67
3 56 57 67
3 67 57 68
3 57 58 69
3 68 57 69
3 58 59 69
3 69 59 70
3 59 60 70
3 70 60 71
3 71 61 72
3 71 60 61
3 62 73 74
3 63 62 74
3 62 64 75
3 73 62 75
3 64 65 75
3 75 65 76
3 65 66 76
3 76 66 77
3 66 67 77
3 77 67 78
3 67 68 78
3 78 68 79
3 79 69 80
3 79 68 69
3 80 70 81
3 80 69 70
3 81 71 82
3 81 70 71
3 82 72 83
3 82 71 72
3 74 73 85
3 85 73 84
3 84 73 86
3 86 73 75
3 75 76 86
3 86 76 87
3 76 77 88
3 87 76 88
3 77 78 89
3 88 77 89
3 78 79 90
3 89 78 90
3 79 80 91
3 90 79 91
3 80 81 92
3 91 80 92
3 81 82 93
3 92 81 93
3 93 83 94
3 93 82 83
3 84 95 85
3 84 86 96
3 97 84 96
3 95 84 97
3 96 87 98
3 96 86 87
3 87 88 98
3 98 88 99
3 88 89 99
3 99 89 100
3 89 90 100
3 100 90 101
3 101 91 102
3 101 90 91
3 102 92 103
3 102 91 92
3 92 93 103
3 105 103 104
3 103 93 104
3 93 94 104
3 96 106 97
3 96 98 107
3 106 96 107
3 98 99 108
3 107 98 108
3 99 100 109
3 108 99 109
3 100 101 110
3 109 100 110
3 101 102 111
3 110 101 111
3 111 102 112
3 112 102 103
3 103 105 112
3 117 114 115
3 116 113 117
3 117 113 114
3 116 117 119
3 118 116 119
3 118 119 121
3 120 118 121
3 120 121 123
3 122 120 123
3 122 123 125
3 124 122 125
3 124 125 127
3 126 124 127
3 126 127 128
3 129 130 131
3 114 129 131
3 114 113 129
3 113 2 129
3 129 2 1
3 4 113 116
3 4 2 113
3 6 116 118
3 6 4 116
3 8 118 120
3 8 6 118
3 10 120 122
3 10 8 120
3 12 122 124
3 12 10 122
3 14 124 126
3 14 12 124
3 133 126 128
3 15 14 126
3 15 126 133
3 132 15 133
3 132 133 134
3 135 136 137
3 137 17 135
3 137 18 17
3 18 137 130
3 129 18 130
3 18 129 1
3 15 132 26
3 139 132 134
3 139 138 132
3 138 28 26
3 132 138 26
3 138 139 140
3 136 135 142
3 142 135 141
3 17 30 135
3 135 30 141
3 143 39 28
3 138 143 28
3 143 140 144
3 143 138 140
3 141 145 146
3 142 141 146
3 41 145 141
3 30 41 141
3 147 39 143
3 147 50 39
3 147 144 148
3 147 143 144
3 145 149 150
3 146 145 150
3 52 149 145
3 41 52 145
3 151 50 147
3 151 155 50
3 151 148 152
3 151 147 148
3 149 153 154
3 150 149 154
3 63 153 149
3 52 63 149
3 155 61 50
3 155 72 61
3 155 151 156
3 156 151 152
3 154 157 158
3 154 153 157
3 74 157 153
3 63 74 153
3 159 72 155
3 159 83 72
3 159 156 160
3 159 155 156
3 158 157 162
3 162 157 161
3 74 85 161
3 157 74 161
3 163 83 159
3 163 94 83
3 163 160 164
3 163 159 160
3 161 165 162
3 165 95 166
3 165 161 95
3 161 85 95
3 165 166 167
3 95 97 166
3 105 104 168
3 170 94 163
3 170 168 94
3 169 168 170
3 94 168 104
3 163 164 170
3 166 171 167
3 173 171 172
3 172 171 106
3 171 97 106
3 171 166 97
3 172 107 174
3 172 106 107
3 174 108 175
3 174 107 108
3 175 109 176
3 175 108 109
3 176 110 177
3 176 109 110
3 177 111 178
3 177 110 111
3 178 112 180
3 178 111 112
3 181 105 168
3 181 180 105
3 179 178 180
3 180 112 105
3 168 169 181
3 172 182 173
3 182 172 183
3 183 172 174
3 174 175 184
3 183 174 184
3 175 176 185
3 184 175 185
3 176 177 186
3 185 176 186
3 177 178 187
3 186 177 187
3 187 179 188
3 187 178 179
3 179 180 229
3 189 190 191
3 114 131 191
3 115 114 191
3 115 191 192
3 115 192 193
3 117 115 193
3 119 193 194
3 119 117 193
3 119 194 121
3 121 194 195
3 121 195 123
3 123 195 196
3 123 196 125
3 125 196 197
3 127 197 198
3 127 125 197
3 128 198 199
3 200 128 199
3 128 127 198
3 200 199 201
3 202 203 204
3 131 130 189
3 190 189 204
3 189 130 202
3 189 202 204
3 131 189 191
3 128 200 133
3 134 200 205
3 206 205 201
3 134 133 200
3 205 200 201
3 205 206 207
3 136 208 203
3 202 137 136
3 202 136 203
3 137 202 130
3 134 205 139
3 139 205 207
3 140 139 207
3 211 207 209
3 136 142 208
3 208 142 210
3 211 140 207
3 211 144 140
3 146 212 210
3 142 146 210
3 148 144 213
3 213 144 211
3 150 214 212
3 146 150 212
3 215 148 213
3 215 152 148
3 154 216 150
3 150 216 214
3 219 152 217
3 217 152 215
3 158 218 216
3 154 158 216
3 219 156 152
3 219 160 156
3 158 220 218
3 158 162 220
3 221 160 219
3 221 164 160
3 162 165 222
3 223 220 222
3 220 162 222
3 165 167 222
3 169 170 224
3 225 164 221
3 224 170 164
3 224 164 225
3 222 226 223
3 167 171 227
3 226 167 227
3 226 227 228
3 226 222 167
3 171 173 227
3 180 181 229
3 181 169 230
3 231 169 224
3 230 169 231
3 230 229 181
3 224 225 271
3 227 232 228
3 232 182 233
3 232 173 182
3 227 173 232
3 182 183 234
3 233 182 234
3 183 184 234
3 234 184 235
3 184 185 235
3 235 185 236
3 185 186 236
3 236 186 237
3 186 187 237
3 237 187 238
3 238 188 239
3 238 187 188
3 188 179 229
3 240 239 188
3 240 188 229
3 229 230 240
3 191 190 242
3 242 190 241
3 192 242 243
3 192 191 242
3 192 243 244
3 193 192 244
3 194 244 245
3 194 193 244
3 194 245 246
3 195 194 246
3 195 246 247
3 196 195 247
3 196 247 248
3 197 196 248
3 197 248 249
3 198 197 249
3 199 198 249
3 250 199 249
3 201 199 251
3 251 199 250
3 204 252 253
3 204 203 252
3 190 253 241
3 190 204 253
3 206 251 254
3 206 201 251
3 207 206 255
3 255 206 254
3 203 256 252
3 203 208 256
3 257 209 255
3 255 209 207
3 210 258 208
3 208 258 256
3 211 209 259
3 259 209 257
3 212 260 210
3 210 260 258
3 213 211 259
3 261 213 259
3 214 262 260
3 212 214 260
3 215 213 261
3 263 215 261
3 216 264 214
3 214 264 262
3 217 215 263
3 265 217 263
3 218 266 264
3 216 218 264
3 219 217 265
3 267 219 265
3 218 268 266
3 218 220 268
3 221 219 267
3 269 221 267
3 223 270 268
3 220 223 268
3 225 221 269
3 271 225 269
3 223 226 272
3 270 223 272
3 272 228 273
3 272 226 228
3 274 231 275
3 274 230 231
3 275 231 271
3 271 231 224
3 273 228 276
3 276 228 232
3 276 233 277
3 276 232 233
3 233 234 278
3 277 233 278
3 234 235 279
3 278 234 279
3 235 236 280
3 279 235 280
3 236 237 281
3 280 236 281
3 237 238 282
3 281 237 282
3 238 239 283
3 282 238 283
3 327 239 284
3 284 239 240
3 240 230 274
3 284 240 274
3 241 285 286
3 242 241 286
3 242 286 243
3 243 286 287
3 243 287 288
3 244 243 288
3 245 288 289
3 245 244 288
3 245 289 246
3 246 289 290
3 246 290 247
3 247 290 291
3 247 291 248
3 248 291 292
3 248 292 293
3 249 248 293
3 249 293 250
3 250 293 294
3 250 294 295
3 251 250 295
3 252 296 297
3 253 252 297
3 241 297 285
3 241 253 297
3 254 295 298
3 254 251 295
3 254 298 299
3 255 254 299
3 256 300 252
3 252 300 296
3 257 255 299
3 301 257 299
3 258 302 300
3 256 258 300
3 259 257 303
3 303 257 301
3 260 304 258
3 258 304 302
3 261 259 303
3 305 261 303
3 262 306 304
3 260 262 304
3 263 261 305
3 307 263 305
3 264 308 262
3 262 308 306
3 265 263 307
3 309 265 307
3 266 310 308
3 264 266 308
3 267 265 309
3 311 267 309
3 266 312 310
3 266 268 312
3 269 267 311
3 313 269 311
3 270 314 312
3 268 270 312
3 271 269 315
3 315 269 313
3 270 272 316
3 314 270 316
3 316 273 317
3 316 272 273
3 318 275 319
3 318 274 275
3 275 271 315
3 319 275 315
3 273 276 320
3 317 273 320
3 276 277 320
3 320 277 321
3 277 278 322
3 321 277 322
3 322 279 323
3 322 278 279
3 279 280 323
3 323 280 324
3 280 281 324
3 324 281 325
3 281 282 325
3 325 282 326
3 282 283 326
3 326 283 327
3 283 239 327
3 327 284 328
3 284 274 318
3 328 284 318
3 285 329 330
3 286 285 330
3 286 330 287
3 287 330 331
3 287 331 332
3 288 287 332
3 288 332 289
3 289 332 333
3 289 333 334
3 290 289 334
3 290 334 335
3 291 290 335
3 291 335 292
3 292 335 336
3 292 336 337
3 293 292 337
3 293 337 294
3 294 337 338
3 294 338 339
3 295 294 339
3 296 340 341
3 297 296 341
3 285 341 329
3 285 297 341
3 298 339 342
3 298 295 339
3 298 342 343
3 299 298 343
3 300 344 296
3 296 344 340
3 301 299 343
3 345 301 343
3 302 346 344
3 300 302 344
3 303 301 347
3 347 301 345
3 304 348 302
3 302 348 346
3 305 303 347
3 349 305 347
3 306 350 348
3 304 306 348
3 307 305 351
3 351 305 349
3 308 352 306
3 306 352 350
3 309 307 353
3 353 307 351
3 310 354 352
3 308 310 352
3 311 309 355
3 355 309 353
3 312 356 310
3 310 356 354
3 313 311 355
3 357 313 355
3 314 358 356
3 312 314 356
3 315 313 359
3 359 313 357
3 314 316 360
3 358 314 360
3 360 317 361
3 360 316 317
3 362 319 363
3 362 318 319
3 319 315 359
3 363 319 359
3 317 320 364
3 361 317 364
3 320 321 364
3 364 321 365
3 321 322 366
3 365 321 366
3 322 323 366
3 366 323 367
3 323 324 368
3 367 323 368
3 324 325 369
3 368 324 369
3 325 326 370
3 369 325 370
3 326 327 371
3 370 326 371
3 327 328 371
3 371 328 372
3 328 318 362
3 372 328 362
3 329 373 374
3 330 329 374
3 330 374 331
3 331 374 375
3 331 375 376
3 332 331 376
3 332 376 333
3 333 376 377
3 333 377 378
3 334 333 378
3 334 378 379
3 335 334 379
3 335 379 336
3 336 379 380
3 336 380 381
3 337 336 381
3 337 381 338
3 338 381 382
3 338 382 383
3 339 338 383
3 340 384 385
3 341 340 385
3 329 385 373
3 329 341 385
3 342 383 386
3 342 339 383
3 342 386 387
3 343 342 387
3 344 388 340
3 340 388 384
3 345 343 387
3 389 345 387
3 346 390 388
3 344 346 388
3 347 345 391
3 391 345 389
3 348 392 346
3 346 392 390
3 349 347 391
3 393 349 391
3 350 394 348
3 348 394 392
3 351 349 395
3 395 349 393
3 352 396 350
3 350 396 394
3 353 351 395
3 397 353 395
3 354 398 396
3 352 354 396
3 355 353 399
3 399 353 397
3 356 400 354
3 354 400 398
3 357 355 399
3 401 357 399
3 358 402 400
3 356 358 400
3 359 357 403
3 403 357 401
3 358 360 404
3 402 358 404
3 404 361 405
3 404 360 361
3 406 363 407
3 406 362 363
3 363 359 403
3 407 363 403
3 361 364 408
3 405 361 408
3 364 365 408
3 408 365 409
3 365 366 410
3 409 365 410
3 366 367 410
3 410 367 411
3 367 368 412
3 411 367 412
3 368 369 412
3 412 369 413
3 369 370 413
3 413 370 414
3 370 371 415
3 414 370 415
3 371 372 415
3 415 372 416
3 372 362 406
3 416 372 406
3 373 417 418
3 374 373 418
3 374 418 375
3 375 418 419
3 375 419 420
3 376 375 420
3 376 420 377
3 377 420 421
3 377 421 422
3 378 377 422
3 378 422 423
3 379 378 423
3 380 423 424
3 380 379 423
3 380 424 425
3 381 380 425
3 382 425 426
3 382 381 425
3 382 426 427
3 383 382 427
3 384 428 429
3 385 384 429
3 373 429 417
3 373 385 429
3 386 427 430
3 386 383 427
3 386 430 431
3 387 386 431
3 384 432 428
3 384 388 432
3 389 387 431
3 433 389 431
3 390 434 432
3 388 390 432
3 435 389 433
3 435 391 389
3 390 436 434
3 390 392 436
3 393 391 435
3 437 393 435
3 394 438 436
3 392 394 436
3 395 393 439
3 439 393 437
3 396 440 438
3 394 396 438
3 397 395 439
3 441 397 439
3 398 442 440
3 396 398 440
3 399 397 443
3 443 397 441
3 400 444 398
3 398 444 442
3 401 399 443
3 445 401 443
3 402 446 444
3 400 402 444
3 403 401 447
3 447 401 445
3 402 404 448
3 446 402 448
3 448 405 449
3 448 404 405
3 450 407 451
3 450 406 407
3 407 403 447
3 451 407 447
3 405 408 452
3 449 405 452
3 408 409 452
3 452 409 453
3 409 410 454
3 453 409 454
3 410 411 454
3 454 411 455
3 411 412 456
3 455 411 456
3 412 413 456
3 456 413 457
3 457 414 458
3 457 413 414
3 414 415 459
3 458 414 459
3 415 416 459
3 459 416 460
3 416 406 450
3 460 416 450
3 418 461 462
3 418 417 461
3 419 462 463
3 419 418 462
3 419 463 464
3 420 419 464
3 420 464 421
3 421 464 465
3 421 465 466
3 422 421 466
3 422 466 467
3 423 422 467
3 424 467 468
3 424 423 467
3 424 468 469
3 425 424 469
3 426 469 470
3 426 425 469
3 427 426 471
3 471 426 470
3 429 428 473
3 473 428 472
3 417 473 505
3 417 429 473
3 430 427 471
3 520 430 471
3 431 474 475
3 431 430 474
3 428 476 472
3 428 432 476
3 433 431 475
3 477 433 475
3 434 478 476
3 432 434 476
3 479 433 477
3 479 435 433
3 434 480 478
3 434 436 480
3 437 435 479
3 481 437 479
3 438 482 436
3 436 482 480
3 439 437 483
3 483 437 481
3 440 484 482
3 438 440 482
3 441 439 483
3 485 441 483
3 442 486 440
3 440 486 484
3 443 441 487
3 487 441 485
3 444 488 442
3 442 488 486
3 445 443 487
3 489 445 487
3 444 446 488
3 488 446 490
3 491 445 489
3 491 447 445
3 490 446 492
3 492 446 448
3 492 449 493
3 492 448 449
3 494 451 495
3 494 450 451
3 451 447 491
3 495 451 491
3 449 452 496
3 493 449 496
3 496 453 497
3 496 452 453
3 453 454 498
3 497 453 498
3 498 455 499
3 498 454 455
3 455 456 500
3 499 455 500
3 456 457 501
3 500 456 501
3 457 458 502
3 501 457 502
3 458 459 503
3 502 458 503
3 503 460 504
3 503 459 460
3 504 460 494
3 494 460 450
3 461 505 506
3 462 461 506
3 507 463 462
3 507 462 506
3 465 463 508
3 508 463 507
3 464 463 465
3 465 508 509
3 465 509 466
3 466 509 510
3 466 510 467
3 467 510 511
3 467 511 468
3 468 511 512
3 468 512 513
3 469 468 513
3 469 513 470
3 515 470 514
3 470 513 514
3 470 515 471
3 472 516 473
3 518 516 517
3 518 505 516
3 461 417 505
3 505 473 516
3 505 518 506
3 515 514 519
3 474 430 520
3 521 520 519
3 520 471 515
3 520 515 519
3 474 520 524
3 476 522 472
3 516 472 523
3 472 522 523
3 516 523 517
3 520 521 524
3 477 475 524
3 524 475 474
3 525 477 524
3 478 526 522
3 476 478 522
3 527 477 525
3 527 479 477
3 478 528 526
3 478 480 528
3 481 479 527
3 529 481 527
3 482 530 480
3 480 530 528
3 483 481 531
3 531 481 529
3 484 532 530
3 482 484 530
3 485 483 531
3 533 485 531
3 486 534 484
3 484 534 532
3 535 485 533
3 535 487 485
3 486 536 534
3 486 488 536
3 537 489 535
3 535 489 487
3 490 538 539
3 536 490 539
3 488 490 536
3 538 540 539
3 541 542 543
3 541 489 537
3 542 541 537
3 541 491 489
3 490 492 538
3 545 493 544
3 538 492 493
3 538 493 545
3 540 538 545
3 544 546 545
3 547 548 549
3 543 495 541
3 547 494 495
3 547 495 543
3 608 547 543
3 495 491 541
3 493 496 544
3 544 497 550
3 546 544 550
3 544 496 497
3 550 497 551
3 551 497 498
3 498 499 551
3 551 499 552
3 499 500 552
3 552 500 553
3 500 501 553
3 553 501 554
3 554 502 555
3 554 501 502
3 502 503 556
3 555 502 556
3 503 504 556
3 549 504 547
3 556 504 549
3 504 494 547
3 506 557 507
3 507 557 558
3 508 507 558
3 508 558 559
3 509 508 559
3 509 559 560
3 510 509 560
3 510 560 561
3 511 510 561
3 511 561 562
3 512 511 562
3 514 512 563
3 563 512 562
3 513 512 514
3 517 564 518
3 518 564 557
3 566 564 565
3 557 564 566
3 557 506 518
3 558 566 567
3 558 557 566
3 559 567 568
3 559 558 567
3 560 568 569
3 560 559 568
3 561 569 570
3 561 560 569
3 562 570 571
3 562 561 570
3 563 562 571
3 572 563 571
3 574 514 563
3 572 574 563
3 573 519 574
3 574 519 514
3 519 573 521
3 522 575 523
3 577 575 576
3 577 517 575
3 564 517 577
3 575 517 523
3 564 577 565
3 573 574 572
3 521 573 579
3 580 573 578
3 579 573 580
3 579 524 521
3 524 579 525
3 522 581 575
3 522 526 581
3 576 581 582
3 576 575 581
3 583 580 584
3 583 579 580
3 583 525 579
3 583 527 525
3 526 585 581
3 526 528 585
3 582 585 586
3 582 581 585
3 587 584 588
3 587 583 584
3 587 527 583
3 587 529 527
3 528 589 585
3 528 530 589
3 586 589 590
3 586 585 589
3 591 588 592
3 591 587 588
3 591 529 587
3 591 531 529
3 532 593 589
3 530 532 589
3 590 593 594
3 590 589 593
3 595 592 596
3 595 591 592
3 595 531 591
3 595 533 531
3 534 597 593
3 532 534 593
3 594 597 598
3 594 593 597
3 599 596 600
3 599 595 596
3 599 533 595
3 599 535 533
3 534 601 597
3 534 536 601
3 602 597 601
3 602 598 597
3 603 599 600
3 604 603 600
3 603 535 599
3 603 537 535
3 536 539 601
3 606 540 605
3 606 602 540
3 602 601 539
3 540 602 539
3 605 607 606
3 608 609 610
3 608 543 609
3 604 542 603
3 609 543 542
3 609 542 604
3 542 537 603
3 540 545 605
3 605 546 607
3 612 607 611
3 605 545 546
3 607 546 611
3 612 613 614
3 612 611 613
3 614 615 616
3 614 613 615
3 616 617 618
3 616 615 617
3 618 619 620
3 618 617 619
3 620 621 622
3 620 619 621
3 622 623 624
3 622 621 623
3 610 548 608
3 624 623 548
3 624 548 610
3 548 623 549
3 548 547 608
3 546 550 611
3 611 550 613
3 613 550 551
3 551 552 615
3 613 551 615
3 552 553 617
3 615 552 617
3 553 554 619
3 617 553 619
3 554 555 621
3 619 554 621
3 621 555 623
3 623 555 556
3 556 549 623
3 565 625 626
3 567 566 626
3 626 566 565
3 567 626 627
3 568 567 627
3 568 627 628
3 569 568 628
3 569 628 629
3 570 569 629
3 570 629 630
3 571 570 630
3 572 571 631
3 631 571 630
3 572 631 578
3 576 632 577
3 625 632 633
3 565 577 632
3 565 632 625
3 625 633 634
3 626 625 634
3 626 634 627
3 627 634 635
3 627 635 628
3 628 635 636
3 628 636 629
3 629 636 637
3 629 637 630
3 630 637 638
3 631 638 639
3 631 630 638
3 640 578 639
3 578 573 572
3 578 631 639
3 578 640 580
3 576 641 632
3 576 582 641
3 633 641 642
3 633 632 641
3 633 642 643
3 634 633 643
3 634 643 644
3 635 634 644
3 635 644 645
3 636 635 645
3 636 645 646
3 637 636 646
3 637 646 647
3 638 637 647
3 638 647 648
3 639 638 648
3 640 648 649
3 640 639 648
3 584 580 640
3 649 584 640
3 582 650 641
3 582 586 650
3 642 650 651
3 642 641 650
3 642 651 652
3 643 642 652
3 643 652 653
3 644 643 653
3 644 653 645
3 645 653 654
3 645 654 646
3 646 654 655
3 646 655 647
3 647 655 656
3 647 656 648
3 648 656 657
3 648 657 649
3 649 657 658
3 588 584 649
3 658 588 649
3 586 659 650
3 586 590 659
3 650 659 651
3 651 659 660
3 651 660 661
3 652 651 661
3 652 661 662
3 653 652 662
3 653 662 654
3 654 662 663
3 654 663 664
3 655 654 664
3 655 664 665
3 656 655 665
3 656 665 666
3 657 656 666
3 657 666 658
3 658 666 667
3 592 588 658
3 667 592 658
3 590 668 659
3 590 594 668
3 660 668 669
3 660 659 668
3 660 669 670
3 661 660 670
3 661 670 671
3 662 661 671
3 662 671 663
3 663 671 672
3 663 672 664
3 664 672 673
3 664 673 665
3 665 673 674
3 665 674 666
3 666 674 675
3 666 675 667
3 667 675 676
3 596 592 667
3 676 596 667
3 594 677 668
3 594 598 677
3 668 677 669
3 669 677 678
3 669 678 679
3 670 669 679
3 670 679 680
3 671 670 680
3 671 680 681
3 672 671 681
3 672 681 682
3 673 672 682
3 673 682 683
3 674 673 683
3 674 683 684
3 675 674 684
3 676 684 685
3 676 675 684
3 600 596 676
3 685 600 676
3 598 686 677
3 598 602 606
3 678 686 687
3 678 677 686
3 678 687 679
3 679 687 688
3 679 688 680
3 680 688 689
3 680 689 681
3 681 689 690
3 681 690 682
3 682 690 691
3 683 691 692
3 683 682 691
3 684 692 693
3 684 683 692
3 685 693 694
3 685 684 693
3 694 604 685
3 685 604 600
3 598 606 686
3 606 607 695
3 686 606 695
3 686 695 687
3 688 687 696
3 696 687 695
3 688 696 697
3 689 688 697
3 689 697 698
3 690 689 698
3 690 698 699
3 691 690 699
3 691 699 700
3 692 691 700
3 692 700 701
3 693 692 701
3 610 609 694
3 701 610 694
3 701 694 693
3 609 604 694
3 607 612 695
3 695 612 696
3 696 612 614
3 614 616 697
3 696 614 697
3 616 618 698
3 697 616 698
3 618 620 699
3 698 618 699
3 620 622 700
3 699 620 700
3 622 624 701
3 700 622 701
3 624 610 701
