OFF
702 1400 0
-0.251009283879883 -0.352169406994844 2.11968948441298
-0.296598122007787 -0.337861452241768 2.10281012414869
-0.268361358708923 -0.355356572001208 2.07419246828719
-0.204060776234375 -0.358562991758314 2.1239040455683
-0.222302853587209 -0.36591692294701 2.07870486176012
-0.157197828393009 -0.36292107964112 2.1266747712175
-0.175865174121791 -0.369796088117294 2.08048255224185
-0.111769338484269 -0.36671527555313 2.13068623466527
-0.130494799942478 -0.373459904645484 2.08197674777018
-0.0668271778590939 -0.370340288765096 2.13506592364442
-0.0856885989952822 -0.376883721385876 2.0862883856965
-0.0192786428984329 -0.373340759359828 2.14238461132084
-0.039848902080156 -0.380169258420383 2.09446311756515
0.0288007324271778 -0.368905055425299 2.15086979369391
0.00750457565437854 -0.381781499050947 2.10325579989729
0.0539553026597484 -0.372944494356621 2.11242750632004
-0.31941485267887 -0.311230266665119 2.13272110777118
-0.349375352447648 -0.292586952599016 2.10640623068164
-0.32796899659419 -0.320650955865417 2.07619236037778
-0.278770893575967 -0.327921346283121 2.15137877771218
-0.231961208842798 -0.337148094786391 2.16272797897212
-0.184203722923509 -0.342168393624994 2.16613887668973
-0.137384258530103 -0.345912232206819 2.17116168781378
-0.0921199843440433 -0.349150067901974 2.17666818219954
-0.0477649455016403 -0.354192479524945 2.17882047477106
0.000907053225342264 -0.354898765595202 2.18591494930464
0.0746132849658079 -0.352623474482251 2.157371923029
0.0459953511468397 -0.342764312883193 2.19426424855202
0.0918859233169604 -0.322030483552668 2.19304060677781
-0.306570039203553 -0.292726024778668 2.1754039664851
-0.346964110209804 -0.271063639506568 2.14873284890699
-0.26043114627209 -0.306714445908528 2.19204097581228
-0.210407283311119 -0.313007341246896 2.19961786611915
-0.16275514532556 -0.317136051876414 2.20447860875201
-0.115093324607921 -0.319481587038362 2.21141329653761
-0.0703481348981031 -0.322102964534987 2.21743534169292
-0.0280180240298352 -0.330932097288967 2.215759061975
0.0132657640454252 -0.322880742394232 2.22677990048738
0.0587932120006286 -0.309100885865276 2.22887569979256
0.10336891634387 -0.285990645389408 2.22356146067002
-0.325131885477457 -0.256936731856013 2.19823753090243
-0.358552750282749 -0.234275779830824 2.17312549629791
-0.283970901615523 -0.272643871726114 2.21840910373696
-0.234833598631118 -0.283384032131561 2.22887997380033
-0.186030673536747 -0.285488415971264 2.23651925923082
-0.138523520208841 -0.29001531081015 2.24088900004652
-0.0869945388582132 -0.290865640622106 2.25034300412826
-0.0320508105281435 -0.299743690488046 2.2511650940074
0.0183381600931398 -0.29246835679576 2.26078045221151
0.0686575185046439 -0.276370566010559 2.26025386139267
0.113132256946016 -0.249397422423127 2.25378472121925
-0.3093449932208 -0.235171928303668 2.24208059824727
-0.350062080769498 -0.215952270887635 2.21217454173087
-0.2599106166654 -0.252705352665757 2.25584901074537
-0.212454940751087 -0.25512235962325 2.26643403894009
-0.166882545933574 -0.256149619537685 2.27447592489209
-0.122861810521686 -0.263556783990217 2.27479353403822
-0.0894159612930662 -0.252406218836565 2.29452133277834
-0.0544276402180019 -0.270530499802166 2.28056119245568
-0.0121200438395664 -0.267229046982805 2.29150123596387
0.035721126826815 -0.260289936599885 2.29311655802581
0.0835742830025969 -0.240777013222015 2.28993549966959
-0.312808071930312 -0.197104597841721 2.28457280839634
-0.340914285997368 -0.197549373251169 2.24969961641952
-0.279664911352995 -0.222903991821493 2.2803514706673
-0.232530612337215 -0.225734046095446 2.29649233703492
-0.18777339440493 -0.224642193127258 2.30683839338784
-0.138804162642639 -0.229373440159074 2.31126593414259
-0.0933910470461018 -0.224010924608263 2.32669721097838
-0.0458605605319794 -0.236620921437281 2.32168246844232
0.0021730218318517 -0.236250943504805 2.3269771089992
0.0498603494282263 -0.228258139364163 2.32385583895554
0.0970893501555101 -0.205233328364636 2.31797568013641
-0.30235031094639 -0.17464520153472 2.32120476883703
-0.34667362184757 -0.160338877479426 2.28693886250461
-0.263446693601017 -0.198556052924498 2.31790879898572
-0.217491790283324 -0.192989771496127 2.33757833047789
-0.167398572147511 -0.197294296748443 2.34273035805449
-0.121578072542255 -0.197147303032389 2.35218699713887
-0.0699941777600687 -0.201001815687208 2.35816265679234
-0.0249846861003089 -0.20717660739882 2.3597245386215
0.0213633997065703 -0.203888699588871 2.36103153719512
0.0652020604754142 -0.195667597963551 2.35238435927048
0.101343035938305 -0.169592658801198 2.35274882637501
-0.297852939925334 -0.137007049478167 2.35926878353158
-0.331709438624602 -0.144112483245394 2.32572782497631
-0.264147611843742 -0.166570792362954 2.35297597409902
-0.229632315075036 -0.155422400083018 2.37138833517903
-0.186811782122271 -0.163664571611586 2.3724620628609
-0.141668612823381 -0.163911728166819 2.38011249868437
-0.0944144092103192 -0.167206980173469 2.38575350791215
-0.0457528840522735 -0.171252420414885 2.39106576087545
0.00256532312971075 -0.174027509955293 2.39251196755555
0.0540735908038089 -0.167414617235416 2.38515154059179
0.101124616364408 -0.135405443284989 2.37915428691138
-0.339408406957458 -0.105977198366131 2.34495777016051
-0.260756400900094 -0.118839834396696 2.38619771404381
-0.304543174074198 -0.0941274152606388 2.37684880820176
-0.21126092608494 -0.119573326445821 2.39532952236617
-0.165168197068431 -0.124255693322773 2.40008771049195
-0.118464357966028 -0.125278504029468 2.40658073523817
-0.0726080557103325 -0.129833028854487 2.41137166166764
-0.0258828106504765 -0.13428002004776 2.41604923501537
0.0207920643409715 -0.135460839388332 2.41383928157296
0.0650516987088342 -0.12826171550878 2.40396385297517
0.0465091338781201 -0.0905794072287998 2.422831960914
-0.2778488702359 -0.0679935683607197 2.39630638859605
-0.235300936315475 -0.0773511582207155 2.4056603150505
-0.186235552412442 -0.0792116282911787 2.41170278131561
-0.140453198558451 -0.080349046068115 2.41741918765077
-0.0941377966457613 -0.0818002693763958 2.42312069916751
-0.0494984512598927 -0.088480416799176 2.42764117125912
-0.00174323963055145 -0.0926641989137816 2.43028563594112
-0.246415540940385 -0.360632897625136 2.03452791787527
-0.270388679934695 -0.344818927716873 1.99997023364296
-0.246978274557483 -0.335681674113575 1.96284607631025
-0.196747672558252 -0.366778968258091 2.03472595865353
-0.218524121476078 -0.355574253684867 1.99427529894492
-0.150671407588271 -0.369282622102058 2.03385854419336
-0.17037949002124 -0.355372706030538 1.98865237473942
-0.105227910854119 -0.372182459778297 2.03617121538152
-0.125054255138595 -0.356792152446965 1.98919743684966
-0.0598539248577094 -0.376007622791458 2.04360416686262
-0.0774369398351575 -0.360556347786815 1.99506906275195
-0.0148883626534781 -0.380207095212365 2.05370763448733
-0.0316629432868687 -0.365558074848154 2.00395360322409
0.0311736226961708 -0.379058200435246 2.06225667018966
0.0126073315611999 -0.370165574345142 2.01495453583282
0.0604938407068104 -0.363510952026193 2.02428579730378
-0.298106063397282 -0.341201772272496 2.04356990358986
-0.336821075161624 -0.310071601941526 2.02944193645896
-0.307217818612224 -0.323611362138757 1.99613116298442
0.0985495402390432 -0.352737415507222 2.11777209349732
0.0742758734384595 -0.367644825535978 2.07215010459626
0.113804898564984 -0.34611611952265 2.07536995427261
-0.374916111226588 -0.256577347490558 2.09891186947278
-0.385418004679832 -0.241289787851295 2.05015822420217
-0.362331250975185 -0.284332234464277 2.06057749010479
0.11951342612744 -0.326367297951368 2.15294861661358
0.139999693986581 -0.322041315190698 2.10875082996812
0.156970639496177 -0.29232408287475 2.13781594973375
-0.377173986158744 -0.229868893366541 2.13202966245625
-0.393229409944384 -0.211179240489655 2.08677614453327
0.133267365863316 -0.292252100002016 2.18323599868299
0.164089383930858 -0.25486726478796 2.17070498438797
-0.381058645911073 -0.193396943360979 2.1681149637076
-0.393876540630941 -0.183542274033458 2.1248980795835
0.14095321376968 -0.253609279281371 2.21359846463542
0.170334055376188 -0.214488322671189 2.19739108380453
-0.37556158565393 -0.176582903991364 2.20696959919175
-0.396280428884638 -0.14585292300415 2.16654405269319
0.149435103355353 -0.214130842751541 2.24145318660884
0.174579327068913 -0.17421992127809 2.22608889850355
-0.367703076011371 -0.160846424673956 2.24687307695861
-0.391747378340464 -0.130782403812052 2.2128050738454
0.126273121508755 -0.209844151504936 2.2810548185461
0.158550303135964 -0.170649871229192 2.26913423408599
-0.381662932354462 -0.121772345503113 2.2614348859407
-0.400184759536868 -0.0857810149642479 2.23230887617508
0.133525595814477 -0.171710115176218 2.31190432634971
0.163484521228547 -0.132326442603867 2.29720436431751
-0.366111701511963 -0.116587974366329 2.30328306792271
-0.390627825162705 -0.0774072917913623 2.28024062301986
0.136836011523803 -0.136205592036387 2.34239096308525
0.160291358616414 -0.0973049730710061 2.33094549490455
-0.369187108909635 -0.0726117542263423 2.32343940155603
-0.337097954498945 -0.0633431928249771 2.36151785358282
-0.357086386299382 -0.0289182259639494 2.34392718697304
0.0936710452686217 -0.0898498685547637 2.40201344863964
0.116745293451686 -0.0495473265972866 2.39016534222756
0.130419649449746 -0.0958980660259472 2.37110068103322
-0.311740001684432 -0.0368159070411743 2.38229638885365
-0.259295648220563 -0.0271755265581664 2.40467478075074
-0.291423486743687 0.00181954227213502 2.38903719934062
-0.209647034141815 -0.0360285952746531 2.41285878682117
-0.16240538315164 -0.0331706046820684 2.41811572190686
-0.115784165409388 -0.0346077444244131 2.42337822393445
-0.0689488325836778 -0.0361098690146673 2.42864678406226
-0.0259283576380233 -0.0469254704393981 2.43386297426889
-0.000670829803602474 -0.0100697094977219 2.43006679064537
0.0247667222917569 -0.05020014413791 2.43176752489429
0.0734545286963297 -0.048741509537025 2.41683717035691
-0.258077701238502 0.0311110884443843 2.39291069529146
-0.226324430034704 0.00681231332382053 2.40607430727671
-0.182229528803271 0.0121812089729126 2.40898997545044
-0.136134359660427 0.0121864752175105 2.41331348235564
-0.089436177297868 0.0101315760864446 2.41825306367336
-0.0410181613039035 0.00836480078382074 2.42324965323407
0.0147369311163895 0.0279439181159798 2.41652439229503
-0.33511019156054 -0.291452779409727 1.98097861886892
-0.318966859387933 -0.276276009587527 1.9425484462681
-0.288152731793518 -0.312527043140631 1.9548382060675
-0.23940557426861 -0.311785111906432 1.9278285153013
-0.197289128988553 -0.33621518653139 1.95285667837395
-0.146793963493508 -0.331338221392231 1.94625151587334
-0.0967773354890028 -0.336630898407547 1.95404400989455
-0.0446942875553802 -0.34075327540039 1.9603020448795
0.000652566011024161 -0.346486765857595 1.9687429185786
0.0447995942537937 -0.350277842951904 1.98458283400758
0.0871336955136972 -0.331988631666105 1.9842160506115
0.100005868700268 -0.347164235996861 2.03167023830501
0.126449355079647 -0.320197559885992 2.01467432477749
-0.365023983684662 -0.270667856565543 2.01509742506311
-0.382905792608285 -0.223932441098097 2.00368557623375
-0.359407182066328 -0.249602968177355 1.97261424219302
0.143163401101687 -0.318815854857795 2.05928212635735
0.158888271105178 -0.288999836211567 2.02888308874986
0.168989184016603 -0.287464127678831 2.0841106291863
-0.397191222220228 -0.192215156762393 2.04124831773607
0.188568796611917 -0.245107759664716 2.08276478622729
-0.400262530572657 -0.162312134890129 2.07482250196906
0.180721153788435 -0.254297305716618 2.12500978657615
-0.40127714774992 -0.141527909806521 2.11826294342236
0.1862094104668 -0.213035538001801 2.15009754633426
-0.403485921559947 -0.102240121948936 2.13505792926676
0.188661594362448 -0.173563915892517 2.17534783845542
-0.403364589053314 -0.0959555217939472 2.18251549111221
0.18918620148328 -0.137092100868094 2.20378118370696
-0.406673726753488 -0.0489036956327711 2.20245459042938
0.181413428917902 -0.125964804471605 2.24960702032291
-0.402787906735041 -0.0395096252005562 2.25314037475298
0.181501282769532 -0.088078705823953 2.28361743885843
-0.385909125736907 -0.0325136798704528 2.30136701858142
-0.392538101234666 0.00565494070224892 2.27359059538787
0.149927953760155 -0.0535623475590506 2.35606841404437
0.174168540852215 -0.0558776668477548 2.31488603154865
-0.368734927552819 0.0101876688037096 2.31986040226698
-0.333834130818025 0.00474267831898369 2.36088433835188
-0.341006882574219 0.0470508485410506 2.33446043542849
0.0491869748742073 -0.00794272389431908 2.42090629944935
0.0956128804485029 -0.00726709089430105 2.39919656631751
0.134447662513809 -0.0082103906029759 2.36704081050926
-0.304146305037378 0.0425386907868225 2.36767637309479
-0.263712858682333 0.0692827305557566 2.37163778265344
-0.211136825741106 0.0531227876405446 2.39068465912021
-0.16209961904657 0.0552954827410513 2.39320849600037
-0.114744333033668 0.0542311598003842 2.39724988156897
-0.0673608949156613 0.0510355960308414 2.40248534585706
-0.021369002018048 0.0517004157940681 2.4053402383904
0.0322095380094737 0.0633620501609351 2.39289788333146
0.0660673945429109 0.0313648454401822 2.40033433019938
-0.307850338485902 -0.243453973372194 1.9081107905884
-0.276280959171292 -0.282859897454574 1.91634864212286
-0.227865342893043 -0.279254483453488 1.89610558980168
-0.190444065589847 -0.308049152093339 1.9185180491919
-0.146840959299899 -0.29570024131846 1.90947253132162
-0.106570183191956 -0.303556042982866 1.91829647521727
-0.0595129565249634 -0.312515763112832 1.92848398166408
-0.00332966370946035 -0.313591760185368 1.93213431147211
0.0442818451519033 -0.323472217410883 1.94910494466475
0.0894684100186755 -0.299622669962552 1.94877548594071
0.127523317751608 -0.295953057868308 1.98099770607706
-0.371300796931225 -0.196974242530912 1.96038022060251
-0.343435872803651 -0.233928374256076 1.9381421954473
0.160211455731423 -0.260022458161168 1.9921159053961
0.18052268612036 -0.253505814357423 2.04046527341289
-0.390329773173988 -0.176215937213909 2.00073547087454
0.196964334405527 -0.206085146913188 2.05586250416423
-0.395684259186188 -0.136243108956577 2.03098297055063
0.196072951595235 -0.204887420064918 2.10564322606622
-0.399553414273222 -0.113933207314459 2.07922846323784
0.196698756053873 -0.163065864331853 2.12871865563634
-0.398749887681183 -0.0709521474555121 2.10041274050702
0.196380043294504 -0.124657531086379 2.15665396498636
-0.403576477135788 -0.0566739428863341 2.15178834430413
0.193358018086735 -0.0948227812939421 2.20247606226995
-0.402500057448904 -0.0118795872388462 2.17171747945305
0.190313926911035 -0.0743297143539916 2.24235847853713
-0.4038487739567 -0.00271799139734367 2.22331756018379
0.185411964533528 -0.0316524110778963 2.27880837841257
-0.388864097338155 0.0418416939579327 2.24342354831361
0.164225100999216 -0.0132094052191456 2.32690002008212
-0.370040680793714 0.0478225262344244 2.29113620762825
-0.337230226817135 0.0845347905420832 2.30427495050021
0.108324172200763 0.0330922052692574 2.37261074471705
0.14352814053137 0.0298196440990834 2.33624942691688
-0.303226892813341 0.0817097110237763 2.34110364783451
-0.259726549949057 0.108154427733737 2.34053438531189
-0.224023599628434 0.0891407013745486 2.36625345421691
-0.179130141229097 0.0930911457598701 2.3654669759238
-0.135010350419426 0.093563156605762 2.36723962102992
-0.0882647401873239 0.0896346635192171 2.37296950943174
-0.0449563770085732 0.0894875062094978 2.3752408829157
-0.00233256695160539 0.0875929964105126 2.37847307131508
0.0753610219449528 0.0700267933798732 2.36983532991706
-0.304551300633643 -0.208216349058146 1.88017478715284
-0.265976333456832 -0.247306928782802 1.8836358235725
-0.219096244069543 -0.244059847234824 1.86529605578606
-0.179343999115356 -0.270491072434035 1.88594173677679
-0.125534111107254 -0.261174720739407 1.88050290899338
-0.079583155530399 -0.273690393314766 1.89366070271271
-0.0338688381965344 -0.285490700839817 1.90618491598193
0.00949738659228977 -0.273399766463193 1.8978168952204
0.0472167316863926 -0.290621229995844 1.91938373700276
0.0937564617860174 -0.26441966875463 1.91718457857806
0.130496451693109 -0.263605396204834 1.94988152410576
-0.366431316199342 -0.158702605949092 1.93110292498371
-0.342015472134095 -0.199107736188778 1.91416828714006
0.166041330985931 -0.225522759834494 1.9620220522715
0.186218133573123 -0.218437903996474 2.00853275684702
-0.385576820315453 -0.143077381780634 1.97584616433699
0.203150925174233 -0.171287933903057 2.02814724727587
-0.389099877660502 -0.0982550762822511 1.99865206361225
0.202386851785429 -0.161532630733811 2.08028216072101
-0.393433212214443 -0.0838326327934663 2.04576494987977
0.202773176658835 -0.116152300694316 2.10667060884891
-0.392714151468544 -0.0387994241132241 2.06903156159281
0.200134148675545 -0.0801304377487226 2.15320433592113
-0.397288769693159 -0.0232575946150496 2.1189708459484
0.198257534116367 -0.0499555317057215 2.18928828224207
-0.396354499201547 0.0226572427418201 2.14093950171385
0.194658977846367 -0.0318090763447871 2.23217034241419
-0.39769587046566 0.0332513729191573 2.19303103989346
0.191017922807983 0.0107291102239201 2.24871585741534
-0.382618462334545 0.0774501467293901 2.21291187535678
0.17289619708327 0.0178248342502407 2.29385812199412
-0.363981925013272 0.0835276248858244 2.2605748785556
-0.330216614854652 0.120787351368432 2.27395125946874
0.1150490879411 0.0706866830883382 2.34048079227706
0.150998131440134 0.0642889140584775 2.30459322211767
-0.296936884447852 0.117749100918835 2.31027956296968
-0.248338947758438 0.142738987063277 2.31273688122736
-0.20805049963367 0.123831168038047 2.33730362963668
-0.157096147841069 0.130595249136225 2.333943416951
-0.104398915435665 0.12397143144243 2.34231170046497
-0.056017607175118 0.125503137856423 2.34337438548853
-0.00992385239793714 0.123356908795626 2.3475218044883
0.0379359867723983 0.102432355082441 2.35992216079341
0.0792459985406271 0.108178597127064 2.33853345021812
-0.299033762910285 -0.173601420746393 1.85082033738039
-0.261078014862631 -0.211711430492286 1.85364129631502
-0.213145102452349 -0.210396517729045 1.83629788311885
-0.168227942961374 -0.237241256297465 1.85757656610101
-0.121021372186685 -0.222199846059508 1.84683358030805
-0.078942533809644 -0.236809000614198 1.86162077747438
-0.0342837524017948 -0.250470502570775 1.87571061783744
0.0120470695466248 -0.23596364460354 1.86538826473835
0.0552509209190201 -0.253547662468643 1.88795887703203
0.100711668084143 -0.228311004970862 1.88654484891049
0.136579646873827 -0.229630042785122 1.92081487565089
-0.359983518790678 -0.122435262314028 1.89962921814398
-0.336673594096439 -0.165441526950145 1.8858892609098
0.172357632027721 -0.19080493280483 1.93266324188197
0.192771574084496 -0.18276956989229 1.97916873366054
-0.379207846512017 -0.109879519484466 1.94520465648154
0.209244060857275 -0.136695643765371 1.99962848135625
-0.382808680267846 -0.0652794267827343 1.96558696393825
0.208306089425791 -0.125714456745116 2.05231572464359
-0.387156994979524 -0.0459267651981977 2.01606096179618
0.209640573734827 -0.0805872098743717 2.0702888600266
-0.387238432076507 -0.00175668046201698 2.04570839965171
0.205598513216953 -0.0661198808576873 2.1148962932961
-0.391184410092379 0.0130048561592628 2.08968169410502
0.205086132532421 -0.0240865651506276 2.14689758984334
-0.390017008709759 0.0572118919503103 2.10850694442423
0.20118906481267 -0.00142469491276302 2.19561355037487
-0.39174848360466 0.0676431936347714 2.16182323728913
0.19814821790246 0.0434770374296995 2.21549163639226
-0.376478214693709 0.112277171967479 2.18321053474773
0.178409871491783 0.0562117779401485 2.26328266892038
-0.357289630685283 0.119235979434595 2.23084127184456
-0.321917581045425 0.156392961476923 2.24592825669182
0.120463700432973 0.106908811249699 2.31010811608571
0.156396231836498 0.101049770412539 2.27432745376089
-0.287145726341188 0.153075596902063 2.28255690064303
-0.238796226786965 0.17742869170971 2.28403855821008
-0.197365936992511 0.157652773636045 2.30842046170204
-0.152513035142159 0.171949126843395 2.29820909477232
-0.115324251174098 0.155566640286385 2.31429549418879
-0.0676382204579405 0.158878487131838 2.31377559803574
-0.017258295054567 0.159465077397115 2.3157589833264
0.0328727020011693 0.138960902211574 2.33118208172323
0.0805549060587698 0.143472372743417 2.31071710581683
-0.292808283029181 -0.138917129197461 1.820807177017
-0.255493709664198 -0.176471399114991 1.82358321079751
-0.209218396244427 -0.175718474506976 1.80684679175291
-0.164899165759606 -0.20269070199907 1.82769658957802
-0.115215109696913 -0.185359093616543 1.8150834149961
-0.073152911166503 -0.19914132518434 1.82915030494377
-0.031171891731021 -0.214371775984052 1.84447325898649
0.0150901857546147 -0.198851077137834 1.83326556591262
0.0586391755787033 -0.21835821244269 1.85680498972672
0.103920994565117 -0.194313316762422 1.85543796668131
0.142793023872801 -0.195157329557294 1.89137285549295
-0.354995411714744 -0.0855516414941414 1.87089389395904
-0.330497249365982 -0.131321495068264 1.8562143663666
0.17831532930146 -0.156227218546682 1.90273961227465
0.198952090460635 -0.147675749686731 1.94918900326309
-0.373274866282144 -0.072815131423766 1.91519674480349
0.215142835609656 -0.102504014007658 1.96874243089763
-0.375947215974824 -0.0251049386954348 1.93228394904952
0.214747642303126 -0.0901764462877677 2.01961596392181
-0.38059330644174 -0.0191511970214689 1.9765661556618
0.215498404239107 -0.0423507824085475 2.04443414677284
-0.38193570929718 0.0107537393995454 2.00782536859541
0.210974164549857 -0.0285740014841571 2.09278725442473
-0.384285206039965 0.0489072944243361 2.05325060951966
0.211602402240444 0.0150276848601188 2.11589908573122
-0.384087181468832 0.0910854948259744 2.07916861766358
0.207197818958865 0.0286975071550234 2.16313749871834
-0.385790011450872 0.101793130086431 2.1324344305944
0.204716928885361 0.0761353909906621 2.18413164653719
-0.369475119306606 0.147681776279959 2.15628088336722
0.185364880984373 0.0902371716371822 2.23186070545977
-0.349970598020636 0.154598131403856 2.20286035102417
-0.314848067396414 0.191344052359932 2.2170308839937
0.125197685542975 0.142325916758721 2.28089674687198
0.162708853085463 0.135725219796115 2.24411672518619
-0.279128291608482 0.187915153372379 2.25393812208317
-0.232620471687349 0.212842164107508 2.25354827340197
-0.190600929028077 0.195059478824726 2.27622667312151
-0.140051013308558 0.208461319912896 2.26707399880211
-0.100551455285408 0.190620336225464 2.28454370418144
-0.0522831610289089 0.193702075533319 2.28425244243247
-0.00420731366650742 0.194821953690156 2.28565784034798
0.0361356130419863 0.172160876597817 2.30308363868287
0.0876591970216979 0.176478711640481 2.28160287313715
-0.294070842795772 -0.102208907925762 1.79634377617198
-0.249107752695186 -0.140357326080177 1.79244701971019
-0.20124130374617 -0.141952051962 1.77740175349875
-0.159826899739866 -0.169757053626134 1.79930822928242
-0.110041273157353 -0.150144284183498 1.78476559243154
-0.0664088987040179 -0.161213106715713 1.79650190434433
-0.0265239505024932 -0.175988299465684 1.81132393275352
0.0169643126989572 -0.161280928792473 1.80069768752756
0.0613946707255268 -0.183497220053728 1.82583227907439
0.107998498488986 -0.159879706663473 1.8245386465706
0.145121588398735 -0.163372971523133 1.86024575153828
-0.349639518344398 -0.048056054393809 1.84203673992045
-0.327769414845325 -0.0951020567135135 1.82991440142187
0.178846577216966 -0.127184577535562 1.86898702060006
0.204843908038634 -0.112578156892131 1.91802737237425
-0.367178351944577 -0.0344696832878069 1.88435282434605
0.222071966738124 -0.0645334570276982 1.94914575614307
-0.369714592609467 0.0131573283062737 1.90710772796939
0.220525794929058 -0.0519023586590974 1.99448417953581
-0.374890208932134 0.0263035157429878 1.95678724820217
0.22160003067453 -0.00518355168107564 2.0144855802146
-0.378396624854266 0.0523812595994617 2.00435046869592
0.217159805562359 0.00757858083141206 2.06271892079647
-0.37752586704511 0.0947864024381848 2.02456577922198
0.217938291449187 0.051590433294462 2.08432667955333
-0.378749318808098 0.129410644140174 2.05797221857648
0.213449132080101 0.065512521517378 2.13293177164945
-0.379377885429244 0.137238309572774 2.10767843531924
0.210638271428117 0.111180062134232 2.15460141062668
-0.363167151638003 0.182725184788055 2.12691714796066
0.191735517974307 0.124186522466202 2.20168374170212
-0.343092135287104 0.190037205004255 2.17380688407496
-0.308767769013384 0.226228102214209 2.18698979600845
0.131930205656079 0.177093662589667 2.25037390564182
0.169000601616094 0.170464213591412 2.21382900675911
-0.273333828629482 0.22267089094408 2.22382594204532
-0.227096943778131 0.24779781018872 2.22321280705511
-0.183421302652981 0.23056733611447 2.24570396988596
-0.134801008208852 0.242630247640987 2.23759384789738
-0.0871671488586763 0.227539817002657 2.25310050619494
-0.03715842588176 0.228390158279492 2.25483593551674
0.00935299163984622 0.2287280896578 2.25684388758648
0.0484729589136671 0.205039129255677 2.27342209691565
0.0946733945323821 0.211282278754412 2.25114184355135
-0.256781463103834 -0.102421342680701 1.77078647608638
-0.215262907933627 -0.105908131007983 1.75709021627798
-0.168858443487752 -0.10310062057558 1.75085606070859
-0.153928991759447 -0.137044932640718 1.77202329726693
-0.116705453603586 -0.109141630313253 1.75761843140912
-0.0699404012791949 -0.121092421581865 1.76740013914096
-0.0230570955276074 -0.132310341879649 1.77726118959188
0.0248436188158871 -0.121487792814481 1.77473997934381
0.064348196351966 -0.149419688469801 1.79698756327547
0.108751664268559 -0.123229644674978 1.7971898996423
0.149159981726903 -0.127515978059571 1.82990626368695
-0.337355975740388 -0.0107363755387255 1.81729101268828
-0.320662922789634 -0.0573249465032604 1.8022158866634
0.197865528430757 -0.0898256503784771 1.87232583512008
0.215592185579278 -0.0674749102501838 1.90600615832304
-0.357554927501607 0.0050436158455273 1.85695469830448
0.221040736239874 -0.0242356434765407 1.91734045343022
-0.354669128984009 0.0491037640417116 1.87873711100019
0.223909165532577 -0.0131568380316163 1.96285992320203
-0.364335511554344 0.0620113466877992 1.92382840965346
0.220381084432095 0.0301440695647391 1.98235535405339
-0.371251925768024 0.0786680472034703 1.96990403510071
0.220616814413296 0.0447114042808797 2.03019274139472
-0.36526827016581 0.124032677247532 1.98544515557511
0.217485512983904 0.086867314720886 2.05290453065344
-0.36830157068601 0.150750076719067 2.02170859255276
0.217353105665289 0.101655803513558 2.1004435427228
-0.372216166122187 0.171413398221115 2.0766173464548
0.211394294061274 0.14294897538474 2.12325827553046
-0.354462432272674 0.212320091903104 2.09214466677765
0.195955164558956 0.158924580514037 2.1716374309175
-0.336999446156644 0.223512430014553 2.14173259860093
-0.301461869966609 0.25604584753256 2.15403779246923
0.136926901834552 0.211887165142331 2.2184590245921
0.16881140083097 0.204470646416137 2.18135853149927
-0.266019449321568 0.256720582040245 2.19301068112486
-0.217436158329061 0.279426939860439 2.18785655773881
-0.180146695617982 0.26518658543241 2.21279380003789
-0.138349492548189 0.273944858064922 2.20221975762087
-0.0942105120275894 0.264021998293274 2.21618865315897
-0.0495477934825124 0.259692066337233 2.22254482428782
0.000524889890791677 0.259117200869502 2.22418422859758
0.0524768729658943 0.241204884980737 2.24086811972242
0.0978277421838271 0.242485146859608 2.21825780969138
-0.282199348496238 -0.06175909881929 1.76970022550121
-0.236824437409735 -0.0625328949700982 1.74734075725152
-0.189158901546717 -0.0638406485685399 1.73768717675426
-0.137294208438075 -0.0678098660723327 1.74060969538618
-0.0867750125163848 -0.0744238194815751 1.74715240535425
-0.0406323908133672 -0.0843979387013841 1.75431803171635
0.00348048579806355 -0.0839633993498006 1.75828977461042
0.050505439617613 -0.073702652762735 1.76042429604279
0.0709987174644409 -0.108870330671544 1.77543608193239
0.102977937427912 -0.0732399874040662 1.77494452301464
0.13951435744349 -0.0907997683352931 1.80136513020094
-0.302198958595762 -0.0199869084718415 1.77864389104972
-0.277071216559819 0.0219667931138223 1.76528035074648
-0.259687783609809 -0.0210454518730767 1.75124832872328
0.149678295238819 -0.0497552256648891 1.7992593501863
0.175884445298476 -0.0837795097587901 1.83391824628742
0.17914369370345 -0.0362802548062406 1.82744519632721
-0.334353026497971 0.0432965272136888 1.8297778051105
-0.314559574664309 0.0214082101792554 1.79545754999914
0.203341232657673 -0.0427093033880672 1.86510125599748
0.208602057684686 -0.000760561168517769 1.88262649323505
-0.331143431092421 0.0806928757512886 1.85661744596851
0.214441604170576 0.0246493727395416 1.92624374913942
-0.341020010947666 0.100143547150873 1.89626331418284
0.209398330889356 0.061587748190497 1.95426748335981
-0.353491538673636 0.110348437261679 1.93609121785611
0.21199683073791 0.0819875253569428 1.9967445629098
-0.342510624281513 0.149540813305576 1.950307753058
0.207091905663724 0.118800370850707 2.02444806751967
-0.346375487660791 0.177434024462308 1.98718179309195
0.209488267659894 0.139019103778657 2.06670785631435
-0.359849655811558 0.191996380124862 2.04002923616351
0.20191250316425 0.174367237058457 2.0937035326152
-0.326085553799583 0.249195009252759 2.10449345443392
-0.338030141134967 0.234228294045238 2.05575401682653
-0.307176035229166 0.26720006666143 2.06237971900062
0.192458963912253 0.189098068464784 2.1381869803985
0.179059133556602 0.215553291694943 2.09504184612727
0.165826529329929 0.227624161315187 2.14048774090327
-0.258310235605669 0.282301215195093 2.1565349914771
-0.292135784189531 0.276375824791175 2.11518499272787
-0.250324361873306 0.298247669838227 2.1143597084544
0.13313686606269 0.243368823772421 2.17991717678032
0.10071279882634 0.275929564833832 2.14452401316947
0.0884284449241514 0.2683158869482 2.18327770712578
-0.211134731645137 0.299894001730368 2.14813509570429
-0.167139362728662 0.294058816437737 2.16777034104282
-0.114222892383068 0.291767402591539 2.1700993476442
-0.0697436186517402 0.286798865797792 2.17879679126074
-0.0259232592576882 0.283529582053367 2.18376273491472
0.0168163493300516 0.282768207364831 2.18314312184963
0.0500395311333934 0.268022914754558 2.20615414063845
-0.210866579592975 -0.0211207827585375 1.73522754080245
-0.159579493947553 -0.0249395289263069 1.73227558201119
-0.108804453644637 -0.0290124750873763 1.73794719851853
-0.0609252828097382 -0.033867217975193 1.74351075993688
-0.0160904908612349 -0.0374446431885451 1.74867877394395
0.0279875456500201 -0.0332917713286124 1.75353265204578
0.0765825254499128 -0.0319393468703003 1.76131115365808
-0.232864965229484 0.020053893833336 1.7444743790157
-0.205681403876511 0.0575089555297396 1.74918575370763
-0.181468496418046 0.0183527540898311 1.73511145755454
-0.130667197943266 0.0150314123127447 1.7382307270325
-0.0829926306681397 0.0139141706020292 1.74416447939414
-0.03571827800804 0.0104743441528306 1.74962748512065
0.00905810779582276 0.0119239604128584 1.75575028064576
0.0559970397129466 0.0111417676453976 1.76184790132551
0.104154719657128 0.0121891139555853 1.77649143266533
0.151278735637033 0.0029061423350533 1.80376085392465
0.12010849508688 -0.0282559992002846 1.77874370892413
-0.29512203225556 0.0613283626253293 1.79403582049241
-0.263196333733143 0.0998151109024536 1.79703492567713
-0.252569135151568 0.0624164654140964 1.76639631063102
0.127174576125957 0.045355463684279 1.80146010247028
0.185202857674525 0.00538300653370525 1.84137122912521
0.163270372302526 0.0456138232700951 1.83334981060165
-0.302975467017829 0.0916693002774906 1.82559671444082
-0.269728684907034 0.129991347021742 1.8336376598211
0.193646740602214 0.0407876387050629 1.87661972811331
0.165699905885809 0.0798913430604599 1.86809859602775
-0.307605764586616 0.123541485897588 1.86578120742284
-0.276761943328428 0.159558103423224 1.8721077863724
0.192582691669888 0.0705487494843817 1.91030094440742
0.16372905981892 0.111417818333859 1.90407110609608
-0.318723807800845 0.147149058966447 1.90642337039291
-0.281634344117624 0.18697436964479 1.90655924557252
0.191138815334238 0.102407044779271 1.94789477226561
0.162659965981524 0.141969438795061 1.94026933947233
-0.315630184073317 0.18463414351231 1.94210485599569
-0.2797345177367 0.220081623050184 1.94130055651027
0.190415194097586 0.130088131375725 1.98197004614779
0.161954420047065 0.171869518671483 1.97625820764456
-0.312890116473406 0.218734012633107 1.97507525904892
-0.279172576505363 0.254835683781688 1.98078013738094
0.189317493668468 0.16139149205055 2.0198034169232
0.160700646236385 0.201978679298054 2.01163152611477
-0.336423531650526 0.217190240772883 2.01146461667646
-0.30723923133186 0.253942325238159 2.01697735495858
0.187573969535815 0.189516758374863 2.05336030151914
0.157439070771292 0.229423499080478 2.04875767697364
-0.274012783918265 0.290209166763174 2.07392385759984
-0.268959894918123 0.283738175133913 2.02560125701702
-0.236475330187098 0.304233131126284 2.06013820792626
0.13526013193555 0.257444939849994 2.13351484316224
0.148951565131073 0.248325830562577 2.09133754623775
0.108964186271015 0.275735799865239 2.09249065496173
-0.211947541693733 0.310189560799734 2.10022902644085
-0.186394693287582 0.312525526154121 2.06447212110502
-0.171411224249434 0.30986059159368 2.11878418228273
-0.142461612569679 0.310949904051534 2.0778456524122
-0.128937799728537 0.305837751269436 2.12786532908219
-0.0983382945951389 0.307622377747196 2.08291527780384
-0.0821374213997171 0.302849244930703 2.1305507350371
-0.0534751542688594 0.304164158813924 2.08623053056556
-0.037833990468358 0.299345426587936 2.13648363236734
-0.00989518192814272 0.300808554511786 2.08982244044052
0.00669107441083414 0.296597044048662 2.13839013700189
0.0343269466013389 0.297593659287791 2.09761412106929
0.05241504443821 0.289456910710084 2.15310215222221
0.0720925240854335 0.290744955497976 2.10994773200414
-0.174975181906728 0.0903183896287629 1.76337284243098
-0.152394733225386 0.0564879102912891 1.74714329770089
-0.106677489249846 0.0588150570652681 1.75473738962642
-0.0579284367289688 0.0546781574636057 1.76014449060592
-0.0130315083432214 0.0564112489238957 1.76762540295104
0.0323649785118154 0.0555958359199932 1.77409639830365
0.0784080587233103 0.0515368481278457 1.78119009633367
-0.220034524669384 0.0980890088883929 1.77541646078758
-0.177512712208548 0.124675891703058 1.79129934633287
-0.131442522600764 0.100151243923985 1.77494058776704
-0.0804757329033152 0.0933026542575515 1.77859189951994
-0.0361742101606386 0.0964360999006377 1.78856866568347
0.0083554076781065 0.0963384181693362 1.79631091589996
0.0535565590988722 0.0934815256620661 1.80197803345997
0.0970218538751375 0.0836659903186515 1.80874429822973
0.131673043063602 0.0856993864918452 1.8338649913099
-0.225042179320807 0.131379654327863 1.80858146586998
-0.185235490485095 0.155792971603308 1.82684514656543
-0.139315434182258 0.140193431964216 1.81281064802816
-0.100082689497447 0.124783727000739 1.80301603688554
-0.0573090735853313 0.12973644554234 1.8172827735429
-0.0136011055200257 0.130276342472365 1.82676774206721
0.0345312801827674 0.126630327225404 1.8322868769067
0.0844061263407465 0.118881903135006 1.83804379577301
0.129213961539401 0.116121817752035 1.86674865240894
-0.231951624603917 0.161282893281198 1.84516585389246
-0.186984342755857 0.185730655276441 1.86127449947864
-0.140919034106809 0.171695345730889 1.84907449296108
-0.0942836576151609 0.155902538337334 1.84018181799163
-0.0473638345232256 0.162231817200966 1.85704096254549
0.00285018792638038 0.158354966398507 1.86271383547602
0.0506728126129466 0.15430203161253 1.867710513043
0.0928076476093461 0.146409884965363 1.87501219792567
0.127996860092975 0.148342316800316 1.90440319756817
-0.235493429927188 0.190365412943051 1.879459122768
-0.189567230604898 0.214202100916528 1.89409581393317
-0.140600033865113 0.203450282396649 1.88602154870575
-0.0980029504449943 0.186445821426221 1.87490281855322
-0.0601624522963439 0.194616696871674 1.8920612800028
-0.0154276099465829 0.188929518921662 1.8945209789492
0.0326005003943607 0.185388349145003 1.90014035886971
0.0816840910718833 0.179020586173418 1.90754346807728
0.126905287386533 0.177271964629782 1.93821708942477
-0.238770178546826 0.218650435459796 1.91276150857909
-0.19596310718105 0.242313578414078 1.92692933098095
-0.145948624615735 0.233436838720178 1.91976542051735
-0.0966883829642144 0.221842223192275 1.91628197219796
-0.0451339182553594 0.221929973940277 1.92683065132805
0.00305617595244662 0.217406998993922 1.93134314153606
0.0494826146147151 0.214028234830646 1.93689137196275
0.0910141490354251 0.206763285183155 1.94537990659958
0.126050232049399 0.208955670239708 1.97559547988228
-0.243468006965365 0.249054373757406 1.94916421278009
-0.205694843231229 0.27080262821161 1.9615895441523
-0.158710909218698 0.2648758595124 1.95376545522821
-0.112075230528074 0.25524774981514 1.95196349109914
-0.0674005997964978 0.250955761913058 1.95603086050032
-0.0184070887647251 0.248776666550986 1.96342874338549
0.0304220324393268 0.245248070102147 1.96922467502253
0.0795444373129146 0.239502354063169 1.97774280713202
0.124424218145719 0.237316540724163 2.00918933779037
-0.239300670036007 0.281135631726302 1.99050588206243
-0.182805778577554 0.291496114174977 1.99146591514953
-0.134052979210074 0.285665792407746 1.98941555641876
-0.0893925480329796 0.281091059682674 1.99239152912867
-0.0445004797322676 0.277136866357627 1.99655791735259
0.00189410758388557 0.274194373334177 2.00287187748635
0.0469876885222353 0.271314395839644 2.00914698902221
0.0877167970001604 0.264381610823581 2.01863421393335
0.119635383601221 0.261722125552112 2.05176290332006
-0.214409077647793 0.301415495004489 2.02304321922755
-0.160258747772497 0.304970968854356 2.0288150826268
-0.114467161915834 0.301604179518785 2.03439199264058
-0.0693790746578014 0.297783101530143 2.03809105027959
-0.0235981901695289 0.293916835684263 2.04193555569387
0.0235676301287584 0.290798274974217 2.04886995023755
0.0705326664532503 0.285492487565711 2.05855310798773
3 0 1 2
3 0 2 4
3 3 0 4
3 3 4 6
3 5 3 6
3 5 6 8
3 7 5 8
3 7 8 10
3 9 7 10
3 9 10 12
3 11 9 12
3 13 11 14
3 14 11 12
3 13 14 15
3 16 17 18
3 16 18 1
3 0 19 1
3 19 16 1
3 0 3 20
3 19 0 20
3 3 5 21
3 20 3 21
3 5 7 22
3 21 5 22
3 7 9 23
3 22 7 23
3 9 11 24
3 23 9 24
3 24 11 25
3 25 11 13
3 13 15 26
3 27 13 26
3 25 13 27
3 27 26 28
3 17 16 30
3 30 16 29
3 29 19 31
3 29 16 19
3 31 20 32
3 31 19 20
3 32 21 33
3 32 20 21
3 21 22 33
3 33 22 34
3 22 23 34
3 34 23 35
3 23 24 35
3 35 24 36
3 24 25 36
3 36 25 37
3 37 27 38
3 37 25 27
3 38 28 39
3 38 27 28
3 30 40 41
3 30 29 40
3 29 31 42
3 40 29 42
3 31 32 43
3 42 31 43
3 32 33 44
3 43 32 44
3 33 34 45
3 44 33 45
3 34 35 46
3 45 34 46
3 35 36 47
3 46 35 47
3 36 37 47
3 47 37 48
3 37 38 48
3 48 38 49
3 49 39 50
3 49 38 39
3 40 51 52
3 41 40 52
3 51 42 53
3 51 40 42
3 42 43 53
3 53 43 54
3 43 44 54
3 54 44 55
3 44 45 55
3 55 45 56
3 45 46 56
3 56 46 57
3 46 47 58
3 57 46 58
3 47 48 59
3 58 47 59
3 48 49 60
3 59 48 60
3 49 50 61
3 60 49 61
3 51 62 63
3 52 51 63
3 51 53 64
3 62 51 64
3 53 54 65
3 64 53 65
3 54 55 66
3 65 54 66
3 55 56 67
3 66 55 67
3 56 57 67
3 67 57 68
3 57 58 69
3 68 57 69
3 58 59 69
3 69 59 70
3 59 60 70
3 70 60 71
3 71 61 72
3 71 60 61
3 62 73 74
3 63 62 74
3 62 64 75
3 73 62 75
3 64 65 75
3 75 65 76
3 65 66 76
3 76 66 77
3 66 67 77
3 77 67 78
3 67 68 78
3 78 68 79
3 79 69 80
3 79 68 69
3 80 70 81
3 80 69 70
3 81 71 82
3 81 70 71
3 82 72 83
3 82 71 72
3 74 73 85
3 85 73 84
3 84 73 86
3 86 73 75
3 75 76 86
3 86 76 87
3 76 77 88
3 87 76 88
3 77 78 89
3 88 77 89
3 78 79 90
3 89 78 90
3 79 80 91
3 90 79 91
3 80 81 92
3 91 80 92
3 81 82 93
3 92 81 93
3 93 83 94
3 93 82 83
3 84 95 85
3 84 86 96
3 97 84 96
3 95 84 97
3 96 87 98
3 96 86 87
3 87 88 98
3 98 88 99
3 88 89 99
3 99 89 100
3 89 90 100
3 100 90 101
3 101 91 102
3 101 90 91
3 102 92 103
3 102 91 92
3 92 93 103
3 105 103 104
3 103 93 104
3 93 94 104
3 96 106 97
3 96 98 107
3 106 96 107
3 98 99 108
3 107 98 108
3 99 100 109
3 108 99 109
3 100 101 110
3 109 100 110
3 101 102 111
3 110 101 111
3 111 102 112
3 112 102 103
3 103 105 112
3 117 114 115
3 116 113 117
3 117 113 114
3 116 117 119
3 118 116 119
3 118 119 121
3 120 118 121
3 120 121 123
3 122 120 123
3 122 123 125
3 124 122 125
3 124 125 127
3 126 124 127
3 126 127 128
3 129 130 131
3 114 129 131
3 114 113 129
3 113 2 129
3 129 2 1
3 4 113 116
3 4 2 113
3 6 116 118
3 6 4 116
3 8 118 120
3 8 6 118
3 10 120 122
3 10 8 120
3 12 122 124
3 12 10 122
3 14 124 126
3 14 12 124
3 133 126 128
3 15 14 126
3 15 126 133
3 132 15 133
3 132 133 134
3 135 136 137
3 137 17 135
3 137 18 17
3 18 137 130
3 129 18 130
3 18 129 1
3 15 132 26
3 139 132 134
3 139 138 132
3 138 28 26
3 132 138 26
3 138 139 140
3 136 135 142
3 142 135 141
3 17 30 135
3 135 30 141
3 143 39 28
3 138 143 28
3 143 140 144
3 143 138 140
3 141 145 146
3 142 141 146
3 41 145 141
3 30 41 141
3 147 39 143
3 147 50 39
3 147 144 148
3 147 143 144
3 145 149 150
3 146 145 150
3 52 149 145
3 41 52 145
3 151 50 147
3 151 155 50
3 151 148 152
3 151 147 148
3 149 153 154
3 150 149 154
3 63 153 149
3 52 63 149
3 155 61 50
3 155 72 61
3 155 151 156
3 156 151 152
3 154 157 158
3 154 153 157
3 74 157 153
3 63 74 153
3 159 72 155
3 159 83 72
3 159 156 160
3 159 155 156
3 158 157 162
3 162 157 161
3 74 85 161
3 157 74 161
3 163 83 159
3 163 94 83
3 163 160 164
3 163 159 160
3 161 165 162
3 165 95 166
3 165 161 95
3 161 85 95
3 165 166 167
3 95 97 166
3 105 104 168
3 170 94 163
3 170 168 94
3 169 168 170
3 94 168 104
3 163 164 170
3 166 171 167
3 173 171 172
3 172 171 106
3 171 97 106
3 171 166 97
3 172 107 174
3 172 106 107
3 174 108 175
3 174 107 108
3 175 109 176
3 175 108 109
3 176 110 177
3 176 109 110
3 177 111 178
3 177 110 111
3 178 112 180
3 178 111 112
3 181 105 168
3 181 180 105
3 179 178 180
3 180 112 105
3 168 169 181
3 172 182 173
3 182 172 183
3 183 172 174
3 174 175 184
3 183 174 184
3 175 176 185
3 184 175 185
3 176 177 186
3 185 176 186
3 177 178 187
3 186 177 187
3 187 179 188
3 187 178 179
3 179 180 229
3 189 190 191
3 114 131 191
3 115 114 191
3 115 191 192
3 115 192 193
3 117 115 193
3 119 193 194
3 119 117 193
3 119 194 121
3 121 194 195
3 121 195 123
3 123 195 196
3 123 196 125
3 125 196 197
3 127 197 198
3 127 125 197
3 128 198 199
3 200 128 199
3 128 127 198
3 200 199 201
3 202 203 204
3 131 130 189
3 190 189 204
3 189 130 202
3 189 202 204
3 131 189 191
3 128 200 133
3 134 200 205
3 206 205 201
3 134 133 200
3 205 200 201
3 205 206 207
3 136 208 203
3 202 137 136
3 202 136 203
3 137 202 130
3 134 205 139
3 139 205 207
3 140 139 207
3 211 207 209
3 136 142 208
3 208 142 210
3 211 140 207
3 211 144 140
3 146 212 210
3 142 146 210
3 148 144 213
3 213 144 211
3 150 214 212
3 146 150 212
3 215 148 213
3 215 152 148
3 154 216 150
3 150 216 214
3 219 152 217
3 217 152 215
3 158 218 216
3 154 158 216
3 219 156 152
3 219 160 156
3 158 220 218
3 158 162 220
3 221 160 219
3 221 164 160
3 162 165 222
3 223 220 222
3 220 162 222
3 165 167 222
3 169 170 224
3 225 164 221
3 224 170 164
3 224 164 225
3 222 226 223
3 167 171 227
3 226 167 227
3 226 227 228
3 226 222 167
3 171 173 227
3 180 181 229
3 181 169 230
3 231 169 224
3 230 169 231
3 230 229 181
3 224 225 271
3 227 232 228
3 232 182 233
3 232 173 182
3 227 173 232
3 182 183 234
3 233 182 234
3 183 184 234
3 234 184 235
3 184 185 235
3 235 185 236
3 185 186 236
3 236 186 237
3 186 187 237
3 237 187 238
3 238 188 239
3 238 187 188
3 188 179 229
3 240 239 188
3 240 188 229
3 229 230 240
3 191 190 242
3 242 190 241
3 192 242 243
3 192 191 242
3 192 243 244
3 193 192 244
3 194 244 245
3 194 193 244
3 194 245 246
3 195 194 246
3 195 246 247
3 196 195 247
3 196 247 248
3 197 196 248
3 197 248 249
3 198 197 249
3 199 198 249
3 250 199 249
3 201 199 251
3 251 199 250
3 204 252 253
3 204 203 252
3 190 253 241
3 190 204 253
3 206 251 254
3 206 201 251
3 207 206 255
3 255 206 254
3 203 256 252
3 203 208 256
3 257 209 255
3 255 209 207
3 210 258 208
3 208 258 256
3 211 209 259
3 259 209 257
3 212 260 210
3 210 260 258
3 213 211 259
3 261 213 259
3 214 262 260
3 212 214 260
3 215 213 261
3 263 215 261
3 216 264 214
3 214 264 262
3 217 215 263
3 265 217 263
3 218 266 264
3 216 218 264
3 219 217 265
3 267 219 265
3 218 268 266
3 218 220 268
3 221 219 267
3 269 221 267
3 223 270 268
3 220 223 268
3 225 221 269
3 271 225 269
3 223 226 272
3 270 223 272
3 272 228 273
3 272 226 228
3 274 231 275
3 274 230 231
3 275 231 271
3 271 231 224
3 273 228 276
3 276 228 232
3 276 233 277
3 276 232 233
3 233 234 278
3 277 233 278
3 234 235 279
3 278 234 279
3 235 236 280
3 279 235 280
3 236 237 281
3 280 236 281
3 237 238 282
3 281 237 282
3 238 239 283
3 282 238 283
3 327 239 284
3 284 239 240
3 240 230 274
3 284 240 274
3 241 285 286
3 242 241 286
3 242 286 243
3 243 286 287
3 243 287 288
3 244 243 288
3 245 288 289
3 245 244 288
3 245 289 246
3 246 289 290
3 246 290 247
3 247 290 291
3 247 291 248
3 248 291 292
3 248 292 293
3 249 248 293
3 249 293 250
3 250 293 294
3 250 294 295
3 251 250 295
3 252 296 297
3 253 252 297
3 241 297 285
3 241 253 297
3 254 295 298
3 254 251 295
3 254 298 299
3 255 254 299
3 256 300 252
3 252 300 296
3 257 255 299
3 301 257 299
3 258 302 300
3 256 258 300
3 259 257 303
3 303 257 301
3 260 304 258
3 258 304 302
3 261 259 303
3 305 261 303
3 262 306 304
3 260 262 304
3 263 261 305
3 307 263 305
3 264 308 262
3 262 308 306
3 265 263 307
3 309 265 307
3 266 310 308
3 264 266 308
3 267 265 309
3 311 267 309
3 266 312 310
3 266 268 312
3 269 267 311
3 313 269 311
3 270 314 312
3 268 270 312
3 271 269 315
3 315 269 313
3 270 272 316
3 314 270 316
3 316 273 317
3 316 272 273
3 318 275 319
3 318 274 275
3 275 271 315
3 319 275 315
3 273 276 320
3 317 273 320
3 276 277 320
3 320 277 321
3 277 278 322
3 321 277 322
3 322 279 323
3 322 278 279
3 279 280 323
3 323 280 324
3 280 281 324
3 324 281 325
3 281 282 325
3 325 282 326
3 282 283 326
3 326 283 327
3 283 239 327
3 327 284 328
3 284 274 318
3 328 284 318
3 285 329 330
3 286 285 330
3 286 330 287
3 287 330 331
3 287 331 332
3 288 287 332
3 288 332 289
3 289 332 333
3 289 333 334
3 290 289 334
3 290 334 335
3 291 290 335
3 291 335 292
3 292 335 336
3 292 336 337
3 293 292 337
3 293 337 294
3 294 337 338
3 294 338 339
3 295 294 339
3 296 340 341
3 297 296 341
3 285 341 329
3 285 297 341
3 298 339 342
3 298 295 339
3 298 342 343
3 299 298 343
3 300 344 296
3 296 344 340
3 301 299 343
3 345 301 343
3 302 346 344
3 300 302 344
3 303 301 347
3 347 301 345
3 304 348 302
3 302 348 346
3 305 303 347
3 349 305 347
3 306 350 348
3 304 306 348
3 307 305 351
3 351 305 349
3 308 352 306
3 306 352 350
3 309 307 353
3 353 307 351
3 310 354 352
3 308 310 352
3 311 309 355
3 355 309 353
3 312 356 310
3 310 356 354
3 313 311 355
3 357 313 355
3 314 358 356
3 312 314 356
3 315 313 359
3 359 313 357
3 314 316 360
3 358 314 360
3 360 317 361
3 360 316 317
3 362 319 363
3 362 318 319
3 319 315 359
3 363 319 359
3 317 320 364
3 361 317 364
3 320 321 364
3 364 321 365
3 321 322 366
3 365 321 366
3 322 323 366
3 366 323 367
3 323 324 368
3 367 323 368
3 324 325 369
3 368 324 369
3 325 326 370
3 369 325 370
3 326 327 371
3 370 326 371
3 327 328 371
3 371 328 372
3 328 318 362
3 372 328 362
3 329 373 374
3 330 329 374
3 330 374 331
3 331 374 375
3 331 375 376
3 332 331 376
3 332 376 333
3 333 376 377
3 333 377 378
3 334 333 378
3 334 378 379
3 335 334 379
3 335 379 336
3 336 379 380
3 336 380 381
3 337 336 381
3 337 381 338
3 338 381 382
3 338 382 383
3 339 338 383
3 340 384 385
3 341 340 385
3 329 385 373
3 329 341 385
3 342 383 386
3 342 339 383
3 342 386 387
3 343 342 387
3 344 388 340
3 340 388 384
3 345 343 387
3 389 345 387
3 346 390 388
3 344 346 388
3 347 345 391
3 391 345 389
3 348 392 346
3 346 392 390
3 349 347 391
3 393 349 391
3 350 394 348
3 348 394 392
3 351 349 395
3 395 349 393
3 352 396 350
3 350 396 394
3 353 351 395
3 397 353 395
3 354 398 396
3 352 354 396
3 355 353 399
3 399 353 397
3 356 400 354
3 354 400 398
3 357 355 399
3 401 357 399
3 358 402 400
3 356 358 400
3 359 357 403
3 403 357 401
3 358 360 404
3 402 358 404
3 404 361 405
3 404 360 361
3 406 363 407
3 406 362 363
3 363 359 403
3 407 363 403
3 361 364 408
3 405 361 408
3 364 365 408
3 408 365 409
3 365 366 410
3 409 365 410
3 366 367 410
3 410 367 411
3 367 368 412
3 411 367 412
3 368 369 412
3 412 369 413
3 369 370 413
3 413 370 414
3 370 371 415
3 414 370 415
3 371 372 415
3 415 372 416
3 372 362 406
3 416 372 406
3 373 417 418
3 374 373 418
3 374 418 375
3 375 418 419
3 375 419 420
3 376 375 420
3 376 420 377
3 377 420 421
3 377 421 422
3 378 377 422
3 378 422 423
3 379 378 423
3 380 423 424
3 380 379 423
3 380 424 425
3 381 380 425
3 382 425 426
3 382 381 425
3 382 426 427
3 383 382 427
3 384 428 429
3 385 384 429
3 373 429 417
3 373 385 429
3 386 427 430
3 386 383 427
3 386 430 431
3 387 386 431
3 384 432 428
3 384 388 432
3 389 387 431
3 433 389 431
3 390 434 432
3 388 390 432
3 435 389 433
3 435 391 389
3 390 436 434
3 390 392 436
3 393 391 435
3 437 393 435
3 394 438 436
3 392 394 436
3 395 393 439
3 439 393 437
3 396 440 438
3 394 396 438
3 397 395 439
3 441 397 439
3 398 442 440
3 396 398 440
3 399 397 443
3 443 397 441
3 400 444 398
3 398 444 442
3 401 399 443
3 445 401 443
3 402 446 444
3 400 402 444
3 403 401 447
3 447 401 445
3 402 404 448
3 446 402 448
3 448 405 449
3 448 404 405
3 450 407 451
3 450 406 407
3 407 403 447
3 451 407 447
3 405 408 452
3 449 405 452
3 408 409 452
3 452 409 453
3 409 410 454
3 453 409 454
3 410 411 454
3 454 411 455
3 411 412 456
3 455 411 456
3 412 413 456
3 456 413 457
3 457 414 458
3 457 413 414
3 414 415 459
3 458 414 459
3 415 416 459
3 459 416 460
3 416 406 450
3 460 416 450
3 418 461 462
3 418 417 461
3 419 462 463
3 419 418 462
3 419 463 464
3 420 419 464
3 420 464 421
3 421 464 465
3 421 465 466
3 422 421 466
3 422 466 467
3 423 422 467
3 424 467 468
3 424 423 467
3 424 468 469
3 425 424 469
3 426 469 470
3 426 425 469
3 427 426 471
3 471 426 470
3 429 428 473
3 473 428 472
3 417 473 505
3 417 429 473
3 430 427 471
3 520 430 471
3 431 474 475
3 431 430 474
3 428 476 472
3 428 432 476
3 433 431 475
3 477 433 475
3 434 478 476
3 432 434 476
3 479 433 477
3 479 435 433
3 434 480 478
3 434 436 480
3 437 435 479
3 481 437 479
3 438 482 436
3 436 482 480
3 439 437 483
3 483 437 481
3 440 484 482
3 438 440 482
3 441 439 483
3 485 441 483
3 442 486 440
3 440 486 484
3 443 441 487
3 487 441 485
3 444 488 442
3 442 488 486
3 445 443 487
3 489 445 487
3 444 446 488
3 488 446 490
3 491 445 489
3 491 447 445
3 490 446 492
3 492 446 448
3 492 449 493
3 492 448 449
3 494 451 495
3 494 450 451
3 451 447 491
3 495 451 491
3 449 452 496
3 493 449 496
3 496 453 497
3 496 452 453
3 453 454 498
3 497 453 498
3 498 455 499
3 498 454 455
3 455 456 500
3 499 455 500
3 456 457 501
3 500 456 501
3 457 458 502
3 501 457 502
3 458 459 503
3 502 458 503
3 503 460 504
3 503 459 460
3 504 460 494
3 494 460 450
3 461 505 506
3 462 461 506
3 507 463 462
3 507 462 506
3 465 463 508
3 508 463 507
3 464 463 465
3 465 508 509
3 465 509 466
3 466 509 510
3 466 510 467
3 467 510 511
3 467 511 468
3 468 511 512
3 468 512 513
3 469 468 513
3 469 513 470
3 515 470 514
3 470 513 514
3 470 515 471
3 472 516 473
3 518 516 517
3 518 505 516
3 461 417 505
3 505 473 516
3 505 518 506
3 515 514 519
3 474 430 520
3 521 520 519
3 520 471 515
3 520 515 519
3 474 520 524
3 476 522 472
3 516 472 523
3 472 522 523
3 516 523 517
3 520 521 524
3 477 475 524
3 524 475 474
3 525 477 524
3 478 526 522
3 476 478 522
3 527 477 525
3 527 479 477
3 478 528 526
3 478 480 528
3 481 479 527
3 529 481 527
3 482 530 480
3 480 530 528
3 483 481 531
3 531 481 529
3 484 532 530
3 482 484 530
3 485 483 531
3 533 485 531
3 486 534 484
3 484 534 532
3 535 485 533
3 535 487 485
3 486 536 534
3 486 488 536
3 537 489 535
3 535 489 487
3 490 538 539
3 536 490 539
3 488 490 536
3 538 540 539
3 541 542 543
3 541 489 537
3 542 541 537
3 541 491 489
3 490 492 538
3 545 493 544
3 538 492 493
3 538 493 545
3 540 538 545
3 544 546 545
3 547 548 549
3 543 495 541
3 547 494 495
3 547 495 543
3 608 547 543
3 495 491 541
3 493 496 544
3 544 497 550
3 546 544 550
3 544 496 497
3 550 497 551
3 551 497 498
3 498 499 551
3 551 499 552
3 499 500 552
3 552 500 553
3 500 501 553
3 553 501 554
3 554 502 555
3 554 501 502
3 502 503 556
3 555 502 556
3 503 504 556
3 549 504 547
3 556 504 549
3 504 494 547
3 506 557 507
3 507 557 558
3 508 507 558
3 508 558 559
3 509 508 559
3 509 559 560
3 510 509 560
3 510 560 561
3 511 510 561
3 511 561 562
3 512 511 562
3 514 512 563
3 563 512 562
3 513 512 514
3 517 564 518
3 518 564 557
3 566 564 565
3 557 564 566
3 557 506 518
3 558 566 567
3 558 557 566
3 559 567 568
3 559 558 567
3 560 568 569
3 560 559 568
3 561 569 570
3 561 560 569
3 562 570 571
3 562 561 570
3 563 562 571
3 572 563 571
3 574 514 563
3 572 574 563
3 573 519 574
3 574 519 514
3 519 573 521
3 522 575 523
3 577 575 576
3 577 517 575
3 564 517 577
3 575 517 523
3 564 577 565
3 573 574 572
3 521 573 579
3 580 573 578
3 579 573 580
3 579 524 521
3 524 579 525
3 522 581 575
3 522 526 581
3 576 581 582
3 576 575 581
3 583 580 584
3 583 579 580
3 583 525 579
3 583 527 525
3 526 585 581
3 526 528 585
3 582 585 586
3 582 581 585
3 587 584 588
3 587 583 584
3 587 527 583
3 587 529 527
3 528 589 585
3 528 530 589
3 586 589 590
3 586 585 589
3 591 588 592
3 591 587 588
3 591 529 587
3 591 531 529
3 532 593 589
3 530 532 589
3 590 593 594
3 590 589 593
3 595 592 596
3 595 591 592
3 595 531 591
3 595 533 531
3 534 597 593
3 532 534 593
3 594 597 598
3 594 593 597
3 599 596 600
3 599 595 596
3 599 533 595
3 599 535 533
3 534 601 597
3 534 536 601
3 602 597 601
3 602 598 597
3 603 599 600
3 604 603 600
3 603 535 599
3 603 537 535
3 536 539 601
3 606 540 605
3 606 602 540
3 602 601 539
3 540 602 539
3 605 607 606
3 608 609 610
3 608 543 609
3 604 542 603
3 609 543 542
3 609 542 604
3 542 537 603
3 540 545 605
3 605 546 607
3 612 607 611
3 605 545 546
3 607 546 611
3 612 613 614
3 612 611 613
3 614 615 616
3 614 613 615
3 616 617 618
3 616 615 617
3 618 619 620
3 618 617 619
3 620 621 622
3 620 619 621
3 622 623 624
3 622 621 623
3 610 548 608
3 624 623 548
3 624 548 610
3 548 623 549
3 548 547 608
3 546 550 611
3 611 550 613
3 613 550 551
3 551 552 615
3 613 551 615
3 552 553 617
3 615 552 617
3 553 554 619
3 617 553 619
3 554 555 621
3 619 554 621
3 621 555 623
3 623 555 556
3 556 549 623
3 565 625 626
3 567 566 626
3 626 566 565
3 567 626 627
3 568 567 627
3 568 627 628
3 569 568 628
3 569 628 629
3 570 569 629
3 570 629 630
3 571 570 630
3 572 571 631
3 631 571 630
3 572 631 578
3 576 632 577
3 625 632 633
3 565 577 632
3 565 632 625
3 625 633 634
3 626 625 634
3 626 634 627
3 627 634 635
3 627 635 628
3 628 635 636
3 628 636 629
3 629 636 637
3 629 637 630
3 630 637 638
3 631 638 639
3 631 630 638
3 640 578 639
3 578 573 572
3 578 631 639
3 578 640 580
3 576 641 632
3 576 582 641
3 633 641 642
3 633 632 641
3 633 642 643
3 634 633 643
3 634 643 644
3 635 634 644
3 635 644 645
3 636 635 645
3 636 645 646
3 637 636 646
3 637 646 647
3 638 637 647
3 638 647 648
3 639 638 648
3 640 648 649
3 640 639 648
3 584 580 640
3 649 584 640
3 582 650 641
3 582 586 650
3 642 650 651
3 642 641 650
3 642 651 652
3 643 642 652
3 643 652 653
3 644 643 653
3 644 653 645
3 645 653 654
3 645 654 646
3 646 654 655
3 646 655 647
3 647 655 656
3 647 656 648
3 648 656 657
3 648 657 649
3 649 657 658
3 588 584 649
3 658 588 649
3 586 659 650
3 586 590 659
3 650 659 651
3 651 659 660
3 651 660 661
3 652 651 661
3 652 661 662
3 653 652 662
3 653 662 654
3 654 662 663
3 654 663 664
3 655 654 664
3 655 664 665
3 656 655 665
3 656 665 666
3 657 656 666
3 657 666 658
3 658 666 667
3 592 588 658
3 667 592 658
3 590 668 659
3 590 594 668
3 660 668 669
3 660 659 668
3 660 669 670
3 661 660 670
3 661 670 671
3 662 661 671
3 662 671 663
3 663 671 672
3 663 672 664
3 664 672 673
3 664 673 665
3 665 673 674
3 665 674 666
3 666 674 675
3 666 675 667
3 667 675 676
3 596 592 667
3 676 596 667
3 594 677 668
3 594 598 677
3 668 677 669
3 669 677 678
3 669 678 679
3 670 669 679
3 670 679 680
3 671 670 680
3 671 680 681
3 672 671 681
3 672 681 682
3 673 672 682
3 673 682 683
3 674 673 683
3 674 683 684
3 675 674 684
3 676 684 685
3 676 675 684
3 600 596 676
3 685 600 676
3 598 686 677
3 598 602 606
3 678 686 687
3 678 677 686
3 678 687 679
3 679 687 688
3 679 688 680
3 680 688 689
3 680 689 681
3 681 689 690
3 681 690 682
3 682 690 691
3 683 691 692
3 683 682 691
3 684 692 693
3 684 683 692
3 685 693 694
3 685 684 693
3 694 604 685
3 685 604 600
3 598 606 686
3 606 607 695
3 686 606 695
3 686 695 687
3 688 687 696
3 696 687 695
3 688 696 697
3 689 688 697
3 689 697 698
3 690 689 698
3 690 698 699
3 691 690 699
3 691 699 700
3 692 691 700
3 692 700 701
3 693 692 701
3 610 609 694
3 701 610 694
3 701 694 693
3 609 604 694
3 607 612 695
3 695 612 696
3 696 612 614
3 614 616 697
3 696 614 697
3 616 618 698
3 697 616 698
3 618 620 699
3 698 618 699
3 620 622 700
3 699 620 700
3 622 624 701
3 700 622 701
3 624 610 701
