OFF
702 1400 0
-0.259975731836277 -0.327170006943333 2.17396210448384
-0.305315791074419 -0.313428038757742 2.15597850438074
-0.277169491960578 -0.333036978601715 2.12867210277984
-0.213126282003739 -0.333834783242474 2.17881108677613
-0.231261507353534 -0.343830421185603 2.13407831656656
-0.166331635185172 -0.338559042106478 2.18208952212114
-0.184882054150197 -0.348134846508513 2.13633318312559
-0.120969854327919 -0.342624882940836 2.18656313729996
-0.139566004216536 -0.35222982856435 2.13828606954632
-0.0760939032362447 -0.346492778449042 2.19139103497445
-0.0948232827864661 -0.355899672102871 2.14303259600616
-0.0286168766983312 -0.349581372714468 2.19912548560664
-0.0490620678243375 -0.35919824589046 2.15163081815715
0.0194756290641064 -0.345181464582675 2.20755470970627
-0.00176966691773213 -0.360805567767241 2.16074716440295
0.0447444622840668 -0.351950778537952 2.16957390685434
-0.327937860913367 -0.284683717479608 2.18402304280556
-0.357558062364059 -0.267398782118625 2.1564268086859
-0.336362233113676 -0.29757557838752 2.12816382762703
-0.287578654089292 -0.300632674281839 2.20390764487481
-0.240932819092232 -0.309669769283604 2.2160559300771
-0.193254443164734 -0.315024706351835 2.22001979219773
-0.146505536505295 -0.318992404156899 2.22550653123607
-0.101307666116454 -0.322406130337175 2.23143599696913
-0.0570263214980956 -0.327823070440152 2.2341280273759
-0.00839728961686093 -0.328649736226692 2.24149876349729
0.0654528893665471 -0.329059756679551 2.21324150171653
0.0367978248097832 -0.316540612151269 2.2492885706893
0.0829399679714512 -0.296467725783922 2.24698304486387
-0.315054165519901 -0.263657445773591 2.22550953362068
-0.355069139465616 -0.243259637030467 2.19731344028131
-0.269159202048306 -0.277102416600286 2.24323376938447
-0.219247870120312 -0.283489271601917 2.25144739783734
-0.17167030438589 -0.287861129923551 2.25680103385432
-0.124070453308569 -0.290321887096102 2.26411126200087
-0.0793864029511552 -0.29308158161503 2.27051347879026
-0.0371590560657975 -0.302496752020021 2.26961485413633
0.00417114270513724 -0.294247702506249 2.28031075085771
0.0498520654164177 -0.280899088520992 2.28175752067996
0.0947256736386161 -0.258699179923868 2.27521220835739
-0.333280854505547 -0.226273866570967 2.24593116684679
-0.366317843342395 -0.204862558475415 2.21926282443052
-0.292399297326035 -0.241150838038818 2.26726675187564
-0.243440517706145 -0.251781369186676 2.27864631318728
-0.194699772234644 -0.253970137495303 2.28665016445861
-0.14726987388832 -0.25876883756417 2.29153833891401
-0.0957959611658446 -0.259622946564854 2.30128738911666
-0.0409673469663207 -0.269076591920441 2.30294887593592
0.00946396242508317 -0.261798354344029 2.31233739258392
0.0599756191545727 -0.246359634269829 2.31104415868678
0.10479982007432 -0.220377082291563 2.30310056922088
-0.317420975756082 -0.201954745784479 2.28838339653175
-0.357774513745338 -0.184196288627985 2.25711235821879
-0.26826124052054 -0.21915833441206 2.30348653222949
-0.220884051552926 -0.221456068498287 2.31444318795083
-0.17536230849019 -0.222506379780601 2.32276413241288
-0.131435885165247 -0.230395762906649 2.32377362474485
-0.0979429840481135 -0.218408583894832 2.34292249131958
-0.0631161987561963 -0.237793548870946 2.3303178949712
-0.020819219083798 -0.234301653422089 2.34123984675497
0.0270947907254016 -0.227837236813876 2.34265303850394
0.0751930350878529 -0.209130155989002 2.33848148204842
-0.320607059622784 -0.161226526359237 2.32835543048105
-0.348566612284181 -0.163555350452238 2.29343929371997
-0.287759668047788 -0.187630114691908 2.32594775424083
-0.240732664663066 -0.189983268096104 2.34247356858415
-0.196010364837318 -0.188762911750378 2.35295537237382
-0.147121220810105 -0.19377906515698 2.35792158584969
-0.101713399574567 -0.187981602794348 2.37321050820528
-0.0543173725374969 -0.201443021241939 2.36924646412376
-0.00630599616758661 -0.201302511963114 2.37474947540935
0.0414872279820794 -0.194085727769234 2.37136802464396
0.0890153144173862 -0.17203823956844 2.36427676503556
-0.310036537898097 -0.136609720179057 2.36354018139612
-0.354036546941376 -0.123988902510345 2.32821181744356
-0.271410356161376 -0.161137688233693 2.3619652078876
-0.225476530180023 -0.154873986732361 2.38147358483743
-0.175461455514129 -0.159431503577803 2.38714140411548
-0.12968353889539 -0.159223049032675 2.39680094399843
-0.0781760181161377 -0.163296701963032 2.40326968668754
-0.0332513975502857 -0.169888866184166 2.40544769148456
0.0131269349668015 -0.167070046166028 2.40677741613269
0.0570982859037047 -0.159931246907972 2.39784734234034
0.0935492342796573 -0.134312815234961 2.39673841623418
-0.305248989192469 -0.09668477250664 2.39916045626516
-0.339044411664278 -0.105508045988261 2.36596761277412
-0.271875985896353 -0.12698306575158 2.39492730584956
-0.237308103475599 -0.115094211332651 2.41276894387835
-0.194595101854892 -0.123754697869709 2.41457996306403
-0.149491459380812 -0.124046356732245 2.42245856444235
-0.102305092693884 -0.127532243250893 2.42853596718249
-0.053719156646189 -0.131804193779873 2.43434000939867
-0.00544459000275783 -0.135050034295035 2.43620347813708
0.0461708175744181 -0.129524559092245 2.42869836665055
0.0936298099709483 -0.0985168279488472 2.42091903987731
-0.346365345547495 -0.0661401240306872 2.38269888606159
-0.268051983911725 -0.0772810380527937 2.42506887376582
-0.311496964496662 -0.0526991083025483 2.41394908974236
-0.218608618541593 -0.0780151008782643 2.43447869489292
-0.172596571526755 -0.082927628721403 2.4397572535688
-0.125936773458608 -0.0840852160140083 2.4465379124527
-0.0801597324326149 -0.0888653075485141 2.45183983369186
-0.0335120361521269 -0.0935555144858081 2.45702619461342
0.0131542592227638 -0.0954233736395144 2.45513142228796
0.0575394960927445 -0.0893874045842088 2.44504259011772
0.0393719444007553 -0.0503669335401969 2.46138674717835
-0.284573176235205 -0.0256976979034989 2.431843074992
-0.242181754499318 -0.0349419916391936 2.44198691576058
-0.193168774105315 -0.0369918956887024 2.44838303108826
-0.147428433794685 -0.0383023514682034 2.45439126867658
-0.101158810092164 -0.0399331743305669 2.46040725373463
-0.056623102985291 -0.0468373129223163 2.46556805374982
-0.00893362105772202 -0.0514061490287704 2.46871392630166
-0.255118819190207 -0.341080500771959 2.089533826496
-0.278750887198819 -0.327213132400851 2.05392135630511
-0.255072805973871 -0.320729023713289 2.01641076653326
-0.205530001844653 -0.347785456928074 2.09037246301669
-0.226995853244022 -0.338917958497176 2.0491826593964
-0.159483986616086 -0.350881047301369 2.08989845266725
-0.178828595566512 -0.339640469437259 2.0438015162307
-0.114089119475969 -0.354162506251568 2.09262002693397
-0.133526536077135 -0.341555542469384 2.04466449902459
-0.0687969011820378 -0.358041227789656 2.10050987650445
-0.0859837336792624 -0.345499012190462 2.05100365202131
-0.023929053328796 -0.362119003399219 2.11108651992741
-0.040311960768717 -0.350464319915218 2.06041885097863
0.0221063102018394 -0.360971245937942 2.11977791926309
0.00385188222085985 -0.35488407089497 2.07191352707972
0.051774668322125 -0.348213857513424 2.08104528609631
-0.306609559324625 -0.320507400992484 2.09706293639516
-0.344885269102007 -0.289884429447533 2.08079201906408
-0.315304732488789 -0.305860523092006 2.04855784745169
0.0895558241212511 -0.331970986156214 2.17385016920359
0.0653002135312399 -0.349460223347826 2.12914446954056
0.10507184091927 -0.328236969399794 2.13119082942217
-0.382630226504982 -0.231640100049591 2.14653283521837
-0.392737554195512 -0.219358447391404 2.09685466991469
-0.370216577386011 -0.261920574282366 2.11010164945961
0.110685027069102 -0.303667698333088 2.2073872542169
0.131411549365278 -0.302399821197865 2.16310803332181
0.148614748344234 -0.271097719832796 2.19031348259252
-0.384707961529694 -0.202856792505712 2.17787660584351
-0.400342357694288 -0.186892445319777 2.13144745640595
0.124719281880032 -0.267861320466201 2.23551706221403
0.156043486432378 -0.231713352673072 2.2207940307806
-0.388307327337282 -0.164122716013922 2.21155387665205
-0.400819765831466 -0.156883582439455 2.16773440798776
0.132740229208171 -0.227460623396684 2.26340374846852
0.162660099327314 -0.189796781493315 2.24489432713419
-0.382774733263249 -0.144939895163455 2.24929009369921
-0.402947671821664 -0.116598778043432 2.20689126545706
0.141577998251082 -0.186394748357111 2.28873875751881
0.167267506085108 -0.147839186251911 2.27099917449109
-0.374898383241611 -0.126793526544555 2.28815335281735
-0.398431835844284 -0.0986739364636416 2.25212464310858
0.118299594851634 -0.179328482618543 2.32787092076958
0.151098047322158 -0.141353186981425 2.31364956953939
-0.38844832695285 -0.0867117015774005 2.30013474946902
-0.406409483146629 -0.0524281721999702 2.26868964042787
0.125878976419533 -0.139399464718674 2.35627376827823
0.156373579822819 -0.101384484433758 2.33925494933526
-0.373015508473361 -0.0790623361522089 2.3416474480367
-0.39695812068127 -0.0411390876929615 2.31604082740922
0.129486464846825 -0.102071144004627 2.38446148785461
0.153458224007895 -0.0642549267345599 2.37068837349704
-0.375646787922566 -0.0338612207091056 2.35895580974887
-0.343611955590236 -0.0225702634497401 2.39653069992312
-0.363108013861254 0.0109003144475063 2.37668954501426
0.0866281706849663 -0.0515164306945094 2.44080237690215
0.110237499959144 -0.0123223177674257 2.42653652515462
0.123433532438152 -0.0599483222700063 2.41052188229463
-0.318025334720532 0.00492341041956603 2.41571123483845
-0.265565081259972 0.0153484576819922 2.43769713410207
-0.297273428651238 0.0436673837578987 2.42008846837686
-0.216062453237315 0.0064497661973018 2.44667726604491
-0.168812772587886 0.00908001002689521 2.45198071406708
-0.122235303435594 0.00743175158539828 2.45755923120672
-0.0754445465647418 0.00571651005864888 2.46314900069729
-0.0325804434540751 -0.0052511941626799 2.46925844155809
-0.00686415604458118 0.0309892255188216 2.46325799322643
0.0180799809929944 -0.00924855250332032 2.46763115973269
0.0668454912703063 -0.00931433085192995 2.45288442197133
-0.26359370988022 0.0727515267526695 2.42226314737957
-0.232192633735249 0.04896630633935 2.43710286071331
-0.188049108107958 0.0539904779816657 2.43989451264385
-0.14197621560924 0.0537281419919081 2.44444172218708
-0.0953278527666399 0.0514419932173746 2.44973757697039
-0.0469565668319481 0.0494267553918518 2.45508072103834
0.00905898100446094 0.0678817535527721 2.44740786339158
-0.342741887523964 -0.274403705051757 2.03125381244946
-0.326251831841074 -0.261890184419937 1.99201977688119
-0.295930231318034 -0.297647157896083 2.00674137592978
-0.247062158516524 -0.29919628752645 1.97998561240013
-0.20535127984937 -0.322480648040091 2.00672647275062
-0.154773071708262 -0.318627569512759 2.00008016956035
-0.104857835790841 -0.324002513049604 2.00844543556233
-0.0528556459166975 -0.328331402386599 2.01521550508942
-0.00761790224398849 -0.334050107183284 2.02423223137176
0.0364117760225899 -0.337346252432422 2.04050362182366
0.0789645755048631 -0.319616596500027 2.03919043267493
0.0914489180138224 -0.331896972248592 2.08757664251402
0.118288461692627 -0.306377554942064 2.0690369848999
-0.372549016762323 -0.251142597974562 2.06383289864154
-0.389816671582719 -0.205019514831709 2.0493872161931
-0.366496209112511 -0.232886928537741 2.02012714543938
0.134826286663745 -0.302361259725087 2.11355096161458
0.151040003618559 -0.274723909068781 2.08140037494482
0.160921500822604 -0.269801419397939 2.1364693605306
-0.403879645803513 -0.170813942349105 2.08478821534853
0.181016163109297 -0.227849410271782 2.13253643390243
-0.406734176129132 -0.138804176777304 2.11638055719997
0.172876952702134 -0.234243441051618 2.17523939554837
-0.407684528311743 -0.115291506651391 2.15840836452178
0.178754723135157 -0.191538539093694 2.19768473558814
-0.409491362753644 -0.074992781186722 2.17266419074206
0.181574380183804 -0.150573998152622 2.22039057910066
-0.409497990699557 -0.0657075770759724 2.21962711268791
0.182416770696001 -0.112378087210309 2.24645370231166
-0.412324952582167 -0.0174483346426254 2.23652226658699
0.174582099814449 -0.0982711071751498 2.29144093457222
-0.408543756902303 -0.00489934324093931 2.28652848883014
0.174980886791947 -0.0583043966353686 2.32297783003731
-0.391789031893063 0.00494744157749655 2.33429841339156
-0.397837844231074 0.0413495438160581 2.30412200837187
0.143515403696488 -0.0188856325555663 2.39293125961721
0.16790288810657 -0.0240977661947454 2.35210186259649
-0.37418060248045 0.0485324721141434 2.35013040090863
-0.339524469962877 0.0452946847355875 2.39159298739109
-0.346072892141744 0.0859200144374113 2.36250084009005
0.0430545458641307 0.0319432191833908 2.45423289212798
0.0895780027913526 0.0306919649043849 2.43275881428352
0.128536280131036 0.0272507891294965 2.40092434114494
-0.309412365799023 0.0830939823036886 2.39612195859694
-0.268676670955116 0.109558145972516 2.39858188133833
-0.21638163297837 0.0940235704893425 2.41888144945118
-0.167333075273877 0.0957751828949433 2.42150991632172
-0.120011858660453 0.094412744053055 2.42584983713063
-0.0726933245403359 0.090999051242532 2.43151684269959
-0.0267094394359653 0.0913027987068801 2.43455602962802
0.0270587840552174 0.101519235232708 2.42166927540843
0.0604960080271379 0.0696630440765264 2.43129275913692
-0.314592490415114 -0.231455472605731 1.95562467691843
-0.283536356183083 -0.270627062554693 1.96650667252735
-0.234994311383426 -0.268884881817497 1.94632037098529
-0.198019628805802 -0.296635666000336 1.9707041791071
-0.154232315759615 -0.285400220259248 1.96111335827704
-0.114097476171351 -0.293152746567919 1.97062146014112
-0.0671959112469184 -0.302000090373017 1.98159470803013
-0.0110458732290279 -0.303502880162404 1.98558969519386
0.0363697008314197 -0.312844599308699 2.00339354932464
0.0818416352162729 -0.289597412482814 2.0017790559112
0.119799343670481 -0.284335957190241 2.03389514196024
-0.377701549336316 -0.181005533397092 2.00451710665889
-0.350189151376153 -0.21962312517323 1.98481073269275
0.152870440985453 -0.248158612962389 2.04287506417611
0.173051026133766 -0.238822711540361 2.0908152252283
-0.396651851013137 -0.157502815573223 2.04337664502785
0.18999718001955 -0.190716316702511 2.10325406995699
-0.401653633526176 -0.115628783214017 2.07099830938162
0.188906590929928 -0.186347842677398 2.15285322757211
-0.405460517621029 -0.0902547591955404 2.11771015130204
0.189937699094906 -0.143154969983391 2.17323022856321
-0.404229597308685 -0.0460270484189721 2.13612713258695
0.189962334163063 -0.103048308527318 2.19866914066576
-0.409104149281729 -0.0284578061634874 2.18646773475489
0.18710367503018 -0.0703290944572948 2.24248912046496
-0.407573098639166 0.0174964567366802 2.20351839486622
0.184135779224712 -0.0473091537964928 2.28097435578269
-0.409032739822261 0.0299331291676756 2.25442537702447
0.179592473944541 -0.00234755882944938 2.31461644261081
-0.393598161881039 0.0755008264770747 2.27173767371484
0.15842332116663 0.0193616070338173 2.36133274317267
-0.374908997657946 0.0842790866371746 2.31906891617903
-0.341714841298258 0.121363396095031 2.33001628027284
0.102889183522708 0.0691282825233949 2.40372921576015
0.138206906503884 0.0631382311212556 2.36782723527683
-0.307906486629092 0.120484063151773 2.36712130248196
-0.264088305165782 0.146325597876958 2.3650942387692
-0.228728033480173 0.128565613944787 2.39214839028147
-0.183787230038419 0.131929692079312 2.39133948341761
-0.139672972673103 0.13199429822682 2.39330140317957
-0.0930031770334086 0.127888124007865 2.39950513296356
-0.0497098900287145 0.127376087943792 2.40199997432089
-0.00712630062828007 0.12518944842032 2.40556114187798
0.0703861327596392 0.106197147505687 2.39844840701357
-0.310748769811694 -0.198105177383579 1.92552521302756
-0.272663309902385 -0.237347987944555 1.93165545378725
-0.22566915957646 -0.235824403273266 1.91338356480734
-0.186327608620178 -0.261356355496301 1.93586592616097
-0.132386411979285 -0.253038061047764 1.93011852793082
-0.0866466696235259 -0.265232198042977 1.94427617272686
-0.041132197650382 -0.276749934797465 1.95775491770034
0.00241223303219128 -0.26572609557591 1.94885539842412
0.039828178317343 -0.281985090700722 1.97166216454626
0.0866895628204629 -0.256525513443894 1.96803929891883
0.123295983724962 -0.25406780066969 2.00080375742927
-0.372245161566178 -0.144731258758273 1.97289441101273
-0.348245954037447 -0.186415116499802 1.95868230378766
0.15924515554551 -0.215711572020983 2.01068175470932
0.179306071338297 -0.205923881939055 2.05675023596728
-0.391392732736782 -0.126070738737935 2.01645828293474
0.196721957172821 -0.157825457816734 2.07341744519823
-0.394472795974627 -0.0798517024087128 2.03635486395382
0.195851775903181 -0.144769216652956 2.12482343997735
-0.398834092456431 -0.0624151525502063 2.08243473525388
0.196672123922864 -0.0978116999678487 2.14827962150578
-0.397671819491482 -0.0160062887313491 2.1027991314786
0.194268000477198 -0.0588775948220013 2.19241897447963
-0.40227301321754 0.00272971864486508 2.15162738930022
0.192600570065699 -0.0264511130652612 2.22650476001704
-0.400879341920386 0.0499333728232085 2.17064158661503
0.189037072743797 -0.00557577834852607 2.26812970952213
-0.402316470115194 0.0638307238745971 2.22194813120056
0.18583834981708 0.0379675536194344 2.28192300781391
-0.386792554695716 0.109022868067207 2.23905911055077
0.167609882439575 0.0481297047927844 2.32643170308346
-0.368288875506253 0.117896615819069 2.28633371890758
-0.334134358334567 0.155531108234273 2.29748830950602
0.110204934190396 0.104523744997161 2.36931200892351
0.146227942996431 0.0954363500608637 2.33408496024168
-0.301049970731758 0.154415770580847 2.3341038304755
-0.252165154637655 0.178937835363655 2.33521530122793
-0.212213536274512 0.161156380559034 2.36113590799546
-0.161167349921158 0.167093393895971 2.35761049732211
-0.108590256753692 0.16039513785307 2.36664842147776
-0.0601990017129194 0.161421984574001 2.3678560780476
-0.0141527174605617 0.159001478263955 2.37236412294024
0.0333975812679027 0.138345452087564 2.38630928925098
0.0748653439606054 0.142234792063129 2.36480787065089
-0.304688151861688 -0.165492495615913 1.89406091414795
-0.267207285234192 -0.203790167156312 1.89948700421683
-0.219187980483381 -0.204143797192863 1.88233741570731
-0.174689643531991 -0.230108943546559 1.90550382972398
-0.127259398268738 -0.2163368639939 1.89406627102192
-0.0854237016255368 -0.230471032933412 1.90996334593422
-0.0409938494111346 -0.243734186743332 1.92511735455309
0.00555246544345429 -0.230458515361264 1.91412908413356
0.0484437850729679 -0.247080055491187 1.93798829831065
0.09421126617112 -0.222520789712881 1.93520477026861
0.12991326298746 -0.222081726760334 1.96967013176461
-0.36522533107302 -0.110615203242004 1.93921496232576
-0.342377041396515 -0.154678778925155 1.9283505815853
0.166105731170882 -0.183005880550826 1.97921060653282
0.186415253804818 -0.172272790617806 2.02521474682336
-0.384492314482001 -0.0949639502247734 1.98380379123288
0.203354264984866 -0.125189044207365 2.04279147829424
-0.387642422644989 -0.0491197275954771 2.00129541208622
0.202322614435657 -0.110872343405219 2.09466998674703
-0.391973663219567 -0.0265495413659501 2.05041653645904
0.20412412144972 -0.0647131931746634 2.10974878896973
-0.391649628013098 0.0194128182740799 2.07719955508102
0.200065373275127 -0.0473944594417142 2.15332691410313
-0.39560603043713 0.0369837251545193 2.1201266379339
0.199922621914602 -0.00340978410209063 2.18259247579801
-0.393986350090247 0.0822806910463624 2.1361133951275
0.19609005282309 0.0223456920487896 2.22975134741726
-0.39582077216845 0.0960979566268211 2.18865057446288
0.193505688594636 0.0684523009480677 2.24672345095052
-0.380105230362465 0.141817838434176 2.20723830644572
0.173717375283786 0.0844289900484856 2.29350941879024
-0.361038781153745 0.151562529345312 2.25442755720919
-0.325286239630594 0.189184271089638 2.267303917128
0.116186391984596 0.138676787063809 2.33672900819844
0.152198928862033 0.130133981086632 2.30157436949047
-0.290714505987327 0.187791930467611 2.30424442288376
-0.242081598405839 0.211619469767904 2.30442138068528
-0.200997908826447 0.192946552985018 2.33021839011203
-0.155932408421506 0.206036597669818 2.31934677857545
-0.119013332155227 0.190272874174612 2.33662828875863
-0.0712890321660546 0.192983773379686 2.33614006438047
-0.0209146760697155 0.193102462139104 2.33833664123038
0.0288986870891397 0.173031263903721 2.35528320082813
0.0767192608626167 0.175672136279391 2.33481420705533
-0.297915985090594 -0.132860774501783 1.86193841409964
-0.261069344728177 -0.17059917877809 1.86728115447146
-0.21471688749901 -0.171455557295248 1.85076463018051
-0.17081612689104 -0.197568140654758 1.87350810230625
-0.120872947083786 -0.181658615133196 1.86007128581502
-0.0790408225673516 -0.195013157245592 1.8751969397979
-0.0373127307251184 -0.209732134628711 1.89166762894564
0.00918087468639132 -0.195500181319604 1.87973111141136
0.0523899495935107 -0.213983328184243 1.90468099004134
0.0979639410769543 -0.190608242451657 1.90201911884587
0.136668323842682 -0.189624712692045 1.93813098224194
-0.359669394934163 -0.0756930058859212 1.90822184601836
-0.335662263789399 -0.122588068975056 1.89660123084256
0.172608467426417 -0.150471675485886 1.94718286838316
0.193147256710501 -0.139229743720112 1.9930993856609
-0.377983938675932 -0.0599533316529363 1.95153396768852
0.209797558836569 -0.0931005700219196 2.00982748292367
-0.380153979776147 -0.011225781843419 1.96554443888632
0.20933266801126 -0.0775619195302111 2.05981323772859
-0.384917997695836 -0.0024164018231138 2.00933537374639
0.210553659007978 -0.0282682313764321 2.08154895621646
-0.386033802171014 0.0294278556599884 2.03862605326604
0.205988360763419 -0.0113949528849451 2.12890655309264
-0.38811794784984 0.0704153657683204 2.08152531620737
0.207043216507181 0.0335766146682067 2.14920689476888
-0.387522487042344 0.114149770530005 2.10471432687121
0.202601060558223 0.0502709294549833 2.19545945319893
-0.389324716863646 0.128239248066325 2.15718373224639
0.200602405126696 0.0989727103709581 2.21338719129046
-0.37256006240458 0.175355126302551 2.17815126056751
0.181217113129189 0.116305100973484 2.26002648514417
-0.353173700388462 0.18498694553069 2.2242956659937
-0.317671680755007 0.222143194837667 2.23628226719603
0.121472582610083 0.172108278216337 2.30535262126511
0.159058971437865 0.162743301070289 2.26925570361359
-0.28215464507625 0.220646101353014 2.27351266931166
-0.235348308956209 0.244949119392786 2.27177618632118
-0.193644059947281 0.228150107790993 2.29574959865243
-0.142897346967969 0.24034775069373 2.28602008682436
-0.103691216524271 0.223189279863998 2.30478634919642
-0.0553884577356878 0.22567822845202 2.30454384282935
-0.00730907715807051 0.226319474938722 2.30611811606356
0.0326824043809221 0.204338271784573 2.32515079086802
0.0843460688632981 0.206676184821703 2.30369976224738
-0.298630659881659 -0.0977686630735959 1.83518811499001
-0.254114647331198 -0.136613902372257 1.83394795353402
-0.206206761577847 -0.139724298749122 1.81927621069199
-0.165225170457564 -0.166566607746301 1.84311240784989
-0.115144630667325 -0.148504469197797 1.82760575407246
-0.0716997254956206 -0.159317815222351 1.84024124822089
-0.0320598914127804 -0.17358965269938 1.85617254286113
0.0116478208379635 -0.160099754162907 1.84485391205693
0.0556986669557198 -0.181195417274162 1.87157214474934
0.102589088956113 -0.15825771055625 1.86901732163451
0.139513699982142 -0.159911793651727 1.90506119987603
-0.353737798429286 -0.0401721881508127 1.87707015817753
-0.332384881740607 -0.0881473476180254 1.86806927627731
0.173634877482021 -0.123640407392262 1.91165788842699
0.199595704282777 -0.10625462650721 1.95980282513729
-0.371293001542997 -0.0237193687626078 1.91834933867831
0.217268234564099 -0.0565359287043145 1.98789527540849
-0.373352281411413 0.0252836635487253 1.93802197398012
0.215679884675392 -0.0410325084150802 2.03233207359385
-0.378582203471699 0.0416196014793308 1.98674003044967
0.217231652833329 0.00684680136689341 2.04933268085906
-0.381978003528702 0.0707059793853733 2.03253364117518
0.212738638421139 0.0226989540709977 2.09663558610956
-0.380682643759417 0.114296623443494 2.05002052001809
0.213955134711508 0.0679825034627715 2.11540963008677
-0.381631804331513 0.150985346742492 2.08115509589279
0.209425584663561 0.0850163824666882 2.16300965332671
-0.382379312688985 0.161962079552928 2.13026037048793
0.207072732802168 0.13199831806601 2.18172222323198
-0.365703871362784 0.208385504027275 2.14665448795887
0.188126263976881 0.14819130239508 2.2277878999943
-0.345743620859583 0.218425162593636 2.19308629741877
-0.311042154319616 0.254974190447509 2.20411848264711
0.128754942864213 0.204784932200018 2.27271873814404
0.165899239982962 0.195411386767982 2.23685606503414
-0.275812173019139 0.253347898726727 2.24128463836447
-0.229273379947002 0.277839408664155 2.23931126400218
-0.185905703902276 0.261560075495971 2.26307113050178
-0.137109079419809 0.272510524936793 2.25445730201724
-0.0897277108278982 0.257876444484474 2.27113098501388
-0.0397202809745057 0.258246946456614 2.27306149187651
0.00678277965314537 0.258164567312112 2.27527883148459
0.0455426432860062 0.235118165484247 2.29352470890801
0.0919102501049211 0.239389198612605 2.27112671411154
-0.261237172432336 -0.100043094840665 1.80988450634392
-0.219705272823003 -0.104881213300277 1.79664707556559
-0.173243983802684 -0.10302156899279 1.79048173075609
-0.158816049050445 -0.135725747359826 1.81383613441198
-0.121197164353234 -0.109233862188304 1.79787725700169
-0.0746220840382395 -0.121088371534163 1.80863392185753
-0.0279202611980867 -0.132207891585923 1.81942384434221
0.0201178865771898 -0.12213166189768 1.81646268619201
0.0591868127432234 -0.149056459889505 1.84063770828782
0.103901660797093 -0.123430667906226 1.83940140502847
0.144114504887979 -0.126104824342711 1.87252754738576
-0.340898893918368 -0.00464719549630801 1.85006770842095
-0.324704408901721 -0.0522925768730885 1.83806484732425
0.193088535477845 -0.086371165770169 1.91271450827139
0.210938719460932 -0.0621358317053392 1.94499722258627
-0.361076151437079 0.0138574376082728 1.88854719087184
0.216859686799984 -0.0183309071407865 1.95359128278293
-0.357752682563053 0.0591754870581942 1.9075031119441
0.219666076112234 -0.00441696841308214 1.99832959335798
-0.367456181922861 0.0750346422076228 1.95163472367674
0.216576852339971 0.0400735813487841 2.01501897493345
-0.374368944823876 0.0946652673222755 1.99652456645529
0.216782882979617 0.0576469978882339 2.06183575632118
-0.367905342918335 0.140852094723021 2.0091847024759
0.214062787192793 0.101194623086115 2.08180965487743
-0.370771837405153 0.169853306347618 2.04366324858304
0.213904659154331 0.118974105522152 2.12831276876059
-0.374672625800428 0.194008068578209 2.09712912068366
0.20834643714131 0.161700599255917 2.14842988618016
-0.356493619916425 0.235606930897781 2.11011791311354
0.192893552670171 0.180898168837918 2.19561877299332
-0.339109967855239 0.249720954589326 2.15898293409225
-0.303235736740671 0.282550108147266 2.16937748033573
0.134307908610789 0.237419268232181 2.23868523835108
0.166259626000715 0.227286007509604 2.20229186811745
-0.267955406531948 0.285282574698322 2.20840744862819
-0.219080098928416 0.307042470674888 2.20206780583469
-0.182072514780917 0.293977547132393 2.22804672546955
-0.140127702520636 0.301553990131382 2.21714928848039
-0.0961719961511484 0.292020097040483 2.23194265017037
-0.0515924522399073 0.287577616910784 2.2387863542086
-0.00153784492392262 0.286519037041255 2.24071182352864
0.0501222033967296 0.269092962325887 2.25876128769028
0.0955818712171199 0.268400503414448 2.23634465031275
-0.286157868213242 -0.0592358097206594 1.80609091741915
-0.240700012217723 -0.0619623802555759 1.78405512203054
-0.193012710143156 -0.0644414855813926 1.77474489095755
-0.141212689376872 -0.0688268850409383 1.77817538861718
-0.0908054974000558 -0.0756056600008831 1.785379817606
-0.0448177235736682 -0.0856465152269611 1.79339709132104
-0.000720273272744404 -0.0854795036682849 1.79755598938385
0.046415421001384 -0.0756578029161515 1.79927235287432
0.0664183978347675 -0.110039325393321 1.81658955680438
0.0988268583696694 -0.0748908834315596 1.81399876263687
0.13503505608601 -0.0911651939695982 1.84166494438727
-0.3056904071292 -0.0167474004063111 1.81226379692818
-0.280001330766252 0.0239739823011765 1.79639114585758
-0.263077865307261 -0.0200443958269449 1.78520573992717
0.145702255508999 -0.0504597812270256 1.83700933981568
0.171347075517782 -0.082519249962661 1.87389005237802
0.175206754357755 -0.0355688535003401 1.86443143470506
-0.337298089481115 0.0500308036014587 1.85911441451042
-0.317622914656107 0.0257748686172169 1.82635321516355
0.199163096655079 -0.039876699901279 1.9025413876061
0.204854208418852 0.00303594004788084 1.91739479709638
-0.33375293727606 0.0890164746493423 1.8835419411308
0.210812491450717 0.0310952516457103 1.9593400465648
-0.343564318929903 0.111061549108176 1.92182276918019
0.206094843856208 0.0697962264631522 1.98493665210839
-0.356082734196565 0.123922256176441 1.96085906242014
0.208756811642955 0.0928215398630856 2.02604570545843
-0.344691042071568 0.163806781843896 1.97261434450146
0.204177361706883 0.13137527402297 2.05133139848061
-0.348377470879478 0.194029924909879 2.00762341606666
0.20663595746792 0.154208494200157 2.0922340735059
-0.361901784661296 0.212077969460169 2.05937115682548
0.199371259505034 0.191287026540763 2.11689286252675
-0.32772732232585 0.272855522780847 2.12024420777938
-0.339642194954103 0.254963996843651 2.07249342120061
-0.308421379117824 0.287924847285386 2.07716852191339
0.189905186625544 0.208924497373092 2.1603031955349
0.177010777728029 0.232740899959185 2.11549861889321
0.163729734677609 0.247829573745685 2.16001920827451
-0.25978168437447 0.3084016160992 2.17042091292412
-0.293498399450295 0.300259417192775 2.12936012741698
-0.251423056067362 0.321541239030992 2.12735930897079
0.131063368967126 0.266431014264159 2.19820407249983
0.0991866415027713 0.297056497257988 2.16065208104055
0.0866450801521009 0.292065420395278 2.19974838045159
-0.212361789943343 0.324868971566784 2.16115957516735
-0.168524707980972 0.319775905905589 2.18134758299862
-0.115650211403387 0.317014722433213 2.1840845814456
-0.0712718516058012 0.312085880220958 2.19330441718832
-0.0275158362070183 0.30862341515406 2.19868913278731
0.0152137465004329 0.307321460601816 2.19833497181974
0.0481575626868334 0.293678110754176 2.22240309241549
-0.214192788489495 -0.0217117830181183 1.76946882896994
-0.16294329182486 -0.0263134588577489 1.76702430282189
-0.112245888481445 -0.030614890228398 1.77319939993843
-0.0644530828957921 -0.0356692817249553 1.77930166221168
-0.0196873022516471 -0.0394383401884188 1.78491272188159
0.0244163717183956 -0.0355043108159809 1.78971575584368
0.072990285113396 -0.0342322030949615 1.79763805856707
-0.235732447590117 0.0202231372135725 1.77597209976168
-0.208119581964292 0.0575794651179427 1.77843362843941
-0.184320511025422 0.0173260424244374 1.76699575298526
-0.133576828182255 0.0136121753640634 1.77057610533802
-0.0859451193220983 0.0123134016373276 1.77680952405234
-0.0387395847771797 0.00867169649017594 1.78271856364856
0.00602432836352866 0.009980522789457 1.78896306459335
0.0529237997671229 0.00903516334491008 1.79533503529196
0.101027295575316 0.010444137104335 1.8101255919406
0.147918407008443 0.00235871224874488 1.83816694271888
0.116482269805849 -0.029961049616306 1.81502125681921
-0.297699369226504 0.0652926030393663 1.82249848499724
-0.265324960169075 0.103513886244353 1.82320968071325
-0.255018169841366 0.0641217782712803 1.79506092108554
0.124338098323878 0.0448567233372706 1.83305451258633
0.181708148950935 0.00682083867610635 1.87571509849524
0.160297138962192 0.0467159764081263 1.86504540676562
-0.305321708418965 0.0976677157996664 1.85202967158012
-0.271649956909622 0.136029427706796 1.85778960212201
0.190427034749469 0.0442916248531157 1.90868728423882
0.162990719251347 0.0831010117491749 1.89756006366765
-0.309739729661464 0.1320808494573 1.89008603331062
-0.27849118836141 0.168061298639337 1.89426928471087
0.189577428163984 0.0761429619059242 1.94040558719781
0.161245845278659 0.116870267007895 1.93144836802315
-0.320746612388925 0.158352042589971 1.92909099127765
-0.283180423653635 0.197666430452389 1.92688587905648
0.18835652207152 0.110340152973404 1.97589351701074
0.160389922428456 0.14967043710939 1.9656283740411
-0.317354313125727 0.197989385441582 1.96233619910333
-0.28103059008975 0.232889401656005 1.95946468764791
0.187820535496049 0.140136843489933 2.00813883334743
0.159890558083095 0.18180284942642 1.99964263454959
-0.31434473178243 0.234080500536772 1.99308892830456
-0.280219012260999 0.27007251906107 1.99666085603215
0.186938055221749 0.173791406118627 2.04390279457709
0.158848175359871 0.214111246865573 2.03302655366002
-0.338051070113637 0.235128768224065 2.02938356796088
-0.308449548900892 0.27181096420952 2.03269956261951
0.185389832381593 0.204010411395963 2.07559742680537
0.155758494405589 0.243895855827342 2.06831873445967
-0.275032887227028 0.311229165648601 2.08739615193623
-0.269850996076919 0.301642128831929 2.0396079120002
-0.237270175153979 0.323906364180057 2.07293785465467
0.133555459205924 0.2775046158615 2.15101311255086
0.147316862720188 0.265563803167492 2.10956943223017
0.107658412513614 0.293460182603102 2.10877830228054
-0.212844677675597 0.332108919124514 2.11269308522018
-0.187112232010715 0.33186761432251 2.07698952675472
-0.17239531393301 0.332482634672322 2.13143620050311
-0.143259173264228 0.330628112465542 2.0906578251025
-0.130012879914149 0.328545488450291 2.1409687986937
-0.0992013717414953 0.32711054973531 2.09615123928881
-0.0832639121304778 0.325183264565799 2.1440748329356
-0.0543978527164353 0.323342401800509 2.09990587417286
-0.0390318450579834 0.321542506306983 2.15044186739406
-0.0108773466198884 0.319709326831863 2.10392361002438
0.00544823606928893 0.318397185427526 2.15274384664603
0.033268929136547 0.316475940165927 2.11212690433248
0.0510191750973314 0.311668770706636 2.16811018265844
0.0708958542178623 0.309980862152952 2.12506096848612
-0.177081059574962 0.0908604604218709 1.79066432749822
-0.154840824847843 0.0558039043668803 1.77672926546585
-0.109131863193679 0.0580708360373338 1.78439112465926
-0.0604599172976104 0.0537126136277036 1.79029607013898
-0.0155778832099497 0.0553891911126075 1.79787854586206
0.0297772658411799 0.0544525486901527 1.80461745182091
0.0757371597934711 0.0503110654225955 1.81218695862378
-0.22209469231663 0.0999101144222094 1.80196265776744
-0.179323881007252 0.12695029911353 1.81634038491038
-0.133483034602987 0.100895577182299 1.80180429303441
-0.0826187018152355 0.0936936888096175 1.80614034699214
-0.0383258499182 0.096933270111081 1.81612171191976
0.00616570006348903 0.096803825091815 1.82407935410912
0.0513043579509853 0.0937811936732557 1.83014461662802
0.0946186516150015 0.0839047149937028 1.83773975035164
0.129183674737252 0.0871222283792633 1.86285539522037
-0.226842794082251 0.135297207714546 1.83292183086594
-0.186823321634253 0.160351571798339 1.84979978199576
-0.141034925950726 0.14335274307976 1.83701592499073
-0.101949207416129 0.126891400921917 1.82841752450013
-0.0591806124866118 0.132236986875056 1.84255695209012
-0.0155104369416302 0.132864176075644 1.85220915342334
0.0325503324203864 0.129010184881427 1.85819163035234
0.0823029178300484 0.121056965893317 1.86468062278425
0.126950550507453 0.119599243859328 1.89372873638523
-0.233548067982414 0.167543593155641 1.86749886817263
-0.188358757725221 0.192434701083209 1.88225003594393
-0.142414130925244 0.17711167737907 1.87119838689173
-0.0959348803527778 0.160238249591472 1.86356179898097
-0.0490149449312661 0.167073447605008 1.8802219326286
0.00112384632517781 0.162974381665416 1.8863830023219
0.0488722151341356 0.158684771649977 1.89186834834555
0.0908770580411288 0.150777331780545 1.89986900257318
0.125960508715139 0.154159071540813 1.92925541359934
-0.236886040381531 0.198785792440861 1.89985854290964
-0.190738942036005 0.222962303220812 1.91318437672202
-0.141870774757495 0.211143894719286 1.90605632198524
-0.0994345432871291 0.192967423293034 1.89625471425568
-0.0615722615574631 0.201766198855847 1.91305079938938
-0.0169202411314122 0.195720902347767 1.91609245913382
0.0310370956097713 0.191979133226982 1.92216779562981
0.080008075411747 0.18551758775727 1.93020799913328
0.125072782399632 0.185189436316 1.9611587635944
-0.239964342518414 0.229166088189239 1.93128130802023
-0.196936196670615 0.253176322104951 1.94413448728504
-0.147002121825139 0.243274591883516 1.93780120259632
-0.0978708088857989 0.230903372554576 1.93530962675523
-0.046364800160176 0.231054633023502 1.9460917113601
0.00174741750106291 0.226260879714501 1.95112554597499
0.0481054781384306 0.222695499082943 1.95711147864202
0.0895095392265981 0.215496448228002 1.96625371344513
0.124439468200544 0.21919178784702 1.99644574982851
-0.244451361658729 0.261874565327725 1.96565641691483
-0.206472325963248 0.283922425697032 1.97686677064595
-0.159530136201183 0.276958210801099 1.9696720822423
-0.113006671528378 0.266687095543147 1.96872049189132
-0.0684049321448612 0.262136923535031 1.973277690994
-0.0194734810568293 0.259856020457462 1.98104633479908
0.0292841945531688 0.256128592023982 1.98730111220387
0.0782967009417094 0.250358178749579 1.99641478523706
0.123011428930673 0.249646871576773 2.02816291811096
-0.24007491589175 0.296466355766745 2.00489876885341
-0.183463814687501 0.306201556317233 2.00548452621276
-0.134776529848267 0.299679604834048 2.0040546615918
-0.0901877134108704 0.294778105203232 2.00754055546299
-0.0453649051318279 0.290568754932443 2.01217622804397
0.000963281263669472 0.287487758288043 2.01889848175692
0.0459914887232645 0.284481983849864 2.02557142638447
0.0865929082806904 0.27768729423715 2.03568518656498
0.118334569097137 0.276762659299129 2.06907666918922
-0.215080454298258 0.318478231123522 2.03620846014747
-0.160916459138475 0.321755939876455 2.04201640992875
-0.115193177973609 0.318211799816759 2.04802699740053
-0.0701707548388014 0.314103289342169 2.05218882797739
-0.0244567607388415 0.309950775981338 2.05650217867226
0.022637808074722 0.306724425122854 2.06385867929433
0.0694934270230483 0.301492419876328 2.07409619144669
3 0 1 2
3 0 2 4
3 3 0 4
3 3 4 6
3 5 3 6
3 5 6 8
3 7 5 8
3 7 8 10
3 9 7 10
3 9 10 12
3 11 9 12
3 13 11 14
3 14 11 12
3 13 14 15
3 16 17 18
3 16 18 1
3 0 19 1
3 19 16 1
3 0 3 20
3 19 0 20
3 3 5 21
3 20 3 21
3 5 7 22
3 21 5 22
3 7 9 23
3 22 7 23
3 9 11 24
3 23 9 24
3 24 11 25
3 25 11 13
3 13 15 26
3 27 13 26
3 25 13 27
3 27 26 28
3 17 16 30
3 30 16 29
3 29 19 31
3 29 16 19
3 31 20 32
3 31 19 20
3 32 21 33
3 32 20 21
3 21 22 33
3 33 22 34
3 22 23 34
3 34 23 35
3 23 24 35
3 35 24 36
3 24 25 36
3 36 25 37
3 37 27 38
3 37 25 27
3 38 28 39
3 38 27 28
3 30 40 41
3 30 29 40
3 29 31 42
3 40 29 42
3 31 32 43
3 42 31 43
3 32 33 44
3 43 32 44
3 33 34 45
3 44 33 45
3 34 35 46
3 45 34 46
3 35 36 47
3 46 35 47
3 36 37 47
3 47 37 48
3 37 38 48
3 48 38 49
3 49 39 50
3 49 38 39
3 40 51 52
3 41 40 52
3 51 42 53
3 51 40 42
3 42 43 53
3 53 43 54
3 43 44 54
3 54 44 55
3 44 45 55
3 55 45 56
3 45 46 56
3 56 46 57
3 46 47 58
3 57 46 58
3 47 48 59
3 58 47 59
3 48 49 60
3 59 48 60
3 49 50 61
3 60 49 61
3 51 62 63
3 52 51 63
3 51 53 64
3 62 51 64
3 53 54 65
3 64 53 65
3 54 55 66
3 65 54 66
3 55 56 67
3 66 55 67
3 56 57 67
3 67 57 68
3 57 58 69
3 68 57 69
3 58 59 69
3 69 59 70
3 59 60 70
3 70 60 71
3 71 61 72
3 71 60 61
3 62 73 74
3 63 62 74
3 62 64 75
3 73 62 75
3 64 65 75
3 75 65 76
3 65 66 76
3 76 66 77
3 66 67 77
3 77 67 78
3 67 68 78
3 78 68 79
3 79 69 80
3 79 68 69
3 80 70 81
3 80 69 70
3 81 71 82
3 81 70 71
3 82 72 83
3 82 71 72
3 74 73 85
3 85 73 84
3 84 73 86
3 86 73 75
3 75 76 86
3 86 76 87
3 76 77 88
3 87 76 88
3 77 78 89
3 88 77 89
3 78 79 90
3 89 78 90
3 79 80 91
3 90 79 91
3 80 81 92
3 91 80 92
3 81 82 93
3 92 81 93
3 93 83 94
3 93 82 83
3 84 95 85
3 84 86 96
3 97 84 96
3 95 84 97
3 96 87 98
3 96 86 87
3 87 88 98
3 98 88 99
3 88 89 99
3 99 89 100
3 89 90 100
3 100 90 101
3 101 91 102
3 101 90 91
3 102 92 103
3 102 91 92
3 92 93 103
3 105 103 104
3 103 93 104
3 93 94 104
3 96 106 97
3 96 98 107
3 106 96 107
3 98 99 108
3 107 98 108
3 99 100 109
3 108 99 109
3 100 101 110
3 109 100 110
3 101 102 111
3 110 101 111
3 111 102 112
3 112 102 103
3 103 105 112
3 117 114 115
3 116 113 117
3 117 113 114
3 116 117 119
3 118 116 119
3 118 119 121
3 120 118 121
3 120 121 123
3 122 120 123
3 122 123 125
3 124 122 125
3 124 125 127
3 126 124 127
3 126 127 128
3 129 130 131
3 114 129 131
3 114 113 129
3 113 2 129
3 129 2 1
3 4 113 116
3 4 2 113
3 6 116 118
3 6 4 116
3 8 118 120
3 8 6 118
3 10 120 122
3 10 8 120
3 12 122 124
3 12 10 122
3 14 124 126
3 14 12 124
3 133 126 128
3 15 14 126
3 15 126 133
3 132 15 133
3 132 133 134
3 135 136 137
3 137 17 135
3 137 18 17
3 18 137 130
3 129 18 130
3 18 129 1
3 15 132 26
3 139 132 134
3 139 138 132
3 138 28 26
3 132 138 26
3 138 139 140
3 136 135 142
3 142 135 141
3 17 30 135
3 135 30 141
3 143 39 28
3 138 143 28
3 143 140 144
3 143 138 140
3 141 145 146
3 142 141 146
3 41 145 141
3 30 41 141
3 147 39 143
3 147 50 39
3 147 144 148
3 147 143 144
3 145 149 150
3 146 145 150
3 52 149 145
3 41 52 145
3 151 50 147
3 151 155 50
3 151 148 152
3 151 147 148
3 149 153 154
3 150 149 154
3 63 153 149
3 52 63 149
3 155 61 50
3 155 72 61
3 155 151 156
3 156 151 152
3 154 157 158
3 154 153 157
3 74 157 153
3 63 74 153
3 159 72 155
3 159 83 72
3 159 156 160
3 159 155 156
3 158 157 162
3 162 157 161
3 74 85 161
3 157 74 161
3 163 83 159
3 163 94 83
3 163 160 164
3 163 159 160
3 161 165 162
3 165 95 166
3 165 161 95
3 161 85 95
3 165 166 167
3 95 97 166
3 105 104 168
3 170 94 163
3 170 168 94
3 169 168 170
3 94 168 104
3 163 164 170
3 166 171 167
3 173 171 172
3 172 171 106
3 171 97 106
3 171 166 97
3 172 107 174
3 172 106 107
3 174 108 175
3 174 107 108
3 175 109 176
3 175 108 109
3 176 110 177
3 176 109 110
3 177 111 178
3 177 110 111
3 178 112 180
3 178 111 112
3 181 105 168
3 181 180 105
3 179 178 180
3 180 112 105
3 168 169 181
3 172 182 173
3 182 172 183
3 183 172 174
3 174 175 184
3 183 174 184
3 175 176 185
3 184 175 185
3 176 177 186
3 185 176 186
3 177 178 187
3 186 177 187
3 187 179 188
3 187 178 179
3 179 180 229
3 189 190 191
3 114 131 191
3 115 114 191
3 115 191 192
3 115 192 193
3 117 115 193
3 119 193 194
3 119 117 193
3 119 194 121
3 121 194 195
3 121 195 123
3 123 195 196
3 123 196 125
3 125 196 197
3 127 197 198
3 127 125 197
3 128 198 199
3 200 128 199
3 128 127 198
3 200 199 201
3 202 203 204
3 131 130 189
3 190 189 204
3 189 130 202
3 189 202 204
3 131 189 191
3 128 200 133
3 134 200 205
3 206 205 201
3 134 133 200
3 205 200 201
3 205 206 207
3 136 208 203
3 202 137 136
3 202 136 203
3 137 202 130
3 134 205 139
3 139 205 207
3 140 139 207
3 211 207 209
3 136 142 208
3 208 142 210
3 211 140 207
3 211 144 140
3 146 212 210
3 142 146 210
3 148 144 213
3 213 144 211
3 150 214 212
3 146 150 212
3 215 148 213
3 215 152 148
3 154 216 150
3 150 216 214
3 219 152 217
3 217 152 215
3 158 218 216
3 154 158 216
3 219 156 152
3 219 160 156
3 158 220 218
3 158 162 220
3 221 160 219
3 221 164 160
3 162 165 222
3 223 220 222
3 220 162 222
3 165 167 222
3 169 170 224
3 225 164 221
3 224 170 164
3 224 164 225
3 222 226 223
3 167 171 227
3 226 167 227
3 226 227 228
3 226 222 167
3 171 173 227
3 180 181 229
3 181 169 230
3 231 169 224
3 230 169 231
3 230 229 181
3 224 225 271
3 227 232 228
3 232 182 233
3 232 173 182
3 227 173 232
3 182 183 234
3 233 182 234
3 183 184 234
3 234 184 235
3 184 185 235
3 235 185 236
3 185 186 236
3 236 186 237
3 186 187 237
3 237 187 238
3 238 188 239
3 238 187 188
3 188 179 229
3 240 239 188
3 240 188 229
3 229 230 240
3 191 190 242
3 242 190 241
3 192 242 243
3 192 191 242
3 192 243 244
3 193 192 244
3 194 244 245
3 194 193 244
3 194 245 246
3 195 194 246
3 195 246 247
3 196 195 247
3 196 247 248
3 197 196 248
3 197 248 249
3 198 197 249
3 199 198 249
3 250 199 249
3 201 199 251
3 251 199 250
3 204 252 253
3 204 203 252
3 190 253 241
3 190 204 253
3 206 251 254
3 206 201 251
3 207 206 255
3 255 206 254
3 203 256 252
3 203 208 256
3 257 209 255
3 255 209 207
3 210 258 208
3 208 258 256
3 211 209 259
3 259 209 257
3 212 260 210
3 210 260 258
3 213 211 259
3 261 213 259
3 214 262 260
3 212 214 260
3 215 213 261
3 263 215 261
3 216 264 214
3 214 264 262
3 217 215 263
3 265 217 263
3 218 266 264
3 216 218 264
3 219 217 265
3 267 219 265
3 218 268 266
3 218 220 268
3 221 219 267
3 269 221 267
3 223 270 268
3 220 223 268
3 225 221 269
3 271 225 269
3 223 226 272
3 270 223 272
3 272 228 273
3 272 226 228
3 274 231 275
3 274 230 231
3 275 231 271
3 271 231 224
3 273 228 276
3 276 228 232
3 276 233 277
3 276 232 233
3 233 234 278
3 277 233 278
3 234 235 279
3 278 234 279
3 235 236 280
3 279 235 280
3 236 237 281
3 280 236 281
3 237 238 282
3 281 237 282
3 238 239 283
3 282 238 283
3 327 239 284
3 284 239 240
3 240 230 274
3 284 240 274
3 241 285 286
3 242 241 286
3 242 286 243
3 243 286 287
3 243 287 288
3 244 243 288
3 245 288 289
3 245 244 288
3 245 289 246
3 246 289 290
3 246 290 247
3 247 290 291
3 247 291 248
3 248 291 292
3 248 292 293
3 249 248 293
3 249 293 250
3 250 293 294
3 250 294 295
3 251 250 295
3 252 296 297
3 253 252 297
3 241 297 285
3 241 253 297
3 254 295 298
3 254 251 295
3 254 298 299
3 255 254 299
3 256 300 252
3 252 300 296
3 257 255 299
3 301 257 299
3 258 302 300
3 256 258 300
3 259 257 303
3 303 257 301
3 260 304 258
3 258 304 302
3 261 259 303
3 305 261 303
3 262 306 304
3 260 262 304
3 263 261 305
3 307 263 305
3 264 308 262
3 262 308 306
3 265 263 307
3 309 265 307
3 266 310 308
3 264 266 308
3 267 265 309
3 311 267 309
3 266 312 310
3 266 268 312
3 269 267 311
3 313 269 311
3 270 314 312
3 268 270 312
3 271 269 315
3 315 269 313
3 270 272 316
3 314 270 316
3 316 273 317
3 316 272 273
3 318 275 319
3 318 274 275
3 275 271 315
3 319 275 315
3 273 276 320
3 317 273 320
3 276 277 320
3 320 277 321
3 277 278 322
3 321 277 322
3 322 279 323
3 322 278 279
3 279 280 323
3 323 280 324
3 280 281 324
3 324 281 325
3 281 282 325
3 325 282 326
3 282 283 326
3 326 283 327
3 283 239 327
3 327 284 328
3 284 274 318
3 328 284 318
3 285 329 330
3 286 285 330
3 286 330 287
3 287 330 331
3 287 331 332
3 288 287 332
3 288 332 289
3 289 332 333
3 289 333 334
3 290 289 334
3 290 334 335
3 291 290 335
3 291 335 292
3 292 335 336
3 292 336 337
3 293 292 337
3 293 337 294
3 294 337 338
3 294 338 339
3 295 294 339
3 296 340 341
3 297 296 341
3 285 341 329
3 285 297 341
3 298 339 342
3 298 295 339
3 298 342 343
3 299 298 343
3 300 344 296
3 296 344 340
3 301 299 343
3 345 301 343
3 302 346 344
3 300 302 344
3 303 301 347
3 347 301 345
3 304 348 302
3 302 348 346
3 305 303 347
3 349 305 347
3 306 350 348
3 304 306 348
3 307 305 351
3 351 305 349
3 308 352 306
3 306 352 350
3 309 307 353
3 353 307 351
3 310 354 352
3 308 310 352
3 311 309 355
3 355 309 353
3 312 356 310
3 310 356 354
3 313 311 355
3 357 313 355
3 314 358 356
3 312 314 356
3 315 313 359
3 359 313 357
3 314 316 360
3 358 314 360
3 360 317 361
3 360 316 317
3 362 319 363
3 362 318 319
3 319 315 359
3 363 319 359
3 317 320 364
3 361 317 364
3 320 321 364
3 364 321 365
3 321 322 366
3 365 321 366
3 322 323 366
3 366 323 367
3 323 324 368
3 367 323 368
3 324 325 369
3 368 324 369
3 325 326 370
3 369 325 370
3 326 327 371
3 370 326 371
3 327 328 371
3 371 328 372
3 328 318 362
3 372 328 362
3 329 373 374
3 330 329 374
3 330 374 331
3 331 374 375
3 331 375 376
3 332 331 376
3 332 376 333
3 333 376 377
3 333 377 378
3 334 333 378
3 334 378 379
3 335 334 379
3 335 379 336
3 336 379 380
3 336 380 381
3 337 336 381
3 337 381 338
3 338 381 382
3 338 382 383
3 339 338 383
3 340 384 385
3 341 340 385
3 329 385 373
3 329 341 385
3 342 383 386
3 342 339 383
3 342 386 387
3 343 342 387
3 344 388 340
3 340 388 384
3 345 343 387
3 389 345 387
3 346 390 388
3 344 346 388
3 347 345 391
3 391 345 389
3 348 392 346
3 346 392 390
3 349 347 391
3 393 349 391
3 350 394 348
3 348 394 392
3 351 349 395
3 395 349 393
3 352 396 350
3 350 396 394
3 353 351 395
3 397 353 395
3 354 398 396
3 352 354 396
3 355 353 399
3 399 353 397
3 356 400 354
3 354 400 398
3 357 355 399
3 401 357 399
3 358 402 400
3 356 358 400
3 359 357 403
3 403 357 401
3 358 360 404
3 402 358 404
3 404 361 405
3 404 360 361
3 406 363 407
3 406 362 363
3 363 359 403
3 407 363 403
3 361 364 408
3 405 361 408
3 364 365 408
3 408 365 409
3 365 366 410
3 409 365 410
3 366 367 410
3 410 367 411
3 367 368 412
3 411 367 412
3 368 369 412
3 412 369 413
3 369 370 413
3 413 370 414
3 370 371 415
3 414 370 415
3 371 372 415
3 415 372 416
3 372 362 406
3 416 372 406
3 373 417 418
3 374 373 418
3 374 418 375
3 375 418 419
3 375 419 420
3 376 375 420
3 376 420 377
3 377 420 421
3 377 421 422
3 378 377 422
3 378 422 423
3 379 378 423
3 380 423 424
3 380 379 423
3 380 424 425
3 381 380 425
3 382 425 426
3 382 381 425
3 382 426 427
3 383 382 427
3 384 428 429
3 385 384 429
3 373 429 417
3 373 385 429
3 386 427 430
3 386 383 427
3 386 430 431
3 387 386 431
3 384 432 428
3 384 388 432
3 389 387 431
3 433 389 431
3 390 434 432
3 388 390 432
3 435 389 433
3 435 391 389
3 390 436 434
3 390 392 436
3 393 391 435
3 437 393 435
3 394 438 436
3 392 394 436
3 395 393 439
3 439 393 437
3 396 440 438
3 394 396 438
3 397 395 439
3 441 397 439
3 398 442 440
3 396 398 440
3 399 397 443
3 443 397 441
3 400 444 398
3 398 444 442
3 401 399 443
3 445 401 443
3 402 446 444
3 400 402 444
3 403 401 447
3 447 401 445
3 402 404 448
3 446 402 448
3 448 405 449
3 448 404 405
3 450 407 451
3 450 406 407
3 407 403 447
3 451 407 447
3 405 408 452
3 449 405 452
3 408 409 452
3 452 409 453
3 409 410 454
3 453 409 454
3 410 411 454
3 454 411 455
3 411 412 456
3 455 411 456
3 412 413 456
3 456 413 457
3 457 414 458
3 457 413 414
3 414 415 459
3 458 414 459
3 415 416 459
3 459 416 460
3 416 406 450
3 460 416 450
3 418 461 462
3 418 417 461
3 419 462 463
3 419 418 462
3 419 463 464
3 420 419 464
3 420 464 421
3 421 464 465
3 421 465 466
3 422 421 466
3 422 466 467
3 423 422 467
3 424 467 468
3 424 423 467
3 424 468 469
3 425 424 469
3 426 469 470
3 426 425 469
3 427 426 471
3 471 426 470
3 429 428 473
3 473 428 472
3 417 473 505
3 417 429 473
3 430 427 471
3 520 430 471
3 431 474 475
3 431 430 474
3 428 476 472
3 428 432 476
3 433 431 475
3 477 433 475
3 434 478 476
3 432 434 476
3 479 433 477
3 479 435 433
3 434 480 478
3 434 436 480
3 437 435 479
3 481 437 479
3 438 482 436
3 436 482 480
3 439 437 483
3 483 437 481
3 440 484 482
3 438 440 482
3 441 439 483
3 485 441 483
3 442 486 440
3 440 486 484
3 443 441 487
3 487 441 485
3 444 488 442
3 442 488 486
3 445 443 487
3 489 445 487
3 444 446 488
3 488 446 490
3 491 445 489
3 491 447 445
3 490 446 492
3 492 446 448
3 492 449 493
3 492 448 449
3 494 451 495
3 494 450 451
3 451 447 491
3 495 451 491
3 449 452 496
3 493 449 496
3 496 453 497
3 496 452 453
3 453 454 498
3 497 453 498
3 498 455 499
3 498 454 455
3 455 456 500
3 499 455 500
3 456 457 501
3 500 456 501
3 457 458 502
3 501 457 502
3 458 459 503
3 502 458 503
3 503 460 504
3 503 459 460
3 504 460 494
3 494 460 450
3 461 505 506
3 462 461 506
3 507 463 462
3 507 462 506
3 465 463 508
3 508 463 507
3 464 463 465
3 465 508 509
3 465 509 466
3 466 509 510
3 466 510 467
3 467 510 511
3 467 511 468
3 468 511 512
3 468 512 513
3 469 468 513
3 469 513 470
3 515 470 514
3 470 513 514
3 470 515 471
3 472 516 473
3 518 516 517
3 518 505 516
3 461 417 505
3 505 473 516
3 505 518 506
3 515 514 519
3 474 430 520
3 521 520 519
3 520 471 515
3 520 515 519
3 474 520 524
3 476 522 472
3 516 472 523
3 472 522 523
3 516 523 517
3 520 521 524
3 477 475 524
3 524 475 474
3 525 477 524
3 478 526 522
3 476 478 522
3 527 477 525
3 527 479 477
3 478 528 526
3 478 480 528
3 481 479 527
3 529 481 527
3 482 530 480
3 480 530 528
3 483 481 531
3 531 481 529
3 484 532 530
3 482 484 530
3 485 483 531
3 533 485 531
3 486 534 484
3 484 534 532
3 535 485 533
3 535 487 485
3 486 536 534
3 486 488 536
3 537 489 535
3 535 489 487
3 490 538 539
3 536 490 539
3 488 490 536
3 538 540 539
3 541 542 543
3 541 489 537
3 542 541 537
3 541 491 489
3 490 492 538
3 545 493 544
3 538 492 493
3 538 493 545
3 540 538 545
3 544 546 545
3 547 548 549
3 543 495 541
3 547 494 495
3 547 495 543
3 608 547 543
3 495 491 541
3 493 496 544
3 544 497 550
3 546 544 550
3 544 496 497
3 550 497 551
3 551 497 498
3 498 499 551
3 551 499 552
3 499 500 552
3 552 500 553
3 500 501 553
3 553 501 554
3 554 502 555
3 554 501 502
3 502 503 556
3 555 502 556
3 503 504 556
3 549 504 547
3 556 504 549
3 504 494 547
3 506 557 507
3 507 557 558
3 508 507 558
3 508 558 559
3 509 508 559
3 509 559 560
3 510 509 560
3 510 560 561
3 511 510 561
3 511 561 562
3 512 511 562
3 514 512 563
3 563 512 562
3 513 512 514
3 517 564 518
3 518 564 557
3 566 564 565
3 557 564 566
3 557 506 518
3 558 566 567
3 558 557 566
3 559 567 568
3 559 558 567
3 560 568 569
3 560 559 568
3 561 569 570
3 561 560 569
3 562 570 571
3 562 561 570
3 563 562 571
3 572 563 571
3 574 514 563
3 572 574 563
3 573 519 574
3 574 519 514
3 519 573 521
3 522 575 523
3 577 575 576
3 577 517 575
3 564 517 577
3 575 517 523
3 564 577 565
3 573 574 572
3 521 573 579
3 580 573 578
3 579 573 580
3 579 524 521
3 524 579 525
3 522 581 575
3 522 526 581
3 576 581 582
3 576 575 581
3 583 580 584
3 583 579 580
3 583 525 579
3 583 527 525
3 526 585 581
3 526 528 585
3 582 585 586
3 582 581 585
3 587 584 588
3 587 583 584
3 587 527 583
3 587 529 527
3 528 589 585
3 528 530 589
3 586 589 590
3 586 585 589
3 591 588 592
3 591 587 588
3 591 529 587
3 591 531 529
3 532 593 589
3 530 532 589
3 590 593 594
3 590 589 593
3 595 592 596
3 595 591 592
3 595 531 591
3 595 533 531
3 534 597 593
3 532 534 593
3 594 597 598
3 594 593 597
3 599 596 600
3 599 595 596
3 599 533 595
3 599 535 533
3 534 601 597
3 534 536 601
3 602 597 601
3 602 598 597
3 603 599 600
3 604 603 600
3 603 535 599
3 603 537 535
3 536 539 601
3 606 540 605
3 606 602 540
3 602 601 539
3 540 602 539
3 605 607 606
3 608 609 610
3 608 543 609
3 604 542 603
3 609 543 542
3 609 542 604
3 542 537 603
3 540 545 605
3 605 546 607
3 612 607 611
3 605 545 546
3 607 546 611
3 612 613 614
3 612 611 613
3 614 615 616
3 614 613 615
3 616 617 618
3 616 615 617
3 618 619 620
3 618 617 619
3 620 621 622
3 620 619 621
3 622 623 624
3 622 621 623
3 610 548 608
3 624 623 548
3 624 548 610
3 548 623 549
3 548 547 608
3 546 550 611
3 611 550 613
3 613 550 551
3 551 552 615
3 613 551 615
3 552 553 617
3 615 552 617
3 553 554 619
3 617 553 619
3 554 555 621
3 619 554 621
3 621 555 623
3 623 555 556
3 556 549 623
3 565 625 626
3 567 566 626
3 626 566 565
3 567 626 627
3 568 567 627
3 568 627 628
3 569 568 628
3 569 628 629
3 570 569 629
3 570 629 630
3 571 570 630
3 572 571 631
3 631 571 630
3 572 631 578
3 576 632 577
3 625 632 633
3 565 577 632
3 565 632 625
3 625 633 634
3 626 625 634
3 626 634 627
3 627 634 635
3 627 635 628
3 628 635 636
3 628 636 629
3 629 636 637
3 629 637 630
3 630 637 638
3 631 638 639
3 631 630 638
3 640 578 639
3 578 573 572
3 578 631 639
3 578 640 580
3 576 641 632
3 576 582 641
3 633 641 642
3 633 632 641
3 633 642 643
3 634 633 643
3 634 643 644
3 635 634 644
3 635 644 645
3 636 635 645
3 636 645 646
3 637 636 646
3 637 646 647
3 638 637 647
3 638 647 648
3 639 638 648
3 640 648 649
3 640 639 648
3 584 580 640
3 649 584 640
3 582 650 641
3 582 586 650
3 642 650 651
3 642 641 650
3 642 651 652
3 643 642 652
3 643 652 653
3 644 643 653
3 644 653 645
3 645 653 654
3 645 654 646
3 646 654 655
3 646 655 647
3 647 655 656
3 647 656 648
3 648 656 657
3 648 657 649
3 649 657 658
3 588 584 649
3 658 588 649
3 586 659 650
3 586 590 659
3 650 659 651
3 651 659 660
3 651 660 661
3 652 651 661
3 652 661 662
3 653 652 662
3 653 662 654
3 654 662 663
3 654 663 664
3 655 654 664
3 655 664 665
3 656 655 665
3 656 665 666
3 657 656 666
3 657 666 658
3 658 666 667
3 592 588 658
3 667 592 658
3 590 668 659
3 590 594 668
3 660 668 669
3 660 659 668
3 660 669 670
3 661 660 670
3 661 670 671
3 662 661 671
3 662 671 663
3 663 671 672
3 663 672 664
3 664 672 673
3 664 673 665
3 665 673 674
3 665 674 666
3 666 674 675
3 666 675 667
3 667 675 676
3 596 592 667
3 676 596 667
3 594 677 668
3 594 598 677
3 668 677 669
3 669 677 678
3 669 678 679
3 670 669 679
3 670 679 680
3 671 670 680
3 671 680 681
3 672 671 681
3 672 681 682
3 673 672 682
3 673 682 683
3 674 673 683
3 674 683 684
3 675 674 684
3 676 684 685
3 676 675 684
3 600 596 676
3 685 600 676
3 598 686 677
3 598 602 606
3 678 686 687
3 678 677 686
3 678 687 679
3 679 687 688
3 679 688 680
3 680 688 689
3 680 689 681
3 681 689 690
3 681 690 682
3 682 690 691
3 683 691 692
3 683 682 691
3 684 692 693
3 684 683 692
3 685 693 694
3 685 684 693
3 694 604 685
3 685 604 600
3 598 606 686
3 606 607 695
3 686 606 695
3 686 695 687
3 688 687 696
3 696 687 695
3 688 696 697
3 689 688 697
3 689 697 698
3 690 689 698
3 690 698 699
3 691 690 699
3 691 699 700
3 692 691 700
3 692 700 701
3 693 692 701
3 610 609 694
3 701 610 694
3 701 694 693
3 609 604 694
3 607 612 695
3 695 612 696
3 696 612 614
3 614 616 697
3 696 614 697
3 616 618 698
3 697 616 698
3 618 620 699
3 698 618 699
3 620 622 700
3 699 620 700
3 622 624 701
3 700 622 701
3 624 610 701
