OFF
702 1400 0
-0.251864441473427 -0.348943267080807 2.13170586320616
-0.29742535076413 -0.334713975490121 2.11468518932315
-0.269203306237385 -0.352497063972807 2.08623097679236
-0.204927134587955 -0.355369745462267 2.1359945016791
-0.223162300002958 -0.363086262640367 2.09085301286972
-0.158071798882859 -0.35977313218201 2.13882176755963
-0.176731130547134 -0.367018681019575 2.09268297698288
-0.11265057146284 -0.363599823218466 2.14288427815904
-0.13136683397617 -0.370736624523784 2.09422716535258
-0.0677155667700651 -0.367253442030664 2.14731334361752
-0.086567463502301 -0.37418944030629 2.09858639169646
-0.0201744217009057 -0.370261049454936 2.15467697133045
-0.0407359145315758 -0.37747219002124 2.10680779554574
0.0279081361315437 -0.365823491173879 2.16314312924248
0.00661165263585377 -0.37907861787983 2.11563331019707
0.0530718235313769 -0.370231595063389 2.12474734320361
-0.320214323990051 -0.307792037910872 2.14435608687087
-0.350136765323815 -0.289332072278206 2.11786921020585
-0.328760171718613 -0.317687297661118 2.08790722181518
-0.279602523894479 -0.324381704930214 2.16317354788942
-0.232811052929096 -0.3335794927086 2.17462094003259
-0.185062414786389 -0.338640867235413 2.17809442940441
-0.138250538109903 -0.342410538286462 2.18316838123631
-0.0929932895843351 -0.345667751847379 2.18872100167296
-0.0486466316387842 -0.350757058324222 2.19093474005973
2.14678636640403e-05 -0.351474165960308 2.19805483250703
0.0737422295661024 -0.349554259239983 2.16952321586518
0.0451244273160467 -0.339334898522112 2.20631749459021
0.0910461883669299 -0.318680343393865 2.20493372927781
-0.30735888230938 -0.288939352965042 2.18688297858104
-0.347710263148362 -0.267448061131249 2.16000959284901
-0.261247349352624 -0.302852027756463 2.20365877824979
-0.211235865580964 -0.309153370581117 2.21131000256772
-0.1635918234679 -0.31331052936752 2.21622555004009
-0.115936269871491 -0.315666706341422 2.22319958943541
-0.0711973936635623 -0.318302270060943 2.22926221341616
-0.0288797715340465 -0.327208179057462 2.22767935926962
0.0124115726699829 -0.319123178213007 2.23864713070093
0.0579585856100255 -0.305393160007889 2.2406425129517
0.102570617069597 -0.282395622270589 2.23514727164019
-0.325876601728771 -0.252927003487127 2.20939946235594
-0.359253917108337 -0.230434056643717 2.18407932425693
-0.284746913917142 -0.26852047544064 2.22972249360014
-0.235629726850148 -0.279242638529177 2.24030558687804
-0.186832989938078 -0.281353284878604 2.24798258171469
-0.139334329692333 -0.285912633196546 2.252410521052
-0.087810393894328 -0.286757655564512 2.26189245914929
-0.0328802256736817 -0.295709600147752 2.26281343223797
0.0175156925543492 -0.288426191021095 2.27238617121108
0.0678590820085515 -0.2724080397588 2.27174121741372
0.112376333585452 -0.245557559083117 2.26505775958684
-0.310074704238622 -0.230808229036718 2.25305959345426
-0.350751451288772 -0.211786996597247 2.22297232651454
-0.260671821219789 -0.248295392447193 2.26699881880156
-0.213223955838975 -0.250691247072203 2.27762359514838
-0.167656305916489 -0.251716556372393 2.28569257174896
-0.1236467368364 -0.259185855490017 2.28609195511904
-0.0901921532815971 -0.247915059118014 2.30573644455796
-0.055225264955182 -0.266210848646202 2.29194737293191
-0.0129171288642179 -0.262877780279926 2.30287573647702
0.0349336442492291 -0.255995815324747 2.30445060148746
0.0828169465302839 -0.236581908178868 2.30112082086521
-0.313498036339936 -0.192370710815276 2.29522048144657
-0.341591143014738 -0.193074668672322 2.26034099730914
-0.280391528701924 -0.218254585531645 2.29123529679821
-0.233267840707724 -0.221015073674295 2.30741913605345
-0.188513130215291 -0.219900269860098 2.31777358839022
-0.139552719201218 -0.224665628102798 2.32226168254606
-0.094137778514028 -0.219237433150314 2.33766459811218
-0.0466240814236094 -0.23196055499166 2.33277813002058
0.00140790806109618 -0.231616019481509 2.33808891324185
0.0491082669808759 -0.223721029231446 2.33491821207718
0.0963736878310062 -0.200817726393708 2.32885888785885
-0.303021393375564 -0.169611682156204 2.33166161671556
-0.347309931983102 -0.155535863318228 2.2972555735538
-0.264151998323225 -0.193607631197376 2.32858781908417
-0.218196637400395 -0.187939922728565 2.34822729413228
-0.168111893571427 -0.192273990103218 2.35343662466303
-0.122294954186393 -0.192113254921304 2.36291027462433
-0.0707191921935625 -0.195992429078816 2.36893993130732
-0.0257195296963915 -0.202220133606692 2.37057331382657
0.0206328647622599 -0.198989680853345 2.37187075128478
0.064487076370108 -0.190908369328932 2.3631708142563
0.100666550907661 -0.164884779565536 2.36332506733741
-0.298483177898311 -0.131653304397875 2.36940141280984
-0.332336968963992 -0.138997662893511 2.33590922233551
-0.264819272455296 -0.161320083589347 2.36337752969941
-0.230294727783469 -0.150064389369402 2.38170708410835
-0.187486896361383 -0.158360365133212 2.38286927172854
-0.142347159912861 -0.158608342107181 2.39053990988833
-0.0951001224645536 -0.161924754934384 2.39622834449881
-0.0464467486458275 -0.165996246044371 2.40159507769477
0.00186671488383353 -0.168830273802578 2.40308481238049
0.0533876316343272 -0.162357362903678 2.39568856767905
0.100488452985746 -0.13047078776205 2.38943459064367
-0.339986923471124 -0.100686573421929 2.35480640407087
-0.261370334866587 -0.113309416538268 2.39618773152475
-0.30511671082789 -0.0886137718819587 2.38660822578272
-0.211879602975225 -0.114037374818522 2.40534565129943
-0.165795749018024 -0.1187467450602 2.41016278928564
-0.119096039552618 -0.119782639861859 2.41668338410564
-0.073248435302577 -0.124363540610548 2.42153206040565
-0.0265316850914969 -0.128839175758563 2.42626681369779
0.0201422533785176 -0.130108098448797 2.42408610580733
0.0644164055907237 -0.123059943008264 2.41416694960448
0.045922337820299 -0.0851888835445213 2.43270180534702
-0.278391328855614 -0.0623526049658106 2.40585053117054
-0.235861011998718 -0.0716921313907262 2.41530211850867
-0.186800825835446 -0.0735730352749162 2.42138035667475
-0.141022464709031 -0.0747288675879082 2.42712497583043
-0.0947115158527005 -0.0761994108893425 2.43285762403391
-0.0500839141326182 -0.0829063843604114 2.43745369470048
-0.00233600736241769 -0.0871378817569472 2.44015356374311
-0.247249721220452 -0.358147800427286 2.04662233668157
-0.2711857602174 -0.342597031811013 2.01191979773152
-0.247747205590015 -0.333814996509285 1.97472773468121
-0.197591107754597 -0.364365444047632 2.04689357543105
-0.21933497678855 -0.353477836001975 2.00633892862604
-0.151518269912892 -0.366944684372014 2.04606652249378
-0.171187888550347 -0.353396058947139 2.0007340519373
-0.106080039763517 -0.369891726693379 2.0484225964418
-0.125865027641469 -0.354877838297409 2.00130976626887
-0.060714709624106 -0.373719790674048 2.0559067124552
-0.0782556654863748 -0.358661724762632 2.00723300122989
-0.0157594098599959 -0.377898510460569 2.06606430740011
-0.0324926425165668 -0.363654379026923 2.01617896261266
0.030300858863816 -0.376744098624882 2.07462184462783
0.0117664119052604 -0.368232339974318 2.02723722559786
0.0596590625948003 -0.361568364894593 2.03653021451782
-0.298914915473299 -0.338562916471285 2.05547537419677
-0.337578132378868 -0.307498495578233 2.04106369458986
-0.307981879680805 -0.321368879439187 2.00788298013429
0.0976938832489358 -0.350045196715039 2.12993557809462
0.0734160955455329 -0.365309622658589 2.08443399603594
0.112975746352832 -0.34381247749572 2.08748411404205
-0.375621118080152 -0.253350684868474 2.11005416102742
-0.3860811175829 -0.2384686943145 2.06116620810899
-0.363062352963551 -0.28145379258657 2.07196571323375
0.118683013945006 -0.323403701339907 2.16489187233185
0.139193082238815 -0.319489438533221 2.12066675178636
0.15619664995465 -0.289547760733602 2.14948137811531
-0.377852408092928 -0.226354251603063 2.14293944145537
-0.393862262446016 -0.20803188736009 2.09751988427852
0.132475623203136 -0.289048921924891 2.19488947495603
0.163358004796636 -0.251819227232706 2.18204901697198
-0.38169716443051 -0.189566691994875 2.17870724809456
-0.394483403343242 -0.180066197891467 2.13540176677571
0.140206835462852 -0.250157063719661 2.22492064064003
0.169652065898638 -0.211220891711079 2.20838839315514
-0.376190467248405 -0.172426289580249 2.21741764955475
-0.396847773738169 -0.14201551168238 2.17672014002119
0.148736315825021 -0.210452430708192 2.25243727234116
0.173945773327064 -0.170712781042993 2.23673955005607
-0.368324335214991 -0.156357854416622 2.25718710832936
-0.392310588714153 -0.126553251459008 2.22285129689854
0.125565124704889 -0.205790033317586 2.29199103739136
0.157905112258565 -0.166747851431898 2.27974597174707
-0.382231939087988 -0.117139004818469 2.27140568504116
-0.400688876408213 -0.0813728658193556 2.24196280531017
0.132862017221627 -0.167402097540531 2.32251343881025
0.162885126884713 -0.128191072937977 2.30748652306629
-0.366689516077209 -0.111616886024913 2.31321391522355
-0.3911384069293 -0.0726001703550535 2.2898244281099
0.136213097508877 -0.131640869330441 2.3526940592945
0.159730638124813 -0.0928751815994331 2.34092303796584
-0.369707614233285 -0.0674639379750072 2.3329889529232
-0.337619743130881 -0.0579147802433066 2.37099909215908
-0.357550150202818 -0.0236132751714705 2.35310403907858
0.0930934749865079 -0.084708751764406 2.41189695355902
0.116232155628504 -0.0445441036268196 2.3997110624906
0.129845237089128 -0.0910777519078389 2.38105244638959
-0.31223064712931 -0.0312468174990259 2.39155836639949
-0.259780866142051 -0.0214914059731538 2.41387410054268
-0.291859490703691 0.00741522380253629 2.39797395657338
-0.210148668225374 -0.0303470319790421 2.42215434685567
-0.162904903076895 -0.0275137321340427 2.42740564494125
-0.116287944960991 -0.0289744317749659 2.43269930289951
-0.0694569708122963 -0.0305003784458939 2.43799966628722
-0.0264546470456431 -0.0413342503848372 2.44332643908869
-0.00114097412267365 -0.00455003042356671 2.43922278681422
0.0242363400557968 -0.0447019101439782 2.44127992511896
0.0729321331955891 -0.0434441801962096 2.42635734357738
-0.258471812587401 0.0366897021159354 2.40160822795583
-0.226759813081648 0.0124584012146692 2.41499383698118
-0.182658146702041 0.0177869728925097 2.4178810194167
-0.13656472678381 0.0177613032661729 2.42222306263526
-0.0898715934795558 0.0156799685979767 2.42719917137907
-0.041458223556623 0.0138846928176024 2.43223050048554
0.014328499684032 0.0333225244440282 2.4253592915138
-0.33582054124122 -0.289300942373613 1.99244229232956
-0.319639576585703 -0.274480130817646 1.95388921710021
-0.288884107991794 -0.310669379812508 1.96650371264134
-0.240125269892867 -0.310232604835331 1.93950845085594
-0.198054975949861 -0.334508200849948 1.96476351493593
-0.147550033081244 -0.32976313690578 1.95813706694295
-0.0975443852293365 -0.335062429297586 1.96599525713263
-0.0454699792891418 -0.339207760714084 1.97230979190751
-0.000135009723841534 -0.344935344989113 1.98081824081937
0.0440001037519685 -0.348654993373068 1.9967082144939
0.0863614337509533 -0.330432307615427 1.99620091429147
0.0991923880603563 -0.345217064117135 2.04378945624954
0.125682544996049 -0.3184371609224 2.02657234152602
-0.365716898339114 -0.268178243940555 2.02636839372924
-0.383524854452297 -0.221516584008751 2.01454660729572
-0.360052119928365 -0.247488917861973 1.98370739418666
0.142381053296311 -0.316695480464182 2.0711733591683
0.158162112383672 -0.287166088178038 2.040524686158
0.168243541460386 -0.285169020256178 2.09574102950385
-0.397778004355542 -0.189455369372419 2.05182857891578
0.187886501599983 -0.242854864038795 2.09403787520518
-0.400818167060323 -0.159259350048465 2.08514234974281
0.18000859686132 -0.251668055015038 2.13635736942173
-0.401819055445064 -0.138099720409158 2.12840149571182
0.185548183337734 -0.210199594682868 2.16109054360843
-0.403976153062518 -0.0986653014031848 2.14485610094957
0.188048980709647 -0.170515315580516 2.18600044956232
-0.403864187041925 -0.0919717728330897 2.19225773843069
0.188616499430433 -0.133800419893431 2.21411837948591
-0.407111366653826 -0.0447448643581783 2.21178892783304
0.180842197004245 -0.122266770537951 2.25984337455787
-0.403231575672399 -0.034919711380144 2.26239337901966
0.180972864797643 -0.0840888934681501 2.29352579410236
-0.386361428428083 -0.0275330348705611 2.31056474827669
-0.392922829322377 0.0104043483708181 2.28245746151505
0.149422248534523 -0.0489021921544992 2.36566352737754
0.17367559093706 -0.0516085244760681 2.32451250622775
-0.369131181356289 0.0153007739087691 2.328696127521
-0.334254660523934 0.0101581880291282 2.36977968835865
-0.341354228199708 0.0522474335306701 2.34298894680624
0.0487235351350654 -0.00257593847772587 2.43006456474472
0.0951589383675581 -0.0021563081891051 2.40836869098825
0.13400493913121 -0.00343441544017846 2.37623806057855
-0.304513469874319 0.0479673953972217 2.37625755150476
-0.264041953402055 0.0746847322747717 2.3800045873475
-0.211497458804388 0.0586118773246271 2.39921151107899
-0.162458080402396 0.0607336756662851 2.40173645360183
-0.115106020849835 0.0596341591785941 2.40580612356682
-0.067729441433487 0.0564137414249124 2.4110882210951
-0.0217377407284422 0.057035085283289 2.41395597405992
0.0318629377517984 0.0685096455944261 2.40143528721279
0.0656703541331999 0.0365276947012821 2.40916119917728
-0.308460810861191 -0.241972850367915 1.9191742759129
-0.276953176313786 -0.281352936999468 1.92776453220235
-0.228524295676971 -0.277993932044437 1.90751082432015
-0.191154609413886 -0.306649567252612 1.9301860176471
-0.147529671045868 -0.29444369191028 1.92105205747016
-0.107274072518302 -0.302282688489913 1.92995980319015
-0.0602342062313951 -0.311223844807734 1.9402433413658
-0.00405401358651106 -0.312351474955507 1.94392566042226
0.0435360968137931 -0.322155645178426 1.96100023919677
0.0887581217619934 -0.298376736365655 1.9604834643345
0.126805738836406 -0.294485657170959 1.99268830657382
-0.37186282183218 -0.194950128662872 1.97101507083624
-0.344043998234426 -0.232135905544512 1.94910793358954
0.159542766815494 -0.258508916427826 2.00350948213832
0.179844599974869 -0.251605545109513 2.05180910065452
-0.390876871469526 -0.173816365140479 2.01118203931494
0.19635051902863 -0.204078220093938 2.06680344048842
-0.396183959267929 -0.133576240154416 2.04108146934639
0.195441309026632 -0.20244983244934 2.1165716138209
-0.400039011061416 -0.110845320878921 2.08913116780081
0.196120072040852 -0.160431765813412 2.13928572753791
-0.399180061069508 -0.0676843698528853 2.1099442712801
0.195847341066102 -0.121783473660797 2.16688859478936
-0.40400569479099 -0.052956423902142 2.16119284808237
0.192851536546401 -0.0915501514757426 2.21245043096762
-0.402870667477184 -0.00799347677731032 2.18073532755265
0.189822145849169 -0.0707093548835892 2.25215337041054
-0.404226111836689 0.00161484481465408 2.23225391771944
0.18496915085459 -0.0277120290011578 2.2882318273834
-0.389183261787476 0.0463240695958054 2.25198092288661
0.16379073461973 -0.0088235514307524 2.33615399084516
-0.370369784902387 0.0526883601368947 2.29964787283521
-0.337510077134069 0.0894639828446824 2.31248282452329
0.107940563162982 0.0379533096082367 2.3814409309117
0.143153955022472 0.0343151289129153 2.34512350878433
-0.303525478817654 0.0869063496500286 2.34934834140171
-0.25998572920906 0.113280755778005 2.34856870275626
-0.22432115899028 0.0944367530836831 2.37446532320307
-0.179421582798945 0.0983138126878301 2.37366305600046
-0.1353018418077 0.0987357910256367 2.37544950363416
-0.0885643716310376 0.0947876808047105 2.38123206899643
-0.0452571723372746 0.0945960175628017 2.38352223679203
-0.00263749615757045 0.0926663695792827 2.38678797621777
0.075033341524572 0.0749113345697175 2.37833365622363
-0.305098495726369 -0.206982422694439 1.89093673150547
-0.266582932460764 -0.246098749231171 1.8947504794789
-0.219690858106666 -0.24307937325472 1.87640245142457
-0.179986004684036 -0.269390345224219 1.8972914953641
-0.126160216202674 -0.260200910763402 1.89179439679758
-0.0802330651619766 -0.272670625453021 1.90507833171328
-0.0345412412347686 -0.28443011721963 1.91772244356805
0.00884616635374921 -0.272476013971515 1.90926808396598
0.0465314232770534 -0.289566622410875 1.93099799374023
0.0931108376950479 -0.263453920017077 1.92859185301915
0.129839115304187 -0.262412029945163 1.96129549553713
-0.366925036116508 -0.156939698840228 1.94141075451372
-0.342562497113668 -0.197525492115664 1.92483516922877
0.165435671401149 -0.224278745226373 1.97312156215252
0.185604644048774 -0.216822844185668 2.01957763029233
-0.386064957137737 -0.140900798485286 1.9860097738382
0.202599643339975 -0.169530556843617 2.03879160705532
-0.389530492930198 -0.0958782808608175 2.00842679891794
0.201829511610367 -0.159324802789444 2.09084012700839
-0.393860979545239 -0.0810435999953906 2.05541177360451
0.202272770404685 -0.113719166981596 2.11683634404478
-0.393084270788141 -0.0358124923860969 2.07828939981317
0.199668861694865 -0.0772933972713388 2.16305657548564
-0.397655493174987 -0.0198337319361733 2.12809091443245
0.19782280632454 -0.0468056243940139 2.19887815562318
-0.39666175575177 0.0262674564265181 2.14966311655651
0.194234288362481 -0.0282846551661339 2.24160064117465
-0.398007923097039 0.0373124857235138 2.20166079325756
0.19064983179632 0.0144000062538682 2.25777716785948
-0.382872788426393 0.0816587334525696 2.22116580471243
0.172520876310696 0.0219116595778987 2.30284918058734
-0.36424602760282 0.0881195144717756 2.26878219083993
-0.330430746143171 0.12544321480959 2.28185043811712
0.114733900523425 0.0752592544524798 2.34899065903633
0.150687543489189 0.0684989690936456 2.31317422470295
-0.297169869764252 0.122669173715345 2.31821712418437
-0.248535882708001 0.147607365714132 2.32047857412723
-0.208285209141583 0.128852539585493 2.34522386811082
-0.157319558724289 0.135511957100913 2.34182615933909
-0.104635511294796 0.128882573789827 2.35027268858853
-0.0562524060876132 0.130351775556955 2.35134179554212
-0.0101635231768347 0.128173176254155 2.35552631344916
0.0376603319622853 0.107285543664651 2.36812614179872
0.0789872438226622 0.112785930175514 2.34670546453782
-0.299518048547084 -0.172630185832219 1.86128706645102
-0.261619996809458 -0.210770584432204 1.86445205162104
-0.213678359664474 -0.209676267466036 1.84711743402398
-0.168809460580876 -0.236402921882444 1.86864512302517
-0.121576398822634 -0.22152462554167 1.85779200066622
-0.0795251080530156 -0.236067956131358 1.8727217600738
-0.0348921966987321 -0.249673504254959 1.88694706422861
0.0114641585364476 -0.235324815263657 1.8765188132947
0.0546329820690784 -0.252777424021712 1.89925781325835
0.100131674068391 -0.227621219148527 1.89764465711897
0.135984157045843 -0.228697698295775 1.93193936739617
-0.360411044168565 -0.120954766680384 1.90962803760101
-0.337159540483221 -0.16411240184418 1.89626899888413
0.171815035337344 -0.189824833500179 1.94346697393192
0.192222559415437 -0.18141885775458 1.98990972778832
-0.379634670379158 -0.107977935248858 1.95508566705211
0.208755325095984 -0.13519460101526 2.00997802400025
-0.383177357682774 -0.0631984116584762 1.97508107561726
0.207812896744396 -0.123757988497873 2.06256820927211
-0.387516833599598 -0.0434046878191306 2.02538450747174
0.209207252593003 -0.0784794164958391 2.08015199564548
-0.38754441525591 0.00101955205299319 2.05464984088922
0.20516909298966 -0.0636218939235479 2.12463134203267
-0.391485806235662 0.0161656589340185 2.09849257363358
0.204706471085924 -0.0213134000018544 2.156268700757
-0.390260233945877 0.0605316523871986 2.11693631204191
0.200823843593787 0.00177357376045166 2.20478580244554
-0.391997228384047 0.0714250010557787 2.17015994354246
0.1978417885716 0.0468495473685927 2.22427463443011
-0.37666918077642 0.116219145273576 2.19116768562327
0.1781035372706 0.0600252412282307 2.27194602261942
-0.357489053654589 0.1235601264186 2.23874442987315
-0.322067860729328 0.160793462953301 2.25352475680611
0.120214208069019 0.111209999173722 2.31830890160307
0.156152096120721 0.104989367958202 2.28259471788478
-0.28731539419246 0.157740700443274 2.29019478619881
-0.238930404486637 0.182034077586793 2.29148600311713
-0.197539105723476 0.162407901148831 2.31605441069932
-0.152661024863228 0.176549238324848 2.30573835645484
-0.115502925351474 0.160251088090521 2.32198057627276
-0.0678118325550655 0.163487740570494 2.32145152466069
-0.0174318773495005 0.164016845670731 2.32345026183155
0.0326625662290024 0.143572286708334 2.33907001731597
0.0803594671494413 0.147836484847343 2.31858628118661
-0.293229297714819 -0.138215318016036 1.83097840496351
-0.255971577707176 -0.175799436532245 1.83409341269891
-0.209688610427685 -0.175259397008694 1.8173699397606
-0.165417659881979 -0.20211634981402 1.8384696160565
-0.115702981441417 -0.1849677415696 1.82572762909093
-0.0736668199832757 -0.198690369273714 1.83992996917133
-0.0317144808027374 -0.213850206316666 1.85540078437649
0.0145749828756032 -0.198495250084782 1.84407845416189
0.058085709737593 -0.217863056940538 1.86780295671809
0.10340368714028 -0.193897897955908 1.86624701007024
0.142260266176389 -0.194489456371969 1.90220364476053
-0.355356904976023 -0.0843278002356223 1.88057769235217
-0.330920895107946 -0.130258781621175 1.8663034373563
0.177835810497953 -0.155515370277046 1.91324865020598
0.198466941213118 -0.146594122059284 1.95963094456116
-0.373634889771875 -0.0711825838498324 1.92476160683441
0.214716984035085 -0.101279421723656 1.97880062131317
-0.376243182197807 -0.0233228758017153 1.94143558800777
0.214320044976593 -0.0885129277597549 2.02956577212801
-0.380897873846679 -0.0169805257353239 1.98566290377856
0.215131986759695 -0.0404761356247164 2.05397083965334
-0.382208218542612 0.0131948810459747 2.01666247608789
0.210609148881034 -0.0262761124056314 2.10220148069304
-0.384518997184432 0.0517422713169212 2.06175599462845
0.211292971818063 0.017522327053122 2.12493664218727
-0.384268603926609 0.0941421210176997 2.08730933095794
0.206890070522286 0.0316056037470943 2.17205360128631
-0.38597652363223 0.105311314862146 2.14048011268196
0.204471294811384 0.0792264295681053 2.19263680689636
-0.369602961069358 0.151379744302837 2.16393652167541
0.18512139413444 0.0937680048681392 2.24023459017022
-0.350106546002308 0.158668739289774 2.2104625302901
-0.314935120727968 0.195483494886409 2.22432988344531
0.125012237331203 0.146366776450678 2.28879507440804
0.162528052908361 0.139393560825049 2.25208860724735
-0.279235009417477 0.192320202190891 2.26127984401012
-0.232690108646505 0.217174056455695 2.26069392558214
-0.190705929627934 0.199525470587324 2.2835419409004
-0.140132585668854 0.212773029218583 2.27429457143077
-0.100666423462957 0.195024949192393 2.2919335647445
-0.0523934992467453 0.198032613204559 2.29163536044244
-0.00431660054382055 0.199093410713432 2.29305059531832
0.0359857954791577 0.176523794827585 2.31068759936017
0.0875241845652639 0.180579917253759 2.28919134351704
-0.294427760643651 -0.101717644603709 1.80619879501712
-0.249519786444992 -0.139964766302052 1.80264949576729
-0.201649834551091 -0.141760055339776 1.78763800803467
-0.160285358731497 -0.169436336352855 1.80980032441756
-0.110464965641517 -0.15002344746815 1.79510931344112
-0.0668536865991542 -0.161055196739948 1.80695839772191
-0.0269965434749301 -0.17576101141023 1.82192352708515
0.0165176735281859 -0.161210231183491 1.8111885101127
0.0609051199807302 -0.183274635577419 1.83653184572906
0.107544441628385 -0.159738166269465 1.83505351059712
0.144648242563242 -0.16297825134309 1.87080450853986
-0.349934024019115 -0.0470904861828083 1.85140039314098
-0.328128970320206 -0.0942716202623944 1.83969317006496
0.178423438736508 -0.126765763287577 1.87924704058225
0.204423095619303 -0.111775381167431 1.92817015497483
-0.367469345402156 -0.03311367454795 1.89359058637966
0.221710158502531 -0.0634896076861417 1.95887999926269
-0.369943884487122 0.0147115412450163 1.91593282842636
0.220164872519976 -0.050465634555695 2.00410716083767
-0.375119556173099 0.0282934003390718 1.96549500659831
0.22130054258088 -0.00357768323572753 2.02370530390096
-0.378606010498682 0.0547855956317524 2.0128301082229
0.216860260999948 0.0096065730138867 2.07182496781943
-0.377680302198976 0.0973621942861252 2.03267927569079
0.21769553283604 0.0538019670033583 2.09305263625182
-0.378865539951849 0.132275070607927 2.06578533882743
0.213207891577046 0.0681494135419301 2.14153401333368
-0.379502068450339 0.140532111273146 2.11542193355273
0.210456253137679 0.11400627885105 2.16280781992582
-0.363231445519085 0.186159194892514 2.13427419709906
0.191554276045782 0.12744633235553 2.20976852926687
-0.343164071237679 0.193845671636476 2.18110728197198
-0.30879124385939 0.230098087358534 2.19399151343286
0.131808352340505 0.180859948560588 2.25797623743167
0.168883261598766 0.173860662483506 2.22150495307119
-0.273377129984034 0.226806297167809 2.23087137506172
-0.227102779439086 0.251858527342137 2.23006034427575
-0.183461610896685 0.234758065212231 2.25271704026606
-0.134820282986497 0.2466785943251 2.24452294789394
-0.087214975163304 0.231651989507419 2.26017855135443
-0.0372057329888845 0.232443246196425 2.26192691601672
0.00930534030302492 0.232729639859893 2.26395079074214
0.0483835871553221 0.209126679267461 2.2807486055769
0.0946020054419579 0.215109025507049 2.25843412145669
-0.257128674788578 -0.102205711977682 1.78065944227249
-0.215609947569671 -0.105871959125954 1.76701064851737
-0.16919891732075 -0.103187015581123 1.76077137929776
-0.154328179819196 -0.136969546179087 1.78223666631093
-0.117057614649443 -0.109246659606443 1.76760680759638
-0.0703142001450216 -0.121181840296316 1.77751024131242
-0.0234514763014299 -0.132383668739683 1.78748674187548
0.0244662310459561 -0.121654181921716 1.7848917584086
0.0639205600443057 -0.149451582957222 1.80739548812084
0.108362751924648 -0.123326521281342 1.80738998337231
0.148751777776259 -0.127390304038192 1.84015852789999
-0.337585382179046 -0.0100038642795753 1.82633870154779
-0.32095553137668 -0.0567453911253998 1.81167275062696
0.197496478908052 -0.0894076188153273 1.88227124398235
0.215243010716683 -0.0667934608937296 1.91576474483344
-0.357776519501777 0.0061475425752925 1.86585659328335
0.220751241616305 -0.0234661499818539 1.92672789504231
-0.354833934649443 0.0503896177710837 1.88725934945531
0.223618177226613 -0.0119993830312112 1.97215127977865
-0.36449891430486 0.0636999522391773 1.93223370904617
0.220146664280907 0.0314732477028227 1.99127107982808
-0.371408754251683 0.0807636809787511 1.97816114084256
0.220385166449831 0.0464523005205909 2.03898113673853
-0.365363922598026 0.126251768005449 1.99331284595883
0.217307467269177 0.0888071335843657 2.06132721220813
-0.368371862867033 0.153285427015881 2.02934326066427
0.217178278189203 0.104005303254896 2.10873684783051
-0.372277422049492 0.174427370917548 2.08407015518178
0.211271751650092 0.145502503914688 2.13119215441145
-0.354469134444798 0.215440151628589 2.09925129614472
0.195837288769185 0.161917647631769 2.17942543926046
-0.337009093054155 0.227033937383004 2.14874794639014
-0.301428137810564 0.259619646910652 2.16078653150357
0.136869231902152 0.215369438567691 2.22576448456859
0.168757301407715 0.20758599656235 2.18874230651599
-0.266000106618715 0.260578058507508 2.19976655909566
-0.217381155496534 0.283167178262207 2.19443654056973
-0.180122684998632 0.269087272695085 2.2195108384139
-0.138308372869767 0.277692136035329 2.20887864555045
-0.0941896674499362 0.267824813091921 2.22295055231565
-0.0495359287372299 0.263483764443473 2.22936199252899
0.000535197116663957 0.262848946025599 2.23102665414621
0.0524539733528839 0.245004326803892 2.24788554105981
0.0978155932078776 0.246022386053833 2.22528347194005
-0.282485775289632 -0.0615167722384171 1.77921218587714
-0.237103259816658 -0.0625505642867508 1.75687867517358
-0.189435918430248 -0.0640120882657751 1.74725611533692
-0.137578326197084 -0.0680327135990566 1.75023384831828
-0.087071579082457 -0.0746647557715275 1.75685390137862
-0.0409466315494425 -0.0846449840148563 1.7641240494024
0.00316527358478294 -0.0842414970227226 1.76810983322447
0.050204554367906 -0.0740323365433847 1.77017489731878
0.070639720637681 -0.109099515799641 1.78549777696121
0.102671958257036 -0.0735221115049734 1.78471192853376
0.139171877997476 -0.0909074069538727 1.81129785975867
-0.302426910242297 -0.0196394346762675 1.78778710159133
-0.277231691654821 0.0221601988626269 1.77407242688343
-0.259906566579923 -0.0209971634713309 1.76041897605535
0.149397527472033 -0.0498976439949083 1.80884228266295
0.175539517933654 -0.0836604616182085 1.84380400128261
0.178871782433123 -0.0362236837066835 1.8369228377416
-0.334507190097282 0.0441302300939448 1.83836021679615
-0.314732719043111 0.0219174218744823 1.80423807567732
0.203044924505674 -0.0423634972893371 1.87464278310888
0.208361077163256 -0.000272983218408664 1.89180769907623
-0.331252686951745 0.0817519030514233 1.86487761940569
0.214221137506254 0.0255035579390615 1.93520654325132
-0.341116011633538 0.101558416862286 1.90435023207424
0.209221635898637 0.0626897044294405 1.96290858936476
-0.353588070007234 0.112124914572655 1.94408356295726
0.211833669312172 0.0834512433211035 2.0052091943403
-0.34255462104125 0.151422161905964 1.95796599970086
0.206972455626829 0.120508897719627 2.03259216172853
-0.346392619211508 0.179638085222849 1.99459651522304
0.209382168401942 0.141087824245884 2.0746769633601
-0.359865979526734 0.194675666674722 2.04731090941375
0.201848224136496 0.176678670378166 2.10136367594134
-0.326042444532988 0.252378169750087 2.11129311643543
-0.337990027533309 0.23700930206046 2.06267972655785
-0.307089649943952 0.269991293328811 2.06903334653465
0.192399031940022 0.191806625677304 2.1457145683822
0.179055458663526 0.217908518184954 2.10233741816767
0.165822880541457 0.230390508857027 2.14767212722272
-0.258238584884379 0.285831677377383 2.16307473141779
-0.292056599695411 0.279599913792697 2.12176362659276
-0.250212452200325 0.301401914926898 2.1207667299312
0.133141086268474 0.246523055897132 2.18695100377357
0.100779303797567 0.278825256593316 2.15126513975868
0.0884684061758826 0.271564325972165 2.19007806187572
-0.211033727423828 0.303281508785871 2.15454259352953
-0.167054800486682 0.29755079186313 2.1742453243557
-0.114142709296052 0.295201229749467 2.17661552407481
-0.0696742846916691 0.290242067065731 2.18537358285976
-0.0258607830280226 0.286950881330104 2.19038535683942
0.0168778896432884 0.286120929664822 2.18978971220727
0.0500700934969059 0.271525509231788 2.21294056002593
-0.211079222353594 -0.021282943328029 1.74441928644346
-0.159796700108213 -0.025202918870629 1.74152122831819
-0.109029995971412 -0.0293019434786227 1.74724840828302
-0.0611602752214576 -0.0341793805496095 1.75287310266938
-0.0163328789436573 -0.0377784545070066 1.75809000966512
0.0277493552957442 -0.0336491169143323 1.76292581109904
0.0763432209059723 -0.0323015787367015 1.7707121174708
-0.2330201363682 0.0200024769142467 1.75330170433626
-0.205782893606774 0.0574565064033079 1.75770090742178
-0.18162256453335 0.0181445665648329 1.74397470269506
-0.130827481969248 0.0147750632339225 1.74714315888208
-0.0831569653150801 0.013638480162996 1.75310571134286
-0.03588992323304 0.010175933223769 1.75861740423237
0.0088861491441171 0.011612030210744 1.76474567527073
0.0558214638543633 0.0108129855708492 1.7708689010312
0.103974873841469 0.0119153193771921 1.78552243469353
0.151074322388225 0.00279816639973327 1.81289006608861
0.119867738450726 -0.0285324318998773 1.78812995231383
-0.29523541344407 0.0617950115443347 1.80247999220362
-0.263253834128074 0.100258899658577 1.80516001955231
-0.252670066840459 0.0625816807874374 1.77484943041027
0.127034075865654 0.0452616948923355 1.81021347476905
0.184987267029796 0.00554913354301582 1.85049147032455
0.163117653657338 0.0457416839164788 1.84211444278395
-0.30305625432925 0.0924186424242378 1.83377482630736
-0.269755822969721 0.130759368655998 1.84149846361697
0.193469784917221 0.041243950030887 1.8854367244399
0.165584353887067 0.0803140230932242 1.87656727777361
-0.307655086278051 0.124643075346862 1.87368104155664
-0.276760358140127 0.160667230031577 1.87970928355041
0.192436626573653 0.0712960158369812 1.9188595634968
0.163646116216576 0.112152491717141 1.9122657302389
-0.318754097983418 0.148616762815053 1.91411355384986
-0.281605646048094 0.188386821849984 1.91392101251154
0.191025211781241 0.103479496569065 1.95617662564337
0.162608094506318 0.143016755114386 1.94819867236552
-0.31561891692468 0.186403606020756 1.94947165909147
-0.279670385678664 0.221789659040407 1.94837625143007
0.190329239583353 0.131454512933754 1.99001158618857
0.161932736089381 0.173227158873186 1.98392802444107
-0.312841246226796 0.220782502122388 1.98214783650449
-0.27907243173249 0.25688209107438 1.98755483596319
0.18926308264037 0.163084634095808 2.02757310938248
0.160709703060359 0.203642137372923 2.01903982352728
-0.336391255312658 0.219587501766282 2.01853958359369
-0.307154634492839 0.256342531745067 2.02374699708762
0.18754807189804 0.191500851396232 2.06088545421873
0.157474227563884 0.23141096812286 2.05592655314774
-0.273896847482503 0.293050000038949 2.08039208636842
-0.268834533946093 0.286154966982766 2.03212915392732
-0.236333202578869 0.306898956624625 2.06650125741397
0.135303507881 0.260195243392323 2.1404298570888
0.14899800643332 0.250692414400009 2.09833835172794
0.109050886415513 0.278170468088747 2.09923874761961
-0.211812394949561 0.313164659345433 2.10654918063878
-0.186242028782544 0.315154289029468 2.07078385073949
-0.171283920927267 0.312935751211941 2.12512296473063
-0.142316604356196 0.313629053493199 2.08418833698568
-0.128820091234333 0.308928527426054 2.13425574017621
-0.098200271711679 0.310280073314292 2.08930441436582
-0.0820252594337059 0.305894026482126 2.13698585148755
-0.0533436205577413 0.306784177983377 2.09266761255939
-0.0377294155777556 0.302375940634992 2.14296676237649
-0.00977009259320798 0.303395178978726 2.09630605075049
0.00679076846102204 0.299578203660447 2.14491500516799
0.0344441455604338 0.300182158598347 2.10414315063044
0.0524982973533738 0.292497564371086 2.15970664743005
0.0721946603449873 0.29338420231987 2.11655072770807
-0.175033618538179 0.0903416055588774 1.7716169721056
-0.152496996188865 0.0563390099179995 1.75568900111846
-0.106779344272974 0.0586639019636844 1.76328132759151
-0.0580386162392054 0.0545016435597238 1.76874372969286
-0.0131421157228592 0.0562327410044863 1.77622767096885
0.032250559409756 0.055405981042199 1.78272391682854
0.0782847696784937 0.0513401846126812 1.78987108083445
-0.22008612275692 0.0982825055490624 1.78357479832805
-0.177531170850567 0.124942429933821 1.79924507037568
-0.131490978081282 0.10020942626618 1.78311717899635
-0.0805358471050381 0.0933171543425551 1.7868481473592
-0.0362336568881907 0.0964709618097544 1.79681552928477
0.00829271442684 0.096374154043746 1.80457643971927
0.0534873421763657 0.0934993479809584 1.81028636604832
0.0969353584954661 0.0836782157001832 1.81715471094784
0.131579630323503 0.0858769249525178 1.84227101919823
-0.225057442400103 0.131865355410987 1.81644939972725
-0.185221773288036 0.15637635204714 1.83451802112725
-0.139319387581961 0.140588385017096 1.8206372632031
-0.100105693774328 0.125036715168593 1.81099187814679
-0.0573303990108327 0.13004899087039 1.82523275818228
-0.0136254169165657 0.130605985469623 1.83473048876154
0.0344993291869521 0.126936471745362 1.84030043593359
0.0843603536475363 0.119164178182186 1.84614424997143
0.129152736279295 0.116585471418948 1.87489006167678
-0.231936922704337 0.162093237612462 1.85277169961806
-0.186939766836579 0.186612450713321 1.86868716752595
-0.140890530719409 0.172404262420769 1.85662740084212
-0.0942751374135953 0.156466327423544 1.84789023259557
-0.0473526190398196 0.1628713346694 1.86471323698371
0.00285335833996225 0.158969239145889 1.87043975388897
0.050667945839982 0.154888773469615 1.87549064698501
0.0927881466512517 0.146997543829918 1.88287726186545
0.127968609567769 0.149131330090894 1.91226480707038
-0.235449082333758 0.191475685078237 1.88681141378634
-0.189493337018765 0.215369731753506 1.9012606425555
-0.140538969636705 0.204476200355731 1.89329932326107
-0.097962785582946 0.187313434515955 1.88234499128009
-0.0601169671146294 0.19557598848401 1.89944772589734
-0.0153915837609339 0.189844029757279 1.90197457472939
0.0326290031743225 0.186280376504024 1.9076438165556
0.0817001731359183 0.179904061708575 1.91512152965718
0.126906641659163 0.1783531499317 1.94582747690388
-0.238696978510361 0.220051726678253 1.91986726800159
-0.195860430296123 0.243772807538473 1.93384787402967
-0.145856354952045 0.234760585335263 1.92678112888471
-0.0966120013979967 0.223063453879524 1.92341784362309
-0.0450616216380004 0.223165880626854 1.93398633539636
0.00311992827949446 0.2186106724824 1.93855726268835
0.049539114391453 0.215211175654049 1.94415330566686
0.0910564784385287 0.207958249237937 1.95272107118566
0.126083872993558 0.210359317842401 1.98293085493601
-0.243364030157321 0.250775448366883 1.95600447159462
-0.205563538355452 0.272574135083374 1.96825712057242
-0.158585371371345 0.266510562191615 1.96050354587428
-0.11196332236825 0.256798249804517 1.95880365386346
-0.0672967137868346 0.252475383897535 1.96292605524916
-0.0183094069332007 0.250287664553157 1.9703623784198
0.0305121390438738 0.246736921378811 1.97620838263792
0.0796226069034931 0.24099218995435 1.98479572771484
0.124486707326561 0.239011275261812 2.01627818740607
-0.239165383521813 0.283205905001611 1.99706959399665
-0.182655565736401 0.293490649829734 1.99796320391153
-0.13391066626696 0.287570703699902 1.99598303156197
-0.0892582468817602 0.282955710893403 1.99901650983685
-0.0443737388267238 0.27897115887806 2.00323510129542
0.0020139416670374 0.276014568484932 2.00959306965458
0.0471007253645446 0.273122081837565 2.01591112266235
0.0878157639033445 0.266211109330206 2.02547435003529
0.119717320130406 0.263790235117855 2.05863772096376
-0.214256547156431 0.303728801193324 2.02944092604874
-0.160103279259754 0.307253773160846 2.03520392663341
-0.114318938734352 0.303867437765562 2.04082828670765
-0.0692380304114826 0.300011674854359 2.04457849658946
-0.0234644499978756 0.296110954933615 2.04847482026942
0.0236939570061099 0.292982513648167 2.05545503208354
0.0706472527197038 0.287690936279288 2.06520268778021
3 0 1 2
3 0 2 4
3 3 0 4
3 3 4 6
3 5 3 6
3 5 6 8
3 7 5 8
3 7 8 10
3 9 7 10
3 9 10 12
3 11 9 12
3 13 11 14
3 14 11 12
3 13 14 15
3 16 17 18
3 16 18 1
3 0 19 1
3 19 16 1
3 0 3 20
3 19 0 20
3 3 5 21
3 20 3 21
3 5 7 22
3 21 5 22
3 7 9 23
3 22 7 23
3 9 11 24
3 23 9 24
3 24 11 25
3 25 11 13
3 13 15 26
3 27 13 26
3 25 13 27
3 27 26 28
3 17 16 30
3 30 16 29
3 29 19 31
3 29 16 19
3 31 20 32
3 31 19 20
3 32 21 33
3 32 20 21
3 21 22 33
3 33 22 34
3 22 23 34
3 34 23 35
3 23 24 35
3 35 24 36
3 24 25 36
3 36 25 37
3 37 27 38
3 37 25 27
3 38 28 39
3 38 27 28
3 30 40 41
3 30 29 40
3 29 31 42
3 40 29 42
3 31 32 43
3 42 31 43
3 32 33 44
3 43 32 44
3 33 34 45
3 44 33 45
3 34 35 46
3 45 34 46
3 35 36 47
3 46 35 47
3 36 37 47
3 47 37 48
3 37 38 48
3 48 38 49
3 49 39 50
3 49 38 39
3 40 51 52
3 41 40 52
3 51 42 53
3 51 40 42
3 42 43 53
3 53 43 54
3 43 44 54
3 54 44 55
3 44 45 55
3 55 45 56
3 45 46 56
3 56 46 57
3 46 47 58
3 57 46 58
3 47 48 59
3 58 47 59
3 48 49 60
3 59 48 60
3 49 50 61
3 60 49 61
3 51 62 63
3 52 51 63
3 51 53 64
3 62 51 64
3 53 54 65
3 64 53 65
3 54 55 66
3 65 54 66
3 55 56 67
3 66 55 67
3 56 57 67
3 67 57 68
3 57 58 69
3 68 57 69
3 58 59 69
3 69 59 70
3 59 60 70
3 70 60 71
3 71 61 72
3 71 60 61
3 62 73 74
3 63 62 74
3 62 64 75
3 73 62 75
3 64 65 75
3 75 65 76
3 65 66 76
3 76 66 77
3 66 67 77
3 77 67 78
3 67 68 78
3 78 68 79
3 79 69 80
3 79 68 69
3 80 70 81
3 80 69 70
3 81 71 82
3 81 70 71
3 82 72 83
3 82 71 72
3 74 73 85
3 85 73 84
3 84 73 86
3 86 73 75
3 75 76 86
3 86 76 87
3 76 77 88
3 87 76 88
3 77 78 89
3 88 77 89
3 78 79 90
3 89 78 90
3 79 80 91
3 90 79 91
3 80 81 92
3 91 80 92
3 81 82 93
3 92 81 93
3 93 83 94
3 93 82 83
3 84 95 85
3 84 86 96
3 97 84 96
3 95 84 97
3 96 87 98
3 96 86 87
3 87 88 98
3 98 88 99
3 88 89 99
3 99 89 100
3 89 90 100
3 100 90 101
3 101 91 102
3 101 90 91
3 102 92 103
3 102 91 92
3 92 93 103
3 105 103 104
3 103 93 104
3 93 94 104
3 96 106 97
3 96 98 107
3 106 96 107
3 98 99 108
3 107 98 108
3 99 100 109
3 108 99 109
3 100 101 110
3 109 100 110
3 101 102 111
3 110 101 111
3 111 102 112
3 112 102 103
3 103 105 112
3 117 114 115
3 116 113 117
3 117 113 114
3 116 117 119
3 118 116 119
3 118 119 121
3 120 118 121
3 120 121 123
3 122 120 123
3 122 123 125
3 124 122 125
3 124 125 127
3 126 124 127
3 126 127 128
3 129 130 131
3 114 129 131
3 114 113 129
3 113 2 129
3 129 2 1
3 4 113 116
3 4 2 113
3 6 116 118
3 6 4 116
3 8 118 120
3 8 6 118
3 10 120 122
3 10 8 120
3 12 122 124
3 12 10 122
3 14 124 126
3 14 12 124
3 133 126 128
3 15 14 126
3 15 126 133
3 132 15 133
3 132 133 134
3 135 136 137
3 137 17 135
3 137 18 17
3 18 137 130
3 129 18 130
3 18 129 1
3 15 132 26
3 139 132 134
3 139 138 132
3 138 28 26
3 132 138 26
3 138 139 140
3 136 135 142
3 142 135 141
3 17 30 135
3 135 30 141
3 143 39 28
3 138 143 28
3 143 140 144
3 143 138 140
3 141 145 146
3 142 141 146
3 41 145 141
3 30 41 141
3 147 39 143
3 147 50 39
3 147 144 148
3 147 143 144
3 145 149 150
3 146 145 150
3 52 149 145
3 41 52 145
3 151 50 147
3 151 155 50
3 151 148 152
3 151 147 148
3 149 153 154
3 150 149 154
3 63 153 149
3 52 63 149
3 155 61 50
3 155 72 61
3 155 151 156
3 156 151 152
3 154 157 158
3 154 153 157
3 74 157 153
3 63 74 153
3 159 72 155
3 159 83 72
3 159 156 160
3 159 155 156
3 158 157 162
3 162 157 161
3 74 85 161
3 157 74 161
3 163 83 159
3 163 94 83
3 163 160 164
3 163 159 160
3 161 165 162
3 165 95 166
3 165 161 95
3 161 85 95
3 165 166 167
3 95 97 166
3 105 104 168
3 170 94 163
3 170 168 94
3 169 168 170
3 94 168 104
3 163 164 170
3 166 171 167
3 173 171 172
3 172 171 106
3 171 97 106
3 171 166 97
3 172 107 174
3 172 106 107
3 174 108 175
3 174 107 108
3 175 109 176
3 175 108 109
3 176 110 177
3 176 109 110
3 177 111 178
3 177 110 111
3 178 112 180
3 178 111 112
3 181 105 168
3 181 180 105
3 179 178 180
3 180 112 105
3 168 169 181
3 172 182 173
3 182 172 183
3 183 172 174
3 174 175 184
3 183 174 184
3 175 176 185
3 184 175 185
3 176 177 186
3 185 176 186
3 177 178 187
3 186 177 187
3 187 179 188
3 187 178 179
3 179 180 229
3 189 190 191
3 114 131 191
3 115 114 191
3 115 191 192
3 115 192 193
3 117 115 193
3 119 193 194
3 119 117 193
3 119 194 121
3 121 194 195
3 121 195 123
3 123 195 196
3 123 196 125
3 125 196 197
3 127 197 198
3 127 125 197
3 128 198 199
3 200 128 199
3 128 127 198
3 200 199 201
3 202 203 204
3 131 130 189
3 190 189 204
3 189 130 202
3 189 202 204
3 131 189 191
3 128 200 133
3 134 200 205
3 206 205 201
3 134 133 200
3 205 200 201
3 205 206 207
3 136 208 203
3 202 137 136
3 202 136 203
3 137 202 130
3 134 205 139
3 139 205 207
3 140 139 207
3 211 207 209
3 136 142 208
3 208 142 210
3 211 140 207
3 211 144 140
3 146 212 210
3 142 146 210
3 148 144 213
3 213 144 211
3 150 214 212
3 146 150 212
3 215 148 213
3 215 152 148
3 154 216 150
3 150 216 214
3 219 152 217
3 217 152 215
3 158 218 216
3 154 158 216
3 219 156 152
3 219 160 156
3 158 220 218
3 158 162 220
3 221 160 219
3 221 164 160
3 162 165 222
3 223 220 222
3 220 162 222
3 165 167 222
3 169 170 224
3 225 164 221
3 224 170 164
3 224 164 225
3 222 226 223
3 167 171 227
3 226 167 227
3 226 227 228
3 226 222 167
3 171 173 227
3 180 181 229
3 181 169 230
3 231 169 224
3 230 169 231
3 230 229 181
3 224 225 271
3 227 232 228
3 232 182 233
3 232 173 182
3 227 173 232
3 182 183 234
3 233 182 234
3 183 184 234
3 234 184 235
3 184 185 235
3 235 185 236
3 185 186 236
3 236 186 237
3 186 187 237
3 237 187 238
3 238 188 239
3 238 187 188
3 188 179 229
3 240 239 188
3 240 188 229
3 229 230 240
3 191 190 242
3 242 190 241
3 192 242 243
3 192 191 242
3 192 243 244
3 193 192 244
3 194 244 245
3 194 193 244
3 194 245 246
3 195 194 246
3 195 246 247
3 196 195 247
3 196 247 248
3 197 196 248
3 197 248 249
3 198 197 249
3 199 198 249
3 250 199 249
3 201 199 251
3 251 199 250
3 204 252 253
3 204 203 252
3 190 253 241
3 190 204 253
3 206 251 254
3 206 201 251
3 207 206 255
3 255 206 254
3 203 256 252
3 203 208 256
3 257 209 255
3 255 209 207
3 210 258 208
3 208 258 256
3 211 209 259
3 259 209 257
3 212 260 210
3 210 260 258
3 213 211 259
3 261 213 259
3 214 262 260
3 212 214 260
3 215 213 261
3 263 215 261
3 216 264 214
3 214 264 262
3 217 215 263
3 265 217 263
3 218 266 264
3 216 218 264
3 219 217 265
3 267 219 265
3 218 268 266
3 218 220 268
3 221 219 267
3 269 221 267
3 223 270 268
3 220 223 268
3 225 221 269
3 271 225 269
3 223 226 272
3 270 223 272
3 272 228 273
3 272 226 228
3 274 231 275
3 274 230 231
3 275 231 271
3 271 231 224
3 273 228 276
3 276 228 232
3 276 233 277
3 276 232 233
3 233 234 278
3 277 233 278
3 234 235 279
3 278 234 279
3 235 236 280
3 279 235 280
3 236 237 281
3 280 236 281
3 237 238 282
3 281 237 282
3 238 239 283
3 282 238 283
3 327 239 284
3 284 239 240
3 240 230 274
3 284 240 274
3 241 285 286
3 242 241 286
3 242 286 243
3 243 286 287
3 243 287 288
3 244 243 288
3 245 288 289
3 245 244 288
3 245 289 246
3 246 289 290
3 246 290 247
3 247 290 291
3 247 291 248
3 248 291 292
3 248 292 293
3 249 248 293
3 249 293 250
3 250 293 294
3 250 294 295
3 251 250 295
3 252 296 297
3 253 252 297
3 241 297 285
3 241 253 297
3 254 295 298
3 254 251 295
3 254 298 299
3 255 254 299
3 256 300 252
3 252 300 296
3 257 255 299
3 301 257 299
3 258 302 300
3 256 258 300
3 259 257 303
3 303 257 301
3 260 304 258
3 258 304 302
3 261 259 303
3 305 261 303
3 262 306 304
3 260 262 304
3 263 261 305
3 307 263 305
3 264 308 262
3 262 308 306
3 265 263 307
3 309 265 307
3 266 310 308
3 264 266 308
3 267 265 309
3 311 267 309
3 266 312 310
3 266 268 312
3 269 267 311
3 313 269 311
3 270 314 312
3 268 270 312
3 271 269 315
3 315 269 313
3 270 272 316
3 314 270 316
3 316 273 317
3 316 272 273
3 318 275 319
3 318 274 275
3 275 271 315
3 319 275 315
3 273 276 320
3 317 273 320
3 276 277 320
3 320 277 321
3 277 278 322
3 321 277 322
3 322 279 323
3 322 278 279
3 279 280 323
3 323 280 324
3 280 281 324
3 324 281 325
3 281 282 325
3 325 282 326
3 282 283 326
3 326 283 327
3 283 239 327
3 327 284 328
3 284 274 318
3 328 284 318
3 285 329 330
3 286 285 330
3 286 330 287
3 287 330 331
3 287 331 332
3 288 287 332
3 288 332 289
3 289 332 333
3 289 333 334
3 290 289 334
3 290 334 335
3 291 290 335
3 291 335 292
3 292 335 336
3 292 336 337
3 293 292 337
3 293 337 294
3 294 337 338
3 294 338 339
3 295 294 339
3 296 340 341
3 297 296 341
3 285 341 329
3 285 297 341
3 298 339 342
3 298 295 339
3 298 342 343
3 299 298 343
3 300 344 296
3 296 344 340
3 301 299 343
3 345 301 343
3 302 346 344
3 300 302 344
3 303 301 347
3 347 301 345
3 304 348 302
3 302 348 346
3 305 303 347
3 349 305 347
3 306 350 348
3 304 306 348
3 307 305 351
3 351 305 349
3 308 352 306
3 306 352 350
3 309 307 353
3 353 307 351
3 310 354 352
3 308 310 352
3 311 309 355
3 355 309 353
3 312 356 310
3 310 356 354
3 313 311 355
3 357 313 355
3 314 358 356
3 312 314 356
3 315 313 359
3 359 313 357
3 314 316 360
3 358 314 360
3 360 317 361
3 360 316 317
3 362 319 363
3 362 318 319
3 319 315 359
3 363 319 359
3 317 320 364
3 361 317 364
3 320 321 364
3 364 321 365
3 321 322 366
3 365 321 366
3 322 323 366
3 366 323 367
3 323 324 368
3 367 323 368
3 324 325 369
3 368 324 369
3 325 326 370
3 369 325 370
3 326 327 371
3 370 326 371
3 327 328 371
3 371 328 372
3 328 318 362
3 372 328 362
3 329 373 374
3 330 329 374
3 330 374 331
3 331 374 375
3 331 375 376
3 332 331 376
3 332 376 333
3 333 376 377
3 333 377 378
3 334 333 378
3 334 378 379
3 335 334 379
3 335 379 336
3 336 379 380
3 336 380 381
3 337 336 381
3 337 381 338
3 338 381 382
3 338 382 383
3 339 338 383
3 340 384 385
3 341 340 385
3 329 385 373
3 329 341 385
3 342 383 386
3 342 339 383
3 342 386 387
3 343 342 387
3 344 388 340
3 340 388 384
3 345 343 387
3 389 345 387
3 346 390 388
3 344 346 388
3 347 345 391
3 391 345 389
3 348 392 346
3 346 392 390
3 349 347 391
3 393 349 391
3 350 394 348
3 348 394 392
3 351 349 395
3 395 349 393
3 352 396 350
3 350 396 394
3 353 351 395
3 397 353 395
3 354 398 396
3 352 354 396
3 355 353 399
3 399 353 397
3 356 400 354
3 354 400 398
3 357 355 399
3 401 357 399
3 358 402 400
3 356 358 400
3 359 357 403
3 403 357 401
3 358 360 404
3 402 358 404
3 404 361 405
3 404 360 361
3 406 363 407
3 406 362 363
3 363 359 403
3 407 363 403
3 361 364 408
3 405 361 408
3 364 365 408
3 408 365 409
3 365 366 410
3 409 365 410
3 366 367 410
3 410 367 411
3 367 368 412
3 411 367 412
3 368 369 412
3 412 369 413
3 369 370 413
3 413 370 414
3 370 371 415
3 414 370 415
3 371 372 415
3 415 372 416
3 372 362 406
3 416 372 406
3 373 417 418
3 374 373 418
3 374 418 375
3 375 418 419
3 375 419 420
3 376 375 420
3 376 420 377
3 377 420 421
3 377 421 422
3 378 377 422
3 378 422 423
3 379 378 423
3 380 423 424
3 380 379 423
3 380 424 425
3 381 380 425
3 382 425 426
3 382 381 425
3 382 426 427
3 383 382 427
3 384 428 429
3 385 384 429
3 373 429 417
3 373 385 429
3 386 427 430
3 386 383 427
3 386 430 431
3 387 386 431
3 384 432 428
3 384 388 432
3 389 387 431
3 433 389 431
3 390 434 432
3 388 390 432
3 435 389 433
3 435 391 389
3 390 436 434
3 390 392 436
3 393 391 435
3 437 393 435
3 394 438 436
3 392 394 436
3 395 393 439
3 439 393 437
3 396 440 438
3 394 396 438
3 397 395 439
3 441 397 439
3 398 442 440
3 396 398 440
3 399 397 443
3 443 397 441
3 400 444 398
3 398 444 442
3 401 399 443
3 445 401 443
3 402 446 444
3 400 402 444
3 403 401 447
3 447 401 445
3 402 404 448
3 446 402 448
3 448 405 449
3 448 404 405
3 450 407 451
3 450 406 407
3 407 403 447
3 451 407 447
3 405 408 452
3 449 405 452
3 408 409 452
3 452 409 453
3 409 410 454
3 453 409 454
3 410 411 454
3 454 411 455
3 411 412 456
3 455 411 456
3 412 413 456
3 456 413 457
3 457 414 458
3 457 413 414
3 414 415 459
3 458 414 459
3 415 416 459
3 459 416 460
3 416 406 450
3 460 416 450
3 418 461 462
3 418 417 461
3 419 462 463
3 419 418 462
3 419 463 464
3 420 419 464
3 420 464 421
3 421 464 465
3 421 465 466
3 422 421 466
3 422 466 467
3 423 422 467
3 424 467 468
3 424 423 467
3 424 468 469
3 425 424 469
3 426 469 470
3 426 425 469
3 427 426 471
3 471 426 470
3 429 428 473
3 473 428 472
3 417 473 505
3 417 429 473
3 430 427 471
3 520 430 471
3 431 474 475
3 431 430 474
3 428 476 472
3 428 432 476
3 433 431 475
3 477 433 475
3 434 478 476
3 432 434 476
3 479 433 477
3 479 435 433
3 434 480 478
3 434 436 480
3 437 435 479
3 481 437 479
3 438 482 436
3 436 482 480
3 439 437 483
3 483 437 481
3 440 484 482
3 438 440 482
3 441 439 483
3 485 441 483
3 442 486 440
3 440 486 484
3 443 441 487
3 487 441 485
3 444 488 442
3 442 488 486
3 445 443 487
3 489 445 487
3 444 446 488
3 488 446 490
3 491 445 489
3 491 447 445
3 490 446 492
3 492 446 448
3 492 449 493
3 492 448 449
3 494 451 495
3 494 450 451
3 451 447 491
3 495 451 491
3 449 452 496
3 493 449 496
3 496 453 497
3 496 452 453
3 453 454 498
3 497 453 498
3 498 455 499
3 498 454 455
3 455 456 500
3 499 455 500
3 456 457 501
3 500 456 501
3 457 458 502
3 501 457 502
3 458 459 503
3 502 458 503
3 503 460 504
3 503 459 460
3 504 460 494
3 494 460 450
3 461 505 506
3 462 461 506
3 507 463 462
3 507 462 506
3 465 463 508
3 508 463 507
3 464 463 465
3 465 508 509
3 465 509 466
3 466 509 510
3 466 510 467
3 467 510 511
3 467 511 468
3 468 511 512
3 468 512 513
3 469 468 513
3 469 513 470
3 515 470 514
3 470 513 514
3 470 515 471
3 472 516 473
3 518 516 517
3 518 505 516
3 461 417 505
3 505 473 516
3 505 518 506
3 515 514 519
3 474 430 520
3 521 520 519
3 520 471 515
3 520 515 519
3 474 520 524
3 476 522 472
3 516 472 523
3 472 522 523
3 516 523 517
3 520 521 524
3 477 475 524
3 524 475 474
3 525 477 524
3 478 526 522
3 476 478 522
3 527 477 525
3 527 479 477
3 478 528 526
3 478 480 528
3 481 479 527
3 529 481 527
3 482 530 480
3 480 530 528
3 483 481 531
3 531 481 529
3 484 532 530
3 482 484 530
3 485 483 531
3 533 485 531
3 486 534 484
3 484 534 532
3 535 485 533
3 535 487 485
3 486 536 534
3 486 488 536
3 537 489 535
3 535 489 487
3 490 538 539
3 536 490 539
3 488 490 536
3 538 540 539
3 541 542 543
3 541 489 537
3 542 541 537
3 541 491 489
3 490 492 538
3 545 493 544
3 538 492 493
3 538 493 545
3 540 538 545
3 544 546 545
3 547 548 549
3 543 495 541
3 547 494 495
3 547 495 543
3 608 547 543
3 495 491 541
3 493 496 544
3 544 497 550
3 546 544 550
3 544 496 497
3 550 497 551
3 551 497 498
3 498 499 551
3 551 499 552
3 499 500 552
3 552 500 553
3 500 501 553
3 553 501 554
3 554 502 555
3 554 501 502
3 502 503 556
3 555 502 556
3 503 504 556
3 549 504 547
3 556 504 549
3 504 494 547
3 506 557 507
3 507 557 558
3 508 507 558
3 508 558 559
3 509 508 559
3 509 559 560
3 510 509 560
3 510 560 561
3 511 510 561
3 511 561 562
3 512 511 562
3 514 512 563
3 563 512 562
3 513 512 514
3 517 564 518
3 518 564 557
3 566 564 565
3 557 564 566
3 557 506 518
3 558 566 567
3 558 557 566
3 559 567 568
3 559 558 567
3 560 568 569
3 560 559 568
3 561 569 570
3 561 560 569
3 562 570 571
3 562 561 570
3 563 562 571
3 572 563 571
3 574 514 563
3 572 574 563
3 573 519 574
3 574 519 514
3 519 573 521
3 522 575 523
3 577 575 576
3 577 517 575
3 564 517 577
3 575 517 523
3 564 577 565
3 573 574 572
3 521 573 579
3 580 573 578
3 579 573 580
3 579 524 521
3 524 579 525
3 522 581 575
3 522 526 581
3 576 581 582
3 576 575 581
3 583 580 584
3 583 579 580
3 583 525 579
3 583 527 525
3 526 585 581
3 526 528 585
3 582 585 586
3 582 581 585
3 587 584 588
3 587 583 584
3 587 527 583
3 587 529 527
3 528 589 585
3 528 530 589
3 586 589 590
3 586 585 589
3 591 588 592
3 591 587 588
3 591 529 587
3 591 531 529
3 532 593 589
3 530 532 589
3 590 593 594
3 590 589 593
3 595 592 596
3 595 591 592
3 595 531 591
3 595 533 531
3 534 597 593
3 532 534 593
3 594 597 598
3 594 593 597
3 599 596 600
3 599 595 596
3 599 533 595
3 599 535 533
3 534 601 597
3 534 536 601
3 602 597 601
3 602 598 597
3 603 599 600
3 604 603 600
3 603 535 599
3 603 537 535
3 536 539 601
3 606 540 605
3 606 602 540
3 602 601 539
3 540 602 539
3 605 607 606
3 608 609 610
3 608 543 609
3 604 542 603
3 609 543 542
3 609 542 604
3 542 537 603
3 540 545 605
3 605 546 607
3 612 607 611
3 605 545 546
3 607 546 611
3 612 613 614
3 612 611 613
3 614 615 616
3 614 613 615
3 616 617 618
3 616 615 617
3 618 619 620
3 618 617 619
3 620 621 622
3 620 619 621
3 622 623 624
3 622 621 623
3 610 548 608
3 624 623 548
3 624 548 610
3 548 623 549
3 548 547 608
3 546 550 611
3 611 550 613
3 613 550 551
3 551 552 615
3 613 551 615
3 552 553 617
3 615 552 617
3 553 554 619
3 617 553 619
3 554 555 621
3 619 554 621
3 621 555 623
3 623 555 556
3 556 549 623
3 565 625 626
3 567 566 626
3 626 566 565
3 567 626 627
3 568 567 627
3 568 627 628
3 569 568 628
3 569 628 629
3 570 569 629
3 570 629 630
3 571 570 630
3 572 571 631
3 631 571 630
3 572 631 578
3 576 632 577
3 625 632 633
3 565 577 632
3 565 632 625
3 625 633 634
3 626 625 634
3 626 634 627
3 627 634 635
3 627 635 628
3 628 635 636
3 628 636 629
3 629 636 637
3 629 637 630
3 630 637 638
3 631 638 639
3 631 630 638
3 640 578 639
3 578 573 572
3 578 631 639
3 578 640 580
3 576 641 632
3 576 582 641
3 633 641 642
3 633 632 641
3 633 642 643
3 634 633 643
3 634 643 644
3 635 634 644
3 635 644 645
3 636 635 645
3 636 645 646
3 637 636 646
3 637 646 647
3 638 637 647
3 638 647 648
3 639 638 648
3 640 648 649
3 640 639 648
3 584 580 640
3 649 584 640
3 582 650 641
3 582 586 650
3 642 650 651
3 642 641 650
3 642 651 652
3 643 642 652
3 643 652 653
3 644 643 653
3 644 653 645
3 645 653 654
3 645 654 646
3 646 654 655
3 646 655 647
3 647 655 656
3 647 656 648
3 648 656 657
3 648 657 649
3 649 657 658
3 588 584 649
3 658 588 649
3 586 659 650
3 586 590 659
3 650 659 651
3 651 659 660
3 651 660 661
3 652 651 661
3 652 661 662
3 653 652 662
3 653 662 654
3 654 662 663
3 654 663 664
3 655 654 664
3 655 664 665
3 656 655 665
3 656 665 666
3 657 656 666
3 657 666 658
3 658 666 667
3 592 588 658
3 667 592 658
3 590 668 659
3 590 594 668
3 660 668 669
3 660 659 668
3 660 669 670
3 661 660 670
3 661 670 671
3 662 661 671
3 662 671 663
3 663 671 672
3 663 672 664
3 664 672 673
3 664 673 665
3 665 673 674
3 665 674 666
3 666 674 675
3 666 675 667
3 667 675 676
3 596 592 667
3 676 596 667
3 594 677 668
3 594 598 677
3 668 677 669
3 669 677 678
3 669 678 679
3 670 669 679
3 670 679 680
3 671 670 680
3 671 680 681
3 672 671 681
3 672 681 682
3 673 672 682
3 673 682 683
3 674 673 683
3 674 683 684
3 675 674 684
3 676 684 685
3 676 675 684
3 600 596 676
3 685 600 676
3 598 686 677
3 598 602 606
3 678 686 687
3 678 677 686
3 678 687 679
3 679 687 688
3 679 688 680
3 680 688 689
3 680 689 681
3 681 689 690
3 681 690 682
3 682 690 691
3 683 691 692
3 683 682 691
3 684 692 693
3 684 683 692
3 685 693 694
3 685 684 693
3 694 604 685
3 685 604 600
3 598 606 686
3 606 607 695
3 686 606 695
3 686 695 687
3 688 687 696
3 696 687 695
3 688 696 697
3 689 688 697
3 689 697 698
3 690 689 698
3 690 698 699
3 691 690 699
3 691 699 700
3 692 691 700
3 692 700 701
3 693 692 701
3 610 609 694
3 701 610 694
3 701 694 693
3 609 604 694
3 607 612 695
3 695 612 696
3 696 612 614
3 614 616 697
3 696 614 697
3 616 618 698
3 697 616 698
3 618 620 699
3 698 618 699
3 620 622 700
3 699 620 700
3 622 624 701
3 700 622 701
3 624 610 701
