OFF
702 1400 0
-0.260735130320853 -0.326710949650356 2.20758022272772
-0.306146725092479 -0.313060495172285 2.1897077666335
-0.278045826258486 -0.332655932166628 2.16234497113081
-0.213861910649151 -0.333296647184684 2.21230597003314
-0.232106014052541 -0.343371139812423 2.16763520558591
-0.167050926921601 -0.337943685869553 2.21545915333266
-0.185713736242828 -0.347600150864547 2.16976551193651
-0.121670506380705 -0.341933212832462 2.21981076948573
-0.140386027828286 -0.351621729862113 2.1715965709887
-0.0767752370551907 -0.345725159107406 2.22451779972119
-0.0956245261088128 -0.355215925500115 2.1762223798405
-0.0292720294985408 -0.3487304454907 2.23212323958908
-0.0498343827471416 -0.358432913880937 2.18469660928483
0.0188368023831274 -0.344245493988419 2.24041333162739
-0.00251427928017811 -0.359955664321215 2.19368279173193
0.0440102793185188 -0.35101787211562 2.20236980547003
-0.328735746389888 -0.284320183368941 2.21778303652129
-0.358459939586893 -0.267112897323042 2.19025016330177
-0.337295505496774 -0.29728816822892 2.16196203744653
-0.288296204560894 -0.30018330670412 2.23757285644755
-0.241602515032965 -0.309133417425187 2.249601103134
-0.193904903052287 -0.314408972736094 2.25343795242766
-0.147134693921657 -0.318297036492771 2.25879870826067
-0.101915150954634 -0.321633067859279 2.26460589403135
-0.0576180008907813 -0.326977395581586 2.26718046320251
-0.00896736866233806 -0.327719357440112 2.27441643897453
0.0648043014323743 -0.328045176590361 2.24595375411667
0.0362301680644089 -0.315530476638139 2.28206655064886
0.0823340479940932 -0.295387730614986 2.27960979871266
-0.315769560816269 -0.263226984438921 2.25920981070863
-0.355895045913279 -0.242923837630782 2.23110258572257
-0.269804255256334 -0.276579862418525 2.276821022491
-0.21986022670081 -0.282879039161135 2.28490254759523
-0.172261097565534 -0.287170110684949 2.29012834282093
-0.124637237111886 -0.289547845967951 2.29730851513191
-0.0799312232006149 -0.29223012171137 2.30358914941528
-0.0376917762632918 -0.301579943341179 2.30258329509194
0.00365504289391229 -0.293253929007814 2.31315459519657
0.0493187509892485 -0.279831941329184 2.31445895240938
0.0941389343358658 -0.257568945184604 2.30776358554549
-0.333998075194068 -0.225849110726686 2.27964025635552
-0.367142947349171 -0.204519782705858 2.2530401727278
-0.293033828176085 -0.240637795869251 2.30087839290287
-0.244026840496809 -0.251178571688059 2.31213325468527
-0.195260585980448 -0.253281744952484 2.32000355923244
-0.147809749146731 -0.258000413661025 2.324764785797
-0.0963075771680758 -0.258762670474785 2.33437115967224
-0.041459729826609 -0.26812828578885 2.33589029620201
0.00898603686382315 -0.260760255309511 2.34512992302727
0.059469525298275 -0.245243661875791 2.34367846834276
0.104230448706119 -0.219199681878194 2.33558072479521
-0.318058212930289 -0.20145730531229 2.3220207685591
-0.358526677745051 -0.183797500293181 2.29084251799523
-0.26882954252979 -0.218566616860533 2.33700600152173
-0.22141843413457 -0.220777572325561 2.34783302316521
-0.175872073729588 -0.221746990924893 2.35602812191012
-0.131930641536846 -0.229566209657955 2.35692392448611
-0.0984033992788583 -0.217504865647296 2.37596582523763
-0.0635814152572318 -0.23684927430274 2.36328588152448
-0.0212597010899012 -0.233278631640008 2.37408587573345
0.0266478263743485 -0.226737357896374 2.37535814892462
0.0747047454363408 -0.207959443291545 2.37103145037227
-0.321196961715797 -0.160689148350363 2.36195581732568
-0.349250044519203 -0.163101220253687 2.32712044640246
-0.28831488525071 -0.187043792589087 2.35948614338071
-0.241238347646139 -0.189304445070783 2.37588333751636
-0.196488976874299 -0.188002022577935 2.38623896850508
-0.147578341958431 -0.192935763707773 2.39107440701575
-0.102137257385715 -0.18704975261805 2.40623008754507
-0.0547313328587679 -0.200441146718518 2.40214894863647
-0.00670508239571947 -0.200219009277264 2.40751784595508
0.0410671090756716 -0.192930959179313 2.40399499117656
0.0885404749789722 -0.170816827586083 2.39674644561978
-0.310567158342557 -0.136016153333436 2.39708330471293
-0.354685298737544 -0.123504276806325 2.3618636827976
-0.271906952577376 -0.160485163908366 2.39542810512443
-0.225928836886686 -0.154127335903385 2.41480123077809
-0.175891043159537 -0.15859988218502 2.42033461651179
-0.130086760351765 -0.158308627216007 2.42986617782191
-0.0785550570521859 -0.162294063652722 2.43619577721311
-0.0336142172676538 -0.168813181579534 2.43825584709478
0.0127631470999532 -0.165920004319615 2.43945302738902
0.0566981392069802 -0.15872219279188 2.4303923235661
0.0931054799354183 -0.13304778994217 2.42915297882222
-0.305743182761182 -0.0960436405231147 2.43264527218126
-0.33961707748091 -0.1049573775083 2.39955675236735
-0.272334455173687 -0.126294212585804 2.42835303548408
-0.237735726640157 -0.114330976375557 2.44608482516366
-0.195004261532628 -0.122922300747398 2.44778640099267
-0.149878427036915 -0.123134223418721 2.45553947385747
-0.10266987194561 -0.126539124250365 2.46148912985743
-0.0540612792962893 -0.130728196641401 2.46716240423428
-0.00577665535996343 -0.133896088275175 2.46889484035843
0.0458088664815252 -0.128297983338838 2.46123957867362
0.0931971149971252 -0.0972245090469946 2.45329310945402
-0.346953304486491 -0.0655821870844029 2.41626420610526
-0.268504686361591 -0.0765523223430539 2.4584280399051
-0.312019141795296 -0.0520512186940189 2.44740192121866
-0.219034186015277 -0.0771981054570332 2.46770071592959
-0.172999925738201 -0.0820323896319513 2.47285640785778
-0.126319641306196 -0.0831090308224655 2.47950817364546
-0.0805205291686609 -0.0878112218409658 2.48468773502061
-0.0338512298981927 -0.0924222906980011 2.4897492070001
0.0128124844884443 -0.0942189630881012 2.48772635951079
0.0571598661202503 -0.0881246345216386 2.47750698522824
0.0389765446574617 -0.0491143714529558 2.49385797177013
-0.285088112982338 -0.0249874054000124 2.4651904271442
-0.242654076742269 -0.0341536561103315 2.475226338926
-0.193620289365133 -0.0361193484114392 2.48148799958681
-0.147861370691493 -0.0373511723155079 2.4873700839698
-0.101572645407931 -0.0389025224223309 2.49325879872507
-0.0570119105035211 -0.0457308657265601 2.49830308524533
-0.00930671048440192 -0.05022122537254 2.50132103577269
-0.256091714195569 -0.340708875798748 2.12315438359519
-0.279844772337125 -0.32691877085817 2.08759244028986
-0.256281592343732 -0.320439720745218 2.05000869381305
-0.206490257878848 -0.347334966031729 2.1238622066556
-0.228084788101501 -0.338547599932585 2.08272252157535
-0.160440926911506 -0.3503587417072 2.12326322241153
-0.179931641487353 -0.339200494684099 2.07720784700654
-0.115033539413231 -0.353565809539948 2.12586183328998
-0.134624393572253 -0.341043418236483 2.07794660078128
-0.0697134518368489 -0.357364479245209 2.13362965251672
-0.087057954544644 -0.344905046619034 2.08415752490477
-0.0248099288988391 -0.36135984332341 2.14408566058091
-0.0413523513740794 -0.349787986209001 2.09345084684989
0.0212476218288842 -0.360129973106228 2.1526473137631
0.00285026795740219 -0.354125397126493 2.10482723097531
0.0507877655938453 -0.347369620018821 2.11381778118247
-0.307593587546546 -0.320208231622455 2.1308040162463
-0.345962669047451 -0.289663777601962 2.11460559010773
-0.316446996693222 -0.3056296718546 2.08230697032001
0.0888018800687785 -0.330962897824091 2.20649862871588
0.0644492949250412 -0.348540560932092 2.16188041492959
0.10419301301406 -0.327252556782655 2.16379200949805
-0.383615850214787 -0.231404816159856 2.18038605821694
-0.393880953550491 -0.21919501704756 2.13072253405539
-0.37125615943433 -0.261706762096489 2.14395437947076
0.109979913794281 -0.302588695050729 2.23994486758511
0.130580891889557 -0.301338127233457 2.19560660618874
0.147810569542621 -0.269978415784182 2.22272882550778
-0.38565150573064 -0.202589525186894 2.21170319163882
-0.401440388991982 -0.186702062723437 2.16529995528798
0.124036149679631 -0.266728653158592 2.26799522819294
0.155262243389393 -0.230548121627947 2.25314432819364
-0.389217943696979 -0.163823246338398 2.24534689579685
-0.40186387448269 -0.156653137080491 2.20155440815579
0.13207119859849 -0.226284021960614 2.29581408845233
0.16188002299991 -0.188594089993686 2.27717903253254
-0.383610374798069 -0.14458926793509 2.28304598777299
-0.403946025333645 -0.116327649927127 2.24067182971803
0.14091490431074 -0.185175804605072 2.32107825820169
0.166494130495997 -0.146599933368444 2.30322383762586
-0.375654288368131 -0.126386788204723 2.32186674141566
-0.399332328311651 -0.0983448020468863 2.28587229604201
0.117734589297475 -0.178102051348095 2.3602672539498
0.15043344532049 -0.140091314173412 2.34591186930767
-0.389233858879131 -0.0863128321277343 2.33384091537783
-0.407336556237048 -0.0520930011998992 2.30240759037652
0.12533025621104 -0.138129210844642 2.38860403408135
0.15571741369359 -0.100085559370247 2.37145757661558
-0.373697431865463 -0.078592480047117 2.37530179355715
-0.397771007750202 -0.0407357585769422 2.3497195329719
0.12895754470561 -0.100763545191059 2.41673968483696
0.152831252681889 -0.0629252488460884 2.40285733625419
-0.376351602459892 -0.0333760891752934 2.39256670679128
-0.344229957251279 -0.0219925037162373 2.43003939632897
-0.363833919429247 0.0114250349490836 2.41021516677329
0.0861769530182148 -0.050212805870836 2.47314315923398
0.109684690179311 -0.0109977408110934 2.45876754067598
0.122910983638952 -0.0586209608790169 2.44276958969214
-0.318633277258314 0.00556292030961973 2.44911762397446
-0.266128411600268 0.0160951303119613 2.47094538622113
-0.297930266658676 0.0443443544694627 2.45339348243996
-0.216586993775757 0.0072843429552767 2.47979736945047
-0.169326910894088 0.00999478883521461 2.48496603602414
-0.122731533868155 0.00842599413026939 2.49041644564038
-0.0759227334004324 0.00679056423419549 2.4958775877213
-0.0330245522992334 -0.00410289493472402 2.50187973271653
-0.00738217563002828 0.0321711017064098 2.49576691639068
0.0176373687281861 -0.00802248610055487 2.50011562163606
0.0663616215306484 -0.00802825775794267 2.48523298915622
-0.264290443100409 0.0734838065180048 2.45544157039691
-0.232810714131263 0.0497646782125715 2.47022030516885
-0.188667541360293 0.0548613384008254 2.47288316615617
-0.14258179525502 0.054676509288763 2.47730212554946
-0.0959153087234999 0.0524696184695351 2.48247039196244
-0.047526202573172 0.0505363982337081 2.48768083728814
0.00843861526121249 0.0690707260922201 2.47983105024661
-0.343981771803627 -0.274235508039914 2.06504426071242
-0.32762087684647 -0.261740291401214 2.02575036348457
-0.297202100928232 -0.297432979391168 2.04042742670198
-0.248406429866908 -0.298935463822383 2.01353720077862
-0.206584561550113 -0.32212413156068 2.04018770687167
-0.156031206894204 -0.318199082466881 2.03339601918412
-0.106084444616204 -0.323486172717085 2.04162803501447
-0.0540568329136862 -0.327725728534971 2.04825786630939
-0.00878518160062999 -0.333363194479054 2.05715477336287
0.0352948214499603 -0.336571832683522 2.07330696395526
0.0778158313304301 -0.318776834287392 2.07185518579496
0.0904543335660446 -0.330983077060538 2.12022012803212
0.11720188116487 -0.305442420546834 2.10157705341183
-0.373734542367977 -0.250984581498325 2.09768025267992
-0.391114988946131 -0.204904983432552 2.08323106025125
-0.367832347725742 -0.232768661076312 2.05393733152022
0.133857395295392 -0.301350015565451 2.14604018955309
0.1499378918288 -0.273723453442589 2.11381351289367
0.159965111102392 -0.268723425655665 2.16884916189293
-0.405133047355705 -0.17068169809802 2.11863275446688
0.17998266394925 -0.226744353775821 2.16481313214451
-0.407949880416083 -0.138640895588437 2.15019700521122
0.171972608677369 -0.233103065058931 2.20754577908288
-0.408820076599192 -0.115082427852832 2.19220089515672
0.177845694893581 -0.190363728839746 2.22992671123148
-0.410650598799808 -0.0747705604938683 2.20641648675561
0.180664149364844 -0.149369261582738 2.25257862900256
-0.410540920087546 -0.0654324912388195 2.25336879798911
0.181519065356717 -0.111142744428269 2.27859643311601
-0.41339673825915 -0.0171587519101335 2.27021762028614
0.17378764281079 -0.0969974320352479 2.32358949105521
-0.409495909150666 -0.00454752284593347 2.32019899004285
0.174211429727371 -0.0569946505936105 2.35508029351532
-0.392623597674824 0.00537936868893771 2.36791091312206
-0.398813810448553 0.0417379128752779 2.33771067920797
0.142879070460162 -0.0175466090915663 2.4250769590245
0.167160810400721 -0.0227664027817022 2.38418556319003
-0.375039734894632 0.0490098134337099 2.38364481165678
-0.340263093160259 0.0458731783123796 2.42501416717261
-0.346956538850619 0.0864553783018693 2.39589484180605
0.0425096083701686 0.0331933560380774 2.48660153372769
0.0889749309833328 0.0319910113830683 2.46499917592153
0.127849677414901 0.0285751950923532 2.43306003014477
-0.310198022282885 0.0837248151479542 2.42941671143771
-0.269497339153004 0.110255699653141 2.43173329796394
-0.217121522829194 0.09482617658033 2.45190432124389
-0.168068646280467 0.0966578061394356 2.45439398637269
-0.120733428522474 0.0953746040065568 2.4586034098593
-0.0733939644342338 0.0920416421782561 2.4641422208589
-0.0274023204940582 0.0924210571834697 2.46705277766712
0.0263136185698788 0.102707435781769 2.45400462941491
0.0598276486566841 0.0709146759198323 2.46357053285901
-0.3161109690919 -0.231328309180708 1.98928875918771
-0.284962991913967 -0.270438777667711 2.00012801808535
-0.236480214060131 -0.268643071118075 1.97980444146697
-0.199394057384921 -0.296308249882062 2.00411612878024
-0.155651393335116 -0.285014832846227 1.99439059833298
-0.11547804838494 -0.292693580240568 2.00379539540512
-0.0685322047331731 -0.301454861751536 2.01464768383243
-0.0123689514833361 -0.302864932119076 2.01848770400858
0.0351107193622958 -0.312112087385699 2.03616968856534
0.0805413233310141 -0.288795321509508 2.03440227432063
0.118580088035076 -0.283438069420547 2.06640642648631
-0.379162821700935 -0.180922548663643 2.03830041656904
-0.351644709309394 -0.219519038315318 2.01856070816251
0.151619098634261 -0.247198721057808 2.07525346694462
0.171918531527468 -0.237777137872488 2.1231266421944
-0.398041691991279 -0.157405881210991 2.07718627530305
0.188823545061382 -0.189630199366894 2.13546418830199
-0.403032364373796 -0.115508675939927 2.10477478986337
0.187864357583447 -0.185207584907777 2.18506126308194
-0.406748949835156 -0.0900880701943112 2.15146857352923
0.188884272056062 -0.141990222950161 2.20538683822492
-0.405536317476651 -0.0458377656736794 2.16983241946614
0.188916688648205 -0.101854946655435 2.23078057160366
-0.410298162512649 -0.0282195175568086 2.22016668137734
0.186128698293244 -0.0690909318443959 2.27457162062333
-0.408791928399482 0.0177562685496522 2.23716143808902
0.183231868481143 -0.0460323523016896 2.31303913545743
-0.410129221330962 0.0302479594859687 2.28805830941887
0.178711594233801 -0.0010400892610876 2.34664330243438
-0.39471819323853 0.0758593191935852 2.30527635024112
0.157638610839469 0.0206883923822819 2.39339408966129
-0.37591099331928 0.0847202331848353 2.35254539569834
-0.342744867226276 0.1218689542905 2.36335850834903
0.102144606808908 0.0704154751981121 2.43588945496485
0.137371490625437 0.0644404872674019 2.3998958353802
-0.308831859810366 0.121084529464585 2.40037003831877
-0.265060234561034 0.146992575520405 2.39819175835478
-0.229596763933735 0.129318649469547 2.4251670719955
-0.184663741734668 0.132752416653391 2.42422902882736
-0.140544342703542 0.132888540128056 2.4260678070989
-0.093851027359397 0.128862683449898 2.43214592647739
-0.050550201028637 0.128421476179278 2.43452056102142
-0.00795345973569171 0.12630575454468 2.43796537541218
0.0695686457360459 0.107427257846194 2.43065775291002
-0.312403680873995 -0.198005937518951 1.95914129383977
-0.274239548915159 -0.237181934485715 1.96520929041924
-0.227298976463059 -0.23560509934217 1.94680468092055
-0.187854757368001 -0.261049873252647 1.96920583822605
-0.133942954758364 -0.252653320588624 1.96329866066483
-0.088144781598644 -0.264759627883909 1.97734232731227
-0.0425748351215714 -0.276190654748147 1.99070696677264
0.000927208144402322 -0.265108446836492 1.98167364969151
0.0384321380285696 -0.281282940921474 2.00439417874518
0.0852431032187333 -0.255753867754808 2.0006120433409
0.121936808579245 -0.253201745707967 2.0332714800319
-0.37385172408411 -0.144675384960598 2.00662194732589
-0.349826640133837 -0.186337466388157 1.9923897211365
0.157852952526168 -0.214777983785361 2.0430061184278
0.178026787569758 -0.204906908812336 2.08900744931627
-0.392907125326763 -0.125995917846488 2.05021810103025
0.195413331068509 -0.156762440734784 2.10557203940162
-0.396004464390601 -0.0797593980410796 2.07007133180027
0.194665910836683 -0.143649694101637 2.15696558166845
-0.400264725784197 -0.0622778344300414 2.11614359920238
0.195477723989977 -0.0966645583244853 2.18036668786894
-0.399118745040214 -0.0158442954800684 2.13645259577325
0.193135373662893 -0.0576845902295059 2.2244688682715
-0.403613286117691 0.0029394417426812 2.18527244864531
0.19151192967125 -0.0252223989743836 2.25852277241657
-0.402240923509658 0.050166612428636 2.20422971524342
0.188031630428668 -0.00430582095246139 2.30013405472119
-0.403556889111478 0.0641194646412584 2.25552444568103
0.184802829672946 0.0392479391239656 2.3138873631917
-0.388056494025294 0.109355185554082 2.27254134218625
0.166682539906293 0.0494315613969219 2.35843530624381
-0.369435086393808 0.118311231758353 2.319754164091
-0.335308892818353 0.15601187700671 2.33077120606732
0.109308650682805 0.10578360224572 2.40141228625109
0.145247574228846 0.0967131447958396 2.36609510282713
-0.302120841868545 0.154989759178457 2.36729552134219
-0.253271781166234 0.179589832769604 2.36824310817838
-0.213220113699261 0.161900372662635 2.39407209836846
-0.162193363372184 0.167913602877777 2.39039764569659
-0.109580799042241 0.161308142225523 2.39929637578572
-0.0611880417878598 0.16241237455229 2.40036788373578
-0.0151256155150261 0.160069293238202 2.4047501740976
0.03249583336677 0.139503717824551 2.41858580578914
0.0738973189464688 0.143433984037933 2.39696444345265
-0.306482150396677 -0.165419232143734 1.92762364298196
-0.268926059527484 -0.203651834794241 1.93298811827721
-0.220954253972508 -0.20394933622083 1.91570505044488
-0.176350686354357 -0.229818431211582 1.93877635806045
-0.128974250362102 -0.215984741626648 1.92719109003855
-0.0870721996455599 -0.230035251810661 1.94298724606833
-0.0425794493605032 -0.24321150971418 1.95803212538761
0.00391509474524478 -0.22987511009347 1.94689916632205
0.0468988756671105 -0.246402360819344 1.97065727142547
0.0926197002714131 -0.221774370757587 1.96771853138583
0.128416905796392 -0.221240400023971 2.00208365102563
-0.366979528055187 -0.110586296484962 1.9728847942652
-0.344092277005579 -0.154626129169751 1.96200615976964
0.16457427106562 -0.18209701978412 2.011479282414
0.184995044027 -0.171280228606096 2.05741451848906
-0.386146746254233 -0.0949151239818788 2.01750960947926
0.201908848228541 -0.124150161193991 2.07489109533243
-0.38932024441182 -0.0490562358567474 2.03495850684758
0.200999292566795 -0.109776678783782 2.1267561854789
-0.393550053152813 -0.026437572975159 2.08406617038866
0.202770161960502 -0.063597801659807 2.14177810889633
-0.393223709072015 0.0195553747755976 2.11079659959841
0.198805658401145 -0.0462363962616962 2.18534792963421
-0.397088079366432 0.0371683803961261 2.15371481258822
0.198675252499264 -0.00221906647087808 2.21456441156457
-0.395495147223998 0.0824858117268751 2.16964616136264
0.194933627912413 0.0235834538167072 2.26170486661392
-0.397204847824392 0.0963593404571616 2.2221727191161
0.192324009417536 0.0697050314439233 2.27863237645701
-0.381509541209955 0.142124762283858 2.2406652349618
0.172641076881833 0.0857032949326028 2.3254554098609
-0.362326975470911 0.151952538051009 2.28779015267141
-0.326597945696161 0.189644882480557 2.30052451267729
0.115145477797381 0.139909280713809 2.36877443132269
0.151073274024264 0.131383476306254 2.33352907579202
-0.291921214265892 0.188348464987288 2.33736997296748
-0.2433255726851 0.212252566107336 2.33738453297216
-0.202140781001555 0.193673285078019 2.36308776849644
-0.157126426313907 0.206821863233815 2.35207580688483
-0.120134545936985 0.191135636296234 2.36927193539221
-0.072416119199041 0.193920960090279 2.36864754127162
-0.0220360844795333 0.194121265588112 2.37070345186518
0.0278558638927974 0.174147452895216 2.38753349417415
0.0756149715765924 0.176840397515268 2.36692823097465
-0.299850939656981 -0.132813110856978 1.89544578765008
-0.262930184582037 -0.17048753759383 1.9007280554155
-0.216622661700588 -0.171289692340668 1.88408326276596
-0.17261761434469 -0.197307639258981 1.90673346279512
-0.122737195073912 -0.181334811336763 1.8931395380293
-0.0808420943542419 -0.194606570590343 1.90816341193066
-0.0390451281355694 -0.209241411138715 1.92453413586208
0.00739255785492281 -0.194949882171165 1.91245200816792
0.0507000635920746 -0.213337008546894 1.93730197489766
0.0962296029037792 -0.189893363290962 1.93448675942137
0.135032912007614 -0.188808355321793 1.97048938730183
-0.361564998948868 -0.0756903420622208 1.94183714069069
-0.337516563189291 -0.122560687933483 1.93020221909982
0.17093647036165 -0.149588730938516 1.97939704955143
0.191585463486702 -0.138262837365342 2.02524345259126
-0.379783480774402 -0.0599306900494602 1.98518249833611
0.208209697002275 -0.0920887502628214 2.04187327535846
-0.381991160701437 -0.0111908610631382 1.99914429305326
0.207859697890186 -0.0764945617620839 2.09184266850692
-0.386646941419953 -0.00233966184505175 2.04293843646654
0.209063677967293 -0.0271745671370692 2.11351958090612
-0.387731213589469 0.0295357723007732 2.07219637065331
0.204603864632175 -0.0102551552839439 2.16087076911254
-0.389760277460838 0.0705682475623096 2.11505527034424
0.205644512771615 0.0347408491801857 2.18111762355253
-0.389169021262233 0.114329623212035 2.13819345018517
0.201305042194465 0.0514802465604412 2.2273636355693
-0.390847147236438 0.128475337635007 2.19065183909179
0.199279708218779 0.100198987863137 2.24524223028947
-0.37409829654876 0.175641081832496 2.21151964779177
0.179997251842827 0.117553418312233 2.29191594517158
-0.354598554785663 0.185355311964316 2.25759895909434
-0.319121793301516 0.22258076912385 2.26944478548428
0.12029154100487 0.173313676255753 2.33734593372987
0.157791848509902 0.163967113630257 2.30115483551338
-0.283498791599264 0.221181410626725 2.30657762135117
-0.236735794941438 0.245555964826102 2.30468331114379
-0.194938480812326 0.228849506574215 2.32855912441309
-0.144238353862565 0.241115896666 2.31867441033557
-0.104953096166773 0.224040190415951 2.33735046914993
-0.0566551791771871 0.226604749567487 2.33697042727686
-0.00857266570578442 0.227323305304475 2.33840985283076
0.0315062738678784 0.205426409656184 2.35735554262075
0.0831061917665321 0.207821327337898 2.33575786829804
-0.300695428660426 -0.0977523158649243 1.86865823382656
-0.256121950165951 -0.136528940346445 1.86733747695202
-0.208250315484862 -0.13958058729069 1.85253564717027
-0.167160227588675 -0.166331614080132 1.87628752920926
-0.117151608064113 -0.148208292541612 1.86062097835532
-0.0736546774792407 -0.158939131210823 1.87314735377482
-0.0339481659488051 -0.173130721048578 1.88898400935484
0.00970653187592503 -0.159584926469879 1.877528369562
0.0538648470513866 -0.180581250063121 1.90414726511446
0.100711797099055 -0.157572794199034 1.90143591563835
0.137739306269956 -0.159128266921251 1.93737848257797
-0.355776195836532 -0.0401953567741611 1.91062919678329
-0.33437295728963 -0.0881470165093536 1.90162261250596
0.171821599626311 -0.122795911087663 1.94383926535972
0.197889143044245 -0.105315151524321 1.99189205988035
-0.373242131034912 -0.0237236575801154 1.95193870414306
0.215561630385779 -0.0555371416797211 2.01987930567329
-0.375323698934983 0.0252982045326652 1.97156201933375
0.214072763993292 -0.0399861979998428 2.06430294078491
-0.380443494078289 0.0416807648842296 2.02027611783734
0.215596545507113 0.0079146075678763 2.0812454274047
-0.383757401569414 0.0708133292584947 2.06604636287841
0.211210470653123 0.0238129475089433 2.12854286817578
-0.382481920141948 0.11442562194565 2.08348064553352
0.212408012351314 0.0691194681593055 2.14726263089968
-0.383402035144158 0.151147851393906 2.11457656794679
0.207984370045683 0.0861998094261092 2.19485596447658
-0.384029923433712 0.162178695059254 2.16367139119045
0.205609736853008 0.133199036080555 2.21352230498789
-0.367381945138001 0.20864669573303 2.17996683543255
0.186766295954977 0.149414105771623 2.25962245952165
-0.347308158635075 0.218769989770194 2.22633149101493
-0.312633650964138 0.255385893934648 2.23722582018187
0.127431446239351 0.205964955936638 2.30465522400305
0.164490330818782 0.196609394294484 2.26869961213108
-0.27729767788771 0.253856814093629 2.27429535564674
-0.230803180044698 0.278419172698754 2.27216469000443
-0.187343860824605 0.262234764805329 2.29582173512983
-0.138588738692411 0.27325215654651 2.28705953848194
-0.0911380924366834 0.258711323244811 2.30361738984635
-0.0411261202445664 0.259162565341478 2.30540797271936
0.00538301325704972 0.259155744513069 2.30749567083095
0.0442298246653115 0.236190831043655 2.32565919751916
0.0905280289017431 0.240509478042893 2.30312716632849
-0.263369094017888 -0.0999964932517878 1.84325297917305
-0.221866694378692 -0.104784260924369 1.82990517958278
-0.175425758795386 -0.102858568718255 1.82360816896865
-0.160881306383489 -0.135513714936415 1.84695890950313
-0.123348809177015 -0.108980750325446 1.83086544261749
-0.0767253182769894 -0.120749948628539 1.84150543343505
-0.0299761498292178 -0.131783922428887 1.85217750360044
0.0180376342772967 -0.121635574017577 1.84907104833831
0.0572161414580449 -0.148471713022393 1.87316718185392
0.101886972821328 -0.122777109945411 1.87177739948625
0.142196169944452 -0.125350774125015 1.90479421535302
-0.343068559404458 -0.00468067136021761 1.88355119904973
-0.326832614186448 -0.0523140390575898 1.87155666901789
0.191219433136988 -0.0854949854687782 1.94479980118231
0.209121371659711 -0.0611952932708774 1.97700538587217
-0.363167570626309 0.013835564999066 1.92206603354231
0.214997308136731 -0.0173714689076802 1.98553374618947
-0.359862614415182 0.0591801007450033 1.9409617562707
0.217906501194091 -0.00340275967173623 2.03024841607572
-0.369467999499183 0.0750736852075393 1.98510244505463
0.214793781620096 0.0411016502328805 2.04689642661439
-0.37628648579253 0.0947439710800632 2.02998934533033
0.215102662845321 0.0587280859445049 2.09369270631153
-0.369860331752341 0.140955125857991 2.04257957715275
0.212369710355575 0.102293852234212 2.11362524712497
-0.372676346561855 0.169990611888531 2.07703342772947
0.212313235928139 0.120125428054493 2.16010864540225
-0.376466087490121 0.194199417449659 2.13048284086937
0.206743863676267 0.162865766744443 2.18019324281889
-0.358316450759832 0.235841391915713 2.14337419375132
0.191392390608719 0.182092169873323 2.2274034859064
-0.340818880159584 0.250037735830085 2.19217466651086
-0.30496753559492 0.282934897022987 2.20243226132416
0.132838130582815 0.238569624352209 2.27056977568679
0.164704178531336 0.228445593082201 2.23409880650599
-0.269582879610929 0.285766745568106 2.2413605704669
-0.220759751342382 0.307596248613286 2.23486020279472
-0.183659365352771 0.294618751267335 2.26075042680027
-0.141757075123377 0.302248806047403 2.24972753087476
-0.0977453443904242 0.29280065078013 2.26440890376477
-0.0531399565120282 0.288435925613891 2.27113320272013
-0.00307857143620797 0.287458156985771 2.27292021973189
0.0486589632830976 0.270133606360815 2.29084504262674
0.0940569948911204 0.269487323136908 2.26830247016681
-0.288364478023938 -0.0592327098219913 1.83948314457737
-0.242963994352539 -0.0619126747846488 1.81732369947597
-0.195298989143681 -0.0643273399086995 1.80788326432826
-0.14348276664382 -0.0686274846288219 1.81117416621543
-0.0930450770638733 -0.0753189381835796 1.81824555286597
-0.0470193816564391 -0.0852784937639421 1.82614576855313
-0.00291082605595423 -0.085037517085354 1.83018144719238
0.0442139499025675 -0.0751398468270803 1.83175529544352
0.0643192257880544 -0.109470374600815 1.84905519331447
0.0966649657784353 -0.0742739993935301 1.84633457247674
0.132975725519804 -0.0904602333407003 1.87391788148078
-0.307946594641672 -0.0167681150900466 1.84566281665776
-0.282366004778655 0.0239756746928311 1.82967289100475
-0.265404513690088 -0.0200286305585057 1.81848970982051
0.143565811562773 -0.0497433809083141 1.86918687423054
0.169363785597099 -0.0817209616107598 1.90603184886946
0.173123165005013 -0.0347752418922339 1.89650983418889
-0.339528628791355 0.0500130718199848 1.89252647716199
-0.319906702320233 0.0257511958338138 1.85973775281667
0.197192409372968 -0.0390025204187301 1.93455761965421
0.202857345990806 0.00393570958485188 1.94934694321127
-0.335976767956306 0.0890317517839061 1.91690026649565
0.208888361990156 0.0320515714541673 1.99124390269953
-0.345716083726356 0.111104484945227 1.9551835591064
0.204181172720544 0.070773890753758 2.01681013478877
-0.358145854815697 0.123989465719979 1.99424016876598
0.206921483894808 0.0938496432161154 2.05788574482641
-0.346784237087292 0.163905053940565 2.00591887389961
0.202351856601388 0.132424589083959 2.08314084547345
-0.350420626615432 0.194161778447324 2.0409041639416
0.20488852384806 0.155307696727598 2.1240108609475
-0.363829020040979 0.212246823162889 2.09266915010388
0.197634236910958 0.192402518683263 2.14864820613954
-0.329580708346934 0.273146513796547 2.15337840823501
-0.34160047460299 0.255182521608133 2.10568114717314
-0.310418673515021 0.288197626832871 2.1102321556229
0.188261466820841 0.210073976171983 2.19206496207618
0.175204724825636 0.233819613858481 2.14726983867718
0.162024111698368 0.248937535821536 2.1918103475776
-0.261551493317192 0.308855802410924 2.20332546835963
-0.29536968753921 0.300614400962362 2.16236805844732
-0.253333640224585 0.321960034041428 2.16022600088123
0.129435082555247 0.267530625988216 2.2300652959054
0.0974056190328759 0.298063676653251 2.19256803855828
0.0849809721164956 0.293096938069968 2.23170474631262
-0.214183584204118 0.32538719762397 2.19391341653415
-0.170282428916671 0.320385750943929 2.21398476000025
-0.117396226349178 0.317710726215474 2.21657734629433
-0.0729846317034107 0.312861999960198 2.22567887307402
-0.029208378270262 0.30947435096797 2.23094538801867
0.0135220476909374 0.308239132306297 2.23047349180943
0.0465542701796218 0.294674673085783 2.25446491053599
-0.216560934070273 -0.0216369354171558 1.80261837189945
-0.165311270829952 -0.026160837900343 1.80003605490181
-0.114590140866151 -0.0303756558492571 1.80607452547412
-0.0667726114895111 -0.0353480779550446 1.8120491088668
-0.0219854843327124 -0.0390404784069644 1.81753949400296
0.0221251604727013 -0.0350317557043736 1.82221506211222
0.0707189082033679 -0.0336744133606032 1.83000040117036
-0.238148368197709 0.0202713899944857 1.80913465373694
-0.210587589348942 0.0576738029492347 1.81147723359936
-0.186757158769336 0.0174449639955614 1.80001818015547
-0.135997908160331 0.0138148595868537 1.80346112941361
-0.0883470212586655 0.0125979428526705 1.8095631046796
-0.0411195224773204 0.00903706417595834 1.81534451963683
0.00365950932981961 0.0104232494907284 1.82146265159751
0.0505779924281216 0.00955875200887661 1.82770482436492
0.0987202569091673 0.0110599565682915 1.84235954502101
0.145702030309361 0.00307979944330565 1.87027903356277
0.114252407259061 -0.0293153595499501 1.8472574048455
-0.300056215343075 0.0652958167869206 1.85578312749374
-0.26774015870163 0.10356869292835 1.85636112923233
-0.257449882259467 0.0641611484391048 1.82822793861924
0.122040688256515 0.0455349261907856 1.86518472780892
0.179589251768886 0.00763729385334686 1.90772775452164
0.158085802233044 0.0474867013130582 1.89707308098514
-0.307647154085026 0.0976921536937127 1.88529912258179
-0.274019907795881 0.136113182762321 1.89092205974295
0.188341025346156 0.0451588438053752 1.94063343134874
0.16081273490151 0.0839125208148318 1.929539257182
-0.31201323305108 0.132141143630397 1.92332902916601
-0.280809831373212 0.168175331558098 1.92738472554526
0.187529706309436 0.0770445098887154 1.97231822747942
0.159109183368374 0.117717138974662 1.9633943906368
-0.322952677923268 0.158438924886141 1.96233504215007
-0.285454719124325 0.197809775885819 1.95998103992537
0.186353905752272 0.111279687871692 2.00777103741775
0.158296917175563 0.150554398951451 1.99753983183835
-0.319530113111864 0.198118966374628 1.99552616812651
-0.283269522192943 0.233072751394375 1.99251418804623
0.185860908821948 0.141111797544376 2.03998427475124
0.157841796799051 0.182724275905473 2.03151928277868
-0.31649163022928 0.23424937824275 2.02622987282174
-0.28241278754266 0.27029896730328 2.02966620920044
0.185025156094713 0.174805190688127 2.07571277955958
0.156841626514347 0.21506857458373 2.06486971252723
-0.340098314730894 0.235301276548851 2.06258930305373
-0.310545447158446 0.272033645574941 2.06578155382341
0.18351772806347 0.205057403792029 2.10737768519731
0.153803461390643 0.244888022211967 2.10013693783386
-0.27703852646326 0.311565877296194 2.12034045489064
-0.271974794169626 0.301933177211554 2.07254873122077
-0.239336271762046 0.324286097103128 2.10576265860629
0.131778168184277 0.278554972473762 2.18285517409554
0.145442761686364 0.266589125843577 2.14138668881038
0.105738393833942 0.294422254841388 2.14067489626277
-0.214812982172641 0.332571786661928 2.1454403703378
-0.189179823246302 0.332330698662161 2.10966546132278
-0.174312161811089 0.333030161202799 2.16407014499617
-0.14528693337033 0.331175490737504 2.12321275695647
-0.131897171952342 0.329170345545735 2.17348888803205
-0.101208505592408 0.327733340744202 2.12858718995449
-0.0851344918063366 0.325885073359211 2.17646827038798
-0.0563888170405892 0.324039819275324 2.13222105240054
-0.0408791699463061 0.322320985787524 2.18271597179301
-0.0128516140025361 0.320479651104471 2.13612144215268
0.00361205216345643 0.319248145976116 2.18489738868879
0.0313223948267483 0.317324867701448 2.14420517740504
0.0492361881458965 0.312608646848465 2.2001440800738
0.0689954095386645 0.310903484632062 2.15704150659185
-0.179567521185338 0.0910172756771151 1.82358395559875
-0.157311061584066 0.0559800320633872 1.80962624507842
-0.111584543062066 0.0583274020498541 1.81715801771199
-0.0628895238941075 0.0540523067134804 1.82293205175216
-0.0179892206520198 0.0558079350264493 1.8303874103616
0.0273859572316353 0.054950141537472 1.83700081495809
0.0733732376377801 0.050889398784934 1.84444672512034
-0.224563671890802 0.100008916929715 1.83499765115609
-0.181795564945175 0.127132441406916 1.84922566486926
-0.135954461154984 0.10113341703715 1.83459099247397
-0.0850669635120793 0.0940163385096938 1.83879321651338
-0.040751612325224 0.0973367438519564 1.84864734354467
0.00376209780360032 0.097286162085117 1.85648098235763
0.0489221914743925 0.0943412846647632 1.8624236907153
0.0922729848083693 0.0845414295825291 1.86990904178803
0.12690278330918 0.087841528960813 1.89492454164086
-0.22928114853848 0.135423352745659 1.86593022930465
-0.189254270061994 0.160559553630179 1.88266835863626
-0.143474987904711 0.143618296636361 1.86977589984698
-0.104387526416947 0.127208708591982 1.86108697329324
-0.0615881478383865 0.13263740299389 1.87510103353215
-0.0178922749461213 0.13334407210417 1.88463066626125
0.0301909931860298 0.129572334144504 1.89048337063575
0.0799739339002884 0.121704604530854 1.89684246762881
0.124704613162926 0.120349747006642 1.92576753728805
-0.235940757169666 0.167698086360423 1.90048963850064
-0.190749739443972 0.192676758381572 1.91508675557819
-0.144812036010895 0.177413499658365 1.90392418103452
-0.0983277503086092 0.160604525973714 1.89617690019431
-0.0513723702602434 0.16753219080761 1.91269840343896
-0.00121020719645204 0.163518844478963 1.91872417791266
0.0465599618424934 0.159310437796908 1.92408111380821
0.0885993419202306 0.151478017296427 1.93197342733361
0.123759212868879 0.154947967276399 1.96125804360241
-0.239237682320239 0.198971428706564 1.93282342838139
-0.193091730033007 0.22323540438354 1.94599334781362
-0.144225079948259 0.211485766506435 1.9387422626361
-0.101787776997488 0.193364961244971 1.92884271194223
-0.0638927163400356 0.202242122620704 1.94552323017989
-0.0192229284892853 0.196270415812 1.94844709802229
0.0287569897633381 0.192610841798258 1.95439282417723
0.077760305116579 0.186235302019058 1.96230363209518
0.122911582574402 0.186012811139056 1.99312891330615
-0.24227619362891 0.229382221880821 1.964220555456
-0.199250233767154 0.253474488489504 1.97692670958032
-0.149318483207206 0.243644095081258 1.97046526713624
-0.100174892936651 0.231347282761811 1.96785052602092
-0.0486393279009355 0.231591607440289 1.97848871218685
-0.000505776963767496 0.226879121525103 1.98339368932015
0.0458743464641237 0.223393322359599 1.98925427546757
0.0873150151427489 0.216269631390627 1.9982890456056
0.122323117429371 0.22005384679712 2.02837936002813
-0.246718849246541 0.262122303998196 1.99857133074581
-0.208743464313579 0.284242417818618 2.00965095320169
-0.161810609264248 0.277343863531608 2.00233316148098
-0.115273866759693 0.267144788614175 2.00126331761697
-0.0706524883314857 0.262669831421239 2.00570118087399
-0.0216960398481187 0.260474558270134 2.01333585039451
0.027084690843078 0.256830784426083 2.01945876795123
0.0761314371963327 0.251147649809162 2.02844214933495
0.120935563536403 0.250542352114118 2.0600662015042
-0.242287481207471 0.296765103091788 2.0377624888974
-0.185690362624224 0.306589886730564 2.03817940078879
-0.136997046434839 0.300142829489538 2.03662104254645
-0.0923910244104331 0.295315318448726 2.03998803561284
-0.0475488959831063 0.291181618059383 2.04450337294224
-0.00119735645384976 0.288180984336587 2.05109981672123
0.0438539549204066 0.285253474750549 2.05765049363918
0.0844940580513088 0.278533977439612 2.06765857014758
0.116330100880457 0.277696821279796 2.1009623933447
-0.217240514052009 0.318851469206219 2.06897761991062
-0.163065764901444 0.322220810066635 2.07463077156609
-0.11732038239746 0.318755281900846 2.08051775934392
-0.072280119864011 0.314722201059892 2.08455858683941
-0.0265477982297316 0.310646374592782 2.08874905394331
0.0205721167708273 0.307502305321894 2.09597776695186
0.0674642722084458 0.302355454792219 2.1060903951483
3 0 1 2
3 0 2 4
3 3 0 4
3 3 4 6
3 5 3 6
3 5 6 8
3 7 5 8
3 7 8 10
3 9 7 10
3 9 10 12
3 11 9 12
3 13 11 14
3 14 11 12
3 13 14 15
3 16 17 18
3 16 18 1
3 0 19 1
3 19 16 1
3 0 3 20
3 19 0 20
3 3 5 21
3 20 3 21
3 5 7 22
3 21 5 22
3 7 9 23
3 22 7 23
3 9 11 24
3 23 9 24
3 24 11 25
3 25 11 13
3 13 15 26
3 27 13 26
3 25 13 27
3 27 26 28
3 17 16 30
3 30 16 29
3 29 19 31
3 29 16 19
3 31 20 32
3 31 19 20
3 32 21 33
3 32 20 21
3 21 22 33
3 33 22 34
3 22 23 34
3 34 23 35
3 23 24 35
3 35 24 36
3 24 25 36
3 36 25 37
3 37 27 38
3 37 25 27
3 38 28 39
3 38 27 28
3 30 40 41
3 30 29 40
3 29 31 42
3 40 29 42
3 31 32 43
3 42 31 43
3 32 33 44
3 43 32 44
3 33 34 45
3 44 33 45
3 34 35 46
3 45 34 46
3 35 36 47
3 46 35 47
3 36 37 47
3 47 37 48
3 37 38 48
3 48 38 49
3 49 39 50
3 49 38 39
3 40 51 52
3 41 40 52
3 51 42 53
3 51 40 42
3 42 43 53
3 53 43 54
3 43 44 54
3 54 44 55
3 44 45 55
3 55 45 56
3 45 46 56
3 56 46 57
3 46 47 58
3 57 46 58
3 47 48 59
3 58 47 59
3 48 49 60
3 59 48 60
3 49 50 61
3 60 49 61
3 51 62 63
3 52 51 63
3 51 53 64
3 62 51 64
3 53 54 65
3 64 53 65
3 54 55 66
3 65 54 66
3 55 56 67
3 66 55 67
3 56 57 67
3 67 57 68
3 57 58 69
3 68 57 69
3 58 59 69
3 69 59 70
3 59 60 70
3 70 60 71
3 71 61 72
3 71 60 61
3 62 73 74
3 63 62 74
3 62 64 75
3 73 62 75
3 64 65 75
3 75 65 76
3 65 66 76
3 76 66 77
3 66 67 77
3 77 67 78
3 67 68 78
3 78 68 79
3 79 69 80
3 79 68 69
3 80 70 81
3 80 69 70
3 81 71 82
3 81 70 71
3 82 72 83
3 82 71 72
3 74 73 85
3 85 73 84
3 84 73 86
3 86 73 75
3 75 76 86
3 86 76 87
3 76 77 88
3 87 76 88
3 77 78 89
3 88 77 89
3 78 79 90
3 89 78 90
3 79 80 91
3 90 79 91
3 80 81 92
3 91 80 92
3 81 82 93
3 92 81 93
3 93 83 94
3 93 82 83
3 84 95 85
3 84 86 96
3 97 84 96
3 95 84 97
3 96 87 98
3 96 86 87
3 87 88 98
3 98 88 99
3 88 89 99
3 99 89 100
3 89 90 100
3 100 90 101
3 101 91 102
3 101 90 91
3 102 92 103
3 102 91 92
3 92 93 103
3 105 103 104
3 103 93 104
3 93 94 104
3 96 106 97
3 96 98 107
3 106 96 107
3 98 99 108
3 107 98 108
3 99 100 109
3 108 99 109
3 100 101 110
3 109 100 110
3 101 102 111
3 110 101 111
3 111 102 112
3 112 102 103
3 103 105 112
3 117 114 115
3 116 113 117
3 117 113 114
3 116 117 119
3 118 116 119
3 118 119 121
3 120 118 121
3 120 121 123
3 122 120 123
3 122 123 125
3 124 122 125
3 124 125 127
3 126 124 127
3 126 127 128
3 129 130 131
3 114 129 131
3 114 113 129
3 113 2 129
3 129 2 1
3 4 113 116
3 4 2 113
3 6 116 118
3 6 4 116
3 8 118 120
3 8 6 118
3 10 120 122
3 10 8 120
3 12 122 124
3 12 10 122
3 14 124 126
3 14 12 124
3 133 126 128
3 15 14 126
3 15 126 133
3 132 15 133
3 132 133 134
3 135 136 137
3 137 17 135
3 137 18 17
3 18 137 130
3 129 18 130
3 18 129 1
3 15 132 26
3 139 132 134
3 139 138 132
3 138 28 26
3 132 138 26
3 138 139 140
3 136 135 142
3 142 135 141
3 17 30 135
3 135 30 141
3 143 39 28
3 138 143 28
3 143 140 144
3 143 138 140
3 141 145 146
3 142 141 146
3 41 145 141
3 30 41 141
3 147 39 143
3 147 50 39
3 147 144 148
3 147 143 144
3 145 149 150
3 146 145 150
3 52 149 145
3 41 52 145
3 151 50 147
3 151 155 50
3 151 148 152
3 151 147 148
3 149 153 154
3 150 149 154
3 63 153 149
3 52 63 149
3 155 61 50
3 155 72 61
3 155 151 156
3 156 151 152
3 154 157 158
3 154 153 157
3 74 157 153
3 63 74 153
3 159 72 155
3 159 83 72
3 159 156 160
3 159 155 156
3 158 157 162
3 162 157 161
3 74 85 161
3 157 74 161
3 163 83 159
3 163 94 83
3 163 160 164
3 163 159 160
3 161 165 162
3 165 95 166
3 165 161 95
3 161 85 95
3 165 166 167
3 95 97 166
3 105 104 168
3 170 94 163
3 170 168 94
3 169 168 170
3 94 168 104
3 163 164 170
3 166 171 167
3 173 171 172
3 172 171 106
3 171 97 106
3 171 166 97
3 172 107 174
3 172 106 107
3 174 108 175
3 174 107 108
3 175 109 176
3 175 108 109
3 176 110 177
3 176 109 110
3 177 111 178
3 177 110 111
3 178 112 180
3 178 111 112
3 181 105 168
3 181 180 105
3 179 178 180
3 180 112 105
3 168 169 181
3 172 182 173
3 182 172 183
3 183 172 174
3 174 175 184
3 183 174 184
3 175 176 185
3 184 175 185
3 176 177 186
3 185 176 186
3 177 178 187
3 186 177 187
3 187 179 188
3 187 178 179
3 179 180 229
3 189 190 191
3 114 131 191
3 115 114 191
3 115 191 192
3 115 192 193
3 117 115 193
3 119 193 194
3 119 117 193
3 119 194 121
3 121 194 195
3 121 195 123
3 123 195 196
3 123 196 125
3 125 196 197
3 127 197 198
3 127 125 197
3 128 198 199
3 200 128 199
3 128 127 198
3 200 199 201
3 202 203 204
3 131 130 189
3 190 189 204
3 189 130 202
3 189 202 204
3 131 189 191
3 128 200 133
3 134 200 205
3 206 205 201
3 134 133 200
3 205 200 201
3 205 206 207
3 136 208 203
3 202 137 136
3 202 136 203
3 137 202 130
3 134 205 139
3 139 205 207
3 140 139 207
3 211 207 209
3 136 142 208
3 208 142 210
3 211 140 207
3 211 144 140
3 146 212 210
3 142 146 210
3 148 144 213
3 213 144 211
3 150 214 212
3 146 150 212
3 215 148 213
3 215 152 148
3 154 216 150
3 150 216 214
3 219 152 217
3 217 152 215
3 158 218 216
3 154 158 216
3 219 156 152
3 219 160 156
3 158 220 218
3 158 162 220
3 221 160 219
3 221 164 160
3 162 165 222
3 223 220 222
3 220 162 222
3 165 167 222
3 169 170 224
3 225 164 221
3 224 170 164
3 224 164 225
3 222 226 223
3 167 171 227
3 226 167 227
3 226 227 228
3 226 222 167
3 171 173 227
3 180 181 229
3 181 169 230
3 231 169 224
3 230 169 231
3 230 229 181
3 224 225 271
3 227 232 228
3 232 182 233
3 232 173 182
3 227 173 232
3 182 183 234
3 233 182 234
3 183 184 234
3 234 184 235
3 184 185 235
3 235 185 236
3 185 186 236
3 236 186 237
3 186 187 237
3 237 187 238
3 238 188 239
3 238 187 188
3 188 179 229
3 240 239 188
3 240 188 229
3 229 230 240
3 191 190 242
3 242 190 241
3 192 242 243
3 192 191 242
3 192 243 244
3 193 192 244
3 194 244 245
3 194 193 244
3 194 245 246
3 195 194 246
3 195 246 247
3 196 195 247
3 196 247 248
3 197 196 248
3 197 248 249
3 198 197 249
3 199 198 249
3 250 199 249
3 201 199 251
3 251 199 250
3 204 252 253
3 204 203 252
3 190 253 241
3 190 204 253
3 206 251 254
3 206 201 251
3 207 206 255
3 255 206 254
3 203 256 252
3 203 208 256
3 257 209 255
3 255 209 207
3 210 258 208
3 208 258 256
3 211 209 259
3 259 209 257
3 212 260 210
3 210 260 258
3 213 211 259
3 261 213 259
3 214 262 260
3 212 214 260
3 215 213 261
3 263 215 261
3 216 264 214
3 214 264 262
3 217 215 263
3 265 217 263
3 218 266 264
3 216 218 264
3 219 217 265
3 267 219 265
3 218 268 266
3 218 220 268
3 221 219 267
3 269 221 267
3 223 270 268
3 220 223 268
3 225 221 269
3 271 225 269
3 223 226 272
3 270 223 272
3 272 228 273
3 272 226 228
3 274 231 275
3 274 230 231
3 275 231 271
3 271 231 224
3 273 228 276
3 276 228 232
3 276 233 277
3 276 232 233
3 233 234 278
3 277 233 278
3 234 235 279
3 278 234 279
3 235 236 280
3 279 235 280
3 236 237 281
3 280 236 281
3 237 238 282
3 281 237 282
3 238 239 283
3 282 238 283
3 327 239 284
3 284 239 240
3 240 230 274
3 284 240 274
3 241 285 286
3 242 241 286
3 242 286 243
3 243 286 287
3 243 287 288
3 244 243 288
3 245 288 289
3 245 244 288
3 245 289 246
3 246 289 290
3 246 290 247
3 247 290 291
3 247 291 248
3 248 291 292
3 248 292 293
3 249 248 293
3 249 293 250
3 250 293 294
3 250 294 295
3 251 250 295
3 252 296 297
3 253 252 297
3 241 297 285
3 241 253 297
3 254 295 298
3 254 251 295
3 254 298 299
3 255 254 299
3 256 300 252
3 252 300 296
3 257 255 299
3 301 257 299
3 258 302 300
3 256 258 300
3 259 257 303
3 303 257 301
3 260 304 258
3 258 304 302
3 261 259 303
3 305 261 303
3 262 306 304
3 260 262 304
3 263 261 305
3 307 263 305
3 264 308 262
3 262 308 306
3 265 263 307
3 309 265 307
3 266 310 308
3 264 266 308
3 267 265 309
3 311 267 309
3 266 312 310
3 266 268 312
3 269 267 311
3 313 269 311
3 270 314 312
3 268 270 312
3 271 269 315
3 315 269 313
3 270 272 316
3 314 270 316
3 316 273 317
3 316 272 273
3 318 275 319
3 318 274 275
3 275 271 315
3 319 275 315
3 273 276 320
3 317 273 320
3 276 277 320
3 320 277 321
3 277 278 322
3 321 277 322
3 322 279 323
3 322 278 279
3 279 280 323
3 323 280 324
3 280 281 324
3 324 281 325
3 281 282 325
3 325 282 326
3 282 283 326
3 326 283 327
3 283 239 327
3 327 284 328
3 284 274 318
3 328 284 318
3 285 329 330
3 286 285 330
3 286 330 287
3 287 330 331
3 287 331 332
3 288 287 332
3 288 332 289
3 289 332 333
3 289 333 334
3 290 289 334
3 290 334 335
3 291 290 335
3 291 335 292
3 292 335 336
3 292 336 337
3 293 292 337
3 293 337 294
3 294 337 338
3 294 338 339
3 295 294 339
3 296 340 341
3 297 296 341
3 285 341 329
3 285 297 341
3 298 339 342
3 298 295 339
3 298 342 343
3 299 298 343
3 300 344 296
3 296 344 340
3 301 299 343
3 345 301 343
3 302 346 344
3 300 302 344
3 303 301 347
3 347 301 345
3 304 348 302
3 302 348 346
3 305 303 347
3 349 305 347
3 306 350 348
3 304 306 348
3 307 305 351
3 351 305 349
3 308 352 306
3 306 352 350
3 309 307 353
3 353 307 351
3 310 354 352
3 308 310 352
3 311 309 355
3 355 309 353
3 312 356 310
3 310 356 354
3 313 311 355
3 357 313 355
3 314 358 356
3 312 314 356
3 315 313 359
3 359 313 357
3 314 316 360
3 358 314 360
3 360 317 361
3 360 316 317
3 362 319 363
3 362 318 319
3 319 315 359
3 363 319 359
3 317 320 364
3 361 317 364
3 320 321 364
3 364 321 365
3 321 322 366
3 365 321 366
3 322 323 366
3 366 323 367
3 323 324 368
3 367 323 368
3 324 325 369
3 368 324 369
3 325 326 370
3 369 325 370
3 326 327 371
3 370 326 371
3 327 328 371
3 371 328 372
3 328 318 362
3 372 328 362
3 329 373 374
3 330 329 374
3 330 374 331
3 331 374 375
3 331 375 376
3 332 331 376
3 332 376 333
3 333 376 377
3 333 377 378
3 334 333 378
3 334 378 379
3 335 334 379
3 335 379 336
3 336 379 380
3 336 380 381
3 337 336 381
3 337 381 338
3 338 381 382
3 338 382 383
3 339 338 383
3 340 384 385
3 341 340 385
3 329 385 373
3 329 341 385
3 342 383 386
3 342 339 383
3 342 386 387
3 343 342 387
3 344 388 340
3 340 388 384
3 345 343 387
3 389 345 387
3 346 390 388
3 344 346 388
3 347 345 391
3 391 345 389
3 348 392 346
3 346 392 390
3 349 347 391
3 393 349 391
3 350 394 348
3 348 394 392
3 351 349 395
3 395 349 393
3 352 396 350
3 350 396 394
3 353 351 395
3 397 353 395
3 354 398 396
3 352 354 396
3 355 353 399
3 399 353 397
3 356 400 354
3 354 400 398
3 357 355 399
3 401 357 399
3 358 402 400
3 356 358 400
3 359 357 403
3 403 357 401
3 358 360 404
3 402 358 404
3 404 361 405
3 404 360 361
3 406 363 407
3 406 362 363
3 363 359 403
3 407 363 403
3 361 364 408
3 405 361 408
3 364 365 408
3 408 365 409
3 365 366 410
3 409 365 410
3 366 367 410
3 410 367 411
3 367 368 412
3 411 367 412
3 368 369 412
3 412 369 413
3 369 370 413
3 413 370 414
3 370 371 415
3 414 370 415
3 371 372 415
3 415 372 416
3 372 362 406
3 416 372 406
3 373 417 418
3 374 373 418
3 374 418 375
3 375 418 419
3 375 419 420
3 376 375 420
3 376 420 377
3 377 420 421
3 377 421 422
3 378 377 422
3 378 422 423
3 379 378 423
3 380 423 424
3 380 379 423
3 380 424 425
3 381 380 425
3 382 425 426
3 382 381 425
3 382 426 427
3 383 382 427
3 384 428 429
3 385 384 429
3 373 429 417
3 373 385 429
3 386 427 430
3 386 383 427
3 386 430 431
3 387 386 431
3 384 432 428
3 384 388 432
3 389 387 431
3 433 389 431
3 390 434 432
3 388 390 432
3 435 389 433
3 435 391 389
3 390 436 434
3 390 392 436
3 393 391 435
3 437 393 435
3 394 438 436
3 392 394 436
3 395 393 439
3 439 393 437
3 396 440 438
3 394 396 438
3 397 395 439
3 441 397 439
3 398 442 440
3 396 398 440
3 399 397 443
3 443 397 441
3 400 444 398
3 398 444 442
3 401 399 443
3 445 401 443
3 402 446 444
3 400 402 444
3 403 401 447
3 447 401 445
3 402 404 448
3 446 402 448
3 448 405 449
3 448 404 405
3 450 407 451
3 450 406 407
3 407 403 447
3 451 407 447
3 405 408 452
3 449 405 452
3 408 409 452
3 452 409 453
3 409 410 454
3 453 409 454
3 410 411 454
3 454 411 455
3 411 412 456
3 455 411 456
3 412 413 456
3 456 413 457
3 457 414 458
3 457 413 414
3 414 415 459
3 458 414 459
3 415 416 459
3 459 416 460
3 416 406 450
3 460 416 450
3 418 461 462
3 418 417 461
3 419 462 463
3 419 418 462
3 419 463 464
3 420 419 464
3 420 464 421
3 421 464 465
3 421 465 466
3 422 421 466
3 422 466 467
3 423 422 467
3 424 467 468
3 424 423 467
3 424 468 469
3 425 424 469
3 426 469 470
3 426 425 469
3 427 426 471
3 471 426 470
3 429 428 473
3 473 428 472
3 417 473 505
3 417 429 473
3 430 427 471
3 520 430 471
3 431 474 475
3 431 430 474
3 428 476 472
3 428 432 476
3 433 431 475
3 477 433 475
3 434 478 476
3 432 434 476
3 479 433 477
3 479 435 433
3 434 480 478
3 434 436 480
3 437 435 479
3 481 437 479
3 438 482 436
3 436 482 480
3 439 437 483
3 483 437 481
3 440 484 482
3 438 440 482
3 441 439 483
3 485 441 483
3 442 486 440
3 440 486 484
3 443 441 487
3 487 441 485
3 444 488 442
3 442 488 486
3 445 443 487
3 489 445 487
3 444 446 488
3 488 446 490
3 491 445 489
3 491 447 445
3 490 446 492
3 492 446 448
3 492 449 493
3 492 448 449
3 494 451 495
3 494 450 451
3 451 447 491
3 495 451 491
3 449 452 496
3 493 449 496
3 496 453 497
3 496 452 453
3 453 454 498
3 497 453 498
3 498 455 499
3 498 454 455
3 455 456 500
3 499 455 500
3 456 457 501
3 500 456 501
3 457 458 502
3 501 457 502
3 458 459 503
3 502 458 503
3 503 460 504
3 503 459 460
3 504 460 494
3 494 460 450
3 461 505 506
3 462 461 506
3 507 463 462
3 507 462 506
3 465 463 508
3 508 463 507
3 464 463 465
3 465 508 509
3 465 509 466
3 466 509 510
3 466 510 467
3 467 510 511
3 467 511 468
3 468 511 512
3 468 512 513
3 469 468 513
3 469 513 470
3 515 470 514
3 470 513 514
3 470 515 471
3 472 516 473
3 518 516 517
3 518 505 516
3 461 417 505
3 505 473 516
3 505 518 506
3 515 514 519
3 474 430 520
3 521 520 519
3 520 471 515
3 520 515 519
3 474 520 524
3 476 522 472
3 516 472 523
3 472 522 523
3 516 523 517
3 520 521 524
3 477 475 524
3 524 475 474
3 525 477 524
3 478 526 522
3 476 478 522
3 527 477 525
3 527 479 477
3 478 528 526
3 478 480 528
3 481 479 527
3 529 481 527
3 482 530 480
3 480 530 528
3 483 481 531
3 531 481 529
3 484 532 530
3 482 484 530
3 485 483 531
3 533 485 531
3 486 534 484
3 484 534 532
3 535 485 533
3 535 487 485
3 486 536 534
3 486 488 536
3 537 489 535
3 535 489 487
3 490 538 539
3 536 490 539
3 488 490 536
3 538 540 539
3 541 542 543
3 541 489 537
3 542 541 537
3 541 491 489
3 490 492 538
3 545 493 544
3 538 492 493
3 538 493 545
3 540 538 545
3 544 546 545
3 547 548 549
3 543 495 541
3 547 494 495
3 547 495 543
3 608 547 543
3 495 491 541
3 493 496 544
3 544 497 550
3 546 544 550
3 544 496 497
3 550 497 551
3 551 497 498
3 498 499 551
3 551 499 552
3 499 500 552
3 552 500 553
3 500 501 553
3 553 501 554
3 554 502 555
3 554 501 502
3 502 503 556
3 555 502 556
3 503 504 556
3 549 504 547
3 556 504 549
3 504 494 547
3 506 557 507
3 507 557 558
3 508 507 558
3 508 558 559
3 509 508 559
3 509 559 560
3 510 509 560
3 510 560 561
3 511 510 561
3 511 561 562
3 512 511 562
3 514 512 563
3 563 512 562
3 513 512 514
3 517 564 518
3 518 564 557
3 566 564 565
3 557 564 566
3 557 506 518
3 558 566 567
3 558 557 566
3 559 567 568
3 559 558 567
3 560 568 569
3 560 559 568
3 561 569 570
3 561 560 569
3 562 570 571
3 562 561 570
3 563 562 571
3 572 563 571
3 574 514 563
3 572 574 563
3 573 519 574
3 574 519 514
3 519 573 521
3 522 575 523
3 577 575 576
3 577 517 575
3 564 517 577
3 575 517 523
3 564 577 565
3 573 574 572
3 521 573 579
3 580 573 578
3 579 573 580
3 579 524 521
3 524 579 525
3 522 581 575
3 522 526 581
3 576 581 582
3 576 575 581
3 583 580 584
3 583 579 580
3 583 525 579
3 583 527 525
3 526 585 581
3 526 528 585
3 582 585 586
3 582 581 585
3 587 584 588
3 587 583 584
3 587 527 583
3 587 529 527
3 528 589 585
3 528 530 589
3 586 589 590
3 586 585 589
3 591 588 592
3 591 587 588
3 591 529 587
3 591 531 529
3 532 593 589
3 530 532 589
3 590 593 594
3 590 589 593
3 595 592 596
3 595 591 592
3 595 531 591
3 595 533 531
3 534 597 593
3 532 534 593
3 594 597 598
3 594 593 597
3 599 596 600
3 599 595 596
3 599 533 595
3 599 535 533
3 534 601 597
3 534 536 601
3 602 597 601
3 602 598 597
3 603 599 600
3 604 603 600
3 603 535 599
3 603 537 535
3 536 539 601
3 606 540 605
3 606 602 540
3 602 601 539
3 540 602 539
3 605 607 606
3 608 609 610
3 608 543 609
3 604 542 603
3 609 543 542
3 609 542 604
3 542 537 603
3 540 545 605
3 605 546 607
3 612 607 611
3 605 545 546
3 607 546 611
3 612 613 614
3 612 611 613
3 614 615 616
3 614 613 615
3 616 617 618
3 616 615 617
3 618 619 620
3 618 617 619
3 620 621 622
3 620 619 621
3 622 623 624
3 622 621 623
3 610 548 608
3 624 623 548
3 624 548 610
3 548 623 549
3 548 547 608
3 546 550 611
3 611 550 613
3 613 550 551
3 551 552 615
3 613 551 615
3 552 553 617
3 615 552 617
3 553 554 619
3 617 553 619
3 554 555 621
3 619 554 621
3 621 555 623
3 623 555 556
3 556 549 623
3 565 625 626
3 567 566 626
3 626 566 565
3 567 626 627
3 568 567 627
3 568 627 628
3 569 568 628
3 569 628 629
3 570 569 629
3 570 629 630
3 571 570 630
3 572 571 631
3 631 571 630
3 572 631 578
3 576 632 577
3 625 632 633
3 565 577 632
3 565 632 625
3 625 633 634
3 626 625 634
3 626 634 627
3 627 634 635
3 627 635 628
3 628 635 636
3 628 636 629
3 629 636 637
3 629 637 630
3 630 637 638
3 631 638 639
3 631 630 638
3 640 578 639
3 578 573 572
3 578 631 639
3 578 640 580
3 576 641 632
3 576 582 641
3 633 641 642
3 633 632 641
3 633 642 643
3 634 633 643
3 634 643 644
3 635 634 644
3 635 644 645
3 636 635 645
3 636 645 646
3 637 636 646
3 637 646 647
3 638 637 647
3 638 647 648
3 639 638 648
3 640 648 649
3 640 639 648
3 584 580 640
3 649 584 640
3 582 650 641
3 582 586 650
3 642 650 651
3 642 641 650
3 642 651 652
3 643 642 652
3 643 652 653
3 644 643 653
3 644 653 645
3 645 653 654
3 645 654 646
3 646 654 655
3 646 655 647
3 647 655 656
3 647 656 648
3 648 656 657
3 648 657 649
3 649 657 658
3 588 584 649
3 658 588 649
3 586 659 650
3 586 590 659
3 650 659 651
3 651 659 660
3 651 660 661
3 652 651 661
3 652 661 662
3 653 652 662
3 653 662 654
3 654 662 663
3 654 663 664
3 655 654 664
3 655 664 665
3 656 655 665
3 656 665 666
3 657 656 666
3 657 666 658
3 658 666 667
3 592 588 658
3 667 592 658
3 590 668 659
3 590 594 668
3 660 668 669
3 660 659 668
3 660 669 670
3 661 660 670
3 661 670 671
3 662 661 671
3 662 671 663
3 663 671 672
3 663 672 664
3 664 672 673
3 664 673 665
3 665 673 674
3 665 674 666
3 666 674 675
3 666 675 667
3 667 675 676
3 596 592 667
3 676 596 667
3 594 677 668
3 594 598 677
3 668 677 669
3 669 677 678
3 669 678 679
3 670 669 679
3 670 679 680
3 671 670 680
3 671 680 681
3 672 671 681
3 672 681 682
3 673 672 682
3 673 682 683
3 674 673 683
3 674 683 684
3 675 674 684
3 676 684 685
3 676 675 684
3 600 596 676
3 685 600 676
3 598 686 677
3 598 602 606
3 678 686 687
3 678 677 686
3 678 687 679
3 679 687 688
3 679 688 680
3 680 688 689
3 680 689 681
3 681 689 690
3 681 690 682
3 682 690 691
3 683 691 692
3 683 682 691
3 684 692 693
3 684 683 692
3 685 693 694
3 685 684 693
3 694 604 685
3 685 604 600
3 598 606 686
3 606 607 695
3 686 606 695
3 686 695 687
3 688 687 696
3 696 687 695
3 688 696 697
3 689 688 697
3 689 697 698
3 690 689 698
3 690 698 699
3 691 690 699
3 691 699 700
3 692 691 700
3 692 700 701
3 693 692 701
3 610 609 694
3 701 610 694
3 701 694 693
3 609 604 694
3 607 612 695
3 695 612 696
3 696 612 614
3 614 616 697
3 696 614 697
3 616 618 698
3 697 616 698
3 618 620 699
3 698 618 699
3 620 622 700
3 699 620 700
3 622 624 701
3 700 622 701
3 624 610 701
