OFF
642 1280 0
0.080921 1.036712 0.472645
0.236712 0.978675 0.570399
0.178675 0.880921 0.414608
0.080221 0.620039 0.887152
0.200650 0.598250 0.718040
0.218681 0.699111 0.868921
-0.066720 1.000650 0.853070
-0.235832 0.880221 0.831282
-0.217601 1.018681 0.752210
-0.100889 0.582399 0.432639
-0.201750 0.733280 0.450671
-0.179961 0.564168 0.571099
0.176852 1.057644 0.495018
0.257644 0.956302 0.474469
0.156302 0.976852 0.393676
-0.099446 0.761364 0.867759
-0.216439 0.700554 0.689956
-0.038636 0.583561 0.750766
0.102146 0.835376 0.866121
0.220869 0.832243 0.747674
0.104812 1.010250 0.692561
-0.172049 1.056438 0.812988
-0.257364 0.973786 0.809862
-0.174719 0.958937 0.908158
0.256438 0.638333 0.823369
0.173786 0.641458 0.908685
0.158937 0.543163 0.826039
0.032243 0.703646 0.430451
0.210250 0.758759 0.546509
0.035376 0.585200 0.549175
-0.214800 0.902146 0.615944
-0.096354 1.020869 0.619078
-0.041241 0.904812 0.441070
-0.158542 0.542636 0.477534
-0.256837 0.625281 0.492383
-0.161667 0.627951 0.394882
0.000315 0.802343 0.926597
0.002415 1.075224 0.655138
0.002343 0.524723 0.651005
0.275224 0.796182 0.648905
-0.003818 0.802415 0.376097
-0.275277 0.800315 0.648978
0.132436 1.057441 0.475558
0.186583 1.030122 0.431119
0.123408 1.012279 0.421367
0.257441 0.975763 0.518884
0.230122 1.020201 0.464737
0.212279 1.029953 0.527913
0.220201 0.986583 0.421199
0.229953 0.923408 0.439041
0.175763 0.932436 0.393879
-0.002896 0.681310 0.879208
-0.066486 0.661773 0.810356
0.034753 0.598370 0.833917
-0.227888 0.797104 0.770011
-0.159036 0.733514 0.789547
-0.182597 0.834753 0.852950
-0.138227 0.640964 0.717806
-0.201630 0.617403 0.616568
-0.118690 0.572112 0.654216
0.015076 0.925641 0.861059
0.090524 0.932910 0.791471
0.015949 1.009704 0.777913
0.219297 0.749681 0.826386
0.163550 0.841071 0.806858
0.176430 0.750606 0.869467
0.166094 0.930011 0.717242
0.227795 0.917223 0.652911
0.183534 1.000344 0.616984
-0.127640 1.044960 0.837662
-0.187577 1.022671 0.875544
-0.128511 0.984154 0.898531
-0.240626 1.004470 0.780457
-0.225847 1.026401 0.837160
-0.202978 1.041928 0.781382
-0.228791 0.986060 0.872278
-0.255348 0.931126 0.828909
-0.210518 0.923822 0.882721
0.244960 0.613658 0.778960
0.222671 0.575776 0.838898
0.184154 0.552789 0.779831
0.204470 0.670863 0.891946
0.226401 0.614160 0.877167
0.241928 0.669938 0.854298
0.186060 0.579043 0.880111
0.131126 0.622411 0.906669
0.123822 0.568599 0.861838
-0.050319 0.624934 0.432023
0.041071 0.644463 0.487770
-0.049394 0.581853 0.474891
0.200344 0.834336 0.467786
0.130011 0.734078 0.485226
0.117223 0.798409 0.423525
0.132910 0.659850 0.560797
0.209704 0.673407 0.635371
0.125641 0.590262 0.636244
-0.209738 0.815076 0.525679
-0.140150 0.890524 0.518411
-0.126593 0.815949 0.441616
-0.175066 1.019297 0.701639
-0.155537 0.963550 0.610249
-0.218147 0.976430 0.700714
-0.065922 0.966094 0.521310
-0.001591 1.027795 0.534097
0.034336 0.983534 0.450976
-0.129137 0.559374 0.446851
-0.185840 0.574153 0.424919
-0.130062 0.597022 0.409392
-0.231401 0.589482 0.527498
-0.220957 0.571209 0.465261
-0.177589 0.544652 0.520194
-0.224224 0.612423 0.428649
-0.247211 0.671489 0.467167
-0.186342 0.672360 0.406360
0.095735 0.712366 0.923110
0.049645 0.697217 0.916279
0.136685 0.732029 0.905321
0.048445 0.819973 0.908869
-0.045962 0.910528 0.907453
-0.095230 0.891178 0.922722
-0.139232 0.866618 0.904717
-0.047668 0.783876 0.913538
-0.045346 1.061065 0.636856
0.051405 1.065455 0.549965
-0.135099 1.054864 0.722002
-0.093085 1.069495 0.744448
-0.044540 1.055507 0.763226
0.050595 1.058593 0.672690
0.140807 1.052424 0.586984
0.098064 1.073587 0.565405
0.110528 0.543867 0.697283
0.019973 0.542452 0.602875
-0.087634 0.528210 0.555585
-0.102783 0.535042 0.601675
-0.067971 0.545999 0.514635
0.066618 0.546603 0.790552
-0.016124 0.537782 0.698988
0.091178 0.528599 0.746550
0.258593 0.778630 0.600725
0.255507 0.688094 0.695861
0.252424 0.864336 0.510513
0.273587 0.885916 0.553256
0.265455 0.901355 0.599915
0.261065 0.814465 0.696666
0.254864 0.729318 0.786419
0.269495 0.706872 0.744405
-0.111906 0.755460 0.395814
-0.093128 0.706915 0.381825
0.014465 0.754654 0.390256
0.101355 0.851405 0.385866
-0.070682 0.664901 0.396456
0.064336 0.940807 0.398897
0.085916 0.898064 0.377733
-0.021370 0.850595 0.392727
-0.271401 0.704770 0.560142
-0.256133 0.754038 0.540793
-0.253397 0.660768 0.584702
-0.262218 0.752332 0.667444
-0.264958 0.849645 0.754103
-0.271790 0.895735 0.738954
-0.254001 0.936685 0.719291
-0.257548 0.848445 0.631347
0.106951 1.048625 0.471792
0.134841 1.038226 0.443570
0.102742 1.026316 0.445274
0.186169 1.047387 0.459497
0.162229 1.045895 0.449046
0.155916 1.060869 0.483452
0.157737 1.024011 0.422671
0.176842 1.006583 0.409366
0.141493 0.995627 0.403787
0.248625 0.979528 0.544369
0.238226 1.007751 0.516480
0.226316 1.006046 0.548579
0.247387 0.991823 0.465152
0.245895 1.002274 0.489092
0.260869 0.967868 0.495404
0.224011 1.028649 0.493583
0.206583 1.041954 0.474478
0.195627 1.047533 0.509827
0.210538 1.029269 0.445386
0.241954 0.976842 0.444738
0.229269 1.005934 0.440782
0.205934 1.010538 0.422051
0.191823 0.986169 0.403933
0.247533 0.941493 0.455694
0.228649 0.957737 0.427309
0.179528 0.906951 0.402695
0.207751 0.934841 0.413094
0.206046 0.902742 0.425004
0.202274 0.962229 0.405426
0.167868 0.955916 0.390452
0.043062 0.646197 0.883929
0.016220 0.636643 0.856695
0.062373 0.608209 0.865253
-0.082193 0.709797 0.840366
-0.032872 0.671651 0.848538
-0.051752 0.720879 0.873736
-0.015625 0.627537 0.821671
-0.051979 0.619142 0.779924
0.000182 0.590291 0.795081
-0.232609 0.843062 0.805124
-0.205374 0.816220 0.814677
-0.213933 0.862373 0.843111
-0.189046 0.717807 0.741523
-0.197217 0.767128 0.779669
-0.222415 0.748248 0.730441
-0.170351 0.784375 0.823783
-0.128604 0.748021 0.832178
-0.143761 0.800182 0.861029
-0.114906 0.697831 0.799763
-0.180858 0.671396 0.703300
-0.148443 0.685094 0.753490
-0.102169 0.651557 0.766226
-0.090203 0.610954 0.733513
-0.209709 0.656239 0.651138
-0.172463 0.629649 0.666945
-0.153803 0.567391 0.608258
-0.163357 0.594626 0.635100
-0.191791 0.586067 0.588947
-0.128349 0.602783 0.684192
-0.079121 0.577585 0.703072
-0.027670 0.966205 0.857661
0.010862 0.971354 0.823321
-0.027269 1.006142 0.818082
0.093084 0.885746 0.832718
0.051768 0.930429 0.828066
0.059128 0.881191 0.863784
0.052309 0.974384 0.784590
0.094482 0.975095 0.744076
0.060686 1.011143 0.735219
0.219331 0.717803 0.853691
0.197717 0.753766 0.847695
0.203249 0.718153 0.869853
0.193577 0.838364 0.776443
0.194599 0.794286 0.815962
0.219573 0.789225 0.790160
0.168111 0.794894 0.842539
0.132492 0.839971 0.837443
0.141833 0.791010 0.868114
0.128252 0.887804 0.798839
0.195220 0.882476 0.731556
0.162872 0.886701 0.764526
0.129213 0.932874 0.753837
0.135310 0.973270 0.704298
0.223613 0.875875 0.701102
0.199464 0.924711 0.683162
0.214458 0.990839 0.588740
0.205926 0.961889 0.634615
0.232661 0.952828 0.607340
0.173070 0.968950 0.667032
0.146314 1.006803 0.652413
-0.099638 1.027037 0.846525
-0.132798 1.018908 0.872472
-0.100039 0.993404 0.880136
-0.183253 1.043541 0.847904
-0.160301 1.035491 0.861703
-0.151598 1.054543 0.826409
-0.160841 1.008101 0.888983
-0.184653 0.994457 0.895864
-0.153154 0.972708 0.907876
-0.228204 1.014142 0.764746
-0.225644 1.027136 0.789930
-0.212828 1.029473 0.765096
-0.244094 1.003180 0.829837
-0.236687 1.017672 0.811191
-0.251067 0.990765 0.796124
-0.216255 1.037849 0.811799
-0.202020 1.043975 0.831440
-0.189188 1.051825 0.797908
-0.209254 1.028516 0.858434
-0.246519 0.984247 0.844648
-0.230148 1.008928 0.857335
-0.210219 1.006372 0.879173
-0.204849 0.977878 0.893284
-0.258985 0.953951 0.821116
-0.243895 0.961207 0.855250
-0.224914 0.902531 0.858816
-0.236227 0.934353 0.860771
-0.247044 0.906028 0.832478
-0.222014 0.957835 0.881284
-0.193689 0.942777 0.899733
0.227037 0.604796 0.750959
0.218908 0.578849 0.784118
0.193404 0.571185 0.751359
0.243541 0.603416 0.834574
0.235491 0.589617 0.811621
0.254543 0.624911 0.802918
0.208101 0.562337 0.812161
0.194457 0.555457 0.835973
0.172708 0.543445 0.804474
0.214142 0.686574 0.879525
0.227136 0.661391 0.876964
0.229473 0.686224 0.864149
0.203180 0.621483 0.895415
0.217672 0.640129 0.888007
0.190765 0.655196 0.902388
0.237849 0.639521 0.867575
0.243975 0.619880 0.853340
0.251825 0.653412 0.840509
0.228516 0.592887 0.860574
0.184247 0.606672 0.897839
0.208928 0.593985 0.881468
0.206372 0.572147 0.861539
0.177878 0.558036 0.856170
0.153951 0.630204 0.910305
0.161207 0.596071 0.895215
0.102531 0.592505 0.876234
0.134353 0.590549 0.887548
0.106028 0.618842 0.898365
0.157835 0.570036 0.873334
0.142777 0.551588 0.845009
-0.082197 0.597630 0.431989
-0.046234 0.603625 0.453603
-0.081847 0.581467 0.448071
0.038364 0.674877 0.457743
-0.005714 0.635358 0.456721
-0.010775 0.661160 0.431747
-0.005106 0.608781 0.483209
0.039971 0.613878 0.518828
-0.008990 0.583206 0.509487
0.190839 0.862581 0.436862
0.161889 0.816705 0.445394
0.152828 0.843980 0.418659
0.173270 0.747022 0.516010
0.168950 0.784288 0.478250
0.206803 0.798908 0.505007
0.124711 0.768158 0.451856
0.082476 0.719765 0.456100
0.075875 0.750218 0.427707
0.086701 0.686794 0.488448
0.175095 0.707244 0.556838
0.132874 0.697483 0.522107
0.087804 0.652481 0.523068
0.085746 0.618602 0.558236
0.211143 0.716101 0.590634
0.174384 0.666730 0.599012
0.166205 0.593659 0.678990
0.171354 0.627999 0.640459
0.206142 0.633239 0.678589
0.130429 0.623255 0.599553
0.081191 0.587536 0.592192
-0.206341 0.772330 0.485116
-0.172001 0.810862 0.479966
-0.166761 0.772731 0.445178
-0.181398 0.893084 0.565575
-0.176745 0.851768 0.520891
-0.212464 0.859128 0.570129
-0.133270 0.852309 0.476936
-0.092756 0.894482 0.476226
-0.083899 0.860686 0.440177
-0.202370 1.019331 0.733517
-0.196375 0.997717 0.697554
-0.218533 1.003249 0.733167
-0.125123 0.993577 0.612956
-0.164642 0.994599 0.657035
-0.138840 1.019573 0.662096
-0.191219 0.968111 0.656426
-0.186122 0.932492 0.611350
-0.216794 0.941833 0.660310
-0.147519 0.928252 0.563516
-0.080235 0.995220 0.568844
-0.113206 0.962872 0.564619
-0.102517 0.929213 0.518446
-0.052978 0.935310 0.478050
-0.049782 1.023613 0.575445
-0.031842 0.999464 0.526609
0.062581 1.014458 0.460481
0.016705 1.005926 0.489431
0.043980 1.032661 0.498492
-0.015712 0.973070 0.482370
-0.001092 0.946314 0.444518
-0.113426 0.571796 0.437179
-0.138609 0.574356 0.424185
-0.113776 0.587172 0.421848
-0.178517 0.555906 0.448141
-0.159871 0.563313 0.433648
-0.144804 0.548933 0.460556
-0.160479 0.583745 0.413472
-0.180120 0.597980 0.407345
-0.146588 0.610812 0.399495
-0.207495 0.575086 0.548789
-0.209451 0.563773 0.516968
-0.181158 0.552956 0.545292
-0.241964 0.595151 0.473442
-0.229964 0.577986 0.493486
-0.248412 0.606311 0.508543
-0.203929 0.556105 0.490113
-0.193328 0.553481 0.467074
-0.169796 0.541015 0.497369
-0.206015 0.569852 0.442392
-0.244543 0.615347 0.456863
-0.227853 0.589781 0.444948
-0.207113 0.590746 0.422804
-0.196584 0.616747 0.407779
-0.256555 0.646846 0.478613
-0.237663 0.639159 0.443219
-0.195204 0.700362 0.424284
-0.221151 0.667202 0.432413
-0.228815 0.699961 0.457916
-0.210383 0.639699 0.415829
-0.175089 0.648402 0.396777
0.093697 0.657419 0.913762
0.068689 0.653009 0.902896
0.137703 0.672991 0.917614
0.116636 0.663848 0.918421
0.073402 0.704145 0.923011
0.049278 0.756380 0.925913
0.025938 0.748149 0.924731
0.189265 0.708465 0.886168
0.117526 0.783299 0.890310
0.156592 0.742269 0.889066
0.173989 0.696211 0.900405
0.156605 0.683979 0.911337
0.116597 0.721793 0.916945
0.074290 0.828305 0.890211
0.094373 0.774351 0.907895
0.071838 0.765178 0.920035
0.024020 0.811187 0.921266
0.028574 0.874341 0.889429
-0.060979 0.959122 0.884913
-0.017304 0.918739 0.887797
0.000886 0.866206 0.908816
-0.024581 0.857388 0.921129
-0.089711 0.950706 0.904258
-0.137782 0.929054 0.917346
-0.115017 0.940737 0.915135
-0.071598 0.901404 0.919221
-0.048580 0.848078 0.925572
-0.196398 0.882149 0.873425
-0.118896 0.814434 0.889844
-0.160795 0.851605 0.882880
-0.178134 0.899917 0.896121
-0.158623 0.915561 0.911063
-0.117607 0.879721 0.917942
-0.072761 0.773277 0.894822
-0.095236 0.827015 0.910094
-0.071997 0.838116 0.921948
-0.023477 0.793426 0.924075
-0.024075 0.730813 0.898807
0.024024 0.690103 0.901801
0.001623 0.739789 0.915751
0.025560 1.050179 0.542539
0.069954 1.052297 0.505693
-0.070104 1.043762 0.627517
-0.022138 1.046833 0.583682
0.003585 1.063797 0.592394
-0.021330 1.071803 0.646192
0.027998 1.073643 0.600937
-0.188136 1.035788 0.743864
-0.154940 1.060141 0.770181
-0.172622 1.049968 0.756880
-0.155137 1.038882 0.710822
-0.114987 1.041350 0.670865
-0.092196 1.058201 0.680958
-0.135404 1.064333 0.782817
-0.114665 1.065393 0.733511
-0.069578 1.069042 0.691214
-0.046523 1.073012 0.700989
-0.113405 1.061682 0.794146
-0.060212 1.032709 0.811706
-0.088575 1.051270 0.803800
-0.069888 1.066417 0.754427
-0.022699 1.069464 0.710156
-0.016166 1.036640 0.770919
0.076671 1.038518 0.682142
0.030191 1.038643 0.726861
0.002599 1.058012 0.718638
0.026081 1.070791 0.663825
0.197451 1.021025 0.569659
0.160496 1.059507 0.538160
0.179603 1.043798 0.552694
0.162074 1.030301 0.601005
0.121202 1.036050 0.639279
0.097317 1.057042 0.627944
0.140358 1.067873 0.526388
0.119638 1.066747 0.575244
0.074263 1.070196 0.618044
0.051430 1.075725 0.609182
0.118579 1.069111 0.516984
0.095238 1.063969 0.510390
0.075370 1.073057 0.557057
0.159122 0.566408 0.712299
0.118739 0.563524 0.668624
0.011187 0.530054 0.627301
0.066206 0.542504 0.650434
0.057388 0.530191 0.675901
0.074341 0.561892 0.622746
0.028305 0.561109 0.577030
-0.142581 0.537558 0.557623
-0.146991 0.548424 0.582632
-0.127009 0.533706 0.513617
-0.136152 0.532899 0.534684
-0.095855 0.528309 0.577918
-0.043620 0.525407 0.602042
-0.051851 0.526589 0.625382
-0.034822 0.531285 0.579482
-0.116021 0.539984 0.494715
-0.078207 0.534376 0.534724
-0.025649 0.543425 0.556948
-0.016701 0.561011 0.533795
-0.103789 0.550915 0.477331
-0.091535 0.565153 0.462056
-0.057731 0.562255 0.494728
0.082149 0.577895 0.847718
0.014434 0.561476 0.770216
0.051605 0.568440 0.812115
0.099917 0.555199 0.829454
0.115561 0.540257 0.809943
-0.109897 0.549519 0.627296
-0.006574 0.527245 0.674797
-0.060211 0.535570 0.649697
-0.069187 0.552513 0.675395
-0.026723 0.556498 0.724081
0.027015 0.541226 0.746557
0.048078 0.525748 0.699901
0.038116 0.529373 0.723317
0.079721 0.533378 0.768927
0.129054 0.533974 0.789103
0.101404 0.532099 0.722918
0.150706 0.547062 0.741031
0.140737 0.536185 0.766338
0.236640 0.680402 0.667487
0.232709 0.639614 0.711532
0.238518 0.769178 0.574650
0.238643 0.724459 0.621129
0.258012 0.732682 0.648721
0.270791 0.787495 0.625239
0.269464 0.741165 0.674019
0.221025 0.881662 0.453869
0.259507 0.913160 0.490824
0.243798 0.898626 0.471717
0.230301 0.850315 0.489246
0.236050 0.812042 0.530119
0.257042 0.823376 0.554003
0.267873 0.924932 0.510962
0.266747 0.876076 0.531682
0.270196 0.833277 0.577057
0.275725 0.842138 0.599890
0.269111 0.934336 0.532741
0.252297 0.945627 0.581366
0.263969 0.940930 0.556082
0.273057 0.894263 0.575950
0.273643 0.850383 0.623323
0.250179 0.908782 0.625760
0.243762 0.823803 0.721425
0.246833 0.867638 0.673458
0.263797 0.858926 0.647735
0.271803 0.805129 0.672650
0.235788 0.707456 0.839456
0.260141 0.681140 0.806260
0.249968 0.694440 0.823942
0.238882 0.740498 0.806457
0.241350 0.780456 0.766307
0.258201 0.770363 0.743516
0.264333 0.668503 0.786724
0.265393 0.717809 0.765985
0.269042 0.760106 0.720898
0.273012 0.750331 0.697843
0.261682 0.657175 0.764725
0.251270 0.647520 0.739896
0.266417 0.696894 0.721209
-0.160386 0.739788 0.418611
-0.152480 0.711425 0.400051
-0.049669 0.753477 0.378308
-0.103106 0.730112 0.384903
-0.058835 0.777301 0.381856
-0.142825 0.686595 0.389639
-0.131497 0.664596 0.386987
0.108782 0.825560 0.401141
0.145627 0.869954 0.399024
0.023803 0.729896 0.407558
0.067638 0.777862 0.404488
0.058926 0.803585 0.387523
0.005129 0.778670 0.379517
0.050383 0.827998 0.377677
-0.039894 0.730422 0.382278
-0.019544 0.685013 0.409970
-0.029637 0.707804 0.393120
-0.082191 0.685335 0.385927
-0.118860 0.645060 0.391179
-0.059502 0.644863 0.412439
-0.092544 0.611864 0.415532
-0.105560 0.627378 0.401353
0.081662 0.997451 0.430296
0.113160 0.960496 0.391813
0.098626 0.979603 0.407523
0.050315 0.962074 0.421019
0.012042 0.921202 0.415270
0.140930 0.895238 0.387351
0.042138 0.851430 0.375595
0.094263 0.875370 0.378264
0.134336 0.918579 0.382209
0.124932 0.940358 0.383447
0.076076 0.919638 0.384573
-0.012505 0.826081 0.380530
0.033277 0.874263 0.381124
0.023376 0.897317 0.394278
-0.030822 0.876671 0.412802
-0.067318 0.802599 0.393308
-0.119598 0.783834 0.414680
-0.075541 0.830191 0.412677
-0.252938 0.710289 0.500614
-0.233592 0.739021 0.492199
-0.266026 0.662218 0.522266
-0.263815 0.684983 0.510583
-0.267901 0.728402 0.549916
-0.274252 0.751420 0.603242
-0.269809 0.775419 0.593932
-0.222105 0.603602 0.569171
-0.238524 0.681104 0.636886
-0.231560 0.639205 0.599715
-0.244801 0.621866 0.551403
-0.259743 0.641377 0.535760
-0.266622 0.682393 0.571600
-0.243502 0.727239 0.678043
-0.258774 0.704764 0.624305
-0.270627 0.728003 0.613204
-0.272755 0.776523 0.657894
-0.247487 0.775925 0.720508
-0.251576 0.868689 0.798312
-0.250481 0.824024 0.761217
-0.264430 0.801623 0.711531
-0.273411 0.825938 0.703171
-0.262442 0.893697 0.793901
-0.266294 0.937703 0.778329
-0.267101 0.916636 0.787472
-0.271691 0.873402 0.747175
-0.274593 0.849278 0.694940
-0.234847 0.989265 0.742855
-0.238989 0.917526 0.668021
-0.237745 0.956592 0.709052
-0.249085 0.973989 0.755110
-0.260016 0.956605 0.767341
-0.265624 0.916597 0.729527
-0.238891 0.874290 0.623015
-0.256575 0.894373 0.676969
-0.268715 0.871838 0.686143
-0.269946 0.824020 0.640133
-0.238108 0.828574 0.576979
-0.236476 0.782696 0.532582
-0.257496 0.800886 0.585114
3 0 162 164
3 42 163 162
3 162 163 164
3 163 44 164
3 12 165 167
3 43 166 165
3 165 166 167
3 166 42 167
3 42 166 163
3 43 168 166
3 166 168 163
3 168 44 163
3 43 169 168
3 14 170 169
3 169 170 168
3 170 44 168
3 1 171 173
3 45 172 171
3 171 172 173
3 172 47 173
3 13 174 176
3 46 175 174
3 174 175 176
3 175 45 176
3 45 175 172
3 46 177 175
3 175 177 172
3 177 47 172
3 46 178 177
3 12 179 178
3 178 179 177
3 179 47 177
3 12 178 165
3 46 180 178
3 178 180 165
3 180 43 165
3 13 181 174
3 48 182 181
3 181 182 174
3 182 46 174
3 46 182 180
3 48 183 182
3 182 183 180
3 183 43 180
3 48 184 183
3 14 169 184
3 184 169 183
3 169 43 183
3 13 185 181
3 49 186 185
3 185 186 181
3 186 48 181
3 2 187 189
3 50 188 187
3 187 188 189
3 188 49 189
3 49 188 186
3 50 190 188
3 188 190 186
3 190 48 186
3 50 191 190
3 14 184 191
3 191 184 190
3 184 48 190
3 3 192 194
3 51 193 192
3 192 193 194
3 193 53 194
3 15 195 197
3 52 196 195
3 195 196 197
3 196 51 197
3 51 196 193
3 52 198 196
3 196 198 193
3 198 53 193
3 52 199 198
3 17 200 199
3 199 200 198
3 200 53 198
3 7 201 203
3 54 202 201
3 201 202 203
3 202 56 203
3 16 204 206
3 55 205 204
3 204 205 206
3 205 54 206
3 54 205 202
3 55 207 205
3 205 207 202
3 207 56 202
3 55 208 207
3 15 209 208
3 208 209 207
3 209 56 207
3 15 208 195
3 55 210 208
3 208 210 195
3 210 52 195
3 16 211 204
3 57 212 211
3 211 212 204
3 212 55 204
3 55 212 210
3 57 213 212
3 212 213 210
3 213 52 210
3 57 214 213
3 17 199 214
3 214 199 213
3 199 52 213
3 16 215 211
3 58 216 215
3 215 216 211
3 216 57 211
3 11 217 219
3 59 218 217
3 217 218 219
3 218 58 219
3 58 218 216
3 59 220 218
3 218 220 216
3 220 57 216
3 59 221 220
3 17 214 221
3 221 214 220
3 214 57 220
3 6 222 224
3 60 223 222
3 222 223 224
3 223 62 224
3 18 225 227
3 61 226 225
3 225 226 227
3 226 60 227
3 60 226 223
3 61 228 226
3 226 228 223
3 228 62 223
3 61 229 228
3 20 230 229
3 229 230 228
3 230 62 228
3 5 231 233
3 63 232 231
3 231 232 233
3 232 65 233
3 19 234 236
3 64 235 234
3 234 235 236
3 235 63 236
3 63 235 232
3 64 237 235
3 235 237 232
3 237 65 232
3 64 238 237
3 18 239 238
3 238 239 237
3 239 65 237
3 18 238 225
3 64 240 238
3 238 240 225
3 240 61 225
3 19 241 234
3 66 242 241
3 241 242 234
3 242 64 234
3 64 242 240
3 66 243 242
3 242 243 240
3 243 61 240
3 66 244 243
3 20 229 244
3 244 229 243
3 229 61 243
3 19 245 241
3 67 246 245
3 245 246 241
3 246 66 241
3 1 247 249
3 68 248 247
3 247 248 249
3 248 67 249
3 67 248 246
3 68 250 248
3 248 250 246
3 250 66 246
3 68 251 250
3 20 244 251
3 251 244 250
3 244 66 250
3 6 252 254
3 69 253 252
3 252 253 254
3 253 71 254
3 21 255 257
3 70 256 255
3 255 256 257
3 256 69 257
3 69 256 253
3 70 258 256
3 256 258 253
3 258 71 253
3 70 259 258
3 23 260 259
3 259 260 258
3 260 71 258
3 8 261 263
3 72 262 261
3 261 262 263
3 262 74 263
3 22 264 266
3 73 265 264
3 264 265 266
3 265 72 266
3 72 265 262
3 73 267 265
3 265 267 262
3 267 74 262
3 73 268 267
3 21 269 268
3 268 269 267
3 269 74 267
3 21 268 255
3 73 270 268
3 268 270 255
3 270 70 255
3 22 271 264
3 75 272 271
3 271 272 264
3 272 73 264
3 73 272 270
3 75 273 272
3 272 273 270
3 273 70 270
3 75 274 273
3 23 259 274
3 274 259 273
3 259 70 273
3 22 275 271
3 76 276 275
3 275 276 271
3 276 75 271
3 7 277 279
3 77 278 277
3 277 278 279
3 278 76 279
3 76 278 276
3 77 280 278
3 278 280 276
3 280 75 276
3 77 281 280
3 23 274 281
3 281 274 280
3 274 75 280
3 4 282 284
3 78 283 282
3 282 283 284
3 283 80 284
3 24 285 287
3 79 286 285
3 285 286 287
3 286 78 287
3 78 286 283
3 79 288 286
3 286 288 283
3 288 80 283
3 79 289 288
3 26 290 289
3 289 290 288
3 290 80 288
3 5 291 293
3 81 292 291
3 291 292 293
3 292 83 293
3 25 294 296
3 82 295 294
3 294 295 296
3 295 81 296
3 81 295 292
3 82 297 295
3 295 297 292
3 297 83 292
3 82 298 297
3 24 299 298
3 298 299 297
3 299 83 297
3 24 298 285
3 82 300 298
3 298 300 285
3 300 79 285
3 25 301 294
3 84 302 301
3 301 302 294
3 302 82 294
3 82 302 300
3 84 303 302
3 302 303 300
3 303 79 300
3 84 304 303
3 26 289 304
3 304 289 303
3 289 79 303
3 25 305 301
3 85 306 305
3 305 306 301
3 306 84 301
3 3 307 309
3 86 308 307
3 307 308 309
3 308 85 309
3 85 308 306
3 86 310 308
3 308 310 306
3 310 84 306
3 86 311 310
3 26 304 311
3 311 304 310
3 304 84 310
3 9 312 314
3 87 313 312
3 312 313 314
3 313 89 314
3 27 315 317
3 88 316 315
3 315 316 317
3 316 87 317
3 87 316 313
3 88 318 316
3 316 318 313
3 318 89 313
3 88 319 318
3 29 320 319
3 319 320 318
3 320 89 318
3 2 321 323
3 90 322 321
3 321 322 323
3 322 92 323
3 28 324 326
3 91 325 324
3 324 325 326
3 325 90 326
3 90 325 322
3 91 327 325
3 325 327 322
3 327 92 322
3 91 328 327
3 27 329 328
3 328 329 327
3 329 92 327
3 27 328 315
3 91 330 328
3 328 330 315
3 330 88 315
3 28 331 324
3 93 332 331
3 331 332 324
3 332 91 324
3 91 332 330
3 93 333 332
3 332 333 330
3 333 88 330
3 93 334 333
3 29 319 334
3 334 319 333
3 319 88 333
3 28 335 331
3 94 336 335
3 335 336 331
3 336 93 331
3 4 337 339
3 95 338 337
3 337 338 339
3 338 94 339
3 94 338 336
3 95 340 338
3 338 340 336
3 340 93 336
3 95 341 340
3 29 334 341
3 341 334 340
3 334 93 340
3 10 342 344
3 96 343 342
3 342 343 344
3 343 98 344
3 30 345 347
3 97 346 345
3 345 346 347
3 346 96 347
3 96 346 343
3 97 348 346
3 346 348 343
3 348 98 343
3 97 349 348
3 32 350 349
3 349 350 348
3 350 98 348
3 8 351 353
3 99 352 351
3 351 352 353
3 352 101 353
3 31 354 356
3 100 355 354
3 354 355 356
3 355 99 356
3 99 355 352
3 100 357 355
3 355 357 352
3 357 101 352
3 100 358 357
3 30 359 358
3 358 359 357
3 359 101 357
3 30 358 345
3 100 360 358
3 358 360 345
3 360 97 345
3 31 361 354
3 102 362 361
3 361 362 354
3 362 100 354
3 100 362 360
3 102 363 362
3 362 363 360
3 363 97 360
3 102 364 363
3 32 349 364
3 364 349 363
3 349 97 363
3 31 365 361
3 103 366 365
3 365 366 361
3 366 102 361
3 0 367 369
3 104 368 367
3 367 368 369
3 368 103 369
3 103 368 366
3 104 370 368
3 368 370 366
3 370 102 366
3 104 371 370
3 32 364 371
3 371 364 370
3 364 102 370
3 9 372 374
3 105 373 372
3 372 373 374
3 373 107 374
3 33 375 377
3 106 376 375
3 375 376 377
3 376 105 377
3 105 376 373
3 106 378 376
3 376 378 373
3 378 107 373
3 106 379 378
3 35 380 379
3 379 380 378
3 380 107 378
3 11 381 383
3 108 382 381
3 381 382 383
3 382 110 383
3 34 384 386
3 109 385 384
3 384 385 386
3 385 108 386
3 108 385 382
3 109 387 385
3 385 387 382
3 387 110 382
3 109 388 387
3 33 389 388
3 388 389 387
3 389 110 387
3 33 388 375
3 109 390 388
3 388 390 375
3 390 106 375
3 34 391 384
3 111 392 391
3 391 392 384
3 392 109 384
3 109 392 390
3 111 393 392
3 392 393 390
3 393 106 390
3 111 394 393
3 35 379 394
3 394 379 393
3 379 106 393
3 34 395 391
3 112 396 395
3 395 396 391
3 396 111 391
3 10 397 399
3 113 398 397
3 397 398 399
3 398 112 399
3 112 398 396
3 113 400 398
3 398 400 396
3 400 111 396
3 113 401 400
3 35 394 401
3 401 394 400
3 394 111 400
3 3 309 403
3 85 402 309
3 309 402 403
3 402 115 403
3 25 404 305
3 114 405 404
3 404 405 305
3 405 85 305
3 85 405 402
3 114 406 405
3 405 406 402
3 406 115 402
3 114 407 406
3 36 408 407
3 407 408 406
3 408 115 406
3 5 233 291
3 65 409 233
3 233 409 291
3 409 81 291
3 18 410 239
3 116 411 410
3 410 411 239
3 411 65 239
3 65 411 409
3 116 412 411
3 411 412 409
3 412 81 409
3 116 413 412
3 25 296 413
3 413 296 412
3 296 81 412
3 25 413 404
3 116 414 413
3 413 414 404
3 414 114 404
3 18 415 410
3 117 416 415
3 415 416 410
3 416 116 410
3 116 416 414
3 117 417 416
3 416 417 414
3 417 114 414
3 117 418 417
3 36 407 418
3 418 407 417
3 407 114 417
3 18 227 415
3 60 419 227
3 227 419 415
3 419 117 415
3 6 420 222
3 118 421 420
3 420 421 222
3 421 60 222
3 60 421 419
3 118 422 421
3 421 422 419
3 422 117 419
3 118 423 422
3 36 418 423
3 423 418 422
3 418 117 422
3 6 254 420
3 71 424 254
3 254 424 420
3 424 118 420
3 23 425 260
3 119 426 425
3 425 426 260
3 426 71 260
3 71 426 424
3 119 427 426
3 426 427 424
3 427 118 424
3 119 428 427
3 36 423 428
3 428 423 427
3 423 118 427
3 7 203 277
3 56 429 203
3 203 429 277
3 429 77 277
3 15 430 209
3 120 431 430
3 430 431 209
3 431 56 209
3 56 431 429
3 120 432 431
3 431 432 429
3 432 77 429
3 120 433 432
3 23 281 433
3 433 281 432
3 281 77 432
3 23 433 425
3 120 434 433
3 433 434 425
3 434 119 425
3 15 435 430
3 121 436 435
3 435 436 430
3 436 120 430
3 120 436 434
3 121 437 436
3 436 437 434
3 437 119 434
3 121 438 437
3 36 428 438
3 438 428 437
3 428 119 437
3 15 197 435
3 51 439 197
3 197 439 435
3 439 121 435
3 3 403 192
3 115 440 403
3 403 440 192
3 440 51 192
3 51 440 439
3 115 441 440
3 440 441 439
3 441 121 439
3 115 408 441
3 36 438 408
3 408 438 441
3 438 121 441
3 0 369 443
3 103 442 369
3 369 442 443
3 442 123 443
3 31 444 365
3 122 445 444
3 444 445 365
3 445 103 365
3 103 445 442
3 122 446 445
3 445 446 442
3 446 123 442
3 122 447 446
3 37 448 447
3 447 448 446
3 448 123 446
3 8 263 351
3 74 449 263
3 263 449 351
3 449 99 351
3 21 450 269
3 124 451 450
3 450 451 269
3 451 74 269
3 74 451 449
3 124 452 451
3 451 452 449
3 452 99 449
3 124 453 452
3 31 356 453
3 453 356 452
3 356 99 452
3 31 453 444
3 124 454 453
3 453 454 444
3 454 122 444
3 21 455 450
3 125 456 455
3 455 456 450
3 456 124 450
3 124 456 454
3 125 457 456
3 456 457 454
3 457 122 454
3 125 458 457
3 37 447 458
3 458 447 457
3 447 122 457
3 21 257 455
3 69 459 257
3 257 459 455
3 459 125 455
3 6 460 252
3 126 461 460
3 460 461 252
3 461 69 252
3 69 461 459
3 126 462 461
3 461 462 459
3 462 125 459
3 126 463 462
3 37 458 463
3 463 458 462
3 458 125 462
3 6 224 460
3 62 464 224
3 224 464 460
3 464 126 460
3 20 465 230
3 127 466 465
3 465 466 230
3 466 62 230
3 62 466 464
3 127 467 466
3 466 467 464
3 467 126 464
3 127 468 467
3 37 463 468
3 468 463 467
3 463 126 467
3 1 173 247
3 47 469 173
3 173 469 247
3 469 68 247
3 12 470 179
3 128 471 470
3 470 471 179
3 471 47 179
3 47 471 469
3 128 472 471
3 471 472 469
3 472 68 469
3 128 473 472
3 20 251 473
3 473 251 472
3 251 68 472
3 20 473 465
3 128 474 473
3 473 474 465
3 474 127 465
3 12 475 470
3 129 476 475
3 475 476 470
3 476 128 470
3 128 476 474
3 129 477 476
3 476 477 474
3 477 127 474
3 129 478 477
3 37 468 478
3 478 468 477
3 468 127 477
3 12 167 475
3 42 479 167
3 167 479 475
3 479 129 475
3 0 443 162
3 123 480 443
3 443 480 162
3 480 42 162
3 42 480 479
3 123 481 480
3 480 481 479
3 481 129 479
3 123 448 481
3 37 478 448
3 448 478 481
3 478 129 481
3 4 482 337
3 130 483 482
3 482 483 337
3 483 95 337
3 38 484 486
3 131 485 484
3 484 485 486
3 485 130 486
3 130 485 483
3 131 487 485
3 485 487 483
3 487 95 483
3 131 488 487
3 29 341 488
3 488 341 487
3 341 95 487
3 11 383 490
3 110 489 383
3 383 489 490
3 489 133 490
3 33 491 389
3 132 492 491
3 491 492 389
3 492 110 389
3 110 492 489
3 132 493 492
3 492 493 489
3 493 133 489
3 132 494 493
3 38 495 494
3 494 495 493
3 495 133 493
3 38 494 484
3 132 496 494
3 494 496 484
3 496 131 484
3 33 497 491
3 134 498 497
3 497 498 491
3 498 132 491
3 132 498 496
3 134 499 498
3 498 499 496
3 499 131 496
3 134 500 499
3 29 488 500
3 500 488 499
3 488 131 499
3 33 377 497
3 105 501 377
3 377 501 497
3 501 134 497
3 9 314 372
3 89 502 314
3 314 502 372
3 502 105 372
3 105 502 501
3 89 503 502
3 502 503 501
3 503 134 501
3 89 320 503
3 29 500 320
3 320 500 503
3 500 134 503
3 3 194 307
3 53 504 194
3 194 504 307
3 504 86 307
3 17 505 200
3 135 506 505
3 505 506 200
3 506 53 200
3 53 506 504
3 135 507 506
3 506 507 504
3 507 86 504
3 135 508 507
3 26 311 508
3 508 311 507
3 311 86 507
3 11 490 217
3 133 509 490
3 490 509 217
3 509 59 217
3 38 510 495
3 136 511 510
3 510 511 495
3 511 133 495
3 133 511 509
3 136 512 511
3 511 512 509
3 512 59 509
3 136 513 512
3 17 221 513
3 513 221 512
3 221 59 512
3 17 513 505
3 136 514 513
3 513 514 505
3 514 135 505
3 38 515 510
3 137 516 515
3 515 516 510
3 516 136 510
3 136 516 514
3 137 517 516
3 516 517 514
3 517 135 514
3 137 518 517
3 26 508 518
3 518 508 517
3 508 135 517
3 38 486 515
3 130 519 486
3 486 519 515
3 519 137 515
3 4 284 482
3 80 520 284
3 284 520 482
3 520 130 482
3 130 520 519
3 80 521 520
3 520 521 519
3 521 137 519
3 80 290 521
3 26 518 290
3 290 518 521
3 518 137 521
3 4 339 523
3 94 522 339
3 339 522 523
3 522 139 523
3 28 524 335
3 138 525 524
3 524 525 335
3 525 94 335
3 94 525 522
3 138 526 525
3 525 526 522
3 526 139 522
3 138 527 526
3 39 528 527
3 527 528 526
3 528 139 526
3 2 189 321
3 49 529 189
3 189 529 321
3 529 90 321
3 13 530 185
3 140 531 530
3 530 531 185
3 531 49 185
3 49 531 529
3 140 532 531
3 531 532 529
3 532 90 529
3 140 533 532
3 28 326 533
3 533 326 532
3 326 90 532
3 28 533 524
3 140 534 533
3 533 534 524
3 534 138 524
3 13 535 530
3 141 536 535
3 535 536 530
3 536 140 530
3 140 536 534
3 141 537 536
3 536 537 534
3 537 138 534
3 141 538 537
3 39 527 538
3 538 527 537
3 527 138 537
3 13 176 535
3 45 539 176
3 176 539 535
3 539 141 535
3 1 540 171
3 142 541 540
3 540 541 171
3 541 45 171
3 45 541 539
3 142 542 541
3 541 542 539
3 542 141 539
3 142 543 542
3 39 538 543
3 543 538 542
3 538 141 542
3 1 249 540
3 67 544 249
3 249 544 540
3 544 142 540
3 19 545 245
3 143 546 545
3 545 546 245
3 546 67 245
3 67 546 544
3 143 547 546
3 546 547 544
3 547 142 544
3 143 548 547
3 39 543 548
3 548 543 547
3 543 142 547
3 5 293 231
3 83 549 293
3 293 549 231
3 549 63 231
3 24 550 299
3 144 551 550
3 550 551 299
3 551 83 299
3 83 551 549
3 144 552 551
3 551 552 549
3 552 63 549
3 144 553 552
3 19 236 553
3 553 236 552
3 236 63 552
3 19 553 545
3 144 554 553
3 553 554 545
3 554 143 545
3 24 555 550
3 145 556 555
3 555 556 550
3 556 144 550
3 144 556 554
3 145 557 556
3 556 557 554
3 557 143 554
3 145 558 557
3 39 548 558
3 558 548 557
3 548 143 557
3 24 287 555
3 78 559 287
3 287 559 555
3 559 145 555
3 4 523 282
3 139 560 523
3 523 560 282
3 560 78 282
3 78 560 559
3 139 561 560
3 560 561 559
3 561 145 559
3 139 528 561
3 39 558 528
3 528 558 561
3 558 145 561
3 10 562 397
3 146 563 562
3 562 563 397
3 563 113 397
3 40 564 566
3 147 565 564
3 564 565 566
3 565 146 566
3 146 565 563
3 147 567 565
3 565 567 563
3 567 113 563
3 147 568 567
3 35 401 568
3 568 401 567
3 401 113 567
3 2 323 570
3 92 569 323
3 323 569 570
3 569 149 570
3 27 571 329
3 148 572 571
3 571 572 329
3 572 92 329
3 92 572 569
3 148 573 572
3 572 573 569
3 573 149 569
3 148 574 573
3 40 575 574
3 574 575 573
3 575 149 573
3 40 574 564
3 148 576 574
3 574 576 564
3 576 147 564
3 27 577 571
3 150 578 577
3 577 578 571
3 578 148 571
3 148 578 576
3 150 579 578
3 578 579 576
3 579 147 576
3 150 580 579
3 35 568 580
3 580 568 579
3 568 147 579
3 27 317 577
3 87 581 317
3 317 581 577
3 581 150 577
3 9 374 312
3 107 582 374
3 374 582 312
3 582 87 312
3 87 582 581
3 107 583 582
3 582 583 581
3 583 150 581
3 107 380 583
3 35 580 380
3 380 580 583
3 580 150 583
3 0 164 367
3 44 584 164
3 164 584 367
3 584 104 367
3 14 585 170
3 151 586 585
3 585 586 170
3 586 44 170
3 44 586 584
3 151 587 586
3 586 587 584
3 587 104 584
3 151 588 587
3 32 371 588
3 588 371 587
3 371 104 587
3 2 570 187
3 149 589 570
3 570 589 187
3 589 50 187
3 40 590 575
3 152 591 590
3 590 591 575
3 591 149 575
3 149 591 589
3 152 592 591
3 591 592 589
3 592 50 589
3 152 593 592
3 14 191 593
3 593 191 592
3 191 50 592
3 14 593 585
3 152 594 593
3 593 594 585
3 594 151 585
3 40 595 590
3 153 596 595
3 595 596 590
3 596 152 590
3 152 596 594
3 153 597 596
3 596 597 594
3 597 151 594
3 153 598 597
3 32 588 598
3 598 588 597
3 588 151 597
3 40 566 595
3 146 599 566
3 566 599 595
3 599 153 595
3 10 344 562
3 98 600 344
3 344 600 562
3 600 146 562
3 146 600 599
3 98 601 600
3 600 601 599
3 601 153 599
3 98 350 601
3 32 598 350
3 350 598 601
3 598 153 601
3 10 399 603
3 112 602 399
3 399 602 603
3 602 155 603
3 34 604 395
3 154 605 604
3 604 605 395
3 605 112 395
3 112 605 602
3 154 606 605
3 605 606 602
3 606 155 602
3 154 607 606
3 41 608 607
3 607 608 606
3 608 155 606
3 11 219 381
3 58 609 219
3 219 609 381
3 609 108 381
3 16 610 215
3 156 611 610
3 610 611 215
3 611 58 215
3 58 611 609
3 156 612 611
3 611 612 609
3 612 108 609
3 156 613 612
3 34 386 613
3 613 386 612
3 386 108 612
3 34 613 604
3 156 614 613
3 613 614 604
3 614 154 604
3 16 615 610
3 157 616 615
3 615 616 610
3 616 156 610
3 156 616 614
3 157 617 616
3 616 617 614
3 617 154 614
3 157 618 617
3 41 607 618
3 618 607 617
3 607 154 617
3 16 206 615
3 54 619 206
3 206 619 615
3 619 157 615
3 7 620 201
3 158 621 620
3 620 621 201
3 621 54 201
3 54 621 619
3 158 622 621
3 621 622 619
3 622 157 619
3 158 623 622
3 41 618 623
3 623 618 622
3 618 157 622
3 7 279 620
3 76 624 279
3 279 624 620
3 624 158 620
3 22 625 275
3 159 626 625
3 625 626 275
3 626 76 275
3 76 626 624
3 159 627 626
3 626 627 624
3 627 158 624
3 159 628 627
3 41 623 628
3 628 623 627
3 623 158 627
3 8 353 261
3 101 629 353
3 353 629 261
3 629 72 261
3 30 630 359
3 160 631 630
3 630 631 359
3 631 101 359
3 101 631 629
3 160 632 631
3 631 632 629
3 632 72 629
3 160 633 632
3 22 266 633
3 633 266 632
3 266 72 632
3 22 633 625
3 160 634 633
3 633 634 625
3 634 159 625
3 30 635 630
3 161 636 635
3 635 636 630
3 636 160 630
3 160 636 634
3 161 637 636
3 636 637 634
3 637 159 634
3 161 638 637
3 41 628 638
3 638 628 637
3 628 159 637
3 30 347 635
3 96 639 347
3 347 639 635
3 639 161 635
3 10 603 342
3 155 640 603
3 603 640 342
3 640 96 342
3 96 640 639
3 155 641 640
3 640 641 639
3 641 161 639
3 155 608 641
3 41 638 608
3 608 638 641
3 638 161 641
