OFF
1612 3220 0
1.208080 -0.213790 0.169181
1.207282 -0.205345 0.189275
1.210619 -0.194814 0.173448
1.209370 -0.176612 0.198778
1.215059 -0.174349 0.174552
1.211225 -0.210280 0.150605
1.207429 -0.233718 0.149880
1.217572 -0.185204 0.152637
1.207216 -0.263196 0.119435
1.207422 -0.255524 0.139651
1.207595 -0.247080 0.123322
1.207837 -0.246641 0.160066
1.207212 -0.194778 0.213392
1.207426 -0.167402 0.221476
1.207231 -0.228567 0.177162
1.207760 -0.215823 0.198979
1.210976 -0.150718 0.211229
1.208255 -0.145751 0.229077
1.216458 -0.153384 0.188318
1.224343 -0.156660 0.159868
1.207219 -0.260750 0.102529
1.208126 -0.277355 0.102077
1.207085 -0.275212 0.079473
1.211044 -0.225841 0.127423
1.217884 -0.201817 0.128428
1.226868 -0.174550 0.131045
1.210112 -0.241252 0.104331
1.207735 -0.177467 0.233608
1.207256 -0.154503 0.244768
1.207530 -0.127809 0.245320
1.207638 -0.128422 0.263053
1.210617 -0.274361 0.129382
1.211173 -0.262165 0.154940
1.211187 -0.247054 0.178074
1.210794 -0.194825 0.232936
1.210931 -0.213560 0.216325
1.210857 -0.232480 0.195625
1.212624 -0.288645 0.105272
1.210467 -0.292365 0.079624
1.219001 -0.291164 0.120451
1.207198 -0.103007 0.260776
1.211375 -0.127500 0.224357
1.210329 -0.102914 0.240807
1.217314 -0.129055 0.203076
1.225608 -0.130040 0.178676
1.236270 -0.149746 0.130248
1.236054 -0.128388 0.151895
1.207621 -0.288247 0.051127
1.209072 -0.255260 0.079467
1.207846 -0.269276 0.052021
1.216853 -0.218325 0.104160
1.226310 -0.192453 0.105571
1.237075 -0.166325 0.105264
1.215042 -0.233760 0.079235
1.210962 -0.172890 0.250074
1.211027 -0.149815 0.264686
1.208202 -0.102669 0.277372
1.207081 -0.078725 0.275096
1.211683 -0.126010 0.278239
1.218555 -0.278348 0.146745
1.218693 -0.264261 0.171037
1.218657 -0.247661 0.194219
1.218696 -0.191082 0.250088
1.218569 -0.211303 0.233108
1.218508 -0.230696 0.213867
1.209786 -0.300291 0.025005
1.213646 -0.305128 0.047973
1.218946 -0.300413 0.094927
1.220966 -0.309455 0.067919
1.231316 -0.292638 0.136864
1.231805 -0.303530 0.111290
1.209040 -0.078209 0.255658
1.207818 -0.051549 0.269395
1.217199 -0.103870 0.217348
1.215346 -0.078158 0.233085
1.225918 -0.104402 0.193970
1.236580 -0.105077 0.167563
1.248514 -0.138137 0.105051
1.245498 -0.126041 0.128036
1.248146 -0.104530 0.139418
1.207079 -0.282082 0.026164
1.207588 -0.292531 -0.000081
1.212789 -0.248041 0.052349
1.210035 -0.261841 0.026576
1.224201 -0.209454 0.079994
1.235748 -0.183408 0.078702
1.248086 -0.155045 0.079945
1.259065 -0.126161 0.084049
1.221436 -0.224393 0.053071
1.218780 -0.167845 0.266318
1.219130 -0.144003 0.280280
1.213400 -0.106550 0.289360
1.207729 -0.051092 0.288780
1.210872 -0.079168 0.293275
1.219805 -0.119836 0.292074
1.231042 -0.279056 0.162507
1.230853 -0.263540 0.186449
1.231132 -0.246023 0.209197
1.231526 -0.184778 0.265021
1.231370 -0.206907 0.248057
1.231636 -0.227411 0.229591
1.213250 -0.308288 -0.000081
1.218746 -0.313845 0.025629
1.222938 -0.315048 0.045607
1.232967 -0.312607 0.084376
1.235213 -0.319556 0.057444
1.249225 -0.291031 0.151926
1.249205 -0.303067 0.126238
1.249498 -0.313071 0.099059
1.207067 -0.025793 0.282556
1.212683 -0.051867 0.248312
1.210050 -0.026408 0.261603
1.224606 -0.078434 0.208939
1.221578 -0.052545 0.224007
1.235608 -0.078615 0.183635
1.247550 -0.078889 0.156704
1.257878 -0.107808 0.110095
1.259349 -0.079431 0.128326
1.268813 -0.100157 0.082753
1.207952 -0.273540 -0.000081
1.217446 -0.238893 0.026816
1.213312 -0.251906 -0.000081
1.232435 -0.199577 0.052869
1.245171 -0.172283 0.053503
1.269737 -0.115790 0.054072
1.258378 -0.142604 0.055674
1.228023 -0.214184 0.026576
1.209856 -0.025355 0.300251
1.231566 -0.160928 0.280150
1.231893 -0.136284 0.293073
1.220296 -0.095221 0.301431
1.213847 -0.048795 0.305114
1.221586 -0.068661 0.309627
1.232637 -0.110875 0.303924
1.248921 -0.276380 0.177064
1.248930 -0.259816 0.200564
1.249170 -0.241412 0.222417
1.249154 -0.176169 0.276921
1.249179 -0.199536 0.260611
1.249210 -0.221116 0.242595
1.272171 -0.285925 0.164919
1.225718 -0.320178 -0.000081
1.234729 -0.323422 0.026519
1.250622 -0.320711 0.071407
1.253011 -0.325992 0.043831
1.272170 -0.318893 0.085330
1.272170 -0.299219 0.139383
1.272171 -0.310235 0.112786
1.207588 -0.000137 0.292313
1.207952 -0.000137 0.273322
1.217403 -0.026405 0.238858
1.213312 -0.000137 0.251688
1.232748 -0.052211 0.198914
1.227978 -0.026154 0.214143
1.245586 -0.052510 0.171554
1.258357 -0.052830 0.143594
1.269878 -0.076248 0.102051
1.269717 -0.051765 0.116774
1.277291 -0.076252 0.077883
1.279457 -0.087852 0.054162
1.222493 -0.228143 -0.000081
1.240145 -0.188790 0.026388
1.254106 -0.159634 0.028111
1.277443 -0.105369 0.026582
1.266737 -0.131898 0.027635
1.234266 -0.202682 -0.000081
1.213250 -0.000137 0.308071
1.219217 -0.022567 0.314319
1.249337 -0.151416 0.291214
1.249495 -0.125526 0.303290
1.233698 -0.085737 0.312385
1.227042 -0.043848 0.317745
1.234090 -0.064450 0.317607
1.249321 -0.099329 0.312805
1.272171 -0.165137 0.285707
1.272170 -0.270457 0.189200
1.272171 -0.252931 0.212039
1.272170 -0.233482 0.233265
1.272170 -0.189417 0.270239
1.272171 -0.212257 0.252714
1.245388 -0.327607 -0.000081
1.254684 -0.328532 0.020122
1.272170 -0.325124 0.057223
1.272171 -0.328881 0.028681
1.222493 -0.000137 0.227926
1.240603 -0.026439 0.187656
1.234266 -0.000137 0.202464
1.254053 -0.026402 0.159857
1.266991 -0.026040 0.131457
1.277835 -0.024718 0.104589
1.281571 -0.049058 0.083886
1.283814 -0.064604 0.063462
1.287440 -0.021657 0.075680
1.287113 -0.065435 0.045935
1.285827 -0.080477 0.025004
1.247410 -0.175874 -0.000081
1.260764 -0.148010 -0.000081
1.284015 -0.090036 -0.000081
1.273272 -0.119330 -0.000081
1.225718 -0.000137 0.319961
1.234513 -0.021276 0.323525
1.272170 -0.139601 0.299001
1.272171 -0.113004 0.310017
1.249813 -0.072656 0.320126
1.248477 -0.042953 0.325196
1.272172 -0.085547 0.318674
1.272170 -0.330137 -0.000081
1.247410 -0.000137 0.175656
1.260764 -0.000137 0.147792
1.273272 -0.000137 0.119112
1.284015 -0.000137 0.089818
1.290192 -0.044043 0.052728
1.292246 -0.000137 0.060086
1.293020 -0.017498 0.053845
1.292990 -0.051755 0.023607
1.292246 -0.060304 -0.000081
1.245388 -0.000137 0.327389
1.253189 -0.018628 0.328224
1.272179 -0.057440 0.324900
1.272176 -0.028898 0.328659
1.297410 -0.021458 0.021240
1.297410 -0.000137 0.030072
1.297410 -0.030290 -0.000081
1.272170 -0.000137 0.329919
1.299170 -0.000137 -0.000081
1.297409 -0.291031 0.151926
1.297782 -0.276380 0.177064
1.295714 -0.320711 0.071407
1.297076 -0.313071 0.099059
1.297433 -0.303067 0.126238
1.322055 -0.292638 0.136864
1.297273 -0.151416 0.291214
1.297496 -0.176169 0.276921
1.297770 -0.259816 0.200564
1.297476 -0.241412 0.222417
1.297428 -0.221116 0.242595
1.297466 -0.199536 0.260611
1.322489 -0.279056 0.162507
1.322790 -0.263540 0.186449
1.292871 -0.325992 0.043831
1.290920 -0.328532 0.020122
1.316121 -0.319556 0.057444
1.319492 -0.312607 0.084376
1.321288 -0.303530 0.111290
1.344603 -0.291164 0.120451
1.345588 -0.278348 0.146745
1.321662 -0.160928 0.280150
1.297079 -0.125526 0.303290
1.321151 -0.136284 0.293073
1.297292 -0.099329 0.312805
1.296692 -0.072656 0.320126
1.321726 -0.184778 0.265021
1.322347 -0.246023 0.209197
1.321552 -0.227411 0.229591
1.321971 -0.206907 0.248057
1.345281 -0.264261 0.171037
1.345362 -0.247661 0.194219
1.302204 -0.327607 -0.000081
1.316836 -0.323422 0.026519
1.336549 -0.315048 0.045607
1.340450 -0.309455 0.067919
1.344722 -0.300413 0.094927
1.361035 -0.288645 0.105272
1.368012 -0.274361 0.129382
1.365922 -0.262165 0.154940
1.345088 -0.167845 0.266318
1.344320 -0.144003 0.280280
1.292663 -0.018628 0.328224
1.319997 -0.110875 0.303924
1.342867 -0.119836 0.292074
1.318380 -0.085737 0.312385
1.298327 -0.042953 0.325196
1.317790 -0.064450 0.317607
1.345274 -0.191082 0.250088
1.345693 -0.230696 0.213867
1.345556 -0.211303 0.233108
1.365873 -0.247054 0.178074
1.367090 -0.232480 0.195625
1.331417 -0.320178 -0.000081
1.345164 -0.313845 0.025629
1.357954 -0.305128 0.047973
1.368602 -0.292365 0.079624
1.380428 -0.277355 0.102077
1.389564 -0.263196 0.119435
1.386609 -0.255524 0.139651
1.382598 -0.246641 0.160066
1.366698 -0.172890 0.250074
1.366457 -0.149815 0.264686
1.302204 -0.000137 0.327389
1.364125 -0.126010 0.278239
1.317158 -0.021276 0.323525
1.341833 -0.095221 0.301431
1.358674 -0.106550 0.289360
1.339198 -0.068661 0.309627
1.329097 -0.043848 0.317745
1.367329 -0.194825 0.232936
1.366813 -0.213560 0.216325
1.389308 -0.228567 0.177162
1.383249 -0.215823 0.198979
1.359120 -0.308288 -0.000081
1.371452 -0.300291 0.025005
1.384501 -0.288247 0.051127
1.392954 -0.275212 0.079473
1.400670 -0.260750 0.102529
1.405309 -0.247080 0.123322
1.403590 -0.233718 0.149880
1.409148 -0.213790 0.169181
1.383465 -0.177467 0.233608
1.388879 -0.154503 0.244768
1.384339 -0.128422 0.263053
1.331417 -0.000137 0.319961
1.379909 -0.102669 0.277372
1.344131 -0.022567 0.314319
1.367034 -0.079168 0.293275
1.357375 -0.048795 0.305114
1.389630 -0.194778 0.213392
1.401683 -0.205345 0.189275
1.384826 -0.292531 -0.000081
1.396958 -0.282082 0.026164
1.407448 -0.269276 0.052021
1.414737 -0.255260 0.079467
1.419188 -0.241252 0.104331
1.422540 -0.225841 0.127423
1.423141 -0.210280 0.150605
1.421070 -0.194814 0.173448
1.403555 -0.167402 0.221476
1.410292 -0.145751 0.229077
1.404672 -0.127809 0.245320
1.400288 -0.103007 0.260776
1.359120 -0.000137 0.308071
1.393171 -0.078725 0.275096
1.371142 -0.025355 0.300251
1.383512 -0.051092 0.288780
1.416113 -0.176612 0.198778
1.408250 -0.273540 -0.000081
1.418890 -0.261841 0.026576
1.427846 -0.248041 0.052349
1.433549 -0.233760 0.079235
1.437529 -0.218325 0.104160
1.439619 -0.201817 0.128428
1.438997 -0.185204 0.152637
1.433589 -0.174349 0.174552
1.422312 -0.150718 0.211229
1.423630 -0.127500 0.224357
1.420013 -0.102914 0.240807
1.414581 -0.078209 0.255658
1.384826 -0.000137 0.292313
1.407227 -0.051549 0.269395
1.396173 -0.025793 0.282556
1.436696 -0.153384 0.188318
1.429264 -0.251906 -0.000081
1.438745 -0.238893 0.026816
1.446090 -0.224393 0.053071
1.450538 -0.209454 0.079994
1.453669 -0.192453 0.105571
1.454465 -0.174550 0.131045
1.450755 -0.156660 0.159868
1.438477 -0.129055 0.203076
1.438243 -0.103870 0.217348
1.434248 -0.078158 0.233085
1.427550 -0.051867 0.248312
1.408250 -0.000137 0.273322
1.418948 -0.026408 0.261603
1.452648 -0.130040 0.178676
1.447841 -0.228143 -0.000081
1.456075 -0.214184 0.026576
1.461804 -0.199577 0.052869
1.465744 -0.183408 0.078702
1.467250 -0.166325 0.105264
1.466341 -0.149746 0.130248
1.466094 -0.128388 0.151895
1.453102 -0.104402 0.193970
1.451154 -0.078434 0.208939
1.446329 -0.052545 0.224007
1.438657 -0.026405 0.238858
1.429264 -0.000137 0.251688
1.466692 -0.105077 0.167563
1.464015 -0.202682 -0.000081
1.478483 -0.155045 0.079945
1.470592 -0.188790 0.026388
1.475698 -0.172283 0.053503
1.478882 -0.138137 0.105051
1.476017 -0.126041 0.128036
1.478539 -0.104530 0.139418
1.465583 -0.078615 0.183635
1.462188 -0.052211 0.198914
1.456013 -0.026154 0.214143
1.447841 -0.000137 0.227926
1.477979 -0.078889 0.156704
1.488039 -0.126161 0.084049
1.477847 -0.175874 -0.000081
1.487479 -0.142604 0.055674
1.483887 -0.159634 0.028111
1.487068 -0.107808 0.110095
1.488270 -0.079431 0.128326
1.495562 -0.100157 0.082753
1.476103 -0.052510 0.171554
1.471075 -0.026439 0.187656
1.464015 -0.000137 0.202464
1.487462 -0.052830 0.143594
1.496238 -0.115790 0.054072
1.489408 -0.148010 -0.000081
1.494023 -0.131898 0.027635
1.496223 -0.051765 0.116774
1.496340 -0.076248 0.102051
1.501543 -0.076252 0.077883
1.502999 -0.087852 0.054162
1.483841 -0.026402 0.159857
1.477847 -0.000137 0.175656
1.494214 -0.026040 0.131457
1.501911 -0.024718 0.104589
1.501646 -0.105369 0.026582
1.498766 -0.119330 -0.000081
1.504395 -0.049058 0.083886
1.505850 -0.064604 0.063462
1.507134 -0.080477 0.025004
1.507943 -0.065435 0.045935
1.508148 -0.021657 0.075680
1.489408 -0.000137 0.147792
1.498766 -0.000137 0.119112
1.505979 -0.000137 0.089818
1.505979 -0.090036 -0.000081
1.511097 -0.060304 -0.000081
1.511097 -0.000137 0.060086
1.509850 -0.044043 0.052728
1.511544 -0.051755 0.023607
1.511563 -0.017498 0.053845
1.514154 -0.030290 -0.000081
1.514154 -0.000137 0.030072
1.514154 -0.021458 0.021240
1.515170 -0.000137 -0.000081
1.209870 0.024731 0.300315
1.207073 0.025523 0.282197
1.207647 0.050613 0.288284
1.210079 0.026494 0.261448
1.217395 0.026336 0.238856
1.213760 0.048402 0.305004
1.219047 0.021991 0.314183
1.210531 0.078943 0.292471
1.221212 0.068413 0.309320
1.207853 0.050920 0.269206
1.207073 0.078679 0.274663
1.212780 0.052043 0.247903
1.228099 0.026392 0.213816
1.221349 0.052232 0.224570
1.240585 0.026225 0.187684
1.234008 0.020694 0.323350
1.226814 0.042764 0.317724
1.234201 0.064118 0.317663
1.208135 0.102344 0.277064
1.212950 0.106043 0.288694
1.220213 0.094160 0.301604
1.233533 0.085291 0.312363
1.209103 0.077858 0.255371
1.207203 0.102538 0.260759
1.215249 0.078208 0.233259
1.232637 0.052775 0.198933
1.224621 0.078575 0.208746
1.254106 0.026146 0.159743
1.244962 0.052299 0.172860
1.266772 0.025213 0.132073
1.278489 0.024681 0.102733
1.288042 0.025383 0.072201
1.293831 0.017793 0.049512
1.253390 0.018481 0.328243
1.248596 0.043308 0.325134
1.249734 0.072584 0.320066
1.207563 0.127567 0.262756
1.211370 0.125371 0.277735
1.219561 0.119963 0.291676
1.232873 0.109896 0.304284
1.249792 0.098808 0.312966
1.210270 0.102931 0.240933
1.207512 0.127410 0.245568
1.217217 0.104375 0.216922
1.234919 0.079284 0.184775
1.225062 0.105436 0.195420
1.257756 0.052521 0.144965
1.247309 0.079148 0.156984
1.269477 0.050008 0.118031
1.279810 0.048220 0.089906
1.285882 0.050335 0.067047
1.291853 0.040584 0.046510
1.297410 0.021184 0.021240
1.272176 0.028624 0.328659
1.272179 0.057166 0.324900
1.272172 0.085273 0.318674
1.207241 0.152867 0.245397
1.210843 0.149124 0.264467
1.218824 0.143793 0.279927
1.231447 0.136069 0.292830
1.249600 0.125264 0.303304
1.272171 0.112730 0.310017
1.211445 0.127858 0.223717
1.208009 0.145636 0.230780
1.216719 0.130411 0.203880
1.236180 0.104681 0.168606
1.225237 0.129181 0.180114
1.259074 0.079416 0.128858
1.246567 0.106146 0.142024
1.270182 0.076284 0.100920
1.278759 0.072719 0.075580
1.286699 0.064697 0.048946
1.293028 0.051903 0.022211
1.297410 0.030015 -0.000081
1.207351 0.162329 0.225998
1.207411 0.177349 0.230542
1.210829 0.172303 0.249941
1.218537 0.167473 0.266107
1.231245 0.160712 0.279951
1.249255 0.151405 0.291061
1.272170 0.139327 0.299001
1.210468 0.154558 0.210583
1.217045 0.150200 0.188674
1.223434 0.148970 0.169548
1.234085 0.132563 0.153433
1.244402 0.128091 0.128870
1.257683 0.107067 0.111124
1.270289 0.098084 0.079479
1.279823 0.088731 0.050227
1.287021 0.076999 0.021855
1.292246 0.060030 -0.000081
1.207571 0.178061 0.211032
1.207577 0.197185 0.215591
1.210937 0.194669 0.233241
1.218625 0.190816 0.249996
1.231327 0.184456 0.264946
1.249219 0.175762 0.277019
1.272171 0.164863 0.285707
1.210653 0.175187 0.192808
1.217914 0.167958 0.169912
1.226537 0.159090 0.150172
1.236217 0.150395 0.129347
1.248160 0.138638 0.105226
1.259769 0.125381 0.082078
1.270191 0.115282 0.052018
1.277874 0.104488 0.024236
1.284015 0.089762 -0.000081
1.207360 0.199538 0.193779
1.207974 0.214277 0.202086
1.211249 0.213830 0.216721
1.218598 0.211306 0.232893
1.231257 0.206604 0.248015
1.249181 0.199145 0.260701
1.272170 0.189143 0.270239
1.211178 0.190594 0.174769
1.208043 0.210131 0.173732
1.218128 0.183850 0.151718
1.227078 0.175317 0.128876
1.237242 0.166080 0.104580
1.247968 0.155159 0.079715
1.258534 0.142658 0.053899
1.266906 0.131598 0.025823
1.273272 0.119055 -0.000081
1.207224 0.224119 0.182284
1.207511 0.223712 0.162739
1.210971 0.231610 0.196707
1.218873 0.231180 0.213558
1.231265 0.227486 0.229012
1.249074 0.221103 0.242326
1.272171 0.211982 0.252714
1.210705 0.210644 0.152941
1.207943 0.230624 0.146660
1.218104 0.200772 0.128597
1.226293 0.192483 0.105094
1.236008 0.182346 0.079181
1.245587 0.171242 0.053116
1.254203 0.159388 0.026762
1.260764 0.147736 -0.000081
1.207281 0.243085 0.157369
1.210199 0.246128 0.175180
1.218466 0.249234 0.191543
1.231359 0.246895 0.208002
1.249009 0.241563 0.221914
1.272170 0.233208 0.233265
1.210823 0.225986 0.128316
1.207287 0.247141 0.129465
1.216952 0.217380 0.104956
1.224610 0.208523 0.079143
1.232619 0.198826 0.053162
1.240652 0.187544 0.025892
1.247410 0.175600 -0.000081
1.207834 0.259808 0.137133
1.210971 0.262764 0.152616
1.218054 0.263758 0.170244
1.231339 0.264398 0.185225
1.249076 0.260209 0.199740
1.272171 0.252657 0.212039
1.210076 0.240401 0.106002
1.207409 0.264800 0.120277
1.207187 0.260109 0.104799
1.215034 0.233565 0.079071
1.221416 0.224198 0.052941
1.228015 0.213892 0.026852
1.234266 0.202407 -0.000081
1.210900 0.275638 0.127546
1.218568 0.278514 0.145936
1.230753 0.278865 0.162100
1.249131 0.276646 0.176287
1.272170 0.270183 0.189200
1.209026 0.255044 0.080017
1.208227 0.277535 0.102188
1.207077 0.274451 0.080015
1.212669 0.248249 0.051898
1.217429 0.238689 0.026585
1.222493 0.227869 -0.000081
1.212643 0.288264 0.105656
1.219090 0.291063 0.120248
1.231309 0.292526 0.136510
1.249146 0.290840 0.151736
1.272171 0.285651 0.164919
1.207878 0.268736 0.052210
1.210438 0.291902 0.080064
1.207576 0.287589 0.051474
1.210069 0.261471 0.026150
1.213312 0.251631 -0.000081
1.219046 0.300193 0.095066
1.232033 0.303427 0.111112
1.249361 0.302959 0.125910
1.272170 0.298944 0.139383
1.220786 0.308938 0.068343
1.207092 0.281306 0.026157
1.213546 0.304561 0.048859
1.209620 0.299549 0.025136
1.207952 0.273265 -0.000081
1.232827 0.312158 0.084798
1.249797 0.312736 0.099415
1.272171 0.309961 0.112786
1.223014 0.314816 0.045696
1.234882 0.319173 0.057357
1.207588 0.292257 -0.000081
1.218536 0.313417 0.025056
1.213250 0.308014 -0.000081
1.250588 0.320347 0.071778
1.272170 0.318618 0.085330
1.234739 0.323145 0.026599
1.253166 0.325667 0.044359
1.225718 0.319904 -0.000081
1.272170 0.324849 0.057223
1.272171 0.328607 0.028681
1.245388 0.327333 -0.000081
1.254686 0.328258 0.020126
1.272170 0.329863 -0.000081
1.292426 0.018481 0.328243
1.296789 0.072584 0.320066
1.298181 0.043308 0.325134
1.317913 0.020694 0.323350
1.296718 0.098808 0.312966
1.296951 0.125264 0.303304
1.318630 0.085291 0.312363
1.317624 0.064118 0.317663
1.329491 0.042764 0.317724
1.344501 0.021991 0.314183
1.319635 0.109896 0.304284
1.321849 0.136069 0.292830
1.297373 0.151405 0.291061
1.342006 0.094160 0.301604
1.339949 0.068413 0.309320
1.357624 0.048402 0.305004
1.371084 0.024731 0.300315
1.343388 0.119963 0.291676
1.344991 0.143793 0.279927
1.322168 0.160712 0.279951
1.297417 0.175762 0.277019
1.360026 0.106043 0.288694
1.368349 0.078943 0.292471
1.384258 0.050613 0.288284
1.396615 0.025523 0.282197
1.365215 0.125371 0.277735
1.345627 0.167473 0.266107
1.367146 0.149124 0.264467
1.322039 0.184456 0.264946
1.297463 0.199145 0.260701
1.380365 0.102344 0.277064
1.393623 0.078679 0.274663
1.407505 0.050920 0.269206
1.419062 0.026494 0.261448
1.385073 0.127567 0.262756
1.345432 0.190816 0.249996
1.367197 0.172303 0.249941
1.389135 0.152867 0.245397
1.322150 0.206604 0.248015
1.297594 0.221103 0.242326
1.400392 0.102538 0.260759
1.414883 0.077858 0.255371
1.427823 0.052043 0.247903
1.438641 0.026336 0.238856
1.345493 0.211306 0.232893
1.404487 0.127410 0.245568
1.366791 0.194669 0.233241
1.408653 0.145636 0.230780
1.386750 0.177349 0.230542
1.402640 0.162329 0.225998
1.322136 0.227486 0.229012
1.297673 0.241563 0.221914
1.419791 0.102931 0.240933
1.434027 0.078208 0.233259
1.445942 0.052232 0.224570
1.456179 0.026392 0.213816
1.365648 0.213830 0.216721
1.344882 0.231180 0.213558
1.423854 0.127858 0.223717
1.384933 0.197185 0.215591
1.420526 0.154558 0.210583
1.405077 0.178061 0.211032
1.321987 0.246895 0.208002
1.297591 0.260209 0.199740
1.438281 0.104375 0.216922
1.451177 0.078575 0.208746
1.471056 0.026225 0.187684
1.462052 0.052775 0.198933
1.381527 0.214277 0.202086
1.366666 0.231610 0.196707
1.345786 0.249234 0.191543
1.437249 0.130411 0.203880
1.437927 0.150200 0.188674
1.402754 0.199538 0.193779
1.421192 0.175187 0.192808
1.322019 0.264398 0.185225
1.297524 0.276646 0.176287
1.451840 0.105436 0.195420
1.483887 0.026146 0.159743
1.464783 0.079284 0.184775
1.475494 0.052299 0.172860
1.346716 0.263758 0.170244
1.389417 0.224119 0.182284
1.369685 0.246128 0.175180
1.404473 0.223712 0.162739
1.408897 0.210131 0.173732
1.452100 0.129181 0.180114
1.449346 0.148970 0.169548
1.439677 0.167958 0.169912
1.422988 0.190594 0.174769
1.322948 0.278865 0.162100
1.297505 0.290840 0.151736
1.494050 0.025213 0.132073
1.466238 0.104681 0.168606
1.486967 0.052521 0.144965
1.477752 0.079148 0.156984
1.366663 0.262764 0.152616
1.345559 0.278514 0.145936
1.388490 0.243085 0.157369
1.382627 0.259808 0.137133
1.408182 0.230624 0.146660
1.421373 0.210644 0.152941
1.463800 0.132563 0.153433
1.453995 0.159090 0.150172
1.440096 0.183850 0.151718
1.502351 0.024681 0.102733
1.508523 0.025383 0.072201
1.512047 0.017793 0.049512
1.322067 0.292526 0.136510
1.297243 0.302959 0.125910
1.496048 0.050008 0.118031
1.477046 0.106146 0.142024
1.488047 0.079416 0.128858
1.344407 0.291063 0.120248
1.366929 0.275638 0.127546
1.386774 0.264800 0.120277
1.474943 0.128091 0.128870
1.401761 0.247141 0.129465
1.421785 0.225986 0.128316
1.440051 0.200772 0.128597
1.466281 0.150395 0.129347
1.454762 0.175317 0.128876
1.503233 0.048220 0.089906
1.507169 0.050335 0.067047
1.510860 0.040584 0.046510
1.514154 0.021184 0.021240
1.320933 0.303427 0.111112
1.296712 0.312736 0.099415
1.496560 0.076284 0.100920
1.486907 0.107067 0.111124
1.344503 0.300193 0.095066
1.360976 0.288264 0.105656
1.379738 0.277535 0.102188
1.400078 0.260109 0.104799
1.478552 0.138638 0.105226
1.419052 0.240401 0.106002
1.437735 0.217380 0.104956
1.453645 0.192483 0.105094
1.467436 0.166080 0.104580
1.502533 0.072719 0.075580
1.507683 0.064697 0.048946
1.511568 0.051903 0.022211
1.514154 0.030015 -0.000081
1.319706 0.312158 0.084798
1.295755 0.320347 0.071778
1.496638 0.098084 0.079479
1.488610 0.125381 0.082078
1.340817 0.308938 0.068343
1.368716 0.291902 0.080064
1.393360 0.274451 0.080015
1.414514 0.255044 0.080017
1.478373 0.155159 0.079715
1.433530 0.233565 0.079071
1.451161 0.208523 0.079143
1.466042 0.182346 0.079181
1.503242 0.088731 0.050227
1.507886 0.076999 0.021855
1.511097 0.060030 -0.000081
1.316610 0.319173 0.057357
1.292689 0.325667 0.044359
1.290918 0.328258 0.020126
1.336403 0.314816 0.045696
1.496567 0.115282 0.052018
1.487606 0.142658 0.053899
1.358246 0.304561 0.048859
1.384946 0.287589 0.051474
1.407695 0.268736 0.052210
1.427510 0.248249 0.051898
1.476103 0.171242 0.053116
1.446056 0.224198 0.052941
1.462030 0.198826 0.053162
1.501937 0.104488 0.024236
1.505980 0.089762 -0.000081
1.316822 0.323145 0.026599
1.302204 0.327333 -0.000081
1.345630 0.313417 0.025056
1.494150 0.131598 0.025823
1.483971 0.159388 0.026762
1.372197 0.299549 0.025136
1.397571 0.281306 0.026157
1.419025 0.261471 0.026150
1.438710 0.238689 0.026585
1.471126 0.187544 0.025892
1.456064 0.213892 0.026852
1.498766 0.119055 -0.000081
1.331417 0.319904 -0.000081
1.359120 0.308014 -0.000081
1.489408 0.147736 -0.000081
1.477847 0.175600 -0.000081
1.384826 0.292257 -0.000081
1.408250 0.273265 -0.000081
1.429264 0.251631 -0.000081
1.447841 0.227869 -0.000081
1.464015 0.202407 -0.000081
1.209870 -0.300533 -0.024948
1.207073 -0.282415 -0.025741
1.207647 -0.288502 -0.050830
1.213760 -0.305222 -0.048620
1.219047 -0.314401 -0.022209
1.210531 -0.292689 -0.079161
1.221212 -0.309537 -0.068630
1.210079 -0.261666 -0.026712
1.207853 -0.269423 -0.051137
1.207073 -0.274881 -0.078896
1.217395 -0.239074 -0.026553
1.226814 -0.317942 -0.042982
1.234008 -0.323567 -0.020911
1.234201 -0.317881 -0.064336
1.208135 -0.277282 -0.102561
1.212950 -0.288912 -0.106261
1.220213 -0.301822 -0.094378
1.233533 -0.312581 -0.085509
1.212780 -0.248120 -0.052261
1.209103 -0.255588 -0.078076
1.207203 -0.260977 -0.102756
1.228099 -0.214034 -0.026610
1.221349 -0.224787 -0.052450
1.240585 -0.187902 -0.026442
1.248596 -0.325352 -0.043526
1.253390 -0.328461 -0.018699
1.249734 -0.320284 -0.072802
1.207563 -0.262973 -0.127785
1.211370 -0.277953 -0.125588
1.219561 -0.291894 -0.120181
1.232873 -0.304502 -0.110113
1.249792 -0.313184 -0.099026
1.215249 -0.233477 -0.078426
1.210270 -0.241150 -0.103149
1.207512 -0.245786 -0.127628
1.232637 -0.199150 -0.052993
1.224621 -0.208964 -0.078793
1.254106 -0.159961 -0.026364
1.266772 -0.132291 -0.025431
1.288042 -0.072419 -0.025601
1.278489 -0.102951 -0.024898
1.244962 -0.173078 -0.052517
1.272179 -0.325117 -0.057384
1.272176 -0.328877 -0.028841
1.272172 -0.318891 -0.085491
1.207241 -0.245615 -0.153085
1.210843 -0.264685 -0.149342
1.218824 -0.280145 -0.144011
1.231447 -0.293047 -0.136286
1.249600 -0.303521 -0.125481
1.272171 -0.310235 -0.112947
1.293831 -0.049730 -0.018010
1.217217 -0.217139 -0.104592
1.211445 -0.223934 -0.128076
1.208009 -0.230998 -0.145853
1.291853 -0.046728 -0.040802
1.285882 -0.067265 -0.050553
1.234919 -0.184993 -0.079502
1.225062 -0.195638 -0.105654
1.257756 -0.145183 -0.052739
1.269477 -0.118248 -0.050226
1.279810 -0.090124 -0.048438
1.247309 -0.157202 -0.079365
1.207351 -0.226216 -0.162547
1.207411 -0.230760 -0.177566
1.210829 -0.250158 -0.172521
1.218537 -0.266324 -0.167690
1.231245 -0.280168 -0.160929
1.249255 -0.291279 -0.151623
1.272170 -0.299219 -0.139545
1.297410 -0.021458 -0.021402
1.216719 -0.204097 -0.130629
1.210468 -0.210801 -0.154775
1.293028 -0.022428 -0.052121
1.286699 -0.049163 -0.064915
1.278759 -0.075797 -0.072937
1.236180 -0.168823 -0.104898
1.225237 -0.180332 -0.129399
1.259074 -0.129076 -0.079634
1.270182 -0.101138 -0.076502
1.246567 -0.142242 -0.106363
1.207571 -0.211250 -0.178278
1.207577 -0.215808 -0.197402
1.210937 -0.233459 -0.194887
1.218625 -0.250214 -0.191034
1.231327 -0.265163 -0.184674
1.249219 -0.277236 -0.175980
1.272171 -0.285925 -0.165080
1.297410 -0.000137 -0.030233
1.217045 -0.188892 -0.150417
1.210653 -0.193025 -0.175405
1.223434 -0.169766 -0.149188
1.292246 -0.000137 -0.060248
1.287021 -0.022073 -0.077217
1.279823 -0.050444 -0.088949
1.270289 -0.079696 -0.098302
1.234085 -0.153651 -0.132781
1.257683 -0.111341 -0.107284
1.244402 -0.129088 -0.128309
1.207360 -0.193997 -0.199756
1.207974 -0.202304 -0.214495
1.211249 -0.216939 -0.214048
1.218598 -0.233111 -0.211524
1.231257 -0.248232 -0.206822
1.249181 -0.260918 -0.199363
1.272170 -0.270457 -0.189361
1.217914 -0.170130 -0.168175
1.211178 -0.174987 -0.190812
1.208043 -0.173949 -0.210349
1.226537 -0.150390 -0.159308
1.284015 -0.000137 -0.089979
1.277874 -0.024454 -0.104706
1.270191 -0.052235 -0.115500
1.259769 -0.082296 -0.125599
1.236217 -0.129564 -0.150613
1.248160 -0.105443 -0.138856
1.207224 -0.182502 -0.224337
1.207511 -0.162956 -0.223930
1.210971 -0.196925 -0.231828
1.218873 -0.213776 -0.231398
1.231265 -0.229230 -0.227703
1.249074 -0.242543 -0.221321
1.272171 -0.252931 -0.212200
1.218128 -0.151936 -0.184068
1.210705 -0.153159 -0.210862
1.207943 -0.146878 -0.230842
1.227078 -0.129094 -0.175535
1.273272 -0.000137 -0.119273
1.266906 -0.026041 -0.131816
1.258534 -0.054116 -0.142876
1.247968 -0.079933 -0.155377
1.237242 -0.104798 -0.166298
1.207281 -0.157586 -0.243302
1.210199 -0.175397 -0.246346
1.218466 -0.191761 -0.249452
1.231359 -0.208220 -0.247113
1.249009 -0.222132 -0.241781
1.272170 -0.233482 -0.233426
1.218104 -0.128815 -0.200990
1.210823 -0.128534 -0.226204
1.207287 -0.129683 -0.247359
1.226293 -0.105311 -0.192700
1.260764 -0.000137 -0.147953
1.254203 -0.026980 -0.159606
1.245587 -0.053333 -0.171460
1.236008 -0.079399 -0.182564
1.207834 -0.137351 -0.260025
1.210971 -0.152834 -0.262981
1.218054 -0.170462 -0.263976
1.231339 -0.185443 -0.264616
1.249076 -0.199958 -0.260426
1.272171 -0.212257 -0.252875
1.216952 -0.105174 -0.217598
1.210076 -0.106220 -0.240619
1.207409 -0.120495 -0.265018
1.207187 -0.105017 -0.260327
1.224610 -0.079361 -0.208740
1.247410 -0.000137 -0.175817
1.240652 -0.026109 -0.187762
1.232619 -0.053380 -0.199044
1.210900 -0.127764 -0.275855
1.218568 -0.146154 -0.278732
1.230753 -0.162318 -0.279083
1.249131 -0.176505 -0.276864
1.272170 -0.189417 -0.270401
1.215034 -0.079289 -0.233782
1.209026 -0.080235 -0.255261
1.208227 -0.102406 -0.277753
1.207077 -0.080232 -0.274668
1.221416 -0.053159 -0.224416
1.234266 -0.000137 -0.202625
1.228015 -0.027069 -0.214110
1.212643 -0.105874 -0.288482
1.219090 -0.120466 -0.291281
1.231309 -0.136727 -0.292744
1.249146 -0.151954 -0.291058
1.272171 -0.165137 -0.285869
1.212669 -0.052116 -0.248467
1.207878 -0.052427 -0.268953
1.210438 -0.080282 -0.292119
1.207576 -0.051692 -0.287807
1.217429 -0.026802 -0.238907
1.222493 -0.000137 -0.228087
1.219046 -0.095284 -0.300410
1.232033 -0.111329 -0.303644
1.220786 -0.068560 -0.309156
1.249361 -0.126128 -0.303176
1.272170 -0.139601 -0.299162
1.210069 -0.026367 -0.261689
1.207092 -0.026375 -0.281524
1.209620 -0.025354 -0.299767
1.213546 -0.049077 -0.304779
1.213312 -0.000137 -0.251849
1.232827 -0.085016 -0.312376
1.249797 -0.099633 -0.312954
1.223014 -0.045913 -0.315034
1.234882 -0.057575 -0.319390
1.272171 -0.113004 -0.310179
1.207952 -0.000137 -0.273483
1.207588 -0.000137 -0.292475
1.213250 -0.000137 -0.308232
1.218536 -0.025274 -0.313634
1.250588 -0.071996 -0.320565
1.272170 -0.085547 -0.318836
1.234739 -0.026817 -0.323362
1.253166 -0.044577 -0.325885
1.225718 -0.000137 -0.320122
1.272170 -0.057441 -0.325067
1.245388 -0.000137 -0.327550
1.272171 -0.028898 -0.328824
1.254686 -0.020344 -0.328476
1.272170 -0.000137 -0.330081
1.292426 -0.328461 -0.018699
1.296789 -0.320284 -0.072802
1.298181 -0.325352 -0.043526
1.296718 -0.313184 -0.099026
1.296951 -0.303521 -0.125481
1.317913 -0.323567 -0.020911
1.318630 -0.312581 -0.085509
1.317624 -0.317881 -0.064336
1.329491 -0.317942 -0.042982
1.319635 -0.304502 -0.110113
1.297373 -0.291279 -0.151623
1.321849 -0.293047 -0.136286
1.344501 -0.314401 -0.022209
1.342006 -0.301822 -0.094378
1.339949 -0.309537 -0.068630
1.357624 -0.305222 -0.048620
1.343388 -0.291894 -0.120181
1.297417 -0.277236 -0.175980
1.322168 -0.280168 -0.160929
1.344991 -0.280145 -0.144011
1.371084 -0.300533 -0.024948
1.360026 -0.288912 -0.106261
1.368349 -0.292689 -0.079161
1.384258 -0.288502 -0.050830
1.365215 -0.277953 -0.125588
1.297463 -0.260918 -0.199363
1.322039 -0.265163 -0.184674
1.345627 -0.266324 -0.167690
1.367146 -0.264685 -0.149342
1.396615 -0.282415 -0.025741
1.380365 -0.277282 -0.102561
1.393623 -0.274881 -0.078896
1.407505 -0.269423 -0.051137
1.385073 -0.262973 -0.127785
1.322150 -0.248232 -0.206822
1.297594 -0.242543 -0.221321
1.345432 -0.250214 -0.191034
1.367197 -0.250158 -0.172521
1.389135 -0.245615 -0.153085
1.419062 -0.261666 -0.026712
1.400392 -0.260977 -0.102756
1.414883 -0.255588 -0.078076
1.427823 -0.248120 -0.052261
1.404487 -0.245786 -0.127628
1.345493 -0.233111 -0.211524
1.322136 -0.229230 -0.227703
1.297673 -0.222132 -0.241781
1.366791 -0.233459 -0.194887
1.408653 -0.230998 -0.145853
1.386750 -0.230760 -0.177566
1.402640 -0.226216 -0.162547
1.438641 -0.239074 -0.026553
1.419791 -0.241150 -0.103149
1.434027 -0.233477 -0.078426
1.445942 -0.224787 -0.052450
1.423854 -0.223934 -0.128076
1.297591 -0.199958 -0.260426
1.365648 -0.216939 -0.214048
1.344882 -0.213776 -0.231398
1.321987 -0.208220 -0.247113
1.384933 -0.215808 -0.197402
1.420526 -0.210801 -0.154775
1.405077 -0.211250 -0.178278
1.456179 -0.214034 -0.026610
1.438281 -0.217139 -0.104592
1.451177 -0.208964 -0.078793
1.462052 -0.199150 -0.052993
1.437249 -0.204097 -0.130629
1.297524 -0.176505 -0.276864
1.322019 -0.185443 -0.264616
1.381527 -0.202304 -0.214495
1.366666 -0.196925 -0.231828
1.345786 -0.191761 -0.249452
1.437927 -0.188892 -0.150417
1.402754 -0.193997 -0.199756
1.421192 -0.193025 -0.175405
1.471056 -0.187902 -0.026442
1.451840 -0.195638 -0.105654
1.464783 -0.184993 -0.079502
1.475494 -0.173078 -0.052517
1.452100 -0.180332 -0.129399
1.297505 -0.151954 -0.291058
1.322948 -0.162318 -0.279083
1.346716 -0.170462 -0.263976
1.449346 -0.169766 -0.149188
1.389417 -0.182502 -0.224337
1.369685 -0.175397 -0.246346
1.408897 -0.173949 -0.210349
1.404473 -0.162956 -0.223930
1.439677 -0.170130 -0.168175
1.422988 -0.174987 -0.190812
1.483887 -0.159961 -0.026364
1.466238 -0.168823 -0.104898
1.486967 -0.145183 -0.052739
1.477752 -0.157202 -0.079365
1.463800 -0.153651 -0.132781
1.297243 -0.126128 -0.303176
1.322067 -0.136727 -0.292744
1.345559 -0.146154 -0.278732
1.366663 -0.152834 -0.262981
1.453995 -0.150390 -0.159308
1.388490 -0.157586 -0.243302
1.382627 -0.137351 -0.260025
1.408182 -0.146878 -0.230842
1.421373 -0.153159 -0.210862
1.440096 -0.151936 -0.184068
1.494050 -0.132291 -0.025431
1.496048 -0.118248 -0.050226
1.477046 -0.142242 -0.106363
1.488047 -0.129076 -0.079634
1.474943 -0.129088 -0.128309
1.466281 -0.129564 -0.150613
1.296712 -0.099633 -0.312954
1.320933 -0.111329 -0.303644
1.344407 -0.120466 -0.291281
1.366929 -0.127764 -0.275855
1.386774 -0.120495 -0.265018
1.454762 -0.129094 -0.175535
1.401761 -0.129683 -0.247359
1.421785 -0.128534 -0.226204
1.440051 -0.128815 -0.200990
1.502351 -0.102951 -0.024898
1.295755 -0.071996 -0.320565
1.503233 -0.090124 -0.048438
1.496560 -0.101138 -0.076502
1.486907 -0.111341 -0.107284
1.478552 -0.105443 -0.138856
1.467436 -0.104798 -0.166298
1.319706 -0.085016 -0.312376
1.344503 -0.095284 -0.300410
1.360976 -0.105874 -0.288482
1.379738 -0.102406 -0.277753
1.400078 -0.105017 -0.260327
1.453645 -0.105311 -0.192700
1.419052 -0.106220 -0.240619
1.437735 -0.105174 -0.217598
1.508523 -0.072419 -0.025601
1.512047 -0.049730 -0.018010
1.292689 -0.044577 -0.325885
1.316610 -0.057575 -0.319390
1.290918 -0.020344 -0.328476
1.507169 -0.067265 -0.050553
1.502533 -0.075797 -0.072937
1.496638 -0.079696 -0.098302
1.488610 -0.082296 -0.125599
1.478373 -0.079933 -0.155377
1.466042 -0.079399 -0.182564
1.340817 -0.068560 -0.309156
1.368716 -0.080282 -0.292119
1.393360 -0.080232 -0.274668
1.414514 -0.080235 -0.255261
1.451161 -0.079361 -0.208740
1.433530 -0.079289 -0.233782
1.510860 -0.046728 -0.040802
1.514154 -0.021458 -0.021402
1.336403 -0.045913 -0.315034
1.316822 -0.026817 -0.323362
1.302204 -0.000137 -0.327550
1.507683 -0.049163 -0.064915
1.503242 -0.050444 -0.088949
1.496567 -0.052235 -0.115500
1.487606 -0.054116 -0.142876
1.476103 -0.053333 -0.171460
1.462030 -0.053380 -0.199044
1.358246 -0.049077 -0.304779
1.384946 -0.051692 -0.287807
1.407695 -0.052427 -0.268953
1.427510 -0.052116 -0.248467
1.446056 -0.053159 -0.224416
1.511568 -0.022428 -0.052121
1.514154 -0.000137 -0.030233
1.345630 -0.025274 -0.313634
1.331417 -0.000137 -0.320122
1.507886 -0.022073 -0.077217
1.501937 -0.024454 -0.104706
1.494150 -0.026041 -0.131816
1.483971 -0.026980 -0.159606
1.471126 -0.026109 -0.187762
1.456064 -0.027069 -0.214110
1.372197 -0.025354 -0.299767
1.397571 -0.026375 -0.281524
1.419025 -0.026367 -0.261689
1.438710 -0.026802 -0.238907
1.511097 -0.000137 -0.060248
1.359120 -0.000137 -0.308232
1.505980 -0.000137 -0.089979
1.498766 -0.000137 -0.119273
1.489408 -0.000137 -0.147953
1.477847 -0.000137 -0.175817
1.464015 -0.000137 -0.202625
1.447841 -0.000137 -0.228087
1.384826 -0.000137 -0.292475
1.408250 -0.000137 -0.273483
1.429264 -0.000137 -0.251849
1.297410 0.021184 -0.021402
1.293917 0.024629 -0.046152
1.293706 0.047314 -0.024477
1.287331 0.027451 -0.074251
1.286842 0.057357 -0.056851
1.287292 0.074354 -0.027190
1.279520 0.053679 -0.087852
1.278002 0.026587 -0.103763
1.277805 0.076747 -0.075355
1.279715 0.088240 -0.051841
1.277641 0.104621 -0.026477
1.269159 0.080812 -0.100597
1.269626 0.053573 -0.116229
1.266785 0.026991 -0.131851
1.269513 0.101486 -0.078284
1.269029 0.117784 -0.053273
1.266999 0.131254 -0.026626
1.256881 0.111546 -0.109224
1.259044 0.082971 -0.126834
1.258441 0.054755 -0.142738
1.254215 0.027556 -0.159435
1.258702 0.129350 -0.080253
1.257536 0.145191 -0.053326
1.253681 0.160571 -0.026429
1.246545 0.142150 -0.106193
1.244289 0.128449 -0.128999
1.247810 0.105229 -0.139707
1.247727 0.080074 -0.155716
1.245336 0.053131 -0.171972
1.240384 0.027167 -0.188124
1.246973 0.157582 -0.079587
1.244464 0.173795 -0.052739
1.240638 0.187526 -0.026386
1.235902 0.168888 -0.105434
1.233819 0.153411 -0.133584
1.236171 0.129153 -0.150856
1.237075 0.104242 -0.166878
1.235761 0.079171 -0.183096
1.232752 0.052426 -0.198939
1.227826 0.026679 -0.214535
1.234833 0.184897 -0.079538
1.232282 0.199747 -0.052601
1.228072 0.213897 -0.025970
1.225238 0.195188 -0.105154
1.225017 0.180347 -0.129832
1.223262 0.169250 -0.150055
1.226606 0.103876 -0.192550
1.226350 0.149775 -0.160192
1.226837 0.128407 -0.176488
1.224533 0.078987 -0.208963
1.221200 0.053022 -0.224907
1.217130 0.027003 -0.239634
1.224416 0.208934 -0.079449
1.221532 0.223938 -0.053025
1.217508 0.238507 -0.026548
1.217314 0.216593 -0.104580
1.217028 0.202914 -0.130545
1.217124 0.187676 -0.151264
1.217517 0.169595 -0.169879
1.217165 0.103505 -0.217650
1.218267 0.128090 -0.200789
1.218329 0.150544 -0.184327
1.214598 0.079108 -0.235055
1.209763 0.028181 -0.262734
1.212256 0.053884 -0.249386
1.210055 0.261495 -0.026630
1.215165 0.233232 -0.079070
1.212737 0.247939 -0.052487
1.210292 0.240581 -0.103621
1.211627 0.222826 -0.128270
1.210641 0.209216 -0.155451
1.211059 0.189225 -0.177036
1.211673 0.171379 -0.191517
1.210240 0.103243 -0.241087
1.211244 0.128583 -0.224273
1.211767 0.150384 -0.208033
1.207062 0.027429 -0.283144
1.209784 0.026133 -0.300129
1.218635 0.024980 -0.313731
1.208451 0.080062 -0.258307
1.207427 0.055398 -0.272069
1.207072 0.282159 -0.026290
1.207751 0.269710 -0.052140
1.209074 0.255317 -0.078530
1.207204 0.104315 -0.260202
1.207208 0.260815 -0.102284
1.207525 0.245462 -0.127463
1.207980 0.230195 -0.147029
1.207205 0.223748 -0.168740
1.207945 0.206508 -0.179170
1.207544 0.190444 -0.200410
1.208561 0.168152 -0.210954
1.207508 0.129118 -0.244878
1.207779 0.151781 -0.228847
1.208056 0.053279 -0.290309
1.213846 0.047350 -0.305457
1.222810 0.045180 -0.314952
1.234524 0.025861 -0.323336
1.207385 0.083895 -0.278455
1.254577 0.020122 -0.328459
1.209706 0.299751 -0.025731
1.218846 0.313868 -0.023177
1.207761 0.288812 -0.051631
1.207093 0.275567 -0.078352
1.208349 0.278049 -0.102490
1.208073 0.110343 -0.273817
1.207460 0.128677 -0.261495
1.207635 0.263673 -0.126924
1.207314 0.246220 -0.153261
1.207920 0.234325 -0.178139
1.207333 0.216786 -0.192975
1.207740 0.200014 -0.214589
1.207145 0.178014 -0.226137
1.207326 0.153967 -0.245995
1.212078 0.074206 -0.297110
1.221364 0.067394 -0.309829
1.235268 0.056455 -0.319686
1.252723 0.043785 -0.325894
1.211338 0.101037 -0.287584
1.272171 0.028624 -0.328824
1.213732 0.304599 -0.050501
1.234570 0.323512 -0.020876
1.226568 0.317434 -0.043652
1.210809 0.292831 -0.080016
1.213253 0.289375 -0.105639
1.211728 0.278770 -0.124857
1.211459 0.126112 -0.277753
1.210852 0.149743 -0.264301
1.211187 0.265424 -0.149025
1.211131 0.250320 -0.173022
1.211086 0.233851 -0.194578
1.210965 0.216138 -0.213740
1.210676 0.195211 -0.232201
1.210367 0.173271 -0.248149
1.219875 0.093544 -0.301651
1.233167 0.083018 -0.312984
1.250915 0.070856 -0.320811
1.272170 0.057167 -0.325067
1.218681 0.119797 -0.291029
1.253183 0.328162 -0.018647
1.220996 0.308934 -0.069310
1.233785 0.317314 -0.064956
1.248571 0.325163 -0.042848
1.219675 0.301038 -0.094440
1.219922 0.292381 -0.119161
1.219292 0.280528 -0.143678
1.218763 0.144156 -0.279837
1.218448 0.168750 -0.265358
1.218993 0.266403 -0.167938
1.218916 0.250394 -0.190891
1.218660 0.232489 -0.211994
1.218488 0.212745 -0.231596
1.218274 0.190957 -0.249621
1.231710 0.110125 -0.303834
1.249679 0.098340 -0.313255
1.272170 0.085273 -0.318836
1.231258 0.135708 -0.293065
1.272176 0.328603 -0.028841
1.233378 0.312008 -0.086358
1.249641 0.319903 -0.073196
1.272179 0.324843 -0.057384
1.232477 0.303998 -0.110259
1.232048 0.293312 -0.135752
1.231763 0.280123 -0.160993
1.231287 0.161361 -0.279760
1.231236 0.185285 -0.264478
1.231489 0.264771 -0.184970
1.231366 0.247533 -0.207407
1.231236 0.228467 -0.228176
1.231147 0.207482 -0.247377
1.249349 0.125579 -0.303288
1.272171 0.112729 -0.310179
1.249094 0.151383 -0.291202
1.249763 0.312618 -0.099931
1.272172 0.318617 -0.085491
1.249874 0.303362 -0.125323
1.249680 0.291280 -0.151250
1.249154 0.276818 -0.176185
1.249128 0.176312 -0.276811
1.249143 0.199975 -0.260217
1.249148 0.260306 -0.199795
1.249181 0.241957 -0.221690
1.249203 0.221623 -0.242041
1.272170 0.139327 -0.299162
1.272171 0.164863 -0.285869
1.272171 0.309961 -0.112947
1.272170 0.298944 -0.139545
1.272171 0.285651 -0.165080
1.272170 0.270183 -0.189361
1.272170 0.189143 -0.270401
1.272171 0.211982 -0.252875
1.272171 0.252657 -0.212200
1.272170 0.233208 -0.233426
1.291045 0.020122 -0.328459
1.514154 0.021184 -0.021402
1.293210 0.043785 -0.325894
1.317142 0.025861 -0.323336
1.512098 0.024629 -0.046152
1.511973 0.047314 -0.024477
1.295361 0.070856 -0.320811
1.316041 0.056455 -0.319686
1.345410 0.024980 -0.313731
1.336795 0.045180 -0.314952
1.508055 0.074354 -0.027190
1.508080 0.027451 -0.074251
1.507774 0.057357 -0.056851
1.292669 0.328162 -0.018647
1.296855 0.098340 -0.313255
1.319186 0.083018 -0.312984
1.371459 0.026133 -0.300129
1.339642 0.067394 -0.309829
1.357379 0.047350 -0.305457
1.502024 0.026587 -0.103763
1.494059 0.026991 -0.131851
1.483981 0.027556 -0.159435
1.470844 0.027167 -0.188124
1.455804 0.026679 -0.214535
1.438102 0.027003 -0.239634
1.395421 0.027429 -0.283144
1.417798 0.028181 -0.262734
1.501780 0.104621 -0.026477
1.503171 0.088240 -0.051841
1.503041 0.053679 -0.087852
1.501890 0.076747 -0.075355
1.298212 0.325163 -0.042848
1.317073 0.323512 -0.020876
1.296902 0.319903 -0.073196
1.297258 0.125579 -0.303288
1.321437 0.110125 -0.303834
1.342719 0.093544 -0.301651
1.380928 0.053279 -0.290309
1.362795 0.074206 -0.297110
1.496156 0.053573 -0.116229
1.487531 0.054755 -0.142738
1.475860 0.053131 -0.171972
1.462192 0.052426 -0.198939
1.445689 0.053022 -0.224907
1.426330 0.053884 -0.249386
1.403562 0.055398 -0.272069
1.494220 0.131254 -0.026626
1.495721 0.117784 -0.053273
1.496074 0.101486 -0.078284
1.495816 0.080812 -0.100597
1.318249 0.317314 -0.064956
1.344944 0.313868 -0.023177
1.329919 0.317434 -0.043652
1.296753 0.312618 -0.099931
1.318866 0.312008 -0.086358
1.371808 0.299751 -0.025731
1.297569 0.151383 -0.291202
1.322147 0.135708 -0.293065
1.345308 0.119797 -0.291029
1.365330 0.101037 -0.287584
1.297528 0.176312 -0.276811
1.387067 0.083895 -0.278455
1.483519 0.160571 -0.026429
1.471112 0.187526 -0.026386
1.396530 0.282159 -0.026290
1.418971 0.261495 -0.026630
1.438869 0.238507 -0.026548
1.456142 0.213897 -0.025970
1.488022 0.082971 -0.126834
1.478146 0.080074 -0.155716
1.465759 0.079171 -0.183096
1.451044 0.078987 -0.208963
1.432500 0.079108 -0.235055
1.411472 0.080062 -0.258307
1.486786 0.145191 -0.053326
1.487744 0.129350 -0.080253
1.486241 0.111546 -0.109224
1.340388 0.308934 -0.069310
1.357707 0.304599 -0.050501
1.296618 0.303362 -0.125323
1.320245 0.303998 -0.110259
1.343144 0.301038 -0.094440
1.296855 0.291280 -0.151250
1.383239 0.288812 -0.051631
1.297496 0.276818 -0.176185
1.297503 0.260306 -0.199795
1.297509 0.199975 -0.260217
1.297436 0.221623 -0.242041
1.297463 0.241957 -0.221690
1.322101 0.161361 -0.279760
1.345125 0.144156 -0.279837
1.364902 0.126112 -0.277753
1.380799 0.110343 -0.273817
1.322182 0.185285 -0.264478
1.400404 0.104315 -0.260202
1.475004 0.173795 -0.052739
1.461614 0.199747 -0.052601
1.406690 0.269710 -0.052140
1.427701 0.247939 -0.052487
1.446250 0.223938 -0.053025
1.478224 0.105229 -0.139707
1.467249 0.104242 -0.166878
1.454093 0.103876 -0.192550
1.438174 0.103505 -0.217650
1.419680 0.103243 -0.241087
1.477434 0.157582 -0.079587
1.477026 0.142150 -0.106193
1.474832 0.128449 -0.128999
1.367272 0.292831 -0.080016
1.359112 0.289375 -0.105639
1.320910 0.293312 -0.135752
1.342619 0.292381 -0.119161
1.321354 0.280123 -0.160993
1.392631 0.275567 -0.078352
1.321784 0.264771 -0.184970
1.321976 0.247533 -0.207407
1.322323 0.207482 -0.247377
1.322182 0.228467 -0.228176
1.345826 0.168750 -0.265358
1.367111 0.149743 -0.264301
1.386174 0.128677 -0.261495
1.346219 0.190957 -0.249621
1.404444 0.129118 -0.244878
1.464682 0.184897 -0.079538
1.450866 0.208934 -0.079449
1.414746 0.255317 -0.078530
1.433834 0.233232 -0.079070
1.466228 0.129153 -0.150856
1.454421 0.128407 -0.176488
1.440368 0.128090 -0.200789
1.423204 0.128583 -0.224273
1.465921 0.168888 -0.105434
1.463483 0.153411 -0.133584
1.378942 0.278049 -0.102490
1.363970 0.278770 -0.124857
1.343969 0.280528 -0.143678
1.344619 0.266403 -0.167938
1.400472 0.260815 -0.102284
1.344788 0.250394 -0.190891
1.345354 0.232489 -0.211994
1.345739 0.212745 -0.231596
1.369000 0.173271 -0.248149
1.387847 0.153967 -0.245995
1.367782 0.195211 -0.232201
1.406920 0.151781 -0.228847
1.452102 0.195188 -0.105154
1.438478 0.216593 -0.104580
1.419873 0.240581 -0.103621
1.453726 0.149775 -0.160192
1.440487 0.150544 -0.184327
1.424864 0.150384 -0.208033
1.451773 0.180347 -0.129832
1.449075 0.169250 -0.150055
1.384367 0.263673 -0.126924
1.365872 0.265424 -0.149025
1.366075 0.250320 -0.173022
1.404623 0.245462 -0.127463
1.366241 0.233851 -0.194578
1.366686 0.216138 -0.213740
1.391043 0.178014 -0.226137
1.383422 0.200014 -0.214589
1.412101 0.168152 -0.210954
1.437892 0.202914 -0.130545
1.424430 0.222826 -0.128270
1.438887 0.169595 -0.169879
1.424572 0.171379 -0.191517
1.438088 0.187676 -0.151264
1.388002 0.246220 -0.153261
1.381942 0.234325 -0.178139
1.408453 0.230195 -0.147029
1.387749 0.216786 -0.192975
1.404811 0.190444 -0.200410
1.421148 0.209216 -0.155451
1.422592 0.189225 -0.177036
1.400411 0.223748 -0.168740
1.408198 0.206508 -0.179170
3 0 1 2
3 2 1 3
3 4 2 3
3 0 5 6
3 0 2 5
3 2 7 5
3 4 7 2
3 8 9 10
3 9 6 10
3 11 6 9
3 1 12 3
3 13 3 12
3 11 14 6
3 0 6 14
3 0 14 1
3 15 12 1
3 15 1 14
3 13 16 3
3 17 16 13
3 16 18 3
3 4 3 18
3 4 19 7
3 4 18 19
3 8 20 21
3 8 10 20
3 21 20 22
3 10 6 23
3 23 6 5
3 5 24 23
3 24 5 7
3 7 25 24
3 7 19 25
3 10 26 20
3 10 23 26
3 27 13 12
3 27 28 13
3 17 28 29
3 17 13 28
3 29 28 30
3 8 31 9
3 8 21 31
3 9 31 32
3 11 9 32
3 11 32 33
3 11 33 14
3 27 12 34
3 34 12 35
3 15 35 12
3 15 36 35
3 36 14 33
3 15 14 36
3 37 31 21
3 21 22 38
3 37 21 38
3 37 39 31
3 29 30 40
3 17 29 41
3 17 41 16
3 40 42 29
3 29 42 41
3 41 43 16
3 16 43 18
3 43 44 18
3 18 44 19
3 25 19 45
3 46 45 19
3 44 46 19
3 22 47 38
3 20 48 22
3 20 26 48
3 49 47 22
3 22 48 49
3 23 50 26
3 50 23 24
3 24 51 50
3 51 24 25
3 52 51 25
3 25 45 52
3 48 26 53
3 50 53 26
3 27 34 54
3 27 54 28
3 54 55 28
3 55 30 28
3 56 40 30
3 56 57 40
3 58 30 55
3 58 56 30
3 59 31 39
3 32 31 59
3 32 59 60
3 32 60 33
3 33 60 61
3 33 61 36
3 54 34 62
3 63 62 34
3 35 63 34
3 35 64 63
3 61 64 36
3 35 36 64
3 65 66 47
3 47 66 38
3 37 67 39
3 37 38 67
3 68 38 66
3 67 38 68
3 69 59 39
3 69 39 70
3 39 67 70
3 57 71 40
3 40 71 42
3 71 57 72
3 73 41 42
3 41 73 43
3 42 71 74
3 42 74 73
3 73 75 43
3 44 43 75
3 75 76 44
3 46 44 76
3 45 77 52
3 78 77 45
3 78 45 46
3 46 76 79
3 78 46 79
3 80 65 47
3 47 49 80
3 81 65 80
3 82 49 48
3 53 82 48
3 83 80 49
3 49 82 83
3 50 84 53
3 50 51 84
3 85 84 51
3 51 52 85
3 86 85 52
3 77 87 86
3 86 52 77
3 88 82 53
3 53 84 88
3 54 62 89
3 54 89 55
3 90 55 89
3 58 55 90
3 91 56 58
3 72 57 92
3 57 93 92
3 56 93 57
3 91 93 56
3 58 90 94
3 91 58 94
3 95 59 69
3 59 95 60
3 60 95 96
3 60 96 61
3 61 96 97
3 61 97 64
3 62 98 89
3 99 98 62
3 62 63 99
3 99 63 100
3 97 100 64
3 64 100 63
3 65 81 101
3 65 101 102
3 66 65 102
3 103 66 102
3 103 68 66
3 70 67 104
3 68 104 67
3 104 68 105
3 103 105 68
3 69 106 95
3 107 106 69
3 70 107 69
3 70 108 107
3 104 108 70
3 92 109 72
3 110 71 72
3 71 110 74
3 111 72 109
3 72 111 110
3 112 73 74
3 73 112 75
3 113 74 110
3 74 113 112
3 112 114 75
3 75 114 76
3 115 76 114
3 76 115 79
3 77 116 87
3 78 116 77
3 78 79 116
3 117 79 115
3 79 117 116
3 118 87 116
3 119 81 80
3 80 83 119
3 120 83 82
3 82 88 120
3 121 119 83
3 83 120 121
3 122 88 84
3 85 122 84
3 123 122 85
3 85 86 123
3 118 124 87
3 124 125 87
3 86 125 123
3 86 87 125
3 126 120 88
3 88 122 126
3 109 92 127
3 128 89 98
3 89 128 90
3 129 90 128
3 94 90 129
3 91 94 130
3 91 130 93
3 127 92 131
3 92 93 131
3 132 131 93
3 130 132 93
3 94 129 133
3 130 94 133
3 134 95 106
3 95 134 96
3 135 96 134
3 96 135 97
3 136 97 135
3 97 136 100
3 98 137 128
3 137 98 138
3 99 138 98
3 138 99 139
3 139 100 136
3 100 139 99
3 106 140 134
3 102 101 141
3 102 141 142
3 103 102 142
3 103 142 105
3 104 143 108
3 105 143 104
3 105 144 143
3 144 105 142
3 143 145 108
3 140 106 146
3 107 146 106
3 146 107 147
3 147 108 145
3 108 147 107
3 148 109 127
3 109 148 149
3 149 111 109
3 110 111 150
3 110 150 113
3 151 111 149
3 111 151 150
3 152 112 113
3 112 152 114
3 153 113 150
3 113 153 152
3 114 152 154
3 115 114 154
3 154 155 115
3 115 155 117
3 118 116 156
3 117 156 116
3 155 157 117
3 156 117 157
3 158 118 156
3 159 124 118
3 158 159 118
3 160 121 120
3 120 126 160
3 161 126 122
3 122 123 161
3 162 161 123
3 123 125 162
3 124 159 163
3 164 162 125
3 163 164 124
3 125 124 164
3 165 160 126
3 126 161 165
3 127 166 148
3 166 127 167
3 127 131 167
3 168 128 137
3 129 128 168
3 129 168 169
3 133 129 169
3 133 170 130
3 170 132 130
3 167 131 171
3 132 171 131
3 172 132 170
3 172 171 132
3 133 169 173
3 170 133 173
3 137 174 168
3 175 134 140
3 134 175 135
3 176 135 175
3 135 176 136
3 177 136 176
3 136 177 139
3 174 137 178
3 138 178 137
3 178 138 179
3 179 139 177
3 139 179 138
3 141 180 142
3 181 142 180
3 181 144 142
3 143 182 145
3 182 143 144
3 144 183 182
3 181 183 144
3 184 150 151
3 150 184 153
3 185 152 153
3 152 185 154
3 186 153 184
3 153 186 185
3 187 154 185
3 154 187 155
3 188 155 187
3 157 155 188
3 188 189 157
3 189 190 157
3 156 157 190
3 158 156 190
3 191 159 158
3 191 158 190
3 192 190 189
3 193 159 191
3 194 163 159
3 193 194 159
3 195 165 161
3 161 162 195
3 196 195 162
3 162 164 196
3 194 197 163
3 198 196 164
3 198 163 197
3 163 198 164
3 167 199 166
3 199 167 200
3 171 200 167
3 201 168 174
3 168 201 169
3 202 169 201
3 169 202 173
3 170 173 203
3 172 170 203
3 172 203 204
3 200 171 204
3 172 204 171
3 202 205 173
3 203 173 205
3 181 206 183
3 181 180 206
3 207 185 186
3 185 207 187
3 208 187 207
3 187 208 188
3 209 188 208
3 189 188 209
3 189 209 210
3 210 192 189
3 190 192 211
3 193 191 211
3 191 190 211
3 192 210 212
3 213 192 212
3 213 211 192
3 193 214 194
3 193 211 214
3 197 194 215
3 214 215 194
3 200 216 199
3 217 216 200
3 217 200 204
3 205 218 203
3 218 204 203
3 219 204 218
3 217 204 219
3 214 211 220
3 213 220 211
3 221 220 213
3 213 212 221
3 220 222 214
3 215 214 222
3 217 223 216
3 217 219 223
3 222 220 224
3 220 221 224
3 140 146 225
3 175 140 226
3 225 226 140
3 227 145 182
3 147 145 228
3 227 228 145
3 146 147 229
3 229 225 146
3 228 229 147
3 229 230 225
3 201 174 231
3 174 178 232
3 232 231 174
3 176 175 233
3 226 233 175
3 177 176 234
3 233 234 176
3 179 177 235
3 234 235 177
3 178 179 236
3 236 232 178
3 235 236 179
3 226 225 237
3 230 237 225
3 233 226 238
3 237 238 226
3 239 182 183
3 182 239 227
3 240 183 206
3 240 239 183
3 241 227 239
3 242 228 227
3 241 242 227
3 243 229 228
3 243 230 229
3 242 243 228
3 230 243 244
3 237 230 245
3 230 244 245
3 231 232 246
3 202 201 247
3 231 247 201
3 248 247 231
3 248 231 246
3 202 249 205
3 247 249 202
3 205 250 218
3 250 205 249
3 232 236 251
3 251 246 232
3 234 233 252
3 238 252 233
3 235 234 253
3 252 253 234
3 236 235 254
3 254 251 236
3 253 254 235
3 255 238 237
3 245 255 237
3 256 252 238
3 255 256 238
3 240 206 257
3 240 257 258
3 240 258 239
3 239 258 241
3 259 241 258
3 242 241 260
3 259 260 241
3 243 242 261
3 244 243 261
3 260 261 242
3 262 244 261
3 245 244 263
3 262 263 244
3 264 255 245
3 264 245 263
3 246 251 265
3 248 246 266
3 265 266 246
3 267 223 219
3 268 249 247
3 268 247 248
3 269 268 248
3 269 248 266
3 270 250 249
3 270 249 268
3 219 218 271
3 267 219 271
3 218 250 271
3 272 271 250
3 272 250 270
3 254 273 251
3 273 265 251
3 252 274 253
3 256 274 252
3 254 253 275
3 273 254 275
3 274 275 253
3 276 256 255
3 264 276 255
3 256 277 274
3 276 277 256
3 278 258 257
3 279 258 278
3 259 258 279
3 259 279 280
3 259 280 260
3 260 280 281
3 261 260 281
3 262 261 281
3 262 281 282
3 262 282 263
3 283 263 282
3 284 264 263
3 283 284 263
3 285 276 264
3 285 264 284
3 286 265 273
3 266 265 287
3 286 287 265
3 267 288 223
3 289 269 266
3 289 266 287
3 267 290 288
3 267 271 290
3 268 291 270
3 291 268 269
3 292 291 269
3 292 269 289
3 272 270 293
3 270 291 293
3 290 271 294
3 272 294 271
3 272 293 294
3 275 295 273
3 286 273 295
3 296 275 274
3 296 295 275
3 296 274 277
3 277 276 297
3 285 297 276
3 298 296 277
3 298 277 297
3 279 278 299
3 300 279 299
3 280 279 300
3 300 301 280
3 301 281 280
3 302 281 301
3 282 281 302
3 282 302 303
3 283 282 303
3 283 303 304
3 283 304 284
3 285 305 297
3 285 284 305
3 284 304 305
3 306 297 305
3 307 286 295
3 286 308 287
3 307 308 286
3 289 287 309
3 287 308 309
3 290 310 288
3 292 289 311
3 289 309 311
3 310 290 312
3 294 312 290
3 291 313 293
3 292 311 313
3 292 313 291
3 312 294 314
3 293 314 294
3 293 313 314
3 295 296 315
3 307 295 315
3 298 315 296
3 298 316 315
3 298 297 316
3 306 316 297
3 300 299 317
3 317 318 300
3 318 301 300
3 301 318 319
3 319 302 301
3 302 319 320
3 303 302 320
3 303 320 321
3 304 303 321
3 304 321 322
3 304 322 305
3 322 323 305
3 306 305 323
3 306 323 324
3 306 324 316
3 307 325 308
3 307 315 325
3 326 308 325
3 327 309 308
3 326 327 308
3 311 309 328
3 327 328 309
3 312 329 310
3 311 330 313
3 311 328 330
3 329 312 331
3 331 312 314
3 331 314 332
3 332 314 313
3 330 332 313
3 316 333 315
3 325 315 333
3 324 333 316
3 334 318 317
3 318 334 335
3 335 319 318
3 319 335 336
3 336 320 319
3 337 320 336
3 320 337 321
3 338 321 337
3 322 321 338
3 338 339 322
3 323 322 339
3 339 340 323
3 324 323 340
3 341 324 340
3 341 333 324
3 325 333 342
3 326 325 342
3 326 343 327
3 326 342 343
3 328 327 344
3 327 343 344
3 330 328 345
3 328 344 345
3 331 346 329
3 347 332 330
3 345 347 330
3 346 331 348
3 348 331 332
3 332 347 348
3 342 333 349
3 341 349 333
3 350 335 334
3 335 350 351
3 351 336 335
3 336 351 352
3 352 337 336
3 337 352 353
3 338 337 353
3 338 353 354
3 339 338 354
3 354 355 339
3 340 339 355
3 340 355 356
3 341 340 356
3 341 356 349
3 343 342 357
3 342 349 357
3 358 344 343
3 343 357 358
3 344 359 345
3 344 358 359
3 360 347 345
3 345 359 360
3 348 361 346
3 361 348 362
3 362 348 347
3 347 360 362
3 357 349 363
3 349 356 363
3 364 351 350
3 351 364 365
3 365 352 351
3 352 365 366
3 366 353 352
3 367 353 366
3 367 354 353
3 354 367 368
3 368 355 354
3 355 368 369
3 355 369 356
3 370 356 369
3 363 356 370
3 358 357 371
3 363 371 357
3 372 359 358
3 358 371 372
3 373 360 359
3 359 372 373
3 360 374 362
3 360 373 374
3 375 361 362
3 362 374 375
3 371 363 376
3 370 376 363
3 377 365 364
3 378 368 367
3 365 377 379
3 379 366 365
3 366 379 380
3 380 367 366
3 367 380 378
3 378 381 368
3 369 368 381
3 382 369 381
3 382 370 369
3 370 383 376
3 382 383 370
3 372 371 384
3 371 376 384
3 385 373 372
3 372 384 385
3 386 374 373
3 373 385 386
3 387 375 374
3 374 386 387
3 388 384 376
3 376 383 388
3 381 378 389
3 390 379 377
3 378 380 391
3 378 391 389
3 379 390 392
3 392 380 379
3 380 392 391
3 381 389 393
3 382 381 393
3 382 393 383
3 394 388 383
3 383 393 394
3 395 393 389
3 384 396 385
3 388 396 384
3 397 386 385
3 385 396 397
3 398 387 386
3 386 397 398
3 396 388 399
3 388 394 399
3 400 389 391
3 395 389 400
3 401 392 390
3 392 401 402
3 402 391 392
3 391 402 400
3 399 394 403
3 404 403 394
3 395 404 393
3 394 393 404
3 405 404 395
3 406 395 400
3 405 395 406
3 407 397 396
3 396 399 407
3 408 398 397
3 397 407 408
3 409 407 399
3 403 409 399
3 409 403 410
3 411 400 402
3 400 411 406
3 412 402 401
3 411 402 412
3 410 403 413
3 404 413 403
3 405 413 404
3 414 405 406
3 414 413 405
3 415 406 411
3 416 406 415
3 416 414 406
3 417 410 413
3 418 408 407
3 407 409 418
3 419 418 409
3 410 419 409
3 410 420 419
3 420 410 417
3 412 421 411
3 415 411 421
3 421 422 415
3 417 423 420
3 413 424 417
3 416 424 414
3 414 424 413
3 425 415 422
3 416 415 425
3 416 425 424
3 426 423 417
3 426 417 424
3 422 427 425
3 426 428 423
3 429 425 427
3 428 426 429
3 425 429 424
3 426 424 429
3 427 430 429
3 429 430 428
3 431 148 166
3 432 149 148
3 148 431 432
3 432 431 433
3 151 149 434
3 432 434 149
3 184 151 435
3 434 435 151
3 431 436 433
3 166 437 431
3 431 437 436
3 437 166 199
3 433 436 438
3 439 438 436
3 440 434 432
3 433 440 432
3 440 433 441
3 441 433 438
3 435 434 442
3 440 442 434
3 186 184 443
3 435 443 184
3 444 443 435
3 442 444 435
3 207 186 445
3 443 445 186
3 199 446 437
3 447 437 446
3 437 447 436
3 439 436 447
3 446 199 216
3 448 439 447
3 449 441 438
3 450 449 438
3 451 438 439
3 450 438 451
3 448 452 439
3 451 439 452
3 442 440 453
3 453 440 441
3 441 454 453
3 449 454 441
3 444 442 455
3 453 455 442
3 445 443 456
3 444 456 443
3 456 444 457
3 455 457 444
3 208 207 458
3 445 458 207
3 459 458 445
3 456 459 445
3 209 208 460
3 458 460 208
3 461 210 209
3 209 460 461
3 212 210 462
3 210 461 462
3 463 212 462
3 463 221 212
3 464 446 216
3 464 465 446
3 446 465 447
3 448 447 465
3 464 216 223
3 448 465 466
3 448 466 452
3 449 467 454
3 450 468 449
3 468 467 449
3 450 451 469
3 450 469 468
3 452 470 451
3 451 470 469
3 452 466 471
3 452 471 470
3 453 472 455
3 454 472 453
3 472 454 473
3 467 473 454
3 457 455 474
3 472 474 455
3 456 475 459
3 457 475 456
3 457 476 475
3 474 476 457
3 458 477 460
3 477 458 459
3 477 459 478
3 478 459 475
3 479 461 460
3 479 460 477
3 480 462 461
3 480 461 479
3 481 462 480
3 463 462 482
3 481 482 462
3 221 463 483
3 463 482 483
3 221 483 224
3 464 223 484
3 464 484 465
3 485 465 484
3 485 466 465
3 486 466 485
3 466 486 471
3 473 467 487
3 468 488 467
3 488 487 467
3 469 489 468
3 468 489 488
3 490 469 470
3 469 490 489
3 470 471 491
3 470 491 490
3 471 486 492
3 471 492 491
3 474 472 493
3 473 493 472
3 494 493 473
3 494 473 487
3 474 495 476
3 493 495 474
3 496 478 475
3 496 475 476
3 476 497 496
3 497 476 495
3 477 498 479
3 478 498 477
3 478 499 498
3 496 499 478
3 480 479 500
3 500 479 498
3 481 480 501
3 501 480 500
3 481 502 482
3 481 501 502
3 503 483 482
3 482 502 503
3 483 503 504
3 483 504 224
3 494 487 505
3 505 487 506
3 488 507 487
3 506 487 507
3 489 508 488
3 507 488 508
3 490 509 489
3 508 489 509
3 510 490 491
3 509 490 510
3 492 511 491
3 491 511 510
3 493 512 495
3 494 512 493
3 505 512 494
3 513 497 495
3 513 495 512
3 514 497 513
3 499 496 515
3 497 515 496
3 514 515 497
3 516 499 515
3 499 517 498
3 516 517 499
3 498 517 500
3 500 517 518
3 501 500 518
3 502 501 519
3 501 518 519
3 520 503 502
3 502 519 520
3 521 504 503
3 503 520 521
3 505 506 522
3 505 522 512
3 506 523 522
3 524 506 507
3 523 506 524
3 508 525 507
3 524 507 525
3 509 526 508
3 525 508 526
3 510 527 509
3 526 509 527
3 511 528 510
3 527 510 528
3 512 529 513
3 529 512 522
3 514 513 530
3 530 513 529
3 514 531 515
3 514 530 531
3 516 515 532
3 531 532 515
3 516 533 517
3 516 532 533
3 518 517 534
3 533 534 517
3 519 518 535
3 518 534 535
3 536 520 519
3 535 536 519
3 520 537 521
3 520 536 537
3 522 523 538
3 522 538 529
3 539 538 523
3 524 540 523
3 539 523 540
3 541 524 525
3 540 524 541
3 542 525 526
3 525 542 541
3 527 543 526
3 542 526 543
3 528 544 527
3 543 527 544
3 545 529 538
3 545 530 529
3 546 545 538
3 530 547 531
3 530 545 547
3 531 548 532
3 531 547 548
3 532 549 533
3 548 549 532
3 533 550 534
3 549 550 533
3 535 534 551
3 550 551 534
3 536 535 552
3 551 552 535
3 536 553 537
3 536 552 553
3 539 554 538
3 555 546 554
3 546 538 554
3 539 540 556
3 539 556 554
3 540 541 557
3 540 557 556
3 542 558 541
3 557 541 558
3 543 559 542
3 558 542 559
3 544 560 543
3 559 543 560
3 545 561 547
3 555 561 546
3 546 561 545
3 555 562 561
3 547 563 548
3 563 547 561
3 548 564 549
3 564 548 563
3 550 549 565
3 549 564 565
3 551 550 566
3 565 566 550
3 552 551 567
3 566 567 551
3 553 552 568
3 567 568 552
3 555 554 569
3 562 555 569
3 556 570 554
3 570 569 554
3 556 557 571
3 556 571 570
3 557 558 572
3 557 572 571
3 559 573 558
3 572 558 573
3 560 574 559
3 573 559 574
3 575 563 561
3 562 575 561
3 562 576 575
3 562 569 576
3 563 577 564
3 577 563 575
3 565 564 578
3 577 578 564
3 566 565 579
3 578 579 565
3 567 566 580
3 579 580 566
3 568 567 581
3 580 581 567
3 582 576 569
3 570 583 569
3 582 569 583
3 571 584 570
3 583 570 584
3 585 571 572
3 571 585 584
3 573 586 572
3 585 572 586
3 574 587 573
3 586 573 587
3 575 588 577
3 575 576 588
3 582 589 576
3 590 588 576
3 589 590 576
3 578 577 591
3 577 588 591
3 579 578 592
3 591 592 578
3 580 579 593
3 592 593 579
3 581 580 594
3 593 594 580
3 582 583 595
3 589 582 595
3 583 584 596
3 583 596 595
3 585 597 584
3 596 584 597
3 586 598 585
3 585 598 597
3 587 599 586
3 598 586 599
3 600 591 588
3 590 600 588
3 589 601 590
3 589 595 601
3 600 590 602
3 601 602 590
3 592 591 603
3 591 600 603
3 593 592 604
3 603 604 592
3 594 593 605
3 604 605 593
3 606 601 595
3 595 596 607
3 606 595 607
3 596 597 608
3 607 596 608
3 598 609 597
3 608 597 609
3 599 610 598
3 609 598 610
3 603 600 611
3 600 602 611
3 601 612 602
3 606 612 601
3 611 602 613
3 602 612 613
3 604 603 614
3 611 614 603
3 605 604 615
3 614 615 604
3 606 607 616
3 606 616 612
3 608 617 607
3 607 617 616
3 618 608 609
3 617 608 618
3 610 619 609
3 618 609 619
3 616 620 612
3 614 611 621
3 613 621 611
3 613 612 622
3 620 622 612
3 621 613 623
3 623 613 622
3 615 614 624
3 621 624 614
3 617 625 616
3 620 616 625
3 618 626 617
3 625 617 626
3 619 627 618
3 626 618 627
3 628 622 620
3 620 625 629
3 628 620 629
3 624 621 630
3 630 621 623
3 622 631 623
3 628 631 622
3 623 632 630
3 632 623 631
3 625 626 633
3 633 629 625
3 627 634 626
3 633 626 634
3 628 635 631
3 628 629 635
3 629 633 636
3 636 635 629
3 631 637 632
3 631 635 637
3 633 634 638
3 638 636 633
3 636 638 639
3 637 635 640
3 641 636 639
3 641 640 635
3 641 635 636
3 641 639 642
3 641 642 640
3 643 484 223
3 643 223 288
3 486 485 644
3 485 484 645
3 643 645 484
3 485 645 644
3 643 288 646
3 643 646 645
3 646 288 310
3 647 492 486
3 644 647 486
3 492 648 511
3 647 648 492
3 649 647 644
3 650 644 645
3 650 649 644
3 646 651 645
3 650 645 651
3 310 652 646
3 651 646 652
3 652 310 329
3 653 648 647
3 649 653 647
3 653 654 648
3 511 655 528
3 648 655 511
3 655 648 654
3 649 656 653
3 650 657 649
3 656 649 657
3 650 651 657
3 652 658 651
3 657 651 658
3 329 659 652
3 659 658 652
3 659 329 346
3 654 653 660
3 656 660 653
3 660 661 654
3 662 655 654
3 654 661 662
3 528 663 544
3 663 528 655
3 655 662 663
3 664 660 656
3 657 658 665
3 656 657 665
3 664 656 665
3 659 666 658
3 666 665 658
3 346 667 659
3 667 666 659
3 667 346 361
3 660 668 661
3 664 668 660
3 669 662 661
3 661 670 669
3 668 670 661
3 671 663 662
3 662 669 671
3 544 672 560
3 672 544 663
3 663 671 672
3 664 665 673
3 664 673 668
3 674 665 666
3 673 665 674
3 666 667 675
3 675 674 666
3 667 361 676
3 675 667 676
3 375 676 361
3 668 677 670
3 668 673 677
3 678 671 669
3 669 679 678
3 679 669 670
3 670 680 679
3 670 677 680
3 681 672 671
3 681 671 678
3 560 682 574
3 682 560 672
3 672 681 682
3 673 674 683
3 673 683 677
3 684 674 675
3 674 684 683
3 675 676 685
3 685 684 675
3 676 375 686
3 686 685 676
3 387 686 375
3 678 687 681
3 677 683 688
3 688 680 677
3 687 678 689
3 689 678 679
3 690 680 688
3 689 679 691
3 691 679 680
3 692 691 680
3 690 692 680
3 693 682 681
3 681 687 693
3 574 694 587
3 694 574 682
3 682 693 694
3 683 684 695
3 695 688 683
3 684 685 696
3 684 696 695
3 685 686 697
3 697 696 685
3 398 698 387
3 686 387 698
3 697 686 698
3 699 687 689
3 700 693 687
3 699 700 687
3 688 695 701
3 690 688 701
3 689 702 699
3 702 689 691
3 690 701 703
3 692 690 703
3 691 704 702
3 692 704 691
3 692 703 704
3 705 694 693
3 700 705 693
3 587 706 599
3 706 587 694
3 694 705 706
3 695 696 707
3 707 701 695
3 696 697 708
3 708 707 696
3 408 709 398
3 698 398 709
3 709 710 698
3 697 698 710
3 710 708 697
3 711 699 702
3 699 712 700
3 711 712 699
3 700 713 705
3 712 713 700
3 701 707 714
3 701 714 703
3 715 703 714
3 711 702 716
3 704 716 702
3 703 715 717
3 704 717 716
3 717 704 703
3 718 706 705
3 718 705 713
3 599 719 610
3 719 599 706
3 706 718 719
3 707 708 720
3 707 720 714
3 418 721 408
3 709 408 721
3 708 710 722
3 708 722 720
3 723 709 721
3 710 709 723
3 710 723 722
3 713 724 718
3 711 725 712
3 711 716 725
3 713 726 724
3 712 726 713
3 712 725 726
3 727 725 728
3 728 725 716
3 729 714 720
3 715 714 729
3 730 715 729
3 730 731 715
3 731 717 715
3 728 716 732
3 732 716 717
3 732 717 731
3 718 733 719
3 718 724 733
3 610 734 619
3 734 610 719
3 719 733 734
3 419 735 418
3 721 418 735
3 736 720 722
3 720 736 729
3 721 735 737
3 737 723 721
3 737 738 723
3 738 722 723
3 736 722 738
3 739 724 726
3 740 733 724
3 739 740 724
3 726 741 739
3 726 725 741
3 727 741 725
3 742 739 741
3 743 741 727
3 727 728 744
3 727 744 743
3 728 732 744
3 729 736 745
3 730 729 745
3 730 745 746
3 730 746 731
3 732 747 744
3 731 746 747
3 731 747 732
3 748 419 420
3 419 748 735
3 423 749 420
3 420 749 748
3 750 749 423
3 750 423 428
3 751 734 733
3 740 751 733
3 619 752 627
3 752 619 734
3 752 734 751
3 753 735 748
3 753 737 735
3 736 738 754
3 754 745 736
3 737 753 755
3 738 737 755
3 738 755 754
3 756 751 740
3 757 756 740
3 739 757 740
3 742 757 739
3 758 757 742
3 759 745 754
3 742 741 760
3 742 760 758
3 743 760 741
3 743 761 760
3 743 744 761
3 761 744 762
3 762 744 747
3 759 763 745
3 746 745 763
3 747 764 762
3 746 763 764
3 746 764 747
3 765 748 749
3 765 753 748
3 766 765 749
3 750 767 749
3 766 749 767
3 428 768 750
3 750 768 767
3 428 430 768
3 769 752 751
3 751 756 769
3 627 770 634
3 770 627 752
3 752 769 770
3 765 771 753
3 771 755 753
3 754 755 772
3 759 754 772
3 755 771 772
3 756 773 769
3 774 773 756
3 774 756 757
3 774 757 775
3 758 775 757
3 758 776 775
3 758 760 776
3 759 772 777
3 759 777 763
3 776 760 778
3 761 778 760
3 761 779 778
3 779 761 762
3 762 780 779
3 780 762 764
3 764 781 780
3 763 777 781
3 764 763 781
3 766 782 765
3 782 771 765
3 766 767 783
3 766 783 782
3 784 767 768
3 767 784 783
3 768 785 784
3 768 430 785
3 786 770 769
3 769 773 786
3 787 638 634
3 787 634 770
3 786 787 770
3 771 788 772
3 782 788 771
3 788 789 772
3 777 772 789
3 790 786 773
3 773 791 790
3 774 791 773
3 774 775 791
3 775 792 791
3 775 776 792
3 793 792 776
3 776 778 793
3 777 789 794
3 781 777 794
3 793 778 795
3 779 795 778
3 796 795 779
3 779 780 796
3 797 796 780
3 794 797 781
3 781 797 780
3 783 798 782
3 782 798 788
3 799 783 784
3 783 799 798
3 800 784 785
3 784 800 799
3 787 786 801
3 790 801 786
3 802 639 638
3 638 787 802
3 801 802 787
3 803 639 802
3 803 642 639
3 804 801 790
3 798 805 788
3 788 805 789
3 805 806 789
3 794 789 806
3 804 790 807
3 790 791 807
3 808 807 791
3 792 808 791
3 809 808 792
3 793 809 792
3 810 809 793
3 795 810 793
3 806 811 794
3 797 794 811
3 812 810 795
3 795 796 812
3 813 812 796
3 811 813 797
3 796 797 813
3 814 798 799
3 805 798 814
3 799 800 815
3 799 815 814
3 803 802 816
3 802 801 816
3 804 816 801
3 803 817 642
3 803 816 817
3 804 818 816
3 804 807 818
3 814 819 805
3 806 805 819
3 819 820 806
3 811 806 820
3 807 821 818
3 821 807 808
3 822 821 808
3 808 809 822
3 823 822 809
3 809 810 823
3 824 823 810
3 810 812 824
3 820 825 811
3 813 811 825
3 826 824 812
3 825 826 813
3 812 813 826
3 814 815 827
3 814 827 819
3 828 817 816
3 818 828 816
3 818 829 828
3 829 818 821
3 827 830 819
3 820 819 830
3 830 831 820
3 825 820 831
3 821 832 829
3 832 821 822
3 833 832 822
3 822 823 833
3 834 833 823
3 823 824 834
3 835 834 824
3 824 826 835
3 836 835 826
3 831 836 825
3 826 825 836
3 837 101 81
3 838 81 119
3 81 838 837
3 838 839 837
3 837 839 840
3 101 837 841
3 837 840 841
3 839 842 840
3 843 840 842
3 841 141 101
3 121 844 119
3 838 119 844
3 845 838 844
3 839 838 845
3 845 846 839
3 846 842 839
3 160 847 121
3 844 121 847
3 841 840 848
3 843 848 840
3 141 841 849
3 848 849 841
3 850 848 843
3 851 842 846
3 852 842 851
3 853 843 842
3 852 853 842
3 850 843 854
3 853 854 843
3 849 180 141
3 847 855 844
3 845 844 855
3 855 856 845
3 856 846 845
3 846 856 857
3 851 846 857
3 165 858 160
3 847 160 858
3 859 847 858
3 855 847 859
3 195 860 165
3 858 165 860
3 849 848 861
3 850 861 848
3 862 180 849
3 862 849 861
3 850 863 861
3 850 854 863
3 851 857 864
3 852 851 865
3 865 851 864
3 852 866 853
3 852 865 866
3 854 853 867
3 853 866 867
3 854 868 863
3 854 867 868
3 862 206 180
3 859 869 855
3 856 855 869
3 856 869 870
3 857 856 870
3 870 871 857
3 864 857 871
3 860 872 858
3 859 858 872
3 872 873 859
3 869 859 873
3 196 874 195
3 860 195 874
3 198 875 196
3 874 196 875
3 215 876 197
3 877 198 197
3 197 876 877
3 198 877 875
3 878 860 874
3 872 860 878
3 879 861 863
3 862 880 206
3 879 880 861
3 862 861 880
3 881 879 863
3 863 868 881
3 871 882 864
3 865 864 883
3 883 864 882
3 866 865 884
3 865 883 884
3 885 867 866
3 866 884 885
3 867 886 868
3 867 885 886
3 868 887 881
3 868 886 887
3 888 876 215
3 888 215 222
3 873 889 869
3 870 869 889
3 889 890 870
3 871 870 890
3 891 871 890
3 891 882 871
3 888 892 876
3 893 876 892
3 872 878 894
3 873 872 894
3 873 894 895
3 889 873 895
3 874 875 896
3 896 878 874
3 897 875 877
3 897 896 875
3 898 877 876
3 893 898 876
3 898 897 877
3 896 899 878
3 899 894 878
3 891 900 882
3 900 901 882
3 883 882 902
3 901 902 882
3 884 883 903
3 902 903 883
3 885 884 904
3 903 904 884
3 905 886 885
3 904 905 885
3 887 886 906
3 886 905 906
3 222 907 888
3 888 907 892
3 222 224 907
3 889 895 908
3 890 889 908
3 890 908 909
3 891 890 909
3 900 891 909
3 910 892 907
3 892 910 911
3 893 892 911
3 893 912 898
3 893 911 912
3 913 894 899
3 913 895 894
3 895 913 914
3 914 908 895
3 896 897 915
3 899 896 915
3 912 916 898
3 898 916 897
3 916 915 897
3 899 915 917
3 913 899 917
3 900 918 901
3 900 909 918
3 901 918 919
3 920 902 901
3 919 920 901
3 903 902 921
3 920 921 902
3 904 903 922
3 921 922 903
3 905 904 923
3 922 923 904
3 906 905 924
3 923 924 905
3 907 925 910
3 907 224 925
3 926 908 914
3 926 909 908
3 909 926 927
3 927 918 909
3 928 926 914
3 929 910 925
3 910 929 930
3 930 911 910
3 911 930 931
3 911 931 912
3 912 931 932
3 912 932 916
3 917 933 913
3 914 913 933
3 928 914 933
3 916 932 934
3 917 915 934
3 915 916 934
3 935 917 934
3 935 933 917
3 918 936 919
3 918 927 936
3 937 919 936
3 920 919 938
3 937 938 919
3 939 921 920
3 938 939 920
3 940 922 921
3 921 939 940
3 923 922 941
3 940 941 922
3 924 923 942
3 941 942 923
3 928 943 926
3 943 927 926
3 944 936 927
3 944 927 943
3 945 936 944
3 928 933 946
3 928 946 943
3 930 929 947
3 930 947 948
3 948 931 930
3 949 931 948
3 931 949 932
3 932 949 950
3 932 950 934
3 935 951 933
3 946 933 951
3 952 934 950
3 935 934 952
3 935 952 951
3 937 936 953
3 954 953 945
3 945 953 936
3 937 955 938
3 937 953 955
3 938 956 939
3 938 955 956
3 940 939 957
3 956 957 939
3 941 940 958
3 957 958 940
3 942 941 959
3 958 959 941
3 943 946 960
3 943 960 944
3 944 960 961
3 954 945 961
3 945 944 961
3 954 961 962
3 946 951 963
3 946 963 960
3 948 947 964
3 948 964 965
3 948 965 949
3 966 949 965
3 949 966 950
3 967 950 966
3 952 950 967
3 968 952 967
3 951 952 968
3 963 951 968
3 954 969 953
3 962 969 954
3 955 953 970
3 970 953 969
3 955 971 956
3 955 970 971
3 956 972 957
3 956 971 972
3 958 957 973
3 972 973 957
3 959 958 974
3 973 974 958
3 960 963 975
3 975 961 960
3 976 961 975
3 962 961 976
3 962 976 977
3 962 977 969
3 963 968 978
3 978 975 963
3 964 979 965
3 980 965 979
3 965 980 966
3 981 966 980
3 966 981 967
3 982 967 981
3 967 982 968
3 968 982 978
3 983 969 977
3 970 969 984
3 983 984 969
3 971 970 985
3 984 985 970
3 986 972 971
3 971 985 986
3 973 972 987
3 986 987 972
3 974 973 988
3 987 988 973
3 975 978 989
3 989 976 975
3 976 989 990
3 976 990 977
3 983 977 991
3 992 977 990
3 991 977 992
3 982 993 978
3 989 978 993
3 979 994 980
3 995 980 994
3 980 995 981
3 996 981 995
3 981 996 982
3 993 982 996
3 983 997 984
3 991 997 983
3 984 998 985
3 984 997 998
3 986 985 999
3 998 999 985
3 987 986 1000
3 986 999 1000
3 988 987 1001
3 1000 1001 987
3 993 1002 989
3 989 1002 990
3 1003 990 1002
3 992 990 1003
3 991 992 1004
3 991 1004 997
3 1003 1005 992
3 1004 992 1005
3 996 1006 993
3 1002 993 1006
3 994 1007 995
3 1008 995 1007
3 995 1008 996
3 1006 996 1008
3 1009 997 1004
3 997 1010 998
3 1009 1010 997
3 998 1011 999
3 1010 1011 998
3 1000 999 1012
3 1011 1012 999
3 1001 1000 1013
3 1012 1013 1000
3 1006 1014 1002
3 1002 1014 1003
3 1014 1015 1003
3 1003 1015 1005
3 1004 1005 1016
3 1009 1004 1016
3 1015 1017 1005
3 1005 1017 1016
3 1008 1018 1006
3 1014 1006 1018
3 1007 1019 1008
3 1018 1008 1019
3 1009 1020 1010
3 1009 1016 1020
3 1011 1010 1021
3 1010 1020 1021
3 1020 1016 1022
3 1023 1012 1011
3 1021 1023 1011
3 1013 1012 1024
3 1023 1024 1012
3 1018 1025 1014
3 1015 1014 1025
3 1025 1026 1015
3 1017 1015 1026
3 1026 1027 1017
3 1027 1028 1017
3 1017 1028 1016
3 1022 1016 1028
3 1019 1029 1018
3 1025 1018 1029
3 1021 1020 1030
3 1022 1030 1020
3 1023 1021 1031
3 1030 1031 1021
3 1032 1022 1028
3 1022 1033 1030
3 1032 1033 1022
3 1024 1023 1034
3 1031 1034 1023
3 1029 1035 1025
3 1026 1025 1035
3 1035 1036 1026
3 1036 1027 1026
3 1027 1036 1037
3 1037 1038 1027
3 1028 1027 1038
3 1032 1028 1038
3 1030 1039 1031
3 1039 1030 1033
3 1034 1031 1040
3 1039 1040 1031
3 1032 1038 1041
3 1032 1041 1033
3 1033 1042 1039
3 1042 1033 1041
3 1038 1037 1043
3 1038 1043 1041
3 1039 1044 1040
3 1044 1039 1042
3 1043 1045 1041
3 1042 1046 1044
3 1047 1046 1042
3 1047 1041 1045
3 1047 1042 1041
3 1047 1048 1046
3 1047 1045 1048
3 1049 206 880
3 1049 257 206
3 881 1050 879
3 879 1051 880
3 1049 880 1051
3 879 1050 1051
3 1052 881 887
3 1050 881 1052
3 887 906 1053
3 1052 887 1053
3 1049 1054 257
3 1049 1051 1054
3 1054 278 257
3 1055 1050 1052
3 1056 1051 1050
3 1056 1050 1055
3 1054 1051 1057
3 1056 1057 1051
3 1058 1052 1053
3 1055 1052 1058
3 906 924 1059
3 1053 906 1059
3 1059 1060 1053
3 1058 1053 1060
3 278 1054 1061
3 1057 1061 1054
3 1061 299 278
3 1055 1058 1062
3 1056 1055 1063
3 1062 1063 1055
3 1056 1063 1057
3 1061 1057 1064
3 1063 1064 1057
3 1060 1065 1058
3 1062 1058 1065
3 924 942 1066
3 1066 1059 924
3 1059 1066 1067
3 1067 1060 1059
3 1060 1067 1068
3 1065 1060 1068
3 299 1061 1069
3 1069 1061 1064
3 1069 317 299
3 1070 1062 1065
3 1063 1071 1064
3 1062 1071 1063
3 1070 1071 1062
3 1069 1064 1072
3 1072 1064 1071
3 1065 1068 1073
3 1070 1065 1073
3 942 959 1074
3 1074 1066 942
3 1066 1074 1075
3 1075 1067 1066
3 1067 1075 1076
3 1076 1068 1067
3 1068 1076 1077
3 1073 1068 1077
3 317 1069 1078
3 1078 1069 1072
3 1078 334 317
3 1070 1079 1071
3 1070 1073 1079
3 1080 1072 1071
3 1079 1080 1071
3 1072 1081 1078
3 1081 1072 1080
3 1073 1077 1082
3 1073 1082 1079
3 1083 1075 1074
3 959 974 1084
3 1084 1074 959
3 1074 1084 1083
3 1083 1085 1075
3 1085 1076 1075
3 1076 1085 1086
3 1086 1077 1076
3 1077 1086 1087
3 1077 1087 1082
3 1078 1088 334
3 1081 1088 1078
3 350 334 1088
3 1079 1089 1080
3 1079 1082 1089
3 1090 1081 1080
3 1080 1089 1090
3 1081 1091 1088
3 1091 1081 1090
3 1082 1092 1089
3 1092 1082 1087
3 1085 1083 1093
3 1094 1083 1084
3 1083 1094 1093
3 974 988 1095
3 1095 1084 974
3 1084 1095 1094
3 1093 1096 1085
3 1096 1086 1085
3 1097 1092 1087
3 1096 1098 1086
3 1098 1087 1086
3 1099 1087 1098
3 1097 1087 1099
3 1088 1100 350
3 1100 1088 1091
3 364 350 1100
3 1089 1101 1090
3 1101 1089 1092
3 1090 1102 1091
3 1090 1101 1102
3 1091 1103 1100
3 1103 1091 1102
3 1092 1104 1101
3 1097 1104 1092
3 988 1001 1105
3 1105 1095 988
3 1106 1096 1093
3 1107 1093 1094
3 1106 1093 1107
3 1095 1105 1108
3 1108 1094 1095
3 1107 1094 1108
3 1096 1106 1109
3 1109 1098 1096
3 1097 1110 1104
3 1099 1110 1097
3 1098 1109 1111
3 1099 1098 1111
3 1099 1111 1110
3 1100 1112 364
3 1103 1112 1100
3 377 364 1112
3 1101 1113 1102
3 1113 1101 1104
3 1102 1114 1103
3 1114 1102 1113
3 1103 1115 1112
3 1115 1103 1114
3 1104 1116 1113
3 1104 1110 1116
3 1001 1013 1117
3 1117 1105 1001
3 1105 1117 1118
3 1118 1108 1105
3 1119 1109 1106
3 1106 1107 1120
3 1119 1106 1120
3 1118 1121 1108
3 1107 1108 1121
3 1120 1107 1121
3 1122 1116 1110
3 1119 1123 1109
3 1111 1109 1123
3 1110 1124 1122
3 1111 1123 1124
3 1124 1110 1111
3 1112 1125 377
3 1125 1112 1115
3 390 377 1125
3 1113 1126 1114
3 1113 1116 1126
3 1114 1127 1115
3 1114 1126 1127
3 1115 1128 1125
3 1115 1127 1128
3 1129 1126 1116
3 1122 1129 1116
3 1013 1024 1130
3 1130 1117 1013
3 1117 1130 1131
3 1118 1117 1131
3 1118 1131 1132
3 1121 1118 1132
3 1133 1129 1122
3 1119 1120 1134
3 1119 1134 1123
3 1121 1132 1135
3 1120 1121 1135
3 1120 1135 1134
3 1136 1123 1134
3 1137 1136 1134
3 1133 1122 1138
3 1138 1122 1124
3 1136 1139 1123
3 1139 1124 1123
3 1139 1138 1124
3 1125 1140 390
3 1128 1140 1125
3 401 390 1140
3 1141 1127 1126
3 1126 1129 1141
3 1142 1140 1128
3 1142 1128 1143
3 1143 1128 1127
3 1141 1143 1127
3 1129 1144 1141
3 1133 1144 1129
3 1024 1034 1145
3 1145 1130 1024
3 1145 1146 1130
3 1146 1131 1130
3 1147 1131 1146
3 1147 1132 1131
3 1148 1132 1147
3 1148 1135 1132
3 1133 1149 1144
3 1133 1138 1149
3 1135 1148 1150
3 1135 1150 1134
3 1137 1134 1150
3 1151 1150 1148
3 1152 1137 1150
3 1137 1153 1136
3 1137 1152 1153
3 1136 1153 1139
3 1139 1153 1154
3 1138 1154 1149
3 1138 1139 1154
3 1140 1155 401
3 1140 1142 1155
3 412 401 1155
3 1156 1155 1142
3 1141 1157 1143
3 1157 1141 1144
3 1142 1158 1156
3 1143 1158 1142
3 1143 1157 1158
3 1159 1157 1144
3 1159 1144 1160
3 1149 1160 1144
3 1034 1040 1161
3 1161 1145 1034
3 1145 1161 1162
3 1162 1146 1145
3 1146 1162 1163
3 1163 1147 1146
3 1164 1147 1163
3 1148 1147 1164
3 1151 1148 1164
3 1165 1151 1164
3 1149 1166 1160
3 1149 1154 1166
3 1151 1167 1150
3 1151 1165 1167
3 1152 1150 1167
3 1152 1167 1168
3 1152 1168 1153
3 1168 1169 1153
3 1154 1169 1166
3 1169 1154 1153
3 412 1155 1170
3 1156 1170 1155
3 1170 421 412
3 1171 1040 1044
3 1171 1161 1040
3 1172 1170 1156
3 1172 1156 1173
3 1173 1156 1158
3 1157 1174 1158
3 1159 1174 1157
3 1158 1174 1173
3 1159 1175 1174
3 1159 1160 1175
3 1160 1176 1175
3 1166 1176 1160
3 1177 1161 1171
3 1177 1162 1161
3 1162 1177 1178
3 1163 1162 1178
3 1179 1163 1178
3 1179 1164 1163
3 1179 1180 1164
3 1165 1164 1180
3 1165 1180 1181
3 1165 1181 1167
3 1166 1182 1176
3 1182 1166 1169
3 1181 1183 1167
3 1168 1167 1183
3 1168 1183 1184
3 1169 1184 1182
3 1184 1169 1168
3 422 421 1185
3 421 1170 1185
3 1172 1185 1170
3 1186 422 1185
3 1186 427 422
3 1187 1044 1046
3 1044 1187 1171
3 1188 1171 1187
3 1171 1188 1177
3 1189 1187 1046
3 1189 1046 1048
3 1190 1185 1172
3 1190 1172 1191
3 1191 1172 1173
3 1173 1174 1192
3 1191 1173 1192
3 1192 1174 1193
3 1175 1193 1174
3 1175 1194 1193
3 1176 1194 1175
3 1194 1176 1195
3 1176 1182 1195
3 1196 1177 1188
3 1196 1178 1177
3 1178 1196 1197
3 1179 1178 1197
3 1179 1197 1180
3 1180 1197 1198
3 1180 1198 1181
3 1199 1181 1198
3 1181 1199 1183
3 1195 1182 1200
3 1184 1200 1182
3 1199 1201 1183
3 1200 1184 1201
3 1184 1183 1201
3 1186 1185 1202
3 1190 1202 1185
3 427 1186 1203
3 1186 1202 1203
3 427 1203 430
3 1204 1196 1188
3 1189 1205 1187
3 1187 1205 1188
3 1204 1188 1205
3 1189 1048 1206
3 1189 1206 1205
3 1190 1207 1202
3 1190 1191 1207
3 1207 1191 1208
3 1191 1192 1208
3 1208 1192 1209
3 1192 1193 1209
3 1209 1193 1210
3 1194 1210 1193
3 1210 1194 1211
3 1195 1211 1194
3 1211 1195 1212
3 1200 1212 1195
3 1204 1213 1196
3 1196 1213 1197
3 1214 1197 1213
3 1198 1197 1214
3 1215 1198 1214
3 1199 1198 1215
3 1216 1199 1215
3 1201 1199 1216
3 1217 1201 1216
3 1212 1200 1217
3 1201 1217 1200
3 1218 1203 1202
3 1202 1207 1218
3 1203 1218 1219
3 1203 1219 430
3 1204 1205 1220
3 1204 1220 1213
3 1221 1205 1206
3 1220 1205 1221
3 1222 1218 1207
3 1207 1208 1222
3 1223 1222 1208
3 1209 1223 1208
3 1223 1209 1224
3 1210 1224 1209
3 1224 1210 1225
3 1211 1225 1210
3 1225 1211 1226
3 1212 1226 1211
3 1226 1212 1227
3 1217 1227 1212
3 1213 1220 1228
3 1228 1214 1213
3 1229 1214 1228
3 1214 1229 1215
3 1230 1215 1229
3 1215 1230 1216
3 1231 1216 1230
3 1227 1217 1231
3 1216 1231 1217
3 1232 1219 1218
3 1218 1222 1232
3 1220 1221 1233
3 1233 1228 1220
3 1222 1234 1232
3 1222 1223 1234
3 1223 1235 1234
3 1223 1224 1235
3 1235 1224 1236
3 1225 1236 1224
3 1236 1225 1237
3 1226 1237 1225
3 1237 1226 1238
3 1227 1238 1226
3 1238 1227 1239
3 1231 1239 1227
3 1228 1233 1240
3 1240 1229 1228
3 1241 1229 1240
3 1229 1241 1230
3 1242 1230 1241
3 1239 1231 1242
3 1230 1242 1231
3 925 224 1243
3 1243 224 504
3 1244 929 925
3 1243 1244 925
3 1243 504 1245
3 1245 504 521
3 1243 1245 1244
3 1244 1246 929
3 929 1246 947
3 1246 1244 1247
3 1245 1247 1244
3 521 537 1248
3 1245 521 1248
3 1245 1248 1247
3 1249 1246 1247
3 1250 947 1246
3 1246 1249 1250
3 947 1250 964
3 1251 1249 1247
3 1252 1247 1248
3 1251 1247 1252
3 553 1253 537
3 1253 1248 537
3 1252 1248 1253
3 1251 1254 1249
3 1255 1250 1249
3 1249 1254 1255
3 1256 964 1250
3 1250 1255 1256
3 964 1256 979
3 1251 1252 1257
3 1251 1257 1254
3 1253 1258 1252
3 1257 1252 1258
3 553 568 1259
3 1259 1253 553
3 1259 1258 1253
3 1254 1257 1260
3 1254 1261 1255
3 1254 1260 1261
3 1262 1256 1255
3 1255 1261 1262
3 1263 979 1256
3 1256 1262 1263
3 979 1263 994
3 1257 1258 1264
3 1257 1264 1260
3 1258 1259 1265
3 1258 1265 1264
3 568 581 1266
3 1266 1259 568
3 1265 1259 1266
3 1267 1260 1264
3 1268 1260 1267
3 1269 1261 1260
3 1268 1269 1260
3 1270 1262 1261
3 1269 1270 1261
3 1271 1263 1262
3 1262 1270 1271
3 1272 994 1263
3 1271 1272 1263
3 994 1272 1007
3 1273 1264 1265
3 1273 1267 1264
3 1274 1265 1266
3 1265 1274 1273
3 581 594 1275
3 1275 1266 581
3 1275 1274 1266
3 1276 1267 1273
3 1276 1277 1267
3 1268 1267 1277
3 1268 1278 1269
3 1268 1277 1278
3 1279 1270 1269
3 1269 1278 1279
3 1280 1271 1270
3 1279 1280 1270
3 1281 1272 1271
3 1271 1280 1281
3 1282 1007 1272
3 1272 1281 1282
3 1007 1282 1019
3 1283 1273 1274
3 1273 1283 1276
3 1274 1275 1284
3 1274 1284 1283
3 594 605 1285
3 1285 1275 594
3 1275 1285 1284
3 1286 1276 1283
3 1286 1287 1276
3 1287 1277 1276
3 1288 1277 1287
3 1289 1280 1279
3 1290 1278 1277
3 1288 1290 1277
3 1279 1291 1289
3 1291 1279 1278
3 1290 1291 1278
3 1292 1281 1280
3 1280 1289 1292
3 1282 1281 1293
3 1281 1292 1293
3 1029 1019 1294
3 1294 1019 1282
3 1282 1293 1294
3 1295 1283 1284
3 1295 1286 1283
3 1296 1284 1285
3 1284 1296 1295
3 605 615 1297
3 1297 1285 605
3 1285 1297 1296
3 1298 1286 1295
3 1298 1299 1286
3 1287 1286 1299
3 1300 1287 1299
3 1288 1287 1300
3 1288 1300 1301
3 1288 1301 1290
3 1302 1292 1289
3 1289 1303 1302
3 1303 1289 1291
3 1304 1303 1291
3 1291 1290 1304
3 1301 1304 1290
3 1293 1292 1305
3 1302 1305 1292
3 1035 1029 1306
3 1294 1306 1029
3 1306 1294 1307
3 1294 1293 1307
3 1305 1307 1293
3 615 624 1308
3 1308 1297 615
3 1309 1295 1296
3 1295 1309 1298
3 1297 1308 1310
3 1310 1296 1297
3 1296 1310 1309
3 1311 1298 1309
3 1298 1311 1312
3 1312 1299 1298
3 1312 1313 1299
3 1300 1299 1313
3 1313 1314 1300
3 1301 1300 1314
3 1301 1315 1304
3 1315 1301 1314
3 1316 1305 1302
3 1302 1317 1316
3 1303 1317 1302
3 1318 1317 1303
3 1303 1304 1318
3 1315 1318 1304
3 1036 1035 1319
3 1306 1319 1035
3 1037 1036 1320
3 1320 1036 1319
3 1321 1037 1320
3 1321 1043 1037
3 1305 1322 1307
3 1316 1322 1305
3 1319 1306 1323
3 1306 1307 1323
3 1322 1323 1307
3 624 630 1324
3 1324 1308 624
3 1325 1308 1324
3 1325 1310 1308
3 1310 1325 1326
3 1326 1309 1310
3 1309 1326 1311
3 1327 1322 1316
3 1328 1311 1326
3 1311 1328 1329
3 1329 1312 1311
3 1330 1312 1329
3 1330 1313 1312
3 1330 1331 1313
3 1332 1314 1313
3 1332 1313 1331
3 1332 1333 1314
3 1315 1314 1333
3 1334 1315 1333
3 1334 1318 1315
3 1327 1316 1335
3 1335 1316 1317
3 1335 1317 1336
3 1318 1336 1317
3 1334 1336 1318
3 1320 1319 1337
3 1337 1319 1323
3 1338 1321 1320
3 1338 1320 1337
3 1339 1321 1338
3 1043 1340 1045
3 1043 1321 1340
3 1339 1340 1321
3 1337 1323 1341
3 1322 1341 1323
3 1327 1341 1322
3 1342 1045 1340
3 1342 1048 1045
3 1343 630 632
3 1343 1324 630
3 1344 632 637
3 632 1344 1343
3 1324 1343 1345
3 1345 1325 1324
3 1325 1345 1346
3 1346 1326 1325
3 1328 1326 1346
3 1347 1328 1346
3 1348 1341 1327
3 1348 1327 1349
3 1349 1327 1335
3 1347 1350 1328
3 1350 1329 1328
3 1329 1350 1351
3 1330 1329 1351
3 1330 1351 1331
3 1352 1331 1351
3 1352 1353 1331
3 1332 1353 1333
3 1332 1331 1353
3 1354 1333 1353
3 1354 1355 1333
3 1334 1355 1336
3 1334 1333 1355
3 1336 1355 1356
3 1349 1335 1356
3 1336 1356 1335
3 1337 1357 1338
3 1357 1337 1341
3 1339 1338 1358
3 1358 1338 1357
3 1339 1359 1340
3 1339 1358 1359
3 1342 1340 1360
3 1360 1340 1359
3 1361 1357 1341
3 1348 1361 1341
3 1342 1362 1048
3 1342 1360 1362
3 1343 1344 1363
3 1363 1345 1343
3 1364 637 640
3 637 1364 1344
3 1365 1344 1364
3 1365 1363 1344
3 1345 1363 1366
3 1346 1345 1366
3 1347 1346 1366
3 1367 1347 1366
3 1367 1368 1347
3 1368 1350 1347
3 1348 1369 1361
3 1348 1349 1369
3 1369 1349 1370
3 1370 1349 1356
3 1368 1371 1350
3 1371 1351 1350
3 1371 1372 1351
3 1352 1351 1372
3 1352 1372 1373
3 1352 1373 1353
3 1373 1374 1353
3 1354 1353 1374
3 1354 1374 1375
3 1354 1375 1355
3 1375 1376 1355
3 1356 1376 1370
3 1356 1355 1376
3 1358 1357 1377
3 1377 1357 1361
3 1378 1359 1358
3 1358 1377 1378
3 1359 1379 1360
3 1359 1378 1379
3 1360 1380 1362
3 1380 1360 1379
3 1361 1381 1377
3 1369 1381 1361
3 1382 1364 640
3 1382 640 642
3 1383 1363 1365
3 1383 1366 1363
3 1384 1383 1365
3 1382 1385 1364
3 1364 1385 1365
3 1384 1365 1385
3 1386 1366 1383
3 1367 1366 1386
3 1367 1386 1387
3 1367 1387 1368
3 1387 1388 1368
3 1388 1371 1368
3 1381 1369 1389
3 1369 1370 1389
3 1389 1370 1390
3 1370 1376 1390
3 1388 1391 1371
3 1372 1371 1391
3 1372 1391 1392
3 1373 1372 1392
3 1373 1392 1393
3 1374 1373 1393
3 1374 1393 1394
3 1374 1394 1375
3 1375 1394 1395
3 1395 1390 1376
3 1375 1395 1376
3 1377 1396 1378
3 1377 1381 1396
3 1378 1397 1379
3 1378 1396 1397
3 1379 1398 1380
3 1398 1379 1397
3 1399 1396 1381
3 1389 1399 1381
3 1382 642 1400
3 1382 1400 1385
3 1384 1401 1383
3 1383 1401 1386
3 1402 1384 1385
3 1384 1402 1401
3 1400 1403 1385
3 1403 1402 1385
3 1401 1404 1386
3 1387 1386 1404
3 1387 1404 1405
3 1387 1405 1388
3 1405 1406 1388
3 1391 1388 1406
3 1389 1407 1399
3 1390 1407 1389
3 1407 1390 1408
3 1395 1408 1390
3 1406 1409 1391
3 1392 1391 1409
3 1409 1410 1392
3 1393 1392 1410
3 1410 1411 1393
3 1394 1393 1411
3 1411 1412 1394
3 1408 1395 1412
3 1394 1412 1395
3 1396 1413 1397
3 1396 1399 1413
3 1397 1414 1398
3 1397 1413 1414
3 1413 1399 1415
3 1407 1415 1399
3 1401 1402 1416
3 1401 1416 1404
3 1417 1402 1403
3 1402 1417 1416
3 1416 1418 1404
3 1404 1418 1405
3 1418 1419 1405
3 1406 1405 1419
3 1406 1419 1420
3 1406 1420 1409
3 1415 1407 1421
3 1407 1408 1421
3 1421 1408 1422
3 1412 1422 1408
3 1409 1420 1423
3 1410 1409 1423
3 1423 1424 1410
3 1411 1410 1424
3 1424 1425 1411
3 1422 1412 1425
3 1412 1411 1425
3 1426 1414 1413
3 1413 1415 1426
3 1426 1415 1427
3 1415 1421 1427
3 1428 1416 1417
3 1416 1428 1418
3 1418 1428 1429
3 1419 1418 1429
3 1429 1430 1419
3 1419 1430 1420
3 1430 1431 1420
3 1423 1420 1431
3 1432 1427 1421
3 1421 1422 1432
3 1433 1432 1422
3 1422 1425 1433
3 1431 1434 1423
3 1424 1423 1434
3 1434 1435 1424
3 1435 1433 1425
3 1425 1424 1435
3 1436 1206 1048
3 1436 1048 1362
3 1219 1437 430
3 1437 785 430
3 1438 1362 1380
3 1436 1362 1438
3 1221 1206 1439
3 1436 1439 1206
3 1436 1438 1439
3 1440 1219 1232
3 1437 1219 1440
3 1437 1441 785
3 1441 800 785
3 1437 1440 1441
3 1442 1380 1398
3 1380 1442 1438
3 1443 1438 1442
3 1438 1443 1439
3 1444 1233 1221
3 1221 1439 1444
3 1445 1444 1439
3 1445 1439 1443
3 800 1446 815
3 1441 1446 800
3 1232 1234 1447
3 1440 1232 1447
3 1447 1448 1440
3 1441 1440 1448
3 1441 1448 1446
3 1449 642 817
3 1449 1400 642
3 1450 1398 1414
3 1398 1450 1442
3 1451 1442 1450
3 1443 1442 1451
3 1233 1452 1240
3 1444 1452 1233
3 1451 1453 1443
3 1445 1443 1453
3 1454 1452 1444
3 1445 1454 1444
3 1445 1453 1454
3 1234 1235 1455
3 1455 1447 1234
3 1235 1236 1456
3 1456 1455 1235
3 1236 1237 1457
3 1457 1456 1236
3 1237 1238 1458
3 1458 1457 1237
3 1238 1239 1459
3 1459 1458 1238
3 1242 1460 1239
3 1460 1459 1239
3 1240 1461 1241
3 1452 1461 1240
3 1241 1462 1242
3 1462 1241 1461
3 1460 1242 1462
3 827 815 1463
3 1463 815 1446
3 1464 1463 1446
3 1464 1446 1448
3 1447 1455 1465
3 1465 1448 1447
3 1466 1448 1465
3 1466 1464 1448
3 1400 1467 1403
3 1449 1467 1400
3 1468 817 828
3 1449 817 1468
3 1449 1468 1467
3 1417 1403 1469
3 1403 1467 1469
3 1426 1470 1414
3 1450 1414 1470
3 1471 1450 1470
3 1451 1450 1471
3 1472 1451 1471
3 1453 1451 1472
3 1452 1473 1461
3 1454 1473 1452
3 1453 1474 1454
3 1473 1454 1474
3 1453 1472 1474
3 1455 1456 1475
3 1475 1465 1455
3 1456 1457 1476
3 1476 1475 1456
3 1477 1457 1458
3 1477 1476 1457
3 1458 1459 1478
3 1478 1477 1458
3 1459 1460 1479
3 1459 1479 1478
3 1462 1480 1460
3 1460 1480 1479
3 1461 1481 1462
3 1473 1481 1461
3 1462 1481 1480
3 827 1482 830
3 1482 827 1463
3 1482 1463 1483
3 1463 1464 1483
3 1484 1483 1464
3 1466 1484 1464
3 1465 1475 1485
3 1466 1465 1485
3 1466 1485 1484
3 1469 1467 1486
3 1487 828 829
3 828 1487 1468
3 1488 1468 1487
3 1468 1488 1467
3 1486 1467 1488
3 1428 1417 1489
3 1469 1489 1417
3 1490 1489 1469
3 1486 1490 1469
3 1491 829 832
3 829 1491 1487
3 1426 1427 1492
3 1470 1426 1492
3 1470 1492 1493
3 1471 1470 1493
3 1493 1494 1471
3 1472 1471 1494
3 1495 1472 1494
3 1472 1495 1474
3 1432 1496 1427
3 1492 1427 1496
3 1473 1497 1481
3 1474 1497 1473
3 1495 1497 1474
3 830 1498 831
3 1498 830 1482
3 831 1499 836
3 1499 831 1498
3 833 1500 832
3 1491 832 1500
3 834 1501 833
3 1500 833 1501
3 835 1502 834
3 1501 834 1502
3 836 1503 835
3 1503 836 1499
3 1502 835 1503
3 1475 1476 1504
3 1485 1475 1504
3 1476 1477 1505
3 1505 1504 1476
3 1477 1478 1506
3 1506 1505 1477
3 1478 1479 1507
3 1507 1506 1478
3 1508 1479 1480
3 1479 1508 1507
3 1509 1480 1481
3 1509 1481 1497
3 1508 1480 1509
3 1510 1498 1482
3 1483 1510 1482
3 1483 1511 1510
3 1484 1511 1483
3 1485 1504 1512
3 1484 1512 1511
3 1485 1512 1484
3 1486 1513 1490
3 1486 1488 1513
3 1491 1514 1487
3 1488 1487 1514
3 1513 1488 1514
3 1515 1429 1428
3 1489 1515 1428
3 1489 1516 1515
3 1490 1516 1489
3 1490 1517 1516
3 1513 1517 1490
3 1429 1518 1430
3 1518 1429 1515
3 1500 1519 1491
3 1514 1491 1519
3 1430 1520 1431
3 1518 1520 1430
3 1431 1521 1434
3 1521 1431 1520
3 1433 1522 1432
3 1496 1432 1522
3 1435 1523 1433
3 1522 1433 1523
3 1434 1524 1435
3 1524 1434 1521
3 1523 1435 1524
3 1492 1496 1525
3 1525 1493 1492
3 1526 1493 1525
3 1526 1494 1493
3 1494 1526 1527
3 1527 1495 1494
3 1528 1497 1495
3 1528 1495 1527
3 1496 1522 1529
3 1525 1496 1529
3 1530 1509 1497
3 1528 1530 1497
3 1499 1498 1531
3 1531 1498 1510
3 1499 1532 1503
3 1531 1532 1499
3 1533 1500 1501
3 1519 1500 1533
3 1502 1534 1501
3 1533 1501 1534
3 1503 1535 1502
3 1535 1503 1532
3 1534 1502 1535
3 1536 1504 1505
3 1536 1512 1504
3 1537 1505 1506
3 1537 1536 1505
3 1506 1507 1538
3 1538 1537 1506
3 1539 1507 1508
3 1539 1538 1507
3 1540 1508 1509
3 1530 1540 1509
3 1540 1539 1508
3 1510 1541 1531
3 1541 1510 1511
3 1541 1511 1542
3 1542 1511 1512
3 1543 1512 1536
3 1543 1542 1512
3 1519 1544 1514
3 1513 1514 1544
3 1517 1513 1544
3 1545 1517 1544
3 1515 1546 1518
3 1516 1546 1515
3 1547 1546 1516
3 1547 1516 1517
3 1545 1547 1517
3 1548 1520 1518
3 1548 1518 1546
3 1533 1549 1519
3 1549 1544 1519
3 1550 1521 1520
3 1548 1550 1520
3 1521 1551 1524
3 1551 1521 1550
3 1522 1523 1552
3 1552 1529 1522
3 1524 1553 1523
3 1553 1524 1551
3 1552 1523 1553
3 1525 1529 1554
3 1554 1526 1525
3 1526 1554 1555
3 1527 1526 1555
3 1528 1556 1530
3 1527 1555 1556
3 1528 1527 1556
3 1529 1552 1557
3 1557 1554 1529
3 1530 1558 1540
3 1556 1558 1530
3 1531 1559 1532
3 1559 1531 1541
3 1532 1560 1535
3 1560 1532 1559
3 1534 1561 1533
3 1549 1533 1561
3 1535 1562 1534
3 1562 1535 1560
3 1561 1534 1562
3 1536 1537 1563
3 1543 1536 1563
3 1537 1538 1564
3 1564 1563 1537
3 1538 1539 1565
3 1565 1564 1538
3 1539 1540 1566
3 1558 1566 1540
3 1565 1539 1566
3 1541 1567 1559
3 1567 1541 1542
3 1567 1542 1568
3 1543 1568 1542
3 1543 1563 1568
3 1569 1544 1549
3 1545 1544 1569
3 1545 1570 1547
3 1545 1569 1570
3 1546 1571 1548
3 1547 1571 1546
3 1547 1570 1571
3 1548 1572 1550
3 1572 1548 1571
3 1573 1549 1561
3 1569 1549 1573
3 1550 1574 1551
3 1574 1550 1572
3 1551 1575 1553
3 1575 1551 1574
3 1553 1576 1552
3 1576 1553 1575
3 1576 1557 1552
3 1557 1577 1554
3 1555 1554 1577
3 1578 1555 1577
3 1555 1578 1556
3 1556 1578 1558
3 1579 1557 1576
3 1579 1577 1557
3 1558 1580 1566
3 1580 1558 1578
3 1560 1559 1581
3 1581 1559 1567
3 1560 1582 1562
3 1582 1560 1581
3 1562 1583 1561
3 1583 1562 1582
3 1573 1561 1583
3 1584 1563 1564
3 1584 1568 1563
3 1585 1564 1565
3 1564 1585 1584
3 1586 1566 1580
3 1586 1565 1566
3 1565 1586 1585
3 1581 1567 1587
3 1587 1567 1568
3 1588 1587 1568
3 1588 1568 1584
3 1569 1573 1589
3 1570 1569 1589
3 1571 1590 1572
3 1571 1570 1590
3 1570 1589 1590
3 1591 1574 1572
3 1591 1572 1590
3 1583 1592 1573
3 1589 1573 1592
3 1593 1575 1574
3 1593 1574 1591
3 1594 1576 1575
3 1594 1575 1593
3 1594 1579 1576
3 1579 1595 1577
3 1578 1577 1595
3 1580 1578 1595
3 1596 1579 1594
3 1596 1595 1579
3 1597 1580 1595
3 1597 1586 1580
3 1582 1581 1598
3 1587 1598 1581
3 1582 1599 1583
3 1599 1582 1598
3 1592 1583 1599
3 1600 1584 1585
3 1588 1584 1600
3 1597 1601 1586
3 1600 1585 1601
3 1601 1585 1586
3 1602 1598 1587
3 1588 1602 1587
3 1588 1600 1602
3 1590 1603 1591
3 1590 1589 1603
3 1592 1603 1589
3 1604 1593 1591
3 1604 1591 1603
3 1605 1592 1599
3 1605 1603 1592
3 1593 1606 1594
3 1604 1606 1593
3 1596 1594 1606
3 1596 1606 1607
3 1596 1607 1595
3 1597 1595 1607
3 1597 1607 1601
3 1599 1598 1608
3 1605 1599 1608
3 1602 1608 1598
3 1608 1602 1609
3 1600 1609 1602
3 1601 1607 1609
3 1601 1609 1600
3 1604 1603 1610
3 1604 1610 1606
3 1605 1610 1603
3 1605 1608 1610
3 1611 1607 1606
3 1611 1606 1610
3 1611 1609 1607
3 1611 1608 1609
3 1611 1610 1608
